<?xml version="1.0" encoding="utf-8" standalone="no"?>
<!DOCTYPE svg PUBLIC "-//W3C//DTD SVG 1.1//EN"
  "http://www.w3.org/Graphics/SVG/1.1/DTD/svg11.dtd">
<svg xmlns:xlink="http://www.w3.org/1999/xlink" width="460.8pt" height="345.6pt" viewBox="0 0 460.8 345.6" xmlns="http://www.w3.org/2000/svg" version="1.1">
 <metadata>
  <rdf:RDF xmlns:dc="http://purl.org/dc/elements/1.1/" xmlns:cc="http://creativecommons.org/ns#" xmlns:rdf="http://www.w3.org/1999/02/22-rdf-syntax-ns#">
   <cc:Work>
    <dc:type rdf:resource="http://purl.org/dc/dcmitype/StillImage"/>
    <dc:date>2024-04-16T11:57:41.785573</dc:date>
    <dc:format>image/svg+xml</dc:format>
    <dc:creator>
     <cc:Agent>
      <dc:title>Matplotlib v3.8.0, https://matplotlib.org/</dc:title>
     </cc:Agent>
    </dc:creator>
   </cc:Work>
  </rdf:RDF>
 </metadata>
 <defs>
  <style type="text/css">*{stroke-linejoin: round; stroke-linecap: butt}</style>
 </defs>
 <g id="figure_1">
  <g id="patch_1">
   <path d="M 0 345.6 
L 460.8 345.6 
L 460.8 0 
L 0 0 
z
" style="fill: #ffffff"/>
  </g>
  <g id="axes_1">
   <g id="patch_2">
    <path d="M 47.81 303.64 
L 450 303.64 
L 450 25.44 
L 47.81 25.44 
z
" style="fill: #ffffff"/>
   </g>
   <g id="PolyCollection_1">
    <defs>
     <path id="md6ebcee645" d="M 66.091364 -211.318847 
L 66.091364 -211.318847 
L 69.822254 -263.187986 
L 73.553145 -272.118023 
L 77.284035 -279.271096 
L 81.014926 -284.475898 
L 84.745816 -288.629119 
L 88.476707 -291.534789 
L 92.207597 -293.976719 
L 95.938488 -295.91431 
L 99.669378 -297.578739 
L 103.400269 -298.938083 
L 107.13116 -300.129831 
L 110.86205 -301.179056 
L 114.592941 -302.107109 
L 118.323831 -302.891861 
L 122.054722 -303.493369 
L 125.785612 -304.045531 
L 129.516503 -304.552806 
L 133.247393 -305.019423 
L 136.978284 -305.427831 
L 140.709174 -305.806422 
L 144.440065 -306.15779 
L 148.170955 -306.468323 
L 151.901846 -306.743825 
L 155.632737 -306.989088 
L 159.363627 -307.195955 
L 163.094518 -307.348281 
L 166.825408 -307.445765 
L 170.556299 -307.498369 
L 174.287189 -307.514125 
L 178.01808 -307.514545 
L 181.74897 -307.481268 
L 185.479861 -307.414071 
L 189.210751 -307.324881 
L 192.941642 -307.212462 
L 196.672532 -307.081128 
L 200.403423 -306.938826 
L 204.134314 -306.783671 
L 207.865204 -306.614498 
L 211.596095 -306.434116 
L 215.326985 -306.238736 
L 219.057876 -306.02881 
L 222.788766 -305.802748 
L 226.519657 -305.564436 
L 230.250547 -305.317084 
L 233.981438 -305.066633 
L 237.712328 -304.818998 
L 241.443219 -304.566155 
L 245.174109 -304.310127 
L 248.905 -304.051592 
L 252.635891 -303.794671 
L 256.366781 -303.539937 
L 260.097672 -303.287835 
L 263.828562 -303.038705 
L 267.559453 -302.793785 
L 271.290343 -302.551304 
L 275.021234 -302.311668 
L 278.752124 -302.075715 
L 282.483015 -301.843462 
L 286.213905 -301.615505 
L 289.944796 -301.391312 
L 293.675686 -301.170794 
L 297.406577 -300.954292 
L 301.137468 -300.741387 
L 304.868358 -300.532229 
L 308.599249 -300.326995 
L 312.330139 -300.125025 
L 316.06103 -299.92648 
L 319.79192 -299.731263 
L 323.522811 -299.539703 
L 327.253701 -299.351461 
L 330.984592 -299.166455 
L 334.715482 -298.984608 
L 338.446373 -298.805685 
L 342.177263 -298.629761 
L 345.908154 -298.457262 
L 349.639045 -298.288177 
L 353.369935 -298.12229 
L 357.100826 -297.959753 
L 360.831716 -297.800111 
L 364.562607 -297.643721 
L 368.293497 -297.490541 
L 372.024388 -297.340071 
L 375.755278 -297.192244 
L 379.486169 -297.047682 
L 383.217059 -296.906352 
L 386.94795 -296.768212 
L 390.67884 -296.633479 
L 394.409731 -296.501325 
L 398.140622 -296.371689 
L 401.871512 -296.243739 
L 405.602403 -296.117441 
L 409.333293 -295.992525 
L 413.064184 -295.869428 
L 416.795074 -295.74766 
L 420.525965 -295.627417 
L 424.256855 -295.50909 
L 427.987746 -295.392423 
L 431.718636 -295.276971 
L 431.718636 -270.735833 
L 431.718636 -270.735833 
L 427.987746 -270.771377 
L 424.256855 -270.805929 
L 420.525965 -270.841164 
L 416.795074 -270.877989 
L 413.064184 -270.91465 
L 409.333293 -270.950187 
L 405.602403 -270.98641 
L 401.871512 -271.021404 
L 398.140622 -271.056063 
L 394.409731 -271.090345 
L 390.67884 -271.127284 
L 386.94795 -271.167029 
L 383.217059 -271.213031 
L 379.486169 -271.264594 
L 375.755278 -271.322096 
L 372.024388 -271.385944 
L 368.293497 -271.452772 
L 364.562607 -271.522732 
L 360.831716 -271.598676 
L 357.100826 -271.681003 
L 353.369935 -271.767254 
L 349.639045 -271.860623 
L 345.908154 -271.960053 
L 342.177263 -272.067538 
L 338.446373 -272.183646 
L 334.715482 -272.303809 
L 330.984592 -272.426444 
L 327.253701 -272.55344 
L 323.522811 -272.685012 
L 319.79192 -272.821388 
L 316.06103 -272.96686 
L 312.330139 -273.115765 
L 308.599249 -273.268209 
L 304.868358 -273.419853 
L 301.137468 -273.579609 
L 297.406577 -273.74324 
L 293.675686 -273.905956 
L 289.944796 -274.072506 
L 286.213905 -274.235184 
L 282.483015 -274.393448 
L 278.752124 -274.552165 
L 275.021234 -274.702707 
L 271.290343 -274.8442 
L 267.559453 -274.969929 
L 263.828562 -275.078588 
L 260.097672 -275.180643 
L 256.366781 -275.269252 
L 252.635891 -275.343198 
L 248.905 -275.401189 
L 245.174109 -275.441855 
L 241.443219 -275.45425 
L 237.712328 -275.439729 
L 233.981438 -275.396546 
L 230.250547 -275.34176 
L 226.519657 -275.264554 
L 222.788766 -275.1568 
L 219.057876 -275.016621 
L 215.326985 -274.842149 
L 211.596095 -274.637612 
L 207.865204 -274.404132 
L 204.134314 -274.145808 
L 200.403423 -273.860728 
L 196.672532 -273.549923 
L 192.941642 -273.214433 
L 189.210751 -272.84903 
L 185.479861 -272.451361 
L 181.74897 -272.022049 
L 178.01808 -271.555423 
L 174.287189 -271.051818 
L 170.556299 -270.51754 
L 166.825408 -269.943469 
L 163.094518 -269.326352 
L 159.363627 -268.662816 
L 155.632737 -267.952256 
L 151.901846 -267.19651 
L 148.170955 -266.394218 
L 144.440065 -265.54063 
L 140.709174 -264.630329 
L 136.978284 -263.660477 
L 133.247393 -262.624111 
L 129.516503 -261.509075 
L 125.785612 -260.309483 
L 122.054722 -259.013699 
L 118.323831 -257.6076 
L 114.592941 -256.058826 
L 110.86205 -254.357309 
L 107.13116 -252.482211 
L 103.400269 -250.400591 
L 99.669378 -248.069339 
L 95.938488 -245.427293 
L 92.207597 -242.403063 
L 88.476707 -238.88678 
L 84.745816 -234.720802 
L 81.014926 -229.695898 
L 77.284035 -223.408385 
L 73.553145 -215.114797 
L 69.822254 -202.41951 
L 66.091364 -211.318847 
z
" style="stroke: #ff0000; stroke-opacity: 0.2"/>
    </defs>
    <g clip-path="url(#pa3088bb015)">
     <use xlink:href="#md6ebcee645" x="0" y="345.6" style="fill: #ff0000; fill-opacity: 0.2; stroke: #ff0000; stroke-opacity: 0.2"/>
    </g>
   </g>
   <g id="matplotlib.axis_1">
    <g id="xtick_1">
     <g id="line2d_1">
      <defs>
       <path id="mf4445a3ab2" d="M 0 0 
L 0 3.5 
" style="stroke: #000000; stroke-width: 0.8"/>
      </defs>
      <g>
       <use xlink:href="#mf4445a3ab2" x="66.091364" y="303.64" style="stroke: #000000; stroke-width: 0.8"/>
      </g>
     </g>
     <g id="text_1">
      <!-- 0 -->
      <g transform="translate(62.910114 318.238437) scale(0.1 -0.1)">
       <defs>
        <path id="DejaVuSans-30" d="M 2034 4250 
Q 1547 4250 1301 3770 
Q 1056 3291 1056 2328 
Q 1056 1369 1301 889 
Q 1547 409 2034 409 
Q 2525 409 2770 889 
Q 3016 1369 3016 2328 
Q 3016 3291 2770 3770 
Q 2525 4250 2034 4250 
z
M 2034 4750 
Q 2819 4750 3233 4129 
Q 3647 3509 3647 2328 
Q 3647 1150 3233 529 
Q 2819 -91 2034 -91 
Q 1250 -91 836 529 
Q 422 1150 422 2328 
Q 422 3509 836 4129 
Q 1250 4750 2034 4750 
z
" transform="scale(0.015625)"/>
       </defs>
       <use xlink:href="#DejaVuSans-30"/>
      </g>
     </g>
    </g>
    <g id="xtick_2">
     <g id="line2d_2">
      <g>
       <use xlink:href="#mf4445a3ab2" x="140.709174" y="303.64" style="stroke: #000000; stroke-width: 0.8"/>
      </g>
     </g>
     <g id="text_2">
      <!-- 20 -->
      <g transform="translate(134.346674 318.238437) scale(0.1 -0.1)">
       <defs>
        <path id="DejaVuSans-32" d="M 1228 531 
L 3431 531 
L 3431 0 
L 469 0 
L 469 531 
Q 828 903 1448 1529 
Q 2069 2156 2228 2338 
Q 2531 2678 2651 2914 
Q 2772 3150 2772 3378 
Q 2772 3750 2511 3984 
Q 2250 4219 1831 4219 
Q 1534 4219 1204 4116 
Q 875 4013 500 3803 
L 500 4441 
Q 881 4594 1212 4672 
Q 1544 4750 1819 4750 
Q 2544 4750 2975 4387 
Q 3406 4025 3406 3419 
Q 3406 3131 3298 2873 
Q 3191 2616 2906 2266 
Q 2828 2175 2409 1742 
Q 1991 1309 1228 531 
z
" transform="scale(0.015625)"/>
       </defs>
       <use xlink:href="#DejaVuSans-32"/>
       <use xlink:href="#DejaVuSans-30" x="63.623047"/>
      </g>
     </g>
    </g>
    <g id="xtick_3">
     <g id="line2d_3">
      <g>
       <use xlink:href="#mf4445a3ab2" x="215.326985" y="303.64" style="stroke: #000000; stroke-width: 0.8"/>
      </g>
     </g>
     <g id="text_3">
      <!-- 40 -->
      <g transform="translate(208.964485 318.238437) scale(0.1 -0.1)">
       <defs>
        <path id="DejaVuSans-34" d="M 2419 4116 
L 825 1625 
L 2419 1625 
L 2419 4116 
z
M 2253 4666 
L 3047 4666 
L 3047 1625 
L 3713 1625 
L 3713 1100 
L 3047 1100 
L 3047 0 
L 2419 0 
L 2419 1100 
L 313 1100 
L 313 1709 
L 2253 4666 
z
" transform="scale(0.015625)"/>
       </defs>
       <use xlink:href="#DejaVuSans-34"/>
       <use xlink:href="#DejaVuSans-30" x="63.623047"/>
      </g>
     </g>
    </g>
    <g id="xtick_4">
     <g id="line2d_4">
      <g>
       <use xlink:href="#mf4445a3ab2" x="289.944796" y="303.64" style="stroke: #000000; stroke-width: 0.8"/>
      </g>
     </g>
     <g id="text_4">
      <!-- 60 -->
      <g transform="translate(283.582296 318.238437) scale(0.1 -0.1)">
       <defs>
        <path id="DejaVuSans-36" d="M 2113 2584 
Q 1688 2584 1439 2293 
Q 1191 2003 1191 1497 
Q 1191 994 1439 701 
Q 1688 409 2113 409 
Q 2538 409 2786 701 
Q 3034 994 3034 1497 
Q 3034 2003 2786 2293 
Q 2538 2584 2113 2584 
z
M 3366 4563 
L 3366 3988 
Q 3128 4100 2886 4159 
Q 2644 4219 2406 4219 
Q 1781 4219 1451 3797 
Q 1122 3375 1075 2522 
Q 1259 2794 1537 2939 
Q 1816 3084 2150 3084 
Q 2853 3084 3261 2657 
Q 3669 2231 3669 1497 
Q 3669 778 3244 343 
Q 2819 -91 2113 -91 
Q 1303 -91 875 529 
Q 447 1150 447 2328 
Q 447 3434 972 4092 
Q 1497 4750 2381 4750 
Q 2619 4750 2861 4703 
Q 3103 4656 3366 4563 
z
" transform="scale(0.015625)"/>
       </defs>
       <use xlink:href="#DejaVuSans-36"/>
       <use xlink:href="#DejaVuSans-30" x="63.623047"/>
      </g>
     </g>
    </g>
    <g id="xtick_5">
     <g id="line2d_5">
      <g>
       <use xlink:href="#mf4445a3ab2" x="364.562607" y="303.64" style="stroke: #000000; stroke-width: 0.8"/>
      </g>
     </g>
     <g id="text_5">
      <!-- 80 -->
      <g transform="translate(358.200107 318.238437) scale(0.1 -0.1)">
       <defs>
        <path id="DejaVuSans-38" d="M 2034 2216 
Q 1584 2216 1326 1975 
Q 1069 1734 1069 1313 
Q 1069 891 1326 650 
Q 1584 409 2034 409 
Q 2484 409 2743 651 
Q 3003 894 3003 1313 
Q 3003 1734 2745 1975 
Q 2488 2216 2034 2216 
z
M 1403 2484 
Q 997 2584 770 2862 
Q 544 3141 544 3541 
Q 544 4100 942 4425 
Q 1341 4750 2034 4750 
Q 2731 4750 3128 4425 
Q 3525 4100 3525 3541 
Q 3525 3141 3298 2862 
Q 3072 2584 2669 2484 
Q 3125 2378 3379 2068 
Q 3634 1759 3634 1313 
Q 3634 634 3220 271 
Q 2806 -91 2034 -91 
Q 1263 -91 848 271 
Q 434 634 434 1313 
Q 434 1759 690 2068 
Q 947 2378 1403 2484 
z
M 1172 3481 
Q 1172 3119 1398 2916 
Q 1625 2713 2034 2713 
Q 2441 2713 2670 2916 
Q 2900 3119 2900 3481 
Q 2900 3844 2670 4047 
Q 2441 4250 2034 4250 
Q 1625 4250 1398 4047 
Q 1172 3844 1172 3481 
z
" transform="scale(0.015625)"/>
       </defs>
       <use xlink:href="#DejaVuSans-38"/>
       <use xlink:href="#DejaVuSans-30" x="63.623047"/>
      </g>
     </g>
    </g>
    <g id="xtick_6">
     <g id="line2d_6">
      <g>
       <use xlink:href="#mf4445a3ab2" x="439.180417" y="303.64" style="stroke: #000000; stroke-width: 0.8"/>
      </g>
     </g>
     <g id="text_6">
      <!-- 100 -->
      <g transform="translate(429.636667 318.238437) scale(0.1 -0.1)">
       <defs>
        <path id="DejaVuSans-31" d="M 794 531 
L 1825 531 
L 1825 4091 
L 703 3866 
L 703 4441 
L 1819 4666 
L 2450 4666 
L 2450 531 
L 3481 531 
L 3481 0 
L 794 0 
L 794 531 
z
" transform="scale(0.015625)"/>
       </defs>
       <use xlink:href="#DejaVuSans-31"/>
       <use xlink:href="#DejaVuSans-30" x="63.623047"/>
       <use xlink:href="#DejaVuSans-30" x="127.246094"/>
      </g>
     </g>
    </g>
    <g id="text_7">
     <!-- Iteration -->
     <g transform="translate(227.696406 331.916562) scale(0.1 -0.1)">
      <defs>
       <path id="DejaVuSans-49" d="M 628 4666 
L 1259 4666 
L 1259 0 
L 628 0 
L 628 4666 
z
" transform="scale(0.015625)"/>
       <path id="DejaVuSans-74" d="M 1172 4494 
L 1172 3500 
L 2356 3500 
L 2356 3053 
L 1172 3053 
L 1172 1153 
Q 1172 725 1289 603 
Q 1406 481 1766 481 
L 2356 481 
L 2356 0 
L 1766 0 
Q 1100 0 847 248 
Q 594 497 594 1153 
L 594 3053 
L 172 3053 
L 172 3500 
L 594 3500 
L 594 4494 
L 1172 4494 
z
" transform="scale(0.015625)"/>
       <path id="DejaVuSans-65" d="M 3597 1894 
L 3597 1613 
L 953 1613 
Q 991 1019 1311 708 
Q 1631 397 2203 397 
Q 2534 397 2845 478 
Q 3156 559 3463 722 
L 3463 178 
Q 3153 47 2828 -22 
Q 2503 -91 2169 -91 
Q 1331 -91 842 396 
Q 353 884 353 1716 
Q 353 2575 817 3079 
Q 1281 3584 2069 3584 
Q 2775 3584 3186 3129 
Q 3597 2675 3597 1894 
z
M 3022 2063 
Q 3016 2534 2758 2815 
Q 2500 3097 2075 3097 
Q 1594 3097 1305 2825 
Q 1016 2553 972 2059 
L 3022 2063 
z
" transform="scale(0.015625)"/>
       <path id="DejaVuSans-72" d="M 2631 2963 
Q 2534 3019 2420 3045 
Q 2306 3072 2169 3072 
Q 1681 3072 1420 2755 
Q 1159 2438 1159 1844 
L 1159 0 
L 581 0 
L 581 3500 
L 1159 3500 
L 1159 2956 
Q 1341 3275 1631 3429 
Q 1922 3584 2338 3584 
Q 2397 3584 2469 3576 
Q 2541 3569 2628 3553 
L 2631 2963 
z
" transform="scale(0.015625)"/>
       <path id="DejaVuSans-61" d="M 2194 1759 
Q 1497 1759 1228 1600 
Q 959 1441 959 1056 
Q 959 750 1161 570 
Q 1363 391 1709 391 
Q 2188 391 2477 730 
Q 2766 1069 2766 1631 
L 2766 1759 
L 2194 1759 
z
M 3341 1997 
L 3341 0 
L 2766 0 
L 2766 531 
Q 2569 213 2275 61 
Q 1981 -91 1556 -91 
Q 1019 -91 701 211 
Q 384 513 384 1019 
Q 384 1609 779 1909 
Q 1175 2209 1959 2209 
L 2766 2209 
L 2766 2266 
Q 2766 2663 2505 2880 
Q 2244 3097 1772 3097 
Q 1472 3097 1187 3025 
Q 903 2953 641 2809 
L 641 3341 
Q 956 3463 1253 3523 
Q 1550 3584 1831 3584 
Q 2591 3584 2966 3190 
Q 3341 2797 3341 1997 
z
" transform="scale(0.015625)"/>
       <path id="DejaVuSans-69" d="M 603 3500 
L 1178 3500 
L 1178 0 
L 603 0 
L 603 3500 
z
M 603 4863 
L 1178 4863 
L 1178 4134 
L 603 4134 
L 603 4863 
z
" transform="scale(0.015625)"/>
       <path id="DejaVuSans-6f" d="M 1959 3097 
Q 1497 3097 1228 2736 
Q 959 2375 959 1747 
Q 959 1119 1226 758 
Q 1494 397 1959 397 
Q 2419 397 2687 759 
Q 2956 1122 2956 1747 
Q 2956 2369 2687 2733 
Q 2419 3097 1959 3097 
z
M 1959 3584 
Q 2709 3584 3137 3096 
Q 3566 2609 3566 1747 
Q 3566 888 3137 398 
Q 2709 -91 1959 -91 
Q 1206 -91 779 398 
Q 353 888 353 1747 
Q 353 2609 779 3096 
Q 1206 3584 1959 3584 
z
" transform="scale(0.015625)"/>
       <path id="DejaVuSans-6e" d="M 3513 2113 
L 3513 0 
L 2938 0 
L 2938 2094 
Q 2938 2591 2744 2837 
Q 2550 3084 2163 3084 
Q 1697 3084 1428 2787 
Q 1159 2491 1159 1978 
L 1159 0 
L 581 0 
L 581 3500 
L 1159 3500 
L 1159 2956 
Q 1366 3272 1645 3428 
Q 1925 3584 2291 3584 
Q 2894 3584 3203 3211 
Q 3513 2838 3513 2113 
z
" transform="scale(0.015625)"/>
      </defs>
      <use xlink:href="#DejaVuSans-49"/>
      <use xlink:href="#DejaVuSans-74" x="29.492188"/>
      <use xlink:href="#DejaVuSans-65" x="68.701172"/>
      <use xlink:href="#DejaVuSans-72" x="130.224609"/>
      <use xlink:href="#DejaVuSans-61" x="171.337891"/>
      <use xlink:href="#DejaVuSans-74" x="232.617188"/>
      <use xlink:href="#DejaVuSans-69" x="271.826172"/>
      <use xlink:href="#DejaVuSans-6f" x="299.609375"/>
      <use xlink:href="#DejaVuSans-6e" x="360.791016"/>
     </g>
    </g>
   </g>
   <g id="matplotlib.axis_2">
    <g id="ytick_1">
     <g id="line2d_7">
      <defs>
       <path id="ma682d11cf6" d="M 0 0 
L -3.5 0 
" style="stroke: #000000; stroke-width: 0.8"/>
      </defs>
      <g>
       <use xlink:href="#ma682d11cf6" x="47.81" y="290.994545" style="stroke: #000000; stroke-width: 0.8"/>
      </g>
     </g>
     <g id="text_8">
      <!-- 0.0 -->
      <g transform="translate(24.906875 294.793764) scale(0.1 -0.1)">
       <defs>
        <path id="DejaVuSans-2e" d="M 684 794 
L 1344 794 
L 1344 0 
L 684 0 
L 684 794 
z
" transform="scale(0.015625)"/>
       </defs>
       <use xlink:href="#DejaVuSans-30"/>
       <use xlink:href="#DejaVuSans-2e" x="63.623047"/>
       <use xlink:href="#DejaVuSans-30" x="95.410156"/>
      </g>
     </g>
    </g>
    <g id="ytick_2">
     <g id="line2d_8">
      <g>
       <use xlink:href="#ma682d11cf6" x="47.81" y="240.441838" style="stroke: #000000; stroke-width: 0.8"/>
      </g>
     </g>
     <g id="text_9">
      <!-- 0.2 -->
      <g transform="translate(24.906875 244.241057) scale(0.1 -0.1)">
       <use xlink:href="#DejaVuSans-30"/>
       <use xlink:href="#DejaVuSans-2e" x="63.623047"/>
       <use xlink:href="#DejaVuSans-32" x="95.410156"/>
      </g>
     </g>
    </g>
    <g id="ytick_3">
     <g id="line2d_9">
      <g>
       <use xlink:href="#ma682d11cf6" x="47.81" y="189.889131" style="stroke: #000000; stroke-width: 0.8"/>
      </g>
     </g>
     <g id="text_10">
      <!-- 0.4 -->
      <g transform="translate(24.906875 193.68835) scale(0.1 -0.1)">
       <use xlink:href="#DejaVuSans-30"/>
       <use xlink:href="#DejaVuSans-2e" x="63.623047"/>
       <use xlink:href="#DejaVuSans-34" x="95.410156"/>
      </g>
     </g>
    </g>
    <g id="ytick_4">
     <g id="line2d_10">
      <g>
       <use xlink:href="#ma682d11cf6" x="47.81" y="139.336424" style="stroke: #000000; stroke-width: 0.8"/>
      </g>
     </g>
     <g id="text_11">
      <!-- 0.6 -->
      <g transform="translate(24.906875 143.135642) scale(0.1 -0.1)">
       <use xlink:href="#DejaVuSans-30"/>
       <use xlink:href="#DejaVuSans-2e" x="63.623047"/>
       <use xlink:href="#DejaVuSans-36" x="95.410156"/>
      </g>
     </g>
    </g>
    <g id="ytick_5">
     <g id="line2d_11">
      <g>
       <use xlink:href="#ma682d11cf6" x="47.81" y="88.783716" style="stroke: #000000; stroke-width: 0.8"/>
      </g>
     </g>
     <g id="text_12">
      <!-- 0.8 -->
      <g transform="translate(24.906875 92.582935) scale(0.1 -0.1)">
       <use xlink:href="#DejaVuSans-30"/>
       <use xlink:href="#DejaVuSans-2e" x="63.623047"/>
       <use xlink:href="#DejaVuSans-38" x="95.410156"/>
      </g>
     </g>
    </g>
    <g id="ytick_6">
     <g id="line2d_12">
      <g>
       <use xlink:href="#ma682d11cf6" x="47.81" y="38.231009" style="stroke: #000000; stroke-width: 0.8"/>
      </g>
     </g>
     <g id="text_13">
      <!-- 1.0 -->
      <g transform="translate(24.906875 42.030228) scale(0.1 -0.1)">
       <use xlink:href="#DejaVuSans-31"/>
       <use xlink:href="#DejaVuSans-2e" x="63.623047"/>
       <use xlink:href="#DejaVuSans-30" x="95.410156"/>
      </g>
     </g>
    </g>
    <g id="text_14">
     <!-- Similarity -->
     <g transform="translate(18.827187 188.179844) rotate(-90) scale(0.1 -0.1)">
      <defs>
       <path id="DejaVuSans-53" d="M 3425 4513 
L 3425 3897 
Q 3066 4069 2747 4153 
Q 2428 4238 2131 4238 
Q 1616 4238 1336 4038 
Q 1056 3838 1056 3469 
Q 1056 3159 1242 3001 
Q 1428 2844 1947 2747 
L 2328 2669 
Q 3034 2534 3370 2195 
Q 3706 1856 3706 1288 
Q 3706 609 3251 259 
Q 2797 -91 1919 -91 
Q 1588 -91 1214 -16 
Q 841 59 441 206 
L 441 856 
Q 825 641 1194 531 
Q 1563 422 1919 422 
Q 2459 422 2753 634 
Q 3047 847 3047 1241 
Q 3047 1584 2836 1778 
Q 2625 1972 2144 2069 
L 1759 2144 
Q 1053 2284 737 2584 
Q 422 2884 422 3419 
Q 422 4038 858 4394 
Q 1294 4750 2059 4750 
Q 2388 4750 2728 4690 
Q 3069 4631 3425 4513 
z
" transform="scale(0.015625)"/>
       <path id="DejaVuSans-6d" d="M 3328 2828 
Q 3544 3216 3844 3400 
Q 4144 3584 4550 3584 
Q 5097 3584 5394 3201 
Q 5691 2819 5691 2113 
L 5691 0 
L 5113 0 
L 5113 2094 
Q 5113 2597 4934 2840 
Q 4756 3084 4391 3084 
Q 3944 3084 3684 2787 
Q 3425 2491 3425 1978 
L 3425 0 
L 2847 0 
L 2847 2094 
Q 2847 2600 2669 2842 
Q 2491 3084 2119 3084 
Q 1678 3084 1418 2786 
Q 1159 2488 1159 1978 
L 1159 0 
L 581 0 
L 581 3500 
L 1159 3500 
L 1159 2956 
Q 1356 3278 1631 3431 
Q 1906 3584 2284 3584 
Q 2666 3584 2933 3390 
Q 3200 3197 3328 2828 
z
" transform="scale(0.015625)"/>
       <path id="DejaVuSans-6c" d="M 603 4863 
L 1178 4863 
L 1178 0 
L 603 0 
L 603 4863 
z
" transform="scale(0.015625)"/>
       <path id="DejaVuSans-79" d="M 2059 -325 
Q 1816 -950 1584 -1140 
Q 1353 -1331 966 -1331 
L 506 -1331 
L 506 -850 
L 844 -850 
Q 1081 -850 1212 -737 
Q 1344 -625 1503 -206 
L 1606 56 
L 191 3500 
L 800 3500 
L 1894 763 
L 2988 3500 
L 3597 3500 
L 2059 -325 
z
" transform="scale(0.015625)"/>
      </defs>
      <use xlink:href="#DejaVuSans-53"/>
      <use xlink:href="#DejaVuSans-69" x="63.476562"/>
      <use xlink:href="#DejaVuSans-6d" x="91.259766"/>
      <use xlink:href="#DejaVuSans-69" x="188.671875"/>
      <use xlink:href="#DejaVuSans-6c" x="216.455078"/>
      <use xlink:href="#DejaVuSans-61" x="244.238281"/>
      <use xlink:href="#DejaVuSans-72" x="305.517578"/>
      <use xlink:href="#DejaVuSans-69" x="346.630859"/>
      <use xlink:href="#DejaVuSans-74" x="374.414062"/>
      <use xlink:href="#DejaVuSans-79" x="413.623047"/>
     </g>
    </g>
   </g>
   <g id="line2d_13">
    <path d="M 66.091364 134.281153 
L 69.822254 91.311352 
L 73.553145 80.358265 
L 77.284035 71.090269 
L 81.014926 65.529471 
L 84.745816 60.979727 
L 88.476707 59.174273 
L 92.207597 56.556365 
L 95.938488 55.081911 
L 99.669378 53.396821 
L 103.400269 52.477681 
L 107.13116 51.290458 
L 110.86205 50.285885 
L 114.592941 49.424823 
L 118.323831 49.015587 
L 122.054722 49.289414 
L 125.785612 48.638919 
L 129.516503 48.060702 
L 133.247393 47.54335 
L 136.978284 47.330496 
L 140.709174 46.897187 
L 144.440065 46.50327 
L 148.170955 46.363401 
L 151.901846 46.235188 
L 155.632737 46.117231 
L 159.363627 46.202782 
L 163.094518 46.65646 
L 166.825408 47.258278 
L 170.556299 47.818591 
L 174.287189 48.34155 
L 178.01808 48.504624 
L 181.74897 49.131437 
L 185.479861 49.873451 
L 189.210751 50.423133 
L 192.941642 51.08584 
L 196.672532 51.711731 
L 200.403423 52.167161 
L 204.134314 52.731654 
L 207.865204 53.396821 
L 211.596095 54.02873 
L 215.326985 54.876413 
L 219.057876 55.804093 
L 222.788766 56.923754 
L 226.519657 57.992522 
L 230.250547 59.013789 
L 233.981438 59.770858 
L 237.712328 60.173035 
L 241.443219 61.190364 
L 245.174109 62.166168 
L 248.905 63.204046 
L 252.635891 63.903854 
L 256.366781 64.576747 
L 260.097672 65.224247 
L 263.828562 65.847766 
L 267.559453 66.264783 
L 271.290343 67.027998 
L 275.021234 67.764433 
L 278.752124 68.301154 
L 282.483015 68.819681 
L 286.213905 69.06816 
L 289.944796 69.47424 
L 293.675686 69.867219 
L 297.406577 70.006996 
L 301.137468 70.300383 
L 304.868358 70.429195 
L 308.599249 70.400914 
L 312.330139 70.675284 
L 316.06103 70.7929 
L 319.79192 70.907107 
L 323.522811 70.801396 
L 327.253701 70.841065 
L 330.984592 70.879632 
L 334.715482 70.917143 
L 338.446373 71.021954 
L 342.177263 71.056567 
L 345.908154 70.890719 
L 349.639045 70.729178 
L 353.369935 70.636591 
L 357.100826 70.482356 
L 360.831716 70.45836 
L 364.562607 70.310134 
L 368.293497 70.165524 
L 372.024388 70.146212 
L 375.755278 70.12736 
L 379.486169 69.93053 
L 383.217059 69.738278 
L 386.94795 69.550445 
L 390.67884 69.309435 
L 394.409731 69.244243 
L 398.140622 69.1805 
L 401.871512 69.284815 
L 405.602403 69.386862 
L 409.333293 69.541073 
L 413.064184 69.584443 
L 416.795074 69.733328 
L 420.525965 69.826451 
L 424.256855 69.813422 
L 427.987746 69.852243 
L 431.718636 69.992407 
" clip-path="url(#pa3088bb015)" style="fill: none; stroke: #0000ff; stroke-linecap: square"/>
    <defs>
     <path id="m2c4dc94244" d="M -0.49999 0.49999 
L 0.50001 0.49999 
L 0.50001 -0.50001 
L -0.49999 -0.50001 
z
"/>
    </defs>
    <g clip-path="url(#pa3088bb015)">
     <use xlink:href="#m2c4dc94244" x="66.091364" y="134.281153" style="fill: #0000ff"/>
     <use xlink:href="#m2c4dc94244" x="69.822254" y="91.311352" style="fill: #0000ff"/>
     <use xlink:href="#m2c4dc94244" x="73.553145" y="80.358265" style="fill: #0000ff"/>
     <use xlink:href="#m2c4dc94244" x="77.284035" y="71.090269" style="fill: #0000ff"/>
     <use xlink:href="#m2c4dc94244" x="81.014926" y="65.529471" style="fill: #0000ff"/>
     <use xlink:href="#m2c4dc94244" x="84.745816" y="60.979727" style="fill: #0000ff"/>
     <use xlink:href="#m2c4dc94244" x="88.476707" y="59.174273" style="fill: #0000ff"/>
     <use xlink:href="#m2c4dc94244" x="92.207597" y="56.556365" style="fill: #0000ff"/>
     <use xlink:href="#m2c4dc94244" x="95.938488" y="55.081911" style="fill: #0000ff"/>
     <use xlink:href="#m2c4dc94244" x="99.669378" y="53.396821" style="fill: #0000ff"/>
     <use xlink:href="#m2c4dc94244" x="103.400269" y="52.477681" style="fill: #0000ff"/>
     <use xlink:href="#m2c4dc94244" x="107.13116" y="51.290458" style="fill: #0000ff"/>
     <use xlink:href="#m2c4dc94244" x="110.86205" y="50.285885" style="fill: #0000ff"/>
     <use xlink:href="#m2c4dc94244" x="114.592941" y="49.424823" style="fill: #0000ff"/>
     <use xlink:href="#m2c4dc94244" x="118.323831" y="49.015587" style="fill: #0000ff"/>
     <use xlink:href="#m2c4dc94244" x="122.054722" y="49.289414" style="fill: #0000ff"/>
     <use xlink:href="#m2c4dc94244" x="125.785612" y="48.638919" style="fill: #0000ff"/>
     <use xlink:href="#m2c4dc94244" x="129.516503" y="48.060702" style="fill: #0000ff"/>
     <use xlink:href="#m2c4dc94244" x="133.247393" y="47.54335" style="fill: #0000ff"/>
     <use xlink:href="#m2c4dc94244" x="136.978284" y="47.330496" style="fill: #0000ff"/>
     <use xlink:href="#m2c4dc94244" x="140.709174" y="46.897187" style="fill: #0000ff"/>
     <use xlink:href="#m2c4dc94244" x="144.440065" y="46.50327" style="fill: #0000ff"/>
     <use xlink:href="#m2c4dc94244" x="148.170955" y="46.363401" style="fill: #0000ff"/>
     <use xlink:href="#m2c4dc94244" x="151.901846" y="46.235188" style="fill: #0000ff"/>
     <use xlink:href="#m2c4dc94244" x="155.632737" y="46.117231" style="fill: #0000ff"/>
     <use xlink:href="#m2c4dc94244" x="159.363627" y="46.202782" style="fill: #0000ff"/>
     <use xlink:href="#m2c4dc94244" x="163.094518" y="46.65646" style="fill: #0000ff"/>
     <use xlink:href="#m2c4dc94244" x="166.825408" y="47.258278" style="fill: #0000ff"/>
     <use xlink:href="#m2c4dc94244" x="170.556299" y="47.818591" style="fill: #0000ff"/>
     <use xlink:href="#m2c4dc94244" x="174.287189" y="48.34155" style="fill: #0000ff"/>
     <use xlink:href="#m2c4dc94244" x="178.01808" y="48.504624" style="fill: #0000ff"/>
     <use xlink:href="#m2c4dc94244" x="181.74897" y="49.131437" style="fill: #0000ff"/>
     <use xlink:href="#m2c4dc94244" x="185.479861" y="49.873451" style="fill: #0000ff"/>
     <use xlink:href="#m2c4dc94244" x="189.210751" y="50.423133" style="fill: #0000ff"/>
     <use xlink:href="#m2c4dc94244" x="192.941642" y="51.08584" style="fill: #0000ff"/>
     <use xlink:href="#m2c4dc94244" x="196.672532" y="51.711731" style="fill: #0000ff"/>
     <use xlink:href="#m2c4dc94244" x="200.403423" y="52.167161" style="fill: #0000ff"/>
     <use xlink:href="#m2c4dc94244" x="204.134314" y="52.731654" style="fill: #0000ff"/>
     <use xlink:href="#m2c4dc94244" x="207.865204" y="53.396821" style="fill: #0000ff"/>
     <use xlink:href="#m2c4dc94244" x="211.596095" y="54.02873" style="fill: #0000ff"/>
     <use xlink:href="#m2c4dc94244" x="215.326985" y="54.876413" style="fill: #0000ff"/>
     <use xlink:href="#m2c4dc94244" x="219.057876" y="55.804093" style="fill: #0000ff"/>
     <use xlink:href="#m2c4dc94244" x="222.788766" y="56.923754" style="fill: #0000ff"/>
     <use xlink:href="#m2c4dc94244" x="226.519657" y="57.992522" style="fill: #0000ff"/>
     <use xlink:href="#m2c4dc94244" x="230.250547" y="59.013789" style="fill: #0000ff"/>
     <use xlink:href="#m2c4dc94244" x="233.981438" y="59.770858" style="fill: #0000ff"/>
     <use xlink:href="#m2c4dc94244" x="237.712328" y="60.173035" style="fill: #0000ff"/>
     <use xlink:href="#m2c4dc94244" x="241.443219" y="61.190364" style="fill: #0000ff"/>
     <use xlink:href="#m2c4dc94244" x="245.174109" y="62.166168" style="fill: #0000ff"/>
     <use xlink:href="#m2c4dc94244" x="248.905" y="63.204046" style="fill: #0000ff"/>
     <use xlink:href="#m2c4dc94244" x="252.635891" y="63.903854" style="fill: #0000ff"/>
     <use xlink:href="#m2c4dc94244" x="256.366781" y="64.576747" style="fill: #0000ff"/>
     <use xlink:href="#m2c4dc94244" x="260.097672" y="65.224247" style="fill: #0000ff"/>
     <use xlink:href="#m2c4dc94244" x="263.828562" y="65.847766" style="fill: #0000ff"/>
     <use xlink:href="#m2c4dc94244" x="267.559453" y="66.264783" style="fill: #0000ff"/>
     <use xlink:href="#m2c4dc94244" x="271.290343" y="67.027998" style="fill: #0000ff"/>
     <use xlink:href="#m2c4dc94244" x="275.021234" y="67.764433" style="fill: #0000ff"/>
     <use xlink:href="#m2c4dc94244" x="278.752124" y="68.301154" style="fill: #0000ff"/>
     <use xlink:href="#m2c4dc94244" x="282.483015" y="68.819681" style="fill: #0000ff"/>
     <use xlink:href="#m2c4dc94244" x="286.213905" y="69.06816" style="fill: #0000ff"/>
     <use xlink:href="#m2c4dc94244" x="289.944796" y="69.47424" style="fill: #0000ff"/>
     <use xlink:href="#m2c4dc94244" x="293.675686" y="69.867219" style="fill: #0000ff"/>
     <use xlink:href="#m2c4dc94244" x="297.406577" y="70.006996" style="fill: #0000ff"/>
     <use xlink:href="#m2c4dc94244" x="301.137468" y="70.300383" style="fill: #0000ff"/>
     <use xlink:href="#m2c4dc94244" x="304.868358" y="70.429195" style="fill: #0000ff"/>
     <use xlink:href="#m2c4dc94244" x="308.599249" y="70.400914" style="fill: #0000ff"/>
     <use xlink:href="#m2c4dc94244" x="312.330139" y="70.675284" style="fill: #0000ff"/>
     <use xlink:href="#m2c4dc94244" x="316.06103" y="70.7929" style="fill: #0000ff"/>
     <use xlink:href="#m2c4dc94244" x="319.79192" y="70.907107" style="fill: #0000ff"/>
     <use xlink:href="#m2c4dc94244" x="323.522811" y="70.801396" style="fill: #0000ff"/>
     <use xlink:href="#m2c4dc94244" x="327.253701" y="70.841065" style="fill: #0000ff"/>
     <use xlink:href="#m2c4dc94244" x="330.984592" y="70.879632" style="fill: #0000ff"/>
     <use xlink:href="#m2c4dc94244" x="334.715482" y="70.917143" style="fill: #0000ff"/>
     <use xlink:href="#m2c4dc94244" x="338.446373" y="71.021954" style="fill: #0000ff"/>
     <use xlink:href="#m2c4dc94244" x="342.177263" y="71.056567" style="fill: #0000ff"/>
     <use xlink:href="#m2c4dc94244" x="345.908154" y="70.890719" style="fill: #0000ff"/>
     <use xlink:href="#m2c4dc94244" x="349.639045" y="70.729178" style="fill: #0000ff"/>
     <use xlink:href="#m2c4dc94244" x="353.369935" y="70.636591" style="fill: #0000ff"/>
     <use xlink:href="#m2c4dc94244" x="357.100826" y="70.482356" style="fill: #0000ff"/>
     <use xlink:href="#m2c4dc94244" x="360.831716" y="70.45836" style="fill: #0000ff"/>
     <use xlink:href="#m2c4dc94244" x="364.562607" y="70.310134" style="fill: #0000ff"/>
     <use xlink:href="#m2c4dc94244" x="368.293497" y="70.165524" style="fill: #0000ff"/>
     <use xlink:href="#m2c4dc94244" x="372.024388" y="70.146212" style="fill: #0000ff"/>
     <use xlink:href="#m2c4dc94244" x="375.755278" y="70.12736" style="fill: #0000ff"/>
     <use xlink:href="#m2c4dc94244" x="379.486169" y="69.93053" style="fill: #0000ff"/>
     <use xlink:href="#m2c4dc94244" x="383.217059" y="69.738278" style="fill: #0000ff"/>
     <use xlink:href="#m2c4dc94244" x="386.94795" y="69.550445" style="fill: #0000ff"/>
     <use xlink:href="#m2c4dc94244" x="390.67884" y="69.309435" style="fill: #0000ff"/>
     <use xlink:href="#m2c4dc94244" x="394.409731" y="69.244243" style="fill: #0000ff"/>
     <use xlink:href="#m2c4dc94244" x="398.140622" y="69.1805" style="fill: #0000ff"/>
     <use xlink:href="#m2c4dc94244" x="401.871512" y="69.284815" style="fill: #0000ff"/>
     <use xlink:href="#m2c4dc94244" x="405.602403" y="69.386862" style="fill: #0000ff"/>
     <use xlink:href="#m2c4dc94244" x="409.333293" y="69.541073" style="fill: #0000ff"/>
     <use xlink:href="#m2c4dc94244" x="413.064184" y="69.584443" style="fill: #0000ff"/>
     <use xlink:href="#m2c4dc94244" x="416.795074" y="69.733328" style="fill: #0000ff"/>
     <use xlink:href="#m2c4dc94244" x="420.525965" y="69.826451" style="fill: #0000ff"/>
     <use xlink:href="#m2c4dc94244" x="424.256855" y="69.813422" style="fill: #0000ff"/>
     <use xlink:href="#m2c4dc94244" x="427.987746" y="69.852243" style="fill: #0000ff"/>
     <use xlink:href="#m2c4dc94244" x="431.718636" y="69.992407" style="fill: #0000ff"/>
    </g>
   </g>
   <g id="line2d_14">
    <path d="M 66.091364 134.281153 
L 69.822254 112.796252 
L 73.553145 101.98359 
L 77.284035 94.26026 
L 81.014926 88.514102 
L 84.745816 83.925039 
L 88.476707 80.389216 
L 92.207597 77.410109 
L 95.938488 74.929199 
L 99.669378 72.775961 
L 103.400269 70.930663 
L 107.13116 69.293979 
L 110.86205 67.831818 
L 114.592941 66.517033 
L 118.323831 65.350269 
L 122.054722 64.346466 
L 125.785612 63.422493 
L 129.516503 62.56906 
L 133.247393 61.778233 
L 136.978284 61.055846 
L 140.709174 60.381624 
L 144.440065 59.75079 
L 148.170955 59.16873 
L 151.901846 58.629832 
L 155.632737 58.129328 
L 159.363627 57.670615 
L 163.094518 57.262683 
L 166.825408 56.905383 
L 170.556299 56.592045 
L 174.287189 56.317029 
L 178.01808 56.065016 
L 181.74897 55.848341 
L 185.479861 55.667284 
L 189.210751 55.513044 
L 192.941642 55.386553 
L 196.672532 55.284474 
L 200.403423 55.200223 
L 204.134314 55.13526 
L 207.865204 55.090685 
L 211.596095 55.064136 
L 215.326985 55.059557 
L 219.057876 55.077285 
L 222.788766 55.120226 
L 226.519657 55.185505 
L 230.250547 55.270578 
L 233.981438 55.36841 
L 237.712328 55.470636 
L 241.443219 55.589797 
L 245.174109 55.724009 
L 248.905 55.87361 
L 252.635891 56.031066 
L 256.366781 56.195406 
L 260.097672 56.365761 
L 263.828562 56.541354 
L 267.559453 56.718143 
L 271.290343 56.902248 
L 275.021234 57.092813 
L 278.752124 57.28606 
L 282.483015 57.481545 
L 286.213905 57.674655 
L 289.944796 57.868091 
L 293.675686 58.061625 
L 297.406577 58.251234 
L 301.137468 58.439502 
L 304.868358 58.623959 
L 308.599249 58.802398 
L 312.330139 58.979605 
L 316.06103 59.15333 
L 319.79192 59.323675 
L 323.522811 59.487642 
L 327.253701 59.647549 
L 330.984592 59.803551 
L 334.715482 59.955792 
L 338.446373 60.105334 
L 342.177263 60.251351 
L 345.908154 60.391342 
L 349.639045 60.5256 
L 353.369935 60.655228 
L 357.100826 60.779622 
L 360.831716 60.900606 
L 364.562607 61.016773 
L 368.293497 61.128343 
L 372.024388 61.236993 
L 375.755278 61.34283 
L 379.486169 61.443862 
L 383.217059 61.540309 
L 386.94795 61.632379 
L 390.67884 61.719618 
L 394.409731 61.804165 
L 398.140622 61.886124 
L 401.871512 61.967428 
L 405.602403 62.048074 
L 409.333293 62.128644 
L 413.064184 62.207961 
L 416.795074 62.287176 
L 420.525965 62.36571 
L 424.256855 62.44249 
L 427.987746 62.5181 
L 431.718636 62.593598 
" clip-path="url(#pa3088bb015)" style="fill: none; stroke: #ff0000; stroke-opacity: 0.5; stroke-width: 0.5; stroke-linecap: square"/>
    <defs>
     <path id="mbcddadf0a3" d="M -0.49999 0.49999 
L 0.50001 0.49999 
L 0.50001 -0.50001 
L -0.49999 -0.50001 
z
"/>
    </defs>
    <g clip-path="url(#pa3088bb015)">
     <use xlink:href="#mbcddadf0a3" x="66.091364" y="134.281153" style="fill: #ff0000; fill-opacity: 0.5"/>
     <use xlink:href="#mbcddadf0a3" x="69.822254" y="112.796252" style="fill: #ff0000; fill-opacity: 0.5"/>
     <use xlink:href="#mbcddadf0a3" x="73.553145" y="101.98359" style="fill: #ff0000; fill-opacity: 0.5"/>
     <use xlink:href="#mbcddadf0a3" x="77.284035" y="94.26026" style="fill: #ff0000; fill-opacity: 0.5"/>
     <use xlink:href="#mbcddadf0a3" x="81.014926" y="88.514102" style="fill: #ff0000; fill-opacity: 0.5"/>
     <use xlink:href="#mbcddadf0a3" x="84.745816" y="83.925039" style="fill: #ff0000; fill-opacity: 0.5"/>
     <use xlink:href="#mbcddadf0a3" x="88.476707" y="80.389216" style="fill: #ff0000; fill-opacity: 0.5"/>
     <use xlink:href="#mbcddadf0a3" x="92.207597" y="77.410109" style="fill: #ff0000; fill-opacity: 0.5"/>
     <use xlink:href="#mbcddadf0a3" x="95.938488" y="74.929199" style="fill: #ff0000; fill-opacity: 0.5"/>
     <use xlink:href="#mbcddadf0a3" x="99.669378" y="72.775961" style="fill: #ff0000; fill-opacity: 0.5"/>
     <use xlink:href="#mbcddadf0a3" x="103.400269" y="70.930663" style="fill: #ff0000; fill-opacity: 0.5"/>
     <use xlink:href="#mbcddadf0a3" x="107.13116" y="69.293979" style="fill: #ff0000; fill-opacity: 0.5"/>
     <use xlink:href="#mbcddadf0a3" x="110.86205" y="67.831818" style="fill: #ff0000; fill-opacity: 0.5"/>
     <use xlink:href="#mbcddadf0a3" x="114.592941" y="66.517033" style="fill: #ff0000; fill-opacity: 0.5"/>
     <use xlink:href="#mbcddadf0a3" x="118.323831" y="65.350269" style="fill: #ff0000; fill-opacity: 0.5"/>
     <use xlink:href="#mbcddadf0a3" x="122.054722" y="64.346466" style="fill: #ff0000; fill-opacity: 0.5"/>
     <use xlink:href="#mbcddadf0a3" x="125.785612" y="63.422493" style="fill: #ff0000; fill-opacity: 0.5"/>
     <use xlink:href="#mbcddadf0a3" x="129.516503" y="62.56906" style="fill: #ff0000; fill-opacity: 0.5"/>
     <use xlink:href="#mbcddadf0a3" x="133.247393" y="61.778233" style="fill: #ff0000; fill-opacity: 0.5"/>
     <use xlink:href="#mbcddadf0a3" x="136.978284" y="61.055846" style="fill: #ff0000; fill-opacity: 0.5"/>
     <use xlink:href="#mbcddadf0a3" x="140.709174" y="60.381624" style="fill: #ff0000; fill-opacity: 0.5"/>
     <use xlink:href="#mbcddadf0a3" x="144.440065" y="59.75079" style="fill: #ff0000; fill-opacity: 0.5"/>
     <use xlink:href="#mbcddadf0a3" x="148.170955" y="59.16873" style="fill: #ff0000; fill-opacity: 0.5"/>
     <use xlink:href="#mbcddadf0a3" x="151.901846" y="58.629832" style="fill: #ff0000; fill-opacity: 0.5"/>
     <use xlink:href="#mbcddadf0a3" x="155.632737" y="58.129328" style="fill: #ff0000; fill-opacity: 0.5"/>
     <use xlink:href="#mbcddadf0a3" x="159.363627" y="57.670615" style="fill: #ff0000; fill-opacity: 0.5"/>
     <use xlink:href="#mbcddadf0a3" x="163.094518" y="57.262683" style="fill: #ff0000; fill-opacity: 0.5"/>
     <use xlink:href="#mbcddadf0a3" x="166.825408" y="56.905383" style="fill: #ff0000; fill-opacity: 0.5"/>
     <use xlink:href="#mbcddadf0a3" x="170.556299" y="56.592045" style="fill: #ff0000; fill-opacity: 0.5"/>
     <use xlink:href="#mbcddadf0a3" x="174.287189" y="56.317029" style="fill: #ff0000; fill-opacity: 0.5"/>
     <use xlink:href="#mbcddadf0a3" x="178.01808" y="56.065016" style="fill: #ff0000; fill-opacity: 0.5"/>
     <use xlink:href="#mbcddadf0a3" x="181.74897" y="55.848341" style="fill: #ff0000; fill-opacity: 0.5"/>
     <use xlink:href="#mbcddadf0a3" x="185.479861" y="55.667284" style="fill: #ff0000; fill-opacity: 0.5"/>
     <use xlink:href="#mbcddadf0a3" x="189.210751" y="55.513044" style="fill: #ff0000; fill-opacity: 0.5"/>
     <use xlink:href="#mbcddadf0a3" x="192.941642" y="55.386553" style="fill: #ff0000; fill-opacity: 0.5"/>
     <use xlink:href="#mbcddadf0a3" x="196.672532" y="55.284474" style="fill: #ff0000; fill-opacity: 0.5"/>
     <use xlink:href="#mbcddadf0a3" x="200.403423" y="55.200223" style="fill: #ff0000; fill-opacity: 0.5"/>
     <use xlink:href="#mbcddadf0a3" x="204.134314" y="55.13526" style="fill: #ff0000; fill-opacity: 0.5"/>
     <use xlink:href="#mbcddadf0a3" x="207.865204" y="55.090685" style="fill: #ff0000; fill-opacity: 0.5"/>
     <use xlink:href="#mbcddadf0a3" x="211.596095" y="55.064136" style="fill: #ff0000; fill-opacity: 0.5"/>
     <use xlink:href="#mbcddadf0a3" x="215.326985" y="55.059557" style="fill: #ff0000; fill-opacity: 0.5"/>
     <use xlink:href="#mbcddadf0a3" x="219.057876" y="55.077285" style="fill: #ff0000; fill-opacity: 0.5"/>
     <use xlink:href="#mbcddadf0a3" x="222.788766" y="55.120226" style="fill: #ff0000; fill-opacity: 0.5"/>
     <use xlink:href="#mbcddadf0a3" x="226.519657" y="55.185505" style="fill: #ff0000; fill-opacity: 0.5"/>
     <use xlink:href="#mbcddadf0a3" x="230.250547" y="55.270578" style="fill: #ff0000; fill-opacity: 0.5"/>
     <use xlink:href="#mbcddadf0a3" x="233.981438" y="55.36841" style="fill: #ff0000; fill-opacity: 0.5"/>
     <use xlink:href="#mbcddadf0a3" x="237.712328" y="55.470636" style="fill: #ff0000; fill-opacity: 0.5"/>
     <use xlink:href="#mbcddadf0a3" x="241.443219" y="55.589797" style="fill: #ff0000; fill-opacity: 0.5"/>
     <use xlink:href="#mbcddadf0a3" x="245.174109" y="55.724009" style="fill: #ff0000; fill-opacity: 0.5"/>
     <use xlink:href="#mbcddadf0a3" x="248.905" y="55.87361" style="fill: #ff0000; fill-opacity: 0.5"/>
     <use xlink:href="#mbcddadf0a3" x="252.635891" y="56.031066" style="fill: #ff0000; fill-opacity: 0.5"/>
     <use xlink:href="#mbcddadf0a3" x="256.366781" y="56.195406" style="fill: #ff0000; fill-opacity: 0.5"/>
     <use xlink:href="#mbcddadf0a3" x="260.097672" y="56.365761" style="fill: #ff0000; fill-opacity: 0.5"/>
     <use xlink:href="#mbcddadf0a3" x="263.828562" y="56.541354" style="fill: #ff0000; fill-opacity: 0.5"/>
     <use xlink:href="#mbcddadf0a3" x="267.559453" y="56.718143" style="fill: #ff0000; fill-opacity: 0.5"/>
     <use xlink:href="#mbcddadf0a3" x="271.290343" y="56.902248" style="fill: #ff0000; fill-opacity: 0.5"/>
     <use xlink:href="#mbcddadf0a3" x="275.021234" y="57.092813" style="fill: #ff0000; fill-opacity: 0.5"/>
     <use xlink:href="#mbcddadf0a3" x="278.752124" y="57.28606" style="fill: #ff0000; fill-opacity: 0.5"/>
     <use xlink:href="#mbcddadf0a3" x="282.483015" y="57.481545" style="fill: #ff0000; fill-opacity: 0.5"/>
     <use xlink:href="#mbcddadf0a3" x="286.213905" y="57.674655" style="fill: #ff0000; fill-opacity: 0.5"/>
     <use xlink:href="#mbcddadf0a3" x="289.944796" y="57.868091" style="fill: #ff0000; fill-opacity: 0.5"/>
     <use xlink:href="#mbcddadf0a3" x="293.675686" y="58.061625" style="fill: #ff0000; fill-opacity: 0.5"/>
     <use xlink:href="#mbcddadf0a3" x="297.406577" y="58.251234" style="fill: #ff0000; fill-opacity: 0.5"/>
     <use xlink:href="#mbcddadf0a3" x="301.137468" y="58.439502" style="fill: #ff0000; fill-opacity: 0.5"/>
     <use xlink:href="#mbcddadf0a3" x="304.868358" y="58.623959" style="fill: #ff0000; fill-opacity: 0.5"/>
     <use xlink:href="#mbcddadf0a3" x="308.599249" y="58.802398" style="fill: #ff0000; fill-opacity: 0.5"/>
     <use xlink:href="#mbcddadf0a3" x="312.330139" y="58.979605" style="fill: #ff0000; fill-opacity: 0.5"/>
     <use xlink:href="#mbcddadf0a3" x="316.06103" y="59.15333" style="fill: #ff0000; fill-opacity: 0.5"/>
     <use xlink:href="#mbcddadf0a3" x="319.79192" y="59.323675" style="fill: #ff0000; fill-opacity: 0.5"/>
     <use xlink:href="#mbcddadf0a3" x="323.522811" y="59.487642" style="fill: #ff0000; fill-opacity: 0.5"/>
     <use xlink:href="#mbcddadf0a3" x="327.253701" y="59.647549" style="fill: #ff0000; fill-opacity: 0.5"/>
     <use xlink:href="#mbcddadf0a3" x="330.984592" y="59.803551" style="fill: #ff0000; fill-opacity: 0.5"/>
     <use xlink:href="#mbcddadf0a3" x="334.715482" y="59.955792" style="fill: #ff0000; fill-opacity: 0.5"/>
     <use xlink:href="#mbcddadf0a3" x="338.446373" y="60.105334" style="fill: #ff0000; fill-opacity: 0.5"/>
     <use xlink:href="#mbcddadf0a3" x="342.177263" y="60.251351" style="fill: #ff0000; fill-opacity: 0.5"/>
     <use xlink:href="#mbcddadf0a3" x="345.908154" y="60.391342" style="fill: #ff0000; fill-opacity: 0.5"/>
     <use xlink:href="#mbcddadf0a3" x="349.639045" y="60.5256" style="fill: #ff0000; fill-opacity: 0.5"/>
     <use xlink:href="#mbcddadf0a3" x="353.369935" y="60.655228" style="fill: #ff0000; fill-opacity: 0.5"/>
     <use xlink:href="#mbcddadf0a3" x="357.100826" y="60.779622" style="fill: #ff0000; fill-opacity: 0.5"/>
     <use xlink:href="#mbcddadf0a3" x="360.831716" y="60.900606" style="fill: #ff0000; fill-opacity: 0.5"/>
     <use xlink:href="#mbcddadf0a3" x="364.562607" y="61.016773" style="fill: #ff0000; fill-opacity: 0.5"/>
     <use xlink:href="#mbcddadf0a3" x="368.293497" y="61.128343" style="fill: #ff0000; fill-opacity: 0.5"/>
     <use xlink:href="#mbcddadf0a3" x="372.024388" y="61.236993" style="fill: #ff0000; fill-opacity: 0.5"/>
     <use xlink:href="#mbcddadf0a3" x="375.755278" y="61.34283" style="fill: #ff0000; fill-opacity: 0.5"/>
     <use xlink:href="#mbcddadf0a3" x="379.486169" y="61.443862" style="fill: #ff0000; fill-opacity: 0.5"/>
     <use xlink:href="#mbcddadf0a3" x="383.217059" y="61.540309" style="fill: #ff0000; fill-opacity: 0.5"/>
     <use xlink:href="#mbcddadf0a3" x="386.94795" y="61.632379" style="fill: #ff0000; fill-opacity: 0.5"/>
     <use xlink:href="#mbcddadf0a3" x="390.67884" y="61.719618" style="fill: #ff0000; fill-opacity: 0.5"/>
     <use xlink:href="#mbcddadf0a3" x="394.409731" y="61.804165" style="fill: #ff0000; fill-opacity: 0.5"/>
     <use xlink:href="#mbcddadf0a3" x="398.140622" y="61.886124" style="fill: #ff0000; fill-opacity: 0.5"/>
     <use xlink:href="#mbcddadf0a3" x="401.871512" y="61.967428" style="fill: #ff0000; fill-opacity: 0.5"/>
     <use xlink:href="#mbcddadf0a3" x="405.602403" y="62.048074" style="fill: #ff0000; fill-opacity: 0.5"/>
     <use xlink:href="#mbcddadf0a3" x="409.333293" y="62.128644" style="fill: #ff0000; fill-opacity: 0.5"/>
     <use xlink:href="#mbcddadf0a3" x="413.064184" y="62.207961" style="fill: #ff0000; fill-opacity: 0.5"/>
     <use xlink:href="#mbcddadf0a3" x="416.795074" y="62.287176" style="fill: #ff0000; fill-opacity: 0.5"/>
     <use xlink:href="#mbcddadf0a3" x="420.525965" y="62.36571" style="fill: #ff0000; fill-opacity: 0.5"/>
     <use xlink:href="#mbcddadf0a3" x="424.256855" y="62.44249" style="fill: #ff0000; fill-opacity: 0.5"/>
     <use xlink:href="#mbcddadf0a3" x="427.987746" y="62.5181" style="fill: #ff0000; fill-opacity: 0.5"/>
     <use xlink:href="#mbcddadf0a3" x="431.718636" y="62.593598" style="fill: #ff0000; fill-opacity: 0.5"/>
    </g>
   </g>
   <g id="line2d_15">
    <path d="M 47.81 290.994545 
L 450 290.994545 
" clip-path="url(#pa3088bb015)" style="fill: none; stroke-dasharray: 0.555,0.24; stroke-dashoffset: 0; stroke: #ff0000; stroke-width: 0.15"/>
   </g>
   <g id="line2d_16">
    <path d="M 47.81 164.612777 
L 450 164.612777 
" clip-path="url(#pa3088bb015)" style="fill: none; stroke-dasharray: 0.555,0.24; stroke-dashoffset: 0; stroke: #ff0000; stroke-width: 0.15"/>
   </g>
   <g id="line2d_17">
    <path d="M 47.81 38.231009 
L 450 38.231009 
" clip-path="url(#pa3088bb015)" style="fill: none; stroke-dasharray: 0.555,0.24; stroke-dashoffset: 0; stroke: #ff0000; stroke-width: 0.15"/>
   </g>
   <g id="patch_3">
    <path d="M 47.81 303.64 
L 47.81 25.44 
" style="fill: none; stroke: #000000; stroke-width: 0.8; stroke-linejoin: miter; stroke-linecap: square"/>
   </g>
   <g id="patch_4">
    <path d="M 450 303.64 
L 450 25.44 
" style="fill: none; stroke: #000000; stroke-width: 0.8; stroke-linejoin: miter; stroke-linecap: square"/>
   </g>
   <g id="patch_5">
    <path d="M 47.81 303.64 
L 450 303.64 
" style="fill: none; stroke: #000000; stroke-width: 0.8; stroke-linejoin: miter; stroke-linecap: square"/>
   </g>
   <g id="patch_6">
    <path d="M 47.81 25.44 
L 450 25.44 
" style="fill: none; stroke: #000000; stroke-width: 0.8; stroke-linejoin: miter; stroke-linecap: square"/>
   </g>
   <g id="text_15">
    <!-- Similarity LLM-DEF_sw25 - 20240415144013 - 50 games -->
    <g transform="translate(78.98125 19.44) scale(0.12 -0.12)">
     <defs>
      <path id="DejaVuSans-20" transform="scale(0.015625)"/>
      <path id="DejaVuSans-4c" d="M 628 4666 
L 1259 4666 
L 1259 531 
L 3531 531 
L 3531 0 
L 628 0 
L 628 4666 
z
" transform="scale(0.015625)"/>
      <path id="DejaVuSans-4d" d="M 628 4666 
L 1569 4666 
L 2759 1491 
L 3956 4666 
L 4897 4666 
L 4897 0 
L 4281 0 
L 4281 4097 
L 3078 897 
L 2444 897 
L 1241 4097 
L 1241 0 
L 628 0 
L 628 4666 
z
" transform="scale(0.015625)"/>
      <path id="DejaVuSans-2d" d="M 313 2009 
L 1997 2009 
L 1997 1497 
L 313 1497 
L 313 2009 
z
" transform="scale(0.015625)"/>
      <path id="DejaVuSans-44" d="M 1259 4147 
L 1259 519 
L 2022 519 
Q 2988 519 3436 956 
Q 3884 1394 3884 2338 
Q 3884 3275 3436 3711 
Q 2988 4147 2022 4147 
L 1259 4147 
z
M 628 4666 
L 1925 4666 
Q 3281 4666 3915 4102 
Q 4550 3538 4550 2338 
Q 4550 1131 3912 565 
Q 3275 0 1925 0 
L 628 0 
L 628 4666 
z
" transform="scale(0.015625)"/>
      <path id="DejaVuSans-45" d="M 628 4666 
L 3578 4666 
L 3578 4134 
L 1259 4134 
L 1259 2753 
L 3481 2753 
L 3481 2222 
L 1259 2222 
L 1259 531 
L 3634 531 
L 3634 0 
L 628 0 
L 628 4666 
z
" transform="scale(0.015625)"/>
      <path id="DejaVuSans-46" d="M 628 4666 
L 3309 4666 
L 3309 4134 
L 1259 4134 
L 1259 2759 
L 3109 2759 
L 3109 2228 
L 1259 2228 
L 1259 0 
L 628 0 
L 628 4666 
z
" transform="scale(0.015625)"/>
      <path id="DejaVuSans-5f" d="M 3263 -1063 
L 3263 -1509 
L -63 -1509 
L -63 -1063 
L 3263 -1063 
z
" transform="scale(0.015625)"/>
      <path id="DejaVuSans-73" d="M 2834 3397 
L 2834 2853 
Q 2591 2978 2328 3040 
Q 2066 3103 1784 3103 
Q 1356 3103 1142 2972 
Q 928 2841 928 2578 
Q 928 2378 1081 2264 
Q 1234 2150 1697 2047 
L 1894 2003 
Q 2506 1872 2764 1633 
Q 3022 1394 3022 966 
Q 3022 478 2636 193 
Q 2250 -91 1575 -91 
Q 1294 -91 989 -36 
Q 684 19 347 128 
L 347 722 
Q 666 556 975 473 
Q 1284 391 1588 391 
Q 1994 391 2212 530 
Q 2431 669 2431 922 
Q 2431 1156 2273 1281 
Q 2116 1406 1581 1522 
L 1381 1569 
Q 847 1681 609 1914 
Q 372 2147 372 2553 
Q 372 3047 722 3315 
Q 1072 3584 1716 3584 
Q 2034 3584 2315 3537 
Q 2597 3491 2834 3397 
z
" transform="scale(0.015625)"/>
      <path id="DejaVuSans-77" d="M 269 3500 
L 844 3500 
L 1563 769 
L 2278 3500 
L 2956 3500 
L 3675 769 
L 4391 3500 
L 4966 3500 
L 4050 0 
L 3372 0 
L 2619 2869 
L 1863 0 
L 1184 0 
L 269 3500 
z
" transform="scale(0.015625)"/>
      <path id="DejaVuSans-35" d="M 691 4666 
L 3169 4666 
L 3169 4134 
L 1269 4134 
L 1269 2991 
Q 1406 3038 1543 3061 
Q 1681 3084 1819 3084 
Q 2600 3084 3056 2656 
Q 3513 2228 3513 1497 
Q 3513 744 3044 326 
Q 2575 -91 1722 -91 
Q 1428 -91 1123 -41 
Q 819 9 494 109 
L 494 744 
Q 775 591 1075 516 
Q 1375 441 1709 441 
Q 2250 441 2565 725 
Q 2881 1009 2881 1497 
Q 2881 1984 2565 2268 
Q 2250 2553 1709 2553 
Q 1456 2553 1204 2497 
Q 953 2441 691 2322 
L 691 4666 
z
" transform="scale(0.015625)"/>
      <path id="DejaVuSans-33" d="M 2597 2516 
Q 3050 2419 3304 2112 
Q 3559 1806 3559 1356 
Q 3559 666 3084 287 
Q 2609 -91 1734 -91 
Q 1441 -91 1130 -33 
Q 819 25 488 141 
L 488 750 
Q 750 597 1062 519 
Q 1375 441 1716 441 
Q 2309 441 2620 675 
Q 2931 909 2931 1356 
Q 2931 1769 2642 2001 
Q 2353 2234 1838 2234 
L 1294 2234 
L 1294 2753 
L 1863 2753 
Q 2328 2753 2575 2939 
Q 2822 3125 2822 3475 
Q 2822 3834 2567 4026 
Q 2313 4219 1838 4219 
Q 1578 4219 1281 4162 
Q 984 4106 628 3988 
L 628 4550 
Q 988 4650 1302 4700 
Q 1616 4750 1894 4750 
Q 2613 4750 3031 4423 
Q 3450 4097 3450 3541 
Q 3450 3153 3228 2886 
Q 3006 2619 2597 2516 
z
" transform="scale(0.015625)"/>
      <path id="DejaVuSans-67" d="M 2906 1791 
Q 2906 2416 2648 2759 
Q 2391 3103 1925 3103 
Q 1463 3103 1205 2759 
Q 947 2416 947 1791 
Q 947 1169 1205 825 
Q 1463 481 1925 481 
Q 2391 481 2648 825 
Q 2906 1169 2906 1791 
z
M 3481 434 
Q 3481 -459 3084 -895 
Q 2688 -1331 1869 -1331 
Q 1566 -1331 1297 -1286 
Q 1028 -1241 775 -1147 
L 775 -588 
Q 1028 -725 1275 -790 
Q 1522 -856 1778 -856 
Q 2344 -856 2625 -561 
Q 2906 -266 2906 331 
L 2906 616 
Q 2728 306 2450 153 
Q 2172 0 1784 0 
Q 1141 0 747 490 
Q 353 981 353 1791 
Q 353 2603 747 3093 
Q 1141 3584 1784 3584 
Q 2172 3584 2450 3431 
Q 2728 3278 2906 2969 
L 2906 3500 
L 3481 3500 
L 3481 434 
z
" transform="scale(0.015625)"/>
     </defs>
     <use xlink:href="#DejaVuSans-53"/>
     <use xlink:href="#DejaVuSans-69" x="63.476562"/>
     <use xlink:href="#DejaVuSans-6d" x="91.259766"/>
     <use xlink:href="#DejaVuSans-69" x="188.671875"/>
     <use xlink:href="#DejaVuSans-6c" x="216.455078"/>
     <use xlink:href="#DejaVuSans-61" x="244.238281"/>
     <use xlink:href="#DejaVuSans-72" x="305.517578"/>
     <use xlink:href="#DejaVuSans-69" x="346.630859"/>
     <use xlink:href="#DejaVuSans-74" x="374.414062"/>
     <use xlink:href="#DejaVuSans-79" x="413.623047"/>
     <use xlink:href="#DejaVuSans-20" x="472.802734"/>
     <use xlink:href="#DejaVuSans-4c" x="504.589844"/>
     <use xlink:href="#DejaVuSans-4c" x="560.302734"/>
     <use xlink:href="#DejaVuSans-4d" x="616.015625"/>
     <use xlink:href="#DejaVuSans-2d" x="702.294922"/>
     <use xlink:href="#DejaVuSans-44" x="738.378906"/>
     <use xlink:href="#DejaVuSans-45" x="815.380859"/>
     <use xlink:href="#DejaVuSans-46" x="878.564453"/>
     <use xlink:href="#DejaVuSans-5f" x="936.083984"/>
     <use xlink:href="#DejaVuSans-73" x="986.083984"/>
     <use xlink:href="#DejaVuSans-77" x="1038.183594"/>
     <use xlink:href="#DejaVuSans-32" x="1119.970703"/>
     <use xlink:href="#DejaVuSans-35" x="1183.59375"/>
     <use xlink:href="#DejaVuSans-20" x="1247.216797"/>
     <use xlink:href="#DejaVuSans-2d" x="1279.003906"/>
     <use xlink:href="#DejaVuSans-20" x="1315.087891"/>
     <use xlink:href="#DejaVuSans-32" x="1346.875"/>
     <use xlink:href="#DejaVuSans-30" x="1410.498047"/>
     <use xlink:href="#DejaVuSans-32" x="1474.121094"/>
     <use xlink:href="#DejaVuSans-34" x="1537.744141"/>
     <use xlink:href="#DejaVuSans-30" x="1601.367188"/>
     <use xlink:href="#DejaVuSans-34" x="1664.990234"/>
     <use xlink:href="#DejaVuSans-31" x="1728.613281"/>
     <use xlink:href="#DejaVuSans-35" x="1792.236328"/>
     <use xlink:href="#DejaVuSans-31" x="1855.859375"/>
     <use xlink:href="#DejaVuSans-34" x="1919.482422"/>
     <use xlink:href="#DejaVuSans-34" x="1983.105469"/>
     <use xlink:href="#DejaVuSans-30" x="2046.728516"/>
     <use xlink:href="#DejaVuSans-31" x="2110.351562"/>
     <use xlink:href="#DejaVuSans-33" x="2173.974609"/>
     <use xlink:href="#DejaVuSans-20" x="2237.597656"/>
     <use xlink:href="#DejaVuSans-2d" x="2269.384766"/>
     <use xlink:href="#DejaVuSans-20" x="2305.46875"/>
     <use xlink:href="#DejaVuSans-35" x="2337.255859"/>
     <use xlink:href="#DejaVuSans-30" x="2400.878906"/>
     <use xlink:href="#DejaVuSans-20" x="2464.501953"/>
     <use xlink:href="#DejaVuSans-67" x="2496.289062"/>
     <use xlink:href="#DejaVuSans-61" x="2559.765625"/>
     <use xlink:href="#DejaVuSans-6d" x="2621.044922"/>
     <use xlink:href="#DejaVuSans-65" x="2718.457031"/>
     <use xlink:href="#DejaVuSans-73" x="2779.980469"/>
    </g>
   </g>
   <g id="legend_1">
    <g id="patch_7">
     <path d="M 54.81 298.64 
L 192.61 298.64 
Q 194.61 298.64 194.61 296.64 
L 194.61 267.7275 
Q 194.61 265.7275 192.61 265.7275 
L 54.81 265.7275 
Q 52.81 265.7275 52.81 267.7275 
L 52.81 296.64 
Q 52.81 298.64 54.81 298.64 
z
" style="fill: #ffffff; opacity: 0.8; stroke: #cccccc; stroke-linejoin: miter"/>
    </g>
    <g id="line2d_18">
     <path d="M 56.81 273.825937 
L 66.81 273.825937 
L 76.81 273.825937 
" style="fill: none; stroke: #0000ff; stroke-linecap: square"/>
     <g>
      <use xlink:href="#m2c4dc94244" x="66.81" y="273.825937" style="fill: #0000ff"/>
     </g>
    </g>
    <g id="text_16">
     <!-- LLM-DEF_sw25 -->
     <g transform="translate(84.81 277.325937) scale(0.1 -0.1)">
      <use xlink:href="#DejaVuSans-4c"/>
      <use xlink:href="#DejaVuSans-4c" x="55.712891"/>
      <use xlink:href="#DejaVuSans-4d" x="111.425781"/>
      <use xlink:href="#DejaVuSans-2d" x="197.705078"/>
      <use xlink:href="#DejaVuSans-44" x="233.789062"/>
      <use xlink:href="#DejaVuSans-45" x="310.791016"/>
      <use xlink:href="#DejaVuSans-46" x="373.974609"/>
      <use xlink:href="#DejaVuSans-5f" x="431.494141"/>
      <use xlink:href="#DejaVuSans-73" x="481.494141"/>
      <use xlink:href="#DejaVuSans-77" x="533.59375"/>
      <use xlink:href="#DejaVuSans-32" x="615.380859"/>
      <use xlink:href="#DejaVuSans-35" x="679.003906"/>
     </g>
    </g>
    <g id="line2d_19">
     <path d="M 56.81 288.782187 
L 66.81 288.782187 
L 76.81 288.782187 
" style="fill: none; stroke: #ff0000; stroke-opacity: 0.5; stroke-width: 0.5; stroke-linecap: square"/>
     <g>
      <use xlink:href="#mbcddadf0a3" x="66.81" y="288.782187" style="fill: #ff0000; fill-opacity: 0.5"/>
     </g>
    </g>
    <g id="text_17">
     <!-- LLM-DEF_sw25 mean -->
     <g transform="translate(84.81 292.282187) scale(0.1 -0.1)">
      <use xlink:href="#DejaVuSans-4c"/>
      <use xlink:href="#DejaVuSans-4c" x="55.712891"/>
      <use xlink:href="#DejaVuSans-4d" x="111.425781"/>
      <use xlink:href="#DejaVuSans-2d" x="197.705078"/>
      <use xlink:href="#DejaVuSans-44" x="233.789062"/>
      <use xlink:href="#DejaVuSans-45" x="310.791016"/>
      <use xlink:href="#DejaVuSans-46" x="373.974609"/>
      <use xlink:href="#DejaVuSans-5f" x="431.494141"/>
      <use xlink:href="#DejaVuSans-73" x="481.494141"/>
      <use xlink:href="#DejaVuSans-77" x="533.59375"/>
      <use xlink:href="#DejaVuSans-32" x="615.380859"/>
      <use xlink:href="#DejaVuSans-35" x="679.003906"/>
      <use xlink:href="#DejaVuSans-20" x="742.626953"/>
      <use xlink:href="#DejaVuSans-6d" x="774.414062"/>
      <use xlink:href="#DejaVuSans-65" x="871.826172"/>
      <use xlink:href="#DejaVuSans-61" x="933.349609"/>
      <use xlink:href="#DejaVuSans-6e" x="994.628906"/>
     </g>
    </g>
   </g>
  </g>
 </g>
 <defs>
  <clipPath id="pa3088bb015">
   <rect x="47.81" y="25.44" width="402.19" height="278.2"/>
  </clipPath>
 </defs>
</svg>
