<?xml version="1.0" encoding="utf-8" standalone="no"?>
<!DOCTYPE svg PUBLIC "-//W3C//DTD SVG 1.1//EN"
  "http://www.w3.org/Graphics/SVG/1.1/DTD/svg11.dtd">
<svg xmlns:xlink="http://www.w3.org/1999/xlink" width="460.8pt" height="345.6pt" viewBox="0 0 460.8 345.6" xmlns="http://www.w3.org/2000/svg" version="1.1">
 <metadata>
  <rdf:RDF xmlns:dc="http://purl.org/dc/elements/1.1/" xmlns:cc="http://creativecommons.org/ns#" xmlns:rdf="http://www.w3.org/1999/02/22-rdf-syntax-ns#">
   <cc:Work>
    <dc:type rdf:resource="http://purl.org/dc/dcmitype/StillImage"/>
    <dc:date>2024-04-10T11:15:17.044286</dc:date>
    <dc:format>image/svg+xml</dc:format>
    <dc:creator>
     <cc:Agent>
      <dc:title>Matplotlib v3.8.0, https://matplotlib.org/</dc:title>
     </cc:Agent>
    </dc:creator>
   </cc:Work>
  </rdf:RDF>
 </metadata>
 <defs>
  <style type="text/css">*{stroke-linejoin: round; stroke-linecap: butt}</style>
 </defs>
 <g id="figure_1">
  <g id="patch_1">
   <path d="M 0 345.6 
L 460.8 345.6 
L 460.8 0 
L 0 0 
z
" style="fill: #ffffff"/>
  </g>
  <g id="axes_1">
   <g id="patch_2">
    <path d="M 62.57 303.64 
L 450 303.64 
L 450 25.44 
L 62.57 25.44 
z
" style="fill: #ffffff"/>
   </g>
   <g id="PolyCollection_1">
    <defs>
     <path id="m71e9147068" d="M 80.180455 -181.06 
L 80.180455 -181.06 
L 87.368395 -181.06 
L 94.556336 -181.06 
L 101.744276 -181.06 
L 108.932217 -181.06 
L 116.120158 -181.06 
L 123.308098 -181.06 
L 130.496039 -181.06 
L 137.68398 -181.06 
L 144.87192 -181.06 
L 152.059861 -181.06 
L 159.247801 -181.06 
L 166.435742 -181.06 
L 173.623683 -181.06 
L 180.811623 -181.06 
L 187.999564 -181.06 
L 195.187505 -181.06 
L 202.375445 -181.06 
L 209.563386 -181.06 
L 216.751327 -181.06 
L 223.939267 -181.06 
L 231.127208 -181.06 
L 238.315148 -181.06 
L 245.503089 -181.06 
L 252.69103 -181.06 
L 259.87897 -181.06 
L 267.066911 -181.06 
L 274.254852 -181.06 
L 281.442792 -181.06 
L 288.630733 -181.06 
L 295.818673 -181.06 
L 303.006614 -181.06 
L 310.194555 -181.06 
L 317.382495 -181.06 
L 324.570436 -181.06 
L 331.758377 -181.06 
L 338.946317 -181.06 
L 346.134258 -181.06 
L 353.322199 -181.06 
L 360.510139 -181.06 
L 367.69808 -181.06 
L 374.88602 -181.06 
L 382.073961 -181.06 
L 389.261902 -181.06 
L 396.449842 -181.06 
L 403.637783 -181.06 
L 410.825724 -181.06 
L 418.013664 -181.06 
L 425.201605 -181.06 
L 432.389545 -181.06 
L 432.389545 -181.06 
L 432.389545 -181.06 
L 425.201605 -181.06 
L 418.013664 -181.06 
L 410.825724 -181.06 
L 403.637783 -181.06 
L 396.449842 -181.06 
L 389.261902 -181.06 
L 382.073961 -181.06 
L 374.88602 -181.06 
L 367.69808 -181.06 
L 360.510139 -181.06 
L 353.322199 -181.06 
L 346.134258 -181.06 
L 338.946317 -181.06 
L 331.758377 -181.06 
L 324.570436 -181.06 
L 317.382495 -181.06 
L 310.194555 -181.06 
L 303.006614 -181.06 
L 295.818673 -181.06 
L 288.630733 -181.06 
L 281.442792 -181.06 
L 274.254852 -181.06 
L 267.066911 -181.06 
L 259.87897 -181.06 
L 252.69103 -181.06 
L 245.503089 -181.06 
L 238.315148 -181.06 
L 231.127208 -181.06 
L 223.939267 -181.06 
L 216.751327 -181.06 
L 209.563386 -181.06 
L 202.375445 -181.06 
L 195.187505 -181.06 
L 187.999564 -181.06 
L 180.811623 -181.06 
L 173.623683 -181.06 
L 166.435742 -181.06 
L 159.247801 -181.06 
L 152.059861 -181.06 
L 144.87192 -181.06 
L 137.68398 -181.06 
L 130.496039 -181.06 
L 123.308098 -181.06 
L 116.120158 -181.06 
L 108.932217 -181.06 
L 101.744276 -181.06 
L 94.556336 -181.06 
L 87.368395 -181.06 
L 80.180455 -181.06 
z
" style="stroke: #0000ff; stroke-opacity: 0.2"/>
    </defs>
    <g clip-path="url(#p26f64b301b)">
     <use xlink:href="#m71e9147068" x="0" y="345.6" style="fill: #0000ff; fill-opacity: 0.2; stroke: #0000ff; stroke-opacity: 0.2"/>
    </g>
   </g>
   <g id="matplotlib.axis_1">
    <g id="xtick_1">
     <g id="line2d_1">
      <defs>
       <path id="mc812b8c656" d="M 0 0 
L 0 3.5 
" style="stroke: #000000; stroke-width: 0.8"/>
      </defs>
      <g>
       <use xlink:href="#mc812b8c656" x="80.180455" y="303.64" style="stroke: #000000; stroke-width: 0.8"/>
      </g>
     </g>
     <g id="text_1">
      <!-- 0 -->
      <g transform="translate(76.999205 318.238437) scale(0.1 -0.1)">
       <defs>
        <path id="DejaVuSans-30" d="M 2034 4250 
Q 1547 4250 1301 3770 
Q 1056 3291 1056 2328 
Q 1056 1369 1301 889 
Q 1547 409 2034 409 
Q 2525 409 2770 889 
Q 3016 1369 3016 2328 
Q 3016 3291 2770 3770 
Q 2525 4250 2034 4250 
z
M 2034 4750 
Q 2819 4750 3233 4129 
Q 3647 3509 3647 2328 
Q 3647 1150 3233 529 
Q 2819 -91 2034 -91 
Q 1250 -91 836 529 
Q 422 1150 422 2328 
Q 422 3509 836 4129 
Q 1250 4750 2034 4750 
z
" transform="scale(0.015625)"/>
       </defs>
       <use xlink:href="#DejaVuSans-30"/>
      </g>
     </g>
    </g>
    <g id="xtick_2">
     <g id="line2d_2">
      <g>
       <use xlink:href="#mc812b8c656" x="152.059861" y="303.64" style="stroke: #000000; stroke-width: 0.8"/>
      </g>
     </g>
     <g id="text_2">
      <!-- 10 -->
      <g transform="translate(145.697361 318.238437) scale(0.1 -0.1)">
       <defs>
        <path id="DejaVuSans-31" d="M 794 531 
L 1825 531 
L 1825 4091 
L 703 3866 
L 703 4441 
L 1819 4666 
L 2450 4666 
L 2450 531 
L 3481 531 
L 3481 0 
L 794 0 
L 794 531 
z
" transform="scale(0.015625)"/>
       </defs>
       <use xlink:href="#DejaVuSans-31"/>
       <use xlink:href="#DejaVuSans-30" x="63.623047"/>
      </g>
     </g>
    </g>
    <g id="xtick_3">
     <g id="line2d_3">
      <g>
       <use xlink:href="#mc812b8c656" x="223.939267" y="303.64" style="stroke: #000000; stroke-width: 0.8"/>
      </g>
     </g>
     <g id="text_3">
      <!-- 20 -->
      <g transform="translate(217.576767 318.238437) scale(0.1 -0.1)">
       <defs>
        <path id="DejaVuSans-32" d="M 1228 531 
L 3431 531 
L 3431 0 
L 469 0 
L 469 531 
Q 828 903 1448 1529 
Q 2069 2156 2228 2338 
Q 2531 2678 2651 2914 
Q 2772 3150 2772 3378 
Q 2772 3750 2511 3984 
Q 2250 4219 1831 4219 
Q 1534 4219 1204 4116 
Q 875 4013 500 3803 
L 500 4441 
Q 881 4594 1212 4672 
Q 1544 4750 1819 4750 
Q 2544 4750 2975 4387 
Q 3406 4025 3406 3419 
Q 3406 3131 3298 2873 
Q 3191 2616 2906 2266 
Q 2828 2175 2409 1742 
Q 1991 1309 1228 531 
z
" transform="scale(0.015625)"/>
       </defs>
       <use xlink:href="#DejaVuSans-32"/>
       <use xlink:href="#DejaVuSans-30" x="63.623047"/>
      </g>
     </g>
    </g>
    <g id="xtick_4">
     <g id="line2d_4">
      <g>
       <use xlink:href="#mc812b8c656" x="295.818673" y="303.64" style="stroke: #000000; stroke-width: 0.8"/>
      </g>
     </g>
     <g id="text_4">
      <!-- 30 -->
      <g transform="translate(289.456173 318.238437) scale(0.1 -0.1)">
       <defs>
        <path id="DejaVuSans-33" d="M 2597 2516 
Q 3050 2419 3304 2112 
Q 3559 1806 3559 1356 
Q 3559 666 3084 287 
Q 2609 -91 1734 -91 
Q 1441 -91 1130 -33 
Q 819 25 488 141 
L 488 750 
Q 750 597 1062 519 
Q 1375 441 1716 441 
Q 2309 441 2620 675 
Q 2931 909 2931 1356 
Q 2931 1769 2642 2001 
Q 2353 2234 1838 2234 
L 1294 2234 
L 1294 2753 
L 1863 2753 
Q 2328 2753 2575 2939 
Q 2822 3125 2822 3475 
Q 2822 3834 2567 4026 
Q 2313 4219 1838 4219 
Q 1578 4219 1281 4162 
Q 984 4106 628 3988 
L 628 4550 
Q 988 4650 1302 4700 
Q 1616 4750 1894 4750 
Q 2613 4750 3031 4423 
Q 3450 4097 3450 3541 
Q 3450 3153 3228 2886 
Q 3006 2619 2597 2516 
z
" transform="scale(0.015625)"/>
       </defs>
       <use xlink:href="#DejaVuSans-33"/>
       <use xlink:href="#DejaVuSans-30" x="63.623047"/>
      </g>
     </g>
    </g>
    <g id="xtick_5">
     <g id="line2d_5">
      <g>
       <use xlink:href="#mc812b8c656" x="367.69808" y="303.64" style="stroke: #000000; stroke-width: 0.8"/>
      </g>
     </g>
     <g id="text_5">
      <!-- 40 -->
      <g transform="translate(361.33558 318.238437) scale(0.1 -0.1)">
       <defs>
        <path id="DejaVuSans-34" d="M 2419 4116 
L 825 1625 
L 2419 1625 
L 2419 4116 
z
M 2253 4666 
L 3047 4666 
L 3047 1625 
L 3713 1625 
L 3713 1100 
L 3047 1100 
L 3047 0 
L 2419 0 
L 2419 1100 
L 313 1100 
L 313 1709 
L 2253 4666 
z
" transform="scale(0.015625)"/>
       </defs>
       <use xlink:href="#DejaVuSans-34"/>
       <use xlink:href="#DejaVuSans-30" x="63.623047"/>
      </g>
     </g>
    </g>
    <g id="xtick_6">
     <g id="line2d_6">
      <g>
       <use xlink:href="#mc812b8c656" x="439.577486" y="303.64" style="stroke: #000000; stroke-width: 0.8"/>
      </g>
     </g>
     <g id="text_6">
      <!-- 50 -->
      <g transform="translate(433.214986 318.238437) scale(0.1 -0.1)">
       <defs>
        <path id="DejaVuSans-35" d="M 691 4666 
L 3169 4666 
L 3169 4134 
L 1269 4134 
L 1269 2991 
Q 1406 3038 1543 3061 
Q 1681 3084 1819 3084 
Q 2600 3084 3056 2656 
Q 3513 2228 3513 1497 
Q 3513 744 3044 326 
Q 2575 -91 1722 -91 
Q 1428 -91 1123 -41 
Q 819 9 494 109 
L 494 744 
Q 775 591 1075 516 
Q 1375 441 1709 441 
Q 2250 441 2565 725 
Q 2881 1009 2881 1497 
Q 2881 1984 2565 2268 
Q 2250 2553 1709 2553 
Q 1456 2553 1204 2497 
Q 953 2441 691 2322 
L 691 4666 
z
" transform="scale(0.015625)"/>
       </defs>
       <use xlink:href="#DejaVuSans-35"/>
       <use xlink:href="#DejaVuSans-30" x="63.623047"/>
      </g>
     </g>
    </g>
    <g id="text_7">
     <!-- Iteration -->
     <g transform="translate(235.076406 331.916562) scale(0.1 -0.1)">
      <defs>
       <path id="DejaVuSans-49" d="M 628 4666 
L 1259 4666 
L 1259 0 
L 628 0 
L 628 4666 
z
" transform="scale(0.015625)"/>
       <path id="DejaVuSans-74" d="M 1172 4494 
L 1172 3500 
L 2356 3500 
L 2356 3053 
L 1172 3053 
L 1172 1153 
Q 1172 725 1289 603 
Q 1406 481 1766 481 
L 2356 481 
L 2356 0 
L 1766 0 
Q 1100 0 847 248 
Q 594 497 594 1153 
L 594 3053 
L 172 3053 
L 172 3500 
L 594 3500 
L 594 4494 
L 1172 4494 
z
" transform="scale(0.015625)"/>
       <path id="DejaVuSans-65" d="M 3597 1894 
L 3597 1613 
L 953 1613 
Q 991 1019 1311 708 
Q 1631 397 2203 397 
Q 2534 397 2845 478 
Q 3156 559 3463 722 
L 3463 178 
Q 3153 47 2828 -22 
Q 2503 -91 2169 -91 
Q 1331 -91 842 396 
Q 353 884 353 1716 
Q 353 2575 817 3079 
Q 1281 3584 2069 3584 
Q 2775 3584 3186 3129 
Q 3597 2675 3597 1894 
z
M 3022 2063 
Q 3016 2534 2758 2815 
Q 2500 3097 2075 3097 
Q 1594 3097 1305 2825 
Q 1016 2553 972 2059 
L 3022 2063 
z
" transform="scale(0.015625)"/>
       <path id="DejaVuSans-72" d="M 2631 2963 
Q 2534 3019 2420 3045 
Q 2306 3072 2169 3072 
Q 1681 3072 1420 2755 
Q 1159 2438 1159 1844 
L 1159 0 
L 581 0 
L 581 3500 
L 1159 3500 
L 1159 2956 
Q 1341 3275 1631 3429 
Q 1922 3584 2338 3584 
Q 2397 3584 2469 3576 
Q 2541 3569 2628 3553 
L 2631 2963 
z
" transform="scale(0.015625)"/>
       <path id="DejaVuSans-61" d="M 2194 1759 
Q 1497 1759 1228 1600 
Q 959 1441 959 1056 
Q 959 750 1161 570 
Q 1363 391 1709 391 
Q 2188 391 2477 730 
Q 2766 1069 2766 1631 
L 2766 1759 
L 2194 1759 
z
M 3341 1997 
L 3341 0 
L 2766 0 
L 2766 531 
Q 2569 213 2275 61 
Q 1981 -91 1556 -91 
Q 1019 -91 701 211 
Q 384 513 384 1019 
Q 384 1609 779 1909 
Q 1175 2209 1959 2209 
L 2766 2209 
L 2766 2266 
Q 2766 2663 2505 2880 
Q 2244 3097 1772 3097 
Q 1472 3097 1187 3025 
Q 903 2953 641 2809 
L 641 3341 
Q 956 3463 1253 3523 
Q 1550 3584 1831 3584 
Q 2591 3584 2966 3190 
Q 3341 2797 3341 1997 
z
" transform="scale(0.015625)"/>
       <path id="DejaVuSans-69" d="M 603 3500 
L 1178 3500 
L 1178 0 
L 603 0 
L 603 3500 
z
M 603 4863 
L 1178 4863 
L 1178 4134 
L 603 4134 
L 603 4863 
z
" transform="scale(0.015625)"/>
       <path id="DejaVuSans-6f" d="M 1959 3097 
Q 1497 3097 1228 2736 
Q 959 2375 959 1747 
Q 959 1119 1226 758 
Q 1494 397 1959 397 
Q 2419 397 2687 759 
Q 2956 1122 2956 1747 
Q 2956 2369 2687 2733 
Q 2419 3097 1959 3097 
z
M 1959 3584 
Q 2709 3584 3137 3096 
Q 3566 2609 3566 1747 
Q 3566 888 3137 398 
Q 2709 -91 1959 -91 
Q 1206 -91 779 398 
Q 353 888 353 1747 
Q 353 2609 779 3096 
Q 1206 3584 1959 3584 
z
" transform="scale(0.015625)"/>
       <path id="DejaVuSans-6e" d="M 3513 2113 
L 3513 0 
L 2938 0 
L 2938 2094 
Q 2938 2591 2744 2837 
Q 2550 3084 2163 3084 
Q 1697 3084 1428 2787 
Q 1159 2491 1159 1978 
L 1159 0 
L 581 0 
L 581 3500 
L 1159 3500 
L 1159 2956 
Q 1366 3272 1645 3428 
Q 1925 3584 2291 3584 
Q 2894 3584 3203 3211 
Q 3513 2838 3513 2113 
z
" transform="scale(0.015625)"/>
      </defs>
      <use xlink:href="#DejaVuSans-49"/>
      <use xlink:href="#DejaVuSans-74" x="29.492188"/>
      <use xlink:href="#DejaVuSans-65" x="68.701172"/>
      <use xlink:href="#DejaVuSans-72" x="130.224609"/>
      <use xlink:href="#DejaVuSans-61" x="171.337891"/>
      <use xlink:href="#DejaVuSans-74" x="232.617188"/>
      <use xlink:href="#DejaVuSans-69" x="271.826172"/>
      <use xlink:href="#DejaVuSans-6f" x="299.609375"/>
      <use xlink:href="#DejaVuSans-6e" x="360.791016"/>
     </g>
    </g>
   </g>
   <g id="matplotlib.axis_2">
    <g id="ytick_1">
     <g id="line2d_7">
      <defs>
       <path id="m46b0849ab8" d="M 0 0 
L -3.5 0 
" style="stroke: #000000; stroke-width: 0.8"/>
      </defs>
      <g>
       <use xlink:href="#m46b0849ab8" x="62.57" y="265.703636" style="stroke: #000000; stroke-width: 0.8"/>
      </g>
     </g>
     <g id="text_8">
      <!-- −0.04 -->
      <g transform="translate(24.924688 269.502855) scale(0.1 -0.1)">
       <defs>
        <path id="DejaVuSans-2212" d="M 678 2272 
L 4684 2272 
L 4684 1741 
L 678 1741 
L 678 2272 
z
" transform="scale(0.015625)"/>
        <path id="DejaVuSans-2e" d="M 684 794 
L 1344 794 
L 1344 0 
L 684 0 
L 684 794 
z
" transform="scale(0.015625)"/>
       </defs>
       <use xlink:href="#DejaVuSans-2212"/>
       <use xlink:href="#DejaVuSans-30" x="83.789062"/>
       <use xlink:href="#DejaVuSans-2e" x="147.412109"/>
       <use xlink:href="#DejaVuSans-30" x="179.199219"/>
       <use xlink:href="#DejaVuSans-34" x="242.822266"/>
      </g>
     </g>
    </g>
    <g id="ytick_2">
     <g id="line2d_8">
      <g>
       <use xlink:href="#m46b0849ab8" x="62.57" y="215.121818" style="stroke: #000000; stroke-width: 0.8"/>
      </g>
     </g>
     <g id="text_9">
      <!-- −0.02 -->
      <g transform="translate(24.924688 218.921037) scale(0.1 -0.1)">
       <use xlink:href="#DejaVuSans-2212"/>
       <use xlink:href="#DejaVuSans-30" x="83.789062"/>
       <use xlink:href="#DejaVuSans-2e" x="147.412109"/>
       <use xlink:href="#DejaVuSans-30" x="179.199219"/>
       <use xlink:href="#DejaVuSans-32" x="242.822266"/>
      </g>
     </g>
    </g>
    <g id="ytick_3">
     <g id="line2d_9">
      <g>
       <use xlink:href="#m46b0849ab8" x="62.57" y="164.54" style="stroke: #000000; stroke-width: 0.8"/>
      </g>
     </g>
     <g id="text_10">
      <!-- 0.00 -->
      <g transform="translate(33.304375 168.339219) scale(0.1 -0.1)">
       <use xlink:href="#DejaVuSans-30"/>
       <use xlink:href="#DejaVuSans-2e" x="63.623047"/>
       <use xlink:href="#DejaVuSans-30" x="95.410156"/>
       <use xlink:href="#DejaVuSans-30" x="159.033203"/>
      </g>
     </g>
    </g>
    <g id="ytick_4">
     <g id="line2d_10">
      <g>
       <use xlink:href="#m46b0849ab8" x="62.57" y="113.958182" style="stroke: #000000; stroke-width: 0.8"/>
      </g>
     </g>
     <g id="text_11">
      <!-- 0.02 -->
      <g transform="translate(33.304375 117.757401) scale(0.1 -0.1)">
       <use xlink:href="#DejaVuSans-30"/>
       <use xlink:href="#DejaVuSans-2e" x="63.623047"/>
       <use xlink:href="#DejaVuSans-30" x="95.410156"/>
       <use xlink:href="#DejaVuSans-32" x="159.033203"/>
      </g>
     </g>
    </g>
    <g id="ytick_5">
     <g id="line2d_11">
      <g>
       <use xlink:href="#m46b0849ab8" x="62.57" y="63.376364" style="stroke: #000000; stroke-width: 0.8"/>
      </g>
     </g>
     <g id="text_12">
      <!-- 0.04 -->
      <g transform="translate(33.304375 67.175582) scale(0.1 -0.1)">
       <use xlink:href="#DejaVuSans-30"/>
       <use xlink:href="#DejaVuSans-2e" x="63.623047"/>
       <use xlink:href="#DejaVuSans-30" x="95.410156"/>
       <use xlink:href="#DejaVuSans-34" x="159.033203"/>
      </g>
     </g>
    </g>
    <g id="text_13">
     <!-- Avg action -->
     <g transform="translate(18.845 190.779844) rotate(-90) scale(0.1 -0.1)">
      <defs>
       <path id="DejaVuSans-41" d="M 2188 4044 
L 1331 1722 
L 3047 1722 
L 2188 4044 
z
M 1831 4666 
L 2547 4666 
L 4325 0 
L 3669 0 
L 3244 1197 
L 1141 1197 
L 716 0 
L 50 0 
L 1831 4666 
z
" transform="scale(0.015625)"/>
       <path id="DejaVuSans-76" d="M 191 3500 
L 800 3500 
L 1894 563 
L 2988 3500 
L 3597 3500 
L 2284 0 
L 1503 0 
L 191 3500 
z
" transform="scale(0.015625)"/>
       <path id="DejaVuSans-67" d="M 2906 1791 
Q 2906 2416 2648 2759 
Q 2391 3103 1925 3103 
Q 1463 3103 1205 2759 
Q 947 2416 947 1791 
Q 947 1169 1205 825 
Q 1463 481 1925 481 
Q 2391 481 2648 825 
Q 2906 1169 2906 1791 
z
M 3481 434 
Q 3481 -459 3084 -895 
Q 2688 -1331 1869 -1331 
Q 1566 -1331 1297 -1286 
Q 1028 -1241 775 -1147 
L 775 -588 
Q 1028 -725 1275 -790 
Q 1522 -856 1778 -856 
Q 2344 -856 2625 -561 
Q 2906 -266 2906 331 
L 2906 616 
Q 2728 306 2450 153 
Q 2172 0 1784 0 
Q 1141 0 747 490 
Q 353 981 353 1791 
Q 353 2603 747 3093 
Q 1141 3584 1784 3584 
Q 2172 3584 2450 3431 
Q 2728 3278 2906 2969 
L 2906 3500 
L 3481 3500 
L 3481 434 
z
" transform="scale(0.015625)"/>
       <path id="DejaVuSans-20" transform="scale(0.015625)"/>
       <path id="DejaVuSans-63" d="M 3122 3366 
L 3122 2828 
Q 2878 2963 2633 3030 
Q 2388 3097 2138 3097 
Q 1578 3097 1268 2742 
Q 959 2388 959 1747 
Q 959 1106 1268 751 
Q 1578 397 2138 397 
Q 2388 397 2633 464 
Q 2878 531 3122 666 
L 3122 134 
Q 2881 22 2623 -34 
Q 2366 -91 2075 -91 
Q 1284 -91 818 406 
Q 353 903 353 1747 
Q 353 2603 823 3093 
Q 1294 3584 2113 3584 
Q 2378 3584 2631 3529 
Q 2884 3475 3122 3366 
z
" transform="scale(0.015625)"/>
      </defs>
      <use xlink:href="#DejaVuSans-41"/>
      <use xlink:href="#DejaVuSans-76" x="62.533203"/>
      <use xlink:href="#DejaVuSans-67" x="121.712891"/>
      <use xlink:href="#DejaVuSans-20" x="185.189453"/>
      <use xlink:href="#DejaVuSans-61" x="216.976562"/>
      <use xlink:href="#DejaVuSans-63" x="278.255859"/>
      <use xlink:href="#DejaVuSans-74" x="333.236328"/>
      <use xlink:href="#DejaVuSans-69" x="372.445312"/>
      <use xlink:href="#DejaVuSans-6f" x="400.228516"/>
      <use xlink:href="#DejaVuSans-6e" x="461.410156"/>
     </g>
    </g>
   </g>
   <g id="line2d_12">
    <path d="M 80.180455 164.54 
L 87.368395 164.54 
L 94.556336 164.54 
L 101.744276 164.54 
L 108.932217 164.54 
L 116.120158 164.54 
L 123.308098 164.54 
L 130.496039 164.54 
L 137.68398 164.54 
L 144.87192 164.54 
L 152.059861 164.54 
L 159.247801 164.54 
L 166.435742 164.54 
L 173.623683 164.54 
L 180.811623 164.54 
L 187.999564 164.54 
L 195.187505 164.54 
L 202.375445 164.54 
L 209.563386 164.54 
L 216.751327 164.54 
L 223.939267 164.54 
L 231.127208 164.54 
L 238.315148 164.54 
L 245.503089 164.54 
L 252.69103 164.54 
L 259.87897 164.54 
L 267.066911 164.54 
L 274.254852 164.54 
L 281.442792 164.54 
L 288.630733 164.54 
L 295.818673 164.54 
L 303.006614 164.54 
L 310.194555 164.54 
L 317.382495 164.54 
L 324.570436 164.54 
L 331.758377 164.54 
L 338.946317 164.54 
L 346.134258 164.54 
L 353.322199 164.54 
L 360.510139 164.54 
L 367.69808 164.54 
L 374.88602 164.54 
L 382.073961 164.54 
L 389.261902 164.54 
L 396.449842 164.54 
L 403.637783 164.54 
L 410.825724 164.54 
L 418.013664 164.54 
L 425.201605 164.54 
L 432.389545 164.54 
" clip-path="url(#p26f64b301b)" style="fill: none; stroke: #0000ff; stroke-linecap: square"/>
    <defs>
     <path id="mcf6c1036a3" d="M -0.49999 0.49999 
L 0.50001 0.49999 
L 0.50001 -0.50001 
L -0.49999 -0.50001 
z
"/>
    </defs>
    <g clip-path="url(#p26f64b301b)">
     <use xlink:href="#mcf6c1036a3" x="80.180455" y="164.54" style="fill: #0000ff"/>
     <use xlink:href="#mcf6c1036a3" x="87.368395" y="164.54" style="fill: #0000ff"/>
     <use xlink:href="#mcf6c1036a3" x="94.556336" y="164.54" style="fill: #0000ff"/>
     <use xlink:href="#mcf6c1036a3" x="101.744276" y="164.54" style="fill: #0000ff"/>
     <use xlink:href="#mcf6c1036a3" x="108.932217" y="164.54" style="fill: #0000ff"/>
     <use xlink:href="#mcf6c1036a3" x="116.120158" y="164.54" style="fill: #0000ff"/>
     <use xlink:href="#mcf6c1036a3" x="123.308098" y="164.54" style="fill: #0000ff"/>
     <use xlink:href="#mcf6c1036a3" x="130.496039" y="164.54" style="fill: #0000ff"/>
     <use xlink:href="#mcf6c1036a3" x="137.68398" y="164.54" style="fill: #0000ff"/>
     <use xlink:href="#mcf6c1036a3" x="144.87192" y="164.54" style="fill: #0000ff"/>
     <use xlink:href="#mcf6c1036a3" x="152.059861" y="164.54" style="fill: #0000ff"/>
     <use xlink:href="#mcf6c1036a3" x="159.247801" y="164.54" style="fill: #0000ff"/>
     <use xlink:href="#mcf6c1036a3" x="166.435742" y="164.54" style="fill: #0000ff"/>
     <use xlink:href="#mcf6c1036a3" x="173.623683" y="164.54" style="fill: #0000ff"/>
     <use xlink:href="#mcf6c1036a3" x="180.811623" y="164.54" style="fill: #0000ff"/>
     <use xlink:href="#mcf6c1036a3" x="187.999564" y="164.54" style="fill: #0000ff"/>
     <use xlink:href="#mcf6c1036a3" x="195.187505" y="164.54" style="fill: #0000ff"/>
     <use xlink:href="#mcf6c1036a3" x="202.375445" y="164.54" style="fill: #0000ff"/>
     <use xlink:href="#mcf6c1036a3" x="209.563386" y="164.54" style="fill: #0000ff"/>
     <use xlink:href="#mcf6c1036a3" x="216.751327" y="164.54" style="fill: #0000ff"/>
     <use xlink:href="#mcf6c1036a3" x="223.939267" y="164.54" style="fill: #0000ff"/>
     <use xlink:href="#mcf6c1036a3" x="231.127208" y="164.54" style="fill: #0000ff"/>
     <use xlink:href="#mcf6c1036a3" x="238.315148" y="164.54" style="fill: #0000ff"/>
     <use xlink:href="#mcf6c1036a3" x="245.503089" y="164.54" style="fill: #0000ff"/>
     <use xlink:href="#mcf6c1036a3" x="252.69103" y="164.54" style="fill: #0000ff"/>
     <use xlink:href="#mcf6c1036a3" x="259.87897" y="164.54" style="fill: #0000ff"/>
     <use xlink:href="#mcf6c1036a3" x="267.066911" y="164.54" style="fill: #0000ff"/>
     <use xlink:href="#mcf6c1036a3" x="274.254852" y="164.54" style="fill: #0000ff"/>
     <use xlink:href="#mcf6c1036a3" x="281.442792" y="164.54" style="fill: #0000ff"/>
     <use xlink:href="#mcf6c1036a3" x="288.630733" y="164.54" style="fill: #0000ff"/>
     <use xlink:href="#mcf6c1036a3" x="295.818673" y="164.54" style="fill: #0000ff"/>
     <use xlink:href="#mcf6c1036a3" x="303.006614" y="164.54" style="fill: #0000ff"/>
     <use xlink:href="#mcf6c1036a3" x="310.194555" y="164.54" style="fill: #0000ff"/>
     <use xlink:href="#mcf6c1036a3" x="317.382495" y="164.54" style="fill: #0000ff"/>
     <use xlink:href="#mcf6c1036a3" x="324.570436" y="164.54" style="fill: #0000ff"/>
     <use xlink:href="#mcf6c1036a3" x="331.758377" y="164.54" style="fill: #0000ff"/>
     <use xlink:href="#mcf6c1036a3" x="338.946317" y="164.54" style="fill: #0000ff"/>
     <use xlink:href="#mcf6c1036a3" x="346.134258" y="164.54" style="fill: #0000ff"/>
     <use xlink:href="#mcf6c1036a3" x="353.322199" y="164.54" style="fill: #0000ff"/>
     <use xlink:href="#mcf6c1036a3" x="360.510139" y="164.54" style="fill: #0000ff"/>
     <use xlink:href="#mcf6c1036a3" x="367.69808" y="164.54" style="fill: #0000ff"/>
     <use xlink:href="#mcf6c1036a3" x="374.88602" y="164.54" style="fill: #0000ff"/>
     <use xlink:href="#mcf6c1036a3" x="382.073961" y="164.54" style="fill: #0000ff"/>
     <use xlink:href="#mcf6c1036a3" x="389.261902" y="164.54" style="fill: #0000ff"/>
     <use xlink:href="#mcf6c1036a3" x="396.449842" y="164.54" style="fill: #0000ff"/>
     <use xlink:href="#mcf6c1036a3" x="403.637783" y="164.54" style="fill: #0000ff"/>
     <use xlink:href="#mcf6c1036a3" x="410.825724" y="164.54" style="fill: #0000ff"/>
     <use xlink:href="#mcf6c1036a3" x="418.013664" y="164.54" style="fill: #0000ff"/>
     <use xlink:href="#mcf6c1036a3" x="425.201605" y="164.54" style="fill: #0000ff"/>
     <use xlink:href="#mcf6c1036a3" x="432.389545" y="164.54" style="fill: #0000ff"/>
    </g>
   </g>
   <g id="line2d_13">
    <path d="M 80.180455 164.54 
L 87.368395 164.54 
L 94.556336 164.54 
L 101.744276 164.54 
L 108.932217 164.54 
L 116.120158 164.54 
L 123.308098 164.54 
L 130.496039 164.54 
L 137.68398 164.54 
L 144.87192 164.54 
L 152.059861 164.54 
L 159.247801 164.54 
L 166.435742 164.54 
L 173.623683 164.54 
L 180.811623 164.54 
L 187.999564 164.54 
L 195.187505 164.54 
L 202.375445 164.54 
L 209.563386 164.54 
L 216.751327 164.54 
L 223.939267 164.54 
L 231.127208 164.54 
L 238.315148 164.54 
L 245.503089 164.54 
L 252.69103 164.54 
L 259.87897 164.54 
L 267.066911 164.54 
L 274.254852 164.54 
L 281.442792 164.54 
L 288.630733 164.54 
L 295.818673 164.54 
L 303.006614 164.54 
L 310.194555 164.54 
L 317.382495 164.54 
L 324.570436 164.54 
L 331.758377 164.54 
L 338.946317 164.54 
L 346.134258 164.54 
L 353.322199 164.54 
L 360.510139 164.54 
L 367.69808 164.54 
L 374.88602 164.54 
L 382.073961 164.54 
L 389.261902 164.54 
L 396.449842 164.54 
L 403.637783 164.54 
L 410.825724 164.54 
L 418.013664 164.54 
L 425.201605 164.54 
L 432.389545 164.54 
" clip-path="url(#p26f64b301b)" style="fill: none; stroke: #0000ff; stroke-opacity: 0.5; stroke-width: 0.5; stroke-linecap: square"/>
    <defs>
     <path id="m3f513a7802" d="M -0.49999 0.49999 
L 0.50001 0.49999 
L 0.50001 -0.50001 
L -0.49999 -0.50001 
z
"/>
    </defs>
    <g clip-path="url(#p26f64b301b)">
     <use xlink:href="#m3f513a7802" x="80.180455" y="164.54" style="fill: #0000ff; fill-opacity: 0.5"/>
     <use xlink:href="#m3f513a7802" x="87.368395" y="164.54" style="fill: #0000ff; fill-opacity: 0.5"/>
     <use xlink:href="#m3f513a7802" x="94.556336" y="164.54" style="fill: #0000ff; fill-opacity: 0.5"/>
     <use xlink:href="#m3f513a7802" x="101.744276" y="164.54" style="fill: #0000ff; fill-opacity: 0.5"/>
     <use xlink:href="#m3f513a7802" x="108.932217" y="164.54" style="fill: #0000ff; fill-opacity: 0.5"/>
     <use xlink:href="#m3f513a7802" x="116.120158" y="164.54" style="fill: #0000ff; fill-opacity: 0.5"/>
     <use xlink:href="#m3f513a7802" x="123.308098" y="164.54" style="fill: #0000ff; fill-opacity: 0.5"/>
     <use xlink:href="#m3f513a7802" x="130.496039" y="164.54" style="fill: #0000ff; fill-opacity: 0.5"/>
     <use xlink:href="#m3f513a7802" x="137.68398" y="164.54" style="fill: #0000ff; fill-opacity: 0.5"/>
     <use xlink:href="#m3f513a7802" x="144.87192" y="164.54" style="fill: #0000ff; fill-opacity: 0.5"/>
     <use xlink:href="#m3f513a7802" x="152.059861" y="164.54" style="fill: #0000ff; fill-opacity: 0.5"/>
     <use xlink:href="#m3f513a7802" x="159.247801" y="164.54" style="fill: #0000ff; fill-opacity: 0.5"/>
     <use xlink:href="#m3f513a7802" x="166.435742" y="164.54" style="fill: #0000ff; fill-opacity: 0.5"/>
     <use xlink:href="#m3f513a7802" x="173.623683" y="164.54" style="fill: #0000ff; fill-opacity: 0.5"/>
     <use xlink:href="#m3f513a7802" x="180.811623" y="164.54" style="fill: #0000ff; fill-opacity: 0.5"/>
     <use xlink:href="#m3f513a7802" x="187.999564" y="164.54" style="fill: #0000ff; fill-opacity: 0.5"/>
     <use xlink:href="#m3f513a7802" x="195.187505" y="164.54" style="fill: #0000ff; fill-opacity: 0.5"/>
     <use xlink:href="#m3f513a7802" x="202.375445" y="164.54" style="fill: #0000ff; fill-opacity: 0.5"/>
     <use xlink:href="#m3f513a7802" x="209.563386" y="164.54" style="fill: #0000ff; fill-opacity: 0.5"/>
     <use xlink:href="#m3f513a7802" x="216.751327" y="164.54" style="fill: #0000ff; fill-opacity: 0.5"/>
     <use xlink:href="#m3f513a7802" x="223.939267" y="164.54" style="fill: #0000ff; fill-opacity: 0.5"/>
     <use xlink:href="#m3f513a7802" x="231.127208" y="164.54" style="fill: #0000ff; fill-opacity: 0.5"/>
     <use xlink:href="#m3f513a7802" x="238.315148" y="164.54" style="fill: #0000ff; fill-opacity: 0.5"/>
     <use xlink:href="#m3f513a7802" x="245.503089" y="164.54" style="fill: #0000ff; fill-opacity: 0.5"/>
     <use xlink:href="#m3f513a7802" x="252.69103" y="164.54" style="fill: #0000ff; fill-opacity: 0.5"/>
     <use xlink:href="#m3f513a7802" x="259.87897" y="164.54" style="fill: #0000ff; fill-opacity: 0.5"/>
     <use xlink:href="#m3f513a7802" x="267.066911" y="164.54" style="fill: #0000ff; fill-opacity: 0.5"/>
     <use xlink:href="#m3f513a7802" x="274.254852" y="164.54" style="fill: #0000ff; fill-opacity: 0.5"/>
     <use xlink:href="#m3f513a7802" x="281.442792" y="164.54" style="fill: #0000ff; fill-opacity: 0.5"/>
     <use xlink:href="#m3f513a7802" x="288.630733" y="164.54" style="fill: #0000ff; fill-opacity: 0.5"/>
     <use xlink:href="#m3f513a7802" x="295.818673" y="164.54" style="fill: #0000ff; fill-opacity: 0.5"/>
     <use xlink:href="#m3f513a7802" x="303.006614" y="164.54" style="fill: #0000ff; fill-opacity: 0.5"/>
     <use xlink:href="#m3f513a7802" x="310.194555" y="164.54" style="fill: #0000ff; fill-opacity: 0.5"/>
     <use xlink:href="#m3f513a7802" x="317.382495" y="164.54" style="fill: #0000ff; fill-opacity: 0.5"/>
     <use xlink:href="#m3f513a7802" x="324.570436" y="164.54" style="fill: #0000ff; fill-opacity: 0.5"/>
     <use xlink:href="#m3f513a7802" x="331.758377" y="164.54" style="fill: #0000ff; fill-opacity: 0.5"/>
     <use xlink:href="#m3f513a7802" x="338.946317" y="164.54" style="fill: #0000ff; fill-opacity: 0.5"/>
     <use xlink:href="#m3f513a7802" x="346.134258" y="164.54" style="fill: #0000ff; fill-opacity: 0.5"/>
     <use xlink:href="#m3f513a7802" x="353.322199" y="164.54" style="fill: #0000ff; fill-opacity: 0.5"/>
     <use xlink:href="#m3f513a7802" x="360.510139" y="164.54" style="fill: #0000ff; fill-opacity: 0.5"/>
     <use xlink:href="#m3f513a7802" x="367.69808" y="164.54" style="fill: #0000ff; fill-opacity: 0.5"/>
     <use xlink:href="#m3f513a7802" x="374.88602" y="164.54" style="fill: #0000ff; fill-opacity: 0.5"/>
     <use xlink:href="#m3f513a7802" x="382.073961" y="164.54" style="fill: #0000ff; fill-opacity: 0.5"/>
     <use xlink:href="#m3f513a7802" x="389.261902" y="164.54" style="fill: #0000ff; fill-opacity: 0.5"/>
     <use xlink:href="#m3f513a7802" x="396.449842" y="164.54" style="fill: #0000ff; fill-opacity: 0.5"/>
     <use xlink:href="#m3f513a7802" x="403.637783" y="164.54" style="fill: #0000ff; fill-opacity: 0.5"/>
     <use xlink:href="#m3f513a7802" x="410.825724" y="164.54" style="fill: #0000ff; fill-opacity: 0.5"/>
     <use xlink:href="#m3f513a7802" x="418.013664" y="164.54" style="fill: #0000ff; fill-opacity: 0.5"/>
     <use xlink:href="#m3f513a7802" x="425.201605" y="164.54" style="fill: #0000ff; fill-opacity: 0.5"/>
     <use xlink:href="#m3f513a7802" x="432.389545" y="164.54" style="fill: #0000ff; fill-opacity: 0.5"/>
    </g>
   </g>
   <g id="patch_3">
    <path d="M 62.57 303.64 
L 62.57 25.44 
" style="fill: none; stroke: #000000; stroke-width: 0.8; stroke-linejoin: miter; stroke-linecap: square"/>
   </g>
   <g id="patch_4">
    <path d="M 450 303.64 
L 450 25.44 
" style="fill: none; stroke: #000000; stroke-width: 0.8; stroke-linejoin: miter; stroke-linecap: square"/>
   </g>
   <g id="patch_5">
    <path d="M 62.57 303.64 
L 450 303.64 
" style="fill: none; stroke: #000000; stroke-width: 0.8; stroke-linejoin: miter; stroke-linecap: square"/>
   </g>
   <g id="patch_6">
    <path d="M 62.57 25.44 
L 450 25.44 
" style="fill: none; stroke: #000000; stroke-width: 0.8; stroke-linejoin: miter; stroke-linecap: square"/>
   </g>
   <g id="text_14">
    <!-- Average action - 20240409114154 - 50 games [1-50] -->
    <g transform="translate(95.9725 19.44) scale(0.12 -0.12)">
     <defs>
      <path id="DejaVuSans-2d" d="M 313 2009 
L 1997 2009 
L 1997 1497 
L 313 1497 
L 313 2009 
z
" transform="scale(0.015625)"/>
      <path id="DejaVuSans-39" d="M 703 97 
L 703 672 
Q 941 559 1184 500 
Q 1428 441 1663 441 
Q 2288 441 2617 861 
Q 2947 1281 2994 2138 
Q 2813 1869 2534 1725 
Q 2256 1581 1919 1581 
Q 1219 1581 811 2004 
Q 403 2428 403 3163 
Q 403 3881 828 4315 
Q 1253 4750 1959 4750 
Q 2769 4750 3195 4129 
Q 3622 3509 3622 2328 
Q 3622 1225 3098 567 
Q 2575 -91 1691 -91 
Q 1453 -91 1209 -44 
Q 966 3 703 97 
z
M 1959 2075 
Q 2384 2075 2632 2365 
Q 2881 2656 2881 3163 
Q 2881 3666 2632 3958 
Q 2384 4250 1959 4250 
Q 1534 4250 1286 3958 
Q 1038 3666 1038 3163 
Q 1038 2656 1286 2365 
Q 1534 2075 1959 2075 
z
" transform="scale(0.015625)"/>
      <path id="DejaVuSans-6d" d="M 3328 2828 
Q 3544 3216 3844 3400 
Q 4144 3584 4550 3584 
Q 5097 3584 5394 3201 
Q 5691 2819 5691 2113 
L 5691 0 
L 5113 0 
L 5113 2094 
Q 5113 2597 4934 2840 
Q 4756 3084 4391 3084 
Q 3944 3084 3684 2787 
Q 3425 2491 3425 1978 
L 3425 0 
L 2847 0 
L 2847 2094 
Q 2847 2600 2669 2842 
Q 2491 3084 2119 3084 
Q 1678 3084 1418 2786 
Q 1159 2488 1159 1978 
L 1159 0 
L 581 0 
L 581 3500 
L 1159 3500 
L 1159 2956 
Q 1356 3278 1631 3431 
Q 1906 3584 2284 3584 
Q 2666 3584 2933 3390 
Q 3200 3197 3328 2828 
z
" transform="scale(0.015625)"/>
      <path id="DejaVuSans-73" d="M 2834 3397 
L 2834 2853 
Q 2591 2978 2328 3040 
Q 2066 3103 1784 3103 
Q 1356 3103 1142 2972 
Q 928 2841 928 2578 
Q 928 2378 1081 2264 
Q 1234 2150 1697 2047 
L 1894 2003 
Q 2506 1872 2764 1633 
Q 3022 1394 3022 966 
Q 3022 478 2636 193 
Q 2250 -91 1575 -91 
Q 1294 -91 989 -36 
Q 684 19 347 128 
L 347 722 
Q 666 556 975 473 
Q 1284 391 1588 391 
Q 1994 391 2212 530 
Q 2431 669 2431 922 
Q 2431 1156 2273 1281 
Q 2116 1406 1581 1522 
L 1381 1569 
Q 847 1681 609 1914 
Q 372 2147 372 2553 
Q 372 3047 722 3315 
Q 1072 3584 1716 3584 
Q 2034 3584 2315 3537 
Q 2597 3491 2834 3397 
z
" transform="scale(0.015625)"/>
      <path id="DejaVuSans-5b" d="M 550 4863 
L 1875 4863 
L 1875 4416 
L 1125 4416 
L 1125 -397 
L 1875 -397 
L 1875 -844 
L 550 -844 
L 550 4863 
z
" transform="scale(0.015625)"/>
      <path id="DejaVuSans-5d" d="M 1947 4863 
L 1947 -844 
L 622 -844 
L 622 -397 
L 1369 -397 
L 1369 4416 
L 622 4416 
L 622 4863 
L 1947 4863 
z
" transform="scale(0.015625)"/>
     </defs>
     <use xlink:href="#DejaVuSans-41"/>
     <use xlink:href="#DejaVuSans-76" x="62.533203"/>
     <use xlink:href="#DejaVuSans-65" x="121.712891"/>
     <use xlink:href="#DejaVuSans-72" x="183.236328"/>
     <use xlink:href="#DejaVuSans-61" x="224.349609"/>
     <use xlink:href="#DejaVuSans-67" x="285.628906"/>
     <use xlink:href="#DejaVuSans-65" x="349.105469"/>
     <use xlink:href="#DejaVuSans-20" x="410.628906"/>
     <use xlink:href="#DejaVuSans-61" x="442.416016"/>
     <use xlink:href="#DejaVuSans-63" x="503.695312"/>
     <use xlink:href="#DejaVuSans-74" x="558.675781"/>
     <use xlink:href="#DejaVuSans-69" x="597.884766"/>
     <use xlink:href="#DejaVuSans-6f" x="625.667969"/>
     <use xlink:href="#DejaVuSans-6e" x="686.849609"/>
     <use xlink:href="#DejaVuSans-20" x="750.228516"/>
     <use xlink:href="#DejaVuSans-2d" x="782.015625"/>
     <use xlink:href="#DejaVuSans-20" x="818.099609"/>
     <use xlink:href="#DejaVuSans-32" x="849.886719"/>
     <use xlink:href="#DejaVuSans-30" x="913.509766"/>
     <use xlink:href="#DejaVuSans-32" x="977.132812"/>
     <use xlink:href="#DejaVuSans-34" x="1040.755859"/>
     <use xlink:href="#DejaVuSans-30" x="1104.378906"/>
     <use xlink:href="#DejaVuSans-34" x="1168.001953"/>
     <use xlink:href="#DejaVuSans-30" x="1231.625"/>
     <use xlink:href="#DejaVuSans-39" x="1295.248047"/>
     <use xlink:href="#DejaVuSans-31" x="1358.871094"/>
     <use xlink:href="#DejaVuSans-31" x="1422.494141"/>
     <use xlink:href="#DejaVuSans-34" x="1486.117188"/>
     <use xlink:href="#DejaVuSans-31" x="1549.740234"/>
     <use xlink:href="#DejaVuSans-35" x="1613.363281"/>
     <use xlink:href="#DejaVuSans-34" x="1676.986328"/>
     <use xlink:href="#DejaVuSans-20" x="1740.609375"/>
     <use xlink:href="#DejaVuSans-2d" x="1772.396484"/>
     <use xlink:href="#DejaVuSans-20" x="1808.480469"/>
     <use xlink:href="#DejaVuSans-35" x="1840.267578"/>
     <use xlink:href="#DejaVuSans-30" x="1903.890625"/>
     <use xlink:href="#DejaVuSans-20" x="1967.513672"/>
     <use xlink:href="#DejaVuSans-67" x="1999.300781"/>
     <use xlink:href="#DejaVuSans-61" x="2062.777344"/>
     <use xlink:href="#DejaVuSans-6d" x="2124.056641"/>
     <use xlink:href="#DejaVuSans-65" x="2221.46875"/>
     <use xlink:href="#DejaVuSans-73" x="2282.992188"/>
     <use xlink:href="#DejaVuSans-20" x="2335.091797"/>
     <use xlink:href="#DejaVuSans-5b" x="2366.878906"/>
     <use xlink:href="#DejaVuSans-31" x="2405.892578"/>
     <use xlink:href="#DejaVuSans-2d" x="2469.515625"/>
     <use xlink:href="#DejaVuSans-35" x="2505.599609"/>
     <use xlink:href="#DejaVuSans-30" x="2569.222656"/>
     <use xlink:href="#DejaVuSans-5d" x="2632.845703"/>
    </g>
   </g>
   <g id="legend_1">
    <g id="patch_7">
     <path d="M 359.690625 298.64 
L 443 298.64 
Q 445 298.64 445 296.64 
L 445 268.28375 
Q 445 266.28375 443 266.28375 
L 359.690625 266.28375 
Q 357.690625 266.28375 357.690625 268.28375 
L 357.690625 296.64 
Q 357.690625 298.64 359.690625 298.64 
z
" style="fill: #ffffff; opacity: 0.8; stroke: #cccccc; stroke-linejoin: miter"/>
    </g>
    <g id="line2d_14">
     <path d="M 361.690625 274.382187 
L 371.690625 274.382187 
L 381.690625 274.382187 
" style="fill: none; stroke: #0000ff; stroke-linecap: square"/>
     <g>
      <use xlink:href="#mcf6c1036a3" x="371.690625" y="274.382187" style="fill: #0000ff"/>
     </g>
    </g>
    <g id="text_15">
     <!-- LLM -->
     <g transform="translate(389.690625 277.882187) scale(0.1 -0.1)">
      <defs>
       <path id="DejaVuSans-4c" d="M 628 4666 
L 1259 4666 
L 1259 531 
L 3531 531 
L 3531 0 
L 628 0 
L 628 4666 
z
" transform="scale(0.015625)"/>
       <path id="DejaVuSans-4d" d="M 628 4666 
L 1569 4666 
L 2759 1491 
L 3956 4666 
L 4897 4666 
L 4897 0 
L 4281 0 
L 4281 4097 
L 3078 897 
L 2444 897 
L 1241 4097 
L 1241 0 
L 628 0 
L 628 4666 
z
" transform="scale(0.015625)"/>
      </defs>
      <use xlink:href="#DejaVuSans-4c"/>
      <use xlink:href="#DejaVuSans-4c" x="55.712891"/>
      <use xlink:href="#DejaVuSans-4d" x="111.425781"/>
     </g>
    </g>
    <g id="line2d_15">
     <path d="M 361.690625 289.060312 
L 371.690625 289.060312 
L 381.690625 289.060312 
" style="fill: none; stroke: #0000ff; stroke-opacity: 0.5; stroke-width: 0.5; stroke-linecap: square"/>
     <g>
      <use xlink:href="#m3f513a7802" x="371.690625" y="289.060312" style="fill: #0000ff; fill-opacity: 0.5"/>
     </g>
    </g>
    <g id="text_16">
     <!-- LLM mean -->
     <g transform="translate(389.690625 292.560312) scale(0.1 -0.1)">
      <use xlink:href="#DejaVuSans-4c"/>
      <use xlink:href="#DejaVuSans-4c" x="55.712891"/>
      <use xlink:href="#DejaVuSans-4d" x="111.425781"/>
      <use xlink:href="#DejaVuSans-20" x="197.705078"/>
      <use xlink:href="#DejaVuSans-6d" x="229.492188"/>
      <use xlink:href="#DejaVuSans-65" x="326.904297"/>
      <use xlink:href="#DejaVuSans-61" x="388.427734"/>
      <use xlink:href="#DejaVuSans-6e" x="449.707031"/>
     </g>
    </g>
   </g>
  </g>
 </g>
 <defs>
  <clipPath id="p26f64b301b">
   <rect x="62.57" y="25.44" width="387.43" height="278.2"/>
  </clipPath>
 </defs>
</svg>
