<?xml version="1.0" encoding="utf-8" standalone="no"?>
<!DOCTYPE svg PUBLIC "-//W3C//DTD SVG 1.1//EN"
  "http://www.w3.org/Graphics/SVG/1.1/DTD/svg11.dtd">
<svg xmlns:xlink="http://www.w3.org/1999/xlink" width="460.8pt" height="345.6pt" viewBox="0 0 460.8 345.6" xmlns="http://www.w3.org/2000/svg" version="1.1">
 <metadata>
  <rdf:RDF xmlns:dc="http://purl.org/dc/elements/1.1/" xmlns:cc="http://creativecommons.org/ns#" xmlns:rdf="http://www.w3.org/1999/02/22-rdf-syntax-ns#">
   <cc:Work>
    <dc:type rdf:resource="http://purl.org/dc/dcmitype/StillImage"/>
    <dc:date>2024-04-29T11:04:52.159245</dc:date>
    <dc:format>image/svg+xml</dc:format>
    <dc:creator>
     <cc:Agent>
      <dc:title>Matplotlib v3.8.0, https://matplotlib.org/</dc:title>
     </cc:Agent>
    </dc:creator>
   </cc:Work>
  </rdf:RDF>
 </metadata>
 <defs>
  <style type="text/css">*{stroke-linejoin: round; stroke-linecap: butt}</style>
 </defs>
 <g id="figure_1">
  <g id="patch_1">
   <path d="M 0 345.6 
L 460.8 345.6 
L 460.8 0 
L 0 0 
z
" style="fill: #ffffff"/>
  </g>
  <g id="axes_1">
   <g id="patch_2">
    <path d="M 47.81 303.64 
L 450 303.64 
L 450 25.44 
L 47.81 25.44 
z
" style="fill: #ffffff"/>
   </g>
   <g id="PolyCollection_1">
    <defs>
     <path id="m3901b5596e" d="M 66.091364 -251.874545 
L 66.091364 -251.874545 
L 69.822254 -252.398337 
L 73.553145 -253.715115 
L 77.284035 -261.516497 
L 81.014926 -261.733538 
L 84.745816 -261.167427 
L 88.476707 -261.022342 
L 92.207597 -260.484368 
L 95.938488 -260.323874 
L 99.669378 -260.484586 
L 103.400269 -260.504128 
L 107.13116 -260.866643 
L 110.86205 -261.222414 
L 114.592941 -261.510819 
L 118.323831 -261.888211 
L 122.054722 -262.192298 
L 125.785612 -262.440976 
L 129.516503 -262.777285 
L 133.247393 -262.96656 
L 136.978284 -263.125038 
L 140.709174 -263.19794 
L 144.440065 -263.167066 
L 148.170955 -263.128226 
L 151.901846 -263.035431 
L 155.632737 -262.979239 
L 159.363627 -262.90525 
L 163.094518 -262.819301 
L 166.825408 -262.736257 
L 170.556299 -262.641965 
L 174.287189 -262.560299 
L 178.01808 -262.490497 
L 181.74897 -262.401211 
L 185.479861 -262.318697 
L 189.210751 -262.230237 
L 192.941642 -262.138519 
L 196.672532 -262.048203 
L 200.403423 -261.960138 
L 204.134314 -261.874196 
L 207.865204 -261.790641 
L 211.596095 -261.709562 
L 215.326985 -261.630949 
L 219.057876 -261.553945 
L 222.788766 -261.478836 
L 226.519657 -261.405406 
L 230.250547 -261.333583 
L 233.981438 -261.266398 
L 237.712328 -261.199714 
L 241.443219 -261.136365 
L 245.174109 -261.077404 
L 248.905 -261.020544 
L 252.635891 -260.965513 
L 256.366781 -260.907877 
L 260.097672 -260.851937 
L 263.828562 -260.795583 
L 267.559453 -260.737324 
L 271.290343 -260.678426 
L 275.021234 -260.619128 
L 278.752124 -260.559126 
L 282.483015 -260.50062 
L 286.213905 -260.440742 
L 289.944796 -260.380584 
L 293.675686 -260.322093 
L 297.406577 -260.262749 
L 301.137468 -260.203871 
L 304.868358 -260.145711 
L 308.599249 -260.088865 
L 312.330139 -260.032783 
L 316.06103 -259.978058 
L 319.79192 -259.92448 
L 323.522811 -259.87125 
L 327.253701 -259.819026 
L 330.984592 -259.768587 
L 334.715482 -259.718617 
L 338.446373 -259.670139 
L 342.177263 -259.621864 
L 345.908154 -259.573909 
L 349.639045 -259.527029 
L 353.369935 -259.480352 
L 357.100826 -259.43405 
L 360.831716 -259.388473 
L 364.562607 -259.34342 
L 368.293497 -259.29887 
L 372.024388 -259.255104 
L 375.755278 -259.21214 
L 379.486169 -259.170034 
L 383.217059 -259.12855 
L 386.94795 -259.087956 
L 390.67884 -259.047963 
L 394.409731 -259.00815 
L 398.140622 -258.96931 
L 401.871512 -258.930885 
L 405.602403 -258.89364 
L 409.333293 -258.856932 
L 413.064184 -258.820422 
L 416.795074 -258.784582 
L 420.525965 -258.749088 
L 424.256855 -258.713798 
L 427.987746 -258.678987 
L 431.718636 -258.644171 
L 431.718636 -251.658645 
L 431.718636 -251.658645 
L 427.987746 -251.680276 
L 424.256855 -251.698712 
L 420.525965 -251.717624 
L 416.795074 -251.735093 
L 413.064184 -251.752023 
L 409.333293 -251.770366 
L 405.602403 -251.787139 
L 401.871512 -251.804316 
L 398.140622 -251.826222 
L 394.409731 -251.84761 
L 390.67884 -251.873055 
L 386.94795 -251.895677 
L 383.217059 -251.918925 
L 379.486169 -251.945313 
L 375.755278 -251.972482 
L 372.024388 -252.003142 
L 368.293497 -252.037573 
L 364.562607 -252.079078 
L 360.831716 -252.117454 
L 357.100826 -252.154057 
L 353.369935 -252.19348 
L 349.639045 -252.227825 
L 345.908154 -252.256896 
L 342.177263 -252.290076 
L 338.446373 -252.319299 
L 334.715482 -252.344376 
L 330.984592 -252.375231 
L 327.253701 -252.403449 
L 323.522811 -252.441741 
L 319.79192 -252.483304 
L 316.06103 -252.518249 
L 312.330139 -252.556332 
L 308.599249 -252.602162 
L 304.868358 -252.645153 
L 301.137468 -252.701522 
L 297.406577 -252.76791 
L 293.675686 -252.842728 
L 289.944796 -252.935919 
L 286.213905 -253.021398 
L 282.483015 -253.117574 
L 278.752124 -253.229225 
L 275.021234 -253.336171 
L 271.290343 -253.452788 
L 267.559453 -253.576087 
L 263.828562 -253.706651 
L 260.097672 -253.849652 
L 256.366781 -253.996996 
L 252.635891 -254.139026 
L 248.905 -254.295236 
L 245.174109 -254.445527 
L 241.443219 -254.588843 
L 237.712328 -254.713041 
L 233.981438 -254.821881 
L 230.250547 -254.936044 
L 226.519657 -255.010829 
L 222.788766 -255.087617 
L 219.057876 -255.166441 
L 215.326985 -255.235442 
L 211.596095 -255.293537 
L 207.865204 -255.35776 
L 204.134314 -255.428859 
L 200.403423 -255.514972 
L 196.672532 -255.610719 
L 192.941642 -255.676961 
L 189.210751 -255.726924 
L 185.479861 -255.744422 
L 181.74897 -255.735605 
L 178.01808 -255.733116 
L 174.287189 -255.68893 
L 170.556299 -255.653777 
L 166.825408 -255.630499 
L 163.094518 -255.580356 
L 159.363627 -255.524691 
L 155.632737 -255.446518 
L 151.901846 -255.344291 
L 148.170955 -255.2645 
L 144.440065 -255.131553 
L 140.709174 -254.983329 
L 136.978284 -254.79029 
L 133.247393 -254.576235 
L 129.516503 -254.348626 
L 125.785612 -254.116347 
L 122.054722 -253.863801 
L 118.323831 -253.597355 
L 114.592941 -253.319699 
L 110.86205 -253.015326 
L 107.13116 -252.688788 
L 103.400269 -252.333367 
L 99.669378 -251.974212 
L 95.938488 -251.529013 
L 92.207597 -251.116948 
L 88.476707 -250.978124 
L 84.745816 -250.281341 
L 81.014926 -249.569104 
L 77.284035 -248.133806 
L 73.553145 -249.471956 
L 69.822254 -248.821663 
L 66.091364 -251.874545 
z
" style="stroke: #ff0000; stroke-opacity: 0.2"/>
    </defs>
    <g clip-path="url(#p82760a85cc)">
     <use xlink:href="#m3901b5596e" x="0" y="345.6" style="fill: #ff0000; fill-opacity: 0.2; stroke: #ff0000; stroke-opacity: 0.2"/>
    </g>
   </g>
   <g id="matplotlib.axis_1">
    <g id="xtick_1">
     <g id="line2d_1">
      <defs>
       <path id="m82c362ad5f" d="M 0 0 
L 0 3.5 
" style="stroke: #000000; stroke-width: 0.8"/>
      </defs>
      <g>
       <use xlink:href="#m82c362ad5f" x="66.091364" y="303.64" style="stroke: #000000; stroke-width: 0.8"/>
      </g>
     </g>
     <g id="text_1">
      <!-- 0 -->
      <g transform="translate(62.910114 318.238437) scale(0.1 -0.1)">
       <defs>
        <path id="DejaVuSans-30" d="M 2034 4250 
Q 1547 4250 1301 3770 
Q 1056 3291 1056 2328 
Q 1056 1369 1301 889 
Q 1547 409 2034 409 
Q 2525 409 2770 889 
Q 3016 1369 3016 2328 
Q 3016 3291 2770 3770 
Q 2525 4250 2034 4250 
z
M 2034 4750 
Q 2819 4750 3233 4129 
Q 3647 3509 3647 2328 
Q 3647 1150 3233 529 
Q 2819 -91 2034 -91 
Q 1250 -91 836 529 
Q 422 1150 422 2328 
Q 422 3509 836 4129 
Q 1250 4750 2034 4750 
z
" transform="scale(0.015625)"/>
       </defs>
       <use xlink:href="#DejaVuSans-30"/>
      </g>
     </g>
    </g>
    <g id="xtick_2">
     <g id="line2d_2">
      <g>
       <use xlink:href="#m82c362ad5f" x="140.709174" y="303.64" style="stroke: #000000; stroke-width: 0.8"/>
      </g>
     </g>
     <g id="text_2">
      <!-- 20 -->
      <g transform="translate(134.346674 318.238437) scale(0.1 -0.1)">
       <defs>
        <path id="DejaVuSans-32" d="M 1228 531 
L 3431 531 
L 3431 0 
L 469 0 
L 469 531 
Q 828 903 1448 1529 
Q 2069 2156 2228 2338 
Q 2531 2678 2651 2914 
Q 2772 3150 2772 3378 
Q 2772 3750 2511 3984 
Q 2250 4219 1831 4219 
Q 1534 4219 1204 4116 
Q 875 4013 500 3803 
L 500 4441 
Q 881 4594 1212 4672 
Q 1544 4750 1819 4750 
Q 2544 4750 2975 4387 
Q 3406 4025 3406 3419 
Q 3406 3131 3298 2873 
Q 3191 2616 2906 2266 
Q 2828 2175 2409 1742 
Q 1991 1309 1228 531 
z
" transform="scale(0.015625)"/>
       </defs>
       <use xlink:href="#DejaVuSans-32"/>
       <use xlink:href="#DejaVuSans-30" x="63.623047"/>
      </g>
     </g>
    </g>
    <g id="xtick_3">
     <g id="line2d_3">
      <g>
       <use xlink:href="#m82c362ad5f" x="215.326985" y="303.64" style="stroke: #000000; stroke-width: 0.8"/>
      </g>
     </g>
     <g id="text_3">
      <!-- 40 -->
      <g transform="translate(208.964485 318.238437) scale(0.1 -0.1)">
       <defs>
        <path id="DejaVuSans-34" d="M 2419 4116 
L 825 1625 
L 2419 1625 
L 2419 4116 
z
M 2253 4666 
L 3047 4666 
L 3047 1625 
L 3713 1625 
L 3713 1100 
L 3047 1100 
L 3047 0 
L 2419 0 
L 2419 1100 
L 313 1100 
L 313 1709 
L 2253 4666 
z
" transform="scale(0.015625)"/>
       </defs>
       <use xlink:href="#DejaVuSans-34"/>
       <use xlink:href="#DejaVuSans-30" x="63.623047"/>
      </g>
     </g>
    </g>
    <g id="xtick_4">
     <g id="line2d_4">
      <g>
       <use xlink:href="#m82c362ad5f" x="289.944796" y="303.64" style="stroke: #000000; stroke-width: 0.8"/>
      </g>
     </g>
     <g id="text_4">
      <!-- 60 -->
      <g transform="translate(283.582296 318.238437) scale(0.1 -0.1)">
       <defs>
        <path id="DejaVuSans-36" d="M 2113 2584 
Q 1688 2584 1439 2293 
Q 1191 2003 1191 1497 
Q 1191 994 1439 701 
Q 1688 409 2113 409 
Q 2538 409 2786 701 
Q 3034 994 3034 1497 
Q 3034 2003 2786 2293 
Q 2538 2584 2113 2584 
z
M 3366 4563 
L 3366 3988 
Q 3128 4100 2886 4159 
Q 2644 4219 2406 4219 
Q 1781 4219 1451 3797 
Q 1122 3375 1075 2522 
Q 1259 2794 1537 2939 
Q 1816 3084 2150 3084 
Q 2853 3084 3261 2657 
Q 3669 2231 3669 1497 
Q 3669 778 3244 343 
Q 2819 -91 2113 -91 
Q 1303 -91 875 529 
Q 447 1150 447 2328 
Q 447 3434 972 4092 
Q 1497 4750 2381 4750 
Q 2619 4750 2861 4703 
Q 3103 4656 3366 4563 
z
" transform="scale(0.015625)"/>
       </defs>
       <use xlink:href="#DejaVuSans-36"/>
       <use xlink:href="#DejaVuSans-30" x="63.623047"/>
      </g>
     </g>
    </g>
    <g id="xtick_5">
     <g id="line2d_5">
      <g>
       <use xlink:href="#m82c362ad5f" x="364.562607" y="303.64" style="stroke: #000000; stroke-width: 0.8"/>
      </g>
     </g>
     <g id="text_5">
      <!-- 80 -->
      <g transform="translate(358.200107 318.238437) scale(0.1 -0.1)">
       <defs>
        <path id="DejaVuSans-38" d="M 2034 2216 
Q 1584 2216 1326 1975 
Q 1069 1734 1069 1313 
Q 1069 891 1326 650 
Q 1584 409 2034 409 
Q 2484 409 2743 651 
Q 3003 894 3003 1313 
Q 3003 1734 2745 1975 
Q 2488 2216 2034 2216 
z
M 1403 2484 
Q 997 2584 770 2862 
Q 544 3141 544 3541 
Q 544 4100 942 4425 
Q 1341 4750 2034 4750 
Q 2731 4750 3128 4425 
Q 3525 4100 3525 3541 
Q 3525 3141 3298 2862 
Q 3072 2584 2669 2484 
Q 3125 2378 3379 2068 
Q 3634 1759 3634 1313 
Q 3634 634 3220 271 
Q 2806 -91 2034 -91 
Q 1263 -91 848 271 
Q 434 634 434 1313 
Q 434 1759 690 2068 
Q 947 2378 1403 2484 
z
M 1172 3481 
Q 1172 3119 1398 2916 
Q 1625 2713 2034 2713 
Q 2441 2713 2670 2916 
Q 2900 3119 2900 3481 
Q 2900 3844 2670 4047 
Q 2441 4250 2034 4250 
Q 1625 4250 1398 4047 
Q 1172 3844 1172 3481 
z
" transform="scale(0.015625)"/>
       </defs>
       <use xlink:href="#DejaVuSans-38"/>
       <use xlink:href="#DejaVuSans-30" x="63.623047"/>
      </g>
     </g>
    </g>
    <g id="xtick_6">
     <g id="line2d_6">
      <g>
       <use xlink:href="#m82c362ad5f" x="439.180417" y="303.64" style="stroke: #000000; stroke-width: 0.8"/>
      </g>
     </g>
     <g id="text_6">
      <!-- 100 -->
      <g transform="translate(429.636667 318.238437) scale(0.1 -0.1)">
       <defs>
        <path id="DejaVuSans-31" d="M 794 531 
L 1825 531 
L 1825 4091 
L 703 3866 
L 703 4441 
L 1819 4666 
L 2450 4666 
L 2450 531 
L 3481 531 
L 3481 0 
L 794 0 
L 794 531 
z
" transform="scale(0.015625)"/>
       </defs>
       <use xlink:href="#DejaVuSans-31"/>
       <use xlink:href="#DejaVuSans-30" x="63.623047"/>
       <use xlink:href="#DejaVuSans-30" x="127.246094"/>
      </g>
     </g>
    </g>
    <g id="text_7">
     <!-- Iteration -->
     <g transform="translate(227.696406 331.916562) scale(0.1 -0.1)">
      <defs>
       <path id="DejaVuSans-49" d="M 628 4666 
L 1259 4666 
L 1259 0 
L 628 0 
L 628 4666 
z
" transform="scale(0.015625)"/>
       <path id="DejaVuSans-74" d="M 1172 4494 
L 1172 3500 
L 2356 3500 
L 2356 3053 
L 1172 3053 
L 1172 1153 
Q 1172 725 1289 603 
Q 1406 481 1766 481 
L 2356 481 
L 2356 0 
L 1766 0 
Q 1100 0 847 248 
Q 594 497 594 1153 
L 594 3053 
L 172 3053 
L 172 3500 
L 594 3500 
L 594 4494 
L 1172 4494 
z
" transform="scale(0.015625)"/>
       <path id="DejaVuSans-65" d="M 3597 1894 
L 3597 1613 
L 953 1613 
Q 991 1019 1311 708 
Q 1631 397 2203 397 
Q 2534 397 2845 478 
Q 3156 559 3463 722 
L 3463 178 
Q 3153 47 2828 -22 
Q 2503 -91 2169 -91 
Q 1331 -91 842 396 
Q 353 884 353 1716 
Q 353 2575 817 3079 
Q 1281 3584 2069 3584 
Q 2775 3584 3186 3129 
Q 3597 2675 3597 1894 
z
M 3022 2063 
Q 3016 2534 2758 2815 
Q 2500 3097 2075 3097 
Q 1594 3097 1305 2825 
Q 1016 2553 972 2059 
L 3022 2063 
z
" transform="scale(0.015625)"/>
       <path id="DejaVuSans-72" d="M 2631 2963 
Q 2534 3019 2420 3045 
Q 2306 3072 2169 3072 
Q 1681 3072 1420 2755 
Q 1159 2438 1159 1844 
L 1159 0 
L 581 0 
L 581 3500 
L 1159 3500 
L 1159 2956 
Q 1341 3275 1631 3429 
Q 1922 3584 2338 3584 
Q 2397 3584 2469 3576 
Q 2541 3569 2628 3553 
L 2631 2963 
z
" transform="scale(0.015625)"/>
       <path id="DejaVuSans-61" d="M 2194 1759 
Q 1497 1759 1228 1600 
Q 959 1441 959 1056 
Q 959 750 1161 570 
Q 1363 391 1709 391 
Q 2188 391 2477 730 
Q 2766 1069 2766 1631 
L 2766 1759 
L 2194 1759 
z
M 3341 1997 
L 3341 0 
L 2766 0 
L 2766 531 
Q 2569 213 2275 61 
Q 1981 -91 1556 -91 
Q 1019 -91 701 211 
Q 384 513 384 1019 
Q 384 1609 779 1909 
Q 1175 2209 1959 2209 
L 2766 2209 
L 2766 2266 
Q 2766 2663 2505 2880 
Q 2244 3097 1772 3097 
Q 1472 3097 1187 3025 
Q 903 2953 641 2809 
L 641 3341 
Q 956 3463 1253 3523 
Q 1550 3584 1831 3584 
Q 2591 3584 2966 3190 
Q 3341 2797 3341 1997 
z
" transform="scale(0.015625)"/>
       <path id="DejaVuSans-69" d="M 603 3500 
L 1178 3500 
L 1178 0 
L 603 0 
L 603 3500 
z
M 603 4863 
L 1178 4863 
L 1178 4134 
L 603 4134 
L 603 4863 
z
" transform="scale(0.015625)"/>
       <path id="DejaVuSans-6f" d="M 1959 3097 
Q 1497 3097 1228 2736 
Q 959 2375 959 1747 
Q 959 1119 1226 758 
Q 1494 397 1959 397 
Q 2419 397 2687 759 
Q 2956 1122 2956 1747 
Q 2956 2369 2687 2733 
Q 2419 3097 1959 3097 
z
M 1959 3584 
Q 2709 3584 3137 3096 
Q 3566 2609 3566 1747 
Q 3566 888 3137 398 
Q 2709 -91 1959 -91 
Q 1206 -91 779 398 
Q 353 888 353 1747 
Q 353 2609 779 3096 
Q 1206 3584 1959 3584 
z
" transform="scale(0.015625)"/>
       <path id="DejaVuSans-6e" d="M 3513 2113 
L 3513 0 
L 2938 0 
L 2938 2094 
Q 2938 2591 2744 2837 
Q 2550 3084 2163 3084 
Q 1697 3084 1428 2787 
Q 1159 2491 1159 1978 
L 1159 0 
L 581 0 
L 581 3500 
L 1159 3500 
L 1159 2956 
Q 1366 3272 1645 3428 
Q 1925 3584 2291 3584 
Q 2894 3584 3203 3211 
Q 3513 2838 3513 2113 
z
" transform="scale(0.015625)"/>
      </defs>
      <use xlink:href="#DejaVuSans-49"/>
      <use xlink:href="#DejaVuSans-74" x="29.492188"/>
      <use xlink:href="#DejaVuSans-65" x="68.701172"/>
      <use xlink:href="#DejaVuSans-72" x="130.224609"/>
      <use xlink:href="#DejaVuSans-61" x="171.337891"/>
      <use xlink:href="#DejaVuSans-74" x="232.617188"/>
      <use xlink:href="#DejaVuSans-69" x="271.826172"/>
      <use xlink:href="#DejaVuSans-6f" x="299.609375"/>
      <use xlink:href="#DejaVuSans-6e" x="360.791016"/>
     </g>
    </g>
   </g>
   <g id="matplotlib.axis_2">
    <g id="ytick_1">
     <g id="line2d_7">
      <defs>
       <path id="m259abb1fd3" d="M 0 0 
L -3.5 0 
" style="stroke: #000000; stroke-width: 0.8"/>
      </defs>
      <g>
       <use xlink:href="#m259abb1fd3" x="47.81" y="290.994545" style="stroke: #000000; stroke-width: 0.8"/>
      </g>
     </g>
     <g id="text_8">
      <!-- 0.0 -->
      <g transform="translate(24.906875 294.793764) scale(0.1 -0.1)">
       <defs>
        <path id="DejaVuSans-2e" d="M 684 794 
L 1344 794 
L 1344 0 
L 684 0 
L 684 794 
z
" transform="scale(0.015625)"/>
       </defs>
       <use xlink:href="#DejaVuSans-30"/>
       <use xlink:href="#DejaVuSans-2e" x="63.623047"/>
       <use xlink:href="#DejaVuSans-30" x="95.410156"/>
      </g>
     </g>
    </g>
    <g id="ytick_2">
     <g id="line2d_8">
      <g>
       <use xlink:href="#m259abb1fd3" x="47.81" y="240.412727" style="stroke: #000000; stroke-width: 0.8"/>
      </g>
     </g>
     <g id="text_9">
      <!-- 0.2 -->
      <g transform="translate(24.906875 244.211946) scale(0.1 -0.1)">
       <use xlink:href="#DejaVuSans-30"/>
       <use xlink:href="#DejaVuSans-2e" x="63.623047"/>
       <use xlink:href="#DejaVuSans-32" x="95.410156"/>
      </g>
     </g>
    </g>
    <g id="ytick_3">
     <g id="line2d_9">
      <g>
       <use xlink:href="#m259abb1fd3" x="47.81" y="189.830909" style="stroke: #000000; stroke-width: 0.8"/>
      </g>
     </g>
     <g id="text_10">
      <!-- 0.4 -->
      <g transform="translate(24.906875 193.630128) scale(0.1 -0.1)">
       <use xlink:href="#DejaVuSans-30"/>
       <use xlink:href="#DejaVuSans-2e" x="63.623047"/>
       <use xlink:href="#DejaVuSans-34" x="95.410156"/>
      </g>
     </g>
    </g>
    <g id="ytick_4">
     <g id="line2d_10">
      <g>
       <use xlink:href="#m259abb1fd3" x="47.81" y="139.249091" style="stroke: #000000; stroke-width: 0.8"/>
      </g>
     </g>
     <g id="text_11">
      <!-- 0.6 -->
      <g transform="translate(24.906875 143.04831) scale(0.1 -0.1)">
       <use xlink:href="#DejaVuSans-30"/>
       <use xlink:href="#DejaVuSans-2e" x="63.623047"/>
       <use xlink:href="#DejaVuSans-36" x="95.410156"/>
      </g>
     </g>
    </g>
    <g id="ytick_5">
     <g id="line2d_11">
      <g>
       <use xlink:href="#m259abb1fd3" x="47.81" y="88.667273" style="stroke: #000000; stroke-width: 0.8"/>
      </g>
     </g>
     <g id="text_12">
      <!-- 0.8 -->
      <g transform="translate(24.906875 92.466491) scale(0.1 -0.1)">
       <use xlink:href="#DejaVuSans-30"/>
       <use xlink:href="#DejaVuSans-2e" x="63.623047"/>
       <use xlink:href="#DejaVuSans-38" x="95.410156"/>
      </g>
     </g>
    </g>
    <g id="ytick_6">
     <g id="line2d_12">
      <g>
       <use xlink:href="#m259abb1fd3" x="47.81" y="38.085455" style="stroke: #000000; stroke-width: 0.8"/>
      </g>
     </g>
     <g id="text_13">
      <!-- 1.0 -->
      <g transform="translate(24.906875 41.884673) scale(0.1 -0.1)">
       <use xlink:href="#DejaVuSans-31"/>
       <use xlink:href="#DejaVuSans-2e" x="63.623047"/>
       <use xlink:href="#DejaVuSans-30" x="95.410156"/>
      </g>
     </g>
    </g>
    <g id="text_14">
     <!-- Similarity -->
     <g transform="translate(18.827187 188.179844) rotate(-90) scale(0.1 -0.1)">
      <defs>
       <path id="DejaVuSans-53" d="M 3425 4513 
L 3425 3897 
Q 3066 4069 2747 4153 
Q 2428 4238 2131 4238 
Q 1616 4238 1336 4038 
Q 1056 3838 1056 3469 
Q 1056 3159 1242 3001 
Q 1428 2844 1947 2747 
L 2328 2669 
Q 3034 2534 3370 2195 
Q 3706 1856 3706 1288 
Q 3706 609 3251 259 
Q 2797 -91 1919 -91 
Q 1588 -91 1214 -16 
Q 841 59 441 206 
L 441 856 
Q 825 641 1194 531 
Q 1563 422 1919 422 
Q 2459 422 2753 634 
Q 3047 847 3047 1241 
Q 3047 1584 2836 1778 
Q 2625 1972 2144 2069 
L 1759 2144 
Q 1053 2284 737 2584 
Q 422 2884 422 3419 
Q 422 4038 858 4394 
Q 1294 4750 2059 4750 
Q 2388 4750 2728 4690 
Q 3069 4631 3425 4513 
z
" transform="scale(0.015625)"/>
       <path id="DejaVuSans-6d" d="M 3328 2828 
Q 3544 3216 3844 3400 
Q 4144 3584 4550 3584 
Q 5097 3584 5394 3201 
Q 5691 2819 5691 2113 
L 5691 0 
L 5113 0 
L 5113 2094 
Q 5113 2597 4934 2840 
Q 4756 3084 4391 3084 
Q 3944 3084 3684 2787 
Q 3425 2491 3425 1978 
L 3425 0 
L 2847 0 
L 2847 2094 
Q 2847 2600 2669 2842 
Q 2491 3084 2119 3084 
Q 1678 3084 1418 2786 
Q 1159 2488 1159 1978 
L 1159 0 
L 581 0 
L 581 3500 
L 1159 3500 
L 1159 2956 
Q 1356 3278 1631 3431 
Q 1906 3584 2284 3584 
Q 2666 3584 2933 3390 
Q 3200 3197 3328 2828 
z
" transform="scale(0.015625)"/>
       <path id="DejaVuSans-6c" d="M 603 4863 
L 1178 4863 
L 1178 0 
L 603 0 
L 603 4863 
z
" transform="scale(0.015625)"/>
       <path id="DejaVuSans-79" d="M 2059 -325 
Q 1816 -950 1584 -1140 
Q 1353 -1331 966 -1331 
L 506 -1331 
L 506 -850 
L 844 -850 
Q 1081 -850 1212 -737 
Q 1344 -625 1503 -206 
L 1606 56 
L 191 3500 
L 800 3500 
L 1894 763 
L 2988 3500 
L 3597 3500 
L 2059 -325 
z
" transform="scale(0.015625)"/>
      </defs>
      <use xlink:href="#DejaVuSans-53"/>
      <use xlink:href="#DejaVuSans-69" x="63.476562"/>
      <use xlink:href="#DejaVuSans-6d" x="91.259766"/>
      <use xlink:href="#DejaVuSans-69" x="188.671875"/>
      <use xlink:href="#DejaVuSans-6c" x="216.455078"/>
      <use xlink:href="#DejaVuSans-61" x="244.238281"/>
      <use xlink:href="#DejaVuSans-72" x="305.517578"/>
      <use xlink:href="#DejaVuSans-69" x="346.630859"/>
      <use xlink:href="#DejaVuSans-74" x="374.414062"/>
      <use xlink:href="#DejaVuSans-79" x="413.623047"/>
     </g>
    </g>
   </g>
   <g id="line2d_13">
    <path d="M 66.091364 93.725455 
L 69.822254 96.254545 
L 73.553145 92.039394 
L 77.284035 81.08 
L 81.014926 86.644 
L 84.745816 89.510303 
L 88.476707 87.944675 
L 92.207597 91.196364 
L 95.938488 88.667273 
L 99.669378 86.644 
L 103.400269 87.287769 
L 107.13116 84.873636 
L 110.86205 84.387273 
L 114.592941 84.331688 
L 118.323831 83.271879 
L 122.054722 83.292955 
L 125.785612 83.311551 
L 129.516503 82.20404 
L 133.247393 83.076651 
L 136.978284 83.103273 
L 140.709174 83.849957 
L 144.440065 85.218512 
L 148.170955 85.368458 
L 151.901846 86.559697 
L 155.632737 85.834691 
L 159.363627 86.332727 
L 163.094518 86.793872 
L 166.825408 86.860779 
L 170.556299 87.446332 
L 174.287189 87.149818 
L 178.01808 86.872434 
L 181.74897 87.876932 
L 185.479861 87.747603 
L 189.210751 88.369733 
L 192.941642 89.100831 
L 196.672532 89.510303 
L 200.403423 90.171057 
L 204.134314 90.131483 
L 207.865204 89.964242 
L 211.596095 89.931818 
L 215.326985 89.900976 
L 219.057876 90.2329 
L 222.788766 90.549387 
L 226.519657 90.62157 
L 230.250547 90.690545 
L 233.981438 91.636206 
L 237.712328 91.680658 
L 241.443219 92.144773 
L 245.174109 92.693173 
L 248.905 93.017309 
L 252.635891 93.328734 
L 256.366781 93.239091 
L 260.097672 93.53458 
L 263.828562 93.631785 
L 267.559453 93.541521 
L 271.290343 93.544805 
L 275.021234 93.547974 
L 278.752124 93.463824 
L 282.483015 93.725455 
L 286.213905 93.472545 
L 289.944796 93.310849 
L 293.675686 93.643871 
L 297.406577 93.243723 
L 301.137468 93.093182 
L 304.868358 92.869455 
L 308.599249 92.499229 
L 312.330139 92.668521 
L 316.06103 92.460909 
L 319.79192 92.405929 
L 323.522811 92.713818 
L 327.253701 92.656825 
L 330.984592 92.320404 
L 334.715482 92.478232 
L 338.446373 92.290025 
L 342.177263 92.511491 
L 345.908154 92.727129 
L 349.639045 92.608713 
L 353.369935 92.882424 
L 357.100826 93.149206 
L 360.831716 93.093182 
L 364.562607 93.225881 
L 368.293497 93.417029 
L 372.024388 93.176977 
L 375.755278 93.063074 
L 379.486169 92.95185 
L 383.217059 92.960846 
L 386.94795 92.853354 
L 390.67884 92.863264 
L 394.409731 93.043453 
L 398.140622 92.882424 
L 401.871512 92.947273 
L 405.602403 92.73581 
L 409.333293 92.746452 
L 413.064184 92.864487 
L 416.795074 92.820306 
L 420.525965 92.882424 
L 424.256855 92.995408 
L 427.987746 93.002857 
L 431.718636 93.214527 
" clip-path="url(#p82760a85cc)" style="fill: none; stroke: #0000ff; stroke-linecap: square"/>
    <defs>
     <path id="me815262d7a" d="M -0.49999 0.49999 
L 0.50001 0.49999 
L 0.50001 -0.50001 
L -0.49999 -0.50001 
z
"/>
    </defs>
    <g clip-path="url(#p82760a85cc)">
     <use xlink:href="#me815262d7a" x="66.091364" y="93.725455" style="fill: #0000ff"/>
     <use xlink:href="#me815262d7a" x="69.822254" y="96.254545" style="fill: #0000ff"/>
     <use xlink:href="#me815262d7a" x="73.553145" y="92.039394" style="fill: #0000ff"/>
     <use xlink:href="#me815262d7a" x="77.284035" y="81.08" style="fill: #0000ff"/>
     <use xlink:href="#me815262d7a" x="81.014926" y="86.644" style="fill: #0000ff"/>
     <use xlink:href="#me815262d7a" x="84.745816" y="89.510303" style="fill: #0000ff"/>
     <use xlink:href="#me815262d7a" x="88.476707" y="87.944675" style="fill: #0000ff"/>
     <use xlink:href="#me815262d7a" x="92.207597" y="91.196364" style="fill: #0000ff"/>
     <use xlink:href="#me815262d7a" x="95.938488" y="88.667273" style="fill: #0000ff"/>
     <use xlink:href="#me815262d7a" x="99.669378" y="86.644" style="fill: #0000ff"/>
     <use xlink:href="#me815262d7a" x="103.400269" y="87.287769" style="fill: #0000ff"/>
     <use xlink:href="#me815262d7a" x="107.13116" y="84.873636" style="fill: #0000ff"/>
     <use xlink:href="#me815262d7a" x="110.86205" y="84.387273" style="fill: #0000ff"/>
     <use xlink:href="#me815262d7a" x="114.592941" y="84.331688" style="fill: #0000ff"/>
     <use xlink:href="#me815262d7a" x="118.323831" y="83.271879" style="fill: #0000ff"/>
     <use xlink:href="#me815262d7a" x="122.054722" y="83.292955" style="fill: #0000ff"/>
     <use xlink:href="#me815262d7a" x="125.785612" y="83.311551" style="fill: #0000ff"/>
     <use xlink:href="#me815262d7a" x="129.516503" y="82.20404" style="fill: #0000ff"/>
     <use xlink:href="#me815262d7a" x="133.247393" y="83.076651" style="fill: #0000ff"/>
     <use xlink:href="#me815262d7a" x="136.978284" y="83.103273" style="fill: #0000ff"/>
     <use xlink:href="#me815262d7a" x="140.709174" y="83.849957" style="fill: #0000ff"/>
     <use xlink:href="#me815262d7a" x="144.440065" y="85.218512" style="fill: #0000ff"/>
     <use xlink:href="#me815262d7a" x="148.170955" y="85.368458" style="fill: #0000ff"/>
     <use xlink:href="#me815262d7a" x="151.901846" y="86.559697" style="fill: #0000ff"/>
     <use xlink:href="#me815262d7a" x="155.632737" y="85.834691" style="fill: #0000ff"/>
     <use xlink:href="#me815262d7a" x="159.363627" y="86.332727" style="fill: #0000ff"/>
     <use xlink:href="#me815262d7a" x="163.094518" y="86.793872" style="fill: #0000ff"/>
     <use xlink:href="#me815262d7a" x="166.825408" y="86.860779" style="fill: #0000ff"/>
     <use xlink:href="#me815262d7a" x="170.556299" y="87.446332" style="fill: #0000ff"/>
     <use xlink:href="#me815262d7a" x="174.287189" y="87.149818" style="fill: #0000ff"/>
     <use xlink:href="#me815262d7a" x="178.01808" y="86.872434" style="fill: #0000ff"/>
     <use xlink:href="#me815262d7a" x="181.74897" y="87.876932" style="fill: #0000ff"/>
     <use xlink:href="#me815262d7a" x="185.479861" y="87.747603" style="fill: #0000ff"/>
     <use xlink:href="#me815262d7a" x="189.210751" y="88.369733" style="fill: #0000ff"/>
     <use xlink:href="#me815262d7a" x="192.941642" y="89.100831" style="fill: #0000ff"/>
     <use xlink:href="#me815262d7a" x="196.672532" y="89.510303" style="fill: #0000ff"/>
     <use xlink:href="#me815262d7a" x="200.403423" y="90.171057" style="fill: #0000ff"/>
     <use xlink:href="#me815262d7a" x="204.134314" y="90.131483" style="fill: #0000ff"/>
     <use xlink:href="#me815262d7a" x="207.865204" y="89.964242" style="fill: #0000ff"/>
     <use xlink:href="#me815262d7a" x="211.596095" y="89.931818" style="fill: #0000ff"/>
     <use xlink:href="#me815262d7a" x="215.326985" y="89.900976" style="fill: #0000ff"/>
     <use xlink:href="#me815262d7a" x="219.057876" y="90.2329" style="fill: #0000ff"/>
     <use xlink:href="#me815262d7a" x="222.788766" y="90.549387" style="fill: #0000ff"/>
     <use xlink:href="#me815262d7a" x="226.519657" y="90.62157" style="fill: #0000ff"/>
     <use xlink:href="#me815262d7a" x="230.250547" y="90.690545" style="fill: #0000ff"/>
     <use xlink:href="#me815262d7a" x="233.981438" y="91.636206" style="fill: #0000ff"/>
     <use xlink:href="#me815262d7a" x="237.712328" y="91.680658" style="fill: #0000ff"/>
     <use xlink:href="#me815262d7a" x="241.443219" y="92.144773" style="fill: #0000ff"/>
     <use xlink:href="#me815262d7a" x="245.174109" y="92.693173" style="fill: #0000ff"/>
     <use xlink:href="#me815262d7a" x="248.905" y="93.017309" style="fill: #0000ff"/>
     <use xlink:href="#me815262d7a" x="252.635891" y="93.328734" style="fill: #0000ff"/>
     <use xlink:href="#me815262d7a" x="256.366781" y="93.239091" style="fill: #0000ff"/>
     <use xlink:href="#me815262d7a" x="260.097672" y="93.53458" style="fill: #0000ff"/>
     <use xlink:href="#me815262d7a" x="263.828562" y="93.631785" style="fill: #0000ff"/>
     <use xlink:href="#me815262d7a" x="267.559453" y="93.541521" style="fill: #0000ff"/>
     <use xlink:href="#me815262d7a" x="271.290343" y="93.544805" style="fill: #0000ff"/>
     <use xlink:href="#me815262d7a" x="275.021234" y="93.547974" style="fill: #0000ff"/>
     <use xlink:href="#me815262d7a" x="278.752124" y="93.463824" style="fill: #0000ff"/>
     <use xlink:href="#me815262d7a" x="282.483015" y="93.725455" style="fill: #0000ff"/>
     <use xlink:href="#me815262d7a" x="286.213905" y="93.472545" style="fill: #0000ff"/>
     <use xlink:href="#me815262d7a" x="289.944796" y="93.310849" style="fill: #0000ff"/>
     <use xlink:href="#me815262d7a" x="293.675686" y="93.643871" style="fill: #0000ff"/>
     <use xlink:href="#me815262d7a" x="297.406577" y="93.243723" style="fill: #0000ff"/>
     <use xlink:href="#me815262d7a" x="301.137468" y="93.093182" style="fill: #0000ff"/>
     <use xlink:href="#me815262d7a" x="304.868358" y="92.869455" style="fill: #0000ff"/>
     <use xlink:href="#me815262d7a" x="308.599249" y="92.499229" style="fill: #0000ff"/>
     <use xlink:href="#me815262d7a" x="312.330139" y="92.668521" style="fill: #0000ff"/>
     <use xlink:href="#me815262d7a" x="316.06103" y="92.460909" style="fill: #0000ff"/>
     <use xlink:href="#me815262d7a" x="319.79192" y="92.405929" style="fill: #0000ff"/>
     <use xlink:href="#me815262d7a" x="323.522811" y="92.713818" style="fill: #0000ff"/>
     <use xlink:href="#me815262d7a" x="327.253701" y="92.656825" style="fill: #0000ff"/>
     <use xlink:href="#me815262d7a" x="330.984592" y="92.320404" style="fill: #0000ff"/>
     <use xlink:href="#me815262d7a" x="334.715482" y="92.478232" style="fill: #0000ff"/>
     <use xlink:href="#me815262d7a" x="338.446373" y="92.290025" style="fill: #0000ff"/>
     <use xlink:href="#me815262d7a" x="342.177263" y="92.511491" style="fill: #0000ff"/>
     <use xlink:href="#me815262d7a" x="345.908154" y="92.727129" style="fill: #0000ff"/>
     <use xlink:href="#me815262d7a" x="349.639045" y="92.608713" style="fill: #0000ff"/>
     <use xlink:href="#me815262d7a" x="353.369935" y="92.882424" style="fill: #0000ff"/>
     <use xlink:href="#me815262d7a" x="357.100826" y="93.149206" style="fill: #0000ff"/>
     <use xlink:href="#me815262d7a" x="360.831716" y="93.093182" style="fill: #0000ff"/>
     <use xlink:href="#me815262d7a" x="364.562607" y="93.225881" style="fill: #0000ff"/>
     <use xlink:href="#me815262d7a" x="368.293497" y="93.417029" style="fill: #0000ff"/>
     <use xlink:href="#me815262d7a" x="372.024388" y="93.176977" style="fill: #0000ff"/>
     <use xlink:href="#me815262d7a" x="375.755278" y="93.063074" style="fill: #0000ff"/>
     <use xlink:href="#me815262d7a" x="379.486169" y="92.95185" style="fill: #0000ff"/>
     <use xlink:href="#me815262d7a" x="383.217059" y="92.960846" style="fill: #0000ff"/>
     <use xlink:href="#me815262d7a" x="386.94795" y="92.853354" style="fill: #0000ff"/>
     <use xlink:href="#me815262d7a" x="390.67884" y="92.863264" style="fill: #0000ff"/>
     <use xlink:href="#me815262d7a" x="394.409731" y="93.043453" style="fill: #0000ff"/>
     <use xlink:href="#me815262d7a" x="398.140622" y="92.882424" style="fill: #0000ff"/>
     <use xlink:href="#me815262d7a" x="401.871512" y="92.947273" style="fill: #0000ff"/>
     <use xlink:href="#me815262d7a" x="405.602403" y="92.73581" style="fill: #0000ff"/>
     <use xlink:href="#me815262d7a" x="409.333293" y="92.746452" style="fill: #0000ff"/>
     <use xlink:href="#me815262d7a" x="413.064184" y="92.864487" style="fill: #0000ff"/>
     <use xlink:href="#me815262d7a" x="416.795074" y="92.820306" style="fill: #0000ff"/>
     <use xlink:href="#me815262d7a" x="420.525965" y="92.882424" style="fill: #0000ff"/>
     <use xlink:href="#me815262d7a" x="424.256855" y="92.995408" style="fill: #0000ff"/>
     <use xlink:href="#me815262d7a" x="427.987746" y="93.002857" style="fill: #0000ff"/>
     <use xlink:href="#me815262d7a" x="431.718636" y="93.214527" style="fill: #0000ff"/>
    </g>
   </g>
   <g id="line2d_14">
    <path d="M 66.091364 93.725455 
L 69.822254 94.99 
L 73.553145 94.006465 
L 77.284035 90.774848 
L 81.014926 89.948679 
L 84.745816 89.875616 
L 88.476707 89.599767 
L 92.207597 89.799342 
L 95.938488 89.673557 
L 99.669378 89.370601 
L 103.400269 89.181252 
L 107.13116 88.822284 
L 110.86205 88.48113 
L 114.592941 88.184741 
L 118.323831 87.857217 
L 122.054722 87.57195 
L 125.785612 87.321339 
L 129.516503 87.037044 
L 133.247393 86.828603 
L 136.978284 86.642336 
L 140.709174 86.509366 
L 144.440065 86.450691 
L 148.170955 86.403637 
L 151.901846 86.410139 
L 155.632737 86.387122 
L 159.363627 86.385029 
L 163.094518 86.400172 
L 166.825408 86.416622 
L 170.556299 86.452129 
L 174.287189 86.475386 
L 178.01808 86.488194 
L 181.74897 86.531592 
L 185.479861 86.56844 
L 189.210751 86.62142 
L 192.941642 86.69226 
L 196.672532 86.770539 
L 200.403423 86.862445 
L 204.134314 86.948472 
L 207.865204 87.0258 
L 211.596095 87.09845 
L 215.326985 87.166804 
L 219.057876 87.239807 
L 222.788766 87.316774 
L 226.519657 87.391883 
L 230.250547 87.465186 
L 233.981438 87.555861 
L 237.712328 87.643622 
L 241.443219 87.737396 
L 245.174109 87.838535 
L 248.905 87.94211 
L 252.635891 88.04773 
L 256.366781 88.147564 
L 260.097672 88.249206 
L 263.828562 88.348883 
L 267.559453 88.443295 
L 271.290343 88.534393 
L 275.021234 88.622351 
L 278.752124 88.705824 
L 282.483015 88.790903 
L 286.213905 88.86893 
L 289.944796 88.941749 
L 293.675686 89.017589 
L 297.406577 89.084671 
L 301.137468 89.147304 
L 304.868358 89.204568 
L 308.599249 89.254487 
L 312.330139 89.305442 
L 316.06103 89.351846 
L 319.79192 89.396108 
L 323.522811 89.443504 
L 327.253701 89.488762 
L 330.984592 89.528091 
L 334.715482 89.568504 
L 338.446373 89.605281 
L 342.177263 89.64403 
L 345.908154 89.684597 
L 349.639045 89.722573 
L 353.369935 89.763084 
L 357.100826 89.805946 
L 360.831716 89.847037 
L 364.562607 89.888751 
L 368.293497 89.931779 
L 372.024388 89.970877 
L 375.755278 90.007689 
L 379.486169 90.042326 
L 383.217059 90.076263 
L 386.94795 90.108183 
L 390.67884 90.139491 
L 394.409731 90.17212 
L 398.140622 90.202234 
L 401.871512 90.232399 
L 405.602403 90.25961 
L 409.333293 90.286351 
L 413.064184 90.313778 
L 416.795074 90.340162 
L 420.525965 90.366644 
L 424.256855 90.393745 
L 427.987746 90.420368 
L 431.718636 90.448592 
" clip-path="url(#p82760a85cc)" style="fill: none; stroke: #ff0000; stroke-opacity: 0.5; stroke-width: 0.5; stroke-linecap: square"/>
    <defs>
     <path id="m2ab2aadc79" d="M -0.49999 0.49999 
L 0.50001 0.49999 
L 0.50001 -0.50001 
L -0.49999 -0.50001 
z
"/>
    </defs>
    <g clip-path="url(#p82760a85cc)">
     <use xlink:href="#m2ab2aadc79" x="66.091364" y="93.725455" style="fill: #ff0000; fill-opacity: 0.5"/>
     <use xlink:href="#m2ab2aadc79" x="69.822254" y="94.99" style="fill: #ff0000; fill-opacity: 0.5"/>
     <use xlink:href="#m2ab2aadc79" x="73.553145" y="94.006465" style="fill: #ff0000; fill-opacity: 0.5"/>
     <use xlink:href="#m2ab2aadc79" x="77.284035" y="90.774848" style="fill: #ff0000; fill-opacity: 0.5"/>
     <use xlink:href="#m2ab2aadc79" x="81.014926" y="89.948679" style="fill: #ff0000; fill-opacity: 0.5"/>
     <use xlink:href="#m2ab2aadc79" x="84.745816" y="89.875616" style="fill: #ff0000; fill-opacity: 0.5"/>
     <use xlink:href="#m2ab2aadc79" x="88.476707" y="89.599767" style="fill: #ff0000; fill-opacity: 0.5"/>
     <use xlink:href="#m2ab2aadc79" x="92.207597" y="89.799342" style="fill: #ff0000; fill-opacity: 0.5"/>
     <use xlink:href="#m2ab2aadc79" x="95.938488" y="89.673557" style="fill: #ff0000; fill-opacity: 0.5"/>
     <use xlink:href="#m2ab2aadc79" x="99.669378" y="89.370601" style="fill: #ff0000; fill-opacity: 0.5"/>
     <use xlink:href="#m2ab2aadc79" x="103.400269" y="89.181252" style="fill: #ff0000; fill-opacity: 0.5"/>
     <use xlink:href="#m2ab2aadc79" x="107.13116" y="88.822284" style="fill: #ff0000; fill-opacity: 0.5"/>
     <use xlink:href="#m2ab2aadc79" x="110.86205" y="88.48113" style="fill: #ff0000; fill-opacity: 0.5"/>
     <use xlink:href="#m2ab2aadc79" x="114.592941" y="88.184741" style="fill: #ff0000; fill-opacity: 0.5"/>
     <use xlink:href="#m2ab2aadc79" x="118.323831" y="87.857217" style="fill: #ff0000; fill-opacity: 0.5"/>
     <use xlink:href="#m2ab2aadc79" x="122.054722" y="87.57195" style="fill: #ff0000; fill-opacity: 0.5"/>
     <use xlink:href="#m2ab2aadc79" x="125.785612" y="87.321339" style="fill: #ff0000; fill-opacity: 0.5"/>
     <use xlink:href="#m2ab2aadc79" x="129.516503" y="87.037044" style="fill: #ff0000; fill-opacity: 0.5"/>
     <use xlink:href="#m2ab2aadc79" x="133.247393" y="86.828603" style="fill: #ff0000; fill-opacity: 0.5"/>
     <use xlink:href="#m2ab2aadc79" x="136.978284" y="86.642336" style="fill: #ff0000; fill-opacity: 0.5"/>
     <use xlink:href="#m2ab2aadc79" x="140.709174" y="86.509366" style="fill: #ff0000; fill-opacity: 0.5"/>
     <use xlink:href="#m2ab2aadc79" x="144.440065" y="86.450691" style="fill: #ff0000; fill-opacity: 0.5"/>
     <use xlink:href="#m2ab2aadc79" x="148.170955" y="86.403637" style="fill: #ff0000; fill-opacity: 0.5"/>
     <use xlink:href="#m2ab2aadc79" x="151.901846" y="86.410139" style="fill: #ff0000; fill-opacity: 0.5"/>
     <use xlink:href="#m2ab2aadc79" x="155.632737" y="86.387122" style="fill: #ff0000; fill-opacity: 0.5"/>
     <use xlink:href="#m2ab2aadc79" x="159.363627" y="86.385029" style="fill: #ff0000; fill-opacity: 0.5"/>
     <use xlink:href="#m2ab2aadc79" x="163.094518" y="86.400172" style="fill: #ff0000; fill-opacity: 0.5"/>
     <use xlink:href="#m2ab2aadc79" x="166.825408" y="86.416622" style="fill: #ff0000; fill-opacity: 0.5"/>
     <use xlink:href="#m2ab2aadc79" x="170.556299" y="86.452129" style="fill: #ff0000; fill-opacity: 0.5"/>
     <use xlink:href="#m2ab2aadc79" x="174.287189" y="86.475386" style="fill: #ff0000; fill-opacity: 0.5"/>
     <use xlink:href="#m2ab2aadc79" x="178.01808" y="86.488194" style="fill: #ff0000; fill-opacity: 0.5"/>
     <use xlink:href="#m2ab2aadc79" x="181.74897" y="86.531592" style="fill: #ff0000; fill-opacity: 0.5"/>
     <use xlink:href="#m2ab2aadc79" x="185.479861" y="86.56844" style="fill: #ff0000; fill-opacity: 0.5"/>
     <use xlink:href="#m2ab2aadc79" x="189.210751" y="86.62142" style="fill: #ff0000; fill-opacity: 0.5"/>
     <use xlink:href="#m2ab2aadc79" x="192.941642" y="86.69226" style="fill: #ff0000; fill-opacity: 0.5"/>
     <use xlink:href="#m2ab2aadc79" x="196.672532" y="86.770539" style="fill: #ff0000; fill-opacity: 0.5"/>
     <use xlink:href="#m2ab2aadc79" x="200.403423" y="86.862445" style="fill: #ff0000; fill-opacity: 0.5"/>
     <use xlink:href="#m2ab2aadc79" x="204.134314" y="86.948472" style="fill: #ff0000; fill-opacity: 0.5"/>
     <use xlink:href="#m2ab2aadc79" x="207.865204" y="87.0258" style="fill: #ff0000; fill-opacity: 0.5"/>
     <use xlink:href="#m2ab2aadc79" x="211.596095" y="87.09845" style="fill: #ff0000; fill-opacity: 0.5"/>
     <use xlink:href="#m2ab2aadc79" x="215.326985" y="87.166804" style="fill: #ff0000; fill-opacity: 0.5"/>
     <use xlink:href="#m2ab2aadc79" x="219.057876" y="87.239807" style="fill: #ff0000; fill-opacity: 0.5"/>
     <use xlink:href="#m2ab2aadc79" x="222.788766" y="87.316774" style="fill: #ff0000; fill-opacity: 0.5"/>
     <use xlink:href="#m2ab2aadc79" x="226.519657" y="87.391883" style="fill: #ff0000; fill-opacity: 0.5"/>
     <use xlink:href="#m2ab2aadc79" x="230.250547" y="87.465186" style="fill: #ff0000; fill-opacity: 0.5"/>
     <use xlink:href="#m2ab2aadc79" x="233.981438" y="87.555861" style="fill: #ff0000; fill-opacity: 0.5"/>
     <use xlink:href="#m2ab2aadc79" x="237.712328" y="87.643622" style="fill: #ff0000; fill-opacity: 0.5"/>
     <use xlink:href="#m2ab2aadc79" x="241.443219" y="87.737396" style="fill: #ff0000; fill-opacity: 0.5"/>
     <use xlink:href="#m2ab2aadc79" x="245.174109" y="87.838535" style="fill: #ff0000; fill-opacity: 0.5"/>
     <use xlink:href="#m2ab2aadc79" x="248.905" y="87.94211" style="fill: #ff0000; fill-opacity: 0.5"/>
     <use xlink:href="#m2ab2aadc79" x="252.635891" y="88.04773" style="fill: #ff0000; fill-opacity: 0.5"/>
     <use xlink:href="#m2ab2aadc79" x="256.366781" y="88.147564" style="fill: #ff0000; fill-opacity: 0.5"/>
     <use xlink:href="#m2ab2aadc79" x="260.097672" y="88.249206" style="fill: #ff0000; fill-opacity: 0.5"/>
     <use xlink:href="#m2ab2aadc79" x="263.828562" y="88.348883" style="fill: #ff0000; fill-opacity: 0.5"/>
     <use xlink:href="#m2ab2aadc79" x="267.559453" y="88.443295" style="fill: #ff0000; fill-opacity: 0.5"/>
     <use xlink:href="#m2ab2aadc79" x="271.290343" y="88.534393" style="fill: #ff0000; fill-opacity: 0.5"/>
     <use xlink:href="#m2ab2aadc79" x="275.021234" y="88.622351" style="fill: #ff0000; fill-opacity: 0.5"/>
     <use xlink:href="#m2ab2aadc79" x="278.752124" y="88.705824" style="fill: #ff0000; fill-opacity: 0.5"/>
     <use xlink:href="#m2ab2aadc79" x="282.483015" y="88.790903" style="fill: #ff0000; fill-opacity: 0.5"/>
     <use xlink:href="#m2ab2aadc79" x="286.213905" y="88.86893" style="fill: #ff0000; fill-opacity: 0.5"/>
     <use xlink:href="#m2ab2aadc79" x="289.944796" y="88.941749" style="fill: #ff0000; fill-opacity: 0.5"/>
     <use xlink:href="#m2ab2aadc79" x="293.675686" y="89.017589" style="fill: #ff0000; fill-opacity: 0.5"/>
     <use xlink:href="#m2ab2aadc79" x="297.406577" y="89.084671" style="fill: #ff0000; fill-opacity: 0.5"/>
     <use xlink:href="#m2ab2aadc79" x="301.137468" y="89.147304" style="fill: #ff0000; fill-opacity: 0.5"/>
     <use xlink:href="#m2ab2aadc79" x="304.868358" y="89.204568" style="fill: #ff0000; fill-opacity: 0.5"/>
     <use xlink:href="#m2ab2aadc79" x="308.599249" y="89.254487" style="fill: #ff0000; fill-opacity: 0.5"/>
     <use xlink:href="#m2ab2aadc79" x="312.330139" y="89.305442" style="fill: #ff0000; fill-opacity: 0.5"/>
     <use xlink:href="#m2ab2aadc79" x="316.06103" y="89.351846" style="fill: #ff0000; fill-opacity: 0.5"/>
     <use xlink:href="#m2ab2aadc79" x="319.79192" y="89.396108" style="fill: #ff0000; fill-opacity: 0.5"/>
     <use xlink:href="#m2ab2aadc79" x="323.522811" y="89.443504" style="fill: #ff0000; fill-opacity: 0.5"/>
     <use xlink:href="#m2ab2aadc79" x="327.253701" y="89.488762" style="fill: #ff0000; fill-opacity: 0.5"/>
     <use xlink:href="#m2ab2aadc79" x="330.984592" y="89.528091" style="fill: #ff0000; fill-opacity: 0.5"/>
     <use xlink:href="#m2ab2aadc79" x="334.715482" y="89.568504" style="fill: #ff0000; fill-opacity: 0.5"/>
     <use xlink:href="#m2ab2aadc79" x="338.446373" y="89.605281" style="fill: #ff0000; fill-opacity: 0.5"/>
     <use xlink:href="#m2ab2aadc79" x="342.177263" y="89.64403" style="fill: #ff0000; fill-opacity: 0.5"/>
     <use xlink:href="#m2ab2aadc79" x="345.908154" y="89.684597" style="fill: #ff0000; fill-opacity: 0.5"/>
     <use xlink:href="#m2ab2aadc79" x="349.639045" y="89.722573" style="fill: #ff0000; fill-opacity: 0.5"/>
     <use xlink:href="#m2ab2aadc79" x="353.369935" y="89.763084" style="fill: #ff0000; fill-opacity: 0.5"/>
     <use xlink:href="#m2ab2aadc79" x="357.100826" y="89.805946" style="fill: #ff0000; fill-opacity: 0.5"/>
     <use xlink:href="#m2ab2aadc79" x="360.831716" y="89.847037" style="fill: #ff0000; fill-opacity: 0.5"/>
     <use xlink:href="#m2ab2aadc79" x="364.562607" y="89.888751" style="fill: #ff0000; fill-opacity: 0.5"/>
     <use xlink:href="#m2ab2aadc79" x="368.293497" y="89.931779" style="fill: #ff0000; fill-opacity: 0.5"/>
     <use xlink:href="#m2ab2aadc79" x="372.024388" y="89.970877" style="fill: #ff0000; fill-opacity: 0.5"/>
     <use xlink:href="#m2ab2aadc79" x="375.755278" y="90.007689" style="fill: #ff0000; fill-opacity: 0.5"/>
     <use xlink:href="#m2ab2aadc79" x="379.486169" y="90.042326" style="fill: #ff0000; fill-opacity: 0.5"/>
     <use xlink:href="#m2ab2aadc79" x="383.217059" y="90.076263" style="fill: #ff0000; fill-opacity: 0.5"/>
     <use xlink:href="#m2ab2aadc79" x="386.94795" y="90.108183" style="fill: #ff0000; fill-opacity: 0.5"/>
     <use xlink:href="#m2ab2aadc79" x="390.67884" y="90.139491" style="fill: #ff0000; fill-opacity: 0.5"/>
     <use xlink:href="#m2ab2aadc79" x="394.409731" y="90.17212" style="fill: #ff0000; fill-opacity: 0.5"/>
     <use xlink:href="#m2ab2aadc79" x="398.140622" y="90.202234" style="fill: #ff0000; fill-opacity: 0.5"/>
     <use xlink:href="#m2ab2aadc79" x="401.871512" y="90.232399" style="fill: #ff0000; fill-opacity: 0.5"/>
     <use xlink:href="#m2ab2aadc79" x="405.602403" y="90.25961" style="fill: #ff0000; fill-opacity: 0.5"/>
     <use xlink:href="#m2ab2aadc79" x="409.333293" y="90.286351" style="fill: #ff0000; fill-opacity: 0.5"/>
     <use xlink:href="#m2ab2aadc79" x="413.064184" y="90.313778" style="fill: #ff0000; fill-opacity: 0.5"/>
     <use xlink:href="#m2ab2aadc79" x="416.795074" y="90.340162" style="fill: #ff0000; fill-opacity: 0.5"/>
     <use xlink:href="#m2ab2aadc79" x="420.525965" y="90.366644" style="fill: #ff0000; fill-opacity: 0.5"/>
     <use xlink:href="#m2ab2aadc79" x="424.256855" y="90.393745" style="fill: #ff0000; fill-opacity: 0.5"/>
     <use xlink:href="#m2ab2aadc79" x="427.987746" y="90.420368" style="fill: #ff0000; fill-opacity: 0.5"/>
     <use xlink:href="#m2ab2aadc79" x="431.718636" y="90.448592" style="fill: #ff0000; fill-opacity: 0.5"/>
    </g>
   </g>
   <g id="line2d_15">
    <path d="M 47.81 290.994545 
L 450 290.994545 
" clip-path="url(#p82760a85cc)" style="fill: none; stroke-dasharray: 0.555,0.24; stroke-dashoffset: 0; stroke: #ff0000; stroke-width: 0.15"/>
   </g>
   <g id="line2d_16">
    <path d="M 47.81 164.54 
L 450 164.54 
" clip-path="url(#p82760a85cc)" style="fill: none; stroke-dasharray: 0.555,0.24; stroke-dashoffset: 0; stroke: #ff0000; stroke-width: 0.15"/>
   </g>
   <g id="line2d_17">
    <path d="M 47.81 38.085455 
L 450 38.085455 
" clip-path="url(#p82760a85cc)" style="fill: none; stroke-dasharray: 0.555,0.24; stroke-dashoffset: 0; stroke: #ff0000; stroke-width: 0.15"/>
   </g>
   <g id="patch_3">
    <path d="M 47.81 303.64 
L 47.81 25.44 
" style="fill: none; stroke: #000000; stroke-width: 0.8; stroke-linejoin: miter; stroke-linecap: square"/>
   </g>
   <g id="patch_4">
    <path d="M 450 303.64 
L 450 25.44 
" style="fill: none; stroke: #000000; stroke-width: 0.8; stroke-linejoin: miter; stroke-linecap: square"/>
   </g>
   <g id="patch_5">
    <path d="M 47.81 303.64 
L 450 303.64 
" style="fill: none; stroke: #000000; stroke-width: 0.8; stroke-linejoin: miter; stroke-linecap: square"/>
   </g>
   <g id="patch_6">
    <path d="M 47.81 25.44 
L 450 25.44 
" style="fill: none; stroke: #000000; stroke-width: 0.8; stroke-linejoin: miter; stroke-linecap: square"/>
   </g>
   <g id="text_15">
    <!-- Similarity LLM-DEF_sw4 - 20240417175215 - 50 games -->
    <g transform="translate(82.79875 19.44) scale(0.12 -0.12)">
     <defs>
      <path id="DejaVuSans-20" transform="scale(0.015625)"/>
      <path id="DejaVuSans-4c" d="M 628 4666 
L 1259 4666 
L 1259 531 
L 3531 531 
L 3531 0 
L 628 0 
L 628 4666 
z
" transform="scale(0.015625)"/>
      <path id="DejaVuSans-4d" d="M 628 4666 
L 1569 4666 
L 2759 1491 
L 3956 4666 
L 4897 4666 
L 4897 0 
L 4281 0 
L 4281 4097 
L 3078 897 
L 2444 897 
L 1241 4097 
L 1241 0 
L 628 0 
L 628 4666 
z
" transform="scale(0.015625)"/>
      <path id="DejaVuSans-2d" d="M 313 2009 
L 1997 2009 
L 1997 1497 
L 313 1497 
L 313 2009 
z
" transform="scale(0.015625)"/>
      <path id="DejaVuSans-44" d="M 1259 4147 
L 1259 519 
L 2022 519 
Q 2988 519 3436 956 
Q 3884 1394 3884 2338 
Q 3884 3275 3436 3711 
Q 2988 4147 2022 4147 
L 1259 4147 
z
M 628 4666 
L 1925 4666 
Q 3281 4666 3915 4102 
Q 4550 3538 4550 2338 
Q 4550 1131 3912 565 
Q 3275 0 1925 0 
L 628 0 
L 628 4666 
z
" transform="scale(0.015625)"/>
      <path id="DejaVuSans-45" d="M 628 4666 
L 3578 4666 
L 3578 4134 
L 1259 4134 
L 1259 2753 
L 3481 2753 
L 3481 2222 
L 1259 2222 
L 1259 531 
L 3634 531 
L 3634 0 
L 628 0 
L 628 4666 
z
" transform="scale(0.015625)"/>
      <path id="DejaVuSans-46" d="M 628 4666 
L 3309 4666 
L 3309 4134 
L 1259 4134 
L 1259 2759 
L 3109 2759 
L 3109 2228 
L 1259 2228 
L 1259 0 
L 628 0 
L 628 4666 
z
" transform="scale(0.015625)"/>
      <path id="DejaVuSans-5f" d="M 3263 -1063 
L 3263 -1509 
L -63 -1509 
L -63 -1063 
L 3263 -1063 
z
" transform="scale(0.015625)"/>
      <path id="DejaVuSans-73" d="M 2834 3397 
L 2834 2853 
Q 2591 2978 2328 3040 
Q 2066 3103 1784 3103 
Q 1356 3103 1142 2972 
Q 928 2841 928 2578 
Q 928 2378 1081 2264 
Q 1234 2150 1697 2047 
L 1894 2003 
Q 2506 1872 2764 1633 
Q 3022 1394 3022 966 
Q 3022 478 2636 193 
Q 2250 -91 1575 -91 
Q 1294 -91 989 -36 
Q 684 19 347 128 
L 347 722 
Q 666 556 975 473 
Q 1284 391 1588 391 
Q 1994 391 2212 530 
Q 2431 669 2431 922 
Q 2431 1156 2273 1281 
Q 2116 1406 1581 1522 
L 1381 1569 
Q 847 1681 609 1914 
Q 372 2147 372 2553 
Q 372 3047 722 3315 
Q 1072 3584 1716 3584 
Q 2034 3584 2315 3537 
Q 2597 3491 2834 3397 
z
" transform="scale(0.015625)"/>
      <path id="DejaVuSans-77" d="M 269 3500 
L 844 3500 
L 1563 769 
L 2278 3500 
L 2956 3500 
L 3675 769 
L 4391 3500 
L 4966 3500 
L 4050 0 
L 3372 0 
L 2619 2869 
L 1863 0 
L 1184 0 
L 269 3500 
z
" transform="scale(0.015625)"/>
      <path id="DejaVuSans-37" d="M 525 4666 
L 3525 4666 
L 3525 4397 
L 1831 0 
L 1172 0 
L 2766 4134 
L 525 4134 
L 525 4666 
z
" transform="scale(0.015625)"/>
      <path id="DejaVuSans-35" d="M 691 4666 
L 3169 4666 
L 3169 4134 
L 1269 4134 
L 1269 2991 
Q 1406 3038 1543 3061 
Q 1681 3084 1819 3084 
Q 2600 3084 3056 2656 
Q 3513 2228 3513 1497 
Q 3513 744 3044 326 
Q 2575 -91 1722 -91 
Q 1428 -91 1123 -41 
Q 819 9 494 109 
L 494 744 
Q 775 591 1075 516 
Q 1375 441 1709 441 
Q 2250 441 2565 725 
Q 2881 1009 2881 1497 
Q 2881 1984 2565 2268 
Q 2250 2553 1709 2553 
Q 1456 2553 1204 2497 
Q 953 2441 691 2322 
L 691 4666 
z
" transform="scale(0.015625)"/>
      <path id="DejaVuSans-67" d="M 2906 1791 
Q 2906 2416 2648 2759 
Q 2391 3103 1925 3103 
Q 1463 3103 1205 2759 
Q 947 2416 947 1791 
Q 947 1169 1205 825 
Q 1463 481 1925 481 
Q 2391 481 2648 825 
Q 2906 1169 2906 1791 
z
M 3481 434 
Q 3481 -459 3084 -895 
Q 2688 -1331 1869 -1331 
Q 1566 -1331 1297 -1286 
Q 1028 -1241 775 -1147 
L 775 -588 
Q 1028 -725 1275 -790 
Q 1522 -856 1778 -856 
Q 2344 -856 2625 -561 
Q 2906 -266 2906 331 
L 2906 616 
Q 2728 306 2450 153 
Q 2172 0 1784 0 
Q 1141 0 747 490 
Q 353 981 353 1791 
Q 353 2603 747 3093 
Q 1141 3584 1784 3584 
Q 2172 3584 2450 3431 
Q 2728 3278 2906 2969 
L 2906 3500 
L 3481 3500 
L 3481 434 
z
" transform="scale(0.015625)"/>
     </defs>
     <use xlink:href="#DejaVuSans-53"/>
     <use xlink:href="#DejaVuSans-69" x="63.476562"/>
     <use xlink:href="#DejaVuSans-6d" x="91.259766"/>
     <use xlink:href="#DejaVuSans-69" x="188.671875"/>
     <use xlink:href="#DejaVuSans-6c" x="216.455078"/>
     <use xlink:href="#DejaVuSans-61" x="244.238281"/>
     <use xlink:href="#DejaVuSans-72" x="305.517578"/>
     <use xlink:href="#DejaVuSans-69" x="346.630859"/>
     <use xlink:href="#DejaVuSans-74" x="374.414062"/>
     <use xlink:href="#DejaVuSans-79" x="413.623047"/>
     <use xlink:href="#DejaVuSans-20" x="472.802734"/>
     <use xlink:href="#DejaVuSans-4c" x="504.589844"/>
     <use xlink:href="#DejaVuSans-4c" x="560.302734"/>
     <use xlink:href="#DejaVuSans-4d" x="616.015625"/>
     <use xlink:href="#DejaVuSans-2d" x="702.294922"/>
     <use xlink:href="#DejaVuSans-44" x="738.378906"/>
     <use xlink:href="#DejaVuSans-45" x="815.380859"/>
     <use xlink:href="#DejaVuSans-46" x="878.564453"/>
     <use xlink:href="#DejaVuSans-5f" x="936.083984"/>
     <use xlink:href="#DejaVuSans-73" x="986.083984"/>
     <use xlink:href="#DejaVuSans-77" x="1038.183594"/>
     <use xlink:href="#DejaVuSans-34" x="1119.970703"/>
     <use xlink:href="#DejaVuSans-20" x="1183.59375"/>
     <use xlink:href="#DejaVuSans-2d" x="1215.380859"/>
     <use xlink:href="#DejaVuSans-20" x="1251.464844"/>
     <use xlink:href="#DejaVuSans-32" x="1283.251953"/>
     <use xlink:href="#DejaVuSans-30" x="1346.875"/>
     <use xlink:href="#DejaVuSans-32" x="1410.498047"/>
     <use xlink:href="#DejaVuSans-34" x="1474.121094"/>
     <use xlink:href="#DejaVuSans-30" x="1537.744141"/>
     <use xlink:href="#DejaVuSans-34" x="1601.367188"/>
     <use xlink:href="#DejaVuSans-31" x="1664.990234"/>
     <use xlink:href="#DejaVuSans-37" x="1728.613281"/>
     <use xlink:href="#DejaVuSans-31" x="1792.236328"/>
     <use xlink:href="#DejaVuSans-37" x="1855.859375"/>
     <use xlink:href="#DejaVuSans-35" x="1919.482422"/>
     <use xlink:href="#DejaVuSans-32" x="1983.105469"/>
     <use xlink:href="#DejaVuSans-31" x="2046.728516"/>
     <use xlink:href="#DejaVuSans-35" x="2110.351562"/>
     <use xlink:href="#DejaVuSans-20" x="2173.974609"/>
     <use xlink:href="#DejaVuSans-2d" x="2205.761719"/>
     <use xlink:href="#DejaVuSans-20" x="2241.845703"/>
     <use xlink:href="#DejaVuSans-35" x="2273.632812"/>
     <use xlink:href="#DejaVuSans-30" x="2337.255859"/>
     <use xlink:href="#DejaVuSans-20" x="2400.878906"/>
     <use xlink:href="#DejaVuSans-67" x="2432.666016"/>
     <use xlink:href="#DejaVuSans-61" x="2496.142578"/>
     <use xlink:href="#DejaVuSans-6d" x="2557.421875"/>
     <use xlink:href="#DejaVuSans-65" x="2654.833984"/>
     <use xlink:href="#DejaVuSans-73" x="2716.357422"/>
    </g>
   </g>
   <g id="legend_1">
    <g id="patch_7">
     <path d="M 311.5625 63.3525 
L 443 63.3525 
Q 445 63.3525 445 61.3525 
L 445 32.44 
Q 445 30.44 443 30.44 
L 311.5625 30.44 
Q 309.5625 30.44 309.5625 32.44 
L 309.5625 61.3525 
Q 309.5625 63.3525 311.5625 63.3525 
z
" style="fill: #ffffff; opacity: 0.8; stroke: #cccccc; stroke-linejoin: miter"/>
    </g>
    <g id="line2d_18">
     <path d="M 313.5625 38.538437 
L 323.5625 38.538437 
L 333.5625 38.538437 
" style="fill: none; stroke: #0000ff; stroke-linecap: square"/>
     <g>
      <use xlink:href="#me815262d7a" x="323.5625" y="38.538437" style="fill: #0000ff"/>
     </g>
    </g>
    <g id="text_16">
     <!-- LLM-DEF_sw4 -->
     <g transform="translate(341.5625 42.038437) scale(0.1 -0.1)">
      <use xlink:href="#DejaVuSans-4c"/>
      <use xlink:href="#DejaVuSans-4c" x="55.712891"/>
      <use xlink:href="#DejaVuSans-4d" x="111.425781"/>
      <use xlink:href="#DejaVuSans-2d" x="197.705078"/>
      <use xlink:href="#DejaVuSans-44" x="233.789062"/>
      <use xlink:href="#DejaVuSans-45" x="310.791016"/>
      <use xlink:href="#DejaVuSans-46" x="373.974609"/>
      <use xlink:href="#DejaVuSans-5f" x="431.494141"/>
      <use xlink:href="#DejaVuSans-73" x="481.494141"/>
      <use xlink:href="#DejaVuSans-77" x="533.59375"/>
      <use xlink:href="#DejaVuSans-34" x="615.380859"/>
     </g>
    </g>
    <g id="line2d_19">
     <path d="M 313.5625 53.494687 
L 323.5625 53.494687 
L 333.5625 53.494687 
" style="fill: none; stroke: #ff0000; stroke-opacity: 0.5; stroke-width: 0.5; stroke-linecap: square"/>
     <g>
      <use xlink:href="#m2ab2aadc79" x="323.5625" y="53.494687" style="fill: #ff0000; fill-opacity: 0.5"/>
     </g>
    </g>
    <g id="text_17">
     <!-- LLM-DEF_sw4 mean -->
     <g transform="translate(341.5625 56.994687) scale(0.1 -0.1)">
      <use xlink:href="#DejaVuSans-4c"/>
      <use xlink:href="#DejaVuSans-4c" x="55.712891"/>
      <use xlink:href="#DejaVuSans-4d" x="111.425781"/>
      <use xlink:href="#DejaVuSans-2d" x="197.705078"/>
      <use xlink:href="#DejaVuSans-44" x="233.789062"/>
      <use xlink:href="#DejaVuSans-45" x="310.791016"/>
      <use xlink:href="#DejaVuSans-46" x="373.974609"/>
      <use xlink:href="#DejaVuSans-5f" x="431.494141"/>
      <use xlink:href="#DejaVuSans-73" x="481.494141"/>
      <use xlink:href="#DejaVuSans-77" x="533.59375"/>
      <use xlink:href="#DejaVuSans-34" x="615.380859"/>
      <use xlink:href="#DejaVuSans-20" x="679.003906"/>
      <use xlink:href="#DejaVuSans-6d" x="710.791016"/>
      <use xlink:href="#DejaVuSans-65" x="808.203125"/>
      <use xlink:href="#DejaVuSans-61" x="869.726562"/>
      <use xlink:href="#DejaVuSans-6e" x="931.005859"/>
     </g>
    </g>
   </g>
  </g>
 </g>
 <defs>
  <clipPath id="p82760a85cc">
   <rect x="47.81" y="25.44" width="402.19" height="278.2"/>
  </clipPath>
 </defs>
</svg>
