<?xml version="1.0" encoding="utf-8" standalone="no"?>
<!DOCTYPE svg PUBLIC "-//W3C//DTD SVG 1.1//EN"
  "http://www.w3.org/Graphics/SVG/1.1/DTD/svg11.dtd">
<svg height="432pt" version="1.1" viewBox="0 0 864 432" width="864pt" xmlns="http://www.w3.org/2000/svg" xmlns:xlink="http://www.w3.org/1999/xlink">
 <metadata>
  <rdf:RDF xmlns:cc="http://creativecommons.org/ns#" xmlns:dc="http://purl.org/dc/elements/1.1/" xmlns:rdf="http://www.w3.org/1999/02/22-rdf-syntax-ns#">
   <cc:Work>
    <dc:type rdf:resource="http://purl.org/dc/dcmitype/StillImage"/>
    <dc:date>2024-03-14T17:31:26.959965</dc:date>
    <dc:format>image/svg+xml</dc:format>
    <dc:creator>
     <cc:Agent>
      <dc:title>Matplotlib v3.4.3, https://matplotlib.org/</dc:title>
     </cc:Agent>
    </dc:creator>
   </cc:Work>
  </rdf:RDF>
 </metadata>
 <defs>
  <style type="text/css">*{stroke-linecap:butt;stroke-linejoin:round;}</style>
 </defs>
 <g id="figure_1">
  <g id="patch_1">
   <path d="M 0 432 
L 864 432 
L 864 0 
L 0 0 
z
" style="fill:#ffffff;"/>
  </g>
  <g id="axes_1">
   <g id="patch_2">
    <path d="M 47.81 279.578623 
L 853.2 279.578623 
L 853.2 25.44 
L 47.81 25.44 
z
" style="fill:#ffffff;"/>
   </g>
   <g id="PathCollection_1">
    <defs>
     <path d="M 0 5 
C 1.326016 5 2.597899 4.473168 3.535534 3.535534 
C 4.473168 2.597899 5 1.326016 5 0 
C 5 -1.326016 4.473168 -2.597899 3.535534 -3.535534 
C 2.597899 -4.473168 1.326016 -5 0 -5 
C -1.326016 -5 -2.597899 -4.473168 -3.535534 -3.535534 
C -4.473168 -2.597899 -5 -1.326016 -5 0 
C -5 1.326016 -4.473168 2.597899 -3.535534 3.535534 
C -2.597899 4.473168 -1.326016 5 0 5 
z
" id="m2e6ecea2b4" style="stroke:#ff0000;"/>
    </defs>
    <g clip-path="url(#p9c0eb7e7f2)">
     <use style="fill:#ff0000;stroke:#ff0000;" x="140.739615" xlink:href="#m2e6ecea2b4" y="64.908498"/>
    </g>
   </g>
   <g id="PathCollection_2">
    <defs>
     <path d="M 0 5 
C 1.326016 5 2.597899 4.473168 3.535534 3.535534 
C 4.473168 2.597899 5 1.326016 5 0 
C 5 -1.326016 4.473168 -2.597899 3.535534 -3.535534 
C 2.597899 -4.473168 1.326016 -5 0 -5 
C -1.326016 -5 -2.597899 -4.473168 -3.535534 -3.535534 
C -4.473168 -2.597899 -5 -1.326016 -5 0 
C -5 1.326016 -4.473168 2.597899 -3.535534 3.535534 
C -2.597899 4.473168 -1.326016 5 0 5 
z
" id="m5e54e99868" style="stroke:#e6ab02;"/>
    </defs>
    <g clip-path="url(#p9c0eb7e7f2)">
     <use style="fill:#e6ab02;stroke:#e6ab02;" x="253.381573" xlink:href="#m5e54e99868" y="38.435725"/>
    </g>
   </g>
   <g id="PathCollection_3">
    <defs>
     <path d="M 0 5 
C 1.326016 5 2.597899 4.473168 3.535534 3.535534 
C 4.473168 2.597899 5 1.326016 5 0 
C 5 -1.326016 4.473168 -2.597899 3.535534 -3.535534 
C 2.597899 -4.473168 1.326016 -5 0 -5 
C -1.326016 -5 -2.597899 -4.473168 -3.535534 -3.535534 
C -4.473168 -2.597899 -5 -1.326016 -5 0 
C -5 1.326016 -4.473168 2.597899 -3.535534 3.535534 
C -2.597899 4.473168 -1.326016 5 0 5 
z
" id="m2568befc35" style="stroke:#1b9e77;"/>
    </defs>
    <g clip-path="url(#p9c0eb7e7f2)">
     <use style="fill:#1b9e77;stroke:#1b9e77;" x="366.023531" xlink:href="#m2568befc35" y="78.86687"/>
    </g>
   </g>
   <g id="PathCollection_4">
    <g clip-path="url(#p9c0eb7e7f2)">
     <use style="fill:#1b9e77;stroke:#1b9e77;" x="478.66549" xlink:href="#m2568befc35" y="62.983206"/>
    </g>
   </g>
   <g id="PathCollection_5">
    <g clip-path="url(#p9c0eb7e7f2)">
     <use style="fill:#e6ab02;stroke:#e6ab02;" x="591.307448" xlink:href="#m5e54e99868" y="49.987481"/>
    </g>
   </g>
   <g id="PathCollection_6">
    <g clip-path="url(#p9c0eb7e7f2)">
     <use style="fill:#1b9e77;stroke:#1b9e77;" x="703.949406" xlink:href="#m2568befc35" y="90.418625"/>
    </g>
   </g>
   <g id="PathCollection_7">
    <g clip-path="url(#p9c0eb7e7f2)">
     <use style="fill:#1b9e77;stroke:#1b9e77;" x="816.591364" xlink:href="#m2568befc35" y="68.759083"/>
    </g>
   </g>
   <g id="matplotlib.axis_1">
    <g id="xtick_1">
     <g id="line2d_1">
      <defs>
       <path d="M 0 0 
L 0 3.5 
" id="m50210f3c03" style="stroke:#000000;stroke-width:0.8;"/>
      </defs>
      <g>
       <use style="stroke:#000000;stroke-width:0.8;" x="140.739615" xlink:href="#m50210f3c03" y="279.578623"/>
      </g>
     </g>
     <g id="text_1">
      <!-- rule_checker -->
      <g style="fill:#ff0000;" transform="translate(94.129125 336.894795)rotate(-45)scale(0.1 -0.1)">
       <defs>
        <path d="M 2631 2963 
Q 2534 3019 2420 3045 
Q 2306 3072 2169 3072 
Q 1681 3072 1420 2755 
Q 1159 2438 1159 1844 
L 1159 0 
L 581 0 
L 581 3500 
L 1159 3500 
L 1159 2956 
Q 1341 3275 1631 3429 
Q 1922 3584 2338 3584 
Q 2397 3584 2469 3576 
Q 2541 3569 2628 3553 
L 2631 2963 
z
" id="DejaVuSans-72" transform="scale(0.015625)"/>
        <path d="M 544 1381 
L 544 3500 
L 1119 3500 
L 1119 1403 
Q 1119 906 1312 657 
Q 1506 409 1894 409 
Q 2359 409 2629 706 
Q 2900 1003 2900 1516 
L 2900 3500 
L 3475 3500 
L 3475 0 
L 2900 0 
L 2900 538 
Q 2691 219 2414 64 
Q 2138 -91 1772 -91 
Q 1169 -91 856 284 
Q 544 659 544 1381 
z
M 1991 3584 
L 1991 3584 
z
" id="DejaVuSans-75" transform="scale(0.015625)"/>
        <path d="M 603 4863 
L 1178 4863 
L 1178 0 
L 603 0 
L 603 4863 
z
" id="DejaVuSans-6c" transform="scale(0.015625)"/>
        <path d="M 3597 1894 
L 3597 1613 
L 953 1613 
Q 991 1019 1311 708 
Q 1631 397 2203 397 
Q 2534 397 2845 478 
Q 3156 559 3463 722 
L 3463 178 
Q 3153 47 2828 -22 
Q 2503 -91 2169 -91 
Q 1331 -91 842 396 
Q 353 884 353 1716 
Q 353 2575 817 3079 
Q 1281 3584 2069 3584 
Q 2775 3584 3186 3129 
Q 3597 2675 3597 1894 
z
M 3022 2063 
Q 3016 2534 2758 2815 
Q 2500 3097 2075 3097 
Q 1594 3097 1305 2825 
Q 1016 2553 972 2059 
L 3022 2063 
z
" id="DejaVuSans-65" transform="scale(0.015625)"/>
        <path d="M 3263 -1063 
L 3263 -1509 
L -63 -1509 
L -63 -1063 
L 3263 -1063 
z
" id="DejaVuSans-5f" transform="scale(0.015625)"/>
        <path d="M 3122 3366 
L 3122 2828 
Q 2878 2963 2633 3030 
Q 2388 3097 2138 3097 
Q 1578 3097 1268 2742 
Q 959 2388 959 1747 
Q 959 1106 1268 751 
Q 1578 397 2138 397 
Q 2388 397 2633 464 
Q 2878 531 3122 666 
L 3122 134 
Q 2881 22 2623 -34 
Q 2366 -91 2075 -91 
Q 1284 -91 818 406 
Q 353 903 353 1747 
Q 353 2603 823 3093 
Q 1294 3584 2113 3584 
Q 2378 3584 2631 3529 
Q 2884 3475 3122 3366 
z
" id="DejaVuSans-63" transform="scale(0.015625)"/>
        <path d="M 3513 2113 
L 3513 0 
L 2938 0 
L 2938 2094 
Q 2938 2591 2744 2837 
Q 2550 3084 2163 3084 
Q 1697 3084 1428 2787 
Q 1159 2491 1159 1978 
L 1159 0 
L 581 0 
L 581 4863 
L 1159 4863 
L 1159 2956 
Q 1366 3272 1645 3428 
Q 1925 3584 2291 3584 
Q 2894 3584 3203 3211 
Q 3513 2838 3513 2113 
z
" id="DejaVuSans-68" transform="scale(0.015625)"/>
        <path d="M 581 4863 
L 1159 4863 
L 1159 1991 
L 2875 3500 
L 3609 3500 
L 1753 1863 
L 3688 0 
L 2938 0 
L 1159 1709 
L 1159 0 
L 581 0 
L 581 4863 
z
" id="DejaVuSans-6b" transform="scale(0.015625)"/>
       </defs>
       <use xlink:href="#DejaVuSans-72"/>
       <use x="41.113281" xlink:href="#DejaVuSans-75"/>
       <use x="104.492188" xlink:href="#DejaVuSans-6c"/>
       <use x="132.275391" xlink:href="#DejaVuSans-65"/>
       <use x="193.798828" xlink:href="#DejaVuSans-5f"/>
       <use x="243.798828" xlink:href="#DejaVuSans-63"/>
       <use x="298.779297" xlink:href="#DejaVuSans-68"/>
       <use x="362.158203" xlink:href="#DejaVuSans-65"/>
       <use x="423.681641" xlink:href="#DejaVuSans-63"/>
       <use x="478.662109" xlink:href="#DejaVuSans-6b"/>
       <use x="532.947266" xlink:href="#DejaVuSans-65"/>
       <use x="594.470703" xlink:href="#DejaVuSans-72"/>
      </g>
     </g>
    </g>
    <g id="xtick_2">
     <g id="line2d_2">
      <g>
       <use style="stroke:#000000;stroke-width:0.8;" x="253.381573" xlink:href="#m50210f3c03" y="279.578623"/>
      </g>
     </g>
     <g id="text_2">
      <!-- round_payoff -->
      <g style="fill:#e6ab02;" transform="translate(205.340297 338.325581)rotate(-45)scale(0.1 -0.1)">
       <defs>
        <path d="M 1959 3097 
Q 1497 3097 1228 2736 
Q 959 2375 959 1747 
Q 959 1119 1226 758 
Q 1494 397 1959 397 
Q 2419 397 2687 759 
Q 2956 1122 2956 1747 
Q 2956 2369 2687 2733 
Q 2419 3097 1959 3097 
z
M 1959 3584 
Q 2709 3584 3137 3096 
Q 3566 2609 3566 1747 
Q 3566 888 3137 398 
Q 2709 -91 1959 -91 
Q 1206 -91 779 398 
Q 353 888 353 1747 
Q 353 2609 779 3096 
Q 1206 3584 1959 3584 
z
" id="DejaVuSans-6f" transform="scale(0.015625)"/>
        <path d="M 3513 2113 
L 3513 0 
L 2938 0 
L 2938 2094 
Q 2938 2591 2744 2837 
Q 2550 3084 2163 3084 
Q 1697 3084 1428 2787 
Q 1159 2491 1159 1978 
L 1159 0 
L 581 0 
L 581 3500 
L 1159 3500 
L 1159 2956 
Q 1366 3272 1645 3428 
Q 1925 3584 2291 3584 
Q 2894 3584 3203 3211 
Q 3513 2838 3513 2113 
z
" id="DejaVuSans-6e" transform="scale(0.015625)"/>
        <path d="M 2906 2969 
L 2906 4863 
L 3481 4863 
L 3481 0 
L 2906 0 
L 2906 525 
Q 2725 213 2448 61 
Q 2172 -91 1784 -91 
Q 1150 -91 751 415 
Q 353 922 353 1747 
Q 353 2572 751 3078 
Q 1150 3584 1784 3584 
Q 2172 3584 2448 3432 
Q 2725 3281 2906 2969 
z
M 947 1747 
Q 947 1113 1208 752 
Q 1469 391 1925 391 
Q 2381 391 2643 752 
Q 2906 1113 2906 1747 
Q 2906 2381 2643 2742 
Q 2381 3103 1925 3103 
Q 1469 3103 1208 2742 
Q 947 2381 947 1747 
z
" id="DejaVuSans-64" transform="scale(0.015625)"/>
        <path d="M 1159 525 
L 1159 -1331 
L 581 -1331 
L 581 3500 
L 1159 3500 
L 1159 2969 
Q 1341 3281 1617 3432 
Q 1894 3584 2278 3584 
Q 2916 3584 3314 3078 
Q 3713 2572 3713 1747 
Q 3713 922 3314 415 
Q 2916 -91 2278 -91 
Q 1894 -91 1617 61 
Q 1341 213 1159 525 
z
M 3116 1747 
Q 3116 2381 2855 2742 
Q 2594 3103 2138 3103 
Q 1681 3103 1420 2742 
Q 1159 2381 1159 1747 
Q 1159 1113 1420 752 
Q 1681 391 2138 391 
Q 2594 391 2855 752 
Q 3116 1113 3116 1747 
z
" id="DejaVuSans-70" transform="scale(0.015625)"/>
        <path d="M 2194 1759 
Q 1497 1759 1228 1600 
Q 959 1441 959 1056 
Q 959 750 1161 570 
Q 1363 391 1709 391 
Q 2188 391 2477 730 
Q 2766 1069 2766 1631 
L 2766 1759 
L 2194 1759 
z
M 3341 1997 
L 3341 0 
L 2766 0 
L 2766 531 
Q 2569 213 2275 61 
Q 1981 -91 1556 -91 
Q 1019 -91 701 211 
Q 384 513 384 1019 
Q 384 1609 779 1909 
Q 1175 2209 1959 2209 
L 2766 2209 
L 2766 2266 
Q 2766 2663 2505 2880 
Q 2244 3097 1772 3097 
Q 1472 3097 1187 3025 
Q 903 2953 641 2809 
L 641 3341 
Q 956 3463 1253 3523 
Q 1550 3584 1831 3584 
Q 2591 3584 2966 3190 
Q 3341 2797 3341 1997 
z
" id="DejaVuSans-61" transform="scale(0.015625)"/>
        <path d="M 2059 -325 
Q 1816 -950 1584 -1140 
Q 1353 -1331 966 -1331 
L 506 -1331 
L 506 -850 
L 844 -850 
Q 1081 -850 1212 -737 
Q 1344 -625 1503 -206 
L 1606 56 
L 191 3500 
L 800 3500 
L 1894 763 
L 2988 3500 
L 3597 3500 
L 2059 -325 
z
" id="DejaVuSans-79" transform="scale(0.015625)"/>
        <path d="M 2375 4863 
L 2375 4384 
L 1825 4384 
Q 1516 4384 1395 4259 
Q 1275 4134 1275 3809 
L 1275 3500 
L 2222 3500 
L 2222 3053 
L 1275 3053 
L 1275 0 
L 697 0 
L 697 3053 
L 147 3053 
L 147 3500 
L 697 3500 
L 697 3744 
Q 697 4328 969 4595 
Q 1241 4863 1831 4863 
L 2375 4863 
z
" id="DejaVuSans-66" transform="scale(0.015625)"/>
       </defs>
       <use xlink:href="#DejaVuSans-72"/>
       <use x="38.863281" xlink:href="#DejaVuSans-6f"/>
       <use x="100.044922" xlink:href="#DejaVuSans-75"/>
       <use x="163.423828" xlink:href="#DejaVuSans-6e"/>
       <use x="226.802734" xlink:href="#DejaVuSans-64"/>
       <use x="290.279297" xlink:href="#DejaVuSans-5f"/>
       <use x="340.279297" xlink:href="#DejaVuSans-70"/>
       <use x="403.755859" xlink:href="#DejaVuSans-61"/>
       <use x="465.035156" xlink:href="#DejaVuSans-79"/>
       <use x="524.214844" xlink:href="#DejaVuSans-6f"/>
       <use x="585.396484" xlink:href="#DejaVuSans-66"/>
       <use x="620.601562" xlink:href="#DejaVuSans-66"/>
      </g>
     </g>
    </g>
    <g id="xtick_3">
     <g id="line2d_3">
      <g>
       <use style="stroke:#000000;stroke-width:0.8;" x="366.023531" xlink:href="#m50210f3c03" y="279.578623"/>
      </g>
     </g>
     <g id="text_3">
      <!-- opponent_round_payoff -->
      <g style="fill:#1b9e77;" transform="translate(280.729881 375.577955)rotate(-45)scale(0.1 -0.1)">
       <defs>
        <path d="M 1172 4494 
L 1172 3500 
L 2356 3500 
L 2356 3053 
L 1172 3053 
L 1172 1153 
Q 1172 725 1289 603 
Q 1406 481 1766 481 
L 2356 481 
L 2356 0 
L 1766 0 
Q 1100 0 847 248 
Q 594 497 594 1153 
L 594 3053 
L 172 3053 
L 172 3500 
L 594 3500 
L 594 4494 
L 1172 4494 
z
" id="DejaVuSans-74" transform="scale(0.015625)"/>
       </defs>
       <use xlink:href="#DejaVuSans-6f"/>
       <use x="61.181641" xlink:href="#DejaVuSans-70"/>
       <use x="124.658203" xlink:href="#DejaVuSans-70"/>
       <use x="188.134766" xlink:href="#DejaVuSans-6f"/>
       <use x="249.316406" xlink:href="#DejaVuSans-6e"/>
       <use x="312.695312" xlink:href="#DejaVuSans-65"/>
       <use x="374.21875" xlink:href="#DejaVuSans-6e"/>
       <use x="437.597656" xlink:href="#DejaVuSans-74"/>
       <use x="476.806641" xlink:href="#DejaVuSans-5f"/>
       <use x="526.806641" xlink:href="#DejaVuSans-72"/>
       <use x="565.669922" xlink:href="#DejaVuSans-6f"/>
       <use x="626.851562" xlink:href="#DejaVuSans-75"/>
       <use x="690.230469" xlink:href="#DejaVuSans-6e"/>
       <use x="753.609375" xlink:href="#DejaVuSans-64"/>
       <use x="817.085938" xlink:href="#DejaVuSans-5f"/>
       <use x="867.085938" xlink:href="#DejaVuSans-70"/>
       <use x="930.5625" xlink:href="#DejaVuSans-61"/>
       <use x="991.841797" xlink:href="#DejaVuSans-79"/>
       <use x="1051.021484" xlink:href="#DejaVuSans-6f"/>
       <use x="1112.203125" xlink:href="#DejaVuSans-66"/>
       <use x="1147.408203" xlink:href="#DejaVuSans-66"/>
      </g>
     </g>
    </g>
    <g id="xtick_4">
     <g id="line2d_4">
      <g>
       <use style="stroke:#000000;stroke-width:0.8;" x="478.66549" xlink:href="#m50210f3c03" y="279.578623"/>
      </g>
     </g>
     <g id="text_4">
      <!-- opponent_round_payoff_inverse -->
      <g style="fill:#1b9e77;" transform="translate(363.913107 405.036687)rotate(-45)scale(0.1 -0.1)">
       <defs>
        <path d="M 603 3500 
L 1178 3500 
L 1178 0 
L 603 0 
L 603 3500 
z
M 603 4863 
L 1178 4863 
L 1178 4134 
L 603 4134 
L 603 4863 
z
" id="DejaVuSans-69" transform="scale(0.015625)"/>
        <path d="M 191 3500 
L 800 3500 
L 1894 563 
L 2988 3500 
L 3597 3500 
L 2284 0 
L 1503 0 
L 191 3500 
z
" id="DejaVuSans-76" transform="scale(0.015625)"/>
        <path d="M 2834 3397 
L 2834 2853 
Q 2591 2978 2328 3040 
Q 2066 3103 1784 3103 
Q 1356 3103 1142 2972 
Q 928 2841 928 2578 
Q 928 2378 1081 2264 
Q 1234 2150 1697 2047 
L 1894 2003 
Q 2506 1872 2764 1633 
Q 3022 1394 3022 966 
Q 3022 478 2636 193 
Q 2250 -91 1575 -91 
Q 1294 -91 989 -36 
Q 684 19 347 128 
L 347 722 
Q 666 556 975 473 
Q 1284 391 1588 391 
Q 1994 391 2212 530 
Q 2431 669 2431 922 
Q 2431 1156 2273 1281 
Q 2116 1406 1581 1522 
L 1381 1569 
Q 847 1681 609 1914 
Q 372 2147 372 2553 
Q 372 3047 722 3315 
Q 1072 3584 1716 3584 
Q 2034 3584 2315 3537 
Q 2597 3491 2834 3397 
z
" id="DejaVuSans-73" transform="scale(0.015625)"/>
       </defs>
       <use xlink:href="#DejaVuSans-6f"/>
       <use x="61.181641" xlink:href="#DejaVuSans-70"/>
       <use x="124.658203" xlink:href="#DejaVuSans-70"/>
       <use x="188.134766" xlink:href="#DejaVuSans-6f"/>
       <use x="249.316406" xlink:href="#DejaVuSans-6e"/>
       <use x="312.695312" xlink:href="#DejaVuSans-65"/>
       <use x="374.21875" xlink:href="#DejaVuSans-6e"/>
       <use x="437.597656" xlink:href="#DejaVuSans-74"/>
       <use x="476.806641" xlink:href="#DejaVuSans-5f"/>
       <use x="526.806641" xlink:href="#DejaVuSans-72"/>
       <use x="565.669922" xlink:href="#DejaVuSans-6f"/>
       <use x="626.851562" xlink:href="#DejaVuSans-75"/>
       <use x="690.230469" xlink:href="#DejaVuSans-6e"/>
       <use x="753.609375" xlink:href="#DejaVuSans-64"/>
       <use x="817.085938" xlink:href="#DejaVuSans-5f"/>
       <use x="867.085938" xlink:href="#DejaVuSans-70"/>
       <use x="930.5625" xlink:href="#DejaVuSans-61"/>
       <use x="991.841797" xlink:href="#DejaVuSans-79"/>
       <use x="1051.021484" xlink:href="#DejaVuSans-6f"/>
       <use x="1112.203125" xlink:href="#DejaVuSans-66"/>
       <use x="1147.408203" xlink:href="#DejaVuSans-66"/>
       <use x="1182.613281" xlink:href="#DejaVuSans-5f"/>
       <use x="1232.613281" xlink:href="#DejaVuSans-69"/>
       <use x="1260.396484" xlink:href="#DejaVuSans-6e"/>
       <use x="1323.775391" xlink:href="#DejaVuSans-76"/>
       <use x="1382.955078" xlink:href="#DejaVuSans-65"/>
       <use x="1444.478516" xlink:href="#DejaVuSans-72"/>
       <use x="1485.591797" xlink:href="#DejaVuSans-73"/>
       <use x="1537.691406" xlink:href="#DejaVuSans-65"/>
      </g>
     </g>
    </g>
    <g id="xtick_5">
     <g id="line2d_5">
      <g>
       <use style="stroke:#000000;stroke-width:0.8;" x="591.307448" xlink:href="#m50210f3c03" y="279.578623"/>
      </g>
     </g>
     <g id="text_5">
      <!-- B_round_points -->
      <g style="fill:#e6ab02;" transform="translate(535.474738 346.117014)rotate(-45)scale(0.1 -0.1)">
       <defs>
        <path d="M 1259 2228 
L 1259 519 
L 2272 519 
Q 2781 519 3026 730 
Q 3272 941 3272 1375 
Q 3272 1813 3026 2020 
Q 2781 2228 2272 2228 
L 1259 2228 
z
M 1259 4147 
L 1259 2741 
L 2194 2741 
Q 2656 2741 2882 2914 
Q 3109 3088 3109 3444 
Q 3109 3797 2882 3972 
Q 2656 4147 2194 4147 
L 1259 4147 
z
M 628 4666 
L 2241 4666 
Q 2963 4666 3353 4366 
Q 3744 4066 3744 3513 
Q 3744 3084 3544 2831 
Q 3344 2578 2956 2516 
Q 3422 2416 3680 2098 
Q 3938 1781 3938 1306 
Q 3938 681 3513 340 
Q 3088 0 2303 0 
L 628 0 
L 628 4666 
z
" id="DejaVuSans-42" transform="scale(0.015625)"/>
       </defs>
       <use xlink:href="#DejaVuSans-42"/>
       <use x="68.603516" xlink:href="#DejaVuSans-5f"/>
       <use x="118.603516" xlink:href="#DejaVuSans-72"/>
       <use x="157.466797" xlink:href="#DejaVuSans-6f"/>
       <use x="218.648438" xlink:href="#DejaVuSans-75"/>
       <use x="282.027344" xlink:href="#DejaVuSans-6e"/>
       <use x="345.40625" xlink:href="#DejaVuSans-64"/>
       <use x="408.882812" xlink:href="#DejaVuSans-5f"/>
       <use x="458.882812" xlink:href="#DejaVuSans-70"/>
       <use x="522.359375" xlink:href="#DejaVuSans-6f"/>
       <use x="583.541016" xlink:href="#DejaVuSans-69"/>
       <use x="611.324219" xlink:href="#DejaVuSans-6e"/>
       <use x="674.703125" xlink:href="#DejaVuSans-74"/>
       <use x="713.912109" xlink:href="#DejaVuSans-73"/>
      </g>
     </g>
    </g>
    <g id="xtick_6">
     <g id="line2d_6">
      <g>
       <use style="stroke:#000000;stroke-width:0.8;" x="703.949406" xlink:href="#m50210f3c03" y="279.578623"/>
      </g>
     </g>
     <g id="text_6">
      <!-- A_round_points -->
      <g style="fill:#1b9e77;" transform="translate(648.131059 346.102651)rotate(-45)scale(0.1 -0.1)">
       <defs>
        <path d="M 2188 4044 
L 1331 1722 
L 3047 1722 
L 2188 4044 
z
M 1831 4666 
L 2547 4666 
L 4325 0 
L 3669 0 
L 3244 1197 
L 1141 1197 
L 716 0 
L 50 0 
L 1831 4666 
z
" id="DejaVuSans-41" transform="scale(0.015625)"/>
       </defs>
       <use xlink:href="#DejaVuSans-41"/>
       <use x="68.408203" xlink:href="#DejaVuSans-5f"/>
       <use x="118.408203" xlink:href="#DejaVuSans-72"/>
       <use x="157.271484" xlink:href="#DejaVuSans-6f"/>
       <use x="218.453125" xlink:href="#DejaVuSans-75"/>
       <use x="281.832031" xlink:href="#DejaVuSans-6e"/>
       <use x="345.210938" xlink:href="#DejaVuSans-64"/>
       <use x="408.6875" xlink:href="#DejaVuSans-5f"/>
       <use x="458.6875" xlink:href="#DejaVuSans-70"/>
       <use x="522.164062" xlink:href="#DejaVuSans-6f"/>
       <use x="583.345703" xlink:href="#DejaVuSans-69"/>
       <use x="611.128906" xlink:href="#DejaVuSans-6e"/>
       <use x="674.507812" xlink:href="#DejaVuSans-74"/>
       <use x="713.716797" xlink:href="#DejaVuSans-73"/>
      </g>
     </g>
    </g>
    <g id="xtick_7">
     <g id="line2d_7">
      <g>
       <use style="stroke:#000000;stroke-width:0.8;" x="816.591364" xlink:href="#m50210f3c03" y="279.578623"/>
      </g>
     </g>
     <g id="text_7">
      <!-- A_round_points_inverse -->
      <g style="fill:#1b9e77;" transform="translate(731.314286 375.561382)rotate(-45)scale(0.1 -0.1)">
       <use xlink:href="#DejaVuSans-41"/>
       <use x="68.408203" xlink:href="#DejaVuSans-5f"/>
       <use x="118.408203" xlink:href="#DejaVuSans-72"/>
       <use x="157.271484" xlink:href="#DejaVuSans-6f"/>
       <use x="218.453125" xlink:href="#DejaVuSans-75"/>
       <use x="281.832031" xlink:href="#DejaVuSans-6e"/>
       <use x="345.210938" xlink:href="#DejaVuSans-64"/>
       <use x="408.6875" xlink:href="#DejaVuSans-5f"/>
       <use x="458.6875" xlink:href="#DejaVuSans-70"/>
       <use x="522.164062" xlink:href="#DejaVuSans-6f"/>
       <use x="583.345703" xlink:href="#DejaVuSans-69"/>
       <use x="611.128906" xlink:href="#DejaVuSans-6e"/>
       <use x="674.507812" xlink:href="#DejaVuSans-74"/>
       <use x="713.716797" xlink:href="#DejaVuSans-73"/>
       <use x="765.816406" xlink:href="#DejaVuSans-5f"/>
       <use x="815.816406" xlink:href="#DejaVuSans-69"/>
       <use x="843.599609" xlink:href="#DejaVuSans-6e"/>
       <use x="906.978516" xlink:href="#DejaVuSans-76"/>
       <use x="966.158203" xlink:href="#DejaVuSans-65"/>
       <use x="1027.681641" xlink:href="#DejaVuSans-72"/>
       <use x="1068.794922" xlink:href="#DejaVuSans-73"/>
       <use x="1120.894531" xlink:href="#DejaVuSans-65"/>
      </g>
     </g>
    </g>
    <g id="text_8">
     <!-- Questions -->
     <g transform="translate(425.537031 418.302349)scale(0.1 -0.1)">
      <defs>
       <path d="M 2522 4238 
Q 1834 4238 1429 3725 
Q 1025 3213 1025 2328 
Q 1025 1447 1429 934 
Q 1834 422 2522 422 
Q 3209 422 3611 934 
Q 4013 1447 4013 2328 
Q 4013 3213 3611 3725 
Q 3209 4238 2522 4238 
z
M 3406 84 
L 4238 -825 
L 3475 -825 
L 2784 -78 
Q 2681 -84 2626 -87 
Q 2572 -91 2522 -91 
Q 1538 -91 948 567 
Q 359 1225 359 2328 
Q 359 3434 948 4092 
Q 1538 4750 2522 4750 
Q 3503 4750 4090 4092 
Q 4678 3434 4678 2328 
Q 4678 1516 4351 937 
Q 4025 359 3406 84 
z
" id="DejaVuSans-51" transform="scale(0.015625)"/>
      </defs>
      <use xlink:href="#DejaVuSans-51"/>
      <use x="78.710938" xlink:href="#DejaVuSans-75"/>
      <use x="142.089844" xlink:href="#DejaVuSans-65"/>
      <use x="203.613281" xlink:href="#DejaVuSans-73"/>
      <use x="255.712891" xlink:href="#DejaVuSans-74"/>
      <use x="294.921875" xlink:href="#DejaVuSans-69"/>
      <use x="322.705078" xlink:href="#DejaVuSans-6f"/>
      <use x="383.886719" xlink:href="#DejaVuSans-6e"/>
      <use x="447.265625" xlink:href="#DejaVuSans-73"/>
     </g>
    </g>
   </g>
   <g id="matplotlib.axis_2">
    <g id="ytick_1">
     <g id="line2d_8">
      <defs>
       <path d="M 0 0 
L -3.5 0 
" id="m45f074960b" style="stroke:#000000;stroke-width:0.8;"/>
      </defs>
      <g>
       <use style="stroke:#000000;stroke-width:0.8;" x="47.81" xlink:href="#m45f074960b" y="268.026868"/>
      </g>
     </g>
     <g id="text_9">
      <!-- 0.0 -->
      <g transform="translate(24.906875 271.826086)scale(0.1 -0.1)">
       <defs>
        <path d="M 2034 4250 
Q 1547 4250 1301 3770 
Q 1056 3291 1056 2328 
Q 1056 1369 1301 889 
Q 1547 409 2034 409 
Q 2525 409 2770 889 
Q 3016 1369 3016 2328 
Q 3016 3291 2770 3770 
Q 2525 4250 2034 4250 
z
M 2034 4750 
Q 2819 4750 3233 4129 
Q 3647 3509 3647 2328 
Q 3647 1150 3233 529 
Q 2819 -91 2034 -91 
Q 1250 -91 836 529 
Q 422 1150 422 2328 
Q 422 3509 836 4129 
Q 1250 4750 2034 4750 
z
" id="DejaVuSans-30" transform="scale(0.015625)"/>
        <path d="M 684 794 
L 1344 794 
L 1344 0 
L 684 0 
L 684 794 
z
" id="DejaVuSans-2e" transform="scale(0.015625)"/>
       </defs>
       <use xlink:href="#DejaVuSans-30"/>
       <use x="63.623047" xlink:href="#DejaVuSans-2e"/>
       <use x="95.410156" xlink:href="#DejaVuSans-30"/>
      </g>
     </g>
    </g>
    <g id="ytick_2">
     <g id="line2d_9">
      <g>
       <use style="stroke:#000000;stroke-width:0.8;" x="47.81" xlink:href="#m45f074960b" y="221.819845"/>
      </g>
     </g>
     <g id="text_10">
      <!-- 0.2 -->
      <g transform="translate(24.906875 225.619064)scale(0.1 -0.1)">
       <defs>
        <path d="M 1228 531 
L 3431 531 
L 3431 0 
L 469 0 
L 469 531 
Q 828 903 1448 1529 
Q 2069 2156 2228 2338 
Q 2531 2678 2651 2914 
Q 2772 3150 2772 3378 
Q 2772 3750 2511 3984 
Q 2250 4219 1831 4219 
Q 1534 4219 1204 4116 
Q 875 4013 500 3803 
L 500 4441 
Q 881 4594 1212 4672 
Q 1544 4750 1819 4750 
Q 2544 4750 2975 4387 
Q 3406 4025 3406 3419 
Q 3406 3131 3298 2873 
Q 3191 2616 2906 2266 
Q 2828 2175 2409 1742 
Q 1991 1309 1228 531 
z
" id="DejaVuSans-32" transform="scale(0.015625)"/>
       </defs>
       <use xlink:href="#DejaVuSans-30"/>
       <use x="63.623047" xlink:href="#DejaVuSans-2e"/>
       <use x="95.410156" xlink:href="#DejaVuSans-32"/>
      </g>
     </g>
    </g>
    <g id="ytick_3">
     <g id="line2d_10">
      <g>
       <use style="stroke:#000000;stroke-width:0.8;" x="47.81" xlink:href="#m45f074960b" y="175.612823"/>
      </g>
     </g>
     <g id="text_11">
      <!-- 0.4 -->
      <g transform="translate(24.906875 179.412042)scale(0.1 -0.1)">
       <defs>
        <path d="M 2419 4116 
L 825 1625 
L 2419 1625 
L 2419 4116 
z
M 2253 4666 
L 3047 4666 
L 3047 1625 
L 3713 1625 
L 3713 1100 
L 3047 1100 
L 3047 0 
L 2419 0 
L 2419 1100 
L 313 1100 
L 313 1709 
L 2253 4666 
z
" id="DejaVuSans-34" transform="scale(0.015625)"/>
       </defs>
       <use xlink:href="#DejaVuSans-30"/>
       <use x="63.623047" xlink:href="#DejaVuSans-2e"/>
       <use x="95.410156" xlink:href="#DejaVuSans-34"/>
      </g>
     </g>
    </g>
    <g id="ytick_4">
     <g id="line2d_11">
      <g>
       <use style="stroke:#000000;stroke-width:0.8;" x="47.81" xlink:href="#m45f074960b" y="129.4058"/>
      </g>
     </g>
     <g id="text_12">
      <!-- 0.6 -->
      <g transform="translate(24.906875 133.205019)scale(0.1 -0.1)">
       <defs>
        <path d="M 2113 2584 
Q 1688 2584 1439 2293 
Q 1191 2003 1191 1497 
Q 1191 994 1439 701 
Q 1688 409 2113 409 
Q 2538 409 2786 701 
Q 3034 994 3034 1497 
Q 3034 2003 2786 2293 
Q 2538 2584 2113 2584 
z
M 3366 4563 
L 3366 3988 
Q 3128 4100 2886 4159 
Q 2644 4219 2406 4219 
Q 1781 4219 1451 3797 
Q 1122 3375 1075 2522 
Q 1259 2794 1537 2939 
Q 1816 3084 2150 3084 
Q 2853 3084 3261 2657 
Q 3669 2231 3669 1497 
Q 3669 778 3244 343 
Q 2819 -91 2113 -91 
Q 1303 -91 875 529 
Q 447 1150 447 2328 
Q 447 3434 972 4092 
Q 1497 4750 2381 4750 
Q 2619 4750 2861 4703 
Q 3103 4656 3366 4563 
z
" id="DejaVuSans-36" transform="scale(0.015625)"/>
       </defs>
       <use xlink:href="#DejaVuSans-30"/>
       <use x="63.623047" xlink:href="#DejaVuSans-2e"/>
       <use x="95.410156" xlink:href="#DejaVuSans-36"/>
      </g>
     </g>
    </g>
    <g id="ytick_5">
     <g id="line2d_12">
      <g>
       <use style="stroke:#000000;stroke-width:0.8;" x="47.81" xlink:href="#m45f074960b" y="83.198778"/>
      </g>
     </g>
     <g id="text_13">
      <!-- 0.8 -->
      <g transform="translate(24.906875 86.997997)scale(0.1 -0.1)">
       <defs>
        <path d="M 2034 2216 
Q 1584 2216 1326 1975 
Q 1069 1734 1069 1313 
Q 1069 891 1326 650 
Q 1584 409 2034 409 
Q 2484 409 2743 651 
Q 3003 894 3003 1313 
Q 3003 1734 2745 1975 
Q 2488 2216 2034 2216 
z
M 1403 2484 
Q 997 2584 770 2862 
Q 544 3141 544 3541 
Q 544 4100 942 4425 
Q 1341 4750 2034 4750 
Q 2731 4750 3128 4425 
Q 3525 4100 3525 3541 
Q 3525 3141 3298 2862 
Q 3072 2584 2669 2484 
Q 3125 2378 3379 2068 
Q 3634 1759 3634 1313 
Q 3634 634 3220 271 
Q 2806 -91 2034 -91 
Q 1263 -91 848 271 
Q 434 634 434 1313 
Q 434 1759 690 2068 
Q 947 2378 1403 2484 
z
M 1172 3481 
Q 1172 3119 1398 2916 
Q 1625 2713 2034 2713 
Q 2441 2713 2670 2916 
Q 2900 3119 2900 3481 
Q 2900 3844 2670 4047 
Q 2441 4250 2034 4250 
Q 1625 4250 1398 4047 
Q 1172 3844 1172 3481 
z
" id="DejaVuSans-38" transform="scale(0.015625)"/>
       </defs>
       <use xlink:href="#DejaVuSans-30"/>
       <use x="63.623047" xlink:href="#DejaVuSans-2e"/>
       <use x="95.410156" xlink:href="#DejaVuSans-38"/>
      </g>
     </g>
    </g>
    <g id="ytick_6">
     <g id="line2d_13">
      <g>
       <use style="stroke:#000000;stroke-width:0.8;" x="47.81" xlink:href="#m45f074960b" y="36.991756"/>
      </g>
     </g>
     <g id="text_14">
      <!-- 1.0 -->
      <g transform="translate(24.906875 40.790974)scale(0.1 -0.1)">
       <defs>
        <path d="M 794 531 
L 1825 531 
L 1825 4091 
L 703 3866 
L 703 4441 
L 1819 4666 
L 2450 4666 
L 2450 531 
L 3481 531 
L 3481 0 
L 794 0 
L 794 531 
z
" id="DejaVuSans-31" transform="scale(0.015625)"/>
       </defs>
       <use xlink:href="#DejaVuSans-31"/>
       <use x="63.623047" xlink:href="#DejaVuSans-2e"/>
       <use x="95.410156" xlink:href="#DejaVuSans-30"/>
      </g>
     </g>
    </g>
    <g id="text_15">
     <!-- Accuracy -->
     <g transform="translate(18.827187 175.337437)rotate(-90)scale(0.1 -0.1)">
      <use xlink:href="#DejaVuSans-41"/>
      <use x="66.658203" xlink:href="#DejaVuSans-63"/>
      <use x="121.638672" xlink:href="#DejaVuSans-63"/>
      <use x="176.619141" xlink:href="#DejaVuSans-75"/>
      <use x="239.998047" xlink:href="#DejaVuSans-72"/>
      <use x="281.111328" xlink:href="#DejaVuSans-61"/>
      <use x="342.390625" xlink:href="#DejaVuSans-63"/>
      <use x="397.371094" xlink:href="#DejaVuSans-79"/>
     </g>
    </g>
   </g>
   <g id="line2d_14">
    <path clip-path="url(#p9c0eb7e7f2)" d="M 140.739615 89.370882 
L 140.739615 40.446115 
" style="fill:none;stroke:#000000;stroke-dasharray:1.5,2.475;stroke-dashoffset:0;stroke-width:1.5;"/>
    <defs>
     <path d="M 5 0 
L -5 -0 
" id="m7af4127c01" style="stroke:#000000;"/>
    </defs>
    <g clip-path="url(#p9c0eb7e7f2)">
     <use style="stroke:#000000;" x="140.739615" xlink:href="#m7af4127c01" y="89.370882"/>
     <use style="stroke:#000000;" x="140.739615" xlink:href="#m7af4127c01" y="40.446115"/>
    </g>
   </g>
   <g id="line2d_15">
    <path clip-path="url(#p9c0eb7e7f2)" d="M 253.381573 39.867715 
L 253.381573 37.003735 
" style="fill:none;stroke:#000000;stroke-dasharray:1.5,2.475;stroke-dashoffset:0;stroke-width:1.5;"/>
    <g clip-path="url(#p9c0eb7e7f2)">
     <use style="stroke:#000000;" x="253.381573" xlink:href="#m7af4127c01" y="39.867715"/>
     <use style="stroke:#000000;" x="253.381573" xlink:href="#m7af4127c01" y="37.003735"/>
    </g>
   </g>
   <g id="line2d_16">
    <path clip-path="url(#p9c0eb7e7f2)" d="M 366.023531 112.476295 
L 366.023531 45.257444 
" style="fill:none;stroke:#000000;stroke-dasharray:1.5,2.475;stroke-dashoffset:0;stroke-width:1.5;"/>
    <g clip-path="url(#p9c0eb7e7f2)">
     <use style="stroke:#000000;" x="366.023531" xlink:href="#m7af4127c01" y="112.476295"/>
     <use style="stroke:#000000;" x="366.023531" xlink:href="#m7af4127c01" y="45.257444"/>
    </g>
   </g>
   <g id="line2d_17">
    <path clip-path="url(#p9c0eb7e7f2)" d="M 478.66549 85.575758 
L 478.66549 40.390653 
" style="fill:none;stroke:#000000;stroke-dasharray:1.5,2.475;stroke-dashoffset:0;stroke-width:1.5;"/>
    <g clip-path="url(#p9c0eb7e7f2)">
     <use style="stroke:#000000;" x="478.66549" xlink:href="#m7af4127c01" y="85.575758"/>
     <use style="stroke:#000000;" x="478.66549" xlink:href="#m7af4127c01" y="40.390653"/>
    </g>
   </g>
   <g id="line2d_18">
    <path clip-path="url(#p9c0eb7e7f2)" d="M 591.307448 62.229364 
L 591.307448 37.745597 
" style="fill:none;stroke:#000000;stroke-dasharray:1.5,2.475;stroke-dashoffset:0;stroke-width:1.5;"/>
    <g clip-path="url(#p9c0eb7e7f2)">
     <use style="stroke:#000000;" x="591.307448" xlink:href="#m7af4127c01" y="62.229364"/>
     <use style="stroke:#000000;" x="591.307448" xlink:href="#m7af4127c01" y="37.745597"/>
    </g>
   </g>
   <g id="line2d_19">
    <path clip-path="url(#p9c0eb7e7f2)" d="M 703.949406 130.813208 
L 703.949406 50.024043 
" style="fill:none;stroke:#000000;stroke-dasharray:1.5,2.475;stroke-dashoffset:0;stroke-width:1.5;"/>
    <g clip-path="url(#p9c0eb7e7f2)">
     <use style="stroke:#000000;" x="703.949406" xlink:href="#m7af4127c01" y="130.813208"/>
     <use style="stroke:#000000;" x="703.949406" xlink:href="#m7af4127c01" y="50.024043"/>
    </g>
   </g>
   <g id="line2d_20">
    <path clip-path="url(#p9c0eb7e7f2)" d="M 816.591364 95.732386 
L 816.591364 41.785781 
" style="fill:none;stroke:#000000;stroke-dasharray:1.5,2.475;stroke-dashoffset:0;stroke-width:1.5;"/>
    <g clip-path="url(#p9c0eb7e7f2)">
     <use style="stroke:#000000;" x="816.591364" xlink:href="#m7af4127c01" y="95.732386"/>
     <use style="stroke:#000000;" x="816.591364" xlink:href="#m7af4127c01" y="41.785781"/>
    </g>
   </g>
   <g id="line2d_21">
    <path clip-path="url(#p9c0eb7e7f2)" d="M 84.418636 279.578623 
L 84.418636 25.44 
" style="fill:none;stroke:#000000;stroke-dasharray:1.85,0.8;stroke-dashoffset:0;stroke-width:0.5;"/>
   </g>
   <g id="line2d_22">
    <path clip-path="url(#p9c0eb7e7f2)" d="M 47.81 36.991756 
L 853.2 36.991756 
" style="fill:none;stroke:#ff0000;stroke-dasharray:1.6,0.4,0.25,0.4;stroke-dashoffset:0;stroke-width:0.25;"/>
   </g>
   <g id="line2d_23">
    <path clip-path="url(#p9c0eb7e7f2)" d="M 47.81 94.750534 
L 853.2 94.750534 
" style="fill:none;stroke:#ff0000;stroke-dasharray:3.2,0.8,0.5,0.8;stroke-dashoffset:0;stroke-width:0.5;"/>
   </g>
   <g id="line2d_24">
    <path clip-path="url(#p9c0eb7e7f2)" d="M 47.81 152.509312 
L 853.2 152.509312 
" style="fill:none;stroke:#ff0000;stroke-dasharray:4.8,1.2,0.75,1.2;stroke-dashoffset:0;stroke-width:0.75;"/>
   </g>
   <g id="line2d_25">
    <path clip-path="url(#p9c0eb7e7f2)" d="M 47.81 210.26809 
L 853.2 210.26809 
" style="fill:none;stroke:#ff0000;stroke-dasharray:3.2,0.8,0.5,0.8;stroke-dashoffset:0;stroke-width:0.5;"/>
   </g>
   <g id="line2d_26">
    <path clip-path="url(#p9c0eb7e7f2)" d="M 47.81 268.026868 
L 853.2 268.026868 
" style="fill:none;stroke:#ff0000;stroke-dasharray:1.6,0.4,0.25,0.4;stroke-dashoffset:0;stroke-width:0.25;"/>
   </g>
   <g id="patch_3">
    <path d="M 47.81 279.578623 
L 47.81 25.44 
" style="fill:none;stroke:#000000;stroke-linecap:square;stroke-linejoin:miter;stroke-width:0.8;"/>
   </g>
   <g id="patch_4">
    <path d="M 853.2 279.578623 
L 853.2 25.44 
" style="fill:none;stroke:#000000;stroke-linecap:square;stroke-linejoin:miter;stroke-width:0.8;"/>
   </g>
   <g id="patch_5">
    <path d="M 47.81 279.578623 
L 853.2 279.578623 
" style="fill:none;stroke:#000000;stroke-linecap:square;stroke-linejoin:miter;stroke-width:0.8;"/>
   </g>
   <g id="patch_6">
    <path d="M 47.81 25.44 
L 853.2 25.44 
" style="fill:none;stroke:#000000;stroke-linecap:square;stroke-linejoin:miter;stroke-width:0.8;"/>
   </g>
   <g id="text_16">
    <!-- LLM checks - 20240314150845 - 80 iterations -->
    <g transform="translate(312.625938 19.44)scale(0.12 -0.12)">
     <defs>
      <path d="M 628 4666 
L 1259 4666 
L 1259 531 
L 3531 531 
L 3531 0 
L 628 0 
L 628 4666 
z
" id="DejaVuSans-4c" transform="scale(0.015625)"/>
      <path d="M 628 4666 
L 1569 4666 
L 2759 1491 
L 3956 4666 
L 4897 4666 
L 4897 0 
L 4281 0 
L 4281 4097 
L 3078 897 
L 2444 897 
L 1241 4097 
L 1241 0 
L 628 0 
L 628 4666 
z
" id="DejaVuSans-4d" transform="scale(0.015625)"/>
      <path id="DejaVuSans-20" transform="scale(0.015625)"/>
      <path d="M 313 2009 
L 1997 2009 
L 1997 1497 
L 313 1497 
L 313 2009 
z
" id="DejaVuSans-2d" transform="scale(0.015625)"/>
      <path d="M 2597 2516 
Q 3050 2419 3304 2112 
Q 3559 1806 3559 1356 
Q 3559 666 3084 287 
Q 2609 -91 1734 -91 
Q 1441 -91 1130 -33 
Q 819 25 488 141 
L 488 750 
Q 750 597 1062 519 
Q 1375 441 1716 441 
Q 2309 441 2620 675 
Q 2931 909 2931 1356 
Q 2931 1769 2642 2001 
Q 2353 2234 1838 2234 
L 1294 2234 
L 1294 2753 
L 1863 2753 
Q 2328 2753 2575 2939 
Q 2822 3125 2822 3475 
Q 2822 3834 2567 4026 
Q 2313 4219 1838 4219 
Q 1578 4219 1281 4162 
Q 984 4106 628 3988 
L 628 4550 
Q 988 4650 1302 4700 
Q 1616 4750 1894 4750 
Q 2613 4750 3031 4423 
Q 3450 4097 3450 3541 
Q 3450 3153 3228 2886 
Q 3006 2619 2597 2516 
z
" id="DejaVuSans-33" transform="scale(0.015625)"/>
      <path d="M 691 4666 
L 3169 4666 
L 3169 4134 
L 1269 4134 
L 1269 2991 
Q 1406 3038 1543 3061 
Q 1681 3084 1819 3084 
Q 2600 3084 3056 2656 
Q 3513 2228 3513 1497 
Q 3513 744 3044 326 
Q 2575 -91 1722 -91 
Q 1428 -91 1123 -41 
Q 819 9 494 109 
L 494 744 
Q 775 591 1075 516 
Q 1375 441 1709 441 
Q 2250 441 2565 725 
Q 2881 1009 2881 1497 
Q 2881 1984 2565 2268 
Q 2250 2553 1709 2553 
Q 1456 2553 1204 2497 
Q 953 2441 691 2322 
L 691 4666 
z
" id="DejaVuSans-35" transform="scale(0.015625)"/>
     </defs>
     <use xlink:href="#DejaVuSans-4c"/>
     <use x="55.712891" xlink:href="#DejaVuSans-4c"/>
     <use x="111.425781" xlink:href="#DejaVuSans-4d"/>
     <use x="197.705078" xlink:href="#DejaVuSans-20"/>
     <use x="229.492188" xlink:href="#DejaVuSans-63"/>
     <use x="284.472656" xlink:href="#DejaVuSans-68"/>
     <use x="347.851562" xlink:href="#DejaVuSans-65"/>
     <use x="409.375" xlink:href="#DejaVuSans-63"/>
     <use x="464.355469" xlink:href="#DejaVuSans-6b"/>
     <use x="522.265625" xlink:href="#DejaVuSans-73"/>
     <use x="574.365234" xlink:href="#DejaVuSans-20"/>
     <use x="606.152344" xlink:href="#DejaVuSans-2d"/>
     <use x="642.236328" xlink:href="#DejaVuSans-20"/>
     <use x="674.023438" xlink:href="#DejaVuSans-32"/>
     <use x="737.646484" xlink:href="#DejaVuSans-30"/>
     <use x="801.269531" xlink:href="#DejaVuSans-32"/>
     <use x="864.892578" xlink:href="#DejaVuSans-34"/>
     <use x="928.515625" xlink:href="#DejaVuSans-30"/>
     <use x="992.138672" xlink:href="#DejaVuSans-33"/>
     <use x="1055.761719" xlink:href="#DejaVuSans-31"/>
     <use x="1119.384766" xlink:href="#DejaVuSans-34"/>
     <use x="1183.007812" xlink:href="#DejaVuSans-31"/>
     <use x="1246.630859" xlink:href="#DejaVuSans-35"/>
     <use x="1310.253906" xlink:href="#DejaVuSans-30"/>
     <use x="1373.876953" xlink:href="#DejaVuSans-38"/>
     <use x="1437.5" xlink:href="#DejaVuSans-34"/>
     <use x="1501.123047" xlink:href="#DejaVuSans-35"/>
     <use x="1564.746094" xlink:href="#DejaVuSans-20"/>
     <use x="1596.533203" xlink:href="#DejaVuSans-2d"/>
     <use x="1632.617188" xlink:href="#DejaVuSans-20"/>
     <use x="1664.404297" xlink:href="#DejaVuSans-38"/>
     <use x="1728.027344" xlink:href="#DejaVuSans-30"/>
     <use x="1791.650391" xlink:href="#DejaVuSans-20"/>
     <use x="1823.4375" xlink:href="#DejaVuSans-69"/>
     <use x="1851.220703" xlink:href="#DejaVuSans-74"/>
     <use x="1890.429688" xlink:href="#DejaVuSans-65"/>
     <use x="1951.953125" xlink:href="#DejaVuSans-72"/>
     <use x="1993.066406" xlink:href="#DejaVuSans-61"/>
     <use x="2054.345703" xlink:href="#DejaVuSans-74"/>
     <use x="2093.554688" xlink:href="#DejaVuSans-69"/>
     <use x="2121.337891" xlink:href="#DejaVuSans-6f"/>
     <use x="2182.519531" xlink:href="#DejaVuSans-6e"/>
     <use x="2245.898438" xlink:href="#DejaVuSans-73"/>
    </g>
   </g>
  </g>
 </g>
 <defs>
  <clipPath id="p9c0eb7e7f2">
   <rect height="254.138623" width="805.39" x="47.81" y="25.44"/>
  </clipPath>
 </defs>
</svg>
