<?xml version="1.0" encoding="utf-8" standalone="no"?>
<!DOCTYPE svg PUBLIC "-//W3C//DTD SVG 1.1//EN"
  "http://www.w3.org/Graphics/SVG/1.1/DTD/svg11.dtd">
<svg xmlns:xlink="http://www.w3.org/1999/xlink" width="460.8pt" height="345.6pt" viewBox="0 0 460.8 345.6" xmlns="http://www.w3.org/2000/svg" version="1.1">
 <metadata>
  <rdf:RDF xmlns:dc="http://purl.org/dc/elements/1.1/" xmlns:cc="http://creativecommons.org/ns#" xmlns:rdf="http://www.w3.org/1999/02/22-rdf-syntax-ns#">
   <cc:Work>
    <dc:type rdf:resource="http://purl.org/dc/dcmitype/StillImage"/>
    <dc:date>2024-04-18T10:36:28.699368</dc:date>
    <dc:format>image/svg+xml</dc:format>
    <dc:creator>
     <cc:Agent>
      <dc:title>Matplotlib v3.8.0, https://matplotlib.org/</dc:title>
     </cc:Agent>
    </dc:creator>
   </cc:Work>
  </rdf:RDF>
 </metadata>
 <defs>
  <style type="text/css">*{stroke-linejoin: round; stroke-linecap: butt}</style>
 </defs>
 <g id="figure_1">
  <g id="patch_1">
   <path d="M 0 345.6 
L 460.8 345.6 
L 460.8 0 
L 0 0 
z
" style="fill: #ffffff"/>
  </g>
  <g id="axes_1">
   <g id="patch_2">
    <path d="M 47.81 303.64 
L 450 303.64 
L 450 25.44 
L 47.81 25.44 
z
" style="fill: #ffffff"/>
   </g>
   <g id="PolyCollection_1">
    <defs>
     <path id="md2b4e0899e" d="M 66.091364 -196.234545 
L 66.091364 -196.234545 
L 69.822254 -199.287428 
L 73.553145 -199.623168 
L 77.284035 -199.079773 
L 81.014926 -197.420466 
L 84.745816 -196.15361 
L 88.476707 -195.041421 
L 92.207597 -194.123968 
L 95.938488 -193.320604 
L 99.669378 -192.610501 
L 103.400269 -192.037876 
L 107.13116 -191.510637 
L 110.86205 -191.07055 
L 114.592941 -190.666677 
L 118.323831 -190.266022 
L 122.054722 -189.893598 
L 125.785612 -189.579737 
L 129.516503 -189.27055 
L 133.247393 -188.978623 
L 136.978284 -188.702617 
L 140.709174 -188.445203 
L 144.440065 -188.19879 
L 148.170955 -187.967117 
L 151.901846 -187.744478 
L 155.632737 -187.530234 
L 159.363627 -187.324094 
L 163.094518 -187.127382 
L 166.825408 -186.937857 
L 170.556299 -186.755954 
L 174.287189 -186.582053 
L 178.01808 -186.414398 
L 181.74897 -186.257466 
L 185.479861 -186.106919 
L 189.210751 -185.965127 
L 192.941642 -185.830365 
L 196.672532 -185.694646 
L 200.403423 -185.568342 
L 204.134314 -185.445373 
L 207.865204 -185.327916 
L 211.596095 -185.213373 
L 215.326985 -185.100737 
L 219.057876 -184.988861 
L 222.788766 -184.879861 
L 226.519657 -184.774677 
L 230.250547 -184.671106 
L 233.981438 -184.569389 
L 237.712328 -184.469671 
L 241.443219 -184.373103 
L 245.174109 -184.277768 
L 248.905 -184.184652 
L 252.635891 -184.093004 
L 256.366781 -184.003228 
L 260.097672 -183.915025 
L 263.828562 -183.828686 
L 267.559453 -183.745019 
L 271.290343 -183.663627 
L 275.021234 -183.583572 
L 278.752124 -183.504844 
L 282.483015 -183.428114 
L 286.213905 -183.351889 
L 289.944796 -183.277338 
L 293.675686 -183.204739 
L 297.406577 -183.133693 
L 301.137468 -183.064431 
L 304.868358 -182.997607 
L 308.599249 -182.932624 
L 312.330139 -182.867774 
L 316.06103 -182.804018 
L 319.79192 -182.742187 
L 323.522811 -182.681359 
L 327.253701 -182.623895 
L 330.984592 -182.567664 
L 334.715482 -182.510868 
L 338.446373 -182.45436 
L 342.177263 -182.399546 
L 345.908154 -182.345538 
L 349.639045 -182.291328 
L 353.369935 -182.237713 
L 357.100826 -182.18551 
L 360.831716 -182.135022 
L 364.562607 -182.087286 
L 368.293497 -182.038694 
L 372.024388 -181.992148 
L 375.755278 -181.947108 
L 379.486169 -181.903576 
L 383.217059 -181.860857 
L 386.94795 -181.819263 
L 390.67884 -181.776581 
L 394.409731 -181.734667 
L 398.140622 -181.694069 
L 401.871512 -181.654485 
L 405.602403 -181.615897 
L 409.333293 -181.576587 
L 413.064184 -181.538481 
L 416.795074 -181.501027 
L 420.525965 -181.466572 
L 424.256855 -181.432067 
L 427.987746 -181.399392 
L 431.718636 -181.36631 
L 431.718636 -173.535339 
L 431.718636 -173.535339 
L 427.987746 -173.534956 
L 424.256855 -173.532495 
L 420.525965 -173.533178 
L 416.795074 -173.53248 
L 413.064184 -173.538587 
L 409.333293 -173.545101 
L 405.602403 -173.553871 
L 401.871512 -173.558534 
L 398.140622 -173.564492 
L 394.409731 -173.571833 
L 390.67884 -173.58166 
L 386.94795 -173.592071 
L 383.217059 -173.596862 
L 379.486169 -173.603083 
L 375.755278 -173.609754 
L 372.024388 -173.619132 
L 368.293497 -173.631446 
L 364.562607 -173.649443 
L 360.831716 -173.66086 
L 357.100826 -173.680785 
L 353.369935 -173.706012 
L 349.639045 -173.73557 
L 345.908154 -173.763686 
L 342.177263 -173.785717 
L 338.446373 -173.807462 
L 334.715482 -173.83363 
L 330.984592 -173.856371 
L 327.253701 -173.872294 
L 323.522811 -173.889187 
L 319.79192 -173.917585 
L 316.06103 -173.945788 
L 312.330139 -173.979515 
L 308.599249 -174.013219 
L 304.868358 -174.040777 
L 301.137468 -174.072076 
L 297.406577 -174.111887 
L 293.675686 -174.156468 
L 289.944796 -174.203797 
L 286.213905 -174.259234 
L 282.483015 -174.320917 
L 278.752124 -174.369851 
L 275.021234 -174.424724 
L 271.290343 -174.47725 
L 267.559453 -174.527151 
L 263.828562 -174.583412 
L 260.097672 -174.656869 
L 256.366781 -174.742698 
L 252.635891 -174.838527 
L 248.905 -174.929077 
L 245.174109 -175.034744 
L 241.443219 -175.126086 
L 237.712328 -175.193482 
L 233.981438 -175.278992 
L 230.250547 -175.356489 
L 226.519657 -175.425063 
L 222.788766 -175.483751 
L 219.057876 -175.551392 
L 215.326985 -175.618352 
L 211.596095 -175.668086 
L 207.865204 -175.709846 
L 204.134314 -175.748215 
L 200.403423 -175.794477 
L 196.672532 -175.837012 
L 192.941642 -175.909292 
L 189.210751 -175.950368 
L 185.479861 -176.000739 
L 181.74897 -176.070143 
L 178.01808 -176.144263 
L 174.287189 -176.263176 
L 170.556299 -176.381727 
L 166.825408 -176.522717 
L 163.094518 -176.677234 
L 159.363627 -176.81912 
L 155.632737 -177.020745 
L 151.901846 -177.177562 
L 148.170955 -177.443285 
L 144.440065 -177.581096 
L 140.709174 -177.74983 
L 136.978284 -177.88886 
L 133.247393 -178.061171 
L 129.516503 -178.220046 
L 125.785612 -178.359016 
L 122.054722 -178.408828 
L 118.323831 -178.701475 
L 114.592941 -178.982619 
L 110.86205 -179.046753 
L 107.13116 -179.078563 
L 103.400269 -179.244613 
L 99.669378 -179.312336 
L 95.938488 -179.803841 
L 92.207597 -180.516537 
L 88.476707 -180.84578 
L 84.745816 -181.787259 
L 81.014926 -183.347364 
L 77.284035 -184.326742 
L 73.553145 -190.035822 
L 69.822254 -195.710754 
L 66.091364 -196.234545 
z
" style="stroke: #ff0000; stroke-opacity: 0.2"/>
    </defs>
    <g clip-path="url(#pc6d7506c05)">
     <use xlink:href="#md2b4e0899e" x="0" y="345.6" style="fill: #ff0000; fill-opacity: 0.2; stroke: #ff0000; stroke-opacity: 0.2"/>
    </g>
   </g>
   <g id="matplotlib.axis_1">
    <g id="xtick_1">
     <g id="line2d_1">
      <defs>
       <path id="m69b4396168" d="M 0 0 
L 0 3.5 
" style="stroke: #000000; stroke-width: 0.8"/>
      </defs>
      <g>
       <use xlink:href="#m69b4396168" x="66.091364" y="303.64" style="stroke: #000000; stroke-width: 0.8"/>
      </g>
     </g>
     <g id="text_1">
      <!-- 0 -->
      <g transform="translate(62.910114 318.238437) scale(0.1 -0.1)">
       <defs>
        <path id="DejaVuSans-30" d="M 2034 4250 
Q 1547 4250 1301 3770 
Q 1056 3291 1056 2328 
Q 1056 1369 1301 889 
Q 1547 409 2034 409 
Q 2525 409 2770 889 
Q 3016 1369 3016 2328 
Q 3016 3291 2770 3770 
Q 2525 4250 2034 4250 
z
M 2034 4750 
Q 2819 4750 3233 4129 
Q 3647 3509 3647 2328 
Q 3647 1150 3233 529 
Q 2819 -91 2034 -91 
Q 1250 -91 836 529 
Q 422 1150 422 2328 
Q 422 3509 836 4129 
Q 1250 4750 2034 4750 
z
" transform="scale(0.015625)"/>
       </defs>
       <use xlink:href="#DejaVuSans-30"/>
      </g>
     </g>
    </g>
    <g id="xtick_2">
     <g id="line2d_2">
      <g>
       <use xlink:href="#m69b4396168" x="140.709174" y="303.64" style="stroke: #000000; stroke-width: 0.8"/>
      </g>
     </g>
     <g id="text_2">
      <!-- 20 -->
      <g transform="translate(134.346674 318.238437) scale(0.1 -0.1)">
       <defs>
        <path id="DejaVuSans-32" d="M 1228 531 
L 3431 531 
L 3431 0 
L 469 0 
L 469 531 
Q 828 903 1448 1529 
Q 2069 2156 2228 2338 
Q 2531 2678 2651 2914 
Q 2772 3150 2772 3378 
Q 2772 3750 2511 3984 
Q 2250 4219 1831 4219 
Q 1534 4219 1204 4116 
Q 875 4013 500 3803 
L 500 4441 
Q 881 4594 1212 4672 
Q 1544 4750 1819 4750 
Q 2544 4750 2975 4387 
Q 3406 4025 3406 3419 
Q 3406 3131 3298 2873 
Q 3191 2616 2906 2266 
Q 2828 2175 2409 1742 
Q 1991 1309 1228 531 
z
" transform="scale(0.015625)"/>
       </defs>
       <use xlink:href="#DejaVuSans-32"/>
       <use xlink:href="#DejaVuSans-30" x="63.623047"/>
      </g>
     </g>
    </g>
    <g id="xtick_3">
     <g id="line2d_3">
      <g>
       <use xlink:href="#m69b4396168" x="215.326985" y="303.64" style="stroke: #000000; stroke-width: 0.8"/>
      </g>
     </g>
     <g id="text_3">
      <!-- 40 -->
      <g transform="translate(208.964485 318.238437) scale(0.1 -0.1)">
       <defs>
        <path id="DejaVuSans-34" d="M 2419 4116 
L 825 1625 
L 2419 1625 
L 2419 4116 
z
M 2253 4666 
L 3047 4666 
L 3047 1625 
L 3713 1625 
L 3713 1100 
L 3047 1100 
L 3047 0 
L 2419 0 
L 2419 1100 
L 313 1100 
L 313 1709 
L 2253 4666 
z
" transform="scale(0.015625)"/>
       </defs>
       <use xlink:href="#DejaVuSans-34"/>
       <use xlink:href="#DejaVuSans-30" x="63.623047"/>
      </g>
     </g>
    </g>
    <g id="xtick_4">
     <g id="line2d_4">
      <g>
       <use xlink:href="#m69b4396168" x="289.944796" y="303.64" style="stroke: #000000; stroke-width: 0.8"/>
      </g>
     </g>
     <g id="text_4">
      <!-- 60 -->
      <g transform="translate(283.582296 318.238437) scale(0.1 -0.1)">
       <defs>
        <path id="DejaVuSans-36" d="M 2113 2584 
Q 1688 2584 1439 2293 
Q 1191 2003 1191 1497 
Q 1191 994 1439 701 
Q 1688 409 2113 409 
Q 2538 409 2786 701 
Q 3034 994 3034 1497 
Q 3034 2003 2786 2293 
Q 2538 2584 2113 2584 
z
M 3366 4563 
L 3366 3988 
Q 3128 4100 2886 4159 
Q 2644 4219 2406 4219 
Q 1781 4219 1451 3797 
Q 1122 3375 1075 2522 
Q 1259 2794 1537 2939 
Q 1816 3084 2150 3084 
Q 2853 3084 3261 2657 
Q 3669 2231 3669 1497 
Q 3669 778 3244 343 
Q 2819 -91 2113 -91 
Q 1303 -91 875 529 
Q 447 1150 447 2328 
Q 447 3434 972 4092 
Q 1497 4750 2381 4750 
Q 2619 4750 2861 4703 
Q 3103 4656 3366 4563 
z
" transform="scale(0.015625)"/>
       </defs>
       <use xlink:href="#DejaVuSans-36"/>
       <use xlink:href="#DejaVuSans-30" x="63.623047"/>
      </g>
     </g>
    </g>
    <g id="xtick_5">
     <g id="line2d_5">
      <g>
       <use xlink:href="#m69b4396168" x="364.562607" y="303.64" style="stroke: #000000; stroke-width: 0.8"/>
      </g>
     </g>
     <g id="text_5">
      <!-- 80 -->
      <g transform="translate(358.200107 318.238437) scale(0.1 -0.1)">
       <defs>
        <path id="DejaVuSans-38" d="M 2034 2216 
Q 1584 2216 1326 1975 
Q 1069 1734 1069 1313 
Q 1069 891 1326 650 
Q 1584 409 2034 409 
Q 2484 409 2743 651 
Q 3003 894 3003 1313 
Q 3003 1734 2745 1975 
Q 2488 2216 2034 2216 
z
M 1403 2484 
Q 997 2584 770 2862 
Q 544 3141 544 3541 
Q 544 4100 942 4425 
Q 1341 4750 2034 4750 
Q 2731 4750 3128 4425 
Q 3525 4100 3525 3541 
Q 3525 3141 3298 2862 
Q 3072 2584 2669 2484 
Q 3125 2378 3379 2068 
Q 3634 1759 3634 1313 
Q 3634 634 3220 271 
Q 2806 -91 2034 -91 
Q 1263 -91 848 271 
Q 434 634 434 1313 
Q 434 1759 690 2068 
Q 947 2378 1403 2484 
z
M 1172 3481 
Q 1172 3119 1398 2916 
Q 1625 2713 2034 2713 
Q 2441 2713 2670 2916 
Q 2900 3119 2900 3481 
Q 2900 3844 2670 4047 
Q 2441 4250 2034 4250 
Q 1625 4250 1398 4047 
Q 1172 3844 1172 3481 
z
" transform="scale(0.015625)"/>
       </defs>
       <use xlink:href="#DejaVuSans-38"/>
       <use xlink:href="#DejaVuSans-30" x="63.623047"/>
      </g>
     </g>
    </g>
    <g id="xtick_6">
     <g id="line2d_6">
      <g>
       <use xlink:href="#m69b4396168" x="439.180417" y="303.64" style="stroke: #000000; stroke-width: 0.8"/>
      </g>
     </g>
     <g id="text_6">
      <!-- 100 -->
      <g transform="translate(429.636667 318.238437) scale(0.1 -0.1)">
       <defs>
        <path id="DejaVuSans-31" d="M 794 531 
L 1825 531 
L 1825 4091 
L 703 3866 
L 703 4441 
L 1819 4666 
L 2450 4666 
L 2450 531 
L 3481 531 
L 3481 0 
L 794 0 
L 794 531 
z
" transform="scale(0.015625)"/>
       </defs>
       <use xlink:href="#DejaVuSans-31"/>
       <use xlink:href="#DejaVuSans-30" x="63.623047"/>
       <use xlink:href="#DejaVuSans-30" x="127.246094"/>
      </g>
     </g>
    </g>
    <g id="text_7">
     <!-- Iteration -->
     <g transform="translate(227.696406 331.916562) scale(0.1 -0.1)">
      <defs>
       <path id="DejaVuSans-49" d="M 628 4666 
L 1259 4666 
L 1259 0 
L 628 0 
L 628 4666 
z
" transform="scale(0.015625)"/>
       <path id="DejaVuSans-74" d="M 1172 4494 
L 1172 3500 
L 2356 3500 
L 2356 3053 
L 1172 3053 
L 1172 1153 
Q 1172 725 1289 603 
Q 1406 481 1766 481 
L 2356 481 
L 2356 0 
L 1766 0 
Q 1100 0 847 248 
Q 594 497 594 1153 
L 594 3053 
L 172 3053 
L 172 3500 
L 594 3500 
L 594 4494 
L 1172 4494 
z
" transform="scale(0.015625)"/>
       <path id="DejaVuSans-65" d="M 3597 1894 
L 3597 1613 
L 953 1613 
Q 991 1019 1311 708 
Q 1631 397 2203 397 
Q 2534 397 2845 478 
Q 3156 559 3463 722 
L 3463 178 
Q 3153 47 2828 -22 
Q 2503 -91 2169 -91 
Q 1331 -91 842 396 
Q 353 884 353 1716 
Q 353 2575 817 3079 
Q 1281 3584 2069 3584 
Q 2775 3584 3186 3129 
Q 3597 2675 3597 1894 
z
M 3022 2063 
Q 3016 2534 2758 2815 
Q 2500 3097 2075 3097 
Q 1594 3097 1305 2825 
Q 1016 2553 972 2059 
L 3022 2063 
z
" transform="scale(0.015625)"/>
       <path id="DejaVuSans-72" d="M 2631 2963 
Q 2534 3019 2420 3045 
Q 2306 3072 2169 3072 
Q 1681 3072 1420 2755 
Q 1159 2438 1159 1844 
L 1159 0 
L 581 0 
L 581 3500 
L 1159 3500 
L 1159 2956 
Q 1341 3275 1631 3429 
Q 1922 3584 2338 3584 
Q 2397 3584 2469 3576 
Q 2541 3569 2628 3553 
L 2631 2963 
z
" transform="scale(0.015625)"/>
       <path id="DejaVuSans-61" d="M 2194 1759 
Q 1497 1759 1228 1600 
Q 959 1441 959 1056 
Q 959 750 1161 570 
Q 1363 391 1709 391 
Q 2188 391 2477 730 
Q 2766 1069 2766 1631 
L 2766 1759 
L 2194 1759 
z
M 3341 1997 
L 3341 0 
L 2766 0 
L 2766 531 
Q 2569 213 2275 61 
Q 1981 -91 1556 -91 
Q 1019 -91 701 211 
Q 384 513 384 1019 
Q 384 1609 779 1909 
Q 1175 2209 1959 2209 
L 2766 2209 
L 2766 2266 
Q 2766 2663 2505 2880 
Q 2244 3097 1772 3097 
Q 1472 3097 1187 3025 
Q 903 2953 641 2809 
L 641 3341 
Q 956 3463 1253 3523 
Q 1550 3584 1831 3584 
Q 2591 3584 2966 3190 
Q 3341 2797 3341 1997 
z
" transform="scale(0.015625)"/>
       <path id="DejaVuSans-69" d="M 603 3500 
L 1178 3500 
L 1178 0 
L 603 0 
L 603 3500 
z
M 603 4863 
L 1178 4863 
L 1178 4134 
L 603 4134 
L 603 4863 
z
" transform="scale(0.015625)"/>
       <path id="DejaVuSans-6f" d="M 1959 3097 
Q 1497 3097 1228 2736 
Q 959 2375 959 1747 
Q 959 1119 1226 758 
Q 1494 397 1959 397 
Q 2419 397 2687 759 
Q 2956 1122 2956 1747 
Q 2956 2369 2687 2733 
Q 2419 3097 1959 3097 
z
M 1959 3584 
Q 2709 3584 3137 3096 
Q 3566 2609 3566 1747 
Q 3566 888 3137 398 
Q 2709 -91 1959 -91 
Q 1206 -91 779 398 
Q 353 888 353 1747 
Q 353 2609 779 3096 
Q 1206 3584 1959 3584 
z
" transform="scale(0.015625)"/>
       <path id="DejaVuSans-6e" d="M 3513 2113 
L 3513 0 
L 2938 0 
L 2938 2094 
Q 2938 2591 2744 2837 
Q 2550 3084 2163 3084 
Q 1697 3084 1428 2787 
Q 1159 2491 1159 1978 
L 1159 0 
L 581 0 
L 581 3500 
L 1159 3500 
L 1159 2956 
Q 1366 3272 1645 3428 
Q 1925 3584 2291 3584 
Q 2894 3584 3203 3211 
Q 3513 2838 3513 2113 
z
" transform="scale(0.015625)"/>
      </defs>
      <use xlink:href="#DejaVuSans-49"/>
      <use xlink:href="#DejaVuSans-74" x="29.492188"/>
      <use xlink:href="#DejaVuSans-65" x="68.701172"/>
      <use xlink:href="#DejaVuSans-72" x="130.224609"/>
      <use xlink:href="#DejaVuSans-61" x="171.337891"/>
      <use xlink:href="#DejaVuSans-74" x="232.617188"/>
      <use xlink:href="#DejaVuSans-69" x="271.826172"/>
      <use xlink:href="#DejaVuSans-6f" x="299.609375"/>
      <use xlink:href="#DejaVuSans-6e" x="360.791016"/>
     </g>
    </g>
   </g>
   <g id="matplotlib.axis_2">
    <g id="ytick_1">
     <g id="line2d_7">
      <defs>
       <path id="m37af8f67b7" d="M 0 0 
L -3.5 0 
" style="stroke: #000000; stroke-width: 0.8"/>
      </defs>
      <g>
       <use xlink:href="#m37af8f67b7" x="47.81" y="290.994545" style="stroke: #000000; stroke-width: 0.8"/>
      </g>
     </g>
     <g id="text_8">
      <!-- 0.0 -->
      <g transform="translate(24.906875 294.793764) scale(0.1 -0.1)">
       <defs>
        <path id="DejaVuSans-2e" d="M 684 794 
L 1344 794 
L 1344 0 
L 684 0 
L 684 794 
z
" transform="scale(0.015625)"/>
       </defs>
       <use xlink:href="#DejaVuSans-30"/>
       <use xlink:href="#DejaVuSans-2e" x="63.623047"/>
       <use xlink:href="#DejaVuSans-30" x="95.410156"/>
      </g>
     </g>
    </g>
    <g id="ytick_2">
     <g id="line2d_8">
      <g>
       <use xlink:href="#m37af8f67b7" x="47.81" y="240.412727" style="stroke: #000000; stroke-width: 0.8"/>
      </g>
     </g>
     <g id="text_9">
      <!-- 0.2 -->
      <g transform="translate(24.906875 244.211946) scale(0.1 -0.1)">
       <use xlink:href="#DejaVuSans-30"/>
       <use xlink:href="#DejaVuSans-2e" x="63.623047"/>
       <use xlink:href="#DejaVuSans-32" x="95.410156"/>
      </g>
     </g>
    </g>
    <g id="ytick_3">
     <g id="line2d_9">
      <g>
       <use xlink:href="#m37af8f67b7" x="47.81" y="189.830909" style="stroke: #000000; stroke-width: 0.8"/>
      </g>
     </g>
     <g id="text_10">
      <!-- 0.4 -->
      <g transform="translate(24.906875 193.630128) scale(0.1 -0.1)">
       <use xlink:href="#DejaVuSans-30"/>
       <use xlink:href="#DejaVuSans-2e" x="63.623047"/>
       <use xlink:href="#DejaVuSans-34" x="95.410156"/>
      </g>
     </g>
    </g>
    <g id="ytick_4">
     <g id="line2d_10">
      <g>
       <use xlink:href="#m37af8f67b7" x="47.81" y="139.249091" style="stroke: #000000; stroke-width: 0.8"/>
      </g>
     </g>
     <g id="text_11">
      <!-- 0.6 -->
      <g transform="translate(24.906875 143.04831) scale(0.1 -0.1)">
       <use xlink:href="#DejaVuSans-30"/>
       <use xlink:href="#DejaVuSans-2e" x="63.623047"/>
       <use xlink:href="#DejaVuSans-36" x="95.410156"/>
      </g>
     </g>
    </g>
    <g id="ytick_5">
     <g id="line2d_11">
      <g>
       <use xlink:href="#m37af8f67b7" x="47.81" y="88.667273" style="stroke: #000000; stroke-width: 0.8"/>
      </g>
     </g>
     <g id="text_12">
      <!-- 0.8 -->
      <g transform="translate(24.906875 92.466491) scale(0.1 -0.1)">
       <use xlink:href="#DejaVuSans-30"/>
       <use xlink:href="#DejaVuSans-2e" x="63.623047"/>
       <use xlink:href="#DejaVuSans-38" x="95.410156"/>
      </g>
     </g>
    </g>
    <g id="ytick_6">
     <g id="line2d_12">
      <g>
       <use xlink:href="#m37af8f67b7" x="47.81" y="38.085455" style="stroke: #000000; stroke-width: 0.8"/>
      </g>
     </g>
     <g id="text_13">
      <!-- 1.0 -->
      <g transform="translate(24.906875 41.884673) scale(0.1 -0.1)">
       <use xlink:href="#DejaVuSans-31"/>
       <use xlink:href="#DejaVuSans-2e" x="63.623047"/>
       <use xlink:href="#DejaVuSans-30" x="95.410156"/>
      </g>
     </g>
    </g>
    <g id="text_14">
     <!-- Similarity -->
     <g transform="translate(18.827187 188.179844) rotate(-90) scale(0.1 -0.1)">
      <defs>
       <path id="DejaVuSans-53" d="M 3425 4513 
L 3425 3897 
Q 3066 4069 2747 4153 
Q 2428 4238 2131 4238 
Q 1616 4238 1336 4038 
Q 1056 3838 1056 3469 
Q 1056 3159 1242 3001 
Q 1428 2844 1947 2747 
L 2328 2669 
Q 3034 2534 3370 2195 
Q 3706 1856 3706 1288 
Q 3706 609 3251 259 
Q 2797 -91 1919 -91 
Q 1588 -91 1214 -16 
Q 841 59 441 206 
L 441 856 
Q 825 641 1194 531 
Q 1563 422 1919 422 
Q 2459 422 2753 634 
Q 3047 847 3047 1241 
Q 3047 1584 2836 1778 
Q 2625 1972 2144 2069 
L 1759 2144 
Q 1053 2284 737 2584 
Q 422 2884 422 3419 
Q 422 4038 858 4394 
Q 1294 4750 2059 4750 
Q 2388 4750 2728 4690 
Q 3069 4631 3425 4513 
z
" transform="scale(0.015625)"/>
       <path id="DejaVuSans-6d" d="M 3328 2828 
Q 3544 3216 3844 3400 
Q 4144 3584 4550 3584 
Q 5097 3584 5394 3201 
Q 5691 2819 5691 2113 
L 5691 0 
L 5113 0 
L 5113 2094 
Q 5113 2597 4934 2840 
Q 4756 3084 4391 3084 
Q 3944 3084 3684 2787 
Q 3425 2491 3425 1978 
L 3425 0 
L 2847 0 
L 2847 2094 
Q 2847 2600 2669 2842 
Q 2491 3084 2119 3084 
Q 1678 3084 1418 2786 
Q 1159 2488 1159 1978 
L 1159 0 
L 581 0 
L 581 3500 
L 1159 3500 
L 1159 2956 
Q 1356 3278 1631 3431 
Q 1906 3584 2284 3584 
Q 2666 3584 2933 3390 
Q 3200 3197 3328 2828 
z
" transform="scale(0.015625)"/>
       <path id="DejaVuSans-6c" d="M 603 4863 
L 1178 4863 
L 1178 0 
L 603 0 
L 603 4863 
z
" transform="scale(0.015625)"/>
       <path id="DejaVuSans-79" d="M 2059 -325 
Q 1816 -950 1584 -1140 
Q 1353 -1331 966 -1331 
L 506 -1331 
L 506 -850 
L 844 -850 
Q 1081 -850 1212 -737 
Q 1344 -625 1503 -206 
L 1606 56 
L 191 3500 
L 800 3500 
L 1894 763 
L 2988 3500 
L 3597 3500 
L 2059 -325 
z
" transform="scale(0.015625)"/>
      </defs>
      <use xlink:href="#DejaVuSans-53"/>
      <use xlink:href="#DejaVuSans-69" x="63.476562"/>
      <use xlink:href="#DejaVuSans-6d" x="91.259766"/>
      <use xlink:href="#DejaVuSans-69" x="188.671875"/>
      <use xlink:href="#DejaVuSans-6c" x="216.455078"/>
      <use xlink:href="#DejaVuSans-61" x="244.238281"/>
      <use xlink:href="#DejaVuSans-72" x="305.517578"/>
      <use xlink:href="#DejaVuSans-69" x="346.630859"/>
      <use xlink:href="#DejaVuSans-74" x="374.414062"/>
      <use xlink:href="#DejaVuSans-79" x="413.623047"/>
     </g>
    </g>
   </g>
   <g id="line2d_13">
    <path d="M 66.091364 149.365455 
L 69.822254 146.836364 
L 73.553145 156.109697 
L 77.284035 163.275455 
L 81.014926 160.493455 
L 84.745816 163.69697 
L 88.476707 163.817403 
L 92.207597 162.643182 
L 95.938488 165.10202 
L 99.669378 165.045818 
L 103.400269 163.160496 
L 107.13116 164.118485 
L 110.86205 163.372727 
L 114.592941 163.817403 
L 118.323831 165.888848 
L 122.054722 166.436818 
L 125.785612 164.54 
L 129.516503 165.66404 
L 133.247393 166.137321 
L 136.978284 166.563273 
L 140.709174 166.466926 
L 144.440065 167.069091 
L 148.170955 166.95913 
L 151.901846 168.755152 
L 155.632737 167.777236 
L 159.363627 168.625455 
L 163.094518 168.099461 
L 166.825408 168.514286 
L 170.556299 168.551661 
L 174.287189 168.417939 
L 178.01808 168.619179 
L 181.74897 168.0175 
L 185.479861 168.065399 
L 189.210751 167.812941 
L 192.941642 167.719429 
L 196.672532 168.474141 
L 200.403423 167.95769 
L 204.134314 168.133971 
L 207.865204 168.041818 
L 211.596095 168.207182 
L 215.326985 168.487849 
L 219.057876 168.996017 
L 222.788766 169.127653 
L 226.519657 169.023388 
L 230.250547 169.373374 
L 233.981438 169.708142 
L 237.712328 170.028665 
L 241.443219 169.703561 
L 245.174109 170.424007 
L 248.905 170.913309 
L 252.635891 170.689162 
L 256.366781 170.96 
L 260.097672 170.838868 
L 263.828562 170.628552 
L 267.559453 170.24195 
L 271.290343 170.14013 
L 275.021234 170.308102 
L 278.752124 170.470282 
L 282.483015 170.369769 
L 286.213905 170.862727 
L 289.944796 170.759076 
L 293.675686 170.577185 
L 297.406577 170.561645 
L 301.137468 170.467557 
L 304.868358 170.220727 
L 308.599249 170.134656 
L 312.330139 170.42863 
L 316.06103 170.490802 
L 319.79192 170.331252 
L 323.522811 170.393039 
L 327.253701 169.954392 
L 330.984592 169.949444 
L 334.715482 170.291083 
L 338.446373 170.486781 
L 342.177263 170.340048 
L 345.908154 170.396842 
L 349.639045 170.714923 
L 353.369935 170.830303 
L 357.100826 170.686651 
L 360.831716 170.483364 
L 364.562607 170.097755 
L 368.293497 170.461774 
L 372.024388 170.207601 
L 375.755278 170.079913 
L 379.486169 169.95523 
L 383.217059 169.951078 
L 386.94795 169.888882 
L 390.67884 170.230455 
L 394.409731 170.22335 
L 398.140622 170.104 
L 401.871512 170.042857 
L 405.602403 169.983043 
L 409.333293 170.25085 
L 413.064184 170.136286 
L 416.795074 170.130622 
L 420.525965 169.703561 
L 424.256855 169.806767 
L 427.987746 169.598182 
L 431.718636 169.75146 
" clip-path="url(#pc6d7506c05)" style="fill: none; stroke: #0000ff; stroke-linecap: square"/>
    <defs>
     <path id="m4198f7de20" d="M -0.49999 0.49999 
L 0.50001 0.49999 
L 0.50001 -0.50001 
L -0.49999 -0.50001 
z
"/>
    </defs>
    <g clip-path="url(#pc6d7506c05)">
     <use xlink:href="#m4198f7de20" x="66.091364" y="149.365455" style="fill: #0000ff"/>
     <use xlink:href="#m4198f7de20" x="69.822254" y="146.836364" style="fill: #0000ff"/>
     <use xlink:href="#m4198f7de20" x="73.553145" y="156.109697" style="fill: #0000ff"/>
     <use xlink:href="#m4198f7de20" x="77.284035" y="163.275455" style="fill: #0000ff"/>
     <use xlink:href="#m4198f7de20" x="81.014926" y="160.493455" style="fill: #0000ff"/>
     <use xlink:href="#m4198f7de20" x="84.745816" y="163.69697" style="fill: #0000ff"/>
     <use xlink:href="#m4198f7de20" x="88.476707" y="163.817403" style="fill: #0000ff"/>
     <use xlink:href="#m4198f7de20" x="92.207597" y="162.643182" style="fill: #0000ff"/>
     <use xlink:href="#m4198f7de20" x="95.938488" y="165.10202" style="fill: #0000ff"/>
     <use xlink:href="#m4198f7de20" x="99.669378" y="165.045818" style="fill: #0000ff"/>
     <use xlink:href="#m4198f7de20" x="103.400269" y="163.160496" style="fill: #0000ff"/>
     <use xlink:href="#m4198f7de20" x="107.13116" y="164.118485" style="fill: #0000ff"/>
     <use xlink:href="#m4198f7de20" x="110.86205" y="163.372727" style="fill: #0000ff"/>
     <use xlink:href="#m4198f7de20" x="114.592941" y="163.817403" style="fill: #0000ff"/>
     <use xlink:href="#m4198f7de20" x="118.323831" y="165.888848" style="fill: #0000ff"/>
     <use xlink:href="#m4198f7de20" x="122.054722" y="166.436818" style="fill: #0000ff"/>
     <use xlink:href="#m4198f7de20" x="125.785612" y="164.54" style="fill: #0000ff"/>
     <use xlink:href="#m4198f7de20" x="129.516503" y="165.66404" style="fill: #0000ff"/>
     <use xlink:href="#m4198f7de20" x="133.247393" y="166.137321" style="fill: #0000ff"/>
     <use xlink:href="#m4198f7de20" x="136.978284" y="166.563273" style="fill: #0000ff"/>
     <use xlink:href="#m4198f7de20" x="140.709174" y="166.466926" style="fill: #0000ff"/>
     <use xlink:href="#m4198f7de20" x="144.440065" y="167.069091" style="fill: #0000ff"/>
     <use xlink:href="#m4198f7de20" x="148.170955" y="166.95913" style="fill: #0000ff"/>
     <use xlink:href="#m4198f7de20" x="151.901846" y="168.755152" style="fill: #0000ff"/>
     <use xlink:href="#m4198f7de20" x="155.632737" y="167.777236" style="fill: #0000ff"/>
     <use xlink:href="#m4198f7de20" x="159.363627" y="168.625455" style="fill: #0000ff"/>
     <use xlink:href="#m4198f7de20" x="163.094518" y="168.099461" style="fill: #0000ff"/>
     <use xlink:href="#m4198f7de20" x="166.825408" y="168.514286" style="fill: #0000ff"/>
     <use xlink:href="#m4198f7de20" x="170.556299" y="168.551661" style="fill: #0000ff"/>
     <use xlink:href="#m4198f7de20" x="174.287189" y="168.417939" style="fill: #0000ff"/>
     <use xlink:href="#m4198f7de20" x="178.01808" y="168.619179" style="fill: #0000ff"/>
     <use xlink:href="#m4198f7de20" x="181.74897" y="168.0175" style="fill: #0000ff"/>
     <use xlink:href="#m4198f7de20" x="185.479861" y="168.065399" style="fill: #0000ff"/>
     <use xlink:href="#m4198f7de20" x="189.210751" y="167.812941" style="fill: #0000ff"/>
     <use xlink:href="#m4198f7de20" x="192.941642" y="167.719429" style="fill: #0000ff"/>
     <use xlink:href="#m4198f7de20" x="196.672532" y="168.474141" style="fill: #0000ff"/>
     <use xlink:href="#m4198f7de20" x="200.403423" y="167.95769" style="fill: #0000ff"/>
     <use xlink:href="#m4198f7de20" x="204.134314" y="168.133971" style="fill: #0000ff"/>
     <use xlink:href="#m4198f7de20" x="207.865204" y="168.041818" style="fill: #0000ff"/>
     <use xlink:href="#m4198f7de20" x="211.596095" y="168.207182" style="fill: #0000ff"/>
     <use xlink:href="#m4198f7de20" x="215.326985" y="168.487849" style="fill: #0000ff"/>
     <use xlink:href="#m4198f7de20" x="219.057876" y="168.996017" style="fill: #0000ff"/>
     <use xlink:href="#m4198f7de20" x="222.788766" y="169.127653" style="fill: #0000ff"/>
     <use xlink:href="#m4198f7de20" x="226.519657" y="169.023388" style="fill: #0000ff"/>
     <use xlink:href="#m4198f7de20" x="230.250547" y="169.373374" style="fill: #0000ff"/>
     <use xlink:href="#m4198f7de20" x="233.981438" y="169.708142" style="fill: #0000ff"/>
     <use xlink:href="#m4198f7de20" x="237.712328" y="170.028665" style="fill: #0000ff"/>
     <use xlink:href="#m4198f7de20" x="241.443219" y="169.703561" style="fill: #0000ff"/>
     <use xlink:href="#m4198f7de20" x="245.174109" y="170.424007" style="fill: #0000ff"/>
     <use xlink:href="#m4198f7de20" x="248.905" y="170.913309" style="fill: #0000ff"/>
     <use xlink:href="#m4198f7de20" x="252.635891" y="170.689162" style="fill: #0000ff"/>
     <use xlink:href="#m4198f7de20" x="256.366781" y="170.96" style="fill: #0000ff"/>
     <use xlink:href="#m4198f7de20" x="260.097672" y="170.838868" style="fill: #0000ff"/>
     <use xlink:href="#m4198f7de20" x="263.828562" y="170.628552" style="fill: #0000ff"/>
     <use xlink:href="#m4198f7de20" x="267.559453" y="170.24195" style="fill: #0000ff"/>
     <use xlink:href="#m4198f7de20" x="271.290343" y="170.14013" style="fill: #0000ff"/>
     <use xlink:href="#m4198f7de20" x="275.021234" y="170.308102" style="fill: #0000ff"/>
     <use xlink:href="#m4198f7de20" x="278.752124" y="170.470282" style="fill: #0000ff"/>
     <use xlink:href="#m4198f7de20" x="282.483015" y="170.369769" style="fill: #0000ff"/>
     <use xlink:href="#m4198f7de20" x="286.213905" y="170.862727" style="fill: #0000ff"/>
     <use xlink:href="#m4198f7de20" x="289.944796" y="170.759076" style="fill: #0000ff"/>
     <use xlink:href="#m4198f7de20" x="293.675686" y="170.577185" style="fill: #0000ff"/>
     <use xlink:href="#m4198f7de20" x="297.406577" y="170.561645" style="fill: #0000ff"/>
     <use xlink:href="#m4198f7de20" x="301.137468" y="170.467557" style="fill: #0000ff"/>
     <use xlink:href="#m4198f7de20" x="304.868358" y="170.220727" style="fill: #0000ff"/>
     <use xlink:href="#m4198f7de20" x="308.599249" y="170.134656" style="fill: #0000ff"/>
     <use xlink:href="#m4198f7de20" x="312.330139" y="170.42863" style="fill: #0000ff"/>
     <use xlink:href="#m4198f7de20" x="316.06103" y="170.490802" style="fill: #0000ff"/>
     <use xlink:href="#m4198f7de20" x="319.79192" y="170.331252" style="fill: #0000ff"/>
     <use xlink:href="#m4198f7de20" x="323.522811" y="170.393039" style="fill: #0000ff"/>
     <use xlink:href="#m4198f7de20" x="327.253701" y="169.954392" style="fill: #0000ff"/>
     <use xlink:href="#m4198f7de20" x="330.984592" y="169.949444" style="fill: #0000ff"/>
     <use xlink:href="#m4198f7de20" x="334.715482" y="170.291083" style="fill: #0000ff"/>
     <use xlink:href="#m4198f7de20" x="338.446373" y="170.486781" style="fill: #0000ff"/>
     <use xlink:href="#m4198f7de20" x="342.177263" y="170.340048" style="fill: #0000ff"/>
     <use xlink:href="#m4198f7de20" x="345.908154" y="170.396842" style="fill: #0000ff"/>
     <use xlink:href="#m4198f7de20" x="349.639045" y="170.714923" style="fill: #0000ff"/>
     <use xlink:href="#m4198f7de20" x="353.369935" y="170.830303" style="fill: #0000ff"/>
     <use xlink:href="#m4198f7de20" x="357.100826" y="170.686651" style="fill: #0000ff"/>
     <use xlink:href="#m4198f7de20" x="360.831716" y="170.483364" style="fill: #0000ff"/>
     <use xlink:href="#m4198f7de20" x="364.562607" y="170.097755" style="fill: #0000ff"/>
     <use xlink:href="#m4198f7de20" x="368.293497" y="170.461774" style="fill: #0000ff"/>
     <use xlink:href="#m4198f7de20" x="372.024388" y="170.207601" style="fill: #0000ff"/>
     <use xlink:href="#m4198f7de20" x="375.755278" y="170.079913" style="fill: #0000ff"/>
     <use xlink:href="#m4198f7de20" x="379.486169" y="169.95523" style="fill: #0000ff"/>
     <use xlink:href="#m4198f7de20" x="383.217059" y="169.951078" style="fill: #0000ff"/>
     <use xlink:href="#m4198f7de20" x="386.94795" y="169.888882" style="fill: #0000ff"/>
     <use xlink:href="#m4198f7de20" x="390.67884" y="170.230455" style="fill: #0000ff"/>
     <use xlink:href="#m4198f7de20" x="394.409731" y="170.22335" style="fill: #0000ff"/>
     <use xlink:href="#m4198f7de20" x="398.140622" y="170.104" style="fill: #0000ff"/>
     <use xlink:href="#m4198f7de20" x="401.871512" y="170.042857" style="fill: #0000ff"/>
     <use xlink:href="#m4198f7de20" x="405.602403" y="169.983043" style="fill: #0000ff"/>
     <use xlink:href="#m4198f7de20" x="409.333293" y="170.25085" style="fill: #0000ff"/>
     <use xlink:href="#m4198f7de20" x="413.064184" y="170.136286" style="fill: #0000ff"/>
     <use xlink:href="#m4198f7de20" x="416.795074" y="170.130622" style="fill: #0000ff"/>
     <use xlink:href="#m4198f7de20" x="420.525965" y="169.703561" style="fill: #0000ff"/>
     <use xlink:href="#m4198f7de20" x="424.256855" y="169.806767" style="fill: #0000ff"/>
     <use xlink:href="#m4198f7de20" x="427.987746" y="169.598182" style="fill: #0000ff"/>
     <use xlink:href="#m4198f7de20" x="431.718636" y="169.75146" style="fill: #0000ff"/>
    </g>
   </g>
   <g id="line2d_14">
    <path d="M 66.091364 149.365455 
L 69.822254 148.100909 
L 73.553145 150.770505 
L 77.284035 153.896742 
L 81.014926 155.216085 
L 84.745816 156.629566 
L 88.476707 157.6564 
L 92.207597 158.279747 
L 95.938488 159.037778 
L 99.669378 159.638582 
L 103.400269 159.958756 
L 107.13116 160.3054 
L 110.86205 160.541348 
L 114.592941 160.775352 
L 118.323831 161.116252 
L 122.054722 161.448787 
L 125.785612 161.630623 
L 129.516503 161.854702 
L 133.247393 162.080103 
L 136.978284 162.304261 
L 140.709174 162.502484 
L 144.440065 162.710057 
L 148.170955 162.894799 
L 151.901846 163.13898 
L 155.632737 163.324511 
L 159.363627 163.528393 
L 163.094518 163.697692 
L 166.825408 163.869713 
L 170.556299 164.03116 
L 174.287189 164.177386 
L 178.01808 164.320669 
L 181.74897 164.436195 
L 185.479861 164.546171 
L 189.210751 164.642253 
L 192.941642 164.730172 
L 196.672532 164.834171 
L 200.403423 164.91859 
L 204.134314 165.003206 
L 207.865204 165.081119 
L 211.596095 165.15927 
L 215.326985 165.240455 
L 219.057876 165.329873 
L 222.788766 165.418194 
L 226.519657 165.50013 
L 230.250547 165.586202 
L 233.981438 165.67581 
L 237.712328 165.768424 
L 241.443219 165.850406 
L 245.174109 165.943744 
L 248.905 166.043136 
L 252.635891 166.134234 
L 256.366781 166.227037 
L 260.097672 166.314053 
L 263.828562 166.393951 
L 267.559453 166.463915 
L 271.290343 166.529562 
L 275.021234 166.595852 
L 278.752124 166.662652 
L 282.483015 166.725485 
L 286.213905 166.794439 
L 289.944796 166.859433 
L 293.675686 166.919397 
L 297.406577 166.97721 
L 301.137468 167.031747 
L 304.868358 167.080808 
L 308.599249 167.127078 
L 312.330139 167.176355 
L 316.06103 167.225097 
L 319.79192 167.270114 
L 323.522811 167.314727 
L 327.253701 167.351905 
L 330.984592 167.387982 
L 334.715482 167.427751 
L 338.446373 167.469089 
L 342.177263 167.507369 
L 345.908154 167.545388 
L 349.639045 167.586551 
L 353.369935 167.628137 
L 357.100826 167.666853 
L 360.831716 167.702059 
L 364.562607 167.731636 
L 368.293497 167.76493 
L 372.024388 167.79436 
L 375.755278 167.821569 
L 379.486169 167.846671 
L 383.217059 167.87114 
L 386.94795 167.894333 
L 390.67884 167.92088 
L 394.409731 167.94675 
L 398.140622 167.97072 
L 401.871512 167.99349 
L 405.602403 168.015116 
L 409.333293 168.039156 
L 413.064184 168.061466 
L 416.795074 168.083247 
L 420.525965 168.100125 
L 424.256855 168.117719 
L 427.987746 168.132826 
L 431.718636 168.149176 
" clip-path="url(#pc6d7506c05)" style="fill: none; stroke: #ff0000; stroke-opacity: 0.5; stroke-width: 0.5; stroke-linecap: square"/>
    <defs>
     <path id="m222696ebba" d="M -0.49999 0.49999 
L 0.50001 0.49999 
L 0.50001 -0.50001 
L -0.49999 -0.50001 
z
"/>
    </defs>
    <g clip-path="url(#pc6d7506c05)">
     <use xlink:href="#m222696ebba" x="66.091364" y="149.365455" style="fill: #ff0000; fill-opacity: 0.5"/>
     <use xlink:href="#m222696ebba" x="69.822254" y="148.100909" style="fill: #ff0000; fill-opacity: 0.5"/>
     <use xlink:href="#m222696ebba" x="73.553145" y="150.770505" style="fill: #ff0000; fill-opacity: 0.5"/>
     <use xlink:href="#m222696ebba" x="77.284035" y="153.896742" style="fill: #ff0000; fill-opacity: 0.5"/>
     <use xlink:href="#m222696ebba" x="81.014926" y="155.216085" style="fill: #ff0000; fill-opacity: 0.5"/>
     <use xlink:href="#m222696ebba" x="84.745816" y="156.629566" style="fill: #ff0000; fill-opacity: 0.5"/>
     <use xlink:href="#m222696ebba" x="88.476707" y="157.6564" style="fill: #ff0000; fill-opacity: 0.5"/>
     <use xlink:href="#m222696ebba" x="92.207597" y="158.279747" style="fill: #ff0000; fill-opacity: 0.5"/>
     <use xlink:href="#m222696ebba" x="95.938488" y="159.037778" style="fill: #ff0000; fill-opacity: 0.5"/>
     <use xlink:href="#m222696ebba" x="99.669378" y="159.638582" style="fill: #ff0000; fill-opacity: 0.5"/>
     <use xlink:href="#m222696ebba" x="103.400269" y="159.958756" style="fill: #ff0000; fill-opacity: 0.5"/>
     <use xlink:href="#m222696ebba" x="107.13116" y="160.3054" style="fill: #ff0000; fill-opacity: 0.5"/>
     <use xlink:href="#m222696ebba" x="110.86205" y="160.541348" style="fill: #ff0000; fill-opacity: 0.5"/>
     <use xlink:href="#m222696ebba" x="114.592941" y="160.775352" style="fill: #ff0000; fill-opacity: 0.5"/>
     <use xlink:href="#m222696ebba" x="118.323831" y="161.116252" style="fill: #ff0000; fill-opacity: 0.5"/>
     <use xlink:href="#m222696ebba" x="122.054722" y="161.448787" style="fill: #ff0000; fill-opacity: 0.5"/>
     <use xlink:href="#m222696ebba" x="125.785612" y="161.630623" style="fill: #ff0000; fill-opacity: 0.5"/>
     <use xlink:href="#m222696ebba" x="129.516503" y="161.854702" style="fill: #ff0000; fill-opacity: 0.5"/>
     <use xlink:href="#m222696ebba" x="133.247393" y="162.080103" style="fill: #ff0000; fill-opacity: 0.5"/>
     <use xlink:href="#m222696ebba" x="136.978284" y="162.304261" style="fill: #ff0000; fill-opacity: 0.5"/>
     <use xlink:href="#m222696ebba" x="140.709174" y="162.502484" style="fill: #ff0000; fill-opacity: 0.5"/>
     <use xlink:href="#m222696ebba" x="144.440065" y="162.710057" style="fill: #ff0000; fill-opacity: 0.5"/>
     <use xlink:href="#m222696ebba" x="148.170955" y="162.894799" style="fill: #ff0000; fill-opacity: 0.5"/>
     <use xlink:href="#m222696ebba" x="151.901846" y="163.13898" style="fill: #ff0000; fill-opacity: 0.5"/>
     <use xlink:href="#m222696ebba" x="155.632737" y="163.324511" style="fill: #ff0000; fill-opacity: 0.5"/>
     <use xlink:href="#m222696ebba" x="159.363627" y="163.528393" style="fill: #ff0000; fill-opacity: 0.5"/>
     <use xlink:href="#m222696ebba" x="163.094518" y="163.697692" style="fill: #ff0000; fill-opacity: 0.5"/>
     <use xlink:href="#m222696ebba" x="166.825408" y="163.869713" style="fill: #ff0000; fill-opacity: 0.5"/>
     <use xlink:href="#m222696ebba" x="170.556299" y="164.03116" style="fill: #ff0000; fill-opacity: 0.5"/>
     <use xlink:href="#m222696ebba" x="174.287189" y="164.177386" style="fill: #ff0000; fill-opacity: 0.5"/>
     <use xlink:href="#m222696ebba" x="178.01808" y="164.320669" style="fill: #ff0000; fill-opacity: 0.5"/>
     <use xlink:href="#m222696ebba" x="181.74897" y="164.436195" style="fill: #ff0000; fill-opacity: 0.5"/>
     <use xlink:href="#m222696ebba" x="185.479861" y="164.546171" style="fill: #ff0000; fill-opacity: 0.5"/>
     <use xlink:href="#m222696ebba" x="189.210751" y="164.642253" style="fill: #ff0000; fill-opacity: 0.5"/>
     <use xlink:href="#m222696ebba" x="192.941642" y="164.730172" style="fill: #ff0000; fill-opacity: 0.5"/>
     <use xlink:href="#m222696ebba" x="196.672532" y="164.834171" style="fill: #ff0000; fill-opacity: 0.5"/>
     <use xlink:href="#m222696ebba" x="200.403423" y="164.91859" style="fill: #ff0000; fill-opacity: 0.5"/>
     <use xlink:href="#m222696ebba" x="204.134314" y="165.003206" style="fill: #ff0000; fill-opacity: 0.5"/>
     <use xlink:href="#m222696ebba" x="207.865204" y="165.081119" style="fill: #ff0000; fill-opacity: 0.5"/>
     <use xlink:href="#m222696ebba" x="211.596095" y="165.15927" style="fill: #ff0000; fill-opacity: 0.5"/>
     <use xlink:href="#m222696ebba" x="215.326985" y="165.240455" style="fill: #ff0000; fill-opacity: 0.5"/>
     <use xlink:href="#m222696ebba" x="219.057876" y="165.329873" style="fill: #ff0000; fill-opacity: 0.5"/>
     <use xlink:href="#m222696ebba" x="222.788766" y="165.418194" style="fill: #ff0000; fill-opacity: 0.5"/>
     <use xlink:href="#m222696ebba" x="226.519657" y="165.50013" style="fill: #ff0000; fill-opacity: 0.5"/>
     <use xlink:href="#m222696ebba" x="230.250547" y="165.586202" style="fill: #ff0000; fill-opacity: 0.5"/>
     <use xlink:href="#m222696ebba" x="233.981438" y="165.67581" style="fill: #ff0000; fill-opacity: 0.5"/>
     <use xlink:href="#m222696ebba" x="237.712328" y="165.768424" style="fill: #ff0000; fill-opacity: 0.5"/>
     <use xlink:href="#m222696ebba" x="241.443219" y="165.850406" style="fill: #ff0000; fill-opacity: 0.5"/>
     <use xlink:href="#m222696ebba" x="245.174109" y="165.943744" style="fill: #ff0000; fill-opacity: 0.5"/>
     <use xlink:href="#m222696ebba" x="248.905" y="166.043136" style="fill: #ff0000; fill-opacity: 0.5"/>
     <use xlink:href="#m222696ebba" x="252.635891" y="166.134234" style="fill: #ff0000; fill-opacity: 0.5"/>
     <use xlink:href="#m222696ebba" x="256.366781" y="166.227037" style="fill: #ff0000; fill-opacity: 0.5"/>
     <use xlink:href="#m222696ebba" x="260.097672" y="166.314053" style="fill: #ff0000; fill-opacity: 0.5"/>
     <use xlink:href="#m222696ebba" x="263.828562" y="166.393951" style="fill: #ff0000; fill-opacity: 0.5"/>
     <use xlink:href="#m222696ebba" x="267.559453" y="166.463915" style="fill: #ff0000; fill-opacity: 0.5"/>
     <use xlink:href="#m222696ebba" x="271.290343" y="166.529562" style="fill: #ff0000; fill-opacity: 0.5"/>
     <use xlink:href="#m222696ebba" x="275.021234" y="166.595852" style="fill: #ff0000; fill-opacity: 0.5"/>
     <use xlink:href="#m222696ebba" x="278.752124" y="166.662652" style="fill: #ff0000; fill-opacity: 0.5"/>
     <use xlink:href="#m222696ebba" x="282.483015" y="166.725485" style="fill: #ff0000; fill-opacity: 0.5"/>
     <use xlink:href="#m222696ebba" x="286.213905" y="166.794439" style="fill: #ff0000; fill-opacity: 0.5"/>
     <use xlink:href="#m222696ebba" x="289.944796" y="166.859433" style="fill: #ff0000; fill-opacity: 0.5"/>
     <use xlink:href="#m222696ebba" x="293.675686" y="166.919397" style="fill: #ff0000; fill-opacity: 0.5"/>
     <use xlink:href="#m222696ebba" x="297.406577" y="166.97721" style="fill: #ff0000; fill-opacity: 0.5"/>
     <use xlink:href="#m222696ebba" x="301.137468" y="167.031747" style="fill: #ff0000; fill-opacity: 0.5"/>
     <use xlink:href="#m222696ebba" x="304.868358" y="167.080808" style="fill: #ff0000; fill-opacity: 0.5"/>
     <use xlink:href="#m222696ebba" x="308.599249" y="167.127078" style="fill: #ff0000; fill-opacity: 0.5"/>
     <use xlink:href="#m222696ebba" x="312.330139" y="167.176355" style="fill: #ff0000; fill-opacity: 0.5"/>
     <use xlink:href="#m222696ebba" x="316.06103" y="167.225097" style="fill: #ff0000; fill-opacity: 0.5"/>
     <use xlink:href="#m222696ebba" x="319.79192" y="167.270114" style="fill: #ff0000; fill-opacity: 0.5"/>
     <use xlink:href="#m222696ebba" x="323.522811" y="167.314727" style="fill: #ff0000; fill-opacity: 0.5"/>
     <use xlink:href="#m222696ebba" x="327.253701" y="167.351905" style="fill: #ff0000; fill-opacity: 0.5"/>
     <use xlink:href="#m222696ebba" x="330.984592" y="167.387982" style="fill: #ff0000; fill-opacity: 0.5"/>
     <use xlink:href="#m222696ebba" x="334.715482" y="167.427751" style="fill: #ff0000; fill-opacity: 0.5"/>
     <use xlink:href="#m222696ebba" x="338.446373" y="167.469089" style="fill: #ff0000; fill-opacity: 0.5"/>
     <use xlink:href="#m222696ebba" x="342.177263" y="167.507369" style="fill: #ff0000; fill-opacity: 0.5"/>
     <use xlink:href="#m222696ebba" x="345.908154" y="167.545388" style="fill: #ff0000; fill-opacity: 0.5"/>
     <use xlink:href="#m222696ebba" x="349.639045" y="167.586551" style="fill: #ff0000; fill-opacity: 0.5"/>
     <use xlink:href="#m222696ebba" x="353.369935" y="167.628137" style="fill: #ff0000; fill-opacity: 0.5"/>
     <use xlink:href="#m222696ebba" x="357.100826" y="167.666853" style="fill: #ff0000; fill-opacity: 0.5"/>
     <use xlink:href="#m222696ebba" x="360.831716" y="167.702059" style="fill: #ff0000; fill-opacity: 0.5"/>
     <use xlink:href="#m222696ebba" x="364.562607" y="167.731636" style="fill: #ff0000; fill-opacity: 0.5"/>
     <use xlink:href="#m222696ebba" x="368.293497" y="167.76493" style="fill: #ff0000; fill-opacity: 0.5"/>
     <use xlink:href="#m222696ebba" x="372.024388" y="167.79436" style="fill: #ff0000; fill-opacity: 0.5"/>
     <use xlink:href="#m222696ebba" x="375.755278" y="167.821569" style="fill: #ff0000; fill-opacity: 0.5"/>
     <use xlink:href="#m222696ebba" x="379.486169" y="167.846671" style="fill: #ff0000; fill-opacity: 0.5"/>
     <use xlink:href="#m222696ebba" x="383.217059" y="167.87114" style="fill: #ff0000; fill-opacity: 0.5"/>
     <use xlink:href="#m222696ebba" x="386.94795" y="167.894333" style="fill: #ff0000; fill-opacity: 0.5"/>
     <use xlink:href="#m222696ebba" x="390.67884" y="167.92088" style="fill: #ff0000; fill-opacity: 0.5"/>
     <use xlink:href="#m222696ebba" x="394.409731" y="167.94675" style="fill: #ff0000; fill-opacity: 0.5"/>
     <use xlink:href="#m222696ebba" x="398.140622" y="167.97072" style="fill: #ff0000; fill-opacity: 0.5"/>
     <use xlink:href="#m222696ebba" x="401.871512" y="167.99349" style="fill: #ff0000; fill-opacity: 0.5"/>
     <use xlink:href="#m222696ebba" x="405.602403" y="168.015116" style="fill: #ff0000; fill-opacity: 0.5"/>
     <use xlink:href="#m222696ebba" x="409.333293" y="168.039156" style="fill: #ff0000; fill-opacity: 0.5"/>
     <use xlink:href="#m222696ebba" x="413.064184" y="168.061466" style="fill: #ff0000; fill-opacity: 0.5"/>
     <use xlink:href="#m222696ebba" x="416.795074" y="168.083247" style="fill: #ff0000; fill-opacity: 0.5"/>
     <use xlink:href="#m222696ebba" x="420.525965" y="168.100125" style="fill: #ff0000; fill-opacity: 0.5"/>
     <use xlink:href="#m222696ebba" x="424.256855" y="168.117719" style="fill: #ff0000; fill-opacity: 0.5"/>
     <use xlink:href="#m222696ebba" x="427.987746" y="168.132826" style="fill: #ff0000; fill-opacity: 0.5"/>
     <use xlink:href="#m222696ebba" x="431.718636" y="168.149176" style="fill: #ff0000; fill-opacity: 0.5"/>
    </g>
   </g>
   <g id="line2d_15">
    <path d="M 47.81 290.994545 
L 450 290.994545 
" clip-path="url(#pc6d7506c05)" style="fill: none; stroke-dasharray: 0.555,0.24; stroke-dashoffset: 0; stroke: #ff0000; stroke-width: 0.15"/>
   </g>
   <g id="line2d_16">
    <path d="M 47.81 164.54 
L 450 164.54 
" clip-path="url(#pc6d7506c05)" style="fill: none; stroke-dasharray: 0.555,0.24; stroke-dashoffset: 0; stroke: #ff0000; stroke-width: 0.15"/>
   </g>
   <g id="line2d_17">
    <path d="M 47.81 38.085455 
L 450 38.085455 
" clip-path="url(#pc6d7506c05)" style="fill: none; stroke-dasharray: 0.555,0.24; stroke-dashoffset: 0; stroke: #ff0000; stroke-width: 0.15"/>
   </g>
   <g id="patch_3">
    <path d="M 47.81 303.64 
L 47.81 25.44 
" style="fill: none; stroke: #000000; stroke-width: 0.8; stroke-linejoin: miter; stroke-linecap: square"/>
   </g>
   <g id="patch_4">
    <path d="M 450 303.64 
L 450 25.44 
" style="fill: none; stroke: #000000; stroke-width: 0.8; stroke-linejoin: miter; stroke-linecap: square"/>
   </g>
   <g id="patch_5">
    <path d="M 47.81 303.64 
L 450 303.64 
" style="fill: none; stroke: #000000; stroke-width: 0.8; stroke-linejoin: miter; stroke-linecap: square"/>
   </g>
   <g id="patch_6">
    <path d="M 47.81 25.44 
L 450 25.44 
" style="fill: none; stroke: #000000; stroke-width: 0.8; stroke-linejoin: miter; stroke-linecap: square"/>
   </g>
   <g id="text_15">
    <!-- Similarity LLM-DEF_sw1 - 20240417174456 - 50 games -->
    <g transform="translate(82.79875 19.44) scale(0.12 -0.12)">
     <defs>
      <path id="DejaVuSans-20" transform="scale(0.015625)"/>
      <path id="DejaVuSans-4c" d="M 628 4666 
L 1259 4666 
L 1259 531 
L 3531 531 
L 3531 0 
L 628 0 
L 628 4666 
z
" transform="scale(0.015625)"/>
      <path id="DejaVuSans-4d" d="M 628 4666 
L 1569 4666 
L 2759 1491 
L 3956 4666 
L 4897 4666 
L 4897 0 
L 4281 0 
L 4281 4097 
L 3078 897 
L 2444 897 
L 1241 4097 
L 1241 0 
L 628 0 
L 628 4666 
z
" transform="scale(0.015625)"/>
      <path id="DejaVuSans-2d" d="M 313 2009 
L 1997 2009 
L 1997 1497 
L 313 1497 
L 313 2009 
z
" transform="scale(0.015625)"/>
      <path id="DejaVuSans-44" d="M 1259 4147 
L 1259 519 
L 2022 519 
Q 2988 519 3436 956 
Q 3884 1394 3884 2338 
Q 3884 3275 3436 3711 
Q 2988 4147 2022 4147 
L 1259 4147 
z
M 628 4666 
L 1925 4666 
Q 3281 4666 3915 4102 
Q 4550 3538 4550 2338 
Q 4550 1131 3912 565 
Q 3275 0 1925 0 
L 628 0 
L 628 4666 
z
" transform="scale(0.015625)"/>
      <path id="DejaVuSans-45" d="M 628 4666 
L 3578 4666 
L 3578 4134 
L 1259 4134 
L 1259 2753 
L 3481 2753 
L 3481 2222 
L 1259 2222 
L 1259 531 
L 3634 531 
L 3634 0 
L 628 0 
L 628 4666 
z
" transform="scale(0.015625)"/>
      <path id="DejaVuSans-46" d="M 628 4666 
L 3309 4666 
L 3309 4134 
L 1259 4134 
L 1259 2759 
L 3109 2759 
L 3109 2228 
L 1259 2228 
L 1259 0 
L 628 0 
L 628 4666 
z
" transform="scale(0.015625)"/>
      <path id="DejaVuSans-5f" d="M 3263 -1063 
L 3263 -1509 
L -63 -1509 
L -63 -1063 
L 3263 -1063 
z
" transform="scale(0.015625)"/>
      <path id="DejaVuSans-73" d="M 2834 3397 
L 2834 2853 
Q 2591 2978 2328 3040 
Q 2066 3103 1784 3103 
Q 1356 3103 1142 2972 
Q 928 2841 928 2578 
Q 928 2378 1081 2264 
Q 1234 2150 1697 2047 
L 1894 2003 
Q 2506 1872 2764 1633 
Q 3022 1394 3022 966 
Q 3022 478 2636 193 
Q 2250 -91 1575 -91 
Q 1294 -91 989 -36 
Q 684 19 347 128 
L 347 722 
Q 666 556 975 473 
Q 1284 391 1588 391 
Q 1994 391 2212 530 
Q 2431 669 2431 922 
Q 2431 1156 2273 1281 
Q 2116 1406 1581 1522 
L 1381 1569 
Q 847 1681 609 1914 
Q 372 2147 372 2553 
Q 372 3047 722 3315 
Q 1072 3584 1716 3584 
Q 2034 3584 2315 3537 
Q 2597 3491 2834 3397 
z
" transform="scale(0.015625)"/>
      <path id="DejaVuSans-77" d="M 269 3500 
L 844 3500 
L 1563 769 
L 2278 3500 
L 2956 3500 
L 3675 769 
L 4391 3500 
L 4966 3500 
L 4050 0 
L 3372 0 
L 2619 2869 
L 1863 0 
L 1184 0 
L 269 3500 
z
" transform="scale(0.015625)"/>
      <path id="DejaVuSans-37" d="M 525 4666 
L 3525 4666 
L 3525 4397 
L 1831 0 
L 1172 0 
L 2766 4134 
L 525 4134 
L 525 4666 
z
" transform="scale(0.015625)"/>
      <path id="DejaVuSans-35" d="M 691 4666 
L 3169 4666 
L 3169 4134 
L 1269 4134 
L 1269 2991 
Q 1406 3038 1543 3061 
Q 1681 3084 1819 3084 
Q 2600 3084 3056 2656 
Q 3513 2228 3513 1497 
Q 3513 744 3044 326 
Q 2575 -91 1722 -91 
Q 1428 -91 1123 -41 
Q 819 9 494 109 
L 494 744 
Q 775 591 1075 516 
Q 1375 441 1709 441 
Q 2250 441 2565 725 
Q 2881 1009 2881 1497 
Q 2881 1984 2565 2268 
Q 2250 2553 1709 2553 
Q 1456 2553 1204 2497 
Q 953 2441 691 2322 
L 691 4666 
z
" transform="scale(0.015625)"/>
      <path id="DejaVuSans-67" d="M 2906 1791 
Q 2906 2416 2648 2759 
Q 2391 3103 1925 3103 
Q 1463 3103 1205 2759 
Q 947 2416 947 1791 
Q 947 1169 1205 825 
Q 1463 481 1925 481 
Q 2391 481 2648 825 
Q 2906 1169 2906 1791 
z
M 3481 434 
Q 3481 -459 3084 -895 
Q 2688 -1331 1869 -1331 
Q 1566 -1331 1297 -1286 
Q 1028 -1241 775 -1147 
L 775 -588 
Q 1028 -725 1275 -790 
Q 1522 -856 1778 -856 
Q 2344 -856 2625 -561 
Q 2906 -266 2906 331 
L 2906 616 
Q 2728 306 2450 153 
Q 2172 0 1784 0 
Q 1141 0 747 490 
Q 353 981 353 1791 
Q 353 2603 747 3093 
Q 1141 3584 1784 3584 
Q 2172 3584 2450 3431 
Q 2728 3278 2906 2969 
L 2906 3500 
L 3481 3500 
L 3481 434 
z
" transform="scale(0.015625)"/>
     </defs>
     <use xlink:href="#DejaVuSans-53"/>
     <use xlink:href="#DejaVuSans-69" x="63.476562"/>
     <use xlink:href="#DejaVuSans-6d" x="91.259766"/>
     <use xlink:href="#DejaVuSans-69" x="188.671875"/>
     <use xlink:href="#DejaVuSans-6c" x="216.455078"/>
     <use xlink:href="#DejaVuSans-61" x="244.238281"/>
     <use xlink:href="#DejaVuSans-72" x="305.517578"/>
     <use xlink:href="#DejaVuSans-69" x="346.630859"/>
     <use xlink:href="#DejaVuSans-74" x="374.414062"/>
     <use xlink:href="#DejaVuSans-79" x="413.623047"/>
     <use xlink:href="#DejaVuSans-20" x="472.802734"/>
     <use xlink:href="#DejaVuSans-4c" x="504.589844"/>
     <use xlink:href="#DejaVuSans-4c" x="560.302734"/>
     <use xlink:href="#DejaVuSans-4d" x="616.015625"/>
     <use xlink:href="#DejaVuSans-2d" x="702.294922"/>
     <use xlink:href="#DejaVuSans-44" x="738.378906"/>
     <use xlink:href="#DejaVuSans-45" x="815.380859"/>
     <use xlink:href="#DejaVuSans-46" x="878.564453"/>
     <use xlink:href="#DejaVuSans-5f" x="936.083984"/>
     <use xlink:href="#DejaVuSans-73" x="986.083984"/>
     <use xlink:href="#DejaVuSans-77" x="1038.183594"/>
     <use xlink:href="#DejaVuSans-31" x="1119.970703"/>
     <use xlink:href="#DejaVuSans-20" x="1183.59375"/>
     <use xlink:href="#DejaVuSans-2d" x="1215.380859"/>
     <use xlink:href="#DejaVuSans-20" x="1251.464844"/>
     <use xlink:href="#DejaVuSans-32" x="1283.251953"/>
     <use xlink:href="#DejaVuSans-30" x="1346.875"/>
     <use xlink:href="#DejaVuSans-32" x="1410.498047"/>
     <use xlink:href="#DejaVuSans-34" x="1474.121094"/>
     <use xlink:href="#DejaVuSans-30" x="1537.744141"/>
     <use xlink:href="#DejaVuSans-34" x="1601.367188"/>
     <use xlink:href="#DejaVuSans-31" x="1664.990234"/>
     <use xlink:href="#DejaVuSans-37" x="1728.613281"/>
     <use xlink:href="#DejaVuSans-31" x="1792.236328"/>
     <use xlink:href="#DejaVuSans-37" x="1855.859375"/>
     <use xlink:href="#DejaVuSans-34" x="1919.482422"/>
     <use xlink:href="#DejaVuSans-34" x="1983.105469"/>
     <use xlink:href="#DejaVuSans-35" x="2046.728516"/>
     <use xlink:href="#DejaVuSans-36" x="2110.351562"/>
     <use xlink:href="#DejaVuSans-20" x="2173.974609"/>
     <use xlink:href="#DejaVuSans-2d" x="2205.761719"/>
     <use xlink:href="#DejaVuSans-20" x="2241.845703"/>
     <use xlink:href="#DejaVuSans-35" x="2273.632812"/>
     <use xlink:href="#DejaVuSans-30" x="2337.255859"/>
     <use xlink:href="#DejaVuSans-20" x="2400.878906"/>
     <use xlink:href="#DejaVuSans-67" x="2432.666016"/>
     <use xlink:href="#DejaVuSans-61" x="2496.142578"/>
     <use xlink:href="#DejaVuSans-6d" x="2557.421875"/>
     <use xlink:href="#DejaVuSans-65" x="2654.833984"/>
     <use xlink:href="#DejaVuSans-73" x="2716.357422"/>
    </g>
   </g>
   <g id="legend_1">
    <g id="patch_7">
     <path d="M 311.5625 63.3525 
L 443 63.3525 
Q 445 63.3525 445 61.3525 
L 445 32.44 
Q 445 30.44 443 30.44 
L 311.5625 30.44 
Q 309.5625 30.44 309.5625 32.44 
L 309.5625 61.3525 
Q 309.5625 63.3525 311.5625 63.3525 
z
" style="fill: #ffffff; opacity: 0.8; stroke: #cccccc; stroke-linejoin: miter"/>
    </g>
    <g id="line2d_18">
     <path d="M 313.5625 38.538437 
L 323.5625 38.538437 
L 333.5625 38.538437 
" style="fill: none; stroke: #0000ff; stroke-linecap: square"/>
     <g>
      <use xlink:href="#m4198f7de20" x="323.5625" y="38.538437" style="fill: #0000ff"/>
     </g>
    </g>
    <g id="text_16">
     <!-- LLM-DEF_sw1 -->
     <g transform="translate(341.5625 42.038437) scale(0.1 -0.1)">
      <use xlink:href="#DejaVuSans-4c"/>
      <use xlink:href="#DejaVuSans-4c" x="55.712891"/>
      <use xlink:href="#DejaVuSans-4d" x="111.425781"/>
      <use xlink:href="#DejaVuSans-2d" x="197.705078"/>
      <use xlink:href="#DejaVuSans-44" x="233.789062"/>
      <use xlink:href="#DejaVuSans-45" x="310.791016"/>
      <use xlink:href="#DejaVuSans-46" x="373.974609"/>
      <use xlink:href="#DejaVuSans-5f" x="431.494141"/>
      <use xlink:href="#DejaVuSans-73" x="481.494141"/>
      <use xlink:href="#DejaVuSans-77" x="533.59375"/>
      <use xlink:href="#DejaVuSans-31" x="615.380859"/>
     </g>
    </g>
    <g id="line2d_19">
     <path d="M 313.5625 53.494687 
L 323.5625 53.494687 
L 333.5625 53.494687 
" style="fill: none; stroke: #ff0000; stroke-opacity: 0.5; stroke-width: 0.5; stroke-linecap: square"/>
     <g>
      <use xlink:href="#m222696ebba" x="323.5625" y="53.494687" style="fill: #ff0000; fill-opacity: 0.5"/>
     </g>
    </g>
    <g id="text_17">
     <!-- LLM-DEF_sw1 mean -->
     <g transform="translate(341.5625 56.994687) scale(0.1 -0.1)">
      <use xlink:href="#DejaVuSans-4c"/>
      <use xlink:href="#DejaVuSans-4c" x="55.712891"/>
      <use xlink:href="#DejaVuSans-4d" x="111.425781"/>
      <use xlink:href="#DejaVuSans-2d" x="197.705078"/>
      <use xlink:href="#DejaVuSans-44" x="233.789062"/>
      <use xlink:href="#DejaVuSans-45" x="310.791016"/>
      <use xlink:href="#DejaVuSans-46" x="373.974609"/>
      <use xlink:href="#DejaVuSans-5f" x="431.494141"/>
      <use xlink:href="#DejaVuSans-73" x="481.494141"/>
      <use xlink:href="#DejaVuSans-77" x="533.59375"/>
      <use xlink:href="#DejaVuSans-31" x="615.380859"/>
      <use xlink:href="#DejaVuSans-20" x="679.003906"/>
      <use xlink:href="#DejaVuSans-6d" x="710.791016"/>
      <use xlink:href="#DejaVuSans-65" x="808.203125"/>
      <use xlink:href="#DejaVuSans-61" x="869.726562"/>
      <use xlink:href="#DejaVuSans-6e" x="931.005859"/>
     </g>
    </g>
   </g>
  </g>
 </g>
 <defs>
  <clipPath id="pc6d7506c05">
   <rect x="47.81" y="25.44" width="402.19" height="278.2"/>
  </clipPath>
 </defs>
</svg>
