<?xml version="1.0" encoding="utf-8" standalone="no"?>
<!DOCTYPE svg PUBLIC "-//W3C//DTD SVG 1.1//EN"
  "http://www.w3.org/Graphics/SVG/1.1/DTD/svg11.dtd">
<svg xmlns:xlink="http://www.w3.org/1999/xlink" width="460.8pt" height="345.6pt" viewBox="0 0 460.8 345.6" xmlns="http://www.w3.org/2000/svg" version="1.1">
 <metadata>
  <rdf:RDF xmlns:dc="http://purl.org/dc/elements/1.1/" xmlns:cc="http://creativecommons.org/ns#" xmlns:rdf="http://www.w3.org/1999/02/22-rdf-syntax-ns#">
   <cc:Work>
    <dc:type rdf:resource="http://purl.org/dc/dcmitype/StillImage"/>
    <dc:date>2024-04-24T09:33:07.956691</dc:date>
    <dc:format>image/svg+xml</dc:format>
    <dc:creator>
     <cc:Agent>
      <dc:title>Matplotlib v3.8.0, https://matplotlib.org/</dc:title>
     </cc:Agent>
    </dc:creator>
   </cc:Work>
  </rdf:RDF>
 </metadata>
 <defs>
  <style type="text/css">*{stroke-linejoin: round; stroke-linecap: butt}</style>
 </defs>
 <g id="figure_1">
  <g id="patch_1">
   <path d="M 0 345.6 
L 460.8 345.6 
L 460.8 0 
L 0 0 
z
" style="fill: #ffffff"/>
  </g>
  <g id="axes_1">
   <g id="patch_2">
    <path d="M 47.81 303.64 
L 450 303.64 
L 450 25.44 
L 47.81 25.44 
z
" style="fill: #ffffff"/>
   </g>
   <g id="PolyCollection_1">
    <defs>
     <path id="m9517dfa925" d="M 66.091364 -291.335195 
L 66.091364 -291.335195 
L 69.784568 -307.514545 
L 73.477773 -286.023974 
L 77.170978 -268.421686 
L 80.864183 -255.924811 
L 84.557388 -246.329449 
L 88.250592 -238.518454 
L 91.943797 -231.939896 
L 95.637002 -226.431188 
L 99.330207 -221.511723 
L 103.023411 -217.56784 
L 106.716616 -213.728911 
L 110.409821 -210.201596 
L 114.103026 -207.323949 
L 117.79623 -204.504502 
L 121.489435 -201.820353 
L 125.18264 -199.307471 
L 128.875845 -196.958201 
L 132.56905 -194.720721 
L 136.262254 -192.672607 
L 139.955459 -190.764838 
L 143.648664 -188.893369 
L 147.341869 -187.110763 
L 151.035073 -185.424699 
L 154.728278 -183.797361 
L 158.421483 -182.25762 
L 162.114688 -180.840466 
L 165.807893 -179.419378 
L 169.501097 -178.069783 
L 173.194302 -176.801271 
L 176.887507 -175.647066 
L 180.580712 -174.456288 
L 184.273916 -173.288502 
L 187.967121 -172.158318 
L 191.660326 -171.11976 
L 195.353531 -170.075162 
L 199.046736 -169.052884 
L 202.73994 -168.077616 
L 206.433145 -167.117643 
L 210.12635 -166.194541 
L 213.819555 -165.291869 
L 217.512759 -164.406976 
L 221.205964 -163.544053 
L 224.899169 -162.702848 
L 228.592374 -161.883004 
L 232.285579 -161.100722 
L 235.978783 -160.31972 
L 239.671988 -159.561681 
L 243.365193 -158.822937 
L 247.058398 -158.096917 
L 250.751602 -157.384273 
L 254.444807 -156.685491 
L 258.138012 -156.0076 
L 261.831217 -155.345975 
L 265.524421 -154.685573 
L 269.217626 -154.038776 
L 272.910831 -153.405117 
L 276.604036 -152.783763 
L 280.297241 -152.175252 
L 283.990445 -151.573891 
L 287.68365 -150.977611 
L 291.376855 -150.40318 
L 295.07006 -149.833241 
L 298.763264 -149.27548 
L 302.456469 -148.709799 
L 306.149674 -148.156945 
L 309.842879 -147.614989 
L 313.536084 -147.073882 
L 317.229288 -146.548293 
L 320.922493 -146.019233 
L 324.615698 -145.503377 
L 328.308903 -144.992098 
L 332.002107 -144.482741 
L 335.695312 -143.986365 
L 339.388517 -143.493986 
L 343.081722 -143.005868 
L 346.774927 -142.518879 
L 350.468131 -142.040902 
L 354.161336 -141.567664 
L 357.854541 -141.102411 
L 361.547746 -140.638536 
L 365.24095 -140.17932 
L 368.934155 -139.725925 
L 372.62736 -139.279583 
L 376.320565 -138.837604 
L 380.01377 -138.400067 
L 383.706974 -137.966654 
L 387.400179 -137.54025 
L 391.093384 -137.120717 
L 394.786589 -136.704312 
L 398.479793 -136.291162 
L 402.172998 -135.881375 
L 405.866203 -135.475043 
L 409.559408 -135.071073 
L 413.252612 -134.672178 
L 416.945817 -134.276322 
L 420.639022 -133.885002 
L 424.332227 -133.497363 
L 428.025432 -133.113428 
L 431.718636 -132.733651 
L 431.718636 -57.107408 
L 431.718636 -57.107408 
L 428.025432 -57.446428 
L 424.332227 -57.844272 
L 420.639022 -58.254532 
L 416.945817 -58.677733 
L 413.252612 -59.063708 
L 409.559408 -59.513646 
L 405.866203 -59.925855 
L 402.172998 -60.404908 
L 398.479793 -60.899965 
L 394.786589 -61.411766 
L 391.093384 -61.941098 
L 387.400179 -62.488796 
L 383.706974 -62.997437 
L 380.01377 -63.410708 
L 376.320565 -63.895477 
L 372.62736 -64.397766 
L 368.934155 -64.918443 
L 365.24095 -65.340176 
L 361.547746 -65.777696 
L 357.854541 -66.292158 
L 354.161336 -66.889941 
L 350.468131 -67.446297 
L 346.774927 -68.024657 
L 343.081722 -68.497208 
L 339.388517 -69.120473 
L 335.695312 -69.769516 
L 332.002107 -70.445833 
L 328.308903 -71.010227 
L 324.615698 -71.669631 
L 320.922493 -72.357905 
L 317.229288 -72.930643 
L 313.536084 -73.678511 
L 309.842879 -74.307542 
L 306.149674 -75.042921 
L 302.456469 -75.733864 
L 298.763264 -76.302892 
L 295.07006 -77.14132 
L 291.376855 -77.936244 
L 287.68365 -78.771425 
L 283.990445 -79.395015 
L 280.297241 -80.135122 
L 276.604036 -80.914337 
L 272.910831 -81.646338 
L 269.217626 -82.16073 
L 265.524421 -82.70373 
L 261.831217 -83.36487 
L 258.138012 -84.25332 
L 254.444807 -84.729873 
L 250.751602 -85.416478 
L 247.058398 -86.049944 
L 243.365193 -86.628353 
L 239.671988 -87.149753 
L 235.978783 -87.705479 
L 232.285579 -88.39829 
L 228.592374 -88.839683 
L 224.899169 -89.514345 
L 221.205964 -90.237158 
L 217.512759 -91.01273 
L 213.819555 -91.846258 
L 210.12635 -92.511199 
L 206.433145 -93.1147 
L 202.73994 -93.886273 
L 199.046736 -94.480223 
L 195.353531 -95.377376 
L 191.660326 -96.091341 
L 187.967121 -96.497033 
L 184.273916 -97.472521 
L 180.580712 -98.54201 
L 176.887507 -99.274661 
L 173.194302 -99.540835 
L 169.501097 -100.117182 
L 165.807893 -100.913315 
L 162.114688 -102.498319 
L 158.421483 -103.043796 
L 154.728278 -104.002464 
L 151.035073 -105.673561 
L 147.341869 -106.749344 
L 143.648664 -108.625288 
L 139.955459 -110.309889 
L 136.262254 -111.130148 
L 132.56905 -112.097224 
L 128.875845 -113.736021 
L 125.18264 -116.554576 
L 121.489435 -118.967762 
L 117.79623 -120.91957 
L 114.103026 -122.045619 
L 110.409821 -122.263668 
L 106.716616 -124.320747 
L 103.023411 -128.803227 
L 99.330207 -129.163522 
L 95.637002 -133.18718 
L 91.943797 -135.30643 
L 88.250592 -138.535247 
L 84.557388 -140.644356 
L 80.864183 -150.618652 
L 77.170978 -156.823426 
L 73.477773 -165.65596 
L 69.784568 -197.03503 
L 66.091364 -291.335195 
z
" style="stroke: #0000ff; stroke-opacity: 0.2"/>
    </defs>
    <g clip-path="url(#p6ebd6e5ee2)">
     <use xlink:href="#m9517dfa925" x="0" y="345.6" style="fill: #0000ff; fill-opacity: 0.2; stroke: #0000ff; stroke-opacity: 0.2"/>
    </g>
   </g>
   <g id="PolyCollection_2">
    <defs>
     <path id="ma40c5752a5" d="M 66.091364 -182.439514 
L 66.091364 -182.439514 
L 69.784568 -191.012257 
L 73.477773 -192.488687 
L 77.170978 -190.425534 
L 80.864183 -189.79128 
L 84.557388 -191.30608 
L 88.250592 -189.688762 
L 91.943797 -188.525367 
L 95.637002 -187.585797 
L 99.330207 -192.000388 
L 103.023411 -192.543776 
L 106.716616 -191.608546 
L 110.409821 -190.758287 
L 114.103026 -189.954126 
L 117.79623 -189.218636 
L 121.489435 -188.547932 
L 125.18264 -188.745918 
L 128.875845 -189.393769 
L 132.56905 -188.963214 
L 136.262254 -188.408561 
L 139.955459 -188.077195 
L 143.648664 -187.987376 
L 147.341869 -187.48807 
L 151.035073 -188.132463 
L 154.728278 -187.678761 
L 158.421483 -187.506656 
L 162.114688 -187.184194 
L 165.807893 -187.265552 
L 169.501097 -187.11676 
L 173.194302 -187.186878 
L 176.887507 -187.375072 
L 180.580712 -187.544954 
L 184.273916 -187.44808 
L 187.967121 -187.286535 
L 191.660326 -187.029433 
L 195.353531 -186.798741 
L 199.046736 -186.537834 
L 202.73994 -186.230103 
L 206.433145 -185.935423 
L 210.12635 -185.973541 
L 213.819555 -185.751621 
L 217.512759 -185.983671 
L 221.205964 -186.309662 
L 224.899169 -186.613443 
L 228.592374 -186.356275 
L 232.285579 -186.451573 
L 235.978783 -187.083224 
L 239.671988 -186.833809 
L 243.365193 -186.636999 
L 247.058398 -186.798879 
L 250.751602 -186.685998 
L 254.444807 -186.502303 
L 258.138012 -186.324196 
L 261.831217 -186.128958 
L 265.524421 -186.466054 
L 269.217626 -186.536283 
L 272.910831 -186.399323 
L 276.604036 -186.20998 
L 280.297241 -186.017153 
L 283.990445 -186.243121 
L 287.68365 -186.312483 
L 291.376855 -186.147483 
L 295.07006 -185.969674 
L 298.763264 -185.80361 
L 302.456469 -185.882604 
L 306.149674 -185.791343 
L 309.842879 -185.687793 
L 313.536084 -185.906617 
L 317.229288 -185.881072 
L 320.922493 -185.855534 
L 324.615698 -185.729416 
L 328.308903 -185.705768 
L 332.002107 -185.682116 
L 335.695312 -185.533463 
L 339.388517 -185.558493 
L 343.081722 -185.53767 
L 346.774927 -185.448431 
L 350.468131 -186.041547 
L 354.161336 -185.90935 
L 357.854541 -185.925951 
L 361.547746 -185.797957 
L 365.24095 -185.774602 
L 368.934155 -185.751321 
L 372.62736 -185.62414 
L 376.320565 -185.542332 
L 380.01377 -185.440306 
L 383.706974 -185.324342 
L 387.400179 -185.274772 
L 391.093384 -185.162531 
L 394.786589 -185.052227 
L 398.479793 -185.006626 
L 402.172998 -184.890147 
L 405.866203 -184.785071 
L 409.559408 -184.743292 
L 413.252612 -184.631953 
L 416.945817 -184.672498 
L 420.639022 -184.743933 
L 424.332227 -184.63462 
L 428.025432 -184.787255 
L 431.718636 -184.783325 
L 431.718636 -161.488747 
L 431.718636 -161.488747 
L 428.025432 -161.392516 
L 424.332227 -162.272273 
L 420.639022 -162.319353 
L 416.945817 -162.205206 
L 413.252612 -162.85367 
L 409.559408 -162.909871 
L 405.866203 -162.835596 
L 402.172998 -162.851707 
L 398.479793 -162.911107 
L 394.786589 -162.834867 
L 391.093384 -162.852829 
L 387.400179 -162.871768 
L 383.706974 -162.793133 
L 380.01377 -162.812588 
L 376.320565 -162.793466 
L 372.62736 -162.740171 
L 368.934155 -162.984451 
L 365.24095 -162.879779 
L 361.547746 -162.773023 
L 357.854541 -162.796273 
L 354.161336 -162.668289 
L 350.468131 -162.6913 
L 346.774927 -162.644308 
L 343.081722 -162.583385 
L 339.388517 -162.465378 
L 335.695312 -162.326617 
L 332.002107 -162.593403 
L 328.308903 -162.470663 
L 324.615698 -162.345136 
L 320.922493 -162.317139 
L 317.229288 -162.186715 
L 313.536084 -162.053198 
L 309.842879 -161.878165 
L 306.149674 -162.444868 
L 302.456469 -163.044483 
L 298.763264 -162.874227 
L 295.07006 -163.202524 
L 291.376855 -163.45866 
L 287.68365 -163.819447 
L 283.990445 -163.643024 
L 280.297241 -163.454381 
L 276.604036 -163.648955 
L 272.910831 -163.943669 
L 269.217626 -163.885323 
L 265.524421 -163.692689 
L 261.831217 -163.494155 
L 258.138012 -163.547061 
L 254.444807 -163.535592 
L 250.751602 -163.52507 
L 247.058398 -163.402905 
L 243.365193 -163.168626 
L 239.671988 -163.150973 
L 235.978783 -163.390549 
L 232.285579 -163.194412 
L 228.592374 -162.951198 
L 224.899169 -163.093361 
L 221.205964 -162.824087 
L 217.512759 -162.549733 
L 213.819555 -162.267631 
L 210.12635 -162.216041 
L 206.433145 -161.947625 
L 202.73994 -162.451627 
L 199.046736 -162.601866 
L 195.353531 -162.561338 
L 191.660326 -163.510537 
L 187.967121 -164.363479 
L 184.273916 -165.522726 
L 180.580712 -166.829193 
L 176.887507 -166.507479 
L 173.194302 -166.171303 
L 169.501097 -165.84415 
L 165.807893 -165.607897 
L 162.114688 -165.244604 
L 158.421483 -165.171686 
L 154.728278 -164.890321 
L 151.035073 -165.107353 
L 147.341869 -164.628138 
L 143.648664 -165.270375 
L 139.955459 -164.852618 
L 136.262254 -166.527819 
L 132.56905 -167.194193 
L 128.875845 -168.646401 
L 125.18264 -168.056449 
L 121.489435 -167.453731 
L 117.79623 -167.769401 
L 114.103026 -168.161196 
L 110.409821 -169.021947 
L 106.716616 -169.324988 
L 103.023411 -170.613582 
L 99.330207 -169.564425 
L 95.637002 -169.402241 
L 91.943797 -169.251769 
L 88.250592 -169.10293 
L 84.557388 -170.416552 
L 80.864183 -168.459316 
L 77.170978 -166.167954 
L 73.477773 -162.921152 
L 69.784568 -180.968664 
L 66.091364 -182.439514 
z
" style="stroke: #ff0000; stroke-opacity: 0.1"/>
    </defs>
    <g clip-path="url(#p6ebd6e5ee2)">
     <use xlink:href="#ma40c5752a5" x="0" y="345.6" style="fill: #ff0000; fill-opacity: 0.1; stroke: #ff0000; stroke-opacity: 0.1"/>
    </g>
   </g>
   <g id="matplotlib.axis_1">
    <g id="xtick_1">
     <g id="line2d_1">
      <defs>
       <path id="m619a174ab5" d="M 0 0 
L 0 3.5 
" style="stroke: #000000; stroke-width: 0.8"/>
      </defs>
      <g>
       <use xlink:href="#m619a174ab5" x="66.091364" y="303.64" style="stroke: #000000; stroke-width: 0.8"/>
      </g>
     </g>
     <g id="text_1">
      <!-- 0 -->
      <g transform="translate(62.910114 318.238437) scale(0.1 -0.1)">
       <defs>
        <path id="DejaVuSans-30" d="M 2034 4250 
Q 1547 4250 1301 3770 
Q 1056 3291 1056 2328 
Q 1056 1369 1301 889 
Q 1547 409 2034 409 
Q 2525 409 2770 889 
Q 3016 1369 3016 2328 
Q 3016 3291 2770 3770 
Q 2525 4250 2034 4250 
z
M 2034 4750 
Q 2819 4750 3233 4129 
Q 3647 3509 3647 2328 
Q 3647 1150 3233 529 
Q 2819 -91 2034 -91 
Q 1250 -91 836 529 
Q 422 1150 422 2328 
Q 422 3509 836 4129 
Q 1250 4750 2034 4750 
z
" transform="scale(0.015625)"/>
       </defs>
       <use xlink:href="#DejaVuSans-30"/>
      </g>
     </g>
    </g>
    <g id="xtick_2">
     <g id="line2d_2">
      <g>
       <use xlink:href="#m619a174ab5" x="139.955459" y="303.64" style="stroke: #000000; stroke-width: 0.8"/>
      </g>
     </g>
     <g id="text_2">
      <!-- 20 -->
      <g transform="translate(133.592959 318.238437) scale(0.1 -0.1)">
       <defs>
        <path id="DejaVuSans-32" d="M 1228 531 
L 3431 531 
L 3431 0 
L 469 0 
L 469 531 
Q 828 903 1448 1529 
Q 2069 2156 2228 2338 
Q 2531 2678 2651 2914 
Q 2772 3150 2772 3378 
Q 2772 3750 2511 3984 
Q 2250 4219 1831 4219 
Q 1534 4219 1204 4116 
Q 875 4013 500 3803 
L 500 4441 
Q 881 4594 1212 4672 
Q 1544 4750 1819 4750 
Q 2544 4750 2975 4387 
Q 3406 4025 3406 3419 
Q 3406 3131 3298 2873 
Q 3191 2616 2906 2266 
Q 2828 2175 2409 1742 
Q 1991 1309 1228 531 
z
" transform="scale(0.015625)"/>
       </defs>
       <use xlink:href="#DejaVuSans-32"/>
       <use xlink:href="#DejaVuSans-30" x="63.623047"/>
      </g>
     </g>
    </g>
    <g id="xtick_3">
     <g id="line2d_3">
      <g>
       <use xlink:href="#m619a174ab5" x="213.819555" y="303.64" style="stroke: #000000; stroke-width: 0.8"/>
      </g>
     </g>
     <g id="text_3">
      <!-- 40 -->
      <g transform="translate(207.457055 318.238437) scale(0.1 -0.1)">
       <defs>
        <path id="DejaVuSans-34" d="M 2419 4116 
L 825 1625 
L 2419 1625 
L 2419 4116 
z
M 2253 4666 
L 3047 4666 
L 3047 1625 
L 3713 1625 
L 3713 1100 
L 3047 1100 
L 3047 0 
L 2419 0 
L 2419 1100 
L 313 1100 
L 313 1709 
L 2253 4666 
z
" transform="scale(0.015625)"/>
       </defs>
       <use xlink:href="#DejaVuSans-34"/>
       <use xlink:href="#DejaVuSans-30" x="63.623047"/>
      </g>
     </g>
    </g>
    <g id="xtick_4">
     <g id="line2d_4">
      <g>
       <use xlink:href="#m619a174ab5" x="287.68365" y="303.64" style="stroke: #000000; stroke-width: 0.8"/>
      </g>
     </g>
     <g id="text_4">
      <!-- 60 -->
      <g transform="translate(281.32115 318.238437) scale(0.1 -0.1)">
       <defs>
        <path id="DejaVuSans-36" d="M 2113 2584 
Q 1688 2584 1439 2293 
Q 1191 2003 1191 1497 
Q 1191 994 1439 701 
Q 1688 409 2113 409 
Q 2538 409 2786 701 
Q 3034 994 3034 1497 
Q 3034 2003 2786 2293 
Q 2538 2584 2113 2584 
z
M 3366 4563 
L 3366 3988 
Q 3128 4100 2886 4159 
Q 2644 4219 2406 4219 
Q 1781 4219 1451 3797 
Q 1122 3375 1075 2522 
Q 1259 2794 1537 2939 
Q 1816 3084 2150 3084 
Q 2853 3084 3261 2657 
Q 3669 2231 3669 1497 
Q 3669 778 3244 343 
Q 2819 -91 2113 -91 
Q 1303 -91 875 529 
Q 447 1150 447 2328 
Q 447 3434 972 4092 
Q 1497 4750 2381 4750 
Q 2619 4750 2861 4703 
Q 3103 4656 3366 4563 
z
" transform="scale(0.015625)"/>
       </defs>
       <use xlink:href="#DejaVuSans-36"/>
       <use xlink:href="#DejaVuSans-30" x="63.623047"/>
      </g>
     </g>
    </g>
    <g id="xtick_5">
     <g id="line2d_5">
      <g>
       <use xlink:href="#m619a174ab5" x="361.547746" y="303.64" style="stroke: #000000; stroke-width: 0.8"/>
      </g>
     </g>
     <g id="text_5">
      <!-- 80 -->
      <g transform="translate(355.185246 318.238437) scale(0.1 -0.1)">
       <defs>
        <path id="DejaVuSans-38" d="M 2034 2216 
Q 1584 2216 1326 1975 
Q 1069 1734 1069 1313 
Q 1069 891 1326 650 
Q 1584 409 2034 409 
Q 2484 409 2743 651 
Q 3003 894 3003 1313 
Q 3003 1734 2745 1975 
Q 2488 2216 2034 2216 
z
M 1403 2484 
Q 997 2584 770 2862 
Q 544 3141 544 3541 
Q 544 4100 942 4425 
Q 1341 4750 2034 4750 
Q 2731 4750 3128 4425 
Q 3525 4100 3525 3541 
Q 3525 3141 3298 2862 
Q 3072 2584 2669 2484 
Q 3125 2378 3379 2068 
Q 3634 1759 3634 1313 
Q 3634 634 3220 271 
Q 2806 -91 2034 -91 
Q 1263 -91 848 271 
Q 434 634 434 1313 
Q 434 1759 690 2068 
Q 947 2378 1403 2484 
z
M 1172 3481 
Q 1172 3119 1398 2916 
Q 1625 2713 2034 2713 
Q 2441 2713 2670 2916 
Q 2900 3119 2900 3481 
Q 2900 3844 2670 4047 
Q 2441 4250 2034 4250 
Q 1625 4250 1398 4047 
Q 1172 3844 1172 3481 
z
" transform="scale(0.015625)"/>
       </defs>
       <use xlink:href="#DejaVuSans-38"/>
       <use xlink:href="#DejaVuSans-30" x="63.623047"/>
      </g>
     </g>
    </g>
    <g id="xtick_6">
     <g id="line2d_6">
      <g>
       <use xlink:href="#m619a174ab5" x="435.411841" y="303.64" style="stroke: #000000; stroke-width: 0.8"/>
      </g>
     </g>
     <g id="text_6">
      <!-- 100 -->
      <g transform="translate(425.868091 318.238437) scale(0.1 -0.1)">
       <defs>
        <path id="DejaVuSans-31" d="M 794 531 
L 1825 531 
L 1825 4091 
L 703 3866 
L 703 4441 
L 1819 4666 
L 2450 4666 
L 2450 531 
L 3481 531 
L 3481 0 
L 794 0 
L 794 531 
z
" transform="scale(0.015625)"/>
       </defs>
       <use xlink:href="#DejaVuSans-31"/>
       <use xlink:href="#DejaVuSans-30" x="63.623047"/>
       <use xlink:href="#DejaVuSans-30" x="127.246094"/>
      </g>
     </g>
    </g>
    <g id="text_7">
     <!-- Iteration -->
     <g transform="translate(227.696406 331.916562) scale(0.1 -0.1)">
      <defs>
       <path id="DejaVuSans-49" d="M 628 4666 
L 1259 4666 
L 1259 0 
L 628 0 
L 628 4666 
z
" transform="scale(0.015625)"/>
       <path id="DejaVuSans-74" d="M 1172 4494 
L 1172 3500 
L 2356 3500 
L 2356 3053 
L 1172 3053 
L 1172 1153 
Q 1172 725 1289 603 
Q 1406 481 1766 481 
L 2356 481 
L 2356 0 
L 1766 0 
Q 1100 0 847 248 
Q 594 497 594 1153 
L 594 3053 
L 172 3053 
L 172 3500 
L 594 3500 
L 594 4494 
L 1172 4494 
z
" transform="scale(0.015625)"/>
       <path id="DejaVuSans-65" d="M 3597 1894 
L 3597 1613 
L 953 1613 
Q 991 1019 1311 708 
Q 1631 397 2203 397 
Q 2534 397 2845 478 
Q 3156 559 3463 722 
L 3463 178 
Q 3153 47 2828 -22 
Q 2503 -91 2169 -91 
Q 1331 -91 842 396 
Q 353 884 353 1716 
Q 353 2575 817 3079 
Q 1281 3584 2069 3584 
Q 2775 3584 3186 3129 
Q 3597 2675 3597 1894 
z
M 3022 2063 
Q 3016 2534 2758 2815 
Q 2500 3097 2075 3097 
Q 1594 3097 1305 2825 
Q 1016 2553 972 2059 
L 3022 2063 
z
" transform="scale(0.015625)"/>
       <path id="DejaVuSans-72" d="M 2631 2963 
Q 2534 3019 2420 3045 
Q 2306 3072 2169 3072 
Q 1681 3072 1420 2755 
Q 1159 2438 1159 1844 
L 1159 0 
L 581 0 
L 581 3500 
L 1159 3500 
L 1159 2956 
Q 1341 3275 1631 3429 
Q 1922 3584 2338 3584 
Q 2397 3584 2469 3576 
Q 2541 3569 2628 3553 
L 2631 2963 
z
" transform="scale(0.015625)"/>
       <path id="DejaVuSans-61" d="M 2194 1759 
Q 1497 1759 1228 1600 
Q 959 1441 959 1056 
Q 959 750 1161 570 
Q 1363 391 1709 391 
Q 2188 391 2477 730 
Q 2766 1069 2766 1631 
L 2766 1759 
L 2194 1759 
z
M 3341 1997 
L 3341 0 
L 2766 0 
L 2766 531 
Q 2569 213 2275 61 
Q 1981 -91 1556 -91 
Q 1019 -91 701 211 
Q 384 513 384 1019 
Q 384 1609 779 1909 
Q 1175 2209 1959 2209 
L 2766 2209 
L 2766 2266 
Q 2766 2663 2505 2880 
Q 2244 3097 1772 3097 
Q 1472 3097 1187 3025 
Q 903 2953 641 2809 
L 641 3341 
Q 956 3463 1253 3523 
Q 1550 3584 1831 3584 
Q 2591 3584 2966 3190 
Q 3341 2797 3341 1997 
z
" transform="scale(0.015625)"/>
       <path id="DejaVuSans-69" d="M 603 3500 
L 1178 3500 
L 1178 0 
L 603 0 
L 603 3500 
z
M 603 4863 
L 1178 4863 
L 1178 4134 
L 603 4134 
L 603 4863 
z
" transform="scale(0.015625)"/>
       <path id="DejaVuSans-6f" d="M 1959 3097 
Q 1497 3097 1228 2736 
Q 959 2375 959 1747 
Q 959 1119 1226 758 
Q 1494 397 1959 397 
Q 2419 397 2687 759 
Q 2956 1122 2956 1747 
Q 2956 2369 2687 2733 
Q 2419 3097 1959 3097 
z
M 1959 3584 
Q 2709 3584 3137 3096 
Q 3566 2609 3566 1747 
Q 3566 888 3137 398 
Q 2709 -91 1959 -91 
Q 1206 -91 779 398 
Q 353 888 353 1747 
Q 353 2609 779 3096 
Q 1206 3584 1959 3584 
z
" transform="scale(0.015625)"/>
       <path id="DejaVuSans-6e" d="M 3513 2113 
L 3513 0 
L 2938 0 
L 2938 2094 
Q 2938 2591 2744 2837 
Q 2550 3084 2163 3084 
Q 1697 3084 1428 2787 
Q 1159 2491 1159 1978 
L 1159 0 
L 581 0 
L 581 3500 
L 1159 3500 
L 1159 2956 
Q 1366 3272 1645 3428 
Q 1925 3584 2291 3584 
Q 2894 3584 3203 3211 
Q 3513 2838 3513 2113 
z
" transform="scale(0.015625)"/>
      </defs>
      <use xlink:href="#DejaVuSans-49"/>
      <use xlink:href="#DejaVuSans-74" x="29.492188"/>
      <use xlink:href="#DejaVuSans-65" x="68.701172"/>
      <use xlink:href="#DejaVuSans-72" x="130.224609"/>
      <use xlink:href="#DejaVuSans-61" x="171.337891"/>
      <use xlink:href="#DejaVuSans-74" x="232.617188"/>
      <use xlink:href="#DejaVuSans-69" x="271.826172"/>
      <use xlink:href="#DejaVuSans-6f" x="299.609375"/>
      <use xlink:href="#DejaVuSans-6e" x="360.791016"/>
     </g>
    </g>
   </g>
   <g id="matplotlib.axis_2">
    <g id="ytick_1">
     <g id="line2d_7">
      <defs>
       <path id="mbc3dfed2bc" d="M 0 0 
L -3.5 0 
" style="stroke: #000000; stroke-width: 0.8"/>
      </defs>
      <g>
       <use xlink:href="#mbc3dfed2bc" x="47.81" y="290.994545" style="stroke: #000000; stroke-width: 0.8"/>
      </g>
     </g>
     <g id="text_8">
      <!-- 0.0 -->
      <g transform="translate(24.906875 294.793764) scale(0.1 -0.1)">
       <defs>
        <path id="DejaVuSans-2e" d="M 684 794 
L 1344 794 
L 1344 0 
L 684 0 
L 684 794 
z
" transform="scale(0.015625)"/>
       </defs>
       <use xlink:href="#DejaVuSans-30"/>
       <use xlink:href="#DejaVuSans-2e" x="63.623047"/>
       <use xlink:href="#DejaVuSans-30" x="95.410156"/>
      </g>
     </g>
    </g>
    <g id="ytick_2">
     <g id="line2d_8">
      <g>
       <use xlink:href="#mbc3dfed2bc" x="47.81" y="243.648597" style="stroke: #000000; stroke-width: 0.8"/>
      </g>
     </g>
     <g id="text_9">
      <!-- 0.2 -->
      <g transform="translate(24.906875 247.447816) scale(0.1 -0.1)">
       <use xlink:href="#DejaVuSans-30"/>
       <use xlink:href="#DejaVuSans-2e" x="63.623047"/>
       <use xlink:href="#DejaVuSans-32" x="95.410156"/>
      </g>
     </g>
    </g>
    <g id="ytick_3">
     <g id="line2d_9">
      <g>
       <use xlink:href="#mbc3dfed2bc" x="47.81" y="196.302649" style="stroke: #000000; stroke-width: 0.8"/>
      </g>
     </g>
     <g id="text_10">
      <!-- 0.4 -->
      <g transform="translate(24.906875 200.101868) scale(0.1 -0.1)">
       <use xlink:href="#DejaVuSans-30"/>
       <use xlink:href="#DejaVuSans-2e" x="63.623047"/>
       <use xlink:href="#DejaVuSans-34" x="95.410156"/>
      </g>
     </g>
    </g>
    <g id="ytick_4">
     <g id="line2d_10">
      <g>
       <use xlink:href="#mbc3dfed2bc" x="47.81" y="148.956701" style="stroke: #000000; stroke-width: 0.8"/>
      </g>
     </g>
     <g id="text_11">
      <!-- 0.6 -->
      <g transform="translate(24.906875 152.75592) scale(0.1 -0.1)">
       <use xlink:href="#DejaVuSans-30"/>
       <use xlink:href="#DejaVuSans-2e" x="63.623047"/>
       <use xlink:href="#DejaVuSans-36" x="95.410156"/>
      </g>
     </g>
    </g>
    <g id="ytick_5">
     <g id="line2d_11">
      <g>
       <use xlink:href="#mbc3dfed2bc" x="47.81" y="101.610753" style="stroke: #000000; stroke-width: 0.8"/>
      </g>
     </g>
     <g id="text_12">
      <!-- 0.8 -->
      <g transform="translate(24.906875 105.409972) scale(0.1 -0.1)">
       <use xlink:href="#DejaVuSans-30"/>
       <use xlink:href="#DejaVuSans-2e" x="63.623047"/>
       <use xlink:href="#DejaVuSans-38" x="95.410156"/>
      </g>
     </g>
    </g>
    <g id="ytick_6">
     <g id="line2d_12">
      <g>
       <use xlink:href="#mbc3dfed2bc" x="47.81" y="54.264805" style="stroke: #000000; stroke-width: 0.8"/>
      </g>
     </g>
     <g id="text_13">
      <!-- 1.0 -->
      <g transform="translate(24.906875 58.064024) scale(0.1 -0.1)">
       <use xlink:href="#DejaVuSans-31"/>
       <use xlink:href="#DejaVuSans-2e" x="63.623047"/>
       <use xlink:href="#DejaVuSans-30" x="95.410156"/>
      </g>
     </g>
    </g>
    <g id="text_14">
     <!-- Avg action -->
     <g transform="translate(18.827187 190.779844) rotate(-90) scale(0.1 -0.1)">
      <defs>
       <path id="DejaVuSans-41" d="M 2188 4044 
L 1331 1722 
L 3047 1722 
L 2188 4044 
z
M 1831 4666 
L 2547 4666 
L 4325 0 
L 3669 0 
L 3244 1197 
L 1141 1197 
L 716 0 
L 50 0 
L 1831 4666 
z
" transform="scale(0.015625)"/>
       <path id="DejaVuSans-76" d="M 191 3500 
L 800 3500 
L 1894 563 
L 2988 3500 
L 3597 3500 
L 2284 0 
L 1503 0 
L 191 3500 
z
" transform="scale(0.015625)"/>
       <path id="DejaVuSans-67" d="M 2906 1791 
Q 2906 2416 2648 2759 
Q 2391 3103 1925 3103 
Q 1463 3103 1205 2759 
Q 947 2416 947 1791 
Q 947 1169 1205 825 
Q 1463 481 1925 481 
Q 2391 481 2648 825 
Q 2906 1169 2906 1791 
z
M 3481 434 
Q 3481 -459 3084 -895 
Q 2688 -1331 1869 -1331 
Q 1566 -1331 1297 -1286 
Q 1028 -1241 775 -1147 
L 775 -588 
Q 1028 -725 1275 -790 
Q 1522 -856 1778 -856 
Q 2344 -856 2625 -561 
Q 2906 -266 2906 331 
L 2906 616 
Q 2728 306 2450 153 
Q 2172 0 1784 0 
Q 1141 0 747 490 
Q 353 981 353 1791 
Q 353 2603 747 3093 
Q 1141 3584 1784 3584 
Q 2172 3584 2450 3431 
Q 2728 3278 2906 2969 
L 2906 3500 
L 3481 3500 
L 3481 434 
z
" transform="scale(0.015625)"/>
       <path id="DejaVuSans-20" transform="scale(0.015625)"/>
       <path id="DejaVuSans-63" d="M 3122 3366 
L 3122 2828 
Q 2878 2963 2633 3030 
Q 2388 3097 2138 3097 
Q 1578 3097 1268 2742 
Q 959 2388 959 1747 
Q 959 1106 1268 751 
Q 1578 397 2138 397 
Q 2388 397 2633 464 
Q 2878 531 3122 666 
L 3122 134 
Q 2881 22 2623 -34 
Q 2366 -91 2075 -91 
Q 1284 -91 818 406 
Q 353 903 353 1747 
Q 353 2603 823 3093 
Q 1294 3584 2113 3584 
Q 2378 3584 2631 3529 
Q 2884 3475 3122 3366 
z
" transform="scale(0.015625)"/>
      </defs>
      <use xlink:href="#DejaVuSans-41"/>
      <use xlink:href="#DejaVuSans-76" x="62.533203"/>
      <use xlink:href="#DejaVuSans-67" x="121.712891"/>
      <use xlink:href="#DejaVuSans-20" x="185.189453"/>
      <use xlink:href="#DejaVuSans-61" x="216.976562"/>
      <use xlink:href="#DejaVuSans-63" x="278.255859"/>
      <use xlink:href="#DejaVuSans-74" x="333.236328"/>
      <use xlink:href="#DejaVuSans-69" x="372.445312"/>
      <use xlink:href="#DejaVuSans-6f" x="400.228516"/>
      <use xlink:href="#DejaVuSans-6e" x="461.410156"/>
     </g>
    </g>
   </g>
   <g id="line2d_13">
    <path d="M 66.091364 54.264805 
L 69.784568 132.385619 
L 73.477773 172.629675 
L 77.170978 172.629675 
L 80.864183 179.731567 
L 84.557388 201.037244 
L 88.250592 186.83346 
L 91.943797 196.302649 
L 95.637002 196.302649 
L 99.330207 210.506434 
L 103.023411 193.935352 
L 106.716616 222.342921 
L 110.409821 212.873731 
L 114.103026 201.037244 
L 117.79623 210.506434 
L 121.489435 219.975623 
L 125.18264 227.077516 
L 128.875845 234.179408 
L 132.56905 227.077516 
L 136.262254 222.342921 
L 139.955459 222.342921 
L 143.648664 234.179408 
L 147.341869 238.914003 
L 151.035073 231.81211 
L 154.728278 241.2813 
L 158.421483 234.179408 
L 162.114688 229.444813 
L 165.807893 246.015895 
L 169.501097 236.546705 
L 173.194302 234.179408 
L 176.887507 229.444813 
L 180.580712 238.914003 
L 184.273916 246.015895 
L 187.967121 246.015895 
L 191.660326 236.546705 
L 195.353531 243.648597 
L 199.046736 248.383192 
L 202.73994 243.648597 
L 206.433145 248.383192 
L 210.12635 246.015895 
L 213.819555 248.383192 
L 217.512759 253.117787 
L 221.205964 253.117787 
L 224.899169 253.117787 
L 228.592374 253.117787 
L 232.285579 248.383192 
L 235.978783 255.485084 
L 239.671988 253.117787 
L 243.365193 253.117787 
L 247.058398 255.485084 
L 250.751602 257.852382 
L 254.444807 260.219679 
L 258.138012 255.485084 
L 261.831217 267.321571 
L 265.524421 262.586977 
L 269.217626 260.219679 
L 272.910831 260.219679 
L 276.604036 267.321571 
L 280.297241 269.688869 
L 283.990445 269.688869 
L 287.68365 267.321571 
L 291.376855 274.423464 
L 295.07006 274.423464 
L 298.763264 276.790761 
L 302.456469 269.688869 
L 306.149674 274.423464 
L 309.842879 276.790761 
L 313.536084 274.423464 
L 317.229288 279.158058 
L 320.922493 274.423464 
L 324.615698 279.158058 
L 328.308903 279.158058 
L 332.002107 276.790761 
L 335.695312 281.525356 
L 339.388517 281.525356 
L 343.081722 281.525356 
L 346.774927 276.790761 
L 350.468131 281.525356 
L 354.161336 281.525356 
L 357.854541 283.892653 
L 361.547746 281.525356 
L 365.24095 279.158058 
L 368.934155 279.158058 
L 372.62736 283.892653 
L 376.320565 283.892653 
L 380.01377 283.892653 
L 383.706974 281.525356 
L 387.400179 286.259951 
L 391.093384 288.627248 
L 394.786589 288.627248 
L 398.479793 288.627248 
L 402.172998 288.627248 
L 405.866203 288.627248 
L 409.559408 286.259951 
L 413.252612 288.627248 
L 416.945817 286.259951 
L 420.639022 288.627248 
L 424.332227 288.627248 
L 428.025432 288.627248 
L 431.718636 286.259951 
" clip-path="url(#p6ebd6e5ee2)" style="fill: none; stroke: #0000ff; stroke-linecap: square"/>
    <defs>
     <path id="m2dbad0a4ac" d="M -0.49999 0.49999 
L 0.50001 0.49999 
L 0.50001 -0.50001 
L -0.49999 -0.50001 
z
"/>
    </defs>
    <g clip-path="url(#p6ebd6e5ee2)">
     <use xlink:href="#m2dbad0a4ac" x="66.091364" y="54.264805" style="fill: #0000ff"/>
     <use xlink:href="#m2dbad0a4ac" x="69.784568" y="132.385619" style="fill: #0000ff"/>
     <use xlink:href="#m2dbad0a4ac" x="73.477773" y="172.629675" style="fill: #0000ff"/>
     <use xlink:href="#m2dbad0a4ac" x="77.170978" y="172.629675" style="fill: #0000ff"/>
     <use xlink:href="#m2dbad0a4ac" x="80.864183" y="179.731567" style="fill: #0000ff"/>
     <use xlink:href="#m2dbad0a4ac" x="84.557388" y="201.037244" style="fill: #0000ff"/>
     <use xlink:href="#m2dbad0a4ac" x="88.250592" y="186.83346" style="fill: #0000ff"/>
     <use xlink:href="#m2dbad0a4ac" x="91.943797" y="196.302649" style="fill: #0000ff"/>
     <use xlink:href="#m2dbad0a4ac" x="95.637002" y="196.302649" style="fill: #0000ff"/>
     <use xlink:href="#m2dbad0a4ac" x="99.330207" y="210.506434" style="fill: #0000ff"/>
     <use xlink:href="#m2dbad0a4ac" x="103.023411" y="193.935352" style="fill: #0000ff"/>
     <use xlink:href="#m2dbad0a4ac" x="106.716616" y="222.342921" style="fill: #0000ff"/>
     <use xlink:href="#m2dbad0a4ac" x="110.409821" y="212.873731" style="fill: #0000ff"/>
     <use xlink:href="#m2dbad0a4ac" x="114.103026" y="201.037244" style="fill: #0000ff"/>
     <use xlink:href="#m2dbad0a4ac" x="117.79623" y="210.506434" style="fill: #0000ff"/>
     <use xlink:href="#m2dbad0a4ac" x="121.489435" y="219.975623" style="fill: #0000ff"/>
     <use xlink:href="#m2dbad0a4ac" x="125.18264" y="227.077516" style="fill: #0000ff"/>
     <use xlink:href="#m2dbad0a4ac" x="128.875845" y="234.179408" style="fill: #0000ff"/>
     <use xlink:href="#m2dbad0a4ac" x="132.56905" y="227.077516" style="fill: #0000ff"/>
     <use xlink:href="#m2dbad0a4ac" x="136.262254" y="222.342921" style="fill: #0000ff"/>
     <use xlink:href="#m2dbad0a4ac" x="139.955459" y="222.342921" style="fill: #0000ff"/>
     <use xlink:href="#m2dbad0a4ac" x="143.648664" y="234.179408" style="fill: #0000ff"/>
     <use xlink:href="#m2dbad0a4ac" x="147.341869" y="238.914003" style="fill: #0000ff"/>
     <use xlink:href="#m2dbad0a4ac" x="151.035073" y="231.81211" style="fill: #0000ff"/>
     <use xlink:href="#m2dbad0a4ac" x="154.728278" y="241.2813" style="fill: #0000ff"/>
     <use xlink:href="#m2dbad0a4ac" x="158.421483" y="234.179408" style="fill: #0000ff"/>
     <use xlink:href="#m2dbad0a4ac" x="162.114688" y="229.444813" style="fill: #0000ff"/>
     <use xlink:href="#m2dbad0a4ac" x="165.807893" y="246.015895" style="fill: #0000ff"/>
     <use xlink:href="#m2dbad0a4ac" x="169.501097" y="236.546705" style="fill: #0000ff"/>
     <use xlink:href="#m2dbad0a4ac" x="173.194302" y="234.179408" style="fill: #0000ff"/>
     <use xlink:href="#m2dbad0a4ac" x="176.887507" y="229.444813" style="fill: #0000ff"/>
     <use xlink:href="#m2dbad0a4ac" x="180.580712" y="238.914003" style="fill: #0000ff"/>
     <use xlink:href="#m2dbad0a4ac" x="184.273916" y="246.015895" style="fill: #0000ff"/>
     <use xlink:href="#m2dbad0a4ac" x="187.967121" y="246.015895" style="fill: #0000ff"/>
     <use xlink:href="#m2dbad0a4ac" x="191.660326" y="236.546705" style="fill: #0000ff"/>
     <use xlink:href="#m2dbad0a4ac" x="195.353531" y="243.648597" style="fill: #0000ff"/>
     <use xlink:href="#m2dbad0a4ac" x="199.046736" y="248.383192" style="fill: #0000ff"/>
     <use xlink:href="#m2dbad0a4ac" x="202.73994" y="243.648597" style="fill: #0000ff"/>
     <use xlink:href="#m2dbad0a4ac" x="206.433145" y="248.383192" style="fill: #0000ff"/>
     <use xlink:href="#m2dbad0a4ac" x="210.12635" y="246.015895" style="fill: #0000ff"/>
     <use xlink:href="#m2dbad0a4ac" x="213.819555" y="248.383192" style="fill: #0000ff"/>
     <use xlink:href="#m2dbad0a4ac" x="217.512759" y="253.117787" style="fill: #0000ff"/>
     <use xlink:href="#m2dbad0a4ac" x="221.205964" y="253.117787" style="fill: #0000ff"/>
     <use xlink:href="#m2dbad0a4ac" x="224.899169" y="253.117787" style="fill: #0000ff"/>
     <use xlink:href="#m2dbad0a4ac" x="228.592374" y="253.117787" style="fill: #0000ff"/>
     <use xlink:href="#m2dbad0a4ac" x="232.285579" y="248.383192" style="fill: #0000ff"/>
     <use xlink:href="#m2dbad0a4ac" x="235.978783" y="255.485084" style="fill: #0000ff"/>
     <use xlink:href="#m2dbad0a4ac" x="239.671988" y="253.117787" style="fill: #0000ff"/>
     <use xlink:href="#m2dbad0a4ac" x="243.365193" y="253.117787" style="fill: #0000ff"/>
     <use xlink:href="#m2dbad0a4ac" x="247.058398" y="255.485084" style="fill: #0000ff"/>
     <use xlink:href="#m2dbad0a4ac" x="250.751602" y="257.852382" style="fill: #0000ff"/>
     <use xlink:href="#m2dbad0a4ac" x="254.444807" y="260.219679" style="fill: #0000ff"/>
     <use xlink:href="#m2dbad0a4ac" x="258.138012" y="255.485084" style="fill: #0000ff"/>
     <use xlink:href="#m2dbad0a4ac" x="261.831217" y="267.321571" style="fill: #0000ff"/>
     <use xlink:href="#m2dbad0a4ac" x="265.524421" y="262.586977" style="fill: #0000ff"/>
     <use xlink:href="#m2dbad0a4ac" x="269.217626" y="260.219679" style="fill: #0000ff"/>
     <use xlink:href="#m2dbad0a4ac" x="272.910831" y="260.219679" style="fill: #0000ff"/>
     <use xlink:href="#m2dbad0a4ac" x="276.604036" y="267.321571" style="fill: #0000ff"/>
     <use xlink:href="#m2dbad0a4ac" x="280.297241" y="269.688869" style="fill: #0000ff"/>
     <use xlink:href="#m2dbad0a4ac" x="283.990445" y="269.688869" style="fill: #0000ff"/>
     <use xlink:href="#m2dbad0a4ac" x="287.68365" y="267.321571" style="fill: #0000ff"/>
     <use xlink:href="#m2dbad0a4ac" x="291.376855" y="274.423464" style="fill: #0000ff"/>
     <use xlink:href="#m2dbad0a4ac" x="295.07006" y="274.423464" style="fill: #0000ff"/>
     <use xlink:href="#m2dbad0a4ac" x="298.763264" y="276.790761" style="fill: #0000ff"/>
     <use xlink:href="#m2dbad0a4ac" x="302.456469" y="269.688869" style="fill: #0000ff"/>
     <use xlink:href="#m2dbad0a4ac" x="306.149674" y="274.423464" style="fill: #0000ff"/>
     <use xlink:href="#m2dbad0a4ac" x="309.842879" y="276.790761" style="fill: #0000ff"/>
     <use xlink:href="#m2dbad0a4ac" x="313.536084" y="274.423464" style="fill: #0000ff"/>
     <use xlink:href="#m2dbad0a4ac" x="317.229288" y="279.158058" style="fill: #0000ff"/>
     <use xlink:href="#m2dbad0a4ac" x="320.922493" y="274.423464" style="fill: #0000ff"/>
     <use xlink:href="#m2dbad0a4ac" x="324.615698" y="279.158058" style="fill: #0000ff"/>
     <use xlink:href="#m2dbad0a4ac" x="328.308903" y="279.158058" style="fill: #0000ff"/>
     <use xlink:href="#m2dbad0a4ac" x="332.002107" y="276.790761" style="fill: #0000ff"/>
     <use xlink:href="#m2dbad0a4ac" x="335.695312" y="281.525356" style="fill: #0000ff"/>
     <use xlink:href="#m2dbad0a4ac" x="339.388517" y="281.525356" style="fill: #0000ff"/>
     <use xlink:href="#m2dbad0a4ac" x="343.081722" y="281.525356" style="fill: #0000ff"/>
     <use xlink:href="#m2dbad0a4ac" x="346.774927" y="276.790761" style="fill: #0000ff"/>
     <use xlink:href="#m2dbad0a4ac" x="350.468131" y="281.525356" style="fill: #0000ff"/>
     <use xlink:href="#m2dbad0a4ac" x="354.161336" y="281.525356" style="fill: #0000ff"/>
     <use xlink:href="#m2dbad0a4ac" x="357.854541" y="283.892653" style="fill: #0000ff"/>
     <use xlink:href="#m2dbad0a4ac" x="361.547746" y="281.525356" style="fill: #0000ff"/>
     <use xlink:href="#m2dbad0a4ac" x="365.24095" y="279.158058" style="fill: #0000ff"/>
     <use xlink:href="#m2dbad0a4ac" x="368.934155" y="279.158058" style="fill: #0000ff"/>
     <use xlink:href="#m2dbad0a4ac" x="372.62736" y="283.892653" style="fill: #0000ff"/>
     <use xlink:href="#m2dbad0a4ac" x="376.320565" y="283.892653" style="fill: #0000ff"/>
     <use xlink:href="#m2dbad0a4ac" x="380.01377" y="283.892653" style="fill: #0000ff"/>
     <use xlink:href="#m2dbad0a4ac" x="383.706974" y="281.525356" style="fill: #0000ff"/>
     <use xlink:href="#m2dbad0a4ac" x="387.400179" y="286.259951" style="fill: #0000ff"/>
     <use xlink:href="#m2dbad0a4ac" x="391.093384" y="288.627248" style="fill: #0000ff"/>
     <use xlink:href="#m2dbad0a4ac" x="394.786589" y="288.627248" style="fill: #0000ff"/>
     <use xlink:href="#m2dbad0a4ac" x="398.479793" y="288.627248" style="fill: #0000ff"/>
     <use xlink:href="#m2dbad0a4ac" x="402.172998" y="288.627248" style="fill: #0000ff"/>
     <use xlink:href="#m2dbad0a4ac" x="405.866203" y="288.627248" style="fill: #0000ff"/>
     <use xlink:href="#m2dbad0a4ac" x="409.559408" y="286.259951" style="fill: #0000ff"/>
     <use xlink:href="#m2dbad0a4ac" x="413.252612" y="288.627248" style="fill: #0000ff"/>
     <use xlink:href="#m2dbad0a4ac" x="416.945817" y="286.259951" style="fill: #0000ff"/>
     <use xlink:href="#m2dbad0a4ac" x="420.639022" y="288.627248" style="fill: #0000ff"/>
     <use xlink:href="#m2dbad0a4ac" x="424.332227" y="288.627248" style="fill: #0000ff"/>
     <use xlink:href="#m2dbad0a4ac" x="428.025432" y="288.627248" style="fill: #0000ff"/>
     <use xlink:href="#m2dbad0a4ac" x="431.718636" y="286.259951" style="fill: #0000ff"/>
    </g>
   </g>
   <g id="line2d_14">
    <path d="M 66.091364 54.264805 
L 69.784568 93.325212 
L 73.477773 119.760033 
L 77.170978 132.977444 
L 80.864183 142.328268 
L 84.557388 152.113098 
L 88.250592 157.073149 
L 91.943797 161.976837 
L 95.637002 165.790816 
L 99.330207 170.262378 
L 103.023411 172.414466 
L 106.716616 176.575171 
L 110.409821 179.367368 
L 114.103026 180.915216 
L 117.79623 182.887964 
L 121.489435 185.205943 
L 125.18264 187.668976 
L 128.875845 190.252889 
L 132.56905 192.191027 
L 136.262254 193.698622 
L 139.955459 195.062636 
L 143.648664 196.840671 
L 147.341869 198.669947 
L 151.035073 200.05087 
L 154.728278 201.700087 
L 158.421483 202.949292 
L 162.114688 203.930608 
L 165.807893 205.433654 
L 169.501097 206.506517 
L 173.194302 207.428947 
L 176.887507 208.139136 
L 180.580712 209.100851 
L 184.273916 210.219489 
L 187.967121 211.272324 
L 191.660326 211.994449 
L 195.353531 212.873731 
L 199.046736 213.833446 
L 202.73994 214.618055 
L 206.433145 215.483828 
L 210.12635 216.24713 
L 213.819555 217.030936 
L 217.512759 217.890147 
L 221.205964 218.709394 
L 224.899169 219.491403 
L 228.592374 220.238656 
L 232.285579 220.850494 
L 235.978783 221.5874 
L 239.671988 222.244283 
L 243.365193 222.874355 
L 247.058398 223.526569 
L 250.751602 224.199625 
L 254.444807 224.892318 
L 258.138012 225.46954 
L 261.831217 226.244578 
L 265.524421 226.905348 
L 269.217626 227.500247 
L 272.910831 228.074272 
L 276.604036 228.75095 
L 280.297241 229.444813 
L 283.990445 230.115547 
L 287.68365 230.725482 
L 291.376855 231.430288 
L 295.07006 232.11272 
L 298.763264 232.810814 
L 302.456469 233.378169 
L 306.149674 234.000067 
L 309.842879 234.638734 
L 313.536084 235.223804 
L 317.229288 235.860532 
L 320.922493 236.411431 
L 324.615698 237.013496 
L 328.308903 237.598837 
L 332.002107 238.135713 
L 335.695312 238.72206 
L 339.388517 239.29277 
L 343.081722 239.848462 
L 346.774927 240.328232 
L 350.468131 240.8564 
L 354.161336 241.371197 
L 357.854541 241.902716 
L 361.547746 242.391884 
L 365.24095 242.840252 
L 368.934155 243.277816 
L 372.62736 243.761326 
L 376.320565 244.233459 
L 380.01377 244.694612 
L 383.706974 245.117954 
L 387.400179 245.585477 
L 391.093384 246.069092 
L 394.786589 246.541961 
L 398.479793 247.004437 
L 402.172998 247.456858 
L 405.866203 247.899551 
L 409.559408 248.30764 
L 413.252612 248.732057 
L 416.945817 249.122973 
L 420.639022 249.530233 
L 424.332227 249.929182 
L 428.025432 250.320072 
L 431.718636 250.679471 
" clip-path="url(#p6ebd6e5ee2)" style="fill: none; stroke: #0000ff; stroke-opacity: 0.5; stroke-width: 0.5; stroke-linecap: square"/>
    <defs>
     <path id="m2b528b48c0" d="M -0.49999 0.49999 
L 0.50001 0.49999 
L 0.50001 -0.50001 
L -0.49999 -0.50001 
z
"/>
    </defs>
    <g clip-path="url(#p6ebd6e5ee2)">
     <use xlink:href="#m2b528b48c0" x="66.091364" y="54.264805" style="fill: #0000ff; fill-opacity: 0.5"/>
     <use xlink:href="#m2b528b48c0" x="69.784568" y="93.325212" style="fill: #0000ff; fill-opacity: 0.5"/>
     <use xlink:href="#m2b528b48c0" x="73.477773" y="119.760033" style="fill: #0000ff; fill-opacity: 0.5"/>
     <use xlink:href="#m2b528b48c0" x="77.170978" y="132.977444" style="fill: #0000ff; fill-opacity: 0.5"/>
     <use xlink:href="#m2b528b48c0" x="80.864183" y="142.328268" style="fill: #0000ff; fill-opacity: 0.5"/>
     <use xlink:href="#m2b528b48c0" x="84.557388" y="152.113098" style="fill: #0000ff; fill-opacity: 0.5"/>
     <use xlink:href="#m2b528b48c0" x="88.250592" y="157.073149" style="fill: #0000ff; fill-opacity: 0.5"/>
     <use xlink:href="#m2b528b48c0" x="91.943797" y="161.976837" style="fill: #0000ff; fill-opacity: 0.5"/>
     <use xlink:href="#m2b528b48c0" x="95.637002" y="165.790816" style="fill: #0000ff; fill-opacity: 0.5"/>
     <use xlink:href="#m2b528b48c0" x="99.330207" y="170.262378" style="fill: #0000ff; fill-opacity: 0.5"/>
     <use xlink:href="#m2b528b48c0" x="103.023411" y="172.414466" style="fill: #0000ff; fill-opacity: 0.5"/>
     <use xlink:href="#m2b528b48c0" x="106.716616" y="176.575171" style="fill: #0000ff; fill-opacity: 0.5"/>
     <use xlink:href="#m2b528b48c0" x="110.409821" y="179.367368" style="fill: #0000ff; fill-opacity: 0.5"/>
     <use xlink:href="#m2b528b48c0" x="114.103026" y="180.915216" style="fill: #0000ff; fill-opacity: 0.5"/>
     <use xlink:href="#m2b528b48c0" x="117.79623" y="182.887964" style="fill: #0000ff; fill-opacity: 0.5"/>
     <use xlink:href="#m2b528b48c0" x="121.489435" y="185.205943" style="fill: #0000ff; fill-opacity: 0.5"/>
     <use xlink:href="#m2b528b48c0" x="125.18264" y="187.668976" style="fill: #0000ff; fill-opacity: 0.5"/>
     <use xlink:href="#m2b528b48c0" x="128.875845" y="190.252889" style="fill: #0000ff; fill-opacity: 0.5"/>
     <use xlink:href="#m2b528b48c0" x="132.56905" y="192.191027" style="fill: #0000ff; fill-opacity: 0.5"/>
     <use xlink:href="#m2b528b48c0" x="136.262254" y="193.698622" style="fill: #0000ff; fill-opacity: 0.5"/>
     <use xlink:href="#m2b528b48c0" x="139.955459" y="195.062636" style="fill: #0000ff; fill-opacity: 0.5"/>
     <use xlink:href="#m2b528b48c0" x="143.648664" y="196.840671" style="fill: #0000ff; fill-opacity: 0.5"/>
     <use xlink:href="#m2b528b48c0" x="147.341869" y="198.669947" style="fill: #0000ff; fill-opacity: 0.5"/>
     <use xlink:href="#m2b528b48c0" x="151.035073" y="200.05087" style="fill: #0000ff; fill-opacity: 0.5"/>
     <use xlink:href="#m2b528b48c0" x="154.728278" y="201.700087" style="fill: #0000ff; fill-opacity: 0.5"/>
     <use xlink:href="#m2b528b48c0" x="158.421483" y="202.949292" style="fill: #0000ff; fill-opacity: 0.5"/>
     <use xlink:href="#m2b528b48c0" x="162.114688" y="203.930608" style="fill: #0000ff; fill-opacity: 0.5"/>
     <use xlink:href="#m2b528b48c0" x="165.807893" y="205.433654" style="fill: #0000ff; fill-opacity: 0.5"/>
     <use xlink:href="#m2b528b48c0" x="169.501097" y="206.506517" style="fill: #0000ff; fill-opacity: 0.5"/>
     <use xlink:href="#m2b528b48c0" x="173.194302" y="207.428947" style="fill: #0000ff; fill-opacity: 0.5"/>
     <use xlink:href="#m2b528b48c0" x="176.887507" y="208.139136" style="fill: #0000ff; fill-opacity: 0.5"/>
     <use xlink:href="#m2b528b48c0" x="180.580712" y="209.100851" style="fill: #0000ff; fill-opacity: 0.5"/>
     <use xlink:href="#m2b528b48c0" x="184.273916" y="210.219489" style="fill: #0000ff; fill-opacity: 0.5"/>
     <use xlink:href="#m2b528b48c0" x="187.967121" y="211.272324" style="fill: #0000ff; fill-opacity: 0.5"/>
     <use xlink:href="#m2b528b48c0" x="191.660326" y="211.994449" style="fill: #0000ff; fill-opacity: 0.5"/>
     <use xlink:href="#m2b528b48c0" x="195.353531" y="212.873731" style="fill: #0000ff; fill-opacity: 0.5"/>
     <use xlink:href="#m2b528b48c0" x="199.046736" y="213.833446" style="fill: #0000ff; fill-opacity: 0.5"/>
     <use xlink:href="#m2b528b48c0" x="202.73994" y="214.618055" style="fill: #0000ff; fill-opacity: 0.5"/>
     <use xlink:href="#m2b528b48c0" x="206.433145" y="215.483828" style="fill: #0000ff; fill-opacity: 0.5"/>
     <use xlink:href="#m2b528b48c0" x="210.12635" y="216.24713" style="fill: #0000ff; fill-opacity: 0.5"/>
     <use xlink:href="#m2b528b48c0" x="213.819555" y="217.030936" style="fill: #0000ff; fill-opacity: 0.5"/>
     <use xlink:href="#m2b528b48c0" x="217.512759" y="217.890147" style="fill: #0000ff; fill-opacity: 0.5"/>
     <use xlink:href="#m2b528b48c0" x="221.205964" y="218.709394" style="fill: #0000ff; fill-opacity: 0.5"/>
     <use xlink:href="#m2b528b48c0" x="224.899169" y="219.491403" style="fill: #0000ff; fill-opacity: 0.5"/>
     <use xlink:href="#m2b528b48c0" x="228.592374" y="220.238656" style="fill: #0000ff; fill-opacity: 0.5"/>
     <use xlink:href="#m2b528b48c0" x="232.285579" y="220.850494" style="fill: #0000ff; fill-opacity: 0.5"/>
     <use xlink:href="#m2b528b48c0" x="235.978783" y="221.5874" style="fill: #0000ff; fill-opacity: 0.5"/>
     <use xlink:href="#m2b528b48c0" x="239.671988" y="222.244283" style="fill: #0000ff; fill-opacity: 0.5"/>
     <use xlink:href="#m2b528b48c0" x="243.365193" y="222.874355" style="fill: #0000ff; fill-opacity: 0.5"/>
     <use xlink:href="#m2b528b48c0" x="247.058398" y="223.526569" style="fill: #0000ff; fill-opacity: 0.5"/>
     <use xlink:href="#m2b528b48c0" x="250.751602" y="224.199625" style="fill: #0000ff; fill-opacity: 0.5"/>
     <use xlink:href="#m2b528b48c0" x="254.444807" y="224.892318" style="fill: #0000ff; fill-opacity: 0.5"/>
     <use xlink:href="#m2b528b48c0" x="258.138012" y="225.46954" style="fill: #0000ff; fill-opacity: 0.5"/>
     <use xlink:href="#m2b528b48c0" x="261.831217" y="226.244578" style="fill: #0000ff; fill-opacity: 0.5"/>
     <use xlink:href="#m2b528b48c0" x="265.524421" y="226.905348" style="fill: #0000ff; fill-opacity: 0.5"/>
     <use xlink:href="#m2b528b48c0" x="269.217626" y="227.500247" style="fill: #0000ff; fill-opacity: 0.5"/>
     <use xlink:href="#m2b528b48c0" x="272.910831" y="228.074272" style="fill: #0000ff; fill-opacity: 0.5"/>
     <use xlink:href="#m2b528b48c0" x="276.604036" y="228.75095" style="fill: #0000ff; fill-opacity: 0.5"/>
     <use xlink:href="#m2b528b48c0" x="280.297241" y="229.444813" style="fill: #0000ff; fill-opacity: 0.5"/>
     <use xlink:href="#m2b528b48c0" x="283.990445" y="230.115547" style="fill: #0000ff; fill-opacity: 0.5"/>
     <use xlink:href="#m2b528b48c0" x="287.68365" y="230.725482" style="fill: #0000ff; fill-opacity: 0.5"/>
     <use xlink:href="#m2b528b48c0" x="291.376855" y="231.430288" style="fill: #0000ff; fill-opacity: 0.5"/>
     <use xlink:href="#m2b528b48c0" x="295.07006" y="232.11272" style="fill: #0000ff; fill-opacity: 0.5"/>
     <use xlink:href="#m2b528b48c0" x="298.763264" y="232.810814" style="fill: #0000ff; fill-opacity: 0.5"/>
     <use xlink:href="#m2b528b48c0" x="302.456469" y="233.378169" style="fill: #0000ff; fill-opacity: 0.5"/>
     <use xlink:href="#m2b528b48c0" x="306.149674" y="234.000067" style="fill: #0000ff; fill-opacity: 0.5"/>
     <use xlink:href="#m2b528b48c0" x="309.842879" y="234.638734" style="fill: #0000ff; fill-opacity: 0.5"/>
     <use xlink:href="#m2b528b48c0" x="313.536084" y="235.223804" style="fill: #0000ff; fill-opacity: 0.5"/>
     <use xlink:href="#m2b528b48c0" x="317.229288" y="235.860532" style="fill: #0000ff; fill-opacity: 0.5"/>
     <use xlink:href="#m2b528b48c0" x="320.922493" y="236.411431" style="fill: #0000ff; fill-opacity: 0.5"/>
     <use xlink:href="#m2b528b48c0" x="324.615698" y="237.013496" style="fill: #0000ff; fill-opacity: 0.5"/>
     <use xlink:href="#m2b528b48c0" x="328.308903" y="237.598837" style="fill: #0000ff; fill-opacity: 0.5"/>
     <use xlink:href="#m2b528b48c0" x="332.002107" y="238.135713" style="fill: #0000ff; fill-opacity: 0.5"/>
     <use xlink:href="#m2b528b48c0" x="335.695312" y="238.72206" style="fill: #0000ff; fill-opacity: 0.5"/>
     <use xlink:href="#m2b528b48c0" x="339.388517" y="239.29277" style="fill: #0000ff; fill-opacity: 0.5"/>
     <use xlink:href="#m2b528b48c0" x="343.081722" y="239.848462" style="fill: #0000ff; fill-opacity: 0.5"/>
     <use xlink:href="#m2b528b48c0" x="346.774927" y="240.328232" style="fill: #0000ff; fill-opacity: 0.5"/>
     <use xlink:href="#m2b528b48c0" x="350.468131" y="240.8564" style="fill: #0000ff; fill-opacity: 0.5"/>
     <use xlink:href="#m2b528b48c0" x="354.161336" y="241.371197" style="fill: #0000ff; fill-opacity: 0.5"/>
     <use xlink:href="#m2b528b48c0" x="357.854541" y="241.902716" style="fill: #0000ff; fill-opacity: 0.5"/>
     <use xlink:href="#m2b528b48c0" x="361.547746" y="242.391884" style="fill: #0000ff; fill-opacity: 0.5"/>
     <use xlink:href="#m2b528b48c0" x="365.24095" y="242.840252" style="fill: #0000ff; fill-opacity: 0.5"/>
     <use xlink:href="#m2b528b48c0" x="368.934155" y="243.277816" style="fill: #0000ff; fill-opacity: 0.5"/>
     <use xlink:href="#m2b528b48c0" x="372.62736" y="243.761326" style="fill: #0000ff; fill-opacity: 0.5"/>
     <use xlink:href="#m2b528b48c0" x="376.320565" y="244.233459" style="fill: #0000ff; fill-opacity: 0.5"/>
     <use xlink:href="#m2b528b48c0" x="380.01377" y="244.694612" style="fill: #0000ff; fill-opacity: 0.5"/>
     <use xlink:href="#m2b528b48c0" x="383.706974" y="245.117954" style="fill: #0000ff; fill-opacity: 0.5"/>
     <use xlink:href="#m2b528b48c0" x="387.400179" y="245.585477" style="fill: #0000ff; fill-opacity: 0.5"/>
     <use xlink:href="#m2b528b48c0" x="391.093384" y="246.069092" style="fill: #0000ff; fill-opacity: 0.5"/>
     <use xlink:href="#m2b528b48c0" x="394.786589" y="246.541961" style="fill: #0000ff; fill-opacity: 0.5"/>
     <use xlink:href="#m2b528b48c0" x="398.479793" y="247.004437" style="fill: #0000ff; fill-opacity: 0.5"/>
     <use xlink:href="#m2b528b48c0" x="402.172998" y="247.456858" style="fill: #0000ff; fill-opacity: 0.5"/>
     <use xlink:href="#m2b528b48c0" x="405.866203" y="247.899551" style="fill: #0000ff; fill-opacity: 0.5"/>
     <use xlink:href="#m2b528b48c0" x="409.559408" y="248.30764" style="fill: #0000ff; fill-opacity: 0.5"/>
     <use xlink:href="#m2b528b48c0" x="413.252612" y="248.732057" style="fill: #0000ff; fill-opacity: 0.5"/>
     <use xlink:href="#m2b528b48c0" x="416.945817" y="249.122973" style="fill: #0000ff; fill-opacity: 0.5"/>
     <use xlink:href="#m2b528b48c0" x="420.639022" y="249.530233" style="fill: #0000ff; fill-opacity: 0.5"/>
     <use xlink:href="#m2b528b48c0" x="424.332227" y="249.929182" style="fill: #0000ff; fill-opacity: 0.5"/>
     <use xlink:href="#m2b528b48c0" x="428.025432" y="250.320072" style="fill: #0000ff; fill-opacity: 0.5"/>
     <use xlink:href="#m2b528b48c0" x="431.718636" y="250.679471" style="fill: #0000ff; fill-opacity: 0.5"/>
    </g>
   </g>
   <g id="line2d_15">
    <path d="M 47.81 290.994545 
L 450 290.994545 
" clip-path="url(#p6ebd6e5ee2)" style="fill: none; stroke-dasharray: 0.555,0.24; stroke-dashoffset: 0; stroke: #ff0000; stroke-width: 0.15"/>
   </g>
   <g id="line2d_16">
    <path d="M 47.81 172.629675 
L 450 172.629675 
" clip-path="url(#p6ebd6e5ee2)" style="fill: none; stroke-dasharray: 0.555,0.24; stroke-dashoffset: 0; stroke: #ff0000; stroke-width: 0.15"/>
   </g>
   <g id="line2d_17">
    <path d="M 47.81 54.264805 
L 450 54.264805 
" clip-path="url(#p6ebd6e5ee2)" style="fill: none; stroke-dasharray: 0.555,0.24; stroke-dashoffset: 0; stroke: #ff0000; stroke-width: 0.15"/>
   </g>
   <g id="line2d_18">
    <path d="M 66.091364 163.160486 
L 69.784568 156.058593 
L 73.477773 184.466162 
L 77.170978 165.527783 
L 80.864183 163.160486 
L 84.557388 156.058593 
L 88.250592 174.996973 
L 91.943797 170.262378 
L 95.637002 170.262378 
L 99.330207 144.222106 
L 103.023411 156.058593 
L 106.716616 177.36427 
L 110.409821 172.629675 
L 114.103026 177.36427 
L 117.79623 174.996973 
L 121.489435 174.996973 
L 125.18264 160.793188 
L 128.875845 156.058593 
L 132.56905 184.466162 
L 136.262254 179.731567 
L 139.955459 189.200757 
L 143.648664 165.527783 
L 147.341869 182.098865 
L 151.035073 156.058593 
L 154.728278 177.36427 
L 158.421483 167.89508 
L 162.114688 172.629675 
L 165.807893 163.160486 
L 169.501097 167.89508 
L 173.194302 163.160486 
L 176.887507 160.793188 
L 180.580712 160.793188 
L 184.273916 191.568054 
L 187.967121 191.568054 
L 191.660326 189.200757 
L 195.353531 191.568054 
L 199.046736 174.996973 
L 202.73994 179.731567 
L 206.433145 186.83346 
L 210.12635 165.527783 
L 213.819555 174.996973 
L 217.512759 160.793188 
L 221.205964 158.425891 
L 224.899169 158.425891 
L 228.592374 179.731567 
L 232.285579 163.160486 
L 235.978783 151.323999 
L 239.671988 182.098865 
L 243.365193 174.996973 
L 247.058398 160.793188 
L 250.751602 170.262378 
L 254.444807 174.996973 
L 258.138012 174.996973 
L 261.831217 177.36427 
L 265.524421 156.058593 
L 269.217626 163.160486 
L 272.910831 172.629675 
L 276.604036 184.466162 
L 280.297241 182.098865 
L 283.990445 158.425891 
L 287.68365 163.160486 
L 291.376855 186.83346 
L 295.07006 184.466162 
L 298.763264 186.83346 
L 302.456469 163.160486 
L 306.149674 193.935352 
L 309.842879 193.935352 
L 313.536084 158.425891 
L 317.229288 167.89508 
L 320.922493 167.89508 
L 324.615698 174.996973 
L 328.308903 167.89508 
L 332.002107 167.89508 
L 335.695312 186.83346 
L 339.388517 165.527783 
L 343.081722 167.89508 
L 346.774927 172.629675 
L 350.468131 146.589404 
L 354.161336 177.36427 
L 357.854541 165.527783 
L 361.547746 177.36427 
L 365.24095 167.89508 
L 368.934155 167.89508 
L 372.62736 186.83346 
L 376.320565 172.629675 
L 380.01377 174.996973 
L 383.706974 177.36427 
L 387.400179 170.262378 
L 391.093384 177.36427 
L 394.786589 177.36427 
L 398.479793 170.262378 
L 402.172998 179.731567 
L 405.866203 177.36427 
L 409.559408 170.262378 
L 413.252612 179.731567 
L 416.945817 201.037244 
L 420.639022 163.160486 
L 424.332227 179.731567 
L 428.025432 208.139136 
L 431.718636 167.89508 
" clip-path="url(#p6ebd6e5ee2)" style="fill: none; stroke: #ff0000; stroke-width: 0.5; stroke-linecap: square"/>
    <defs>
     <path id="m8637f6d852" d="M -0.49999 0.49999 
L 0.50001 0.49999 
L 0.50001 -0.50001 
L -0.49999 -0.50001 
z
"/>
    </defs>
    <g clip-path="url(#p6ebd6e5ee2)">
     <use xlink:href="#m8637f6d852" x="66.091364" y="163.160486" style="fill: #ff0000"/>
     <use xlink:href="#m8637f6d852" x="69.784568" y="156.058593" style="fill: #ff0000"/>
     <use xlink:href="#m8637f6d852" x="73.477773" y="184.466162" style="fill: #ff0000"/>
     <use xlink:href="#m8637f6d852" x="77.170978" y="165.527783" style="fill: #ff0000"/>
     <use xlink:href="#m8637f6d852" x="80.864183" y="163.160486" style="fill: #ff0000"/>
     <use xlink:href="#m8637f6d852" x="84.557388" y="156.058593" style="fill: #ff0000"/>
     <use xlink:href="#m8637f6d852" x="88.250592" y="174.996973" style="fill: #ff0000"/>
     <use xlink:href="#m8637f6d852" x="91.943797" y="170.262378" style="fill: #ff0000"/>
     <use xlink:href="#m8637f6d852" x="95.637002" y="170.262378" style="fill: #ff0000"/>
     <use xlink:href="#m8637f6d852" x="99.330207" y="144.222106" style="fill: #ff0000"/>
     <use xlink:href="#m8637f6d852" x="103.023411" y="156.058593" style="fill: #ff0000"/>
     <use xlink:href="#m8637f6d852" x="106.716616" y="177.36427" style="fill: #ff0000"/>
     <use xlink:href="#m8637f6d852" x="110.409821" y="172.629675" style="fill: #ff0000"/>
     <use xlink:href="#m8637f6d852" x="114.103026" y="177.36427" style="fill: #ff0000"/>
     <use xlink:href="#m8637f6d852" x="117.79623" y="174.996973" style="fill: #ff0000"/>
     <use xlink:href="#m8637f6d852" x="121.489435" y="174.996973" style="fill: #ff0000"/>
     <use xlink:href="#m8637f6d852" x="125.18264" y="160.793188" style="fill: #ff0000"/>
     <use xlink:href="#m8637f6d852" x="128.875845" y="156.058593" style="fill: #ff0000"/>
     <use xlink:href="#m8637f6d852" x="132.56905" y="184.466162" style="fill: #ff0000"/>
     <use xlink:href="#m8637f6d852" x="136.262254" y="179.731567" style="fill: #ff0000"/>
     <use xlink:href="#m8637f6d852" x="139.955459" y="189.200757" style="fill: #ff0000"/>
     <use xlink:href="#m8637f6d852" x="143.648664" y="165.527783" style="fill: #ff0000"/>
     <use xlink:href="#m8637f6d852" x="147.341869" y="182.098865" style="fill: #ff0000"/>
     <use xlink:href="#m8637f6d852" x="151.035073" y="156.058593" style="fill: #ff0000"/>
     <use xlink:href="#m8637f6d852" x="154.728278" y="177.36427" style="fill: #ff0000"/>
     <use xlink:href="#m8637f6d852" x="158.421483" y="167.89508" style="fill: #ff0000"/>
     <use xlink:href="#m8637f6d852" x="162.114688" y="172.629675" style="fill: #ff0000"/>
     <use xlink:href="#m8637f6d852" x="165.807893" y="163.160486" style="fill: #ff0000"/>
     <use xlink:href="#m8637f6d852" x="169.501097" y="167.89508" style="fill: #ff0000"/>
     <use xlink:href="#m8637f6d852" x="173.194302" y="163.160486" style="fill: #ff0000"/>
     <use xlink:href="#m8637f6d852" x="176.887507" y="160.793188" style="fill: #ff0000"/>
     <use xlink:href="#m8637f6d852" x="180.580712" y="160.793188" style="fill: #ff0000"/>
     <use xlink:href="#m8637f6d852" x="184.273916" y="191.568054" style="fill: #ff0000"/>
     <use xlink:href="#m8637f6d852" x="187.967121" y="191.568054" style="fill: #ff0000"/>
     <use xlink:href="#m8637f6d852" x="191.660326" y="189.200757" style="fill: #ff0000"/>
     <use xlink:href="#m8637f6d852" x="195.353531" y="191.568054" style="fill: #ff0000"/>
     <use xlink:href="#m8637f6d852" x="199.046736" y="174.996973" style="fill: #ff0000"/>
     <use xlink:href="#m8637f6d852" x="202.73994" y="179.731567" style="fill: #ff0000"/>
     <use xlink:href="#m8637f6d852" x="206.433145" y="186.83346" style="fill: #ff0000"/>
     <use xlink:href="#m8637f6d852" x="210.12635" y="165.527783" style="fill: #ff0000"/>
     <use xlink:href="#m8637f6d852" x="213.819555" y="174.996973" style="fill: #ff0000"/>
     <use xlink:href="#m8637f6d852" x="217.512759" y="160.793188" style="fill: #ff0000"/>
     <use xlink:href="#m8637f6d852" x="221.205964" y="158.425891" style="fill: #ff0000"/>
     <use xlink:href="#m8637f6d852" x="224.899169" y="158.425891" style="fill: #ff0000"/>
     <use xlink:href="#m8637f6d852" x="228.592374" y="179.731567" style="fill: #ff0000"/>
     <use xlink:href="#m8637f6d852" x="232.285579" y="163.160486" style="fill: #ff0000"/>
     <use xlink:href="#m8637f6d852" x="235.978783" y="151.323999" style="fill: #ff0000"/>
     <use xlink:href="#m8637f6d852" x="239.671988" y="182.098865" style="fill: #ff0000"/>
     <use xlink:href="#m8637f6d852" x="243.365193" y="174.996973" style="fill: #ff0000"/>
     <use xlink:href="#m8637f6d852" x="247.058398" y="160.793188" style="fill: #ff0000"/>
     <use xlink:href="#m8637f6d852" x="250.751602" y="170.262378" style="fill: #ff0000"/>
     <use xlink:href="#m8637f6d852" x="254.444807" y="174.996973" style="fill: #ff0000"/>
     <use xlink:href="#m8637f6d852" x="258.138012" y="174.996973" style="fill: #ff0000"/>
     <use xlink:href="#m8637f6d852" x="261.831217" y="177.36427" style="fill: #ff0000"/>
     <use xlink:href="#m8637f6d852" x="265.524421" y="156.058593" style="fill: #ff0000"/>
     <use xlink:href="#m8637f6d852" x="269.217626" y="163.160486" style="fill: #ff0000"/>
     <use xlink:href="#m8637f6d852" x="272.910831" y="172.629675" style="fill: #ff0000"/>
     <use xlink:href="#m8637f6d852" x="276.604036" y="184.466162" style="fill: #ff0000"/>
     <use xlink:href="#m8637f6d852" x="280.297241" y="182.098865" style="fill: #ff0000"/>
     <use xlink:href="#m8637f6d852" x="283.990445" y="158.425891" style="fill: #ff0000"/>
     <use xlink:href="#m8637f6d852" x="287.68365" y="163.160486" style="fill: #ff0000"/>
     <use xlink:href="#m8637f6d852" x="291.376855" y="186.83346" style="fill: #ff0000"/>
     <use xlink:href="#m8637f6d852" x="295.07006" y="184.466162" style="fill: #ff0000"/>
     <use xlink:href="#m8637f6d852" x="298.763264" y="186.83346" style="fill: #ff0000"/>
     <use xlink:href="#m8637f6d852" x="302.456469" y="163.160486" style="fill: #ff0000"/>
     <use xlink:href="#m8637f6d852" x="306.149674" y="193.935352" style="fill: #ff0000"/>
     <use xlink:href="#m8637f6d852" x="309.842879" y="193.935352" style="fill: #ff0000"/>
     <use xlink:href="#m8637f6d852" x="313.536084" y="158.425891" style="fill: #ff0000"/>
     <use xlink:href="#m8637f6d852" x="317.229288" y="167.89508" style="fill: #ff0000"/>
     <use xlink:href="#m8637f6d852" x="320.922493" y="167.89508" style="fill: #ff0000"/>
     <use xlink:href="#m8637f6d852" x="324.615698" y="174.996973" style="fill: #ff0000"/>
     <use xlink:href="#m8637f6d852" x="328.308903" y="167.89508" style="fill: #ff0000"/>
     <use xlink:href="#m8637f6d852" x="332.002107" y="167.89508" style="fill: #ff0000"/>
     <use xlink:href="#m8637f6d852" x="335.695312" y="186.83346" style="fill: #ff0000"/>
     <use xlink:href="#m8637f6d852" x="339.388517" y="165.527783" style="fill: #ff0000"/>
     <use xlink:href="#m8637f6d852" x="343.081722" y="167.89508" style="fill: #ff0000"/>
     <use xlink:href="#m8637f6d852" x="346.774927" y="172.629675" style="fill: #ff0000"/>
     <use xlink:href="#m8637f6d852" x="350.468131" y="146.589404" style="fill: #ff0000"/>
     <use xlink:href="#m8637f6d852" x="354.161336" y="177.36427" style="fill: #ff0000"/>
     <use xlink:href="#m8637f6d852" x="357.854541" y="165.527783" style="fill: #ff0000"/>
     <use xlink:href="#m8637f6d852" x="361.547746" y="177.36427" style="fill: #ff0000"/>
     <use xlink:href="#m8637f6d852" x="365.24095" y="167.89508" style="fill: #ff0000"/>
     <use xlink:href="#m8637f6d852" x="368.934155" y="167.89508" style="fill: #ff0000"/>
     <use xlink:href="#m8637f6d852" x="372.62736" y="186.83346" style="fill: #ff0000"/>
     <use xlink:href="#m8637f6d852" x="376.320565" y="172.629675" style="fill: #ff0000"/>
     <use xlink:href="#m8637f6d852" x="380.01377" y="174.996973" style="fill: #ff0000"/>
     <use xlink:href="#m8637f6d852" x="383.706974" y="177.36427" style="fill: #ff0000"/>
     <use xlink:href="#m8637f6d852" x="387.400179" y="170.262378" style="fill: #ff0000"/>
     <use xlink:href="#m8637f6d852" x="391.093384" y="177.36427" style="fill: #ff0000"/>
     <use xlink:href="#m8637f6d852" x="394.786589" y="177.36427" style="fill: #ff0000"/>
     <use xlink:href="#m8637f6d852" x="398.479793" y="170.262378" style="fill: #ff0000"/>
     <use xlink:href="#m8637f6d852" x="402.172998" y="179.731567" style="fill: #ff0000"/>
     <use xlink:href="#m8637f6d852" x="405.866203" y="177.36427" style="fill: #ff0000"/>
     <use xlink:href="#m8637f6d852" x="409.559408" y="170.262378" style="fill: #ff0000"/>
     <use xlink:href="#m8637f6d852" x="413.252612" y="179.731567" style="fill: #ff0000"/>
     <use xlink:href="#m8637f6d852" x="416.945817" y="201.037244" style="fill: #ff0000"/>
     <use xlink:href="#m8637f6d852" x="420.639022" y="163.160486" style="fill: #ff0000"/>
     <use xlink:href="#m8637f6d852" x="424.332227" y="179.731567" style="fill: #ff0000"/>
     <use xlink:href="#m8637f6d852" x="428.025432" y="208.139136" style="fill: #ff0000"/>
     <use xlink:href="#m8637f6d852" x="431.718636" y="167.89508" style="fill: #ff0000"/>
    </g>
   </g>
   <g id="line2d_19">
    <path d="M 66.091364 163.160486 
L 69.784568 159.609539 
L 73.477773 167.89508 
L 77.170978 167.303256 
L 80.864183 166.474702 
L 84.557388 164.738684 
L 88.250592 166.204154 
L 91.943797 166.711432 
L 95.637002 167.105981 
L 99.330207 164.817594 
L 103.023411 164.021321 
L 106.716616 165.133233 
L 110.409821 165.709883 
L 114.103026 166.542339 
L 117.79623 167.105981 
L 121.489435 167.599168 
L 125.18264 167.198816 
L 128.875845 166.579915 
L 132.56905 167.521297 
L 136.262254 168.13181 
L 139.955459 169.135093 
L 143.648664 168.971125 
L 147.341869 169.541896 
L 151.035073 168.980092 
L 154.728278 169.315459 
L 158.421483 169.260829 
L 162.114688 169.385601 
L 165.807893 169.163275 
L 169.501097 169.119545 
L 173.194302 168.920909 
L 176.887507 168.658725 
L 180.580712 168.412927 
L 184.273916 169.114597 
L 187.967121 169.774993 
L 191.660326 170.330015 
L 195.353531 170.91996 
L 199.046736 171.03015 
L 202.73994 171.259135 
L 206.433145 171.658476 
L 210.12635 171.505209 
L 213.819555 171.590374 
L 217.512759 171.333298 
L 221.205964 171.033126 
L 224.899169 170.746598 
L 228.592374 170.946264 
L 232.285579 170.777008 
L 235.978783 170.363114 
L 239.671988 170.607609 
L 243.365193 170.697188 
L 247.058398 170.499108 
L 250.751602 170.494466 
L 254.444807 170.581052 
L 258.138012 170.664372 
L 261.831217 170.788444 
L 265.524421 170.520628 
L 269.217626 170.389197 
L 272.910831 170.428504 
L 276.604036 170.670533 
L 280.297241 170.864233 
L 283.990445 170.656927 
L 287.68365 170.534035 
L 291.376855 170.796929 
L 295.07006 171.013901 
L 298.763264 171.261081 
L 302.456469 171.136457 
L 306.149674 171.481895 
L 309.842879 171.817021 
L 313.536084 171.620092 
L 317.229288 171.566107 
L 320.922493 171.513664 
L 324.615698 171.562724 
L 328.308903 171.511785 
L 332.002107 171.462241 
L 335.695312 171.66996 
L 339.388517 171.588064 
L 343.081722 171.539472 
L 346.774927 171.553631 
L 350.468131 171.233577 
L 354.161336 171.31118 
L 357.854541 171.238888 
L 361.547746 171.31451 
L 365.24095 171.27281 
L 368.934155 171.232114 
L 372.62736 171.417844 
L 376.320565 171.432101 
L 380.01377 171.473553 
L 383.706974 171.541263 
L 387.400179 171.52673 
L 391.093384 171.59232 
L 394.786589 171.656453 
L 398.479793 171.641133 
L 402.172998 171.729073 
L 405.866203 171.789666 
L 409.559408 171.773419 
L 413.252612 171.857189 
L 416.945817 172.161148 
L 420.639022 172.068357 
L 424.332227 172.146553 
L 428.025432 172.510115 
L 431.718636 172.463964 
" clip-path="url(#p6ebd6e5ee2)" style="fill: none; stroke: #ff0000; stroke-opacity: 0.5; stroke-width: 0.25; stroke-linecap: square"/>
    <defs>
     <path id="mdfa045dd8f" d="M -0.49999 0.49999 
L 0.50001 0.49999 
L 0.50001 -0.50001 
L -0.49999 -0.50001 
z
"/>
    </defs>
    <g clip-path="url(#p6ebd6e5ee2)">
     <use xlink:href="#mdfa045dd8f" x="66.091364" y="163.160486" style="fill: #ff0000; fill-opacity: 0.5"/>
     <use xlink:href="#mdfa045dd8f" x="69.784568" y="159.609539" style="fill: #ff0000; fill-opacity: 0.5"/>
     <use xlink:href="#mdfa045dd8f" x="73.477773" y="167.89508" style="fill: #ff0000; fill-opacity: 0.5"/>
     <use xlink:href="#mdfa045dd8f" x="77.170978" y="167.303256" style="fill: #ff0000; fill-opacity: 0.5"/>
     <use xlink:href="#mdfa045dd8f" x="80.864183" y="166.474702" style="fill: #ff0000; fill-opacity: 0.5"/>
     <use xlink:href="#mdfa045dd8f" x="84.557388" y="164.738684" style="fill: #ff0000; fill-opacity: 0.5"/>
     <use xlink:href="#mdfa045dd8f" x="88.250592" y="166.204154" style="fill: #ff0000; fill-opacity: 0.5"/>
     <use xlink:href="#mdfa045dd8f" x="91.943797" y="166.711432" style="fill: #ff0000; fill-opacity: 0.5"/>
     <use xlink:href="#mdfa045dd8f" x="95.637002" y="167.105981" style="fill: #ff0000; fill-opacity: 0.5"/>
     <use xlink:href="#mdfa045dd8f" x="99.330207" y="164.817594" style="fill: #ff0000; fill-opacity: 0.5"/>
     <use xlink:href="#mdfa045dd8f" x="103.023411" y="164.021321" style="fill: #ff0000; fill-opacity: 0.5"/>
     <use xlink:href="#mdfa045dd8f" x="106.716616" y="165.133233" style="fill: #ff0000; fill-opacity: 0.5"/>
     <use xlink:href="#mdfa045dd8f" x="110.409821" y="165.709883" style="fill: #ff0000; fill-opacity: 0.5"/>
     <use xlink:href="#mdfa045dd8f" x="114.103026" y="166.542339" style="fill: #ff0000; fill-opacity: 0.5"/>
     <use xlink:href="#mdfa045dd8f" x="117.79623" y="167.105981" style="fill: #ff0000; fill-opacity: 0.5"/>
     <use xlink:href="#mdfa045dd8f" x="121.489435" y="167.599168" style="fill: #ff0000; fill-opacity: 0.5"/>
     <use xlink:href="#mdfa045dd8f" x="125.18264" y="167.198816" style="fill: #ff0000; fill-opacity: 0.5"/>
     <use xlink:href="#mdfa045dd8f" x="128.875845" y="166.579915" style="fill: #ff0000; fill-opacity: 0.5"/>
     <use xlink:href="#mdfa045dd8f" x="132.56905" y="167.521297" style="fill: #ff0000; fill-opacity: 0.5"/>
     <use xlink:href="#mdfa045dd8f" x="136.262254" y="168.13181" style="fill: #ff0000; fill-opacity: 0.5"/>
     <use xlink:href="#mdfa045dd8f" x="139.955459" y="169.135093" style="fill: #ff0000; fill-opacity: 0.5"/>
     <use xlink:href="#mdfa045dd8f" x="143.648664" y="168.971125" style="fill: #ff0000; fill-opacity: 0.5"/>
     <use xlink:href="#mdfa045dd8f" x="147.341869" y="169.541896" style="fill: #ff0000; fill-opacity: 0.5"/>
     <use xlink:href="#mdfa045dd8f" x="151.035073" y="168.980092" style="fill: #ff0000; fill-opacity: 0.5"/>
     <use xlink:href="#mdfa045dd8f" x="154.728278" y="169.315459" style="fill: #ff0000; fill-opacity: 0.5"/>
     <use xlink:href="#mdfa045dd8f" x="158.421483" y="169.260829" style="fill: #ff0000; fill-opacity: 0.5"/>
     <use xlink:href="#mdfa045dd8f" x="162.114688" y="169.385601" style="fill: #ff0000; fill-opacity: 0.5"/>
     <use xlink:href="#mdfa045dd8f" x="165.807893" y="169.163275" style="fill: #ff0000; fill-opacity: 0.5"/>
     <use xlink:href="#mdfa045dd8f" x="169.501097" y="169.119545" style="fill: #ff0000; fill-opacity: 0.5"/>
     <use xlink:href="#mdfa045dd8f" x="173.194302" y="168.920909" style="fill: #ff0000; fill-opacity: 0.5"/>
     <use xlink:href="#mdfa045dd8f" x="176.887507" y="168.658725" style="fill: #ff0000; fill-opacity: 0.5"/>
     <use xlink:href="#mdfa045dd8f" x="180.580712" y="168.412927" style="fill: #ff0000; fill-opacity: 0.5"/>
     <use xlink:href="#mdfa045dd8f" x="184.273916" y="169.114597" style="fill: #ff0000; fill-opacity: 0.5"/>
     <use xlink:href="#mdfa045dd8f" x="187.967121" y="169.774993" style="fill: #ff0000; fill-opacity: 0.5"/>
     <use xlink:href="#mdfa045dd8f" x="191.660326" y="170.330015" style="fill: #ff0000; fill-opacity: 0.5"/>
     <use xlink:href="#mdfa045dd8f" x="195.353531" y="170.91996" style="fill: #ff0000; fill-opacity: 0.5"/>
     <use xlink:href="#mdfa045dd8f" x="199.046736" y="171.03015" style="fill: #ff0000; fill-opacity: 0.5"/>
     <use xlink:href="#mdfa045dd8f" x="202.73994" y="171.259135" style="fill: #ff0000; fill-opacity: 0.5"/>
     <use xlink:href="#mdfa045dd8f" x="206.433145" y="171.658476" style="fill: #ff0000; fill-opacity: 0.5"/>
     <use xlink:href="#mdfa045dd8f" x="210.12635" y="171.505209" style="fill: #ff0000; fill-opacity: 0.5"/>
     <use xlink:href="#mdfa045dd8f" x="213.819555" y="171.590374" style="fill: #ff0000; fill-opacity: 0.5"/>
     <use xlink:href="#mdfa045dd8f" x="217.512759" y="171.333298" style="fill: #ff0000; fill-opacity: 0.5"/>
     <use xlink:href="#mdfa045dd8f" x="221.205964" y="171.033126" style="fill: #ff0000; fill-opacity: 0.5"/>
     <use xlink:href="#mdfa045dd8f" x="224.899169" y="170.746598" style="fill: #ff0000; fill-opacity: 0.5"/>
     <use xlink:href="#mdfa045dd8f" x="228.592374" y="170.946264" style="fill: #ff0000; fill-opacity: 0.5"/>
     <use xlink:href="#mdfa045dd8f" x="232.285579" y="170.777008" style="fill: #ff0000; fill-opacity: 0.5"/>
     <use xlink:href="#mdfa045dd8f" x="235.978783" y="170.363114" style="fill: #ff0000; fill-opacity: 0.5"/>
     <use xlink:href="#mdfa045dd8f" x="239.671988" y="170.607609" style="fill: #ff0000; fill-opacity: 0.5"/>
     <use xlink:href="#mdfa045dd8f" x="243.365193" y="170.697188" style="fill: #ff0000; fill-opacity: 0.5"/>
     <use xlink:href="#mdfa045dd8f" x="247.058398" y="170.499108" style="fill: #ff0000; fill-opacity: 0.5"/>
     <use xlink:href="#mdfa045dd8f" x="250.751602" y="170.494466" style="fill: #ff0000; fill-opacity: 0.5"/>
     <use xlink:href="#mdfa045dd8f" x="254.444807" y="170.581052" style="fill: #ff0000; fill-opacity: 0.5"/>
     <use xlink:href="#mdfa045dd8f" x="258.138012" y="170.664372" style="fill: #ff0000; fill-opacity: 0.5"/>
     <use xlink:href="#mdfa045dd8f" x="261.831217" y="170.788444" style="fill: #ff0000; fill-opacity: 0.5"/>
     <use xlink:href="#mdfa045dd8f" x="265.524421" y="170.520628" style="fill: #ff0000; fill-opacity: 0.5"/>
     <use xlink:href="#mdfa045dd8f" x="269.217626" y="170.389197" style="fill: #ff0000; fill-opacity: 0.5"/>
     <use xlink:href="#mdfa045dd8f" x="272.910831" y="170.428504" style="fill: #ff0000; fill-opacity: 0.5"/>
     <use xlink:href="#mdfa045dd8f" x="276.604036" y="170.670533" style="fill: #ff0000; fill-opacity: 0.5"/>
     <use xlink:href="#mdfa045dd8f" x="280.297241" y="170.864233" style="fill: #ff0000; fill-opacity: 0.5"/>
     <use xlink:href="#mdfa045dd8f" x="283.990445" y="170.656927" style="fill: #ff0000; fill-opacity: 0.5"/>
     <use xlink:href="#mdfa045dd8f" x="287.68365" y="170.534035" style="fill: #ff0000; fill-opacity: 0.5"/>
     <use xlink:href="#mdfa045dd8f" x="291.376855" y="170.796929" style="fill: #ff0000; fill-opacity: 0.5"/>
     <use xlink:href="#mdfa045dd8f" x="295.07006" y="171.013901" style="fill: #ff0000; fill-opacity: 0.5"/>
     <use xlink:href="#mdfa045dd8f" x="298.763264" y="171.261081" style="fill: #ff0000; fill-opacity: 0.5"/>
     <use xlink:href="#mdfa045dd8f" x="302.456469" y="171.136457" style="fill: #ff0000; fill-opacity: 0.5"/>
     <use xlink:href="#mdfa045dd8f" x="306.149674" y="171.481895" style="fill: #ff0000; fill-opacity: 0.5"/>
     <use xlink:href="#mdfa045dd8f" x="309.842879" y="171.817021" style="fill: #ff0000; fill-opacity: 0.5"/>
     <use xlink:href="#mdfa045dd8f" x="313.536084" y="171.620092" style="fill: #ff0000; fill-opacity: 0.5"/>
     <use xlink:href="#mdfa045dd8f" x="317.229288" y="171.566107" style="fill: #ff0000; fill-opacity: 0.5"/>
     <use xlink:href="#mdfa045dd8f" x="320.922493" y="171.513664" style="fill: #ff0000; fill-opacity: 0.5"/>
     <use xlink:href="#mdfa045dd8f" x="324.615698" y="171.562724" style="fill: #ff0000; fill-opacity: 0.5"/>
     <use xlink:href="#mdfa045dd8f" x="328.308903" y="171.511785" style="fill: #ff0000; fill-opacity: 0.5"/>
     <use xlink:href="#mdfa045dd8f" x="332.002107" y="171.462241" style="fill: #ff0000; fill-opacity: 0.5"/>
     <use xlink:href="#mdfa045dd8f" x="335.695312" y="171.66996" style="fill: #ff0000; fill-opacity: 0.5"/>
     <use xlink:href="#mdfa045dd8f" x="339.388517" y="171.588064" style="fill: #ff0000; fill-opacity: 0.5"/>
     <use xlink:href="#mdfa045dd8f" x="343.081722" y="171.539472" style="fill: #ff0000; fill-opacity: 0.5"/>
     <use xlink:href="#mdfa045dd8f" x="346.774927" y="171.553631" style="fill: #ff0000; fill-opacity: 0.5"/>
     <use xlink:href="#mdfa045dd8f" x="350.468131" y="171.233577" style="fill: #ff0000; fill-opacity: 0.5"/>
     <use xlink:href="#mdfa045dd8f" x="354.161336" y="171.31118" style="fill: #ff0000; fill-opacity: 0.5"/>
     <use xlink:href="#mdfa045dd8f" x="357.854541" y="171.238888" style="fill: #ff0000; fill-opacity: 0.5"/>
     <use xlink:href="#mdfa045dd8f" x="361.547746" y="171.31451" style="fill: #ff0000; fill-opacity: 0.5"/>
     <use xlink:href="#mdfa045dd8f" x="365.24095" y="171.27281" style="fill: #ff0000; fill-opacity: 0.5"/>
     <use xlink:href="#mdfa045dd8f" x="368.934155" y="171.232114" style="fill: #ff0000; fill-opacity: 0.5"/>
     <use xlink:href="#mdfa045dd8f" x="372.62736" y="171.417844" style="fill: #ff0000; fill-opacity: 0.5"/>
     <use xlink:href="#mdfa045dd8f" x="376.320565" y="171.432101" style="fill: #ff0000; fill-opacity: 0.5"/>
     <use xlink:href="#mdfa045dd8f" x="380.01377" y="171.473553" style="fill: #ff0000; fill-opacity: 0.5"/>
     <use xlink:href="#mdfa045dd8f" x="383.706974" y="171.541263" style="fill: #ff0000; fill-opacity: 0.5"/>
     <use xlink:href="#mdfa045dd8f" x="387.400179" y="171.52673" style="fill: #ff0000; fill-opacity: 0.5"/>
     <use xlink:href="#mdfa045dd8f" x="391.093384" y="171.59232" style="fill: #ff0000; fill-opacity: 0.5"/>
     <use xlink:href="#mdfa045dd8f" x="394.786589" y="171.656453" style="fill: #ff0000; fill-opacity: 0.5"/>
     <use xlink:href="#mdfa045dd8f" x="398.479793" y="171.641133" style="fill: #ff0000; fill-opacity: 0.5"/>
     <use xlink:href="#mdfa045dd8f" x="402.172998" y="171.729073" style="fill: #ff0000; fill-opacity: 0.5"/>
     <use xlink:href="#mdfa045dd8f" x="405.866203" y="171.789666" style="fill: #ff0000; fill-opacity: 0.5"/>
     <use xlink:href="#mdfa045dd8f" x="409.559408" y="171.773419" style="fill: #ff0000; fill-opacity: 0.5"/>
     <use xlink:href="#mdfa045dd8f" x="413.252612" y="171.857189" style="fill: #ff0000; fill-opacity: 0.5"/>
     <use xlink:href="#mdfa045dd8f" x="416.945817" y="172.161148" style="fill: #ff0000; fill-opacity: 0.5"/>
     <use xlink:href="#mdfa045dd8f" x="420.639022" y="172.068357" style="fill: #ff0000; fill-opacity: 0.5"/>
     <use xlink:href="#mdfa045dd8f" x="424.332227" y="172.146553" style="fill: #ff0000; fill-opacity: 0.5"/>
     <use xlink:href="#mdfa045dd8f" x="428.025432" y="172.510115" style="fill: #ff0000; fill-opacity: 0.5"/>
     <use xlink:href="#mdfa045dd8f" x="431.718636" y="172.463964" style="fill: #ff0000; fill-opacity: 0.5"/>
    </g>
   </g>
   <g id="patch_3">
    <path d="M 47.81 303.64 
L 47.81 25.44 
" style="fill: none; stroke: #000000; stroke-width: 0.8; stroke-linejoin: miter; stroke-linecap: square"/>
   </g>
   <g id="patch_4">
    <path d="M 450 303.64 
L 450 25.44 
" style="fill: none; stroke: #000000; stroke-width: 0.8; stroke-linejoin: miter; stroke-linecap: square"/>
   </g>
   <g id="patch_5">
    <path d="M 47.81 303.64 
L 450 303.64 
" style="fill: none; stroke: #000000; stroke-width: 0.8; stroke-linejoin: miter; stroke-linecap: square"/>
   </g>
   <g id="patch_6">
    <path d="M 47.81 25.44 
L 450 25.44 
" style="fill: none; stroke: #000000; stroke-width: 0.8; stroke-linejoin: miter; stroke-linecap: square"/>
   </g>
   <g id="text_15">
    <!-- Average action - 20240422164401 - 100 games -->
    <g transform="translate(104.980938 19.44) scale(0.12 -0.12)">
     <defs>
      <path id="DejaVuSans-2d" d="M 313 2009 
L 1997 2009 
L 1997 1497 
L 313 1497 
L 313 2009 
z
" transform="scale(0.015625)"/>
      <path id="DejaVuSans-6d" d="M 3328 2828 
Q 3544 3216 3844 3400 
Q 4144 3584 4550 3584 
Q 5097 3584 5394 3201 
Q 5691 2819 5691 2113 
L 5691 0 
L 5113 0 
L 5113 2094 
Q 5113 2597 4934 2840 
Q 4756 3084 4391 3084 
Q 3944 3084 3684 2787 
Q 3425 2491 3425 1978 
L 3425 0 
L 2847 0 
L 2847 2094 
Q 2847 2600 2669 2842 
Q 2491 3084 2119 3084 
Q 1678 3084 1418 2786 
Q 1159 2488 1159 1978 
L 1159 0 
L 581 0 
L 581 3500 
L 1159 3500 
L 1159 2956 
Q 1356 3278 1631 3431 
Q 1906 3584 2284 3584 
Q 2666 3584 2933 3390 
Q 3200 3197 3328 2828 
z
" transform="scale(0.015625)"/>
      <path id="DejaVuSans-73" d="M 2834 3397 
L 2834 2853 
Q 2591 2978 2328 3040 
Q 2066 3103 1784 3103 
Q 1356 3103 1142 2972 
Q 928 2841 928 2578 
Q 928 2378 1081 2264 
Q 1234 2150 1697 2047 
L 1894 2003 
Q 2506 1872 2764 1633 
Q 3022 1394 3022 966 
Q 3022 478 2636 193 
Q 2250 -91 1575 -91 
Q 1294 -91 989 -36 
Q 684 19 347 128 
L 347 722 
Q 666 556 975 473 
Q 1284 391 1588 391 
Q 1994 391 2212 530 
Q 2431 669 2431 922 
Q 2431 1156 2273 1281 
Q 2116 1406 1581 1522 
L 1381 1569 
Q 847 1681 609 1914 
Q 372 2147 372 2553 
Q 372 3047 722 3315 
Q 1072 3584 1716 3584 
Q 2034 3584 2315 3537 
Q 2597 3491 2834 3397 
z
" transform="scale(0.015625)"/>
     </defs>
     <use xlink:href="#DejaVuSans-41"/>
     <use xlink:href="#DejaVuSans-76" x="62.533203"/>
     <use xlink:href="#DejaVuSans-65" x="121.712891"/>
     <use xlink:href="#DejaVuSans-72" x="183.236328"/>
     <use xlink:href="#DejaVuSans-61" x="224.349609"/>
     <use xlink:href="#DejaVuSans-67" x="285.628906"/>
     <use xlink:href="#DejaVuSans-65" x="349.105469"/>
     <use xlink:href="#DejaVuSans-20" x="410.628906"/>
     <use xlink:href="#DejaVuSans-61" x="442.416016"/>
     <use xlink:href="#DejaVuSans-63" x="503.695312"/>
     <use xlink:href="#DejaVuSans-74" x="558.675781"/>
     <use xlink:href="#DejaVuSans-69" x="597.884766"/>
     <use xlink:href="#DejaVuSans-6f" x="625.667969"/>
     <use xlink:href="#DejaVuSans-6e" x="686.849609"/>
     <use xlink:href="#DejaVuSans-20" x="750.228516"/>
     <use xlink:href="#DejaVuSans-2d" x="782.015625"/>
     <use xlink:href="#DejaVuSans-20" x="818.099609"/>
     <use xlink:href="#DejaVuSans-32" x="849.886719"/>
     <use xlink:href="#DejaVuSans-30" x="913.509766"/>
     <use xlink:href="#DejaVuSans-32" x="977.132812"/>
     <use xlink:href="#DejaVuSans-34" x="1040.755859"/>
     <use xlink:href="#DejaVuSans-30" x="1104.378906"/>
     <use xlink:href="#DejaVuSans-34" x="1168.001953"/>
     <use xlink:href="#DejaVuSans-32" x="1231.625"/>
     <use xlink:href="#DejaVuSans-32" x="1295.248047"/>
     <use xlink:href="#DejaVuSans-31" x="1358.871094"/>
     <use xlink:href="#DejaVuSans-36" x="1422.494141"/>
     <use xlink:href="#DejaVuSans-34" x="1486.117188"/>
     <use xlink:href="#DejaVuSans-34" x="1549.740234"/>
     <use xlink:href="#DejaVuSans-30" x="1613.363281"/>
     <use xlink:href="#DejaVuSans-31" x="1676.986328"/>
     <use xlink:href="#DejaVuSans-20" x="1740.609375"/>
     <use xlink:href="#DejaVuSans-2d" x="1772.396484"/>
     <use xlink:href="#DejaVuSans-20" x="1808.480469"/>
     <use xlink:href="#DejaVuSans-31" x="1840.267578"/>
     <use xlink:href="#DejaVuSans-30" x="1903.890625"/>
     <use xlink:href="#DejaVuSans-30" x="1967.513672"/>
     <use xlink:href="#DejaVuSans-20" x="2031.136719"/>
     <use xlink:href="#DejaVuSans-67" x="2062.923828"/>
     <use xlink:href="#DejaVuSans-61" x="2126.400391"/>
     <use xlink:href="#DejaVuSans-6d" x="2187.679688"/>
     <use xlink:href="#DejaVuSans-65" x="2285.091797"/>
     <use xlink:href="#DejaVuSans-73" x="2346.615234"/>
    </g>
   </g>
   <g id="legend_1">
    <g id="patch_7">
     <path d="M 357.332812 92.1525 
L 443 92.1525 
Q 445 92.1525 445 90.1525 
L 445 32.44 
Q 445 30.44 443 30.44 
L 357.332812 30.44 
Q 355.332812 30.44 355.332812 32.44 
L 355.332812 90.1525 
Q 355.332812 92.1525 357.332812 92.1525 
z
" style="fill: #ffffff; opacity: 0.8; stroke: #cccccc; stroke-linejoin: miter"/>
    </g>
    <g id="line2d_20">
     <path d="M 359.332812 38.538438 
L 369.332812 38.538438 
L 379.332812 38.538438 
" style="fill: none; stroke: #0000ff; stroke-linecap: square"/>
     <g>
      <use xlink:href="#m2dbad0a4ac" x="369.332812" y="38.538438" style="fill: #0000ff"/>
     </g>
    </g>
    <g id="text_16">
     <!-- LLM -->
     <g transform="translate(387.332812 42.038438) scale(0.1 -0.1)">
      <defs>
       <path id="DejaVuSans-4c" d="M 628 4666 
L 1259 4666 
L 1259 531 
L 3531 531 
L 3531 0 
L 628 0 
L 628 4666 
z
" transform="scale(0.015625)"/>
       <path id="DejaVuSans-4d" d="M 628 4666 
L 1569 4666 
L 2759 1491 
L 3956 4666 
L 4897 4666 
L 4897 0 
L 4281 0 
L 4281 4097 
L 3078 897 
L 2444 897 
L 1241 4097 
L 1241 0 
L 628 0 
L 628 4666 
z
" transform="scale(0.015625)"/>
      </defs>
      <use xlink:href="#DejaVuSans-4c"/>
      <use xlink:href="#DejaVuSans-4c" x="55.712891"/>
      <use xlink:href="#DejaVuSans-4d" x="111.425781"/>
     </g>
    </g>
    <g id="line2d_21">
     <path d="M 359.332812 53.216563 
L 369.332812 53.216563 
L 379.332812 53.216563 
" style="fill: none; stroke: #0000ff; stroke-opacity: 0.5; stroke-width: 0.5; stroke-linecap: square"/>
     <g>
      <use xlink:href="#m2b528b48c0" x="369.332812" y="53.216563" style="fill: #0000ff; fill-opacity: 0.5"/>
     </g>
    </g>
    <g id="text_17">
     <!-- LLM mean -->
     <g transform="translate(387.332812 56.716563) scale(0.1 -0.1)">
      <use xlink:href="#DejaVuSans-4c"/>
      <use xlink:href="#DejaVuSans-4c" x="55.712891"/>
      <use xlink:href="#DejaVuSans-4d" x="111.425781"/>
      <use xlink:href="#DejaVuSans-20" x="197.705078"/>
      <use xlink:href="#DejaVuSans-6d" x="229.492188"/>
      <use xlink:href="#DejaVuSans-65" x="326.904297"/>
      <use xlink:href="#DejaVuSans-61" x="388.427734"/>
      <use xlink:href="#DejaVuSans-6e" x="449.707031"/>
     </g>
    </g>
    <g id="line2d_22">
     <path d="M 359.332812 67.894688 
L 369.332812 67.894688 
L 379.332812 67.894688 
" style="fill: none; stroke: #ff0000; stroke-width: 0.5; stroke-linecap: square"/>
     <g>
      <use xlink:href="#m8637f6d852" x="369.332812" y="67.894688" style="fill: #ff0000"/>
     </g>
    </g>
    <g id="text_18">
     <!-- RND -->
     <g transform="translate(387.332812 71.394688) scale(0.1 -0.1)">
      <defs>
       <path id="DejaVuSans-52" d="M 2841 2188 
Q 3044 2119 3236 1894 
Q 3428 1669 3622 1275 
L 4263 0 
L 3584 0 
L 2988 1197 
Q 2756 1666 2539 1819 
Q 2322 1972 1947 1972 
L 1259 1972 
L 1259 0 
L 628 0 
L 628 4666 
L 2053 4666 
Q 2853 4666 3247 4331 
Q 3641 3997 3641 3322 
Q 3641 2881 3436 2590 
Q 3231 2300 2841 2188 
z
M 1259 4147 
L 1259 2491 
L 2053 2491 
Q 2509 2491 2742 2702 
Q 2975 2913 2975 3322 
Q 2975 3731 2742 3939 
Q 2509 4147 2053 4147 
L 1259 4147 
z
" transform="scale(0.015625)"/>
       <path id="DejaVuSans-4e" d="M 628 4666 
L 1478 4666 
L 3547 763 
L 3547 4666 
L 4159 4666 
L 4159 0 
L 3309 0 
L 1241 3903 
L 1241 0 
L 628 0 
L 628 4666 
z
" transform="scale(0.015625)"/>
       <path id="DejaVuSans-44" d="M 1259 4147 
L 1259 519 
L 2022 519 
Q 2988 519 3436 956 
Q 3884 1394 3884 2338 
Q 3884 3275 3436 3711 
Q 2988 4147 2022 4147 
L 1259 4147 
z
M 628 4666 
L 1925 4666 
Q 3281 4666 3915 4102 
Q 4550 3538 4550 2338 
Q 4550 1131 3912 565 
Q 3275 0 1925 0 
L 628 0 
L 628 4666 
z
" transform="scale(0.015625)"/>
      </defs>
      <use xlink:href="#DejaVuSans-52"/>
      <use xlink:href="#DejaVuSans-4e" x="69.482422"/>
      <use xlink:href="#DejaVuSans-44" x="144.287109"/>
     </g>
    </g>
    <g id="line2d_23">
     <path d="M 359.332812 82.572813 
L 369.332812 82.572813 
L 379.332812 82.572813 
" style="fill: none; stroke: #ff0000; stroke-opacity: 0.5; stroke-width: 0.25; stroke-linecap: square"/>
     <g>
      <use xlink:href="#mdfa045dd8f" x="369.332812" y="82.572813" style="fill: #ff0000; fill-opacity: 0.5"/>
     </g>
    </g>
    <g id="text_19">
     <!-- RND mean -->
     <g transform="translate(387.332812 86.072813) scale(0.1 -0.1)">
      <use xlink:href="#DejaVuSans-52"/>
      <use xlink:href="#DejaVuSans-4e" x="69.482422"/>
      <use xlink:href="#DejaVuSans-44" x="144.287109"/>
      <use xlink:href="#DejaVuSans-20" x="221.289062"/>
      <use xlink:href="#DejaVuSans-6d" x="253.076172"/>
      <use xlink:href="#DejaVuSans-65" x="350.488281"/>
      <use xlink:href="#DejaVuSans-61" x="412.011719"/>
      <use xlink:href="#DejaVuSans-6e" x="473.291016"/>
     </g>
    </g>
   </g>
  </g>
 </g>
 <defs>
  <clipPath id="p6ebd6e5ee2">
   <rect x="47.81" y="25.44" width="402.19" height="278.2"/>
  </clipPath>
 </defs>
</svg>
