<?xml version="1.0" encoding="utf-8" standalone="no"?>
<!DOCTYPE svg PUBLIC "-//W3C//DTD SVG 1.1//EN"
  "http://www.w3.org/Graphics/SVG/1.1/DTD/svg11.dtd">
<svg xmlns:xlink="http://www.w3.org/1999/xlink" width="460.8pt" height="345.6pt" viewBox="0 0 460.8 345.6" xmlns="http://www.w3.org/2000/svg" version="1.1">
 <metadata>
  <rdf:RDF xmlns:dc="http://purl.org/dc/elements/1.1/" xmlns:cc="http://creativecommons.org/ns#" xmlns:rdf="http://www.w3.org/1999/02/22-rdf-syntax-ns#">
   <cc:Work>
    <dc:type rdf:resource="http://purl.org/dc/dcmitype/StillImage"/>
    <dc:date>2024-04-10T14:31:03.141850</dc:date>
    <dc:format>image/svg+xml</dc:format>
    <dc:creator>
     <cc:Agent>
      <dc:title>Matplotlib v3.8.0, https://matplotlib.org/</dc:title>
     </cc:Agent>
    </dc:creator>
   </cc:Work>
  </rdf:RDF>
 </metadata>
 <defs>
  <style type="text/css">*{stroke-linejoin: round; stroke-linecap: butt}</style>
 </defs>
 <g id="figure_1">
  <g id="patch_1">
   <path d="M 0 345.6 
L 460.8 345.6 
L 460.8 0 
L 0 0 
z
" style="fill: #ffffff"/>
  </g>
  <g id="axes_1">
   <g id="patch_2">
    <path d="M 47.81 303.64 
L 450 303.64 
L 450 25.44 
L 47.81 25.44 
z
" style="fill: #ffffff"/>
   </g>
   <g id="PolyCollection_1">
    <defs>
     <path id="m335856dd27" d="M 66.091364 -170.910262 
L 66.091364 -170.910262 
L 69.822254 -221.341629 
L 73.553145 -234.829248 
L 77.284035 -246.409609 
L 81.014926 -254.536932 
L 84.745816 -267.532313 
L 88.476707 -278.114918 
L 92.207597 -286.637078 
L 95.938488 -292.794703 
L 99.669378 -297.331593 
L 103.400269 -301.006513 
L 107.13116 -303.308804 
L 110.86205 -304.80561 
L 114.592941 -305.964211 
L 118.323831 -306.870808 
L 122.054722 -307.289251 
L 125.785612 -307.514545 
L 129.516503 -307.431279 
L 133.247393 -306.913424 
L 136.978284 -306.42458 
L 140.709174 -305.796371 
L 144.440065 -305.110133 
L 148.170955 -304.218669 
L 151.901846 -303.318293 
L 155.632737 -302.415096 
L 159.363627 -301.46363 
L 163.094518 -300.505384 
L 166.825408 -299.583484 
L 170.556299 -298.650155 
L 174.287189 -297.72965 
L 178.01808 -296.842873 
L 181.74897 -295.956208 
L 185.479861 -295.097837 
L 189.210751 -294.272413 
L 192.941642 -293.576505 
L 196.672532 -293.047162 
L 200.403423 -292.510252 
L 204.134314 -292.077206 
L 207.865204 -291.848701 
L 211.596095 -291.659063 
L 215.326985 -291.467947 
L 219.057876 -291.446584 
L 222.788766 -291.701649 
L 226.519657 -291.981182 
L 230.250547 -292.369636 
L 233.981438 -292.767708 
L 237.712328 -293.0649 
L 241.443219 -293.15505 
L 245.174109 -293.052103 
L 248.905 -292.793487 
L 252.635891 -292.473865 
L 256.366781 -292.078204 
L 260.097672 -291.596314 
L 263.828562 -291.059642 
L 267.559453 -290.438718 
L 271.290343 -289.74652 
L 275.021234 -288.96297 
L 278.752124 -288.1182 
L 282.483015 -287.195981 
L 286.213905 -286.246596 
L 289.944796 -285.217938 
L 293.675686 -284.15643 
L 297.406577 -283.068078 
L 301.137468 -281.957961 
L 304.868358 -280.822412 
L 308.599249 -279.681776 
L 312.330139 -278.530471 
L 316.06103 -277.371206 
L 319.79192 -276.20631 
L 323.522811 -275.032006 
L 327.253701 -273.856638 
L 330.984592 -272.686755 
L 334.715482 -271.499164 
L 338.446373 -270.308211 
L 342.177263 -269.120152 
L 345.908154 -267.93324 
L 349.639045 -266.752329 
L 353.369935 -265.586335 
L 357.100826 -264.429133 
L 360.831716 -263.278392 
L 364.562607 -262.132741 
L 368.293497 -260.99543 
L 372.024388 -259.866975 
L 375.755278 -258.746439 
L 379.486169 -257.635936 
L 383.217059 -256.536759 
L 386.94795 -255.446928 
L 390.67884 -254.36723 
L 394.409731 -253.299113 
L 398.140622 -252.241639 
L 401.871512 -251.195618 
L 405.602403 -250.160655 
L 409.333293 -249.136773 
L 413.064184 -248.124142 
L 416.795074 -247.12278 
L 420.525965 -246.134381 
L 424.256855 -245.157661 
L 427.987746 -244.19166 
L 431.718636 -243.236955 
L 431.718636 -54.605455 
L 431.718636 -54.605455 
L 427.987746 -55.38873 
L 424.256855 -56.196545 
L 420.525965 -57.010115 
L 416.795074 -57.849696 
L 413.064184 -58.777955 
L 409.333293 -59.736441 
L 405.602403 -60.747896 
L 401.871512 -61.793004 
L 398.140622 -62.873277 
L 394.409731 -63.967789 
L 390.67884 -65.122907 
L 386.94795 -66.294956 
L 383.217059 -67.532099 
L 379.486169 -68.837778 
L 375.755278 -70.165984 
L 372.024388 -71.542921 
L 368.293497 -72.996831 
L 364.562607 -74.505645 
L 360.831716 -76.072273 
L 357.100826 -77.727363 
L 353.369935 -79.447936 
L 349.639045 -81.208931 
L 345.908154 -82.954429 
L 342.177263 -84.771962 
L 338.446373 -86.696118 
L 334.715482 -88.702647 
L 330.984592 -90.828662 
L 327.253701 -93.1488 
L 323.522811 -95.506994 
L 319.79192 -97.940181 
L 316.06103 -100.488879 
L 312.330139 -103.124717 
L 308.599249 -105.853729 
L 304.868358 -108.682557 
L 301.137468 -111.579079 
L 297.406577 -114.629036 
L 293.675686 -117.803242 
L 289.944796 -121.111818 
L 286.213905 -124.566147 
L 282.483015 -128.31836 
L 278.752124 -132.158169 
L 275.021234 -136.242518 
L 271.290343 -140.493909 
L 267.559453 -144.983995 
L 263.828562 -149.628065 
L 260.097672 -154.443781 
L 256.366781 -159.331096 
L 252.635891 -164.360996 
L 248.905 -169.487352 
L 245.174109 -174.656257 
L 241.443219 -180.0841 
L 237.712328 -185.814899 
L 233.981438 -191.827024 
L 230.250547 -197.844505 
L 226.519657 -203.616281 
L 222.788766 -208.935134 
L 219.057876 -214.001378 
L 215.326985 -218.258644 
L 211.596095 -221.970271 
L 207.865204 -225.581047 
L 204.134314 -228.990808 
L 200.403423 -231.755052 
L 196.672532 -234.156158 
L 192.941642 -236.564198 
L 189.210751 -238.342382 
L 185.479861 -239.366489 
L 181.74897 -240.166048 
L 178.01808 -240.980854 
L 174.287189 -241.384699 
L 170.556299 -241.776028 
L 166.825408 -242.037587 
L 163.094518 -242.107817 
L 159.363627 -242.142403 
L 155.632737 -242.027267 
L 151.901846 -241.702419 
L 148.170955 -241.259721 
L 144.440065 -240.688809 
L 140.709174 -239.791922 
L 136.978284 -238.735394 
L 133.247393 -237.462714 
L 129.516503 -236.07393 
L 125.785612 -234.32337 
L 122.054722 -232.304324 
L 118.323831 -230.04811 
L 114.592941 -227.476659 
L 110.86205 -224.622126 
L 107.13116 -221.436944 
L 103.400269 -217.848511 
L 99.669378 -213.864746 
L 95.938488 -209.477921 
L 92.207597 -204.72666 
L 88.476707 -199.78484 
L 84.745816 -194.709205 
L 81.014926 -189.715164 
L 77.284035 -182.654696 
L 73.553145 -174.164892 
L 69.822254 -162.257607 
L 66.091364 -170.910262 
z
" style="stroke: #ff0000; stroke-opacity: 0.2"/>
    </defs>
    <g clip-path="url(#p6f18c25ecb)">
     <use xlink:href="#m335856dd27" x="0" y="345.6" style="fill: #ff0000; fill-opacity: 0.2; stroke: #ff0000; stroke-opacity: 0.2"/>
    </g>
   </g>
   <g id="matplotlib.axis_1">
    <g id="xtick_1">
     <g id="line2d_1">
      <defs>
       <path id="mb0221b4016" d="M 0 0 
L 0 3.5 
" style="stroke: #000000; stroke-width: 0.8"/>
      </defs>
      <g>
       <use xlink:href="#mb0221b4016" x="66.091364" y="303.64" style="stroke: #000000; stroke-width: 0.8"/>
      </g>
     </g>
     <g id="text_1">
      <!-- 0 -->
      <g transform="translate(62.910114 318.238437) scale(0.1 -0.1)">
       <defs>
        <path id="DejaVuSans-30" d="M 2034 4250 
Q 1547 4250 1301 3770 
Q 1056 3291 1056 2328 
Q 1056 1369 1301 889 
Q 1547 409 2034 409 
Q 2525 409 2770 889 
Q 3016 1369 3016 2328 
Q 3016 3291 2770 3770 
Q 2525 4250 2034 4250 
z
M 2034 4750 
Q 2819 4750 3233 4129 
Q 3647 3509 3647 2328 
Q 3647 1150 3233 529 
Q 2819 -91 2034 -91 
Q 1250 -91 836 529 
Q 422 1150 422 2328 
Q 422 3509 836 4129 
Q 1250 4750 2034 4750 
z
" transform="scale(0.015625)"/>
       </defs>
       <use xlink:href="#DejaVuSans-30"/>
      </g>
     </g>
    </g>
    <g id="xtick_2">
     <g id="line2d_2">
      <g>
       <use xlink:href="#mb0221b4016" x="140.709174" y="303.64" style="stroke: #000000; stroke-width: 0.8"/>
      </g>
     </g>
     <g id="text_2">
      <!-- 20 -->
      <g transform="translate(134.346674 318.238437) scale(0.1 -0.1)">
       <defs>
        <path id="DejaVuSans-32" d="M 1228 531 
L 3431 531 
L 3431 0 
L 469 0 
L 469 531 
Q 828 903 1448 1529 
Q 2069 2156 2228 2338 
Q 2531 2678 2651 2914 
Q 2772 3150 2772 3378 
Q 2772 3750 2511 3984 
Q 2250 4219 1831 4219 
Q 1534 4219 1204 4116 
Q 875 4013 500 3803 
L 500 4441 
Q 881 4594 1212 4672 
Q 1544 4750 1819 4750 
Q 2544 4750 2975 4387 
Q 3406 4025 3406 3419 
Q 3406 3131 3298 2873 
Q 3191 2616 2906 2266 
Q 2828 2175 2409 1742 
Q 1991 1309 1228 531 
z
" transform="scale(0.015625)"/>
       </defs>
       <use xlink:href="#DejaVuSans-32"/>
       <use xlink:href="#DejaVuSans-30" x="63.623047"/>
      </g>
     </g>
    </g>
    <g id="xtick_3">
     <g id="line2d_3">
      <g>
       <use xlink:href="#mb0221b4016" x="215.326985" y="303.64" style="stroke: #000000; stroke-width: 0.8"/>
      </g>
     </g>
     <g id="text_3">
      <!-- 40 -->
      <g transform="translate(208.964485 318.238437) scale(0.1 -0.1)">
       <defs>
        <path id="DejaVuSans-34" d="M 2419 4116 
L 825 1625 
L 2419 1625 
L 2419 4116 
z
M 2253 4666 
L 3047 4666 
L 3047 1625 
L 3713 1625 
L 3713 1100 
L 3047 1100 
L 3047 0 
L 2419 0 
L 2419 1100 
L 313 1100 
L 313 1709 
L 2253 4666 
z
" transform="scale(0.015625)"/>
       </defs>
       <use xlink:href="#DejaVuSans-34"/>
       <use xlink:href="#DejaVuSans-30" x="63.623047"/>
      </g>
     </g>
    </g>
    <g id="xtick_4">
     <g id="line2d_4">
      <g>
       <use xlink:href="#mb0221b4016" x="289.944796" y="303.64" style="stroke: #000000; stroke-width: 0.8"/>
      </g>
     </g>
     <g id="text_4">
      <!-- 60 -->
      <g transform="translate(283.582296 318.238437) scale(0.1 -0.1)">
       <defs>
        <path id="DejaVuSans-36" d="M 2113 2584 
Q 1688 2584 1439 2293 
Q 1191 2003 1191 1497 
Q 1191 994 1439 701 
Q 1688 409 2113 409 
Q 2538 409 2786 701 
Q 3034 994 3034 1497 
Q 3034 2003 2786 2293 
Q 2538 2584 2113 2584 
z
M 3366 4563 
L 3366 3988 
Q 3128 4100 2886 4159 
Q 2644 4219 2406 4219 
Q 1781 4219 1451 3797 
Q 1122 3375 1075 2522 
Q 1259 2794 1537 2939 
Q 1816 3084 2150 3084 
Q 2853 3084 3261 2657 
Q 3669 2231 3669 1497 
Q 3669 778 3244 343 
Q 2819 -91 2113 -91 
Q 1303 -91 875 529 
Q 447 1150 447 2328 
Q 447 3434 972 4092 
Q 1497 4750 2381 4750 
Q 2619 4750 2861 4703 
Q 3103 4656 3366 4563 
z
" transform="scale(0.015625)"/>
       </defs>
       <use xlink:href="#DejaVuSans-36"/>
       <use xlink:href="#DejaVuSans-30" x="63.623047"/>
      </g>
     </g>
    </g>
    <g id="xtick_5">
     <g id="line2d_5">
      <g>
       <use xlink:href="#mb0221b4016" x="364.562607" y="303.64" style="stroke: #000000; stroke-width: 0.8"/>
      </g>
     </g>
     <g id="text_5">
      <!-- 80 -->
      <g transform="translate(358.200107 318.238437) scale(0.1 -0.1)">
       <defs>
        <path id="DejaVuSans-38" d="M 2034 2216 
Q 1584 2216 1326 1975 
Q 1069 1734 1069 1313 
Q 1069 891 1326 650 
Q 1584 409 2034 409 
Q 2484 409 2743 651 
Q 3003 894 3003 1313 
Q 3003 1734 2745 1975 
Q 2488 2216 2034 2216 
z
M 1403 2484 
Q 997 2584 770 2862 
Q 544 3141 544 3541 
Q 544 4100 942 4425 
Q 1341 4750 2034 4750 
Q 2731 4750 3128 4425 
Q 3525 4100 3525 3541 
Q 3525 3141 3298 2862 
Q 3072 2584 2669 2484 
Q 3125 2378 3379 2068 
Q 3634 1759 3634 1313 
Q 3634 634 3220 271 
Q 2806 -91 2034 -91 
Q 1263 -91 848 271 
Q 434 634 434 1313 
Q 434 1759 690 2068 
Q 947 2378 1403 2484 
z
M 1172 3481 
Q 1172 3119 1398 2916 
Q 1625 2713 2034 2713 
Q 2441 2713 2670 2916 
Q 2900 3119 2900 3481 
Q 2900 3844 2670 4047 
Q 2441 4250 2034 4250 
Q 1625 4250 1398 4047 
Q 1172 3844 1172 3481 
z
" transform="scale(0.015625)"/>
       </defs>
       <use xlink:href="#DejaVuSans-38"/>
       <use xlink:href="#DejaVuSans-30" x="63.623047"/>
      </g>
     </g>
    </g>
    <g id="xtick_6">
     <g id="line2d_6">
      <g>
       <use xlink:href="#mb0221b4016" x="439.180417" y="303.64" style="stroke: #000000; stroke-width: 0.8"/>
      </g>
     </g>
     <g id="text_6">
      <!-- 100 -->
      <g transform="translate(429.636667 318.238437) scale(0.1 -0.1)">
       <defs>
        <path id="DejaVuSans-31" d="M 794 531 
L 1825 531 
L 1825 4091 
L 703 3866 
L 703 4441 
L 1819 4666 
L 2450 4666 
L 2450 531 
L 3481 531 
L 3481 0 
L 794 0 
L 794 531 
z
" transform="scale(0.015625)"/>
       </defs>
       <use xlink:href="#DejaVuSans-31"/>
       <use xlink:href="#DejaVuSans-30" x="63.623047"/>
       <use xlink:href="#DejaVuSans-30" x="127.246094"/>
      </g>
     </g>
    </g>
    <g id="text_7">
     <!-- Iteration -->
     <g transform="translate(227.696406 331.916562) scale(0.1 -0.1)">
      <defs>
       <path id="DejaVuSans-49" d="M 628 4666 
L 1259 4666 
L 1259 0 
L 628 0 
L 628 4666 
z
" transform="scale(0.015625)"/>
       <path id="DejaVuSans-74" d="M 1172 4494 
L 1172 3500 
L 2356 3500 
L 2356 3053 
L 1172 3053 
L 1172 1153 
Q 1172 725 1289 603 
Q 1406 481 1766 481 
L 2356 481 
L 2356 0 
L 1766 0 
Q 1100 0 847 248 
Q 594 497 594 1153 
L 594 3053 
L 172 3053 
L 172 3500 
L 594 3500 
L 594 4494 
L 1172 4494 
z
" transform="scale(0.015625)"/>
       <path id="DejaVuSans-65" d="M 3597 1894 
L 3597 1613 
L 953 1613 
Q 991 1019 1311 708 
Q 1631 397 2203 397 
Q 2534 397 2845 478 
Q 3156 559 3463 722 
L 3463 178 
Q 3153 47 2828 -22 
Q 2503 -91 2169 -91 
Q 1331 -91 842 396 
Q 353 884 353 1716 
Q 353 2575 817 3079 
Q 1281 3584 2069 3584 
Q 2775 3584 3186 3129 
Q 3597 2675 3597 1894 
z
M 3022 2063 
Q 3016 2534 2758 2815 
Q 2500 3097 2075 3097 
Q 1594 3097 1305 2825 
Q 1016 2553 972 2059 
L 3022 2063 
z
" transform="scale(0.015625)"/>
       <path id="DejaVuSans-72" d="M 2631 2963 
Q 2534 3019 2420 3045 
Q 2306 3072 2169 3072 
Q 1681 3072 1420 2755 
Q 1159 2438 1159 1844 
L 1159 0 
L 581 0 
L 581 3500 
L 1159 3500 
L 1159 2956 
Q 1341 3275 1631 3429 
Q 1922 3584 2338 3584 
Q 2397 3584 2469 3576 
Q 2541 3569 2628 3553 
L 2631 2963 
z
" transform="scale(0.015625)"/>
       <path id="DejaVuSans-61" d="M 2194 1759 
Q 1497 1759 1228 1600 
Q 959 1441 959 1056 
Q 959 750 1161 570 
Q 1363 391 1709 391 
Q 2188 391 2477 730 
Q 2766 1069 2766 1631 
L 2766 1759 
L 2194 1759 
z
M 3341 1997 
L 3341 0 
L 2766 0 
L 2766 531 
Q 2569 213 2275 61 
Q 1981 -91 1556 -91 
Q 1019 -91 701 211 
Q 384 513 384 1019 
Q 384 1609 779 1909 
Q 1175 2209 1959 2209 
L 2766 2209 
L 2766 2266 
Q 2766 2663 2505 2880 
Q 2244 3097 1772 3097 
Q 1472 3097 1187 3025 
Q 903 2953 641 2809 
L 641 3341 
Q 956 3463 1253 3523 
Q 1550 3584 1831 3584 
Q 2591 3584 2966 3190 
Q 3341 2797 3341 1997 
z
" transform="scale(0.015625)"/>
       <path id="DejaVuSans-69" d="M 603 3500 
L 1178 3500 
L 1178 0 
L 603 0 
L 603 3500 
z
M 603 4863 
L 1178 4863 
L 1178 4134 
L 603 4134 
L 603 4863 
z
" transform="scale(0.015625)"/>
       <path id="DejaVuSans-6f" d="M 1959 3097 
Q 1497 3097 1228 2736 
Q 959 2375 959 1747 
Q 959 1119 1226 758 
Q 1494 397 1959 397 
Q 2419 397 2687 759 
Q 2956 1122 2956 1747 
Q 2956 2369 2687 2733 
Q 2419 3097 1959 3097 
z
M 1959 3584 
Q 2709 3584 3137 3096 
Q 3566 2609 3566 1747 
Q 3566 888 3137 398 
Q 2709 -91 1959 -91 
Q 1206 -91 779 398 
Q 353 888 353 1747 
Q 353 2609 779 3096 
Q 1206 3584 1959 3584 
z
" transform="scale(0.015625)"/>
       <path id="DejaVuSans-6e" d="M 3513 2113 
L 3513 0 
L 2938 0 
L 2938 2094 
Q 2938 2591 2744 2837 
Q 2550 3084 2163 3084 
Q 1697 3084 1428 2787 
Q 1159 2491 1159 1978 
L 1159 0 
L 581 0 
L 581 3500 
L 1159 3500 
L 1159 2956 
Q 1366 3272 1645 3428 
Q 1925 3584 2291 3584 
Q 2894 3584 3203 3211 
Q 3513 2838 3513 2113 
z
" transform="scale(0.015625)"/>
      </defs>
      <use xlink:href="#DejaVuSans-49"/>
      <use xlink:href="#DejaVuSans-74" x="29.492188"/>
      <use xlink:href="#DejaVuSans-65" x="68.701172"/>
      <use xlink:href="#DejaVuSans-72" x="130.224609"/>
      <use xlink:href="#DejaVuSans-61" x="171.337891"/>
      <use xlink:href="#DejaVuSans-74" x="232.617188"/>
      <use xlink:href="#DejaVuSans-69" x="271.826172"/>
      <use xlink:href="#DejaVuSans-6f" x="299.609375"/>
      <use xlink:href="#DejaVuSans-6e" x="360.791016"/>
     </g>
    </g>
   </g>
   <g id="matplotlib.axis_2">
    <g id="ytick_1">
     <g id="line2d_7">
      <defs>
       <path id="m6aa9e6d5cc" d="M 0 0 
L -3.5 0 
" style="stroke: #000000; stroke-width: 0.8"/>
      </defs>
      <g>
       <use xlink:href="#m6aa9e6d5cc" x="47.81" y="287.738018" style="stroke: #000000; stroke-width: 0.8"/>
      </g>
     </g>
     <g id="text_8">
      <!-- 0.0 -->
      <g transform="translate(24.906875 291.537237) scale(0.1 -0.1)">
       <defs>
        <path id="DejaVuSans-2e" d="M 684 794 
L 1344 794 
L 1344 0 
L 684 0 
L 684 794 
z
" transform="scale(0.015625)"/>
       </defs>
       <use xlink:href="#DejaVuSans-30"/>
       <use xlink:href="#DejaVuSans-2e" x="63.623047"/>
       <use xlink:href="#DejaVuSans-30" x="95.410156"/>
      </g>
     </g>
    </g>
    <g id="ytick_2">
     <g id="line2d_8">
      <g>
       <use xlink:href="#m6aa9e6d5cc" x="47.81" y="238.586592" style="stroke: #000000; stroke-width: 0.8"/>
      </g>
     </g>
     <g id="text_9">
      <!-- 0.2 -->
      <g transform="translate(24.906875 242.385811) scale(0.1 -0.1)">
       <use xlink:href="#DejaVuSans-30"/>
       <use xlink:href="#DejaVuSans-2e" x="63.623047"/>
       <use xlink:href="#DejaVuSans-32" x="95.410156"/>
      </g>
     </g>
    </g>
    <g id="ytick_3">
     <g id="line2d_9">
      <g>
       <use xlink:href="#m6aa9e6d5cc" x="47.81" y="189.435166" style="stroke: #000000; stroke-width: 0.8"/>
      </g>
     </g>
     <g id="text_10">
      <!-- 0.4 -->
      <g transform="translate(24.906875 193.234385) scale(0.1 -0.1)">
       <use xlink:href="#DejaVuSans-30"/>
       <use xlink:href="#DejaVuSans-2e" x="63.623047"/>
       <use xlink:href="#DejaVuSans-34" x="95.410156"/>
      </g>
     </g>
    </g>
    <g id="ytick_4">
     <g id="line2d_10">
      <g>
       <use xlink:href="#m6aa9e6d5cc" x="47.81" y="140.28374" style="stroke: #000000; stroke-width: 0.8"/>
      </g>
     </g>
     <g id="text_11">
      <!-- 0.6 -->
      <g transform="translate(24.906875 144.082958) scale(0.1 -0.1)">
       <use xlink:href="#DejaVuSans-30"/>
       <use xlink:href="#DejaVuSans-2e" x="63.623047"/>
       <use xlink:href="#DejaVuSans-36" x="95.410156"/>
      </g>
     </g>
    </g>
    <g id="ytick_5">
     <g id="line2d_11">
      <g>
       <use xlink:href="#m6aa9e6d5cc" x="47.81" y="91.132314" style="stroke: #000000; stroke-width: 0.8"/>
      </g>
     </g>
     <g id="text_12">
      <!-- 0.8 -->
      <g transform="translate(24.906875 94.931532) scale(0.1 -0.1)">
       <use xlink:href="#DejaVuSans-30"/>
       <use xlink:href="#DejaVuSans-2e" x="63.623047"/>
       <use xlink:href="#DejaVuSans-38" x="95.410156"/>
      </g>
     </g>
    </g>
    <g id="ytick_6">
     <g id="line2d_12">
      <g>
       <use xlink:href="#m6aa9e6d5cc" x="47.81" y="41.980888" style="stroke: #000000; stroke-width: 0.8"/>
      </g>
     </g>
     <g id="text_13">
      <!-- 1.0 -->
      <g transform="translate(24.906875 45.780106) scale(0.1 -0.1)">
       <use xlink:href="#DejaVuSans-31"/>
       <use xlink:href="#DejaVuSans-2e" x="63.623047"/>
       <use xlink:href="#DejaVuSans-30" x="95.410156"/>
      </g>
     </g>
    </g>
    <g id="text_14">
     <!-- Similarity -->
     <g transform="translate(18.827187 188.179844) rotate(-90) scale(0.1 -0.1)">
      <defs>
       <path id="DejaVuSans-53" d="M 3425 4513 
L 3425 3897 
Q 3066 4069 2747 4153 
Q 2428 4238 2131 4238 
Q 1616 4238 1336 4038 
Q 1056 3838 1056 3469 
Q 1056 3159 1242 3001 
Q 1428 2844 1947 2747 
L 2328 2669 
Q 3034 2534 3370 2195 
Q 3706 1856 3706 1288 
Q 3706 609 3251 259 
Q 2797 -91 1919 -91 
Q 1588 -91 1214 -16 
Q 841 59 441 206 
L 441 856 
Q 825 641 1194 531 
Q 1563 422 1919 422 
Q 2459 422 2753 634 
Q 3047 847 3047 1241 
Q 3047 1584 2836 1778 
Q 2625 1972 2144 2069 
L 1759 2144 
Q 1053 2284 737 2584 
Q 422 2884 422 3419 
Q 422 4038 858 4394 
Q 1294 4750 2059 4750 
Q 2388 4750 2728 4690 
Q 3069 4631 3425 4513 
z
" transform="scale(0.015625)"/>
       <path id="DejaVuSans-6d" d="M 3328 2828 
Q 3544 3216 3844 3400 
Q 4144 3584 4550 3584 
Q 5097 3584 5394 3201 
Q 5691 2819 5691 2113 
L 5691 0 
L 5113 0 
L 5113 2094 
Q 5113 2597 4934 2840 
Q 4756 3084 4391 3084 
Q 3944 3084 3684 2787 
Q 3425 2491 3425 1978 
L 3425 0 
L 2847 0 
L 2847 2094 
Q 2847 2600 2669 2842 
Q 2491 3084 2119 3084 
Q 1678 3084 1418 2786 
Q 1159 2488 1159 1978 
L 1159 0 
L 581 0 
L 581 3500 
L 1159 3500 
L 1159 2956 
Q 1356 3278 1631 3431 
Q 1906 3584 2284 3584 
Q 2666 3584 2933 3390 
Q 3200 3197 3328 2828 
z
" transform="scale(0.015625)"/>
       <path id="DejaVuSans-6c" d="M 603 4863 
L 1178 4863 
L 1178 0 
L 603 0 
L 603 4863 
z
" transform="scale(0.015625)"/>
       <path id="DejaVuSans-79" d="M 2059 -325 
Q 1816 -950 1584 -1140 
Q 1353 -1331 966 -1331 
L 506 -1331 
L 506 -850 
L 844 -850 
Q 1081 -850 1212 -737 
Q 1344 -625 1503 -206 
L 1606 56 
L 191 3500 
L 800 3500 
L 1894 763 
L 2988 3500 
L 3597 3500 
L 2059 -325 
z
" transform="scale(0.015625)"/>
      </defs>
      <use xlink:href="#DejaVuSans-53"/>
      <use xlink:href="#DejaVuSans-69" x="63.476562"/>
      <use xlink:href="#DejaVuSans-6d" x="91.259766"/>
      <use xlink:href="#DejaVuSans-69" x="188.671875"/>
      <use xlink:href="#DejaVuSans-6c" x="216.455078"/>
      <use xlink:href="#DejaVuSans-61" x="244.238281"/>
      <use xlink:href="#DejaVuSans-72" x="305.517578"/>
      <use xlink:href="#DejaVuSans-69" x="346.630859"/>
      <use xlink:href="#DejaVuSans-74" x="374.414062"/>
      <use xlink:href="#DejaVuSans-79" x="413.623047"/>
     </g>
    </g>
   </g>
   <g id="line2d_13">
    <path d="M 66.091364 174.689738 
L 69.822254 132.911026 
L 73.553145 115.708027 
L 77.284035 100.962599 
L 81.014926 93.098371 
L 84.745816 69.505686 
L 88.476707 59.675401 
L 92.207597 52.794201 
L 95.938488 50.828144 
L 99.669378 49.845116 
L 103.400269 47.879059 
L 107.13116 50.828144 
L 110.86205 52.794201 
L 114.592941 52.794201 
L 118.323831 52.794201 
L 122.054722 55.743287 
L 125.785612 56.726315 
L 129.516503 59.675401 
L 133.247393 65.573572 
L 136.978284 65.573572 
L 140.709174 68.522658 
L 144.440065 70.488715 
L 148.170955 76.386886 
L 151.901846 78.352943 
L 155.632737 80.319 
L 159.363627 84.251114 
L 163.094518 87.2002 
L 166.825408 88.183228 
L 170.556299 92.115342 
L 174.287189 95.064428 
L 178.01808 96.047456 
L 181.74897 103.911684 
L 185.479861 104.894713 
L 189.210751 109.809856 
L 192.941642 122.589226 
L 196.672532 133.40254 
L 200.403423 136.351626 
L 204.134314 144.215854 
L 207.865204 156.012196 
L 211.596095 162.893396 
L 215.326985 168.791567 
L 219.057876 180.587909 
L 222.788766 196.316365 
L 226.519657 206.146651 
L 230.250547 218.926021 
L 233.981438 229.739335 
L 237.712328 237.603563 
L 241.443219 241.535677 
L 245.174109 244.484763 
L 248.905 247.433849 
L 252.635891 253.33202 
L 256.366781 258.247162 
L 260.097672 262.179276 
L 263.828562 267.094419 
L 267.559453 270.043505 
L 271.290343 272.99259 
L 275.021234 273.975619 
L 278.752124 275.941676 
L 282.483015 275.941676 
L 286.213905 278.890761 
L 289.944796 276.924704 
L 293.675686 277.907733 
L 297.406577 278.890761 
L 301.137468 279.87379 
L 304.868358 279.87379 
L 308.599249 281.839847 
L 312.330139 282.822875 
L 316.06103 283.805904 
L 319.79192 284.788932 
L 323.522811 284.788932 
L 327.253701 285.771961 
L 330.984592 287.738018 
L 334.715482 284.788932 
L 338.446373 283.805904 
L 342.177263 283.805904 
L 345.908154 282.822875 
L 349.639045 282.822875 
L 353.369935 285.771961 
L 357.100826 286.754989 
L 360.831716 286.754989 
L 364.562607 285.771961 
L 368.293497 285.771961 
L 372.024388 285.771961 
L 375.755278 284.788932 
L 379.486169 284.788932 
L 383.217059 285.771961 
L 386.94795 284.788932 
L 390.67884 283.805904 
L 394.409731 284.788932 
L 398.140622 283.805904 
L 401.871512 284.788932 
L 405.602403 284.788932 
L 409.333293 284.788932 
L 413.064184 283.805904 
L 416.795074 283.805904 
L 420.525965 280.856818 
L 424.256855 280.856818 
L 427.987746 281.839847 
L 431.718636 281.839847 
" clip-path="url(#p6f18c25ecb)" style="fill: none; stroke: #0000ff; stroke-linecap: square"/>
    <defs>
     <path id="m120e26277c" d="M -0.49999 0.49999 
L 0.50001 0.49999 
L 0.50001 -0.50001 
L -0.49999 -0.50001 
z
"/>
    </defs>
    <g clip-path="url(#p6f18c25ecb)">
     <use xlink:href="#m120e26277c" x="66.091364" y="174.689738" style="fill: #0000ff"/>
     <use xlink:href="#m120e26277c" x="69.822254" y="132.911026" style="fill: #0000ff"/>
     <use xlink:href="#m120e26277c" x="73.553145" y="115.708027" style="fill: #0000ff"/>
     <use xlink:href="#m120e26277c" x="77.284035" y="100.962599" style="fill: #0000ff"/>
     <use xlink:href="#m120e26277c" x="81.014926" y="93.098371" style="fill: #0000ff"/>
     <use xlink:href="#m120e26277c" x="84.745816" y="69.505686" style="fill: #0000ff"/>
     <use xlink:href="#m120e26277c" x="88.476707" y="59.675401" style="fill: #0000ff"/>
     <use xlink:href="#m120e26277c" x="92.207597" y="52.794201" style="fill: #0000ff"/>
     <use xlink:href="#m120e26277c" x="95.938488" y="50.828144" style="fill: #0000ff"/>
     <use xlink:href="#m120e26277c" x="99.669378" y="49.845116" style="fill: #0000ff"/>
     <use xlink:href="#m120e26277c" x="103.400269" y="47.879059" style="fill: #0000ff"/>
     <use xlink:href="#m120e26277c" x="107.13116" y="50.828144" style="fill: #0000ff"/>
     <use xlink:href="#m120e26277c" x="110.86205" y="52.794201" style="fill: #0000ff"/>
     <use xlink:href="#m120e26277c" x="114.592941" y="52.794201" style="fill: #0000ff"/>
     <use xlink:href="#m120e26277c" x="118.323831" y="52.794201" style="fill: #0000ff"/>
     <use xlink:href="#m120e26277c" x="122.054722" y="55.743287" style="fill: #0000ff"/>
     <use xlink:href="#m120e26277c" x="125.785612" y="56.726315" style="fill: #0000ff"/>
     <use xlink:href="#m120e26277c" x="129.516503" y="59.675401" style="fill: #0000ff"/>
     <use xlink:href="#m120e26277c" x="133.247393" y="65.573572" style="fill: #0000ff"/>
     <use xlink:href="#m120e26277c" x="136.978284" y="65.573572" style="fill: #0000ff"/>
     <use xlink:href="#m120e26277c" x="140.709174" y="68.522658" style="fill: #0000ff"/>
     <use xlink:href="#m120e26277c" x="144.440065" y="70.488715" style="fill: #0000ff"/>
     <use xlink:href="#m120e26277c" x="148.170955" y="76.386886" style="fill: #0000ff"/>
     <use xlink:href="#m120e26277c" x="151.901846" y="78.352943" style="fill: #0000ff"/>
     <use xlink:href="#m120e26277c" x="155.632737" y="80.319" style="fill: #0000ff"/>
     <use xlink:href="#m120e26277c" x="159.363627" y="84.251114" style="fill: #0000ff"/>
     <use xlink:href="#m120e26277c" x="163.094518" y="87.2002" style="fill: #0000ff"/>
     <use xlink:href="#m120e26277c" x="166.825408" y="88.183228" style="fill: #0000ff"/>
     <use xlink:href="#m120e26277c" x="170.556299" y="92.115342" style="fill: #0000ff"/>
     <use xlink:href="#m120e26277c" x="174.287189" y="95.064428" style="fill: #0000ff"/>
     <use xlink:href="#m120e26277c" x="178.01808" y="96.047456" style="fill: #0000ff"/>
     <use xlink:href="#m120e26277c" x="181.74897" y="103.911684" style="fill: #0000ff"/>
     <use xlink:href="#m120e26277c" x="185.479861" y="104.894713" style="fill: #0000ff"/>
     <use xlink:href="#m120e26277c" x="189.210751" y="109.809856" style="fill: #0000ff"/>
     <use xlink:href="#m120e26277c" x="192.941642" y="122.589226" style="fill: #0000ff"/>
     <use xlink:href="#m120e26277c" x="196.672532" y="133.40254" style="fill: #0000ff"/>
     <use xlink:href="#m120e26277c" x="200.403423" y="136.351626" style="fill: #0000ff"/>
     <use xlink:href="#m120e26277c" x="204.134314" y="144.215854" style="fill: #0000ff"/>
     <use xlink:href="#m120e26277c" x="207.865204" y="156.012196" style="fill: #0000ff"/>
     <use xlink:href="#m120e26277c" x="211.596095" y="162.893396" style="fill: #0000ff"/>
     <use xlink:href="#m120e26277c" x="215.326985" y="168.791567" style="fill: #0000ff"/>
     <use xlink:href="#m120e26277c" x="219.057876" y="180.587909" style="fill: #0000ff"/>
     <use xlink:href="#m120e26277c" x="222.788766" y="196.316365" style="fill: #0000ff"/>
     <use xlink:href="#m120e26277c" x="226.519657" y="206.146651" style="fill: #0000ff"/>
     <use xlink:href="#m120e26277c" x="230.250547" y="218.926021" style="fill: #0000ff"/>
     <use xlink:href="#m120e26277c" x="233.981438" y="229.739335" style="fill: #0000ff"/>
     <use xlink:href="#m120e26277c" x="237.712328" y="237.603563" style="fill: #0000ff"/>
     <use xlink:href="#m120e26277c" x="241.443219" y="241.535677" style="fill: #0000ff"/>
     <use xlink:href="#m120e26277c" x="245.174109" y="244.484763" style="fill: #0000ff"/>
     <use xlink:href="#m120e26277c" x="248.905" y="247.433849" style="fill: #0000ff"/>
     <use xlink:href="#m120e26277c" x="252.635891" y="253.33202" style="fill: #0000ff"/>
     <use xlink:href="#m120e26277c" x="256.366781" y="258.247162" style="fill: #0000ff"/>
     <use xlink:href="#m120e26277c" x="260.097672" y="262.179276" style="fill: #0000ff"/>
     <use xlink:href="#m120e26277c" x="263.828562" y="267.094419" style="fill: #0000ff"/>
     <use xlink:href="#m120e26277c" x="267.559453" y="270.043505" style="fill: #0000ff"/>
     <use xlink:href="#m120e26277c" x="271.290343" y="272.99259" style="fill: #0000ff"/>
     <use xlink:href="#m120e26277c" x="275.021234" y="273.975619" style="fill: #0000ff"/>
     <use xlink:href="#m120e26277c" x="278.752124" y="275.941676" style="fill: #0000ff"/>
     <use xlink:href="#m120e26277c" x="282.483015" y="275.941676" style="fill: #0000ff"/>
     <use xlink:href="#m120e26277c" x="286.213905" y="278.890761" style="fill: #0000ff"/>
     <use xlink:href="#m120e26277c" x="289.944796" y="276.924704" style="fill: #0000ff"/>
     <use xlink:href="#m120e26277c" x="293.675686" y="277.907733" style="fill: #0000ff"/>
     <use xlink:href="#m120e26277c" x="297.406577" y="278.890761" style="fill: #0000ff"/>
     <use xlink:href="#m120e26277c" x="301.137468" y="279.87379" style="fill: #0000ff"/>
     <use xlink:href="#m120e26277c" x="304.868358" y="279.87379" style="fill: #0000ff"/>
     <use xlink:href="#m120e26277c" x="308.599249" y="281.839847" style="fill: #0000ff"/>
     <use xlink:href="#m120e26277c" x="312.330139" y="282.822875" style="fill: #0000ff"/>
     <use xlink:href="#m120e26277c" x="316.06103" y="283.805904" style="fill: #0000ff"/>
     <use xlink:href="#m120e26277c" x="319.79192" y="284.788932" style="fill: #0000ff"/>
     <use xlink:href="#m120e26277c" x="323.522811" y="284.788932" style="fill: #0000ff"/>
     <use xlink:href="#m120e26277c" x="327.253701" y="285.771961" style="fill: #0000ff"/>
     <use xlink:href="#m120e26277c" x="330.984592" y="287.738018" style="fill: #0000ff"/>
     <use xlink:href="#m120e26277c" x="334.715482" y="284.788932" style="fill: #0000ff"/>
     <use xlink:href="#m120e26277c" x="338.446373" y="283.805904" style="fill: #0000ff"/>
     <use xlink:href="#m120e26277c" x="342.177263" y="283.805904" style="fill: #0000ff"/>
     <use xlink:href="#m120e26277c" x="345.908154" y="282.822875" style="fill: #0000ff"/>
     <use xlink:href="#m120e26277c" x="349.639045" y="282.822875" style="fill: #0000ff"/>
     <use xlink:href="#m120e26277c" x="353.369935" y="285.771961" style="fill: #0000ff"/>
     <use xlink:href="#m120e26277c" x="357.100826" y="286.754989" style="fill: #0000ff"/>
     <use xlink:href="#m120e26277c" x="360.831716" y="286.754989" style="fill: #0000ff"/>
     <use xlink:href="#m120e26277c" x="364.562607" y="285.771961" style="fill: #0000ff"/>
     <use xlink:href="#m120e26277c" x="368.293497" y="285.771961" style="fill: #0000ff"/>
     <use xlink:href="#m120e26277c" x="372.024388" y="285.771961" style="fill: #0000ff"/>
     <use xlink:href="#m120e26277c" x="375.755278" y="284.788932" style="fill: #0000ff"/>
     <use xlink:href="#m120e26277c" x="379.486169" y="284.788932" style="fill: #0000ff"/>
     <use xlink:href="#m120e26277c" x="383.217059" y="285.771961" style="fill: #0000ff"/>
     <use xlink:href="#m120e26277c" x="386.94795" y="284.788932" style="fill: #0000ff"/>
     <use xlink:href="#m120e26277c" x="390.67884" y="283.805904" style="fill: #0000ff"/>
     <use xlink:href="#m120e26277c" x="394.409731" y="284.788932" style="fill: #0000ff"/>
     <use xlink:href="#m120e26277c" x="398.140622" y="283.805904" style="fill: #0000ff"/>
     <use xlink:href="#m120e26277c" x="401.871512" y="284.788932" style="fill: #0000ff"/>
     <use xlink:href="#m120e26277c" x="405.602403" y="284.788932" style="fill: #0000ff"/>
     <use xlink:href="#m120e26277c" x="409.333293" y="284.788932" style="fill: #0000ff"/>
     <use xlink:href="#m120e26277c" x="413.064184" y="283.805904" style="fill: #0000ff"/>
     <use xlink:href="#m120e26277c" x="416.795074" y="283.805904" style="fill: #0000ff"/>
     <use xlink:href="#m120e26277c" x="420.525965" y="280.856818" style="fill: #0000ff"/>
     <use xlink:href="#m120e26277c" x="424.256855" y="280.856818" style="fill: #0000ff"/>
     <use xlink:href="#m120e26277c" x="427.987746" y="281.839847" style="fill: #0000ff"/>
     <use xlink:href="#m120e26277c" x="431.718636" y="281.839847" style="fill: #0000ff"/>
    </g>
   </g>
   <g id="line2d_14">
    <path d="M 66.091364 174.689738 
L 69.822254 153.800382 
L 73.553145 141.10293 
L 77.284035 131.067847 
L 81.014926 123.473952 
L 84.745816 114.479241 
L 88.476707 106.650121 
L 92.207597 99.918131 
L 95.938488 94.463688 
L 99.669378 90.001831 
L 103.400269 86.172488 
L 107.13116 83.227126 
L 110.86205 80.886132 
L 114.592941 78.879565 
L 118.323831 77.140541 
L 122.054722 75.803213 
L 125.785612 74.681042 
L 129.516503 73.847395 
L 133.247393 73.411931 
L 136.978284 73.020013 
L 140.709174 72.805853 
L 144.440065 72.700529 
L 148.170955 72.860805 
L 151.901846 73.089644 
L 155.632737 73.378819 
L 159.363627 73.796984 
L 163.094518 74.293399 
L 166.825408 74.789464 
L 170.556299 75.386908 
L 174.287189 76.042826 
L 178.01808 76.688136 
L 181.74897 77.538872 
L 185.479861 78.367837 
L 189.210751 79.292602 
L 192.941642 80.529649 
L 196.672532 81.99834 
L 200.403423 83.467348 
L 204.134314 85.065993 
L 207.865204 86.885126 
L 211.596095 88.785333 
L 215.326985 90.736705 
L 219.057876 92.876019 
L 222.788766 95.281608 
L 226.519657 97.801268 
L 230.250547 100.49293 
L 233.981438 103.302634 
L 237.712328 106.160101 
L 241.443219 108.980425 
L 245.174109 111.74582 
L 248.905 114.45958 
L 252.635891 117.182569 
L 256.366781 119.89535 
L 260.097672 122.579952 
L 263.828562 125.256146 
L 267.559453 127.888644 
L 271.290343 130.479786 
L 275.021234 132.997256 
L 278.752124 135.461815 
L 282.483015 137.84283 
L 286.213905 140.193629 
L 289.944796 142.435122 
L 293.675686 144.620164 
L 297.406577 146.751443 
L 301.137468 148.83148 
L 304.868358 150.847515 
L 308.599249 152.832248 
L 312.330139 154.772406 
L 316.06103 156.669958 
L 319.79192 158.526755 
L 323.522811 160.3305 
L 327.253701 162.097281 
L 330.984592 163.842291 
L 334.715482 165.499095 
L 338.446373 167.097835 
L 342.177263 168.653943 
L 345.908154 170.156166 
L 349.639045 171.61937 
L 353.369935 173.082864 
L 357.100826 174.521752 
L 360.831716 175.924668 
L 364.562607 177.280807 
L 368.293497 178.60387 
L 372.024388 179.895052 
L 375.755278 181.143788 
L 379.486169 182.363143 
L 383.217059 183.565571 
L 386.94795 184.729058 
L 390.67884 185.854931 
L 394.409731 186.966549 
L 398.140622 188.042542 
L 401.871512 189.105689 
L 405.602403 190.145724 
L 409.333293 191.163393 
L 413.064184 192.148952 
L 416.795074 193.113762 
L 420.525965 194.027752 
L 424.256855 194.922897 
L 427.987746 195.809805 
L 431.718636 196.678795 
" clip-path="url(#p6f18c25ecb)" style="fill: none; stroke: #ff0000; stroke-opacity: 0.5; stroke-width: 0.5; stroke-linecap: square"/>
    <defs>
     <path id="m1617c8f10a" d="M -0.49999 0.49999 
L 0.50001 0.49999 
L 0.50001 -0.50001 
L -0.49999 -0.50001 
z
"/>
    </defs>
    <g clip-path="url(#p6f18c25ecb)">
     <use xlink:href="#m1617c8f10a" x="66.091364" y="174.689738" style="fill: #ff0000; fill-opacity: 0.5"/>
     <use xlink:href="#m1617c8f10a" x="69.822254" y="153.800382" style="fill: #ff0000; fill-opacity: 0.5"/>
     <use xlink:href="#m1617c8f10a" x="73.553145" y="141.10293" style="fill: #ff0000; fill-opacity: 0.5"/>
     <use xlink:href="#m1617c8f10a" x="77.284035" y="131.067847" style="fill: #ff0000; fill-opacity: 0.5"/>
     <use xlink:href="#m1617c8f10a" x="81.014926" y="123.473952" style="fill: #ff0000; fill-opacity: 0.5"/>
     <use xlink:href="#m1617c8f10a" x="84.745816" y="114.479241" style="fill: #ff0000; fill-opacity: 0.5"/>
     <use xlink:href="#m1617c8f10a" x="88.476707" y="106.650121" style="fill: #ff0000; fill-opacity: 0.5"/>
     <use xlink:href="#m1617c8f10a" x="92.207597" y="99.918131" style="fill: #ff0000; fill-opacity: 0.5"/>
     <use xlink:href="#m1617c8f10a" x="95.938488" y="94.463688" style="fill: #ff0000; fill-opacity: 0.5"/>
     <use xlink:href="#m1617c8f10a" x="99.669378" y="90.001831" style="fill: #ff0000; fill-opacity: 0.5"/>
     <use xlink:href="#m1617c8f10a" x="103.400269" y="86.172488" style="fill: #ff0000; fill-opacity: 0.5"/>
     <use xlink:href="#m1617c8f10a" x="107.13116" y="83.227126" style="fill: #ff0000; fill-opacity: 0.5"/>
     <use xlink:href="#m1617c8f10a" x="110.86205" y="80.886132" style="fill: #ff0000; fill-opacity: 0.5"/>
     <use xlink:href="#m1617c8f10a" x="114.592941" y="78.879565" style="fill: #ff0000; fill-opacity: 0.5"/>
     <use xlink:href="#m1617c8f10a" x="118.323831" y="77.140541" style="fill: #ff0000; fill-opacity: 0.5"/>
     <use xlink:href="#m1617c8f10a" x="122.054722" y="75.803213" style="fill: #ff0000; fill-opacity: 0.5"/>
     <use xlink:href="#m1617c8f10a" x="125.785612" y="74.681042" style="fill: #ff0000; fill-opacity: 0.5"/>
     <use xlink:href="#m1617c8f10a" x="129.516503" y="73.847395" style="fill: #ff0000; fill-opacity: 0.5"/>
     <use xlink:href="#m1617c8f10a" x="133.247393" y="73.411931" style="fill: #ff0000; fill-opacity: 0.5"/>
     <use xlink:href="#m1617c8f10a" x="136.978284" y="73.020013" style="fill: #ff0000; fill-opacity: 0.5"/>
     <use xlink:href="#m1617c8f10a" x="140.709174" y="72.805853" style="fill: #ff0000; fill-opacity: 0.5"/>
     <use xlink:href="#m1617c8f10a" x="144.440065" y="72.700529" style="fill: #ff0000; fill-opacity: 0.5"/>
     <use xlink:href="#m1617c8f10a" x="148.170955" y="72.860805" style="fill: #ff0000; fill-opacity: 0.5"/>
     <use xlink:href="#m1617c8f10a" x="151.901846" y="73.089644" style="fill: #ff0000; fill-opacity: 0.5"/>
     <use xlink:href="#m1617c8f10a" x="155.632737" y="73.378819" style="fill: #ff0000; fill-opacity: 0.5"/>
     <use xlink:href="#m1617c8f10a" x="159.363627" y="73.796984" style="fill: #ff0000; fill-opacity: 0.5"/>
     <use xlink:href="#m1617c8f10a" x="163.094518" y="74.293399" style="fill: #ff0000; fill-opacity: 0.5"/>
     <use xlink:href="#m1617c8f10a" x="166.825408" y="74.789464" style="fill: #ff0000; fill-opacity: 0.5"/>
     <use xlink:href="#m1617c8f10a" x="170.556299" y="75.386908" style="fill: #ff0000; fill-opacity: 0.5"/>
     <use xlink:href="#m1617c8f10a" x="174.287189" y="76.042826" style="fill: #ff0000; fill-opacity: 0.5"/>
     <use xlink:href="#m1617c8f10a" x="178.01808" y="76.688136" style="fill: #ff0000; fill-opacity: 0.5"/>
     <use xlink:href="#m1617c8f10a" x="181.74897" y="77.538872" style="fill: #ff0000; fill-opacity: 0.5"/>
     <use xlink:href="#m1617c8f10a" x="185.479861" y="78.367837" style="fill: #ff0000; fill-opacity: 0.5"/>
     <use xlink:href="#m1617c8f10a" x="189.210751" y="79.292602" style="fill: #ff0000; fill-opacity: 0.5"/>
     <use xlink:href="#m1617c8f10a" x="192.941642" y="80.529649" style="fill: #ff0000; fill-opacity: 0.5"/>
     <use xlink:href="#m1617c8f10a" x="196.672532" y="81.99834" style="fill: #ff0000; fill-opacity: 0.5"/>
     <use xlink:href="#m1617c8f10a" x="200.403423" y="83.467348" style="fill: #ff0000; fill-opacity: 0.5"/>
     <use xlink:href="#m1617c8f10a" x="204.134314" y="85.065993" style="fill: #ff0000; fill-opacity: 0.5"/>
     <use xlink:href="#m1617c8f10a" x="207.865204" y="86.885126" style="fill: #ff0000; fill-opacity: 0.5"/>
     <use xlink:href="#m1617c8f10a" x="211.596095" y="88.785333" style="fill: #ff0000; fill-opacity: 0.5"/>
     <use xlink:href="#m1617c8f10a" x="215.326985" y="90.736705" style="fill: #ff0000; fill-opacity: 0.5"/>
     <use xlink:href="#m1617c8f10a" x="219.057876" y="92.876019" style="fill: #ff0000; fill-opacity: 0.5"/>
     <use xlink:href="#m1617c8f10a" x="222.788766" y="95.281608" style="fill: #ff0000; fill-opacity: 0.5"/>
     <use xlink:href="#m1617c8f10a" x="226.519657" y="97.801268" style="fill: #ff0000; fill-opacity: 0.5"/>
     <use xlink:href="#m1617c8f10a" x="230.250547" y="100.49293" style="fill: #ff0000; fill-opacity: 0.5"/>
     <use xlink:href="#m1617c8f10a" x="233.981438" y="103.302634" style="fill: #ff0000; fill-opacity: 0.5"/>
     <use xlink:href="#m1617c8f10a" x="237.712328" y="106.160101" style="fill: #ff0000; fill-opacity: 0.5"/>
     <use xlink:href="#m1617c8f10a" x="241.443219" y="108.980425" style="fill: #ff0000; fill-opacity: 0.5"/>
     <use xlink:href="#m1617c8f10a" x="245.174109" y="111.74582" style="fill: #ff0000; fill-opacity: 0.5"/>
     <use xlink:href="#m1617c8f10a" x="248.905" y="114.45958" style="fill: #ff0000; fill-opacity: 0.5"/>
     <use xlink:href="#m1617c8f10a" x="252.635891" y="117.182569" style="fill: #ff0000; fill-opacity: 0.5"/>
     <use xlink:href="#m1617c8f10a" x="256.366781" y="119.89535" style="fill: #ff0000; fill-opacity: 0.5"/>
     <use xlink:href="#m1617c8f10a" x="260.097672" y="122.579952" style="fill: #ff0000; fill-opacity: 0.5"/>
     <use xlink:href="#m1617c8f10a" x="263.828562" y="125.256146" style="fill: #ff0000; fill-opacity: 0.5"/>
     <use xlink:href="#m1617c8f10a" x="267.559453" y="127.888644" style="fill: #ff0000; fill-opacity: 0.5"/>
     <use xlink:href="#m1617c8f10a" x="271.290343" y="130.479786" style="fill: #ff0000; fill-opacity: 0.5"/>
     <use xlink:href="#m1617c8f10a" x="275.021234" y="132.997256" style="fill: #ff0000; fill-opacity: 0.5"/>
     <use xlink:href="#m1617c8f10a" x="278.752124" y="135.461815" style="fill: #ff0000; fill-opacity: 0.5"/>
     <use xlink:href="#m1617c8f10a" x="282.483015" y="137.84283" style="fill: #ff0000; fill-opacity: 0.5"/>
     <use xlink:href="#m1617c8f10a" x="286.213905" y="140.193629" style="fill: #ff0000; fill-opacity: 0.5"/>
     <use xlink:href="#m1617c8f10a" x="289.944796" y="142.435122" style="fill: #ff0000; fill-opacity: 0.5"/>
     <use xlink:href="#m1617c8f10a" x="293.675686" y="144.620164" style="fill: #ff0000; fill-opacity: 0.5"/>
     <use xlink:href="#m1617c8f10a" x="297.406577" y="146.751443" style="fill: #ff0000; fill-opacity: 0.5"/>
     <use xlink:href="#m1617c8f10a" x="301.137468" y="148.83148" style="fill: #ff0000; fill-opacity: 0.5"/>
     <use xlink:href="#m1617c8f10a" x="304.868358" y="150.847515" style="fill: #ff0000; fill-opacity: 0.5"/>
     <use xlink:href="#m1617c8f10a" x="308.599249" y="152.832248" style="fill: #ff0000; fill-opacity: 0.5"/>
     <use xlink:href="#m1617c8f10a" x="312.330139" y="154.772406" style="fill: #ff0000; fill-opacity: 0.5"/>
     <use xlink:href="#m1617c8f10a" x="316.06103" y="156.669958" style="fill: #ff0000; fill-opacity: 0.5"/>
     <use xlink:href="#m1617c8f10a" x="319.79192" y="158.526755" style="fill: #ff0000; fill-opacity: 0.5"/>
     <use xlink:href="#m1617c8f10a" x="323.522811" y="160.3305" style="fill: #ff0000; fill-opacity: 0.5"/>
     <use xlink:href="#m1617c8f10a" x="327.253701" y="162.097281" style="fill: #ff0000; fill-opacity: 0.5"/>
     <use xlink:href="#m1617c8f10a" x="330.984592" y="163.842291" style="fill: #ff0000; fill-opacity: 0.5"/>
     <use xlink:href="#m1617c8f10a" x="334.715482" y="165.499095" style="fill: #ff0000; fill-opacity: 0.5"/>
     <use xlink:href="#m1617c8f10a" x="338.446373" y="167.097835" style="fill: #ff0000; fill-opacity: 0.5"/>
     <use xlink:href="#m1617c8f10a" x="342.177263" y="168.653943" style="fill: #ff0000; fill-opacity: 0.5"/>
     <use xlink:href="#m1617c8f10a" x="345.908154" y="170.156166" style="fill: #ff0000; fill-opacity: 0.5"/>
     <use xlink:href="#m1617c8f10a" x="349.639045" y="171.61937" style="fill: #ff0000; fill-opacity: 0.5"/>
     <use xlink:href="#m1617c8f10a" x="353.369935" y="173.082864" style="fill: #ff0000; fill-opacity: 0.5"/>
     <use xlink:href="#m1617c8f10a" x="357.100826" y="174.521752" style="fill: #ff0000; fill-opacity: 0.5"/>
     <use xlink:href="#m1617c8f10a" x="360.831716" y="175.924668" style="fill: #ff0000; fill-opacity: 0.5"/>
     <use xlink:href="#m1617c8f10a" x="364.562607" y="177.280807" style="fill: #ff0000; fill-opacity: 0.5"/>
     <use xlink:href="#m1617c8f10a" x="368.293497" y="178.60387" style="fill: #ff0000; fill-opacity: 0.5"/>
     <use xlink:href="#m1617c8f10a" x="372.024388" y="179.895052" style="fill: #ff0000; fill-opacity: 0.5"/>
     <use xlink:href="#m1617c8f10a" x="375.755278" y="181.143788" style="fill: #ff0000; fill-opacity: 0.5"/>
     <use xlink:href="#m1617c8f10a" x="379.486169" y="182.363143" style="fill: #ff0000; fill-opacity: 0.5"/>
     <use xlink:href="#m1617c8f10a" x="383.217059" y="183.565571" style="fill: #ff0000; fill-opacity: 0.5"/>
     <use xlink:href="#m1617c8f10a" x="386.94795" y="184.729058" style="fill: #ff0000; fill-opacity: 0.5"/>
     <use xlink:href="#m1617c8f10a" x="390.67884" y="185.854931" style="fill: #ff0000; fill-opacity: 0.5"/>
     <use xlink:href="#m1617c8f10a" x="394.409731" y="186.966549" style="fill: #ff0000; fill-opacity: 0.5"/>
     <use xlink:href="#m1617c8f10a" x="398.140622" y="188.042542" style="fill: #ff0000; fill-opacity: 0.5"/>
     <use xlink:href="#m1617c8f10a" x="401.871512" y="189.105689" style="fill: #ff0000; fill-opacity: 0.5"/>
     <use xlink:href="#m1617c8f10a" x="405.602403" y="190.145724" style="fill: #ff0000; fill-opacity: 0.5"/>
     <use xlink:href="#m1617c8f10a" x="409.333293" y="191.163393" style="fill: #ff0000; fill-opacity: 0.5"/>
     <use xlink:href="#m1617c8f10a" x="413.064184" y="192.148952" style="fill: #ff0000; fill-opacity: 0.5"/>
     <use xlink:href="#m1617c8f10a" x="416.795074" y="193.113762" style="fill: #ff0000; fill-opacity: 0.5"/>
     <use xlink:href="#m1617c8f10a" x="420.525965" y="194.027752" style="fill: #ff0000; fill-opacity: 0.5"/>
     <use xlink:href="#m1617c8f10a" x="424.256855" y="194.922897" style="fill: #ff0000; fill-opacity: 0.5"/>
     <use xlink:href="#m1617c8f10a" x="427.987746" y="195.809805" style="fill: #ff0000; fill-opacity: 0.5"/>
     <use xlink:href="#m1617c8f10a" x="431.718636" y="196.678795" style="fill: #ff0000; fill-opacity: 0.5"/>
    </g>
   </g>
   <g id="line2d_15">
    <path d="M 47.81 287.738018 
L 450 287.738018 
" clip-path="url(#p6f18c25ecb)" style="fill: none; stroke-dasharray: 0.555,0.24; stroke-dashoffset: 0; stroke: #ff0000; stroke-width: 0.15"/>
   </g>
   <g id="line2d_16">
    <path d="M 47.81 164.859453 
L 450 164.859453 
" clip-path="url(#p6f18c25ecb)" style="fill: none; stroke-dasharray: 0.555,0.24; stroke-dashoffset: 0; stroke: #ff0000; stroke-width: 0.15"/>
   </g>
   <g id="line2d_17">
    <path d="M 47.81 41.980888 
L 450 41.980888 
" clip-path="url(#p6f18c25ecb)" style="fill: none; stroke-dasharray: 0.555,0.24; stroke-dashoffset: 0; stroke: #ff0000; stroke-width: 0.15"/>
   </g>
   <g id="line2d_18">
    <path d="M 84.745816 303.64 
L 84.745816 25.44 
" clip-path="url(#p6f18c25ecb)" style="fill: none; stroke-dasharray: 0.555,0.24; stroke-dashoffset: 0; stroke: #000000; stroke-width: 0.15"/>
   </g>
   <g id="patch_3">
    <path d="M 47.81 303.64 
L 47.81 25.44 
" style="fill: none; stroke: #000000; stroke-width: 0.8; stroke-linejoin: miter; stroke-linecap: square"/>
   </g>
   <g id="patch_4">
    <path d="M 450 303.64 
L 450 25.44 
" style="fill: none; stroke: #000000; stroke-width: 0.8; stroke-linejoin: miter; stroke-linecap: square"/>
   </g>
   <g id="patch_5">
    <path d="M 47.81 303.64 
L 450 303.64 
" style="fill: none; stroke: #000000; stroke-width: 0.8; stroke-linejoin: miter; stroke-linecap: square"/>
   </g>
   <g id="patch_6">
    <path d="M 47.81 25.44 
L 450 25.44 
" style="fill: none; stroke: #000000; stroke-width: 0.8; stroke-linejoin: miter; stroke-linecap: square"/>
   </g>
   <g id="text_15">
    <!-- Similarity LLM-DEFECT with sw5-1 - 20240409114154 - 50 games -->
    <g transform="translate(51.62875 19.44) scale(0.12 -0.12)">
     <defs>
      <path id="DejaVuSans-20" transform="scale(0.015625)"/>
      <path id="DejaVuSans-4c" d="M 628 4666 
L 1259 4666 
L 1259 531 
L 3531 531 
L 3531 0 
L 628 0 
L 628 4666 
z
" transform="scale(0.015625)"/>
      <path id="DejaVuSans-4d" d="M 628 4666 
L 1569 4666 
L 2759 1491 
L 3956 4666 
L 4897 4666 
L 4897 0 
L 4281 0 
L 4281 4097 
L 3078 897 
L 2444 897 
L 1241 4097 
L 1241 0 
L 628 0 
L 628 4666 
z
" transform="scale(0.015625)"/>
      <path id="DejaVuSans-2d" d="M 313 2009 
L 1997 2009 
L 1997 1497 
L 313 1497 
L 313 2009 
z
" transform="scale(0.015625)"/>
      <path id="DejaVuSans-44" d="M 1259 4147 
L 1259 519 
L 2022 519 
Q 2988 519 3436 956 
Q 3884 1394 3884 2338 
Q 3884 3275 3436 3711 
Q 2988 4147 2022 4147 
L 1259 4147 
z
M 628 4666 
L 1925 4666 
Q 3281 4666 3915 4102 
Q 4550 3538 4550 2338 
Q 4550 1131 3912 565 
Q 3275 0 1925 0 
L 628 0 
L 628 4666 
z
" transform="scale(0.015625)"/>
      <path id="DejaVuSans-45" d="M 628 4666 
L 3578 4666 
L 3578 4134 
L 1259 4134 
L 1259 2753 
L 3481 2753 
L 3481 2222 
L 1259 2222 
L 1259 531 
L 3634 531 
L 3634 0 
L 628 0 
L 628 4666 
z
" transform="scale(0.015625)"/>
      <path id="DejaVuSans-46" d="M 628 4666 
L 3309 4666 
L 3309 4134 
L 1259 4134 
L 1259 2759 
L 3109 2759 
L 3109 2228 
L 1259 2228 
L 1259 0 
L 628 0 
L 628 4666 
z
" transform="scale(0.015625)"/>
      <path id="DejaVuSans-43" d="M 4122 4306 
L 4122 3641 
Q 3803 3938 3442 4084 
Q 3081 4231 2675 4231 
Q 1875 4231 1450 3742 
Q 1025 3253 1025 2328 
Q 1025 1406 1450 917 
Q 1875 428 2675 428 
Q 3081 428 3442 575 
Q 3803 722 4122 1019 
L 4122 359 
Q 3791 134 3420 21 
Q 3050 -91 2638 -91 
Q 1578 -91 968 557 
Q 359 1206 359 2328 
Q 359 3453 968 4101 
Q 1578 4750 2638 4750 
Q 3056 4750 3426 4639 
Q 3797 4528 4122 4306 
z
" transform="scale(0.015625)"/>
      <path id="DejaVuSans-54" d="M -19 4666 
L 3928 4666 
L 3928 4134 
L 2272 4134 
L 2272 0 
L 1638 0 
L 1638 4134 
L -19 4134 
L -19 4666 
z
" transform="scale(0.015625)"/>
      <path id="DejaVuSans-77" d="M 269 3500 
L 844 3500 
L 1563 769 
L 2278 3500 
L 2956 3500 
L 3675 769 
L 4391 3500 
L 4966 3500 
L 4050 0 
L 3372 0 
L 2619 2869 
L 1863 0 
L 1184 0 
L 269 3500 
z
" transform="scale(0.015625)"/>
      <path id="DejaVuSans-68" d="M 3513 2113 
L 3513 0 
L 2938 0 
L 2938 2094 
Q 2938 2591 2744 2837 
Q 2550 3084 2163 3084 
Q 1697 3084 1428 2787 
Q 1159 2491 1159 1978 
L 1159 0 
L 581 0 
L 581 4863 
L 1159 4863 
L 1159 2956 
Q 1366 3272 1645 3428 
Q 1925 3584 2291 3584 
Q 2894 3584 3203 3211 
Q 3513 2838 3513 2113 
z
" transform="scale(0.015625)"/>
      <path id="DejaVuSans-73" d="M 2834 3397 
L 2834 2853 
Q 2591 2978 2328 3040 
Q 2066 3103 1784 3103 
Q 1356 3103 1142 2972 
Q 928 2841 928 2578 
Q 928 2378 1081 2264 
Q 1234 2150 1697 2047 
L 1894 2003 
Q 2506 1872 2764 1633 
Q 3022 1394 3022 966 
Q 3022 478 2636 193 
Q 2250 -91 1575 -91 
Q 1294 -91 989 -36 
Q 684 19 347 128 
L 347 722 
Q 666 556 975 473 
Q 1284 391 1588 391 
Q 1994 391 2212 530 
Q 2431 669 2431 922 
Q 2431 1156 2273 1281 
Q 2116 1406 1581 1522 
L 1381 1569 
Q 847 1681 609 1914 
Q 372 2147 372 2553 
Q 372 3047 722 3315 
Q 1072 3584 1716 3584 
Q 2034 3584 2315 3537 
Q 2597 3491 2834 3397 
z
" transform="scale(0.015625)"/>
      <path id="DejaVuSans-35" d="M 691 4666 
L 3169 4666 
L 3169 4134 
L 1269 4134 
L 1269 2991 
Q 1406 3038 1543 3061 
Q 1681 3084 1819 3084 
Q 2600 3084 3056 2656 
Q 3513 2228 3513 1497 
Q 3513 744 3044 326 
Q 2575 -91 1722 -91 
Q 1428 -91 1123 -41 
Q 819 9 494 109 
L 494 744 
Q 775 591 1075 516 
Q 1375 441 1709 441 
Q 2250 441 2565 725 
Q 2881 1009 2881 1497 
Q 2881 1984 2565 2268 
Q 2250 2553 1709 2553 
Q 1456 2553 1204 2497 
Q 953 2441 691 2322 
L 691 4666 
z
" transform="scale(0.015625)"/>
      <path id="DejaVuSans-39" d="M 703 97 
L 703 672 
Q 941 559 1184 500 
Q 1428 441 1663 441 
Q 2288 441 2617 861 
Q 2947 1281 2994 2138 
Q 2813 1869 2534 1725 
Q 2256 1581 1919 1581 
Q 1219 1581 811 2004 
Q 403 2428 403 3163 
Q 403 3881 828 4315 
Q 1253 4750 1959 4750 
Q 2769 4750 3195 4129 
Q 3622 3509 3622 2328 
Q 3622 1225 3098 567 
Q 2575 -91 1691 -91 
Q 1453 -91 1209 -44 
Q 966 3 703 97 
z
M 1959 2075 
Q 2384 2075 2632 2365 
Q 2881 2656 2881 3163 
Q 2881 3666 2632 3958 
Q 2384 4250 1959 4250 
Q 1534 4250 1286 3958 
Q 1038 3666 1038 3163 
Q 1038 2656 1286 2365 
Q 1534 2075 1959 2075 
z
" transform="scale(0.015625)"/>
      <path id="DejaVuSans-67" d="M 2906 1791 
Q 2906 2416 2648 2759 
Q 2391 3103 1925 3103 
Q 1463 3103 1205 2759 
Q 947 2416 947 1791 
Q 947 1169 1205 825 
Q 1463 481 1925 481 
Q 2391 481 2648 825 
Q 2906 1169 2906 1791 
z
M 3481 434 
Q 3481 -459 3084 -895 
Q 2688 -1331 1869 -1331 
Q 1566 -1331 1297 -1286 
Q 1028 -1241 775 -1147 
L 775 -588 
Q 1028 -725 1275 -790 
Q 1522 -856 1778 -856 
Q 2344 -856 2625 -561 
Q 2906 -266 2906 331 
L 2906 616 
Q 2728 306 2450 153 
Q 2172 0 1784 0 
Q 1141 0 747 490 
Q 353 981 353 1791 
Q 353 2603 747 3093 
Q 1141 3584 1784 3584 
Q 2172 3584 2450 3431 
Q 2728 3278 2906 2969 
L 2906 3500 
L 3481 3500 
L 3481 434 
z
" transform="scale(0.015625)"/>
     </defs>
     <use xlink:href="#DejaVuSans-53"/>
     <use xlink:href="#DejaVuSans-69" x="63.476562"/>
     <use xlink:href="#DejaVuSans-6d" x="91.259766"/>
     <use xlink:href="#DejaVuSans-69" x="188.671875"/>
     <use xlink:href="#DejaVuSans-6c" x="216.455078"/>
     <use xlink:href="#DejaVuSans-61" x="244.238281"/>
     <use xlink:href="#DejaVuSans-72" x="305.517578"/>
     <use xlink:href="#DejaVuSans-69" x="346.630859"/>
     <use xlink:href="#DejaVuSans-74" x="374.414062"/>
     <use xlink:href="#DejaVuSans-79" x="413.623047"/>
     <use xlink:href="#DejaVuSans-20" x="472.802734"/>
     <use xlink:href="#DejaVuSans-4c" x="504.589844"/>
     <use xlink:href="#DejaVuSans-4c" x="560.302734"/>
     <use xlink:href="#DejaVuSans-4d" x="616.015625"/>
     <use xlink:href="#DejaVuSans-2d" x="702.294922"/>
     <use xlink:href="#DejaVuSans-44" x="738.378906"/>
     <use xlink:href="#DejaVuSans-45" x="815.380859"/>
     <use xlink:href="#DejaVuSans-46" x="878.564453"/>
     <use xlink:href="#DejaVuSans-45" x="936.083984"/>
     <use xlink:href="#DejaVuSans-43" x="999.267578"/>
     <use xlink:href="#DejaVuSans-54" x="1069.091797"/>
     <use xlink:href="#DejaVuSans-20" x="1130.175781"/>
     <use xlink:href="#DejaVuSans-77" x="1161.962891"/>
     <use xlink:href="#DejaVuSans-69" x="1243.75"/>
     <use xlink:href="#DejaVuSans-74" x="1271.533203"/>
     <use xlink:href="#DejaVuSans-68" x="1310.742188"/>
     <use xlink:href="#DejaVuSans-20" x="1374.121094"/>
     <use xlink:href="#DejaVuSans-73" x="1405.908203"/>
     <use xlink:href="#DejaVuSans-77" x="1458.007812"/>
     <use xlink:href="#DejaVuSans-35" x="1539.794922"/>
     <use xlink:href="#DejaVuSans-2d" x="1603.417969"/>
     <use xlink:href="#DejaVuSans-31" x="1639.501953"/>
     <use xlink:href="#DejaVuSans-20" x="1703.125"/>
     <use xlink:href="#DejaVuSans-2d" x="1734.912109"/>
     <use xlink:href="#DejaVuSans-20" x="1770.996094"/>
     <use xlink:href="#DejaVuSans-32" x="1802.783203"/>
     <use xlink:href="#DejaVuSans-30" x="1866.40625"/>
     <use xlink:href="#DejaVuSans-32" x="1930.029297"/>
     <use xlink:href="#DejaVuSans-34" x="1993.652344"/>
     <use xlink:href="#DejaVuSans-30" x="2057.275391"/>
     <use xlink:href="#DejaVuSans-34" x="2120.898438"/>
     <use xlink:href="#DejaVuSans-30" x="2184.521484"/>
     <use xlink:href="#DejaVuSans-39" x="2248.144531"/>
     <use xlink:href="#DejaVuSans-31" x="2311.767578"/>
     <use xlink:href="#DejaVuSans-31" x="2375.390625"/>
     <use xlink:href="#DejaVuSans-34" x="2439.013672"/>
     <use xlink:href="#DejaVuSans-31" x="2502.636719"/>
     <use xlink:href="#DejaVuSans-35" x="2566.259766"/>
     <use xlink:href="#DejaVuSans-34" x="2629.882812"/>
     <use xlink:href="#DejaVuSans-20" x="2693.505859"/>
     <use xlink:href="#DejaVuSans-2d" x="2725.292969"/>
     <use xlink:href="#DejaVuSans-20" x="2761.376953"/>
     <use xlink:href="#DejaVuSans-35" x="2793.164062"/>
     <use xlink:href="#DejaVuSans-30" x="2856.787109"/>
     <use xlink:href="#DejaVuSans-20" x="2920.410156"/>
     <use xlink:href="#DejaVuSans-67" x="2952.197266"/>
     <use xlink:href="#DejaVuSans-61" x="3015.673828"/>
     <use xlink:href="#DejaVuSans-6d" x="3076.953125"/>
     <use xlink:href="#DejaVuSans-65" x="3174.365234"/>
     <use xlink:href="#DejaVuSans-73" x="3235.888672"/>
    </g>
   </g>
   <g id="legend_1">
    <g id="patch_7">
     <path d="M 316.903125 62.79625 
L 443 62.79625 
Q 445 62.79625 445 60.79625 
L 445 32.44 
Q 445 30.44 443 30.44 
L 316.903125 30.44 
Q 314.903125 30.44 314.903125 32.44 
L 314.903125 60.79625 
Q 314.903125 62.79625 316.903125 62.79625 
z
" style="fill: #ffffff; opacity: 0.8; stroke: #cccccc; stroke-linejoin: miter"/>
    </g>
    <g id="line2d_19">
     <path d="M 318.903125 38.538437 
L 328.903125 38.538437 
L 338.903125 38.538437 
" style="fill: none; stroke: #0000ff; stroke-linecap: square"/>
     <g>
      <use xlink:href="#m120e26277c" x="328.903125" y="38.538437" style="fill: #0000ff"/>
     </g>
    </g>
    <g id="text_16">
     <!-- LLM-DEFECT -->
     <g transform="translate(346.903125 42.038437) scale(0.1 -0.1)">
      <use xlink:href="#DejaVuSans-4c"/>
      <use xlink:href="#DejaVuSans-4c" x="55.712891"/>
      <use xlink:href="#DejaVuSans-4d" x="111.425781"/>
      <use xlink:href="#DejaVuSans-2d" x="197.705078"/>
      <use xlink:href="#DejaVuSans-44" x="233.789062"/>
      <use xlink:href="#DejaVuSans-45" x="310.791016"/>
      <use xlink:href="#DejaVuSans-46" x="373.974609"/>
      <use xlink:href="#DejaVuSans-45" x="431.494141"/>
      <use xlink:href="#DejaVuSans-43" x="494.677734"/>
      <use xlink:href="#DejaVuSans-54" x="564.501953"/>
     </g>
    </g>
    <g id="line2d_20">
     <path d="M 318.903125 53.216562 
L 328.903125 53.216562 
L 338.903125 53.216562 
" style="fill: none; stroke: #ff0000; stroke-opacity: 0.5; stroke-width: 0.5; stroke-linecap: square"/>
     <g>
      <use xlink:href="#m1617c8f10a" x="328.903125" y="53.216562" style="fill: #ff0000; fill-opacity: 0.5"/>
     </g>
    </g>
    <g id="text_17">
     <!-- LLM-DEFECT mean -->
     <g transform="translate(346.903125 56.716562) scale(0.1 -0.1)">
      <use xlink:href="#DejaVuSans-4c"/>
      <use xlink:href="#DejaVuSans-4c" x="55.712891"/>
      <use xlink:href="#DejaVuSans-4d" x="111.425781"/>
      <use xlink:href="#DejaVuSans-2d" x="197.705078"/>
      <use xlink:href="#DejaVuSans-44" x="233.789062"/>
      <use xlink:href="#DejaVuSans-45" x="310.791016"/>
      <use xlink:href="#DejaVuSans-46" x="373.974609"/>
      <use xlink:href="#DejaVuSans-45" x="431.494141"/>
      <use xlink:href="#DejaVuSans-43" x="494.677734"/>
      <use xlink:href="#DejaVuSans-54" x="564.501953"/>
      <use xlink:href="#DejaVuSans-20" x="625.585938"/>
      <use xlink:href="#DejaVuSans-6d" x="657.373047"/>
      <use xlink:href="#DejaVuSans-65" x="754.785156"/>
      <use xlink:href="#DejaVuSans-61" x="816.308594"/>
      <use xlink:href="#DejaVuSans-6e" x="877.587891"/>
     </g>
    </g>
   </g>
  </g>
 </g>
 <defs>
  <clipPath id="p6f18c25ecb">
   <rect x="47.81" y="25.44" width="402.19" height="278.2"/>
  </clipPath>
 </defs>
</svg>
