<?xml version="1.0" encoding="utf-8" standalone="no"?>
<!DOCTYPE svg PUBLIC "-//W3C//DTD SVG 1.1//EN"
  "http://www.w3.org/Graphics/SVG/1.1/DTD/svg11.dtd">
<svg xmlns:xlink="http://www.w3.org/1999/xlink" width="460.8pt" height="345.6pt" viewBox="0 0 460.8 345.6" xmlns="http://www.w3.org/2000/svg" version="1.1">
 <metadata>
  <rdf:RDF xmlns:dc="http://purl.org/dc/elements/1.1/" xmlns:cc="http://creativecommons.org/ns#" xmlns:rdf="http://www.w3.org/1999/02/22-rdf-syntax-ns#">
   <cc:Work>
    <dc:type rdf:resource="http://purl.org/dc/dcmitype/StillImage"/>
    <dc:date>2024-04-10T11:25:38.799088</dc:date>
    <dc:format>image/svg+xml</dc:format>
    <dc:creator>
     <cc:Agent>
      <dc:title>Matplotlib v3.8.0, https://matplotlib.org/</dc:title>
     </cc:Agent>
    </dc:creator>
   </cc:Work>
  </rdf:RDF>
 </metadata>
 <defs>
  <style type="text/css">*{stroke-linejoin: round; stroke-linecap: butt}</style>
 </defs>
 <g id="figure_1">
  <g id="patch_1">
   <path d="M 0 345.6 
L 460.8 345.6 
L 460.8 0 
L 0 0 
z
" style="fill: #ffffff"/>
  </g>
  <g id="axes_1">
   <g id="patch_2">
    <path d="M 47.81 303.64 
L 450 303.64 
L 450 25.44 
L 47.81 25.44 
z
" style="fill: #ffffff"/>
   </g>
   <g id="PolyCollection_1">
    <defs>
     <path id="m48a14dff0c" d="M 66.091364 -170.943636 
L 66.091364 -170.943636 
L 69.822254 -222.842644 
L 73.553145 -236.722776 
L 77.284035 -248.640146 
L 81.014926 -257.003988 
L 84.745816 -263.430832 
L 88.476707 -269.101208 
L 92.207597 -273.791526 
L 95.938488 -277.700626 
L 99.669378 -280.789044 
L 103.400269 -285.535562 
L 107.13116 -289.738599 
L 110.86205 -293.391864 
L 114.592941 -296.418532 
L 118.323831 -298.914474 
L 122.054722 -300.885175 
L 125.785612 -302.286605 
L 129.516503 -303.201969 
L 133.247393 -303.697364 
L 136.978284 -304.102862 
L 140.709174 -304.213015 
L 144.440065 -304.187477 
L 148.170955 -303.876834 
L 151.901846 -303.374097 
L 155.632737 -302.854211 
L 159.363627 -302.222004 
L 163.094518 -301.539327 
L 166.825408 -300.791177 
L 170.556299 -300.010244 
L 174.287189 -299.219215 
L 178.01808 -298.425225 
L 181.74897 -297.600241 
L 185.479861 -296.802466 
L 189.210751 -296.009824 
L 192.941642 -295.244987 
L 196.672532 -294.531614 
L 200.403423 -293.87552 
L 204.134314 -293.265009 
L 207.865204 -292.772083 
L 211.596095 -292.440393 
L 215.326985 -292.226038 
L 219.057876 -292.08516 
L 222.788766 -292.143482 
L 226.519657 -292.340036 
L 230.250547 -292.61079 
L 233.981438 -292.881992 
L 237.712328 -293.192979 
L 241.443219 -293.526306 
L 245.174109 -293.757978 
L 248.905 -293.944263 
L 252.635891 -294.099592 
L 256.366781 -294.166967 
L 260.097672 -294.092834 
L 263.828562 -293.900172 
L 267.559453 -293.585468 
L 271.290343 -293.198665 
L 275.021234 -292.720121 
L 278.752124 -292.163559 
L 282.483015 -291.531912 
L 286.213905 -290.844125 
L 289.944796 -290.071369 
L 293.675686 -289.234853 
L 297.406577 -288.351156 
L 301.137468 -287.416104 
L 304.868358 -286.449081 
L 308.599249 -285.44021 
L 312.330139 -284.40622 
L 316.06103 -283.351497 
L 319.79192 -282.279805 
L 323.522811 -281.186878 
L 327.253701 -280.087586 
L 330.984592 -278.983589 
L 334.715482 -277.860717 
L 338.446373 -276.729245 
L 342.177263 -275.591808 
L 345.908154 -274.450684 
L 349.639045 -273.312259 
L 353.369935 -272.173117 
L 357.100826 -271.034818 
L 360.831716 -269.898721 
L 364.562607 -268.762906 
L 368.293497 -267.632044 
L 372.024388 -266.510873 
L 375.755278 -265.395488 
L 379.486169 -264.286577 
L 383.217059 -263.184739 
L 386.94795 -262.089605 
L 390.67884 -261.001937 
L 394.409731 -259.923029 
L 398.140622 -258.85262 
L 401.871512 -257.792633 
L 405.602403 -256.741557 
L 409.333293 -255.699809 
L 413.064184 -254.667979 
L 416.795074 -253.645989 
L 420.525965 -252.634057 
L 424.256855 -251.63257 
L 427.987746 -250.641468 
L 431.718636 -249.660794 
L 431.718636 -56.476155 
L 431.718636 -56.476155 
L 427.987746 -57.401702 
L 424.256855 -58.366554 
L 420.525965 -59.351232 
L 416.795074 -60.367279 
L 413.064184 -61.437941 
L 409.333293 -62.554644 
L 405.602403 -63.708136 
L 401.871512 -64.911664 
L 398.140622 -66.167624 
L 394.409731 -67.442471 
L 390.67884 -68.773618 
L 386.94795 -70.151407 
L 383.217059 -71.590831 
L 379.486169 -73.095088 
L 375.755278 -74.654323 
L 372.024388 -76.271375 
L 368.293497 -77.949288 
L 364.562607 -79.649154 
L 360.831716 -81.414835 
L 357.100826 -83.2793 
L 353.369935 -85.218502 
L 349.639045 -87.236795 
L 345.908154 -89.338896 
L 342.177263 -91.497735 
L 338.446373 -93.749449 
L 334.715482 -96.099982 
L 330.984592 -98.555836 
L 327.253701 -101.159872 
L 323.522811 -103.831201 
L 319.79192 -106.574205 
L 316.06103 -109.451264 
L 312.330139 -112.432968 
L 308.599249 -115.527064 
L 304.868358 -118.742171 
L 301.137468 -122.131125 
L 297.406577 -125.642162 
L 293.675686 -129.331659 
L 289.944796 -133.168525 
L 286.213905 -137.19121 
L 282.483015 -141.444275 
L 278.752124 -145.819202 
L 275.021234 -150.356143 
L 271.290343 -155.044623 
L 267.559453 -159.902375 
L 263.828562 -164.857864 
L 260.097672 -170.019744 
L 256.366781 -175.350462 
L 252.635891 -180.875954 
L 248.905 -186.444699 
L 245.174109 -191.91438 
L 241.443219 -197.312378 
L 237.712328 -202.75206 
L 233.981438 -207.951576 
L 230.250547 -212.878957 
L 226.519657 -217.626677 
L 222.788766 -222.037899 
L 219.057876 -225.981683 
L 215.326985 -229.323623 
L 211.596095 -232.386864 
L 207.865204 -235.059883 
L 204.134314 -237.197367 
L 200.403423 -238.894645 
L 196.672532 -240.421642 
L 192.941642 -241.698164 
L 189.210751 -242.683227 
L 185.479861 -243.25605 
L 181.74897 -243.624558 
L 178.01808 -243.975834 
L 174.287189 -244.065588 
L 170.556299 -244.044832 
L 166.825408 -243.908541 
L 163.094518 -243.627976 
L 159.363627 -243.17649 
L 155.632737 -242.59164 
L 151.901846 -241.827999 
L 148.170955 -240.972341 
L 144.440065 -239.908825 
L 140.709174 -238.625155 
L 136.978284 -237.199616 
L 133.247393 -235.588306 
L 129.516503 -233.842804 
L 125.785612 -231.896589 
L 122.054722 -229.762605 
L 118.323831 -227.456733 
L 114.592941 -224.992904 
L 110.86205 -222.374578 
L 107.13116 -219.610621 
L 103.400269 -216.689505 
L 99.669378 -213.595184 
L 95.938488 -210.02286 
L 92.207597 -206.027547 
L 88.476707 -201.518512 
L 84.745816 -196.368279 
L 81.014926 -190.295794 
L 77.284035 -183.029854 
L 73.553145 -174.292981 
L 69.822254 -162.039174 
L 66.091364 -170.943636 
z
" style="stroke: #ff0000; stroke-opacity: 0.2"/>
    </defs>
    <g clip-path="url(#pbdc5794106)">
     <use xlink:href="#m48a14dff0c" x="0" y="345.6" style="fill: #ff0000; fill-opacity: 0.2; stroke: #ff0000; stroke-opacity: 0.2"/>
    </g>
   </g>
   <g id="matplotlib.axis_1">
    <g id="xtick_1">
     <g id="line2d_1">
      <defs>
       <path id="m1ad5138af2" d="M 0 0 
L 0 3.5 
" style="stroke: #000000; stroke-width: 0.8"/>
      </defs>
      <g>
       <use xlink:href="#m1ad5138af2" x="66.091364" y="303.64" style="stroke: #000000; stroke-width: 0.8"/>
      </g>
     </g>
     <g id="text_1">
      <!-- 0 -->
      <g transform="translate(62.910114 318.238437) scale(0.1 -0.1)">
       <defs>
        <path id="DejaVuSans-30" d="M 2034 4250 
Q 1547 4250 1301 3770 
Q 1056 3291 1056 2328 
Q 1056 1369 1301 889 
Q 1547 409 2034 409 
Q 2525 409 2770 889 
Q 3016 1369 3016 2328 
Q 3016 3291 2770 3770 
Q 2525 4250 2034 4250 
z
M 2034 4750 
Q 2819 4750 3233 4129 
Q 3647 3509 3647 2328 
Q 3647 1150 3233 529 
Q 2819 -91 2034 -91 
Q 1250 -91 836 529 
Q 422 1150 422 2328 
Q 422 3509 836 4129 
Q 1250 4750 2034 4750 
z
" transform="scale(0.015625)"/>
       </defs>
       <use xlink:href="#DejaVuSans-30"/>
      </g>
     </g>
    </g>
    <g id="xtick_2">
     <g id="line2d_2">
      <g>
       <use xlink:href="#m1ad5138af2" x="140.709174" y="303.64" style="stroke: #000000; stroke-width: 0.8"/>
      </g>
     </g>
     <g id="text_2">
      <!-- 20 -->
      <g transform="translate(134.346674 318.238437) scale(0.1 -0.1)">
       <defs>
        <path id="DejaVuSans-32" d="M 1228 531 
L 3431 531 
L 3431 0 
L 469 0 
L 469 531 
Q 828 903 1448 1529 
Q 2069 2156 2228 2338 
Q 2531 2678 2651 2914 
Q 2772 3150 2772 3378 
Q 2772 3750 2511 3984 
Q 2250 4219 1831 4219 
Q 1534 4219 1204 4116 
Q 875 4013 500 3803 
L 500 4441 
Q 881 4594 1212 4672 
Q 1544 4750 1819 4750 
Q 2544 4750 2975 4387 
Q 3406 4025 3406 3419 
Q 3406 3131 3298 2873 
Q 3191 2616 2906 2266 
Q 2828 2175 2409 1742 
Q 1991 1309 1228 531 
z
" transform="scale(0.015625)"/>
       </defs>
       <use xlink:href="#DejaVuSans-32"/>
       <use xlink:href="#DejaVuSans-30" x="63.623047"/>
      </g>
     </g>
    </g>
    <g id="xtick_3">
     <g id="line2d_3">
      <g>
       <use xlink:href="#m1ad5138af2" x="215.326985" y="303.64" style="stroke: #000000; stroke-width: 0.8"/>
      </g>
     </g>
     <g id="text_3">
      <!-- 40 -->
      <g transform="translate(208.964485 318.238437) scale(0.1 -0.1)">
       <defs>
        <path id="DejaVuSans-34" d="M 2419 4116 
L 825 1625 
L 2419 1625 
L 2419 4116 
z
M 2253 4666 
L 3047 4666 
L 3047 1625 
L 3713 1625 
L 3713 1100 
L 3047 1100 
L 3047 0 
L 2419 0 
L 2419 1100 
L 313 1100 
L 313 1709 
L 2253 4666 
z
" transform="scale(0.015625)"/>
       </defs>
       <use xlink:href="#DejaVuSans-34"/>
       <use xlink:href="#DejaVuSans-30" x="63.623047"/>
      </g>
     </g>
    </g>
    <g id="xtick_4">
     <g id="line2d_4">
      <g>
       <use xlink:href="#m1ad5138af2" x="289.944796" y="303.64" style="stroke: #000000; stroke-width: 0.8"/>
      </g>
     </g>
     <g id="text_4">
      <!-- 60 -->
      <g transform="translate(283.582296 318.238437) scale(0.1 -0.1)">
       <defs>
        <path id="DejaVuSans-36" d="M 2113 2584 
Q 1688 2584 1439 2293 
Q 1191 2003 1191 1497 
Q 1191 994 1439 701 
Q 1688 409 2113 409 
Q 2538 409 2786 701 
Q 3034 994 3034 1497 
Q 3034 2003 2786 2293 
Q 2538 2584 2113 2584 
z
M 3366 4563 
L 3366 3988 
Q 3128 4100 2886 4159 
Q 2644 4219 2406 4219 
Q 1781 4219 1451 3797 
Q 1122 3375 1075 2522 
Q 1259 2794 1537 2939 
Q 1816 3084 2150 3084 
Q 2853 3084 3261 2657 
Q 3669 2231 3669 1497 
Q 3669 778 3244 343 
Q 2819 -91 2113 -91 
Q 1303 -91 875 529 
Q 447 1150 447 2328 
Q 447 3434 972 4092 
Q 1497 4750 2381 4750 
Q 2619 4750 2861 4703 
Q 3103 4656 3366 4563 
z
" transform="scale(0.015625)"/>
       </defs>
       <use xlink:href="#DejaVuSans-36"/>
       <use xlink:href="#DejaVuSans-30" x="63.623047"/>
      </g>
     </g>
    </g>
    <g id="xtick_5">
     <g id="line2d_5">
      <g>
       <use xlink:href="#m1ad5138af2" x="364.562607" y="303.64" style="stroke: #000000; stroke-width: 0.8"/>
      </g>
     </g>
     <g id="text_5">
      <!-- 80 -->
      <g transform="translate(358.200107 318.238437) scale(0.1 -0.1)">
       <defs>
        <path id="DejaVuSans-38" d="M 2034 2216 
Q 1584 2216 1326 1975 
Q 1069 1734 1069 1313 
Q 1069 891 1326 650 
Q 1584 409 2034 409 
Q 2484 409 2743 651 
Q 3003 894 3003 1313 
Q 3003 1734 2745 1975 
Q 2488 2216 2034 2216 
z
M 1403 2484 
Q 997 2584 770 2862 
Q 544 3141 544 3541 
Q 544 4100 942 4425 
Q 1341 4750 2034 4750 
Q 2731 4750 3128 4425 
Q 3525 4100 3525 3541 
Q 3525 3141 3298 2862 
Q 3072 2584 2669 2484 
Q 3125 2378 3379 2068 
Q 3634 1759 3634 1313 
Q 3634 634 3220 271 
Q 2806 -91 2034 -91 
Q 1263 -91 848 271 
Q 434 634 434 1313 
Q 434 1759 690 2068 
Q 947 2378 1403 2484 
z
M 1172 3481 
Q 1172 3119 1398 2916 
Q 1625 2713 2034 2713 
Q 2441 2713 2670 2916 
Q 2900 3119 2900 3481 
Q 2900 3844 2670 4047 
Q 2441 4250 2034 4250 
Q 1625 4250 1398 4047 
Q 1172 3844 1172 3481 
z
" transform="scale(0.015625)"/>
       </defs>
       <use xlink:href="#DejaVuSans-38"/>
       <use xlink:href="#DejaVuSans-30" x="63.623047"/>
      </g>
     </g>
    </g>
    <g id="xtick_6">
     <g id="line2d_6">
      <g>
       <use xlink:href="#m1ad5138af2" x="439.180417" y="303.64" style="stroke: #000000; stroke-width: 0.8"/>
      </g>
     </g>
     <g id="text_6">
      <!-- 100 -->
      <g transform="translate(429.636667 318.238437) scale(0.1 -0.1)">
       <defs>
        <path id="DejaVuSans-31" d="M 794 531 
L 1825 531 
L 1825 4091 
L 703 3866 
L 703 4441 
L 1819 4666 
L 2450 4666 
L 2450 531 
L 3481 531 
L 3481 0 
L 794 0 
L 794 531 
z
" transform="scale(0.015625)"/>
       </defs>
       <use xlink:href="#DejaVuSans-31"/>
       <use xlink:href="#DejaVuSans-30" x="63.623047"/>
       <use xlink:href="#DejaVuSans-30" x="127.246094"/>
      </g>
     </g>
    </g>
    <g id="text_7">
     <!-- Iteration -->
     <g transform="translate(227.696406 331.916562) scale(0.1 -0.1)">
      <defs>
       <path id="DejaVuSans-49" d="M 628 4666 
L 1259 4666 
L 1259 0 
L 628 0 
L 628 4666 
z
" transform="scale(0.015625)"/>
       <path id="DejaVuSans-74" d="M 1172 4494 
L 1172 3500 
L 2356 3500 
L 2356 3053 
L 1172 3053 
L 1172 1153 
Q 1172 725 1289 603 
Q 1406 481 1766 481 
L 2356 481 
L 2356 0 
L 1766 0 
Q 1100 0 847 248 
Q 594 497 594 1153 
L 594 3053 
L 172 3053 
L 172 3500 
L 594 3500 
L 594 4494 
L 1172 4494 
z
" transform="scale(0.015625)"/>
       <path id="DejaVuSans-65" d="M 3597 1894 
L 3597 1613 
L 953 1613 
Q 991 1019 1311 708 
Q 1631 397 2203 397 
Q 2534 397 2845 478 
Q 3156 559 3463 722 
L 3463 178 
Q 3153 47 2828 -22 
Q 2503 -91 2169 -91 
Q 1331 -91 842 396 
Q 353 884 353 1716 
Q 353 2575 817 3079 
Q 1281 3584 2069 3584 
Q 2775 3584 3186 3129 
Q 3597 2675 3597 1894 
z
M 3022 2063 
Q 3016 2534 2758 2815 
Q 2500 3097 2075 3097 
Q 1594 3097 1305 2825 
Q 1016 2553 972 2059 
L 3022 2063 
z
" transform="scale(0.015625)"/>
       <path id="DejaVuSans-72" d="M 2631 2963 
Q 2534 3019 2420 3045 
Q 2306 3072 2169 3072 
Q 1681 3072 1420 2755 
Q 1159 2438 1159 1844 
L 1159 0 
L 581 0 
L 581 3500 
L 1159 3500 
L 1159 2956 
Q 1341 3275 1631 3429 
Q 1922 3584 2338 3584 
Q 2397 3584 2469 3576 
Q 2541 3569 2628 3553 
L 2631 2963 
z
" transform="scale(0.015625)"/>
       <path id="DejaVuSans-61" d="M 2194 1759 
Q 1497 1759 1228 1600 
Q 959 1441 959 1056 
Q 959 750 1161 570 
Q 1363 391 1709 391 
Q 2188 391 2477 730 
Q 2766 1069 2766 1631 
L 2766 1759 
L 2194 1759 
z
M 3341 1997 
L 3341 0 
L 2766 0 
L 2766 531 
Q 2569 213 2275 61 
Q 1981 -91 1556 -91 
Q 1019 -91 701 211 
Q 384 513 384 1019 
Q 384 1609 779 1909 
Q 1175 2209 1959 2209 
L 2766 2209 
L 2766 2266 
Q 2766 2663 2505 2880 
Q 2244 3097 1772 3097 
Q 1472 3097 1187 3025 
Q 903 2953 641 2809 
L 641 3341 
Q 956 3463 1253 3523 
Q 1550 3584 1831 3584 
Q 2591 3584 2966 3190 
Q 3341 2797 3341 1997 
z
" transform="scale(0.015625)"/>
       <path id="DejaVuSans-69" d="M 603 3500 
L 1178 3500 
L 1178 0 
L 603 0 
L 603 3500 
z
M 603 4863 
L 1178 4863 
L 1178 4134 
L 603 4134 
L 603 4863 
z
" transform="scale(0.015625)"/>
       <path id="DejaVuSans-6f" d="M 1959 3097 
Q 1497 3097 1228 2736 
Q 959 2375 959 1747 
Q 959 1119 1226 758 
Q 1494 397 1959 397 
Q 2419 397 2687 759 
Q 2956 1122 2956 1747 
Q 2956 2369 2687 2733 
Q 2419 3097 1959 3097 
z
M 1959 3584 
Q 2709 3584 3137 3096 
Q 3566 2609 3566 1747 
Q 3566 888 3137 398 
Q 2709 -91 1959 -91 
Q 1206 -91 779 398 
Q 353 888 353 1747 
Q 353 2609 779 3096 
Q 1206 3584 1959 3584 
z
" transform="scale(0.015625)"/>
       <path id="DejaVuSans-6e" d="M 3513 2113 
L 3513 0 
L 2938 0 
L 2938 2094 
Q 2938 2591 2744 2837 
Q 2550 3084 2163 3084 
Q 1697 3084 1428 2787 
Q 1159 2491 1159 1978 
L 1159 0 
L 581 0 
L 581 3500 
L 1159 3500 
L 1159 2956 
Q 1366 3272 1645 3428 
Q 1925 3584 2291 3584 
Q 2894 3584 3203 3211 
Q 3513 2838 3513 2113 
z
" transform="scale(0.015625)"/>
      </defs>
      <use xlink:href="#DejaVuSans-49"/>
      <use xlink:href="#DejaVuSans-74" x="29.492188"/>
      <use xlink:href="#DejaVuSans-65" x="68.701172"/>
      <use xlink:href="#DejaVuSans-72" x="130.224609"/>
      <use xlink:href="#DejaVuSans-61" x="171.337891"/>
      <use xlink:href="#DejaVuSans-74" x="232.617188"/>
      <use xlink:href="#DejaVuSans-69" x="271.826172"/>
      <use xlink:href="#DejaVuSans-6f" x="299.609375"/>
      <use xlink:href="#DejaVuSans-6e" x="360.791016"/>
     </g>
    </g>
   </g>
   <g id="matplotlib.axis_2">
    <g id="ytick_1">
     <g id="line2d_7">
      <defs>
       <path id="m265fc5639c" d="M 0 0 
L -3.5 0 
" style="stroke: #000000; stroke-width: 0.8"/>
      </defs>
      <g>
       <use xlink:href="#m265fc5639c" x="47.81" y="290.994545" style="stroke: #000000; stroke-width: 0.8"/>
      </g>
     </g>
     <g id="text_8">
      <!-- 0.0 -->
      <g transform="translate(24.906875 294.793764) scale(0.1 -0.1)">
       <defs>
        <path id="DejaVuSans-2e" d="M 684 794 
L 1344 794 
L 1344 0 
L 684 0 
L 684 794 
z
" transform="scale(0.015625)"/>
       </defs>
       <use xlink:href="#DejaVuSans-30"/>
       <use xlink:href="#DejaVuSans-2e" x="63.623047"/>
       <use xlink:href="#DejaVuSans-30" x="95.410156"/>
      </g>
     </g>
    </g>
    <g id="ytick_2">
     <g id="line2d_8">
      <g>
       <use xlink:href="#m265fc5639c" x="47.81" y="240.412727" style="stroke: #000000; stroke-width: 0.8"/>
      </g>
     </g>
     <g id="text_9">
      <!-- 0.2 -->
      <g transform="translate(24.906875 244.211946) scale(0.1 -0.1)">
       <use xlink:href="#DejaVuSans-30"/>
       <use xlink:href="#DejaVuSans-2e" x="63.623047"/>
       <use xlink:href="#DejaVuSans-32" x="95.410156"/>
      </g>
     </g>
    </g>
    <g id="ytick_3">
     <g id="line2d_9">
      <g>
       <use xlink:href="#m265fc5639c" x="47.81" y="189.830909" style="stroke: #000000; stroke-width: 0.8"/>
      </g>
     </g>
     <g id="text_10">
      <!-- 0.4 -->
      <g transform="translate(24.906875 193.630128) scale(0.1 -0.1)">
       <use xlink:href="#DejaVuSans-30"/>
       <use xlink:href="#DejaVuSans-2e" x="63.623047"/>
       <use xlink:href="#DejaVuSans-34" x="95.410156"/>
      </g>
     </g>
    </g>
    <g id="ytick_4">
     <g id="line2d_10">
      <g>
       <use xlink:href="#m265fc5639c" x="47.81" y="139.249091" style="stroke: #000000; stroke-width: 0.8"/>
      </g>
     </g>
     <g id="text_11">
      <!-- 0.6 -->
      <g transform="translate(24.906875 143.04831) scale(0.1 -0.1)">
       <use xlink:href="#DejaVuSans-30"/>
       <use xlink:href="#DejaVuSans-2e" x="63.623047"/>
       <use xlink:href="#DejaVuSans-36" x="95.410156"/>
      </g>
     </g>
    </g>
    <g id="ytick_5">
     <g id="line2d_11">
      <g>
       <use xlink:href="#m265fc5639c" x="47.81" y="88.667273" style="stroke: #000000; stroke-width: 0.8"/>
      </g>
     </g>
     <g id="text_12">
      <!-- 0.8 -->
      <g transform="translate(24.906875 92.466491) scale(0.1 -0.1)">
       <use xlink:href="#DejaVuSans-30"/>
       <use xlink:href="#DejaVuSans-2e" x="63.623047"/>
       <use xlink:href="#DejaVuSans-38" x="95.410156"/>
      </g>
     </g>
    </g>
    <g id="ytick_6">
     <g id="line2d_12">
      <g>
       <use xlink:href="#m265fc5639c" x="47.81" y="38.085455" style="stroke: #000000; stroke-width: 0.8"/>
      </g>
     </g>
     <g id="text_13">
      <!-- 1.0 -->
      <g transform="translate(24.906875 41.884673) scale(0.1 -0.1)">
       <use xlink:href="#DejaVuSans-31"/>
       <use xlink:href="#DejaVuSans-2e" x="63.623047"/>
       <use xlink:href="#DejaVuSans-30" x="95.410156"/>
      </g>
     </g>
    </g>
    <g id="text_14">
     <!-- Similarity -->
     <g transform="translate(18.827187 188.179844) rotate(-90) scale(0.1 -0.1)">
      <defs>
       <path id="DejaVuSans-53" d="M 3425 4513 
L 3425 3897 
Q 3066 4069 2747 4153 
Q 2428 4238 2131 4238 
Q 1616 4238 1336 4038 
Q 1056 3838 1056 3469 
Q 1056 3159 1242 3001 
Q 1428 2844 1947 2747 
L 2328 2669 
Q 3034 2534 3370 2195 
Q 3706 1856 3706 1288 
Q 3706 609 3251 259 
Q 2797 -91 1919 -91 
Q 1588 -91 1214 -16 
Q 841 59 441 206 
L 441 856 
Q 825 641 1194 531 
Q 1563 422 1919 422 
Q 2459 422 2753 634 
Q 3047 847 3047 1241 
Q 3047 1584 2836 1778 
Q 2625 1972 2144 2069 
L 1759 2144 
Q 1053 2284 737 2584 
Q 422 2884 422 3419 
Q 422 4038 858 4394 
Q 1294 4750 2059 4750 
Q 2388 4750 2728 4690 
Q 3069 4631 3425 4513 
z
" transform="scale(0.015625)"/>
       <path id="DejaVuSans-6d" d="M 3328 2828 
Q 3544 3216 3844 3400 
Q 4144 3584 4550 3584 
Q 5097 3584 5394 3201 
Q 5691 2819 5691 2113 
L 5691 0 
L 5113 0 
L 5113 2094 
Q 5113 2597 4934 2840 
Q 4756 3084 4391 3084 
Q 3944 3084 3684 2787 
Q 3425 2491 3425 1978 
L 3425 0 
L 2847 0 
L 2847 2094 
Q 2847 2600 2669 2842 
Q 2491 3084 2119 3084 
Q 1678 3084 1418 2786 
Q 1159 2488 1159 1978 
L 1159 0 
L 581 0 
L 581 3500 
L 1159 3500 
L 1159 2956 
Q 1356 3278 1631 3431 
Q 1906 3584 2284 3584 
Q 2666 3584 2933 3390 
Q 3200 3197 3328 2828 
z
" transform="scale(0.015625)"/>
       <path id="DejaVuSans-6c" d="M 603 4863 
L 1178 4863 
L 1178 0 
L 603 0 
L 603 4863 
z
" transform="scale(0.015625)"/>
       <path id="DejaVuSans-79" d="M 2059 -325 
Q 1816 -950 1584 -1140 
Q 1353 -1331 966 -1331 
L 506 -1331 
L 506 -850 
L 844 -850 
Q 1081 -850 1212 -737 
Q 1344 -625 1503 -206 
L 1606 56 
L 191 3500 
L 800 3500 
L 1894 763 
L 2988 3500 
L 3597 3500 
L 2059 -325 
z
" transform="scale(0.015625)"/>
      </defs>
      <use xlink:href="#DejaVuSans-53"/>
      <use xlink:href="#DejaVuSans-69" x="63.476562"/>
      <use xlink:href="#DejaVuSans-6d" x="91.259766"/>
      <use xlink:href="#DejaVuSans-69" x="188.671875"/>
      <use xlink:href="#DejaVuSans-6c" x="216.455078"/>
      <use xlink:href="#DejaVuSans-61" x="244.238281"/>
      <use xlink:href="#DejaVuSans-72" x="305.517578"/>
      <use xlink:href="#DejaVuSans-69" x="346.630859"/>
      <use xlink:href="#DejaVuSans-74" x="374.414062"/>
      <use xlink:href="#DejaVuSans-79" x="413.623047"/>
     </g>
    </g>
   </g>
   <g id="line2d_13">
    <path d="M 66.091364 174.656364 
L 69.822254 131.661818 
L 73.553145 113.958182 
L 77.284035 98.783636 
L 81.014926 90.690545 
L 84.745816 84.452121 
L 88.476707 77.828312 
L 92.207597 73.492727 
L 95.938488 70.120606 
L 99.669378 68.434545 
L 103.400269 55.283273 
L 107.13116 51.742545 
L 110.86205 49.213455 
L 114.592941 48.201818 
L 118.323831 47.696 
L 122.054722 48.201818 
L 125.785612 50.225091 
L 129.516503 52.754182 
L 133.247393 55.789091 
L 136.978284 55.789091 
L 140.709174 58.824 
L 144.440065 60.341455 
L 148.170955 64.893818 
L 151.901846 68.940364 
L 155.632737 69.952 
L 159.363627 73.492727 
L 163.094518 76.021818 
L 166.825408 79.562545 
L 170.556299 82.597455 
L 174.287189 85.126545 
L 178.01808 87.655636 
L 181.74897 93.219636 
L 185.479861 94.231273 
L 189.210751 98.783636 
L 192.941642 106.876727 
L 196.672532 112.946545 
L 200.403423 118.510545 
L 204.134314 123.062909 
L 207.865204 131.661818 
L 211.596095 141.778182 
L 215.326985 150.377091 
L 219.057876 157.964364 
L 222.788766 170.104 
L 226.519657 181.232 
L 230.250547 191.348364 
L 233.981438 199.947273 
L 237.712328 210.063636 
L 241.443219 220.18 
L 245.174109 226.755636 
L 248.905 234.848727 
L 252.635891 243.447636 
L 256.366781 250.023273 
L 260.097672 254.069818 
L 263.828562 258.116364 
L 267.559453 261.151273 
L 271.290343 265.703636 
L 275.021234 268.738545 
L 278.752124 271.773455 
L 282.483015 274.302545 
L 286.213905 277.337455 
L 289.944796 277.843273 
L 293.675686 278.854909 
L 297.406577 280.372364 
L 301.137468 280.878182 
L 304.868358 282.395636 
L 308.599249 282.395636 
L 312.330139 283.407273 
L 316.06103 284.418909 
L 319.79192 285.430545 
L 323.522811 285.430545 
L 327.253701 286.948 
L 330.984592 288.465455 
L 334.715482 287.453818 
L 338.446373 287.453818 
L 342.177263 287.453818 
L 345.908154 287.453818 
L 349.639045 288.465455 
L 353.369935 288.465455 
L 357.100826 288.465455 
L 360.831716 288.465455 
L 364.562607 287.453818 
L 368.293497 287.453818 
L 372.024388 288.971273 
L 375.755278 288.971273 
L 379.486169 288.971273 
L 383.217059 288.971273 
L 386.94795 288.465455 
L 390.67884 287.959636 
L 394.409731 287.959636 
L 398.140622 287.453818 
L 401.871512 288.465455 
L 405.602403 287.959636 
L 409.333293 287.453818 
L 413.064184 287.453818 
L 416.795074 286.948 
L 420.525965 285.936364 
L 424.256855 285.936364 
L 427.987746 286.442182 
L 431.718636 285.936364 
" clip-path="url(#pbdc5794106)" style="fill: none; stroke: #0000ff; stroke-linecap: square"/>
    <defs>
     <path id="m80c7b92bc3" d="M -0.49999 0.49999 
L 0.50001 0.49999 
L 0.50001 -0.50001 
L -0.49999 -0.50001 
z
"/>
    </defs>
    <g clip-path="url(#pbdc5794106)">
     <use xlink:href="#m80c7b92bc3" x="66.091364" y="174.656364" style="fill: #0000ff"/>
     <use xlink:href="#m80c7b92bc3" x="69.822254" y="131.661818" style="fill: #0000ff"/>
     <use xlink:href="#m80c7b92bc3" x="73.553145" y="113.958182" style="fill: #0000ff"/>
     <use xlink:href="#m80c7b92bc3" x="77.284035" y="98.783636" style="fill: #0000ff"/>
     <use xlink:href="#m80c7b92bc3" x="81.014926" y="90.690545" style="fill: #0000ff"/>
     <use xlink:href="#m80c7b92bc3" x="84.745816" y="84.452121" style="fill: #0000ff"/>
     <use xlink:href="#m80c7b92bc3" x="88.476707" y="77.828312" style="fill: #0000ff"/>
     <use xlink:href="#m80c7b92bc3" x="92.207597" y="73.492727" style="fill: #0000ff"/>
     <use xlink:href="#m80c7b92bc3" x="95.938488" y="70.120606" style="fill: #0000ff"/>
     <use xlink:href="#m80c7b92bc3" x="99.669378" y="68.434545" style="fill: #0000ff"/>
     <use xlink:href="#m80c7b92bc3" x="103.400269" y="55.283273" style="fill: #0000ff"/>
     <use xlink:href="#m80c7b92bc3" x="107.13116" y="51.742545" style="fill: #0000ff"/>
     <use xlink:href="#m80c7b92bc3" x="110.86205" y="49.213455" style="fill: #0000ff"/>
     <use xlink:href="#m80c7b92bc3" x="114.592941" y="48.201818" style="fill: #0000ff"/>
     <use xlink:href="#m80c7b92bc3" x="118.323831" y="47.696" style="fill: #0000ff"/>
     <use xlink:href="#m80c7b92bc3" x="122.054722" y="48.201818" style="fill: #0000ff"/>
     <use xlink:href="#m80c7b92bc3" x="125.785612" y="50.225091" style="fill: #0000ff"/>
     <use xlink:href="#m80c7b92bc3" x="129.516503" y="52.754182" style="fill: #0000ff"/>
     <use xlink:href="#m80c7b92bc3" x="133.247393" y="55.789091" style="fill: #0000ff"/>
     <use xlink:href="#m80c7b92bc3" x="136.978284" y="55.789091" style="fill: #0000ff"/>
     <use xlink:href="#m80c7b92bc3" x="140.709174" y="58.824" style="fill: #0000ff"/>
     <use xlink:href="#m80c7b92bc3" x="144.440065" y="60.341455" style="fill: #0000ff"/>
     <use xlink:href="#m80c7b92bc3" x="148.170955" y="64.893818" style="fill: #0000ff"/>
     <use xlink:href="#m80c7b92bc3" x="151.901846" y="68.940364" style="fill: #0000ff"/>
     <use xlink:href="#m80c7b92bc3" x="155.632737" y="69.952" style="fill: #0000ff"/>
     <use xlink:href="#m80c7b92bc3" x="159.363627" y="73.492727" style="fill: #0000ff"/>
     <use xlink:href="#m80c7b92bc3" x="163.094518" y="76.021818" style="fill: #0000ff"/>
     <use xlink:href="#m80c7b92bc3" x="166.825408" y="79.562545" style="fill: #0000ff"/>
     <use xlink:href="#m80c7b92bc3" x="170.556299" y="82.597455" style="fill: #0000ff"/>
     <use xlink:href="#m80c7b92bc3" x="174.287189" y="85.126545" style="fill: #0000ff"/>
     <use xlink:href="#m80c7b92bc3" x="178.01808" y="87.655636" style="fill: #0000ff"/>
     <use xlink:href="#m80c7b92bc3" x="181.74897" y="93.219636" style="fill: #0000ff"/>
     <use xlink:href="#m80c7b92bc3" x="185.479861" y="94.231273" style="fill: #0000ff"/>
     <use xlink:href="#m80c7b92bc3" x="189.210751" y="98.783636" style="fill: #0000ff"/>
     <use xlink:href="#m80c7b92bc3" x="192.941642" y="106.876727" style="fill: #0000ff"/>
     <use xlink:href="#m80c7b92bc3" x="196.672532" y="112.946545" style="fill: #0000ff"/>
     <use xlink:href="#m80c7b92bc3" x="200.403423" y="118.510545" style="fill: #0000ff"/>
     <use xlink:href="#m80c7b92bc3" x="204.134314" y="123.062909" style="fill: #0000ff"/>
     <use xlink:href="#m80c7b92bc3" x="207.865204" y="131.661818" style="fill: #0000ff"/>
     <use xlink:href="#m80c7b92bc3" x="211.596095" y="141.778182" style="fill: #0000ff"/>
     <use xlink:href="#m80c7b92bc3" x="215.326985" y="150.377091" style="fill: #0000ff"/>
     <use xlink:href="#m80c7b92bc3" x="219.057876" y="157.964364" style="fill: #0000ff"/>
     <use xlink:href="#m80c7b92bc3" x="222.788766" y="170.104" style="fill: #0000ff"/>
     <use xlink:href="#m80c7b92bc3" x="226.519657" y="181.232" style="fill: #0000ff"/>
     <use xlink:href="#m80c7b92bc3" x="230.250547" y="191.348364" style="fill: #0000ff"/>
     <use xlink:href="#m80c7b92bc3" x="233.981438" y="199.947273" style="fill: #0000ff"/>
     <use xlink:href="#m80c7b92bc3" x="237.712328" y="210.063636" style="fill: #0000ff"/>
     <use xlink:href="#m80c7b92bc3" x="241.443219" y="220.18" style="fill: #0000ff"/>
     <use xlink:href="#m80c7b92bc3" x="245.174109" y="226.755636" style="fill: #0000ff"/>
     <use xlink:href="#m80c7b92bc3" x="248.905" y="234.848727" style="fill: #0000ff"/>
     <use xlink:href="#m80c7b92bc3" x="252.635891" y="243.447636" style="fill: #0000ff"/>
     <use xlink:href="#m80c7b92bc3" x="256.366781" y="250.023273" style="fill: #0000ff"/>
     <use xlink:href="#m80c7b92bc3" x="260.097672" y="254.069818" style="fill: #0000ff"/>
     <use xlink:href="#m80c7b92bc3" x="263.828562" y="258.116364" style="fill: #0000ff"/>
     <use xlink:href="#m80c7b92bc3" x="267.559453" y="261.151273" style="fill: #0000ff"/>
     <use xlink:href="#m80c7b92bc3" x="271.290343" y="265.703636" style="fill: #0000ff"/>
     <use xlink:href="#m80c7b92bc3" x="275.021234" y="268.738545" style="fill: #0000ff"/>
     <use xlink:href="#m80c7b92bc3" x="278.752124" y="271.773455" style="fill: #0000ff"/>
     <use xlink:href="#m80c7b92bc3" x="282.483015" y="274.302545" style="fill: #0000ff"/>
     <use xlink:href="#m80c7b92bc3" x="286.213905" y="277.337455" style="fill: #0000ff"/>
     <use xlink:href="#m80c7b92bc3" x="289.944796" y="277.843273" style="fill: #0000ff"/>
     <use xlink:href="#m80c7b92bc3" x="293.675686" y="278.854909" style="fill: #0000ff"/>
     <use xlink:href="#m80c7b92bc3" x="297.406577" y="280.372364" style="fill: #0000ff"/>
     <use xlink:href="#m80c7b92bc3" x="301.137468" y="280.878182" style="fill: #0000ff"/>
     <use xlink:href="#m80c7b92bc3" x="304.868358" y="282.395636" style="fill: #0000ff"/>
     <use xlink:href="#m80c7b92bc3" x="308.599249" y="282.395636" style="fill: #0000ff"/>
     <use xlink:href="#m80c7b92bc3" x="312.330139" y="283.407273" style="fill: #0000ff"/>
     <use xlink:href="#m80c7b92bc3" x="316.06103" y="284.418909" style="fill: #0000ff"/>
     <use xlink:href="#m80c7b92bc3" x="319.79192" y="285.430545" style="fill: #0000ff"/>
     <use xlink:href="#m80c7b92bc3" x="323.522811" y="285.430545" style="fill: #0000ff"/>
     <use xlink:href="#m80c7b92bc3" x="327.253701" y="286.948" style="fill: #0000ff"/>
     <use xlink:href="#m80c7b92bc3" x="330.984592" y="288.465455" style="fill: #0000ff"/>
     <use xlink:href="#m80c7b92bc3" x="334.715482" y="287.453818" style="fill: #0000ff"/>
     <use xlink:href="#m80c7b92bc3" x="338.446373" y="287.453818" style="fill: #0000ff"/>
     <use xlink:href="#m80c7b92bc3" x="342.177263" y="287.453818" style="fill: #0000ff"/>
     <use xlink:href="#m80c7b92bc3" x="345.908154" y="287.453818" style="fill: #0000ff"/>
     <use xlink:href="#m80c7b92bc3" x="349.639045" y="288.465455" style="fill: #0000ff"/>
     <use xlink:href="#m80c7b92bc3" x="353.369935" y="288.465455" style="fill: #0000ff"/>
     <use xlink:href="#m80c7b92bc3" x="357.100826" y="288.465455" style="fill: #0000ff"/>
     <use xlink:href="#m80c7b92bc3" x="360.831716" y="288.465455" style="fill: #0000ff"/>
     <use xlink:href="#m80c7b92bc3" x="364.562607" y="287.453818" style="fill: #0000ff"/>
     <use xlink:href="#m80c7b92bc3" x="368.293497" y="287.453818" style="fill: #0000ff"/>
     <use xlink:href="#m80c7b92bc3" x="372.024388" y="288.971273" style="fill: #0000ff"/>
     <use xlink:href="#m80c7b92bc3" x="375.755278" y="288.971273" style="fill: #0000ff"/>
     <use xlink:href="#m80c7b92bc3" x="379.486169" y="288.971273" style="fill: #0000ff"/>
     <use xlink:href="#m80c7b92bc3" x="383.217059" y="288.971273" style="fill: #0000ff"/>
     <use xlink:href="#m80c7b92bc3" x="386.94795" y="288.465455" style="fill: #0000ff"/>
     <use xlink:href="#m80c7b92bc3" x="390.67884" y="287.959636" style="fill: #0000ff"/>
     <use xlink:href="#m80c7b92bc3" x="394.409731" y="287.959636" style="fill: #0000ff"/>
     <use xlink:href="#m80c7b92bc3" x="398.140622" y="287.453818" style="fill: #0000ff"/>
     <use xlink:href="#m80c7b92bc3" x="401.871512" y="288.465455" style="fill: #0000ff"/>
     <use xlink:href="#m80c7b92bc3" x="405.602403" y="287.959636" style="fill: #0000ff"/>
     <use xlink:href="#m80c7b92bc3" x="409.333293" y="287.453818" style="fill: #0000ff"/>
     <use xlink:href="#m80c7b92bc3" x="413.064184" y="287.453818" style="fill: #0000ff"/>
     <use xlink:href="#m80c7b92bc3" x="416.795074" y="286.948" style="fill: #0000ff"/>
     <use xlink:href="#m80c7b92bc3" x="420.525965" y="285.936364" style="fill: #0000ff"/>
     <use xlink:href="#m80c7b92bc3" x="424.256855" y="285.936364" style="fill: #0000ff"/>
     <use xlink:href="#m80c7b92bc3" x="427.987746" y="286.442182" style="fill: #0000ff"/>
     <use xlink:href="#m80c7b92bc3" x="431.718636" y="285.936364" style="fill: #0000ff"/>
    </g>
   </g>
   <g id="line2d_14">
    <path d="M 66.091364 174.656364 
L 69.822254 153.159091 
L 73.553145 140.092121 
L 77.284035 129.765 
L 81.014926 121.950109 
L 84.745816 115.700444 
L 88.476707 110.29014 
L 92.207597 105.690463 
L 95.938488 101.738257 
L 99.669378 98.407886 
L 103.400269 94.487466 
L 107.13116 90.92539 
L 110.86205 87.716779 
L 114.592941 84.894282 
L 118.323831 82.414397 
L 122.054722 80.27611 
L 125.785612 78.508403 
L 129.516503 77.077613 
L 133.247393 75.957165 
L 136.978284 74.948761 
L 140.709174 74.180915 
L 144.440065 73.551849 
L 148.170955 73.175413 
L 151.901846 72.998952 
L 155.632737 72.877074 
L 159.363627 72.900753 
L 163.094518 73.016348 
L 166.825408 73.250141 
L 170.556299 73.572462 
L 174.287189 73.957598 
L 178.01808 74.39947 
L 181.74897 74.987601 
L 185.479861 75.570742 
L 189.210751 76.253474 
L 192.941642 77.128424 
L 196.672532 78.123372 
L 200.403423 79.214918 
L 204.134314 80.368812 
L 207.865204 81.684017 
L 211.596095 83.186371 
L 215.326985 84.825169 
L 219.057876 86.566579 
L 222.788766 88.50931 
L 226.519657 90.616643 
L 230.250547 92.855126 
L 233.981438 95.183216 
L 237.712328 97.627481 
L 241.443219 100.180658 
L 245.174109 102.763821 
L 248.905 105.405519 
L 252.635891 108.112227 
L 256.366781 110.841286 
L 260.097672 113.543711 
L 263.828562 116.220982 
L 267.559453 118.856078 
L 271.290343 121.478356 
L 275.021234 124.061868 
L 278.752124 126.60862 
L 282.483015 129.111907 
L 286.213905 131.582332 
L 289.944796 133.980053 
L 293.675686 136.316744 
L 297.406577 138.603341 
L 301.137468 140.826386 
L 304.868358 143.004374 
L 308.599249 145.116363 
L 312.330139 147.180406 
L 316.06103 149.19862 
L 319.79192 151.172995 
L 323.522811 153.09096 
L 327.253701 154.976271 
L 330.984592 156.830287 
L 334.715482 158.619651 
L 338.446373 160.360653 
L 342.177263 162.055228 
L 345.908154 163.70521 
L 349.639045 165.325473 
L 353.369935 166.90419 
L 357.100826 168.442941 
L 360.831716 169.943222 
L 364.562607 171.39397 
L 368.293497 172.809334 
L 372.024388 174.208876 
L 375.755278 175.575095 
L 379.486169 176.909167 
L 383.217059 178.212215 
L 386.94795 179.479494 
L 390.67884 180.712223 
L 394.409731 181.91725 
L 398.140622 183.089878 
L 401.871512 184.247852 
L 405.602403 185.375154 
L 409.333293 186.472774 
L 413.064184 187.54704 
L 416.795074 188.593366 
L 420.525965 189.607356 
L 424.256855 190.600438 
L 427.987746 191.578415 
L 431.718636 192.531526 
" clip-path="url(#pbdc5794106)" style="fill: none; stroke: #ff0000; stroke-opacity: 0.5; stroke-width: 0.5; stroke-linecap: square"/>
    <defs>
     <path id="m724fd9e0e6" d="M -0.49999 0.49999 
L 0.50001 0.49999 
L 0.50001 -0.50001 
L -0.49999 -0.50001 
z
"/>
    </defs>
    <g clip-path="url(#pbdc5794106)">
     <use xlink:href="#m724fd9e0e6" x="66.091364" y="174.656364" style="fill: #ff0000; fill-opacity: 0.5"/>
     <use xlink:href="#m724fd9e0e6" x="69.822254" y="153.159091" style="fill: #ff0000; fill-opacity: 0.5"/>
     <use xlink:href="#m724fd9e0e6" x="73.553145" y="140.092121" style="fill: #ff0000; fill-opacity: 0.5"/>
     <use xlink:href="#m724fd9e0e6" x="77.284035" y="129.765" style="fill: #ff0000; fill-opacity: 0.5"/>
     <use xlink:href="#m724fd9e0e6" x="81.014926" y="121.950109" style="fill: #ff0000; fill-opacity: 0.5"/>
     <use xlink:href="#m724fd9e0e6" x="84.745816" y="115.700444" style="fill: #ff0000; fill-opacity: 0.5"/>
     <use xlink:href="#m724fd9e0e6" x="88.476707" y="110.29014" style="fill: #ff0000; fill-opacity: 0.5"/>
     <use xlink:href="#m724fd9e0e6" x="92.207597" y="105.690463" style="fill: #ff0000; fill-opacity: 0.5"/>
     <use xlink:href="#m724fd9e0e6" x="95.938488" y="101.738257" style="fill: #ff0000; fill-opacity: 0.5"/>
     <use xlink:href="#m724fd9e0e6" x="99.669378" y="98.407886" style="fill: #ff0000; fill-opacity: 0.5"/>
     <use xlink:href="#m724fd9e0e6" x="103.400269" y="94.487466" style="fill: #ff0000; fill-opacity: 0.5"/>
     <use xlink:href="#m724fd9e0e6" x="107.13116" y="90.92539" style="fill: #ff0000; fill-opacity: 0.5"/>
     <use xlink:href="#m724fd9e0e6" x="110.86205" y="87.716779" style="fill: #ff0000; fill-opacity: 0.5"/>
     <use xlink:href="#m724fd9e0e6" x="114.592941" y="84.894282" style="fill: #ff0000; fill-opacity: 0.5"/>
     <use xlink:href="#m724fd9e0e6" x="118.323831" y="82.414397" style="fill: #ff0000; fill-opacity: 0.5"/>
     <use xlink:href="#m724fd9e0e6" x="122.054722" y="80.27611" style="fill: #ff0000; fill-opacity: 0.5"/>
     <use xlink:href="#m724fd9e0e6" x="125.785612" y="78.508403" style="fill: #ff0000; fill-opacity: 0.5"/>
     <use xlink:href="#m724fd9e0e6" x="129.516503" y="77.077613" style="fill: #ff0000; fill-opacity: 0.5"/>
     <use xlink:href="#m724fd9e0e6" x="133.247393" y="75.957165" style="fill: #ff0000; fill-opacity: 0.5"/>
     <use xlink:href="#m724fd9e0e6" x="136.978284" y="74.948761" style="fill: #ff0000; fill-opacity: 0.5"/>
     <use xlink:href="#m724fd9e0e6" x="140.709174" y="74.180915" style="fill: #ff0000; fill-opacity: 0.5"/>
     <use xlink:href="#m724fd9e0e6" x="144.440065" y="73.551849" style="fill: #ff0000; fill-opacity: 0.5"/>
     <use xlink:href="#m724fd9e0e6" x="148.170955" y="73.175413" style="fill: #ff0000; fill-opacity: 0.5"/>
     <use xlink:href="#m724fd9e0e6" x="151.901846" y="72.998952" style="fill: #ff0000; fill-opacity: 0.5"/>
     <use xlink:href="#m724fd9e0e6" x="155.632737" y="72.877074" style="fill: #ff0000; fill-opacity: 0.5"/>
     <use xlink:href="#m724fd9e0e6" x="159.363627" y="72.900753" style="fill: #ff0000; fill-opacity: 0.5"/>
     <use xlink:href="#m724fd9e0e6" x="163.094518" y="73.016348" style="fill: #ff0000; fill-opacity: 0.5"/>
     <use xlink:href="#m724fd9e0e6" x="166.825408" y="73.250141" style="fill: #ff0000; fill-opacity: 0.5"/>
     <use xlink:href="#m724fd9e0e6" x="170.556299" y="73.572462" style="fill: #ff0000; fill-opacity: 0.5"/>
     <use xlink:href="#m724fd9e0e6" x="174.287189" y="73.957598" style="fill: #ff0000; fill-opacity: 0.5"/>
     <use xlink:href="#m724fd9e0e6" x="178.01808" y="74.39947" style="fill: #ff0000; fill-opacity: 0.5"/>
     <use xlink:href="#m724fd9e0e6" x="181.74897" y="74.987601" style="fill: #ff0000; fill-opacity: 0.5"/>
     <use xlink:href="#m724fd9e0e6" x="185.479861" y="75.570742" style="fill: #ff0000; fill-opacity: 0.5"/>
     <use xlink:href="#m724fd9e0e6" x="189.210751" y="76.253474" style="fill: #ff0000; fill-opacity: 0.5"/>
     <use xlink:href="#m724fd9e0e6" x="192.941642" y="77.128424" style="fill: #ff0000; fill-opacity: 0.5"/>
     <use xlink:href="#m724fd9e0e6" x="196.672532" y="78.123372" style="fill: #ff0000; fill-opacity: 0.5"/>
     <use xlink:href="#m724fd9e0e6" x="200.403423" y="79.214918" style="fill: #ff0000; fill-opacity: 0.5"/>
     <use xlink:href="#m724fd9e0e6" x="204.134314" y="80.368812" style="fill: #ff0000; fill-opacity: 0.5"/>
     <use xlink:href="#m724fd9e0e6" x="207.865204" y="81.684017" style="fill: #ff0000; fill-opacity: 0.5"/>
     <use xlink:href="#m724fd9e0e6" x="211.596095" y="83.186371" style="fill: #ff0000; fill-opacity: 0.5"/>
     <use xlink:href="#m724fd9e0e6" x="215.326985" y="84.825169" style="fill: #ff0000; fill-opacity: 0.5"/>
     <use xlink:href="#m724fd9e0e6" x="219.057876" y="86.566579" style="fill: #ff0000; fill-opacity: 0.5"/>
     <use xlink:href="#m724fd9e0e6" x="222.788766" y="88.50931" style="fill: #ff0000; fill-opacity: 0.5"/>
     <use xlink:href="#m724fd9e0e6" x="226.519657" y="90.616643" style="fill: #ff0000; fill-opacity: 0.5"/>
     <use xlink:href="#m724fd9e0e6" x="230.250547" y="92.855126" style="fill: #ff0000; fill-opacity: 0.5"/>
     <use xlink:href="#m724fd9e0e6" x="233.981438" y="95.183216" style="fill: #ff0000; fill-opacity: 0.5"/>
     <use xlink:href="#m724fd9e0e6" x="237.712328" y="97.627481" style="fill: #ff0000; fill-opacity: 0.5"/>
     <use xlink:href="#m724fd9e0e6" x="241.443219" y="100.180658" style="fill: #ff0000; fill-opacity: 0.5"/>
     <use xlink:href="#m724fd9e0e6" x="245.174109" y="102.763821" style="fill: #ff0000; fill-opacity: 0.5"/>
     <use xlink:href="#m724fd9e0e6" x="248.905" y="105.405519" style="fill: #ff0000; fill-opacity: 0.5"/>
     <use xlink:href="#m724fd9e0e6" x="252.635891" y="108.112227" style="fill: #ff0000; fill-opacity: 0.5"/>
     <use xlink:href="#m724fd9e0e6" x="256.366781" y="110.841286" style="fill: #ff0000; fill-opacity: 0.5"/>
     <use xlink:href="#m724fd9e0e6" x="260.097672" y="113.543711" style="fill: #ff0000; fill-opacity: 0.5"/>
     <use xlink:href="#m724fd9e0e6" x="263.828562" y="116.220982" style="fill: #ff0000; fill-opacity: 0.5"/>
     <use xlink:href="#m724fd9e0e6" x="267.559453" y="118.856078" style="fill: #ff0000; fill-opacity: 0.5"/>
     <use xlink:href="#m724fd9e0e6" x="271.290343" y="121.478356" style="fill: #ff0000; fill-opacity: 0.5"/>
     <use xlink:href="#m724fd9e0e6" x="275.021234" y="124.061868" style="fill: #ff0000; fill-opacity: 0.5"/>
     <use xlink:href="#m724fd9e0e6" x="278.752124" y="126.60862" style="fill: #ff0000; fill-opacity: 0.5"/>
     <use xlink:href="#m724fd9e0e6" x="282.483015" y="129.111907" style="fill: #ff0000; fill-opacity: 0.5"/>
     <use xlink:href="#m724fd9e0e6" x="286.213905" y="131.582332" style="fill: #ff0000; fill-opacity: 0.5"/>
     <use xlink:href="#m724fd9e0e6" x="289.944796" y="133.980053" style="fill: #ff0000; fill-opacity: 0.5"/>
     <use xlink:href="#m724fd9e0e6" x="293.675686" y="136.316744" style="fill: #ff0000; fill-opacity: 0.5"/>
     <use xlink:href="#m724fd9e0e6" x="297.406577" y="138.603341" style="fill: #ff0000; fill-opacity: 0.5"/>
     <use xlink:href="#m724fd9e0e6" x="301.137468" y="140.826386" style="fill: #ff0000; fill-opacity: 0.5"/>
     <use xlink:href="#m724fd9e0e6" x="304.868358" y="143.004374" style="fill: #ff0000; fill-opacity: 0.5"/>
     <use xlink:href="#m724fd9e0e6" x="308.599249" y="145.116363" style="fill: #ff0000; fill-opacity: 0.5"/>
     <use xlink:href="#m724fd9e0e6" x="312.330139" y="147.180406" style="fill: #ff0000; fill-opacity: 0.5"/>
     <use xlink:href="#m724fd9e0e6" x="316.06103" y="149.19862" style="fill: #ff0000; fill-opacity: 0.5"/>
     <use xlink:href="#m724fd9e0e6" x="319.79192" y="151.172995" style="fill: #ff0000; fill-opacity: 0.5"/>
     <use xlink:href="#m724fd9e0e6" x="323.522811" y="153.09096" style="fill: #ff0000; fill-opacity: 0.5"/>
     <use xlink:href="#m724fd9e0e6" x="327.253701" y="154.976271" style="fill: #ff0000; fill-opacity: 0.5"/>
     <use xlink:href="#m724fd9e0e6" x="330.984592" y="156.830287" style="fill: #ff0000; fill-opacity: 0.5"/>
     <use xlink:href="#m724fd9e0e6" x="334.715482" y="158.619651" style="fill: #ff0000; fill-opacity: 0.5"/>
     <use xlink:href="#m724fd9e0e6" x="338.446373" y="160.360653" style="fill: #ff0000; fill-opacity: 0.5"/>
     <use xlink:href="#m724fd9e0e6" x="342.177263" y="162.055228" style="fill: #ff0000; fill-opacity: 0.5"/>
     <use xlink:href="#m724fd9e0e6" x="345.908154" y="163.70521" style="fill: #ff0000; fill-opacity: 0.5"/>
     <use xlink:href="#m724fd9e0e6" x="349.639045" y="165.325473" style="fill: #ff0000; fill-opacity: 0.5"/>
     <use xlink:href="#m724fd9e0e6" x="353.369935" y="166.90419" style="fill: #ff0000; fill-opacity: 0.5"/>
     <use xlink:href="#m724fd9e0e6" x="357.100826" y="168.442941" style="fill: #ff0000; fill-opacity: 0.5"/>
     <use xlink:href="#m724fd9e0e6" x="360.831716" y="169.943222" style="fill: #ff0000; fill-opacity: 0.5"/>
     <use xlink:href="#m724fd9e0e6" x="364.562607" y="171.39397" style="fill: #ff0000; fill-opacity: 0.5"/>
     <use xlink:href="#m724fd9e0e6" x="368.293497" y="172.809334" style="fill: #ff0000; fill-opacity: 0.5"/>
     <use xlink:href="#m724fd9e0e6" x="372.024388" y="174.208876" style="fill: #ff0000; fill-opacity: 0.5"/>
     <use xlink:href="#m724fd9e0e6" x="375.755278" y="175.575095" style="fill: #ff0000; fill-opacity: 0.5"/>
     <use xlink:href="#m724fd9e0e6" x="379.486169" y="176.909167" style="fill: #ff0000; fill-opacity: 0.5"/>
     <use xlink:href="#m724fd9e0e6" x="383.217059" y="178.212215" style="fill: #ff0000; fill-opacity: 0.5"/>
     <use xlink:href="#m724fd9e0e6" x="386.94795" y="179.479494" style="fill: #ff0000; fill-opacity: 0.5"/>
     <use xlink:href="#m724fd9e0e6" x="390.67884" y="180.712223" style="fill: #ff0000; fill-opacity: 0.5"/>
     <use xlink:href="#m724fd9e0e6" x="394.409731" y="181.91725" style="fill: #ff0000; fill-opacity: 0.5"/>
     <use xlink:href="#m724fd9e0e6" x="398.140622" y="183.089878" style="fill: #ff0000; fill-opacity: 0.5"/>
     <use xlink:href="#m724fd9e0e6" x="401.871512" y="184.247852" style="fill: #ff0000; fill-opacity: 0.5"/>
     <use xlink:href="#m724fd9e0e6" x="405.602403" y="185.375154" style="fill: #ff0000; fill-opacity: 0.5"/>
     <use xlink:href="#m724fd9e0e6" x="409.333293" y="186.472774" style="fill: #ff0000; fill-opacity: 0.5"/>
     <use xlink:href="#m724fd9e0e6" x="413.064184" y="187.54704" style="fill: #ff0000; fill-opacity: 0.5"/>
     <use xlink:href="#m724fd9e0e6" x="416.795074" y="188.593366" style="fill: #ff0000; fill-opacity: 0.5"/>
     <use xlink:href="#m724fd9e0e6" x="420.525965" y="189.607356" style="fill: #ff0000; fill-opacity: 0.5"/>
     <use xlink:href="#m724fd9e0e6" x="424.256855" y="190.600438" style="fill: #ff0000; fill-opacity: 0.5"/>
     <use xlink:href="#m724fd9e0e6" x="427.987746" y="191.578415" style="fill: #ff0000; fill-opacity: 0.5"/>
     <use xlink:href="#m724fd9e0e6" x="431.718636" y="192.531526" style="fill: #ff0000; fill-opacity: 0.5"/>
    </g>
   </g>
   <g id="line2d_15">
    <path d="M 47.81 290.994545 
L 450 290.994545 
" clip-path="url(#pbdc5794106)" style="fill: none; stroke-dasharray: 0.555,0.24; stroke-dashoffset: 0; stroke: #ff0000; stroke-width: 0.15"/>
   </g>
   <g id="line2d_16">
    <path d="M 47.81 164.54 
L 450 164.54 
" clip-path="url(#pbdc5794106)" style="fill: none; stroke-dasharray: 0.555,0.24; stroke-dashoffset: 0; stroke: #ff0000; stroke-width: 0.15"/>
   </g>
   <g id="line2d_17">
    <path d="M 47.81 38.085455 
L 450 38.085455 
" clip-path="url(#pbdc5794106)" style="fill: none; stroke-dasharray: 0.555,0.24; stroke-dashoffset: 0; stroke: #ff0000; stroke-width: 0.15"/>
   </g>
   <g id="patch_3">
    <path d="M 47.81 303.64 
L 47.81 25.44 
" style="fill: none; stroke: #000000; stroke-width: 0.8; stroke-linejoin: miter; stroke-linecap: square"/>
   </g>
   <g id="patch_4">
    <path d="M 450 303.64 
L 450 25.44 
" style="fill: none; stroke: #000000; stroke-width: 0.8; stroke-linejoin: miter; stroke-linecap: square"/>
   </g>
   <g id="patch_5">
    <path d="M 47.81 303.64 
L 450 303.64 
" style="fill: none; stroke: #000000; stroke-width: 0.8; stroke-linejoin: miter; stroke-linecap: square"/>
   </g>
   <g id="patch_6">
    <path d="M 47.81 25.44 
L 450 25.44 
" style="fill: none; stroke: #000000; stroke-width: 0.8; stroke-linejoin: miter; stroke-linecap: square"/>
   </g>
   <g id="text_15">
    <!-- Similarity LLM-DEFECT with sw10-1 - 20240409114154 - 50 games -->
    <g transform="translate(47.81125 19.44) scale(0.12 -0.12)">
     <defs>
      <path id="DejaVuSans-20" transform="scale(0.015625)"/>
      <path id="DejaVuSans-4c" d="M 628 4666 
L 1259 4666 
L 1259 531 
L 3531 531 
L 3531 0 
L 628 0 
L 628 4666 
z
" transform="scale(0.015625)"/>
      <path id="DejaVuSans-4d" d="M 628 4666 
L 1569 4666 
L 2759 1491 
L 3956 4666 
L 4897 4666 
L 4897 0 
L 4281 0 
L 4281 4097 
L 3078 897 
L 2444 897 
L 1241 4097 
L 1241 0 
L 628 0 
L 628 4666 
z
" transform="scale(0.015625)"/>
      <path id="DejaVuSans-2d" d="M 313 2009 
L 1997 2009 
L 1997 1497 
L 313 1497 
L 313 2009 
z
" transform="scale(0.015625)"/>
      <path id="DejaVuSans-44" d="M 1259 4147 
L 1259 519 
L 2022 519 
Q 2988 519 3436 956 
Q 3884 1394 3884 2338 
Q 3884 3275 3436 3711 
Q 2988 4147 2022 4147 
L 1259 4147 
z
M 628 4666 
L 1925 4666 
Q 3281 4666 3915 4102 
Q 4550 3538 4550 2338 
Q 4550 1131 3912 565 
Q 3275 0 1925 0 
L 628 0 
L 628 4666 
z
" transform="scale(0.015625)"/>
      <path id="DejaVuSans-45" d="M 628 4666 
L 3578 4666 
L 3578 4134 
L 1259 4134 
L 1259 2753 
L 3481 2753 
L 3481 2222 
L 1259 2222 
L 1259 531 
L 3634 531 
L 3634 0 
L 628 0 
L 628 4666 
z
" transform="scale(0.015625)"/>
      <path id="DejaVuSans-46" d="M 628 4666 
L 3309 4666 
L 3309 4134 
L 1259 4134 
L 1259 2759 
L 3109 2759 
L 3109 2228 
L 1259 2228 
L 1259 0 
L 628 0 
L 628 4666 
z
" transform="scale(0.015625)"/>
      <path id="DejaVuSans-43" d="M 4122 4306 
L 4122 3641 
Q 3803 3938 3442 4084 
Q 3081 4231 2675 4231 
Q 1875 4231 1450 3742 
Q 1025 3253 1025 2328 
Q 1025 1406 1450 917 
Q 1875 428 2675 428 
Q 3081 428 3442 575 
Q 3803 722 4122 1019 
L 4122 359 
Q 3791 134 3420 21 
Q 3050 -91 2638 -91 
Q 1578 -91 968 557 
Q 359 1206 359 2328 
Q 359 3453 968 4101 
Q 1578 4750 2638 4750 
Q 3056 4750 3426 4639 
Q 3797 4528 4122 4306 
z
" transform="scale(0.015625)"/>
      <path id="DejaVuSans-54" d="M -19 4666 
L 3928 4666 
L 3928 4134 
L 2272 4134 
L 2272 0 
L 1638 0 
L 1638 4134 
L -19 4134 
L -19 4666 
z
" transform="scale(0.015625)"/>
      <path id="DejaVuSans-77" d="M 269 3500 
L 844 3500 
L 1563 769 
L 2278 3500 
L 2956 3500 
L 3675 769 
L 4391 3500 
L 4966 3500 
L 4050 0 
L 3372 0 
L 2619 2869 
L 1863 0 
L 1184 0 
L 269 3500 
z
" transform="scale(0.015625)"/>
      <path id="DejaVuSans-68" d="M 3513 2113 
L 3513 0 
L 2938 0 
L 2938 2094 
Q 2938 2591 2744 2837 
Q 2550 3084 2163 3084 
Q 1697 3084 1428 2787 
Q 1159 2491 1159 1978 
L 1159 0 
L 581 0 
L 581 4863 
L 1159 4863 
L 1159 2956 
Q 1366 3272 1645 3428 
Q 1925 3584 2291 3584 
Q 2894 3584 3203 3211 
Q 3513 2838 3513 2113 
z
" transform="scale(0.015625)"/>
      <path id="DejaVuSans-73" d="M 2834 3397 
L 2834 2853 
Q 2591 2978 2328 3040 
Q 2066 3103 1784 3103 
Q 1356 3103 1142 2972 
Q 928 2841 928 2578 
Q 928 2378 1081 2264 
Q 1234 2150 1697 2047 
L 1894 2003 
Q 2506 1872 2764 1633 
Q 3022 1394 3022 966 
Q 3022 478 2636 193 
Q 2250 -91 1575 -91 
Q 1294 -91 989 -36 
Q 684 19 347 128 
L 347 722 
Q 666 556 975 473 
Q 1284 391 1588 391 
Q 1994 391 2212 530 
Q 2431 669 2431 922 
Q 2431 1156 2273 1281 
Q 2116 1406 1581 1522 
L 1381 1569 
Q 847 1681 609 1914 
Q 372 2147 372 2553 
Q 372 3047 722 3315 
Q 1072 3584 1716 3584 
Q 2034 3584 2315 3537 
Q 2597 3491 2834 3397 
z
" transform="scale(0.015625)"/>
      <path id="DejaVuSans-39" d="M 703 97 
L 703 672 
Q 941 559 1184 500 
Q 1428 441 1663 441 
Q 2288 441 2617 861 
Q 2947 1281 2994 2138 
Q 2813 1869 2534 1725 
Q 2256 1581 1919 1581 
Q 1219 1581 811 2004 
Q 403 2428 403 3163 
Q 403 3881 828 4315 
Q 1253 4750 1959 4750 
Q 2769 4750 3195 4129 
Q 3622 3509 3622 2328 
Q 3622 1225 3098 567 
Q 2575 -91 1691 -91 
Q 1453 -91 1209 -44 
Q 966 3 703 97 
z
M 1959 2075 
Q 2384 2075 2632 2365 
Q 2881 2656 2881 3163 
Q 2881 3666 2632 3958 
Q 2384 4250 1959 4250 
Q 1534 4250 1286 3958 
Q 1038 3666 1038 3163 
Q 1038 2656 1286 2365 
Q 1534 2075 1959 2075 
z
" transform="scale(0.015625)"/>
      <path id="DejaVuSans-35" d="M 691 4666 
L 3169 4666 
L 3169 4134 
L 1269 4134 
L 1269 2991 
Q 1406 3038 1543 3061 
Q 1681 3084 1819 3084 
Q 2600 3084 3056 2656 
Q 3513 2228 3513 1497 
Q 3513 744 3044 326 
Q 2575 -91 1722 -91 
Q 1428 -91 1123 -41 
Q 819 9 494 109 
L 494 744 
Q 775 591 1075 516 
Q 1375 441 1709 441 
Q 2250 441 2565 725 
Q 2881 1009 2881 1497 
Q 2881 1984 2565 2268 
Q 2250 2553 1709 2553 
Q 1456 2553 1204 2497 
Q 953 2441 691 2322 
L 691 4666 
z
" transform="scale(0.015625)"/>
      <path id="DejaVuSans-67" d="M 2906 1791 
Q 2906 2416 2648 2759 
Q 2391 3103 1925 3103 
Q 1463 3103 1205 2759 
Q 947 2416 947 1791 
Q 947 1169 1205 825 
Q 1463 481 1925 481 
Q 2391 481 2648 825 
Q 2906 1169 2906 1791 
z
M 3481 434 
Q 3481 -459 3084 -895 
Q 2688 -1331 1869 -1331 
Q 1566 -1331 1297 -1286 
Q 1028 -1241 775 -1147 
L 775 -588 
Q 1028 -725 1275 -790 
Q 1522 -856 1778 -856 
Q 2344 -856 2625 -561 
Q 2906 -266 2906 331 
L 2906 616 
Q 2728 306 2450 153 
Q 2172 0 1784 0 
Q 1141 0 747 490 
Q 353 981 353 1791 
Q 353 2603 747 3093 
Q 1141 3584 1784 3584 
Q 2172 3584 2450 3431 
Q 2728 3278 2906 2969 
L 2906 3500 
L 3481 3500 
L 3481 434 
z
" transform="scale(0.015625)"/>
     </defs>
     <use xlink:href="#DejaVuSans-53"/>
     <use xlink:href="#DejaVuSans-69" x="63.476562"/>
     <use xlink:href="#DejaVuSans-6d" x="91.259766"/>
     <use xlink:href="#DejaVuSans-69" x="188.671875"/>
     <use xlink:href="#DejaVuSans-6c" x="216.455078"/>
     <use xlink:href="#DejaVuSans-61" x="244.238281"/>
     <use xlink:href="#DejaVuSans-72" x="305.517578"/>
     <use xlink:href="#DejaVuSans-69" x="346.630859"/>
     <use xlink:href="#DejaVuSans-74" x="374.414062"/>
     <use xlink:href="#DejaVuSans-79" x="413.623047"/>
     <use xlink:href="#DejaVuSans-20" x="472.802734"/>
     <use xlink:href="#DejaVuSans-4c" x="504.589844"/>
     <use xlink:href="#DejaVuSans-4c" x="560.302734"/>
     <use xlink:href="#DejaVuSans-4d" x="616.015625"/>
     <use xlink:href="#DejaVuSans-2d" x="702.294922"/>
     <use xlink:href="#DejaVuSans-44" x="738.378906"/>
     <use xlink:href="#DejaVuSans-45" x="815.380859"/>
     <use xlink:href="#DejaVuSans-46" x="878.564453"/>
     <use xlink:href="#DejaVuSans-45" x="936.083984"/>
     <use xlink:href="#DejaVuSans-43" x="999.267578"/>
     <use xlink:href="#DejaVuSans-54" x="1069.091797"/>
     <use xlink:href="#DejaVuSans-20" x="1130.175781"/>
     <use xlink:href="#DejaVuSans-77" x="1161.962891"/>
     <use xlink:href="#DejaVuSans-69" x="1243.75"/>
     <use xlink:href="#DejaVuSans-74" x="1271.533203"/>
     <use xlink:href="#DejaVuSans-68" x="1310.742188"/>
     <use xlink:href="#DejaVuSans-20" x="1374.121094"/>
     <use xlink:href="#DejaVuSans-73" x="1405.908203"/>
     <use xlink:href="#DejaVuSans-77" x="1458.007812"/>
     <use xlink:href="#DejaVuSans-31" x="1539.794922"/>
     <use xlink:href="#DejaVuSans-30" x="1603.417969"/>
     <use xlink:href="#DejaVuSans-2d" x="1667.041016"/>
     <use xlink:href="#DejaVuSans-31" x="1703.125"/>
     <use xlink:href="#DejaVuSans-20" x="1766.748047"/>
     <use xlink:href="#DejaVuSans-2d" x="1798.535156"/>
     <use xlink:href="#DejaVuSans-20" x="1834.619141"/>
     <use xlink:href="#DejaVuSans-32" x="1866.40625"/>
     <use xlink:href="#DejaVuSans-30" x="1930.029297"/>
     <use xlink:href="#DejaVuSans-32" x="1993.652344"/>
     <use xlink:href="#DejaVuSans-34" x="2057.275391"/>
     <use xlink:href="#DejaVuSans-30" x="2120.898438"/>
     <use xlink:href="#DejaVuSans-34" x="2184.521484"/>
     <use xlink:href="#DejaVuSans-30" x="2248.144531"/>
     <use xlink:href="#DejaVuSans-39" x="2311.767578"/>
     <use xlink:href="#DejaVuSans-31" x="2375.390625"/>
     <use xlink:href="#DejaVuSans-31" x="2439.013672"/>
     <use xlink:href="#DejaVuSans-34" x="2502.636719"/>
     <use xlink:href="#DejaVuSans-31" x="2566.259766"/>
     <use xlink:href="#DejaVuSans-35" x="2629.882812"/>
     <use xlink:href="#DejaVuSans-34" x="2693.505859"/>
     <use xlink:href="#DejaVuSans-20" x="2757.128906"/>
     <use xlink:href="#DejaVuSans-2d" x="2788.916016"/>
     <use xlink:href="#DejaVuSans-20" x="2825"/>
     <use xlink:href="#DejaVuSans-35" x="2856.787109"/>
     <use xlink:href="#DejaVuSans-30" x="2920.410156"/>
     <use xlink:href="#DejaVuSans-20" x="2984.033203"/>
     <use xlink:href="#DejaVuSans-67" x="3015.820312"/>
     <use xlink:href="#DejaVuSans-61" x="3079.296875"/>
     <use xlink:href="#DejaVuSans-6d" x="3140.576172"/>
     <use xlink:href="#DejaVuSans-65" x="3237.988281"/>
     <use xlink:href="#DejaVuSans-73" x="3299.511719"/>
    </g>
   </g>
   <g id="legend_1">
    <g id="patch_7">
     <path d="M 316.903125 62.79625 
L 443 62.79625 
Q 445 62.79625 445 60.79625 
L 445 32.44 
Q 445 30.44 443 30.44 
L 316.903125 30.44 
Q 314.903125 30.44 314.903125 32.44 
L 314.903125 60.79625 
Q 314.903125 62.79625 316.903125 62.79625 
z
" style="fill: #ffffff; opacity: 0.8; stroke: #cccccc; stroke-linejoin: miter"/>
    </g>
    <g id="line2d_18">
     <path d="M 318.903125 38.538437 
L 328.903125 38.538437 
L 338.903125 38.538437 
" style="fill: none; stroke: #0000ff; stroke-linecap: square"/>
     <g>
      <use xlink:href="#m80c7b92bc3" x="328.903125" y="38.538437" style="fill: #0000ff"/>
     </g>
    </g>
    <g id="text_16">
     <!-- LLM-DEFECT -->
     <g transform="translate(346.903125 42.038437) scale(0.1 -0.1)">
      <use xlink:href="#DejaVuSans-4c"/>
      <use xlink:href="#DejaVuSans-4c" x="55.712891"/>
      <use xlink:href="#DejaVuSans-4d" x="111.425781"/>
      <use xlink:href="#DejaVuSans-2d" x="197.705078"/>
      <use xlink:href="#DejaVuSans-44" x="233.789062"/>
      <use xlink:href="#DejaVuSans-45" x="310.791016"/>
      <use xlink:href="#DejaVuSans-46" x="373.974609"/>
      <use xlink:href="#DejaVuSans-45" x="431.494141"/>
      <use xlink:href="#DejaVuSans-43" x="494.677734"/>
      <use xlink:href="#DejaVuSans-54" x="564.501953"/>
     </g>
    </g>
    <g id="line2d_19">
     <path d="M 318.903125 53.216562 
L 328.903125 53.216562 
L 338.903125 53.216562 
" style="fill: none; stroke: #ff0000; stroke-opacity: 0.5; stroke-width: 0.5; stroke-linecap: square"/>
     <g>
      <use xlink:href="#m724fd9e0e6" x="328.903125" y="53.216562" style="fill: #ff0000; fill-opacity: 0.5"/>
     </g>
    </g>
    <g id="text_17">
     <!-- LLM-DEFECT mean -->
     <g transform="translate(346.903125 56.716562) scale(0.1 -0.1)">
      <use xlink:href="#DejaVuSans-4c"/>
      <use xlink:href="#DejaVuSans-4c" x="55.712891"/>
      <use xlink:href="#DejaVuSans-4d" x="111.425781"/>
      <use xlink:href="#DejaVuSans-2d" x="197.705078"/>
      <use xlink:href="#DejaVuSans-44" x="233.789062"/>
      <use xlink:href="#DejaVuSans-45" x="310.791016"/>
      <use xlink:href="#DejaVuSans-46" x="373.974609"/>
      <use xlink:href="#DejaVuSans-45" x="431.494141"/>
      <use xlink:href="#DejaVuSans-43" x="494.677734"/>
      <use xlink:href="#DejaVuSans-54" x="564.501953"/>
      <use xlink:href="#DejaVuSans-20" x="625.585938"/>
      <use xlink:href="#DejaVuSans-6d" x="657.373047"/>
      <use xlink:href="#DejaVuSans-65" x="754.785156"/>
      <use xlink:href="#DejaVuSans-61" x="816.308594"/>
      <use xlink:href="#DejaVuSans-6e" x="877.587891"/>
     </g>
    </g>
   </g>
  </g>
 </g>
 <defs>
  <clipPath id="pbdc5794106">
   <rect x="47.81" y="25.44" width="402.19" height="278.2"/>
  </clipPath>
 </defs>
</svg>
