<?xml version="1.0" encoding="utf-8" standalone="no"?>
<!DOCTYPE svg PUBLIC "-//W3C//DTD SVG 1.1//EN"
  "http://www.w3.org/Graphics/SVG/1.1/DTD/svg11.dtd">
<svg xmlns:xlink="http://www.w3.org/1999/xlink" width="460.8pt" height="345.6pt" viewBox="0 0 460.8 345.6" xmlns="http://www.w3.org/2000/svg" version="1.1">
 <metadata>
  <rdf:RDF xmlns:dc="http://purl.org/dc/elements/1.1/" xmlns:cc="http://creativecommons.org/ns#" xmlns:rdf="http://www.w3.org/1999/02/22-rdf-syntax-ns#">
   <cc:Work>
    <dc:type rdf:resource="http://purl.org/dc/dcmitype/StillImage"/>
    <dc:date>2024-04-10T11:23:50.087678</dc:date>
    <dc:format>image/svg+xml</dc:format>
    <dc:creator>
     <cc:Agent>
      <dc:title>Matplotlib v3.8.0, https://matplotlib.org/</dc:title>
     </cc:Agent>
    </dc:creator>
   </cc:Work>
  </rdf:RDF>
 </metadata>
 <defs>
  <style type="text/css">*{stroke-linejoin: round; stroke-linecap: butt}</style>
 </defs>
 <g id="figure_1">
  <g id="patch_1">
   <path d="M 0 345.6 
L 460.8 345.6 
L 460.8 0 
L 0 0 
z
" style="fill: #ffffff"/>
  </g>
  <g id="axes_1">
   <g id="patch_2">
    <path d="M 47.81 303.64 
L 450 303.64 
L 450 25.44 
L 47.81 25.44 
z
" style="fill: #ffffff"/>
   </g>
   <g id="PolyCollection_1">
    <defs>
     <path id="m11adc57c1f" d="M 66.091364 -170.943636 
L 66.091364 -170.943636 
L 69.822254 -222.842644 
L 73.553145 -236.722776 
L 77.284035 -248.640146 
L 81.014926 -257.003988 
L 84.745816 -263.430832 
L 88.476707 -269.101208 
L 92.207597 -273.791526 
L 95.938488 -277.700626 
L 99.669378 -280.789044 
L 103.400269 -283.451068 
L 107.13116 -285.62501 
L 110.86205 -287.429934 
L 114.592941 -289.045072 
L 118.323831 -290.411556 
L 122.054722 -291.543953 
L 125.785612 -292.491952 
L 129.516503 -293.238337 
L 133.247393 -293.80418 
L 136.978284 -294.313112 
L 140.709174 -294.69725 
L 144.440065 -294.999012 
L 148.170955 -295.14528 
L 151.901846 -295.210537 
L 155.632737 -295.258807 
L 159.363627 -295.228148 
L 163.094518 -295.154378 
L 166.825408 -295.011673 
L 170.556299 -294.81502 
L 174.287189 -294.610986 
L 178.01808 -294.375958 
L 181.74897 -294.088288 
L 185.479861 -293.775258 
L 189.210751 -293.425007 
L 192.941642 -293.116591 
L 196.672532 -292.766649 
L 200.403423 -292.386769 
L 204.134314 -291.961527 
L 207.865204 -291.48694 
L 211.596095 -290.984113 
L 215.326985 -290.465011 
L 219.057876 -289.947255 
L 222.788766 -289.451247 
L 226.519657 -288.99661 
L 230.250547 -288.602764 
L 233.981438 -288.271932 
L 237.712328 -288.006087 
L 241.443219 -287.816288 
L 245.174109 -287.694299 
L 248.905 -287.632638 
L 252.635891 -287.630288 
L 256.366781 -287.665256 
L 260.097672 -287.728997 
L 263.828562 -287.837766 
L 267.559453 -287.961179 
L 271.290343 -288.104737 
L 275.021234 -288.226158 
L 278.752124 -288.343822 
L 282.483015 -288.46915 
L 286.213905 -288.582498 
L 289.944796 -288.678335 
L 293.675686 -288.742007 
L 297.406577 -288.781671 
L 301.137468 -288.81373 
L 304.868358 -288.826641 
L 308.599249 -288.801829 
L 312.330139 -288.747905 
L 316.06103 -288.660679 
L 319.79192 -288.5342 
L 323.522811 -288.36653 
L 327.253701 -288.168978 
L 330.984592 -287.938733 
L 334.715482 -287.652649 
L 338.446373 -287.326084 
L 342.177263 -286.963121 
L 345.908154 -286.559162 
L 349.639045 -286.10895 
L 353.369935 -285.614294 
L 357.100826 -285.078819 
L 360.831716 -284.509081 
L 364.562607 -283.905974 
L 368.293497 -283.27351 
L 372.024388 -282.6138 
L 375.755278 -281.927515 
L 379.486169 -281.216763 
L 383.217059 -280.484705 
L 386.94795 -279.733012 
L 390.67884 -278.962244 
L 394.409731 -278.177074 
L 398.140622 -277.376768 
L 401.871512 -276.567126 
L 405.602403 -275.747108 
L 409.333293 -274.918427 
L 413.064184 -274.08115 
L 416.795074 -273.238959 
L 420.525965 -272.391643 
L 424.256855 -271.540402 
L 427.987746 -270.686878 
L 431.718636 -269.830859 
L 431.718636 -88.980827 
L 431.718636 -88.980827 
L 427.987746 -90.598888 
L 424.256855 -92.273523 
L 420.525965 -94.000012 
L 416.795074 -95.784693 
L 413.064184 -97.6305 
L 409.333293 -99.532629 
L 405.602403 -101.506139 
L 401.871512 -103.54663 
L 398.140622 -105.657757 
L 394.409731 -107.830484 
L 390.67884 -110.085915 
L 386.94795 -112.415387 
L 383.217059 -114.832573 
L 379.486169 -117.333454 
L 375.755278 -119.918448 
L 372.024388 -122.592985 
L 368.293497 -125.357925 
L 364.562607 -128.208957 
L 360.831716 -131.14668 
L 357.100826 -134.177282 
L 353.369935 -137.296318 
L 349.639045 -140.516317 
L 345.908154 -143.839365 
L 342.177263 -147.26168 
L 338.446373 -150.760049 
L 334.715482 -154.315013 
L 330.984592 -157.931495 
L 327.253701 -161.642506 
L 323.522811 -165.379801 
L 319.79192 -169.131665 
L 316.06103 -172.921861 
L 312.330139 -176.73944 
L 308.599249 -180.564386 
L 304.868358 -184.382158 
L 301.137468 -188.208962 
L 297.406577 -191.996523 
L 293.675686 -195.716073 
L 289.944796 -199.404686 
L 286.213905 -203.077689 
L 282.483015 -206.697828 
L 278.752124 -210.2508 
L 275.021234 -213.691916 
L 271.290343 -217.048268 
L 267.559453 -220.360457 
L 263.828562 -223.532927 
L 260.097672 -226.581255 
L 256.366781 -229.440127 
L 252.635891 -232.152309 
L 248.905 -234.70218 
L 245.174109 -237.041878 
L 241.443219 -239.173354 
L 237.712328 -241.079687 
L 233.981438 -242.735911 
L 230.250547 -244.167929 
L 226.519657 -245.36686 
L 222.788766 -246.302299 
L 219.057876 -247.000443 
L 215.326985 -247.46658 
L 211.596095 -247.749971 
L 207.865204 -247.869543 
L 204.134314 -247.854362 
L 200.403423 -247.704276 
L 196.672532 -247.457805 
L 192.941642 -247.146882 
L 189.210751 -246.766013 
L 185.479861 -246.393017 
L 181.74897 -245.953541 
L 178.01808 -245.459881 
L 174.287189 -244.893973 
L 170.556299 -244.271724 
L 166.825408 -243.605388 
L 163.094518 -242.867307 
L 159.363627 -242.050973 
L 155.632737 -241.167043 
L 151.901846 -240.1995 
L 148.170955 -239.167208 
L 144.440065 -238.043678 
L 140.709174 -236.806189 
L 136.978284 -235.470877 
L 133.247393 -234.022314 
L 129.516503 -232.46493 
L 125.785612 -230.766956 
L 122.054722 -228.917527 
L 118.323831 -226.90678 
L 114.592941 -224.714218 
L 110.86205 -222.319112 
L 107.13116 -219.695548 
L 103.400269 -216.800891 
L 99.669378 -213.595184 
L 95.938488 -210.02286 
L 92.207597 -206.027547 
L 88.476707 -201.518512 
L 84.745816 -196.368279 
L 81.014926 -190.295794 
L 77.284035 -183.029854 
L 73.553145 -174.292981 
L 69.822254 -162.039174 
L 66.091364 -170.943636 
z
" style="stroke: #ff0000; stroke-opacity: 0.2"/>
    </defs>
    <g clip-path="url(#pf69d0296d1)">
     <use xlink:href="#m11adc57c1f" x="0" y="345.6" style="fill: #ff0000; fill-opacity: 0.2; stroke: #ff0000; stroke-opacity: 0.2"/>
    </g>
   </g>
   <g id="matplotlib.axis_1">
    <g id="xtick_1">
     <g id="line2d_1">
      <defs>
       <path id="mbd75b55432" d="M 0 0 
L 0 3.5 
" style="stroke: #000000; stroke-width: 0.8"/>
      </defs>
      <g>
       <use xlink:href="#mbd75b55432" x="66.091364" y="303.64" style="stroke: #000000; stroke-width: 0.8"/>
      </g>
     </g>
     <g id="text_1">
      <!-- 0 -->
      <g transform="translate(62.910114 318.238437) scale(0.1 -0.1)">
       <defs>
        <path id="DejaVuSans-30" d="M 2034 4250 
Q 1547 4250 1301 3770 
Q 1056 3291 1056 2328 
Q 1056 1369 1301 889 
Q 1547 409 2034 409 
Q 2525 409 2770 889 
Q 3016 1369 3016 2328 
Q 3016 3291 2770 3770 
Q 2525 4250 2034 4250 
z
M 2034 4750 
Q 2819 4750 3233 4129 
Q 3647 3509 3647 2328 
Q 3647 1150 3233 529 
Q 2819 -91 2034 -91 
Q 1250 -91 836 529 
Q 422 1150 422 2328 
Q 422 3509 836 4129 
Q 1250 4750 2034 4750 
z
" transform="scale(0.015625)"/>
       </defs>
       <use xlink:href="#DejaVuSans-30"/>
      </g>
     </g>
    </g>
    <g id="xtick_2">
     <g id="line2d_2">
      <g>
       <use xlink:href="#mbd75b55432" x="140.709174" y="303.64" style="stroke: #000000; stroke-width: 0.8"/>
      </g>
     </g>
     <g id="text_2">
      <!-- 20 -->
      <g transform="translate(134.346674 318.238437) scale(0.1 -0.1)">
       <defs>
        <path id="DejaVuSans-32" d="M 1228 531 
L 3431 531 
L 3431 0 
L 469 0 
L 469 531 
Q 828 903 1448 1529 
Q 2069 2156 2228 2338 
Q 2531 2678 2651 2914 
Q 2772 3150 2772 3378 
Q 2772 3750 2511 3984 
Q 2250 4219 1831 4219 
Q 1534 4219 1204 4116 
Q 875 4013 500 3803 
L 500 4441 
Q 881 4594 1212 4672 
Q 1544 4750 1819 4750 
Q 2544 4750 2975 4387 
Q 3406 4025 3406 3419 
Q 3406 3131 3298 2873 
Q 3191 2616 2906 2266 
Q 2828 2175 2409 1742 
Q 1991 1309 1228 531 
z
" transform="scale(0.015625)"/>
       </defs>
       <use xlink:href="#DejaVuSans-32"/>
       <use xlink:href="#DejaVuSans-30" x="63.623047"/>
      </g>
     </g>
    </g>
    <g id="xtick_3">
     <g id="line2d_3">
      <g>
       <use xlink:href="#mbd75b55432" x="215.326985" y="303.64" style="stroke: #000000; stroke-width: 0.8"/>
      </g>
     </g>
     <g id="text_3">
      <!-- 40 -->
      <g transform="translate(208.964485 318.238437) scale(0.1 -0.1)">
       <defs>
        <path id="DejaVuSans-34" d="M 2419 4116 
L 825 1625 
L 2419 1625 
L 2419 4116 
z
M 2253 4666 
L 3047 4666 
L 3047 1625 
L 3713 1625 
L 3713 1100 
L 3047 1100 
L 3047 0 
L 2419 0 
L 2419 1100 
L 313 1100 
L 313 1709 
L 2253 4666 
z
" transform="scale(0.015625)"/>
       </defs>
       <use xlink:href="#DejaVuSans-34"/>
       <use xlink:href="#DejaVuSans-30" x="63.623047"/>
      </g>
     </g>
    </g>
    <g id="xtick_4">
     <g id="line2d_4">
      <g>
       <use xlink:href="#mbd75b55432" x="289.944796" y="303.64" style="stroke: #000000; stroke-width: 0.8"/>
      </g>
     </g>
     <g id="text_4">
      <!-- 60 -->
      <g transform="translate(283.582296 318.238437) scale(0.1 -0.1)">
       <defs>
        <path id="DejaVuSans-36" d="M 2113 2584 
Q 1688 2584 1439 2293 
Q 1191 2003 1191 1497 
Q 1191 994 1439 701 
Q 1688 409 2113 409 
Q 2538 409 2786 701 
Q 3034 994 3034 1497 
Q 3034 2003 2786 2293 
Q 2538 2584 2113 2584 
z
M 3366 4563 
L 3366 3988 
Q 3128 4100 2886 4159 
Q 2644 4219 2406 4219 
Q 1781 4219 1451 3797 
Q 1122 3375 1075 2522 
Q 1259 2794 1537 2939 
Q 1816 3084 2150 3084 
Q 2853 3084 3261 2657 
Q 3669 2231 3669 1497 
Q 3669 778 3244 343 
Q 2819 -91 2113 -91 
Q 1303 -91 875 529 
Q 447 1150 447 2328 
Q 447 3434 972 4092 
Q 1497 4750 2381 4750 
Q 2619 4750 2861 4703 
Q 3103 4656 3366 4563 
z
" transform="scale(0.015625)"/>
       </defs>
       <use xlink:href="#DejaVuSans-36"/>
       <use xlink:href="#DejaVuSans-30" x="63.623047"/>
      </g>
     </g>
    </g>
    <g id="xtick_5">
     <g id="line2d_5">
      <g>
       <use xlink:href="#mbd75b55432" x="364.562607" y="303.64" style="stroke: #000000; stroke-width: 0.8"/>
      </g>
     </g>
     <g id="text_5">
      <!-- 80 -->
      <g transform="translate(358.200107 318.238437) scale(0.1 -0.1)">
       <defs>
        <path id="DejaVuSans-38" d="M 2034 2216 
Q 1584 2216 1326 1975 
Q 1069 1734 1069 1313 
Q 1069 891 1326 650 
Q 1584 409 2034 409 
Q 2484 409 2743 651 
Q 3003 894 3003 1313 
Q 3003 1734 2745 1975 
Q 2488 2216 2034 2216 
z
M 1403 2484 
Q 997 2584 770 2862 
Q 544 3141 544 3541 
Q 544 4100 942 4425 
Q 1341 4750 2034 4750 
Q 2731 4750 3128 4425 
Q 3525 4100 3525 3541 
Q 3525 3141 3298 2862 
Q 3072 2584 2669 2484 
Q 3125 2378 3379 2068 
Q 3634 1759 3634 1313 
Q 3634 634 3220 271 
Q 2806 -91 2034 -91 
Q 1263 -91 848 271 
Q 434 634 434 1313 
Q 434 1759 690 2068 
Q 947 2378 1403 2484 
z
M 1172 3481 
Q 1172 3119 1398 2916 
Q 1625 2713 2034 2713 
Q 2441 2713 2670 2916 
Q 2900 3119 2900 3481 
Q 2900 3844 2670 4047 
Q 2441 4250 2034 4250 
Q 1625 4250 1398 4047 
Q 1172 3844 1172 3481 
z
" transform="scale(0.015625)"/>
       </defs>
       <use xlink:href="#DejaVuSans-38"/>
       <use xlink:href="#DejaVuSans-30" x="63.623047"/>
      </g>
     </g>
    </g>
    <g id="xtick_6">
     <g id="line2d_6">
      <g>
       <use xlink:href="#mbd75b55432" x="439.180417" y="303.64" style="stroke: #000000; stroke-width: 0.8"/>
      </g>
     </g>
     <g id="text_6">
      <!-- 100 -->
      <g transform="translate(429.636667 318.238437) scale(0.1 -0.1)">
       <defs>
        <path id="DejaVuSans-31" d="M 794 531 
L 1825 531 
L 1825 4091 
L 703 3866 
L 703 4441 
L 1819 4666 
L 2450 4666 
L 2450 531 
L 3481 531 
L 3481 0 
L 794 0 
L 794 531 
z
" transform="scale(0.015625)"/>
       </defs>
       <use xlink:href="#DejaVuSans-31"/>
       <use xlink:href="#DejaVuSans-30" x="63.623047"/>
       <use xlink:href="#DejaVuSans-30" x="127.246094"/>
      </g>
     </g>
    </g>
    <g id="text_7">
     <!-- Iteration -->
     <g transform="translate(227.696406 331.916562) scale(0.1 -0.1)">
      <defs>
       <path id="DejaVuSans-49" d="M 628 4666 
L 1259 4666 
L 1259 0 
L 628 0 
L 628 4666 
z
" transform="scale(0.015625)"/>
       <path id="DejaVuSans-74" d="M 1172 4494 
L 1172 3500 
L 2356 3500 
L 2356 3053 
L 1172 3053 
L 1172 1153 
Q 1172 725 1289 603 
Q 1406 481 1766 481 
L 2356 481 
L 2356 0 
L 1766 0 
Q 1100 0 847 248 
Q 594 497 594 1153 
L 594 3053 
L 172 3053 
L 172 3500 
L 594 3500 
L 594 4494 
L 1172 4494 
z
" transform="scale(0.015625)"/>
       <path id="DejaVuSans-65" d="M 3597 1894 
L 3597 1613 
L 953 1613 
Q 991 1019 1311 708 
Q 1631 397 2203 397 
Q 2534 397 2845 478 
Q 3156 559 3463 722 
L 3463 178 
Q 3153 47 2828 -22 
Q 2503 -91 2169 -91 
Q 1331 -91 842 396 
Q 353 884 353 1716 
Q 353 2575 817 3079 
Q 1281 3584 2069 3584 
Q 2775 3584 3186 3129 
Q 3597 2675 3597 1894 
z
M 3022 2063 
Q 3016 2534 2758 2815 
Q 2500 3097 2075 3097 
Q 1594 3097 1305 2825 
Q 1016 2553 972 2059 
L 3022 2063 
z
" transform="scale(0.015625)"/>
       <path id="DejaVuSans-72" d="M 2631 2963 
Q 2534 3019 2420 3045 
Q 2306 3072 2169 3072 
Q 1681 3072 1420 2755 
Q 1159 2438 1159 1844 
L 1159 0 
L 581 0 
L 581 3500 
L 1159 3500 
L 1159 2956 
Q 1341 3275 1631 3429 
Q 1922 3584 2338 3584 
Q 2397 3584 2469 3576 
Q 2541 3569 2628 3553 
L 2631 2963 
z
" transform="scale(0.015625)"/>
       <path id="DejaVuSans-61" d="M 2194 1759 
Q 1497 1759 1228 1600 
Q 959 1441 959 1056 
Q 959 750 1161 570 
Q 1363 391 1709 391 
Q 2188 391 2477 730 
Q 2766 1069 2766 1631 
L 2766 1759 
L 2194 1759 
z
M 3341 1997 
L 3341 0 
L 2766 0 
L 2766 531 
Q 2569 213 2275 61 
Q 1981 -91 1556 -91 
Q 1019 -91 701 211 
Q 384 513 384 1019 
Q 384 1609 779 1909 
Q 1175 2209 1959 2209 
L 2766 2209 
L 2766 2266 
Q 2766 2663 2505 2880 
Q 2244 3097 1772 3097 
Q 1472 3097 1187 3025 
Q 903 2953 641 2809 
L 641 3341 
Q 956 3463 1253 3523 
Q 1550 3584 1831 3584 
Q 2591 3584 2966 3190 
Q 3341 2797 3341 1997 
z
" transform="scale(0.015625)"/>
       <path id="DejaVuSans-69" d="M 603 3500 
L 1178 3500 
L 1178 0 
L 603 0 
L 603 3500 
z
M 603 4863 
L 1178 4863 
L 1178 4134 
L 603 4134 
L 603 4863 
z
" transform="scale(0.015625)"/>
       <path id="DejaVuSans-6f" d="M 1959 3097 
Q 1497 3097 1228 2736 
Q 959 2375 959 1747 
Q 959 1119 1226 758 
Q 1494 397 1959 397 
Q 2419 397 2687 759 
Q 2956 1122 2956 1747 
Q 2956 2369 2687 2733 
Q 2419 3097 1959 3097 
z
M 1959 3584 
Q 2709 3584 3137 3096 
Q 3566 2609 3566 1747 
Q 3566 888 3137 398 
Q 2709 -91 1959 -91 
Q 1206 -91 779 398 
Q 353 888 353 1747 
Q 353 2609 779 3096 
Q 1206 3584 1959 3584 
z
" transform="scale(0.015625)"/>
       <path id="DejaVuSans-6e" d="M 3513 2113 
L 3513 0 
L 2938 0 
L 2938 2094 
Q 2938 2591 2744 2837 
Q 2550 3084 2163 3084 
Q 1697 3084 1428 2787 
Q 1159 2491 1159 1978 
L 1159 0 
L 581 0 
L 581 3500 
L 1159 3500 
L 1159 2956 
Q 1366 3272 1645 3428 
Q 1925 3584 2291 3584 
Q 2894 3584 3203 3211 
Q 3513 2838 3513 2113 
z
" transform="scale(0.015625)"/>
      </defs>
      <use xlink:href="#DejaVuSans-49"/>
      <use xlink:href="#DejaVuSans-74" x="29.492188"/>
      <use xlink:href="#DejaVuSans-65" x="68.701172"/>
      <use xlink:href="#DejaVuSans-72" x="130.224609"/>
      <use xlink:href="#DejaVuSans-61" x="171.337891"/>
      <use xlink:href="#DejaVuSans-74" x="232.617188"/>
      <use xlink:href="#DejaVuSans-69" x="271.826172"/>
      <use xlink:href="#DejaVuSans-6f" x="299.609375"/>
      <use xlink:href="#DejaVuSans-6e" x="360.791016"/>
     </g>
    </g>
   </g>
   <g id="matplotlib.axis_2">
    <g id="ytick_1">
     <g id="line2d_7">
      <defs>
       <path id="m388febb5aa" d="M 0 0 
L -3.5 0 
" style="stroke: #000000; stroke-width: 0.8"/>
      </defs>
      <g>
       <use xlink:href="#m388febb5aa" x="47.81" y="290.994545" style="stroke: #000000; stroke-width: 0.8"/>
      </g>
     </g>
     <g id="text_8">
      <!-- 0.0 -->
      <g transform="translate(24.906875 294.793764) scale(0.1 -0.1)">
       <defs>
        <path id="DejaVuSans-2e" d="M 684 794 
L 1344 794 
L 1344 0 
L 684 0 
L 684 794 
z
" transform="scale(0.015625)"/>
       </defs>
       <use xlink:href="#DejaVuSans-30"/>
       <use xlink:href="#DejaVuSans-2e" x="63.623047"/>
       <use xlink:href="#DejaVuSans-30" x="95.410156"/>
      </g>
     </g>
    </g>
    <g id="ytick_2">
     <g id="line2d_8">
      <g>
       <use xlink:href="#m388febb5aa" x="47.81" y="240.412727" style="stroke: #000000; stroke-width: 0.8"/>
      </g>
     </g>
     <g id="text_9">
      <!-- 0.2 -->
      <g transform="translate(24.906875 244.211946) scale(0.1 -0.1)">
       <use xlink:href="#DejaVuSans-30"/>
       <use xlink:href="#DejaVuSans-2e" x="63.623047"/>
       <use xlink:href="#DejaVuSans-32" x="95.410156"/>
      </g>
     </g>
    </g>
    <g id="ytick_3">
     <g id="line2d_9">
      <g>
       <use xlink:href="#m388febb5aa" x="47.81" y="189.830909" style="stroke: #000000; stroke-width: 0.8"/>
      </g>
     </g>
     <g id="text_10">
      <!-- 0.4 -->
      <g transform="translate(24.906875 193.630128) scale(0.1 -0.1)">
       <use xlink:href="#DejaVuSans-30"/>
       <use xlink:href="#DejaVuSans-2e" x="63.623047"/>
       <use xlink:href="#DejaVuSans-34" x="95.410156"/>
      </g>
     </g>
    </g>
    <g id="ytick_4">
     <g id="line2d_10">
      <g>
       <use xlink:href="#m388febb5aa" x="47.81" y="139.249091" style="stroke: #000000; stroke-width: 0.8"/>
      </g>
     </g>
     <g id="text_11">
      <!-- 0.6 -->
      <g transform="translate(24.906875 143.04831) scale(0.1 -0.1)">
       <use xlink:href="#DejaVuSans-30"/>
       <use xlink:href="#DejaVuSans-2e" x="63.623047"/>
       <use xlink:href="#DejaVuSans-36" x="95.410156"/>
      </g>
     </g>
    </g>
    <g id="ytick_5">
     <g id="line2d_11">
      <g>
       <use xlink:href="#m388febb5aa" x="47.81" y="88.667273" style="stroke: #000000; stroke-width: 0.8"/>
      </g>
     </g>
     <g id="text_12">
      <!-- 0.8 -->
      <g transform="translate(24.906875 92.466491) scale(0.1 -0.1)">
       <use xlink:href="#DejaVuSans-30"/>
       <use xlink:href="#DejaVuSans-2e" x="63.623047"/>
       <use xlink:href="#DejaVuSans-38" x="95.410156"/>
      </g>
     </g>
    </g>
    <g id="ytick_6">
     <g id="line2d_12">
      <g>
       <use xlink:href="#m388febb5aa" x="47.81" y="38.085455" style="stroke: #000000; stroke-width: 0.8"/>
      </g>
     </g>
     <g id="text_13">
      <!-- 1.0 -->
      <g transform="translate(24.906875 41.884673) scale(0.1 -0.1)">
       <use xlink:href="#DejaVuSans-31"/>
       <use xlink:href="#DejaVuSans-2e" x="63.623047"/>
       <use xlink:href="#DejaVuSans-30" x="95.410156"/>
      </g>
     </g>
    </g>
    <g id="text_14">
     <!-- Similarity -->
     <g transform="translate(18.827187 188.179844) rotate(-90) scale(0.1 -0.1)">
      <defs>
       <path id="DejaVuSans-53" d="M 3425 4513 
L 3425 3897 
Q 3066 4069 2747 4153 
Q 2428 4238 2131 4238 
Q 1616 4238 1336 4038 
Q 1056 3838 1056 3469 
Q 1056 3159 1242 3001 
Q 1428 2844 1947 2747 
L 2328 2669 
Q 3034 2534 3370 2195 
Q 3706 1856 3706 1288 
Q 3706 609 3251 259 
Q 2797 -91 1919 -91 
Q 1588 -91 1214 -16 
Q 841 59 441 206 
L 441 856 
Q 825 641 1194 531 
Q 1563 422 1919 422 
Q 2459 422 2753 634 
Q 3047 847 3047 1241 
Q 3047 1584 2836 1778 
Q 2625 1972 2144 2069 
L 1759 2144 
Q 1053 2284 737 2584 
Q 422 2884 422 3419 
Q 422 4038 858 4394 
Q 1294 4750 2059 4750 
Q 2388 4750 2728 4690 
Q 3069 4631 3425 4513 
z
" transform="scale(0.015625)"/>
       <path id="DejaVuSans-6d" d="M 3328 2828 
Q 3544 3216 3844 3400 
Q 4144 3584 4550 3584 
Q 5097 3584 5394 3201 
Q 5691 2819 5691 2113 
L 5691 0 
L 5113 0 
L 5113 2094 
Q 5113 2597 4934 2840 
Q 4756 3084 4391 3084 
Q 3944 3084 3684 2787 
Q 3425 2491 3425 1978 
L 3425 0 
L 2847 0 
L 2847 2094 
Q 2847 2600 2669 2842 
Q 2491 3084 2119 3084 
Q 1678 3084 1418 2786 
Q 1159 2488 1159 1978 
L 1159 0 
L 581 0 
L 581 3500 
L 1159 3500 
L 1159 2956 
Q 1356 3278 1631 3431 
Q 1906 3584 2284 3584 
Q 2666 3584 2933 3390 
Q 3200 3197 3328 2828 
z
" transform="scale(0.015625)"/>
       <path id="DejaVuSans-6c" d="M 603 4863 
L 1178 4863 
L 1178 0 
L 603 0 
L 603 4863 
z
" transform="scale(0.015625)"/>
       <path id="DejaVuSans-79" d="M 2059 -325 
Q 1816 -950 1584 -1140 
Q 1353 -1331 966 -1331 
L 506 -1331 
L 506 -850 
L 844 -850 
Q 1081 -850 1212 -737 
Q 1344 -625 1503 -206 
L 1606 56 
L 191 3500 
L 800 3500 
L 1894 763 
L 2988 3500 
L 3597 3500 
L 2059 -325 
z
" transform="scale(0.015625)"/>
      </defs>
      <use xlink:href="#DejaVuSans-53"/>
      <use xlink:href="#DejaVuSans-69" x="63.476562"/>
      <use xlink:href="#DejaVuSans-6d" x="91.259766"/>
      <use xlink:href="#DejaVuSans-69" x="188.671875"/>
      <use xlink:href="#DejaVuSans-6c" x="216.455078"/>
      <use xlink:href="#DejaVuSans-61" x="244.238281"/>
      <use xlink:href="#DejaVuSans-72" x="305.517578"/>
      <use xlink:href="#DejaVuSans-69" x="346.630859"/>
      <use xlink:href="#DejaVuSans-74" x="374.414062"/>
      <use xlink:href="#DejaVuSans-79" x="413.623047"/>
     </g>
    </g>
   </g>
   <g id="line2d_13">
    <path d="M 66.091364 174.656364 
L 69.822254 131.661818 
L 73.553145 113.958182 
L 77.284035 98.783636 
L 81.014926 90.690545 
L 84.745816 84.452121 
L 88.476707 77.828312 
L 92.207597 73.492727 
L 95.938488 70.120606 
L 99.669378 68.434545 
L 103.400269 66.135372 
L 107.13116 65.062424 
L 110.86205 64.154545 
L 114.592941 62.653766 
L 118.323831 62.027515 
L 122.054722 61.795682 
L 125.785612 61.591123 
L 129.516503 61.971313 
L 133.247393 62.577703 
L 136.978284 62.111818 
L 140.709174 62.653766 
L 144.440065 62.916529 
L 148.170955 64.475968 
L 151.901846 65.273182 
L 155.632737 65.197309 
L 159.363627 66.294545 
L 163.094518 66.935825 
L 166.825408 68.253896 
L 170.556299 69.481066 
L 174.287189 69.783394 
L 178.01808 70.718886 
L 181.74897 72.38625 
L 185.479861 73.492727 
L 189.210751 75.129198 
L 192.941642 74.236578 
L 196.672532 76.170588 
L 200.403423 77.955829 
L 204.134314 80.78246 
L 207.865204 84.650481 
L 211.596095 88.369733 
L 215.326985 92.684064 
L 219.057876 97.295936 
L 222.788766 102.800428 
L 226.519657 108.30492 
L 230.250547 114.255722 
L 233.981438 119.760214 
L 237.712328 125.264706 
L 241.443219 131.364278 
L 245.174109 137.31508 
L 248.905 143.265882 
L 252.635891 149.514225 
L 256.366781 155.316257 
L 260.097672 161.118289 
L 263.828562 167.812941 
L 267.559453 173.763743 
L 271.290343 180.160856 
L 275.021234 185.219037 
L 278.752124 191.02107 
L 282.483015 197.418182 
L 286.213905 203.220214 
L 289.944796 208.873476 
L 293.675686 213.931658 
L 297.406577 219.28738 
L 301.137468 225.386952 
L 304.868358 231.040214 
L 308.599249 235.800856 
L 312.330139 240.859037 
L 316.06103 245.619679 
L 319.79192 249.934011 
L 323.522811 253.950802 
L 327.253701 258.413904 
L 330.984592 262.579465 
L 334.715482 265.108556 
L 338.446373 268.232727 
L 342.177263 271.356898 
L 345.908154 273.885989 
L 349.639045 275.67123 
L 353.369935 277.15893 
L 357.100826 278.497861 
L 360.831716 279.985561 
L 364.562607 281.175722 
L 368.293497 282.365882 
L 372.024388 283.407273 
L 375.755278 284.151123 
L 379.486169 284.746203 
L 383.217059 285.341283 
L 386.94795 285.787594 
L 390.67884 285.936364 
L 394.409731 286.382674 
L 398.140622 286.382674 
L 401.871512 286.977754 
L 405.602403 287.126524 
L 409.333293 287.275294 
L 413.064184 287.126524 
L 416.795074 287.424064 
L 420.525965 287.424064 
L 424.256855 287.424064 
L 427.987746 287.572834 
L 431.718636 287.424064 
" clip-path="url(#pf69d0296d1)" style="fill: none; stroke: #0000ff; stroke-linecap: square"/>
    <defs>
     <path id="m3922934101" d="M -0.49999 0.49999 
L 0.50001 0.49999 
L 0.50001 -0.50001 
L -0.49999 -0.50001 
z
"/>
    </defs>
    <g clip-path="url(#pf69d0296d1)">
     <use xlink:href="#m3922934101" x="66.091364" y="174.656364" style="fill: #0000ff"/>
     <use xlink:href="#m3922934101" x="69.822254" y="131.661818" style="fill: #0000ff"/>
     <use xlink:href="#m3922934101" x="73.553145" y="113.958182" style="fill: #0000ff"/>
     <use xlink:href="#m3922934101" x="77.284035" y="98.783636" style="fill: #0000ff"/>
     <use xlink:href="#m3922934101" x="81.014926" y="90.690545" style="fill: #0000ff"/>
     <use xlink:href="#m3922934101" x="84.745816" y="84.452121" style="fill: #0000ff"/>
     <use xlink:href="#m3922934101" x="88.476707" y="77.828312" style="fill: #0000ff"/>
     <use xlink:href="#m3922934101" x="92.207597" y="73.492727" style="fill: #0000ff"/>
     <use xlink:href="#m3922934101" x="95.938488" y="70.120606" style="fill: #0000ff"/>
     <use xlink:href="#m3922934101" x="99.669378" y="68.434545" style="fill: #0000ff"/>
     <use xlink:href="#m3922934101" x="103.400269" y="66.135372" style="fill: #0000ff"/>
     <use xlink:href="#m3922934101" x="107.13116" y="65.062424" style="fill: #0000ff"/>
     <use xlink:href="#m3922934101" x="110.86205" y="64.154545" style="fill: #0000ff"/>
     <use xlink:href="#m3922934101" x="114.592941" y="62.653766" style="fill: #0000ff"/>
     <use xlink:href="#m3922934101" x="118.323831" y="62.027515" style="fill: #0000ff"/>
     <use xlink:href="#m3922934101" x="122.054722" y="61.795682" style="fill: #0000ff"/>
     <use xlink:href="#m3922934101" x="125.785612" y="61.591123" style="fill: #0000ff"/>
     <use xlink:href="#m3922934101" x="129.516503" y="61.971313" style="fill: #0000ff"/>
     <use xlink:href="#m3922934101" x="133.247393" y="62.577703" style="fill: #0000ff"/>
     <use xlink:href="#m3922934101" x="136.978284" y="62.111818" style="fill: #0000ff"/>
     <use xlink:href="#m3922934101" x="140.709174" y="62.653766" style="fill: #0000ff"/>
     <use xlink:href="#m3922934101" x="144.440065" y="62.916529" style="fill: #0000ff"/>
     <use xlink:href="#m3922934101" x="148.170955" y="64.475968" style="fill: #0000ff"/>
     <use xlink:href="#m3922934101" x="151.901846" y="65.273182" style="fill: #0000ff"/>
     <use xlink:href="#m3922934101" x="155.632737" y="65.197309" style="fill: #0000ff"/>
     <use xlink:href="#m3922934101" x="159.363627" y="66.294545" style="fill: #0000ff"/>
     <use xlink:href="#m3922934101" x="163.094518" y="66.935825" style="fill: #0000ff"/>
     <use xlink:href="#m3922934101" x="166.825408" y="68.253896" style="fill: #0000ff"/>
     <use xlink:href="#m3922934101" x="170.556299" y="69.481066" style="fill: #0000ff"/>
     <use xlink:href="#m3922934101" x="174.287189" y="69.783394" style="fill: #0000ff"/>
     <use xlink:href="#m3922934101" x="178.01808" y="70.718886" style="fill: #0000ff"/>
     <use xlink:href="#m3922934101" x="181.74897" y="72.38625" style="fill: #0000ff"/>
     <use xlink:href="#m3922934101" x="185.479861" y="73.492727" style="fill: #0000ff"/>
     <use xlink:href="#m3922934101" x="189.210751" y="75.129198" style="fill: #0000ff"/>
     <use xlink:href="#m3922934101" x="192.941642" y="74.236578" style="fill: #0000ff"/>
     <use xlink:href="#m3922934101" x="196.672532" y="76.170588" style="fill: #0000ff"/>
     <use xlink:href="#m3922934101" x="200.403423" y="77.955829" style="fill: #0000ff"/>
     <use xlink:href="#m3922934101" x="204.134314" y="80.78246" style="fill: #0000ff"/>
     <use xlink:href="#m3922934101" x="207.865204" y="84.650481" style="fill: #0000ff"/>
     <use xlink:href="#m3922934101" x="211.596095" y="88.369733" style="fill: #0000ff"/>
     <use xlink:href="#m3922934101" x="215.326985" y="92.684064" style="fill: #0000ff"/>
     <use xlink:href="#m3922934101" x="219.057876" y="97.295936" style="fill: #0000ff"/>
     <use xlink:href="#m3922934101" x="222.788766" y="102.800428" style="fill: #0000ff"/>
     <use xlink:href="#m3922934101" x="226.519657" y="108.30492" style="fill: #0000ff"/>
     <use xlink:href="#m3922934101" x="230.250547" y="114.255722" style="fill: #0000ff"/>
     <use xlink:href="#m3922934101" x="233.981438" y="119.760214" style="fill: #0000ff"/>
     <use xlink:href="#m3922934101" x="237.712328" y="125.264706" style="fill: #0000ff"/>
     <use xlink:href="#m3922934101" x="241.443219" y="131.364278" style="fill: #0000ff"/>
     <use xlink:href="#m3922934101" x="245.174109" y="137.31508" style="fill: #0000ff"/>
     <use xlink:href="#m3922934101" x="248.905" y="143.265882" style="fill: #0000ff"/>
     <use xlink:href="#m3922934101" x="252.635891" y="149.514225" style="fill: #0000ff"/>
     <use xlink:href="#m3922934101" x="256.366781" y="155.316257" style="fill: #0000ff"/>
     <use xlink:href="#m3922934101" x="260.097672" y="161.118289" style="fill: #0000ff"/>
     <use xlink:href="#m3922934101" x="263.828562" y="167.812941" style="fill: #0000ff"/>
     <use xlink:href="#m3922934101" x="267.559453" y="173.763743" style="fill: #0000ff"/>
     <use xlink:href="#m3922934101" x="271.290343" y="180.160856" style="fill: #0000ff"/>
     <use xlink:href="#m3922934101" x="275.021234" y="185.219037" style="fill: #0000ff"/>
     <use xlink:href="#m3922934101" x="278.752124" y="191.02107" style="fill: #0000ff"/>
     <use xlink:href="#m3922934101" x="282.483015" y="197.418182" style="fill: #0000ff"/>
     <use xlink:href="#m3922934101" x="286.213905" y="203.220214" style="fill: #0000ff"/>
     <use xlink:href="#m3922934101" x="289.944796" y="208.873476" style="fill: #0000ff"/>
     <use xlink:href="#m3922934101" x="293.675686" y="213.931658" style="fill: #0000ff"/>
     <use xlink:href="#m3922934101" x="297.406577" y="219.28738" style="fill: #0000ff"/>
     <use xlink:href="#m3922934101" x="301.137468" y="225.386952" style="fill: #0000ff"/>
     <use xlink:href="#m3922934101" x="304.868358" y="231.040214" style="fill: #0000ff"/>
     <use xlink:href="#m3922934101" x="308.599249" y="235.800856" style="fill: #0000ff"/>
     <use xlink:href="#m3922934101" x="312.330139" y="240.859037" style="fill: #0000ff"/>
     <use xlink:href="#m3922934101" x="316.06103" y="245.619679" style="fill: #0000ff"/>
     <use xlink:href="#m3922934101" x="319.79192" y="249.934011" style="fill: #0000ff"/>
     <use xlink:href="#m3922934101" x="323.522811" y="253.950802" style="fill: #0000ff"/>
     <use xlink:href="#m3922934101" x="327.253701" y="258.413904" style="fill: #0000ff"/>
     <use xlink:href="#m3922934101" x="330.984592" y="262.579465" style="fill: #0000ff"/>
     <use xlink:href="#m3922934101" x="334.715482" y="265.108556" style="fill: #0000ff"/>
     <use xlink:href="#m3922934101" x="338.446373" y="268.232727" style="fill: #0000ff"/>
     <use xlink:href="#m3922934101" x="342.177263" y="271.356898" style="fill: #0000ff"/>
     <use xlink:href="#m3922934101" x="345.908154" y="273.885989" style="fill: #0000ff"/>
     <use xlink:href="#m3922934101" x="349.639045" y="275.67123" style="fill: #0000ff"/>
     <use xlink:href="#m3922934101" x="353.369935" y="277.15893" style="fill: #0000ff"/>
     <use xlink:href="#m3922934101" x="357.100826" y="278.497861" style="fill: #0000ff"/>
     <use xlink:href="#m3922934101" x="360.831716" y="279.985561" style="fill: #0000ff"/>
     <use xlink:href="#m3922934101" x="364.562607" y="281.175722" style="fill: #0000ff"/>
     <use xlink:href="#m3922934101" x="368.293497" y="282.365882" style="fill: #0000ff"/>
     <use xlink:href="#m3922934101" x="372.024388" y="283.407273" style="fill: #0000ff"/>
     <use xlink:href="#m3922934101" x="375.755278" y="284.151123" style="fill: #0000ff"/>
     <use xlink:href="#m3922934101" x="379.486169" y="284.746203" style="fill: #0000ff"/>
     <use xlink:href="#m3922934101" x="383.217059" y="285.341283" style="fill: #0000ff"/>
     <use xlink:href="#m3922934101" x="386.94795" y="285.787594" style="fill: #0000ff"/>
     <use xlink:href="#m3922934101" x="390.67884" y="285.936364" style="fill: #0000ff"/>
     <use xlink:href="#m3922934101" x="394.409731" y="286.382674" style="fill: #0000ff"/>
     <use xlink:href="#m3922934101" x="398.140622" y="286.382674" style="fill: #0000ff"/>
     <use xlink:href="#m3922934101" x="401.871512" y="286.977754" style="fill: #0000ff"/>
     <use xlink:href="#m3922934101" x="405.602403" y="287.126524" style="fill: #0000ff"/>
     <use xlink:href="#m3922934101" x="409.333293" y="287.275294" style="fill: #0000ff"/>
     <use xlink:href="#m3922934101" x="413.064184" y="287.126524" style="fill: #0000ff"/>
     <use xlink:href="#m3922934101" x="416.795074" y="287.424064" style="fill: #0000ff"/>
     <use xlink:href="#m3922934101" x="420.525965" y="287.424064" style="fill: #0000ff"/>
     <use xlink:href="#m3922934101" x="424.256855" y="287.424064" style="fill: #0000ff"/>
     <use xlink:href="#m3922934101" x="427.987746" y="287.572834" style="fill: #0000ff"/>
     <use xlink:href="#m3922934101" x="431.718636" y="287.424064" style="fill: #0000ff"/>
    </g>
   </g>
   <g id="line2d_14">
    <path d="M 66.091364 174.656364 
L 69.822254 153.159091 
L 73.553145 140.092121 
L 77.284035 129.765 
L 81.014926 121.950109 
L 84.745816 115.700444 
L 88.476707 110.29014 
L 92.207597 105.690463 
L 95.938488 101.738257 
L 99.669378 98.407886 
L 103.400269 95.474021 
L 107.13116 92.939721 
L 110.86205 90.725477 
L 114.592941 88.720355 
L 118.323831 86.940832 
L 122.054722 85.36926 
L 125.785612 83.970546 
L 129.516503 82.748367 
L 133.247393 81.686753 
L 136.978284 80.708006 
L 140.709174 79.84828 
L 144.440065 79.078655 
L 148.170955 78.443756 
L 151.901846 77.894982 
L 155.632737 77.387075 
L 159.363627 76.960439 
L 163.094518 76.589157 
L 166.825408 76.291469 
L 170.556299 76.056628 
L 174.287189 75.84752 
L 178.01808 75.68208 
L 181.74897 75.579085 
L 185.479861 75.515863 
L 189.210751 75.50449 
L 192.941642 75.468264 
L 196.672532 75.487773 
L 200.403423 75.554477 
L 204.134314 75.692056 
L 207.865204 75.921759 
L 211.596095 76.232958 
L 215.326985 76.634205 
L 219.057876 77.126151 
L 222.788766 77.723227 
L 226.519657 78.418265 
L 230.250547 79.214653 
L 233.981438 80.096079 
L 237.712328 81.057113 
L 241.443219 82.105179 
L 245.174109 83.231912 
L 248.905 84.432591 
L 252.635891 85.708702 
L 256.366781 87.047308 
L 260.097672 88.444874 
L 263.828562 89.914653 
L 267.559453 91.439182 
L 271.290343 93.023498 
L 275.021234 94.640963 
L 278.752124 96.302689 
L 282.483015 98.016511 
L 286.213905 99.769906 
L 289.944796 101.558489 
L 293.675686 103.37096 
L 297.406577 105.210903 
L 301.137468 107.088654 
L 304.868358 108.995601 
L 308.599249 110.916893 
L 312.330139 112.856328 
L 316.06103 114.80873 
L 319.79192 116.767067 
L 323.522811 118.726835 
L 327.253701 120.694258 
L 330.984592 122.664886 
L 334.715482 124.616169 
L 338.446373 126.556934 
L 342.177263 128.4876 
L 345.908154 130.400737 
L 349.639045 132.287366 
L 353.369935 134.144694 
L 357.100826 135.971949 
L 360.831716 137.772119 
L 364.562607 139.542534 
L 368.293497 141.284282 
L 372.024388 142.996608 
L 375.755278 144.677019 
L 379.486169 146.324891 
L 383.217059 147.941361 
L 386.94795 149.5258 
L 390.67884 151.07592 
L 394.409731 152.596221 
L 398.140622 154.082737 
L 401.871512 155.543122 
L 405.602403 156.973376 
L 409.333293 158.374472 
L 413.064184 159.744175 
L 416.795074 161.088174 
L 420.525965 162.404173 
L 424.256855 163.693038 
L 427.987746 164.957117 
L 431.718636 166.194157 
" clip-path="url(#pf69d0296d1)" style="fill: none; stroke: #ff0000; stroke-opacity: 0.5; stroke-width: 0.5; stroke-linecap: square"/>
    <defs>
     <path id="mf539458225" d="M -0.49999 0.49999 
L 0.50001 0.49999 
L 0.50001 -0.50001 
L -0.49999 -0.50001 
z
"/>
    </defs>
    <g clip-path="url(#pf69d0296d1)">
     <use xlink:href="#mf539458225" x="66.091364" y="174.656364" style="fill: #ff0000; fill-opacity: 0.5"/>
     <use xlink:href="#mf539458225" x="69.822254" y="153.159091" style="fill: #ff0000; fill-opacity: 0.5"/>
     <use xlink:href="#mf539458225" x="73.553145" y="140.092121" style="fill: #ff0000; fill-opacity: 0.5"/>
     <use xlink:href="#mf539458225" x="77.284035" y="129.765" style="fill: #ff0000; fill-opacity: 0.5"/>
     <use xlink:href="#mf539458225" x="81.014926" y="121.950109" style="fill: #ff0000; fill-opacity: 0.5"/>
     <use xlink:href="#mf539458225" x="84.745816" y="115.700444" style="fill: #ff0000; fill-opacity: 0.5"/>
     <use xlink:href="#mf539458225" x="88.476707" y="110.29014" style="fill: #ff0000; fill-opacity: 0.5"/>
     <use xlink:href="#mf539458225" x="92.207597" y="105.690463" style="fill: #ff0000; fill-opacity: 0.5"/>
     <use xlink:href="#mf539458225" x="95.938488" y="101.738257" style="fill: #ff0000; fill-opacity: 0.5"/>
     <use xlink:href="#mf539458225" x="99.669378" y="98.407886" style="fill: #ff0000; fill-opacity: 0.5"/>
     <use xlink:href="#mf539458225" x="103.400269" y="95.474021" style="fill: #ff0000; fill-opacity: 0.5"/>
     <use xlink:href="#mf539458225" x="107.13116" y="92.939721" style="fill: #ff0000; fill-opacity: 0.5"/>
     <use xlink:href="#mf539458225" x="110.86205" y="90.725477" style="fill: #ff0000; fill-opacity: 0.5"/>
     <use xlink:href="#mf539458225" x="114.592941" y="88.720355" style="fill: #ff0000; fill-opacity: 0.5"/>
     <use xlink:href="#mf539458225" x="118.323831" y="86.940832" style="fill: #ff0000; fill-opacity: 0.5"/>
     <use xlink:href="#mf539458225" x="122.054722" y="85.36926" style="fill: #ff0000; fill-opacity: 0.5"/>
     <use xlink:href="#mf539458225" x="125.785612" y="83.970546" style="fill: #ff0000; fill-opacity: 0.5"/>
     <use xlink:href="#mf539458225" x="129.516503" y="82.748367" style="fill: #ff0000; fill-opacity: 0.5"/>
     <use xlink:href="#mf539458225" x="133.247393" y="81.686753" style="fill: #ff0000; fill-opacity: 0.5"/>
     <use xlink:href="#mf539458225" x="136.978284" y="80.708006" style="fill: #ff0000; fill-opacity: 0.5"/>
     <use xlink:href="#mf539458225" x="140.709174" y="79.84828" style="fill: #ff0000; fill-opacity: 0.5"/>
     <use xlink:href="#mf539458225" x="144.440065" y="79.078655" style="fill: #ff0000; fill-opacity: 0.5"/>
     <use xlink:href="#mf539458225" x="148.170955" y="78.443756" style="fill: #ff0000; fill-opacity: 0.5"/>
     <use xlink:href="#mf539458225" x="151.901846" y="77.894982" style="fill: #ff0000; fill-opacity: 0.5"/>
     <use xlink:href="#mf539458225" x="155.632737" y="77.387075" style="fill: #ff0000; fill-opacity: 0.5"/>
     <use xlink:href="#mf539458225" x="159.363627" y="76.960439" style="fill: #ff0000; fill-opacity: 0.5"/>
     <use xlink:href="#mf539458225" x="163.094518" y="76.589157" style="fill: #ff0000; fill-opacity: 0.5"/>
     <use xlink:href="#mf539458225" x="166.825408" y="76.291469" style="fill: #ff0000; fill-opacity: 0.5"/>
     <use xlink:href="#mf539458225" x="170.556299" y="76.056628" style="fill: #ff0000; fill-opacity: 0.5"/>
     <use xlink:href="#mf539458225" x="174.287189" y="75.84752" style="fill: #ff0000; fill-opacity: 0.5"/>
     <use xlink:href="#mf539458225" x="178.01808" y="75.68208" style="fill: #ff0000; fill-opacity: 0.5"/>
     <use xlink:href="#mf539458225" x="181.74897" y="75.579085" style="fill: #ff0000; fill-opacity: 0.5"/>
     <use xlink:href="#mf539458225" x="185.479861" y="75.515863" style="fill: #ff0000; fill-opacity: 0.5"/>
     <use xlink:href="#mf539458225" x="189.210751" y="75.50449" style="fill: #ff0000; fill-opacity: 0.5"/>
     <use xlink:href="#mf539458225" x="192.941642" y="75.468264" style="fill: #ff0000; fill-opacity: 0.5"/>
     <use xlink:href="#mf539458225" x="196.672532" y="75.487773" style="fill: #ff0000; fill-opacity: 0.5"/>
     <use xlink:href="#mf539458225" x="200.403423" y="75.554477" style="fill: #ff0000; fill-opacity: 0.5"/>
     <use xlink:href="#mf539458225" x="204.134314" y="75.692056" style="fill: #ff0000; fill-opacity: 0.5"/>
     <use xlink:href="#mf539458225" x="207.865204" y="75.921759" style="fill: #ff0000; fill-opacity: 0.5"/>
     <use xlink:href="#mf539458225" x="211.596095" y="76.232958" style="fill: #ff0000; fill-opacity: 0.5"/>
     <use xlink:href="#mf539458225" x="215.326985" y="76.634205" style="fill: #ff0000; fill-opacity: 0.5"/>
     <use xlink:href="#mf539458225" x="219.057876" y="77.126151" style="fill: #ff0000; fill-opacity: 0.5"/>
     <use xlink:href="#mf539458225" x="222.788766" y="77.723227" style="fill: #ff0000; fill-opacity: 0.5"/>
     <use xlink:href="#mf539458225" x="226.519657" y="78.418265" style="fill: #ff0000; fill-opacity: 0.5"/>
     <use xlink:href="#mf539458225" x="230.250547" y="79.214653" style="fill: #ff0000; fill-opacity: 0.5"/>
     <use xlink:href="#mf539458225" x="233.981438" y="80.096079" style="fill: #ff0000; fill-opacity: 0.5"/>
     <use xlink:href="#mf539458225" x="237.712328" y="81.057113" style="fill: #ff0000; fill-opacity: 0.5"/>
     <use xlink:href="#mf539458225" x="241.443219" y="82.105179" style="fill: #ff0000; fill-opacity: 0.5"/>
     <use xlink:href="#mf539458225" x="245.174109" y="83.231912" style="fill: #ff0000; fill-opacity: 0.5"/>
     <use xlink:href="#mf539458225" x="248.905" y="84.432591" style="fill: #ff0000; fill-opacity: 0.5"/>
     <use xlink:href="#mf539458225" x="252.635891" y="85.708702" style="fill: #ff0000; fill-opacity: 0.5"/>
     <use xlink:href="#mf539458225" x="256.366781" y="87.047308" style="fill: #ff0000; fill-opacity: 0.5"/>
     <use xlink:href="#mf539458225" x="260.097672" y="88.444874" style="fill: #ff0000; fill-opacity: 0.5"/>
     <use xlink:href="#mf539458225" x="263.828562" y="89.914653" style="fill: #ff0000; fill-opacity: 0.5"/>
     <use xlink:href="#mf539458225" x="267.559453" y="91.439182" style="fill: #ff0000; fill-opacity: 0.5"/>
     <use xlink:href="#mf539458225" x="271.290343" y="93.023498" style="fill: #ff0000; fill-opacity: 0.5"/>
     <use xlink:href="#mf539458225" x="275.021234" y="94.640963" style="fill: #ff0000; fill-opacity: 0.5"/>
     <use xlink:href="#mf539458225" x="278.752124" y="96.302689" style="fill: #ff0000; fill-opacity: 0.5"/>
     <use xlink:href="#mf539458225" x="282.483015" y="98.016511" style="fill: #ff0000; fill-opacity: 0.5"/>
     <use xlink:href="#mf539458225" x="286.213905" y="99.769906" style="fill: #ff0000; fill-opacity: 0.5"/>
     <use xlink:href="#mf539458225" x="289.944796" y="101.558489" style="fill: #ff0000; fill-opacity: 0.5"/>
     <use xlink:href="#mf539458225" x="293.675686" y="103.37096" style="fill: #ff0000; fill-opacity: 0.5"/>
     <use xlink:href="#mf539458225" x="297.406577" y="105.210903" style="fill: #ff0000; fill-opacity: 0.5"/>
     <use xlink:href="#mf539458225" x="301.137468" y="107.088654" style="fill: #ff0000; fill-opacity: 0.5"/>
     <use xlink:href="#mf539458225" x="304.868358" y="108.995601" style="fill: #ff0000; fill-opacity: 0.5"/>
     <use xlink:href="#mf539458225" x="308.599249" y="110.916893" style="fill: #ff0000; fill-opacity: 0.5"/>
     <use xlink:href="#mf539458225" x="312.330139" y="112.856328" style="fill: #ff0000; fill-opacity: 0.5"/>
     <use xlink:href="#mf539458225" x="316.06103" y="114.80873" style="fill: #ff0000; fill-opacity: 0.5"/>
     <use xlink:href="#mf539458225" x="319.79192" y="116.767067" style="fill: #ff0000; fill-opacity: 0.5"/>
     <use xlink:href="#mf539458225" x="323.522811" y="118.726835" style="fill: #ff0000; fill-opacity: 0.5"/>
     <use xlink:href="#mf539458225" x="327.253701" y="120.694258" style="fill: #ff0000; fill-opacity: 0.5"/>
     <use xlink:href="#mf539458225" x="330.984592" y="122.664886" style="fill: #ff0000; fill-opacity: 0.5"/>
     <use xlink:href="#mf539458225" x="334.715482" y="124.616169" style="fill: #ff0000; fill-opacity: 0.5"/>
     <use xlink:href="#mf539458225" x="338.446373" y="126.556934" style="fill: #ff0000; fill-opacity: 0.5"/>
     <use xlink:href="#mf539458225" x="342.177263" y="128.4876" style="fill: #ff0000; fill-opacity: 0.5"/>
     <use xlink:href="#mf539458225" x="345.908154" y="130.400737" style="fill: #ff0000; fill-opacity: 0.5"/>
     <use xlink:href="#mf539458225" x="349.639045" y="132.287366" style="fill: #ff0000; fill-opacity: 0.5"/>
     <use xlink:href="#mf539458225" x="353.369935" y="134.144694" style="fill: #ff0000; fill-opacity: 0.5"/>
     <use xlink:href="#mf539458225" x="357.100826" y="135.971949" style="fill: #ff0000; fill-opacity: 0.5"/>
     <use xlink:href="#mf539458225" x="360.831716" y="137.772119" style="fill: #ff0000; fill-opacity: 0.5"/>
     <use xlink:href="#mf539458225" x="364.562607" y="139.542534" style="fill: #ff0000; fill-opacity: 0.5"/>
     <use xlink:href="#mf539458225" x="368.293497" y="141.284282" style="fill: #ff0000; fill-opacity: 0.5"/>
     <use xlink:href="#mf539458225" x="372.024388" y="142.996608" style="fill: #ff0000; fill-opacity: 0.5"/>
     <use xlink:href="#mf539458225" x="375.755278" y="144.677019" style="fill: #ff0000; fill-opacity: 0.5"/>
     <use xlink:href="#mf539458225" x="379.486169" y="146.324891" style="fill: #ff0000; fill-opacity: 0.5"/>
     <use xlink:href="#mf539458225" x="383.217059" y="147.941361" style="fill: #ff0000; fill-opacity: 0.5"/>
     <use xlink:href="#mf539458225" x="386.94795" y="149.5258" style="fill: #ff0000; fill-opacity: 0.5"/>
     <use xlink:href="#mf539458225" x="390.67884" y="151.07592" style="fill: #ff0000; fill-opacity: 0.5"/>
     <use xlink:href="#mf539458225" x="394.409731" y="152.596221" style="fill: #ff0000; fill-opacity: 0.5"/>
     <use xlink:href="#mf539458225" x="398.140622" y="154.082737" style="fill: #ff0000; fill-opacity: 0.5"/>
     <use xlink:href="#mf539458225" x="401.871512" y="155.543122" style="fill: #ff0000; fill-opacity: 0.5"/>
     <use xlink:href="#mf539458225" x="405.602403" y="156.973376" style="fill: #ff0000; fill-opacity: 0.5"/>
     <use xlink:href="#mf539458225" x="409.333293" y="158.374472" style="fill: #ff0000; fill-opacity: 0.5"/>
     <use xlink:href="#mf539458225" x="413.064184" y="159.744175" style="fill: #ff0000; fill-opacity: 0.5"/>
     <use xlink:href="#mf539458225" x="416.795074" y="161.088174" style="fill: #ff0000; fill-opacity: 0.5"/>
     <use xlink:href="#mf539458225" x="420.525965" y="162.404173" style="fill: #ff0000; fill-opacity: 0.5"/>
     <use xlink:href="#mf539458225" x="424.256855" y="163.693038" style="fill: #ff0000; fill-opacity: 0.5"/>
     <use xlink:href="#mf539458225" x="427.987746" y="164.957117" style="fill: #ff0000; fill-opacity: 0.5"/>
     <use xlink:href="#mf539458225" x="431.718636" y="166.194157" style="fill: #ff0000; fill-opacity: 0.5"/>
    </g>
   </g>
   <g id="line2d_15">
    <path d="M 47.81 290.994545 
L 450 290.994545 
" clip-path="url(#pf69d0296d1)" style="fill: none; stroke-dasharray: 0.555,0.24; stroke-dashoffset: 0; stroke: #ff0000; stroke-width: 0.15"/>
   </g>
   <g id="line2d_16">
    <path d="M 47.81 164.54 
L 450 164.54 
" clip-path="url(#pf69d0296d1)" style="fill: none; stroke-dasharray: 0.555,0.24; stroke-dashoffset: 0; stroke: #ff0000; stroke-width: 0.15"/>
   </g>
   <g id="line2d_17">
    <path d="M 47.81 38.085455 
L 450 38.085455 
" clip-path="url(#pf69d0296d1)" style="fill: none; stroke-dasharray: 0.555,0.24; stroke-dashoffset: 0; stroke: #ff0000; stroke-width: 0.15"/>
   </g>
   <g id="patch_3">
    <path d="M 47.81 303.64 
L 47.81 25.44 
" style="fill: none; stroke: #000000; stroke-width: 0.8; stroke-linejoin: miter; stroke-linecap: square"/>
   </g>
   <g id="patch_4">
    <path d="M 450 303.64 
L 450 25.44 
" style="fill: none; stroke: #000000; stroke-width: 0.8; stroke-linejoin: miter; stroke-linecap: square"/>
   </g>
   <g id="patch_5">
    <path d="M 47.81 303.64 
L 450 303.64 
" style="fill: none; stroke: #000000; stroke-width: 0.8; stroke-linejoin: miter; stroke-linecap: square"/>
   </g>
   <g id="patch_6">
    <path d="M 47.81 25.44 
L 450 25.44 
" style="fill: none; stroke: #000000; stroke-width: 0.8; stroke-linejoin: miter; stroke-linecap: square"/>
   </g>
   <g id="text_15">
    <!-- Similarity LLM-DEFECT with sw34-1 - 20240409114154 - 50 games -->
    <g transform="translate(47.81125 19.44) scale(0.12 -0.12)">
     <defs>
      <path id="DejaVuSans-20" transform="scale(0.015625)"/>
      <path id="DejaVuSans-4c" d="M 628 4666 
L 1259 4666 
L 1259 531 
L 3531 531 
L 3531 0 
L 628 0 
L 628 4666 
z
" transform="scale(0.015625)"/>
      <path id="DejaVuSans-4d" d="M 628 4666 
L 1569 4666 
L 2759 1491 
L 3956 4666 
L 4897 4666 
L 4897 0 
L 4281 0 
L 4281 4097 
L 3078 897 
L 2444 897 
L 1241 4097 
L 1241 0 
L 628 0 
L 628 4666 
z
" transform="scale(0.015625)"/>
      <path id="DejaVuSans-2d" d="M 313 2009 
L 1997 2009 
L 1997 1497 
L 313 1497 
L 313 2009 
z
" transform="scale(0.015625)"/>
      <path id="DejaVuSans-44" d="M 1259 4147 
L 1259 519 
L 2022 519 
Q 2988 519 3436 956 
Q 3884 1394 3884 2338 
Q 3884 3275 3436 3711 
Q 2988 4147 2022 4147 
L 1259 4147 
z
M 628 4666 
L 1925 4666 
Q 3281 4666 3915 4102 
Q 4550 3538 4550 2338 
Q 4550 1131 3912 565 
Q 3275 0 1925 0 
L 628 0 
L 628 4666 
z
" transform="scale(0.015625)"/>
      <path id="DejaVuSans-45" d="M 628 4666 
L 3578 4666 
L 3578 4134 
L 1259 4134 
L 1259 2753 
L 3481 2753 
L 3481 2222 
L 1259 2222 
L 1259 531 
L 3634 531 
L 3634 0 
L 628 0 
L 628 4666 
z
" transform="scale(0.015625)"/>
      <path id="DejaVuSans-46" d="M 628 4666 
L 3309 4666 
L 3309 4134 
L 1259 4134 
L 1259 2759 
L 3109 2759 
L 3109 2228 
L 1259 2228 
L 1259 0 
L 628 0 
L 628 4666 
z
" transform="scale(0.015625)"/>
      <path id="DejaVuSans-43" d="M 4122 4306 
L 4122 3641 
Q 3803 3938 3442 4084 
Q 3081 4231 2675 4231 
Q 1875 4231 1450 3742 
Q 1025 3253 1025 2328 
Q 1025 1406 1450 917 
Q 1875 428 2675 428 
Q 3081 428 3442 575 
Q 3803 722 4122 1019 
L 4122 359 
Q 3791 134 3420 21 
Q 3050 -91 2638 -91 
Q 1578 -91 968 557 
Q 359 1206 359 2328 
Q 359 3453 968 4101 
Q 1578 4750 2638 4750 
Q 3056 4750 3426 4639 
Q 3797 4528 4122 4306 
z
" transform="scale(0.015625)"/>
      <path id="DejaVuSans-54" d="M -19 4666 
L 3928 4666 
L 3928 4134 
L 2272 4134 
L 2272 0 
L 1638 0 
L 1638 4134 
L -19 4134 
L -19 4666 
z
" transform="scale(0.015625)"/>
      <path id="DejaVuSans-77" d="M 269 3500 
L 844 3500 
L 1563 769 
L 2278 3500 
L 2956 3500 
L 3675 769 
L 4391 3500 
L 4966 3500 
L 4050 0 
L 3372 0 
L 2619 2869 
L 1863 0 
L 1184 0 
L 269 3500 
z
" transform="scale(0.015625)"/>
      <path id="DejaVuSans-68" d="M 3513 2113 
L 3513 0 
L 2938 0 
L 2938 2094 
Q 2938 2591 2744 2837 
Q 2550 3084 2163 3084 
Q 1697 3084 1428 2787 
Q 1159 2491 1159 1978 
L 1159 0 
L 581 0 
L 581 4863 
L 1159 4863 
L 1159 2956 
Q 1366 3272 1645 3428 
Q 1925 3584 2291 3584 
Q 2894 3584 3203 3211 
Q 3513 2838 3513 2113 
z
" transform="scale(0.015625)"/>
      <path id="DejaVuSans-73" d="M 2834 3397 
L 2834 2853 
Q 2591 2978 2328 3040 
Q 2066 3103 1784 3103 
Q 1356 3103 1142 2972 
Q 928 2841 928 2578 
Q 928 2378 1081 2264 
Q 1234 2150 1697 2047 
L 1894 2003 
Q 2506 1872 2764 1633 
Q 3022 1394 3022 966 
Q 3022 478 2636 193 
Q 2250 -91 1575 -91 
Q 1294 -91 989 -36 
Q 684 19 347 128 
L 347 722 
Q 666 556 975 473 
Q 1284 391 1588 391 
Q 1994 391 2212 530 
Q 2431 669 2431 922 
Q 2431 1156 2273 1281 
Q 2116 1406 1581 1522 
L 1381 1569 
Q 847 1681 609 1914 
Q 372 2147 372 2553 
Q 372 3047 722 3315 
Q 1072 3584 1716 3584 
Q 2034 3584 2315 3537 
Q 2597 3491 2834 3397 
z
" transform="scale(0.015625)"/>
      <path id="DejaVuSans-33" d="M 2597 2516 
Q 3050 2419 3304 2112 
Q 3559 1806 3559 1356 
Q 3559 666 3084 287 
Q 2609 -91 1734 -91 
Q 1441 -91 1130 -33 
Q 819 25 488 141 
L 488 750 
Q 750 597 1062 519 
Q 1375 441 1716 441 
Q 2309 441 2620 675 
Q 2931 909 2931 1356 
Q 2931 1769 2642 2001 
Q 2353 2234 1838 2234 
L 1294 2234 
L 1294 2753 
L 1863 2753 
Q 2328 2753 2575 2939 
Q 2822 3125 2822 3475 
Q 2822 3834 2567 4026 
Q 2313 4219 1838 4219 
Q 1578 4219 1281 4162 
Q 984 4106 628 3988 
L 628 4550 
Q 988 4650 1302 4700 
Q 1616 4750 1894 4750 
Q 2613 4750 3031 4423 
Q 3450 4097 3450 3541 
Q 3450 3153 3228 2886 
Q 3006 2619 2597 2516 
z
" transform="scale(0.015625)"/>
      <path id="DejaVuSans-39" d="M 703 97 
L 703 672 
Q 941 559 1184 500 
Q 1428 441 1663 441 
Q 2288 441 2617 861 
Q 2947 1281 2994 2138 
Q 2813 1869 2534 1725 
Q 2256 1581 1919 1581 
Q 1219 1581 811 2004 
Q 403 2428 403 3163 
Q 403 3881 828 4315 
Q 1253 4750 1959 4750 
Q 2769 4750 3195 4129 
Q 3622 3509 3622 2328 
Q 3622 1225 3098 567 
Q 2575 -91 1691 -91 
Q 1453 -91 1209 -44 
Q 966 3 703 97 
z
M 1959 2075 
Q 2384 2075 2632 2365 
Q 2881 2656 2881 3163 
Q 2881 3666 2632 3958 
Q 2384 4250 1959 4250 
Q 1534 4250 1286 3958 
Q 1038 3666 1038 3163 
Q 1038 2656 1286 2365 
Q 1534 2075 1959 2075 
z
" transform="scale(0.015625)"/>
      <path id="DejaVuSans-35" d="M 691 4666 
L 3169 4666 
L 3169 4134 
L 1269 4134 
L 1269 2991 
Q 1406 3038 1543 3061 
Q 1681 3084 1819 3084 
Q 2600 3084 3056 2656 
Q 3513 2228 3513 1497 
Q 3513 744 3044 326 
Q 2575 -91 1722 -91 
Q 1428 -91 1123 -41 
Q 819 9 494 109 
L 494 744 
Q 775 591 1075 516 
Q 1375 441 1709 441 
Q 2250 441 2565 725 
Q 2881 1009 2881 1497 
Q 2881 1984 2565 2268 
Q 2250 2553 1709 2553 
Q 1456 2553 1204 2497 
Q 953 2441 691 2322 
L 691 4666 
z
" transform="scale(0.015625)"/>
      <path id="DejaVuSans-67" d="M 2906 1791 
Q 2906 2416 2648 2759 
Q 2391 3103 1925 3103 
Q 1463 3103 1205 2759 
Q 947 2416 947 1791 
Q 947 1169 1205 825 
Q 1463 481 1925 481 
Q 2391 481 2648 825 
Q 2906 1169 2906 1791 
z
M 3481 434 
Q 3481 -459 3084 -895 
Q 2688 -1331 1869 -1331 
Q 1566 -1331 1297 -1286 
Q 1028 -1241 775 -1147 
L 775 -588 
Q 1028 -725 1275 -790 
Q 1522 -856 1778 -856 
Q 2344 -856 2625 -561 
Q 2906 -266 2906 331 
L 2906 616 
Q 2728 306 2450 153 
Q 2172 0 1784 0 
Q 1141 0 747 490 
Q 353 981 353 1791 
Q 353 2603 747 3093 
Q 1141 3584 1784 3584 
Q 2172 3584 2450 3431 
Q 2728 3278 2906 2969 
L 2906 3500 
L 3481 3500 
L 3481 434 
z
" transform="scale(0.015625)"/>
     </defs>
     <use xlink:href="#DejaVuSans-53"/>
     <use xlink:href="#DejaVuSans-69" x="63.476562"/>
     <use xlink:href="#DejaVuSans-6d" x="91.259766"/>
     <use xlink:href="#DejaVuSans-69" x="188.671875"/>
     <use xlink:href="#DejaVuSans-6c" x="216.455078"/>
     <use xlink:href="#DejaVuSans-61" x="244.238281"/>
     <use xlink:href="#DejaVuSans-72" x="305.517578"/>
     <use xlink:href="#DejaVuSans-69" x="346.630859"/>
     <use xlink:href="#DejaVuSans-74" x="374.414062"/>
     <use xlink:href="#DejaVuSans-79" x="413.623047"/>
     <use xlink:href="#DejaVuSans-20" x="472.802734"/>
     <use xlink:href="#DejaVuSans-4c" x="504.589844"/>
     <use xlink:href="#DejaVuSans-4c" x="560.302734"/>
     <use xlink:href="#DejaVuSans-4d" x="616.015625"/>
     <use xlink:href="#DejaVuSans-2d" x="702.294922"/>
     <use xlink:href="#DejaVuSans-44" x="738.378906"/>
     <use xlink:href="#DejaVuSans-45" x="815.380859"/>
     <use xlink:href="#DejaVuSans-46" x="878.564453"/>
     <use xlink:href="#DejaVuSans-45" x="936.083984"/>
     <use xlink:href="#DejaVuSans-43" x="999.267578"/>
     <use xlink:href="#DejaVuSans-54" x="1069.091797"/>
     <use xlink:href="#DejaVuSans-20" x="1130.175781"/>
     <use xlink:href="#DejaVuSans-77" x="1161.962891"/>
     <use xlink:href="#DejaVuSans-69" x="1243.75"/>
     <use xlink:href="#DejaVuSans-74" x="1271.533203"/>
     <use xlink:href="#DejaVuSans-68" x="1310.742188"/>
     <use xlink:href="#DejaVuSans-20" x="1374.121094"/>
     <use xlink:href="#DejaVuSans-73" x="1405.908203"/>
     <use xlink:href="#DejaVuSans-77" x="1458.007812"/>
     <use xlink:href="#DejaVuSans-33" x="1539.794922"/>
     <use xlink:href="#DejaVuSans-34" x="1603.417969"/>
     <use xlink:href="#DejaVuSans-2d" x="1667.041016"/>
     <use xlink:href="#DejaVuSans-31" x="1703.125"/>
     <use xlink:href="#DejaVuSans-20" x="1766.748047"/>
     <use xlink:href="#DejaVuSans-2d" x="1798.535156"/>
     <use xlink:href="#DejaVuSans-20" x="1834.619141"/>
     <use xlink:href="#DejaVuSans-32" x="1866.40625"/>
     <use xlink:href="#DejaVuSans-30" x="1930.029297"/>
     <use xlink:href="#DejaVuSans-32" x="1993.652344"/>
     <use xlink:href="#DejaVuSans-34" x="2057.275391"/>
     <use xlink:href="#DejaVuSans-30" x="2120.898438"/>
     <use xlink:href="#DejaVuSans-34" x="2184.521484"/>
     <use xlink:href="#DejaVuSans-30" x="2248.144531"/>
     <use xlink:href="#DejaVuSans-39" x="2311.767578"/>
     <use xlink:href="#DejaVuSans-31" x="2375.390625"/>
     <use xlink:href="#DejaVuSans-31" x="2439.013672"/>
     <use xlink:href="#DejaVuSans-34" x="2502.636719"/>
     <use xlink:href="#DejaVuSans-31" x="2566.259766"/>
     <use xlink:href="#DejaVuSans-35" x="2629.882812"/>
     <use xlink:href="#DejaVuSans-34" x="2693.505859"/>
     <use xlink:href="#DejaVuSans-20" x="2757.128906"/>
     <use xlink:href="#DejaVuSans-2d" x="2788.916016"/>
     <use xlink:href="#DejaVuSans-20" x="2825"/>
     <use xlink:href="#DejaVuSans-35" x="2856.787109"/>
     <use xlink:href="#DejaVuSans-30" x="2920.410156"/>
     <use xlink:href="#DejaVuSans-20" x="2984.033203"/>
     <use xlink:href="#DejaVuSans-67" x="3015.820312"/>
     <use xlink:href="#DejaVuSans-61" x="3079.296875"/>
     <use xlink:href="#DejaVuSans-6d" x="3140.576172"/>
     <use xlink:href="#DejaVuSans-65" x="3237.988281"/>
     <use xlink:href="#DejaVuSans-73" x="3299.511719"/>
    </g>
   </g>
   <g id="legend_1">
    <g id="patch_7">
     <path d="M 316.903125 62.79625 
L 443 62.79625 
Q 445 62.79625 445 60.79625 
L 445 32.44 
Q 445 30.44 443 30.44 
L 316.903125 30.44 
Q 314.903125 30.44 314.903125 32.44 
L 314.903125 60.79625 
Q 314.903125 62.79625 316.903125 62.79625 
z
" style="fill: #ffffff; opacity: 0.8; stroke: #cccccc; stroke-linejoin: miter"/>
    </g>
    <g id="line2d_18">
     <path d="M 318.903125 38.538437 
L 328.903125 38.538437 
L 338.903125 38.538437 
" style="fill: none; stroke: #0000ff; stroke-linecap: square"/>
     <g>
      <use xlink:href="#m3922934101" x="328.903125" y="38.538437" style="fill: #0000ff"/>
     </g>
    </g>
    <g id="text_16">
     <!-- LLM-DEFECT -->
     <g transform="translate(346.903125 42.038437) scale(0.1 -0.1)">
      <use xlink:href="#DejaVuSans-4c"/>
      <use xlink:href="#DejaVuSans-4c" x="55.712891"/>
      <use xlink:href="#DejaVuSans-4d" x="111.425781"/>
      <use xlink:href="#DejaVuSans-2d" x="197.705078"/>
      <use xlink:href="#DejaVuSans-44" x="233.789062"/>
      <use xlink:href="#DejaVuSans-45" x="310.791016"/>
      <use xlink:href="#DejaVuSans-46" x="373.974609"/>
      <use xlink:href="#DejaVuSans-45" x="431.494141"/>
      <use xlink:href="#DejaVuSans-43" x="494.677734"/>
      <use xlink:href="#DejaVuSans-54" x="564.501953"/>
     </g>
    </g>
    <g id="line2d_19">
     <path d="M 318.903125 53.216562 
L 328.903125 53.216562 
L 338.903125 53.216562 
" style="fill: none; stroke: #ff0000; stroke-opacity: 0.5; stroke-width: 0.5; stroke-linecap: square"/>
     <g>
      <use xlink:href="#mf539458225" x="328.903125" y="53.216562" style="fill: #ff0000; fill-opacity: 0.5"/>
     </g>
    </g>
    <g id="text_17">
     <!-- LLM-DEFECT mean -->
     <g transform="translate(346.903125 56.716562) scale(0.1 -0.1)">
      <use xlink:href="#DejaVuSans-4c"/>
      <use xlink:href="#DejaVuSans-4c" x="55.712891"/>
      <use xlink:href="#DejaVuSans-4d" x="111.425781"/>
      <use xlink:href="#DejaVuSans-2d" x="197.705078"/>
      <use xlink:href="#DejaVuSans-44" x="233.789062"/>
      <use xlink:href="#DejaVuSans-45" x="310.791016"/>
      <use xlink:href="#DejaVuSans-46" x="373.974609"/>
      <use xlink:href="#DejaVuSans-45" x="431.494141"/>
      <use xlink:href="#DejaVuSans-43" x="494.677734"/>
      <use xlink:href="#DejaVuSans-54" x="564.501953"/>
      <use xlink:href="#DejaVuSans-20" x="625.585938"/>
      <use xlink:href="#DejaVuSans-6d" x="657.373047"/>
      <use xlink:href="#DejaVuSans-65" x="754.785156"/>
      <use xlink:href="#DejaVuSans-61" x="816.308594"/>
      <use xlink:href="#DejaVuSans-6e" x="877.587891"/>
     </g>
    </g>
   </g>
  </g>
 </g>
 <defs>
  <clipPath id="pf69d0296d1">
   <rect x="47.81" y="25.44" width="402.19" height="278.2"/>
  </clipPath>
 </defs>
</svg>
