<?xml version="1.0" encoding="utf-8" standalone="no"?>
<!DOCTYPE svg PUBLIC "-//W3C//DTD SVG 1.1//EN"
  "http://www.w3.org/Graphics/SVG/1.1/DTD/svg11.dtd">
<svg xmlns:xlink="http://www.w3.org/1999/xlink" width="460.8pt" height="345.6pt" viewBox="0 0 460.8 345.6" xmlns="http://www.w3.org/2000/svg" version="1.1">
 <metadata>
  <rdf:RDF xmlns:dc="http://purl.org/dc/elements/1.1/" xmlns:cc="http://creativecommons.org/ns#" xmlns:rdf="http://www.w3.org/1999/02/22-rdf-syntax-ns#">
   <cc:Work>
    <dc:type rdf:resource="http://purl.org/dc/dcmitype/StillImage"/>
    <dc:date>2024-04-10T11:25:38.496248</dc:date>
    <dc:format>image/svg+xml</dc:format>
    <dc:creator>
     <cc:Agent>
      <dc:title>Matplotlib v3.8.0, https://matplotlib.org/</dc:title>
     </cc:Agent>
    </dc:creator>
   </cc:Work>
  </rdf:RDF>
 </metadata>
 <defs>
  <style type="text/css">*{stroke-linejoin: round; stroke-linecap: butt}</style>
 </defs>
 <g id="figure_1">
  <g id="patch_1">
   <path d="M 0 345.6 
L 460.8 345.6 
L 460.8 0 
L 0 0 
z
" style="fill: #ffffff"/>
  </g>
  <g id="axes_1">
   <g id="patch_2">
    <path d="M 47.81 303.64 
L 450 303.64 
L 450 25.44 
L 47.81 25.44 
z
" style="fill: #ffffff"/>
   </g>
   <g id="PolyCollection_1">
    <defs>
     <path id="mae5899b5c8" d="M 66.091364 -170.943636 
L 66.091364 -170.943636 
L 69.822254 -222.842644 
L 73.553145 -236.722776 
L 77.284035 -248.640146 
L 81.014926 -257.003988 
L 84.745816 -263.430832 
L 88.476707 -269.101208 
L 92.207597 -273.791526 
L 95.938488 -277.700626 
L 99.669378 -280.789044 
L 103.400269 -283.451068 
L 107.13116 -285.62501 
L 110.86205 -287.429934 
L 114.592941 -289.045072 
L 118.323831 -290.411556 
L 122.054722 -291.543953 
L 125.785612 -292.491952 
L 129.516503 -293.238337 
L 133.247393 -293.80418 
L 136.978284 -294.313112 
L 140.709174 -294.69725 
L 144.440065 -294.999012 
L 148.170955 -295.14528 
L 151.901846 -295.210537 
L 155.632737 -295.258807 
L 159.363627 -295.228148 
L 163.094518 -295.154378 
L 166.825408 -295.011673 
L 170.556299 -294.81502 
L 174.287189 -294.610986 
L 178.01808 -294.375958 
L 181.74897 -294.088288 
L 185.479861 -293.775258 
L 189.210751 -293.425007 
L 192.941642 -293.03521 
L 196.672532 -292.610006 
L 200.403423 -292.168377 
L 204.134314 -291.711218 
L 207.865204 -291.228837 
L 211.596095 -290.735206 
L 215.326985 -290.236188 
L 219.057876 -289.735377 
L 222.788766 -289.236483 
L 226.519657 -288.747019 
L 230.250547 -288.273251 
L 233.981438 -287.818464 
L 237.712328 -287.384163 
L 241.443219 -286.972316 
L 245.174109 -286.583309 
L 248.905 -286.216795 
L 252.635891 -285.87315 
L 256.366781 -285.548312 
L 260.097672 -285.24072 
L 263.828562 -284.950098 
L 267.559453 -284.671732 
L 271.290343 -284.405462 
L 275.021234 -284.143989 
L 278.752124 -283.88783 
L 282.483015 -283.634666 
L 286.213905 -283.385114 
L 289.944796 -283.133246 
L 293.675686 -282.877876 
L 297.406577 -282.620416 
L 301.137468 -282.359731 
L 304.868358 -282.096006 
L 308.599249 -281.827269 
L 312.330139 -281.551944 
L 316.06103 -281.271759 
L 319.79192 -280.986253 
L 323.522811 -280.695088 
L 327.253701 -280.398028 
L 330.984592 -280.094924 
L 334.715482 -279.783282 
L 338.446373 -279.46502 
L 342.177263 -279.141013 
L 345.908154 -278.810597 
L 349.639045 -278.47465 
L 353.369935 -278.133281 
L 357.100826 -277.786623 
L 360.831716 -277.434831 
L 364.562607 -277.076912 
L 368.293497 -276.714334 
L 372.024388 -276.347276 
L 375.755278 -275.97541 
L 379.486169 -275.599496 
L 383.217059 -275.219248 
L 386.94795 -274.834925 
L 390.67884 -274.446779 
L 394.409731 -274.055475 
L 398.140622 -273.660786 
L 401.871512 -273.263335 
L 405.602403 -272.862916 
L 409.333293 -272.459749 
L 413.064184 -272.054044 
L 416.795074 -271.646003 
L 420.525965 -271.235176 
L 424.256855 -270.822454 
L 427.987746 -270.408311 
L 431.718636 -269.992585 
L 431.718636 -171.962327 
L 431.718636 -171.962327 
L 427.987746 -173.089054 
L 424.256855 -174.231129 
L 420.525965 -175.387359 
L 416.795074 -176.559314 
L 413.064184 -177.750183 
L 409.333293 -178.957346 
L 405.602403 -180.181015 
L 401.871512 -181.421398 
L 398.140622 -182.678695 
L 394.409731 -183.951402 
L 390.67884 -185.241307 
L 386.94795 -186.546784 
L 383.217059 -187.869672 
L 379.486169 -189.210099 
L 375.755278 -190.568165 
L 372.024388 -191.94195 
L 368.293497 -193.333393 
L 364.562607 -194.740382 
L 360.831716 -196.162705 
L 357.100826 -197.604586 
L 353.369935 -199.061455 
L 349.639045 -200.53291 
L 345.908154 -202.018464 
L 342.177263 -203.517533 
L 338.446373 -205.032043 
L 334.715482 -206.558723 
L 330.984592 -208.099419 
L 327.253701 -209.659083 
L 323.522811 -211.22837 
L 319.79192 -212.805848 
L 316.06103 -214.389858 
L 312.330139 -215.978486 
L 308.599249 -217.569528 
L 304.868358 -219.167496 
L 301.137468 -220.766616 
L 297.406577 -222.360247 
L 293.675686 -223.948569 
L 289.944796 -225.527787 
L 286.213905 -227.10189 
L 282.483015 -228.666889 
L 278.752124 -230.204869 
L 275.021234 -231.718317 
L 271.290343 -233.200748 
L 267.559453 -234.654612 
L 263.828562 -236.057842 
L 260.097672 -237.41131 
L 256.366781 -238.70058 
L 252.635891 -239.925899 
L 248.905 -241.082496 
L 245.174109 -242.154556 
L 241.443219 -243.142082 
L 237.712328 -244.040061 
L 233.981438 -244.84376 
L 230.250547 -245.554411 
L 226.519657 -246.162769 
L 222.788766 -246.654625 
L 219.057876 -247.027446 
L 215.326985 -247.284849 
L 211.596095 -247.451244 
L 207.865204 -247.535834 
L 204.134314 -247.538042 
L 200.403423 -247.443151 
L 196.672532 -247.283783 
L 192.941642 -247.064312 
L 189.210751 -246.766013 
L 185.479861 -246.393017 
L 181.74897 -245.953541 
L 178.01808 -245.459881 
L 174.287189 -244.893973 
L 170.556299 -244.271724 
L 166.825408 -243.605388 
L 163.094518 -242.867307 
L 159.363627 -242.050973 
L 155.632737 -241.167043 
L 151.901846 -240.1995 
L 148.170955 -239.167208 
L 144.440065 -238.043678 
L 140.709174 -236.806189 
L 136.978284 -235.470877 
L 133.247393 -234.022314 
L 129.516503 -232.46493 
L 125.785612 -230.766956 
L 122.054722 -228.917527 
L 118.323831 -226.90678 
L 114.592941 -224.714218 
L 110.86205 -222.319112 
L 107.13116 -219.695548 
L 103.400269 -216.800891 
L 99.669378 -213.595184 
L 95.938488 -210.02286 
L 92.207597 -206.027547 
L 88.476707 -201.518512 
L 84.745816 -196.368279 
L 81.014926 -190.295794 
L 77.284035 -183.029854 
L 73.553145 -174.292981 
L 69.822254 -162.039174 
L 66.091364 -170.943636 
z
" style="stroke: #ff0000; stroke-opacity: 0.2"/>
    </defs>
    <g clip-path="url(#p6c237bbc75)">
     <use xlink:href="#mae5899b5c8" x="0" y="345.6" style="fill: #ff0000; fill-opacity: 0.2; stroke: #ff0000; stroke-opacity: 0.2"/>
    </g>
   </g>
   <g id="matplotlib.axis_1">
    <g id="xtick_1">
     <g id="line2d_1">
      <defs>
       <path id="me61b2136b3" d="M 0 0 
L 0 3.5 
" style="stroke: #000000; stroke-width: 0.8"/>
      </defs>
      <g>
       <use xlink:href="#me61b2136b3" x="66.091364" y="303.64" style="stroke: #000000; stroke-width: 0.8"/>
      </g>
     </g>
     <g id="text_1">
      <!-- 0 -->
      <g transform="translate(62.910114 318.238437) scale(0.1 -0.1)">
       <defs>
        <path id="DejaVuSans-30" d="M 2034 4250 
Q 1547 4250 1301 3770 
Q 1056 3291 1056 2328 
Q 1056 1369 1301 889 
Q 1547 409 2034 409 
Q 2525 409 2770 889 
Q 3016 1369 3016 2328 
Q 3016 3291 2770 3770 
Q 2525 4250 2034 4250 
z
M 2034 4750 
Q 2819 4750 3233 4129 
Q 3647 3509 3647 2328 
Q 3647 1150 3233 529 
Q 2819 -91 2034 -91 
Q 1250 -91 836 529 
Q 422 1150 422 2328 
Q 422 3509 836 4129 
Q 1250 4750 2034 4750 
z
" transform="scale(0.015625)"/>
       </defs>
       <use xlink:href="#DejaVuSans-30"/>
      </g>
     </g>
    </g>
    <g id="xtick_2">
     <g id="line2d_2">
      <g>
       <use xlink:href="#me61b2136b3" x="140.709174" y="303.64" style="stroke: #000000; stroke-width: 0.8"/>
      </g>
     </g>
     <g id="text_2">
      <!-- 20 -->
      <g transform="translate(134.346674 318.238437) scale(0.1 -0.1)">
       <defs>
        <path id="DejaVuSans-32" d="M 1228 531 
L 3431 531 
L 3431 0 
L 469 0 
L 469 531 
Q 828 903 1448 1529 
Q 2069 2156 2228 2338 
Q 2531 2678 2651 2914 
Q 2772 3150 2772 3378 
Q 2772 3750 2511 3984 
Q 2250 4219 1831 4219 
Q 1534 4219 1204 4116 
Q 875 4013 500 3803 
L 500 4441 
Q 881 4594 1212 4672 
Q 1544 4750 1819 4750 
Q 2544 4750 2975 4387 
Q 3406 4025 3406 3419 
Q 3406 3131 3298 2873 
Q 3191 2616 2906 2266 
Q 2828 2175 2409 1742 
Q 1991 1309 1228 531 
z
" transform="scale(0.015625)"/>
       </defs>
       <use xlink:href="#DejaVuSans-32"/>
       <use xlink:href="#DejaVuSans-30" x="63.623047"/>
      </g>
     </g>
    </g>
    <g id="xtick_3">
     <g id="line2d_3">
      <g>
       <use xlink:href="#me61b2136b3" x="215.326985" y="303.64" style="stroke: #000000; stroke-width: 0.8"/>
      </g>
     </g>
     <g id="text_3">
      <!-- 40 -->
      <g transform="translate(208.964485 318.238437) scale(0.1 -0.1)">
       <defs>
        <path id="DejaVuSans-34" d="M 2419 4116 
L 825 1625 
L 2419 1625 
L 2419 4116 
z
M 2253 4666 
L 3047 4666 
L 3047 1625 
L 3713 1625 
L 3713 1100 
L 3047 1100 
L 3047 0 
L 2419 0 
L 2419 1100 
L 313 1100 
L 313 1709 
L 2253 4666 
z
" transform="scale(0.015625)"/>
       </defs>
       <use xlink:href="#DejaVuSans-34"/>
       <use xlink:href="#DejaVuSans-30" x="63.623047"/>
      </g>
     </g>
    </g>
    <g id="xtick_4">
     <g id="line2d_4">
      <g>
       <use xlink:href="#me61b2136b3" x="289.944796" y="303.64" style="stroke: #000000; stroke-width: 0.8"/>
      </g>
     </g>
     <g id="text_4">
      <!-- 60 -->
      <g transform="translate(283.582296 318.238437) scale(0.1 -0.1)">
       <defs>
        <path id="DejaVuSans-36" d="M 2113 2584 
Q 1688 2584 1439 2293 
Q 1191 2003 1191 1497 
Q 1191 994 1439 701 
Q 1688 409 2113 409 
Q 2538 409 2786 701 
Q 3034 994 3034 1497 
Q 3034 2003 2786 2293 
Q 2538 2584 2113 2584 
z
M 3366 4563 
L 3366 3988 
Q 3128 4100 2886 4159 
Q 2644 4219 2406 4219 
Q 1781 4219 1451 3797 
Q 1122 3375 1075 2522 
Q 1259 2794 1537 2939 
Q 1816 3084 2150 3084 
Q 2853 3084 3261 2657 
Q 3669 2231 3669 1497 
Q 3669 778 3244 343 
Q 2819 -91 2113 -91 
Q 1303 -91 875 529 
Q 447 1150 447 2328 
Q 447 3434 972 4092 
Q 1497 4750 2381 4750 
Q 2619 4750 2861 4703 
Q 3103 4656 3366 4563 
z
" transform="scale(0.015625)"/>
       </defs>
       <use xlink:href="#DejaVuSans-36"/>
       <use xlink:href="#DejaVuSans-30" x="63.623047"/>
      </g>
     </g>
    </g>
    <g id="xtick_5">
     <g id="line2d_5">
      <g>
       <use xlink:href="#me61b2136b3" x="364.562607" y="303.64" style="stroke: #000000; stroke-width: 0.8"/>
      </g>
     </g>
     <g id="text_5">
      <!-- 80 -->
      <g transform="translate(358.200107 318.238437) scale(0.1 -0.1)">
       <defs>
        <path id="DejaVuSans-38" d="M 2034 2216 
Q 1584 2216 1326 1975 
Q 1069 1734 1069 1313 
Q 1069 891 1326 650 
Q 1584 409 2034 409 
Q 2484 409 2743 651 
Q 3003 894 3003 1313 
Q 3003 1734 2745 1975 
Q 2488 2216 2034 2216 
z
M 1403 2484 
Q 997 2584 770 2862 
Q 544 3141 544 3541 
Q 544 4100 942 4425 
Q 1341 4750 2034 4750 
Q 2731 4750 3128 4425 
Q 3525 4100 3525 3541 
Q 3525 3141 3298 2862 
Q 3072 2584 2669 2484 
Q 3125 2378 3379 2068 
Q 3634 1759 3634 1313 
Q 3634 634 3220 271 
Q 2806 -91 2034 -91 
Q 1263 -91 848 271 
Q 434 634 434 1313 
Q 434 1759 690 2068 
Q 947 2378 1403 2484 
z
M 1172 3481 
Q 1172 3119 1398 2916 
Q 1625 2713 2034 2713 
Q 2441 2713 2670 2916 
Q 2900 3119 2900 3481 
Q 2900 3844 2670 4047 
Q 2441 4250 2034 4250 
Q 1625 4250 1398 4047 
Q 1172 3844 1172 3481 
z
" transform="scale(0.015625)"/>
       </defs>
       <use xlink:href="#DejaVuSans-38"/>
       <use xlink:href="#DejaVuSans-30" x="63.623047"/>
      </g>
     </g>
    </g>
    <g id="xtick_6">
     <g id="line2d_6">
      <g>
       <use xlink:href="#me61b2136b3" x="439.180417" y="303.64" style="stroke: #000000; stroke-width: 0.8"/>
      </g>
     </g>
     <g id="text_6">
      <!-- 100 -->
      <g transform="translate(429.636667 318.238437) scale(0.1 -0.1)">
       <defs>
        <path id="DejaVuSans-31" d="M 794 531 
L 1825 531 
L 1825 4091 
L 703 3866 
L 703 4441 
L 1819 4666 
L 2450 4666 
L 2450 531 
L 3481 531 
L 3481 0 
L 794 0 
L 794 531 
z
" transform="scale(0.015625)"/>
       </defs>
       <use xlink:href="#DejaVuSans-31"/>
       <use xlink:href="#DejaVuSans-30" x="63.623047"/>
       <use xlink:href="#DejaVuSans-30" x="127.246094"/>
      </g>
     </g>
    </g>
    <g id="text_7">
     <!-- Iteration -->
     <g transform="translate(227.696406 331.916562) scale(0.1 -0.1)">
      <defs>
       <path id="DejaVuSans-49" d="M 628 4666 
L 1259 4666 
L 1259 0 
L 628 0 
L 628 4666 
z
" transform="scale(0.015625)"/>
       <path id="DejaVuSans-74" d="M 1172 4494 
L 1172 3500 
L 2356 3500 
L 2356 3053 
L 1172 3053 
L 1172 1153 
Q 1172 725 1289 603 
Q 1406 481 1766 481 
L 2356 481 
L 2356 0 
L 1766 0 
Q 1100 0 847 248 
Q 594 497 594 1153 
L 594 3053 
L 172 3053 
L 172 3500 
L 594 3500 
L 594 4494 
L 1172 4494 
z
" transform="scale(0.015625)"/>
       <path id="DejaVuSans-65" d="M 3597 1894 
L 3597 1613 
L 953 1613 
Q 991 1019 1311 708 
Q 1631 397 2203 397 
Q 2534 397 2845 478 
Q 3156 559 3463 722 
L 3463 178 
Q 3153 47 2828 -22 
Q 2503 -91 2169 -91 
Q 1331 -91 842 396 
Q 353 884 353 1716 
Q 353 2575 817 3079 
Q 1281 3584 2069 3584 
Q 2775 3584 3186 3129 
Q 3597 2675 3597 1894 
z
M 3022 2063 
Q 3016 2534 2758 2815 
Q 2500 3097 2075 3097 
Q 1594 3097 1305 2825 
Q 1016 2553 972 2059 
L 3022 2063 
z
" transform="scale(0.015625)"/>
       <path id="DejaVuSans-72" d="M 2631 2963 
Q 2534 3019 2420 3045 
Q 2306 3072 2169 3072 
Q 1681 3072 1420 2755 
Q 1159 2438 1159 1844 
L 1159 0 
L 581 0 
L 581 3500 
L 1159 3500 
L 1159 2956 
Q 1341 3275 1631 3429 
Q 1922 3584 2338 3584 
Q 2397 3584 2469 3576 
Q 2541 3569 2628 3553 
L 2631 2963 
z
" transform="scale(0.015625)"/>
       <path id="DejaVuSans-61" d="M 2194 1759 
Q 1497 1759 1228 1600 
Q 959 1441 959 1056 
Q 959 750 1161 570 
Q 1363 391 1709 391 
Q 2188 391 2477 730 
Q 2766 1069 2766 1631 
L 2766 1759 
L 2194 1759 
z
M 3341 1997 
L 3341 0 
L 2766 0 
L 2766 531 
Q 2569 213 2275 61 
Q 1981 -91 1556 -91 
Q 1019 -91 701 211 
Q 384 513 384 1019 
Q 384 1609 779 1909 
Q 1175 2209 1959 2209 
L 2766 2209 
L 2766 2266 
Q 2766 2663 2505 2880 
Q 2244 3097 1772 3097 
Q 1472 3097 1187 3025 
Q 903 2953 641 2809 
L 641 3341 
Q 956 3463 1253 3523 
Q 1550 3584 1831 3584 
Q 2591 3584 2966 3190 
Q 3341 2797 3341 1997 
z
" transform="scale(0.015625)"/>
       <path id="DejaVuSans-69" d="M 603 3500 
L 1178 3500 
L 1178 0 
L 603 0 
L 603 3500 
z
M 603 4863 
L 1178 4863 
L 1178 4134 
L 603 4134 
L 603 4863 
z
" transform="scale(0.015625)"/>
       <path id="DejaVuSans-6f" d="M 1959 3097 
Q 1497 3097 1228 2736 
Q 959 2375 959 1747 
Q 959 1119 1226 758 
Q 1494 397 1959 397 
Q 2419 397 2687 759 
Q 2956 1122 2956 1747 
Q 2956 2369 2687 2733 
Q 2419 3097 1959 3097 
z
M 1959 3584 
Q 2709 3584 3137 3096 
Q 3566 2609 3566 1747 
Q 3566 888 3137 398 
Q 2709 -91 1959 -91 
Q 1206 -91 779 398 
Q 353 888 353 1747 
Q 353 2609 779 3096 
Q 1206 3584 1959 3584 
z
" transform="scale(0.015625)"/>
       <path id="DejaVuSans-6e" d="M 3513 2113 
L 3513 0 
L 2938 0 
L 2938 2094 
Q 2938 2591 2744 2837 
Q 2550 3084 2163 3084 
Q 1697 3084 1428 2787 
Q 1159 2491 1159 1978 
L 1159 0 
L 581 0 
L 581 3500 
L 1159 3500 
L 1159 2956 
Q 1366 3272 1645 3428 
Q 1925 3584 2291 3584 
Q 2894 3584 3203 3211 
Q 3513 2838 3513 2113 
z
" transform="scale(0.015625)"/>
      </defs>
      <use xlink:href="#DejaVuSans-49"/>
      <use xlink:href="#DejaVuSans-74" x="29.492188"/>
      <use xlink:href="#DejaVuSans-65" x="68.701172"/>
      <use xlink:href="#DejaVuSans-72" x="130.224609"/>
      <use xlink:href="#DejaVuSans-61" x="171.337891"/>
      <use xlink:href="#DejaVuSans-74" x="232.617188"/>
      <use xlink:href="#DejaVuSans-69" x="271.826172"/>
      <use xlink:href="#DejaVuSans-6f" x="299.609375"/>
      <use xlink:href="#DejaVuSans-6e" x="360.791016"/>
     </g>
    </g>
   </g>
   <g id="matplotlib.axis_2">
    <g id="ytick_1">
     <g id="line2d_7">
      <defs>
       <path id="me2fa911379" d="M 0 0 
L -3.5 0 
" style="stroke: #000000; stroke-width: 0.8"/>
      </defs>
      <g>
       <use xlink:href="#me2fa911379" x="47.81" y="290.994545" style="stroke: #000000; stroke-width: 0.8"/>
      </g>
     </g>
     <g id="text_8">
      <!-- 0.0 -->
      <g transform="translate(24.906875 294.793764) scale(0.1 -0.1)">
       <defs>
        <path id="DejaVuSans-2e" d="M 684 794 
L 1344 794 
L 1344 0 
L 684 0 
L 684 794 
z
" transform="scale(0.015625)"/>
       </defs>
       <use xlink:href="#DejaVuSans-30"/>
       <use xlink:href="#DejaVuSans-2e" x="63.623047"/>
       <use xlink:href="#DejaVuSans-30" x="95.410156"/>
      </g>
     </g>
    </g>
    <g id="ytick_2">
     <g id="line2d_8">
      <g>
       <use xlink:href="#me2fa911379" x="47.81" y="240.412727" style="stroke: #000000; stroke-width: 0.8"/>
      </g>
     </g>
     <g id="text_9">
      <!-- 0.2 -->
      <g transform="translate(24.906875 244.211946) scale(0.1 -0.1)">
       <use xlink:href="#DejaVuSans-30"/>
       <use xlink:href="#DejaVuSans-2e" x="63.623047"/>
       <use xlink:href="#DejaVuSans-32" x="95.410156"/>
      </g>
     </g>
    </g>
    <g id="ytick_3">
     <g id="line2d_9">
      <g>
       <use xlink:href="#me2fa911379" x="47.81" y="189.830909" style="stroke: #000000; stroke-width: 0.8"/>
      </g>
     </g>
     <g id="text_10">
      <!-- 0.4 -->
      <g transform="translate(24.906875 193.630128) scale(0.1 -0.1)">
       <use xlink:href="#DejaVuSans-30"/>
       <use xlink:href="#DejaVuSans-2e" x="63.623047"/>
       <use xlink:href="#DejaVuSans-34" x="95.410156"/>
      </g>
     </g>
    </g>
    <g id="ytick_4">
     <g id="line2d_10">
      <g>
       <use xlink:href="#me2fa911379" x="47.81" y="139.249091" style="stroke: #000000; stroke-width: 0.8"/>
      </g>
     </g>
     <g id="text_11">
      <!-- 0.6 -->
      <g transform="translate(24.906875 143.04831) scale(0.1 -0.1)">
       <use xlink:href="#DejaVuSans-30"/>
       <use xlink:href="#DejaVuSans-2e" x="63.623047"/>
       <use xlink:href="#DejaVuSans-36" x="95.410156"/>
      </g>
     </g>
    </g>
    <g id="ytick_5">
     <g id="line2d_11">
      <g>
       <use xlink:href="#me2fa911379" x="47.81" y="88.667273" style="stroke: #000000; stroke-width: 0.8"/>
      </g>
     </g>
     <g id="text_12">
      <!-- 0.8 -->
      <g transform="translate(24.906875 92.466491) scale(0.1 -0.1)">
       <use xlink:href="#DejaVuSans-30"/>
       <use xlink:href="#DejaVuSans-2e" x="63.623047"/>
       <use xlink:href="#DejaVuSans-38" x="95.410156"/>
      </g>
     </g>
    </g>
    <g id="ytick_6">
     <g id="line2d_12">
      <g>
       <use xlink:href="#me2fa911379" x="47.81" y="38.085455" style="stroke: #000000; stroke-width: 0.8"/>
      </g>
     </g>
     <g id="text_13">
      <!-- 1.0 -->
      <g transform="translate(24.906875 41.884673) scale(0.1 -0.1)">
       <use xlink:href="#DejaVuSans-31"/>
       <use xlink:href="#DejaVuSans-2e" x="63.623047"/>
       <use xlink:href="#DejaVuSans-30" x="95.410156"/>
      </g>
     </g>
    </g>
    <g id="text_14">
     <!-- Similarity -->
     <g transform="translate(18.827187 188.179844) rotate(-90) scale(0.1 -0.1)">
      <defs>
       <path id="DejaVuSans-53" d="M 3425 4513 
L 3425 3897 
Q 3066 4069 2747 4153 
Q 2428 4238 2131 4238 
Q 1616 4238 1336 4038 
Q 1056 3838 1056 3469 
Q 1056 3159 1242 3001 
Q 1428 2844 1947 2747 
L 2328 2669 
Q 3034 2534 3370 2195 
Q 3706 1856 3706 1288 
Q 3706 609 3251 259 
Q 2797 -91 1919 -91 
Q 1588 -91 1214 -16 
Q 841 59 441 206 
L 441 856 
Q 825 641 1194 531 
Q 1563 422 1919 422 
Q 2459 422 2753 634 
Q 3047 847 3047 1241 
Q 3047 1584 2836 1778 
Q 2625 1972 2144 2069 
L 1759 2144 
Q 1053 2284 737 2584 
Q 422 2884 422 3419 
Q 422 4038 858 4394 
Q 1294 4750 2059 4750 
Q 2388 4750 2728 4690 
Q 3069 4631 3425 4513 
z
" transform="scale(0.015625)"/>
       <path id="DejaVuSans-6d" d="M 3328 2828 
Q 3544 3216 3844 3400 
Q 4144 3584 4550 3584 
Q 5097 3584 5394 3201 
Q 5691 2819 5691 2113 
L 5691 0 
L 5113 0 
L 5113 2094 
Q 5113 2597 4934 2840 
Q 4756 3084 4391 3084 
Q 3944 3084 3684 2787 
Q 3425 2491 3425 1978 
L 3425 0 
L 2847 0 
L 2847 2094 
Q 2847 2600 2669 2842 
Q 2491 3084 2119 3084 
Q 1678 3084 1418 2786 
Q 1159 2488 1159 1978 
L 1159 0 
L 581 0 
L 581 3500 
L 1159 3500 
L 1159 2956 
Q 1356 3278 1631 3431 
Q 1906 3584 2284 3584 
Q 2666 3584 2933 3390 
Q 3200 3197 3328 2828 
z
" transform="scale(0.015625)"/>
       <path id="DejaVuSans-6c" d="M 603 4863 
L 1178 4863 
L 1178 0 
L 603 0 
L 603 4863 
z
" transform="scale(0.015625)"/>
       <path id="DejaVuSans-79" d="M 2059 -325 
Q 1816 -950 1584 -1140 
Q 1353 -1331 966 -1331 
L 506 -1331 
L 506 -850 
L 844 -850 
Q 1081 -850 1212 -737 
Q 1344 -625 1503 -206 
L 1606 56 
L 191 3500 
L 800 3500 
L 1894 763 
L 2988 3500 
L 3597 3500 
L 2059 -325 
z
" transform="scale(0.015625)"/>
      </defs>
      <use xlink:href="#DejaVuSans-53"/>
      <use xlink:href="#DejaVuSans-69" x="63.476562"/>
      <use xlink:href="#DejaVuSans-6d" x="91.259766"/>
      <use xlink:href="#DejaVuSans-69" x="188.671875"/>
      <use xlink:href="#DejaVuSans-6c" x="216.455078"/>
      <use xlink:href="#DejaVuSans-61" x="244.238281"/>
      <use xlink:href="#DejaVuSans-72" x="305.517578"/>
      <use xlink:href="#DejaVuSans-69" x="346.630859"/>
      <use xlink:href="#DejaVuSans-74" x="374.414062"/>
      <use xlink:href="#DejaVuSans-79" x="413.623047"/>
     </g>
    </g>
   </g>
   <g id="line2d_13">
    <path d="M 66.091364 174.656364 
L 69.822254 131.661818 
L 73.553145 113.958182 
L 77.284035 98.783636 
L 81.014926 90.690545 
L 84.745816 84.452121 
L 88.476707 77.828312 
L 92.207597 73.492727 
L 95.938488 70.120606 
L 99.669378 68.434545 
L 103.400269 66.135372 
L 107.13116 65.062424 
L 110.86205 64.154545 
L 114.592941 62.653766 
L 118.323831 62.027515 
L 122.054722 61.795682 
L 125.785612 61.591123 
L 129.516503 61.971313 
L 133.247393 62.577703 
L 136.978284 62.111818 
L 140.709174 62.653766 
L 144.440065 62.916529 
L 148.170955 64.475968 
L 151.901846 65.273182 
L 155.632737 65.197309 
L 159.363627 66.294545 
L 163.094518 66.935825 
L 166.825408 68.253896 
L 170.556299 69.481066 
L 174.287189 69.783394 
L 178.01808 70.718886 
L 181.74897 72.38625 
L 185.479861 73.492727 
L 189.210751 75.129198 
L 192.941642 77.105714 
L 196.672532 79.253434 
L 200.403423 80.874939 
L 204.134314 82.677321 
L 207.865204 85.424848 
L 211.596095 87.782091 
L 215.326985 90.147716 
L 219.057876 92.761991 
L 222.788766 95.960465 
L 226.519657 99.243471 
L 230.250547 102.49297 
L 233.981438 105.491225 
L 237.712328 108.361896 
L 241.443219 111.323712 
L 245.174109 114.267866 
L 248.905 117.195418 
L 252.635891 120.206524 
L 256.366781 123.004545 
L 260.097672 125.792419 
L 263.828562 128.664377 
L 267.559453 131.339934 
L 271.290343 134.100584 
L 275.021234 136.49815 
L 278.752124 138.987461 
L 282.483015 141.392388 
L 286.213905 143.885758 
L 289.944796 146.048614 
L 293.675686 148.141701 
L 297.406577 150.328918 
L 301.137468 152.447784 
L 304.868358 154.579273 
L 308.599249 156.569532 
L 312.330139 158.424885 
L 316.06103 160.374439 
L 319.79192 162.267484 
L 323.522811 164.106442 
L 327.253701 165.893598 
L 330.984592 167.631111 
L 334.715482 169.113151 
L 338.446373 170.691843 
L 342.177263 172.295879 
L 345.908154 173.791148 
L 349.639045 175.31327 
L 353.369935 176.796364 
L 357.100826 178.24191 
L 360.831716 179.651318 
L 364.562607 180.901033 
L 368.293497 182.243636 
L 372.024388 183.553888 
L 375.755278 184.772727 
L 379.486169 186.022396 
L 383.217059 187.184186 
L 386.94795 188.319269 
L 390.67884 189.428554 
L 394.409731 190.569745 
L 398.140622 191.629374 
L 401.871512 192.721299 
L 405.602403 193.734506 
L 409.333293 194.725924 
L 413.064184 195.696248 
L 416.795074 196.646144 
L 420.525965 197.470871 
L 424.256855 198.382887 
L 427.987746 199.327904 
L 431.718636 200.202736 
" clip-path="url(#p6c237bbc75)" style="fill: none; stroke: #0000ff; stroke-linecap: square"/>
    <defs>
     <path id="me66dc94b21" d="M -0.49999 0.49999 
L 0.50001 0.49999 
L 0.50001 -0.50001 
L -0.49999 -0.50001 
z
"/>
    </defs>
    <g clip-path="url(#p6c237bbc75)">
     <use xlink:href="#me66dc94b21" x="66.091364" y="174.656364" style="fill: #0000ff"/>
     <use xlink:href="#me66dc94b21" x="69.822254" y="131.661818" style="fill: #0000ff"/>
     <use xlink:href="#me66dc94b21" x="73.553145" y="113.958182" style="fill: #0000ff"/>
     <use xlink:href="#me66dc94b21" x="77.284035" y="98.783636" style="fill: #0000ff"/>
     <use xlink:href="#me66dc94b21" x="81.014926" y="90.690545" style="fill: #0000ff"/>
     <use xlink:href="#me66dc94b21" x="84.745816" y="84.452121" style="fill: #0000ff"/>
     <use xlink:href="#me66dc94b21" x="88.476707" y="77.828312" style="fill: #0000ff"/>
     <use xlink:href="#me66dc94b21" x="92.207597" y="73.492727" style="fill: #0000ff"/>
     <use xlink:href="#me66dc94b21" x="95.938488" y="70.120606" style="fill: #0000ff"/>
     <use xlink:href="#me66dc94b21" x="99.669378" y="68.434545" style="fill: #0000ff"/>
     <use xlink:href="#me66dc94b21" x="103.400269" y="66.135372" style="fill: #0000ff"/>
     <use xlink:href="#me66dc94b21" x="107.13116" y="65.062424" style="fill: #0000ff"/>
     <use xlink:href="#me66dc94b21" x="110.86205" y="64.154545" style="fill: #0000ff"/>
     <use xlink:href="#me66dc94b21" x="114.592941" y="62.653766" style="fill: #0000ff"/>
     <use xlink:href="#me66dc94b21" x="118.323831" y="62.027515" style="fill: #0000ff"/>
     <use xlink:href="#me66dc94b21" x="122.054722" y="61.795682" style="fill: #0000ff"/>
     <use xlink:href="#me66dc94b21" x="125.785612" y="61.591123" style="fill: #0000ff"/>
     <use xlink:href="#me66dc94b21" x="129.516503" y="61.971313" style="fill: #0000ff"/>
     <use xlink:href="#me66dc94b21" x="133.247393" y="62.577703" style="fill: #0000ff"/>
     <use xlink:href="#me66dc94b21" x="136.978284" y="62.111818" style="fill: #0000ff"/>
     <use xlink:href="#me66dc94b21" x="140.709174" y="62.653766" style="fill: #0000ff"/>
     <use xlink:href="#me66dc94b21" x="144.440065" y="62.916529" style="fill: #0000ff"/>
     <use xlink:href="#me66dc94b21" x="148.170955" y="64.475968" style="fill: #0000ff"/>
     <use xlink:href="#me66dc94b21" x="151.901846" y="65.273182" style="fill: #0000ff"/>
     <use xlink:href="#me66dc94b21" x="155.632737" y="65.197309" style="fill: #0000ff"/>
     <use xlink:href="#me66dc94b21" x="159.363627" y="66.294545" style="fill: #0000ff"/>
     <use xlink:href="#me66dc94b21" x="163.094518" y="66.935825" style="fill: #0000ff"/>
     <use xlink:href="#me66dc94b21" x="166.825408" y="68.253896" style="fill: #0000ff"/>
     <use xlink:href="#me66dc94b21" x="170.556299" y="69.481066" style="fill: #0000ff"/>
     <use xlink:href="#me66dc94b21" x="174.287189" y="69.783394" style="fill: #0000ff"/>
     <use xlink:href="#me66dc94b21" x="178.01808" y="70.718886" style="fill: #0000ff"/>
     <use xlink:href="#me66dc94b21" x="181.74897" y="72.38625" style="fill: #0000ff"/>
     <use xlink:href="#me66dc94b21" x="185.479861" y="73.492727" style="fill: #0000ff"/>
     <use xlink:href="#me66dc94b21" x="189.210751" y="75.129198" style="fill: #0000ff"/>
     <use xlink:href="#me66dc94b21" x="192.941642" y="77.105714" style="fill: #0000ff"/>
     <use xlink:href="#me66dc94b21" x="196.672532" y="79.253434" style="fill: #0000ff"/>
     <use xlink:href="#me66dc94b21" x="200.403423" y="80.874939" style="fill: #0000ff"/>
     <use xlink:href="#me66dc94b21" x="204.134314" y="82.677321" style="fill: #0000ff"/>
     <use xlink:href="#me66dc94b21" x="207.865204" y="85.424848" style="fill: #0000ff"/>
     <use xlink:href="#me66dc94b21" x="211.596095" y="87.782091" style="fill: #0000ff"/>
     <use xlink:href="#me66dc94b21" x="215.326985" y="90.147716" style="fill: #0000ff"/>
     <use xlink:href="#me66dc94b21" x="219.057876" y="92.761991" style="fill: #0000ff"/>
     <use xlink:href="#me66dc94b21" x="222.788766" y="95.960465" style="fill: #0000ff"/>
     <use xlink:href="#me66dc94b21" x="226.519657" y="99.243471" style="fill: #0000ff"/>
     <use xlink:href="#me66dc94b21" x="230.250547" y="102.49297" style="fill: #0000ff"/>
     <use xlink:href="#me66dc94b21" x="233.981438" y="105.491225" style="fill: #0000ff"/>
     <use xlink:href="#me66dc94b21" x="237.712328" y="108.361896" style="fill: #0000ff"/>
     <use xlink:href="#me66dc94b21" x="241.443219" y="111.323712" style="fill: #0000ff"/>
     <use xlink:href="#me66dc94b21" x="245.174109" y="114.267866" style="fill: #0000ff"/>
     <use xlink:href="#me66dc94b21" x="248.905" y="117.195418" style="fill: #0000ff"/>
     <use xlink:href="#me66dc94b21" x="252.635891" y="120.206524" style="fill: #0000ff"/>
     <use xlink:href="#me66dc94b21" x="256.366781" y="123.004545" style="fill: #0000ff"/>
     <use xlink:href="#me66dc94b21" x="260.097672" y="125.792419" style="fill: #0000ff"/>
     <use xlink:href="#me66dc94b21" x="263.828562" y="128.664377" style="fill: #0000ff"/>
     <use xlink:href="#me66dc94b21" x="267.559453" y="131.339934" style="fill: #0000ff"/>
     <use xlink:href="#me66dc94b21" x="271.290343" y="134.100584" style="fill: #0000ff"/>
     <use xlink:href="#me66dc94b21" x="275.021234" y="136.49815" style="fill: #0000ff"/>
     <use xlink:href="#me66dc94b21" x="278.752124" y="138.987461" style="fill: #0000ff"/>
     <use xlink:href="#me66dc94b21" x="282.483015" y="141.392388" style="fill: #0000ff"/>
     <use xlink:href="#me66dc94b21" x="286.213905" y="143.885758" style="fill: #0000ff"/>
     <use xlink:href="#me66dc94b21" x="289.944796" y="146.048614" style="fill: #0000ff"/>
     <use xlink:href="#me66dc94b21" x="293.675686" y="148.141701" style="fill: #0000ff"/>
     <use xlink:href="#me66dc94b21" x="297.406577" y="150.328918" style="fill: #0000ff"/>
     <use xlink:href="#me66dc94b21" x="301.137468" y="152.447784" style="fill: #0000ff"/>
     <use xlink:href="#me66dc94b21" x="304.868358" y="154.579273" style="fill: #0000ff"/>
     <use xlink:href="#me66dc94b21" x="308.599249" y="156.569532" style="fill: #0000ff"/>
     <use xlink:href="#me66dc94b21" x="312.330139" y="158.424885" style="fill: #0000ff"/>
     <use xlink:href="#me66dc94b21" x="316.06103" y="160.374439" style="fill: #0000ff"/>
     <use xlink:href="#me66dc94b21" x="319.79192" y="162.267484" style="fill: #0000ff"/>
     <use xlink:href="#me66dc94b21" x="323.522811" y="164.106442" style="fill: #0000ff"/>
     <use xlink:href="#me66dc94b21" x="327.253701" y="165.893598" style="fill: #0000ff"/>
     <use xlink:href="#me66dc94b21" x="330.984592" y="167.631111" style="fill: #0000ff"/>
     <use xlink:href="#me66dc94b21" x="334.715482" y="169.113151" style="fill: #0000ff"/>
     <use xlink:href="#me66dc94b21" x="338.446373" y="170.691843" style="fill: #0000ff"/>
     <use xlink:href="#me66dc94b21" x="342.177263" y="172.295879" style="fill: #0000ff"/>
     <use xlink:href="#me66dc94b21" x="345.908154" y="173.791148" style="fill: #0000ff"/>
     <use xlink:href="#me66dc94b21" x="349.639045" y="175.31327" style="fill: #0000ff"/>
     <use xlink:href="#me66dc94b21" x="353.369935" y="176.796364" style="fill: #0000ff"/>
     <use xlink:href="#me66dc94b21" x="357.100826" y="178.24191" style="fill: #0000ff"/>
     <use xlink:href="#me66dc94b21" x="360.831716" y="179.651318" style="fill: #0000ff"/>
     <use xlink:href="#me66dc94b21" x="364.562607" y="180.901033" style="fill: #0000ff"/>
     <use xlink:href="#me66dc94b21" x="368.293497" y="182.243636" style="fill: #0000ff"/>
     <use xlink:href="#me66dc94b21" x="372.024388" y="183.553888" style="fill: #0000ff"/>
     <use xlink:href="#me66dc94b21" x="375.755278" y="184.772727" style="fill: #0000ff"/>
     <use xlink:href="#me66dc94b21" x="379.486169" y="186.022396" style="fill: #0000ff"/>
     <use xlink:href="#me66dc94b21" x="383.217059" y="187.184186" style="fill: #0000ff"/>
     <use xlink:href="#me66dc94b21" x="386.94795" y="188.319269" style="fill: #0000ff"/>
     <use xlink:href="#me66dc94b21" x="390.67884" y="189.428554" style="fill: #0000ff"/>
     <use xlink:href="#me66dc94b21" x="394.409731" y="190.569745" style="fill: #0000ff"/>
     <use xlink:href="#me66dc94b21" x="398.140622" y="191.629374" style="fill: #0000ff"/>
     <use xlink:href="#me66dc94b21" x="401.871512" y="192.721299" style="fill: #0000ff"/>
     <use xlink:href="#me66dc94b21" x="405.602403" y="193.734506" style="fill: #0000ff"/>
     <use xlink:href="#me66dc94b21" x="409.333293" y="194.725924" style="fill: #0000ff"/>
     <use xlink:href="#me66dc94b21" x="413.064184" y="195.696248" style="fill: #0000ff"/>
     <use xlink:href="#me66dc94b21" x="416.795074" y="196.646144" style="fill: #0000ff"/>
     <use xlink:href="#me66dc94b21" x="420.525965" y="197.470871" style="fill: #0000ff"/>
     <use xlink:href="#me66dc94b21" x="424.256855" y="198.382887" style="fill: #0000ff"/>
     <use xlink:href="#me66dc94b21" x="427.987746" y="199.327904" style="fill: #0000ff"/>
     <use xlink:href="#me66dc94b21" x="431.718636" y="200.202736" style="fill: #0000ff"/>
    </g>
   </g>
   <g id="line2d_14">
    <path d="M 66.091364 174.656364 
L 69.822254 153.159091 
L 73.553145 140.092121 
L 77.284035 129.765 
L 81.014926 121.950109 
L 84.745816 115.700444 
L 88.476707 110.29014 
L 92.207597 105.690463 
L 95.938488 101.738257 
L 99.669378 98.407886 
L 103.400269 95.474021 
L 107.13116 92.939721 
L 110.86205 90.725477 
L 114.592941 88.720355 
L 118.323831 86.940832 
L 122.054722 85.36926 
L 125.785612 83.970546 
L 129.516503 82.748367 
L 133.247393 81.686753 
L 136.978284 80.708006 
L 140.709174 79.84828 
L 144.440065 79.078655 
L 148.170955 78.443756 
L 151.901846 77.894982 
L 155.632737 77.387075 
L 159.363627 76.960439 
L 163.094518 76.589157 
L 166.825408 76.291469 
L 170.556299 76.056628 
L 174.287189 75.84752 
L 178.01808 75.68208 
L 181.74897 75.579085 
L 185.479861 75.515863 
L 189.210751 75.50449 
L 192.941642 75.550239 
L 196.672532 75.653106 
L 200.403423 75.794236 
L 204.134314 75.97537 
L 207.865204 76.217665 
L 211.596095 76.506775 
L 215.326985 76.839481 
L 219.057876 77.218588 
L 222.788766 77.654446 
L 226.519657 78.145106 
L 230.250547 78.686169 
L 233.981438 79.268888 
L 237.712328 79.887888 
L 241.443219 80.542801 
L 245.174109 81.231068 
L 248.905 81.950355 
L 252.635891 82.700476 
L 256.366781 83.475554 
L 260.097672 84.273985 
L 263.828562 85.09603 
L 267.559453 85.936828 
L 271.290343 86.796895 
L 275.021234 87.668847 
L 278.752124 88.553651 
L 282.483015 89.449222 
L 286.213905 90.356498 
L 289.944796 91.269483 
L 293.675686 92.186777 
L 297.406577 93.109668 
L 301.137468 94.036826 
L 304.868358 94.968249 
L 308.599249 95.901602 
L 312.330139 96.834785 
L 316.06103 97.769192 
L 319.79192 98.703949 
L 323.522811 99.638271 
L 327.253701 100.571444 
L 330.984592 101.502829 
L 334.715482 102.428997 
L 338.446373 103.351468 
L 342.177263 104.270727 
L 345.908154 105.185469 
L 349.639045 106.09622 
L 353.369935 107.002632 
L 357.100826 107.904395 
L 360.831716 108.801232 
L 364.562607 109.691353 
L 368.293497 110.576137 
L 372.024388 111.455387 
L 375.755278 112.328212 
L 379.486169 113.195203 
L 383.217059 114.05554 
L 386.94795 114.909146 
L 390.67884 115.755957 
L 394.409731 116.596562 
L 398.140622 117.430259 
L 401.871512 118.257633 
L 405.602403 119.078034 
L 409.333293 119.891452 
L 413.064184 120.697886 
L 416.795074 121.497342 
L 420.525965 122.288733 
L 424.256855 123.073209 
L 427.987746 123.851318 
L 431.718636 124.622544 
" clip-path="url(#p6c237bbc75)" style="fill: none; stroke: #ff0000; stroke-opacity: 0.5; stroke-width: 0.5; stroke-linecap: square"/>
    <defs>
     <path id="m7dc5129057" d="M -0.49999 0.49999 
L 0.50001 0.49999 
L 0.50001 -0.50001 
L -0.49999 -0.50001 
z
"/>
    </defs>
    <g clip-path="url(#p6c237bbc75)">
     <use xlink:href="#m7dc5129057" x="66.091364" y="174.656364" style="fill: #ff0000; fill-opacity: 0.5"/>
     <use xlink:href="#m7dc5129057" x="69.822254" y="153.159091" style="fill: #ff0000; fill-opacity: 0.5"/>
     <use xlink:href="#m7dc5129057" x="73.553145" y="140.092121" style="fill: #ff0000; fill-opacity: 0.5"/>
     <use xlink:href="#m7dc5129057" x="77.284035" y="129.765" style="fill: #ff0000; fill-opacity: 0.5"/>
     <use xlink:href="#m7dc5129057" x="81.014926" y="121.950109" style="fill: #ff0000; fill-opacity: 0.5"/>
     <use xlink:href="#m7dc5129057" x="84.745816" y="115.700444" style="fill: #ff0000; fill-opacity: 0.5"/>
     <use xlink:href="#m7dc5129057" x="88.476707" y="110.29014" style="fill: #ff0000; fill-opacity: 0.5"/>
     <use xlink:href="#m7dc5129057" x="92.207597" y="105.690463" style="fill: #ff0000; fill-opacity: 0.5"/>
     <use xlink:href="#m7dc5129057" x="95.938488" y="101.738257" style="fill: #ff0000; fill-opacity: 0.5"/>
     <use xlink:href="#m7dc5129057" x="99.669378" y="98.407886" style="fill: #ff0000; fill-opacity: 0.5"/>
     <use xlink:href="#m7dc5129057" x="103.400269" y="95.474021" style="fill: #ff0000; fill-opacity: 0.5"/>
     <use xlink:href="#m7dc5129057" x="107.13116" y="92.939721" style="fill: #ff0000; fill-opacity: 0.5"/>
     <use xlink:href="#m7dc5129057" x="110.86205" y="90.725477" style="fill: #ff0000; fill-opacity: 0.5"/>
     <use xlink:href="#m7dc5129057" x="114.592941" y="88.720355" style="fill: #ff0000; fill-opacity: 0.5"/>
     <use xlink:href="#m7dc5129057" x="118.323831" y="86.940832" style="fill: #ff0000; fill-opacity: 0.5"/>
     <use xlink:href="#m7dc5129057" x="122.054722" y="85.36926" style="fill: #ff0000; fill-opacity: 0.5"/>
     <use xlink:href="#m7dc5129057" x="125.785612" y="83.970546" style="fill: #ff0000; fill-opacity: 0.5"/>
     <use xlink:href="#m7dc5129057" x="129.516503" y="82.748367" style="fill: #ff0000; fill-opacity: 0.5"/>
     <use xlink:href="#m7dc5129057" x="133.247393" y="81.686753" style="fill: #ff0000; fill-opacity: 0.5"/>
     <use xlink:href="#m7dc5129057" x="136.978284" y="80.708006" style="fill: #ff0000; fill-opacity: 0.5"/>
     <use xlink:href="#m7dc5129057" x="140.709174" y="79.84828" style="fill: #ff0000; fill-opacity: 0.5"/>
     <use xlink:href="#m7dc5129057" x="144.440065" y="79.078655" style="fill: #ff0000; fill-opacity: 0.5"/>
     <use xlink:href="#m7dc5129057" x="148.170955" y="78.443756" style="fill: #ff0000; fill-opacity: 0.5"/>
     <use xlink:href="#m7dc5129057" x="151.901846" y="77.894982" style="fill: #ff0000; fill-opacity: 0.5"/>
     <use xlink:href="#m7dc5129057" x="155.632737" y="77.387075" style="fill: #ff0000; fill-opacity: 0.5"/>
     <use xlink:href="#m7dc5129057" x="159.363627" y="76.960439" style="fill: #ff0000; fill-opacity: 0.5"/>
     <use xlink:href="#m7dc5129057" x="163.094518" y="76.589157" style="fill: #ff0000; fill-opacity: 0.5"/>
     <use xlink:href="#m7dc5129057" x="166.825408" y="76.291469" style="fill: #ff0000; fill-opacity: 0.5"/>
     <use xlink:href="#m7dc5129057" x="170.556299" y="76.056628" style="fill: #ff0000; fill-opacity: 0.5"/>
     <use xlink:href="#m7dc5129057" x="174.287189" y="75.84752" style="fill: #ff0000; fill-opacity: 0.5"/>
     <use xlink:href="#m7dc5129057" x="178.01808" y="75.68208" style="fill: #ff0000; fill-opacity: 0.5"/>
     <use xlink:href="#m7dc5129057" x="181.74897" y="75.579085" style="fill: #ff0000; fill-opacity: 0.5"/>
     <use xlink:href="#m7dc5129057" x="185.479861" y="75.515863" style="fill: #ff0000; fill-opacity: 0.5"/>
     <use xlink:href="#m7dc5129057" x="189.210751" y="75.50449" style="fill: #ff0000; fill-opacity: 0.5"/>
     <use xlink:href="#m7dc5129057" x="192.941642" y="75.550239" style="fill: #ff0000; fill-opacity: 0.5"/>
     <use xlink:href="#m7dc5129057" x="196.672532" y="75.653106" style="fill: #ff0000; fill-opacity: 0.5"/>
     <use xlink:href="#m7dc5129057" x="200.403423" y="75.794236" style="fill: #ff0000; fill-opacity: 0.5"/>
     <use xlink:href="#m7dc5129057" x="204.134314" y="75.97537" style="fill: #ff0000; fill-opacity: 0.5"/>
     <use xlink:href="#m7dc5129057" x="207.865204" y="76.217665" style="fill: #ff0000; fill-opacity: 0.5"/>
     <use xlink:href="#m7dc5129057" x="211.596095" y="76.506775" style="fill: #ff0000; fill-opacity: 0.5"/>
     <use xlink:href="#m7dc5129057" x="215.326985" y="76.839481" style="fill: #ff0000; fill-opacity: 0.5"/>
     <use xlink:href="#m7dc5129057" x="219.057876" y="77.218588" style="fill: #ff0000; fill-opacity: 0.5"/>
     <use xlink:href="#m7dc5129057" x="222.788766" y="77.654446" style="fill: #ff0000; fill-opacity: 0.5"/>
     <use xlink:href="#m7dc5129057" x="226.519657" y="78.145106" style="fill: #ff0000; fill-opacity: 0.5"/>
     <use xlink:href="#m7dc5129057" x="230.250547" y="78.686169" style="fill: #ff0000; fill-opacity: 0.5"/>
     <use xlink:href="#m7dc5129057" x="233.981438" y="79.268888" style="fill: #ff0000; fill-opacity: 0.5"/>
     <use xlink:href="#m7dc5129057" x="237.712328" y="79.887888" style="fill: #ff0000; fill-opacity: 0.5"/>
     <use xlink:href="#m7dc5129057" x="241.443219" y="80.542801" style="fill: #ff0000; fill-opacity: 0.5"/>
     <use xlink:href="#m7dc5129057" x="245.174109" y="81.231068" style="fill: #ff0000; fill-opacity: 0.5"/>
     <use xlink:href="#m7dc5129057" x="248.905" y="81.950355" style="fill: #ff0000; fill-opacity: 0.5"/>
     <use xlink:href="#m7dc5129057" x="252.635891" y="82.700476" style="fill: #ff0000; fill-opacity: 0.5"/>
     <use xlink:href="#m7dc5129057" x="256.366781" y="83.475554" style="fill: #ff0000; fill-opacity: 0.5"/>
     <use xlink:href="#m7dc5129057" x="260.097672" y="84.273985" style="fill: #ff0000; fill-opacity: 0.5"/>
     <use xlink:href="#m7dc5129057" x="263.828562" y="85.09603" style="fill: #ff0000; fill-opacity: 0.5"/>
     <use xlink:href="#m7dc5129057" x="267.559453" y="85.936828" style="fill: #ff0000; fill-opacity: 0.5"/>
     <use xlink:href="#m7dc5129057" x="271.290343" y="86.796895" style="fill: #ff0000; fill-opacity: 0.5"/>
     <use xlink:href="#m7dc5129057" x="275.021234" y="87.668847" style="fill: #ff0000; fill-opacity: 0.5"/>
     <use xlink:href="#m7dc5129057" x="278.752124" y="88.553651" style="fill: #ff0000; fill-opacity: 0.5"/>
     <use xlink:href="#m7dc5129057" x="282.483015" y="89.449222" style="fill: #ff0000; fill-opacity: 0.5"/>
     <use xlink:href="#m7dc5129057" x="286.213905" y="90.356498" style="fill: #ff0000; fill-opacity: 0.5"/>
     <use xlink:href="#m7dc5129057" x="289.944796" y="91.269483" style="fill: #ff0000; fill-opacity: 0.5"/>
     <use xlink:href="#m7dc5129057" x="293.675686" y="92.186777" style="fill: #ff0000; fill-opacity: 0.5"/>
     <use xlink:href="#m7dc5129057" x="297.406577" y="93.109668" style="fill: #ff0000; fill-opacity: 0.5"/>
     <use xlink:href="#m7dc5129057" x="301.137468" y="94.036826" style="fill: #ff0000; fill-opacity: 0.5"/>
     <use xlink:href="#m7dc5129057" x="304.868358" y="94.968249" style="fill: #ff0000; fill-opacity: 0.5"/>
     <use xlink:href="#m7dc5129057" x="308.599249" y="95.901602" style="fill: #ff0000; fill-opacity: 0.5"/>
     <use xlink:href="#m7dc5129057" x="312.330139" y="96.834785" style="fill: #ff0000; fill-opacity: 0.5"/>
     <use xlink:href="#m7dc5129057" x="316.06103" y="97.769192" style="fill: #ff0000; fill-opacity: 0.5"/>
     <use xlink:href="#m7dc5129057" x="319.79192" y="98.703949" style="fill: #ff0000; fill-opacity: 0.5"/>
     <use xlink:href="#m7dc5129057" x="323.522811" y="99.638271" style="fill: #ff0000; fill-opacity: 0.5"/>
     <use xlink:href="#m7dc5129057" x="327.253701" y="100.571444" style="fill: #ff0000; fill-opacity: 0.5"/>
     <use xlink:href="#m7dc5129057" x="330.984592" y="101.502829" style="fill: #ff0000; fill-opacity: 0.5"/>
     <use xlink:href="#m7dc5129057" x="334.715482" y="102.428997" style="fill: #ff0000; fill-opacity: 0.5"/>
     <use xlink:href="#m7dc5129057" x="338.446373" y="103.351468" style="fill: #ff0000; fill-opacity: 0.5"/>
     <use xlink:href="#m7dc5129057" x="342.177263" y="104.270727" style="fill: #ff0000; fill-opacity: 0.5"/>
     <use xlink:href="#m7dc5129057" x="345.908154" y="105.185469" style="fill: #ff0000; fill-opacity: 0.5"/>
     <use xlink:href="#m7dc5129057" x="349.639045" y="106.09622" style="fill: #ff0000; fill-opacity: 0.5"/>
     <use xlink:href="#m7dc5129057" x="353.369935" y="107.002632" style="fill: #ff0000; fill-opacity: 0.5"/>
     <use xlink:href="#m7dc5129057" x="357.100826" y="107.904395" style="fill: #ff0000; fill-opacity: 0.5"/>
     <use xlink:href="#m7dc5129057" x="360.831716" y="108.801232" style="fill: #ff0000; fill-opacity: 0.5"/>
     <use xlink:href="#m7dc5129057" x="364.562607" y="109.691353" style="fill: #ff0000; fill-opacity: 0.5"/>
     <use xlink:href="#m7dc5129057" x="368.293497" y="110.576137" style="fill: #ff0000; fill-opacity: 0.5"/>
     <use xlink:href="#m7dc5129057" x="372.024388" y="111.455387" style="fill: #ff0000; fill-opacity: 0.5"/>
     <use xlink:href="#m7dc5129057" x="375.755278" y="112.328212" style="fill: #ff0000; fill-opacity: 0.5"/>
     <use xlink:href="#m7dc5129057" x="379.486169" y="113.195203" style="fill: #ff0000; fill-opacity: 0.5"/>
     <use xlink:href="#m7dc5129057" x="383.217059" y="114.05554" style="fill: #ff0000; fill-opacity: 0.5"/>
     <use xlink:href="#m7dc5129057" x="386.94795" y="114.909146" style="fill: #ff0000; fill-opacity: 0.5"/>
     <use xlink:href="#m7dc5129057" x="390.67884" y="115.755957" style="fill: #ff0000; fill-opacity: 0.5"/>
     <use xlink:href="#m7dc5129057" x="394.409731" y="116.596562" style="fill: #ff0000; fill-opacity: 0.5"/>
     <use xlink:href="#m7dc5129057" x="398.140622" y="117.430259" style="fill: #ff0000; fill-opacity: 0.5"/>
     <use xlink:href="#m7dc5129057" x="401.871512" y="118.257633" style="fill: #ff0000; fill-opacity: 0.5"/>
     <use xlink:href="#m7dc5129057" x="405.602403" y="119.078034" style="fill: #ff0000; fill-opacity: 0.5"/>
     <use xlink:href="#m7dc5129057" x="409.333293" y="119.891452" style="fill: #ff0000; fill-opacity: 0.5"/>
     <use xlink:href="#m7dc5129057" x="413.064184" y="120.697886" style="fill: #ff0000; fill-opacity: 0.5"/>
     <use xlink:href="#m7dc5129057" x="416.795074" y="121.497342" style="fill: #ff0000; fill-opacity: 0.5"/>
     <use xlink:href="#m7dc5129057" x="420.525965" y="122.288733" style="fill: #ff0000; fill-opacity: 0.5"/>
     <use xlink:href="#m7dc5129057" x="424.256855" y="123.073209" style="fill: #ff0000; fill-opacity: 0.5"/>
     <use xlink:href="#m7dc5129057" x="427.987746" y="123.851318" style="fill: #ff0000; fill-opacity: 0.5"/>
     <use xlink:href="#m7dc5129057" x="431.718636" y="124.622544" style="fill: #ff0000; fill-opacity: 0.5"/>
    </g>
   </g>
   <g id="line2d_15">
    <path d="M 47.81 290.994545 
L 450 290.994545 
" clip-path="url(#p6c237bbc75)" style="fill: none; stroke-dasharray: 0.555,0.24; stroke-dashoffset: 0; stroke: #ff0000; stroke-width: 0.15"/>
   </g>
   <g id="line2d_16">
    <path d="M 47.81 164.54 
L 450 164.54 
" clip-path="url(#p6c237bbc75)" style="fill: none; stroke-dasharray: 0.555,0.24; stroke-dashoffset: 0; stroke: #ff0000; stroke-width: 0.15"/>
   </g>
   <g id="line2d_17">
    <path d="M 47.81 38.085455 
L 450 38.085455 
" clip-path="url(#p6c237bbc75)" style="fill: none; stroke-dasharray: 0.555,0.24; stroke-dashoffset: 0; stroke: #ff0000; stroke-width: 0.15"/>
   </g>
   <g id="patch_3">
    <path d="M 47.81 303.64 
L 47.81 25.44 
" style="fill: none; stroke: #000000; stroke-width: 0.8; stroke-linejoin: miter; stroke-linecap: square"/>
   </g>
   <g id="patch_4">
    <path d="M 450 303.64 
L 450 25.44 
" style="fill: none; stroke: #000000; stroke-width: 0.8; stroke-linejoin: miter; stroke-linecap: square"/>
   </g>
   <g id="patch_5">
    <path d="M 47.81 303.64 
L 450 303.64 
" style="fill: none; stroke: #000000; stroke-width: 0.8; stroke-linejoin: miter; stroke-linecap: square"/>
   </g>
   <g id="patch_6">
    <path d="M 47.81 25.44 
L 450 25.44 
" style="fill: none; stroke: #000000; stroke-width: 0.8; stroke-linejoin: miter; stroke-linecap: square"/>
   </g>
   <g id="text_15">
    <!-- Similarity LLM-B - 20240409114154 - 50 games -->
    <g transform="translate(105.611875 19.44) scale(0.12 -0.12)">
     <defs>
      <path id="DejaVuSans-20" transform="scale(0.015625)"/>
      <path id="DejaVuSans-4c" d="M 628 4666 
L 1259 4666 
L 1259 531 
L 3531 531 
L 3531 0 
L 628 0 
L 628 4666 
z
" transform="scale(0.015625)"/>
      <path id="DejaVuSans-4d" d="M 628 4666 
L 1569 4666 
L 2759 1491 
L 3956 4666 
L 4897 4666 
L 4897 0 
L 4281 0 
L 4281 4097 
L 3078 897 
L 2444 897 
L 1241 4097 
L 1241 0 
L 628 0 
L 628 4666 
z
" transform="scale(0.015625)"/>
      <path id="DejaVuSans-2d" d="M 313 2009 
L 1997 2009 
L 1997 1497 
L 313 1497 
L 313 2009 
z
" transform="scale(0.015625)"/>
      <path id="DejaVuSans-42" d="M 1259 2228 
L 1259 519 
L 2272 519 
Q 2781 519 3026 730 
Q 3272 941 3272 1375 
Q 3272 1813 3026 2020 
Q 2781 2228 2272 2228 
L 1259 2228 
z
M 1259 4147 
L 1259 2741 
L 2194 2741 
Q 2656 2741 2882 2914 
Q 3109 3088 3109 3444 
Q 3109 3797 2882 3972 
Q 2656 4147 2194 4147 
L 1259 4147 
z
M 628 4666 
L 2241 4666 
Q 2963 4666 3353 4366 
Q 3744 4066 3744 3513 
Q 3744 3084 3544 2831 
Q 3344 2578 2956 2516 
Q 3422 2416 3680 2098 
Q 3938 1781 3938 1306 
Q 3938 681 3513 340 
Q 3088 0 2303 0 
L 628 0 
L 628 4666 
z
" transform="scale(0.015625)"/>
      <path id="DejaVuSans-39" d="M 703 97 
L 703 672 
Q 941 559 1184 500 
Q 1428 441 1663 441 
Q 2288 441 2617 861 
Q 2947 1281 2994 2138 
Q 2813 1869 2534 1725 
Q 2256 1581 1919 1581 
Q 1219 1581 811 2004 
Q 403 2428 403 3163 
Q 403 3881 828 4315 
Q 1253 4750 1959 4750 
Q 2769 4750 3195 4129 
Q 3622 3509 3622 2328 
Q 3622 1225 3098 567 
Q 2575 -91 1691 -91 
Q 1453 -91 1209 -44 
Q 966 3 703 97 
z
M 1959 2075 
Q 2384 2075 2632 2365 
Q 2881 2656 2881 3163 
Q 2881 3666 2632 3958 
Q 2384 4250 1959 4250 
Q 1534 4250 1286 3958 
Q 1038 3666 1038 3163 
Q 1038 2656 1286 2365 
Q 1534 2075 1959 2075 
z
" transform="scale(0.015625)"/>
      <path id="DejaVuSans-35" d="M 691 4666 
L 3169 4666 
L 3169 4134 
L 1269 4134 
L 1269 2991 
Q 1406 3038 1543 3061 
Q 1681 3084 1819 3084 
Q 2600 3084 3056 2656 
Q 3513 2228 3513 1497 
Q 3513 744 3044 326 
Q 2575 -91 1722 -91 
Q 1428 -91 1123 -41 
Q 819 9 494 109 
L 494 744 
Q 775 591 1075 516 
Q 1375 441 1709 441 
Q 2250 441 2565 725 
Q 2881 1009 2881 1497 
Q 2881 1984 2565 2268 
Q 2250 2553 1709 2553 
Q 1456 2553 1204 2497 
Q 953 2441 691 2322 
L 691 4666 
z
" transform="scale(0.015625)"/>
      <path id="DejaVuSans-67" d="M 2906 1791 
Q 2906 2416 2648 2759 
Q 2391 3103 1925 3103 
Q 1463 3103 1205 2759 
Q 947 2416 947 1791 
Q 947 1169 1205 825 
Q 1463 481 1925 481 
Q 2391 481 2648 825 
Q 2906 1169 2906 1791 
z
M 3481 434 
Q 3481 -459 3084 -895 
Q 2688 -1331 1869 -1331 
Q 1566 -1331 1297 -1286 
Q 1028 -1241 775 -1147 
L 775 -588 
Q 1028 -725 1275 -790 
Q 1522 -856 1778 -856 
Q 2344 -856 2625 -561 
Q 2906 -266 2906 331 
L 2906 616 
Q 2728 306 2450 153 
Q 2172 0 1784 0 
Q 1141 0 747 490 
Q 353 981 353 1791 
Q 353 2603 747 3093 
Q 1141 3584 1784 3584 
Q 2172 3584 2450 3431 
Q 2728 3278 2906 2969 
L 2906 3500 
L 3481 3500 
L 3481 434 
z
" transform="scale(0.015625)"/>
      <path id="DejaVuSans-73" d="M 2834 3397 
L 2834 2853 
Q 2591 2978 2328 3040 
Q 2066 3103 1784 3103 
Q 1356 3103 1142 2972 
Q 928 2841 928 2578 
Q 928 2378 1081 2264 
Q 1234 2150 1697 2047 
L 1894 2003 
Q 2506 1872 2764 1633 
Q 3022 1394 3022 966 
Q 3022 478 2636 193 
Q 2250 -91 1575 -91 
Q 1294 -91 989 -36 
Q 684 19 347 128 
L 347 722 
Q 666 556 975 473 
Q 1284 391 1588 391 
Q 1994 391 2212 530 
Q 2431 669 2431 922 
Q 2431 1156 2273 1281 
Q 2116 1406 1581 1522 
L 1381 1569 
Q 847 1681 609 1914 
Q 372 2147 372 2553 
Q 372 3047 722 3315 
Q 1072 3584 1716 3584 
Q 2034 3584 2315 3537 
Q 2597 3491 2834 3397 
z
" transform="scale(0.015625)"/>
     </defs>
     <use xlink:href="#DejaVuSans-53"/>
     <use xlink:href="#DejaVuSans-69" x="63.476562"/>
     <use xlink:href="#DejaVuSans-6d" x="91.259766"/>
     <use xlink:href="#DejaVuSans-69" x="188.671875"/>
     <use xlink:href="#DejaVuSans-6c" x="216.455078"/>
     <use xlink:href="#DejaVuSans-61" x="244.238281"/>
     <use xlink:href="#DejaVuSans-72" x="305.517578"/>
     <use xlink:href="#DejaVuSans-69" x="346.630859"/>
     <use xlink:href="#DejaVuSans-74" x="374.414062"/>
     <use xlink:href="#DejaVuSans-79" x="413.623047"/>
     <use xlink:href="#DejaVuSans-20" x="472.802734"/>
     <use xlink:href="#DejaVuSans-4c" x="504.589844"/>
     <use xlink:href="#DejaVuSans-4c" x="560.302734"/>
     <use xlink:href="#DejaVuSans-4d" x="616.015625"/>
     <use xlink:href="#DejaVuSans-2d" x="702.294922"/>
     <use xlink:href="#DejaVuSans-42" x="734.753906"/>
     <use xlink:href="#DejaVuSans-20" x="803.357422"/>
     <use xlink:href="#DejaVuSans-2d" x="835.144531"/>
     <use xlink:href="#DejaVuSans-20" x="871.228516"/>
     <use xlink:href="#DejaVuSans-32" x="903.015625"/>
     <use xlink:href="#DejaVuSans-30" x="966.638672"/>
     <use xlink:href="#DejaVuSans-32" x="1030.261719"/>
     <use xlink:href="#DejaVuSans-34" x="1093.884766"/>
     <use xlink:href="#DejaVuSans-30" x="1157.507812"/>
     <use xlink:href="#DejaVuSans-34" x="1221.130859"/>
     <use xlink:href="#DejaVuSans-30" x="1284.753906"/>
     <use xlink:href="#DejaVuSans-39" x="1348.376953"/>
     <use xlink:href="#DejaVuSans-31" x="1412"/>
     <use xlink:href="#DejaVuSans-31" x="1475.623047"/>
     <use xlink:href="#DejaVuSans-34" x="1539.246094"/>
     <use xlink:href="#DejaVuSans-31" x="1602.869141"/>
     <use xlink:href="#DejaVuSans-35" x="1666.492188"/>
     <use xlink:href="#DejaVuSans-34" x="1730.115234"/>
     <use xlink:href="#DejaVuSans-20" x="1793.738281"/>
     <use xlink:href="#DejaVuSans-2d" x="1825.525391"/>
     <use xlink:href="#DejaVuSans-20" x="1861.609375"/>
     <use xlink:href="#DejaVuSans-35" x="1893.396484"/>
     <use xlink:href="#DejaVuSans-30" x="1957.019531"/>
     <use xlink:href="#DejaVuSans-20" x="2020.642578"/>
     <use xlink:href="#DejaVuSans-67" x="2052.429688"/>
     <use xlink:href="#DejaVuSans-61" x="2115.90625"/>
     <use xlink:href="#DejaVuSans-6d" x="2177.185547"/>
     <use xlink:href="#DejaVuSans-65" x="2274.597656"/>
     <use xlink:href="#DejaVuSans-73" x="2336.121094"/>
    </g>
   </g>
   <g id="legend_1">
    <g id="patch_7">
     <path d="M 349.584375 62.79625 
L 443 62.79625 
Q 445 62.79625 445 60.79625 
L 445 32.44 
Q 445 30.44 443 30.44 
L 349.584375 30.44 
Q 347.584375 30.44 347.584375 32.44 
L 347.584375 60.79625 
Q 347.584375 62.79625 349.584375 62.79625 
z
" style="fill: #ffffff; opacity: 0.8; stroke: #cccccc; stroke-linejoin: miter"/>
    </g>
    <g id="line2d_18">
     <path d="M 351.584375 38.538437 
L 361.584375 38.538437 
L 371.584375 38.538437 
" style="fill: none; stroke: #0000ff; stroke-linecap: square"/>
     <g>
      <use xlink:href="#me66dc94b21" x="361.584375" y="38.538437" style="fill: #0000ff"/>
     </g>
    </g>
    <g id="text_16">
     <!-- LLM-B -->
     <g transform="translate(379.584375 42.038437) scale(0.1 -0.1)">
      <use xlink:href="#DejaVuSans-4c"/>
      <use xlink:href="#DejaVuSans-4c" x="55.712891"/>
      <use xlink:href="#DejaVuSans-4d" x="111.425781"/>
      <use xlink:href="#DejaVuSans-2d" x="197.705078"/>
      <use xlink:href="#DejaVuSans-42" x="230.164062"/>
     </g>
    </g>
    <g id="line2d_19">
     <path d="M 351.584375 53.216562 
L 361.584375 53.216562 
L 371.584375 53.216562 
" style="fill: none; stroke: #ff0000; stroke-opacity: 0.5; stroke-width: 0.5; stroke-linecap: square"/>
     <g>
      <use xlink:href="#m7dc5129057" x="361.584375" y="53.216562" style="fill: #ff0000; fill-opacity: 0.5"/>
     </g>
    </g>
    <g id="text_17">
     <!-- LLM-B mean -->
     <g transform="translate(379.584375 56.716562) scale(0.1 -0.1)">
      <use xlink:href="#DejaVuSans-4c"/>
      <use xlink:href="#DejaVuSans-4c" x="55.712891"/>
      <use xlink:href="#DejaVuSans-4d" x="111.425781"/>
      <use xlink:href="#DejaVuSans-2d" x="197.705078"/>
      <use xlink:href="#DejaVuSans-42" x="230.164062"/>
      <use xlink:href="#DejaVuSans-20" x="298.767578"/>
      <use xlink:href="#DejaVuSans-6d" x="330.554688"/>
      <use xlink:href="#DejaVuSans-65" x="427.966797"/>
      <use xlink:href="#DejaVuSans-61" x="489.490234"/>
      <use xlink:href="#DejaVuSans-6e" x="550.769531"/>
     </g>
    </g>
   </g>
  </g>
 </g>
 <defs>
  <clipPath id="p6c237bbc75">
   <rect x="47.81" y="25.44" width="402.19" height="278.2"/>
  </clipPath>
 </defs>
</svg>
