<?xml version="1.0" encoding="utf-8" standalone="no"?>
<!DOCTYPE svg PUBLIC "-//W3C//DTD SVG 1.1//EN"
  "http://www.w3.org/Graphics/SVG/1.1/DTD/svg11.dtd">
<svg xmlns:xlink="http://www.w3.org/1999/xlink" width="460.8pt" height="345.6pt" viewBox="0 0 460.8 345.6" xmlns="http://www.w3.org/2000/svg" version="1.1">
 <metadata>
  <rdf:RDF xmlns:dc="http://purl.org/dc/elements/1.1/" xmlns:cc="http://creativecommons.org/ns#" xmlns:rdf="http://www.w3.org/1999/02/22-rdf-syntax-ns#">
   <cc:Work>
    <dc:type rdf:resource="http://purl.org/dc/dcmitype/StillImage"/>
    <dc:date>2024-04-18T10:36:28.353824</dc:date>
    <dc:format>image/svg+xml</dc:format>
    <dc:creator>
     <cc:Agent>
      <dc:title>Matplotlib v3.8.0, https://matplotlib.org/</dc:title>
     </cc:Agent>
    </dc:creator>
   </cc:Work>
  </rdf:RDF>
 </metadata>
 <defs>
  <style type="text/css">*{stroke-linejoin: round; stroke-linecap: butt}</style>
 </defs>
 <g id="figure_1">
  <g id="patch_1">
   <path d="M 0 345.6 
L 460.8 345.6 
L 460.8 0 
L 0 0 
z
" style="fill: #ffffff"/>
  </g>
  <g id="axes_1">
   <g id="patch_2">
    <path d="M 47.81 303.64 
L 450 303.64 
L 450 25.44 
L 47.81 25.44 
z
" style="fill: #ffffff"/>
   </g>
   <g id="PolyCollection_1">
    <defs>
     <path id="mff9891af42" d="M 66.091364 -281.608898 
L 66.091364 -281.608898 
L 69.784568 -307.514545 
L 73.477773 -270.266463 
L 77.170978 -253.112934 
L 80.864183 -244.310883 
L 84.557388 -235.039785 
L 88.250592 -230.538503 
L 91.943797 -225.652581 
L 95.637002 -221.15268 
L 99.330207 -219.720887 
L 103.023411 -216.902561 
L 106.716616 -213.819486 
L 110.409821 -212.407762 
L 114.103026 -210.1687 
L 117.79623 -208.826948 
L 121.489435 -209.515839 
L 125.18264 -208.601379 
L 128.875845 -206.9169 
L 132.56905 -206.848958 
L 136.262254 -206.186602 
L 139.955459 -205.571867 
L 143.648664 -204.615331 
L 147.341869 -204.336941 
L 151.035073 -203.492099 
L 154.728278 -205.266604 
L 158.421483 -204.219547 
L 162.114688 -204.477076 
L 165.807893 -203.576814 
L 169.501097 -203.372538 
L 173.194302 -202.841639 
L 176.887507 -202.218944 
L 180.580712 -201.8894 
L 184.273916 -201.146182 
L 187.967121 -200.724076 
L 191.660326 -200.128498 
L 195.353531 -199.641658 
L 199.046736 -200.186876 
L 202.73994 -199.571142 
L 206.433145 -199.354666 
L 210.12635 -198.928375 
L 213.819555 -198.732195 
L 217.512759 -198.680398 
L 221.205964 -198.964257 
L 224.899169 -198.772316 
L 228.592374 -198.399486 
L 232.285579 -198.495297 
L 235.978783 -198.582864 
L 239.671988 -198.662872 
L 243.365193 -198.239468 
L 247.058398 -199.06303 
L 250.751602 -199.440543 
L 254.444807 -199.063597 
L 258.138012 -199.119557 
L 261.831217 -198.804193 
L 265.524421 -198.455068 
L 269.217626 -198.085356 
L 272.910831 -197.798048 
L 276.604036 -197.757907 
L 280.297241 -197.717338 
L 283.990445 -197.447971 
L 287.68365 -197.960802 
L 291.376855 -197.697717 
L 295.07006 -197.403987 
L 298.763264 -197.208846 
L 302.456469 -196.965003 
L 306.149674 -196.671334 
L 309.842879 -196.439809 
L 313.536084 -196.640802 
L 317.229288 -196.534203 
L 320.922493 -196.279837 
L 324.615698 -196.180074 
L 328.308903 -195.959963 
L 332.002107 -195.803338 
L 335.695312 -196.125299 
L 339.388517 -196.203612 
L 343.081722 -195.972001 
L 346.774927 -195.883145 
L 350.468131 -196.183362 
L 354.161336 -196.166103 
L 357.854541 -195.947446 
L 361.547746 -195.718523 
L 365.24095 -195.53257 
L 368.934155 -195.950133 
L 372.62736 -195.725608 
L 376.320565 -195.521197 
L 380.01377 -195.320389 
L 383.706974 -195.194137 
L 387.400179 -195.028498 
L 391.093384 -195.429278 
L 394.786589 -195.305747 
L 398.479793 -195.117842 
L 402.172998 -194.959843 
L 405.866203 -194.804586 
L 409.559408 -195.073756 
L 413.252612 -194.895413 
L 416.945817 -194.783193 
L 420.639022 -194.711998 
L 424.332227 -194.717039 
L 428.025432 -194.530941 
L 431.718636 -194.610853 
L 431.718636 -157.910686 
L 431.718636 -157.910686 
L 428.025432 -157.73416 
L 424.332227 -157.948209 
L 420.639022 -157.788526 
L 416.945817 -158.514327 
L 413.252612 -158.435633 
L 409.559408 -158.488667 
L 405.866203 -158.296791 
L 402.172998 -158.274733 
L 398.479793 -158.25286 
L 394.786589 -158.307056 
L 391.093384 -158.222853 
L 387.400179 -158.032121 
L 383.706974 -158.006868 
L 380.01377 -157.916529 
L 376.320565 -157.970489 
L 372.62736 -158.026912 
L 368.934155 -158.29277 
L 365.24095 -158.082744 
L 361.547746 -158.626364 
L 357.854541 -158.7978 
L 354.161336 -158.872353 
L 350.468131 -158.680672 
L 346.774927 -158.440945 
L 343.081722 -158.28559 
L 339.388517 -158.356326 
L 335.695312 -158.119113 
L 332.002107 -157.863055 
L 328.308903 -157.755789 
L 324.615698 -158.369423 
L 320.922493 -158.200682 
L 317.229288 -158.278184 
L 313.536084 -158.104444 
L 309.842879 -157.821421 
L 306.149674 -157.79314 
L 302.456469 -157.994061 
L 298.763264 -157.970718 
L 295.07006 -157.856006 
L 291.376855 -157.944185 
L 287.68365 -157.923638 
L 283.990445 -157.606124 
L 280.297241 -157.577553 
L 276.604036 -157.306837 
L 272.910831 -157.028473 
L 269.217626 -156.990799 
L 265.524421 -157.385186 
L 261.831217 -157.485295 
L 258.138012 -157.461297 
L 254.444807 -157.107102 
L 250.751602 -157.212295 
L 247.058398 -156.79407 
L 243.365193 -156.411233 
L 239.671988 -156.661465 
L 235.978783 -156.26095 
L 232.285579 -155.847103 
L 228.592374 -155.419215 
L 224.899169 -155.341195 
L 221.205964 -155.026825 
L 217.512759 -154.520607 
L 213.819555 -154.092166 
L 210.12635 -153.732146 
L 206.433145 -153.608764 
L 202.73994 -153.223484 
L 199.046736 -153.681909 
L 195.353531 -153.0446 
L 191.660326 -152.896022 
L 187.967121 -152.931117 
L 184.273916 -152.616365 
L 180.580712 -153.145391 
L 176.887507 -152.675744 
L 173.194302 -152.521304 
L 169.501097 -152.171453 
L 165.807893 -151.499341 
L 162.114688 -151.812411 
L 158.421483 -150.882062 
L 154.728278 -151.887659 
L 151.035073 -150.867087 
L 147.341869 -150.609728 
L 143.648664 -149.708758 
L 139.955459 -149.393985 
L 136.262254 -148.558644 
L 132.56905 -147.65246 
L 128.875845 -146.284105 
L 125.18264 -148.596486 
L 121.489435 -147.545769 
L 117.79623 -145.609449 
L 114.103026 -144.576546 
L 110.409821 -144.832027 
L 106.716616 -143.242122 
L 103.023411 -145.002348 
L 99.330207 -144.289806 
L 95.637002 -141.313772 
L 91.943797 -141.832654 
L 88.250592 -140.752184 
L 84.557388 -136.692113 
L 80.864183 -139.157248 
L 77.170978 -131.745014 
L 73.477773 -123.084811 
L 69.784568 -130.619721 
L 66.091364 -281.608898 
z
" style="stroke: #0000ff; stroke-opacity: 0.2"/>
    </defs>
    <g clip-path="url(#pc401179a0b)">
     <use xlink:href="#mff9891af42" x="0" y="345.6" style="fill: #0000ff; fill-opacity: 0.2; stroke: #0000ff; stroke-opacity: 0.2"/>
    </g>
   </g>
   <g id="PolyCollection_2">
    <defs>
     <path id="m98d8eeb166" d="M 66.091364 -54.605455 
L 66.091364 -54.605455 
L 69.784568 -54.605455 
L 73.477773 -54.605455 
L 77.170978 -54.605455 
L 80.864183 -54.605455 
L 84.557388 -54.605455 
L 88.250592 -54.605455 
L 91.943797 -54.605455 
L 95.637002 -54.605455 
L 99.330207 -54.605455 
L 103.023411 -54.605455 
L 106.716616 -54.605455 
L 110.409821 -54.605455 
L 114.103026 -54.605455 
L 117.79623 -54.605455 
L 121.489435 -54.605455 
L 125.18264 -54.605455 
L 128.875845 -54.605455 
L 132.56905 -54.605455 
L 136.262254 -54.605455 
L 139.955459 -54.605455 
L 143.648664 -54.605455 
L 147.341869 -54.605455 
L 151.035073 -54.605455 
L 154.728278 -54.605455 
L 158.421483 -54.605455 
L 162.114688 -54.605455 
L 165.807893 -54.605455 
L 169.501097 -54.605455 
L 173.194302 -54.605455 
L 176.887507 -54.605455 
L 180.580712 -54.605455 
L 184.273916 -54.605455 
L 187.967121 -54.605455 
L 191.660326 -54.605455 
L 195.353531 -54.605455 
L 199.046736 -54.605455 
L 202.73994 -54.605455 
L 206.433145 -54.605455 
L 210.12635 -54.605455 
L 213.819555 -54.605455 
L 217.512759 -54.605455 
L 221.205964 -54.605455 
L 224.899169 -54.605455 
L 228.592374 -54.605455 
L 232.285579 -54.605455 
L 235.978783 -54.605455 
L 239.671988 -54.605455 
L 243.365193 -54.605455 
L 247.058398 -54.605455 
L 250.751602 -54.605455 
L 254.444807 -54.605455 
L 258.138012 -54.605455 
L 261.831217 -54.605455 
L 265.524421 -54.605455 
L 269.217626 -54.605455 
L 272.910831 -54.605455 
L 276.604036 -54.605455 
L 280.297241 -54.605455 
L 283.990445 -54.605455 
L 287.68365 -54.605455 
L 291.376855 -54.605455 
L 295.07006 -54.605455 
L 298.763264 -54.605455 
L 302.456469 -54.605455 
L 306.149674 -54.605455 
L 309.842879 -54.605455 
L 313.536084 -54.605455 
L 317.229288 -54.605455 
L 320.922493 -54.605455 
L 324.615698 -54.605455 
L 328.308903 -54.605455 
L 332.002107 -54.605455 
L 335.695312 -54.605455 
L 339.388517 -54.605455 
L 343.081722 -54.605455 
L 346.774927 -54.605455 
L 350.468131 -54.605455 
L 354.161336 -54.605455 
L 357.854541 -54.605455 
L 361.547746 -54.605455 
L 365.24095 -54.605455 
L 368.934155 -54.605455 
L 372.62736 -54.605455 
L 376.320565 -54.605455 
L 380.01377 -54.605455 
L 383.706974 -54.605455 
L 387.400179 -54.605455 
L 391.093384 -54.605455 
L 394.786589 -54.605455 
L 398.479793 -54.605455 
L 402.172998 -54.605455 
L 405.866203 -54.605455 
L 409.559408 -54.605455 
L 413.252612 -54.605455 
L 416.945817 -54.605455 
L 420.639022 -54.605455 
L 424.332227 -54.605455 
L 428.025432 -54.605455 
L 431.718636 -54.605455 
L 431.718636 -54.605455 
L 431.718636 -54.605455 
L 428.025432 -54.605455 
L 424.332227 -54.605455 
L 420.639022 -54.605455 
L 416.945817 -54.605455 
L 413.252612 -54.605455 
L 409.559408 -54.605455 
L 405.866203 -54.605455 
L 402.172998 -54.605455 
L 398.479793 -54.605455 
L 394.786589 -54.605455 
L 391.093384 -54.605455 
L 387.400179 -54.605455 
L 383.706974 -54.605455 
L 380.01377 -54.605455 
L 376.320565 -54.605455 
L 372.62736 -54.605455 
L 368.934155 -54.605455 
L 365.24095 -54.605455 
L 361.547746 -54.605455 
L 357.854541 -54.605455 
L 354.161336 -54.605455 
L 350.468131 -54.605455 
L 346.774927 -54.605455 
L 343.081722 -54.605455 
L 339.388517 -54.605455 
L 335.695312 -54.605455 
L 332.002107 -54.605455 
L 328.308903 -54.605455 
L 324.615698 -54.605455 
L 320.922493 -54.605455 
L 317.229288 -54.605455 
L 313.536084 -54.605455 
L 309.842879 -54.605455 
L 306.149674 -54.605455 
L 302.456469 -54.605455 
L 298.763264 -54.605455 
L 295.07006 -54.605455 
L 291.376855 -54.605455 
L 287.68365 -54.605455 
L 283.990445 -54.605455 
L 280.297241 -54.605455 
L 276.604036 -54.605455 
L 272.910831 -54.605455 
L 269.217626 -54.605455 
L 265.524421 -54.605455 
L 261.831217 -54.605455 
L 258.138012 -54.605455 
L 254.444807 -54.605455 
L 250.751602 -54.605455 
L 247.058398 -54.605455 
L 243.365193 -54.605455 
L 239.671988 -54.605455 
L 235.978783 -54.605455 
L 232.285579 -54.605455 
L 228.592374 -54.605455 
L 224.899169 -54.605455 
L 221.205964 -54.605455 
L 217.512759 -54.605455 
L 213.819555 -54.605455 
L 210.12635 -54.605455 
L 206.433145 -54.605455 
L 202.73994 -54.605455 
L 199.046736 -54.605455 
L 195.353531 -54.605455 
L 191.660326 -54.605455 
L 187.967121 -54.605455 
L 184.273916 -54.605455 
L 180.580712 -54.605455 
L 176.887507 -54.605455 
L 173.194302 -54.605455 
L 169.501097 -54.605455 
L 165.807893 -54.605455 
L 162.114688 -54.605455 
L 158.421483 -54.605455 
L 154.728278 -54.605455 
L 151.035073 -54.605455 
L 147.341869 -54.605455 
L 143.648664 -54.605455 
L 139.955459 -54.605455 
L 136.262254 -54.605455 
L 132.56905 -54.605455 
L 128.875845 -54.605455 
L 125.18264 -54.605455 
L 121.489435 -54.605455 
L 117.79623 -54.605455 
L 114.103026 -54.605455 
L 110.409821 -54.605455 
L 106.716616 -54.605455 
L 103.023411 -54.605455 
L 99.330207 -54.605455 
L 95.637002 -54.605455 
L 91.943797 -54.605455 
L 88.250592 -54.605455 
L 84.557388 -54.605455 
L 80.864183 -54.605455 
L 77.170978 -54.605455 
L 73.477773 -54.605455 
L 69.784568 -54.605455 
L 66.091364 -54.605455 
z
" style="stroke: #ff0000; stroke-opacity: 0.1"/>
    </defs>
    <g clip-path="url(#pc401179a0b)">
     <use xlink:href="#m98d8eeb166" x="0" y="345.6" style="fill: #ff0000; fill-opacity: 0.1; stroke: #ff0000; stroke-opacity: 0.1"/>
    </g>
   </g>
   <g id="matplotlib.axis_1">
    <g id="xtick_1">
     <g id="line2d_1">
      <defs>
       <path id="md562a3b26c" d="M 0 0 
L 0 3.5 
" style="stroke: #000000; stroke-width: 0.8"/>
      </defs>
      <g>
       <use xlink:href="#md562a3b26c" x="66.091364" y="303.64" style="stroke: #000000; stroke-width: 0.8"/>
      </g>
     </g>
     <g id="text_1">
      <!-- 0 -->
      <g transform="translate(62.910114 318.238437) scale(0.1 -0.1)">
       <defs>
        <path id="DejaVuSans-30" d="M 2034 4250 
Q 1547 4250 1301 3770 
Q 1056 3291 1056 2328 
Q 1056 1369 1301 889 
Q 1547 409 2034 409 
Q 2525 409 2770 889 
Q 3016 1369 3016 2328 
Q 3016 3291 2770 3770 
Q 2525 4250 2034 4250 
z
M 2034 4750 
Q 2819 4750 3233 4129 
Q 3647 3509 3647 2328 
Q 3647 1150 3233 529 
Q 2819 -91 2034 -91 
Q 1250 -91 836 529 
Q 422 1150 422 2328 
Q 422 3509 836 4129 
Q 1250 4750 2034 4750 
z
" transform="scale(0.015625)"/>
       </defs>
       <use xlink:href="#DejaVuSans-30"/>
      </g>
     </g>
    </g>
    <g id="xtick_2">
     <g id="line2d_2">
      <g>
       <use xlink:href="#md562a3b26c" x="139.955459" y="303.64" style="stroke: #000000; stroke-width: 0.8"/>
      </g>
     </g>
     <g id="text_2">
      <!-- 20 -->
      <g transform="translate(133.592959 318.238437) scale(0.1 -0.1)">
       <defs>
        <path id="DejaVuSans-32" d="M 1228 531 
L 3431 531 
L 3431 0 
L 469 0 
L 469 531 
Q 828 903 1448 1529 
Q 2069 2156 2228 2338 
Q 2531 2678 2651 2914 
Q 2772 3150 2772 3378 
Q 2772 3750 2511 3984 
Q 2250 4219 1831 4219 
Q 1534 4219 1204 4116 
Q 875 4013 500 3803 
L 500 4441 
Q 881 4594 1212 4672 
Q 1544 4750 1819 4750 
Q 2544 4750 2975 4387 
Q 3406 4025 3406 3419 
Q 3406 3131 3298 2873 
Q 3191 2616 2906 2266 
Q 2828 2175 2409 1742 
Q 1991 1309 1228 531 
z
" transform="scale(0.015625)"/>
       </defs>
       <use xlink:href="#DejaVuSans-32"/>
       <use xlink:href="#DejaVuSans-30" x="63.623047"/>
      </g>
     </g>
    </g>
    <g id="xtick_3">
     <g id="line2d_3">
      <g>
       <use xlink:href="#md562a3b26c" x="213.819555" y="303.64" style="stroke: #000000; stroke-width: 0.8"/>
      </g>
     </g>
     <g id="text_3">
      <!-- 40 -->
      <g transform="translate(207.457055 318.238437) scale(0.1 -0.1)">
       <defs>
        <path id="DejaVuSans-34" d="M 2419 4116 
L 825 1625 
L 2419 1625 
L 2419 4116 
z
M 2253 4666 
L 3047 4666 
L 3047 1625 
L 3713 1625 
L 3713 1100 
L 3047 1100 
L 3047 0 
L 2419 0 
L 2419 1100 
L 313 1100 
L 313 1709 
L 2253 4666 
z
" transform="scale(0.015625)"/>
       </defs>
       <use xlink:href="#DejaVuSans-34"/>
       <use xlink:href="#DejaVuSans-30" x="63.623047"/>
      </g>
     </g>
    </g>
    <g id="xtick_4">
     <g id="line2d_4">
      <g>
       <use xlink:href="#md562a3b26c" x="287.68365" y="303.64" style="stroke: #000000; stroke-width: 0.8"/>
      </g>
     </g>
     <g id="text_4">
      <!-- 60 -->
      <g transform="translate(281.32115 318.238437) scale(0.1 -0.1)">
       <defs>
        <path id="DejaVuSans-36" d="M 2113 2584 
Q 1688 2584 1439 2293 
Q 1191 2003 1191 1497 
Q 1191 994 1439 701 
Q 1688 409 2113 409 
Q 2538 409 2786 701 
Q 3034 994 3034 1497 
Q 3034 2003 2786 2293 
Q 2538 2584 2113 2584 
z
M 3366 4563 
L 3366 3988 
Q 3128 4100 2886 4159 
Q 2644 4219 2406 4219 
Q 1781 4219 1451 3797 
Q 1122 3375 1075 2522 
Q 1259 2794 1537 2939 
Q 1816 3084 2150 3084 
Q 2853 3084 3261 2657 
Q 3669 2231 3669 1497 
Q 3669 778 3244 343 
Q 2819 -91 2113 -91 
Q 1303 -91 875 529 
Q 447 1150 447 2328 
Q 447 3434 972 4092 
Q 1497 4750 2381 4750 
Q 2619 4750 2861 4703 
Q 3103 4656 3366 4563 
z
" transform="scale(0.015625)"/>
       </defs>
       <use xlink:href="#DejaVuSans-36"/>
       <use xlink:href="#DejaVuSans-30" x="63.623047"/>
      </g>
     </g>
    </g>
    <g id="xtick_5">
     <g id="line2d_5">
      <g>
       <use xlink:href="#md562a3b26c" x="361.547746" y="303.64" style="stroke: #000000; stroke-width: 0.8"/>
      </g>
     </g>
     <g id="text_5">
      <!-- 80 -->
      <g transform="translate(355.185246 318.238437) scale(0.1 -0.1)">
       <defs>
        <path id="DejaVuSans-38" d="M 2034 2216 
Q 1584 2216 1326 1975 
Q 1069 1734 1069 1313 
Q 1069 891 1326 650 
Q 1584 409 2034 409 
Q 2484 409 2743 651 
Q 3003 894 3003 1313 
Q 3003 1734 2745 1975 
Q 2488 2216 2034 2216 
z
M 1403 2484 
Q 997 2584 770 2862 
Q 544 3141 544 3541 
Q 544 4100 942 4425 
Q 1341 4750 2034 4750 
Q 2731 4750 3128 4425 
Q 3525 4100 3525 3541 
Q 3525 3141 3298 2862 
Q 3072 2584 2669 2484 
Q 3125 2378 3379 2068 
Q 3634 1759 3634 1313 
Q 3634 634 3220 271 
Q 2806 -91 2034 -91 
Q 1263 -91 848 271 
Q 434 634 434 1313 
Q 434 1759 690 2068 
Q 947 2378 1403 2484 
z
M 1172 3481 
Q 1172 3119 1398 2916 
Q 1625 2713 2034 2713 
Q 2441 2713 2670 2916 
Q 2900 3119 2900 3481 
Q 2900 3844 2670 4047 
Q 2441 4250 2034 4250 
Q 1625 4250 1398 4047 
Q 1172 3844 1172 3481 
z
" transform="scale(0.015625)"/>
       </defs>
       <use xlink:href="#DejaVuSans-38"/>
       <use xlink:href="#DejaVuSans-30" x="63.623047"/>
      </g>
     </g>
    </g>
    <g id="xtick_6">
     <g id="line2d_6">
      <g>
       <use xlink:href="#md562a3b26c" x="435.411841" y="303.64" style="stroke: #000000; stroke-width: 0.8"/>
      </g>
     </g>
     <g id="text_6">
      <!-- 100 -->
      <g transform="translate(425.868091 318.238437) scale(0.1 -0.1)">
       <defs>
        <path id="DejaVuSans-31" d="M 794 531 
L 1825 531 
L 1825 4091 
L 703 3866 
L 703 4441 
L 1819 4666 
L 2450 4666 
L 2450 531 
L 3481 531 
L 3481 0 
L 794 0 
L 794 531 
z
" transform="scale(0.015625)"/>
       </defs>
       <use xlink:href="#DejaVuSans-31"/>
       <use xlink:href="#DejaVuSans-30" x="63.623047"/>
       <use xlink:href="#DejaVuSans-30" x="127.246094"/>
      </g>
     </g>
    </g>
    <g id="text_7">
     <!-- Iteration -->
     <g transform="translate(227.696406 331.916562) scale(0.1 -0.1)">
      <defs>
       <path id="DejaVuSans-49" d="M 628 4666 
L 1259 4666 
L 1259 0 
L 628 0 
L 628 4666 
z
" transform="scale(0.015625)"/>
       <path id="DejaVuSans-74" d="M 1172 4494 
L 1172 3500 
L 2356 3500 
L 2356 3053 
L 1172 3053 
L 1172 1153 
Q 1172 725 1289 603 
Q 1406 481 1766 481 
L 2356 481 
L 2356 0 
L 1766 0 
Q 1100 0 847 248 
Q 594 497 594 1153 
L 594 3053 
L 172 3053 
L 172 3500 
L 594 3500 
L 594 4494 
L 1172 4494 
z
" transform="scale(0.015625)"/>
       <path id="DejaVuSans-65" d="M 3597 1894 
L 3597 1613 
L 953 1613 
Q 991 1019 1311 708 
Q 1631 397 2203 397 
Q 2534 397 2845 478 
Q 3156 559 3463 722 
L 3463 178 
Q 3153 47 2828 -22 
Q 2503 -91 2169 -91 
Q 1331 -91 842 396 
Q 353 884 353 1716 
Q 353 2575 817 3079 
Q 1281 3584 2069 3584 
Q 2775 3584 3186 3129 
Q 3597 2675 3597 1894 
z
M 3022 2063 
Q 3016 2534 2758 2815 
Q 2500 3097 2075 3097 
Q 1594 3097 1305 2825 
Q 1016 2553 972 2059 
L 3022 2063 
z
" transform="scale(0.015625)"/>
       <path id="DejaVuSans-72" d="M 2631 2963 
Q 2534 3019 2420 3045 
Q 2306 3072 2169 3072 
Q 1681 3072 1420 2755 
Q 1159 2438 1159 1844 
L 1159 0 
L 581 0 
L 581 3500 
L 1159 3500 
L 1159 2956 
Q 1341 3275 1631 3429 
Q 1922 3584 2338 3584 
Q 2397 3584 2469 3576 
Q 2541 3569 2628 3553 
L 2631 2963 
z
" transform="scale(0.015625)"/>
       <path id="DejaVuSans-61" d="M 2194 1759 
Q 1497 1759 1228 1600 
Q 959 1441 959 1056 
Q 959 750 1161 570 
Q 1363 391 1709 391 
Q 2188 391 2477 730 
Q 2766 1069 2766 1631 
L 2766 1759 
L 2194 1759 
z
M 3341 1997 
L 3341 0 
L 2766 0 
L 2766 531 
Q 2569 213 2275 61 
Q 1981 -91 1556 -91 
Q 1019 -91 701 211 
Q 384 513 384 1019 
Q 384 1609 779 1909 
Q 1175 2209 1959 2209 
L 2766 2209 
L 2766 2266 
Q 2766 2663 2505 2880 
Q 2244 3097 1772 3097 
Q 1472 3097 1187 3025 
Q 903 2953 641 2809 
L 641 3341 
Q 956 3463 1253 3523 
Q 1550 3584 1831 3584 
Q 2591 3584 2966 3190 
Q 3341 2797 3341 1997 
z
" transform="scale(0.015625)"/>
       <path id="DejaVuSans-69" d="M 603 3500 
L 1178 3500 
L 1178 0 
L 603 0 
L 603 3500 
z
M 603 4863 
L 1178 4863 
L 1178 4134 
L 603 4134 
L 603 4863 
z
" transform="scale(0.015625)"/>
       <path id="DejaVuSans-6f" d="M 1959 3097 
Q 1497 3097 1228 2736 
Q 959 2375 959 1747 
Q 959 1119 1226 758 
Q 1494 397 1959 397 
Q 2419 397 2687 759 
Q 2956 1122 2956 1747 
Q 2956 2369 2687 2733 
Q 2419 3097 1959 3097 
z
M 1959 3584 
Q 2709 3584 3137 3096 
Q 3566 2609 3566 1747 
Q 3566 888 3137 398 
Q 2709 -91 1959 -91 
Q 1206 -91 779 398 
Q 353 888 353 1747 
Q 353 2609 779 3096 
Q 1206 3584 1959 3584 
z
" transform="scale(0.015625)"/>
       <path id="DejaVuSans-6e" d="M 3513 2113 
L 3513 0 
L 2938 0 
L 2938 2094 
Q 2938 2591 2744 2837 
Q 2550 3084 2163 3084 
Q 1697 3084 1428 2787 
Q 1159 2491 1159 1978 
L 1159 0 
L 581 0 
L 581 3500 
L 1159 3500 
L 1159 2956 
Q 1366 3272 1645 3428 
Q 1925 3584 2291 3584 
Q 2894 3584 3203 3211 
Q 3513 2838 3513 2113 
z
" transform="scale(0.015625)"/>
      </defs>
      <use xlink:href="#DejaVuSans-49"/>
      <use xlink:href="#DejaVuSans-74" x="29.492188"/>
      <use xlink:href="#DejaVuSans-65" x="68.701172"/>
      <use xlink:href="#DejaVuSans-72" x="130.224609"/>
      <use xlink:href="#DejaVuSans-61" x="171.337891"/>
      <use xlink:href="#DejaVuSans-74" x="232.617188"/>
      <use xlink:href="#DejaVuSans-69" x="271.826172"/>
      <use xlink:href="#DejaVuSans-6f" x="299.609375"/>
      <use xlink:href="#DejaVuSans-6e" x="360.791016"/>
     </g>
    </g>
   </g>
   <g id="matplotlib.axis_2">
    <g id="ytick_1">
     <g id="line2d_7">
      <defs>
       <path id="m419d7e7ea4" d="M 0 0 
L -3.5 0 
" style="stroke: #000000; stroke-width: 0.8"/>
      </defs>
      <g>
       <use xlink:href="#m419d7e7ea4" x="47.81" y="290.994545" style="stroke: #000000; stroke-width: 0.8"/>
      </g>
     </g>
     <g id="text_8">
      <!-- 0.0 -->
      <g transform="translate(24.906875 294.793764) scale(0.1 -0.1)">
       <defs>
        <path id="DejaVuSans-2e" d="M 684 794 
L 1344 794 
L 1344 0 
L 684 0 
L 684 794 
z
" transform="scale(0.015625)"/>
       </defs>
       <use xlink:href="#DejaVuSans-30"/>
       <use xlink:href="#DejaVuSans-2e" x="63.623047"/>
       <use xlink:href="#DejaVuSans-30" x="95.410156"/>
      </g>
     </g>
    </g>
    <g id="ytick_2">
     <g id="line2d_8">
      <g>
       <use xlink:href="#m419d7e7ea4" x="47.81" y="244.667312" style="stroke: #000000; stroke-width: 0.8"/>
      </g>
     </g>
     <g id="text_9">
      <!-- 0.2 -->
      <g transform="translate(24.906875 248.466531) scale(0.1 -0.1)">
       <use xlink:href="#DejaVuSans-30"/>
       <use xlink:href="#DejaVuSans-2e" x="63.623047"/>
       <use xlink:href="#DejaVuSans-32" x="95.410156"/>
      </g>
     </g>
    </g>
    <g id="ytick_3">
     <g id="line2d_9">
      <g>
       <use xlink:href="#m419d7e7ea4" x="47.81" y="198.340079" style="stroke: #000000; stroke-width: 0.8"/>
      </g>
     </g>
     <g id="text_10">
      <!-- 0.4 -->
      <g transform="translate(24.906875 202.139297) scale(0.1 -0.1)">
       <use xlink:href="#DejaVuSans-30"/>
       <use xlink:href="#DejaVuSans-2e" x="63.623047"/>
       <use xlink:href="#DejaVuSans-34" x="95.410156"/>
      </g>
     </g>
    </g>
    <g id="ytick_4">
     <g id="line2d_10">
      <g>
       <use xlink:href="#m419d7e7ea4" x="47.81" y="152.012845" style="stroke: #000000; stroke-width: 0.8"/>
      </g>
     </g>
     <g id="text_11">
      <!-- 0.6 -->
      <g transform="translate(24.906875 155.812064) scale(0.1 -0.1)">
       <use xlink:href="#DejaVuSans-30"/>
       <use xlink:href="#DejaVuSans-2e" x="63.623047"/>
       <use xlink:href="#DejaVuSans-36" x="95.410156"/>
      </g>
     </g>
    </g>
    <g id="ytick_5">
     <g id="line2d_11">
      <g>
       <use xlink:href="#m419d7e7ea4" x="47.81" y="105.685612" style="stroke: #000000; stroke-width: 0.8"/>
      </g>
     </g>
     <g id="text_12">
      <!-- 0.8 -->
      <g transform="translate(24.906875 109.484831) scale(0.1 -0.1)">
       <use xlink:href="#DejaVuSans-30"/>
       <use xlink:href="#DejaVuSans-2e" x="63.623047"/>
       <use xlink:href="#DejaVuSans-38" x="95.410156"/>
      </g>
     </g>
    </g>
    <g id="ytick_6">
     <g id="line2d_12">
      <g>
       <use xlink:href="#m419d7e7ea4" x="47.81" y="59.358379" style="stroke: #000000; stroke-width: 0.8"/>
      </g>
     </g>
     <g id="text_13">
      <!-- 1.0 -->
      <g transform="translate(24.906875 63.157597) scale(0.1 -0.1)">
       <use xlink:href="#DejaVuSans-31"/>
       <use xlink:href="#DejaVuSans-2e" x="63.623047"/>
       <use xlink:href="#DejaVuSans-30" x="95.410156"/>
      </g>
     </g>
    </g>
    <g id="text_14">
     <!-- Avg action -->
     <g transform="translate(18.827187 190.779844) rotate(-90) scale(0.1 -0.1)">
      <defs>
       <path id="DejaVuSans-41" d="M 2188 4044 
L 1331 1722 
L 3047 1722 
L 2188 4044 
z
M 1831 4666 
L 2547 4666 
L 4325 0 
L 3669 0 
L 3244 1197 
L 1141 1197 
L 716 0 
L 50 0 
L 1831 4666 
z
" transform="scale(0.015625)"/>
       <path id="DejaVuSans-76" d="M 191 3500 
L 800 3500 
L 1894 563 
L 2988 3500 
L 3597 3500 
L 2284 0 
L 1503 0 
L 191 3500 
z
" transform="scale(0.015625)"/>
       <path id="DejaVuSans-67" d="M 2906 1791 
Q 2906 2416 2648 2759 
Q 2391 3103 1925 3103 
Q 1463 3103 1205 2759 
Q 947 2416 947 1791 
Q 947 1169 1205 825 
Q 1463 481 1925 481 
Q 2391 481 2648 825 
Q 2906 1169 2906 1791 
z
M 3481 434 
Q 3481 -459 3084 -895 
Q 2688 -1331 1869 -1331 
Q 1566 -1331 1297 -1286 
Q 1028 -1241 775 -1147 
L 775 -588 
Q 1028 -725 1275 -790 
Q 1522 -856 1778 -856 
Q 2344 -856 2625 -561 
Q 2906 -266 2906 331 
L 2906 616 
Q 2728 306 2450 153 
Q 2172 0 1784 0 
Q 1141 0 747 490 
Q 353 981 353 1791 
Q 353 2603 747 3093 
Q 1141 3584 1784 3584 
Q 2172 3584 2450 3431 
Q 2728 3278 2906 2969 
L 2906 3500 
L 3481 3500 
L 3481 434 
z
" transform="scale(0.015625)"/>
       <path id="DejaVuSans-20" transform="scale(0.015625)"/>
       <path id="DejaVuSans-63" d="M 3122 3366 
L 3122 2828 
Q 2878 2963 2633 3030 
Q 2388 3097 2138 3097 
Q 1578 3097 1268 2742 
Q 959 2388 959 1747 
Q 959 1106 1268 751 
Q 1578 397 2138 397 
Q 2388 397 2633 464 
Q 2878 531 3122 666 
L 3122 134 
Q 2881 22 2623 -34 
Q 2366 -91 2075 -91 
Q 1284 -91 818 406 
Q 353 903 353 1747 
Q 353 2603 823 3093 
Q 1294 3584 2113 3584 
Q 2378 3584 2631 3529 
Q 2884 3475 3122 3366 
z
" transform="scale(0.015625)"/>
      </defs>
      <use xlink:href="#DejaVuSans-41"/>
      <use xlink:href="#DejaVuSans-76" x="62.533203"/>
      <use xlink:href="#DejaVuSans-67" x="121.712891"/>
      <use xlink:href="#DejaVuSans-20" x="185.189453"/>
      <use xlink:href="#DejaVuSans-61" x="216.976562"/>
      <use xlink:href="#DejaVuSans-63" x="278.255859"/>
      <use xlink:href="#DejaVuSans-74" x="333.236328"/>
      <use xlink:href="#DejaVuSans-69" x="372.445312"/>
      <use xlink:href="#DejaVuSans-6f" x="400.228516"/>
      <use xlink:href="#DejaVuSans-6e" x="461.410156"/>
     </g>
    </g>
   </g>
   <g id="line2d_13">
    <path d="M 66.091364 63.991102 
L 69.784568 189.074632 
L 73.477773 193.707355 
L 77.170978 165.911015 
L 80.864183 156.645569 
L 84.557388 189.074632 
L 88.250592 161.278292 
L 91.943797 175.176462 
L 95.637002 184.441909 
L 99.330207 156.645569 
L 103.023411 175.176462 
L 106.716616 193.707355 
L 110.409821 165.911015 
L 114.103026 184.441909 
L 117.79623 170.543739 
L 121.489435 147.380122 
L 125.18264 165.911015 
L 128.875845 202.972802 
L 132.56905 156.645569 
L 136.262254 165.911015 
L 139.955459 165.911015 
L 143.648664 175.176462 
L 147.341869 161.278292 
L 151.035073 175.176462 
L 154.728278 133.481952 
L 158.421483 193.707355 
L 162.114688 152.012845 
L 165.807893 184.441909 
L 169.501097 161.278292 
L 173.194302 170.543739 
L 176.887507 175.176462 
L 180.580712 165.911015 
L 184.273916 189.074632 
L 187.967121 170.543739 
L 191.660326 179.809185 
L 195.353531 175.176462 
L 199.046736 147.380122 
L 202.73994 189.074632 
L 206.433145 165.911015 
L 210.12635 175.176462 
L 213.819555 165.911015 
L 217.512759 161.278292 
L 221.205964 152.012845 
L 224.899169 165.911015 
L 228.592374 175.176462 
L 232.285579 156.645569 
L 235.978783 156.645569 
L 239.671988 156.645569 
L 243.365193 184.441909 
L 247.058398 138.114675 
L 250.751602 147.380122 
L 254.444807 179.809185 
L 258.138012 156.645569 
L 261.831217 175.176462 
L 265.524421 179.809185 
L 269.217626 189.074632 
L 272.910831 175.176462 
L 276.604036 161.278292 
L 280.297241 161.278292 
L 283.990445 175.176462 
L 287.68365 142.747399 
L 291.376855 175.176462 
L 295.07006 179.809185 
L 298.763264 170.543739 
L 302.456469 175.176462 
L 306.149674 184.441909 
L 309.842879 175.176462 
L 313.536084 152.012845 
L 317.229288 165.911015 
L 320.922493 179.809185 
L 324.615698 165.911015 
L 328.308903 198.340079 
L 332.002107 170.543739 
L 335.695312 147.380122 
L 339.388517 156.645569 
L 343.081722 179.809185 
L 346.774927 165.911015 
L 350.468131 147.380122 
L 354.161336 161.278292 
L 357.854541 179.809185 
L 361.547746 184.441909 
L 365.24095 198.340079 
L 368.934155 142.747399 
L 372.62736 189.074632 
L 376.320565 179.809185 
L 380.01377 179.809185 
L 383.706974 170.543739 
L 387.400179 175.176462 
L 391.093384 142.747399 
L 394.786589 170.543739 
L 398.479793 179.809185 
L 402.172998 175.176462 
L 405.866203 175.176462 
L 409.559408 147.380122 
L 413.252612 179.809185 
L 416.945817 170.543739 
L 420.639022 207.605525 
L 424.332227 161.278292 
L 428.025432 189.074632 
L 431.718636 156.645569 
" clip-path="url(#pc401179a0b)" style="fill: none; stroke: #0000ff; stroke-linecap: square"/>
    <defs>
     <path id="ma65802f9df" d="M -0.49999 0.49999 
L 0.50001 0.49999 
L 0.50001 -0.50001 
L -0.49999 -0.50001 
z
"/>
    </defs>
    <g clip-path="url(#pc401179a0b)">
     <use xlink:href="#ma65802f9df" x="66.091364" y="63.991102" style="fill: #0000ff"/>
     <use xlink:href="#ma65802f9df" x="69.784568" y="189.074632" style="fill: #0000ff"/>
     <use xlink:href="#ma65802f9df" x="73.477773" y="193.707355" style="fill: #0000ff"/>
     <use xlink:href="#ma65802f9df" x="77.170978" y="165.911015" style="fill: #0000ff"/>
     <use xlink:href="#ma65802f9df" x="80.864183" y="156.645569" style="fill: #0000ff"/>
     <use xlink:href="#ma65802f9df" x="84.557388" y="189.074632" style="fill: #0000ff"/>
     <use xlink:href="#ma65802f9df" x="88.250592" y="161.278292" style="fill: #0000ff"/>
     <use xlink:href="#ma65802f9df" x="91.943797" y="175.176462" style="fill: #0000ff"/>
     <use xlink:href="#ma65802f9df" x="95.637002" y="184.441909" style="fill: #0000ff"/>
     <use xlink:href="#ma65802f9df" x="99.330207" y="156.645569" style="fill: #0000ff"/>
     <use xlink:href="#ma65802f9df" x="103.023411" y="175.176462" style="fill: #0000ff"/>
     <use xlink:href="#ma65802f9df" x="106.716616" y="193.707355" style="fill: #0000ff"/>
     <use xlink:href="#ma65802f9df" x="110.409821" y="165.911015" style="fill: #0000ff"/>
     <use xlink:href="#ma65802f9df" x="114.103026" y="184.441909" style="fill: #0000ff"/>
     <use xlink:href="#ma65802f9df" x="117.79623" y="170.543739" style="fill: #0000ff"/>
     <use xlink:href="#ma65802f9df" x="121.489435" y="147.380122" style="fill: #0000ff"/>
     <use xlink:href="#ma65802f9df" x="125.18264" y="165.911015" style="fill: #0000ff"/>
     <use xlink:href="#ma65802f9df" x="128.875845" y="202.972802" style="fill: #0000ff"/>
     <use xlink:href="#ma65802f9df" x="132.56905" y="156.645569" style="fill: #0000ff"/>
     <use xlink:href="#ma65802f9df" x="136.262254" y="165.911015" style="fill: #0000ff"/>
     <use xlink:href="#ma65802f9df" x="139.955459" y="165.911015" style="fill: #0000ff"/>
     <use xlink:href="#ma65802f9df" x="143.648664" y="175.176462" style="fill: #0000ff"/>
     <use xlink:href="#ma65802f9df" x="147.341869" y="161.278292" style="fill: #0000ff"/>
     <use xlink:href="#ma65802f9df" x="151.035073" y="175.176462" style="fill: #0000ff"/>
     <use xlink:href="#ma65802f9df" x="154.728278" y="133.481952" style="fill: #0000ff"/>
     <use xlink:href="#ma65802f9df" x="158.421483" y="193.707355" style="fill: #0000ff"/>
     <use xlink:href="#ma65802f9df" x="162.114688" y="152.012845" style="fill: #0000ff"/>
     <use xlink:href="#ma65802f9df" x="165.807893" y="184.441909" style="fill: #0000ff"/>
     <use xlink:href="#ma65802f9df" x="169.501097" y="161.278292" style="fill: #0000ff"/>
     <use xlink:href="#ma65802f9df" x="173.194302" y="170.543739" style="fill: #0000ff"/>
     <use xlink:href="#ma65802f9df" x="176.887507" y="175.176462" style="fill: #0000ff"/>
     <use xlink:href="#ma65802f9df" x="180.580712" y="165.911015" style="fill: #0000ff"/>
     <use xlink:href="#ma65802f9df" x="184.273916" y="189.074632" style="fill: #0000ff"/>
     <use xlink:href="#ma65802f9df" x="187.967121" y="170.543739" style="fill: #0000ff"/>
     <use xlink:href="#ma65802f9df" x="191.660326" y="179.809185" style="fill: #0000ff"/>
     <use xlink:href="#ma65802f9df" x="195.353531" y="175.176462" style="fill: #0000ff"/>
     <use xlink:href="#ma65802f9df" x="199.046736" y="147.380122" style="fill: #0000ff"/>
     <use xlink:href="#ma65802f9df" x="202.73994" y="189.074632" style="fill: #0000ff"/>
     <use xlink:href="#ma65802f9df" x="206.433145" y="165.911015" style="fill: #0000ff"/>
     <use xlink:href="#ma65802f9df" x="210.12635" y="175.176462" style="fill: #0000ff"/>
     <use xlink:href="#ma65802f9df" x="213.819555" y="165.911015" style="fill: #0000ff"/>
     <use xlink:href="#ma65802f9df" x="217.512759" y="161.278292" style="fill: #0000ff"/>
     <use xlink:href="#ma65802f9df" x="221.205964" y="152.012845" style="fill: #0000ff"/>
     <use xlink:href="#ma65802f9df" x="224.899169" y="165.911015" style="fill: #0000ff"/>
     <use xlink:href="#ma65802f9df" x="228.592374" y="175.176462" style="fill: #0000ff"/>
     <use xlink:href="#ma65802f9df" x="232.285579" y="156.645569" style="fill: #0000ff"/>
     <use xlink:href="#ma65802f9df" x="235.978783" y="156.645569" style="fill: #0000ff"/>
     <use xlink:href="#ma65802f9df" x="239.671988" y="156.645569" style="fill: #0000ff"/>
     <use xlink:href="#ma65802f9df" x="243.365193" y="184.441909" style="fill: #0000ff"/>
     <use xlink:href="#ma65802f9df" x="247.058398" y="138.114675" style="fill: #0000ff"/>
     <use xlink:href="#ma65802f9df" x="250.751602" y="147.380122" style="fill: #0000ff"/>
     <use xlink:href="#ma65802f9df" x="254.444807" y="179.809185" style="fill: #0000ff"/>
     <use xlink:href="#ma65802f9df" x="258.138012" y="156.645569" style="fill: #0000ff"/>
     <use xlink:href="#ma65802f9df" x="261.831217" y="175.176462" style="fill: #0000ff"/>
     <use xlink:href="#ma65802f9df" x="265.524421" y="179.809185" style="fill: #0000ff"/>
     <use xlink:href="#ma65802f9df" x="269.217626" y="189.074632" style="fill: #0000ff"/>
     <use xlink:href="#ma65802f9df" x="272.910831" y="175.176462" style="fill: #0000ff"/>
     <use xlink:href="#ma65802f9df" x="276.604036" y="161.278292" style="fill: #0000ff"/>
     <use xlink:href="#ma65802f9df" x="280.297241" y="161.278292" style="fill: #0000ff"/>
     <use xlink:href="#ma65802f9df" x="283.990445" y="175.176462" style="fill: #0000ff"/>
     <use xlink:href="#ma65802f9df" x="287.68365" y="142.747399" style="fill: #0000ff"/>
     <use xlink:href="#ma65802f9df" x="291.376855" y="175.176462" style="fill: #0000ff"/>
     <use xlink:href="#ma65802f9df" x="295.07006" y="179.809185" style="fill: #0000ff"/>
     <use xlink:href="#ma65802f9df" x="298.763264" y="170.543739" style="fill: #0000ff"/>
     <use xlink:href="#ma65802f9df" x="302.456469" y="175.176462" style="fill: #0000ff"/>
     <use xlink:href="#ma65802f9df" x="306.149674" y="184.441909" style="fill: #0000ff"/>
     <use xlink:href="#ma65802f9df" x="309.842879" y="175.176462" style="fill: #0000ff"/>
     <use xlink:href="#ma65802f9df" x="313.536084" y="152.012845" style="fill: #0000ff"/>
     <use xlink:href="#ma65802f9df" x="317.229288" y="165.911015" style="fill: #0000ff"/>
     <use xlink:href="#ma65802f9df" x="320.922493" y="179.809185" style="fill: #0000ff"/>
     <use xlink:href="#ma65802f9df" x="324.615698" y="165.911015" style="fill: #0000ff"/>
     <use xlink:href="#ma65802f9df" x="328.308903" y="198.340079" style="fill: #0000ff"/>
     <use xlink:href="#ma65802f9df" x="332.002107" y="170.543739" style="fill: #0000ff"/>
     <use xlink:href="#ma65802f9df" x="335.695312" y="147.380122" style="fill: #0000ff"/>
     <use xlink:href="#ma65802f9df" x="339.388517" y="156.645569" style="fill: #0000ff"/>
     <use xlink:href="#ma65802f9df" x="343.081722" y="179.809185" style="fill: #0000ff"/>
     <use xlink:href="#ma65802f9df" x="346.774927" y="165.911015" style="fill: #0000ff"/>
     <use xlink:href="#ma65802f9df" x="350.468131" y="147.380122" style="fill: #0000ff"/>
     <use xlink:href="#ma65802f9df" x="354.161336" y="161.278292" style="fill: #0000ff"/>
     <use xlink:href="#ma65802f9df" x="357.854541" y="179.809185" style="fill: #0000ff"/>
     <use xlink:href="#ma65802f9df" x="361.547746" y="184.441909" style="fill: #0000ff"/>
     <use xlink:href="#ma65802f9df" x="365.24095" y="198.340079" style="fill: #0000ff"/>
     <use xlink:href="#ma65802f9df" x="368.934155" y="142.747399" style="fill: #0000ff"/>
     <use xlink:href="#ma65802f9df" x="372.62736" y="189.074632" style="fill: #0000ff"/>
     <use xlink:href="#ma65802f9df" x="376.320565" y="179.809185" style="fill: #0000ff"/>
     <use xlink:href="#ma65802f9df" x="380.01377" y="179.809185" style="fill: #0000ff"/>
     <use xlink:href="#ma65802f9df" x="383.706974" y="170.543739" style="fill: #0000ff"/>
     <use xlink:href="#ma65802f9df" x="387.400179" y="175.176462" style="fill: #0000ff"/>
     <use xlink:href="#ma65802f9df" x="391.093384" y="142.747399" style="fill: #0000ff"/>
     <use xlink:href="#ma65802f9df" x="394.786589" y="170.543739" style="fill: #0000ff"/>
     <use xlink:href="#ma65802f9df" x="398.479793" y="179.809185" style="fill: #0000ff"/>
     <use xlink:href="#ma65802f9df" x="402.172998" y="175.176462" style="fill: #0000ff"/>
     <use xlink:href="#ma65802f9df" x="405.866203" y="175.176462" style="fill: #0000ff"/>
     <use xlink:href="#ma65802f9df" x="409.559408" y="147.380122" style="fill: #0000ff"/>
     <use xlink:href="#ma65802f9df" x="413.252612" y="179.809185" style="fill: #0000ff"/>
     <use xlink:href="#ma65802f9df" x="416.945817" y="170.543739" style="fill: #0000ff"/>
     <use xlink:href="#ma65802f9df" x="420.639022" y="207.605525" style="fill: #0000ff"/>
     <use xlink:href="#ma65802f9df" x="424.332227" y="161.278292" style="fill: #0000ff"/>
     <use xlink:href="#ma65802f9df" x="428.025432" y="189.074632" style="fill: #0000ff"/>
     <use xlink:href="#ma65802f9df" x="431.718636" y="156.645569" style="fill: #0000ff"/>
    </g>
   </g>
   <g id="line2d_14">
    <path d="M 66.091364 63.991102 
L 69.784568 126.532867 
L 73.477773 148.924363 
L 77.170978 153.171026 
L 80.864183 153.865935 
L 84.557388 159.734051 
L 88.250592 159.954657 
L 91.943797 161.857382 
L 95.637002 164.366774 
L 99.330207 163.594654 
L 103.023411 164.647545 
L 106.716616 167.069196 
L 110.409821 166.980105 
L 114.103026 168.227377 
L 117.79623 168.381801 
L 121.489435 167.069196 
L 125.18264 167.001068 
L 128.875845 168.999498 
L 132.56905 168.349291 
L 136.262254 168.227377 
L 139.955459 168.117074 
L 143.648664 168.437955 
L 147.341869 168.126666 
L 151.035073 168.420407 
L 154.728278 167.022869 
L 158.421483 168.049195 
L 162.114688 167.455256 
L 165.807893 168.061923 
L 169.501097 167.828004 
L 173.194302 167.918529 
L 176.887507 168.152656 
L 180.580712 168.082604 
L 184.273916 168.718726 
L 187.967121 168.772403 
L 191.660326 169.08774 
L 195.353531 169.256871 
L 199.046736 168.665608 
L 202.73994 169.202687 
L 206.433145 169.118285 
L 210.12635 169.26974 
L 213.819555 169.18782 
L 217.512759 168.999498 
L 221.205964 168.604459 
L 224.899169 168.543244 
L 228.592374 168.690649 
L 232.285579 168.4288 
L 235.978783 168.178093 
L 239.671988 167.937832 
L 243.365193 168.27465 
L 247.058398 167.67145 
L 250.751602 167.273581 
L 254.444807 167.51465 
L 258.138012 167.309573 
L 261.831217 167.455256 
L 265.524421 167.679873 
L 269.217626 168.061923 
L 272.910831 168.186739 
L 276.604036 168.067628 
L 280.297241 167.952554 
L 283.990445 168.072953 
L 287.68365 167.65778 
L 291.376855 167.779049 
L 295.07006 167.970003 
L 298.763264 168.010218 
L 302.456469 168.120468 
L 306.149674 168.367763 
L 309.842879 168.469385 
L 313.536084 168.227377 
L 317.229288 168.193807 
L 320.922493 168.359741 
L 324.615698 168.325251 
L 328.308903 168.742124 
L 332.002107 168.766804 
L 335.695312 168.477794 
L 339.388517 168.320031 
L 343.081722 168.471205 
L 346.774927 168.437955 
L 350.468131 168.167983 
L 354.161336 168.080772 
L 357.854541 168.227377 
L 361.547746 168.427556 
L 365.24095 168.792343 
L 368.934155 168.478549 
L 372.62736 168.72374 
L 376.320565 168.854157 
L 380.01377 168.981541 
L 383.706974 168.999498 
L 387.400179 169.06969 
L 391.093384 168.773934 
L 394.786589 168.793599 
L 398.479793 168.914649 
L 402.172998 168.982712 
L 405.866203 169.049312 
L 409.559408 168.818788 
L 413.252612 168.934477 
L 416.945817 168.95124 
L 420.639022 169.349738 
L 424.332227 169.267376 
L 428.025432 169.467449 
L 431.718636 169.339231 
" clip-path="url(#pc401179a0b)" style="fill: none; stroke: #0000ff; stroke-opacity: 0.5; stroke-width: 0.5; stroke-linecap: square"/>
    <defs>
     <path id="m9b6458153a" d="M -0.49999 0.49999 
L 0.50001 0.49999 
L 0.50001 -0.50001 
L -0.49999 -0.50001 
z
"/>
    </defs>
    <g clip-path="url(#pc401179a0b)">
     <use xlink:href="#m9b6458153a" x="66.091364" y="63.991102" style="fill: #0000ff; fill-opacity: 0.5"/>
     <use xlink:href="#m9b6458153a" x="69.784568" y="126.532867" style="fill: #0000ff; fill-opacity: 0.5"/>
     <use xlink:href="#m9b6458153a" x="73.477773" y="148.924363" style="fill: #0000ff; fill-opacity: 0.5"/>
     <use xlink:href="#m9b6458153a" x="77.170978" y="153.171026" style="fill: #0000ff; fill-opacity: 0.5"/>
     <use xlink:href="#m9b6458153a" x="80.864183" y="153.865935" style="fill: #0000ff; fill-opacity: 0.5"/>
     <use xlink:href="#m9b6458153a" x="84.557388" y="159.734051" style="fill: #0000ff; fill-opacity: 0.5"/>
     <use xlink:href="#m9b6458153a" x="88.250592" y="159.954657" style="fill: #0000ff; fill-opacity: 0.5"/>
     <use xlink:href="#m9b6458153a" x="91.943797" y="161.857382" style="fill: #0000ff; fill-opacity: 0.5"/>
     <use xlink:href="#m9b6458153a" x="95.637002" y="164.366774" style="fill: #0000ff; fill-opacity: 0.5"/>
     <use xlink:href="#m9b6458153a" x="99.330207" y="163.594654" style="fill: #0000ff; fill-opacity: 0.5"/>
     <use xlink:href="#m9b6458153a" x="103.023411" y="164.647545" style="fill: #0000ff; fill-opacity: 0.5"/>
     <use xlink:href="#m9b6458153a" x="106.716616" y="167.069196" style="fill: #0000ff; fill-opacity: 0.5"/>
     <use xlink:href="#m9b6458153a" x="110.409821" y="166.980105" style="fill: #0000ff; fill-opacity: 0.5"/>
     <use xlink:href="#m9b6458153a" x="114.103026" y="168.227377" style="fill: #0000ff; fill-opacity: 0.5"/>
     <use xlink:href="#m9b6458153a" x="117.79623" y="168.381801" style="fill: #0000ff; fill-opacity: 0.5"/>
     <use xlink:href="#m9b6458153a" x="121.489435" y="167.069196" style="fill: #0000ff; fill-opacity: 0.5"/>
     <use xlink:href="#m9b6458153a" x="125.18264" y="167.001068" style="fill: #0000ff; fill-opacity: 0.5"/>
     <use xlink:href="#m9b6458153a" x="128.875845" y="168.999498" style="fill: #0000ff; fill-opacity: 0.5"/>
     <use xlink:href="#m9b6458153a" x="132.56905" y="168.349291" style="fill: #0000ff; fill-opacity: 0.5"/>
     <use xlink:href="#m9b6458153a" x="136.262254" y="168.227377" style="fill: #0000ff; fill-opacity: 0.5"/>
     <use xlink:href="#m9b6458153a" x="139.955459" y="168.117074" style="fill: #0000ff; fill-opacity: 0.5"/>
     <use xlink:href="#m9b6458153a" x="143.648664" y="168.437955" style="fill: #0000ff; fill-opacity: 0.5"/>
     <use xlink:href="#m9b6458153a" x="147.341869" y="168.126666" style="fill: #0000ff; fill-opacity: 0.5"/>
     <use xlink:href="#m9b6458153a" x="151.035073" y="168.420407" style="fill: #0000ff; fill-opacity: 0.5"/>
     <use xlink:href="#m9b6458153a" x="154.728278" y="167.022869" style="fill: #0000ff; fill-opacity: 0.5"/>
     <use xlink:href="#m9b6458153a" x="158.421483" y="168.049195" style="fill: #0000ff; fill-opacity: 0.5"/>
     <use xlink:href="#m9b6458153a" x="162.114688" y="167.455256" style="fill: #0000ff; fill-opacity: 0.5"/>
     <use xlink:href="#m9b6458153a" x="165.807893" y="168.061923" style="fill: #0000ff; fill-opacity: 0.5"/>
     <use xlink:href="#m9b6458153a" x="169.501097" y="167.828004" style="fill: #0000ff; fill-opacity: 0.5"/>
     <use xlink:href="#m9b6458153a" x="173.194302" y="167.918529" style="fill: #0000ff; fill-opacity: 0.5"/>
     <use xlink:href="#m9b6458153a" x="176.887507" y="168.152656" style="fill: #0000ff; fill-opacity: 0.5"/>
     <use xlink:href="#m9b6458153a" x="180.580712" y="168.082604" style="fill: #0000ff; fill-opacity: 0.5"/>
     <use xlink:href="#m9b6458153a" x="184.273916" y="168.718726" style="fill: #0000ff; fill-opacity: 0.5"/>
     <use xlink:href="#m9b6458153a" x="187.967121" y="168.772403" style="fill: #0000ff; fill-opacity: 0.5"/>
     <use xlink:href="#m9b6458153a" x="191.660326" y="169.08774" style="fill: #0000ff; fill-opacity: 0.5"/>
     <use xlink:href="#m9b6458153a" x="195.353531" y="169.256871" style="fill: #0000ff; fill-opacity: 0.5"/>
     <use xlink:href="#m9b6458153a" x="199.046736" y="168.665608" style="fill: #0000ff; fill-opacity: 0.5"/>
     <use xlink:href="#m9b6458153a" x="202.73994" y="169.202687" style="fill: #0000ff; fill-opacity: 0.5"/>
     <use xlink:href="#m9b6458153a" x="206.433145" y="169.118285" style="fill: #0000ff; fill-opacity: 0.5"/>
     <use xlink:href="#m9b6458153a" x="210.12635" y="169.26974" style="fill: #0000ff; fill-opacity: 0.5"/>
     <use xlink:href="#m9b6458153a" x="213.819555" y="169.18782" style="fill: #0000ff; fill-opacity: 0.5"/>
     <use xlink:href="#m9b6458153a" x="217.512759" y="168.999498" style="fill: #0000ff; fill-opacity: 0.5"/>
     <use xlink:href="#m9b6458153a" x="221.205964" y="168.604459" style="fill: #0000ff; fill-opacity: 0.5"/>
     <use xlink:href="#m9b6458153a" x="224.899169" y="168.543244" style="fill: #0000ff; fill-opacity: 0.5"/>
     <use xlink:href="#m9b6458153a" x="228.592374" y="168.690649" style="fill: #0000ff; fill-opacity: 0.5"/>
     <use xlink:href="#m9b6458153a" x="232.285579" y="168.4288" style="fill: #0000ff; fill-opacity: 0.5"/>
     <use xlink:href="#m9b6458153a" x="235.978783" y="168.178093" style="fill: #0000ff; fill-opacity: 0.5"/>
     <use xlink:href="#m9b6458153a" x="239.671988" y="167.937832" style="fill: #0000ff; fill-opacity: 0.5"/>
     <use xlink:href="#m9b6458153a" x="243.365193" y="168.27465" style="fill: #0000ff; fill-opacity: 0.5"/>
     <use xlink:href="#m9b6458153a" x="247.058398" y="167.67145" style="fill: #0000ff; fill-opacity: 0.5"/>
     <use xlink:href="#m9b6458153a" x="250.751602" y="167.273581" style="fill: #0000ff; fill-opacity: 0.5"/>
     <use xlink:href="#m9b6458153a" x="254.444807" y="167.51465" style="fill: #0000ff; fill-opacity: 0.5"/>
     <use xlink:href="#m9b6458153a" x="258.138012" y="167.309573" style="fill: #0000ff; fill-opacity: 0.5"/>
     <use xlink:href="#m9b6458153a" x="261.831217" y="167.455256" style="fill: #0000ff; fill-opacity: 0.5"/>
     <use xlink:href="#m9b6458153a" x="265.524421" y="167.679873" style="fill: #0000ff; fill-opacity: 0.5"/>
     <use xlink:href="#m9b6458153a" x="269.217626" y="168.061923" style="fill: #0000ff; fill-opacity: 0.5"/>
     <use xlink:href="#m9b6458153a" x="272.910831" y="168.186739" style="fill: #0000ff; fill-opacity: 0.5"/>
     <use xlink:href="#m9b6458153a" x="276.604036" y="168.067628" style="fill: #0000ff; fill-opacity: 0.5"/>
     <use xlink:href="#m9b6458153a" x="280.297241" y="167.952554" style="fill: #0000ff; fill-opacity: 0.5"/>
     <use xlink:href="#m9b6458153a" x="283.990445" y="168.072953" style="fill: #0000ff; fill-opacity: 0.5"/>
     <use xlink:href="#m9b6458153a" x="287.68365" y="167.65778" style="fill: #0000ff; fill-opacity: 0.5"/>
     <use xlink:href="#m9b6458153a" x="291.376855" y="167.779049" style="fill: #0000ff; fill-opacity: 0.5"/>
     <use xlink:href="#m9b6458153a" x="295.07006" y="167.970003" style="fill: #0000ff; fill-opacity: 0.5"/>
     <use xlink:href="#m9b6458153a" x="298.763264" y="168.010218" style="fill: #0000ff; fill-opacity: 0.5"/>
     <use xlink:href="#m9b6458153a" x="302.456469" y="168.120468" style="fill: #0000ff; fill-opacity: 0.5"/>
     <use xlink:href="#m9b6458153a" x="306.149674" y="168.367763" style="fill: #0000ff; fill-opacity: 0.5"/>
     <use xlink:href="#m9b6458153a" x="309.842879" y="168.469385" style="fill: #0000ff; fill-opacity: 0.5"/>
     <use xlink:href="#m9b6458153a" x="313.536084" y="168.227377" style="fill: #0000ff; fill-opacity: 0.5"/>
     <use xlink:href="#m9b6458153a" x="317.229288" y="168.193807" style="fill: #0000ff; fill-opacity: 0.5"/>
     <use xlink:href="#m9b6458153a" x="320.922493" y="168.359741" style="fill: #0000ff; fill-opacity: 0.5"/>
     <use xlink:href="#m9b6458153a" x="324.615698" y="168.325251" style="fill: #0000ff; fill-opacity: 0.5"/>
     <use xlink:href="#m9b6458153a" x="328.308903" y="168.742124" style="fill: #0000ff; fill-opacity: 0.5"/>
     <use xlink:href="#m9b6458153a" x="332.002107" y="168.766804" style="fill: #0000ff; fill-opacity: 0.5"/>
     <use xlink:href="#m9b6458153a" x="335.695312" y="168.477794" style="fill: #0000ff; fill-opacity: 0.5"/>
     <use xlink:href="#m9b6458153a" x="339.388517" y="168.320031" style="fill: #0000ff; fill-opacity: 0.5"/>
     <use xlink:href="#m9b6458153a" x="343.081722" y="168.471205" style="fill: #0000ff; fill-opacity: 0.5"/>
     <use xlink:href="#m9b6458153a" x="346.774927" y="168.437955" style="fill: #0000ff; fill-opacity: 0.5"/>
     <use xlink:href="#m9b6458153a" x="350.468131" y="168.167983" style="fill: #0000ff; fill-opacity: 0.5"/>
     <use xlink:href="#m9b6458153a" x="354.161336" y="168.080772" style="fill: #0000ff; fill-opacity: 0.5"/>
     <use xlink:href="#m9b6458153a" x="357.854541" y="168.227377" style="fill: #0000ff; fill-opacity: 0.5"/>
     <use xlink:href="#m9b6458153a" x="361.547746" y="168.427556" style="fill: #0000ff; fill-opacity: 0.5"/>
     <use xlink:href="#m9b6458153a" x="365.24095" y="168.792343" style="fill: #0000ff; fill-opacity: 0.5"/>
     <use xlink:href="#m9b6458153a" x="368.934155" y="168.478549" style="fill: #0000ff; fill-opacity: 0.5"/>
     <use xlink:href="#m9b6458153a" x="372.62736" y="168.72374" style="fill: #0000ff; fill-opacity: 0.5"/>
     <use xlink:href="#m9b6458153a" x="376.320565" y="168.854157" style="fill: #0000ff; fill-opacity: 0.5"/>
     <use xlink:href="#m9b6458153a" x="380.01377" y="168.981541" style="fill: #0000ff; fill-opacity: 0.5"/>
     <use xlink:href="#m9b6458153a" x="383.706974" y="168.999498" style="fill: #0000ff; fill-opacity: 0.5"/>
     <use xlink:href="#m9b6458153a" x="387.400179" y="169.06969" style="fill: #0000ff; fill-opacity: 0.5"/>
     <use xlink:href="#m9b6458153a" x="391.093384" y="168.773934" style="fill: #0000ff; fill-opacity: 0.5"/>
     <use xlink:href="#m9b6458153a" x="394.786589" y="168.793599" style="fill: #0000ff; fill-opacity: 0.5"/>
     <use xlink:href="#m9b6458153a" x="398.479793" y="168.914649" style="fill: #0000ff; fill-opacity: 0.5"/>
     <use xlink:href="#m9b6458153a" x="402.172998" y="168.982712" style="fill: #0000ff; fill-opacity: 0.5"/>
     <use xlink:href="#m9b6458153a" x="405.866203" y="169.049312" style="fill: #0000ff; fill-opacity: 0.5"/>
     <use xlink:href="#m9b6458153a" x="409.559408" y="168.818788" style="fill: #0000ff; fill-opacity: 0.5"/>
     <use xlink:href="#m9b6458153a" x="413.252612" y="168.934477" style="fill: #0000ff; fill-opacity: 0.5"/>
     <use xlink:href="#m9b6458153a" x="416.945817" y="168.95124" style="fill: #0000ff; fill-opacity: 0.5"/>
     <use xlink:href="#m9b6458153a" x="420.639022" y="169.349738" style="fill: #0000ff; fill-opacity: 0.5"/>
     <use xlink:href="#m9b6458153a" x="424.332227" y="169.267376" style="fill: #0000ff; fill-opacity: 0.5"/>
     <use xlink:href="#m9b6458153a" x="428.025432" y="169.467449" style="fill: #0000ff; fill-opacity: 0.5"/>
     <use xlink:href="#m9b6458153a" x="431.718636" y="169.339231" style="fill: #0000ff; fill-opacity: 0.5"/>
    </g>
   </g>
   <g id="line2d_15">
    <path d="M 47.81 290.994545 
L 450 290.994545 
" clip-path="url(#pc401179a0b)" style="fill: none; stroke-dasharray: 0.555,0.24; stroke-dashoffset: 0; stroke: #ff0000; stroke-width: 0.15"/>
   </g>
   <g id="line2d_16">
    <path d="M 47.81 175.176462 
L 450 175.176462 
" clip-path="url(#pc401179a0b)" style="fill: none; stroke-dasharray: 0.555,0.24; stroke-dashoffset: 0; stroke: #ff0000; stroke-width: 0.15"/>
   </g>
   <g id="line2d_17">
    <path d="M 47.81 59.358379 
L 450 59.358379 
" clip-path="url(#pc401179a0b)" style="fill: none; stroke-dasharray: 0.555,0.24; stroke-dashoffset: 0; stroke: #ff0000; stroke-width: 0.15"/>
   </g>
   <g id="line2d_18">
    <path d="M 66.091364 290.994545 
L 69.784568 290.994545 
L 73.477773 290.994545 
L 77.170978 290.994545 
L 80.864183 290.994545 
L 84.557388 290.994545 
L 88.250592 290.994545 
L 91.943797 290.994545 
L 95.637002 290.994545 
L 99.330207 290.994545 
L 103.023411 290.994545 
L 106.716616 290.994545 
L 110.409821 290.994545 
L 114.103026 290.994545 
L 117.79623 290.994545 
L 121.489435 290.994545 
L 125.18264 290.994545 
L 128.875845 290.994545 
L 132.56905 290.994545 
L 136.262254 290.994545 
L 139.955459 290.994545 
L 143.648664 290.994545 
L 147.341869 290.994545 
L 151.035073 290.994545 
L 154.728278 290.994545 
L 158.421483 290.994545 
L 162.114688 290.994545 
L 165.807893 290.994545 
L 169.501097 290.994545 
L 173.194302 290.994545 
L 176.887507 290.994545 
L 180.580712 290.994545 
L 184.273916 290.994545 
L 187.967121 290.994545 
L 191.660326 290.994545 
L 195.353531 290.994545 
L 199.046736 290.994545 
L 202.73994 290.994545 
L 206.433145 290.994545 
L 210.12635 290.994545 
L 213.819555 290.994545 
L 217.512759 290.994545 
L 221.205964 290.994545 
L 224.899169 290.994545 
L 228.592374 290.994545 
L 232.285579 290.994545 
L 235.978783 290.994545 
L 239.671988 290.994545 
L 243.365193 290.994545 
L 247.058398 290.994545 
L 250.751602 290.994545 
L 254.444807 290.994545 
L 258.138012 290.994545 
L 261.831217 290.994545 
L 265.524421 290.994545 
L 269.217626 290.994545 
L 272.910831 290.994545 
L 276.604036 290.994545 
L 280.297241 290.994545 
L 283.990445 290.994545 
L 287.68365 290.994545 
L 291.376855 290.994545 
L 295.07006 290.994545 
L 298.763264 290.994545 
L 302.456469 290.994545 
L 306.149674 290.994545 
L 309.842879 290.994545 
L 313.536084 290.994545 
L 317.229288 290.994545 
L 320.922493 290.994545 
L 324.615698 290.994545 
L 328.308903 290.994545 
L 332.002107 290.994545 
L 335.695312 290.994545 
L 339.388517 290.994545 
L 343.081722 290.994545 
L 346.774927 290.994545 
L 350.468131 290.994545 
L 354.161336 290.994545 
L 357.854541 290.994545 
L 361.547746 290.994545 
L 365.24095 290.994545 
L 368.934155 290.994545 
L 372.62736 290.994545 
L 376.320565 290.994545 
L 380.01377 290.994545 
L 383.706974 290.994545 
L 387.400179 290.994545 
L 391.093384 290.994545 
L 394.786589 290.994545 
L 398.479793 290.994545 
L 402.172998 290.994545 
L 405.866203 290.994545 
L 409.559408 290.994545 
L 413.252612 290.994545 
L 416.945817 290.994545 
L 420.639022 290.994545 
L 424.332227 290.994545 
L 428.025432 290.994545 
L 431.718636 290.994545 
" clip-path="url(#pc401179a0b)" style="fill: none; stroke: #ff0000; stroke-width: 0.5; stroke-linecap: square"/>
    <defs>
     <path id="m7d0358b1dc" d="M -0.49999 0.49999 
L 0.50001 0.49999 
L 0.50001 -0.50001 
L -0.49999 -0.50001 
z
"/>
    </defs>
    <g clip-path="url(#pc401179a0b)">
     <use xlink:href="#m7d0358b1dc" x="66.091364" y="290.994545" style="fill: #ff0000"/>
     <use xlink:href="#m7d0358b1dc" x="69.784568" y="290.994545" style="fill: #ff0000"/>
     <use xlink:href="#m7d0358b1dc" x="73.477773" y="290.994545" style="fill: #ff0000"/>
     <use xlink:href="#m7d0358b1dc" x="77.170978" y="290.994545" style="fill: #ff0000"/>
     <use xlink:href="#m7d0358b1dc" x="80.864183" y="290.994545" style="fill: #ff0000"/>
     <use xlink:href="#m7d0358b1dc" x="84.557388" y="290.994545" style="fill: #ff0000"/>
     <use xlink:href="#m7d0358b1dc" x="88.250592" y="290.994545" style="fill: #ff0000"/>
     <use xlink:href="#m7d0358b1dc" x="91.943797" y="290.994545" style="fill: #ff0000"/>
     <use xlink:href="#m7d0358b1dc" x="95.637002" y="290.994545" style="fill: #ff0000"/>
     <use xlink:href="#m7d0358b1dc" x="99.330207" y="290.994545" style="fill: #ff0000"/>
     <use xlink:href="#m7d0358b1dc" x="103.023411" y="290.994545" style="fill: #ff0000"/>
     <use xlink:href="#m7d0358b1dc" x="106.716616" y="290.994545" style="fill: #ff0000"/>
     <use xlink:href="#m7d0358b1dc" x="110.409821" y="290.994545" style="fill: #ff0000"/>
     <use xlink:href="#m7d0358b1dc" x="114.103026" y="290.994545" style="fill: #ff0000"/>
     <use xlink:href="#m7d0358b1dc" x="117.79623" y="290.994545" style="fill: #ff0000"/>
     <use xlink:href="#m7d0358b1dc" x="121.489435" y="290.994545" style="fill: #ff0000"/>
     <use xlink:href="#m7d0358b1dc" x="125.18264" y="290.994545" style="fill: #ff0000"/>
     <use xlink:href="#m7d0358b1dc" x="128.875845" y="290.994545" style="fill: #ff0000"/>
     <use xlink:href="#m7d0358b1dc" x="132.56905" y="290.994545" style="fill: #ff0000"/>
     <use xlink:href="#m7d0358b1dc" x="136.262254" y="290.994545" style="fill: #ff0000"/>
     <use xlink:href="#m7d0358b1dc" x="139.955459" y="290.994545" style="fill: #ff0000"/>
     <use xlink:href="#m7d0358b1dc" x="143.648664" y="290.994545" style="fill: #ff0000"/>
     <use xlink:href="#m7d0358b1dc" x="147.341869" y="290.994545" style="fill: #ff0000"/>
     <use xlink:href="#m7d0358b1dc" x="151.035073" y="290.994545" style="fill: #ff0000"/>
     <use xlink:href="#m7d0358b1dc" x="154.728278" y="290.994545" style="fill: #ff0000"/>
     <use xlink:href="#m7d0358b1dc" x="158.421483" y="290.994545" style="fill: #ff0000"/>
     <use xlink:href="#m7d0358b1dc" x="162.114688" y="290.994545" style="fill: #ff0000"/>
     <use xlink:href="#m7d0358b1dc" x="165.807893" y="290.994545" style="fill: #ff0000"/>
     <use xlink:href="#m7d0358b1dc" x="169.501097" y="290.994545" style="fill: #ff0000"/>
     <use xlink:href="#m7d0358b1dc" x="173.194302" y="290.994545" style="fill: #ff0000"/>
     <use xlink:href="#m7d0358b1dc" x="176.887507" y="290.994545" style="fill: #ff0000"/>
     <use xlink:href="#m7d0358b1dc" x="180.580712" y="290.994545" style="fill: #ff0000"/>
     <use xlink:href="#m7d0358b1dc" x="184.273916" y="290.994545" style="fill: #ff0000"/>
     <use xlink:href="#m7d0358b1dc" x="187.967121" y="290.994545" style="fill: #ff0000"/>
     <use xlink:href="#m7d0358b1dc" x="191.660326" y="290.994545" style="fill: #ff0000"/>
     <use xlink:href="#m7d0358b1dc" x="195.353531" y="290.994545" style="fill: #ff0000"/>
     <use xlink:href="#m7d0358b1dc" x="199.046736" y="290.994545" style="fill: #ff0000"/>
     <use xlink:href="#m7d0358b1dc" x="202.73994" y="290.994545" style="fill: #ff0000"/>
     <use xlink:href="#m7d0358b1dc" x="206.433145" y="290.994545" style="fill: #ff0000"/>
     <use xlink:href="#m7d0358b1dc" x="210.12635" y="290.994545" style="fill: #ff0000"/>
     <use xlink:href="#m7d0358b1dc" x="213.819555" y="290.994545" style="fill: #ff0000"/>
     <use xlink:href="#m7d0358b1dc" x="217.512759" y="290.994545" style="fill: #ff0000"/>
     <use xlink:href="#m7d0358b1dc" x="221.205964" y="290.994545" style="fill: #ff0000"/>
     <use xlink:href="#m7d0358b1dc" x="224.899169" y="290.994545" style="fill: #ff0000"/>
     <use xlink:href="#m7d0358b1dc" x="228.592374" y="290.994545" style="fill: #ff0000"/>
     <use xlink:href="#m7d0358b1dc" x="232.285579" y="290.994545" style="fill: #ff0000"/>
     <use xlink:href="#m7d0358b1dc" x="235.978783" y="290.994545" style="fill: #ff0000"/>
     <use xlink:href="#m7d0358b1dc" x="239.671988" y="290.994545" style="fill: #ff0000"/>
     <use xlink:href="#m7d0358b1dc" x="243.365193" y="290.994545" style="fill: #ff0000"/>
     <use xlink:href="#m7d0358b1dc" x="247.058398" y="290.994545" style="fill: #ff0000"/>
     <use xlink:href="#m7d0358b1dc" x="250.751602" y="290.994545" style="fill: #ff0000"/>
     <use xlink:href="#m7d0358b1dc" x="254.444807" y="290.994545" style="fill: #ff0000"/>
     <use xlink:href="#m7d0358b1dc" x="258.138012" y="290.994545" style="fill: #ff0000"/>
     <use xlink:href="#m7d0358b1dc" x="261.831217" y="290.994545" style="fill: #ff0000"/>
     <use xlink:href="#m7d0358b1dc" x="265.524421" y="290.994545" style="fill: #ff0000"/>
     <use xlink:href="#m7d0358b1dc" x="269.217626" y="290.994545" style="fill: #ff0000"/>
     <use xlink:href="#m7d0358b1dc" x="272.910831" y="290.994545" style="fill: #ff0000"/>
     <use xlink:href="#m7d0358b1dc" x="276.604036" y="290.994545" style="fill: #ff0000"/>
     <use xlink:href="#m7d0358b1dc" x="280.297241" y="290.994545" style="fill: #ff0000"/>
     <use xlink:href="#m7d0358b1dc" x="283.990445" y="290.994545" style="fill: #ff0000"/>
     <use xlink:href="#m7d0358b1dc" x="287.68365" y="290.994545" style="fill: #ff0000"/>
     <use xlink:href="#m7d0358b1dc" x="291.376855" y="290.994545" style="fill: #ff0000"/>
     <use xlink:href="#m7d0358b1dc" x="295.07006" y="290.994545" style="fill: #ff0000"/>
     <use xlink:href="#m7d0358b1dc" x="298.763264" y="290.994545" style="fill: #ff0000"/>
     <use xlink:href="#m7d0358b1dc" x="302.456469" y="290.994545" style="fill: #ff0000"/>
     <use xlink:href="#m7d0358b1dc" x="306.149674" y="290.994545" style="fill: #ff0000"/>
     <use xlink:href="#m7d0358b1dc" x="309.842879" y="290.994545" style="fill: #ff0000"/>
     <use xlink:href="#m7d0358b1dc" x="313.536084" y="290.994545" style="fill: #ff0000"/>
     <use xlink:href="#m7d0358b1dc" x="317.229288" y="290.994545" style="fill: #ff0000"/>
     <use xlink:href="#m7d0358b1dc" x="320.922493" y="290.994545" style="fill: #ff0000"/>
     <use xlink:href="#m7d0358b1dc" x="324.615698" y="290.994545" style="fill: #ff0000"/>
     <use xlink:href="#m7d0358b1dc" x="328.308903" y="290.994545" style="fill: #ff0000"/>
     <use xlink:href="#m7d0358b1dc" x="332.002107" y="290.994545" style="fill: #ff0000"/>
     <use xlink:href="#m7d0358b1dc" x="335.695312" y="290.994545" style="fill: #ff0000"/>
     <use xlink:href="#m7d0358b1dc" x="339.388517" y="290.994545" style="fill: #ff0000"/>
     <use xlink:href="#m7d0358b1dc" x="343.081722" y="290.994545" style="fill: #ff0000"/>
     <use xlink:href="#m7d0358b1dc" x="346.774927" y="290.994545" style="fill: #ff0000"/>
     <use xlink:href="#m7d0358b1dc" x="350.468131" y="290.994545" style="fill: #ff0000"/>
     <use xlink:href="#m7d0358b1dc" x="354.161336" y="290.994545" style="fill: #ff0000"/>
     <use xlink:href="#m7d0358b1dc" x="357.854541" y="290.994545" style="fill: #ff0000"/>
     <use xlink:href="#m7d0358b1dc" x="361.547746" y="290.994545" style="fill: #ff0000"/>
     <use xlink:href="#m7d0358b1dc" x="365.24095" y="290.994545" style="fill: #ff0000"/>
     <use xlink:href="#m7d0358b1dc" x="368.934155" y="290.994545" style="fill: #ff0000"/>
     <use xlink:href="#m7d0358b1dc" x="372.62736" y="290.994545" style="fill: #ff0000"/>
     <use xlink:href="#m7d0358b1dc" x="376.320565" y="290.994545" style="fill: #ff0000"/>
     <use xlink:href="#m7d0358b1dc" x="380.01377" y="290.994545" style="fill: #ff0000"/>
     <use xlink:href="#m7d0358b1dc" x="383.706974" y="290.994545" style="fill: #ff0000"/>
     <use xlink:href="#m7d0358b1dc" x="387.400179" y="290.994545" style="fill: #ff0000"/>
     <use xlink:href="#m7d0358b1dc" x="391.093384" y="290.994545" style="fill: #ff0000"/>
     <use xlink:href="#m7d0358b1dc" x="394.786589" y="290.994545" style="fill: #ff0000"/>
     <use xlink:href="#m7d0358b1dc" x="398.479793" y="290.994545" style="fill: #ff0000"/>
     <use xlink:href="#m7d0358b1dc" x="402.172998" y="290.994545" style="fill: #ff0000"/>
     <use xlink:href="#m7d0358b1dc" x="405.866203" y="290.994545" style="fill: #ff0000"/>
     <use xlink:href="#m7d0358b1dc" x="409.559408" y="290.994545" style="fill: #ff0000"/>
     <use xlink:href="#m7d0358b1dc" x="413.252612" y="290.994545" style="fill: #ff0000"/>
     <use xlink:href="#m7d0358b1dc" x="416.945817" y="290.994545" style="fill: #ff0000"/>
     <use xlink:href="#m7d0358b1dc" x="420.639022" y="290.994545" style="fill: #ff0000"/>
     <use xlink:href="#m7d0358b1dc" x="424.332227" y="290.994545" style="fill: #ff0000"/>
     <use xlink:href="#m7d0358b1dc" x="428.025432" y="290.994545" style="fill: #ff0000"/>
     <use xlink:href="#m7d0358b1dc" x="431.718636" y="290.994545" style="fill: #ff0000"/>
    </g>
   </g>
   <g id="line2d_19">
    <path d="M 66.091364 290.994545 
L 69.784568 290.994545 
L 73.477773 290.994545 
L 77.170978 290.994545 
L 80.864183 290.994545 
L 84.557388 290.994545 
L 88.250592 290.994545 
L 91.943797 290.994545 
L 95.637002 290.994545 
L 99.330207 290.994545 
L 103.023411 290.994545 
L 106.716616 290.994545 
L 110.409821 290.994545 
L 114.103026 290.994545 
L 117.79623 290.994545 
L 121.489435 290.994545 
L 125.18264 290.994545 
L 128.875845 290.994545 
L 132.56905 290.994545 
L 136.262254 290.994545 
L 139.955459 290.994545 
L 143.648664 290.994545 
L 147.341869 290.994545 
L 151.035073 290.994545 
L 154.728278 290.994545 
L 158.421483 290.994545 
L 162.114688 290.994545 
L 165.807893 290.994545 
L 169.501097 290.994545 
L 173.194302 290.994545 
L 176.887507 290.994545 
L 180.580712 290.994545 
L 184.273916 290.994545 
L 187.967121 290.994545 
L 191.660326 290.994545 
L 195.353531 290.994545 
L 199.046736 290.994545 
L 202.73994 290.994545 
L 206.433145 290.994545 
L 210.12635 290.994545 
L 213.819555 290.994545 
L 217.512759 290.994545 
L 221.205964 290.994545 
L 224.899169 290.994545 
L 228.592374 290.994545 
L 232.285579 290.994545 
L 235.978783 290.994545 
L 239.671988 290.994545 
L 243.365193 290.994545 
L 247.058398 290.994545 
L 250.751602 290.994545 
L 254.444807 290.994545 
L 258.138012 290.994545 
L 261.831217 290.994545 
L 265.524421 290.994545 
L 269.217626 290.994545 
L 272.910831 290.994545 
L 276.604036 290.994545 
L 280.297241 290.994545 
L 283.990445 290.994545 
L 287.68365 290.994545 
L 291.376855 290.994545 
L 295.07006 290.994545 
L 298.763264 290.994545 
L 302.456469 290.994545 
L 306.149674 290.994545 
L 309.842879 290.994545 
L 313.536084 290.994545 
L 317.229288 290.994545 
L 320.922493 290.994545 
L 324.615698 290.994545 
L 328.308903 290.994545 
L 332.002107 290.994545 
L 335.695312 290.994545 
L 339.388517 290.994545 
L 343.081722 290.994545 
L 346.774927 290.994545 
L 350.468131 290.994545 
L 354.161336 290.994545 
L 357.854541 290.994545 
L 361.547746 290.994545 
L 365.24095 290.994545 
L 368.934155 290.994545 
L 372.62736 290.994545 
L 376.320565 290.994545 
L 380.01377 290.994545 
L 383.706974 290.994545 
L 387.400179 290.994545 
L 391.093384 290.994545 
L 394.786589 290.994545 
L 398.479793 290.994545 
L 402.172998 290.994545 
L 405.866203 290.994545 
L 409.559408 290.994545 
L 413.252612 290.994545 
L 416.945817 290.994545 
L 420.639022 290.994545 
L 424.332227 290.994545 
L 428.025432 290.994545 
L 431.718636 290.994545 
" clip-path="url(#pc401179a0b)" style="fill: none; stroke: #ff0000; stroke-opacity: 0.5; stroke-width: 0.25; stroke-linecap: square"/>
    <defs>
     <path id="mbb2d4d780e" d="M -0.49999 0.49999 
L 0.50001 0.49999 
L 0.50001 -0.50001 
L -0.49999 -0.50001 
z
"/>
    </defs>
    <g clip-path="url(#pc401179a0b)">
     <use xlink:href="#mbb2d4d780e" x="66.091364" y="290.994545" style="fill: #ff0000; fill-opacity: 0.5"/>
     <use xlink:href="#mbb2d4d780e" x="69.784568" y="290.994545" style="fill: #ff0000; fill-opacity: 0.5"/>
     <use xlink:href="#mbb2d4d780e" x="73.477773" y="290.994545" style="fill: #ff0000; fill-opacity: 0.5"/>
     <use xlink:href="#mbb2d4d780e" x="77.170978" y="290.994545" style="fill: #ff0000; fill-opacity: 0.5"/>
     <use xlink:href="#mbb2d4d780e" x="80.864183" y="290.994545" style="fill: #ff0000; fill-opacity: 0.5"/>
     <use xlink:href="#mbb2d4d780e" x="84.557388" y="290.994545" style="fill: #ff0000; fill-opacity: 0.5"/>
     <use xlink:href="#mbb2d4d780e" x="88.250592" y="290.994545" style="fill: #ff0000; fill-opacity: 0.5"/>
     <use xlink:href="#mbb2d4d780e" x="91.943797" y="290.994545" style="fill: #ff0000; fill-opacity: 0.5"/>
     <use xlink:href="#mbb2d4d780e" x="95.637002" y="290.994545" style="fill: #ff0000; fill-opacity: 0.5"/>
     <use xlink:href="#mbb2d4d780e" x="99.330207" y="290.994545" style="fill: #ff0000; fill-opacity: 0.5"/>
     <use xlink:href="#mbb2d4d780e" x="103.023411" y="290.994545" style="fill: #ff0000; fill-opacity: 0.5"/>
     <use xlink:href="#mbb2d4d780e" x="106.716616" y="290.994545" style="fill: #ff0000; fill-opacity: 0.5"/>
     <use xlink:href="#mbb2d4d780e" x="110.409821" y="290.994545" style="fill: #ff0000; fill-opacity: 0.5"/>
     <use xlink:href="#mbb2d4d780e" x="114.103026" y="290.994545" style="fill: #ff0000; fill-opacity: 0.5"/>
     <use xlink:href="#mbb2d4d780e" x="117.79623" y="290.994545" style="fill: #ff0000; fill-opacity: 0.5"/>
     <use xlink:href="#mbb2d4d780e" x="121.489435" y="290.994545" style="fill: #ff0000; fill-opacity: 0.5"/>
     <use xlink:href="#mbb2d4d780e" x="125.18264" y="290.994545" style="fill: #ff0000; fill-opacity: 0.5"/>
     <use xlink:href="#mbb2d4d780e" x="128.875845" y="290.994545" style="fill: #ff0000; fill-opacity: 0.5"/>
     <use xlink:href="#mbb2d4d780e" x="132.56905" y="290.994545" style="fill: #ff0000; fill-opacity: 0.5"/>
     <use xlink:href="#mbb2d4d780e" x="136.262254" y="290.994545" style="fill: #ff0000; fill-opacity: 0.5"/>
     <use xlink:href="#mbb2d4d780e" x="139.955459" y="290.994545" style="fill: #ff0000; fill-opacity: 0.5"/>
     <use xlink:href="#mbb2d4d780e" x="143.648664" y="290.994545" style="fill: #ff0000; fill-opacity: 0.5"/>
     <use xlink:href="#mbb2d4d780e" x="147.341869" y="290.994545" style="fill: #ff0000; fill-opacity: 0.5"/>
     <use xlink:href="#mbb2d4d780e" x="151.035073" y="290.994545" style="fill: #ff0000; fill-opacity: 0.5"/>
     <use xlink:href="#mbb2d4d780e" x="154.728278" y="290.994545" style="fill: #ff0000; fill-opacity: 0.5"/>
     <use xlink:href="#mbb2d4d780e" x="158.421483" y="290.994545" style="fill: #ff0000; fill-opacity: 0.5"/>
     <use xlink:href="#mbb2d4d780e" x="162.114688" y="290.994545" style="fill: #ff0000; fill-opacity: 0.5"/>
     <use xlink:href="#mbb2d4d780e" x="165.807893" y="290.994545" style="fill: #ff0000; fill-opacity: 0.5"/>
     <use xlink:href="#mbb2d4d780e" x="169.501097" y="290.994545" style="fill: #ff0000; fill-opacity: 0.5"/>
     <use xlink:href="#mbb2d4d780e" x="173.194302" y="290.994545" style="fill: #ff0000; fill-opacity: 0.5"/>
     <use xlink:href="#mbb2d4d780e" x="176.887507" y="290.994545" style="fill: #ff0000; fill-opacity: 0.5"/>
     <use xlink:href="#mbb2d4d780e" x="180.580712" y="290.994545" style="fill: #ff0000; fill-opacity: 0.5"/>
     <use xlink:href="#mbb2d4d780e" x="184.273916" y="290.994545" style="fill: #ff0000; fill-opacity: 0.5"/>
     <use xlink:href="#mbb2d4d780e" x="187.967121" y="290.994545" style="fill: #ff0000; fill-opacity: 0.5"/>
     <use xlink:href="#mbb2d4d780e" x="191.660326" y="290.994545" style="fill: #ff0000; fill-opacity: 0.5"/>
     <use xlink:href="#mbb2d4d780e" x="195.353531" y="290.994545" style="fill: #ff0000; fill-opacity: 0.5"/>
     <use xlink:href="#mbb2d4d780e" x="199.046736" y="290.994545" style="fill: #ff0000; fill-opacity: 0.5"/>
     <use xlink:href="#mbb2d4d780e" x="202.73994" y="290.994545" style="fill: #ff0000; fill-opacity: 0.5"/>
     <use xlink:href="#mbb2d4d780e" x="206.433145" y="290.994545" style="fill: #ff0000; fill-opacity: 0.5"/>
     <use xlink:href="#mbb2d4d780e" x="210.12635" y="290.994545" style="fill: #ff0000; fill-opacity: 0.5"/>
     <use xlink:href="#mbb2d4d780e" x="213.819555" y="290.994545" style="fill: #ff0000; fill-opacity: 0.5"/>
     <use xlink:href="#mbb2d4d780e" x="217.512759" y="290.994545" style="fill: #ff0000; fill-opacity: 0.5"/>
     <use xlink:href="#mbb2d4d780e" x="221.205964" y="290.994545" style="fill: #ff0000; fill-opacity: 0.5"/>
     <use xlink:href="#mbb2d4d780e" x="224.899169" y="290.994545" style="fill: #ff0000; fill-opacity: 0.5"/>
     <use xlink:href="#mbb2d4d780e" x="228.592374" y="290.994545" style="fill: #ff0000; fill-opacity: 0.5"/>
     <use xlink:href="#mbb2d4d780e" x="232.285579" y="290.994545" style="fill: #ff0000; fill-opacity: 0.5"/>
     <use xlink:href="#mbb2d4d780e" x="235.978783" y="290.994545" style="fill: #ff0000; fill-opacity: 0.5"/>
     <use xlink:href="#mbb2d4d780e" x="239.671988" y="290.994545" style="fill: #ff0000; fill-opacity: 0.5"/>
     <use xlink:href="#mbb2d4d780e" x="243.365193" y="290.994545" style="fill: #ff0000; fill-opacity: 0.5"/>
     <use xlink:href="#mbb2d4d780e" x="247.058398" y="290.994545" style="fill: #ff0000; fill-opacity: 0.5"/>
     <use xlink:href="#mbb2d4d780e" x="250.751602" y="290.994545" style="fill: #ff0000; fill-opacity: 0.5"/>
     <use xlink:href="#mbb2d4d780e" x="254.444807" y="290.994545" style="fill: #ff0000; fill-opacity: 0.5"/>
     <use xlink:href="#mbb2d4d780e" x="258.138012" y="290.994545" style="fill: #ff0000; fill-opacity: 0.5"/>
     <use xlink:href="#mbb2d4d780e" x="261.831217" y="290.994545" style="fill: #ff0000; fill-opacity: 0.5"/>
     <use xlink:href="#mbb2d4d780e" x="265.524421" y="290.994545" style="fill: #ff0000; fill-opacity: 0.5"/>
     <use xlink:href="#mbb2d4d780e" x="269.217626" y="290.994545" style="fill: #ff0000; fill-opacity: 0.5"/>
     <use xlink:href="#mbb2d4d780e" x="272.910831" y="290.994545" style="fill: #ff0000; fill-opacity: 0.5"/>
     <use xlink:href="#mbb2d4d780e" x="276.604036" y="290.994545" style="fill: #ff0000; fill-opacity: 0.5"/>
     <use xlink:href="#mbb2d4d780e" x="280.297241" y="290.994545" style="fill: #ff0000; fill-opacity: 0.5"/>
     <use xlink:href="#mbb2d4d780e" x="283.990445" y="290.994545" style="fill: #ff0000; fill-opacity: 0.5"/>
     <use xlink:href="#mbb2d4d780e" x="287.68365" y="290.994545" style="fill: #ff0000; fill-opacity: 0.5"/>
     <use xlink:href="#mbb2d4d780e" x="291.376855" y="290.994545" style="fill: #ff0000; fill-opacity: 0.5"/>
     <use xlink:href="#mbb2d4d780e" x="295.07006" y="290.994545" style="fill: #ff0000; fill-opacity: 0.5"/>
     <use xlink:href="#mbb2d4d780e" x="298.763264" y="290.994545" style="fill: #ff0000; fill-opacity: 0.5"/>
     <use xlink:href="#mbb2d4d780e" x="302.456469" y="290.994545" style="fill: #ff0000; fill-opacity: 0.5"/>
     <use xlink:href="#mbb2d4d780e" x="306.149674" y="290.994545" style="fill: #ff0000; fill-opacity: 0.5"/>
     <use xlink:href="#mbb2d4d780e" x="309.842879" y="290.994545" style="fill: #ff0000; fill-opacity: 0.5"/>
     <use xlink:href="#mbb2d4d780e" x="313.536084" y="290.994545" style="fill: #ff0000; fill-opacity: 0.5"/>
     <use xlink:href="#mbb2d4d780e" x="317.229288" y="290.994545" style="fill: #ff0000; fill-opacity: 0.5"/>
     <use xlink:href="#mbb2d4d780e" x="320.922493" y="290.994545" style="fill: #ff0000; fill-opacity: 0.5"/>
     <use xlink:href="#mbb2d4d780e" x="324.615698" y="290.994545" style="fill: #ff0000; fill-opacity: 0.5"/>
     <use xlink:href="#mbb2d4d780e" x="328.308903" y="290.994545" style="fill: #ff0000; fill-opacity: 0.5"/>
     <use xlink:href="#mbb2d4d780e" x="332.002107" y="290.994545" style="fill: #ff0000; fill-opacity: 0.5"/>
     <use xlink:href="#mbb2d4d780e" x="335.695312" y="290.994545" style="fill: #ff0000; fill-opacity: 0.5"/>
     <use xlink:href="#mbb2d4d780e" x="339.388517" y="290.994545" style="fill: #ff0000; fill-opacity: 0.5"/>
     <use xlink:href="#mbb2d4d780e" x="343.081722" y="290.994545" style="fill: #ff0000; fill-opacity: 0.5"/>
     <use xlink:href="#mbb2d4d780e" x="346.774927" y="290.994545" style="fill: #ff0000; fill-opacity: 0.5"/>
     <use xlink:href="#mbb2d4d780e" x="350.468131" y="290.994545" style="fill: #ff0000; fill-opacity: 0.5"/>
     <use xlink:href="#mbb2d4d780e" x="354.161336" y="290.994545" style="fill: #ff0000; fill-opacity: 0.5"/>
     <use xlink:href="#mbb2d4d780e" x="357.854541" y="290.994545" style="fill: #ff0000; fill-opacity: 0.5"/>
     <use xlink:href="#mbb2d4d780e" x="361.547746" y="290.994545" style="fill: #ff0000; fill-opacity: 0.5"/>
     <use xlink:href="#mbb2d4d780e" x="365.24095" y="290.994545" style="fill: #ff0000; fill-opacity: 0.5"/>
     <use xlink:href="#mbb2d4d780e" x="368.934155" y="290.994545" style="fill: #ff0000; fill-opacity: 0.5"/>
     <use xlink:href="#mbb2d4d780e" x="372.62736" y="290.994545" style="fill: #ff0000; fill-opacity: 0.5"/>
     <use xlink:href="#mbb2d4d780e" x="376.320565" y="290.994545" style="fill: #ff0000; fill-opacity: 0.5"/>
     <use xlink:href="#mbb2d4d780e" x="380.01377" y="290.994545" style="fill: #ff0000; fill-opacity: 0.5"/>
     <use xlink:href="#mbb2d4d780e" x="383.706974" y="290.994545" style="fill: #ff0000; fill-opacity: 0.5"/>
     <use xlink:href="#mbb2d4d780e" x="387.400179" y="290.994545" style="fill: #ff0000; fill-opacity: 0.5"/>
     <use xlink:href="#mbb2d4d780e" x="391.093384" y="290.994545" style="fill: #ff0000; fill-opacity: 0.5"/>
     <use xlink:href="#mbb2d4d780e" x="394.786589" y="290.994545" style="fill: #ff0000; fill-opacity: 0.5"/>
     <use xlink:href="#mbb2d4d780e" x="398.479793" y="290.994545" style="fill: #ff0000; fill-opacity: 0.5"/>
     <use xlink:href="#mbb2d4d780e" x="402.172998" y="290.994545" style="fill: #ff0000; fill-opacity: 0.5"/>
     <use xlink:href="#mbb2d4d780e" x="405.866203" y="290.994545" style="fill: #ff0000; fill-opacity: 0.5"/>
     <use xlink:href="#mbb2d4d780e" x="409.559408" y="290.994545" style="fill: #ff0000; fill-opacity: 0.5"/>
     <use xlink:href="#mbb2d4d780e" x="413.252612" y="290.994545" style="fill: #ff0000; fill-opacity: 0.5"/>
     <use xlink:href="#mbb2d4d780e" x="416.945817" y="290.994545" style="fill: #ff0000; fill-opacity: 0.5"/>
     <use xlink:href="#mbb2d4d780e" x="420.639022" y="290.994545" style="fill: #ff0000; fill-opacity: 0.5"/>
     <use xlink:href="#mbb2d4d780e" x="424.332227" y="290.994545" style="fill: #ff0000; fill-opacity: 0.5"/>
     <use xlink:href="#mbb2d4d780e" x="428.025432" y="290.994545" style="fill: #ff0000; fill-opacity: 0.5"/>
     <use xlink:href="#mbb2d4d780e" x="431.718636" y="290.994545" style="fill: #ff0000; fill-opacity: 0.5"/>
    </g>
   </g>
   <g id="patch_3">
    <path d="M 47.81 303.64 
L 47.81 25.44 
" style="fill: none; stroke: #000000; stroke-width: 0.8; stroke-linejoin: miter; stroke-linecap: square"/>
   </g>
   <g id="patch_4">
    <path d="M 450 303.64 
L 450 25.44 
" style="fill: none; stroke: #000000; stroke-width: 0.8; stroke-linejoin: miter; stroke-linecap: square"/>
   </g>
   <g id="patch_5">
    <path d="M 47.81 303.64 
L 450 303.64 
" style="fill: none; stroke: #000000; stroke-width: 0.8; stroke-linejoin: miter; stroke-linecap: square"/>
   </g>
   <g id="patch_6">
    <path d="M 47.81 25.44 
L 450 25.44 
" style="fill: none; stroke: #000000; stroke-width: 0.8; stroke-linejoin: miter; stroke-linecap: square"/>
   </g>
   <g id="text_15">
    <!-- Average action - 20240417174456 - 50 games -->
    <g transform="translate(108.798438 19.44) scale(0.12 -0.12)">
     <defs>
      <path id="DejaVuSans-2d" d="M 313 2009 
L 1997 2009 
L 1997 1497 
L 313 1497 
L 313 2009 
z
" transform="scale(0.015625)"/>
      <path id="DejaVuSans-37" d="M 525 4666 
L 3525 4666 
L 3525 4397 
L 1831 0 
L 1172 0 
L 2766 4134 
L 525 4134 
L 525 4666 
z
" transform="scale(0.015625)"/>
      <path id="DejaVuSans-35" d="M 691 4666 
L 3169 4666 
L 3169 4134 
L 1269 4134 
L 1269 2991 
Q 1406 3038 1543 3061 
Q 1681 3084 1819 3084 
Q 2600 3084 3056 2656 
Q 3513 2228 3513 1497 
Q 3513 744 3044 326 
Q 2575 -91 1722 -91 
Q 1428 -91 1123 -41 
Q 819 9 494 109 
L 494 744 
Q 775 591 1075 516 
Q 1375 441 1709 441 
Q 2250 441 2565 725 
Q 2881 1009 2881 1497 
Q 2881 1984 2565 2268 
Q 2250 2553 1709 2553 
Q 1456 2553 1204 2497 
Q 953 2441 691 2322 
L 691 4666 
z
" transform="scale(0.015625)"/>
      <path id="DejaVuSans-6d" d="M 3328 2828 
Q 3544 3216 3844 3400 
Q 4144 3584 4550 3584 
Q 5097 3584 5394 3201 
Q 5691 2819 5691 2113 
L 5691 0 
L 5113 0 
L 5113 2094 
Q 5113 2597 4934 2840 
Q 4756 3084 4391 3084 
Q 3944 3084 3684 2787 
Q 3425 2491 3425 1978 
L 3425 0 
L 2847 0 
L 2847 2094 
Q 2847 2600 2669 2842 
Q 2491 3084 2119 3084 
Q 1678 3084 1418 2786 
Q 1159 2488 1159 1978 
L 1159 0 
L 581 0 
L 581 3500 
L 1159 3500 
L 1159 2956 
Q 1356 3278 1631 3431 
Q 1906 3584 2284 3584 
Q 2666 3584 2933 3390 
Q 3200 3197 3328 2828 
z
" transform="scale(0.015625)"/>
      <path id="DejaVuSans-73" d="M 2834 3397 
L 2834 2853 
Q 2591 2978 2328 3040 
Q 2066 3103 1784 3103 
Q 1356 3103 1142 2972 
Q 928 2841 928 2578 
Q 928 2378 1081 2264 
Q 1234 2150 1697 2047 
L 1894 2003 
Q 2506 1872 2764 1633 
Q 3022 1394 3022 966 
Q 3022 478 2636 193 
Q 2250 -91 1575 -91 
Q 1294 -91 989 -36 
Q 684 19 347 128 
L 347 722 
Q 666 556 975 473 
Q 1284 391 1588 391 
Q 1994 391 2212 530 
Q 2431 669 2431 922 
Q 2431 1156 2273 1281 
Q 2116 1406 1581 1522 
L 1381 1569 
Q 847 1681 609 1914 
Q 372 2147 372 2553 
Q 372 3047 722 3315 
Q 1072 3584 1716 3584 
Q 2034 3584 2315 3537 
Q 2597 3491 2834 3397 
z
" transform="scale(0.015625)"/>
     </defs>
     <use xlink:href="#DejaVuSans-41"/>
     <use xlink:href="#DejaVuSans-76" x="62.533203"/>
     <use xlink:href="#DejaVuSans-65" x="121.712891"/>
     <use xlink:href="#DejaVuSans-72" x="183.236328"/>
     <use xlink:href="#DejaVuSans-61" x="224.349609"/>
     <use xlink:href="#DejaVuSans-67" x="285.628906"/>
     <use xlink:href="#DejaVuSans-65" x="349.105469"/>
     <use xlink:href="#DejaVuSans-20" x="410.628906"/>
     <use xlink:href="#DejaVuSans-61" x="442.416016"/>
     <use xlink:href="#DejaVuSans-63" x="503.695312"/>
     <use xlink:href="#DejaVuSans-74" x="558.675781"/>
     <use xlink:href="#DejaVuSans-69" x="597.884766"/>
     <use xlink:href="#DejaVuSans-6f" x="625.667969"/>
     <use xlink:href="#DejaVuSans-6e" x="686.849609"/>
     <use xlink:href="#DejaVuSans-20" x="750.228516"/>
     <use xlink:href="#DejaVuSans-2d" x="782.015625"/>
     <use xlink:href="#DejaVuSans-20" x="818.099609"/>
     <use xlink:href="#DejaVuSans-32" x="849.886719"/>
     <use xlink:href="#DejaVuSans-30" x="913.509766"/>
     <use xlink:href="#DejaVuSans-32" x="977.132812"/>
     <use xlink:href="#DejaVuSans-34" x="1040.755859"/>
     <use xlink:href="#DejaVuSans-30" x="1104.378906"/>
     <use xlink:href="#DejaVuSans-34" x="1168.001953"/>
     <use xlink:href="#DejaVuSans-31" x="1231.625"/>
     <use xlink:href="#DejaVuSans-37" x="1295.248047"/>
     <use xlink:href="#DejaVuSans-31" x="1358.871094"/>
     <use xlink:href="#DejaVuSans-37" x="1422.494141"/>
     <use xlink:href="#DejaVuSans-34" x="1486.117188"/>
     <use xlink:href="#DejaVuSans-34" x="1549.740234"/>
     <use xlink:href="#DejaVuSans-35" x="1613.363281"/>
     <use xlink:href="#DejaVuSans-36" x="1676.986328"/>
     <use xlink:href="#DejaVuSans-20" x="1740.609375"/>
     <use xlink:href="#DejaVuSans-2d" x="1772.396484"/>
     <use xlink:href="#DejaVuSans-20" x="1808.480469"/>
     <use xlink:href="#DejaVuSans-35" x="1840.267578"/>
     <use xlink:href="#DejaVuSans-30" x="1903.890625"/>
     <use xlink:href="#DejaVuSans-20" x="1967.513672"/>
     <use xlink:href="#DejaVuSans-67" x="1999.300781"/>
     <use xlink:href="#DejaVuSans-61" x="2062.777344"/>
     <use xlink:href="#DejaVuSans-6d" x="2124.056641"/>
     <use xlink:href="#DejaVuSans-65" x="2221.46875"/>
     <use xlink:href="#DejaVuSans-73" x="2282.992188"/>
    </g>
   </g>
   <g id="legend_1">
    <g id="patch_7">
     <path d="M 334.942187 92.70875 
L 443 92.70875 
Q 445 92.70875 445 90.70875 
L 445 32.44 
Q 445 30.44 443 30.44 
L 334.942187 30.44 
Q 332.942187 30.44 332.942187 32.44 
L 332.942187 90.70875 
Q 332.942187 92.70875 334.942187 92.70875 
z
" style="fill: #ffffff; opacity: 0.8; stroke: #cccccc; stroke-linejoin: miter"/>
    </g>
    <g id="line2d_20">
     <path d="M 336.942187 38.538438 
L 346.942187 38.538438 
L 356.942187 38.538438 
" style="fill: none; stroke: #0000ff; stroke-linecap: square"/>
     <g>
      <use xlink:href="#ma65802f9df" x="346.942187" y="38.538438" style="fill: #0000ff"/>
     </g>
    </g>
    <g id="text_16">
     <!-- LLM -->
     <g transform="translate(364.942187 42.038438) scale(0.1 -0.1)">
      <defs>
       <path id="DejaVuSans-4c" d="M 628 4666 
L 1259 4666 
L 1259 531 
L 3531 531 
L 3531 0 
L 628 0 
L 628 4666 
z
" transform="scale(0.015625)"/>
       <path id="DejaVuSans-4d" d="M 628 4666 
L 1569 4666 
L 2759 1491 
L 3956 4666 
L 4897 4666 
L 4897 0 
L 4281 0 
L 4281 4097 
L 3078 897 
L 2444 897 
L 1241 4097 
L 1241 0 
L 628 0 
L 628 4666 
z
" transform="scale(0.015625)"/>
      </defs>
      <use xlink:href="#DejaVuSans-4c"/>
      <use xlink:href="#DejaVuSans-4c" x="55.712891"/>
      <use xlink:href="#DejaVuSans-4d" x="111.425781"/>
     </g>
    </g>
    <g id="line2d_21">
     <path d="M 336.942187 53.216563 
L 346.942187 53.216563 
L 356.942187 53.216563 
" style="fill: none; stroke: #0000ff; stroke-opacity: 0.5; stroke-width: 0.5; stroke-linecap: square"/>
     <g>
      <use xlink:href="#m9b6458153a" x="346.942187" y="53.216563" style="fill: #0000ff; fill-opacity: 0.5"/>
     </g>
    </g>
    <g id="text_17">
     <!-- LLM mean -->
     <g transform="translate(364.942187 56.716563) scale(0.1 -0.1)">
      <use xlink:href="#DejaVuSans-4c"/>
      <use xlink:href="#DejaVuSans-4c" x="55.712891"/>
      <use xlink:href="#DejaVuSans-4d" x="111.425781"/>
      <use xlink:href="#DejaVuSans-20" x="197.705078"/>
      <use xlink:href="#DejaVuSans-6d" x="229.492188"/>
      <use xlink:href="#DejaVuSans-65" x="326.904297"/>
      <use xlink:href="#DejaVuSans-61" x="388.427734"/>
      <use xlink:href="#DejaVuSans-6e" x="449.707031"/>
     </g>
    </g>
    <g id="line2d_22">
     <path d="M 336.942187 67.894688 
L 346.942187 67.894688 
L 356.942187 67.894688 
" style="fill: none; stroke: #ff0000; stroke-width: 0.5; stroke-linecap: square"/>
     <g>
      <use xlink:href="#m7d0358b1dc" x="346.942187" y="67.894688" style="fill: #ff0000"/>
     </g>
    </g>
    <g id="text_18">
     <!-- DEF_sw1 -->
     <g transform="translate(364.942187 71.394688) scale(0.1 -0.1)">
      <defs>
       <path id="DejaVuSans-44" d="M 1259 4147 
L 1259 519 
L 2022 519 
Q 2988 519 3436 956 
Q 3884 1394 3884 2338 
Q 3884 3275 3436 3711 
Q 2988 4147 2022 4147 
L 1259 4147 
z
M 628 4666 
L 1925 4666 
Q 3281 4666 3915 4102 
Q 4550 3538 4550 2338 
Q 4550 1131 3912 565 
Q 3275 0 1925 0 
L 628 0 
L 628 4666 
z
" transform="scale(0.015625)"/>
       <path id="DejaVuSans-45" d="M 628 4666 
L 3578 4666 
L 3578 4134 
L 1259 4134 
L 1259 2753 
L 3481 2753 
L 3481 2222 
L 1259 2222 
L 1259 531 
L 3634 531 
L 3634 0 
L 628 0 
L 628 4666 
z
" transform="scale(0.015625)"/>
       <path id="DejaVuSans-46" d="M 628 4666 
L 3309 4666 
L 3309 4134 
L 1259 4134 
L 1259 2759 
L 3109 2759 
L 3109 2228 
L 1259 2228 
L 1259 0 
L 628 0 
L 628 4666 
z
" transform="scale(0.015625)"/>
       <path id="DejaVuSans-5f" d="M 3263 -1063 
L 3263 -1509 
L -63 -1509 
L -63 -1063 
L 3263 -1063 
z
" transform="scale(0.015625)"/>
       <path id="DejaVuSans-77" d="M 269 3500 
L 844 3500 
L 1563 769 
L 2278 3500 
L 2956 3500 
L 3675 769 
L 4391 3500 
L 4966 3500 
L 4050 0 
L 3372 0 
L 2619 2869 
L 1863 0 
L 1184 0 
L 269 3500 
z
" transform="scale(0.015625)"/>
      </defs>
      <use xlink:href="#DejaVuSans-44"/>
      <use xlink:href="#DejaVuSans-45" x="77.001953"/>
      <use xlink:href="#DejaVuSans-46" x="140.185547"/>
      <use xlink:href="#DejaVuSans-5f" x="197.705078"/>
      <use xlink:href="#DejaVuSans-73" x="247.705078"/>
      <use xlink:href="#DejaVuSans-77" x="299.804688"/>
      <use xlink:href="#DejaVuSans-31" x="381.591797"/>
     </g>
    </g>
    <g id="line2d_23">
     <path d="M 336.942187 82.850938 
L 346.942187 82.850938 
L 356.942187 82.850938 
" style="fill: none; stroke: #ff0000; stroke-opacity: 0.5; stroke-width: 0.25; stroke-linecap: square"/>
     <g>
      <use xlink:href="#mbb2d4d780e" x="346.942187" y="82.850938" style="fill: #ff0000; fill-opacity: 0.5"/>
     </g>
    </g>
    <g id="text_19">
     <!-- DEF_sw1 mean -->
     <g transform="translate(364.942187 86.350938) scale(0.1 -0.1)">
      <use xlink:href="#DejaVuSans-44"/>
      <use xlink:href="#DejaVuSans-45" x="77.001953"/>
      <use xlink:href="#DejaVuSans-46" x="140.185547"/>
      <use xlink:href="#DejaVuSans-5f" x="197.705078"/>
      <use xlink:href="#DejaVuSans-73" x="247.705078"/>
      <use xlink:href="#DejaVuSans-77" x="299.804688"/>
      <use xlink:href="#DejaVuSans-31" x="381.591797"/>
      <use xlink:href="#DejaVuSans-20" x="445.214844"/>
      <use xlink:href="#DejaVuSans-6d" x="477.001953"/>
      <use xlink:href="#DejaVuSans-65" x="574.414062"/>
      <use xlink:href="#DejaVuSans-61" x="635.9375"/>
      <use xlink:href="#DejaVuSans-6e" x="697.216797"/>
     </g>
    </g>
   </g>
  </g>
 </g>
 <defs>
  <clipPath id="pc401179a0b">
   <rect x="47.81" y="25.44" width="402.19" height="278.2"/>
  </clipPath>
 </defs>
</svg>
