<?xml version="1.0" encoding="utf-8" standalone="no"?>
<!DOCTYPE svg PUBLIC "-//W3C//DTD SVG 1.1//EN"
  "http://www.w3.org/Graphics/SVG/1.1/DTD/svg11.dtd">
<svg xmlns:xlink="http://www.w3.org/1999/xlink" width="460.8pt" height="345.6pt" viewBox="0 0 460.8 345.6" xmlns="http://www.w3.org/2000/svg" version="1.1">
 <metadata>
  <rdf:RDF xmlns:dc="http://purl.org/dc/elements/1.1/" xmlns:cc="http://creativecommons.org/ns#" xmlns:rdf="http://www.w3.org/1999/02/22-rdf-syntax-ns#">
   <cc:Work>
    <dc:type rdf:resource="http://purl.org/dc/dcmitype/StillImage"/>
    <dc:date>2024-04-29T10:02:14.517697</dc:date>
    <dc:format>image/svg+xml</dc:format>
    <dc:creator>
     <cc:Agent>
      <dc:title>Matplotlib v3.8.0, https://matplotlib.org/</dc:title>
     </cc:Agent>
    </dc:creator>
   </cc:Work>
  </rdf:RDF>
 </metadata>
 <defs>
  <style type="text/css">*{stroke-linejoin: round; stroke-linecap: butt}</style>
 </defs>
 <g id="figure_1">
  <g id="patch_1">
   <path d="M 0 345.6 
L 460.8 345.6 
L 460.8 0 
L 0 0 
z
" style="fill: #ffffff"/>
  </g>
  <g id="axes_1">
   <g id="patch_2">
    <path d="M 47.81 303.64 
L 450 303.64 
L 450 25.44 
L 47.81 25.44 
z
" style="fill: #ffffff"/>
   </g>
   <g id="PolyCollection_1">
    <defs>
     <path id="ma142dd6559" d="M 66.091364 -264.52 
L 66.091364 -264.52 
L 69.822254 -269.496023 
L 73.553145 -262.316012 
L 77.284035 -257.993027 
L 81.014926 -254.77639 
L 84.745816 -252.277068 
L 88.476707 -250.180359 
L 92.207597 -248.353501 
L 95.938488 -246.70075 
L 99.669378 -245.25506 
L 103.400269 -244.022814 
L 107.13116 -242.923311 
L 110.86205 -242.018758 
L 114.592941 -241.178023 
L 118.323831 -240.401441 
L 122.054722 -239.712208 
L 125.785612 -239.078626 
L 129.516503 -238.515132 
L 133.247393 -237.987879 
L 136.978284 -237.502292 
L 140.709174 -237.071981 
L 144.440065 -236.655108 
L 148.170955 -236.277558 
L 151.901846 -235.940948 
L 155.632737 -235.650341 
L 159.363627 -235.411713 
L 163.094518 -235.177853 
L 166.825408 -234.951932 
L 170.556299 -234.751202 
L 174.287189 -234.56318 
L 178.01808 -234.377575 
L 181.74897 -234.207425 
L 185.479861 -234.039109 
L 189.210751 -233.882285 
L 192.941642 -233.718655 
L 196.672532 -233.568824 
L 200.403423 -233.419414 
L 204.134314 -233.273668 
L 207.865204 -233.138096 
L 211.596095 -233.013281 
L 215.326985 -232.903867 
L 219.057876 -232.807665 
L 222.788766 -232.715667 
L 226.519657 -232.628878 
L 230.250547 -232.545675 
L 233.981438 -232.463466 
L 237.712328 -232.387964 
L 241.443219 -232.312056 
L 245.174109 -232.249889 
L 248.905 -232.18768 
L 252.635891 -232.128613 
L 256.366781 -232.073489 
L 260.097672 -232.025033 
L 263.828562 -231.981859 
L 267.559453 -231.929602 
L 271.290343 -231.87979 
L 275.021234 -231.828951 
L 278.752124 -231.78203 
L 282.483015 -231.741215 
L 286.213905 -231.705409 
L 289.944796 -231.678437 
L 293.675686 -231.659188 
L 297.406577 -231.632763 
L 301.137468 -231.613568 
L 304.868358 -231.597427 
L 308.599249 -231.583401 
L 312.330139 -231.566953 
L 316.06103 -231.546954 
L 319.79192 -231.525728 
L 323.522811 -231.505933 
L 327.253701 -231.486865 
L 330.984592 -231.466077 
L 334.715482 -231.452612 
L 338.446373 -231.437229 
L 342.177263 -231.426441 
L 345.908154 -231.416567 
L 349.639045 -231.406426 
L 353.369935 -231.397139 
L 357.100826 -231.385991 
L 360.831716 -231.373645 
L 364.562607 -231.359711 
L 368.293497 -231.341105 
L 372.024388 -231.324428 
L 375.755278 -231.308273 
L 379.486169 -231.294792 
L 383.217059 -231.278749 
L 386.94795 -231.263193 
L 390.67884 -231.247307 
L 394.409731 -231.233859 
L 398.140622 -231.220413 
L 401.871512 -231.206975 
L 405.602403 -231.192452 
L 409.333293 -231.179061 
L 413.064184 -231.1664 
L 416.795074 -231.155496 
L 420.525965 -231.146288 
L 424.256855 -231.139425 
L 427.987746 -231.131005 
L 431.718636 -231.122797 
L 431.718636 -221.452406 
L 431.718636 -221.452406 
L 427.987746 -221.415217 
L 424.256855 -221.377513 
L 420.525965 -221.338346 
L 416.795074 -221.299767 
L 413.064184 -221.261463 
L 409.333293 -221.223494 
L 405.602403 -221.185238 
L 401.871512 -221.146933 
L 398.140622 -221.107166 
L 394.409731 -221.066603 
L 390.67884 -221.025221 
L 386.94795 -220.984516 
L 383.217059 -220.942718 
L 379.486169 -220.900325 
L 375.755278 -220.855435 
L 372.024388 -220.811227 
L 368.293497 -220.766363 
L 364.562607 -220.721726 
L 360.831716 -220.673144 
L 357.100826 -220.622604 
L 353.369935 -220.570333 
L 349.639045 -220.515988 
L 345.908154 -220.460944 
L 342.177263 -220.404589 
L 338.446373 -220.347491 
L 334.715482 -220.291632 
L 330.984592 -220.233381 
L 327.253701 -220.178068 
L 323.522811 -220.120236 
L 319.79192 -220.06135 
L 316.06103 -220.001793 
L 312.330139 -219.939873 
L 308.599249 -219.874247 
L 304.868358 -219.805621 
L 301.137468 -219.736379 
L 297.406577 -219.667012 
L 293.675686 -219.600106 
L 289.944796 -219.526842 
L 286.213905 -219.456114 
L 282.483015 -219.38917 
L 278.752124 -219.323583 
L 275.021234 -219.260383 
L 271.290343 -219.197792 
L 267.559453 -219.131335 
L 263.828562 -219.063916 
L 260.097672 -218.986015 
L 256.366781 -218.90894 
L 252.635891 -218.833864 
L 248.905 -218.758472 
L 245.174109 -218.681902 
L 241.443219 -218.601121 
L 237.712328 -218.528821 
L 233.981438 -218.451187 
L 230.250547 -218.375122 
L 226.519657 -218.29451 
L 222.788766 -218.21168 
L 219.057876 -218.127968 
L 215.326985 -218.041958 
L 211.596095 -217.963367 
L 207.865204 -217.895866 
L 204.134314 -217.833852 
L 200.403423 -217.77634 
L 196.672532 -217.712671 
L 192.941642 -217.637422 
L 189.210751 -217.569292 
L 185.479861 -217.477689 
L 181.74897 -217.387125 
L 178.01808 -217.283518 
L 174.287189 -217.18368 
L 170.556299 -217.068772 
L 166.825408 -216.950739 
L 163.094518 -216.845249 
L 159.363627 -216.725901 
L 155.632737 -216.586159 
L 151.901846 -216.492818 
L 148.170955 -216.445036 
L 144.440065 -216.437132 
L 140.709174 -216.465573 
L 136.978284 -216.451204 
L 133.247393 -216.499505 
L 129.516503 -216.563241 
L 125.785612 -216.608065 
L 122.054722 -216.727027 
L 118.323831 -216.846045 
L 114.592941 -217.059419 
L 110.86205 -217.220125 
L 107.13116 -217.275479 
L 103.400269 -217.696555 
L 99.669378 -218.101238 
L 95.938488 -218.911702 
L 92.207597 -220.360154 
L 88.476707 -222.560701 
L 84.745816 -224.930619 
L 81.014926 -227.407986 
L 77.284035 -229.422352 
L 73.553145 -232.721766 
L 69.822254 -235.517614 
L 66.091364 -264.52 
z
" style="stroke: #ff0000; stroke-opacity: 0.2"/>
    </defs>
    <g clip-path="url(#p87218779ee)">
     <use xlink:href="#ma142dd6559" x="0" y="345.6" style="fill: #ff0000; fill-opacity: 0.2; stroke: #ff0000; stroke-opacity: 0.2"/>
    </g>
   </g>
   <g id="matplotlib.axis_1">
    <g id="xtick_1">
     <g id="line2d_1">
      <defs>
       <path id="m17725def78" d="M 0 0 
L 0 3.5 
" style="stroke: #000000; stroke-width: 0.8"/>
      </defs>
      <g>
       <use xlink:href="#m17725def78" x="66.091364" y="303.64" style="stroke: #000000; stroke-width: 0.8"/>
      </g>
     </g>
     <g id="text_1">
      <!-- 0 -->
      <g transform="translate(62.910114 318.238437) scale(0.1 -0.1)">
       <defs>
        <path id="DejaVuSans-30" d="M 2034 4250 
Q 1547 4250 1301 3770 
Q 1056 3291 1056 2328 
Q 1056 1369 1301 889 
Q 1547 409 2034 409 
Q 2525 409 2770 889 
Q 3016 1369 3016 2328 
Q 3016 3291 2770 3770 
Q 2525 4250 2034 4250 
z
M 2034 4750 
Q 2819 4750 3233 4129 
Q 3647 3509 3647 2328 
Q 3647 1150 3233 529 
Q 2819 -91 2034 -91 
Q 1250 -91 836 529 
Q 422 1150 422 2328 
Q 422 3509 836 4129 
Q 1250 4750 2034 4750 
z
" transform="scale(0.015625)"/>
       </defs>
       <use xlink:href="#DejaVuSans-30"/>
      </g>
     </g>
    </g>
    <g id="xtick_2">
     <g id="line2d_2">
      <g>
       <use xlink:href="#m17725def78" x="140.709174" y="303.64" style="stroke: #000000; stroke-width: 0.8"/>
      </g>
     </g>
     <g id="text_2">
      <!-- 20 -->
      <g transform="translate(134.346674 318.238437) scale(0.1 -0.1)">
       <defs>
        <path id="DejaVuSans-32" d="M 1228 531 
L 3431 531 
L 3431 0 
L 469 0 
L 469 531 
Q 828 903 1448 1529 
Q 2069 2156 2228 2338 
Q 2531 2678 2651 2914 
Q 2772 3150 2772 3378 
Q 2772 3750 2511 3984 
Q 2250 4219 1831 4219 
Q 1534 4219 1204 4116 
Q 875 4013 500 3803 
L 500 4441 
Q 881 4594 1212 4672 
Q 1544 4750 1819 4750 
Q 2544 4750 2975 4387 
Q 3406 4025 3406 3419 
Q 3406 3131 3298 2873 
Q 3191 2616 2906 2266 
Q 2828 2175 2409 1742 
Q 1991 1309 1228 531 
z
" transform="scale(0.015625)"/>
       </defs>
       <use xlink:href="#DejaVuSans-32"/>
       <use xlink:href="#DejaVuSans-30" x="63.623047"/>
      </g>
     </g>
    </g>
    <g id="xtick_3">
     <g id="line2d_3">
      <g>
       <use xlink:href="#m17725def78" x="215.326985" y="303.64" style="stroke: #000000; stroke-width: 0.8"/>
      </g>
     </g>
     <g id="text_3">
      <!-- 40 -->
      <g transform="translate(208.964485 318.238437) scale(0.1 -0.1)">
       <defs>
        <path id="DejaVuSans-34" d="M 2419 4116 
L 825 1625 
L 2419 1625 
L 2419 4116 
z
M 2253 4666 
L 3047 4666 
L 3047 1625 
L 3713 1625 
L 3713 1100 
L 3047 1100 
L 3047 0 
L 2419 0 
L 2419 1100 
L 313 1100 
L 313 1709 
L 2253 4666 
z
" transform="scale(0.015625)"/>
       </defs>
       <use xlink:href="#DejaVuSans-34"/>
       <use xlink:href="#DejaVuSans-30" x="63.623047"/>
      </g>
     </g>
    </g>
    <g id="xtick_4">
     <g id="line2d_4">
      <g>
       <use xlink:href="#m17725def78" x="289.944796" y="303.64" style="stroke: #000000; stroke-width: 0.8"/>
      </g>
     </g>
     <g id="text_4">
      <!-- 60 -->
      <g transform="translate(283.582296 318.238437) scale(0.1 -0.1)">
       <defs>
        <path id="DejaVuSans-36" d="M 2113 2584 
Q 1688 2584 1439 2293 
Q 1191 2003 1191 1497 
Q 1191 994 1439 701 
Q 1688 409 2113 409 
Q 2538 409 2786 701 
Q 3034 994 3034 1497 
Q 3034 2003 2786 2293 
Q 2538 2584 2113 2584 
z
M 3366 4563 
L 3366 3988 
Q 3128 4100 2886 4159 
Q 2644 4219 2406 4219 
Q 1781 4219 1451 3797 
Q 1122 3375 1075 2522 
Q 1259 2794 1537 2939 
Q 1816 3084 2150 3084 
Q 2853 3084 3261 2657 
Q 3669 2231 3669 1497 
Q 3669 778 3244 343 
Q 2819 -91 2113 -91 
Q 1303 -91 875 529 
Q 447 1150 447 2328 
Q 447 3434 972 4092 
Q 1497 4750 2381 4750 
Q 2619 4750 2861 4703 
Q 3103 4656 3366 4563 
z
" transform="scale(0.015625)"/>
       </defs>
       <use xlink:href="#DejaVuSans-36"/>
       <use xlink:href="#DejaVuSans-30" x="63.623047"/>
      </g>
     </g>
    </g>
    <g id="xtick_5">
     <g id="line2d_5">
      <g>
       <use xlink:href="#m17725def78" x="364.562607" y="303.64" style="stroke: #000000; stroke-width: 0.8"/>
      </g>
     </g>
     <g id="text_5">
      <!-- 80 -->
      <g transform="translate(358.200107 318.238437) scale(0.1 -0.1)">
       <defs>
        <path id="DejaVuSans-38" d="M 2034 2216 
Q 1584 2216 1326 1975 
Q 1069 1734 1069 1313 
Q 1069 891 1326 650 
Q 1584 409 2034 409 
Q 2484 409 2743 651 
Q 3003 894 3003 1313 
Q 3003 1734 2745 1975 
Q 2488 2216 2034 2216 
z
M 1403 2484 
Q 997 2584 770 2862 
Q 544 3141 544 3541 
Q 544 4100 942 4425 
Q 1341 4750 2034 4750 
Q 2731 4750 3128 4425 
Q 3525 4100 3525 3541 
Q 3525 3141 3298 2862 
Q 3072 2584 2669 2484 
Q 3125 2378 3379 2068 
Q 3634 1759 3634 1313 
Q 3634 634 3220 271 
Q 2806 -91 2034 -91 
Q 1263 -91 848 271 
Q 434 634 434 1313 
Q 434 1759 690 2068 
Q 947 2378 1403 2484 
z
M 1172 3481 
Q 1172 3119 1398 2916 
Q 1625 2713 2034 2713 
Q 2441 2713 2670 2916 
Q 2900 3119 2900 3481 
Q 2900 3844 2670 4047 
Q 2441 4250 2034 4250 
Q 1625 4250 1398 4047 
Q 1172 3844 1172 3481 
z
" transform="scale(0.015625)"/>
       </defs>
       <use xlink:href="#DejaVuSans-38"/>
       <use xlink:href="#DejaVuSans-30" x="63.623047"/>
      </g>
     </g>
    </g>
    <g id="xtick_6">
     <g id="line2d_6">
      <g>
       <use xlink:href="#m17725def78" x="439.180417" y="303.64" style="stroke: #000000; stroke-width: 0.8"/>
      </g>
     </g>
     <g id="text_6">
      <!-- 100 -->
      <g transform="translate(429.636667 318.238437) scale(0.1 -0.1)">
       <defs>
        <path id="DejaVuSans-31" d="M 794 531 
L 1825 531 
L 1825 4091 
L 703 3866 
L 703 4441 
L 1819 4666 
L 2450 4666 
L 2450 531 
L 3481 531 
L 3481 0 
L 794 0 
L 794 531 
z
" transform="scale(0.015625)"/>
       </defs>
       <use xlink:href="#DejaVuSans-31"/>
       <use xlink:href="#DejaVuSans-30" x="63.623047"/>
       <use xlink:href="#DejaVuSans-30" x="127.246094"/>
      </g>
     </g>
    </g>
    <g id="text_7">
     <!-- Iteration -->
     <g transform="translate(227.696406 331.916562) scale(0.1 -0.1)">
      <defs>
       <path id="DejaVuSans-49" d="M 628 4666 
L 1259 4666 
L 1259 0 
L 628 0 
L 628 4666 
z
" transform="scale(0.015625)"/>
       <path id="DejaVuSans-74" d="M 1172 4494 
L 1172 3500 
L 2356 3500 
L 2356 3053 
L 1172 3053 
L 1172 1153 
Q 1172 725 1289 603 
Q 1406 481 1766 481 
L 2356 481 
L 2356 0 
L 1766 0 
Q 1100 0 847 248 
Q 594 497 594 1153 
L 594 3053 
L 172 3053 
L 172 3500 
L 594 3500 
L 594 4494 
L 1172 4494 
z
" transform="scale(0.015625)"/>
       <path id="DejaVuSans-65" d="M 3597 1894 
L 3597 1613 
L 953 1613 
Q 991 1019 1311 708 
Q 1631 397 2203 397 
Q 2534 397 2845 478 
Q 3156 559 3463 722 
L 3463 178 
Q 3153 47 2828 -22 
Q 2503 -91 2169 -91 
Q 1331 -91 842 396 
Q 353 884 353 1716 
Q 353 2575 817 3079 
Q 1281 3584 2069 3584 
Q 2775 3584 3186 3129 
Q 3597 2675 3597 1894 
z
M 3022 2063 
Q 3016 2534 2758 2815 
Q 2500 3097 2075 3097 
Q 1594 3097 1305 2825 
Q 1016 2553 972 2059 
L 3022 2063 
z
" transform="scale(0.015625)"/>
       <path id="DejaVuSans-72" d="M 2631 2963 
Q 2534 3019 2420 3045 
Q 2306 3072 2169 3072 
Q 1681 3072 1420 2755 
Q 1159 2438 1159 1844 
L 1159 0 
L 581 0 
L 581 3500 
L 1159 3500 
L 1159 2956 
Q 1341 3275 1631 3429 
Q 1922 3584 2338 3584 
Q 2397 3584 2469 3576 
Q 2541 3569 2628 3553 
L 2631 2963 
z
" transform="scale(0.015625)"/>
       <path id="DejaVuSans-61" d="M 2194 1759 
Q 1497 1759 1228 1600 
Q 959 1441 959 1056 
Q 959 750 1161 570 
Q 1363 391 1709 391 
Q 2188 391 2477 730 
Q 2766 1069 2766 1631 
L 2766 1759 
L 2194 1759 
z
M 3341 1997 
L 3341 0 
L 2766 0 
L 2766 531 
Q 2569 213 2275 61 
Q 1981 -91 1556 -91 
Q 1019 -91 701 211 
Q 384 513 384 1019 
Q 384 1609 779 1909 
Q 1175 2209 1959 2209 
L 2766 2209 
L 2766 2266 
Q 2766 2663 2505 2880 
Q 2244 3097 1772 3097 
Q 1472 3097 1187 3025 
Q 903 2953 641 2809 
L 641 3341 
Q 956 3463 1253 3523 
Q 1550 3584 1831 3584 
Q 2591 3584 2966 3190 
Q 3341 2797 3341 1997 
z
" transform="scale(0.015625)"/>
       <path id="DejaVuSans-69" d="M 603 3500 
L 1178 3500 
L 1178 0 
L 603 0 
L 603 3500 
z
M 603 4863 
L 1178 4863 
L 1178 4134 
L 603 4134 
L 603 4863 
z
" transform="scale(0.015625)"/>
       <path id="DejaVuSans-6f" d="M 1959 3097 
Q 1497 3097 1228 2736 
Q 959 2375 959 1747 
Q 959 1119 1226 758 
Q 1494 397 1959 397 
Q 2419 397 2687 759 
Q 2956 1122 2956 1747 
Q 2956 2369 2687 2733 
Q 2419 3097 1959 3097 
z
M 1959 3584 
Q 2709 3584 3137 3096 
Q 3566 2609 3566 1747 
Q 3566 888 3137 398 
Q 2709 -91 1959 -91 
Q 1206 -91 779 398 
Q 353 888 353 1747 
Q 353 2609 779 3096 
Q 1206 3584 1959 3584 
z
" transform="scale(0.015625)"/>
       <path id="DejaVuSans-6e" d="M 3513 2113 
L 3513 0 
L 2938 0 
L 2938 2094 
Q 2938 2591 2744 2837 
Q 2550 3084 2163 3084 
Q 1697 3084 1428 2787 
Q 1159 2491 1159 1978 
L 1159 0 
L 581 0 
L 581 3500 
L 1159 3500 
L 1159 2956 
Q 1366 3272 1645 3428 
Q 1925 3584 2291 3584 
Q 2894 3584 3203 3211 
Q 3513 2838 3513 2113 
z
" transform="scale(0.015625)"/>
      </defs>
      <use xlink:href="#DejaVuSans-49"/>
      <use xlink:href="#DejaVuSans-74" x="29.492188"/>
      <use xlink:href="#DejaVuSans-65" x="68.701172"/>
      <use xlink:href="#DejaVuSans-72" x="130.224609"/>
      <use xlink:href="#DejaVuSans-61" x="171.337891"/>
      <use xlink:href="#DejaVuSans-74" x="232.617188"/>
      <use xlink:href="#DejaVuSans-69" x="271.826172"/>
      <use xlink:href="#DejaVuSans-6f" x="299.609375"/>
      <use xlink:href="#DejaVuSans-6e" x="360.791016"/>
     </g>
    </g>
   </g>
   <g id="matplotlib.axis_2">
    <g id="ytick_1">
     <g id="line2d_7">
      <defs>
       <path id="m49648f94e1" d="M 0 0 
L -3.5 0 
" style="stroke: #000000; stroke-width: 0.8"/>
      </defs>
      <g>
       <use xlink:href="#m49648f94e1" x="47.81" y="290.994545" style="stroke: #000000; stroke-width: 0.8"/>
      </g>
     </g>
     <g id="text_8">
      <!-- 0.0 -->
      <g transform="translate(24.906875 294.793764) scale(0.1 -0.1)">
       <defs>
        <path id="DejaVuSans-2e" d="M 684 794 
L 1344 794 
L 1344 0 
L 684 0 
L 684 794 
z
" transform="scale(0.015625)"/>
       </defs>
       <use xlink:href="#DejaVuSans-30"/>
       <use xlink:href="#DejaVuSans-2e" x="63.623047"/>
       <use xlink:href="#DejaVuSans-30" x="95.410156"/>
      </g>
     </g>
    </g>
    <g id="ytick_2">
     <g id="line2d_8">
      <g>
       <use xlink:href="#m49648f94e1" x="47.81" y="240.412727" style="stroke: #000000; stroke-width: 0.8"/>
      </g>
     </g>
     <g id="text_9">
      <!-- 0.2 -->
      <g transform="translate(24.906875 244.211946) scale(0.1 -0.1)">
       <use xlink:href="#DejaVuSans-30"/>
       <use xlink:href="#DejaVuSans-2e" x="63.623047"/>
       <use xlink:href="#DejaVuSans-32" x="95.410156"/>
      </g>
     </g>
    </g>
    <g id="ytick_3">
     <g id="line2d_9">
      <g>
       <use xlink:href="#m49648f94e1" x="47.81" y="189.830909" style="stroke: #000000; stroke-width: 0.8"/>
      </g>
     </g>
     <g id="text_10">
      <!-- 0.4 -->
      <g transform="translate(24.906875 193.630128) scale(0.1 -0.1)">
       <use xlink:href="#DejaVuSans-30"/>
       <use xlink:href="#DejaVuSans-2e" x="63.623047"/>
       <use xlink:href="#DejaVuSans-34" x="95.410156"/>
      </g>
     </g>
    </g>
    <g id="ytick_4">
     <g id="line2d_10">
      <g>
       <use xlink:href="#m49648f94e1" x="47.81" y="139.249091" style="stroke: #000000; stroke-width: 0.8"/>
      </g>
     </g>
     <g id="text_11">
      <!-- 0.6 -->
      <g transform="translate(24.906875 143.04831) scale(0.1 -0.1)">
       <use xlink:href="#DejaVuSans-30"/>
       <use xlink:href="#DejaVuSans-2e" x="63.623047"/>
       <use xlink:href="#DejaVuSans-36" x="95.410156"/>
      </g>
     </g>
    </g>
    <g id="ytick_5">
     <g id="line2d_11">
      <g>
       <use xlink:href="#m49648f94e1" x="47.81" y="88.667273" style="stroke: #000000; stroke-width: 0.8"/>
      </g>
     </g>
     <g id="text_12">
      <!-- 0.8 -->
      <g transform="translate(24.906875 92.466491) scale(0.1 -0.1)">
       <use xlink:href="#DejaVuSans-30"/>
       <use xlink:href="#DejaVuSans-2e" x="63.623047"/>
       <use xlink:href="#DejaVuSans-38" x="95.410156"/>
      </g>
     </g>
    </g>
    <g id="ytick_6">
     <g id="line2d_12">
      <g>
       <use xlink:href="#m49648f94e1" x="47.81" y="38.085455" style="stroke: #000000; stroke-width: 0.8"/>
      </g>
     </g>
     <g id="text_13">
      <!-- 1.0 -->
      <g transform="translate(24.906875 41.884673) scale(0.1 -0.1)">
       <use xlink:href="#DejaVuSans-31"/>
       <use xlink:href="#DejaVuSans-2e" x="63.623047"/>
       <use xlink:href="#DejaVuSans-30" x="95.410156"/>
      </g>
     </g>
    </g>
    <g id="text_14">
     <!-- Similarity -->
     <g transform="translate(18.827187 188.179844) rotate(-90) scale(0.1 -0.1)">
      <defs>
       <path id="DejaVuSans-53" d="M 3425 4513 
L 3425 3897 
Q 3066 4069 2747 4153 
Q 2428 4238 2131 4238 
Q 1616 4238 1336 4038 
Q 1056 3838 1056 3469 
Q 1056 3159 1242 3001 
Q 1428 2844 1947 2747 
L 2328 2669 
Q 3034 2534 3370 2195 
Q 3706 1856 3706 1288 
Q 3706 609 3251 259 
Q 2797 -91 1919 -91 
Q 1588 -91 1214 -16 
Q 841 59 441 206 
L 441 856 
Q 825 641 1194 531 
Q 1563 422 1919 422 
Q 2459 422 2753 634 
Q 3047 847 3047 1241 
Q 3047 1584 2836 1778 
Q 2625 1972 2144 2069 
L 1759 2144 
Q 1053 2284 737 2584 
Q 422 2884 422 3419 
Q 422 4038 858 4394 
Q 1294 4750 2059 4750 
Q 2388 4750 2728 4690 
Q 3069 4631 3425 4513 
z
" transform="scale(0.015625)"/>
       <path id="DejaVuSans-6d" d="M 3328 2828 
Q 3544 3216 3844 3400 
Q 4144 3584 4550 3584 
Q 5097 3584 5394 3201 
Q 5691 2819 5691 2113 
L 5691 0 
L 5113 0 
L 5113 2094 
Q 5113 2597 4934 2840 
Q 4756 3084 4391 3084 
Q 3944 3084 3684 2787 
Q 3425 2491 3425 1978 
L 3425 0 
L 2847 0 
L 2847 2094 
Q 2847 2600 2669 2842 
Q 2491 3084 2119 3084 
Q 1678 3084 1418 2786 
Q 1159 2488 1159 1978 
L 1159 0 
L 581 0 
L 581 3500 
L 1159 3500 
L 1159 2956 
Q 1356 3278 1631 3431 
Q 1906 3584 2284 3584 
Q 2666 3584 2933 3390 
Q 3200 3197 3328 2828 
z
" transform="scale(0.015625)"/>
       <path id="DejaVuSans-6c" d="M 603 4863 
L 1178 4863 
L 1178 0 
L 603 0 
L 603 4863 
z
" transform="scale(0.015625)"/>
       <path id="DejaVuSans-79" d="M 2059 -325 
Q 1816 -950 1584 -1140 
Q 1353 -1331 966 -1331 
L 506 -1331 
L 506 -850 
L 844 -850 
Q 1081 -850 1212 -737 
Q 1344 -625 1503 -206 
L 1606 56 
L 191 3500 
L 800 3500 
L 1894 763 
L 2988 3500 
L 3597 3500 
L 2059 -325 
z
" transform="scale(0.015625)"/>
      </defs>
      <use xlink:href="#DejaVuSans-53"/>
      <use xlink:href="#DejaVuSans-69" x="63.476562"/>
      <use xlink:href="#DejaVuSans-6d" x="91.259766"/>
      <use xlink:href="#DejaVuSans-69" x="188.671875"/>
      <use xlink:href="#DejaVuSans-6c" x="216.455078"/>
      <use xlink:href="#DejaVuSans-61" x="244.238281"/>
      <use xlink:href="#DejaVuSans-72" x="305.517578"/>
      <use xlink:href="#DejaVuSans-69" x="346.630859"/>
      <use xlink:href="#DejaVuSans-74" x="374.414062"/>
      <use xlink:href="#DejaVuSans-79" x="413.623047"/>
     </g>
    </g>
   </g>
   <g id="line2d_13">
    <path d="M 66.091364 81.08 
L 69.822254 105.106364 
L 73.553145 108.05697 
L 77.284035 113.325909 
L 81.014926 114.969818 
L 84.745816 119.437879 
L 88.476707 122.629351 
L 92.207597 125.339091 
L 95.938488 125.198586 
L 99.669378 124.074545 
L 103.400269 122.924959 
L 107.13116 123.863788 
L 110.86205 121.74 
L 114.592941 122.990649 
L 118.323831 123.905939 
L 122.054722 123.442273 
L 125.785612 123.777005 
L 129.516503 123.231515 
L 133.247393 123.675215 
L 136.978284 123.695182 
L 140.709174 122.990649 
L 144.440065 123.729669 
L 148.170955 123.304822 
L 151.901846 122.704621 
L 155.632737 121.848945 
L 159.363627 120.767273 
L 163.094518 121.077104 
L 166.825408 121.274481 
L 170.556299 120.847774 
L 174.287189 120.786727 
L 178.01808 121.055953 
L 181.74897 120.834148 
L 185.479861 121.08562 
L 189.210751 120.950374 
L 192.941642 121.545455 
L 196.672532 121.264444 
L 200.403423 121.545455 
L 204.134314 121.678565 
L 207.865204 121.480606 
L 211.596095 121.229318 
L 215.326985 120.743548 
L 219.057876 120.341126 
L 222.788766 120.310317 
L 226.519657 120.22343 
L 230.250547 120.196606 
L 233.981438 120.280909 
L 237.712328 120.092573 
L 241.443219 120.22822 
L 245.174109 119.687347 
L 248.905 119.775091 
L 252.635891 119.710624 
L 256.366781 119.6 
L 260.097672 119.350395 
L 263.828562 119.156869 
L 267.559453 119.660132 
L 271.290343 119.603474 
L 275.021234 119.726284 
L 278.752124 119.583229 
L 282.483015 119.316425 
L 286.213905 119.100667 
L 289.944796 118.68468 
L 293.675686 118.322903 
L 297.406577 118.695209 
L 301.137468 118.344574 
L 304.868358 118.199273 
L 308.599249 118.096694 
L 312.330139 118.223664 
L 316.06103 118.421283 
L 319.79192 118.503215 
L 323.522811 118.438286 
L 327.253701 118.410807 
L 330.984592 118.524596 
L 334.715482 118.115592 
L 338.446373 118.230295 
L 342.177263 117.971006 
L 345.908154 117.918206 
L 349.639045 117.932468 
L 353.369935 117.881515 
L 357.100826 117.991922 
L 360.831716 118.067955 
L 364.562607 118.173333 
L 368.293497 118.49204 
L 372.024388 118.376473 
L 375.755278 118.353983 
L 379.486169 118.183251 
L 383.217059 118.369387 
L 386.94795 118.347753 
L 390.67884 118.384091 
L 394.409731 118.220695 
L 398.140622 118.229535 
L 401.871512 118.238182 
L 405.602403 118.329111 
L 409.333293 118.254917 
L 413.064184 118.209207 
L 416.795074 118.084593 
L 420.525965 117.962576 
L 424.256855 117.790928 
L 427.987746 117.90666 
L 431.718636 117.892323 
" clip-path="url(#p87218779ee)" style="fill: none; stroke: #0000ff; stroke-linecap: square"/>
    <defs>
     <path id="m7028d0d13c" d="M -0.49999 0.49999 
L 0.50001 0.49999 
L 0.50001 -0.50001 
L -0.49999 -0.50001 
z
"/>
    </defs>
    <g clip-path="url(#p87218779ee)">
     <use xlink:href="#m7028d0d13c" x="66.091364" y="81.08" style="fill: #0000ff"/>
     <use xlink:href="#m7028d0d13c" x="69.822254" y="105.106364" style="fill: #0000ff"/>
     <use xlink:href="#m7028d0d13c" x="73.553145" y="108.05697" style="fill: #0000ff"/>
     <use xlink:href="#m7028d0d13c" x="77.284035" y="113.325909" style="fill: #0000ff"/>
     <use xlink:href="#m7028d0d13c" x="81.014926" y="114.969818" style="fill: #0000ff"/>
     <use xlink:href="#m7028d0d13c" x="84.745816" y="119.437879" style="fill: #0000ff"/>
     <use xlink:href="#m7028d0d13c" x="88.476707" y="122.629351" style="fill: #0000ff"/>
     <use xlink:href="#m7028d0d13c" x="92.207597" y="125.339091" style="fill: #0000ff"/>
     <use xlink:href="#m7028d0d13c" x="95.938488" y="125.198586" style="fill: #0000ff"/>
     <use xlink:href="#m7028d0d13c" x="99.669378" y="124.074545" style="fill: #0000ff"/>
     <use xlink:href="#m7028d0d13c" x="103.400269" y="122.924959" style="fill: #0000ff"/>
     <use xlink:href="#m7028d0d13c" x="107.13116" y="123.863788" style="fill: #0000ff"/>
     <use xlink:href="#m7028d0d13c" x="110.86205" y="121.74" style="fill: #0000ff"/>
     <use xlink:href="#m7028d0d13c" x="114.592941" y="122.990649" style="fill: #0000ff"/>
     <use xlink:href="#m7028d0d13c" x="118.323831" y="123.905939" style="fill: #0000ff"/>
     <use xlink:href="#m7028d0d13c" x="122.054722" y="123.442273" style="fill: #0000ff"/>
     <use xlink:href="#m7028d0d13c" x="125.785612" y="123.777005" style="fill: #0000ff"/>
     <use xlink:href="#m7028d0d13c" x="129.516503" y="123.231515" style="fill: #0000ff"/>
     <use xlink:href="#m7028d0d13c" x="133.247393" y="123.675215" style="fill: #0000ff"/>
     <use xlink:href="#m7028d0d13c" x="136.978284" y="123.695182" style="fill: #0000ff"/>
     <use xlink:href="#m7028d0d13c" x="140.709174" y="122.990649" style="fill: #0000ff"/>
     <use xlink:href="#m7028d0d13c" x="144.440065" y="123.729669" style="fill: #0000ff"/>
     <use xlink:href="#m7028d0d13c" x="148.170955" y="123.304822" style="fill: #0000ff"/>
     <use xlink:href="#m7028d0d13c" x="151.901846" y="122.704621" style="fill: #0000ff"/>
     <use xlink:href="#m7028d0d13c" x="155.632737" y="121.848945" style="fill: #0000ff"/>
     <use xlink:href="#m7028d0d13c" x="159.363627" y="120.767273" style="fill: #0000ff"/>
     <use xlink:href="#m7028d0d13c" x="163.094518" y="121.077104" style="fill: #0000ff"/>
     <use xlink:href="#m7028d0d13c" x="166.825408" y="121.274481" style="fill: #0000ff"/>
     <use xlink:href="#m7028d0d13c" x="170.556299" y="120.847774" style="fill: #0000ff"/>
     <use xlink:href="#m7028d0d13c" x="174.287189" y="120.786727" style="fill: #0000ff"/>
     <use xlink:href="#m7028d0d13c" x="178.01808" y="121.055953" style="fill: #0000ff"/>
     <use xlink:href="#m7028d0d13c" x="181.74897" y="120.834148" style="fill: #0000ff"/>
     <use xlink:href="#m7028d0d13c" x="185.479861" y="121.08562" style="fill: #0000ff"/>
     <use xlink:href="#m7028d0d13c" x="189.210751" y="120.950374" style="fill: #0000ff"/>
     <use xlink:href="#m7028d0d13c" x="192.941642" y="121.545455" style="fill: #0000ff"/>
     <use xlink:href="#m7028d0d13c" x="196.672532" y="121.264444" style="fill: #0000ff"/>
     <use xlink:href="#m7028d0d13c" x="200.403423" y="121.545455" style="fill: #0000ff"/>
     <use xlink:href="#m7028d0d13c" x="204.134314" y="121.678565" style="fill: #0000ff"/>
     <use xlink:href="#m7028d0d13c" x="207.865204" y="121.480606" style="fill: #0000ff"/>
     <use xlink:href="#m7028d0d13c" x="211.596095" y="121.229318" style="fill: #0000ff"/>
     <use xlink:href="#m7028d0d13c" x="215.326985" y="120.743548" style="fill: #0000ff"/>
     <use xlink:href="#m7028d0d13c" x="219.057876" y="120.341126" style="fill: #0000ff"/>
     <use xlink:href="#m7028d0d13c" x="222.788766" y="120.310317" style="fill: #0000ff"/>
     <use xlink:href="#m7028d0d13c" x="226.519657" y="120.22343" style="fill: #0000ff"/>
     <use xlink:href="#m7028d0d13c" x="230.250547" y="120.196606" style="fill: #0000ff"/>
     <use xlink:href="#m7028d0d13c" x="233.981438" y="120.280909" style="fill: #0000ff"/>
     <use xlink:href="#m7028d0d13c" x="237.712328" y="120.092573" style="fill: #0000ff"/>
     <use xlink:href="#m7028d0d13c" x="241.443219" y="120.22822" style="fill: #0000ff"/>
     <use xlink:href="#m7028d0d13c" x="245.174109" y="119.687347" style="fill: #0000ff"/>
     <use xlink:href="#m7028d0d13c" x="248.905" y="119.775091" style="fill: #0000ff"/>
     <use xlink:href="#m7028d0d13c" x="252.635891" y="119.710624" style="fill: #0000ff"/>
     <use xlink:href="#m7028d0d13c" x="256.366781" y="119.6" style="fill: #0000ff"/>
     <use xlink:href="#m7028d0d13c" x="260.097672" y="119.350395" style="fill: #0000ff"/>
     <use xlink:href="#m7028d0d13c" x="263.828562" y="119.156869" style="fill: #0000ff"/>
     <use xlink:href="#m7028d0d13c" x="267.559453" y="119.660132" style="fill: #0000ff"/>
     <use xlink:href="#m7028d0d13c" x="271.290343" y="119.603474" style="fill: #0000ff"/>
     <use xlink:href="#m7028d0d13c" x="275.021234" y="119.726284" style="fill: #0000ff"/>
     <use xlink:href="#m7028d0d13c" x="278.752124" y="119.583229" style="fill: #0000ff"/>
     <use xlink:href="#m7028d0d13c" x="282.483015" y="119.316425" style="fill: #0000ff"/>
     <use xlink:href="#m7028d0d13c" x="286.213905" y="119.100667" style="fill: #0000ff"/>
     <use xlink:href="#m7028d0d13c" x="289.944796" y="118.68468" style="fill: #0000ff"/>
     <use xlink:href="#m7028d0d13c" x="293.675686" y="118.322903" style="fill: #0000ff"/>
     <use xlink:href="#m7028d0d13c" x="297.406577" y="118.695209" style="fill: #0000ff"/>
     <use xlink:href="#m7028d0d13c" x="301.137468" y="118.344574" style="fill: #0000ff"/>
     <use xlink:href="#m7028d0d13c" x="304.868358" y="118.199273" style="fill: #0000ff"/>
     <use xlink:href="#m7028d0d13c" x="308.599249" y="118.096694" style="fill: #0000ff"/>
     <use xlink:href="#m7028d0d13c" x="312.330139" y="118.223664" style="fill: #0000ff"/>
     <use xlink:href="#m7028d0d13c" x="316.06103" y="118.421283" style="fill: #0000ff"/>
     <use xlink:href="#m7028d0d13c" x="319.79192" y="118.503215" style="fill: #0000ff"/>
     <use xlink:href="#m7028d0d13c" x="323.522811" y="118.438286" style="fill: #0000ff"/>
     <use xlink:href="#m7028d0d13c" x="327.253701" y="118.410807" style="fill: #0000ff"/>
     <use xlink:href="#m7028d0d13c" x="330.984592" y="118.524596" style="fill: #0000ff"/>
     <use xlink:href="#m7028d0d13c" x="334.715482" y="118.115592" style="fill: #0000ff"/>
     <use xlink:href="#m7028d0d13c" x="338.446373" y="118.230295" style="fill: #0000ff"/>
     <use xlink:href="#m7028d0d13c" x="342.177263" y="117.971006" style="fill: #0000ff"/>
     <use xlink:href="#m7028d0d13c" x="345.908154" y="117.918206" style="fill: #0000ff"/>
     <use xlink:href="#m7028d0d13c" x="349.639045" y="117.932468" style="fill: #0000ff"/>
     <use xlink:href="#m7028d0d13c" x="353.369935" y="117.881515" style="fill: #0000ff"/>
     <use xlink:href="#m7028d0d13c" x="357.100826" y="117.991922" style="fill: #0000ff"/>
     <use xlink:href="#m7028d0d13c" x="360.831716" y="118.067955" style="fill: #0000ff"/>
     <use xlink:href="#m7028d0d13c" x="364.562607" y="118.173333" style="fill: #0000ff"/>
     <use xlink:href="#m7028d0d13c" x="368.293497" y="118.49204" style="fill: #0000ff"/>
     <use xlink:href="#m7028d0d13c" x="372.024388" y="118.376473" style="fill: #0000ff"/>
     <use xlink:href="#m7028d0d13c" x="375.755278" y="118.353983" style="fill: #0000ff"/>
     <use xlink:href="#m7028d0d13c" x="379.486169" y="118.183251" style="fill: #0000ff"/>
     <use xlink:href="#m7028d0d13c" x="383.217059" y="118.369387" style="fill: #0000ff"/>
     <use xlink:href="#m7028d0d13c" x="386.94795" y="118.347753" style="fill: #0000ff"/>
     <use xlink:href="#m7028d0d13c" x="390.67884" y="118.384091" style="fill: #0000ff"/>
     <use xlink:href="#m7028d0d13c" x="394.409731" y="118.220695" style="fill: #0000ff"/>
     <use xlink:href="#m7028d0d13c" x="398.140622" y="118.229535" style="fill: #0000ff"/>
     <use xlink:href="#m7028d0d13c" x="401.871512" y="118.238182" style="fill: #0000ff"/>
     <use xlink:href="#m7028d0d13c" x="405.602403" y="118.329111" style="fill: #0000ff"/>
     <use xlink:href="#m7028d0d13c" x="409.333293" y="118.254917" style="fill: #0000ff"/>
     <use xlink:href="#m7028d0d13c" x="413.064184" y="118.209207" style="fill: #0000ff"/>
     <use xlink:href="#m7028d0d13c" x="416.795074" y="118.084593" style="fill: #0000ff"/>
     <use xlink:href="#m7028d0d13c" x="420.525965" y="117.962576" style="fill: #0000ff"/>
     <use xlink:href="#m7028d0d13c" x="424.256855" y="117.790928" style="fill: #0000ff"/>
     <use xlink:href="#m7028d0d13c" x="427.987746" y="117.90666" style="fill: #0000ff"/>
     <use xlink:href="#m7028d0d13c" x="431.718636" y="117.892323" style="fill: #0000ff"/>
    </g>
   </g>
   <g id="line2d_14">
    <path d="M 66.091364 81.08 
L 69.822254 93.093182 
L 73.553145 98.081111 
L 77.284035 101.892311 
L 81.014926 104.507812 
L 84.745816 106.996157 
L 88.476707 109.22947 
L 92.207597 111.243173 
L 95.938488 112.793774 
L 99.669378 113.921851 
L 103.400269 114.740316 
L 107.13116 115.500605 
L 110.86205 115.980558 
L 114.592941 116.481279 
L 118.323831 116.976257 
L 122.054722 117.380383 
L 125.785612 117.756654 
L 129.516503 118.060813 
L 133.247393 118.356308 
L 136.978284 118.623252 
L 140.709174 118.831223 
L 144.440065 119.05388 
L 148.170955 119.238703 
L 151.901846 119.383117 
L 155.632737 119.48175 
L 159.363627 119.531193 
L 163.094518 119.588449 
L 166.825408 119.648664 
L 170.556299 119.690013 
L 174.287189 119.72657 
L 178.01808 119.769453 
L 181.74897 119.802725 
L 185.479861 119.841601 
L 189.210751 119.874212 
L 192.941642 119.921962 
L 196.672532 119.959253 
L 200.403423 120.002123 
L 204.134314 120.04624 
L 207.865204 120.083019 
L 211.596095 120.111676 
L 215.326985 120.127088 
L 219.057876 120.132184 
L 222.788766 120.136326 
L 226.519657 120.138306 
L 230.250547 120.139602 
L 233.981438 120.142673 
L 237.712328 120.141607 
L 241.443219 120.143412 
L 245.174109 120.134104 
L 248.905 120.126924 
L 252.635891 120.118761 
L 256.366781 120.108785 
L 260.097672 120.094476 
L 263.828562 120.077113 
L 267.559453 120.069531 
L 271.290343 120.061209 
L 275.021234 120.055333 
L 278.752124 120.047193 
L 282.483015 120.034807 
L 286.213905 120.019238 
L 289.944796 119.99736 
L 293.675686 119.970353 
L 297.406577 119.950113 
L 301.137468 119.925026 
L 304.868358 119.898476 
L 308.599249 119.871176 
L 312.330139 119.846587 
L 316.06103 119.825626 
L 319.79192 119.806461 
L 323.522811 119.786916 
L 327.253701 119.767534 
L 330.984592 119.750271 
L 334.715482 119.727878 
L 338.446373 119.70764 
L 342.177263 119.684485 
L 345.908154 119.661245 
L 349.639045 119.638793 
L 353.369935 119.616264 
L 357.100826 119.595702 
L 360.831716 119.576606 
L 364.562607 119.559281 
L 368.293497 119.546266 
L 372.024388 119.532172 
L 375.755278 119.518146 
L 379.486169 119.502441 
L 383.217059 119.489266 
L 386.94795 119.476146 
L 390.67884 119.463736 
L 394.409731 119.449769 
L 398.140622 119.436211 
L 401.871512 119.423046 
L 405.602403 119.411155 
L 409.333293 119.398723 
L 413.064184 119.386068 
L 416.795074 119.372368 
L 420.525965 119.357683 
L 424.256855 119.341531 
L 427.987746 119.326889 
L 431.718636 119.312399 
" clip-path="url(#p87218779ee)" style="fill: none; stroke: #ff0000; stroke-opacity: 0.5; stroke-width: 0.5; stroke-linecap: square"/>
    <defs>
     <path id="mb7cc37de02" d="M -0.49999 0.49999 
L 0.50001 0.49999 
L 0.50001 -0.50001 
L -0.49999 -0.50001 
z
"/>
    </defs>
    <g clip-path="url(#p87218779ee)">
     <use xlink:href="#mb7cc37de02" x="66.091364" y="81.08" style="fill: #ff0000; fill-opacity: 0.5"/>
     <use xlink:href="#mb7cc37de02" x="69.822254" y="93.093182" style="fill: #ff0000; fill-opacity: 0.5"/>
     <use xlink:href="#mb7cc37de02" x="73.553145" y="98.081111" style="fill: #ff0000; fill-opacity: 0.5"/>
     <use xlink:href="#mb7cc37de02" x="77.284035" y="101.892311" style="fill: #ff0000; fill-opacity: 0.5"/>
     <use xlink:href="#mb7cc37de02" x="81.014926" y="104.507812" style="fill: #ff0000; fill-opacity: 0.5"/>
     <use xlink:href="#mb7cc37de02" x="84.745816" y="106.996157" style="fill: #ff0000; fill-opacity: 0.5"/>
     <use xlink:href="#mb7cc37de02" x="88.476707" y="109.22947" style="fill: #ff0000; fill-opacity: 0.5"/>
     <use xlink:href="#mb7cc37de02" x="92.207597" y="111.243173" style="fill: #ff0000; fill-opacity: 0.5"/>
     <use xlink:href="#mb7cc37de02" x="95.938488" y="112.793774" style="fill: #ff0000; fill-opacity: 0.5"/>
     <use xlink:href="#mb7cc37de02" x="99.669378" y="113.921851" style="fill: #ff0000; fill-opacity: 0.5"/>
     <use xlink:href="#mb7cc37de02" x="103.400269" y="114.740316" style="fill: #ff0000; fill-opacity: 0.5"/>
     <use xlink:href="#mb7cc37de02" x="107.13116" y="115.500605" style="fill: #ff0000; fill-opacity: 0.5"/>
     <use xlink:href="#mb7cc37de02" x="110.86205" y="115.980558" style="fill: #ff0000; fill-opacity: 0.5"/>
     <use xlink:href="#mb7cc37de02" x="114.592941" y="116.481279" style="fill: #ff0000; fill-opacity: 0.5"/>
     <use xlink:href="#mb7cc37de02" x="118.323831" y="116.976257" style="fill: #ff0000; fill-opacity: 0.5"/>
     <use xlink:href="#mb7cc37de02" x="122.054722" y="117.380383" style="fill: #ff0000; fill-opacity: 0.5"/>
     <use xlink:href="#mb7cc37de02" x="125.785612" y="117.756654" style="fill: #ff0000; fill-opacity: 0.5"/>
     <use xlink:href="#mb7cc37de02" x="129.516503" y="118.060813" style="fill: #ff0000; fill-opacity: 0.5"/>
     <use xlink:href="#mb7cc37de02" x="133.247393" y="118.356308" style="fill: #ff0000; fill-opacity: 0.5"/>
     <use xlink:href="#mb7cc37de02" x="136.978284" y="118.623252" style="fill: #ff0000; fill-opacity: 0.5"/>
     <use xlink:href="#mb7cc37de02" x="140.709174" y="118.831223" style="fill: #ff0000; fill-opacity: 0.5"/>
     <use xlink:href="#mb7cc37de02" x="144.440065" y="119.05388" style="fill: #ff0000; fill-opacity: 0.5"/>
     <use xlink:href="#mb7cc37de02" x="148.170955" y="119.238703" style="fill: #ff0000; fill-opacity: 0.5"/>
     <use xlink:href="#mb7cc37de02" x="151.901846" y="119.383117" style="fill: #ff0000; fill-opacity: 0.5"/>
     <use xlink:href="#mb7cc37de02" x="155.632737" y="119.48175" style="fill: #ff0000; fill-opacity: 0.5"/>
     <use xlink:href="#mb7cc37de02" x="159.363627" y="119.531193" style="fill: #ff0000; fill-opacity: 0.5"/>
     <use xlink:href="#mb7cc37de02" x="163.094518" y="119.588449" style="fill: #ff0000; fill-opacity: 0.5"/>
     <use xlink:href="#mb7cc37de02" x="166.825408" y="119.648664" style="fill: #ff0000; fill-opacity: 0.5"/>
     <use xlink:href="#mb7cc37de02" x="170.556299" y="119.690013" style="fill: #ff0000; fill-opacity: 0.5"/>
     <use xlink:href="#mb7cc37de02" x="174.287189" y="119.72657" style="fill: #ff0000; fill-opacity: 0.5"/>
     <use xlink:href="#mb7cc37de02" x="178.01808" y="119.769453" style="fill: #ff0000; fill-opacity: 0.5"/>
     <use xlink:href="#mb7cc37de02" x="181.74897" y="119.802725" style="fill: #ff0000; fill-opacity: 0.5"/>
     <use xlink:href="#mb7cc37de02" x="185.479861" y="119.841601" style="fill: #ff0000; fill-opacity: 0.5"/>
     <use xlink:href="#mb7cc37de02" x="189.210751" y="119.874212" style="fill: #ff0000; fill-opacity: 0.5"/>
     <use xlink:href="#mb7cc37de02" x="192.941642" y="119.921962" style="fill: #ff0000; fill-opacity: 0.5"/>
     <use xlink:href="#mb7cc37de02" x="196.672532" y="119.959253" style="fill: #ff0000; fill-opacity: 0.5"/>
     <use xlink:href="#mb7cc37de02" x="200.403423" y="120.002123" style="fill: #ff0000; fill-opacity: 0.5"/>
     <use xlink:href="#mb7cc37de02" x="204.134314" y="120.04624" style="fill: #ff0000; fill-opacity: 0.5"/>
     <use xlink:href="#mb7cc37de02" x="207.865204" y="120.083019" style="fill: #ff0000; fill-opacity: 0.5"/>
     <use xlink:href="#mb7cc37de02" x="211.596095" y="120.111676" style="fill: #ff0000; fill-opacity: 0.5"/>
     <use xlink:href="#mb7cc37de02" x="215.326985" y="120.127088" style="fill: #ff0000; fill-opacity: 0.5"/>
     <use xlink:href="#mb7cc37de02" x="219.057876" y="120.132184" style="fill: #ff0000; fill-opacity: 0.5"/>
     <use xlink:href="#mb7cc37de02" x="222.788766" y="120.136326" style="fill: #ff0000; fill-opacity: 0.5"/>
     <use xlink:href="#mb7cc37de02" x="226.519657" y="120.138306" style="fill: #ff0000; fill-opacity: 0.5"/>
     <use xlink:href="#mb7cc37de02" x="230.250547" y="120.139602" style="fill: #ff0000; fill-opacity: 0.5"/>
     <use xlink:href="#mb7cc37de02" x="233.981438" y="120.142673" style="fill: #ff0000; fill-opacity: 0.5"/>
     <use xlink:href="#mb7cc37de02" x="237.712328" y="120.141607" style="fill: #ff0000; fill-opacity: 0.5"/>
     <use xlink:href="#mb7cc37de02" x="241.443219" y="120.143412" style="fill: #ff0000; fill-opacity: 0.5"/>
     <use xlink:href="#mb7cc37de02" x="245.174109" y="120.134104" style="fill: #ff0000; fill-opacity: 0.5"/>
     <use xlink:href="#mb7cc37de02" x="248.905" y="120.126924" style="fill: #ff0000; fill-opacity: 0.5"/>
     <use xlink:href="#mb7cc37de02" x="252.635891" y="120.118761" style="fill: #ff0000; fill-opacity: 0.5"/>
     <use xlink:href="#mb7cc37de02" x="256.366781" y="120.108785" style="fill: #ff0000; fill-opacity: 0.5"/>
     <use xlink:href="#mb7cc37de02" x="260.097672" y="120.094476" style="fill: #ff0000; fill-opacity: 0.5"/>
     <use xlink:href="#mb7cc37de02" x="263.828562" y="120.077113" style="fill: #ff0000; fill-opacity: 0.5"/>
     <use xlink:href="#mb7cc37de02" x="267.559453" y="120.069531" style="fill: #ff0000; fill-opacity: 0.5"/>
     <use xlink:href="#mb7cc37de02" x="271.290343" y="120.061209" style="fill: #ff0000; fill-opacity: 0.5"/>
     <use xlink:href="#mb7cc37de02" x="275.021234" y="120.055333" style="fill: #ff0000; fill-opacity: 0.5"/>
     <use xlink:href="#mb7cc37de02" x="278.752124" y="120.047193" style="fill: #ff0000; fill-opacity: 0.5"/>
     <use xlink:href="#mb7cc37de02" x="282.483015" y="120.034807" style="fill: #ff0000; fill-opacity: 0.5"/>
     <use xlink:href="#mb7cc37de02" x="286.213905" y="120.019238" style="fill: #ff0000; fill-opacity: 0.5"/>
     <use xlink:href="#mb7cc37de02" x="289.944796" y="119.99736" style="fill: #ff0000; fill-opacity: 0.5"/>
     <use xlink:href="#mb7cc37de02" x="293.675686" y="119.970353" style="fill: #ff0000; fill-opacity: 0.5"/>
     <use xlink:href="#mb7cc37de02" x="297.406577" y="119.950113" style="fill: #ff0000; fill-opacity: 0.5"/>
     <use xlink:href="#mb7cc37de02" x="301.137468" y="119.925026" style="fill: #ff0000; fill-opacity: 0.5"/>
     <use xlink:href="#mb7cc37de02" x="304.868358" y="119.898476" style="fill: #ff0000; fill-opacity: 0.5"/>
     <use xlink:href="#mb7cc37de02" x="308.599249" y="119.871176" style="fill: #ff0000; fill-opacity: 0.5"/>
     <use xlink:href="#mb7cc37de02" x="312.330139" y="119.846587" style="fill: #ff0000; fill-opacity: 0.5"/>
     <use xlink:href="#mb7cc37de02" x="316.06103" y="119.825626" style="fill: #ff0000; fill-opacity: 0.5"/>
     <use xlink:href="#mb7cc37de02" x="319.79192" y="119.806461" style="fill: #ff0000; fill-opacity: 0.5"/>
     <use xlink:href="#mb7cc37de02" x="323.522811" y="119.786916" style="fill: #ff0000; fill-opacity: 0.5"/>
     <use xlink:href="#mb7cc37de02" x="327.253701" y="119.767534" style="fill: #ff0000; fill-opacity: 0.5"/>
     <use xlink:href="#mb7cc37de02" x="330.984592" y="119.750271" style="fill: #ff0000; fill-opacity: 0.5"/>
     <use xlink:href="#mb7cc37de02" x="334.715482" y="119.727878" style="fill: #ff0000; fill-opacity: 0.5"/>
     <use xlink:href="#mb7cc37de02" x="338.446373" y="119.70764" style="fill: #ff0000; fill-opacity: 0.5"/>
     <use xlink:href="#mb7cc37de02" x="342.177263" y="119.684485" style="fill: #ff0000; fill-opacity: 0.5"/>
     <use xlink:href="#mb7cc37de02" x="345.908154" y="119.661245" style="fill: #ff0000; fill-opacity: 0.5"/>
     <use xlink:href="#mb7cc37de02" x="349.639045" y="119.638793" style="fill: #ff0000; fill-opacity: 0.5"/>
     <use xlink:href="#mb7cc37de02" x="353.369935" y="119.616264" style="fill: #ff0000; fill-opacity: 0.5"/>
     <use xlink:href="#mb7cc37de02" x="357.100826" y="119.595702" style="fill: #ff0000; fill-opacity: 0.5"/>
     <use xlink:href="#mb7cc37de02" x="360.831716" y="119.576606" style="fill: #ff0000; fill-opacity: 0.5"/>
     <use xlink:href="#mb7cc37de02" x="364.562607" y="119.559281" style="fill: #ff0000; fill-opacity: 0.5"/>
     <use xlink:href="#mb7cc37de02" x="368.293497" y="119.546266" style="fill: #ff0000; fill-opacity: 0.5"/>
     <use xlink:href="#mb7cc37de02" x="372.024388" y="119.532172" style="fill: #ff0000; fill-opacity: 0.5"/>
     <use xlink:href="#mb7cc37de02" x="375.755278" y="119.518146" style="fill: #ff0000; fill-opacity: 0.5"/>
     <use xlink:href="#mb7cc37de02" x="379.486169" y="119.502441" style="fill: #ff0000; fill-opacity: 0.5"/>
     <use xlink:href="#mb7cc37de02" x="383.217059" y="119.489266" style="fill: #ff0000; fill-opacity: 0.5"/>
     <use xlink:href="#mb7cc37de02" x="386.94795" y="119.476146" style="fill: #ff0000; fill-opacity: 0.5"/>
     <use xlink:href="#mb7cc37de02" x="390.67884" y="119.463736" style="fill: #ff0000; fill-opacity: 0.5"/>
     <use xlink:href="#mb7cc37de02" x="394.409731" y="119.449769" style="fill: #ff0000; fill-opacity: 0.5"/>
     <use xlink:href="#mb7cc37de02" x="398.140622" y="119.436211" style="fill: #ff0000; fill-opacity: 0.5"/>
     <use xlink:href="#mb7cc37de02" x="401.871512" y="119.423046" style="fill: #ff0000; fill-opacity: 0.5"/>
     <use xlink:href="#mb7cc37de02" x="405.602403" y="119.411155" style="fill: #ff0000; fill-opacity: 0.5"/>
     <use xlink:href="#mb7cc37de02" x="409.333293" y="119.398723" style="fill: #ff0000; fill-opacity: 0.5"/>
     <use xlink:href="#mb7cc37de02" x="413.064184" y="119.386068" style="fill: #ff0000; fill-opacity: 0.5"/>
     <use xlink:href="#mb7cc37de02" x="416.795074" y="119.372368" style="fill: #ff0000; fill-opacity: 0.5"/>
     <use xlink:href="#mb7cc37de02" x="420.525965" y="119.357683" style="fill: #ff0000; fill-opacity: 0.5"/>
     <use xlink:href="#mb7cc37de02" x="424.256855" y="119.341531" style="fill: #ff0000; fill-opacity: 0.5"/>
     <use xlink:href="#mb7cc37de02" x="427.987746" y="119.326889" style="fill: #ff0000; fill-opacity: 0.5"/>
     <use xlink:href="#mb7cc37de02" x="431.718636" y="119.312399" style="fill: #ff0000; fill-opacity: 0.5"/>
    </g>
   </g>
   <g id="line2d_15">
    <path d="M 47.81 290.994545 
L 450 290.994545 
" clip-path="url(#p87218779ee)" style="fill: none; stroke-dasharray: 0.555,0.24; stroke-dashoffset: 0; stroke: #ff0000; stroke-width: 0.15"/>
   </g>
   <g id="line2d_16">
    <path d="M 47.81 164.54 
L 450 164.54 
" clip-path="url(#p87218779ee)" style="fill: none; stroke-dasharray: 0.555,0.24; stroke-dashoffset: 0; stroke: #ff0000; stroke-width: 0.15"/>
   </g>
   <g id="line2d_17">
    <path d="M 47.81 38.085455 
L 450 38.085455 
" clip-path="url(#p87218779ee)" style="fill: none; stroke-dasharray: 0.555,0.24; stroke-dashoffset: 0; stroke: #ff0000; stroke-width: 0.15"/>
   </g>
   <g id="patch_3">
    <path d="M 47.81 303.64 
L 47.81 25.44 
" style="fill: none; stroke: #000000; stroke-width: 0.8; stroke-linejoin: miter; stroke-linecap: square"/>
   </g>
   <g id="patch_4">
    <path d="M 450 303.64 
L 450 25.44 
" style="fill: none; stroke: #000000; stroke-width: 0.8; stroke-linejoin: miter; stroke-linecap: square"/>
   </g>
   <g id="patch_5">
    <path d="M 47.81 303.64 
L 450 303.64 
" style="fill: none; stroke: #000000; stroke-width: 0.8; stroke-linejoin: miter; stroke-linecap: square"/>
   </g>
   <g id="patch_6">
    <path d="M 47.81 25.44 
L 450 25.44 
" style="fill: none; stroke: #000000; stroke-width: 0.8; stroke-linejoin: miter; stroke-linecap: square"/>
   </g>
   <g id="text_15">
    <!-- Similarity LLM-URND03 - 20240426105448 - 100 games -->
    <g transform="translate(80.389375 19.44) scale(0.12 -0.12)">
     <defs>
      <path id="DejaVuSans-20" transform="scale(0.015625)"/>
      <path id="DejaVuSans-4c" d="M 628 4666 
L 1259 4666 
L 1259 531 
L 3531 531 
L 3531 0 
L 628 0 
L 628 4666 
z
" transform="scale(0.015625)"/>
      <path id="DejaVuSans-4d" d="M 628 4666 
L 1569 4666 
L 2759 1491 
L 3956 4666 
L 4897 4666 
L 4897 0 
L 4281 0 
L 4281 4097 
L 3078 897 
L 2444 897 
L 1241 4097 
L 1241 0 
L 628 0 
L 628 4666 
z
" transform="scale(0.015625)"/>
      <path id="DejaVuSans-2d" d="M 313 2009 
L 1997 2009 
L 1997 1497 
L 313 1497 
L 313 2009 
z
" transform="scale(0.015625)"/>
      <path id="DejaVuSans-55" d="M 556 4666 
L 1191 4666 
L 1191 1831 
Q 1191 1081 1462 751 
Q 1734 422 2344 422 
Q 2950 422 3222 751 
Q 3494 1081 3494 1831 
L 3494 4666 
L 4128 4666 
L 4128 1753 
Q 4128 841 3676 375 
Q 3225 -91 2344 -91 
Q 1459 -91 1007 375 
Q 556 841 556 1753 
L 556 4666 
z
" transform="scale(0.015625)"/>
      <path id="DejaVuSans-52" d="M 2841 2188 
Q 3044 2119 3236 1894 
Q 3428 1669 3622 1275 
L 4263 0 
L 3584 0 
L 2988 1197 
Q 2756 1666 2539 1819 
Q 2322 1972 1947 1972 
L 1259 1972 
L 1259 0 
L 628 0 
L 628 4666 
L 2053 4666 
Q 2853 4666 3247 4331 
Q 3641 3997 3641 3322 
Q 3641 2881 3436 2590 
Q 3231 2300 2841 2188 
z
M 1259 4147 
L 1259 2491 
L 2053 2491 
Q 2509 2491 2742 2702 
Q 2975 2913 2975 3322 
Q 2975 3731 2742 3939 
Q 2509 4147 2053 4147 
L 1259 4147 
z
" transform="scale(0.015625)"/>
      <path id="DejaVuSans-4e" d="M 628 4666 
L 1478 4666 
L 3547 763 
L 3547 4666 
L 4159 4666 
L 4159 0 
L 3309 0 
L 1241 3903 
L 1241 0 
L 628 0 
L 628 4666 
z
" transform="scale(0.015625)"/>
      <path id="DejaVuSans-44" d="M 1259 4147 
L 1259 519 
L 2022 519 
Q 2988 519 3436 956 
Q 3884 1394 3884 2338 
Q 3884 3275 3436 3711 
Q 2988 4147 2022 4147 
L 1259 4147 
z
M 628 4666 
L 1925 4666 
Q 3281 4666 3915 4102 
Q 4550 3538 4550 2338 
Q 4550 1131 3912 565 
Q 3275 0 1925 0 
L 628 0 
L 628 4666 
z
" transform="scale(0.015625)"/>
      <path id="DejaVuSans-33" d="M 2597 2516 
Q 3050 2419 3304 2112 
Q 3559 1806 3559 1356 
Q 3559 666 3084 287 
Q 2609 -91 1734 -91 
Q 1441 -91 1130 -33 
Q 819 25 488 141 
L 488 750 
Q 750 597 1062 519 
Q 1375 441 1716 441 
Q 2309 441 2620 675 
Q 2931 909 2931 1356 
Q 2931 1769 2642 2001 
Q 2353 2234 1838 2234 
L 1294 2234 
L 1294 2753 
L 1863 2753 
Q 2328 2753 2575 2939 
Q 2822 3125 2822 3475 
Q 2822 3834 2567 4026 
Q 2313 4219 1838 4219 
Q 1578 4219 1281 4162 
Q 984 4106 628 3988 
L 628 4550 
Q 988 4650 1302 4700 
Q 1616 4750 1894 4750 
Q 2613 4750 3031 4423 
Q 3450 4097 3450 3541 
Q 3450 3153 3228 2886 
Q 3006 2619 2597 2516 
z
" transform="scale(0.015625)"/>
      <path id="DejaVuSans-35" d="M 691 4666 
L 3169 4666 
L 3169 4134 
L 1269 4134 
L 1269 2991 
Q 1406 3038 1543 3061 
Q 1681 3084 1819 3084 
Q 2600 3084 3056 2656 
Q 3513 2228 3513 1497 
Q 3513 744 3044 326 
Q 2575 -91 1722 -91 
Q 1428 -91 1123 -41 
Q 819 9 494 109 
L 494 744 
Q 775 591 1075 516 
Q 1375 441 1709 441 
Q 2250 441 2565 725 
Q 2881 1009 2881 1497 
Q 2881 1984 2565 2268 
Q 2250 2553 1709 2553 
Q 1456 2553 1204 2497 
Q 953 2441 691 2322 
L 691 4666 
z
" transform="scale(0.015625)"/>
      <path id="DejaVuSans-67" d="M 2906 1791 
Q 2906 2416 2648 2759 
Q 2391 3103 1925 3103 
Q 1463 3103 1205 2759 
Q 947 2416 947 1791 
Q 947 1169 1205 825 
Q 1463 481 1925 481 
Q 2391 481 2648 825 
Q 2906 1169 2906 1791 
z
M 3481 434 
Q 3481 -459 3084 -895 
Q 2688 -1331 1869 -1331 
Q 1566 -1331 1297 -1286 
Q 1028 -1241 775 -1147 
L 775 -588 
Q 1028 -725 1275 -790 
Q 1522 -856 1778 -856 
Q 2344 -856 2625 -561 
Q 2906 -266 2906 331 
L 2906 616 
Q 2728 306 2450 153 
Q 2172 0 1784 0 
Q 1141 0 747 490 
Q 353 981 353 1791 
Q 353 2603 747 3093 
Q 1141 3584 1784 3584 
Q 2172 3584 2450 3431 
Q 2728 3278 2906 2969 
L 2906 3500 
L 3481 3500 
L 3481 434 
z
" transform="scale(0.015625)"/>
      <path id="DejaVuSans-73" d="M 2834 3397 
L 2834 2853 
Q 2591 2978 2328 3040 
Q 2066 3103 1784 3103 
Q 1356 3103 1142 2972 
Q 928 2841 928 2578 
Q 928 2378 1081 2264 
Q 1234 2150 1697 2047 
L 1894 2003 
Q 2506 1872 2764 1633 
Q 3022 1394 3022 966 
Q 3022 478 2636 193 
Q 2250 -91 1575 -91 
Q 1294 -91 989 -36 
Q 684 19 347 128 
L 347 722 
Q 666 556 975 473 
Q 1284 391 1588 391 
Q 1994 391 2212 530 
Q 2431 669 2431 922 
Q 2431 1156 2273 1281 
Q 2116 1406 1581 1522 
L 1381 1569 
Q 847 1681 609 1914 
Q 372 2147 372 2553 
Q 372 3047 722 3315 
Q 1072 3584 1716 3584 
Q 2034 3584 2315 3537 
Q 2597 3491 2834 3397 
z
" transform="scale(0.015625)"/>
     </defs>
     <use xlink:href="#DejaVuSans-53"/>
     <use xlink:href="#DejaVuSans-69" x="63.476562"/>
     <use xlink:href="#DejaVuSans-6d" x="91.259766"/>
     <use xlink:href="#DejaVuSans-69" x="188.671875"/>
     <use xlink:href="#DejaVuSans-6c" x="216.455078"/>
     <use xlink:href="#DejaVuSans-61" x="244.238281"/>
     <use xlink:href="#DejaVuSans-72" x="305.517578"/>
     <use xlink:href="#DejaVuSans-69" x="346.630859"/>
     <use xlink:href="#DejaVuSans-74" x="374.414062"/>
     <use xlink:href="#DejaVuSans-79" x="413.623047"/>
     <use xlink:href="#DejaVuSans-20" x="472.802734"/>
     <use xlink:href="#DejaVuSans-4c" x="504.589844"/>
     <use xlink:href="#DejaVuSans-4c" x="560.302734"/>
     <use xlink:href="#DejaVuSans-4d" x="616.015625"/>
     <use xlink:href="#DejaVuSans-2d" x="702.294922"/>
     <use xlink:href="#DejaVuSans-55" x="738.378906"/>
     <use xlink:href="#DejaVuSans-52" x="811.572266"/>
     <use xlink:href="#DejaVuSans-4e" x="881.054688"/>
     <use xlink:href="#DejaVuSans-44" x="955.859375"/>
     <use xlink:href="#DejaVuSans-30" x="1032.861328"/>
     <use xlink:href="#DejaVuSans-33" x="1096.484375"/>
     <use xlink:href="#DejaVuSans-20" x="1160.107422"/>
     <use xlink:href="#DejaVuSans-2d" x="1191.894531"/>
     <use xlink:href="#DejaVuSans-20" x="1227.978516"/>
     <use xlink:href="#DejaVuSans-32" x="1259.765625"/>
     <use xlink:href="#DejaVuSans-30" x="1323.388672"/>
     <use xlink:href="#DejaVuSans-32" x="1387.011719"/>
     <use xlink:href="#DejaVuSans-34" x="1450.634766"/>
     <use xlink:href="#DejaVuSans-30" x="1514.257812"/>
     <use xlink:href="#DejaVuSans-34" x="1577.880859"/>
     <use xlink:href="#DejaVuSans-32" x="1641.503906"/>
     <use xlink:href="#DejaVuSans-36" x="1705.126953"/>
     <use xlink:href="#DejaVuSans-31" x="1768.75"/>
     <use xlink:href="#DejaVuSans-30" x="1832.373047"/>
     <use xlink:href="#DejaVuSans-35" x="1895.996094"/>
     <use xlink:href="#DejaVuSans-34" x="1959.619141"/>
     <use xlink:href="#DejaVuSans-34" x="2023.242188"/>
     <use xlink:href="#DejaVuSans-38" x="2086.865234"/>
     <use xlink:href="#DejaVuSans-20" x="2150.488281"/>
     <use xlink:href="#DejaVuSans-2d" x="2182.275391"/>
     <use xlink:href="#DejaVuSans-20" x="2218.359375"/>
     <use xlink:href="#DejaVuSans-31" x="2250.146484"/>
     <use xlink:href="#DejaVuSans-30" x="2313.769531"/>
     <use xlink:href="#DejaVuSans-30" x="2377.392578"/>
     <use xlink:href="#DejaVuSans-20" x="2441.015625"/>
     <use xlink:href="#DejaVuSans-67" x="2472.802734"/>
     <use xlink:href="#DejaVuSans-61" x="2536.279297"/>
     <use xlink:href="#DejaVuSans-6d" x="2597.558594"/>
     <use xlink:href="#DejaVuSans-65" x="2694.970703"/>
     <use xlink:href="#DejaVuSans-73" x="2756.494141"/>
    </g>
   </g>
   <g id="legend_1">
    <g id="patch_7">
     <path d="M 313.909375 62.79625 
L 443 62.79625 
Q 445 62.79625 445 60.79625 
L 445 32.44 
Q 445 30.44 443 30.44 
L 313.909375 30.44 
Q 311.909375 30.44 311.909375 32.44 
L 311.909375 60.79625 
Q 311.909375 62.79625 313.909375 62.79625 
z
" style="fill: #ffffff; opacity: 0.8; stroke: #cccccc; stroke-linejoin: miter"/>
    </g>
    <g id="line2d_18">
     <path d="M 315.909375 38.538437 
L 325.909375 38.538437 
L 335.909375 38.538437 
" style="fill: none; stroke: #0000ff; stroke-linecap: square"/>
     <g>
      <use xlink:href="#m7028d0d13c" x="325.909375" y="38.538437" style="fill: #0000ff"/>
     </g>
    </g>
    <g id="text_16">
     <!-- LLM-URND03 -->
     <g transform="translate(343.909375 42.038437) scale(0.1 -0.1)">
      <use xlink:href="#DejaVuSans-4c"/>
      <use xlink:href="#DejaVuSans-4c" x="55.712891"/>
      <use xlink:href="#DejaVuSans-4d" x="111.425781"/>
      <use xlink:href="#DejaVuSans-2d" x="197.705078"/>
      <use xlink:href="#DejaVuSans-55" x="233.789062"/>
      <use xlink:href="#DejaVuSans-52" x="306.982422"/>
      <use xlink:href="#DejaVuSans-4e" x="376.464844"/>
      <use xlink:href="#DejaVuSans-44" x="451.269531"/>
      <use xlink:href="#DejaVuSans-30" x="528.271484"/>
      <use xlink:href="#DejaVuSans-33" x="591.894531"/>
     </g>
    </g>
    <g id="line2d_19">
     <path d="M 315.909375 53.216562 
L 325.909375 53.216562 
L 335.909375 53.216562 
" style="fill: none; stroke: #ff0000; stroke-opacity: 0.5; stroke-width: 0.5; stroke-linecap: square"/>
     <g>
      <use xlink:href="#mb7cc37de02" x="325.909375" y="53.216562" style="fill: #ff0000; fill-opacity: 0.5"/>
     </g>
    </g>
    <g id="text_17">
     <!-- LLM-URND03 mean -->
     <g transform="translate(343.909375 56.716562) scale(0.1 -0.1)">
      <use xlink:href="#DejaVuSans-4c"/>
      <use xlink:href="#DejaVuSans-4c" x="55.712891"/>
      <use xlink:href="#DejaVuSans-4d" x="111.425781"/>
      <use xlink:href="#DejaVuSans-2d" x="197.705078"/>
      <use xlink:href="#DejaVuSans-55" x="233.789062"/>
      <use xlink:href="#DejaVuSans-52" x="306.982422"/>
      <use xlink:href="#DejaVuSans-4e" x="376.464844"/>
      <use xlink:href="#DejaVuSans-44" x="451.269531"/>
      <use xlink:href="#DejaVuSans-30" x="528.271484"/>
      <use xlink:href="#DejaVuSans-33" x="591.894531"/>
      <use xlink:href="#DejaVuSans-20" x="655.517578"/>
      <use xlink:href="#DejaVuSans-6d" x="687.304688"/>
      <use xlink:href="#DejaVuSans-65" x="784.716797"/>
      <use xlink:href="#DejaVuSans-61" x="846.240234"/>
      <use xlink:href="#DejaVuSans-6e" x="907.519531"/>
     </g>
    </g>
   </g>
  </g>
 </g>
 <defs>
  <clipPath id="p87218779ee">
   <rect x="47.81" y="25.44" width="402.19" height="278.2"/>
  </clipPath>
 </defs>
</svg>
