<?xml version="1.0" encoding="utf-8" standalone="no"?>
<!DOCTYPE svg PUBLIC "-//W3C//DTD SVG 1.1//EN"
  "http://www.w3.org/Graphics/SVG/1.1/DTD/svg11.dtd">
<svg xmlns:xlink="http://www.w3.org/1999/xlink" width="460.8pt" height="345.6pt" viewBox="0 0 460.8 345.6" xmlns="http://www.w3.org/2000/svg" version="1.1">
 <metadata>
  <rdf:RDF xmlns:dc="http://purl.org/dc/elements/1.1/" xmlns:cc="http://creativecommons.org/ns#" xmlns:rdf="http://www.w3.org/1999/02/22-rdf-syntax-ns#">
   <cc:Work>
    <dc:type rdf:resource="http://purl.org/dc/dcmitype/StillImage"/>
    <dc:date>2024-04-08T17:59:32.262245</dc:date>
    <dc:format>image/svg+xml</dc:format>
    <dc:creator>
     <cc:Agent>
      <dc:title>Matplotlib v3.8.0, https://matplotlib.org/</dc:title>
     </cc:Agent>
    </dc:creator>
   </cc:Work>
  </rdf:RDF>
 </metadata>
 <defs>
  <style type="text/css">*{stroke-linejoin: round; stroke-linecap: butt}</style>
 </defs>
 <g id="figure_1">
  <g id="patch_1">
   <path d="M 0 345.6 
L 460.8 345.6 
L 460.8 0 
L 0 0 
z
" style="fill: #ffffff"/>
  </g>
  <g id="axes_1">
   <g id="patch_2">
    <path d="M 47.81 303.64 
L 450 303.64 
L 450 25.44 
L 47.81 25.44 
z
" style="fill: #ffffff"/>
   </g>
   <g id="PolyCollection_1">
    <defs>
     <path id="mde1dde6c0c" d="M 66.091364 -185.743502 
L 66.091364 -185.743502 
L 69.784568 -197.050475 
L 73.477773 -212.354258 
L 77.170978 -204.564151 
L 80.864183 -196.495089 
L 84.557388 -188.220622 
L 88.250592 -182.185349 
L 91.943797 -176.447211 
L 95.637002 -171.096906 
L 99.330207 -167.963538 
L 103.023411 -166.156137 
L 106.716616 -163.272039 
L 110.409821 -160.761707 
L 114.103026 -158.213261 
L 117.79623 -155.755002 
L 121.489435 -154.54853 
L 125.18264 -152.494673 
L 128.875845 -150.554499 
L 132.56905 -149.259613 
L 136.262254 -147.528543 
L 139.955459 -146.598744 
L 143.648664 -145.112253 
L 147.341869 -144.341436 
L 151.035073 -143.27541 
L 154.728278 -142.280074 
L 158.421483 -141.127373 
L 162.114688 -140.579381 
L 165.807893 -139.439071 
L 169.501097 -138.672122 
L 173.194302 -137.622923 
L 176.887507 -136.663207 
L 180.580712 -135.659887 
L 184.273916 -134.868896 
L 187.967121 -136.016534 
L 191.660326 -136.104227 
L 195.353531 -138.345778 
L 199.046736 -139.221225 
L 202.73994 -141.148821 
L 206.433145 -142.351521 
L 210.12635 -146.000216 
L 213.819555 -148.619662 
L 217.512759 -151.658009 
L 221.205964 -155.086519 
L 224.899169 -159.574205 
L 228.592374 -163.636615 
L 232.285579 -168.682673 
L 235.978783 -173.257312 
L 239.671988 -177.438357 
L 243.365193 -180.183666 
L 247.058398 -183.796406 
L 250.751602 -187.693166 
L 254.444807 -193.028892 
L 258.138012 -196.312616 
L 261.831217 -199.382181 
L 265.524421 -203.227259 
L 269.217626 -206.817566 
L 272.910831 -209.296207 
L 276.604036 -212.490176 
L 280.297241 -216.403874 
L 283.990445 -220.540146 
L 287.68365 -223.548537 
L 291.376855 -226.391871 
L 295.07006 -228.705769 
L 298.763264 -232.482293 
L 302.456469 -234.528791 
L 306.149674 -237.559363 
L 309.842879 -240.43516 
L 313.536084 -242.814339 
L 317.229288 -245.426265 
L 320.922493 -248.630136 
L 324.615698 -251.322935 
L 328.308903 -253.891358 
L 332.002107 -256.677933 
L 335.695312 -259.337963 
L 339.388517 -261.880146 
L 343.081722 -264.005482 
L 346.774927 -266.342688 
L 350.468131 -268.582945 
L 354.161336 -270.732153 
L 357.854541 -272.795705 
L 361.547746 -274.778544 
L 365.24095 -276.685214 
L 368.934155 -278.519905 
L 372.62736 -280.286487 
L 376.320565 -281.988545 
L 380.01377 -283.629402 
L 383.706974 -285.212152 
L 387.400179 -286.505673 
L 391.093384 -287.755326 
L 394.786589 -289.188913 
L 398.479793 -290.574484 
L 402.172998 -291.91426 
L 405.866203 -293.210323 
L 409.559408 -294.46463 
L 413.252612 -295.67902 
L 416.945817 -296.277025 
L 420.639022 -297.226231 
L 424.332227 -298.34356 
L 428.025432 -299.232958 
L 431.718636 -300.095718 
L 431.718636 -122.347784 
L 431.718636 -122.347784 
L 428.025432 -121.454467 
L 424.332227 -120.55195 
L 420.639022 -119.647284 
L 416.945817 -118.727515 
L 413.252612 -117.811599 
L 409.559408 -116.881962 
L 405.866203 -115.946134 
L 402.172998 -115.004452 
L 398.479793 -114.057301 
L 394.786589 -113.105124 
L 391.093384 -112.148429 
L 387.400179 -111.166363 
L 383.706974 -110.176859 
L 380.01377 -109.205655 
L 376.320565 -108.232466 
L 372.62736 -107.258236 
L 368.934155 -106.284043 
L 365.24095 -105.31111 
L 361.547746 -104.340833 
L 357.854541 -103.3748 
L 354.161336 -102.414825 
L 350.468131 -101.462981 
L 346.774927 -100.521639 
L 343.081722 -99.593518 
L 339.388517 -98.61624 
L 335.695312 -97.718792 
L 332.002107 -96.844954 
L 328.308903 -95.999499 
L 324.615698 -95.09744 
L 320.922493 -94.2206 
L 317.229288 -93.479857 
L 313.536084 -92.582152 
L 309.842879 -91.626545 
L 306.149674 -90.782655 
L 302.456469 -89.979088 
L 298.763264 -88.949786 
L 295.07006 -88.363405 
L 291.376855 -87.382305 
L 287.68365 -86.515493 
L 283.990445 -85.690068 
L 280.297241 -85.227511 
L 276.604036 -84.7068 
L 272.910831 -83.968102 
L 269.217626 -83.042694 
L 265.524421 -82.423932 
L 261.831217 -81.904049 
L 258.138012 -81.150882 
L 254.444807 -80.464846 
L 250.751602 -80.573134 
L 247.058398 -80.157399 
L 243.365193 -79.663951 
L 239.671988 -78.912564 
L 235.978783 -78.650925 
L 232.285579 -78.58972 
L 228.592374 -78.793897 
L 224.899169 -78.645887 
L 221.205964 -78.727318 
L 217.512759 -78.431848 
L 213.819555 -78.021484 
L 210.12635 -77.488135 
L 206.433145 -77.341992 
L 202.73994 -76.522127 
L 199.046736 -75.811506 
L 195.353531 -74.942946 
L 191.660326 -74.270318 
L 187.967121 -73.476411 
L 184.273916 -72.553625 
L 180.580712 -72.489995 
L 176.887507 -73.46961 
L 173.194302 -75.24949 
L 169.501097 -76.482825 
L 165.807893 -76.154233 
L 162.114688 -76.872456 
L 158.421483 -76.164344 
L 154.728278 -76.337435 
L 151.035073 -75.997789 
L 147.341869 -75.644469 
L 143.648664 -74.799605 
L 139.955459 -75.016205 
L 136.262254 -74.086407 
L 132.56905 -77.285339 
L 128.875845 -82.509011 
L 125.18264 -84.548282 
L 121.489435 -85.800426 
L 117.79623 -84.593954 
L 114.103026 -86.150125 
L 110.409821 -86.792637 
L 106.716616 -86.443921 
L 103.023411 -86.11446 
L 99.330207 -83.625822 
L 95.637002 -81.741388 
L 91.943797 -84.977503 
L 88.250592 -84.926474 
L 84.557388 -98.963351 
L 80.864183 -100.055887 
L 77.170978 -120.087836 
L 73.477773 -109.175394 
L 69.784568 -183.803532 
L 66.091364 -185.743502 
z
" style="stroke: #0000ff; stroke-opacity: 0.2"/>
    </defs>
    <g clip-path="url(#pa7714fbced)">
     <use xlink:href="#mde1dde6c0c" x="0" y="345.6" style="fill: #0000ff; fill-opacity: 0.2; stroke: #0000ff; stroke-opacity: 0.2"/>
    </g>
   </g>
   <g id="matplotlib.axis_1">
    <g id="xtick_1">
     <g id="line2d_1">
      <defs>
       <path id="mb70121847a" d="M 0 0 
L 0 3.5 
" style="stroke: #000000; stroke-width: 0.8"/>
      </defs>
      <g>
       <use xlink:href="#mb70121847a" x="66.091364" y="303.64" style="stroke: #000000; stroke-width: 0.8"/>
      </g>
     </g>
     <g id="text_1">
      <!-- 0 -->
      <g transform="translate(62.910114 318.238437) scale(0.1 -0.1)">
       <defs>
        <path id="DejaVuSans-30" d="M 2034 4250 
Q 1547 4250 1301 3770 
Q 1056 3291 1056 2328 
Q 1056 1369 1301 889 
Q 1547 409 2034 409 
Q 2525 409 2770 889 
Q 3016 1369 3016 2328 
Q 3016 3291 2770 3770 
Q 2525 4250 2034 4250 
z
M 2034 4750 
Q 2819 4750 3233 4129 
Q 3647 3509 3647 2328 
Q 3647 1150 3233 529 
Q 2819 -91 2034 -91 
Q 1250 -91 836 529 
Q 422 1150 422 2328 
Q 422 3509 836 4129 
Q 1250 4750 2034 4750 
z
" transform="scale(0.015625)"/>
       </defs>
       <use xlink:href="#DejaVuSans-30"/>
      </g>
     </g>
    </g>
    <g id="xtick_2">
     <g id="line2d_2">
      <g>
       <use xlink:href="#mb70121847a" x="139.955459" y="303.64" style="stroke: #000000; stroke-width: 0.8"/>
      </g>
     </g>
     <g id="text_2">
      <!-- 20 -->
      <g transform="translate(133.592959 318.238437) scale(0.1 -0.1)">
       <defs>
        <path id="DejaVuSans-32" d="M 1228 531 
L 3431 531 
L 3431 0 
L 469 0 
L 469 531 
Q 828 903 1448 1529 
Q 2069 2156 2228 2338 
Q 2531 2678 2651 2914 
Q 2772 3150 2772 3378 
Q 2772 3750 2511 3984 
Q 2250 4219 1831 4219 
Q 1534 4219 1204 4116 
Q 875 4013 500 3803 
L 500 4441 
Q 881 4594 1212 4672 
Q 1544 4750 1819 4750 
Q 2544 4750 2975 4387 
Q 3406 4025 3406 3419 
Q 3406 3131 3298 2873 
Q 3191 2616 2906 2266 
Q 2828 2175 2409 1742 
Q 1991 1309 1228 531 
z
" transform="scale(0.015625)"/>
       </defs>
       <use xlink:href="#DejaVuSans-32"/>
       <use xlink:href="#DejaVuSans-30" x="63.623047"/>
      </g>
     </g>
    </g>
    <g id="xtick_3">
     <g id="line2d_3">
      <g>
       <use xlink:href="#mb70121847a" x="213.819555" y="303.64" style="stroke: #000000; stroke-width: 0.8"/>
      </g>
     </g>
     <g id="text_3">
      <!-- 40 -->
      <g transform="translate(207.457055 318.238437) scale(0.1 -0.1)">
       <defs>
        <path id="DejaVuSans-34" d="M 2419 4116 
L 825 1625 
L 2419 1625 
L 2419 4116 
z
M 2253 4666 
L 3047 4666 
L 3047 1625 
L 3713 1625 
L 3713 1100 
L 3047 1100 
L 3047 0 
L 2419 0 
L 2419 1100 
L 313 1100 
L 313 1709 
L 2253 4666 
z
" transform="scale(0.015625)"/>
       </defs>
       <use xlink:href="#DejaVuSans-34"/>
       <use xlink:href="#DejaVuSans-30" x="63.623047"/>
      </g>
     </g>
    </g>
    <g id="xtick_4">
     <g id="line2d_4">
      <g>
       <use xlink:href="#mb70121847a" x="287.68365" y="303.64" style="stroke: #000000; stroke-width: 0.8"/>
      </g>
     </g>
     <g id="text_4">
      <!-- 60 -->
      <g transform="translate(281.32115 318.238437) scale(0.1 -0.1)">
       <defs>
        <path id="DejaVuSans-36" d="M 2113 2584 
Q 1688 2584 1439 2293 
Q 1191 2003 1191 1497 
Q 1191 994 1439 701 
Q 1688 409 2113 409 
Q 2538 409 2786 701 
Q 3034 994 3034 1497 
Q 3034 2003 2786 2293 
Q 2538 2584 2113 2584 
z
M 3366 4563 
L 3366 3988 
Q 3128 4100 2886 4159 
Q 2644 4219 2406 4219 
Q 1781 4219 1451 3797 
Q 1122 3375 1075 2522 
Q 1259 2794 1537 2939 
Q 1816 3084 2150 3084 
Q 2853 3084 3261 2657 
Q 3669 2231 3669 1497 
Q 3669 778 3244 343 
Q 2819 -91 2113 -91 
Q 1303 -91 875 529 
Q 447 1150 447 2328 
Q 447 3434 972 4092 
Q 1497 4750 2381 4750 
Q 2619 4750 2861 4703 
Q 3103 4656 3366 4563 
z
" transform="scale(0.015625)"/>
       </defs>
       <use xlink:href="#DejaVuSans-36"/>
       <use xlink:href="#DejaVuSans-30" x="63.623047"/>
      </g>
     </g>
    </g>
    <g id="xtick_5">
     <g id="line2d_5">
      <g>
       <use xlink:href="#mb70121847a" x="361.547746" y="303.64" style="stroke: #000000; stroke-width: 0.8"/>
      </g>
     </g>
     <g id="text_5">
      <!-- 80 -->
      <g transform="translate(355.185246 318.238437) scale(0.1 -0.1)">
       <defs>
        <path id="DejaVuSans-38" d="M 2034 2216 
Q 1584 2216 1326 1975 
Q 1069 1734 1069 1313 
Q 1069 891 1326 650 
Q 1584 409 2034 409 
Q 2484 409 2743 651 
Q 3003 894 3003 1313 
Q 3003 1734 2745 1975 
Q 2488 2216 2034 2216 
z
M 1403 2484 
Q 997 2584 770 2862 
Q 544 3141 544 3541 
Q 544 4100 942 4425 
Q 1341 4750 2034 4750 
Q 2731 4750 3128 4425 
Q 3525 4100 3525 3541 
Q 3525 3141 3298 2862 
Q 3072 2584 2669 2484 
Q 3125 2378 3379 2068 
Q 3634 1759 3634 1313 
Q 3634 634 3220 271 
Q 2806 -91 2034 -91 
Q 1263 -91 848 271 
Q 434 634 434 1313 
Q 434 1759 690 2068 
Q 947 2378 1403 2484 
z
M 1172 3481 
Q 1172 3119 1398 2916 
Q 1625 2713 2034 2713 
Q 2441 2713 2670 2916 
Q 2900 3119 2900 3481 
Q 2900 3844 2670 4047 
Q 2441 4250 2034 4250 
Q 1625 4250 1398 4047 
Q 1172 3844 1172 3481 
z
" transform="scale(0.015625)"/>
       </defs>
       <use xlink:href="#DejaVuSans-38"/>
       <use xlink:href="#DejaVuSans-30" x="63.623047"/>
      </g>
     </g>
    </g>
    <g id="xtick_6">
     <g id="line2d_6">
      <g>
       <use xlink:href="#mb70121847a" x="435.411841" y="303.64" style="stroke: #000000; stroke-width: 0.8"/>
      </g>
     </g>
     <g id="text_6">
      <!-- 100 -->
      <g transform="translate(425.868091 318.238437) scale(0.1 -0.1)">
       <defs>
        <path id="DejaVuSans-31" d="M 794 531 
L 1825 531 
L 1825 4091 
L 703 3866 
L 703 4441 
L 1819 4666 
L 2450 4666 
L 2450 531 
L 3481 531 
L 3481 0 
L 794 0 
L 794 531 
z
" transform="scale(0.015625)"/>
       </defs>
       <use xlink:href="#DejaVuSans-31"/>
       <use xlink:href="#DejaVuSans-30" x="63.623047"/>
       <use xlink:href="#DejaVuSans-30" x="127.246094"/>
      </g>
     </g>
    </g>
    <g id="text_7">
     <!-- Iteration -->
     <g transform="translate(227.696406 331.916562) scale(0.1 -0.1)">
      <defs>
       <path id="DejaVuSans-49" d="M 628 4666 
L 1259 4666 
L 1259 0 
L 628 0 
L 628 4666 
z
" transform="scale(0.015625)"/>
       <path id="DejaVuSans-74" d="M 1172 4494 
L 1172 3500 
L 2356 3500 
L 2356 3053 
L 1172 3053 
L 1172 1153 
Q 1172 725 1289 603 
Q 1406 481 1766 481 
L 2356 481 
L 2356 0 
L 1766 0 
Q 1100 0 847 248 
Q 594 497 594 1153 
L 594 3053 
L 172 3053 
L 172 3500 
L 594 3500 
L 594 4494 
L 1172 4494 
z
" transform="scale(0.015625)"/>
       <path id="DejaVuSans-65" d="M 3597 1894 
L 3597 1613 
L 953 1613 
Q 991 1019 1311 708 
Q 1631 397 2203 397 
Q 2534 397 2845 478 
Q 3156 559 3463 722 
L 3463 178 
Q 3153 47 2828 -22 
Q 2503 -91 2169 -91 
Q 1331 -91 842 396 
Q 353 884 353 1716 
Q 353 2575 817 3079 
Q 1281 3584 2069 3584 
Q 2775 3584 3186 3129 
Q 3597 2675 3597 1894 
z
M 3022 2063 
Q 3016 2534 2758 2815 
Q 2500 3097 2075 3097 
Q 1594 3097 1305 2825 
Q 1016 2553 972 2059 
L 3022 2063 
z
" transform="scale(0.015625)"/>
       <path id="DejaVuSans-72" d="M 2631 2963 
Q 2534 3019 2420 3045 
Q 2306 3072 2169 3072 
Q 1681 3072 1420 2755 
Q 1159 2438 1159 1844 
L 1159 0 
L 581 0 
L 581 3500 
L 1159 3500 
L 1159 2956 
Q 1341 3275 1631 3429 
Q 1922 3584 2338 3584 
Q 2397 3584 2469 3576 
Q 2541 3569 2628 3553 
L 2631 2963 
z
" transform="scale(0.015625)"/>
       <path id="DejaVuSans-61" d="M 2194 1759 
Q 1497 1759 1228 1600 
Q 959 1441 959 1056 
Q 959 750 1161 570 
Q 1363 391 1709 391 
Q 2188 391 2477 730 
Q 2766 1069 2766 1631 
L 2766 1759 
L 2194 1759 
z
M 3341 1997 
L 3341 0 
L 2766 0 
L 2766 531 
Q 2569 213 2275 61 
Q 1981 -91 1556 -91 
Q 1019 -91 701 211 
Q 384 513 384 1019 
Q 384 1609 779 1909 
Q 1175 2209 1959 2209 
L 2766 2209 
L 2766 2266 
Q 2766 2663 2505 2880 
Q 2244 3097 1772 3097 
Q 1472 3097 1187 3025 
Q 903 2953 641 2809 
L 641 3341 
Q 956 3463 1253 3523 
Q 1550 3584 1831 3584 
Q 2591 3584 2966 3190 
Q 3341 2797 3341 1997 
z
" transform="scale(0.015625)"/>
       <path id="DejaVuSans-69" d="M 603 3500 
L 1178 3500 
L 1178 0 
L 603 0 
L 603 3500 
z
M 603 4863 
L 1178 4863 
L 1178 4134 
L 603 4134 
L 603 4863 
z
" transform="scale(0.015625)"/>
       <path id="DejaVuSans-6f" d="M 1959 3097 
Q 1497 3097 1228 2736 
Q 959 2375 959 1747 
Q 959 1119 1226 758 
Q 1494 397 1959 397 
Q 2419 397 2687 759 
Q 2956 1122 2956 1747 
Q 2956 2369 2687 2733 
Q 2419 3097 1959 3097 
z
M 1959 3584 
Q 2709 3584 3137 3096 
Q 3566 2609 3566 1747 
Q 3566 888 3137 398 
Q 2709 -91 1959 -91 
Q 1206 -91 779 398 
Q 353 888 353 1747 
Q 353 2609 779 3096 
Q 1206 3584 1959 3584 
z
" transform="scale(0.015625)"/>
       <path id="DejaVuSans-6e" d="M 3513 2113 
L 3513 0 
L 2938 0 
L 2938 2094 
Q 2938 2591 2744 2837 
Q 2550 3084 2163 3084 
Q 1697 3084 1428 2787 
Q 1159 2491 1159 1978 
L 1159 0 
L 581 0 
L 581 3500 
L 1159 3500 
L 1159 2956 
Q 1366 3272 1645 3428 
Q 1925 3584 2291 3584 
Q 2894 3584 3203 3211 
Q 3513 2838 3513 2113 
z
" transform="scale(0.015625)"/>
      </defs>
      <use xlink:href="#DejaVuSans-49"/>
      <use xlink:href="#DejaVuSans-74" x="29.492188"/>
      <use xlink:href="#DejaVuSans-65" x="68.701172"/>
      <use xlink:href="#DejaVuSans-72" x="130.224609"/>
      <use xlink:href="#DejaVuSans-61" x="171.337891"/>
      <use xlink:href="#DejaVuSans-74" x="232.617188"/>
      <use xlink:href="#DejaVuSans-69" x="271.826172"/>
      <use xlink:href="#DejaVuSans-6f" x="299.609375"/>
      <use xlink:href="#DejaVuSans-6e" x="360.791016"/>
     </g>
    </g>
   </g>
   <g id="matplotlib.axis_2">
    <g id="ytick_1">
     <g id="line2d_7">
      <defs>
       <path id="md7ecf0b4a1" d="M 0 0 
L -3.5 0 
" style="stroke: #000000; stroke-width: 0.8"/>
      </defs>
      <g>
       <use xlink:href="#md7ecf0b4a1" x="47.81" y="272.260539" style="stroke: #000000; stroke-width: 0.8"/>
      </g>
     </g>
     <g id="text_8">
      <!-- 0.5 -->
      <g transform="translate(24.906875 276.059757) scale(0.1 -0.1)">
       <defs>
        <path id="DejaVuSans-2e" d="M 684 794 
L 1344 794 
L 1344 0 
L 684 0 
L 684 794 
z
" transform="scale(0.015625)"/>
        <path id="DejaVuSans-35" d="M 691 4666 
L 3169 4666 
L 3169 4134 
L 1269 4134 
L 1269 2991 
Q 1406 3038 1543 3061 
Q 1681 3084 1819 3084 
Q 2600 3084 3056 2656 
Q 3513 2228 3513 1497 
Q 3513 744 3044 326 
Q 2575 -91 1722 -91 
Q 1428 -91 1123 -41 
Q 819 9 494 109 
L 494 744 
Q 775 591 1075 516 
Q 1375 441 1709 441 
Q 2250 441 2565 725 
Q 2881 1009 2881 1497 
Q 2881 1984 2565 2268 
Q 2250 2553 1709 2553 
Q 1456 2553 1204 2497 
Q 953 2441 691 2322 
L 691 4666 
z
" transform="scale(0.015625)"/>
       </defs>
       <use xlink:href="#DejaVuSans-30"/>
       <use xlink:href="#DejaVuSans-2e" x="63.623047"/>
       <use xlink:href="#DejaVuSans-35" x="95.410156"/>
      </g>
     </g>
    </g>
    <g id="ytick_2">
     <g id="line2d_8">
      <g>
       <use xlink:href="#md7ecf0b4a1" x="47.81" y="225.425522" style="stroke: #000000; stroke-width: 0.8"/>
      </g>
     </g>
     <g id="text_9">
      <!-- 0.6 -->
      <g transform="translate(24.906875 229.224741) scale(0.1 -0.1)">
       <use xlink:href="#DejaVuSans-30"/>
       <use xlink:href="#DejaVuSans-2e" x="63.623047"/>
       <use xlink:href="#DejaVuSans-36" x="95.410156"/>
      </g>
     </g>
    </g>
    <g id="ytick_3">
     <g id="line2d_9">
      <g>
       <use xlink:href="#md7ecf0b4a1" x="47.81" y="178.590505" style="stroke: #000000; stroke-width: 0.8"/>
      </g>
     </g>
     <g id="text_10">
      <!-- 0.7 -->
      <g transform="translate(24.906875 182.389724) scale(0.1 -0.1)">
       <defs>
        <path id="DejaVuSans-37" d="M 525 4666 
L 3525 4666 
L 3525 4397 
L 1831 0 
L 1172 0 
L 2766 4134 
L 525 4134 
L 525 4666 
z
" transform="scale(0.015625)"/>
       </defs>
       <use xlink:href="#DejaVuSans-30"/>
       <use xlink:href="#DejaVuSans-2e" x="63.623047"/>
       <use xlink:href="#DejaVuSans-37" x="95.410156"/>
      </g>
     </g>
    </g>
    <g id="ytick_4">
     <g id="line2d_10">
      <g>
       <use xlink:href="#md7ecf0b4a1" x="47.81" y="131.755488" style="stroke: #000000; stroke-width: 0.8"/>
      </g>
     </g>
     <g id="text_11">
      <!-- 0.8 -->
      <g transform="translate(24.906875 135.554707) scale(0.1 -0.1)">
       <use xlink:href="#DejaVuSans-30"/>
       <use xlink:href="#DejaVuSans-2e" x="63.623047"/>
       <use xlink:href="#DejaVuSans-38" x="95.410156"/>
      </g>
     </g>
    </g>
    <g id="ytick_5">
     <g id="line2d_11">
      <g>
       <use xlink:href="#md7ecf0b4a1" x="47.81" y="84.920471" style="stroke: #000000; stroke-width: 0.8"/>
      </g>
     </g>
     <g id="text_12">
      <!-- 0.9 -->
      <g transform="translate(24.906875 88.71969) scale(0.1 -0.1)">
       <defs>
        <path id="DejaVuSans-39" d="M 703 97 
L 703 672 
Q 941 559 1184 500 
Q 1428 441 1663 441 
Q 2288 441 2617 861 
Q 2947 1281 2994 2138 
Q 2813 1869 2534 1725 
Q 2256 1581 1919 1581 
Q 1219 1581 811 2004 
Q 403 2428 403 3163 
Q 403 3881 828 4315 
Q 1253 4750 1959 4750 
Q 2769 4750 3195 4129 
Q 3622 3509 3622 2328 
Q 3622 1225 3098 567 
Q 2575 -91 1691 -91 
Q 1453 -91 1209 -44 
Q 966 3 703 97 
z
M 1959 2075 
Q 2384 2075 2632 2365 
Q 2881 2656 2881 3163 
Q 2881 3666 2632 3958 
Q 2384 4250 1959 4250 
Q 1534 4250 1286 3958 
Q 1038 3666 1038 3163 
Q 1038 2656 1286 2365 
Q 1534 2075 1959 2075 
z
" transform="scale(0.015625)"/>
       </defs>
       <use xlink:href="#DejaVuSans-30"/>
       <use xlink:href="#DejaVuSans-2e" x="63.623047"/>
       <use xlink:href="#DejaVuSans-39" x="95.410156"/>
      </g>
     </g>
    </g>
    <g id="ytick_6">
     <g id="line2d_12">
      <g>
       <use xlink:href="#md7ecf0b4a1" x="47.81" y="38.085455" style="stroke: #000000; stroke-width: 0.8"/>
      </g>
     </g>
     <g id="text_13">
      <!-- 1.0 -->
      <g transform="translate(24.906875 41.884673) scale(0.1 -0.1)">
       <use xlink:href="#DejaVuSans-31"/>
       <use xlink:href="#DejaVuSans-2e" x="63.623047"/>
       <use xlink:href="#DejaVuSans-30" x="95.410156"/>
      </g>
     </g>
    </g>
    <g id="text_14">
     <!-- Avg action -->
     <g transform="translate(18.827187 190.779844) rotate(-90) scale(0.1 -0.1)">
      <defs>
       <path id="DejaVuSans-41" d="M 2188 4044 
L 1331 1722 
L 3047 1722 
L 2188 4044 
z
M 1831 4666 
L 2547 4666 
L 4325 0 
L 3669 0 
L 3244 1197 
L 1141 1197 
L 716 0 
L 50 0 
L 1831 4666 
z
" transform="scale(0.015625)"/>
       <path id="DejaVuSans-76" d="M 191 3500 
L 800 3500 
L 1894 563 
L 2988 3500 
L 3597 3500 
L 2284 0 
L 1503 0 
L 191 3500 
z
" transform="scale(0.015625)"/>
       <path id="DejaVuSans-67" d="M 2906 1791 
Q 2906 2416 2648 2759 
Q 2391 3103 1925 3103 
Q 1463 3103 1205 2759 
Q 947 2416 947 1791 
Q 947 1169 1205 825 
Q 1463 481 1925 481 
Q 2391 481 2648 825 
Q 2906 1169 2906 1791 
z
M 3481 434 
Q 3481 -459 3084 -895 
Q 2688 -1331 1869 -1331 
Q 1566 -1331 1297 -1286 
Q 1028 -1241 775 -1147 
L 775 -588 
Q 1028 -725 1275 -790 
Q 1522 -856 1778 -856 
Q 2344 -856 2625 -561 
Q 2906 -266 2906 331 
L 2906 616 
Q 2728 306 2450 153 
Q 2172 0 1784 0 
Q 1141 0 747 490 
Q 353 981 353 1791 
Q 353 2603 747 3093 
Q 1141 3584 1784 3584 
Q 2172 3584 2450 3431 
Q 2728 3278 2906 2969 
L 2906 3500 
L 3481 3500 
L 3481 434 
z
" transform="scale(0.015625)"/>
       <path id="DejaVuSans-20" transform="scale(0.015625)"/>
       <path id="DejaVuSans-63" d="M 3122 3366 
L 3122 2828 
Q 2878 2963 2633 3030 
Q 2388 3097 2138 3097 
Q 1578 3097 1268 2742 
Q 959 2388 959 1747 
Q 959 1106 1268 751 
Q 1578 397 2138 397 
Q 2388 397 2633 464 
Q 2878 531 3122 666 
L 3122 134 
Q 2881 22 2623 -34 
Q 2366 -91 2075 -91 
Q 1284 -91 818 406 
Q 353 903 353 1747 
Q 353 2603 823 3093 
Q 1294 3584 2113 3584 
Q 2378 3584 2631 3529 
Q 2884 3475 3122 3366 
z
" transform="scale(0.015625)"/>
      </defs>
      <use xlink:href="#DejaVuSans-41"/>
      <use xlink:href="#DejaVuSans-76" x="62.533203"/>
      <use xlink:href="#DejaVuSans-67" x="121.712891"/>
      <use xlink:href="#DejaVuSans-20" x="185.189453"/>
      <use xlink:href="#DejaVuSans-61" x="216.976562"/>
      <use xlink:href="#DejaVuSans-63" x="278.255859"/>
      <use xlink:href="#DejaVuSans-74" x="333.236328"/>
      <use xlink:href="#DejaVuSans-69" x="372.445312"/>
      <use xlink:href="#DejaVuSans-6f" x="400.228516"/>
      <use xlink:href="#DejaVuSans-6e" x="461.410156"/>
     </g>
    </g>
   </g>
   <g id="line2d_13">
    <path d="M 66.091364 159.856498 
L 69.784568 150.489495 
L 73.477773 244.159529 
L 77.170978 178.590505 
L 80.864183 253.526532 
L 84.557388 225.425522 
L 88.250592 272.260539 
L 91.943797 234.792525 
L 95.637002 253.526532 
L 99.330207 225.425522 
L 103.023411 216.058519 
L 106.716616 234.792525 
L 110.409821 234.792525 
L 114.103026 244.159529 
L 117.79623 253.526532 
L 121.489435 225.425522 
L 125.18264 253.526532 
L 128.875845 262.893535 
L 132.56905 290.994545 
L 136.262254 281.627542 
L 139.955459 234.792525 
L 143.648664 253.526532 
L 147.341869 234.792525 
L 151.035073 244.159529 
L 154.728278 244.159529 
L 158.421483 253.526532 
L 162.114688 234.792525 
L 165.807893 262.893535 
L 169.501097 244.159529 
L 173.194302 272.260539 
L 176.887507 281.627542 
L 180.580712 272.260539 
L 184.273916 253.526532 
L 187.967121 206.691515 
L 191.660326 225.425522 
L 195.353531 187.957508 
L 199.046736 206.691515 
L 202.73994 187.957508 
L 206.433145 197.324512 
L 210.12635 159.856498 
L 213.819555 169.223502 
L 217.512759 159.856498 
L 221.205964 150.489495 
L 224.899169 131.755488 
L 228.592374 131.755488 
L 232.285579 113.021481 
L 235.978783 113.021481 
L 239.671988 113.021481 
L 243.365193 131.755488 
L 247.058398 113.021481 
L 250.751602 103.654478 
L 254.444807 75.553468 
L 258.138012 103.654478 
L 261.831217 103.654478 
L 265.524421 84.920471 
L 269.217626 84.920471 
L 272.910831 103.654478 
L 276.604036 84.920471 
L 280.297241 66.186465 
L 283.990445 56.819461 
L 287.68365 75.553468 
L 291.376855 75.553468 
L 295.07006 84.920471 
L 298.763264 47.452458 
L 302.456469 84.920471 
L 306.149674 56.819461 
L 309.842879 56.819461 
L 313.536084 66.186465 
L 317.229288 56.819461 
L 320.922493 38.085455 
L 324.615698 47.452458 
L 328.308903 47.452458 
L 332.002107 38.085455 
L 335.695312 38.085455 
L 339.388517 38.085455 
L 343.081722 47.452458 
L 346.774927 38.085455 
L 350.468131 38.085455 
L 354.161336 38.085455 
L 357.854541 38.085455 
L 361.547746 38.085455 
L 365.24095 38.085455 
L 368.934155 38.085455 
L 372.62736 38.085455 
L 376.320565 38.085455 
L 380.01377 38.085455 
L 383.706974 38.085455 
L 387.400179 47.452458 
L 391.093384 47.452458 
L 394.786589 38.085455 
L 398.479793 38.085455 
L 402.172998 38.085455 
L 405.866203 38.085455 
L 409.559408 38.085455 
L 413.252612 38.085455 
L 416.945817 66.186465 
L 420.639022 47.452458 
L 424.332227 38.085455 
L 428.025432 47.452458 
L 431.718636 47.452458 
" clip-path="url(#pa7714fbced)" style="fill: none; stroke: #0000ff; stroke-linecap: square"/>
    <defs>
     <path id="mfde74d5fd1" d="M -0.49999 0.49999 
L 0.50001 0.49999 
L 0.50001 -0.50001 
L -0.49999 -0.50001 
z
"/>
    </defs>
    <g clip-path="url(#pa7714fbced)">
     <use xlink:href="#mfde74d5fd1" x="66.091364" y="159.856498" style="fill: #0000ff"/>
     <use xlink:href="#mfde74d5fd1" x="69.784568" y="150.489495" style="fill: #0000ff"/>
     <use xlink:href="#mfde74d5fd1" x="73.477773" y="244.159529" style="fill: #0000ff"/>
     <use xlink:href="#mfde74d5fd1" x="77.170978" y="178.590505" style="fill: #0000ff"/>
     <use xlink:href="#mfde74d5fd1" x="80.864183" y="253.526532" style="fill: #0000ff"/>
     <use xlink:href="#mfde74d5fd1" x="84.557388" y="225.425522" style="fill: #0000ff"/>
     <use xlink:href="#mfde74d5fd1" x="88.250592" y="272.260539" style="fill: #0000ff"/>
     <use xlink:href="#mfde74d5fd1" x="91.943797" y="234.792525" style="fill: #0000ff"/>
     <use xlink:href="#mfde74d5fd1" x="95.637002" y="253.526532" style="fill: #0000ff"/>
     <use xlink:href="#mfde74d5fd1" x="99.330207" y="225.425522" style="fill: #0000ff"/>
     <use xlink:href="#mfde74d5fd1" x="103.023411" y="216.058519" style="fill: #0000ff"/>
     <use xlink:href="#mfde74d5fd1" x="106.716616" y="234.792525" style="fill: #0000ff"/>
     <use xlink:href="#mfde74d5fd1" x="110.409821" y="234.792525" style="fill: #0000ff"/>
     <use xlink:href="#mfde74d5fd1" x="114.103026" y="244.159529" style="fill: #0000ff"/>
     <use xlink:href="#mfde74d5fd1" x="117.79623" y="253.526532" style="fill: #0000ff"/>
     <use xlink:href="#mfde74d5fd1" x="121.489435" y="225.425522" style="fill: #0000ff"/>
     <use xlink:href="#mfde74d5fd1" x="125.18264" y="253.526532" style="fill: #0000ff"/>
     <use xlink:href="#mfde74d5fd1" x="128.875845" y="262.893535" style="fill: #0000ff"/>
     <use xlink:href="#mfde74d5fd1" x="132.56905" y="290.994545" style="fill: #0000ff"/>
     <use xlink:href="#mfde74d5fd1" x="136.262254" y="281.627542" style="fill: #0000ff"/>
     <use xlink:href="#mfde74d5fd1" x="139.955459" y="234.792525" style="fill: #0000ff"/>
     <use xlink:href="#mfde74d5fd1" x="143.648664" y="253.526532" style="fill: #0000ff"/>
     <use xlink:href="#mfde74d5fd1" x="147.341869" y="234.792525" style="fill: #0000ff"/>
     <use xlink:href="#mfde74d5fd1" x="151.035073" y="244.159529" style="fill: #0000ff"/>
     <use xlink:href="#mfde74d5fd1" x="154.728278" y="244.159529" style="fill: #0000ff"/>
     <use xlink:href="#mfde74d5fd1" x="158.421483" y="253.526532" style="fill: #0000ff"/>
     <use xlink:href="#mfde74d5fd1" x="162.114688" y="234.792525" style="fill: #0000ff"/>
     <use xlink:href="#mfde74d5fd1" x="165.807893" y="262.893535" style="fill: #0000ff"/>
     <use xlink:href="#mfde74d5fd1" x="169.501097" y="244.159529" style="fill: #0000ff"/>
     <use xlink:href="#mfde74d5fd1" x="173.194302" y="272.260539" style="fill: #0000ff"/>
     <use xlink:href="#mfde74d5fd1" x="176.887507" y="281.627542" style="fill: #0000ff"/>
     <use xlink:href="#mfde74d5fd1" x="180.580712" y="272.260539" style="fill: #0000ff"/>
     <use xlink:href="#mfde74d5fd1" x="184.273916" y="253.526532" style="fill: #0000ff"/>
     <use xlink:href="#mfde74d5fd1" x="187.967121" y="206.691515" style="fill: #0000ff"/>
     <use xlink:href="#mfde74d5fd1" x="191.660326" y="225.425522" style="fill: #0000ff"/>
     <use xlink:href="#mfde74d5fd1" x="195.353531" y="187.957508" style="fill: #0000ff"/>
     <use xlink:href="#mfde74d5fd1" x="199.046736" y="206.691515" style="fill: #0000ff"/>
     <use xlink:href="#mfde74d5fd1" x="202.73994" y="187.957508" style="fill: #0000ff"/>
     <use xlink:href="#mfde74d5fd1" x="206.433145" y="197.324512" style="fill: #0000ff"/>
     <use xlink:href="#mfde74d5fd1" x="210.12635" y="159.856498" style="fill: #0000ff"/>
     <use xlink:href="#mfde74d5fd1" x="213.819555" y="169.223502" style="fill: #0000ff"/>
     <use xlink:href="#mfde74d5fd1" x="217.512759" y="159.856498" style="fill: #0000ff"/>
     <use xlink:href="#mfde74d5fd1" x="221.205964" y="150.489495" style="fill: #0000ff"/>
     <use xlink:href="#mfde74d5fd1" x="224.899169" y="131.755488" style="fill: #0000ff"/>
     <use xlink:href="#mfde74d5fd1" x="228.592374" y="131.755488" style="fill: #0000ff"/>
     <use xlink:href="#mfde74d5fd1" x="232.285579" y="113.021481" style="fill: #0000ff"/>
     <use xlink:href="#mfde74d5fd1" x="235.978783" y="113.021481" style="fill: #0000ff"/>
     <use xlink:href="#mfde74d5fd1" x="239.671988" y="113.021481" style="fill: #0000ff"/>
     <use xlink:href="#mfde74d5fd1" x="243.365193" y="131.755488" style="fill: #0000ff"/>
     <use xlink:href="#mfde74d5fd1" x="247.058398" y="113.021481" style="fill: #0000ff"/>
     <use xlink:href="#mfde74d5fd1" x="250.751602" y="103.654478" style="fill: #0000ff"/>
     <use xlink:href="#mfde74d5fd1" x="254.444807" y="75.553468" style="fill: #0000ff"/>
     <use xlink:href="#mfde74d5fd1" x="258.138012" y="103.654478" style="fill: #0000ff"/>
     <use xlink:href="#mfde74d5fd1" x="261.831217" y="103.654478" style="fill: #0000ff"/>
     <use xlink:href="#mfde74d5fd1" x="265.524421" y="84.920471" style="fill: #0000ff"/>
     <use xlink:href="#mfde74d5fd1" x="269.217626" y="84.920471" style="fill: #0000ff"/>
     <use xlink:href="#mfde74d5fd1" x="272.910831" y="103.654478" style="fill: #0000ff"/>
     <use xlink:href="#mfde74d5fd1" x="276.604036" y="84.920471" style="fill: #0000ff"/>
     <use xlink:href="#mfde74d5fd1" x="280.297241" y="66.186465" style="fill: #0000ff"/>
     <use xlink:href="#mfde74d5fd1" x="283.990445" y="56.819461" style="fill: #0000ff"/>
     <use xlink:href="#mfde74d5fd1" x="287.68365" y="75.553468" style="fill: #0000ff"/>
     <use xlink:href="#mfde74d5fd1" x="291.376855" y="75.553468" style="fill: #0000ff"/>
     <use xlink:href="#mfde74d5fd1" x="295.07006" y="84.920471" style="fill: #0000ff"/>
     <use xlink:href="#mfde74d5fd1" x="298.763264" y="47.452458" style="fill: #0000ff"/>
     <use xlink:href="#mfde74d5fd1" x="302.456469" y="84.920471" style="fill: #0000ff"/>
     <use xlink:href="#mfde74d5fd1" x="306.149674" y="56.819461" style="fill: #0000ff"/>
     <use xlink:href="#mfde74d5fd1" x="309.842879" y="56.819461" style="fill: #0000ff"/>
     <use xlink:href="#mfde74d5fd1" x="313.536084" y="66.186465" style="fill: #0000ff"/>
     <use xlink:href="#mfde74d5fd1" x="317.229288" y="56.819461" style="fill: #0000ff"/>
     <use xlink:href="#mfde74d5fd1" x="320.922493" y="38.085455" style="fill: #0000ff"/>
     <use xlink:href="#mfde74d5fd1" x="324.615698" y="47.452458" style="fill: #0000ff"/>
     <use xlink:href="#mfde74d5fd1" x="328.308903" y="47.452458" style="fill: #0000ff"/>
     <use xlink:href="#mfde74d5fd1" x="332.002107" y="38.085455" style="fill: #0000ff"/>
     <use xlink:href="#mfde74d5fd1" x="335.695312" y="38.085455" style="fill: #0000ff"/>
     <use xlink:href="#mfde74d5fd1" x="339.388517" y="38.085455" style="fill: #0000ff"/>
     <use xlink:href="#mfde74d5fd1" x="343.081722" y="47.452458" style="fill: #0000ff"/>
     <use xlink:href="#mfde74d5fd1" x="346.774927" y="38.085455" style="fill: #0000ff"/>
     <use xlink:href="#mfde74d5fd1" x="350.468131" y="38.085455" style="fill: #0000ff"/>
     <use xlink:href="#mfde74d5fd1" x="354.161336" y="38.085455" style="fill: #0000ff"/>
     <use xlink:href="#mfde74d5fd1" x="357.854541" y="38.085455" style="fill: #0000ff"/>
     <use xlink:href="#mfde74d5fd1" x="361.547746" y="38.085455" style="fill: #0000ff"/>
     <use xlink:href="#mfde74d5fd1" x="365.24095" y="38.085455" style="fill: #0000ff"/>
     <use xlink:href="#mfde74d5fd1" x="368.934155" y="38.085455" style="fill: #0000ff"/>
     <use xlink:href="#mfde74d5fd1" x="372.62736" y="38.085455" style="fill: #0000ff"/>
     <use xlink:href="#mfde74d5fd1" x="376.320565" y="38.085455" style="fill: #0000ff"/>
     <use xlink:href="#mfde74d5fd1" x="380.01377" y="38.085455" style="fill: #0000ff"/>
     <use xlink:href="#mfde74d5fd1" x="383.706974" y="38.085455" style="fill: #0000ff"/>
     <use xlink:href="#mfde74d5fd1" x="387.400179" y="47.452458" style="fill: #0000ff"/>
     <use xlink:href="#mfde74d5fd1" x="391.093384" y="47.452458" style="fill: #0000ff"/>
     <use xlink:href="#mfde74d5fd1" x="394.786589" y="38.085455" style="fill: #0000ff"/>
     <use xlink:href="#mfde74d5fd1" x="398.479793" y="38.085455" style="fill: #0000ff"/>
     <use xlink:href="#mfde74d5fd1" x="402.172998" y="38.085455" style="fill: #0000ff"/>
     <use xlink:href="#mfde74d5fd1" x="405.866203" y="38.085455" style="fill: #0000ff"/>
     <use xlink:href="#mfde74d5fd1" x="409.559408" y="38.085455" style="fill: #0000ff"/>
     <use xlink:href="#mfde74d5fd1" x="413.252612" y="38.085455" style="fill: #0000ff"/>
     <use xlink:href="#mfde74d5fd1" x="416.945817" y="66.186465" style="fill: #0000ff"/>
     <use xlink:href="#mfde74d5fd1" x="420.639022" y="47.452458" style="fill: #0000ff"/>
     <use xlink:href="#mfde74d5fd1" x="424.332227" y="38.085455" style="fill: #0000ff"/>
     <use xlink:href="#mfde74d5fd1" x="428.025432" y="47.452458" style="fill: #0000ff"/>
     <use xlink:href="#mfde74d5fd1" x="431.718636" y="47.452458" style="fill: #0000ff"/>
    </g>
   </g>
   <g id="line2d_14">
    <path d="M 66.091364 159.856498 
L 69.784568 155.172997 
L 73.477773 184.835174 
L 77.170978 183.274007 
L 80.864183 197.324512 
L 84.557388 202.008013 
L 88.250592 212.044089 
L 91.943797 214.887643 
L 95.637002 219.180853 
L 99.330207 219.80532 
L 103.023411 219.464702 
L 106.716616 220.74202 
L 110.409821 221.822828 
L 114.103026 223.418307 
L 117.79623 225.425522 
L 121.489435 225.425522 
L 125.18264 227.078522 
L 128.875845 229.068245 
L 132.56905 232.327524 
L 136.262254 234.792525 
L 139.955459 234.792525 
L 143.648664 235.644071 
L 147.341869 235.607047 
L 151.035073 235.963401 
L 154.728278 236.291246 
L 158.421483 236.954141 
L 162.114688 236.874082 
L 165.807893 237.803348 
L 169.501097 238.022526 
L 173.194302 239.163793 
L 176.887507 240.533592 
L 180.580712 241.525059 
L 184.273916 241.88874 
L 187.967121 240.853527 
L 191.660326 240.412727 
L 195.353531 238.955638 
L 199.046736 238.083635 
L 202.73994 236.764526 
L 206.433145 235.753244 
L 210.12635 233.855825 
L 213.819555 232.279427 
L 217.512759 230.555071 
L 221.205964 228.693081 
L 224.899169 226.489954 
L 228.592374 224.384744 
L 232.285579 221.963803 
L 235.978783 219.645882 
L 239.671988 217.42454 
L 243.365193 215.676192 
L 247.058398 213.623098 
L 250.751602 211.46685 
L 254.444807 208.853131 
L 258.138012 206.868251 
L 261.831217 204.956885 
L 265.524421 202.774405 
L 269.217626 200.66987 
L 272.910831 198.967846 
L 276.604036 197.001512 
L 280.297241 194.784307 
L 283.990445 192.484893 
L 287.68365 190.567985 
L 291.376855 188.712912 
L 295.07006 187.065413 
L 298.763264 184.88396 
L 302.456469 183.346061 
L 306.149674 181.428991 
L 309.842879 179.569147 
L 313.536084 177.901755 
L 317.229288 176.146939 
L 320.922493 174.174632 
L 324.615698 172.389813 
L 328.308903 170.654572 
L 332.002107 168.838556 
L 335.695312 167.071623 
L 339.388517 165.351807 
L 343.081722 163.8005 
L 346.774927 162.167837 
L 350.468131 160.577037 
L 354.161336 159.026511 
L 357.854541 157.514747 
L 361.547746 156.040312 
L 365.24095 154.601838 
L 368.934155 153.198026 
L 372.62736 151.827638 
L 376.320565 150.489495 
L 380.01377 149.182471 
L 383.706974 147.905494 
L 387.400179 146.763982 
L 391.093384 145.648122 
L 394.786589 144.452982 
L 398.479793 143.284108 
L 402.172998 142.140644 
L 405.866203 141.021771 
L 409.559408 139.926704 
L 413.252612 138.854691 
L 416.945817 138.09773 
L 420.639022 137.163243 
L 424.332227 136.152245 
L 428.025432 135.256287 
L 431.718636 134.378249 
" clip-path="url(#pa7714fbced)" style="fill: none; stroke: #0000ff; stroke-opacity: 0.5; stroke-width: 0.5; stroke-linecap: square"/>
    <defs>
     <path id="m0817f6cc63" d="M -0.49999 0.49999 
L 0.50001 0.49999 
L 0.50001 -0.50001 
L -0.49999 -0.50001 
z
"/>
    </defs>
    <g clip-path="url(#pa7714fbced)">
     <use xlink:href="#m0817f6cc63" x="66.091364" y="159.856498" style="fill: #0000ff; fill-opacity: 0.5"/>
     <use xlink:href="#m0817f6cc63" x="69.784568" y="155.172997" style="fill: #0000ff; fill-opacity: 0.5"/>
     <use xlink:href="#m0817f6cc63" x="73.477773" y="184.835174" style="fill: #0000ff; fill-opacity: 0.5"/>
     <use xlink:href="#m0817f6cc63" x="77.170978" y="183.274007" style="fill: #0000ff; fill-opacity: 0.5"/>
     <use xlink:href="#m0817f6cc63" x="80.864183" y="197.324512" style="fill: #0000ff; fill-opacity: 0.5"/>
     <use xlink:href="#m0817f6cc63" x="84.557388" y="202.008013" style="fill: #0000ff; fill-opacity: 0.5"/>
     <use xlink:href="#m0817f6cc63" x="88.250592" y="212.044089" style="fill: #0000ff; fill-opacity: 0.5"/>
     <use xlink:href="#m0817f6cc63" x="91.943797" y="214.887643" style="fill: #0000ff; fill-opacity: 0.5"/>
     <use xlink:href="#m0817f6cc63" x="95.637002" y="219.180853" style="fill: #0000ff; fill-opacity: 0.5"/>
     <use xlink:href="#m0817f6cc63" x="99.330207" y="219.80532" style="fill: #0000ff; fill-opacity: 0.5"/>
     <use xlink:href="#m0817f6cc63" x="103.023411" y="219.464702" style="fill: #0000ff; fill-opacity: 0.5"/>
     <use xlink:href="#m0817f6cc63" x="106.716616" y="220.74202" style="fill: #0000ff; fill-opacity: 0.5"/>
     <use xlink:href="#m0817f6cc63" x="110.409821" y="221.822828" style="fill: #0000ff; fill-opacity: 0.5"/>
     <use xlink:href="#m0817f6cc63" x="114.103026" y="223.418307" style="fill: #0000ff; fill-opacity: 0.5"/>
     <use xlink:href="#m0817f6cc63" x="117.79623" y="225.425522" style="fill: #0000ff; fill-opacity: 0.5"/>
     <use xlink:href="#m0817f6cc63" x="121.489435" y="225.425522" style="fill: #0000ff; fill-opacity: 0.5"/>
     <use xlink:href="#m0817f6cc63" x="125.18264" y="227.078522" style="fill: #0000ff; fill-opacity: 0.5"/>
     <use xlink:href="#m0817f6cc63" x="128.875845" y="229.068245" style="fill: #0000ff; fill-opacity: 0.5"/>
     <use xlink:href="#m0817f6cc63" x="132.56905" y="232.327524" style="fill: #0000ff; fill-opacity: 0.5"/>
     <use xlink:href="#m0817f6cc63" x="136.262254" y="234.792525" style="fill: #0000ff; fill-opacity: 0.5"/>
     <use xlink:href="#m0817f6cc63" x="139.955459" y="234.792525" style="fill: #0000ff; fill-opacity: 0.5"/>
     <use xlink:href="#m0817f6cc63" x="143.648664" y="235.644071" style="fill: #0000ff; fill-opacity: 0.5"/>
     <use xlink:href="#m0817f6cc63" x="147.341869" y="235.607047" style="fill: #0000ff; fill-opacity: 0.5"/>
     <use xlink:href="#m0817f6cc63" x="151.035073" y="235.963401" style="fill: #0000ff; fill-opacity: 0.5"/>
     <use xlink:href="#m0817f6cc63" x="154.728278" y="236.291246" style="fill: #0000ff; fill-opacity: 0.5"/>
     <use xlink:href="#m0817f6cc63" x="158.421483" y="236.954141" style="fill: #0000ff; fill-opacity: 0.5"/>
     <use xlink:href="#m0817f6cc63" x="162.114688" y="236.874082" style="fill: #0000ff; fill-opacity: 0.5"/>
     <use xlink:href="#m0817f6cc63" x="165.807893" y="237.803348" style="fill: #0000ff; fill-opacity: 0.5"/>
     <use xlink:href="#m0817f6cc63" x="169.501097" y="238.022526" style="fill: #0000ff; fill-opacity: 0.5"/>
     <use xlink:href="#m0817f6cc63" x="173.194302" y="239.163793" style="fill: #0000ff; fill-opacity: 0.5"/>
     <use xlink:href="#m0817f6cc63" x="176.887507" y="240.533592" style="fill: #0000ff; fill-opacity: 0.5"/>
     <use xlink:href="#m0817f6cc63" x="180.580712" y="241.525059" style="fill: #0000ff; fill-opacity: 0.5"/>
     <use xlink:href="#m0817f6cc63" x="184.273916" y="241.88874" style="fill: #0000ff; fill-opacity: 0.5"/>
     <use xlink:href="#m0817f6cc63" x="187.967121" y="240.853527" style="fill: #0000ff; fill-opacity: 0.5"/>
     <use xlink:href="#m0817f6cc63" x="191.660326" y="240.412727" style="fill: #0000ff; fill-opacity: 0.5"/>
     <use xlink:href="#m0817f6cc63" x="195.353531" y="238.955638" style="fill: #0000ff; fill-opacity: 0.5"/>
     <use xlink:href="#m0817f6cc63" x="199.046736" y="238.083635" style="fill: #0000ff; fill-opacity: 0.5"/>
     <use xlink:href="#m0817f6cc63" x="202.73994" y="236.764526" style="fill: #0000ff; fill-opacity: 0.5"/>
     <use xlink:href="#m0817f6cc63" x="206.433145" y="235.753244" style="fill: #0000ff; fill-opacity: 0.5"/>
     <use xlink:href="#m0817f6cc63" x="210.12635" y="233.855825" style="fill: #0000ff; fill-opacity: 0.5"/>
     <use xlink:href="#m0817f6cc63" x="213.819555" y="232.279427" style="fill: #0000ff; fill-opacity: 0.5"/>
     <use xlink:href="#m0817f6cc63" x="217.512759" y="230.555071" style="fill: #0000ff; fill-opacity: 0.5"/>
     <use xlink:href="#m0817f6cc63" x="221.205964" y="228.693081" style="fill: #0000ff; fill-opacity: 0.5"/>
     <use xlink:href="#m0817f6cc63" x="224.899169" y="226.489954" style="fill: #0000ff; fill-opacity: 0.5"/>
     <use xlink:href="#m0817f6cc63" x="228.592374" y="224.384744" style="fill: #0000ff; fill-opacity: 0.5"/>
     <use xlink:href="#m0817f6cc63" x="232.285579" y="221.963803" style="fill: #0000ff; fill-opacity: 0.5"/>
     <use xlink:href="#m0817f6cc63" x="235.978783" y="219.645882" style="fill: #0000ff; fill-opacity: 0.5"/>
     <use xlink:href="#m0817f6cc63" x="239.671988" y="217.42454" style="fill: #0000ff; fill-opacity: 0.5"/>
     <use xlink:href="#m0817f6cc63" x="243.365193" y="215.676192" style="fill: #0000ff; fill-opacity: 0.5"/>
     <use xlink:href="#m0817f6cc63" x="247.058398" y="213.623098" style="fill: #0000ff; fill-opacity: 0.5"/>
     <use xlink:href="#m0817f6cc63" x="250.751602" y="211.46685" style="fill: #0000ff; fill-opacity: 0.5"/>
     <use xlink:href="#m0817f6cc63" x="254.444807" y="208.853131" style="fill: #0000ff; fill-opacity: 0.5"/>
     <use xlink:href="#m0817f6cc63" x="258.138012" y="206.868251" style="fill: #0000ff; fill-opacity: 0.5"/>
     <use xlink:href="#m0817f6cc63" x="261.831217" y="204.956885" style="fill: #0000ff; fill-opacity: 0.5"/>
     <use xlink:href="#m0817f6cc63" x="265.524421" y="202.774405" style="fill: #0000ff; fill-opacity: 0.5"/>
     <use xlink:href="#m0817f6cc63" x="269.217626" y="200.66987" style="fill: #0000ff; fill-opacity: 0.5"/>
     <use xlink:href="#m0817f6cc63" x="272.910831" y="198.967846" style="fill: #0000ff; fill-opacity: 0.5"/>
     <use xlink:href="#m0817f6cc63" x="276.604036" y="197.001512" style="fill: #0000ff; fill-opacity: 0.5"/>
     <use xlink:href="#m0817f6cc63" x="280.297241" y="194.784307" style="fill: #0000ff; fill-opacity: 0.5"/>
     <use xlink:href="#m0817f6cc63" x="283.990445" y="192.484893" style="fill: #0000ff; fill-opacity: 0.5"/>
     <use xlink:href="#m0817f6cc63" x="287.68365" y="190.567985" style="fill: #0000ff; fill-opacity: 0.5"/>
     <use xlink:href="#m0817f6cc63" x="291.376855" y="188.712912" style="fill: #0000ff; fill-opacity: 0.5"/>
     <use xlink:href="#m0817f6cc63" x="295.07006" y="187.065413" style="fill: #0000ff; fill-opacity: 0.5"/>
     <use xlink:href="#m0817f6cc63" x="298.763264" y="184.88396" style="fill: #0000ff; fill-opacity: 0.5"/>
     <use xlink:href="#m0817f6cc63" x="302.456469" y="183.346061" style="fill: #0000ff; fill-opacity: 0.5"/>
     <use xlink:href="#m0817f6cc63" x="306.149674" y="181.428991" style="fill: #0000ff; fill-opacity: 0.5"/>
     <use xlink:href="#m0817f6cc63" x="309.842879" y="179.569147" style="fill: #0000ff; fill-opacity: 0.5"/>
     <use xlink:href="#m0817f6cc63" x="313.536084" y="177.901755" style="fill: #0000ff; fill-opacity: 0.5"/>
     <use xlink:href="#m0817f6cc63" x="317.229288" y="176.146939" style="fill: #0000ff; fill-opacity: 0.5"/>
     <use xlink:href="#m0817f6cc63" x="320.922493" y="174.174632" style="fill: #0000ff; fill-opacity: 0.5"/>
     <use xlink:href="#m0817f6cc63" x="324.615698" y="172.389813" style="fill: #0000ff; fill-opacity: 0.5"/>
     <use xlink:href="#m0817f6cc63" x="328.308903" y="170.654572" style="fill: #0000ff; fill-opacity: 0.5"/>
     <use xlink:href="#m0817f6cc63" x="332.002107" y="168.838556" style="fill: #0000ff; fill-opacity: 0.5"/>
     <use xlink:href="#m0817f6cc63" x="335.695312" y="167.071623" style="fill: #0000ff; fill-opacity: 0.5"/>
     <use xlink:href="#m0817f6cc63" x="339.388517" y="165.351807" style="fill: #0000ff; fill-opacity: 0.5"/>
     <use xlink:href="#m0817f6cc63" x="343.081722" y="163.8005" style="fill: #0000ff; fill-opacity: 0.5"/>
     <use xlink:href="#m0817f6cc63" x="346.774927" y="162.167837" style="fill: #0000ff; fill-opacity: 0.5"/>
     <use xlink:href="#m0817f6cc63" x="350.468131" y="160.577037" style="fill: #0000ff; fill-opacity: 0.5"/>
     <use xlink:href="#m0817f6cc63" x="354.161336" y="159.026511" style="fill: #0000ff; fill-opacity: 0.5"/>
     <use xlink:href="#m0817f6cc63" x="357.854541" y="157.514747" style="fill: #0000ff; fill-opacity: 0.5"/>
     <use xlink:href="#m0817f6cc63" x="361.547746" y="156.040312" style="fill: #0000ff; fill-opacity: 0.5"/>
     <use xlink:href="#m0817f6cc63" x="365.24095" y="154.601838" style="fill: #0000ff; fill-opacity: 0.5"/>
     <use xlink:href="#m0817f6cc63" x="368.934155" y="153.198026" style="fill: #0000ff; fill-opacity: 0.5"/>
     <use xlink:href="#m0817f6cc63" x="372.62736" y="151.827638" style="fill: #0000ff; fill-opacity: 0.5"/>
     <use xlink:href="#m0817f6cc63" x="376.320565" y="150.489495" style="fill: #0000ff; fill-opacity: 0.5"/>
     <use xlink:href="#m0817f6cc63" x="380.01377" y="149.182471" style="fill: #0000ff; fill-opacity: 0.5"/>
     <use xlink:href="#m0817f6cc63" x="383.706974" y="147.905494" style="fill: #0000ff; fill-opacity: 0.5"/>
     <use xlink:href="#m0817f6cc63" x="387.400179" y="146.763982" style="fill: #0000ff; fill-opacity: 0.5"/>
     <use xlink:href="#m0817f6cc63" x="391.093384" y="145.648122" style="fill: #0000ff; fill-opacity: 0.5"/>
     <use xlink:href="#m0817f6cc63" x="394.786589" y="144.452982" style="fill: #0000ff; fill-opacity: 0.5"/>
     <use xlink:href="#m0817f6cc63" x="398.479793" y="143.284108" style="fill: #0000ff; fill-opacity: 0.5"/>
     <use xlink:href="#m0817f6cc63" x="402.172998" y="142.140644" style="fill: #0000ff; fill-opacity: 0.5"/>
     <use xlink:href="#m0817f6cc63" x="405.866203" y="141.021771" style="fill: #0000ff; fill-opacity: 0.5"/>
     <use xlink:href="#m0817f6cc63" x="409.559408" y="139.926704" style="fill: #0000ff; fill-opacity: 0.5"/>
     <use xlink:href="#m0817f6cc63" x="413.252612" y="138.854691" style="fill: #0000ff; fill-opacity: 0.5"/>
     <use xlink:href="#m0817f6cc63" x="416.945817" y="138.09773" style="fill: #0000ff; fill-opacity: 0.5"/>
     <use xlink:href="#m0817f6cc63" x="420.639022" y="137.163243" style="fill: #0000ff; fill-opacity: 0.5"/>
     <use xlink:href="#m0817f6cc63" x="424.332227" y="136.152245" style="fill: #0000ff; fill-opacity: 0.5"/>
     <use xlink:href="#m0817f6cc63" x="428.025432" y="135.256287" style="fill: #0000ff; fill-opacity: 0.5"/>
     <use xlink:href="#m0817f6cc63" x="431.718636" y="134.378249" style="fill: #0000ff; fill-opacity: 0.5"/>
    </g>
   </g>
   <g id="patch_3">
    <path d="M 47.81 303.64 
L 47.81 25.44 
" style="fill: none; stroke: #000000; stroke-width: 0.8; stroke-linejoin: miter; stroke-linecap: square"/>
   </g>
   <g id="patch_4">
    <path d="M 450 303.64 
L 450 25.44 
" style="fill: none; stroke: #000000; stroke-width: 0.8; stroke-linejoin: miter; stroke-linecap: square"/>
   </g>
   <g id="patch_5">
    <path d="M 47.81 303.64 
L 450 303.64 
" style="fill: none; stroke: #000000; stroke-width: 0.8; stroke-linejoin: miter; stroke-linecap: square"/>
   </g>
   <g id="patch_6">
    <path d="M 47.81 25.44 
L 450 25.44 
" style="fill: none; stroke: #000000; stroke-width: 0.8; stroke-linejoin: miter; stroke-linecap: square"/>
   </g>
   <g id="text_15">
    <!-- Average action per round - 28173931-29014202 - 50 games -->
    <g transform="translate(67.800625 19.44) scale(0.12 -0.12)">
     <defs>
      <path id="DejaVuSans-70" d="M 1159 525 
L 1159 -1331 
L 581 -1331 
L 581 3500 
L 1159 3500 
L 1159 2969 
Q 1341 3281 1617 3432 
Q 1894 3584 2278 3584 
Q 2916 3584 3314 3078 
Q 3713 2572 3713 1747 
Q 3713 922 3314 415 
Q 2916 -91 2278 -91 
Q 1894 -91 1617 61 
Q 1341 213 1159 525 
z
M 3116 1747 
Q 3116 2381 2855 2742 
Q 2594 3103 2138 3103 
Q 1681 3103 1420 2742 
Q 1159 2381 1159 1747 
Q 1159 1113 1420 752 
Q 1681 391 2138 391 
Q 2594 391 2855 752 
Q 3116 1113 3116 1747 
z
" transform="scale(0.015625)"/>
      <path id="DejaVuSans-75" d="M 544 1381 
L 544 3500 
L 1119 3500 
L 1119 1403 
Q 1119 906 1312 657 
Q 1506 409 1894 409 
Q 2359 409 2629 706 
Q 2900 1003 2900 1516 
L 2900 3500 
L 3475 3500 
L 3475 0 
L 2900 0 
L 2900 538 
Q 2691 219 2414 64 
Q 2138 -91 1772 -91 
Q 1169 -91 856 284 
Q 544 659 544 1381 
z
M 1991 3584 
L 1991 3584 
z
" transform="scale(0.015625)"/>
      <path id="DejaVuSans-64" d="M 2906 2969 
L 2906 4863 
L 3481 4863 
L 3481 0 
L 2906 0 
L 2906 525 
Q 2725 213 2448 61 
Q 2172 -91 1784 -91 
Q 1150 -91 751 415 
Q 353 922 353 1747 
Q 353 2572 751 3078 
Q 1150 3584 1784 3584 
Q 2172 3584 2448 3432 
Q 2725 3281 2906 2969 
z
M 947 1747 
Q 947 1113 1208 752 
Q 1469 391 1925 391 
Q 2381 391 2643 752 
Q 2906 1113 2906 1747 
Q 2906 2381 2643 2742 
Q 2381 3103 1925 3103 
Q 1469 3103 1208 2742 
Q 947 2381 947 1747 
z
" transform="scale(0.015625)"/>
      <path id="DejaVuSans-2d" d="M 313 2009 
L 1997 2009 
L 1997 1497 
L 313 1497 
L 313 2009 
z
" transform="scale(0.015625)"/>
      <path id="DejaVuSans-33" d="M 2597 2516 
Q 3050 2419 3304 2112 
Q 3559 1806 3559 1356 
Q 3559 666 3084 287 
Q 2609 -91 1734 -91 
Q 1441 -91 1130 -33 
Q 819 25 488 141 
L 488 750 
Q 750 597 1062 519 
Q 1375 441 1716 441 
Q 2309 441 2620 675 
Q 2931 909 2931 1356 
Q 2931 1769 2642 2001 
Q 2353 2234 1838 2234 
L 1294 2234 
L 1294 2753 
L 1863 2753 
Q 2328 2753 2575 2939 
Q 2822 3125 2822 3475 
Q 2822 3834 2567 4026 
Q 2313 4219 1838 4219 
Q 1578 4219 1281 4162 
Q 984 4106 628 3988 
L 628 4550 
Q 988 4650 1302 4700 
Q 1616 4750 1894 4750 
Q 2613 4750 3031 4423 
Q 3450 4097 3450 3541 
Q 3450 3153 3228 2886 
Q 3006 2619 2597 2516 
z
" transform="scale(0.015625)"/>
      <path id="DejaVuSans-6d" d="M 3328 2828 
Q 3544 3216 3844 3400 
Q 4144 3584 4550 3584 
Q 5097 3584 5394 3201 
Q 5691 2819 5691 2113 
L 5691 0 
L 5113 0 
L 5113 2094 
Q 5113 2597 4934 2840 
Q 4756 3084 4391 3084 
Q 3944 3084 3684 2787 
Q 3425 2491 3425 1978 
L 3425 0 
L 2847 0 
L 2847 2094 
Q 2847 2600 2669 2842 
Q 2491 3084 2119 3084 
Q 1678 3084 1418 2786 
Q 1159 2488 1159 1978 
L 1159 0 
L 581 0 
L 581 3500 
L 1159 3500 
L 1159 2956 
Q 1356 3278 1631 3431 
Q 1906 3584 2284 3584 
Q 2666 3584 2933 3390 
Q 3200 3197 3328 2828 
z
" transform="scale(0.015625)"/>
      <path id="DejaVuSans-73" d="M 2834 3397 
L 2834 2853 
Q 2591 2978 2328 3040 
Q 2066 3103 1784 3103 
Q 1356 3103 1142 2972 
Q 928 2841 928 2578 
Q 928 2378 1081 2264 
Q 1234 2150 1697 2047 
L 1894 2003 
Q 2506 1872 2764 1633 
Q 3022 1394 3022 966 
Q 3022 478 2636 193 
Q 2250 -91 1575 -91 
Q 1294 -91 989 -36 
Q 684 19 347 128 
L 347 722 
Q 666 556 975 473 
Q 1284 391 1588 391 
Q 1994 391 2212 530 
Q 2431 669 2431 922 
Q 2431 1156 2273 1281 
Q 2116 1406 1581 1522 
L 1381 1569 
Q 847 1681 609 1914 
Q 372 2147 372 2553 
Q 372 3047 722 3315 
Q 1072 3584 1716 3584 
Q 2034 3584 2315 3537 
Q 2597 3491 2834 3397 
z
" transform="scale(0.015625)"/>
     </defs>
     <use xlink:href="#DejaVuSans-41"/>
     <use xlink:href="#DejaVuSans-76" x="62.533203"/>
     <use xlink:href="#DejaVuSans-65" x="121.712891"/>
     <use xlink:href="#DejaVuSans-72" x="183.236328"/>
     <use xlink:href="#DejaVuSans-61" x="224.349609"/>
     <use xlink:href="#DejaVuSans-67" x="285.628906"/>
     <use xlink:href="#DejaVuSans-65" x="349.105469"/>
     <use xlink:href="#DejaVuSans-20" x="410.628906"/>
     <use xlink:href="#DejaVuSans-61" x="442.416016"/>
     <use xlink:href="#DejaVuSans-63" x="503.695312"/>
     <use xlink:href="#DejaVuSans-74" x="558.675781"/>
     <use xlink:href="#DejaVuSans-69" x="597.884766"/>
     <use xlink:href="#DejaVuSans-6f" x="625.667969"/>
     <use xlink:href="#DejaVuSans-6e" x="686.849609"/>
     <use xlink:href="#DejaVuSans-20" x="750.228516"/>
     <use xlink:href="#DejaVuSans-70" x="782.015625"/>
     <use xlink:href="#DejaVuSans-65" x="845.492188"/>
     <use xlink:href="#DejaVuSans-72" x="907.015625"/>
     <use xlink:href="#DejaVuSans-20" x="948.128906"/>
     <use xlink:href="#DejaVuSans-72" x="979.916016"/>
     <use xlink:href="#DejaVuSans-6f" x="1018.779297"/>
     <use xlink:href="#DejaVuSans-75" x="1079.960938"/>
     <use xlink:href="#DejaVuSans-6e" x="1143.339844"/>
     <use xlink:href="#DejaVuSans-64" x="1206.71875"/>
     <use xlink:href="#DejaVuSans-20" x="1270.195312"/>
     <use xlink:href="#DejaVuSans-2d" x="1301.982422"/>
     <use xlink:href="#DejaVuSans-20" x="1338.066406"/>
     <use xlink:href="#DejaVuSans-32" x="1369.853516"/>
     <use xlink:href="#DejaVuSans-38" x="1433.476562"/>
     <use xlink:href="#DejaVuSans-31" x="1497.099609"/>
     <use xlink:href="#DejaVuSans-37" x="1560.722656"/>
     <use xlink:href="#DejaVuSans-33" x="1624.345703"/>
     <use xlink:href="#DejaVuSans-39" x="1687.96875"/>
     <use xlink:href="#DejaVuSans-33" x="1751.591797"/>
     <use xlink:href="#DejaVuSans-31" x="1815.214844"/>
     <use xlink:href="#DejaVuSans-2d" x="1878.837891"/>
     <use xlink:href="#DejaVuSans-32" x="1914.921875"/>
     <use xlink:href="#DejaVuSans-39" x="1978.544922"/>
     <use xlink:href="#DejaVuSans-30" x="2042.167969"/>
     <use xlink:href="#DejaVuSans-31" x="2105.791016"/>
     <use xlink:href="#DejaVuSans-34" x="2169.414062"/>
     <use xlink:href="#DejaVuSans-32" x="2233.037109"/>
     <use xlink:href="#DejaVuSans-30" x="2296.660156"/>
     <use xlink:href="#DejaVuSans-32" x="2360.283203"/>
     <use xlink:href="#DejaVuSans-20" x="2423.90625"/>
     <use xlink:href="#DejaVuSans-2d" x="2455.693359"/>
     <use xlink:href="#DejaVuSans-20" x="2491.777344"/>
     <use xlink:href="#DejaVuSans-35" x="2523.564453"/>
     <use xlink:href="#DejaVuSans-30" x="2587.1875"/>
     <use xlink:href="#DejaVuSans-20" x="2650.810547"/>
     <use xlink:href="#DejaVuSans-67" x="2682.597656"/>
     <use xlink:href="#DejaVuSans-61" x="2746.074219"/>
     <use xlink:href="#DejaVuSans-6d" x="2807.353516"/>
     <use xlink:href="#DejaVuSans-65" x="2904.765625"/>
     <use xlink:href="#DejaVuSans-73" x="2966.289062"/>
    </g>
   </g>
   <g id="legend_1">
    <g id="patch_7">
     <path d="M 359.690625 298.64 
L 443 298.64 
Q 445 298.64 445 296.64 
L 445 268.28375 
Q 445 266.28375 443 266.28375 
L 359.690625 266.28375 
Q 357.690625 266.28375 357.690625 268.28375 
L 357.690625 296.64 
Q 357.690625 298.64 359.690625 298.64 
z
" style="fill: #ffffff; opacity: 0.8; stroke: #cccccc; stroke-linejoin: miter"/>
    </g>
    <g id="line2d_15">
     <path d="M 361.690625 274.382187 
L 371.690625 274.382187 
L 381.690625 274.382187 
" style="fill: none; stroke: #0000ff; stroke-linecap: square"/>
     <g>
      <use xlink:href="#mfde74d5fd1" x="371.690625" y="274.382187" style="fill: #0000ff"/>
     </g>
    </g>
    <g id="text_16">
     <!-- LLM -->
     <g transform="translate(389.690625 277.882187) scale(0.1 -0.1)">
      <defs>
       <path id="DejaVuSans-4c" d="M 628 4666 
L 1259 4666 
L 1259 531 
L 3531 531 
L 3531 0 
L 628 0 
L 628 4666 
z
" transform="scale(0.015625)"/>
       <path id="DejaVuSans-4d" d="M 628 4666 
L 1569 4666 
L 2759 1491 
L 3956 4666 
L 4897 4666 
L 4897 0 
L 4281 0 
L 4281 4097 
L 3078 897 
L 2444 897 
L 1241 4097 
L 1241 0 
L 628 0 
L 628 4666 
z
" transform="scale(0.015625)"/>
      </defs>
      <use xlink:href="#DejaVuSans-4c"/>
      <use xlink:href="#DejaVuSans-4c" x="55.712891"/>
      <use xlink:href="#DejaVuSans-4d" x="111.425781"/>
     </g>
    </g>
    <g id="line2d_16">
     <path d="M 361.690625 289.060312 
L 371.690625 289.060312 
L 381.690625 289.060312 
" style="fill: none; stroke: #0000ff; stroke-opacity: 0.5; stroke-width: 0.5; stroke-linecap: square"/>
     <g>
      <use xlink:href="#m0817f6cc63" x="371.690625" y="289.060312" style="fill: #0000ff; fill-opacity: 0.5"/>
     </g>
    </g>
    <g id="text_17">
     <!-- LLM mean -->
     <g transform="translate(389.690625 292.560312) scale(0.1 -0.1)">
      <use xlink:href="#DejaVuSans-4c"/>
      <use xlink:href="#DejaVuSans-4c" x="55.712891"/>
      <use xlink:href="#DejaVuSans-4d" x="111.425781"/>
      <use xlink:href="#DejaVuSans-20" x="197.705078"/>
      <use xlink:href="#DejaVuSans-6d" x="229.492188"/>
      <use xlink:href="#DejaVuSans-65" x="326.904297"/>
      <use xlink:href="#DejaVuSans-61" x="388.427734"/>
      <use xlink:href="#DejaVuSans-6e" x="449.707031"/>
     </g>
    </g>
   </g>
  </g>
 </g>
 <defs>
  <clipPath id="pa7714fbced">
   <rect x="47.81" y="25.44" width="402.19" height="278.2"/>
  </clipPath>
 </defs>
</svg>
