<?xml version="1.0" encoding="utf-8" standalone="no"?>
<!DOCTYPE svg PUBLIC "-//W3C//DTD SVG 1.1//EN"
  "http://www.w3.org/Graphics/SVG/1.1/DTD/svg11.dtd">
<svg xmlns:xlink="http://www.w3.org/1999/xlink" width="460.8pt" height="345.6pt" viewBox="0 0 460.8 345.6" xmlns="http://www.w3.org/2000/svg" version="1.1">
 <metadata>
  <rdf:RDF xmlns:dc="http://purl.org/dc/elements/1.1/" xmlns:cc="http://creativecommons.org/ns#" xmlns:rdf="http://www.w3.org/1999/02/22-rdf-syntax-ns#">
   <cc:Work>
    <dc:type rdf:resource="http://purl.org/dc/dcmitype/StillImage"/>
    <dc:date>2024-04-08T17:59:32.501028</dc:date>
    <dc:format>image/svg+xml</dc:format>
    <dc:creator>
     <cc:Agent>
      <dc:title>Matplotlib v3.8.0, https://matplotlib.org/</dc:title>
     </cc:Agent>
    </dc:creator>
   </cc:Work>
  </rdf:RDF>
 </metadata>
 <defs>
  <style type="text/css">*{stroke-linejoin: round; stroke-linecap: butt}</style>
 </defs>
 <g id="figure_1">
  <g id="patch_1">
   <path d="M 0 345.6 
L 460.8 345.6 
L 460.8 0 
L 0 0 
z
" style="fill: #ffffff"/>
  </g>
  <g id="axes_1">
   <g id="patch_2">
    <path d="M 47.81 303.64 
L 450 303.64 
L 450 25.44 
L 47.81 25.44 
z
" style="fill: #ffffff"/>
   </g>
   <g id="PolyCollection_1">
    <defs>
     <path id="m8b3e83c888" d="M 66.091364 -213.576883 
L 66.091364 -213.576883 
L 69.784568 -222.299405 
L 73.477773 -234.105181 
L 77.170978 -228.09567 
L 80.864183 -221.870965 
L 84.557388 -215.487804 
L 88.250592 -210.832022 
L 91.943797 -206.405459 
L 95.637002 -202.27808 
L 99.330207 -199.860911 
L 103.023411 -198.466631 
L 106.716616 -196.241755 
L 110.409821 -194.305213 
L 114.103026 -192.339269 
L 117.79623 -190.442898 
L 121.489435 -189.512191 
L 125.18264 -187.927786 
L 128.875845 -186.431081 
L 132.56905 -185.432169 
L 136.262254 -184.096772 
L 139.955459 -183.379499 
L 143.648664 -182.232777 
L 147.341869 -181.638147 
L 151.035073 -180.815784 
L 154.728278 -180.047953 
L 158.421483 -179.158727 
L 162.114688 -178.73599 
L 165.807893 -177.856323 
L 169.501097 -177.264676 
L 173.194302 -176.455294 
L 176.887507 -175.714941 
L 180.580712 -174.940952 
L 184.273916 -174.330758 
L 187.967121 -175.216079 
L 191.660326 -175.283729 
L 195.353531 -177.012925 
L 199.046736 -177.68827 
L 202.73994 -179.175272 
L 206.433145 -180.103069 
L 210.12635 -182.917777 
L 213.819555 -184.938493 
L 217.512759 -187.28236 
L 221.205964 -189.927211 
L 224.899169 -193.38914 
L 228.592374 -196.522999 
L 232.285579 -200.415673 
L 235.978783 -203.944679 
L 239.671988 -207.170057 
L 243.365193 -209.287867 
L 247.058398 -212.074838 
L 250.751602 -215.08091 
L 254.444807 -219.197041 
L 258.138012 -221.7302 
L 261.831217 -224.09815 
L 265.524421 -227.064353 
L 269.217626 -229.834018 
L 272.910831 -231.746113 
L 276.604036 -234.210032 
L 280.297241 -237.229171 
L 283.990445 -240.420008 
L 287.68365 -242.740768 
L 291.376855 -244.934197 
L 295.07006 -246.719204 
L 298.763264 -249.632523 
L 302.456469 -251.211249 
L 306.149674 -253.549119 
L 309.842879 -255.767591 
L 313.536084 -257.602957 
L 317.229288 -259.617872 
L 320.922493 -262.08943 
L 324.615698 -264.166732 
L 328.308903 -266.148086 
L 332.002107 -268.29773 
L 335.695312 -270.349753 
L 339.388517 -272.310866 
L 343.081722 -273.950411 
L 346.774927 -275.753398 
L 350.468131 -277.481596 
L 354.161336 -279.139557 
L 357.854541 -280.73144 
L 361.547746 -282.261058 
L 365.24095 -283.731918 
L 368.934155 -285.147251 
L 372.62736 -286.510043 
L 376.320565 -287.823059 
L 380.01377 -289.088864 
L 383.706974 -290.309842 
L 387.400179 -291.307701 
L 391.093384 -292.271719 
L 394.786589 -293.377629 
L 398.479793 -294.446498 
L 402.172998 -295.480039 
L 405.866203 -296.47986 
L 409.559408 -297.447468 
L 413.252612 -298.384283 
L 416.945817 -298.845601 
L 420.639022 -299.577846 
L 424.332227 -300.439785 
L 428.025432 -301.125892 
L 431.718636 -301.79145 
L 431.718636 -164.671615 
L 431.718636 -164.671615 
L 428.025432 -163.982485 
L 424.332227 -163.286258 
L 420.639022 -162.588372 
L 416.945817 -161.878836 
L 413.252612 -161.172272 
L 409.559408 -160.455124 
L 405.866203 -159.7332 
L 402.172998 -159.006759 
L 398.479793 -158.2761 
L 394.786589 -157.541563 
L 391.093384 -156.803541 
L 387.400179 -156.045947 
L 383.706974 -155.282616 
L 380.01377 -154.533401 
L 376.320565 -153.782655 
L 372.62736 -153.031107 
L 368.934155 -152.279586 
L 365.24095 -151.529038 
L 361.547746 -150.780539 
L 357.854541 -150.035313 
L 354.161336 -149.294761 
L 350.468131 -148.560482 
L 346.774927 -147.834303 
L 343.081722 -147.118324 
L 339.388517 -146.364424 
L 335.695312 -145.672107 
L 332.002107 -144.998003 
L 328.308903 -144.345795 
L 324.615698 -143.649921 
L 320.922493 -142.973502 
L 317.229288 -142.402071 
L 313.536084 -141.709556 
L 309.842879 -140.972374 
L 306.149674 -140.321373 
L 302.456469 -139.701478 
L 298.763264 -138.907445 
L 295.07006 -138.455094 
L 291.376855 -137.698246 
L 287.68365 -137.029562 
L 283.990445 -136.392805 
L 280.297241 -136.035976 
L 276.604036 -135.634285 
L 272.910831 -135.064432 
L 269.217626 -134.350546 
L 265.524421 -133.873215 
L 261.831217 -133.472163 
L 258.138012 -132.891148 
L 254.444807 -132.36192 
L 250.751602 -132.445457 
L 247.058398 -132.124747 
L 243.365193 -131.744087 
L 239.671988 -131.164445 
L 235.978783 -130.96261 
L 232.285579 -130.915395 
L 228.592374 -131.072903 
L 224.899169 -130.958723 
L 221.205964 -131.021542 
L 217.512759 -130.793607 
L 213.819555 -130.477041 
L 210.12635 -130.0656 
L 206.433145 -129.952862 
L 202.73994 -129.320394 
L 199.046736 -128.772201 
L 195.353531 -128.102169 
L 191.660326 -127.583284 
L 187.967121 -126.970842 
L 184.273916 -126.258978 
L 180.580712 -126.209892 
L 176.887507 -126.965595 
L 173.194302 -128.338646 
L 169.501097 -129.290076 
L 165.807893 -129.03659 
L 162.114688 -129.590648 
L 158.421483 -129.04439 
L 154.728278 -129.177917 
L 151.035073 -128.915904 
L 147.341869 -128.643344 
L 143.648664 -127.991591 
L 139.955459 -128.158683 
L 136.262254 -127.44141 
L 132.56905 -129.909157 
L 128.875845 -133.938847 
L 125.18264 -135.512 
L 121.489435 -136.477939 
L 117.79623 -135.547232 
L 114.103026 -136.747707 
L 110.409821 -137.243359 
L 106.716616 -136.974349 
L 103.023411 -136.720193 
L 99.330207 -134.800388 
L 95.637002 -133.346681 
L 91.943797 -135.843113 
L 88.250592 -135.803748 
L 84.557388 -146.632196 
L 80.864183 -147.475009 
L 77.170978 -162.928226 
L 73.477773 -154.510057 
L 69.784568 -212.080335 
L 66.091364 -213.576883 
z
" style="stroke: #0000ff; stroke-opacity: 0.2"/>
    </defs>
    <g clip-path="url(#p061a65619e)">
     <use xlink:href="#m8b3e83c888" x="0" y="345.6" style="fill: #0000ff; fill-opacity: 0.2; stroke: #0000ff; stroke-opacity: 0.2"/>
    </g>
   </g>
   <g id="PolyCollection_2">
    <defs>
     <path id="mb7c411add2" d="M 66.091364 -162.995065 
L 66.091364 -162.995065 
L 69.784568 -168.981258 
L 73.477773 -162.995065 
L 77.170978 -159.077323 
L 80.864183 -157.474912 
L 84.557388 -154.518373 
L 88.250592 -152.147202 
L 91.943797 -154.839255 
L 95.637002 -153.360433 
L 99.330207 -151.907466 
L 103.023411 -155.533543 
L 106.716616 -154.416679 
L 110.409821 -153.445879 
L 114.103026 -153.82315 
L 117.79623 -156.536683 
L 121.489435 -155.151235 
L 125.18264 -154.134361 
L 128.875845 -155.446064 
L 132.56905 -154.892665 
L 136.262254 -153.863653 
L 139.955459 -153.457199 
L 143.648664 -152.487311 
L 147.341869 -153.149132 
L 151.035073 -152.825976 
L 154.728278 -151.977688 
L 158.421483 -152.120149 
L 162.114688 -151.396415 
L 165.807893 -151.540379 
L 169.501097 -151.05855 
L 173.194302 -152.66914 
L 176.887507 -152.422352 
L 180.580712 -152.861444 
L 184.273916 -152.900629 
L 187.967121 -154.090018 
L 191.660326 -153.405295 
L 195.353531 -153.215692 
L 199.046736 -152.57182 
L 202.73994 -153.005186 
L 206.433145 -153.768975 
L 210.12635 -153.177903 
L 213.819555 -153.013616 
L 217.512759 -153.08866 
L 221.205964 -152.52827 
L 224.899169 -152.612739 
L 228.592374 -152.082071 
L 232.285579 -152.756078 
L 235.978783 -153.083211 
L 239.671988 -152.668907 
L 243.365193 -152.377327 
L 247.058398 -152.44543 
L 250.751602 -152.314375 
L 254.444807 -151.941367 
L 258.138012 -152.513656 
L 261.831217 -152.152722 
L 265.524421 -152.771416 
L 269.217626 -152.357063 
L 272.910831 -152.01728 
L 276.604036 -151.598189 
L 280.297241 -151.27824 
L 283.990445 -151.375725 
L 287.68365 -151.297964 
L 291.376855 -151.387259 
L 295.07006 -151.180916 
L 298.763264 -150.979618 
L 302.456469 -150.783166 
L 306.149674 -150.870203 
L 309.842879 -151.140213 
L 313.536084 -150.866038 
L 317.229288 -150.9436 
L 320.922493 -150.870915 
L 324.615698 -150.688272 
L 328.308903 -150.38941 
L 332.002107 -150.096317 
L 335.695312 -150.178294 
L 339.388517 -149.904373 
L 343.081722 -149.744309 
L 346.774927 -149.524083 
L 350.468131 -149.615568 
L 354.161336 -149.703006 
L 357.854541 -149.786594 
L 361.547746 -150.429863 
L 365.24095 -150.168915 
L 368.934155 -150.394733 
L 372.62736 -150.130986 
L 376.320565 -149.886884 
L 380.01377 -150.97737 
L 383.706974 -150.920305 
L 387.400179 -150.875266 
L 391.093384 -150.668416 
L 394.786589 -150.422294 
L 398.479793 -150.267635 
L 402.172998 -150.229428 
L 405.866203 -150.304994 
L 409.559408 -150.177422 
L 413.252612 -149.988572 
L 416.945817 -149.8029 
L 420.639022 -150.347952 
L 424.332227 -150.415437 
L 428.025432 -150.760559 
L 431.718636 -151.266284 
L 431.718636 -104.920936 
L 431.718636 -104.920936 
L 428.025432 -104.721582 
L 424.332227 -104.494704 
L 420.639022 -104.276373 
L 416.945817 -104.078031 
L 413.252612 -104.04607 
L 409.559408 -104.0142 
L 405.866203 -103.891588 
L 402.172998 -103.658048 
L 398.479793 -103.462755 
L 394.786589 -104.271558 
L 391.093384 -104.685788 
L 387.400179 -104.661617 
L 383.706974 -105.800143 
L 380.01377 -105.6098 
L 376.320565 -105.543734 
L 372.62736 -106.008062 
L 368.934155 -106.295694 
L 365.24095 -106.028881 
L 361.547746 -106.155232 
L 357.854541 -105.930938 
L 354.161336 -105.673808 
L 350.468131 -105.411791 
L 346.774927 -105.144745 
L 343.081722 -105.887652 
L 339.388517 -105.752943 
L 335.695312 -106.286248 
L 332.002107 -106.009735 
L 328.308903 -106.15108 
L 324.615698 -106.298895 
L 320.922493 -106.162777 
L 317.229288 -105.928517 
L 313.536084 -105.627224 
L 309.842879 -105.609986 
L 306.149674 -105.268844 
L 302.456469 -104.948262 
L 298.763264 -104.783076 
L 295.07006 -104.614038 
L 291.376855 -104.440994 
L 287.68365 -104.090846 
L 283.990445 -103.799859 
L 280.297241 -103.431942 
L 276.604036 -103.378059 
L 272.910831 -103.741453 
L 269.217626 -103.695961 
L 265.524421 -103.849364 
L 261.831217 -107.197869 
L 258.138012 -107.215655 
L 254.444807 -106.79162 
L 250.751602 -106.800073 
L 247.058398 -106.487661 
L 243.365193 -106.072066 
L 239.671988 -105.878799 
L 235.978783 -105.874479 
L 232.285579 -105.37273 
L 228.592374 -104.859863 
L 224.899169 -105.387544 
L 221.205964 -104.899129 
L 217.512759 -105.459046 
L 213.819555 -104.946612 
L 210.12635 -104.526772 
L 206.433145 -104.77873 
L 202.73994 -104.148033 
L 199.046736 -103.502128 
L 195.353531 -104.529127 
L 191.660326 -104.04131 
L 187.967121 -104.316002 
L 184.273916 -110.026455 
L 180.580712 -109.44979 
L 176.887507 -108.767107 
L 173.194302 -108.287223 
L 169.501097 -107.65527 
L 165.807893 -107.351421 
L 162.114688 -106.616034 
L 158.421483 -106.612838 
L 154.728278 -105.799247 
L 151.035073 -107.528223 
L 147.341869 -106.864713 
L 143.648664 -105.841426 
L 139.955459 -107.843259 
L 136.262254 -107.09271 
L 132.56905 -109.486528 
L 128.875845 -113.53916 
L 125.18264 -112.347748 
L 121.489435 -112.127856 
L 117.79623 -113.572581 
L 114.103026 -124.682008 
L 110.409821 -123.629965 
L 106.716616 -123.400291 
L 103.023411 -123.159302 
L 99.330207 -122.055651 
L 95.637002 -124.456537 
L 91.943797 -124.182044 
L 88.250592 -122.228827 
L 84.557388 -123.298597 
L 80.864183 -125.159374 
L 77.170978 -134.395923 
L 73.477773 -134.091169 
L 69.784568 -128.104976 
L 66.091364 -162.995065 
z
" style="stroke: #ff0000; stroke-opacity: 0.1"/>
    </defs>
    <g clip-path="url(#p061a65619e)">
     <use xlink:href="#mb7c411add2" x="0" y="345.6" style="fill: #ff0000; fill-opacity: 0.1; stroke: #ff0000; stroke-opacity: 0.1"/>
    </g>
   </g>
   <g id="matplotlib.axis_1">
    <g id="xtick_1">
     <g id="line2d_1">
      <defs>
       <path id="m5a69a01420" d="M 0 0 
L 0 3.5 
" style="stroke: #000000; stroke-width: 0.8"/>
      </defs>
      <g>
       <use xlink:href="#m5a69a01420" x="66.091364" y="303.64" style="stroke: #000000; stroke-width: 0.8"/>
      </g>
     </g>
     <g id="text_1">
      <!-- 0 -->
      <g transform="translate(62.910114 318.238437) scale(0.1 -0.1)">
       <defs>
        <path id="DejaVuSans-30" d="M 2034 4250 
Q 1547 4250 1301 3770 
Q 1056 3291 1056 2328 
Q 1056 1369 1301 889 
Q 1547 409 2034 409 
Q 2525 409 2770 889 
Q 3016 1369 3016 2328 
Q 3016 3291 2770 3770 
Q 2525 4250 2034 4250 
z
M 2034 4750 
Q 2819 4750 3233 4129 
Q 3647 3509 3647 2328 
Q 3647 1150 3233 529 
Q 2819 -91 2034 -91 
Q 1250 -91 836 529 
Q 422 1150 422 2328 
Q 422 3509 836 4129 
Q 1250 4750 2034 4750 
z
" transform="scale(0.015625)"/>
       </defs>
       <use xlink:href="#DejaVuSans-30"/>
      </g>
     </g>
    </g>
    <g id="xtick_2">
     <g id="line2d_2">
      <g>
       <use xlink:href="#m5a69a01420" x="139.955459" y="303.64" style="stroke: #000000; stroke-width: 0.8"/>
      </g>
     </g>
     <g id="text_2">
      <!-- 20 -->
      <g transform="translate(133.592959 318.238437) scale(0.1 -0.1)">
       <defs>
        <path id="DejaVuSans-32" d="M 1228 531 
L 3431 531 
L 3431 0 
L 469 0 
L 469 531 
Q 828 903 1448 1529 
Q 2069 2156 2228 2338 
Q 2531 2678 2651 2914 
Q 2772 3150 2772 3378 
Q 2772 3750 2511 3984 
Q 2250 4219 1831 4219 
Q 1534 4219 1204 4116 
Q 875 4013 500 3803 
L 500 4441 
Q 881 4594 1212 4672 
Q 1544 4750 1819 4750 
Q 2544 4750 2975 4387 
Q 3406 4025 3406 3419 
Q 3406 3131 3298 2873 
Q 3191 2616 2906 2266 
Q 2828 2175 2409 1742 
Q 1991 1309 1228 531 
z
" transform="scale(0.015625)"/>
       </defs>
       <use xlink:href="#DejaVuSans-32"/>
       <use xlink:href="#DejaVuSans-30" x="63.623047"/>
      </g>
     </g>
    </g>
    <g id="xtick_3">
     <g id="line2d_3">
      <g>
       <use xlink:href="#m5a69a01420" x="213.819555" y="303.64" style="stroke: #000000; stroke-width: 0.8"/>
      </g>
     </g>
     <g id="text_3">
      <!-- 40 -->
      <g transform="translate(207.457055 318.238437) scale(0.1 -0.1)">
       <defs>
        <path id="DejaVuSans-34" d="M 2419 4116 
L 825 1625 
L 2419 1625 
L 2419 4116 
z
M 2253 4666 
L 3047 4666 
L 3047 1625 
L 3713 1625 
L 3713 1100 
L 3047 1100 
L 3047 0 
L 2419 0 
L 2419 1100 
L 313 1100 
L 313 1709 
L 2253 4666 
z
" transform="scale(0.015625)"/>
       </defs>
       <use xlink:href="#DejaVuSans-34"/>
       <use xlink:href="#DejaVuSans-30" x="63.623047"/>
      </g>
     </g>
    </g>
    <g id="xtick_4">
     <g id="line2d_4">
      <g>
       <use xlink:href="#m5a69a01420" x="287.68365" y="303.64" style="stroke: #000000; stroke-width: 0.8"/>
      </g>
     </g>
     <g id="text_4">
      <!-- 60 -->
      <g transform="translate(281.32115 318.238437) scale(0.1 -0.1)">
       <defs>
        <path id="DejaVuSans-36" d="M 2113 2584 
Q 1688 2584 1439 2293 
Q 1191 2003 1191 1497 
Q 1191 994 1439 701 
Q 1688 409 2113 409 
Q 2538 409 2786 701 
Q 3034 994 3034 1497 
Q 3034 2003 2786 2293 
Q 2538 2584 2113 2584 
z
M 3366 4563 
L 3366 3988 
Q 3128 4100 2886 4159 
Q 2644 4219 2406 4219 
Q 1781 4219 1451 3797 
Q 1122 3375 1075 2522 
Q 1259 2794 1537 2939 
Q 1816 3084 2150 3084 
Q 2853 3084 3261 2657 
Q 3669 2231 3669 1497 
Q 3669 778 3244 343 
Q 2819 -91 2113 -91 
Q 1303 -91 875 529 
Q 447 1150 447 2328 
Q 447 3434 972 4092 
Q 1497 4750 2381 4750 
Q 2619 4750 2861 4703 
Q 3103 4656 3366 4563 
z
" transform="scale(0.015625)"/>
       </defs>
       <use xlink:href="#DejaVuSans-36"/>
       <use xlink:href="#DejaVuSans-30" x="63.623047"/>
      </g>
     </g>
    </g>
    <g id="xtick_5">
     <g id="line2d_5">
      <g>
       <use xlink:href="#m5a69a01420" x="361.547746" y="303.64" style="stroke: #000000; stroke-width: 0.8"/>
      </g>
     </g>
     <g id="text_5">
      <!-- 80 -->
      <g transform="translate(355.185246 318.238437) scale(0.1 -0.1)">
       <defs>
        <path id="DejaVuSans-38" d="M 2034 2216 
Q 1584 2216 1326 1975 
Q 1069 1734 1069 1313 
Q 1069 891 1326 650 
Q 1584 409 2034 409 
Q 2484 409 2743 651 
Q 3003 894 3003 1313 
Q 3003 1734 2745 1975 
Q 2488 2216 2034 2216 
z
M 1403 2484 
Q 997 2584 770 2862 
Q 544 3141 544 3541 
Q 544 4100 942 4425 
Q 1341 4750 2034 4750 
Q 2731 4750 3128 4425 
Q 3525 4100 3525 3541 
Q 3525 3141 3298 2862 
Q 3072 2584 2669 2484 
Q 3125 2378 3379 2068 
Q 3634 1759 3634 1313 
Q 3634 634 3220 271 
Q 2806 -91 2034 -91 
Q 1263 -91 848 271 
Q 434 634 434 1313 
Q 434 1759 690 2068 
Q 947 2378 1403 2484 
z
M 1172 3481 
Q 1172 3119 1398 2916 
Q 1625 2713 2034 2713 
Q 2441 2713 2670 2916 
Q 2900 3119 2900 3481 
Q 2900 3844 2670 4047 
Q 2441 4250 2034 4250 
Q 1625 4250 1398 4047 
Q 1172 3844 1172 3481 
z
" transform="scale(0.015625)"/>
       </defs>
       <use xlink:href="#DejaVuSans-38"/>
       <use xlink:href="#DejaVuSans-30" x="63.623047"/>
      </g>
     </g>
    </g>
    <g id="xtick_6">
     <g id="line2d_6">
      <g>
       <use xlink:href="#m5a69a01420" x="435.411841" y="303.64" style="stroke: #000000; stroke-width: 0.8"/>
      </g>
     </g>
     <g id="text_6">
      <!-- 100 -->
      <g transform="translate(425.868091 318.238437) scale(0.1 -0.1)">
       <defs>
        <path id="DejaVuSans-31" d="M 794 531 
L 1825 531 
L 1825 4091 
L 703 3866 
L 703 4441 
L 1819 4666 
L 2450 4666 
L 2450 531 
L 3481 531 
L 3481 0 
L 794 0 
L 794 531 
z
" transform="scale(0.015625)"/>
       </defs>
       <use xlink:href="#DejaVuSans-31"/>
       <use xlink:href="#DejaVuSans-30" x="63.623047"/>
       <use xlink:href="#DejaVuSans-30" x="127.246094"/>
      </g>
     </g>
    </g>
    <g id="text_7">
     <!-- Iteration -->
     <g transform="translate(227.696406 331.916562) scale(0.1 -0.1)">
      <defs>
       <path id="DejaVuSans-49" d="M 628 4666 
L 1259 4666 
L 1259 0 
L 628 0 
L 628 4666 
z
" transform="scale(0.015625)"/>
       <path id="DejaVuSans-74" d="M 1172 4494 
L 1172 3500 
L 2356 3500 
L 2356 3053 
L 1172 3053 
L 1172 1153 
Q 1172 725 1289 603 
Q 1406 481 1766 481 
L 2356 481 
L 2356 0 
L 1766 0 
Q 1100 0 847 248 
Q 594 497 594 1153 
L 594 3053 
L 172 3053 
L 172 3500 
L 594 3500 
L 594 4494 
L 1172 4494 
z
" transform="scale(0.015625)"/>
       <path id="DejaVuSans-65" d="M 3597 1894 
L 3597 1613 
L 953 1613 
Q 991 1019 1311 708 
Q 1631 397 2203 397 
Q 2534 397 2845 478 
Q 3156 559 3463 722 
L 3463 178 
Q 3153 47 2828 -22 
Q 2503 -91 2169 -91 
Q 1331 -91 842 396 
Q 353 884 353 1716 
Q 353 2575 817 3079 
Q 1281 3584 2069 3584 
Q 2775 3584 3186 3129 
Q 3597 2675 3597 1894 
z
M 3022 2063 
Q 3016 2534 2758 2815 
Q 2500 3097 2075 3097 
Q 1594 3097 1305 2825 
Q 1016 2553 972 2059 
L 3022 2063 
z
" transform="scale(0.015625)"/>
       <path id="DejaVuSans-72" d="M 2631 2963 
Q 2534 3019 2420 3045 
Q 2306 3072 2169 3072 
Q 1681 3072 1420 2755 
Q 1159 2438 1159 1844 
L 1159 0 
L 581 0 
L 581 3500 
L 1159 3500 
L 1159 2956 
Q 1341 3275 1631 3429 
Q 1922 3584 2338 3584 
Q 2397 3584 2469 3576 
Q 2541 3569 2628 3553 
L 2631 2963 
z
" transform="scale(0.015625)"/>
       <path id="DejaVuSans-61" d="M 2194 1759 
Q 1497 1759 1228 1600 
Q 959 1441 959 1056 
Q 959 750 1161 570 
Q 1363 391 1709 391 
Q 2188 391 2477 730 
Q 2766 1069 2766 1631 
L 2766 1759 
L 2194 1759 
z
M 3341 1997 
L 3341 0 
L 2766 0 
L 2766 531 
Q 2569 213 2275 61 
Q 1981 -91 1556 -91 
Q 1019 -91 701 211 
Q 384 513 384 1019 
Q 384 1609 779 1909 
Q 1175 2209 1959 2209 
L 2766 2209 
L 2766 2266 
Q 2766 2663 2505 2880 
Q 2244 3097 1772 3097 
Q 1472 3097 1187 3025 
Q 903 2953 641 2809 
L 641 3341 
Q 956 3463 1253 3523 
Q 1550 3584 1831 3584 
Q 2591 3584 2966 3190 
Q 3341 2797 3341 1997 
z
" transform="scale(0.015625)"/>
       <path id="DejaVuSans-69" d="M 603 3500 
L 1178 3500 
L 1178 0 
L 603 0 
L 603 3500 
z
M 603 4863 
L 1178 4863 
L 1178 4134 
L 603 4134 
L 603 4863 
z
" transform="scale(0.015625)"/>
       <path id="DejaVuSans-6f" d="M 1959 3097 
Q 1497 3097 1228 2736 
Q 959 2375 959 1747 
Q 959 1119 1226 758 
Q 1494 397 1959 397 
Q 2419 397 2687 759 
Q 2956 1122 2956 1747 
Q 2956 2369 2687 2733 
Q 2419 3097 1959 3097 
z
M 1959 3584 
Q 2709 3584 3137 3096 
Q 3566 2609 3566 1747 
Q 3566 888 3137 398 
Q 2709 -91 1959 -91 
Q 1206 -91 779 398 
Q 353 888 353 1747 
Q 353 2609 779 3096 
Q 1206 3584 1959 3584 
z
" transform="scale(0.015625)"/>
       <path id="DejaVuSans-6e" d="M 3513 2113 
L 3513 0 
L 2938 0 
L 2938 2094 
Q 2938 2591 2744 2837 
Q 2550 3084 2163 3084 
Q 1697 3084 1428 2787 
Q 1159 2491 1159 1978 
L 1159 0 
L 581 0 
L 581 3500 
L 1159 3500 
L 1159 2956 
Q 1366 3272 1645 3428 
Q 1925 3584 2291 3584 
Q 2894 3584 3203 3211 
Q 3513 2838 3513 2113 
z
" transform="scale(0.015625)"/>
      </defs>
      <use xlink:href="#DejaVuSans-49"/>
      <use xlink:href="#DejaVuSans-74" x="29.492188"/>
      <use xlink:href="#DejaVuSans-65" x="68.701172"/>
      <use xlink:href="#DejaVuSans-72" x="130.224609"/>
      <use xlink:href="#DejaVuSans-61" x="171.337891"/>
      <use xlink:href="#DejaVuSans-74" x="232.617188"/>
      <use xlink:href="#DejaVuSans-69" x="271.826172"/>
      <use xlink:href="#DejaVuSans-6f" x="299.609375"/>
      <use xlink:href="#DejaVuSans-6e" x="360.791016"/>
     </g>
    </g>
   </g>
   <g id="matplotlib.axis_2">
    <g id="ytick_1">
     <g id="line2d_7">
      <defs>
       <path id="m84dcedc80d" d="M 0 0 
L -3.5 0 
" style="stroke: #000000; stroke-width: 0.8"/>
      </defs>
      <g>
       <use xlink:href="#m84dcedc80d" x="47.81" y="290.994545" style="stroke: #000000; stroke-width: 0.8"/>
      </g>
     </g>
     <g id="text_8">
      <!-- 0.3 -->
      <g transform="translate(24.906875 294.793764) scale(0.1 -0.1)">
       <defs>
        <path id="DejaVuSans-2e" d="M 684 794 
L 1344 794 
L 1344 0 
L 684 0 
L 684 794 
z
" transform="scale(0.015625)"/>
        <path id="DejaVuSans-33" d="M 2597 2516 
Q 3050 2419 3304 2112 
Q 3559 1806 3559 1356 
Q 3559 666 3084 287 
Q 2609 -91 1734 -91 
Q 1441 -91 1130 -33 
Q 819 25 488 141 
L 488 750 
Q 750 597 1062 519 
Q 1375 441 1716 441 
Q 2309 441 2620 675 
Q 2931 909 2931 1356 
Q 2931 1769 2642 2001 
Q 2353 2234 1838 2234 
L 1294 2234 
L 1294 2753 
L 1863 2753 
Q 2328 2753 2575 2939 
Q 2822 3125 2822 3475 
Q 2822 3834 2567 4026 
Q 2313 4219 1838 4219 
Q 1578 4219 1281 4162 
Q 984 4106 628 3988 
L 628 4550 
Q 988 4650 1302 4700 
Q 1616 4750 1894 4750 
Q 2613 4750 3031 4423 
Q 3450 4097 3450 3541 
Q 3450 3153 3228 2886 
Q 3006 2619 2597 2516 
z
" transform="scale(0.015625)"/>
       </defs>
       <use xlink:href="#DejaVuSans-30"/>
       <use xlink:href="#DejaVuSans-2e" x="63.623047"/>
       <use xlink:href="#DejaVuSans-33" x="95.410156"/>
      </g>
     </g>
    </g>
    <g id="ytick_2">
     <g id="line2d_8">
      <g>
       <use xlink:href="#m84dcedc80d" x="47.81" y="254.864675" style="stroke: #000000; stroke-width: 0.8"/>
      </g>
     </g>
     <g id="text_9">
      <!-- 0.4 -->
      <g transform="translate(24.906875 258.663894) scale(0.1 -0.1)">
       <use xlink:href="#DejaVuSans-30"/>
       <use xlink:href="#DejaVuSans-2e" x="63.623047"/>
       <use xlink:href="#DejaVuSans-34" x="95.410156"/>
      </g>
     </g>
    </g>
    <g id="ytick_3">
     <g id="line2d_9">
      <g>
       <use xlink:href="#m84dcedc80d" x="47.81" y="218.734805" style="stroke: #000000; stroke-width: 0.8"/>
      </g>
     </g>
     <g id="text_10">
      <!-- 0.5 -->
      <g transform="translate(24.906875 222.534024) scale(0.1 -0.1)">
       <defs>
        <path id="DejaVuSans-35" d="M 691 4666 
L 3169 4666 
L 3169 4134 
L 1269 4134 
L 1269 2991 
Q 1406 3038 1543 3061 
Q 1681 3084 1819 3084 
Q 2600 3084 3056 2656 
Q 3513 2228 3513 1497 
Q 3513 744 3044 326 
Q 2575 -91 1722 -91 
Q 1428 -91 1123 -41 
Q 819 9 494 109 
L 494 744 
Q 775 591 1075 516 
Q 1375 441 1709 441 
Q 2250 441 2565 725 
Q 2881 1009 2881 1497 
Q 2881 1984 2565 2268 
Q 2250 2553 1709 2553 
Q 1456 2553 1204 2497 
Q 953 2441 691 2322 
L 691 4666 
z
" transform="scale(0.015625)"/>
       </defs>
       <use xlink:href="#DejaVuSans-30"/>
       <use xlink:href="#DejaVuSans-2e" x="63.623047"/>
       <use xlink:href="#DejaVuSans-35" x="95.410156"/>
      </g>
     </g>
    </g>
    <g id="ytick_4">
     <g id="line2d_10">
      <g>
       <use xlink:href="#m84dcedc80d" x="47.81" y="182.604935" style="stroke: #000000; stroke-width: 0.8"/>
      </g>
     </g>
     <g id="text_11">
      <!-- 0.6 -->
      <g transform="translate(24.906875 186.404154) scale(0.1 -0.1)">
       <use xlink:href="#DejaVuSans-30"/>
       <use xlink:href="#DejaVuSans-2e" x="63.623047"/>
       <use xlink:href="#DejaVuSans-36" x="95.410156"/>
      </g>
     </g>
    </g>
    <g id="ytick_5">
     <g id="line2d_11">
      <g>
       <use xlink:href="#m84dcedc80d" x="47.81" y="146.475065" style="stroke: #000000; stroke-width: 0.8"/>
      </g>
     </g>
     <g id="text_12">
      <!-- 0.7 -->
      <g transform="translate(24.906875 150.274284) scale(0.1 -0.1)">
       <defs>
        <path id="DejaVuSans-37" d="M 525 4666 
L 3525 4666 
L 3525 4397 
L 1831 0 
L 1172 0 
L 2766 4134 
L 525 4134 
L 525 4666 
z
" transform="scale(0.015625)"/>
       </defs>
       <use xlink:href="#DejaVuSans-30"/>
       <use xlink:href="#DejaVuSans-2e" x="63.623047"/>
       <use xlink:href="#DejaVuSans-37" x="95.410156"/>
      </g>
     </g>
    </g>
    <g id="ytick_6">
     <g id="line2d_12">
      <g>
       <use xlink:href="#m84dcedc80d" x="47.81" y="110.345195" style="stroke: #000000; stroke-width: 0.8"/>
      </g>
     </g>
     <g id="text_13">
      <!-- 0.8 -->
      <g transform="translate(24.906875 114.144414) scale(0.1 -0.1)">
       <use xlink:href="#DejaVuSans-30"/>
       <use xlink:href="#DejaVuSans-2e" x="63.623047"/>
       <use xlink:href="#DejaVuSans-38" x="95.410156"/>
      </g>
     </g>
    </g>
    <g id="ytick_7">
     <g id="line2d_13">
      <g>
       <use xlink:href="#m84dcedc80d" x="47.81" y="74.215325" style="stroke: #000000; stroke-width: 0.8"/>
      </g>
     </g>
     <g id="text_14">
      <!-- 0.9 -->
      <g transform="translate(24.906875 78.014543) scale(0.1 -0.1)">
       <defs>
        <path id="DejaVuSans-39" d="M 703 97 
L 703 672 
Q 941 559 1184 500 
Q 1428 441 1663 441 
Q 2288 441 2617 861 
Q 2947 1281 2994 2138 
Q 2813 1869 2534 1725 
Q 2256 1581 1919 1581 
Q 1219 1581 811 2004 
Q 403 2428 403 3163 
Q 403 3881 828 4315 
Q 1253 4750 1959 4750 
Q 2769 4750 3195 4129 
Q 3622 3509 3622 2328 
Q 3622 1225 3098 567 
Q 2575 -91 1691 -91 
Q 1453 -91 1209 -44 
Q 966 3 703 97 
z
M 1959 2075 
Q 2384 2075 2632 2365 
Q 2881 2656 2881 3163 
Q 2881 3666 2632 3958 
Q 2384 4250 1959 4250 
Q 1534 4250 1286 3958 
Q 1038 3666 1038 3163 
Q 1038 2656 1286 2365 
Q 1534 2075 1959 2075 
z
" transform="scale(0.015625)"/>
       </defs>
       <use xlink:href="#DejaVuSans-30"/>
       <use xlink:href="#DejaVuSans-2e" x="63.623047"/>
       <use xlink:href="#DejaVuSans-39" x="95.410156"/>
      </g>
     </g>
    </g>
    <g id="ytick_8">
     <g id="line2d_14">
      <g>
       <use xlink:href="#m84dcedc80d" x="47.81" y="38.085455" style="stroke: #000000; stroke-width: 0.8"/>
      </g>
     </g>
     <g id="text_15">
      <!-- 1.0 -->
      <g transform="translate(24.906875 41.884673) scale(0.1 -0.1)">
       <use xlink:href="#DejaVuSans-31"/>
       <use xlink:href="#DejaVuSans-2e" x="63.623047"/>
       <use xlink:href="#DejaVuSans-30" x="95.410156"/>
      </g>
     </g>
    </g>
    <g id="text_16">
     <!-- Avg action -->
     <g transform="translate(18.827187 190.779844) rotate(-90) scale(0.1 -0.1)">
      <defs>
       <path id="DejaVuSans-41" d="M 2188 4044 
L 1331 1722 
L 3047 1722 
L 2188 4044 
z
M 1831 4666 
L 2547 4666 
L 4325 0 
L 3669 0 
L 3244 1197 
L 1141 1197 
L 716 0 
L 50 0 
L 1831 4666 
z
" transform="scale(0.015625)"/>
       <path id="DejaVuSans-76" d="M 191 3500 
L 800 3500 
L 1894 563 
L 2988 3500 
L 3597 3500 
L 2284 0 
L 1503 0 
L 191 3500 
z
" transform="scale(0.015625)"/>
       <path id="DejaVuSans-67" d="M 2906 1791 
Q 2906 2416 2648 2759 
Q 2391 3103 1925 3103 
Q 1463 3103 1205 2759 
Q 947 2416 947 1791 
Q 947 1169 1205 825 
Q 1463 481 1925 481 
Q 2391 481 2648 825 
Q 2906 1169 2906 1791 
z
M 3481 434 
Q 3481 -459 3084 -895 
Q 2688 -1331 1869 -1331 
Q 1566 -1331 1297 -1286 
Q 1028 -1241 775 -1147 
L 775 -588 
Q 1028 -725 1275 -790 
Q 1522 -856 1778 -856 
Q 2344 -856 2625 -561 
Q 2906 -266 2906 331 
L 2906 616 
Q 2728 306 2450 153 
Q 2172 0 1784 0 
Q 1141 0 747 490 
Q 353 981 353 1791 
Q 353 2603 747 3093 
Q 1141 3584 1784 3584 
Q 2172 3584 2450 3431 
Q 2728 3278 2906 2969 
L 2906 3500 
L 3481 3500 
L 3481 434 
z
" transform="scale(0.015625)"/>
       <path id="DejaVuSans-20" transform="scale(0.015625)"/>
       <path id="DejaVuSans-63" d="M 3122 3366 
L 3122 2828 
Q 2878 2963 2633 3030 
Q 2388 3097 2138 3097 
Q 1578 3097 1268 2742 
Q 959 2388 959 1747 
Q 959 1106 1268 751 
Q 1578 397 2138 397 
Q 2388 397 2633 464 
Q 2878 531 3122 666 
L 3122 134 
Q 2881 22 2623 -34 
Q 2366 -91 2075 -91 
Q 1284 -91 818 406 
Q 353 903 353 1747 
Q 353 2603 823 3093 
Q 1294 3584 2113 3584 
Q 2378 3584 2631 3529 
Q 2884 3475 3122 3366 
z
" transform="scale(0.015625)"/>
      </defs>
      <use xlink:href="#DejaVuSans-41"/>
      <use xlink:href="#DejaVuSans-76" x="62.533203"/>
      <use xlink:href="#DejaVuSans-67" x="121.712891"/>
      <use xlink:href="#DejaVuSans-20" x="185.189453"/>
      <use xlink:href="#DejaVuSans-61" x="216.976562"/>
      <use xlink:href="#DejaVuSans-63" x="278.255859"/>
      <use xlink:href="#DejaVuSans-74" x="333.236328"/>
      <use xlink:href="#DejaVuSans-69" x="372.445312"/>
      <use xlink:href="#DejaVuSans-6f" x="400.228516"/>
      <use xlink:href="#DejaVuSans-6e" x="461.410156"/>
     </g>
    </g>
   </g>
   <g id="line2d_15">
    <path d="M 66.091364 132.023117 
L 69.784568 124.797143 
L 73.477773 197.056883 
L 77.170978 146.475065 
L 80.864183 204.282857 
L 84.557388 182.604935 
L 88.250592 218.734805 
L 91.943797 189.830909 
L 95.637002 204.282857 
L 99.330207 182.604935 
L 103.023411 175.378961 
L 106.716616 189.830909 
L 110.409821 189.830909 
L 114.103026 197.056883 
L 117.79623 204.282857 
L 121.489435 182.604935 
L 125.18264 204.282857 
L 128.875845 211.508831 
L 132.56905 233.186753 
L 136.262254 225.960779 
L 139.955459 189.830909 
L 143.648664 204.282857 
L 147.341869 189.830909 
L 151.035073 197.056883 
L 154.728278 197.056883 
L 158.421483 204.282857 
L 162.114688 189.830909 
L 165.807893 211.508831 
L 169.501097 197.056883 
L 173.194302 218.734805 
L 176.887507 225.960779 
L 180.580712 218.734805 
L 184.273916 204.282857 
L 187.967121 168.152987 
L 191.660326 182.604935 
L 195.353531 153.701039 
L 199.046736 168.152987 
L 202.73994 153.701039 
L 206.433145 160.927013 
L 210.12635 132.023117 
L 213.819555 139.249091 
L 217.512759 132.023117 
L 221.205964 124.797143 
L 224.899169 110.345195 
L 228.592374 110.345195 
L 232.285579 95.893247 
L 235.978783 95.893247 
L 239.671988 95.893247 
L 243.365193 110.345195 
L 247.058398 95.893247 
L 250.751602 88.667273 
L 254.444807 66.989351 
L 258.138012 88.667273 
L 261.831217 88.667273 
L 265.524421 74.215325 
L 269.217626 74.215325 
L 272.910831 88.667273 
L 276.604036 74.215325 
L 280.297241 59.763377 
L 283.990445 52.537403 
L 287.68365 66.989351 
L 291.376855 66.989351 
L 295.07006 74.215325 
L 298.763264 45.311429 
L 302.456469 74.215325 
L 306.149674 52.537403 
L 309.842879 52.537403 
L 313.536084 59.763377 
L 317.229288 52.537403 
L 320.922493 38.085455 
L 324.615698 45.311429 
L 328.308903 45.311429 
L 332.002107 38.085455 
L 335.695312 38.085455 
L 339.388517 38.085455 
L 343.081722 45.311429 
L 346.774927 38.085455 
L 350.468131 38.085455 
L 354.161336 38.085455 
L 357.854541 38.085455 
L 361.547746 38.085455 
L 365.24095 38.085455 
L 368.934155 38.085455 
L 372.62736 38.085455 
L 376.320565 38.085455 
L 380.01377 38.085455 
L 383.706974 38.085455 
L 387.400179 45.311429 
L 391.093384 45.311429 
L 394.786589 38.085455 
L 398.479793 38.085455 
L 402.172998 38.085455 
L 405.866203 38.085455 
L 409.559408 38.085455 
L 413.252612 38.085455 
L 416.945817 59.763377 
L 420.639022 45.311429 
L 424.332227 38.085455 
L 428.025432 45.311429 
L 431.718636 45.311429 
" clip-path="url(#p061a65619e)" style="fill: none; stroke: #0000ff; stroke-linecap: square"/>
    <defs>
     <path id="md787fd5994" d="M -0.49999 0.49999 
L 0.50001 0.49999 
L 0.50001 -0.50001 
L -0.49999 -0.50001 
z
"/>
    </defs>
    <g clip-path="url(#p061a65619e)">
     <use xlink:href="#md787fd5994" x="66.091364" y="132.023117" style="fill: #0000ff"/>
     <use xlink:href="#md787fd5994" x="69.784568" y="124.797143" style="fill: #0000ff"/>
     <use xlink:href="#md787fd5994" x="73.477773" y="197.056883" style="fill: #0000ff"/>
     <use xlink:href="#md787fd5994" x="77.170978" y="146.475065" style="fill: #0000ff"/>
     <use xlink:href="#md787fd5994" x="80.864183" y="204.282857" style="fill: #0000ff"/>
     <use xlink:href="#md787fd5994" x="84.557388" y="182.604935" style="fill: #0000ff"/>
     <use xlink:href="#md787fd5994" x="88.250592" y="218.734805" style="fill: #0000ff"/>
     <use xlink:href="#md787fd5994" x="91.943797" y="189.830909" style="fill: #0000ff"/>
     <use xlink:href="#md787fd5994" x="95.637002" y="204.282857" style="fill: #0000ff"/>
     <use xlink:href="#md787fd5994" x="99.330207" y="182.604935" style="fill: #0000ff"/>
     <use xlink:href="#md787fd5994" x="103.023411" y="175.378961" style="fill: #0000ff"/>
     <use xlink:href="#md787fd5994" x="106.716616" y="189.830909" style="fill: #0000ff"/>
     <use xlink:href="#md787fd5994" x="110.409821" y="189.830909" style="fill: #0000ff"/>
     <use xlink:href="#md787fd5994" x="114.103026" y="197.056883" style="fill: #0000ff"/>
     <use xlink:href="#md787fd5994" x="117.79623" y="204.282857" style="fill: #0000ff"/>
     <use xlink:href="#md787fd5994" x="121.489435" y="182.604935" style="fill: #0000ff"/>
     <use xlink:href="#md787fd5994" x="125.18264" y="204.282857" style="fill: #0000ff"/>
     <use xlink:href="#md787fd5994" x="128.875845" y="211.508831" style="fill: #0000ff"/>
     <use xlink:href="#md787fd5994" x="132.56905" y="233.186753" style="fill: #0000ff"/>
     <use xlink:href="#md787fd5994" x="136.262254" y="225.960779" style="fill: #0000ff"/>
     <use xlink:href="#md787fd5994" x="139.955459" y="189.830909" style="fill: #0000ff"/>
     <use xlink:href="#md787fd5994" x="143.648664" y="204.282857" style="fill: #0000ff"/>
     <use xlink:href="#md787fd5994" x="147.341869" y="189.830909" style="fill: #0000ff"/>
     <use xlink:href="#md787fd5994" x="151.035073" y="197.056883" style="fill: #0000ff"/>
     <use xlink:href="#md787fd5994" x="154.728278" y="197.056883" style="fill: #0000ff"/>
     <use xlink:href="#md787fd5994" x="158.421483" y="204.282857" style="fill: #0000ff"/>
     <use xlink:href="#md787fd5994" x="162.114688" y="189.830909" style="fill: #0000ff"/>
     <use xlink:href="#md787fd5994" x="165.807893" y="211.508831" style="fill: #0000ff"/>
     <use xlink:href="#md787fd5994" x="169.501097" y="197.056883" style="fill: #0000ff"/>
     <use xlink:href="#md787fd5994" x="173.194302" y="218.734805" style="fill: #0000ff"/>
     <use xlink:href="#md787fd5994" x="176.887507" y="225.960779" style="fill: #0000ff"/>
     <use xlink:href="#md787fd5994" x="180.580712" y="218.734805" style="fill: #0000ff"/>
     <use xlink:href="#md787fd5994" x="184.273916" y="204.282857" style="fill: #0000ff"/>
     <use xlink:href="#md787fd5994" x="187.967121" y="168.152987" style="fill: #0000ff"/>
     <use xlink:href="#md787fd5994" x="191.660326" y="182.604935" style="fill: #0000ff"/>
     <use xlink:href="#md787fd5994" x="195.353531" y="153.701039" style="fill: #0000ff"/>
     <use xlink:href="#md787fd5994" x="199.046736" y="168.152987" style="fill: #0000ff"/>
     <use xlink:href="#md787fd5994" x="202.73994" y="153.701039" style="fill: #0000ff"/>
     <use xlink:href="#md787fd5994" x="206.433145" y="160.927013" style="fill: #0000ff"/>
     <use xlink:href="#md787fd5994" x="210.12635" y="132.023117" style="fill: #0000ff"/>
     <use xlink:href="#md787fd5994" x="213.819555" y="139.249091" style="fill: #0000ff"/>
     <use xlink:href="#md787fd5994" x="217.512759" y="132.023117" style="fill: #0000ff"/>
     <use xlink:href="#md787fd5994" x="221.205964" y="124.797143" style="fill: #0000ff"/>
     <use xlink:href="#md787fd5994" x="224.899169" y="110.345195" style="fill: #0000ff"/>
     <use xlink:href="#md787fd5994" x="228.592374" y="110.345195" style="fill: #0000ff"/>
     <use xlink:href="#md787fd5994" x="232.285579" y="95.893247" style="fill: #0000ff"/>
     <use xlink:href="#md787fd5994" x="235.978783" y="95.893247" style="fill: #0000ff"/>
     <use xlink:href="#md787fd5994" x="239.671988" y="95.893247" style="fill: #0000ff"/>
     <use xlink:href="#md787fd5994" x="243.365193" y="110.345195" style="fill: #0000ff"/>
     <use xlink:href="#md787fd5994" x="247.058398" y="95.893247" style="fill: #0000ff"/>
     <use xlink:href="#md787fd5994" x="250.751602" y="88.667273" style="fill: #0000ff"/>
     <use xlink:href="#md787fd5994" x="254.444807" y="66.989351" style="fill: #0000ff"/>
     <use xlink:href="#md787fd5994" x="258.138012" y="88.667273" style="fill: #0000ff"/>
     <use xlink:href="#md787fd5994" x="261.831217" y="88.667273" style="fill: #0000ff"/>
     <use xlink:href="#md787fd5994" x="265.524421" y="74.215325" style="fill: #0000ff"/>
     <use xlink:href="#md787fd5994" x="269.217626" y="74.215325" style="fill: #0000ff"/>
     <use xlink:href="#md787fd5994" x="272.910831" y="88.667273" style="fill: #0000ff"/>
     <use xlink:href="#md787fd5994" x="276.604036" y="74.215325" style="fill: #0000ff"/>
     <use xlink:href="#md787fd5994" x="280.297241" y="59.763377" style="fill: #0000ff"/>
     <use xlink:href="#md787fd5994" x="283.990445" y="52.537403" style="fill: #0000ff"/>
     <use xlink:href="#md787fd5994" x="287.68365" y="66.989351" style="fill: #0000ff"/>
     <use xlink:href="#md787fd5994" x="291.376855" y="66.989351" style="fill: #0000ff"/>
     <use xlink:href="#md787fd5994" x="295.07006" y="74.215325" style="fill: #0000ff"/>
     <use xlink:href="#md787fd5994" x="298.763264" y="45.311429" style="fill: #0000ff"/>
     <use xlink:href="#md787fd5994" x="302.456469" y="74.215325" style="fill: #0000ff"/>
     <use xlink:href="#md787fd5994" x="306.149674" y="52.537403" style="fill: #0000ff"/>
     <use xlink:href="#md787fd5994" x="309.842879" y="52.537403" style="fill: #0000ff"/>
     <use xlink:href="#md787fd5994" x="313.536084" y="59.763377" style="fill: #0000ff"/>
     <use xlink:href="#md787fd5994" x="317.229288" y="52.537403" style="fill: #0000ff"/>
     <use xlink:href="#md787fd5994" x="320.922493" y="38.085455" style="fill: #0000ff"/>
     <use xlink:href="#md787fd5994" x="324.615698" y="45.311429" style="fill: #0000ff"/>
     <use xlink:href="#md787fd5994" x="328.308903" y="45.311429" style="fill: #0000ff"/>
     <use xlink:href="#md787fd5994" x="332.002107" y="38.085455" style="fill: #0000ff"/>
     <use xlink:href="#md787fd5994" x="335.695312" y="38.085455" style="fill: #0000ff"/>
     <use xlink:href="#md787fd5994" x="339.388517" y="38.085455" style="fill: #0000ff"/>
     <use xlink:href="#md787fd5994" x="343.081722" y="45.311429" style="fill: #0000ff"/>
     <use xlink:href="#md787fd5994" x="346.774927" y="38.085455" style="fill: #0000ff"/>
     <use xlink:href="#md787fd5994" x="350.468131" y="38.085455" style="fill: #0000ff"/>
     <use xlink:href="#md787fd5994" x="354.161336" y="38.085455" style="fill: #0000ff"/>
     <use xlink:href="#md787fd5994" x="357.854541" y="38.085455" style="fill: #0000ff"/>
     <use xlink:href="#md787fd5994" x="361.547746" y="38.085455" style="fill: #0000ff"/>
     <use xlink:href="#md787fd5994" x="365.24095" y="38.085455" style="fill: #0000ff"/>
     <use xlink:href="#md787fd5994" x="368.934155" y="38.085455" style="fill: #0000ff"/>
     <use xlink:href="#md787fd5994" x="372.62736" y="38.085455" style="fill: #0000ff"/>
     <use xlink:href="#md787fd5994" x="376.320565" y="38.085455" style="fill: #0000ff"/>
     <use xlink:href="#md787fd5994" x="380.01377" y="38.085455" style="fill: #0000ff"/>
     <use xlink:href="#md787fd5994" x="383.706974" y="38.085455" style="fill: #0000ff"/>
     <use xlink:href="#md787fd5994" x="387.400179" y="45.311429" style="fill: #0000ff"/>
     <use xlink:href="#md787fd5994" x="391.093384" y="45.311429" style="fill: #0000ff"/>
     <use xlink:href="#md787fd5994" x="394.786589" y="38.085455" style="fill: #0000ff"/>
     <use xlink:href="#md787fd5994" x="398.479793" y="38.085455" style="fill: #0000ff"/>
     <use xlink:href="#md787fd5994" x="402.172998" y="38.085455" style="fill: #0000ff"/>
     <use xlink:href="#md787fd5994" x="405.866203" y="38.085455" style="fill: #0000ff"/>
     <use xlink:href="#md787fd5994" x="409.559408" y="38.085455" style="fill: #0000ff"/>
     <use xlink:href="#md787fd5994" x="413.252612" y="38.085455" style="fill: #0000ff"/>
     <use xlink:href="#md787fd5994" x="416.945817" y="59.763377" style="fill: #0000ff"/>
     <use xlink:href="#md787fd5994" x="420.639022" y="45.311429" style="fill: #0000ff"/>
     <use xlink:href="#md787fd5994" x="424.332227" y="38.085455" style="fill: #0000ff"/>
     <use xlink:href="#md787fd5994" x="428.025432" y="45.311429" style="fill: #0000ff"/>
     <use xlink:href="#md787fd5994" x="431.718636" y="45.311429" style="fill: #0000ff"/>
    </g>
   </g>
   <g id="line2d_16">
    <path d="M 66.091364 132.023117 
L 69.784568 128.41013 
L 73.477773 151.292381 
L 77.170978 150.088052 
L 80.864183 160.927013 
L 84.557388 164.54 
L 88.250592 172.282115 
L 91.943797 174.475714 
L 95.637002 177.787619 
L 99.330207 178.269351 
L 103.023411 178.006588 
L 106.716616 178.991948 
L 110.409821 179.825714 
L 114.103026 181.056512 
L 117.79623 182.604935 
L 121.489435 182.604935 
L 125.18264 183.880107 
L 128.875845 185.415036 
L 132.56905 187.929337 
L 136.262254 189.830909 
L 139.955459 189.830909 
L 143.648664 190.487816 
L 147.341869 190.459255 
L 151.035073 190.734156 
L 154.728278 190.987065 
L 158.421483 191.498442 
L 162.114688 191.436681 
L 165.807893 192.153544 
L 169.501097 192.322624 
L 173.194302 193.20303 
L 176.887507 194.259732 
L 180.580712 195.024578 
L 184.273916 195.305132 
L 187.967121 194.506539 
L 191.660326 194.166494 
L 195.353531 193.042453 
L 199.046736 192.369765 
L 202.73994 191.352167 
L 206.433145 190.572035 
L 210.12635 189.108312 
L 213.819555 187.892233 
L 217.512759 186.562016 
L 221.205964 185.125624 
L 224.899169 183.426068 
L 228.592374 181.802049 
L 232.285579 179.934466 
L 235.978783 178.146355 
L 239.671988 176.432749 
L 243.365193 175.084023 
L 247.058398 173.500208 
L 250.751602 171.836817 
L 254.444807 169.820519 
L 258.138012 168.289326 
L 261.831217 166.814844 
L 265.524421 165.131216 
L 269.217626 163.507718 
L 272.910831 162.194728 
L 276.604036 160.677841 
L 280.297241 158.967427 
L 283.990445 157.193593 
L 287.68365 155.714835 
L 291.376855 154.283779 
L 295.07006 153.012851 
L 298.763264 151.330016 
L 302.456469 150.143636 
L 306.149674 148.664754 
L 309.842879 147.230017 
L 313.536084 145.943743 
L 317.229288 144.590028 
L 320.922493 143.068534 
L 324.615698 141.691674 
L 328.308903 140.353059 
L 332.002107 138.952133 
L 335.695312 137.58907 
L 339.388517 136.262355 
L 343.081722 135.065632 
L 346.774927 133.806149 
L 350.468131 132.578961 
L 354.161336 131.382841 
L 357.854541 130.216623 
L 361.547746 129.079202 
L 365.24095 127.969522 
L 368.934155 126.886581 
L 372.62736 125.829425 
L 376.320565 124.797143 
L 380.01377 123.788867 
L 383.706974 122.803771 
L 387.400179 121.923176 
L 391.093384 121.06237 
L 394.786589 120.140404 
L 398.479793 119.238701 
L 402.172998 118.356601 
L 405.866203 117.49347 
L 409.559408 116.648704 
L 413.252612 115.821722 
L 416.945817 115.237781 
L 420.639022 114.516891 
L 424.332227 113.736979 
L 428.025432 113.045811 
L 431.718636 112.368468 
" clip-path="url(#p061a65619e)" style="fill: none; stroke: #0000ff; stroke-opacity: 0.5; stroke-width: 0.5; stroke-linecap: square"/>
    <defs>
     <path id="mc349a1fd3b" d="M -0.49999 0.49999 
L 0.50001 0.49999 
L 0.50001 -0.50001 
L -0.49999 -0.50001 
z
"/>
    </defs>
    <g clip-path="url(#p061a65619e)">
     <use xlink:href="#mc349a1fd3b" x="66.091364" y="132.023117" style="fill: #0000ff; fill-opacity: 0.5"/>
     <use xlink:href="#mc349a1fd3b" x="69.784568" y="128.41013" style="fill: #0000ff; fill-opacity: 0.5"/>
     <use xlink:href="#mc349a1fd3b" x="73.477773" y="151.292381" style="fill: #0000ff; fill-opacity: 0.5"/>
     <use xlink:href="#mc349a1fd3b" x="77.170978" y="150.088052" style="fill: #0000ff; fill-opacity: 0.5"/>
     <use xlink:href="#mc349a1fd3b" x="80.864183" y="160.927013" style="fill: #0000ff; fill-opacity: 0.5"/>
     <use xlink:href="#mc349a1fd3b" x="84.557388" y="164.54" style="fill: #0000ff; fill-opacity: 0.5"/>
     <use xlink:href="#mc349a1fd3b" x="88.250592" y="172.282115" style="fill: #0000ff; fill-opacity: 0.5"/>
     <use xlink:href="#mc349a1fd3b" x="91.943797" y="174.475714" style="fill: #0000ff; fill-opacity: 0.5"/>
     <use xlink:href="#mc349a1fd3b" x="95.637002" y="177.787619" style="fill: #0000ff; fill-opacity: 0.5"/>
     <use xlink:href="#mc349a1fd3b" x="99.330207" y="178.269351" style="fill: #0000ff; fill-opacity: 0.5"/>
     <use xlink:href="#mc349a1fd3b" x="103.023411" y="178.006588" style="fill: #0000ff; fill-opacity: 0.5"/>
     <use xlink:href="#mc349a1fd3b" x="106.716616" y="178.991948" style="fill: #0000ff; fill-opacity: 0.5"/>
     <use xlink:href="#mc349a1fd3b" x="110.409821" y="179.825714" style="fill: #0000ff; fill-opacity: 0.5"/>
     <use xlink:href="#mc349a1fd3b" x="114.103026" y="181.056512" style="fill: #0000ff; fill-opacity: 0.5"/>
     <use xlink:href="#mc349a1fd3b" x="117.79623" y="182.604935" style="fill: #0000ff; fill-opacity: 0.5"/>
     <use xlink:href="#mc349a1fd3b" x="121.489435" y="182.604935" style="fill: #0000ff; fill-opacity: 0.5"/>
     <use xlink:href="#mc349a1fd3b" x="125.18264" y="183.880107" style="fill: #0000ff; fill-opacity: 0.5"/>
     <use xlink:href="#mc349a1fd3b" x="128.875845" y="185.415036" style="fill: #0000ff; fill-opacity: 0.5"/>
     <use xlink:href="#mc349a1fd3b" x="132.56905" y="187.929337" style="fill: #0000ff; fill-opacity: 0.5"/>
     <use xlink:href="#mc349a1fd3b" x="136.262254" y="189.830909" style="fill: #0000ff; fill-opacity: 0.5"/>
     <use xlink:href="#mc349a1fd3b" x="139.955459" y="189.830909" style="fill: #0000ff; fill-opacity: 0.5"/>
     <use xlink:href="#mc349a1fd3b" x="143.648664" y="190.487816" style="fill: #0000ff; fill-opacity: 0.5"/>
     <use xlink:href="#mc349a1fd3b" x="147.341869" y="190.459255" style="fill: #0000ff; fill-opacity: 0.5"/>
     <use xlink:href="#mc349a1fd3b" x="151.035073" y="190.734156" style="fill: #0000ff; fill-opacity: 0.5"/>
     <use xlink:href="#mc349a1fd3b" x="154.728278" y="190.987065" style="fill: #0000ff; fill-opacity: 0.5"/>
     <use xlink:href="#mc349a1fd3b" x="158.421483" y="191.498442" style="fill: #0000ff; fill-opacity: 0.5"/>
     <use xlink:href="#mc349a1fd3b" x="162.114688" y="191.436681" style="fill: #0000ff; fill-opacity: 0.5"/>
     <use xlink:href="#mc349a1fd3b" x="165.807893" y="192.153544" style="fill: #0000ff; fill-opacity: 0.5"/>
     <use xlink:href="#mc349a1fd3b" x="169.501097" y="192.322624" style="fill: #0000ff; fill-opacity: 0.5"/>
     <use xlink:href="#mc349a1fd3b" x="173.194302" y="193.20303" style="fill: #0000ff; fill-opacity: 0.5"/>
     <use xlink:href="#mc349a1fd3b" x="176.887507" y="194.259732" style="fill: #0000ff; fill-opacity: 0.5"/>
     <use xlink:href="#mc349a1fd3b" x="180.580712" y="195.024578" style="fill: #0000ff; fill-opacity: 0.5"/>
     <use xlink:href="#mc349a1fd3b" x="184.273916" y="195.305132" style="fill: #0000ff; fill-opacity: 0.5"/>
     <use xlink:href="#mc349a1fd3b" x="187.967121" y="194.506539" style="fill: #0000ff; fill-opacity: 0.5"/>
     <use xlink:href="#mc349a1fd3b" x="191.660326" y="194.166494" style="fill: #0000ff; fill-opacity: 0.5"/>
     <use xlink:href="#mc349a1fd3b" x="195.353531" y="193.042453" style="fill: #0000ff; fill-opacity: 0.5"/>
     <use xlink:href="#mc349a1fd3b" x="199.046736" y="192.369765" style="fill: #0000ff; fill-opacity: 0.5"/>
     <use xlink:href="#mc349a1fd3b" x="202.73994" y="191.352167" style="fill: #0000ff; fill-opacity: 0.5"/>
     <use xlink:href="#mc349a1fd3b" x="206.433145" y="190.572035" style="fill: #0000ff; fill-opacity: 0.5"/>
     <use xlink:href="#mc349a1fd3b" x="210.12635" y="189.108312" style="fill: #0000ff; fill-opacity: 0.5"/>
     <use xlink:href="#mc349a1fd3b" x="213.819555" y="187.892233" style="fill: #0000ff; fill-opacity: 0.5"/>
     <use xlink:href="#mc349a1fd3b" x="217.512759" y="186.562016" style="fill: #0000ff; fill-opacity: 0.5"/>
     <use xlink:href="#mc349a1fd3b" x="221.205964" y="185.125624" style="fill: #0000ff; fill-opacity: 0.5"/>
     <use xlink:href="#mc349a1fd3b" x="224.899169" y="183.426068" style="fill: #0000ff; fill-opacity: 0.5"/>
     <use xlink:href="#mc349a1fd3b" x="228.592374" y="181.802049" style="fill: #0000ff; fill-opacity: 0.5"/>
     <use xlink:href="#mc349a1fd3b" x="232.285579" y="179.934466" style="fill: #0000ff; fill-opacity: 0.5"/>
     <use xlink:href="#mc349a1fd3b" x="235.978783" y="178.146355" style="fill: #0000ff; fill-opacity: 0.5"/>
     <use xlink:href="#mc349a1fd3b" x="239.671988" y="176.432749" style="fill: #0000ff; fill-opacity: 0.5"/>
     <use xlink:href="#mc349a1fd3b" x="243.365193" y="175.084023" style="fill: #0000ff; fill-opacity: 0.5"/>
     <use xlink:href="#mc349a1fd3b" x="247.058398" y="173.500208" style="fill: #0000ff; fill-opacity: 0.5"/>
     <use xlink:href="#mc349a1fd3b" x="250.751602" y="171.836817" style="fill: #0000ff; fill-opacity: 0.5"/>
     <use xlink:href="#mc349a1fd3b" x="254.444807" y="169.820519" style="fill: #0000ff; fill-opacity: 0.5"/>
     <use xlink:href="#mc349a1fd3b" x="258.138012" y="168.289326" style="fill: #0000ff; fill-opacity: 0.5"/>
     <use xlink:href="#mc349a1fd3b" x="261.831217" y="166.814844" style="fill: #0000ff; fill-opacity: 0.5"/>
     <use xlink:href="#mc349a1fd3b" x="265.524421" y="165.131216" style="fill: #0000ff; fill-opacity: 0.5"/>
     <use xlink:href="#mc349a1fd3b" x="269.217626" y="163.507718" style="fill: #0000ff; fill-opacity: 0.5"/>
     <use xlink:href="#mc349a1fd3b" x="272.910831" y="162.194728" style="fill: #0000ff; fill-opacity: 0.5"/>
     <use xlink:href="#mc349a1fd3b" x="276.604036" y="160.677841" style="fill: #0000ff; fill-opacity: 0.5"/>
     <use xlink:href="#mc349a1fd3b" x="280.297241" y="158.967427" style="fill: #0000ff; fill-opacity: 0.5"/>
     <use xlink:href="#mc349a1fd3b" x="283.990445" y="157.193593" style="fill: #0000ff; fill-opacity: 0.5"/>
     <use xlink:href="#mc349a1fd3b" x="287.68365" y="155.714835" style="fill: #0000ff; fill-opacity: 0.5"/>
     <use xlink:href="#mc349a1fd3b" x="291.376855" y="154.283779" style="fill: #0000ff; fill-opacity: 0.5"/>
     <use xlink:href="#mc349a1fd3b" x="295.07006" y="153.012851" style="fill: #0000ff; fill-opacity: 0.5"/>
     <use xlink:href="#mc349a1fd3b" x="298.763264" y="151.330016" style="fill: #0000ff; fill-opacity: 0.5"/>
     <use xlink:href="#mc349a1fd3b" x="302.456469" y="150.143636" style="fill: #0000ff; fill-opacity: 0.5"/>
     <use xlink:href="#mc349a1fd3b" x="306.149674" y="148.664754" style="fill: #0000ff; fill-opacity: 0.5"/>
     <use xlink:href="#mc349a1fd3b" x="309.842879" y="147.230017" style="fill: #0000ff; fill-opacity: 0.5"/>
     <use xlink:href="#mc349a1fd3b" x="313.536084" y="145.943743" style="fill: #0000ff; fill-opacity: 0.5"/>
     <use xlink:href="#mc349a1fd3b" x="317.229288" y="144.590028" style="fill: #0000ff; fill-opacity: 0.5"/>
     <use xlink:href="#mc349a1fd3b" x="320.922493" y="143.068534" style="fill: #0000ff; fill-opacity: 0.5"/>
     <use xlink:href="#mc349a1fd3b" x="324.615698" y="141.691674" style="fill: #0000ff; fill-opacity: 0.5"/>
     <use xlink:href="#mc349a1fd3b" x="328.308903" y="140.353059" style="fill: #0000ff; fill-opacity: 0.5"/>
     <use xlink:href="#mc349a1fd3b" x="332.002107" y="138.952133" style="fill: #0000ff; fill-opacity: 0.5"/>
     <use xlink:href="#mc349a1fd3b" x="335.695312" y="137.58907" style="fill: #0000ff; fill-opacity: 0.5"/>
     <use xlink:href="#mc349a1fd3b" x="339.388517" y="136.262355" style="fill: #0000ff; fill-opacity: 0.5"/>
     <use xlink:href="#mc349a1fd3b" x="343.081722" y="135.065632" style="fill: #0000ff; fill-opacity: 0.5"/>
     <use xlink:href="#mc349a1fd3b" x="346.774927" y="133.806149" style="fill: #0000ff; fill-opacity: 0.5"/>
     <use xlink:href="#mc349a1fd3b" x="350.468131" y="132.578961" style="fill: #0000ff; fill-opacity: 0.5"/>
     <use xlink:href="#mc349a1fd3b" x="354.161336" y="131.382841" style="fill: #0000ff; fill-opacity: 0.5"/>
     <use xlink:href="#mc349a1fd3b" x="357.854541" y="130.216623" style="fill: #0000ff; fill-opacity: 0.5"/>
     <use xlink:href="#mc349a1fd3b" x="361.547746" y="129.079202" style="fill: #0000ff; fill-opacity: 0.5"/>
     <use xlink:href="#mc349a1fd3b" x="365.24095" y="127.969522" style="fill: #0000ff; fill-opacity: 0.5"/>
     <use xlink:href="#mc349a1fd3b" x="368.934155" y="126.886581" style="fill: #0000ff; fill-opacity: 0.5"/>
     <use xlink:href="#mc349a1fd3b" x="372.62736" y="125.829425" style="fill: #0000ff; fill-opacity: 0.5"/>
     <use xlink:href="#mc349a1fd3b" x="376.320565" y="124.797143" style="fill: #0000ff; fill-opacity: 0.5"/>
     <use xlink:href="#mc349a1fd3b" x="380.01377" y="123.788867" style="fill: #0000ff; fill-opacity: 0.5"/>
     <use xlink:href="#mc349a1fd3b" x="383.706974" y="122.803771" style="fill: #0000ff; fill-opacity: 0.5"/>
     <use xlink:href="#mc349a1fd3b" x="387.400179" y="121.923176" style="fill: #0000ff; fill-opacity: 0.5"/>
     <use xlink:href="#mc349a1fd3b" x="391.093384" y="121.06237" style="fill: #0000ff; fill-opacity: 0.5"/>
     <use xlink:href="#mc349a1fd3b" x="394.786589" y="120.140404" style="fill: #0000ff; fill-opacity: 0.5"/>
     <use xlink:href="#mc349a1fd3b" x="398.479793" y="119.238701" style="fill: #0000ff; fill-opacity: 0.5"/>
     <use xlink:href="#mc349a1fd3b" x="402.172998" y="118.356601" style="fill: #0000ff; fill-opacity: 0.5"/>
     <use xlink:href="#mc349a1fd3b" x="405.866203" y="117.49347" style="fill: #0000ff; fill-opacity: 0.5"/>
     <use xlink:href="#mc349a1fd3b" x="409.559408" y="116.648704" style="fill: #0000ff; fill-opacity: 0.5"/>
     <use xlink:href="#mc349a1fd3b" x="413.252612" y="115.821722" style="fill: #0000ff; fill-opacity: 0.5"/>
     <use xlink:href="#mc349a1fd3b" x="416.945817" y="115.237781" style="fill: #0000ff; fill-opacity: 0.5"/>
     <use xlink:href="#mc349a1fd3b" x="420.639022" y="114.516891" style="fill: #0000ff; fill-opacity: 0.5"/>
     <use xlink:href="#mc349a1fd3b" x="424.332227" y="113.736979" style="fill: #0000ff; fill-opacity: 0.5"/>
     <use xlink:href="#mc349a1fd3b" x="428.025432" y="113.045811" style="fill: #0000ff; fill-opacity: 0.5"/>
     <use xlink:href="#mc349a1fd3b" x="431.718636" y="112.368468" style="fill: #0000ff; fill-opacity: 0.5"/>
    </g>
   </g>
   <g id="line2d_17">
    <path d="M 66.091364 182.604935 
L 69.784568 211.508831 
L 73.477773 197.056883 
L 77.170978 204.282857 
L 80.864183 225.960779 
L 84.557388 218.734805 
L 88.250592 218.734805 
L 91.943797 189.830909 
L 95.637002 211.508831 
L 99.330207 225.960779 
L 103.023411 182.604935 
L 106.716616 211.508831 
L 110.409821 211.508831 
L 114.103026 197.056883 
L 117.79623 269.316623 
L 121.489435 233.186753 
L 125.18264 218.734805 
L 128.875845 189.830909 
L 132.56905 254.864675 
L 136.262254 247.638701 
L 139.955459 211.508831 
L 143.648664 247.638701 
L 147.341869 197.056883 
L 151.035073 211.508831 
L 154.728278 247.638701 
L 158.421483 204.282857 
L 162.114688 225.960779 
L 165.807893 204.282857 
L 169.501097 218.734805 
L 173.194302 182.604935 
L 176.887507 211.508831 
L 180.580712 197.056883 
L 184.273916 204.282857 
L 187.967121 290.994545 
L 191.660326 233.186753 
L 195.353531 211.508831 
L 199.046736 247.638701 
L 202.73994 197.056883 
L 206.433145 189.830909 
L 210.12635 233.186753 
L 213.819555 211.508831 
L 217.512759 204.282857 
L 221.205964 240.412727 
L 224.899169 204.282857 
L 228.592374 240.412727 
L 232.285579 189.830909 
L 235.978783 197.056883 
L 239.671988 225.960779 
L 243.365193 218.734805 
L 247.058398 204.282857 
L 250.751602 211.508831 
L 254.444807 225.960779 
L 258.138012 189.830909 
L 261.831217 225.960779 
L 265.524421 290.994545 
L 269.217626 233.186753 
L 272.910831 225.960779 
L 276.604036 240.412727 
L 280.297241 225.960779 
L 283.990445 204.282857 
L 287.68365 211.508831 
L 291.376855 204.282857 
L 295.07006 218.734805 
L 298.763264 218.734805 
L 302.456469 218.734805 
L 306.149674 204.282857 
L 309.842879 197.056883 
L 313.536084 225.960779 
L 317.229288 204.282857 
L 320.922493 211.508831 
L 324.615698 218.734805 
L 328.308903 233.186753 
L 332.002107 233.186753 
L 335.695312 204.282857 
L 339.388517 247.638701 
L 343.081722 218.734805 
L 346.774927 254.864675 
L 350.468131 204.282857 
L 354.161336 204.282857 
L 357.854541 204.282857 
L 361.547746 182.604935 
L 365.24095 233.186753 
L 368.934155 197.056883 
L 372.62736 240.412727 
L 376.320565 247.638701 
L 380.01377 168.152987 
L 383.706974 211.508831 
L 387.400179 269.316623 
L 391.093384 225.960779 
L 394.786589 247.638701 
L 398.479793 262.090649 
L 402.172998 211.508831 
L 405.866203 204.282857 
L 409.559408 218.734805 
L 413.252612 225.960779 
L 416.945817 225.960779 
L 420.639022 182.604935 
L 424.332227 204.282857 
L 428.025432 189.830909 
L 431.718636 182.604935 
" clip-path="url(#p061a65619e)" style="fill: none; stroke: #ff0000; stroke-width: 0.5; stroke-linecap: square"/>
    <defs>
     <path id="m4b24a2eefb" d="M -0.49999 0.49999 
L 0.50001 0.49999 
L 0.50001 -0.50001 
L -0.49999 -0.50001 
z
"/>
    </defs>
    <g clip-path="url(#p061a65619e)">
     <use xlink:href="#m4b24a2eefb" x="66.091364" y="182.604935" style="fill: #ff0000"/>
     <use xlink:href="#m4b24a2eefb" x="69.784568" y="211.508831" style="fill: #ff0000"/>
     <use xlink:href="#m4b24a2eefb" x="73.477773" y="197.056883" style="fill: #ff0000"/>
     <use xlink:href="#m4b24a2eefb" x="77.170978" y="204.282857" style="fill: #ff0000"/>
     <use xlink:href="#m4b24a2eefb" x="80.864183" y="225.960779" style="fill: #ff0000"/>
     <use xlink:href="#m4b24a2eefb" x="84.557388" y="218.734805" style="fill: #ff0000"/>
     <use xlink:href="#m4b24a2eefb" x="88.250592" y="218.734805" style="fill: #ff0000"/>
     <use xlink:href="#m4b24a2eefb" x="91.943797" y="189.830909" style="fill: #ff0000"/>
     <use xlink:href="#m4b24a2eefb" x="95.637002" y="211.508831" style="fill: #ff0000"/>
     <use xlink:href="#m4b24a2eefb" x="99.330207" y="225.960779" style="fill: #ff0000"/>
     <use xlink:href="#m4b24a2eefb" x="103.023411" y="182.604935" style="fill: #ff0000"/>
     <use xlink:href="#m4b24a2eefb" x="106.716616" y="211.508831" style="fill: #ff0000"/>
     <use xlink:href="#m4b24a2eefb" x="110.409821" y="211.508831" style="fill: #ff0000"/>
     <use xlink:href="#m4b24a2eefb" x="114.103026" y="197.056883" style="fill: #ff0000"/>
     <use xlink:href="#m4b24a2eefb" x="117.79623" y="269.316623" style="fill: #ff0000"/>
     <use xlink:href="#m4b24a2eefb" x="121.489435" y="233.186753" style="fill: #ff0000"/>
     <use xlink:href="#m4b24a2eefb" x="125.18264" y="218.734805" style="fill: #ff0000"/>
     <use xlink:href="#m4b24a2eefb" x="128.875845" y="189.830909" style="fill: #ff0000"/>
     <use xlink:href="#m4b24a2eefb" x="132.56905" y="254.864675" style="fill: #ff0000"/>
     <use xlink:href="#m4b24a2eefb" x="136.262254" y="247.638701" style="fill: #ff0000"/>
     <use xlink:href="#m4b24a2eefb" x="139.955459" y="211.508831" style="fill: #ff0000"/>
     <use xlink:href="#m4b24a2eefb" x="143.648664" y="247.638701" style="fill: #ff0000"/>
     <use xlink:href="#m4b24a2eefb" x="147.341869" y="197.056883" style="fill: #ff0000"/>
     <use xlink:href="#m4b24a2eefb" x="151.035073" y="211.508831" style="fill: #ff0000"/>
     <use xlink:href="#m4b24a2eefb" x="154.728278" y="247.638701" style="fill: #ff0000"/>
     <use xlink:href="#m4b24a2eefb" x="158.421483" y="204.282857" style="fill: #ff0000"/>
     <use xlink:href="#m4b24a2eefb" x="162.114688" y="225.960779" style="fill: #ff0000"/>
     <use xlink:href="#m4b24a2eefb" x="165.807893" y="204.282857" style="fill: #ff0000"/>
     <use xlink:href="#m4b24a2eefb" x="169.501097" y="218.734805" style="fill: #ff0000"/>
     <use xlink:href="#m4b24a2eefb" x="173.194302" y="182.604935" style="fill: #ff0000"/>
     <use xlink:href="#m4b24a2eefb" x="176.887507" y="211.508831" style="fill: #ff0000"/>
     <use xlink:href="#m4b24a2eefb" x="180.580712" y="197.056883" style="fill: #ff0000"/>
     <use xlink:href="#m4b24a2eefb" x="184.273916" y="204.282857" style="fill: #ff0000"/>
     <use xlink:href="#m4b24a2eefb" x="187.967121" y="290.994545" style="fill: #ff0000"/>
     <use xlink:href="#m4b24a2eefb" x="191.660326" y="233.186753" style="fill: #ff0000"/>
     <use xlink:href="#m4b24a2eefb" x="195.353531" y="211.508831" style="fill: #ff0000"/>
     <use xlink:href="#m4b24a2eefb" x="199.046736" y="247.638701" style="fill: #ff0000"/>
     <use xlink:href="#m4b24a2eefb" x="202.73994" y="197.056883" style="fill: #ff0000"/>
     <use xlink:href="#m4b24a2eefb" x="206.433145" y="189.830909" style="fill: #ff0000"/>
     <use xlink:href="#m4b24a2eefb" x="210.12635" y="233.186753" style="fill: #ff0000"/>
     <use xlink:href="#m4b24a2eefb" x="213.819555" y="211.508831" style="fill: #ff0000"/>
     <use xlink:href="#m4b24a2eefb" x="217.512759" y="204.282857" style="fill: #ff0000"/>
     <use xlink:href="#m4b24a2eefb" x="221.205964" y="240.412727" style="fill: #ff0000"/>
     <use xlink:href="#m4b24a2eefb" x="224.899169" y="204.282857" style="fill: #ff0000"/>
     <use xlink:href="#m4b24a2eefb" x="228.592374" y="240.412727" style="fill: #ff0000"/>
     <use xlink:href="#m4b24a2eefb" x="232.285579" y="189.830909" style="fill: #ff0000"/>
     <use xlink:href="#m4b24a2eefb" x="235.978783" y="197.056883" style="fill: #ff0000"/>
     <use xlink:href="#m4b24a2eefb" x="239.671988" y="225.960779" style="fill: #ff0000"/>
     <use xlink:href="#m4b24a2eefb" x="243.365193" y="218.734805" style="fill: #ff0000"/>
     <use xlink:href="#m4b24a2eefb" x="247.058398" y="204.282857" style="fill: #ff0000"/>
     <use xlink:href="#m4b24a2eefb" x="250.751602" y="211.508831" style="fill: #ff0000"/>
     <use xlink:href="#m4b24a2eefb" x="254.444807" y="225.960779" style="fill: #ff0000"/>
     <use xlink:href="#m4b24a2eefb" x="258.138012" y="189.830909" style="fill: #ff0000"/>
     <use xlink:href="#m4b24a2eefb" x="261.831217" y="225.960779" style="fill: #ff0000"/>
     <use xlink:href="#m4b24a2eefb" x="265.524421" y="290.994545" style="fill: #ff0000"/>
     <use xlink:href="#m4b24a2eefb" x="269.217626" y="233.186753" style="fill: #ff0000"/>
     <use xlink:href="#m4b24a2eefb" x="272.910831" y="225.960779" style="fill: #ff0000"/>
     <use xlink:href="#m4b24a2eefb" x="276.604036" y="240.412727" style="fill: #ff0000"/>
     <use xlink:href="#m4b24a2eefb" x="280.297241" y="225.960779" style="fill: #ff0000"/>
     <use xlink:href="#m4b24a2eefb" x="283.990445" y="204.282857" style="fill: #ff0000"/>
     <use xlink:href="#m4b24a2eefb" x="287.68365" y="211.508831" style="fill: #ff0000"/>
     <use xlink:href="#m4b24a2eefb" x="291.376855" y="204.282857" style="fill: #ff0000"/>
     <use xlink:href="#m4b24a2eefb" x="295.07006" y="218.734805" style="fill: #ff0000"/>
     <use xlink:href="#m4b24a2eefb" x="298.763264" y="218.734805" style="fill: #ff0000"/>
     <use xlink:href="#m4b24a2eefb" x="302.456469" y="218.734805" style="fill: #ff0000"/>
     <use xlink:href="#m4b24a2eefb" x="306.149674" y="204.282857" style="fill: #ff0000"/>
     <use xlink:href="#m4b24a2eefb" x="309.842879" y="197.056883" style="fill: #ff0000"/>
     <use xlink:href="#m4b24a2eefb" x="313.536084" y="225.960779" style="fill: #ff0000"/>
     <use xlink:href="#m4b24a2eefb" x="317.229288" y="204.282857" style="fill: #ff0000"/>
     <use xlink:href="#m4b24a2eefb" x="320.922493" y="211.508831" style="fill: #ff0000"/>
     <use xlink:href="#m4b24a2eefb" x="324.615698" y="218.734805" style="fill: #ff0000"/>
     <use xlink:href="#m4b24a2eefb" x="328.308903" y="233.186753" style="fill: #ff0000"/>
     <use xlink:href="#m4b24a2eefb" x="332.002107" y="233.186753" style="fill: #ff0000"/>
     <use xlink:href="#m4b24a2eefb" x="335.695312" y="204.282857" style="fill: #ff0000"/>
     <use xlink:href="#m4b24a2eefb" x="339.388517" y="247.638701" style="fill: #ff0000"/>
     <use xlink:href="#m4b24a2eefb" x="343.081722" y="218.734805" style="fill: #ff0000"/>
     <use xlink:href="#m4b24a2eefb" x="346.774927" y="254.864675" style="fill: #ff0000"/>
     <use xlink:href="#m4b24a2eefb" x="350.468131" y="204.282857" style="fill: #ff0000"/>
     <use xlink:href="#m4b24a2eefb" x="354.161336" y="204.282857" style="fill: #ff0000"/>
     <use xlink:href="#m4b24a2eefb" x="357.854541" y="204.282857" style="fill: #ff0000"/>
     <use xlink:href="#m4b24a2eefb" x="361.547746" y="182.604935" style="fill: #ff0000"/>
     <use xlink:href="#m4b24a2eefb" x="365.24095" y="233.186753" style="fill: #ff0000"/>
     <use xlink:href="#m4b24a2eefb" x="368.934155" y="197.056883" style="fill: #ff0000"/>
     <use xlink:href="#m4b24a2eefb" x="372.62736" y="240.412727" style="fill: #ff0000"/>
     <use xlink:href="#m4b24a2eefb" x="376.320565" y="247.638701" style="fill: #ff0000"/>
     <use xlink:href="#m4b24a2eefb" x="380.01377" y="168.152987" style="fill: #ff0000"/>
     <use xlink:href="#m4b24a2eefb" x="383.706974" y="211.508831" style="fill: #ff0000"/>
     <use xlink:href="#m4b24a2eefb" x="387.400179" y="269.316623" style="fill: #ff0000"/>
     <use xlink:href="#m4b24a2eefb" x="391.093384" y="225.960779" style="fill: #ff0000"/>
     <use xlink:href="#m4b24a2eefb" x="394.786589" y="247.638701" style="fill: #ff0000"/>
     <use xlink:href="#m4b24a2eefb" x="398.479793" y="262.090649" style="fill: #ff0000"/>
     <use xlink:href="#m4b24a2eefb" x="402.172998" y="211.508831" style="fill: #ff0000"/>
     <use xlink:href="#m4b24a2eefb" x="405.866203" y="204.282857" style="fill: #ff0000"/>
     <use xlink:href="#m4b24a2eefb" x="409.559408" y="218.734805" style="fill: #ff0000"/>
     <use xlink:href="#m4b24a2eefb" x="413.252612" y="225.960779" style="fill: #ff0000"/>
     <use xlink:href="#m4b24a2eefb" x="416.945817" y="225.960779" style="fill: #ff0000"/>
     <use xlink:href="#m4b24a2eefb" x="420.639022" y="182.604935" style="fill: #ff0000"/>
     <use xlink:href="#m4b24a2eefb" x="424.332227" y="204.282857" style="fill: #ff0000"/>
     <use xlink:href="#m4b24a2eefb" x="428.025432" y="189.830909" style="fill: #ff0000"/>
     <use xlink:href="#m4b24a2eefb" x="431.718636" y="182.604935" style="fill: #ff0000"/>
    </g>
   </g>
   <g id="line2d_18">
    <path d="M 66.091364 182.604935 
L 69.784568 197.056883 
L 73.477773 197.056883 
L 77.170978 198.863377 
L 80.864183 204.282857 
L 84.557388 206.691515 
L 88.250592 208.411985 
L 91.943797 206.089351 
L 95.637002 206.691515 
L 99.330207 208.618442 
L 103.023411 206.253577 
L 106.716616 206.691515 
L 110.409821 207.062078 
L 114.103026 206.347421 
L 117.79623 210.545368 
L 121.489435 211.960455 
L 125.18264 212.358946 
L 128.875845 211.107388 
L 132.56905 213.410403 
L 136.262254 215.121818 
L 139.955459 214.949771 
L 143.648664 216.435632 
L 147.341869 215.593077 
L 151.035073 215.4229 
L 154.728278 216.711532 
L 158.421483 216.233506 
L 162.114688 216.593776 
L 165.807893 216.1541 
L 169.501097 216.24309 
L 173.194302 215.121818 
L 176.887507 215.00527 
L 180.580712 214.444383 
L 184.273916 214.136458 
L 187.967121 216.39699 
L 191.660326 216.876698 
L 195.353531 216.72759 
L 199.046736 217.563026 
L 202.73994 217.02339 
L 206.433145 216.326147 
L 210.12635 216.747662 
L 213.819555 216.619886 
L 217.512759 216.326147 
L 221.205964 216.8863 
L 224.899169 216.599858 
L 228.592374 217.129033 
L 232.285579 216.535596 
L 235.978783 216.121155 
L 239.671988 216.326147 
L 243.365193 216.375303 
L 247.058398 216.133455 
L 250.751602 216.042776 
L 254.444807 216.233506 
L 258.138012 215.735344 
L 261.831217 215.924704 
L 265.524421 217.28961 
L 269.217626 217.573488 
L 272.910831 217.720633 
L 276.604036 218.111876 
L 280.297241 218.244909 
L 283.990445 218.012208 
L 287.68365 217.905595 
L 291.376855 217.685873 
L 295.07006 217.702523 
L 298.763264 217.718653 
L 302.456469 217.734286 
L 306.149674 217.530476 
L 309.842879 217.2249 
L 313.536084 217.353369 
L 317.229288 217.163941 
L 320.922493 217.083154 
L 324.615698 217.106417 
L 328.308903 217.329755 
L 332.002107 217.546974 
L 335.695312 217.367729 
L 339.388517 217.771342 
L 343.081722 217.784019 
L 346.774927 218.265586 
L 350.468131 218.08632 
L 354.161336 217.911593 
L 357.854541 217.741234 
L 361.547746 217.307452 
L 365.24095 217.501102 
L 368.934155 217.254786 
L 372.62736 217.530476 
L 376.320565 217.884691 
L 380.01377 217.306415 
L 383.706974 217.239776 
L 387.400179 217.831558 
L 391.093384 217.922898 
L 394.786589 218.253074 
L 398.479793 218.734805 
L 402.172998 218.656262 
L 405.866203 218.501709 
L 409.559408 218.504189 
L 413.252612 218.582679 
L 416.945817 218.659535 
L 420.639022 218.287838 
L 424.332227 218.14493 
L 428.025432 217.85893 
L 431.718636 217.50639 
" clip-path="url(#p061a65619e)" style="fill: none; stroke: #ff0000; stroke-opacity: 0.5; stroke-width: 0.25; stroke-linecap: square"/>
    <defs>
     <path id="mea4a795bb9" d="M -0.49999 0.49999 
L 0.50001 0.49999 
L 0.50001 -0.50001 
L -0.49999 -0.50001 
z
"/>
    </defs>
    <g clip-path="url(#p061a65619e)">
     <use xlink:href="#mea4a795bb9" x="66.091364" y="182.604935" style="fill: #ff0000; fill-opacity: 0.5"/>
     <use xlink:href="#mea4a795bb9" x="69.784568" y="197.056883" style="fill: #ff0000; fill-opacity: 0.5"/>
     <use xlink:href="#mea4a795bb9" x="73.477773" y="197.056883" style="fill: #ff0000; fill-opacity: 0.5"/>
     <use xlink:href="#mea4a795bb9" x="77.170978" y="198.863377" style="fill: #ff0000; fill-opacity: 0.5"/>
     <use xlink:href="#mea4a795bb9" x="80.864183" y="204.282857" style="fill: #ff0000; fill-opacity: 0.5"/>
     <use xlink:href="#mea4a795bb9" x="84.557388" y="206.691515" style="fill: #ff0000; fill-opacity: 0.5"/>
     <use xlink:href="#mea4a795bb9" x="88.250592" y="208.411985" style="fill: #ff0000; fill-opacity: 0.5"/>
     <use xlink:href="#mea4a795bb9" x="91.943797" y="206.089351" style="fill: #ff0000; fill-opacity: 0.5"/>
     <use xlink:href="#mea4a795bb9" x="95.637002" y="206.691515" style="fill: #ff0000; fill-opacity: 0.5"/>
     <use xlink:href="#mea4a795bb9" x="99.330207" y="208.618442" style="fill: #ff0000; fill-opacity: 0.5"/>
     <use xlink:href="#mea4a795bb9" x="103.023411" y="206.253577" style="fill: #ff0000; fill-opacity: 0.5"/>
     <use xlink:href="#mea4a795bb9" x="106.716616" y="206.691515" style="fill: #ff0000; fill-opacity: 0.5"/>
     <use xlink:href="#mea4a795bb9" x="110.409821" y="207.062078" style="fill: #ff0000; fill-opacity: 0.5"/>
     <use xlink:href="#mea4a795bb9" x="114.103026" y="206.347421" style="fill: #ff0000; fill-opacity: 0.5"/>
     <use xlink:href="#mea4a795bb9" x="117.79623" y="210.545368" style="fill: #ff0000; fill-opacity: 0.5"/>
     <use xlink:href="#mea4a795bb9" x="121.489435" y="211.960455" style="fill: #ff0000; fill-opacity: 0.5"/>
     <use xlink:href="#mea4a795bb9" x="125.18264" y="212.358946" style="fill: #ff0000; fill-opacity: 0.5"/>
     <use xlink:href="#mea4a795bb9" x="128.875845" y="211.107388" style="fill: #ff0000; fill-opacity: 0.5"/>
     <use xlink:href="#mea4a795bb9" x="132.56905" y="213.410403" style="fill: #ff0000; fill-opacity: 0.5"/>
     <use xlink:href="#mea4a795bb9" x="136.262254" y="215.121818" style="fill: #ff0000; fill-opacity: 0.5"/>
     <use xlink:href="#mea4a795bb9" x="139.955459" y="214.949771" style="fill: #ff0000; fill-opacity: 0.5"/>
     <use xlink:href="#mea4a795bb9" x="143.648664" y="216.435632" style="fill: #ff0000; fill-opacity: 0.5"/>
     <use xlink:href="#mea4a795bb9" x="147.341869" y="215.593077" style="fill: #ff0000; fill-opacity: 0.5"/>
     <use xlink:href="#mea4a795bb9" x="151.035073" y="215.4229" style="fill: #ff0000; fill-opacity: 0.5"/>
     <use xlink:href="#mea4a795bb9" x="154.728278" y="216.711532" style="fill: #ff0000; fill-opacity: 0.5"/>
     <use xlink:href="#mea4a795bb9" x="158.421483" y="216.233506" style="fill: #ff0000; fill-opacity: 0.5"/>
     <use xlink:href="#mea4a795bb9" x="162.114688" y="216.593776" style="fill: #ff0000; fill-opacity: 0.5"/>
     <use xlink:href="#mea4a795bb9" x="165.807893" y="216.1541" style="fill: #ff0000; fill-opacity: 0.5"/>
     <use xlink:href="#mea4a795bb9" x="169.501097" y="216.24309" style="fill: #ff0000; fill-opacity: 0.5"/>
     <use xlink:href="#mea4a795bb9" x="173.194302" y="215.121818" style="fill: #ff0000; fill-opacity: 0.5"/>
     <use xlink:href="#mea4a795bb9" x="176.887507" y="215.00527" style="fill: #ff0000; fill-opacity: 0.5"/>
     <use xlink:href="#mea4a795bb9" x="180.580712" y="214.444383" style="fill: #ff0000; fill-opacity: 0.5"/>
     <use xlink:href="#mea4a795bb9" x="184.273916" y="214.136458" style="fill: #ff0000; fill-opacity: 0.5"/>
     <use xlink:href="#mea4a795bb9" x="187.967121" y="216.39699" style="fill: #ff0000; fill-opacity: 0.5"/>
     <use xlink:href="#mea4a795bb9" x="191.660326" y="216.876698" style="fill: #ff0000; fill-opacity: 0.5"/>
     <use xlink:href="#mea4a795bb9" x="195.353531" y="216.72759" style="fill: #ff0000; fill-opacity: 0.5"/>
     <use xlink:href="#mea4a795bb9" x="199.046736" y="217.563026" style="fill: #ff0000; fill-opacity: 0.5"/>
     <use xlink:href="#mea4a795bb9" x="202.73994" y="217.02339" style="fill: #ff0000; fill-opacity: 0.5"/>
     <use xlink:href="#mea4a795bb9" x="206.433145" y="216.326147" style="fill: #ff0000; fill-opacity: 0.5"/>
     <use xlink:href="#mea4a795bb9" x="210.12635" y="216.747662" style="fill: #ff0000; fill-opacity: 0.5"/>
     <use xlink:href="#mea4a795bb9" x="213.819555" y="216.619886" style="fill: #ff0000; fill-opacity: 0.5"/>
     <use xlink:href="#mea4a795bb9" x="217.512759" y="216.326147" style="fill: #ff0000; fill-opacity: 0.5"/>
     <use xlink:href="#mea4a795bb9" x="221.205964" y="216.8863" style="fill: #ff0000; fill-opacity: 0.5"/>
     <use xlink:href="#mea4a795bb9" x="224.899169" y="216.599858" style="fill: #ff0000; fill-opacity: 0.5"/>
     <use xlink:href="#mea4a795bb9" x="228.592374" y="217.129033" style="fill: #ff0000; fill-opacity: 0.5"/>
     <use xlink:href="#mea4a795bb9" x="232.285579" y="216.535596" style="fill: #ff0000; fill-opacity: 0.5"/>
     <use xlink:href="#mea4a795bb9" x="235.978783" y="216.121155" style="fill: #ff0000; fill-opacity: 0.5"/>
     <use xlink:href="#mea4a795bb9" x="239.671988" y="216.326147" style="fill: #ff0000; fill-opacity: 0.5"/>
     <use xlink:href="#mea4a795bb9" x="243.365193" y="216.375303" style="fill: #ff0000; fill-opacity: 0.5"/>
     <use xlink:href="#mea4a795bb9" x="247.058398" y="216.133455" style="fill: #ff0000; fill-opacity: 0.5"/>
     <use xlink:href="#mea4a795bb9" x="250.751602" y="216.042776" style="fill: #ff0000; fill-opacity: 0.5"/>
     <use xlink:href="#mea4a795bb9" x="254.444807" y="216.233506" style="fill: #ff0000; fill-opacity: 0.5"/>
     <use xlink:href="#mea4a795bb9" x="258.138012" y="215.735344" style="fill: #ff0000; fill-opacity: 0.5"/>
     <use xlink:href="#mea4a795bb9" x="261.831217" y="215.924704" style="fill: #ff0000; fill-opacity: 0.5"/>
     <use xlink:href="#mea4a795bb9" x="265.524421" y="217.28961" style="fill: #ff0000; fill-opacity: 0.5"/>
     <use xlink:href="#mea4a795bb9" x="269.217626" y="217.573488" style="fill: #ff0000; fill-opacity: 0.5"/>
     <use xlink:href="#mea4a795bb9" x="272.910831" y="217.720633" style="fill: #ff0000; fill-opacity: 0.5"/>
     <use xlink:href="#mea4a795bb9" x="276.604036" y="218.111876" style="fill: #ff0000; fill-opacity: 0.5"/>
     <use xlink:href="#mea4a795bb9" x="280.297241" y="218.244909" style="fill: #ff0000; fill-opacity: 0.5"/>
     <use xlink:href="#mea4a795bb9" x="283.990445" y="218.012208" style="fill: #ff0000; fill-opacity: 0.5"/>
     <use xlink:href="#mea4a795bb9" x="287.68365" y="217.905595" style="fill: #ff0000; fill-opacity: 0.5"/>
     <use xlink:href="#mea4a795bb9" x="291.376855" y="217.685873" style="fill: #ff0000; fill-opacity: 0.5"/>
     <use xlink:href="#mea4a795bb9" x="295.07006" y="217.702523" style="fill: #ff0000; fill-opacity: 0.5"/>
     <use xlink:href="#mea4a795bb9" x="298.763264" y="217.718653" style="fill: #ff0000; fill-opacity: 0.5"/>
     <use xlink:href="#mea4a795bb9" x="302.456469" y="217.734286" style="fill: #ff0000; fill-opacity: 0.5"/>
     <use xlink:href="#mea4a795bb9" x="306.149674" y="217.530476" style="fill: #ff0000; fill-opacity: 0.5"/>
     <use xlink:href="#mea4a795bb9" x="309.842879" y="217.2249" style="fill: #ff0000; fill-opacity: 0.5"/>
     <use xlink:href="#mea4a795bb9" x="313.536084" y="217.353369" style="fill: #ff0000; fill-opacity: 0.5"/>
     <use xlink:href="#mea4a795bb9" x="317.229288" y="217.163941" style="fill: #ff0000; fill-opacity: 0.5"/>
     <use xlink:href="#mea4a795bb9" x="320.922493" y="217.083154" style="fill: #ff0000; fill-opacity: 0.5"/>
     <use xlink:href="#mea4a795bb9" x="324.615698" y="217.106417" style="fill: #ff0000; fill-opacity: 0.5"/>
     <use xlink:href="#mea4a795bb9" x="328.308903" y="217.329755" style="fill: #ff0000; fill-opacity: 0.5"/>
     <use xlink:href="#mea4a795bb9" x="332.002107" y="217.546974" style="fill: #ff0000; fill-opacity: 0.5"/>
     <use xlink:href="#mea4a795bb9" x="335.695312" y="217.367729" style="fill: #ff0000; fill-opacity: 0.5"/>
     <use xlink:href="#mea4a795bb9" x="339.388517" y="217.771342" style="fill: #ff0000; fill-opacity: 0.5"/>
     <use xlink:href="#mea4a795bb9" x="343.081722" y="217.784019" style="fill: #ff0000; fill-opacity: 0.5"/>
     <use xlink:href="#mea4a795bb9" x="346.774927" y="218.265586" style="fill: #ff0000; fill-opacity: 0.5"/>
     <use xlink:href="#mea4a795bb9" x="350.468131" y="218.08632" style="fill: #ff0000; fill-opacity: 0.5"/>
     <use xlink:href="#mea4a795bb9" x="354.161336" y="217.911593" style="fill: #ff0000; fill-opacity: 0.5"/>
     <use xlink:href="#mea4a795bb9" x="357.854541" y="217.741234" style="fill: #ff0000; fill-opacity: 0.5"/>
     <use xlink:href="#mea4a795bb9" x="361.547746" y="217.307452" style="fill: #ff0000; fill-opacity: 0.5"/>
     <use xlink:href="#mea4a795bb9" x="365.24095" y="217.501102" style="fill: #ff0000; fill-opacity: 0.5"/>
     <use xlink:href="#mea4a795bb9" x="368.934155" y="217.254786" style="fill: #ff0000; fill-opacity: 0.5"/>
     <use xlink:href="#mea4a795bb9" x="372.62736" y="217.530476" style="fill: #ff0000; fill-opacity: 0.5"/>
     <use xlink:href="#mea4a795bb9" x="376.320565" y="217.884691" style="fill: #ff0000; fill-opacity: 0.5"/>
     <use xlink:href="#mea4a795bb9" x="380.01377" y="217.306415" style="fill: #ff0000; fill-opacity: 0.5"/>
     <use xlink:href="#mea4a795bb9" x="383.706974" y="217.239776" style="fill: #ff0000; fill-opacity: 0.5"/>
     <use xlink:href="#mea4a795bb9" x="387.400179" y="217.831558" style="fill: #ff0000; fill-opacity: 0.5"/>
     <use xlink:href="#mea4a795bb9" x="391.093384" y="217.922898" style="fill: #ff0000; fill-opacity: 0.5"/>
     <use xlink:href="#mea4a795bb9" x="394.786589" y="218.253074" style="fill: #ff0000; fill-opacity: 0.5"/>
     <use xlink:href="#mea4a795bb9" x="398.479793" y="218.734805" style="fill: #ff0000; fill-opacity: 0.5"/>
     <use xlink:href="#mea4a795bb9" x="402.172998" y="218.656262" style="fill: #ff0000; fill-opacity: 0.5"/>
     <use xlink:href="#mea4a795bb9" x="405.866203" y="218.501709" style="fill: #ff0000; fill-opacity: 0.5"/>
     <use xlink:href="#mea4a795bb9" x="409.559408" y="218.504189" style="fill: #ff0000; fill-opacity: 0.5"/>
     <use xlink:href="#mea4a795bb9" x="413.252612" y="218.582679" style="fill: #ff0000; fill-opacity: 0.5"/>
     <use xlink:href="#mea4a795bb9" x="416.945817" y="218.659535" style="fill: #ff0000; fill-opacity: 0.5"/>
     <use xlink:href="#mea4a795bb9" x="420.639022" y="218.287838" style="fill: #ff0000; fill-opacity: 0.5"/>
     <use xlink:href="#mea4a795bb9" x="424.332227" y="218.14493" style="fill: #ff0000; fill-opacity: 0.5"/>
     <use xlink:href="#mea4a795bb9" x="428.025432" y="217.85893" style="fill: #ff0000; fill-opacity: 0.5"/>
     <use xlink:href="#mea4a795bb9" x="431.718636" y="217.50639" style="fill: #ff0000; fill-opacity: 0.5"/>
    </g>
   </g>
   <g id="patch_3">
    <path d="M 47.81 303.64 
L 47.81 25.44 
" style="fill: none; stroke: #000000; stroke-width: 0.8; stroke-linejoin: miter; stroke-linecap: square"/>
   </g>
   <g id="patch_4">
    <path d="M 450 303.64 
L 450 25.44 
" style="fill: none; stroke: #000000; stroke-width: 0.8; stroke-linejoin: miter; stroke-linecap: square"/>
   </g>
   <g id="patch_5">
    <path d="M 47.81 303.64 
L 450 303.64 
" style="fill: none; stroke: #000000; stroke-width: 0.8; stroke-linejoin: miter; stroke-linecap: square"/>
   </g>
   <g id="patch_6">
    <path d="M 47.81 25.44 
L 450 25.44 
" style="fill: none; stroke: #000000; stroke-width: 0.8; stroke-linejoin: miter; stroke-linecap: square"/>
   </g>
   <g id="text_17">
    <!-- Average action per round - 28173931-29014202 - 50 games -->
    <g transform="translate(67.800625 19.44) scale(0.12 -0.12)">
     <defs>
      <path id="DejaVuSans-70" d="M 1159 525 
L 1159 -1331 
L 581 -1331 
L 581 3500 
L 1159 3500 
L 1159 2969 
Q 1341 3281 1617 3432 
Q 1894 3584 2278 3584 
Q 2916 3584 3314 3078 
Q 3713 2572 3713 1747 
Q 3713 922 3314 415 
Q 2916 -91 2278 -91 
Q 1894 -91 1617 61 
Q 1341 213 1159 525 
z
M 3116 1747 
Q 3116 2381 2855 2742 
Q 2594 3103 2138 3103 
Q 1681 3103 1420 2742 
Q 1159 2381 1159 1747 
Q 1159 1113 1420 752 
Q 1681 391 2138 391 
Q 2594 391 2855 752 
Q 3116 1113 3116 1747 
z
" transform="scale(0.015625)"/>
      <path id="DejaVuSans-75" d="M 544 1381 
L 544 3500 
L 1119 3500 
L 1119 1403 
Q 1119 906 1312 657 
Q 1506 409 1894 409 
Q 2359 409 2629 706 
Q 2900 1003 2900 1516 
L 2900 3500 
L 3475 3500 
L 3475 0 
L 2900 0 
L 2900 538 
Q 2691 219 2414 64 
Q 2138 -91 1772 -91 
Q 1169 -91 856 284 
Q 544 659 544 1381 
z
M 1991 3584 
L 1991 3584 
z
" transform="scale(0.015625)"/>
      <path id="DejaVuSans-64" d="M 2906 2969 
L 2906 4863 
L 3481 4863 
L 3481 0 
L 2906 0 
L 2906 525 
Q 2725 213 2448 61 
Q 2172 -91 1784 -91 
Q 1150 -91 751 415 
Q 353 922 353 1747 
Q 353 2572 751 3078 
Q 1150 3584 1784 3584 
Q 2172 3584 2448 3432 
Q 2725 3281 2906 2969 
z
M 947 1747 
Q 947 1113 1208 752 
Q 1469 391 1925 391 
Q 2381 391 2643 752 
Q 2906 1113 2906 1747 
Q 2906 2381 2643 2742 
Q 2381 3103 1925 3103 
Q 1469 3103 1208 2742 
Q 947 2381 947 1747 
z
" transform="scale(0.015625)"/>
      <path id="DejaVuSans-2d" d="M 313 2009 
L 1997 2009 
L 1997 1497 
L 313 1497 
L 313 2009 
z
" transform="scale(0.015625)"/>
      <path id="DejaVuSans-6d" d="M 3328 2828 
Q 3544 3216 3844 3400 
Q 4144 3584 4550 3584 
Q 5097 3584 5394 3201 
Q 5691 2819 5691 2113 
L 5691 0 
L 5113 0 
L 5113 2094 
Q 5113 2597 4934 2840 
Q 4756 3084 4391 3084 
Q 3944 3084 3684 2787 
Q 3425 2491 3425 1978 
L 3425 0 
L 2847 0 
L 2847 2094 
Q 2847 2600 2669 2842 
Q 2491 3084 2119 3084 
Q 1678 3084 1418 2786 
Q 1159 2488 1159 1978 
L 1159 0 
L 581 0 
L 581 3500 
L 1159 3500 
L 1159 2956 
Q 1356 3278 1631 3431 
Q 1906 3584 2284 3584 
Q 2666 3584 2933 3390 
Q 3200 3197 3328 2828 
z
" transform="scale(0.015625)"/>
      <path id="DejaVuSans-73" d="M 2834 3397 
L 2834 2853 
Q 2591 2978 2328 3040 
Q 2066 3103 1784 3103 
Q 1356 3103 1142 2972 
Q 928 2841 928 2578 
Q 928 2378 1081 2264 
Q 1234 2150 1697 2047 
L 1894 2003 
Q 2506 1872 2764 1633 
Q 3022 1394 3022 966 
Q 3022 478 2636 193 
Q 2250 -91 1575 -91 
Q 1294 -91 989 -36 
Q 684 19 347 128 
L 347 722 
Q 666 556 975 473 
Q 1284 391 1588 391 
Q 1994 391 2212 530 
Q 2431 669 2431 922 
Q 2431 1156 2273 1281 
Q 2116 1406 1581 1522 
L 1381 1569 
Q 847 1681 609 1914 
Q 372 2147 372 2553 
Q 372 3047 722 3315 
Q 1072 3584 1716 3584 
Q 2034 3584 2315 3537 
Q 2597 3491 2834 3397 
z
" transform="scale(0.015625)"/>
     </defs>
     <use xlink:href="#DejaVuSans-41"/>
     <use xlink:href="#DejaVuSans-76" x="62.533203"/>
     <use xlink:href="#DejaVuSans-65" x="121.712891"/>
     <use xlink:href="#DejaVuSans-72" x="183.236328"/>
     <use xlink:href="#DejaVuSans-61" x="224.349609"/>
     <use xlink:href="#DejaVuSans-67" x="285.628906"/>
     <use xlink:href="#DejaVuSans-65" x="349.105469"/>
     <use xlink:href="#DejaVuSans-20" x="410.628906"/>
     <use xlink:href="#DejaVuSans-61" x="442.416016"/>
     <use xlink:href="#DejaVuSans-63" x="503.695312"/>
     <use xlink:href="#DejaVuSans-74" x="558.675781"/>
     <use xlink:href="#DejaVuSans-69" x="597.884766"/>
     <use xlink:href="#DejaVuSans-6f" x="625.667969"/>
     <use xlink:href="#DejaVuSans-6e" x="686.849609"/>
     <use xlink:href="#DejaVuSans-20" x="750.228516"/>
     <use xlink:href="#DejaVuSans-70" x="782.015625"/>
     <use xlink:href="#DejaVuSans-65" x="845.492188"/>
     <use xlink:href="#DejaVuSans-72" x="907.015625"/>
     <use xlink:href="#DejaVuSans-20" x="948.128906"/>
     <use xlink:href="#DejaVuSans-72" x="979.916016"/>
     <use xlink:href="#DejaVuSans-6f" x="1018.779297"/>
     <use xlink:href="#DejaVuSans-75" x="1079.960938"/>
     <use xlink:href="#DejaVuSans-6e" x="1143.339844"/>
     <use xlink:href="#DejaVuSans-64" x="1206.71875"/>
     <use xlink:href="#DejaVuSans-20" x="1270.195312"/>
     <use xlink:href="#DejaVuSans-2d" x="1301.982422"/>
     <use xlink:href="#DejaVuSans-20" x="1338.066406"/>
     <use xlink:href="#DejaVuSans-32" x="1369.853516"/>
     <use xlink:href="#DejaVuSans-38" x="1433.476562"/>
     <use xlink:href="#DejaVuSans-31" x="1497.099609"/>
     <use xlink:href="#DejaVuSans-37" x="1560.722656"/>
     <use xlink:href="#DejaVuSans-33" x="1624.345703"/>
     <use xlink:href="#DejaVuSans-39" x="1687.96875"/>
     <use xlink:href="#DejaVuSans-33" x="1751.591797"/>
     <use xlink:href="#DejaVuSans-31" x="1815.214844"/>
     <use xlink:href="#DejaVuSans-2d" x="1878.837891"/>
     <use xlink:href="#DejaVuSans-32" x="1914.921875"/>
     <use xlink:href="#DejaVuSans-39" x="1978.544922"/>
     <use xlink:href="#DejaVuSans-30" x="2042.167969"/>
     <use xlink:href="#DejaVuSans-31" x="2105.791016"/>
     <use xlink:href="#DejaVuSans-34" x="2169.414062"/>
     <use xlink:href="#DejaVuSans-32" x="2233.037109"/>
     <use xlink:href="#DejaVuSans-30" x="2296.660156"/>
     <use xlink:href="#DejaVuSans-32" x="2360.283203"/>
     <use xlink:href="#DejaVuSans-20" x="2423.90625"/>
     <use xlink:href="#DejaVuSans-2d" x="2455.693359"/>
     <use xlink:href="#DejaVuSans-20" x="2491.777344"/>
     <use xlink:href="#DejaVuSans-35" x="2523.564453"/>
     <use xlink:href="#DejaVuSans-30" x="2587.1875"/>
     <use xlink:href="#DejaVuSans-20" x="2650.810547"/>
     <use xlink:href="#DejaVuSans-67" x="2682.597656"/>
     <use xlink:href="#DejaVuSans-61" x="2746.074219"/>
     <use xlink:href="#DejaVuSans-6d" x="2807.353516"/>
     <use xlink:href="#DejaVuSans-65" x="2904.765625"/>
     <use xlink:href="#DejaVuSans-73" x="2966.289062"/>
    </g>
   </g>
   <g id="legend_1">
    <g id="patch_7">
     <path d="M 54.81 92.1525 
L 140.477188 92.1525 
Q 142.477188 92.1525 142.477188 90.1525 
L 142.477188 32.44 
Q 142.477188 30.44 140.477188 30.44 
L 54.81 30.44 
Q 52.81 30.44 52.81 32.44 
L 52.81 90.1525 
Q 52.81 92.1525 54.81 92.1525 
z
" style="fill: #ffffff; opacity: 0.8; stroke: #cccccc; stroke-linejoin: miter"/>
    </g>
    <g id="line2d_19">
     <path d="M 56.81 38.538438 
L 66.81 38.538438 
L 76.81 38.538438 
" style="fill: none; stroke: #0000ff; stroke-linecap: square"/>
     <g>
      <use xlink:href="#md787fd5994" x="66.81" y="38.538438" style="fill: #0000ff"/>
     </g>
    </g>
    <g id="text_18">
     <!-- LLM -->
     <g transform="translate(84.81 42.038438) scale(0.1 -0.1)">
      <defs>
       <path id="DejaVuSans-4c" d="M 628 4666 
L 1259 4666 
L 1259 531 
L 3531 531 
L 3531 0 
L 628 0 
L 628 4666 
z
" transform="scale(0.015625)"/>
       <path id="DejaVuSans-4d" d="M 628 4666 
L 1569 4666 
L 2759 1491 
L 3956 4666 
L 4897 4666 
L 4897 0 
L 4281 0 
L 4281 4097 
L 3078 897 
L 2444 897 
L 1241 4097 
L 1241 0 
L 628 0 
L 628 4666 
z
" transform="scale(0.015625)"/>
      </defs>
      <use xlink:href="#DejaVuSans-4c"/>
      <use xlink:href="#DejaVuSans-4c" x="55.712891"/>
      <use xlink:href="#DejaVuSans-4d" x="111.425781"/>
     </g>
    </g>
    <g id="line2d_20">
     <path d="M 56.81 53.216563 
L 66.81 53.216563 
L 76.81 53.216563 
" style="fill: none; stroke: #0000ff; stroke-opacity: 0.5; stroke-width: 0.5; stroke-linecap: square"/>
     <g>
      <use xlink:href="#mc349a1fd3b" x="66.81" y="53.216563" style="fill: #0000ff; fill-opacity: 0.5"/>
     </g>
    </g>
    <g id="text_19">
     <!-- LLM mean -->
     <g transform="translate(84.81 56.716563) scale(0.1 -0.1)">
      <use xlink:href="#DejaVuSans-4c"/>
      <use xlink:href="#DejaVuSans-4c" x="55.712891"/>
      <use xlink:href="#DejaVuSans-4d" x="111.425781"/>
      <use xlink:href="#DejaVuSans-20" x="197.705078"/>
      <use xlink:href="#DejaVuSans-6d" x="229.492188"/>
      <use xlink:href="#DejaVuSans-65" x="326.904297"/>
      <use xlink:href="#DejaVuSans-61" x="388.427734"/>
      <use xlink:href="#DejaVuSans-6e" x="449.707031"/>
     </g>
    </g>
    <g id="line2d_21">
     <path d="M 56.81 67.894688 
L 66.81 67.894688 
L 76.81 67.894688 
" style="fill: none; stroke: #ff0000; stroke-width: 0.5; stroke-linecap: square"/>
     <g>
      <use xlink:href="#m4b24a2eefb" x="66.81" y="67.894688" style="fill: #ff0000"/>
     </g>
    </g>
    <g id="text_20">
     <!-- RND -->
     <g transform="translate(84.81 71.394688) scale(0.1 -0.1)">
      <defs>
       <path id="DejaVuSans-52" d="M 2841 2188 
Q 3044 2119 3236 1894 
Q 3428 1669 3622 1275 
L 4263 0 
L 3584 0 
L 2988 1197 
Q 2756 1666 2539 1819 
Q 2322 1972 1947 1972 
L 1259 1972 
L 1259 0 
L 628 0 
L 628 4666 
L 2053 4666 
Q 2853 4666 3247 4331 
Q 3641 3997 3641 3322 
Q 3641 2881 3436 2590 
Q 3231 2300 2841 2188 
z
M 1259 4147 
L 1259 2491 
L 2053 2491 
Q 2509 2491 2742 2702 
Q 2975 2913 2975 3322 
Q 2975 3731 2742 3939 
Q 2509 4147 2053 4147 
L 1259 4147 
z
" transform="scale(0.015625)"/>
       <path id="DejaVuSans-4e" d="M 628 4666 
L 1478 4666 
L 3547 763 
L 3547 4666 
L 4159 4666 
L 4159 0 
L 3309 0 
L 1241 3903 
L 1241 0 
L 628 0 
L 628 4666 
z
" transform="scale(0.015625)"/>
       <path id="DejaVuSans-44" d="M 1259 4147 
L 1259 519 
L 2022 519 
Q 2988 519 3436 956 
Q 3884 1394 3884 2338 
Q 3884 3275 3436 3711 
Q 2988 4147 2022 4147 
L 1259 4147 
z
M 628 4666 
L 1925 4666 
Q 3281 4666 3915 4102 
Q 4550 3538 4550 2338 
Q 4550 1131 3912 565 
Q 3275 0 1925 0 
L 628 0 
L 628 4666 
z
" transform="scale(0.015625)"/>
      </defs>
      <use xlink:href="#DejaVuSans-52"/>
      <use xlink:href="#DejaVuSans-4e" x="69.482422"/>
      <use xlink:href="#DejaVuSans-44" x="144.287109"/>
     </g>
    </g>
    <g id="line2d_22">
     <path d="M 56.81 82.572813 
L 66.81 82.572813 
L 76.81 82.572813 
" style="fill: none; stroke: #ff0000; stroke-opacity: 0.5; stroke-width: 0.25; stroke-linecap: square"/>
     <g>
      <use xlink:href="#mea4a795bb9" x="66.81" y="82.572813" style="fill: #ff0000; fill-opacity: 0.5"/>
     </g>
    </g>
    <g id="text_21">
     <!-- RND mean -->
     <g transform="translate(84.81 86.072813) scale(0.1 -0.1)">
      <use xlink:href="#DejaVuSans-52"/>
      <use xlink:href="#DejaVuSans-4e" x="69.482422"/>
      <use xlink:href="#DejaVuSans-44" x="144.287109"/>
      <use xlink:href="#DejaVuSans-20" x="221.289062"/>
      <use xlink:href="#DejaVuSans-6d" x="253.076172"/>
      <use xlink:href="#DejaVuSans-65" x="350.488281"/>
      <use xlink:href="#DejaVuSans-61" x="412.011719"/>
      <use xlink:href="#DejaVuSans-6e" x="473.291016"/>
     </g>
    </g>
   </g>
  </g>
 </g>
 <defs>
  <clipPath id="p061a65619e">
   <rect x="47.81" y="25.44" width="402.19" height="278.2"/>
  </clipPath>
 </defs>
</svg>
