<?xml version="1.0" encoding="utf-8" standalone="no"?>
<!DOCTYPE svg PUBLIC "-//W3C//DTD SVG 1.1//EN"
  "http://www.w3.org/Graphics/SVG/1.1/DTD/svg11.dtd">
<svg xmlns:xlink="http://www.w3.org/1999/xlink" width="460.8pt" height="345.6pt" viewBox="0 0 460.8 345.6" xmlns="http://www.w3.org/2000/svg" version="1.1">
 <metadata>
  <rdf:RDF xmlns:dc="http://purl.org/dc/elements/1.1/" xmlns:cc="http://creativecommons.org/ns#" xmlns:rdf="http://www.w3.org/1999/02/22-rdf-syntax-ns#">
   <cc:Work>
    <dc:type rdf:resource="http://purl.org/dc/dcmitype/StillImage"/>
    <dc:date>2024-04-24T09:49:00.459304</dc:date>
    <dc:format>image/svg+xml</dc:format>
    <dc:creator>
     <cc:Agent>
      <dc:title>Matplotlib v3.8.0, https://matplotlib.org/</dc:title>
     </cc:Agent>
    </dc:creator>
   </cc:Work>
  </rdf:RDF>
 </metadata>
 <defs>
  <style type="text/css">*{stroke-linejoin: round; stroke-linecap: butt}</style>
 </defs>
 <g id="figure_1">
  <g id="patch_1">
   <path d="M 0 345.6 
L 460.8 345.6 
L 460.8 0 
L 0 0 
z
" style="fill: #ffffff"/>
  </g>
  <g id="axes_1">
   <g id="patch_2">
    <path d="M 47.81 303.64 
L 450 303.64 
L 450 25.44 
L 47.81 25.44 
z
" style="fill: #ffffff"/>
   </g>
   <g id="PolyCollection_1">
    <defs>
     <path id="m790e57e0b3" d="M 66.091364 -241.758182 
L 66.091364 -241.758182 
L 69.784568 -247.863947 
L 73.477773 -256.12799 
L 77.170978 -251.921332 
L 80.864183 -247.564039 
L 84.557388 -243.095827 
L 88.250592 -239.836779 
L 91.943797 -236.738185 
L 95.637002 -233.84902 
L 99.330207 -232.157001 
L 103.023411 -231.181005 
L 106.716616 -229.623592 
L 110.409821 -228.268013 
L 114.103026 -226.891852 
L 117.79623 -225.564392 
L 121.489435 -224.912897 
L 125.18264 -223.803814 
L 128.875845 -222.75612 
L 132.56905 -222.056882 
L 136.262254 -221.122104 
L 139.955459 -220.620013 
L 143.648664 -219.817308 
L 147.341869 -219.401067 
L 151.035073 -218.825412 
L 154.728278 -218.287931 
L 158.421483 -217.665472 
L 162.114688 -217.369556 
L 165.807893 -216.753789 
L 169.501097 -216.339637 
L 173.194302 -215.773069 
L 176.887507 -215.254823 
L 180.580712 -214.71303 
L 184.273916 -214.285894 
L 187.967121 -214.905619 
L 191.660326 -214.952974 
L 195.353531 -216.163411 
L 199.046736 -216.636152 
L 202.73994 -217.677054 
L 206.433145 -218.326512 
L 210.12635 -220.296807 
L 213.819555 -221.711308 
L 217.512759 -223.352016 
L 221.205964 -225.203411 
L 224.899169 -227.626762 
L 228.592374 -229.820463 
L 232.285579 -232.545334 
L 235.978783 -235.015639 
L 239.671988 -237.273404 
L 243.365193 -238.75587 
L 247.058398 -240.70675 
L 250.751602 -242.811 
L 254.444807 -245.692292 
L 258.138012 -247.465503 
L 261.831217 -249.123069 
L 265.524421 -251.199411 
L 269.217626 -253.138177 
L 272.910831 -254.476643 
L 276.604036 -256.201386 
L 280.297241 -258.314783 
L 283.990445 -260.54837 
L 287.68365 -262.172901 
L 291.376855 -263.708301 
L 295.07006 -264.957806 
L 298.763264 -266.997129 
L 302.456469 -268.102238 
L 306.149674 -269.738747 
L 309.842879 -271.291677 
L 313.536084 -272.576434 
L 317.229288 -273.986874 
L 320.922493 -275.716965 
L 324.615698 -277.171076 
L 328.308903 -278.558024 
L 332.002107 -280.062775 
L 335.695312 -281.499191 
L 339.388517 -282.87197 
L 343.081722 -284.019651 
L 346.774927 -285.281742 
L 350.468131 -286.491481 
L 354.161336 -287.652054 
L 357.854541 -288.766372 
L 361.547746 -289.837104 
L 365.24095 -290.866706 
L 368.934155 -291.85744 
L 372.62736 -292.811394 
L 376.320565 -293.730505 
L 380.01377 -294.616568 
L 383.706974 -295.471253 
L 387.400179 -296.169754 
L 391.093384 -296.844567 
L 394.786589 -297.618704 
L 398.479793 -298.366912 
L 402.172998 -299.090391 
L 405.866203 -299.790266 
L 409.559408 -300.467591 
L 413.252612 -301.123362 
L 416.945817 -301.446284 
L 420.639022 -301.958856 
L 424.332227 -302.562213 
L 428.025432 -303.042488 
L 431.718636 -303.508379 
L 431.718636 -207.524494 
L 431.718636 -207.524494 
L 428.025432 -207.042103 
L 424.332227 -206.554744 
L 420.639022 -206.066224 
L 416.945817 -205.569549 
L 413.252612 -205.074954 
L 409.559408 -204.57295 
L 405.866203 -204.067604 
L 402.172998 -203.559095 
L 398.479793 -203.047633 
L 394.786589 -202.533458 
L 391.093384 -202.016843 
L 387.400179 -201.486527 
L 383.706974 -200.952195 
L 380.01377 -200.427745 
L 376.320565 -199.902222 
L 372.62736 -199.376139 
L 368.934155 -198.850074 
L 365.24095 -198.324691 
L 361.547746 -197.800741 
L 357.854541 -197.279083 
L 354.161336 -196.760697 
L 350.468131 -196.246701 
L 346.774927 -195.738376 
L 343.081722 -195.237191 
L 339.388517 -194.709461 
L 335.695312 -194.224839 
L 332.002107 -193.752966 
L 328.308903 -193.29642 
L 324.615698 -192.809308 
L 320.922493 -192.335815 
L 317.229288 -191.935814 
L 313.536084 -191.451053 
L 309.842879 -190.935025 
L 306.149674 -190.479325 
L 302.456469 -190.045399 
L 298.763264 -189.489575 
L 295.07006 -189.172929 
L 291.376855 -188.643136 
L 287.68365 -188.175057 
L 283.990445 -187.729327 
L 280.297241 -187.479547 
L 276.604036 -187.198363 
L 272.910831 -186.799466 
L 269.217626 -186.299746 
L 265.524421 -185.965614 
L 261.831217 -185.684878 
L 258.138012 -185.278167 
L 254.444807 -184.907708 
L 250.751602 -184.966183 
L 247.058398 -184.741686 
L 243.365193 -184.475224 
L 239.671988 -184.069475 
L 235.978783 -183.928191 
L 232.285579 -183.89514 
L 228.592374 -184.005396 
L 224.899169 -183.92547 
L 221.205964 -183.969443 
L 217.512759 -183.809889 
L 213.819555 -183.588292 
L 210.12635 -183.300284 
L 206.433145 -183.221367 
L 202.73994 -182.77864 
L 199.046736 -182.394904 
L 195.353531 -181.925882 
L 191.660326 -181.562663 
L 187.967121 -181.133953 
L 184.273916 -180.635648 
L 180.580712 -180.601288 
L 176.887507 -181.13028 
L 173.194302 -182.091416 
L 169.501097 -182.757417 
L 165.807893 -182.579977 
L 162.114688 -182.967817 
L 158.421483 -182.585437 
L 154.728278 -182.678906 
L 151.035073 -182.495497 
L 147.341869 -182.304704 
L 143.648664 -181.848477 
L 139.955459 -181.965442 
L 136.262254 -181.463351 
L 132.56905 -183.190774 
L 128.875845 -186.011557 
L 125.18264 -187.112763 
L 121.489435 -187.788921 
L 117.79623 -187.137426 
L 114.103026 -187.977759 
L 110.409821 -188.324715 
L 106.716616 -188.136408 
L 103.023411 -187.958499 
L 99.330207 -186.614635 
L 95.637002 -185.597041 
L 91.943797 -187.344543 
L 88.250592 -187.316987 
L 84.557388 -194.896901 
L 80.864183 -195.48687 
L 77.170978 -206.304122 
L 73.477773 -200.411404 
L 69.784568 -240.710598 
L 66.091364 -241.758182 
z
" style="stroke: #0000ff; stroke-opacity: 0.2"/>
    </defs>
    <g clip-path="url(#p85790a4267)">
     <use xlink:href="#m790e57e0b3" x="0" y="345.6" style="fill: #0000ff; fill-opacity: 0.2; stroke: #0000ff; stroke-opacity: 0.2"/>
    </g>
   </g>
   <g id="PolyCollection_2">
    <defs>
     <path id="ma662b5bb5e" d="M 66.091364 -206.350909 
L 66.091364 -206.350909 
L 69.784568 -210.541244 
L 73.477773 -206.350909 
L 77.170978 -203.60849 
L 80.864183 -202.486802 
L 84.557388 -200.417225 
L 88.250592 -198.757405 
L 91.943797 -200.641842 
L 95.637002 -199.606667 
L 99.330207 -198.58959 
L 103.023411 -201.127844 
L 106.716616 -200.346039 
L 110.409821 -199.666479 
L 114.103026 -199.930568 
L 117.79623 -201.830041 
L 121.489435 -200.860228 
L 125.18264 -200.148416 
L 128.875845 -201.066608 
L 132.56905 -200.679229 
L 136.262254 -199.958921 
L 139.955459 -199.674403 
L 143.648664 -198.995481 
L 147.341869 -199.458756 
L 151.035073 -199.232547 
L 154.728278 -198.638745 
L 158.421483 -198.738468 
L 162.114688 -198.231854 
L 165.807893 -198.332629 
L 169.501097 -197.995348 
L 173.194302 -199.122762 
L 176.887507 -198.95001 
L 180.580712 -199.257374 
L 184.273916 -199.284804 
L 187.967121 -200.117376 
L 191.660326 -199.63807 
L 195.353531 -199.505348 
L 199.046736 -199.054638 
L 202.73994 -199.357994 
L 206.433145 -199.892646 
L 210.12635 -199.478896 
L 213.819555 -199.363895 
L 217.512759 -199.416426 
L 221.205964 -199.024153 
L 224.899169 -199.083281 
L 228.592374 -198.711813 
L 232.285579 -199.183618 
L 235.978783 -199.412612 
L 239.671988 -199.122599 
L 243.365193 -198.918492 
L 247.058398 -198.966165 
L 250.751602 -198.874426 
L 254.444807 -198.613321 
L 258.138012 -199.013923 
L 261.831217 -198.761269 
L 265.524421 -199.194355 
L 269.217626 -198.904307 
L 272.910831 -198.666459 
L 276.604036 -198.373096 
L 280.297241 -198.149132 
L 283.990445 -198.217371 
L 287.68365 -198.162938 
L 291.376855 -198.225445 
L 295.07006 -198.081005 
L 298.763264 -197.940096 
L 302.456469 -197.80258 
L 306.149674 -197.863506 
L 309.842879 -198.052513 
L 313.536084 -197.860591 
L 317.229288 -197.914884 
L 320.922493 -197.864004 
L 324.615698 -197.736154 
L 328.308903 -197.526951 
L 332.002107 -197.321785 
L 335.695312 -197.37917 
L 339.388517 -197.187425 
L 343.081722 -197.07538 
L 346.774927 -196.921222 
L 350.468131 -196.985261 
L 354.161336 -197.046468 
L 357.854541 -197.10498 
L 361.547746 -197.555268 
L 365.24095 -197.372604 
L 368.934155 -197.530677 
L 372.62736 -197.346054 
L 376.320565 -197.175183 
L 380.01377 -197.938522 
L 383.706974 -197.898577 
L 387.400179 -197.86705 
L 391.093384 -197.722255 
L 394.786589 -197.54997 
L 398.479793 -197.441708 
L 402.172998 -197.414963 
L 405.866203 -197.467859 
L 409.559408 -197.378559 
L 413.252612 -197.246364 
L 416.945817 -197.116394 
L 420.639022 -197.49793 
L 424.332227 -197.545169 
L 428.025432 -197.786755 
L 431.718636 -198.140763 
L 431.718636 -165.699019 
L 431.718636 -165.699019 
L 428.025432 -165.559471 
L 424.332227 -165.400656 
L 420.639022 -165.247825 
L 416.945817 -165.108985 
L 413.252612 -165.086612 
L 409.559408 -165.064304 
L 405.866203 -164.978475 
L 402.172998 -164.814997 
L 398.479793 -164.678292 
L 394.786589 -165.244454 
L 391.093384 -165.534415 
L 387.400179 -165.517496 
L 383.706974 -166.314464 
L 380.01377 -166.181224 
L 376.320565 -166.134978 
L 372.62736 -166.460007 
L 368.934155 -166.661349 
L 365.24095 -166.47458 
L 361.547746 -166.563026 
L 357.854541 -166.40602 
L 354.161336 -166.226029 
L 350.468131 -166.042617 
L 346.774927 -165.855685 
L 343.081722 -166.37572 
L 339.388517 -166.281424 
L 335.695312 -166.654737 
L 332.002107 -166.461178 
L 328.308903 -166.56012 
L 324.615698 -166.66359 
L 320.922493 -166.568307 
L 317.229288 -166.404326 
L 313.536084 -166.19342 
L 309.842879 -166.181354 
L 306.149674 -165.942555 
L 302.456469 -165.718147 
L 298.763264 -165.602517 
L 295.07006 -165.48419 
L 291.376855 -165.363059 
L 287.68365 -165.117956 
L 283.990445 -164.914265 
L 280.297241 -164.656723 
L 276.604036 -164.619005 
L 272.910831 -164.873381 
L 269.217626 -164.841537 
L 265.524421 -164.948918 
L 261.831217 -167.292872 
L 258.138012 -167.305322 
L 254.444807 -167.008497 
L 250.751602 -167.014415 
L 247.058398 -166.795726 
L 243.365193 -166.50481 
L 239.671988 -166.369523 
L 235.978783 -166.366499 
L 232.285579 -166.015275 
L 228.592374 -165.656268 
L 224.899169 -166.025645 
L 221.205964 -165.683754 
L 217.512759 -166.075696 
L 213.819555 -165.716992 
L 210.12635 -165.423104 
L 206.433145 -165.599475 
L 202.73994 -165.157987 
L 199.046736 -164.705854 
L 195.353531 -165.424753 
L 191.660326 -165.08328 
L 187.967121 -165.275565 
L 184.273916 -169.272882 
L 180.580712 -168.869217 
L 176.887507 -168.391339 
L 173.194302 -168.05542 
L 169.501097 -167.613053 
L 165.807893 -167.400358 
L 162.114688 -166.885587 
L 158.421483 -166.88335 
L 154.728278 -166.313837 
L 151.035073 -167.52412 
L 147.341869 -167.059663 
L 143.648664 -166.343362 
L 139.955459 -167.744645 
L 136.262254 -167.219261 
L 132.56905 -168.894933 
L 128.875845 -171.731776 
L 125.18264 -170.897787 
L 121.489435 -170.743863 
L 117.79623 -171.755171 
L 114.103026 -179.531769 
L 110.409821 -178.795339 
L 106.716616 -178.634567 
L 103.023411 -178.465875 
L 99.330207 -177.693319 
L 95.637002 -179.373939 
L 91.943797 -179.181794 
L 88.250592 -177.814543 
L 84.557388 -178.563381 
L 80.864183 -179.865925 
L 77.170978 -186.33151 
L 73.477773 -186.118182 
L 69.784568 -181.927847 
L 66.091364 -206.350909 
z
" style="stroke: #ff0000; stroke-opacity: 0.1"/>
    </defs>
    <g clip-path="url(#p85790a4267)">
     <use xlink:href="#ma662b5bb5e" x="0" y="345.6" style="fill: #ff0000; fill-opacity: 0.1; stroke: #ff0000; stroke-opacity: 0.1"/>
    </g>
   </g>
   <g id="matplotlib.axis_1">
    <g id="xtick_1">
     <g id="line2d_1">
      <defs>
       <path id="m0699704424" d="M 0 0 
L 0 3.5 
" style="stroke: #000000; stroke-width: 0.8"/>
      </defs>
      <g>
       <use xlink:href="#m0699704424" x="66.091364" y="303.64" style="stroke: #000000; stroke-width: 0.8"/>
      </g>
     </g>
     <g id="text_1">
      <!-- 0 -->
      <g transform="translate(62.910114 318.238437) scale(0.1 -0.1)">
       <defs>
        <path id="DejaVuSans-30" d="M 2034 4250 
Q 1547 4250 1301 3770 
Q 1056 3291 1056 2328 
Q 1056 1369 1301 889 
Q 1547 409 2034 409 
Q 2525 409 2770 889 
Q 3016 1369 3016 2328 
Q 3016 3291 2770 3770 
Q 2525 4250 2034 4250 
z
M 2034 4750 
Q 2819 4750 3233 4129 
Q 3647 3509 3647 2328 
Q 3647 1150 3233 529 
Q 2819 -91 2034 -91 
Q 1250 -91 836 529 
Q 422 1150 422 2328 
Q 422 3509 836 4129 
Q 1250 4750 2034 4750 
z
" transform="scale(0.015625)"/>
       </defs>
       <use xlink:href="#DejaVuSans-30"/>
      </g>
     </g>
    </g>
    <g id="xtick_2">
     <g id="line2d_2">
      <g>
       <use xlink:href="#m0699704424" x="139.955459" y="303.64" style="stroke: #000000; stroke-width: 0.8"/>
      </g>
     </g>
     <g id="text_2">
      <!-- 20 -->
      <g transform="translate(133.592959 318.238437) scale(0.1 -0.1)">
       <defs>
        <path id="DejaVuSans-32" d="M 1228 531 
L 3431 531 
L 3431 0 
L 469 0 
L 469 531 
Q 828 903 1448 1529 
Q 2069 2156 2228 2338 
Q 2531 2678 2651 2914 
Q 2772 3150 2772 3378 
Q 2772 3750 2511 3984 
Q 2250 4219 1831 4219 
Q 1534 4219 1204 4116 
Q 875 4013 500 3803 
L 500 4441 
Q 881 4594 1212 4672 
Q 1544 4750 1819 4750 
Q 2544 4750 2975 4387 
Q 3406 4025 3406 3419 
Q 3406 3131 3298 2873 
Q 3191 2616 2906 2266 
Q 2828 2175 2409 1742 
Q 1991 1309 1228 531 
z
" transform="scale(0.015625)"/>
       </defs>
       <use xlink:href="#DejaVuSans-32"/>
       <use xlink:href="#DejaVuSans-30" x="63.623047"/>
      </g>
     </g>
    </g>
    <g id="xtick_3">
     <g id="line2d_3">
      <g>
       <use xlink:href="#m0699704424" x="213.819555" y="303.64" style="stroke: #000000; stroke-width: 0.8"/>
      </g>
     </g>
     <g id="text_3">
      <!-- 40 -->
      <g transform="translate(207.457055 318.238437) scale(0.1 -0.1)">
       <defs>
        <path id="DejaVuSans-34" d="M 2419 4116 
L 825 1625 
L 2419 1625 
L 2419 4116 
z
M 2253 4666 
L 3047 4666 
L 3047 1625 
L 3713 1625 
L 3713 1100 
L 3047 1100 
L 3047 0 
L 2419 0 
L 2419 1100 
L 313 1100 
L 313 1709 
L 2253 4666 
z
" transform="scale(0.015625)"/>
       </defs>
       <use xlink:href="#DejaVuSans-34"/>
       <use xlink:href="#DejaVuSans-30" x="63.623047"/>
      </g>
     </g>
    </g>
    <g id="xtick_4">
     <g id="line2d_4">
      <g>
       <use xlink:href="#m0699704424" x="287.68365" y="303.64" style="stroke: #000000; stroke-width: 0.8"/>
      </g>
     </g>
     <g id="text_4">
      <!-- 60 -->
      <g transform="translate(281.32115 318.238437) scale(0.1 -0.1)">
       <defs>
        <path id="DejaVuSans-36" d="M 2113 2584 
Q 1688 2584 1439 2293 
Q 1191 2003 1191 1497 
Q 1191 994 1439 701 
Q 1688 409 2113 409 
Q 2538 409 2786 701 
Q 3034 994 3034 1497 
Q 3034 2003 2786 2293 
Q 2538 2584 2113 2584 
z
M 3366 4563 
L 3366 3988 
Q 3128 4100 2886 4159 
Q 2644 4219 2406 4219 
Q 1781 4219 1451 3797 
Q 1122 3375 1075 2522 
Q 1259 2794 1537 2939 
Q 1816 3084 2150 3084 
Q 2853 3084 3261 2657 
Q 3669 2231 3669 1497 
Q 3669 778 3244 343 
Q 2819 -91 2113 -91 
Q 1303 -91 875 529 
Q 447 1150 447 2328 
Q 447 3434 972 4092 
Q 1497 4750 2381 4750 
Q 2619 4750 2861 4703 
Q 3103 4656 3366 4563 
z
" transform="scale(0.015625)"/>
       </defs>
       <use xlink:href="#DejaVuSans-36"/>
       <use xlink:href="#DejaVuSans-30" x="63.623047"/>
      </g>
     </g>
    </g>
    <g id="xtick_5">
     <g id="line2d_5">
      <g>
       <use xlink:href="#m0699704424" x="361.547746" y="303.64" style="stroke: #000000; stroke-width: 0.8"/>
      </g>
     </g>
     <g id="text_5">
      <!-- 80 -->
      <g transform="translate(355.185246 318.238437) scale(0.1 -0.1)">
       <defs>
        <path id="DejaVuSans-38" d="M 2034 2216 
Q 1584 2216 1326 1975 
Q 1069 1734 1069 1313 
Q 1069 891 1326 650 
Q 1584 409 2034 409 
Q 2484 409 2743 651 
Q 3003 894 3003 1313 
Q 3003 1734 2745 1975 
Q 2488 2216 2034 2216 
z
M 1403 2484 
Q 997 2584 770 2862 
Q 544 3141 544 3541 
Q 544 4100 942 4425 
Q 1341 4750 2034 4750 
Q 2731 4750 3128 4425 
Q 3525 4100 3525 3541 
Q 3525 3141 3298 2862 
Q 3072 2584 2669 2484 
Q 3125 2378 3379 2068 
Q 3634 1759 3634 1313 
Q 3634 634 3220 271 
Q 2806 -91 2034 -91 
Q 1263 -91 848 271 
Q 434 634 434 1313 
Q 434 1759 690 2068 
Q 947 2378 1403 2484 
z
M 1172 3481 
Q 1172 3119 1398 2916 
Q 1625 2713 2034 2713 
Q 2441 2713 2670 2916 
Q 2900 3119 2900 3481 
Q 2900 3844 2670 4047 
Q 2441 4250 2034 4250 
Q 1625 4250 1398 4047 
Q 1172 3844 1172 3481 
z
" transform="scale(0.015625)"/>
       </defs>
       <use xlink:href="#DejaVuSans-38"/>
       <use xlink:href="#DejaVuSans-30" x="63.623047"/>
      </g>
     </g>
    </g>
    <g id="xtick_6">
     <g id="line2d_6">
      <g>
       <use xlink:href="#m0699704424" x="435.411841" y="303.64" style="stroke: #000000; stroke-width: 0.8"/>
      </g>
     </g>
     <g id="text_6">
      <!-- 100 -->
      <g transform="translate(425.868091 318.238437) scale(0.1 -0.1)">
       <defs>
        <path id="DejaVuSans-31" d="M 794 531 
L 1825 531 
L 1825 4091 
L 703 3866 
L 703 4441 
L 1819 4666 
L 2450 4666 
L 2450 531 
L 3481 531 
L 3481 0 
L 794 0 
L 794 531 
z
" transform="scale(0.015625)"/>
       </defs>
       <use xlink:href="#DejaVuSans-31"/>
       <use xlink:href="#DejaVuSans-30" x="63.623047"/>
       <use xlink:href="#DejaVuSans-30" x="127.246094"/>
      </g>
     </g>
    </g>
    <g id="text_7">
     <!-- Iteration -->
     <g transform="translate(227.696406 331.916562) scale(0.1 -0.1)">
      <defs>
       <path id="DejaVuSans-49" d="M 628 4666 
L 1259 4666 
L 1259 0 
L 628 0 
L 628 4666 
z
" transform="scale(0.015625)"/>
       <path id="DejaVuSans-74" d="M 1172 4494 
L 1172 3500 
L 2356 3500 
L 2356 3053 
L 1172 3053 
L 1172 1153 
Q 1172 725 1289 603 
Q 1406 481 1766 481 
L 2356 481 
L 2356 0 
L 1766 0 
Q 1100 0 847 248 
Q 594 497 594 1153 
L 594 3053 
L 172 3053 
L 172 3500 
L 594 3500 
L 594 4494 
L 1172 4494 
z
" transform="scale(0.015625)"/>
       <path id="DejaVuSans-65" d="M 3597 1894 
L 3597 1613 
L 953 1613 
Q 991 1019 1311 708 
Q 1631 397 2203 397 
Q 2534 397 2845 478 
Q 3156 559 3463 722 
L 3463 178 
Q 3153 47 2828 -22 
Q 2503 -91 2169 -91 
Q 1331 -91 842 396 
Q 353 884 353 1716 
Q 353 2575 817 3079 
Q 1281 3584 2069 3584 
Q 2775 3584 3186 3129 
Q 3597 2675 3597 1894 
z
M 3022 2063 
Q 3016 2534 2758 2815 
Q 2500 3097 2075 3097 
Q 1594 3097 1305 2825 
Q 1016 2553 972 2059 
L 3022 2063 
z
" transform="scale(0.015625)"/>
       <path id="DejaVuSans-72" d="M 2631 2963 
Q 2534 3019 2420 3045 
Q 2306 3072 2169 3072 
Q 1681 3072 1420 2755 
Q 1159 2438 1159 1844 
L 1159 0 
L 581 0 
L 581 3500 
L 1159 3500 
L 1159 2956 
Q 1341 3275 1631 3429 
Q 1922 3584 2338 3584 
Q 2397 3584 2469 3576 
Q 2541 3569 2628 3553 
L 2631 2963 
z
" transform="scale(0.015625)"/>
       <path id="DejaVuSans-61" d="M 2194 1759 
Q 1497 1759 1228 1600 
Q 959 1441 959 1056 
Q 959 750 1161 570 
Q 1363 391 1709 391 
Q 2188 391 2477 730 
Q 2766 1069 2766 1631 
L 2766 1759 
L 2194 1759 
z
M 3341 1997 
L 3341 0 
L 2766 0 
L 2766 531 
Q 2569 213 2275 61 
Q 1981 -91 1556 -91 
Q 1019 -91 701 211 
Q 384 513 384 1019 
Q 384 1609 779 1909 
Q 1175 2209 1959 2209 
L 2766 2209 
L 2766 2266 
Q 2766 2663 2505 2880 
Q 2244 3097 1772 3097 
Q 1472 3097 1187 3025 
Q 903 2953 641 2809 
L 641 3341 
Q 956 3463 1253 3523 
Q 1550 3584 1831 3584 
Q 2591 3584 2966 3190 
Q 3341 2797 3341 1997 
z
" transform="scale(0.015625)"/>
       <path id="DejaVuSans-69" d="M 603 3500 
L 1178 3500 
L 1178 0 
L 603 0 
L 603 3500 
z
M 603 4863 
L 1178 4863 
L 1178 4134 
L 603 4134 
L 603 4863 
z
" transform="scale(0.015625)"/>
       <path id="DejaVuSans-6f" d="M 1959 3097 
Q 1497 3097 1228 2736 
Q 959 2375 959 1747 
Q 959 1119 1226 758 
Q 1494 397 1959 397 
Q 2419 397 2687 759 
Q 2956 1122 2956 1747 
Q 2956 2369 2687 2733 
Q 2419 3097 1959 3097 
z
M 1959 3584 
Q 2709 3584 3137 3096 
Q 3566 2609 3566 1747 
Q 3566 888 3137 398 
Q 2709 -91 1959 -91 
Q 1206 -91 779 398 
Q 353 888 353 1747 
Q 353 2609 779 3096 
Q 1206 3584 1959 3584 
z
" transform="scale(0.015625)"/>
       <path id="DejaVuSans-6e" d="M 3513 2113 
L 3513 0 
L 2938 0 
L 2938 2094 
Q 2938 2591 2744 2837 
Q 2550 3084 2163 3084 
Q 1697 3084 1428 2787 
Q 1159 2491 1159 1978 
L 1159 0 
L 581 0 
L 581 3500 
L 1159 3500 
L 1159 2956 
Q 1366 3272 1645 3428 
Q 1925 3584 2291 3584 
Q 2894 3584 3203 3211 
Q 3513 2838 3513 2113 
z
" transform="scale(0.015625)"/>
      </defs>
      <use xlink:href="#DejaVuSans-49"/>
      <use xlink:href="#DejaVuSans-74" x="29.492188"/>
      <use xlink:href="#DejaVuSans-65" x="68.701172"/>
      <use xlink:href="#DejaVuSans-72" x="130.224609"/>
      <use xlink:href="#DejaVuSans-61" x="171.337891"/>
      <use xlink:href="#DejaVuSans-74" x="232.617188"/>
      <use xlink:href="#DejaVuSans-69" x="271.826172"/>
      <use xlink:href="#DejaVuSans-6f" x="299.609375"/>
      <use xlink:href="#DejaVuSans-6e" x="360.791016"/>
     </g>
    </g>
   </g>
   <g id="matplotlib.axis_2">
    <g id="ytick_1">
     <g id="line2d_7">
      <defs>
       <path id="mce9f26db72" d="M 0 0 
L -3.5 0 
" style="stroke: #000000; stroke-width: 0.8"/>
      </defs>
      <g>
       <use xlink:href="#mce9f26db72" x="47.81" y="290.994545" style="stroke: #000000; stroke-width: 0.8"/>
      </g>
     </g>
     <g id="text_8">
      <!-- 0.0 -->
      <g transform="translate(24.906875 294.793764) scale(0.1 -0.1)">
       <defs>
        <path id="DejaVuSans-2e" d="M 684 794 
L 1344 794 
L 1344 0 
L 684 0 
L 684 794 
z
" transform="scale(0.015625)"/>
       </defs>
       <use xlink:href="#DejaVuSans-30"/>
       <use xlink:href="#DejaVuSans-2e" x="63.623047"/>
       <use xlink:href="#DejaVuSans-30" x="95.410156"/>
      </g>
     </g>
    </g>
    <g id="ytick_2">
     <g id="line2d_8">
      <g>
       <use xlink:href="#mce9f26db72" x="47.81" y="240.412727" style="stroke: #000000; stroke-width: 0.8"/>
      </g>
     </g>
     <g id="text_9">
      <!-- 0.2 -->
      <g transform="translate(24.906875 244.211946) scale(0.1 -0.1)">
       <use xlink:href="#DejaVuSans-30"/>
       <use xlink:href="#DejaVuSans-2e" x="63.623047"/>
       <use xlink:href="#DejaVuSans-32" x="95.410156"/>
      </g>
     </g>
    </g>
    <g id="ytick_3">
     <g id="line2d_9">
      <g>
       <use xlink:href="#mce9f26db72" x="47.81" y="189.830909" style="stroke: #000000; stroke-width: 0.8"/>
      </g>
     </g>
     <g id="text_10">
      <!-- 0.4 -->
      <g transform="translate(24.906875 193.630128) scale(0.1 -0.1)">
       <use xlink:href="#DejaVuSans-30"/>
       <use xlink:href="#DejaVuSans-2e" x="63.623047"/>
       <use xlink:href="#DejaVuSans-34" x="95.410156"/>
      </g>
     </g>
    </g>
    <g id="ytick_4">
     <g id="line2d_10">
      <g>
       <use xlink:href="#mce9f26db72" x="47.81" y="139.249091" style="stroke: #000000; stroke-width: 0.8"/>
      </g>
     </g>
     <g id="text_11">
      <!-- 0.6 -->
      <g transform="translate(24.906875 143.04831) scale(0.1 -0.1)">
       <use xlink:href="#DejaVuSans-30"/>
       <use xlink:href="#DejaVuSans-2e" x="63.623047"/>
       <use xlink:href="#DejaVuSans-36" x="95.410156"/>
      </g>
     </g>
    </g>
    <g id="ytick_5">
     <g id="line2d_11">
      <g>
       <use xlink:href="#mce9f26db72" x="47.81" y="88.667273" style="stroke: #000000; stroke-width: 0.8"/>
      </g>
     </g>
     <g id="text_12">
      <!-- 0.8 -->
      <g transform="translate(24.906875 92.466491) scale(0.1 -0.1)">
       <use xlink:href="#DejaVuSans-30"/>
       <use xlink:href="#DejaVuSans-2e" x="63.623047"/>
       <use xlink:href="#DejaVuSans-38" x="95.410156"/>
      </g>
     </g>
    </g>
    <g id="ytick_6">
     <g id="line2d_12">
      <g>
       <use xlink:href="#mce9f26db72" x="47.81" y="38.085455" style="stroke: #000000; stroke-width: 0.8"/>
      </g>
     </g>
     <g id="text_13">
      <!-- 1.0 -->
      <g transform="translate(24.906875 41.884673) scale(0.1 -0.1)">
       <use xlink:href="#DejaVuSans-31"/>
       <use xlink:href="#DejaVuSans-2e" x="63.623047"/>
       <use xlink:href="#DejaVuSans-30" x="95.410156"/>
      </g>
     </g>
    </g>
    <g id="text_14">
     <!-- Avg action -->
     <g transform="translate(18.827187 190.779844) rotate(-90) scale(0.1 -0.1)">
      <defs>
       <path id="DejaVuSans-41" d="M 2188 4044 
L 1331 1722 
L 3047 1722 
L 2188 4044 
z
M 1831 4666 
L 2547 4666 
L 4325 0 
L 3669 0 
L 3244 1197 
L 1141 1197 
L 716 0 
L 50 0 
L 1831 4666 
z
" transform="scale(0.015625)"/>
       <path id="DejaVuSans-76" d="M 191 3500 
L 800 3500 
L 1894 563 
L 2988 3500 
L 3597 3500 
L 2284 0 
L 1503 0 
L 191 3500 
z
" transform="scale(0.015625)"/>
       <path id="DejaVuSans-67" d="M 2906 1791 
Q 2906 2416 2648 2759 
Q 2391 3103 1925 3103 
Q 1463 3103 1205 2759 
Q 947 2416 947 1791 
Q 947 1169 1205 825 
Q 1463 481 1925 481 
Q 2391 481 2648 825 
Q 2906 1169 2906 1791 
z
M 3481 434 
Q 3481 -459 3084 -895 
Q 2688 -1331 1869 -1331 
Q 1566 -1331 1297 -1286 
Q 1028 -1241 775 -1147 
L 775 -588 
Q 1028 -725 1275 -790 
Q 1522 -856 1778 -856 
Q 2344 -856 2625 -561 
Q 2906 -266 2906 331 
L 2906 616 
Q 2728 306 2450 153 
Q 2172 0 1784 0 
Q 1141 0 747 490 
Q 353 981 353 1791 
Q 353 2603 747 3093 
Q 1141 3584 1784 3584 
Q 2172 3584 2450 3431 
Q 2728 3278 2906 2969 
L 2906 3500 
L 3481 3500 
L 3481 434 
z
" transform="scale(0.015625)"/>
       <path id="DejaVuSans-20" transform="scale(0.015625)"/>
       <path id="DejaVuSans-63" d="M 3122 3366 
L 3122 2828 
Q 2878 2963 2633 3030 
Q 2388 3097 2138 3097 
Q 1578 3097 1268 2742 
Q 959 2388 959 1747 
Q 959 1106 1268 751 
Q 1578 397 2138 397 
Q 2388 397 2633 464 
Q 2878 531 3122 666 
L 3122 134 
Q 2881 22 2623 -34 
Q 2366 -91 2075 -91 
Q 1284 -91 818 406 
Q 353 903 353 1747 
Q 353 2603 823 3093 
Q 1294 3584 2113 3584 
Q 2378 3584 2631 3529 
Q 2884 3475 3122 3366 
z
" transform="scale(0.015625)"/>
      </defs>
      <use xlink:href="#DejaVuSans-41"/>
      <use xlink:href="#DejaVuSans-76" x="62.533203"/>
      <use xlink:href="#DejaVuSans-67" x="121.712891"/>
      <use xlink:href="#DejaVuSans-20" x="185.189453"/>
      <use xlink:href="#DejaVuSans-61" x="216.976562"/>
      <use xlink:href="#DejaVuSans-63" x="278.255859"/>
      <use xlink:href="#DejaVuSans-74" x="333.236328"/>
      <use xlink:href="#DejaVuSans-69" x="372.445312"/>
      <use xlink:href="#DejaVuSans-6f" x="400.228516"/>
      <use xlink:href="#DejaVuSans-6e" x="461.410156"/>
     </g>
    </g>
   </g>
   <g id="line2d_13">
    <path d="M 66.091364 103.841818 
L 69.784568 98.783636 
L 73.477773 149.365455 
L 77.170978 113.958182 
L 80.864183 154.423636 
L 84.557388 139.249091 
L 88.250592 164.54 
L 91.943797 144.307273 
L 95.637002 154.423636 
L 99.330207 139.249091 
L 103.023411 134.190909 
L 106.716616 144.307273 
L 110.409821 144.307273 
L 114.103026 149.365455 
L 117.79623 154.423636 
L 121.489435 139.249091 
L 125.18264 154.423636 
L 128.875845 159.481818 
L 132.56905 174.656364 
L 136.262254 169.598182 
L 139.955459 144.307273 
L 143.648664 154.423636 
L 147.341869 144.307273 
L 151.035073 149.365455 
L 154.728278 149.365455 
L 158.421483 154.423636 
L 162.114688 144.307273 
L 165.807893 159.481818 
L 169.501097 149.365455 
L 173.194302 164.54 
L 176.887507 169.598182 
L 180.580712 164.54 
L 184.273916 154.423636 
L 187.967121 129.132727 
L 191.660326 139.249091 
L 195.353531 119.016364 
L 199.046736 129.132727 
L 202.73994 119.016364 
L 206.433145 124.074545 
L 210.12635 103.841818 
L 213.819555 108.9 
L 217.512759 103.841818 
L 221.205964 98.783636 
L 224.899169 88.667273 
L 228.592374 88.667273 
L 232.285579 78.550909 
L 235.978783 78.550909 
L 239.671988 78.550909 
L 243.365193 88.667273 
L 247.058398 78.550909 
L 250.751602 73.492727 
L 254.444807 58.318182 
L 258.138012 73.492727 
L 261.831217 73.492727 
L 265.524421 63.376364 
L 269.217626 63.376364 
L 272.910831 73.492727 
L 276.604036 63.376364 
L 280.297241 53.26 
L 283.990445 48.201818 
L 287.68365 58.318182 
L 291.376855 58.318182 
L 295.07006 63.376364 
L 298.763264 43.143636 
L 302.456469 63.376364 
L 306.149674 48.201818 
L 309.842879 48.201818 
L 313.536084 53.26 
L 317.229288 48.201818 
L 320.922493 38.085455 
L 324.615698 43.143636 
L 328.308903 43.143636 
L 332.002107 38.085455 
L 335.695312 38.085455 
L 339.388517 38.085455 
L 343.081722 43.143636 
L 346.774927 38.085455 
L 350.468131 38.085455 
L 354.161336 38.085455 
L 357.854541 38.085455 
L 361.547746 38.085455 
L 365.24095 38.085455 
L 368.934155 38.085455 
L 372.62736 38.085455 
L 376.320565 38.085455 
L 380.01377 38.085455 
L 383.706974 38.085455 
L 387.400179 43.143636 
L 391.093384 43.143636 
L 394.786589 38.085455 
L 398.479793 38.085455 
L 402.172998 38.085455 
L 405.866203 38.085455 
L 409.559408 38.085455 
L 413.252612 38.085455 
L 416.945817 53.26 
L 420.639022 43.143636 
L 424.332227 38.085455 
L 428.025432 43.143636 
L 431.718636 43.143636 
" clip-path="url(#p85790a4267)" style="fill: none; stroke: #0000ff; stroke-linecap: square"/>
    <defs>
     <path id="m4204e81148" d="M -0.49999 0.49999 
L 0.50001 0.49999 
L 0.50001 -0.50001 
L -0.49999 -0.50001 
z
"/>
    </defs>
    <g clip-path="url(#p85790a4267)">
     <use xlink:href="#m4204e81148" x="66.091364" y="103.841818" style="fill: #0000ff"/>
     <use xlink:href="#m4204e81148" x="69.784568" y="98.783636" style="fill: #0000ff"/>
     <use xlink:href="#m4204e81148" x="73.477773" y="149.365455" style="fill: #0000ff"/>
     <use xlink:href="#m4204e81148" x="77.170978" y="113.958182" style="fill: #0000ff"/>
     <use xlink:href="#m4204e81148" x="80.864183" y="154.423636" style="fill: #0000ff"/>
     <use xlink:href="#m4204e81148" x="84.557388" y="139.249091" style="fill: #0000ff"/>
     <use xlink:href="#m4204e81148" x="88.250592" y="164.54" style="fill: #0000ff"/>
     <use xlink:href="#m4204e81148" x="91.943797" y="144.307273" style="fill: #0000ff"/>
     <use xlink:href="#m4204e81148" x="95.637002" y="154.423636" style="fill: #0000ff"/>
     <use xlink:href="#m4204e81148" x="99.330207" y="139.249091" style="fill: #0000ff"/>
     <use xlink:href="#m4204e81148" x="103.023411" y="134.190909" style="fill: #0000ff"/>
     <use xlink:href="#m4204e81148" x="106.716616" y="144.307273" style="fill: #0000ff"/>
     <use xlink:href="#m4204e81148" x="110.409821" y="144.307273" style="fill: #0000ff"/>
     <use xlink:href="#m4204e81148" x="114.103026" y="149.365455" style="fill: #0000ff"/>
     <use xlink:href="#m4204e81148" x="117.79623" y="154.423636" style="fill: #0000ff"/>
     <use xlink:href="#m4204e81148" x="121.489435" y="139.249091" style="fill: #0000ff"/>
     <use xlink:href="#m4204e81148" x="125.18264" y="154.423636" style="fill: #0000ff"/>
     <use xlink:href="#m4204e81148" x="128.875845" y="159.481818" style="fill: #0000ff"/>
     <use xlink:href="#m4204e81148" x="132.56905" y="174.656364" style="fill: #0000ff"/>
     <use xlink:href="#m4204e81148" x="136.262254" y="169.598182" style="fill: #0000ff"/>
     <use xlink:href="#m4204e81148" x="139.955459" y="144.307273" style="fill: #0000ff"/>
     <use xlink:href="#m4204e81148" x="143.648664" y="154.423636" style="fill: #0000ff"/>
     <use xlink:href="#m4204e81148" x="147.341869" y="144.307273" style="fill: #0000ff"/>
     <use xlink:href="#m4204e81148" x="151.035073" y="149.365455" style="fill: #0000ff"/>
     <use xlink:href="#m4204e81148" x="154.728278" y="149.365455" style="fill: #0000ff"/>
     <use xlink:href="#m4204e81148" x="158.421483" y="154.423636" style="fill: #0000ff"/>
     <use xlink:href="#m4204e81148" x="162.114688" y="144.307273" style="fill: #0000ff"/>
     <use xlink:href="#m4204e81148" x="165.807893" y="159.481818" style="fill: #0000ff"/>
     <use xlink:href="#m4204e81148" x="169.501097" y="149.365455" style="fill: #0000ff"/>
     <use xlink:href="#m4204e81148" x="173.194302" y="164.54" style="fill: #0000ff"/>
     <use xlink:href="#m4204e81148" x="176.887507" y="169.598182" style="fill: #0000ff"/>
     <use xlink:href="#m4204e81148" x="180.580712" y="164.54" style="fill: #0000ff"/>
     <use xlink:href="#m4204e81148" x="184.273916" y="154.423636" style="fill: #0000ff"/>
     <use xlink:href="#m4204e81148" x="187.967121" y="129.132727" style="fill: #0000ff"/>
     <use xlink:href="#m4204e81148" x="191.660326" y="139.249091" style="fill: #0000ff"/>
     <use xlink:href="#m4204e81148" x="195.353531" y="119.016364" style="fill: #0000ff"/>
     <use xlink:href="#m4204e81148" x="199.046736" y="129.132727" style="fill: #0000ff"/>
     <use xlink:href="#m4204e81148" x="202.73994" y="119.016364" style="fill: #0000ff"/>
     <use xlink:href="#m4204e81148" x="206.433145" y="124.074545" style="fill: #0000ff"/>
     <use xlink:href="#m4204e81148" x="210.12635" y="103.841818" style="fill: #0000ff"/>
     <use xlink:href="#m4204e81148" x="213.819555" y="108.9" style="fill: #0000ff"/>
     <use xlink:href="#m4204e81148" x="217.512759" y="103.841818" style="fill: #0000ff"/>
     <use xlink:href="#m4204e81148" x="221.205964" y="98.783636" style="fill: #0000ff"/>
     <use xlink:href="#m4204e81148" x="224.899169" y="88.667273" style="fill: #0000ff"/>
     <use xlink:href="#m4204e81148" x="228.592374" y="88.667273" style="fill: #0000ff"/>
     <use xlink:href="#m4204e81148" x="232.285579" y="78.550909" style="fill: #0000ff"/>
     <use xlink:href="#m4204e81148" x="235.978783" y="78.550909" style="fill: #0000ff"/>
     <use xlink:href="#m4204e81148" x="239.671988" y="78.550909" style="fill: #0000ff"/>
     <use xlink:href="#m4204e81148" x="243.365193" y="88.667273" style="fill: #0000ff"/>
     <use xlink:href="#m4204e81148" x="247.058398" y="78.550909" style="fill: #0000ff"/>
     <use xlink:href="#m4204e81148" x="250.751602" y="73.492727" style="fill: #0000ff"/>
     <use xlink:href="#m4204e81148" x="254.444807" y="58.318182" style="fill: #0000ff"/>
     <use xlink:href="#m4204e81148" x="258.138012" y="73.492727" style="fill: #0000ff"/>
     <use xlink:href="#m4204e81148" x="261.831217" y="73.492727" style="fill: #0000ff"/>
     <use xlink:href="#m4204e81148" x="265.524421" y="63.376364" style="fill: #0000ff"/>
     <use xlink:href="#m4204e81148" x="269.217626" y="63.376364" style="fill: #0000ff"/>
     <use xlink:href="#m4204e81148" x="272.910831" y="73.492727" style="fill: #0000ff"/>
     <use xlink:href="#m4204e81148" x="276.604036" y="63.376364" style="fill: #0000ff"/>
     <use xlink:href="#m4204e81148" x="280.297241" y="53.26" style="fill: #0000ff"/>
     <use xlink:href="#m4204e81148" x="283.990445" y="48.201818" style="fill: #0000ff"/>
     <use xlink:href="#m4204e81148" x="287.68365" y="58.318182" style="fill: #0000ff"/>
     <use xlink:href="#m4204e81148" x="291.376855" y="58.318182" style="fill: #0000ff"/>
     <use xlink:href="#m4204e81148" x="295.07006" y="63.376364" style="fill: #0000ff"/>
     <use xlink:href="#m4204e81148" x="298.763264" y="43.143636" style="fill: #0000ff"/>
     <use xlink:href="#m4204e81148" x="302.456469" y="63.376364" style="fill: #0000ff"/>
     <use xlink:href="#m4204e81148" x="306.149674" y="48.201818" style="fill: #0000ff"/>
     <use xlink:href="#m4204e81148" x="309.842879" y="48.201818" style="fill: #0000ff"/>
     <use xlink:href="#m4204e81148" x="313.536084" y="53.26" style="fill: #0000ff"/>
     <use xlink:href="#m4204e81148" x="317.229288" y="48.201818" style="fill: #0000ff"/>
     <use xlink:href="#m4204e81148" x="320.922493" y="38.085455" style="fill: #0000ff"/>
     <use xlink:href="#m4204e81148" x="324.615698" y="43.143636" style="fill: #0000ff"/>
     <use xlink:href="#m4204e81148" x="328.308903" y="43.143636" style="fill: #0000ff"/>
     <use xlink:href="#m4204e81148" x="332.002107" y="38.085455" style="fill: #0000ff"/>
     <use xlink:href="#m4204e81148" x="335.695312" y="38.085455" style="fill: #0000ff"/>
     <use xlink:href="#m4204e81148" x="339.388517" y="38.085455" style="fill: #0000ff"/>
     <use xlink:href="#m4204e81148" x="343.081722" y="43.143636" style="fill: #0000ff"/>
     <use xlink:href="#m4204e81148" x="346.774927" y="38.085455" style="fill: #0000ff"/>
     <use xlink:href="#m4204e81148" x="350.468131" y="38.085455" style="fill: #0000ff"/>
     <use xlink:href="#m4204e81148" x="354.161336" y="38.085455" style="fill: #0000ff"/>
     <use xlink:href="#m4204e81148" x="357.854541" y="38.085455" style="fill: #0000ff"/>
     <use xlink:href="#m4204e81148" x="361.547746" y="38.085455" style="fill: #0000ff"/>
     <use xlink:href="#m4204e81148" x="365.24095" y="38.085455" style="fill: #0000ff"/>
     <use xlink:href="#m4204e81148" x="368.934155" y="38.085455" style="fill: #0000ff"/>
     <use xlink:href="#m4204e81148" x="372.62736" y="38.085455" style="fill: #0000ff"/>
     <use xlink:href="#m4204e81148" x="376.320565" y="38.085455" style="fill: #0000ff"/>
     <use xlink:href="#m4204e81148" x="380.01377" y="38.085455" style="fill: #0000ff"/>
     <use xlink:href="#m4204e81148" x="383.706974" y="38.085455" style="fill: #0000ff"/>
     <use xlink:href="#m4204e81148" x="387.400179" y="43.143636" style="fill: #0000ff"/>
     <use xlink:href="#m4204e81148" x="391.093384" y="43.143636" style="fill: #0000ff"/>
     <use xlink:href="#m4204e81148" x="394.786589" y="38.085455" style="fill: #0000ff"/>
     <use xlink:href="#m4204e81148" x="398.479793" y="38.085455" style="fill: #0000ff"/>
     <use xlink:href="#m4204e81148" x="402.172998" y="38.085455" style="fill: #0000ff"/>
     <use xlink:href="#m4204e81148" x="405.866203" y="38.085455" style="fill: #0000ff"/>
     <use xlink:href="#m4204e81148" x="409.559408" y="38.085455" style="fill: #0000ff"/>
     <use xlink:href="#m4204e81148" x="413.252612" y="38.085455" style="fill: #0000ff"/>
     <use xlink:href="#m4204e81148" x="416.945817" y="53.26" style="fill: #0000ff"/>
     <use xlink:href="#m4204e81148" x="420.639022" y="43.143636" style="fill: #0000ff"/>
     <use xlink:href="#m4204e81148" x="424.332227" y="38.085455" style="fill: #0000ff"/>
     <use xlink:href="#m4204e81148" x="428.025432" y="43.143636" style="fill: #0000ff"/>
     <use xlink:href="#m4204e81148" x="431.718636" y="43.143636" style="fill: #0000ff"/>
    </g>
   </g>
   <g id="line2d_14">
    <path d="M 66.091364 103.841818 
L 69.784568 101.312727 
L 73.477773 117.330303 
L 77.170978 116.487273 
L 80.864183 124.074545 
L 84.557388 126.603636 
L 88.250592 132.023117 
L 91.943797 133.558636 
L 95.637002 135.87697 
L 99.330207 136.214182 
L 103.023411 136.030248 
L 106.716616 136.72 
L 110.409821 137.303636 
L 114.103026 138.165195 
L 117.79623 139.249091 
L 121.489435 139.249091 
L 125.18264 140.141711 
L 128.875845 141.216162 
L 132.56905 142.976172 
L 136.262254 144.307273 
L 139.955459 144.307273 
L 143.648664 144.767107 
L 147.341869 144.747115 
L 151.035073 144.939545 
L 154.728278 145.116582 
L 158.421483 145.474545 
L 162.114688 145.431313 
L 165.807893 145.933117 
L 169.501097 146.051473 
L 173.194302 146.667758 
L 176.887507 147.407449 
L 180.580712 147.942841 
L 184.273916 148.139229 
L 187.967121 147.580214 
L 191.660326 147.342182 
L 195.353531 146.555354 
L 199.046736 146.084472 
L 202.73994 145.372153 
L 206.433145 144.826061 
L 210.12635 143.801455 
L 213.819555 142.9502 
L 217.512759 142.019048 
L 221.205964 141.013573 
L 224.899169 139.823884 
L 228.592374 138.687071 
L 232.285579 137.379763 
L 235.978783 136.128085 
L 239.671988 134.928561 
L 243.365193 133.984453 
L 247.058398 132.875782 
L 250.751602 131.711408 
L 254.444807 130.3 
L 258.138012 129.228165 
L 261.831217 128.196027 
L 265.524421 127.017488 
L 269.217626 125.881039 
L 272.910831 124.961946 
L 276.604036 123.900125 
L 280.297241 122.702835 
L 283.990445 121.461152 
L 287.68365 120.426021 
L 291.376855 119.424282 
L 295.07006 118.534632 
L 298.763264 117.356648 
L 302.456469 116.526182 
L 306.149674 115.490964 
L 309.842879 114.486649 
L 313.536084 113.586257 
L 317.229288 112.638656 
L 320.922493 111.57361 
L 324.615698 110.609808 
L 328.308903 109.672778 
L 332.002107 108.69213 
L 335.695312 107.737985 
L 339.388517 106.809285 
L 343.081722 105.971579 
L 346.774927 105.089941 
L 350.468131 104.230909 
L 354.161336 103.393625 
L 357.854541 102.577273 
L 361.547746 101.781077 
L 365.24095 101.004302 
L 368.934155 100.246243 
L 372.62736 99.506234 
L 376.320565 98.783636 
L 380.01377 98.077844 
L 383.706974 97.388276 
L 387.400179 96.77186 
L 391.093384 96.169295 
L 394.786589 95.523919 
L 398.479793 94.892727 
L 402.172998 94.275257 
L 405.866203 93.671065 
L 409.559408 93.079729 
L 413.252612 92.500842 
L 416.945817 92.092083 
L 420.639022 91.58746 
L 424.332227 91.041521 
L 428.025432 90.557704 
L 431.718636 90.083564 
" clip-path="url(#p85790a4267)" style="fill: none; stroke: #0000ff; stroke-opacity: 0.5; stroke-width: 0.5; stroke-linecap: square"/>
    <defs>
     <path id="m61cfed6890" d="M -0.49999 0.49999 
L 0.50001 0.49999 
L 0.50001 -0.50001 
L -0.49999 -0.50001 
z
"/>
    </defs>
    <g clip-path="url(#p85790a4267)">
     <use xlink:href="#m61cfed6890" x="66.091364" y="103.841818" style="fill: #0000ff; fill-opacity: 0.5"/>
     <use xlink:href="#m61cfed6890" x="69.784568" y="101.312727" style="fill: #0000ff; fill-opacity: 0.5"/>
     <use xlink:href="#m61cfed6890" x="73.477773" y="117.330303" style="fill: #0000ff; fill-opacity: 0.5"/>
     <use xlink:href="#m61cfed6890" x="77.170978" y="116.487273" style="fill: #0000ff; fill-opacity: 0.5"/>
     <use xlink:href="#m61cfed6890" x="80.864183" y="124.074545" style="fill: #0000ff; fill-opacity: 0.5"/>
     <use xlink:href="#m61cfed6890" x="84.557388" y="126.603636" style="fill: #0000ff; fill-opacity: 0.5"/>
     <use xlink:href="#m61cfed6890" x="88.250592" y="132.023117" style="fill: #0000ff; fill-opacity: 0.5"/>
     <use xlink:href="#m61cfed6890" x="91.943797" y="133.558636" style="fill: #0000ff; fill-opacity: 0.5"/>
     <use xlink:href="#m61cfed6890" x="95.637002" y="135.87697" style="fill: #0000ff; fill-opacity: 0.5"/>
     <use xlink:href="#m61cfed6890" x="99.330207" y="136.214182" style="fill: #0000ff; fill-opacity: 0.5"/>
     <use xlink:href="#m61cfed6890" x="103.023411" y="136.030248" style="fill: #0000ff; fill-opacity: 0.5"/>
     <use xlink:href="#m61cfed6890" x="106.716616" y="136.72" style="fill: #0000ff; fill-opacity: 0.5"/>
     <use xlink:href="#m61cfed6890" x="110.409821" y="137.303636" style="fill: #0000ff; fill-opacity: 0.5"/>
     <use xlink:href="#m61cfed6890" x="114.103026" y="138.165195" style="fill: #0000ff; fill-opacity: 0.5"/>
     <use xlink:href="#m61cfed6890" x="117.79623" y="139.249091" style="fill: #0000ff; fill-opacity: 0.5"/>
     <use xlink:href="#m61cfed6890" x="121.489435" y="139.249091" style="fill: #0000ff; fill-opacity: 0.5"/>
     <use xlink:href="#m61cfed6890" x="125.18264" y="140.141711" style="fill: #0000ff; fill-opacity: 0.5"/>
     <use xlink:href="#m61cfed6890" x="128.875845" y="141.216162" style="fill: #0000ff; fill-opacity: 0.5"/>
     <use xlink:href="#m61cfed6890" x="132.56905" y="142.976172" style="fill: #0000ff; fill-opacity: 0.5"/>
     <use xlink:href="#m61cfed6890" x="136.262254" y="144.307273" style="fill: #0000ff; fill-opacity: 0.5"/>
     <use xlink:href="#m61cfed6890" x="139.955459" y="144.307273" style="fill: #0000ff; fill-opacity: 0.5"/>
     <use xlink:href="#m61cfed6890" x="143.648664" y="144.767107" style="fill: #0000ff; fill-opacity: 0.5"/>
     <use xlink:href="#m61cfed6890" x="147.341869" y="144.747115" style="fill: #0000ff; fill-opacity: 0.5"/>
     <use xlink:href="#m61cfed6890" x="151.035073" y="144.939545" style="fill: #0000ff; fill-opacity: 0.5"/>
     <use xlink:href="#m61cfed6890" x="154.728278" y="145.116582" style="fill: #0000ff; fill-opacity: 0.5"/>
     <use xlink:href="#m61cfed6890" x="158.421483" y="145.474545" style="fill: #0000ff; fill-opacity: 0.5"/>
     <use xlink:href="#m61cfed6890" x="162.114688" y="145.431313" style="fill: #0000ff; fill-opacity: 0.5"/>
     <use xlink:href="#m61cfed6890" x="165.807893" y="145.933117" style="fill: #0000ff; fill-opacity: 0.5"/>
     <use xlink:href="#m61cfed6890" x="169.501097" y="146.051473" style="fill: #0000ff; fill-opacity: 0.5"/>
     <use xlink:href="#m61cfed6890" x="173.194302" y="146.667758" style="fill: #0000ff; fill-opacity: 0.5"/>
     <use xlink:href="#m61cfed6890" x="176.887507" y="147.407449" style="fill: #0000ff; fill-opacity: 0.5"/>
     <use xlink:href="#m61cfed6890" x="180.580712" y="147.942841" style="fill: #0000ff; fill-opacity: 0.5"/>
     <use xlink:href="#m61cfed6890" x="184.273916" y="148.139229" style="fill: #0000ff; fill-opacity: 0.5"/>
     <use xlink:href="#m61cfed6890" x="187.967121" y="147.580214" style="fill: #0000ff; fill-opacity: 0.5"/>
     <use xlink:href="#m61cfed6890" x="191.660326" y="147.342182" style="fill: #0000ff; fill-opacity: 0.5"/>
     <use xlink:href="#m61cfed6890" x="195.353531" y="146.555354" style="fill: #0000ff; fill-opacity: 0.5"/>
     <use xlink:href="#m61cfed6890" x="199.046736" y="146.084472" style="fill: #0000ff; fill-opacity: 0.5"/>
     <use xlink:href="#m61cfed6890" x="202.73994" y="145.372153" style="fill: #0000ff; fill-opacity: 0.5"/>
     <use xlink:href="#m61cfed6890" x="206.433145" y="144.826061" style="fill: #0000ff; fill-opacity: 0.5"/>
     <use xlink:href="#m61cfed6890" x="210.12635" y="143.801455" style="fill: #0000ff; fill-opacity: 0.5"/>
     <use xlink:href="#m61cfed6890" x="213.819555" y="142.9502" style="fill: #0000ff; fill-opacity: 0.5"/>
     <use xlink:href="#m61cfed6890" x="217.512759" y="142.019048" style="fill: #0000ff; fill-opacity: 0.5"/>
     <use xlink:href="#m61cfed6890" x="221.205964" y="141.013573" style="fill: #0000ff; fill-opacity: 0.5"/>
     <use xlink:href="#m61cfed6890" x="224.899169" y="139.823884" style="fill: #0000ff; fill-opacity: 0.5"/>
     <use xlink:href="#m61cfed6890" x="228.592374" y="138.687071" style="fill: #0000ff; fill-opacity: 0.5"/>
     <use xlink:href="#m61cfed6890" x="232.285579" y="137.379763" style="fill: #0000ff; fill-opacity: 0.5"/>
     <use xlink:href="#m61cfed6890" x="235.978783" y="136.128085" style="fill: #0000ff; fill-opacity: 0.5"/>
     <use xlink:href="#m61cfed6890" x="239.671988" y="134.928561" style="fill: #0000ff; fill-opacity: 0.5"/>
     <use xlink:href="#m61cfed6890" x="243.365193" y="133.984453" style="fill: #0000ff; fill-opacity: 0.5"/>
     <use xlink:href="#m61cfed6890" x="247.058398" y="132.875782" style="fill: #0000ff; fill-opacity: 0.5"/>
     <use xlink:href="#m61cfed6890" x="250.751602" y="131.711408" style="fill: #0000ff; fill-opacity: 0.5"/>
     <use xlink:href="#m61cfed6890" x="254.444807" y="130.3" style="fill: #0000ff; fill-opacity: 0.5"/>
     <use xlink:href="#m61cfed6890" x="258.138012" y="129.228165" style="fill: #0000ff; fill-opacity: 0.5"/>
     <use xlink:href="#m61cfed6890" x="261.831217" y="128.196027" style="fill: #0000ff; fill-opacity: 0.5"/>
     <use xlink:href="#m61cfed6890" x="265.524421" y="127.017488" style="fill: #0000ff; fill-opacity: 0.5"/>
     <use xlink:href="#m61cfed6890" x="269.217626" y="125.881039" style="fill: #0000ff; fill-opacity: 0.5"/>
     <use xlink:href="#m61cfed6890" x="272.910831" y="124.961946" style="fill: #0000ff; fill-opacity: 0.5"/>
     <use xlink:href="#m61cfed6890" x="276.604036" y="123.900125" style="fill: #0000ff; fill-opacity: 0.5"/>
     <use xlink:href="#m61cfed6890" x="280.297241" y="122.702835" style="fill: #0000ff; fill-opacity: 0.5"/>
     <use xlink:href="#m61cfed6890" x="283.990445" y="121.461152" style="fill: #0000ff; fill-opacity: 0.5"/>
     <use xlink:href="#m61cfed6890" x="287.68365" y="120.426021" style="fill: #0000ff; fill-opacity: 0.5"/>
     <use xlink:href="#m61cfed6890" x="291.376855" y="119.424282" style="fill: #0000ff; fill-opacity: 0.5"/>
     <use xlink:href="#m61cfed6890" x="295.07006" y="118.534632" style="fill: #0000ff; fill-opacity: 0.5"/>
     <use xlink:href="#m61cfed6890" x="298.763264" y="117.356648" style="fill: #0000ff; fill-opacity: 0.5"/>
     <use xlink:href="#m61cfed6890" x="302.456469" y="116.526182" style="fill: #0000ff; fill-opacity: 0.5"/>
     <use xlink:href="#m61cfed6890" x="306.149674" y="115.490964" style="fill: #0000ff; fill-opacity: 0.5"/>
     <use xlink:href="#m61cfed6890" x="309.842879" y="114.486649" style="fill: #0000ff; fill-opacity: 0.5"/>
     <use xlink:href="#m61cfed6890" x="313.536084" y="113.586257" style="fill: #0000ff; fill-opacity: 0.5"/>
     <use xlink:href="#m61cfed6890" x="317.229288" y="112.638656" style="fill: #0000ff; fill-opacity: 0.5"/>
     <use xlink:href="#m61cfed6890" x="320.922493" y="111.57361" style="fill: #0000ff; fill-opacity: 0.5"/>
     <use xlink:href="#m61cfed6890" x="324.615698" y="110.609808" style="fill: #0000ff; fill-opacity: 0.5"/>
     <use xlink:href="#m61cfed6890" x="328.308903" y="109.672778" style="fill: #0000ff; fill-opacity: 0.5"/>
     <use xlink:href="#m61cfed6890" x="332.002107" y="108.69213" style="fill: #0000ff; fill-opacity: 0.5"/>
     <use xlink:href="#m61cfed6890" x="335.695312" y="107.737985" style="fill: #0000ff; fill-opacity: 0.5"/>
     <use xlink:href="#m61cfed6890" x="339.388517" y="106.809285" style="fill: #0000ff; fill-opacity: 0.5"/>
     <use xlink:href="#m61cfed6890" x="343.081722" y="105.971579" style="fill: #0000ff; fill-opacity: 0.5"/>
     <use xlink:href="#m61cfed6890" x="346.774927" y="105.089941" style="fill: #0000ff; fill-opacity: 0.5"/>
     <use xlink:href="#m61cfed6890" x="350.468131" y="104.230909" style="fill: #0000ff; fill-opacity: 0.5"/>
     <use xlink:href="#m61cfed6890" x="354.161336" y="103.393625" style="fill: #0000ff; fill-opacity: 0.5"/>
     <use xlink:href="#m61cfed6890" x="357.854541" y="102.577273" style="fill: #0000ff; fill-opacity: 0.5"/>
     <use xlink:href="#m61cfed6890" x="361.547746" y="101.781077" style="fill: #0000ff; fill-opacity: 0.5"/>
     <use xlink:href="#m61cfed6890" x="365.24095" y="101.004302" style="fill: #0000ff; fill-opacity: 0.5"/>
     <use xlink:href="#m61cfed6890" x="368.934155" y="100.246243" style="fill: #0000ff; fill-opacity: 0.5"/>
     <use xlink:href="#m61cfed6890" x="372.62736" y="99.506234" style="fill: #0000ff; fill-opacity: 0.5"/>
     <use xlink:href="#m61cfed6890" x="376.320565" y="98.783636" style="fill: #0000ff; fill-opacity: 0.5"/>
     <use xlink:href="#m61cfed6890" x="380.01377" y="98.077844" style="fill: #0000ff; fill-opacity: 0.5"/>
     <use xlink:href="#m61cfed6890" x="383.706974" y="97.388276" style="fill: #0000ff; fill-opacity: 0.5"/>
     <use xlink:href="#m61cfed6890" x="387.400179" y="96.77186" style="fill: #0000ff; fill-opacity: 0.5"/>
     <use xlink:href="#m61cfed6890" x="391.093384" y="96.169295" style="fill: #0000ff; fill-opacity: 0.5"/>
     <use xlink:href="#m61cfed6890" x="394.786589" y="95.523919" style="fill: #0000ff; fill-opacity: 0.5"/>
     <use xlink:href="#m61cfed6890" x="398.479793" y="94.892727" style="fill: #0000ff; fill-opacity: 0.5"/>
     <use xlink:href="#m61cfed6890" x="402.172998" y="94.275257" style="fill: #0000ff; fill-opacity: 0.5"/>
     <use xlink:href="#m61cfed6890" x="405.866203" y="93.671065" style="fill: #0000ff; fill-opacity: 0.5"/>
     <use xlink:href="#m61cfed6890" x="409.559408" y="93.079729" style="fill: #0000ff; fill-opacity: 0.5"/>
     <use xlink:href="#m61cfed6890" x="413.252612" y="92.500842" style="fill: #0000ff; fill-opacity: 0.5"/>
     <use xlink:href="#m61cfed6890" x="416.945817" y="92.092083" style="fill: #0000ff; fill-opacity: 0.5"/>
     <use xlink:href="#m61cfed6890" x="420.639022" y="91.58746" style="fill: #0000ff; fill-opacity: 0.5"/>
     <use xlink:href="#m61cfed6890" x="424.332227" y="91.041521" style="fill: #0000ff; fill-opacity: 0.5"/>
     <use xlink:href="#m61cfed6890" x="428.025432" y="90.557704" style="fill: #0000ff; fill-opacity: 0.5"/>
     <use xlink:href="#m61cfed6890" x="431.718636" y="90.083564" style="fill: #0000ff; fill-opacity: 0.5"/>
    </g>
   </g>
   <g id="line2d_15">
    <path d="M 47.81 290.994545 
L 450 290.994545 
" clip-path="url(#p85790a4267)" style="fill: none; stroke-dasharray: 0.555,0.24; stroke-dashoffset: 0; stroke: #ff0000; stroke-width: 0.15"/>
   </g>
   <g id="line2d_16">
    <path d="M 47.81 164.54 
L 450 164.54 
" clip-path="url(#p85790a4267)" style="fill: none; stroke-dasharray: 0.555,0.24; stroke-dashoffset: 0; stroke: #ff0000; stroke-width: 0.15"/>
   </g>
   <g id="line2d_17">
    <path d="M 47.81 38.085455 
L 450 38.085455 
" clip-path="url(#p85790a4267)" style="fill: none; stroke-dasharray: 0.555,0.24; stroke-dashoffset: 0; stroke: #ff0000; stroke-width: 0.15"/>
   </g>
   <g id="line2d_18">
    <path d="M 66.091364 139.249091 
L 69.784568 159.481818 
L 73.477773 149.365455 
L 77.170978 154.423636 
L 80.864183 169.598182 
L 84.557388 164.54 
L 88.250592 164.54 
L 91.943797 144.307273 
L 95.637002 159.481818 
L 99.330207 169.598182 
L 103.023411 139.249091 
L 106.716616 159.481818 
L 110.409821 159.481818 
L 114.103026 149.365455 
L 117.79623 199.947273 
L 121.489435 174.656364 
L 125.18264 164.54 
L 128.875845 144.307273 
L 132.56905 189.830909 
L 136.262254 184.772727 
L 139.955459 159.481818 
L 143.648664 184.772727 
L 147.341869 149.365455 
L 151.035073 159.481818 
L 154.728278 184.772727 
L 158.421483 154.423636 
L 162.114688 169.598182 
L 165.807893 154.423636 
L 169.501097 164.54 
L 173.194302 139.249091 
L 176.887507 159.481818 
L 180.580712 149.365455 
L 184.273916 154.423636 
L 187.967121 215.121818 
L 191.660326 174.656364 
L 195.353531 159.481818 
L 199.046736 184.772727 
L 202.73994 149.365455 
L 206.433145 144.307273 
L 210.12635 174.656364 
L 213.819555 159.481818 
L 217.512759 154.423636 
L 221.205964 179.714545 
L 224.899169 154.423636 
L 228.592374 179.714545 
L 232.285579 144.307273 
L 235.978783 149.365455 
L 239.671988 169.598182 
L 243.365193 164.54 
L 247.058398 154.423636 
L 250.751602 159.481818 
L 254.444807 169.598182 
L 258.138012 144.307273 
L 261.831217 169.598182 
L 265.524421 215.121818 
L 269.217626 174.656364 
L 272.910831 169.598182 
L 276.604036 179.714545 
L 280.297241 169.598182 
L 283.990445 154.423636 
L 287.68365 159.481818 
L 291.376855 154.423636 
L 295.07006 164.54 
L 298.763264 164.54 
L 302.456469 164.54 
L 306.149674 154.423636 
L 309.842879 149.365455 
L 313.536084 169.598182 
L 317.229288 154.423636 
L 320.922493 159.481818 
L 324.615698 164.54 
L 328.308903 174.656364 
L 332.002107 174.656364 
L 335.695312 154.423636 
L 339.388517 184.772727 
L 343.081722 164.54 
L 346.774927 189.830909 
L 350.468131 154.423636 
L 354.161336 154.423636 
L 357.854541 154.423636 
L 361.547746 139.249091 
L 365.24095 174.656364 
L 368.934155 149.365455 
L 372.62736 179.714545 
L 376.320565 184.772727 
L 380.01377 129.132727 
L 383.706974 159.481818 
L 387.400179 199.947273 
L 391.093384 169.598182 
L 394.786589 184.772727 
L 398.479793 194.889091 
L 402.172998 159.481818 
L 405.866203 154.423636 
L 409.559408 164.54 
L 413.252612 169.598182 
L 416.945817 169.598182 
L 420.639022 139.249091 
L 424.332227 154.423636 
L 428.025432 144.307273 
L 431.718636 139.249091 
" clip-path="url(#p85790a4267)" style="fill: none; stroke: #ff0000; stroke-width: 0.5; stroke-linecap: square"/>
    <defs>
     <path id="mc27088ff59" d="M -0.49999 0.49999 
L 0.50001 0.49999 
L 0.50001 -0.50001 
L -0.49999 -0.50001 
z
"/>
    </defs>
    <g clip-path="url(#p85790a4267)">
     <use xlink:href="#mc27088ff59" x="66.091364" y="139.249091" style="fill: #ff0000"/>
     <use xlink:href="#mc27088ff59" x="69.784568" y="159.481818" style="fill: #ff0000"/>
     <use xlink:href="#mc27088ff59" x="73.477773" y="149.365455" style="fill: #ff0000"/>
     <use xlink:href="#mc27088ff59" x="77.170978" y="154.423636" style="fill: #ff0000"/>
     <use xlink:href="#mc27088ff59" x="80.864183" y="169.598182" style="fill: #ff0000"/>
     <use xlink:href="#mc27088ff59" x="84.557388" y="164.54" style="fill: #ff0000"/>
     <use xlink:href="#mc27088ff59" x="88.250592" y="164.54" style="fill: #ff0000"/>
     <use xlink:href="#mc27088ff59" x="91.943797" y="144.307273" style="fill: #ff0000"/>
     <use xlink:href="#mc27088ff59" x="95.637002" y="159.481818" style="fill: #ff0000"/>
     <use xlink:href="#mc27088ff59" x="99.330207" y="169.598182" style="fill: #ff0000"/>
     <use xlink:href="#mc27088ff59" x="103.023411" y="139.249091" style="fill: #ff0000"/>
     <use xlink:href="#mc27088ff59" x="106.716616" y="159.481818" style="fill: #ff0000"/>
     <use xlink:href="#mc27088ff59" x="110.409821" y="159.481818" style="fill: #ff0000"/>
     <use xlink:href="#mc27088ff59" x="114.103026" y="149.365455" style="fill: #ff0000"/>
     <use xlink:href="#mc27088ff59" x="117.79623" y="199.947273" style="fill: #ff0000"/>
     <use xlink:href="#mc27088ff59" x="121.489435" y="174.656364" style="fill: #ff0000"/>
     <use xlink:href="#mc27088ff59" x="125.18264" y="164.54" style="fill: #ff0000"/>
     <use xlink:href="#mc27088ff59" x="128.875845" y="144.307273" style="fill: #ff0000"/>
     <use xlink:href="#mc27088ff59" x="132.56905" y="189.830909" style="fill: #ff0000"/>
     <use xlink:href="#mc27088ff59" x="136.262254" y="184.772727" style="fill: #ff0000"/>
     <use xlink:href="#mc27088ff59" x="139.955459" y="159.481818" style="fill: #ff0000"/>
     <use xlink:href="#mc27088ff59" x="143.648664" y="184.772727" style="fill: #ff0000"/>
     <use xlink:href="#mc27088ff59" x="147.341869" y="149.365455" style="fill: #ff0000"/>
     <use xlink:href="#mc27088ff59" x="151.035073" y="159.481818" style="fill: #ff0000"/>
     <use xlink:href="#mc27088ff59" x="154.728278" y="184.772727" style="fill: #ff0000"/>
     <use xlink:href="#mc27088ff59" x="158.421483" y="154.423636" style="fill: #ff0000"/>
     <use xlink:href="#mc27088ff59" x="162.114688" y="169.598182" style="fill: #ff0000"/>
     <use xlink:href="#mc27088ff59" x="165.807893" y="154.423636" style="fill: #ff0000"/>
     <use xlink:href="#mc27088ff59" x="169.501097" y="164.54" style="fill: #ff0000"/>
     <use xlink:href="#mc27088ff59" x="173.194302" y="139.249091" style="fill: #ff0000"/>
     <use xlink:href="#mc27088ff59" x="176.887507" y="159.481818" style="fill: #ff0000"/>
     <use xlink:href="#mc27088ff59" x="180.580712" y="149.365455" style="fill: #ff0000"/>
     <use xlink:href="#mc27088ff59" x="184.273916" y="154.423636" style="fill: #ff0000"/>
     <use xlink:href="#mc27088ff59" x="187.967121" y="215.121818" style="fill: #ff0000"/>
     <use xlink:href="#mc27088ff59" x="191.660326" y="174.656364" style="fill: #ff0000"/>
     <use xlink:href="#mc27088ff59" x="195.353531" y="159.481818" style="fill: #ff0000"/>
     <use xlink:href="#mc27088ff59" x="199.046736" y="184.772727" style="fill: #ff0000"/>
     <use xlink:href="#mc27088ff59" x="202.73994" y="149.365455" style="fill: #ff0000"/>
     <use xlink:href="#mc27088ff59" x="206.433145" y="144.307273" style="fill: #ff0000"/>
     <use xlink:href="#mc27088ff59" x="210.12635" y="174.656364" style="fill: #ff0000"/>
     <use xlink:href="#mc27088ff59" x="213.819555" y="159.481818" style="fill: #ff0000"/>
     <use xlink:href="#mc27088ff59" x="217.512759" y="154.423636" style="fill: #ff0000"/>
     <use xlink:href="#mc27088ff59" x="221.205964" y="179.714545" style="fill: #ff0000"/>
     <use xlink:href="#mc27088ff59" x="224.899169" y="154.423636" style="fill: #ff0000"/>
     <use xlink:href="#mc27088ff59" x="228.592374" y="179.714545" style="fill: #ff0000"/>
     <use xlink:href="#mc27088ff59" x="232.285579" y="144.307273" style="fill: #ff0000"/>
     <use xlink:href="#mc27088ff59" x="235.978783" y="149.365455" style="fill: #ff0000"/>
     <use xlink:href="#mc27088ff59" x="239.671988" y="169.598182" style="fill: #ff0000"/>
     <use xlink:href="#mc27088ff59" x="243.365193" y="164.54" style="fill: #ff0000"/>
     <use xlink:href="#mc27088ff59" x="247.058398" y="154.423636" style="fill: #ff0000"/>
     <use xlink:href="#mc27088ff59" x="250.751602" y="159.481818" style="fill: #ff0000"/>
     <use xlink:href="#mc27088ff59" x="254.444807" y="169.598182" style="fill: #ff0000"/>
     <use xlink:href="#mc27088ff59" x="258.138012" y="144.307273" style="fill: #ff0000"/>
     <use xlink:href="#mc27088ff59" x="261.831217" y="169.598182" style="fill: #ff0000"/>
     <use xlink:href="#mc27088ff59" x="265.524421" y="215.121818" style="fill: #ff0000"/>
     <use xlink:href="#mc27088ff59" x="269.217626" y="174.656364" style="fill: #ff0000"/>
     <use xlink:href="#mc27088ff59" x="272.910831" y="169.598182" style="fill: #ff0000"/>
     <use xlink:href="#mc27088ff59" x="276.604036" y="179.714545" style="fill: #ff0000"/>
     <use xlink:href="#mc27088ff59" x="280.297241" y="169.598182" style="fill: #ff0000"/>
     <use xlink:href="#mc27088ff59" x="283.990445" y="154.423636" style="fill: #ff0000"/>
     <use xlink:href="#mc27088ff59" x="287.68365" y="159.481818" style="fill: #ff0000"/>
     <use xlink:href="#mc27088ff59" x="291.376855" y="154.423636" style="fill: #ff0000"/>
     <use xlink:href="#mc27088ff59" x="295.07006" y="164.54" style="fill: #ff0000"/>
     <use xlink:href="#mc27088ff59" x="298.763264" y="164.54" style="fill: #ff0000"/>
     <use xlink:href="#mc27088ff59" x="302.456469" y="164.54" style="fill: #ff0000"/>
     <use xlink:href="#mc27088ff59" x="306.149674" y="154.423636" style="fill: #ff0000"/>
     <use xlink:href="#mc27088ff59" x="309.842879" y="149.365455" style="fill: #ff0000"/>
     <use xlink:href="#mc27088ff59" x="313.536084" y="169.598182" style="fill: #ff0000"/>
     <use xlink:href="#mc27088ff59" x="317.229288" y="154.423636" style="fill: #ff0000"/>
     <use xlink:href="#mc27088ff59" x="320.922493" y="159.481818" style="fill: #ff0000"/>
     <use xlink:href="#mc27088ff59" x="324.615698" y="164.54" style="fill: #ff0000"/>
     <use xlink:href="#mc27088ff59" x="328.308903" y="174.656364" style="fill: #ff0000"/>
     <use xlink:href="#mc27088ff59" x="332.002107" y="174.656364" style="fill: #ff0000"/>
     <use xlink:href="#mc27088ff59" x="335.695312" y="154.423636" style="fill: #ff0000"/>
     <use xlink:href="#mc27088ff59" x="339.388517" y="184.772727" style="fill: #ff0000"/>
     <use xlink:href="#mc27088ff59" x="343.081722" y="164.54" style="fill: #ff0000"/>
     <use xlink:href="#mc27088ff59" x="346.774927" y="189.830909" style="fill: #ff0000"/>
     <use xlink:href="#mc27088ff59" x="350.468131" y="154.423636" style="fill: #ff0000"/>
     <use xlink:href="#mc27088ff59" x="354.161336" y="154.423636" style="fill: #ff0000"/>
     <use xlink:href="#mc27088ff59" x="357.854541" y="154.423636" style="fill: #ff0000"/>
     <use xlink:href="#mc27088ff59" x="361.547746" y="139.249091" style="fill: #ff0000"/>
     <use xlink:href="#mc27088ff59" x="365.24095" y="174.656364" style="fill: #ff0000"/>
     <use xlink:href="#mc27088ff59" x="368.934155" y="149.365455" style="fill: #ff0000"/>
     <use xlink:href="#mc27088ff59" x="372.62736" y="179.714545" style="fill: #ff0000"/>
     <use xlink:href="#mc27088ff59" x="376.320565" y="184.772727" style="fill: #ff0000"/>
     <use xlink:href="#mc27088ff59" x="380.01377" y="129.132727" style="fill: #ff0000"/>
     <use xlink:href="#mc27088ff59" x="383.706974" y="159.481818" style="fill: #ff0000"/>
     <use xlink:href="#mc27088ff59" x="387.400179" y="199.947273" style="fill: #ff0000"/>
     <use xlink:href="#mc27088ff59" x="391.093384" y="169.598182" style="fill: #ff0000"/>
     <use xlink:href="#mc27088ff59" x="394.786589" y="184.772727" style="fill: #ff0000"/>
     <use xlink:href="#mc27088ff59" x="398.479793" y="194.889091" style="fill: #ff0000"/>
     <use xlink:href="#mc27088ff59" x="402.172998" y="159.481818" style="fill: #ff0000"/>
     <use xlink:href="#mc27088ff59" x="405.866203" y="154.423636" style="fill: #ff0000"/>
     <use xlink:href="#mc27088ff59" x="409.559408" y="164.54" style="fill: #ff0000"/>
     <use xlink:href="#mc27088ff59" x="413.252612" y="169.598182" style="fill: #ff0000"/>
     <use xlink:href="#mc27088ff59" x="416.945817" y="169.598182" style="fill: #ff0000"/>
     <use xlink:href="#mc27088ff59" x="420.639022" y="139.249091" style="fill: #ff0000"/>
     <use xlink:href="#mc27088ff59" x="424.332227" y="154.423636" style="fill: #ff0000"/>
     <use xlink:href="#mc27088ff59" x="428.025432" y="144.307273" style="fill: #ff0000"/>
     <use xlink:href="#mc27088ff59" x="431.718636" y="139.249091" style="fill: #ff0000"/>
    </g>
   </g>
   <g id="line2d_19">
    <path d="M 66.091364 139.249091 
L 69.784568 149.365455 
L 73.477773 149.365455 
L 77.170978 150.63 
L 80.864183 154.423636 
L 84.557388 156.109697 
L 88.250592 157.314026 
L 91.943797 155.688182 
L 95.637002 156.109697 
L 99.330207 157.458545 
L 103.023411 155.80314 
L 106.716616 156.109697 
L 110.409821 156.369091 
L 114.103026 155.868831 
L 117.79623 158.807394 
L 121.489435 159.797955 
L 125.18264 160.076898 
L 128.875845 159.200808 
L 132.56905 160.812919 
L 136.262254 162.010909 
L 139.955459 161.890476 
L 143.648664 162.930579 
L 147.341869 162.340791 
L 151.035073 162.221667 
L 154.728278 163.123709 
L 158.421483 162.789091 
L 162.114688 163.041279 
L 165.807893 162.733506 
L 169.501097 162.795799 
L 173.194302 162.010909 
L 176.887507 161.929326 
L 180.580712 161.536705 
L 184.273916 161.321157 
L 187.967121 162.903529 
L 191.660326 163.239325 
L 195.353531 163.134949 
L 199.046736 163.719754 
L 202.73994 163.34201 
L 206.433145 162.853939 
L 210.12635 163.149 
L 213.819555 163.059557 
L 217.512759 162.853939 
L 221.205964 163.246047 
L 224.899169 163.045537 
L 228.592374 163.41596 
L 232.285579 163.000553 
L 235.978783 162.710445 
L 239.671988 162.853939 
L 243.365193 162.888349 
L 247.058398 162.719055 
L 250.751602 162.655579 
L 254.444807 162.789091 
L 258.138012 162.440377 
L 261.831217 162.572929 
L 265.524421 163.528364 
L 269.217626 163.727078 
L 272.910831 163.83008 
L 276.604036 164.10395 
L 280.297241 164.197072 
L 283.990445 164.034182 
L 287.68365 163.959553 
L 291.376855 163.805748 
L 295.07006 163.817403 
L 298.763264 163.828693 
L 302.456469 163.839636 
L 306.149674 163.69697 
L 309.842879 163.483066 
L 313.536084 163.572995 
L 317.229288 163.440395 
L 320.922493 163.383844 
L 324.615698 163.400128 
L 328.308903 163.556465 
L 332.002107 163.708518 
L 335.695312 163.583047 
L 339.388517 163.865576 
L 343.081722 163.87445 
L 346.774927 164.211547 
L 350.468131 164.086061 
L 354.161336 163.963751 
L 357.854541 163.8445 
L 361.547746 163.540853 
L 365.24095 163.676408 
L 368.934155 163.503987 
L 372.62736 163.69697 
L 376.320565 163.94492 
L 380.01377 163.540127 
L 383.706974 163.49348 
L 387.400179 163.907727 
L 391.093384 163.971665 
L 394.786589 164.202788 
L 398.479793 164.54 
L 402.172998 164.48502 
L 405.866203 164.376833 
L 409.559408 164.378569 
L 413.252612 164.433512 
L 416.945817 164.487311 
L 420.639022 164.227123 
L 424.332227 164.127087 
L 428.025432 163.926887 
L 431.718636 163.680109 
" clip-path="url(#p85790a4267)" style="fill: none; stroke: #ff0000; stroke-opacity: 0.5; stroke-width: 0.25; stroke-linecap: square"/>
    <defs>
     <path id="mf462130fa9" d="M -0.49999 0.49999 
L 0.50001 0.49999 
L 0.50001 -0.50001 
L -0.49999 -0.50001 
z
"/>
    </defs>
    <g clip-path="url(#p85790a4267)">
     <use xlink:href="#mf462130fa9" x="66.091364" y="139.249091" style="fill: #ff0000; fill-opacity: 0.5"/>
     <use xlink:href="#mf462130fa9" x="69.784568" y="149.365455" style="fill: #ff0000; fill-opacity: 0.5"/>
     <use xlink:href="#mf462130fa9" x="73.477773" y="149.365455" style="fill: #ff0000; fill-opacity: 0.5"/>
     <use xlink:href="#mf462130fa9" x="77.170978" y="150.63" style="fill: #ff0000; fill-opacity: 0.5"/>
     <use xlink:href="#mf462130fa9" x="80.864183" y="154.423636" style="fill: #ff0000; fill-opacity: 0.5"/>
     <use xlink:href="#mf462130fa9" x="84.557388" y="156.109697" style="fill: #ff0000; fill-opacity: 0.5"/>
     <use xlink:href="#mf462130fa9" x="88.250592" y="157.314026" style="fill: #ff0000; fill-opacity: 0.5"/>
     <use xlink:href="#mf462130fa9" x="91.943797" y="155.688182" style="fill: #ff0000; fill-opacity: 0.5"/>
     <use xlink:href="#mf462130fa9" x="95.637002" y="156.109697" style="fill: #ff0000; fill-opacity: 0.5"/>
     <use xlink:href="#mf462130fa9" x="99.330207" y="157.458545" style="fill: #ff0000; fill-opacity: 0.5"/>
     <use xlink:href="#mf462130fa9" x="103.023411" y="155.80314" style="fill: #ff0000; fill-opacity: 0.5"/>
     <use xlink:href="#mf462130fa9" x="106.716616" y="156.109697" style="fill: #ff0000; fill-opacity: 0.5"/>
     <use xlink:href="#mf462130fa9" x="110.409821" y="156.369091" style="fill: #ff0000; fill-opacity: 0.5"/>
     <use xlink:href="#mf462130fa9" x="114.103026" y="155.868831" style="fill: #ff0000; fill-opacity: 0.5"/>
     <use xlink:href="#mf462130fa9" x="117.79623" y="158.807394" style="fill: #ff0000; fill-opacity: 0.5"/>
     <use xlink:href="#mf462130fa9" x="121.489435" y="159.797955" style="fill: #ff0000; fill-opacity: 0.5"/>
     <use xlink:href="#mf462130fa9" x="125.18264" y="160.076898" style="fill: #ff0000; fill-opacity: 0.5"/>
     <use xlink:href="#mf462130fa9" x="128.875845" y="159.200808" style="fill: #ff0000; fill-opacity: 0.5"/>
     <use xlink:href="#mf462130fa9" x="132.56905" y="160.812919" style="fill: #ff0000; fill-opacity: 0.5"/>
     <use xlink:href="#mf462130fa9" x="136.262254" y="162.010909" style="fill: #ff0000; fill-opacity: 0.5"/>
     <use xlink:href="#mf462130fa9" x="139.955459" y="161.890476" style="fill: #ff0000; fill-opacity: 0.5"/>
     <use xlink:href="#mf462130fa9" x="143.648664" y="162.930579" style="fill: #ff0000; fill-opacity: 0.5"/>
     <use xlink:href="#mf462130fa9" x="147.341869" y="162.340791" style="fill: #ff0000; fill-opacity: 0.5"/>
     <use xlink:href="#mf462130fa9" x="151.035073" y="162.221667" style="fill: #ff0000; fill-opacity: 0.5"/>
     <use xlink:href="#mf462130fa9" x="154.728278" y="163.123709" style="fill: #ff0000; fill-opacity: 0.5"/>
     <use xlink:href="#mf462130fa9" x="158.421483" y="162.789091" style="fill: #ff0000; fill-opacity: 0.5"/>
     <use xlink:href="#mf462130fa9" x="162.114688" y="163.041279" style="fill: #ff0000; fill-opacity: 0.5"/>
     <use xlink:href="#mf462130fa9" x="165.807893" y="162.733506" style="fill: #ff0000; fill-opacity: 0.5"/>
     <use xlink:href="#mf462130fa9" x="169.501097" y="162.795799" style="fill: #ff0000; fill-opacity: 0.5"/>
     <use xlink:href="#mf462130fa9" x="173.194302" y="162.010909" style="fill: #ff0000; fill-opacity: 0.5"/>
     <use xlink:href="#mf462130fa9" x="176.887507" y="161.929326" style="fill: #ff0000; fill-opacity: 0.5"/>
     <use xlink:href="#mf462130fa9" x="180.580712" y="161.536705" style="fill: #ff0000; fill-opacity: 0.5"/>
     <use xlink:href="#mf462130fa9" x="184.273916" y="161.321157" style="fill: #ff0000; fill-opacity: 0.5"/>
     <use xlink:href="#mf462130fa9" x="187.967121" y="162.903529" style="fill: #ff0000; fill-opacity: 0.5"/>
     <use xlink:href="#mf462130fa9" x="191.660326" y="163.239325" style="fill: #ff0000; fill-opacity: 0.5"/>
     <use xlink:href="#mf462130fa9" x="195.353531" y="163.134949" style="fill: #ff0000; fill-opacity: 0.5"/>
     <use xlink:href="#mf462130fa9" x="199.046736" y="163.719754" style="fill: #ff0000; fill-opacity: 0.5"/>
     <use xlink:href="#mf462130fa9" x="202.73994" y="163.34201" style="fill: #ff0000; fill-opacity: 0.5"/>
     <use xlink:href="#mf462130fa9" x="206.433145" y="162.853939" style="fill: #ff0000; fill-opacity: 0.5"/>
     <use xlink:href="#mf462130fa9" x="210.12635" y="163.149" style="fill: #ff0000; fill-opacity: 0.5"/>
     <use xlink:href="#mf462130fa9" x="213.819555" y="163.059557" style="fill: #ff0000; fill-opacity: 0.5"/>
     <use xlink:href="#mf462130fa9" x="217.512759" y="162.853939" style="fill: #ff0000; fill-opacity: 0.5"/>
     <use xlink:href="#mf462130fa9" x="221.205964" y="163.246047" style="fill: #ff0000; fill-opacity: 0.5"/>
     <use xlink:href="#mf462130fa9" x="224.899169" y="163.045537" style="fill: #ff0000; fill-opacity: 0.5"/>
     <use xlink:href="#mf462130fa9" x="228.592374" y="163.41596" style="fill: #ff0000; fill-opacity: 0.5"/>
     <use xlink:href="#mf462130fa9" x="232.285579" y="163.000553" style="fill: #ff0000; fill-opacity: 0.5"/>
     <use xlink:href="#mf462130fa9" x="235.978783" y="162.710445" style="fill: #ff0000; fill-opacity: 0.5"/>
     <use xlink:href="#mf462130fa9" x="239.671988" y="162.853939" style="fill: #ff0000; fill-opacity: 0.5"/>
     <use xlink:href="#mf462130fa9" x="243.365193" y="162.888349" style="fill: #ff0000; fill-opacity: 0.5"/>
     <use xlink:href="#mf462130fa9" x="247.058398" y="162.719055" style="fill: #ff0000; fill-opacity: 0.5"/>
     <use xlink:href="#mf462130fa9" x="250.751602" y="162.655579" style="fill: #ff0000; fill-opacity: 0.5"/>
     <use xlink:href="#mf462130fa9" x="254.444807" y="162.789091" style="fill: #ff0000; fill-opacity: 0.5"/>
     <use xlink:href="#mf462130fa9" x="258.138012" y="162.440377" style="fill: #ff0000; fill-opacity: 0.5"/>
     <use xlink:href="#mf462130fa9" x="261.831217" y="162.572929" style="fill: #ff0000; fill-opacity: 0.5"/>
     <use xlink:href="#mf462130fa9" x="265.524421" y="163.528364" style="fill: #ff0000; fill-opacity: 0.5"/>
     <use xlink:href="#mf462130fa9" x="269.217626" y="163.727078" style="fill: #ff0000; fill-opacity: 0.5"/>
     <use xlink:href="#mf462130fa9" x="272.910831" y="163.83008" style="fill: #ff0000; fill-opacity: 0.5"/>
     <use xlink:href="#mf462130fa9" x="276.604036" y="164.10395" style="fill: #ff0000; fill-opacity: 0.5"/>
     <use xlink:href="#mf462130fa9" x="280.297241" y="164.197072" style="fill: #ff0000; fill-opacity: 0.5"/>
     <use xlink:href="#mf462130fa9" x="283.990445" y="164.034182" style="fill: #ff0000; fill-opacity: 0.5"/>
     <use xlink:href="#mf462130fa9" x="287.68365" y="163.959553" style="fill: #ff0000; fill-opacity: 0.5"/>
     <use xlink:href="#mf462130fa9" x="291.376855" y="163.805748" style="fill: #ff0000; fill-opacity: 0.5"/>
     <use xlink:href="#mf462130fa9" x="295.07006" y="163.817403" style="fill: #ff0000; fill-opacity: 0.5"/>
     <use xlink:href="#mf462130fa9" x="298.763264" y="163.828693" style="fill: #ff0000; fill-opacity: 0.5"/>
     <use xlink:href="#mf462130fa9" x="302.456469" y="163.839636" style="fill: #ff0000; fill-opacity: 0.5"/>
     <use xlink:href="#mf462130fa9" x="306.149674" y="163.69697" style="fill: #ff0000; fill-opacity: 0.5"/>
     <use xlink:href="#mf462130fa9" x="309.842879" y="163.483066" style="fill: #ff0000; fill-opacity: 0.5"/>
     <use xlink:href="#mf462130fa9" x="313.536084" y="163.572995" style="fill: #ff0000; fill-opacity: 0.5"/>
     <use xlink:href="#mf462130fa9" x="317.229288" y="163.440395" style="fill: #ff0000; fill-opacity: 0.5"/>
     <use xlink:href="#mf462130fa9" x="320.922493" y="163.383844" style="fill: #ff0000; fill-opacity: 0.5"/>
     <use xlink:href="#mf462130fa9" x="324.615698" y="163.400128" style="fill: #ff0000; fill-opacity: 0.5"/>
     <use xlink:href="#mf462130fa9" x="328.308903" y="163.556465" style="fill: #ff0000; fill-opacity: 0.5"/>
     <use xlink:href="#mf462130fa9" x="332.002107" y="163.708518" style="fill: #ff0000; fill-opacity: 0.5"/>
     <use xlink:href="#mf462130fa9" x="335.695312" y="163.583047" style="fill: #ff0000; fill-opacity: 0.5"/>
     <use xlink:href="#mf462130fa9" x="339.388517" y="163.865576" style="fill: #ff0000; fill-opacity: 0.5"/>
     <use xlink:href="#mf462130fa9" x="343.081722" y="163.87445" style="fill: #ff0000; fill-opacity: 0.5"/>
     <use xlink:href="#mf462130fa9" x="346.774927" y="164.211547" style="fill: #ff0000; fill-opacity: 0.5"/>
     <use xlink:href="#mf462130fa9" x="350.468131" y="164.086061" style="fill: #ff0000; fill-opacity: 0.5"/>
     <use xlink:href="#mf462130fa9" x="354.161336" y="163.963751" style="fill: #ff0000; fill-opacity: 0.5"/>
     <use xlink:href="#mf462130fa9" x="357.854541" y="163.8445" style="fill: #ff0000; fill-opacity: 0.5"/>
     <use xlink:href="#mf462130fa9" x="361.547746" y="163.540853" style="fill: #ff0000; fill-opacity: 0.5"/>
     <use xlink:href="#mf462130fa9" x="365.24095" y="163.676408" style="fill: #ff0000; fill-opacity: 0.5"/>
     <use xlink:href="#mf462130fa9" x="368.934155" y="163.503987" style="fill: #ff0000; fill-opacity: 0.5"/>
     <use xlink:href="#mf462130fa9" x="372.62736" y="163.69697" style="fill: #ff0000; fill-opacity: 0.5"/>
     <use xlink:href="#mf462130fa9" x="376.320565" y="163.94492" style="fill: #ff0000; fill-opacity: 0.5"/>
     <use xlink:href="#mf462130fa9" x="380.01377" y="163.540127" style="fill: #ff0000; fill-opacity: 0.5"/>
     <use xlink:href="#mf462130fa9" x="383.706974" y="163.49348" style="fill: #ff0000; fill-opacity: 0.5"/>
     <use xlink:href="#mf462130fa9" x="387.400179" y="163.907727" style="fill: #ff0000; fill-opacity: 0.5"/>
     <use xlink:href="#mf462130fa9" x="391.093384" y="163.971665" style="fill: #ff0000; fill-opacity: 0.5"/>
     <use xlink:href="#mf462130fa9" x="394.786589" y="164.202788" style="fill: #ff0000; fill-opacity: 0.5"/>
     <use xlink:href="#mf462130fa9" x="398.479793" y="164.54" style="fill: #ff0000; fill-opacity: 0.5"/>
     <use xlink:href="#mf462130fa9" x="402.172998" y="164.48502" style="fill: #ff0000; fill-opacity: 0.5"/>
     <use xlink:href="#mf462130fa9" x="405.866203" y="164.376833" style="fill: #ff0000; fill-opacity: 0.5"/>
     <use xlink:href="#mf462130fa9" x="409.559408" y="164.378569" style="fill: #ff0000; fill-opacity: 0.5"/>
     <use xlink:href="#mf462130fa9" x="413.252612" y="164.433512" style="fill: #ff0000; fill-opacity: 0.5"/>
     <use xlink:href="#mf462130fa9" x="416.945817" y="164.487311" style="fill: #ff0000; fill-opacity: 0.5"/>
     <use xlink:href="#mf462130fa9" x="420.639022" y="164.227123" style="fill: #ff0000; fill-opacity: 0.5"/>
     <use xlink:href="#mf462130fa9" x="424.332227" y="164.127087" style="fill: #ff0000; fill-opacity: 0.5"/>
     <use xlink:href="#mf462130fa9" x="428.025432" y="163.926887" style="fill: #ff0000; fill-opacity: 0.5"/>
     <use xlink:href="#mf462130fa9" x="431.718636" y="163.680109" style="fill: #ff0000; fill-opacity: 0.5"/>
    </g>
   </g>
   <g id="patch_3">
    <path d="M 47.81 303.64 
L 47.81 25.44 
" style="fill: none; stroke: #000000; stroke-width: 0.8; stroke-linejoin: miter; stroke-linecap: square"/>
   </g>
   <g id="patch_4">
    <path d="M 450 303.64 
L 450 25.44 
" style="fill: none; stroke: #000000; stroke-width: 0.8; stroke-linejoin: miter; stroke-linecap: square"/>
   </g>
   <g id="patch_5">
    <path d="M 47.81 303.64 
L 450 303.64 
" style="fill: none; stroke: #000000; stroke-width: 0.8; stroke-linejoin: miter; stroke-linecap: square"/>
   </g>
   <g id="patch_6">
    <path d="M 47.81 25.44 
L 450 25.44 
" style="fill: none; stroke: #000000; stroke-width: 0.8; stroke-linejoin: miter; stroke-linecap: square"/>
   </g>
   <g id="text_15">
    <!-- Average action - 28173931-29014202 - 50 games -->
    <g transform="translate(98.99875 19.44) scale(0.12 -0.12)">
     <defs>
      <path id="DejaVuSans-2d" d="M 313 2009 
L 1997 2009 
L 1997 1497 
L 313 1497 
L 313 2009 
z
" transform="scale(0.015625)"/>
      <path id="DejaVuSans-37" d="M 525 4666 
L 3525 4666 
L 3525 4397 
L 1831 0 
L 1172 0 
L 2766 4134 
L 525 4134 
L 525 4666 
z
" transform="scale(0.015625)"/>
      <path id="DejaVuSans-33" d="M 2597 2516 
Q 3050 2419 3304 2112 
Q 3559 1806 3559 1356 
Q 3559 666 3084 287 
Q 2609 -91 1734 -91 
Q 1441 -91 1130 -33 
Q 819 25 488 141 
L 488 750 
Q 750 597 1062 519 
Q 1375 441 1716 441 
Q 2309 441 2620 675 
Q 2931 909 2931 1356 
Q 2931 1769 2642 2001 
Q 2353 2234 1838 2234 
L 1294 2234 
L 1294 2753 
L 1863 2753 
Q 2328 2753 2575 2939 
Q 2822 3125 2822 3475 
Q 2822 3834 2567 4026 
Q 2313 4219 1838 4219 
Q 1578 4219 1281 4162 
Q 984 4106 628 3988 
L 628 4550 
Q 988 4650 1302 4700 
Q 1616 4750 1894 4750 
Q 2613 4750 3031 4423 
Q 3450 4097 3450 3541 
Q 3450 3153 3228 2886 
Q 3006 2619 2597 2516 
z
" transform="scale(0.015625)"/>
      <path id="DejaVuSans-39" d="M 703 97 
L 703 672 
Q 941 559 1184 500 
Q 1428 441 1663 441 
Q 2288 441 2617 861 
Q 2947 1281 2994 2138 
Q 2813 1869 2534 1725 
Q 2256 1581 1919 1581 
Q 1219 1581 811 2004 
Q 403 2428 403 3163 
Q 403 3881 828 4315 
Q 1253 4750 1959 4750 
Q 2769 4750 3195 4129 
Q 3622 3509 3622 2328 
Q 3622 1225 3098 567 
Q 2575 -91 1691 -91 
Q 1453 -91 1209 -44 
Q 966 3 703 97 
z
M 1959 2075 
Q 2384 2075 2632 2365 
Q 2881 2656 2881 3163 
Q 2881 3666 2632 3958 
Q 2384 4250 1959 4250 
Q 1534 4250 1286 3958 
Q 1038 3666 1038 3163 
Q 1038 2656 1286 2365 
Q 1534 2075 1959 2075 
z
" transform="scale(0.015625)"/>
      <path id="DejaVuSans-35" d="M 691 4666 
L 3169 4666 
L 3169 4134 
L 1269 4134 
L 1269 2991 
Q 1406 3038 1543 3061 
Q 1681 3084 1819 3084 
Q 2600 3084 3056 2656 
Q 3513 2228 3513 1497 
Q 3513 744 3044 326 
Q 2575 -91 1722 -91 
Q 1428 -91 1123 -41 
Q 819 9 494 109 
L 494 744 
Q 775 591 1075 516 
Q 1375 441 1709 441 
Q 2250 441 2565 725 
Q 2881 1009 2881 1497 
Q 2881 1984 2565 2268 
Q 2250 2553 1709 2553 
Q 1456 2553 1204 2497 
Q 953 2441 691 2322 
L 691 4666 
z
" transform="scale(0.015625)"/>
      <path id="DejaVuSans-6d" d="M 3328 2828 
Q 3544 3216 3844 3400 
Q 4144 3584 4550 3584 
Q 5097 3584 5394 3201 
Q 5691 2819 5691 2113 
L 5691 0 
L 5113 0 
L 5113 2094 
Q 5113 2597 4934 2840 
Q 4756 3084 4391 3084 
Q 3944 3084 3684 2787 
Q 3425 2491 3425 1978 
L 3425 0 
L 2847 0 
L 2847 2094 
Q 2847 2600 2669 2842 
Q 2491 3084 2119 3084 
Q 1678 3084 1418 2786 
Q 1159 2488 1159 1978 
L 1159 0 
L 581 0 
L 581 3500 
L 1159 3500 
L 1159 2956 
Q 1356 3278 1631 3431 
Q 1906 3584 2284 3584 
Q 2666 3584 2933 3390 
Q 3200 3197 3328 2828 
z
" transform="scale(0.015625)"/>
      <path id="DejaVuSans-73" d="M 2834 3397 
L 2834 2853 
Q 2591 2978 2328 3040 
Q 2066 3103 1784 3103 
Q 1356 3103 1142 2972 
Q 928 2841 928 2578 
Q 928 2378 1081 2264 
Q 1234 2150 1697 2047 
L 1894 2003 
Q 2506 1872 2764 1633 
Q 3022 1394 3022 966 
Q 3022 478 2636 193 
Q 2250 -91 1575 -91 
Q 1294 -91 989 -36 
Q 684 19 347 128 
L 347 722 
Q 666 556 975 473 
Q 1284 391 1588 391 
Q 1994 391 2212 530 
Q 2431 669 2431 922 
Q 2431 1156 2273 1281 
Q 2116 1406 1581 1522 
L 1381 1569 
Q 847 1681 609 1914 
Q 372 2147 372 2553 
Q 372 3047 722 3315 
Q 1072 3584 1716 3584 
Q 2034 3584 2315 3537 
Q 2597 3491 2834 3397 
z
" transform="scale(0.015625)"/>
     </defs>
     <use xlink:href="#DejaVuSans-41"/>
     <use xlink:href="#DejaVuSans-76" x="62.533203"/>
     <use xlink:href="#DejaVuSans-65" x="121.712891"/>
     <use xlink:href="#DejaVuSans-72" x="183.236328"/>
     <use xlink:href="#DejaVuSans-61" x="224.349609"/>
     <use xlink:href="#DejaVuSans-67" x="285.628906"/>
     <use xlink:href="#DejaVuSans-65" x="349.105469"/>
     <use xlink:href="#DejaVuSans-20" x="410.628906"/>
     <use xlink:href="#DejaVuSans-61" x="442.416016"/>
     <use xlink:href="#DejaVuSans-63" x="503.695312"/>
     <use xlink:href="#DejaVuSans-74" x="558.675781"/>
     <use xlink:href="#DejaVuSans-69" x="597.884766"/>
     <use xlink:href="#DejaVuSans-6f" x="625.667969"/>
     <use xlink:href="#DejaVuSans-6e" x="686.849609"/>
     <use xlink:href="#DejaVuSans-20" x="750.228516"/>
     <use xlink:href="#DejaVuSans-2d" x="782.015625"/>
     <use xlink:href="#DejaVuSans-20" x="818.099609"/>
     <use xlink:href="#DejaVuSans-32" x="849.886719"/>
     <use xlink:href="#DejaVuSans-38" x="913.509766"/>
     <use xlink:href="#DejaVuSans-31" x="977.132812"/>
     <use xlink:href="#DejaVuSans-37" x="1040.755859"/>
     <use xlink:href="#DejaVuSans-33" x="1104.378906"/>
     <use xlink:href="#DejaVuSans-39" x="1168.001953"/>
     <use xlink:href="#DejaVuSans-33" x="1231.625"/>
     <use xlink:href="#DejaVuSans-31" x="1295.248047"/>
     <use xlink:href="#DejaVuSans-2d" x="1358.871094"/>
     <use xlink:href="#DejaVuSans-32" x="1394.955078"/>
     <use xlink:href="#DejaVuSans-39" x="1458.578125"/>
     <use xlink:href="#DejaVuSans-30" x="1522.201172"/>
     <use xlink:href="#DejaVuSans-31" x="1585.824219"/>
     <use xlink:href="#DejaVuSans-34" x="1649.447266"/>
     <use xlink:href="#DejaVuSans-32" x="1713.070312"/>
     <use xlink:href="#DejaVuSans-30" x="1776.693359"/>
     <use xlink:href="#DejaVuSans-32" x="1840.316406"/>
     <use xlink:href="#DejaVuSans-20" x="1903.939453"/>
     <use xlink:href="#DejaVuSans-2d" x="1935.726562"/>
     <use xlink:href="#DejaVuSans-20" x="1971.810547"/>
     <use xlink:href="#DejaVuSans-35" x="2003.597656"/>
     <use xlink:href="#DejaVuSans-30" x="2067.220703"/>
     <use xlink:href="#DejaVuSans-20" x="2130.84375"/>
     <use xlink:href="#DejaVuSans-67" x="2162.630859"/>
     <use xlink:href="#DejaVuSans-61" x="2226.107422"/>
     <use xlink:href="#DejaVuSans-6d" x="2287.386719"/>
     <use xlink:href="#DejaVuSans-65" x="2384.798828"/>
     <use xlink:href="#DejaVuSans-73" x="2446.322266"/>
    </g>
   </g>
   <g id="legend_1">
    <g id="patch_7">
     <path d="M 54.81 92.1525 
L 140.477188 92.1525 
Q 142.477188 92.1525 142.477188 90.1525 
L 142.477188 32.44 
Q 142.477188 30.44 140.477188 30.44 
L 54.81 30.44 
Q 52.81 30.44 52.81 32.44 
L 52.81 90.1525 
Q 52.81 92.1525 54.81 92.1525 
z
" style="fill: #ffffff; opacity: 0.8; stroke: #cccccc; stroke-linejoin: miter"/>
    </g>
    <g id="line2d_20">
     <path d="M 56.81 38.538438 
L 66.81 38.538438 
L 76.81 38.538438 
" style="fill: none; stroke: #0000ff; stroke-linecap: square"/>
     <g>
      <use xlink:href="#m4204e81148" x="66.81" y="38.538438" style="fill: #0000ff"/>
     </g>
    </g>
    <g id="text_16">
     <!-- LLM -->
     <g transform="translate(84.81 42.038438) scale(0.1 -0.1)">
      <defs>
       <path id="DejaVuSans-4c" d="M 628 4666 
L 1259 4666 
L 1259 531 
L 3531 531 
L 3531 0 
L 628 0 
L 628 4666 
z
" transform="scale(0.015625)"/>
       <path id="DejaVuSans-4d" d="M 628 4666 
L 1569 4666 
L 2759 1491 
L 3956 4666 
L 4897 4666 
L 4897 0 
L 4281 0 
L 4281 4097 
L 3078 897 
L 2444 897 
L 1241 4097 
L 1241 0 
L 628 0 
L 628 4666 
z
" transform="scale(0.015625)"/>
      </defs>
      <use xlink:href="#DejaVuSans-4c"/>
      <use xlink:href="#DejaVuSans-4c" x="55.712891"/>
      <use xlink:href="#DejaVuSans-4d" x="111.425781"/>
     </g>
    </g>
    <g id="line2d_21">
     <path d="M 56.81 53.216563 
L 66.81 53.216563 
L 76.81 53.216563 
" style="fill: none; stroke: #0000ff; stroke-opacity: 0.5; stroke-width: 0.5; stroke-linecap: square"/>
     <g>
      <use xlink:href="#m61cfed6890" x="66.81" y="53.216563" style="fill: #0000ff; fill-opacity: 0.5"/>
     </g>
    </g>
    <g id="text_17">
     <!-- LLM mean -->
     <g transform="translate(84.81 56.716563) scale(0.1 -0.1)">
      <use xlink:href="#DejaVuSans-4c"/>
      <use xlink:href="#DejaVuSans-4c" x="55.712891"/>
      <use xlink:href="#DejaVuSans-4d" x="111.425781"/>
      <use xlink:href="#DejaVuSans-20" x="197.705078"/>
      <use xlink:href="#DejaVuSans-6d" x="229.492188"/>
      <use xlink:href="#DejaVuSans-65" x="326.904297"/>
      <use xlink:href="#DejaVuSans-61" x="388.427734"/>
      <use xlink:href="#DejaVuSans-6e" x="449.707031"/>
     </g>
    </g>
    <g id="line2d_22">
     <path d="M 56.81 67.894688 
L 66.81 67.894688 
L 76.81 67.894688 
" style="fill: none; stroke: #ff0000; stroke-width: 0.5; stroke-linecap: square"/>
     <g>
      <use xlink:href="#mc27088ff59" x="66.81" y="67.894688" style="fill: #ff0000"/>
     </g>
    </g>
    <g id="text_18">
     <!-- RND -->
     <g transform="translate(84.81 71.394688) scale(0.1 -0.1)">
      <defs>
       <path id="DejaVuSans-52" d="M 2841 2188 
Q 3044 2119 3236 1894 
Q 3428 1669 3622 1275 
L 4263 0 
L 3584 0 
L 2988 1197 
Q 2756 1666 2539 1819 
Q 2322 1972 1947 1972 
L 1259 1972 
L 1259 0 
L 628 0 
L 628 4666 
L 2053 4666 
Q 2853 4666 3247 4331 
Q 3641 3997 3641 3322 
Q 3641 2881 3436 2590 
Q 3231 2300 2841 2188 
z
M 1259 4147 
L 1259 2491 
L 2053 2491 
Q 2509 2491 2742 2702 
Q 2975 2913 2975 3322 
Q 2975 3731 2742 3939 
Q 2509 4147 2053 4147 
L 1259 4147 
z
" transform="scale(0.015625)"/>
       <path id="DejaVuSans-4e" d="M 628 4666 
L 1478 4666 
L 3547 763 
L 3547 4666 
L 4159 4666 
L 4159 0 
L 3309 0 
L 1241 3903 
L 1241 0 
L 628 0 
L 628 4666 
z
" transform="scale(0.015625)"/>
       <path id="DejaVuSans-44" d="M 1259 4147 
L 1259 519 
L 2022 519 
Q 2988 519 3436 956 
Q 3884 1394 3884 2338 
Q 3884 3275 3436 3711 
Q 2988 4147 2022 4147 
L 1259 4147 
z
M 628 4666 
L 1925 4666 
Q 3281 4666 3915 4102 
Q 4550 3538 4550 2338 
Q 4550 1131 3912 565 
Q 3275 0 1925 0 
L 628 0 
L 628 4666 
z
" transform="scale(0.015625)"/>
      </defs>
      <use xlink:href="#DejaVuSans-52"/>
      <use xlink:href="#DejaVuSans-4e" x="69.482422"/>
      <use xlink:href="#DejaVuSans-44" x="144.287109"/>
     </g>
    </g>
    <g id="line2d_23">
     <path d="M 56.81 82.572813 
L 66.81 82.572813 
L 76.81 82.572813 
" style="fill: none; stroke: #ff0000; stroke-opacity: 0.5; stroke-width: 0.25; stroke-linecap: square"/>
     <g>
      <use xlink:href="#mf462130fa9" x="66.81" y="82.572813" style="fill: #ff0000; fill-opacity: 0.5"/>
     </g>
    </g>
    <g id="text_19">
     <!-- RND mean -->
     <g transform="translate(84.81 86.072813) scale(0.1 -0.1)">
      <use xlink:href="#DejaVuSans-52"/>
      <use xlink:href="#DejaVuSans-4e" x="69.482422"/>
      <use xlink:href="#DejaVuSans-44" x="144.287109"/>
      <use xlink:href="#DejaVuSans-20" x="221.289062"/>
      <use xlink:href="#DejaVuSans-6d" x="253.076172"/>
      <use xlink:href="#DejaVuSans-65" x="350.488281"/>
      <use xlink:href="#DejaVuSans-61" x="412.011719"/>
      <use xlink:href="#DejaVuSans-6e" x="473.291016"/>
     </g>
    </g>
   </g>
  </g>
 </g>
 <defs>
  <clipPath id="p85790a4267">
   <rect x="47.81" y="25.44" width="402.19" height="278.2"/>
  </clipPath>
 </defs>
</svg>
