<?xml version="1.0" encoding="utf-8" standalone="no"?>
<!DOCTYPE svg PUBLIC "-//W3C//DTD SVG 1.1//EN"
  "http://www.w3.org/Graphics/SVG/1.1/DTD/svg11.dtd">
<svg xmlns:xlink="http://www.w3.org/1999/xlink" width="460.8pt" height="345.6pt" viewBox="0 0 460.8 345.6" xmlns="http://www.w3.org/2000/svg" version="1.1">
 <metadata>
  <rdf:RDF xmlns:dc="http://purl.org/dc/elements/1.1/" xmlns:cc="http://creativecommons.org/ns#" xmlns:rdf="http://www.w3.org/1999/02/22-rdf-syntax-ns#">
   <cc:Work>
    <dc:type rdf:resource="http://purl.org/dc/dcmitype/StillImage"/>
    <dc:date>2024-04-09T17:37:26.317230</dc:date>
    <dc:format>image/svg+xml</dc:format>
    <dc:creator>
     <cc:Agent>
      <dc:title>Matplotlib v3.8.0, https://matplotlib.org/</dc:title>
     </cc:Agent>
    </dc:creator>
   </cc:Work>
  </rdf:RDF>
 </metadata>
 <defs>
  <style type="text/css">*{stroke-linejoin: round; stroke-linecap: butt}</style>
 </defs>
 <g id="figure_1">
  <g id="patch_1">
   <path d="M 0 345.6 
L 460.8 345.6 
L 460.8 0 
L 0 0 
z
" style="fill: #ffffff"/>
  </g>
  <g id="axes_1">
   <g id="patch_2">
    <path d="M 47.81 303.64 
L 450 303.64 
L 450 25.44 
L 47.81 25.44 
z
" style="fill: #ffffff"/>
   </g>
   <g id="PolyCollection_1">
    <defs>
     <path id="m328b532ec7" d="M 66.091364 -73.954225 
L 66.091364 -73.954225 
L 68.561818 -186.727124 
L 71.032273 -206.927814 
L 73.502727 -215.871242 
L 75.973182 -220.59999 
L 78.443636 -222.990448 
L 80.914091 -224.585093 
L 83.384545 -225.224182 
L 85.855 -225.35992 
L 88.325455 -224.818606 
L 90.795909 -224.618884 
L 93.266364 -224.445437 
L 95.736818 -224.211204 
L 98.207273 -223.973451 
L 100.677727 -223.823007 
L 103.148182 -223.557058 
L 105.618636 -223.214431 
L 108.089091 -222.954025 
L 110.559545 -222.637271 
L 113.03 -222.312116 
L 115.500455 -221.956807 
L 117.970909 -221.546741 
L 120.441364 -221.06894 
L 122.911818 -220.615863 
L 125.382273 -220.152531 
L 127.852727 -219.744443 
L 130.323182 -219.327499 
L 132.793636 -218.944367 
L 135.264091 -218.597355 
L 137.734545 -218.264923 
L 140.205 -217.956865 
L 142.675455 -217.645433 
L 145.145909 -217.351088 
L 147.616364 -217.072349 
L 150.086818 -216.799571 
L 152.557273 -216.525065 
L 155.027727 -216.275523 
L 157.498182 -216.017143 
L 159.968636 -215.771382 
L 162.439091 -215.546672 
L 164.909545 -215.320193 
L 167.38 -215.109628 
L 169.850455 -214.908209 
L 172.320909 -214.707543 
L 174.791364 -214.515333 
L 177.261818 -214.319338 
L 179.732273 -214.13145 
L 182.202727 -213.957608 
L 184.673182 -213.7926 
L 187.143636 -213.633807 
L 189.614091 -213.467811 
L 192.084545 -213.291797 
L 194.555 -213.113848 
L 197.025455 -212.934259 
L 199.495909 -212.745406 
L 201.966364 -212.544221 
L 204.436818 -212.348734 
L 206.907273 -212.1546 
L 209.377727 -211.97254 
L 211.848182 -211.786115 
L 214.318636 -211.604635 
L 216.789091 -211.426643 
L 219.259545 -211.255693 
L 221.73 -211.080678 
L 224.200455 -210.910031 
L 226.670909 -210.744717 
L 229.141364 -210.578946 
L 231.611818 -210.420418 
L 234.082273 -210.26344 
L 236.552727 -210.113326 
L 239.023182 -209.970996 
L 241.493636 -209.840851 
L 243.964091 -209.710162 
L 246.434545 -209.583409 
L 248.905 -209.4561 
L 251.375455 -209.33148 
L 253.845909 -209.206344 
L 256.316364 -209.074974 
L 258.786818 -208.947237 
L 261.257273 -208.821155 
L 263.727727 -208.701313 
L 266.198182 -208.586669 
L 268.668636 -208.470521 
L 271.139091 -208.359362 
L 273.609545 -208.249393 
L 276.08 -208.133653 
L 278.550455 -208.029628 
L 281.020909 -207.925719 
L 283.491364 -207.814485 
L 285.961818 -207.706047 
L 288.432273 -207.593445 
L 290.902727 -207.477233 
L 293.373182 -207.364384 
L 295.843636 -207.253475 
L 298.314091 -207.146492 
L 300.784545 -207.03863 
L 303.255 -206.928166 
L 305.725455 -206.820729 
L 308.195909 -206.714433 
L 310.666364 -206.607507 
L 313.136818 -206.500312 
L 315.607273 -206.393391 
L 318.077727 -206.287254 
L 320.548182 -206.18582 
L 323.018636 -206.090024 
L 325.489091 -205.994791 
L 327.959545 -205.902076 
L 330.43 -205.810506 
L 332.900455 -205.719352 
L 335.370909 -205.626557 
L 337.841364 -205.534113 
L 340.311818 -205.439463 
L 342.782273 -205.346337 
L 345.252727 -205.254715 
L 347.723182 -205.163922 
L 350.193636 -205.072633 
L 352.664091 -204.980843 
L 355.134545 -204.890364 
L 357.605 -204.799306 
L 360.075455 -204.708853 
L 362.545909 -204.618367 
L 365.016364 -204.529611 
L 367.486818 -204.442624 
L 369.957273 -204.354771 
L 372.427727 -204.269287 
L 374.898182 -204.184139 
L 377.368636 -204.103117 
L 379.839091 -204.020713 
L 382.309545 -203.936981 
L 384.78 -203.852018 
L 387.250455 -203.764494 
L 389.720909 -203.678044 
L 392.191364 -203.590628 
L 394.661818 -203.504418 
L 397.132273 -203.420085 
L 399.602727 -203.334074 
L 402.073182 -203.248886 
L 404.543636 -203.164228 
L 407.014091 -203.080097 
L 409.484545 -202.996966 
L 411.955 -202.917266 
L 414.425455 -202.836007 
L 416.895909 -202.754746 
L 419.366364 -202.676091 
L 421.836818 -202.599353 
L 424.307273 -202.526061 
L 426.777727 -202.537863 
L 429.248182 -202.784411 
L 431.718636 -205.192627 
L 431.718636 -173.846282 
L 431.718636 -173.846282 
L 429.248182 -177.816191 
L 426.777727 -178.692371 
L 424.307273 -179.107803 
L 421.836818 -179.261156 
L 419.366364 -179.394749 
L 416.895909 -179.516298 
L 414.425455 -179.609865 
L 411.955 -179.668052 
L 409.484545 -179.707548 
L 407.014091 -179.774451 
L 404.543636 -179.854222 
L 402.073182 -179.928627 
L 399.602727 -180.025097 
L 397.132273 -180.111268 
L 394.661818 -180.158526 
L 392.191364 -180.216129 
L 389.720909 -180.279651 
L 387.250455 -180.327099 
L 384.78 -180.377003 
L 382.309545 -180.407585 
L 379.839091 -180.429736 
L 377.368636 -180.444372 
L 374.898182 -180.452259 
L 372.427727 -180.470305 
L 369.957273 -180.486541 
L 367.486818 -180.507904 
L 365.016364 -180.523197 
L 362.545909 -180.541271 
L 360.075455 -180.56208 
L 357.605 -180.579469 
L 355.134545 -180.595612 
L 352.664091 -180.606841 
L 350.193636 -180.618894 
L 347.723182 -180.626448 
L 345.252727 -180.629759 
L 342.782273 -180.632331 
L 340.311818 -180.635833 
L 337.841364 -180.640272 
L 335.370909 -180.636337 
L 332.900455 -180.630381 
L 330.43 -180.618178 
L 327.959545 -180.604145 
L 325.489091 -180.589699 
L 323.018636 -180.577564 
L 320.548182 -180.563696 
L 318.077727 -180.558883 
L 315.607273 -180.561979 
L 313.136818 -180.563339 
L 310.666364 -180.561665 
L 308.195909 -180.555728 
L 305.725455 -180.544855 
L 303.255 -180.532883 
L 300.784545 -180.523766 
L 298.314091 -180.505616 
L 295.843636 -180.482303 
L 293.373182 -180.462891 
L 290.902727 -180.443527 
L 288.432273 -180.426962 
L 285.961818 -180.399613 
L 283.491364 -180.361547 
L 281.020909 -180.324409 
L 278.550455 -180.272674 
L 276.08 -180.217692 
L 273.609545 -180.176329 
L 271.139091 -180.122488 
L 268.668636 -180.066558 
L 266.198182 -180.013823 
L 263.727727 -179.95493 
L 261.257273 -179.89924 
L 258.786818 -179.848395 
L 256.316364 -179.795427 
L 253.845909 -179.743196 
L 251.375455 -179.677155 
L 248.905 -179.605732 
L 246.434545 -179.533057 
L 243.964091 -179.454757 
L 241.493636 -179.376461 
L 239.023182 -179.29229 
L 236.552727 -179.218603 
L 234.082273 -179.149952 
L 231.611818 -179.085077 
L 229.141364 -179.015824 
L 226.670909 -178.950526 
L 224.200455 -178.877278 
L 221.73 -178.804493 
L 219.259545 -178.730448 
L 216.789091 -178.642629 
L 214.318636 -178.556618 
L 211.848182 -178.467073 
L 209.377727 -178.375699 
L 206.907273 -178.269417 
L 204.436818 -178.170109 
L 201.966364 -178.062827 
L 199.495909 -177.953053 
L 197.025455 -177.817475 
L 194.555 -177.661441 
L 192.084545 -177.493582 
L 189.614091 -177.313398 
L 187.143636 -177.11317 
L 184.673182 -176.895869 
L 182.202727 -176.672694 
L 179.732273 -176.44531 
L 177.261818 -176.217756 
L 174.791364 -175.984078 
L 172.320909 -175.73288 
L 169.850455 -175.474213 
L 167.38 -175.20051 
L 164.909545 -174.918045 
L 162.439091 -174.63167 
L 159.968636 -174.324858 
L 157.498182 -174.016154 
L 155.027727 -173.696883 
L 152.557273 -173.346889 
L 150.086818 -172.993646 
L 147.616364 -172.61242 
L 145.145909 -172.207955 
L 142.675455 -171.786011 
L 140.205 -171.345311 
L 137.734545 -170.866406 
L 135.264091 -170.368664 
L 132.793636 -169.840698 
L 130.323182 -169.296021 
L 127.852727 -168.728395 
L 125.382273 -168.097417 
L 122.911818 -167.449513 
L 120.441364 -166.724731 
L 117.970909 -165.943601 
L 115.500455 -165.031632 
L 113.03 -163.995821 
L 110.559545 -162.843605 
L 108.089091 -161.575115 
L 105.618636 -160.151378 
L 103.148182 -158.622126 
L 100.677727 -156.885396 
L 98.207273 -154.901133 
L 95.736818 -152.718541 
L 93.266364 -150.249551 
L 90.795909 -147.407805 
L 88.325455 -144.140599 
L 85.855 -140.444656 
L 83.384545 -135.767744 
L 80.914091 -129.978165 
L 78.443636 -122.639789 
L 75.973182 -113.191334 
L 73.502727 -100.395273 
L 71.032273 -82.154874 
L 68.561818 -54.605455 
L 66.091364 -73.954225 
z
" style="stroke: #ff0000; stroke-opacity: 0.2"/>
    </defs>
    <g clip-path="url(#pd471a6d09d)">
     <use xlink:href="#m328b532ec7" x="0" y="345.6" style="fill: #ff0000; fill-opacity: 0.2; stroke: #ff0000; stroke-opacity: 0.2"/>
    </g>
   </g>
   <g id="matplotlib.axis_1">
    <g id="xtick_1">
     <g id="line2d_1">
      <defs>
       <path id="m8dbc8baaeb" d="M 0 0 
L 0 3.5 
" style="stroke: #000000; stroke-width: 0.8"/>
      </defs>
      <g>
       <use xlink:href="#m8dbc8baaeb" x="66.091364" y="303.64" style="stroke: #000000; stroke-width: 0.8"/>
      </g>
     </g>
     <g id="text_1">
      <!-- 0 -->
      <g transform="translate(62.910114 318.238437) scale(0.1 -0.1)">
       <defs>
        <path id="DejaVuSans-30" d="M 2034 4250 
Q 1547 4250 1301 3770 
Q 1056 3291 1056 2328 
Q 1056 1369 1301 889 
Q 1547 409 2034 409 
Q 2525 409 2770 889 
Q 3016 1369 3016 2328 
Q 3016 3291 2770 3770 
Q 2525 4250 2034 4250 
z
M 2034 4750 
Q 2819 4750 3233 4129 
Q 3647 3509 3647 2328 
Q 3647 1150 3233 529 
Q 2819 -91 2034 -91 
Q 1250 -91 836 529 
Q 422 1150 422 2328 
Q 422 3509 836 4129 
Q 1250 4750 2034 4750 
z
" transform="scale(0.015625)"/>
       </defs>
       <use xlink:href="#DejaVuSans-30"/>
      </g>
     </g>
    </g>
    <g id="xtick_2">
     <g id="line2d_2">
      <g>
       <use xlink:href="#m8dbc8baaeb" x="115.500455" y="303.64" style="stroke: #000000; stroke-width: 0.8"/>
      </g>
     </g>
     <g id="text_2">
      <!-- 20 -->
      <g transform="translate(109.137955 318.238437) scale(0.1 -0.1)">
       <defs>
        <path id="DejaVuSans-32" d="M 1228 531 
L 3431 531 
L 3431 0 
L 469 0 
L 469 531 
Q 828 903 1448 1529 
Q 2069 2156 2228 2338 
Q 2531 2678 2651 2914 
Q 2772 3150 2772 3378 
Q 2772 3750 2511 3984 
Q 2250 4219 1831 4219 
Q 1534 4219 1204 4116 
Q 875 4013 500 3803 
L 500 4441 
Q 881 4594 1212 4672 
Q 1544 4750 1819 4750 
Q 2544 4750 2975 4387 
Q 3406 4025 3406 3419 
Q 3406 3131 3298 2873 
Q 3191 2616 2906 2266 
Q 2828 2175 2409 1742 
Q 1991 1309 1228 531 
z
" transform="scale(0.015625)"/>
       </defs>
       <use xlink:href="#DejaVuSans-32"/>
       <use xlink:href="#DejaVuSans-30" x="63.623047"/>
      </g>
     </g>
    </g>
    <g id="xtick_3">
     <g id="line2d_3">
      <g>
       <use xlink:href="#m8dbc8baaeb" x="164.909545" y="303.64" style="stroke: #000000; stroke-width: 0.8"/>
      </g>
     </g>
     <g id="text_3">
      <!-- 40 -->
      <g transform="translate(158.547045 318.238437) scale(0.1 -0.1)">
       <defs>
        <path id="DejaVuSans-34" d="M 2419 4116 
L 825 1625 
L 2419 1625 
L 2419 4116 
z
M 2253 4666 
L 3047 4666 
L 3047 1625 
L 3713 1625 
L 3713 1100 
L 3047 1100 
L 3047 0 
L 2419 0 
L 2419 1100 
L 313 1100 
L 313 1709 
L 2253 4666 
z
" transform="scale(0.015625)"/>
       </defs>
       <use xlink:href="#DejaVuSans-34"/>
       <use xlink:href="#DejaVuSans-30" x="63.623047"/>
      </g>
     </g>
    </g>
    <g id="xtick_4">
     <g id="line2d_4">
      <g>
       <use xlink:href="#m8dbc8baaeb" x="214.318636" y="303.64" style="stroke: #000000; stroke-width: 0.8"/>
      </g>
     </g>
     <g id="text_4">
      <!-- 60 -->
      <g transform="translate(207.956136 318.238437) scale(0.1 -0.1)">
       <defs>
        <path id="DejaVuSans-36" d="M 2113 2584 
Q 1688 2584 1439 2293 
Q 1191 2003 1191 1497 
Q 1191 994 1439 701 
Q 1688 409 2113 409 
Q 2538 409 2786 701 
Q 3034 994 3034 1497 
Q 3034 2003 2786 2293 
Q 2538 2584 2113 2584 
z
M 3366 4563 
L 3366 3988 
Q 3128 4100 2886 4159 
Q 2644 4219 2406 4219 
Q 1781 4219 1451 3797 
Q 1122 3375 1075 2522 
Q 1259 2794 1537 2939 
Q 1816 3084 2150 3084 
Q 2853 3084 3261 2657 
Q 3669 2231 3669 1497 
Q 3669 778 3244 343 
Q 2819 -91 2113 -91 
Q 1303 -91 875 529 
Q 447 1150 447 2328 
Q 447 3434 972 4092 
Q 1497 4750 2381 4750 
Q 2619 4750 2861 4703 
Q 3103 4656 3366 4563 
z
" transform="scale(0.015625)"/>
       </defs>
       <use xlink:href="#DejaVuSans-36"/>
       <use xlink:href="#DejaVuSans-30" x="63.623047"/>
      </g>
     </g>
    </g>
    <g id="xtick_5">
     <g id="line2d_5">
      <g>
       <use xlink:href="#m8dbc8baaeb" x="263.727727" y="303.64" style="stroke: #000000; stroke-width: 0.8"/>
      </g>
     </g>
     <g id="text_5">
      <!-- 80 -->
      <g transform="translate(257.365227 318.238437) scale(0.1 -0.1)">
       <defs>
        <path id="DejaVuSans-38" d="M 2034 2216 
Q 1584 2216 1326 1975 
Q 1069 1734 1069 1313 
Q 1069 891 1326 650 
Q 1584 409 2034 409 
Q 2484 409 2743 651 
Q 3003 894 3003 1313 
Q 3003 1734 2745 1975 
Q 2488 2216 2034 2216 
z
M 1403 2484 
Q 997 2584 770 2862 
Q 544 3141 544 3541 
Q 544 4100 942 4425 
Q 1341 4750 2034 4750 
Q 2731 4750 3128 4425 
Q 3525 4100 3525 3541 
Q 3525 3141 3298 2862 
Q 3072 2584 2669 2484 
Q 3125 2378 3379 2068 
Q 3634 1759 3634 1313 
Q 3634 634 3220 271 
Q 2806 -91 2034 -91 
Q 1263 -91 848 271 
Q 434 634 434 1313 
Q 434 1759 690 2068 
Q 947 2378 1403 2484 
z
M 1172 3481 
Q 1172 3119 1398 2916 
Q 1625 2713 2034 2713 
Q 2441 2713 2670 2916 
Q 2900 3119 2900 3481 
Q 2900 3844 2670 4047 
Q 2441 4250 2034 4250 
Q 1625 4250 1398 4047 
Q 1172 3844 1172 3481 
z
" transform="scale(0.015625)"/>
       </defs>
       <use xlink:href="#DejaVuSans-38"/>
       <use xlink:href="#DejaVuSans-30" x="63.623047"/>
      </g>
     </g>
    </g>
    <g id="xtick_6">
     <g id="line2d_6">
      <g>
       <use xlink:href="#m8dbc8baaeb" x="313.136818" y="303.64" style="stroke: #000000; stroke-width: 0.8"/>
      </g>
     </g>
     <g id="text_6">
      <!-- 100 -->
      <g transform="translate(303.593068 318.238437) scale(0.1 -0.1)">
       <defs>
        <path id="DejaVuSans-31" d="M 794 531 
L 1825 531 
L 1825 4091 
L 703 3866 
L 703 4441 
L 1819 4666 
L 2450 4666 
L 2450 531 
L 3481 531 
L 3481 0 
L 794 0 
L 794 531 
z
" transform="scale(0.015625)"/>
       </defs>
       <use xlink:href="#DejaVuSans-31"/>
       <use xlink:href="#DejaVuSans-30" x="63.623047"/>
       <use xlink:href="#DejaVuSans-30" x="127.246094"/>
      </g>
     </g>
    </g>
    <g id="xtick_7">
     <g id="line2d_7">
      <g>
       <use xlink:href="#m8dbc8baaeb" x="362.545909" y="303.64" style="stroke: #000000; stroke-width: 0.8"/>
      </g>
     </g>
     <g id="text_7">
      <!-- 120 -->
      <g transform="translate(353.002159 318.238437) scale(0.1 -0.1)">
       <use xlink:href="#DejaVuSans-31"/>
       <use xlink:href="#DejaVuSans-32" x="63.623047"/>
       <use xlink:href="#DejaVuSans-30" x="127.246094"/>
      </g>
     </g>
    </g>
    <g id="xtick_8">
     <g id="line2d_8">
      <g>
       <use xlink:href="#m8dbc8baaeb" x="411.955" y="303.64" style="stroke: #000000; stroke-width: 0.8"/>
      </g>
     </g>
     <g id="text_8">
      <!-- 140 -->
      <g transform="translate(402.41125 318.238437) scale(0.1 -0.1)">
       <use xlink:href="#DejaVuSans-31"/>
       <use xlink:href="#DejaVuSans-34" x="63.623047"/>
       <use xlink:href="#DejaVuSans-30" x="127.246094"/>
      </g>
     </g>
    </g>
    <g id="text_9">
     <!-- Iteration -->
     <g transform="translate(227.696406 331.916562) scale(0.1 -0.1)">
      <defs>
       <path id="DejaVuSans-49" d="M 628 4666 
L 1259 4666 
L 1259 0 
L 628 0 
L 628 4666 
z
" transform="scale(0.015625)"/>
       <path id="DejaVuSans-74" d="M 1172 4494 
L 1172 3500 
L 2356 3500 
L 2356 3053 
L 1172 3053 
L 1172 1153 
Q 1172 725 1289 603 
Q 1406 481 1766 481 
L 2356 481 
L 2356 0 
L 1766 0 
Q 1100 0 847 248 
Q 594 497 594 1153 
L 594 3053 
L 172 3053 
L 172 3500 
L 594 3500 
L 594 4494 
L 1172 4494 
z
" transform="scale(0.015625)"/>
       <path id="DejaVuSans-65" d="M 3597 1894 
L 3597 1613 
L 953 1613 
Q 991 1019 1311 708 
Q 1631 397 2203 397 
Q 2534 397 2845 478 
Q 3156 559 3463 722 
L 3463 178 
Q 3153 47 2828 -22 
Q 2503 -91 2169 -91 
Q 1331 -91 842 396 
Q 353 884 353 1716 
Q 353 2575 817 3079 
Q 1281 3584 2069 3584 
Q 2775 3584 3186 3129 
Q 3597 2675 3597 1894 
z
M 3022 2063 
Q 3016 2534 2758 2815 
Q 2500 3097 2075 3097 
Q 1594 3097 1305 2825 
Q 1016 2553 972 2059 
L 3022 2063 
z
" transform="scale(0.015625)"/>
       <path id="DejaVuSans-72" d="M 2631 2963 
Q 2534 3019 2420 3045 
Q 2306 3072 2169 3072 
Q 1681 3072 1420 2755 
Q 1159 2438 1159 1844 
L 1159 0 
L 581 0 
L 581 3500 
L 1159 3500 
L 1159 2956 
Q 1341 3275 1631 3429 
Q 1922 3584 2338 3584 
Q 2397 3584 2469 3576 
Q 2541 3569 2628 3553 
L 2631 2963 
z
" transform="scale(0.015625)"/>
       <path id="DejaVuSans-61" d="M 2194 1759 
Q 1497 1759 1228 1600 
Q 959 1441 959 1056 
Q 959 750 1161 570 
Q 1363 391 1709 391 
Q 2188 391 2477 730 
Q 2766 1069 2766 1631 
L 2766 1759 
L 2194 1759 
z
M 3341 1997 
L 3341 0 
L 2766 0 
L 2766 531 
Q 2569 213 2275 61 
Q 1981 -91 1556 -91 
Q 1019 -91 701 211 
Q 384 513 384 1019 
Q 384 1609 779 1909 
Q 1175 2209 1959 2209 
L 2766 2209 
L 2766 2266 
Q 2766 2663 2505 2880 
Q 2244 3097 1772 3097 
Q 1472 3097 1187 3025 
Q 903 2953 641 2809 
L 641 3341 
Q 956 3463 1253 3523 
Q 1550 3584 1831 3584 
Q 2591 3584 2966 3190 
Q 3341 2797 3341 1997 
z
" transform="scale(0.015625)"/>
       <path id="DejaVuSans-69" d="M 603 3500 
L 1178 3500 
L 1178 0 
L 603 0 
L 603 3500 
z
M 603 4863 
L 1178 4863 
L 1178 4134 
L 603 4134 
L 603 4863 
z
" transform="scale(0.015625)"/>
       <path id="DejaVuSans-6f" d="M 1959 3097 
Q 1497 3097 1228 2736 
Q 959 2375 959 1747 
Q 959 1119 1226 758 
Q 1494 397 1959 397 
Q 2419 397 2687 759 
Q 2956 1122 2956 1747 
Q 2956 2369 2687 2733 
Q 2419 3097 1959 3097 
z
M 1959 3584 
Q 2709 3584 3137 3096 
Q 3566 2609 3566 1747 
Q 3566 888 3137 398 
Q 2709 -91 1959 -91 
Q 1206 -91 779 398 
Q 353 888 353 1747 
Q 353 2609 779 3096 
Q 1206 3584 1959 3584 
z
" transform="scale(0.015625)"/>
       <path id="DejaVuSans-6e" d="M 3513 2113 
L 3513 0 
L 2938 0 
L 2938 2094 
Q 2938 2591 2744 2837 
Q 2550 3084 2163 3084 
Q 1697 3084 1428 2787 
Q 1159 2491 1159 1978 
L 1159 0 
L 581 0 
L 581 3500 
L 1159 3500 
L 1159 2956 
Q 1366 3272 1645 3428 
Q 1925 3584 2291 3584 
Q 2894 3584 3203 3211 
Q 3513 2838 3513 2113 
z
" transform="scale(0.015625)"/>
      </defs>
      <use xlink:href="#DejaVuSans-49"/>
      <use xlink:href="#DejaVuSans-74" x="29.492188"/>
      <use xlink:href="#DejaVuSans-65" x="68.701172"/>
      <use xlink:href="#DejaVuSans-72" x="130.224609"/>
      <use xlink:href="#DejaVuSans-61" x="171.337891"/>
      <use xlink:href="#DejaVuSans-74" x="232.617188"/>
      <use xlink:href="#DejaVuSans-69" x="271.826172"/>
      <use xlink:href="#DejaVuSans-6f" x="299.609375"/>
      <use xlink:href="#DejaVuSans-6e" x="360.791016"/>
     </g>
    </g>
   </g>
   <g id="matplotlib.axis_2">
    <g id="ytick_1">
     <g id="line2d_9">
      <defs>
       <path id="m183d7e06b6" d="M 0 0 
L -3.5 0 
" style="stroke: #000000; stroke-width: 0.8"/>
      </defs>
      <g>
       <use xlink:href="#m183d7e06b6" x="47.81" y="271.645775" style="stroke: #000000; stroke-width: 0.8"/>
      </g>
     </g>
     <g id="text_10">
      <!-- 0.0 -->
      <g transform="translate(24.906875 275.444994) scale(0.1 -0.1)">
       <defs>
        <path id="DejaVuSans-2e" d="M 684 794 
L 1344 794 
L 1344 0 
L 684 0 
L 684 794 
z
" transform="scale(0.015625)"/>
       </defs>
       <use xlink:href="#DejaVuSans-30"/>
       <use xlink:href="#DejaVuSans-2e" x="63.623047"/>
       <use xlink:href="#DejaVuSans-30" x="95.410156"/>
      </g>
     </g>
    </g>
    <g id="ytick_2">
     <g id="line2d_10">
      <g>
       <use xlink:href="#m183d7e06b6" x="47.81" y="224.933711" style="stroke: #000000; stroke-width: 0.8"/>
      </g>
     </g>
     <g id="text_11">
      <!-- 0.2 -->
      <g transform="translate(24.906875 228.73293) scale(0.1 -0.1)">
       <use xlink:href="#DejaVuSans-30"/>
       <use xlink:href="#DejaVuSans-2e" x="63.623047"/>
       <use xlink:href="#DejaVuSans-32" x="95.410156"/>
      </g>
     </g>
    </g>
    <g id="ytick_3">
     <g id="line2d_11">
      <g>
       <use xlink:href="#m183d7e06b6" x="47.81" y="178.221647" style="stroke: #000000; stroke-width: 0.8"/>
      </g>
     </g>
     <g id="text_12">
      <!-- 0.4 -->
      <g transform="translate(24.906875 182.020866) scale(0.1 -0.1)">
       <use xlink:href="#DejaVuSans-30"/>
       <use xlink:href="#DejaVuSans-2e" x="63.623047"/>
       <use xlink:href="#DejaVuSans-34" x="95.410156"/>
      </g>
     </g>
    </g>
    <g id="ytick_4">
     <g id="line2d_12">
      <g>
       <use xlink:href="#m183d7e06b6" x="47.81" y="131.509583" style="stroke: #000000; stroke-width: 0.8"/>
      </g>
     </g>
     <g id="text_13">
      <!-- 0.6 -->
      <g transform="translate(24.906875 135.308801) scale(0.1 -0.1)">
       <use xlink:href="#DejaVuSans-30"/>
       <use xlink:href="#DejaVuSans-2e" x="63.623047"/>
       <use xlink:href="#DejaVuSans-36" x="95.410156"/>
      </g>
     </g>
    </g>
    <g id="ytick_5">
     <g id="line2d_13">
      <g>
       <use xlink:href="#m183d7e06b6" x="47.81" y="84.797519" style="stroke: #000000; stroke-width: 0.8"/>
      </g>
     </g>
     <g id="text_14">
      <!-- 0.8 -->
      <g transform="translate(24.906875 88.596737) scale(0.1 -0.1)">
       <use xlink:href="#DejaVuSans-30"/>
       <use xlink:href="#DejaVuSans-2e" x="63.623047"/>
       <use xlink:href="#DejaVuSans-38" x="95.410156"/>
      </g>
     </g>
    </g>
    <g id="ytick_6">
     <g id="line2d_14">
      <g>
       <use xlink:href="#m183d7e06b6" x="47.81" y="38.085455" style="stroke: #000000; stroke-width: 0.8"/>
      </g>
     </g>
     <g id="text_15">
      <!-- 1.0 -->
      <g transform="translate(24.906875 41.884673) scale(0.1 -0.1)">
       <use xlink:href="#DejaVuSans-31"/>
       <use xlink:href="#DejaVuSans-2e" x="63.623047"/>
       <use xlink:href="#DejaVuSans-30" x="95.410156"/>
      </g>
     </g>
    </g>
    <g id="text_16">
     <!-- Similarity -->
     <g transform="translate(18.827187 188.179844) rotate(-90) scale(0.1 -0.1)">
      <defs>
       <path id="DejaVuSans-53" d="M 3425 4513 
L 3425 3897 
Q 3066 4069 2747 4153 
Q 2428 4238 2131 4238 
Q 1616 4238 1336 4038 
Q 1056 3838 1056 3469 
Q 1056 3159 1242 3001 
Q 1428 2844 1947 2747 
L 2328 2669 
Q 3034 2534 3370 2195 
Q 3706 1856 3706 1288 
Q 3706 609 3251 259 
Q 2797 -91 1919 -91 
Q 1588 -91 1214 -16 
Q 841 59 441 206 
L 441 856 
Q 825 641 1194 531 
Q 1563 422 1919 422 
Q 2459 422 2753 634 
Q 3047 847 3047 1241 
Q 3047 1584 2836 1778 
Q 2625 1972 2144 2069 
L 1759 2144 
Q 1053 2284 737 2584 
Q 422 2884 422 3419 
Q 422 4038 858 4394 
Q 1294 4750 2059 4750 
Q 2388 4750 2728 4690 
Q 3069 4631 3425 4513 
z
" transform="scale(0.015625)"/>
       <path id="DejaVuSans-6d" d="M 3328 2828 
Q 3544 3216 3844 3400 
Q 4144 3584 4550 3584 
Q 5097 3584 5394 3201 
Q 5691 2819 5691 2113 
L 5691 0 
L 5113 0 
L 5113 2094 
Q 5113 2597 4934 2840 
Q 4756 3084 4391 3084 
Q 3944 3084 3684 2787 
Q 3425 2491 3425 1978 
L 3425 0 
L 2847 0 
L 2847 2094 
Q 2847 2600 2669 2842 
Q 2491 3084 2119 3084 
Q 1678 3084 1418 2786 
Q 1159 2488 1159 1978 
L 1159 0 
L 581 0 
L 581 3500 
L 1159 3500 
L 1159 2956 
Q 1356 3278 1631 3431 
Q 1906 3584 2284 3584 
Q 2666 3584 2933 3390 
Q 3200 3197 3328 2828 
z
" transform="scale(0.015625)"/>
       <path id="DejaVuSans-6c" d="M 603 4863 
L 1178 4863 
L 1178 0 
L 603 0 
L 603 4863 
z
" transform="scale(0.015625)"/>
       <path id="DejaVuSans-79" d="M 2059 -325 
Q 1816 -950 1584 -1140 
Q 1353 -1331 966 -1331 
L 506 -1331 
L 506 -850 
L 844 -850 
Q 1081 -850 1212 -737 
Q 1344 -625 1503 -206 
L 1606 56 
L 191 3500 
L 800 3500 
L 1894 763 
L 2988 3500 
L 3597 3500 
L 2059 -325 
z
" transform="scale(0.015625)"/>
      </defs>
      <use xlink:href="#DejaVuSans-53"/>
      <use xlink:href="#DejaVuSans-69" x="63.476562"/>
      <use xlink:href="#DejaVuSans-6d" x="91.259766"/>
      <use xlink:href="#DejaVuSans-69" x="188.671875"/>
      <use xlink:href="#DejaVuSans-6c" x="216.455078"/>
      <use xlink:href="#DejaVuSans-61" x="244.238281"/>
      <use xlink:href="#DejaVuSans-72" x="305.517578"/>
      <use xlink:href="#DejaVuSans-69" x="346.630859"/>
      <use xlink:href="#DejaVuSans-74" x="374.414062"/>
      <use xlink:href="#DejaVuSans-79" x="413.623047"/>
     </g>
    </g>
   </g>
   <g id="line2d_15">
    <path d="M 66.091364 271.645775 
L 68.561818 178.221647 
L 71.032273 153.308546 
L 73.502727 146.691004 
L 75.973182 143.654719 
L 78.443636 143.187599 
L 80.914091 141.519311 
L 83.384545 142.603698 
L 85.855 143.44711 
L 88.325455 146.924564 
L 90.795909 144.249237 
L 93.266364 143.576866 
L 95.736818 143.726584 
L 98.207273 143.521256 
L 100.677727 142.409064 
L 103.148182 143.479549 
L 105.618636 144.424095 
L 108.089091 143.44711 
L 110.559545 144.293937 
L 113.03 144.588961 
L 115.500455 145.300764 
L 117.970909 146.58484 
L 120.441364 148.366545 
L 122.911818 148.442706 
L 125.382273 149.260167 
L 127.852727 148.577452 
L 130.323182 149.32937 
L 132.793636 149.026607 
L 135.264091 148.583648 
L 137.734545 148.63734 
L 140.205 148.386199 
L 142.675455 148.880632 
L 147.616364 148.683136 
L 150.086818 148.859778 
L 152.557273 149.286118 
L 155.027727 148.805671 
L 157.498182 149.456849 
L 159.968636 149.355987 
L 162.439091 148.909827 
L 164.909545 149.282953 
L 167.38 148.970997 
L 169.850455 148.890816 
L 172.320909 149.132771 
L 174.791364 149.052558 
L 177.261818 149.483573 
L 179.732273 149.399309 
L 182.202727 149.026607 
L 187.143636 148.793046 
L 189.614091 149.353591 
L 192.084545 150.100984 
L 197.025455 150.848377 
L 199.495909 151.689194 
L 201.966364 152.810284 
L 204.436818 152.810284 
L 206.907273 153.090556 
L 209.377727 152.623436 
L 211.848182 153.277405 
L 219.259545 153.18398 
L 221.73 153.837949 
L 226.670909 153.744525 
L 229.141364 154.118222 
L 231.611818 153.837949 
L 234.082273 154.024798 
L 239.023182 153.370829 
L 241.493636 152.623436 
L 243.964091 152.903708 
L 246.434545 152.810284 
L 248.905 153.090556 
L 251.375455 153.090556 
L 253.845909 153.370829 
L 256.316364 154.211646 
L 258.786818 154.118222 
L 261.257273 154.211646 
L 266.198182 153.557677 
L 268.668636 153.931373 
L 271.139091 153.651101 
L 273.609545 153.744525 
L 276.08 154.585342 
L 278.550455 153.557677 
L 281.020909 153.744525 
L 283.491364 154.772191 
L 285.961818 154.678767 
L 290.902727 156.173553 
L 293.373182 155.986704 
L 295.843636 155.986704 
L 298.314091 155.706432 
L 300.784545 156.080128 
L 303.255 156.734097 
L 305.725455 156.547249 
L 308.195909 156.640673 
L 313.136818 157.344214 
L 318.077727 157.747849 
L 320.548182 157.201218 
L 323.018636 156.526488 
L 325.489091 156.670399 
L 327.959545 156.495105 
L 330.43 156.533903 
L 332.900455 156.688525 
L 335.370909 157.201218 
L 337.841364 157.38088 
L 340.311818 158.061703 
L 345.252727 157.979752 
L 347.723182 158.068728 
L 352.664091 158.829063 
L 355.134545 158.806945 
L 357.605 159.235453 
L 360.075455 159.381114 
L 362.545909 159.697897 
L 367.486818 159.363814 
L 369.957273 159.896145 
L 372.427727 159.536821 
L 374.898182 159.731455 
L 377.368636 158.927533 
L 382.309545 160.204136 
L 384.78 160.938183 
L 387.250455 162.487057 
L 389.720909 162.391447 
L 392.191364 163.658474 
L 394.661818 163.332176 
L 397.132273 162.650959 
L 399.602727 165.542658 
L 402.073182 166.363969 
L 404.543636 164.986562 
L 407.014091 165.481993 
L 409.484545 164.675148 
L 411.955 162.650959 
L 414.425455 164.208028 
L 416.895909 166.877288 
L 419.366364 168.879234 
L 421.836818 169.813475 
L 424.307273 171.214837 
L 426.777727 184.449922 
L 429.248182 201.577679 
L 431.718636 271.645775 
L 431.718636 271.645775 
" clip-path="url(#pd471a6d09d)" style="fill: none; stroke: #0000ff; stroke-linecap: square"/>
    <defs>
     <path id="m4d441d790f" d="M -0.49999 0.49999 
L 0.50001 0.49999 
L 0.50001 -0.50001 
L -0.49999 -0.50001 
z
"/>
    </defs>
    <g clip-path="url(#pd471a6d09d)">
     <use xlink:href="#m4d441d790f" x="66.091364" y="271.645775" style="fill: #0000ff"/>
     <use xlink:href="#m4d441d790f" x="68.561818" y="178.221647" style="fill: #0000ff"/>
     <use xlink:href="#m4d441d790f" x="71.032273" y="153.308546" style="fill: #0000ff"/>
     <use xlink:href="#m4d441d790f" x="73.502727" y="146.691004" style="fill: #0000ff"/>
     <use xlink:href="#m4d441d790f" x="75.973182" y="143.654719" style="fill: #0000ff"/>
     <use xlink:href="#m4d441d790f" x="78.443636" y="143.187599" style="fill: #0000ff"/>
     <use xlink:href="#m4d441d790f" x="80.914091" y="141.519311" style="fill: #0000ff"/>
     <use xlink:href="#m4d441d790f" x="83.384545" y="142.603698" style="fill: #0000ff"/>
     <use xlink:href="#m4d441d790f" x="85.855" y="143.44711" style="fill: #0000ff"/>
     <use xlink:href="#m4d441d790f" x="88.325455" y="146.924564" style="fill: #0000ff"/>
     <use xlink:href="#m4d441d790f" x="90.795909" y="144.249237" style="fill: #0000ff"/>
     <use xlink:href="#m4d441d790f" x="93.266364" y="143.576866" style="fill: #0000ff"/>
     <use xlink:href="#m4d441d790f" x="95.736818" y="143.726584" style="fill: #0000ff"/>
     <use xlink:href="#m4d441d790f" x="98.207273" y="143.521256" style="fill: #0000ff"/>
     <use xlink:href="#m4d441d790f" x="100.677727" y="142.409064" style="fill: #0000ff"/>
     <use xlink:href="#m4d441d790f" x="103.148182" y="143.479549" style="fill: #0000ff"/>
     <use xlink:href="#m4d441d790f" x="105.618636" y="144.424095" style="fill: #0000ff"/>
     <use xlink:href="#m4d441d790f" x="108.089091" y="143.44711" style="fill: #0000ff"/>
     <use xlink:href="#m4d441d790f" x="110.559545" y="144.293937" style="fill: #0000ff"/>
     <use xlink:href="#m4d441d790f" x="113.03" y="144.588961" style="fill: #0000ff"/>
     <use xlink:href="#m4d441d790f" x="115.500455" y="145.300764" style="fill: #0000ff"/>
     <use xlink:href="#m4d441d790f" x="117.970909" y="146.58484" style="fill: #0000ff"/>
     <use xlink:href="#m4d441d790f" x="120.441364" y="148.366545" style="fill: #0000ff"/>
     <use xlink:href="#m4d441d790f" x="122.911818" y="148.442706" style="fill: #0000ff"/>
     <use xlink:href="#m4d441d790f" x="125.382273" y="149.260167" style="fill: #0000ff"/>
     <use xlink:href="#m4d441d790f" x="127.852727" y="148.577452" style="fill: #0000ff"/>
     <use xlink:href="#m4d441d790f" x="130.323182" y="149.32937" style="fill: #0000ff"/>
     <use xlink:href="#m4d441d790f" x="132.793636" y="149.026607" style="fill: #0000ff"/>
     <use xlink:href="#m4d441d790f" x="135.264091" y="148.583648" style="fill: #0000ff"/>
     <use xlink:href="#m4d441d790f" x="137.734545" y="148.63734" style="fill: #0000ff"/>
     <use xlink:href="#m4d441d790f" x="140.205" y="148.386199" style="fill: #0000ff"/>
     <use xlink:href="#m4d441d790f" x="142.675455" y="148.880632" style="fill: #0000ff"/>
     <use xlink:href="#m4d441d790f" x="145.145909" y="148.778891" style="fill: #0000ff"/>
     <use xlink:href="#m4d441d790f" x="147.616364" y="148.683136" style="fill: #0000ff"/>
     <use xlink:href="#m4d441d790f" x="150.086818" y="148.859778" style="fill: #0000ff"/>
     <use xlink:href="#m4d441d790f" x="152.557273" y="149.286118" style="fill: #0000ff"/>
     <use xlink:href="#m4d441d790f" x="155.027727" y="148.805671" style="fill: #0000ff"/>
     <use xlink:href="#m4d441d790f" x="157.498182" y="149.456849" style="fill: #0000ff"/>
     <use xlink:href="#m4d441d790f" x="159.968636" y="149.355987" style="fill: #0000ff"/>
     <use xlink:href="#m4d441d790f" x="162.439091" y="148.909827" style="fill: #0000ff"/>
     <use xlink:href="#m4d441d790f" x="164.909545" y="149.282953" style="fill: #0000ff"/>
     <use xlink:href="#m4d441d790f" x="167.38" y="148.970997" style="fill: #0000ff"/>
     <use xlink:href="#m4d441d790f" x="169.850455" y="148.890816" style="fill: #0000ff"/>
     <use xlink:href="#m4d441d790f" x="172.320909" y="149.132771" style="fill: #0000ff"/>
     <use xlink:href="#m4d441d790f" x="174.791364" y="149.052558" style="fill: #0000ff"/>
     <use xlink:href="#m4d441d790f" x="177.261818" y="149.483573" style="fill: #0000ff"/>
     <use xlink:href="#m4d441d790f" x="179.732273" y="149.399309" style="fill: #0000ff"/>
     <use xlink:href="#m4d441d790f" x="182.202727" y="149.026607" style="fill: #0000ff"/>
     <use xlink:href="#m4d441d790f" x="184.673182" y="148.859778" style="fill: #0000ff"/>
     <use xlink:href="#m4d441d790f" x="187.143636" y="148.793046" style="fill: #0000ff"/>
     <use xlink:href="#m4d441d790f" x="189.614091" y="149.353591" style="fill: #0000ff"/>
     <use xlink:href="#m4d441d790f" x="192.084545" y="150.100984" style="fill: #0000ff"/>
     <use xlink:href="#m4d441d790f" x="194.555" y="150.474681" style="fill: #0000ff"/>
     <use xlink:href="#m4d441d790f" x="197.025455" y="150.848377" style="fill: #0000ff"/>
     <use xlink:href="#m4d441d790f" x="199.495909" y="151.689194" style="fill: #0000ff"/>
     <use xlink:href="#m4d441d790f" x="201.966364" y="152.810284" style="fill: #0000ff"/>
     <use xlink:href="#m4d441d790f" x="204.436818" y="152.810284" style="fill: #0000ff"/>
     <use xlink:href="#m4d441d790f" x="206.907273" y="153.090556" style="fill: #0000ff"/>
     <use xlink:href="#m4d441d790f" x="209.377727" y="152.623436" style="fill: #0000ff"/>
     <use xlink:href="#m4d441d790f" x="211.848182" y="153.277405" style="fill: #0000ff"/>
     <use xlink:href="#m4d441d790f" x="214.318636" y="153.277405" style="fill: #0000ff"/>
     <use xlink:href="#m4d441d790f" x="216.789091" y="153.370829" style="fill: #0000ff"/>
     <use xlink:href="#m4d441d790f" x="219.259545" y="153.18398" style="fill: #0000ff"/>
     <use xlink:href="#m4d441d790f" x="221.73" y="153.837949" style="fill: #0000ff"/>
     <use xlink:href="#m4d441d790f" x="224.200455" y="153.837949" style="fill: #0000ff"/>
     <use xlink:href="#m4d441d790f" x="226.670909" y="153.744525" style="fill: #0000ff"/>
     <use xlink:href="#m4d441d790f" x="229.141364" y="154.118222" style="fill: #0000ff"/>
     <use xlink:href="#m4d441d790f" x="231.611818" y="153.837949" style="fill: #0000ff"/>
     <use xlink:href="#m4d441d790f" x="234.082273" y="154.024798" style="fill: #0000ff"/>
     <use xlink:href="#m4d441d790f" x="236.552727" y="153.744525" style="fill: #0000ff"/>
     <use xlink:href="#m4d441d790f" x="239.023182" y="153.370829" style="fill: #0000ff"/>
     <use xlink:href="#m4d441d790f" x="241.493636" y="152.623436" style="fill: #0000ff"/>
     <use xlink:href="#m4d441d790f" x="243.964091" y="152.903708" style="fill: #0000ff"/>
     <use xlink:href="#m4d441d790f" x="246.434545" y="152.810284" style="fill: #0000ff"/>
     <use xlink:href="#m4d441d790f" x="248.905" y="153.090556" style="fill: #0000ff"/>
     <use xlink:href="#m4d441d790f" x="251.375455" y="153.090556" style="fill: #0000ff"/>
     <use xlink:href="#m4d441d790f" x="253.845909" y="153.370829" style="fill: #0000ff"/>
     <use xlink:href="#m4d441d790f" x="256.316364" y="154.211646" style="fill: #0000ff"/>
     <use xlink:href="#m4d441d790f" x="258.786818" y="154.118222" style="fill: #0000ff"/>
     <use xlink:href="#m4d441d790f" x="261.257273" y="154.211646" style="fill: #0000ff"/>
     <use xlink:href="#m4d441d790f" x="263.727727" y="153.837949" style="fill: #0000ff"/>
     <use xlink:href="#m4d441d790f" x="266.198182" y="153.557677" style="fill: #0000ff"/>
     <use xlink:href="#m4d441d790f" x="268.668636" y="153.931373" style="fill: #0000ff"/>
     <use xlink:href="#m4d441d790f" x="271.139091" y="153.651101" style="fill: #0000ff"/>
     <use xlink:href="#m4d441d790f" x="273.609545" y="153.744525" style="fill: #0000ff"/>
     <use xlink:href="#m4d441d790f" x="276.08" y="154.585342" style="fill: #0000ff"/>
     <use xlink:href="#m4d441d790f" x="278.550455" y="153.557677" style="fill: #0000ff"/>
     <use xlink:href="#m4d441d790f" x="281.020909" y="153.744525" style="fill: #0000ff"/>
     <use xlink:href="#m4d441d790f" x="283.491364" y="154.772191" style="fill: #0000ff"/>
     <use xlink:href="#m4d441d790f" x="285.961818" y="154.678767" style="fill: #0000ff"/>
     <use xlink:href="#m4d441d790f" x="288.432273" y="155.42616" style="fill: #0000ff"/>
     <use xlink:href="#m4d441d790f" x="290.902727" y="156.173553" style="fill: #0000ff"/>
     <use xlink:href="#m4d441d790f" x="293.373182" y="155.986704" style="fill: #0000ff"/>
     <use xlink:href="#m4d441d790f" x="295.843636" y="155.986704" style="fill: #0000ff"/>
     <use xlink:href="#m4d441d790f" x="298.314091" y="155.706432" style="fill: #0000ff"/>
     <use xlink:href="#m4d441d790f" x="300.784545" y="156.080128" style="fill: #0000ff"/>
     <use xlink:href="#m4d441d790f" x="303.255" y="156.734097" style="fill: #0000ff"/>
     <use xlink:href="#m4d441d790f" x="305.725455" y="156.547249" style="fill: #0000ff"/>
     <use xlink:href="#m4d441d790f" x="308.195909" y="156.640673" style="fill: #0000ff"/>
     <use xlink:href="#m4d441d790f" x="310.666364" y="157.01437" style="fill: #0000ff"/>
     <use xlink:href="#m4d441d790f" x="313.136818" y="157.344214" style="fill: #0000ff"/>
     <use xlink:href="#m4d441d790f" x="315.607273" y="157.590485" style="fill: #0000ff"/>
     <use xlink:href="#m4d441d790f" x="318.077727" y="157.747849" style="fill: #0000ff"/>
     <use xlink:href="#m4d441d790f" x="320.548182" y="157.201218" style="fill: #0000ff"/>
     <use xlink:href="#m4d441d790f" x="323.018636" y="156.526488" style="fill: #0000ff"/>
     <use xlink:href="#m4d441d790f" x="325.489091" y="156.670399" style="fill: #0000ff"/>
     <use xlink:href="#m4d441d790f" x="327.959545" y="156.495105" style="fill: #0000ff"/>
     <use xlink:href="#m4d441d790f" x="330.43" y="156.533903" style="fill: #0000ff"/>
     <use xlink:href="#m4d441d790f" x="332.900455" y="156.688525" style="fill: #0000ff"/>
     <use xlink:href="#m4d441d790f" x="335.370909" y="157.201218" style="fill: #0000ff"/>
     <use xlink:href="#m4d441d790f" x="337.841364" y="157.38088" style="fill: #0000ff"/>
     <use xlink:href="#m4d441d790f" x="340.311818" y="158.061703" style="fill: #0000ff"/>
     <use xlink:href="#m4d441d790f" x="342.782273" y="158.021835" style="fill: #0000ff"/>
     <use xlink:href="#m4d441d790f" x="345.252727" y="157.979752" style="fill: #0000ff"/>
     <use xlink:href="#m4d441d790f" x="347.723182" y="158.068728" style="fill: #0000ff"/>
     <use xlink:href="#m4d441d790f" x="350.193636" y="158.437714" style="fill: #0000ff"/>
     <use xlink:href="#m4d441d790f" x="352.664091" y="158.829063" style="fill: #0000ff"/>
     <use xlink:href="#m4d441d790f" x="355.134545" y="158.806945" style="fill: #0000ff"/>
     <use xlink:href="#m4d441d790f" x="357.605" y="159.235453" style="fill: #0000ff"/>
     <use xlink:href="#m4d441d790f" x="360.075455" y="159.381114" style="fill: #0000ff"/>
     <use xlink:href="#m4d441d790f" x="362.545909" y="159.697897" style="fill: #0000ff"/>
     <use xlink:href="#m4d441d790f" x="365.016364" y="159.536821" style="fill: #0000ff"/>
     <use xlink:href="#m4d441d790f" x="367.486818" y="159.363814" style="fill: #0000ff"/>
     <use xlink:href="#m4d441d790f" x="369.957273" y="159.896145" style="fill: #0000ff"/>
     <use xlink:href="#m4d441d790f" x="372.427727" y="159.536821" style="fill: #0000ff"/>
     <use xlink:href="#m4d441d790f" x="374.898182" y="159.731455" style="fill: #0000ff"/>
     <use xlink:href="#m4d441d790f" x="377.368636" y="158.927533" style="fill: #0000ff"/>
     <use xlink:href="#m4d441d790f" x="379.839091" y="159.536821" style="fill: #0000ff"/>
     <use xlink:href="#m4d441d790f" x="382.309545" y="160.204136" style="fill: #0000ff"/>
     <use xlink:href="#m4d441d790f" x="384.78" y="160.938183" style="fill: #0000ff"/>
     <use xlink:href="#m4d441d790f" x="387.250455" y="162.487057" style="fill: #0000ff"/>
     <use xlink:href="#m4d441d790f" x="389.720909" y="162.391447" style="fill: #0000ff"/>
     <use xlink:href="#m4d441d790f" x="392.191364" y="163.658474" style="fill: #0000ff"/>
     <use xlink:href="#m4d441d790f" x="394.661818" y="163.332176" style="fill: #0000ff"/>
     <use xlink:href="#m4d441d790f" x="397.132273" y="162.650959" style="fill: #0000ff"/>
     <use xlink:href="#m4d441d790f" x="399.602727" y="165.542658" style="fill: #0000ff"/>
     <use xlink:href="#m4d441d790f" x="402.073182" y="166.363969" style="fill: #0000ff"/>
     <use xlink:href="#m4d441d790f" x="404.543636" y="164.986562" style="fill: #0000ff"/>
     <use xlink:href="#m4d441d790f" x="407.014091" y="165.481993" style="fill: #0000ff"/>
     <use xlink:href="#m4d441d790f" x="409.484545" y="164.675148" style="fill: #0000ff"/>
     <use xlink:href="#m4d441d790f" x="411.955" y="162.650959" style="fill: #0000ff"/>
     <use xlink:href="#m4d441d790f" x="414.425455" y="164.208028" style="fill: #0000ff"/>
     <use xlink:href="#m4d441d790f" x="416.895909" y="166.877288" style="fill: #0000ff"/>
     <use xlink:href="#m4d441d790f" x="419.366364" y="168.879234" style="fill: #0000ff"/>
     <use xlink:href="#m4d441d790f" x="421.836818" y="169.813475" style="fill: #0000ff"/>
     <use xlink:href="#m4d441d790f" x="424.307273" y="171.214837" style="fill: #0000ff"/>
     <use xlink:href="#m4d441d790f" x="426.777727" y="184.449922" style="fill: #0000ff"/>
     <use xlink:href="#m4d441d790f" x="429.248182" y="201.577679" style="fill: #0000ff"/>
     <use xlink:href="#m4d441d790f" x="431.718636" y="271.645775" style="fill: #0000ff"/>
    </g>
   </g>
   <g id="line2d_16">
    <path d="M 66.091364 271.645775 
L 68.561818 224.933711 
L 71.032273 201.058656 
L 73.502727 187.466743 
L 75.973182 178.704338 
L 78.443636 172.784882 
L 80.914091 168.318371 
L 83.384545 165.104037 
L 85.855 162.697712 
L 90.795909 159.586655 
L 93.266364 158.252506 
L 95.736818 157.135128 
L 100.677727 155.245799 
L 103.148182 154.510408 
L 108.089091 153.33543 
L 113.03 152.446032 
L 117.970909 151.854829 
L 125.382273 151.475026 
L 135.264091 151.116991 
L 150.086818 150.703392 
L 184.673182 150.255766 
L 194.555 150.212355 
L 204.436818 150.340578 
L 246.434545 151.041767 
L 290.902727 151.63962 
L 387.250455 153.554204 
L 416.895909 154.464478 
L 424.307273 154.783068 
L 426.777727 154.984883 
L 429.248182 155.299699 
L 431.718636 156.080545 
L 431.718636 156.080545 
" clip-path="url(#pd471a6d09d)" style="fill: none; stroke: #ff0000; stroke-opacity: 0.5; stroke-width: 0.5; stroke-linecap: square"/>
    <defs>
     <path id="me88e33ac4f" d="M -0.49999 0.49999 
L 0.50001 0.49999 
L 0.50001 -0.50001 
L -0.49999 -0.50001 
z
"/>
    </defs>
    <g clip-path="url(#pd471a6d09d)">
     <use xlink:href="#me88e33ac4f" x="66.091364" y="271.645775" style="fill: #ff0000; fill-opacity: 0.5"/>
     <use xlink:href="#me88e33ac4f" x="68.561818" y="224.933711" style="fill: #ff0000; fill-opacity: 0.5"/>
     <use xlink:href="#me88e33ac4f" x="71.032273" y="201.058656" style="fill: #ff0000; fill-opacity: 0.5"/>
     <use xlink:href="#me88e33ac4f" x="73.502727" y="187.466743" style="fill: #ff0000; fill-opacity: 0.5"/>
     <use xlink:href="#me88e33ac4f" x="75.973182" y="178.704338" style="fill: #ff0000; fill-opacity: 0.5"/>
     <use xlink:href="#me88e33ac4f" x="78.443636" y="172.784882" style="fill: #ff0000; fill-opacity: 0.5"/>
     <use xlink:href="#me88e33ac4f" x="80.914091" y="168.318371" style="fill: #ff0000; fill-opacity: 0.5"/>
     <use xlink:href="#me88e33ac4f" x="83.384545" y="165.104037" style="fill: #ff0000; fill-opacity: 0.5"/>
     <use xlink:href="#me88e33ac4f" x="85.855" y="162.697712" style="fill: #ff0000; fill-opacity: 0.5"/>
     <use xlink:href="#me88e33ac4f" x="88.325455" y="161.120397" style="fill: #ff0000; fill-opacity: 0.5"/>
     <use xlink:href="#me88e33ac4f" x="90.795909" y="159.586655" style="fill: #ff0000; fill-opacity: 0.5"/>
     <use xlink:href="#me88e33ac4f" x="93.266364" y="158.252506" style="fill: #ff0000; fill-opacity: 0.5"/>
     <use xlink:href="#me88e33ac4f" x="95.736818" y="157.135128" style="fill: #ff0000; fill-opacity: 0.5"/>
     <use xlink:href="#me88e33ac4f" x="98.207273" y="156.162708" style="fill: #ff0000; fill-opacity: 0.5"/>
     <use xlink:href="#me88e33ac4f" x="100.677727" y="155.245799" style="fill: #ff0000; fill-opacity: 0.5"/>
     <use xlink:href="#me88e33ac4f" x="103.148182" y="154.510408" style="fill: #ff0000; fill-opacity: 0.5"/>
     <use xlink:href="#me88e33ac4f" x="105.618636" y="153.917095" style="fill: #ff0000; fill-opacity: 0.5"/>
     <use xlink:href="#me88e33ac4f" x="108.089091" y="153.33543" style="fill: #ff0000; fill-opacity: 0.5"/>
     <use xlink:href="#me88e33ac4f" x="110.559545" y="152.859562" style="fill: #ff0000; fill-opacity: 0.5"/>
     <use xlink:href="#me88e33ac4f" x="113.03" y="152.446032" style="fill: #ff0000; fill-opacity: 0.5"/>
     <use xlink:href="#me88e33ac4f" x="115.500455" y="152.105781" style="fill: #ff0000; fill-opacity: 0.5"/>
     <use xlink:href="#me88e33ac4f" x="117.970909" y="151.854829" style="fill: #ff0000; fill-opacity: 0.5"/>
     <use xlink:href="#me88e33ac4f" x="120.441364" y="151.703164" style="fill: #ff0000; fill-opacity: 0.5"/>
     <use xlink:href="#me88e33ac4f" x="122.911818" y="151.567312" style="fill: #ff0000; fill-opacity: 0.5"/>
     <use xlink:href="#me88e33ac4f" x="125.382273" y="151.475026" style="fill: #ff0000; fill-opacity: 0.5"/>
     <use xlink:href="#me88e33ac4f" x="127.852727" y="151.363581" style="fill: #ff0000; fill-opacity: 0.5"/>
     <use xlink:href="#me88e33ac4f" x="130.323182" y="151.28824" style="fill: #ff0000; fill-opacity: 0.5"/>
     <use xlink:href="#me88e33ac4f" x="132.793636" y="151.207467" style="fill: #ff0000; fill-opacity: 0.5"/>
     <use xlink:href="#me88e33ac4f" x="135.264091" y="151.116991" style="fill: #ff0000; fill-opacity: 0.5"/>
     <use xlink:href="#me88e33ac4f" x="137.734545" y="151.034336" style="fill: #ff0000; fill-opacity: 0.5"/>
     <use xlink:href="#me88e33ac4f" x="140.205" y="150.948912" style="fill: #ff0000; fill-opacity: 0.5"/>
     <use xlink:href="#me88e33ac4f" x="142.675455" y="150.884278" style="fill: #ff0000; fill-opacity: 0.5"/>
     <use xlink:href="#me88e33ac4f" x="145.145909" y="150.820479" style="fill: #ff0000; fill-opacity: 0.5"/>
     <use xlink:href="#me88e33ac4f" x="147.616364" y="150.757615" style="fill: #ff0000; fill-opacity: 0.5"/>
     <use xlink:href="#me88e33ac4f" x="150.086818" y="150.703392" style="fill: #ff0000; fill-opacity: 0.5"/>
     <use xlink:href="#me88e33ac4f" x="152.557273" y="150.664023" style="fill: #ff0000; fill-opacity: 0.5"/>
     <use xlink:href="#me88e33ac4f" x="155.027727" y="150.613797" style="fill: #ff0000; fill-opacity: 0.5"/>
     <use xlink:href="#me88e33ac4f" x="157.498182" y="150.583351" style="fill: #ff0000; fill-opacity: 0.5"/>
     <use xlink:href="#me88e33ac4f" x="159.968636" y="150.55188" style="fill: #ff0000; fill-opacity: 0.5"/>
     <use xlink:href="#me88e33ac4f" x="162.439091" y="150.510829" style="fill: #ff0000; fill-opacity: 0.5"/>
     <use xlink:href="#me88e33ac4f" x="164.909545" y="150.480881" style="fill: #ff0000; fill-opacity: 0.5"/>
     <use xlink:href="#me88e33ac4f" x="167.38" y="150.444931" style="fill: #ff0000; fill-opacity: 0.5"/>
     <use xlink:href="#me88e33ac4f" x="169.850455" y="150.408789" style="fill: #ff0000; fill-opacity: 0.5"/>
     <use xlink:href="#me88e33ac4f" x="172.320909" y="150.379788" style="fill: #ff0000; fill-opacity: 0.5"/>
     <use xlink:href="#me88e33ac4f" x="174.791364" y="150.350294" style="fill: #ff0000; fill-opacity: 0.5"/>
     <use xlink:href="#me88e33ac4f" x="177.261818" y="150.331453" style="fill: #ff0000; fill-opacity: 0.5"/>
     <use xlink:href="#me88e33ac4f" x="179.732273" y="150.31162" style="fill: #ff0000; fill-opacity: 0.5"/>
     <use xlink:href="#me88e33ac4f" x="182.202727" y="150.284849" style="fill: #ff0000; fill-opacity: 0.5"/>
     <use xlink:href="#me88e33ac4f" x="184.673182" y="150.255766" style="fill: #ff0000; fill-opacity: 0.5"/>
     <use xlink:href="#me88e33ac4f" x="187.143636" y="150.226511" style="fill: #ff0000; fill-opacity: 0.5"/>
     <use xlink:href="#me88e33ac4f" x="189.614091" y="150.209395" style="fill: #ff0000; fill-opacity: 0.5"/>
     <use xlink:href="#me88e33ac4f" x="192.084545" y="150.20731" style="fill: #ff0000; fill-opacity: 0.5"/>
     <use xlink:href="#me88e33ac4f" x="194.555" y="150.212355" style="fill: #ff0000; fill-opacity: 0.5"/>
     <use xlink:href="#me88e33ac4f" x="197.025455" y="150.224133" style="fill: #ff0000; fill-opacity: 0.5"/>
     <use xlink:href="#me88e33ac4f" x="199.495909" y="150.250771" style="fill: #ff0000; fill-opacity: 0.5"/>
     <use xlink:href="#me88e33ac4f" x="201.966364" y="150.296476" style="fill: #ff0000; fill-opacity: 0.5"/>
     <use xlink:href="#me88e33ac4f" x="204.436818" y="150.340578" style="fill: #ff0000; fill-opacity: 0.5"/>
     <use xlink:href="#me88e33ac4f" x="206.907273" y="150.387992" style="fill: #ff0000; fill-opacity: 0.5"/>
     <use xlink:href="#me88e33ac4f" x="209.377727" y="150.425881" style="fill: #ff0000; fill-opacity: 0.5"/>
     <use xlink:href="#me88e33ac4f" x="211.848182" y="150.473406" style="fill: #ff0000; fill-opacity: 0.5"/>
     <use xlink:href="#me88e33ac4f" x="214.318636" y="150.519373" style="fill: #ff0000; fill-opacity: 0.5"/>
     <use xlink:href="#me88e33ac4f" x="216.789091" y="150.565364" style="fill: #ff0000; fill-opacity: 0.5"/>
     <use xlink:href="#me88e33ac4f" x="219.259545" y="150.60693" style="fill: #ff0000; fill-opacity: 0.5"/>
     <use xlink:href="#me88e33ac4f" x="221.73" y="150.657414" style="fill: #ff0000; fill-opacity: 0.5"/>
     <use xlink:href="#me88e33ac4f" x="224.200455" y="150.706346" style="fill: #ff0000; fill-opacity: 0.5"/>
     <use xlink:href="#me88e33ac4f" x="226.670909" y="150.752379" style="fill: #ff0000; fill-opacity: 0.5"/>
     <use xlink:href="#me88e33ac4f" x="229.141364" y="150.802615" style="fill: #ff0000; fill-opacity: 0.5"/>
     <use xlink:href="#me88e33ac4f" x="231.611818" y="150.847252" style="fill: #ff0000; fill-opacity: 0.5"/>
     <use xlink:href="#me88e33ac4f" x="234.082273" y="150.893304" style="fill: #ff0000; fill-opacity: 0.5"/>
     <use xlink:href="#me88e33ac4f" x="236.552727" y="150.934036" style="fill: #ff0000; fill-opacity: 0.5"/>
     <use xlink:href="#me88e33ac4f" x="239.023182" y="150.968357" style="fill: #ff0000; fill-opacity: 0.5"/>
     <use xlink:href="#me88e33ac4f" x="241.493636" y="150.991344" style="fill: #ff0000; fill-opacity: 0.5"/>
     <use xlink:href="#me88e33ac4f" x="243.964091" y="151.017541" style="fill: #ff0000; fill-opacity: 0.5"/>
     <use xlink:href="#me88e33ac4f" x="246.434545" y="151.041767" style="fill: #ff0000; fill-opacity: 0.5"/>
     <use xlink:href="#me88e33ac4f" x="248.905" y="151.069084" style="fill: #ff0000; fill-opacity: 0.5"/>
     <use xlink:href="#me88e33ac4f" x="251.375455" y="151.095682" style="fill: #ff0000; fill-opacity: 0.5"/>
     <use xlink:href="#me88e33ac4f" x="253.845909" y="151.12523" style="fill: #ff0000; fill-opacity: 0.5"/>
     <use xlink:href="#me88e33ac4f" x="256.316364" y="151.164799" style="fill: #ff0000; fill-opacity: 0.5"/>
     <use xlink:href="#me88e33ac4f" x="258.786818" y="151.202184" style="fill: #ff0000; fill-opacity: 0.5"/>
     <use xlink:href="#me88e33ac4f" x="261.257273" y="151.239803" style="fill: #ff0000; fill-opacity: 0.5"/>
     <use xlink:href="#me88e33ac4f" x="263.727727" y="151.271878" style="fill: #ff0000; fill-opacity: 0.5"/>
     <use xlink:href="#me88e33ac4f" x="266.198182" y="151.299754" style="fill: #ff0000; fill-opacity: 0.5"/>
     <use xlink:href="#me88e33ac4f" x="268.668636" y="151.33146" style="fill: #ff0000; fill-opacity: 0.5"/>
     <use xlink:href="#me88e33ac4f" x="271.139091" y="151.359075" style="fill: #ff0000; fill-opacity: 0.5"/>
     <use xlink:href="#me88e33ac4f" x="273.609545" y="151.387139" style="fill: #ff0000; fill-opacity: 0.5"/>
     <use xlink:href="#me88e33ac4f" x="276.08" y="151.424328" style="fill: #ff0000; fill-opacity: 0.5"/>
     <use xlink:href="#me88e33ac4f" x="278.550455" y="151.448849" style="fill: #ff0000; fill-opacity: 0.5"/>
     <use xlink:href="#me88e33ac4f" x="281.020909" y="151.474936" style="fill: #ff0000; fill-opacity: 0.5"/>
     <use xlink:href="#me88e33ac4f" x="283.491364" y="151.511984" style="fill: #ff0000; fill-opacity: 0.5"/>
     <use xlink:href="#me88e33ac4f" x="285.961818" y="151.54717" style="fill: #ff0000; fill-opacity: 0.5"/>
     <use xlink:href="#me88e33ac4f" x="288.432273" y="151.589797" style="fill: #ff0000; fill-opacity: 0.5"/>
     <use xlink:href="#me88e33ac4f" x="290.902727" y="151.63962" style="fill: #ff0000; fill-opacity: 0.5"/>
     <use xlink:href="#me88e33ac4f" x="293.373182" y="151.686363" style="fill: #ff0000; fill-opacity: 0.5"/>
     <use xlink:href="#me88e33ac4f" x="295.843636" y="151.732111" style="fill: #ff0000; fill-opacity: 0.5"/>
     <use xlink:href="#me88e33ac4f" x="298.314091" y="151.773946" style="fill: #ff0000; fill-opacity: 0.5"/>
     <use xlink:href="#me88e33ac4f" x="300.784545" y="151.818802" style="fill: #ff0000; fill-opacity: 0.5"/>
     <use xlink:href="#me88e33ac4f" x="303.255" y="151.869475" style="fill: #ff0000; fill-opacity: 0.5"/>
     <use xlink:href="#me88e33ac4f" x="305.725455" y="151.917208" style="fill: #ff0000; fill-opacity: 0.5"/>
     <use xlink:href="#me88e33ac4f" x="308.195909" y="151.964919" style="fill: #ff0000; fill-opacity: 0.5"/>
     <use xlink:href="#me88e33ac4f" x="310.666364" y="152.015414" style="fill: #ff0000; fill-opacity: 0.5"/>
     <use xlink:href="#me88e33ac4f" x="313.136818" y="152.068174" style="fill: #ff0000; fill-opacity: 0.5"/>
     <use xlink:href="#me88e33ac4f" x="315.607273" y="152.122315" style="fill: #ff0000; fill-opacity: 0.5"/>
     <use xlink:href="#me88e33ac4f" x="318.077727" y="152.176932" style="fill: #ff0000; fill-opacity: 0.5"/>
     <use xlink:href="#me88e33ac4f" x="320.548182" y="152.225242" style="fill: #ff0000; fill-opacity: 0.5"/>
     <use xlink:href="#me88e33ac4f" x="323.018636" y="152.266206" style="fill: #ff0000; fill-opacity: 0.5"/>
     <use xlink:href="#me88e33ac4f" x="325.489091" y="152.307755" style="fill: #ff0000; fill-opacity: 0.5"/>
     <use xlink:href="#me88e33ac4f" x="327.959545" y="152.346889" style="fill: #ff0000; fill-opacity: 0.5"/>
     <use xlink:href="#me88e33ac4f" x="330.43" y="152.385658" style="fill: #ff0000; fill-opacity: 0.5"/>
     <use xlink:href="#me88e33ac4f" x="332.900455" y="152.425134" style="fill: #ff0000; fill-opacity: 0.5"/>
     <use xlink:href="#me88e33ac4f" x="335.370909" y="152.468553" style="fill: #ff0000; fill-opacity: 0.5"/>
     <use xlink:href="#me88e33ac4f" x="337.841364" y="152.512808" style="fill: #ff0000; fill-opacity: 0.5"/>
     <use xlink:href="#me88e33ac4f" x="340.311818" y="152.562352" style="fill: #ff0000; fill-opacity: 0.5"/>
     <use xlink:href="#me88e33ac4f" x="342.782273" y="152.610666" style="fill: #ff0000; fill-opacity: 0.5"/>
     <use xlink:href="#me88e33ac4f" x="345.252727" y="152.657763" style="fill: #ff0000; fill-opacity: 0.5"/>
     <use xlink:href="#me88e33ac4f" x="347.723182" y="152.704815" style="fill: #ff0000; fill-opacity: 0.5"/>
     <use xlink:href="#me88e33ac4f" x="350.193636" y="152.754236" style="fill: #ff0000; fill-opacity: 0.5"/>
     <use xlink:href="#me88e33ac4f" x="352.664091" y="152.806158" style="fill: #ff0000; fill-opacity: 0.5"/>
     <use xlink:href="#me88e33ac4f" x="355.134545" y="152.857012" style="fill: #ff0000; fill-opacity: 0.5"/>
     <use xlink:href="#me88e33ac4f" x="357.605" y="152.910612" style="fill: #ff0000; fill-opacity: 0.5"/>
     <use xlink:href="#me88e33ac4f" x="360.075455" y="152.964533" style="fill: #ff0000; fill-opacity: 0.5"/>
     <use xlink:href="#me88e33ac4f" x="362.545909" y="153.020181" style="fill: #ff0000; fill-opacity: 0.5"/>
     <use xlink:href="#me88e33ac4f" x="365.016364" y="153.073596" style="fill: #ff0000; fill-opacity: 0.5"/>
     <use xlink:href="#me88e33ac4f" x="367.486818" y="153.124736" style="fill: #ff0000; fill-opacity: 0.5"/>
     <use xlink:href="#me88e33ac4f" x="369.957273" y="153.179344" style="fill: #ff0000; fill-opacity: 0.5"/>
     <use xlink:href="#me88e33ac4f" x="372.427727" y="153.230204" style="fill: #ff0000; fill-opacity: 0.5"/>
     <use xlink:href="#me88e33ac4f" x="374.898182" y="153.281801" style="fill: #ff0000; fill-opacity: 0.5"/>
     <use xlink:href="#me88e33ac4f" x="377.368636" y="153.326256" style="fill: #ff0000; fill-opacity: 0.5"/>
     <use xlink:href="#me88e33ac4f" x="379.839091" y="153.374776" style="fill: #ff0000; fill-opacity: 0.5"/>
     <use xlink:href="#me88e33ac4f" x="382.309545" y="153.427717" style="fill: #ff0000; fill-opacity: 0.5"/>
     <use xlink:href="#me88e33ac4f" x="384.78" y="153.485489" style="fill: #ff0000; fill-opacity: 0.5"/>
     <use xlink:href="#me88e33ac4f" x="387.250455" y="153.554204" style="fill: #ff0000; fill-opacity: 0.5"/>
     <use xlink:href="#me88e33ac4f" x="389.720909" y="153.621152" style="fill: #ff0000; fill-opacity: 0.5"/>
     <use xlink:href="#me88e33ac4f" x="392.191364" y="153.696621" style="fill: #ff0000; fill-opacity: 0.5"/>
     <use xlink:href="#me88e33ac4f" x="394.661818" y="153.768528" style="fill: #ff0000; fill-opacity: 0.5"/>
     <use xlink:href="#me88e33ac4f" x="397.132273" y="153.834324" style="fill: #ff0000; fill-opacity: 0.5"/>
     <use xlink:href="#me88e33ac4f" x="399.602727" y="153.920415" style="fill: #ff0000; fill-opacity: 0.5"/>
     <use xlink:href="#me88e33ac4f" x="402.073182" y="154.011243" style="fill: #ff0000; fill-opacity: 0.5"/>
     <use xlink:href="#me88e33ac4f" x="404.543636" y="154.090775" style="fill: #ff0000; fill-opacity: 0.5"/>
     <use xlink:href="#me88e33ac4f" x="407.014091" y="154.172726" style="fill: #ff0000; fill-opacity: 0.5"/>
     <use xlink:href="#me88e33ac4f" x="409.484545" y="154.247743" style="fill: #ff0000; fill-opacity: 0.5"/>
     <use xlink:href="#me88e33ac4f" x="411.955" y="154.307341" style="fill: #ff0000; fill-opacity: 0.5"/>
     <use xlink:href="#me88e33ac4f" x="414.425455" y="154.377064" style="fill: #ff0000; fill-opacity: 0.5"/>
     <use xlink:href="#me88e33ac4f" x="416.895909" y="154.464478" style="fill: #ff0000; fill-opacity: 0.5"/>
     <use xlink:href="#me88e33ac4f" x="419.366364" y="154.56458" style="fill: #ff0000; fill-opacity: 0.5"/>
     <use xlink:href="#me88e33ac4f" x="421.836818" y="154.669745" style="fill: #ff0000; fill-opacity: 0.5"/>
     <use xlink:href="#me88e33ac4f" x="424.307273" y="154.783068" style="fill: #ff0000; fill-opacity: 0.5"/>
     <use xlink:href="#me88e33ac4f" x="426.777727" y="154.984883" style="fill: #ff0000; fill-opacity: 0.5"/>
     <use xlink:href="#me88e33ac4f" x="429.248182" y="155.299699" style="fill: #ff0000; fill-opacity: 0.5"/>
     <use xlink:href="#me88e33ac4f" x="431.718636" y="156.080545" style="fill: #ff0000; fill-opacity: 0.5"/>
    </g>
   </g>
   <g id="line2d_17">
    <path d="M 47.81 271.645775 
L 450 271.645775 
" clip-path="url(#pd471a6d09d)" style="fill: none; stroke-dasharray: 0.555,0.24; stroke-dashoffset: 0; stroke: #ff0000; stroke-width: 0.15"/>
   </g>
   <g id="line2d_18">
    <path d="M 47.81 154.865615 
L 450 154.865615 
" clip-path="url(#pd471a6d09d)" style="fill: none; stroke-dasharray: 0.555,0.24; stroke-dashoffset: 0; stroke: #ff0000; stroke-width: 0.15"/>
   </g>
   <g id="line2d_19">
    <path d="M 47.81 38.085455 
L 450 38.085455 
" clip-path="url(#pd471a6d09d)" style="fill: none; stroke-dasharray: 0.555,0.24; stroke-dashoffset: 0; stroke: #ff0000; stroke-width: 0.15"/>
   </g>
   <g id="patch_3">
    <path d="M 47.81 303.64 
L 47.81 25.44 
" style="fill: none; stroke: #000000; stroke-width: 0.8; stroke-linejoin: miter; stroke-linecap: square"/>
   </g>
   <g id="patch_4">
    <path d="M 450 303.64 
L 450 25.44 
" style="fill: none; stroke: #000000; stroke-width: 0.8; stroke-linejoin: miter; stroke-linecap: square"/>
   </g>
   <g id="patch_5">
    <path d="M 47.81 303.64 
L 450 303.64 
" style="fill: none; stroke: #000000; stroke-width: 0.8; stroke-linejoin: miter; stroke-linecap: square"/>
   </g>
   <g id="patch_6">
    <path d="M 47.81 25.44 
L 450 25.44 
" style="fill: none; stroke: #000000; stroke-width: 0.8; stroke-linejoin: miter; stroke-linecap: square"/>
   </g>
   <g id="text_17">
    <!-- Similarity LLM-RND with sw50-1o - 28173931-29014202 - 50 games -->
    <g transform="translate(44.570312 19.44) scale(0.12 -0.12)">
     <defs>
      <path id="DejaVuSans-20" transform="scale(0.015625)"/>
      <path id="DejaVuSans-4c" d="M 628 4666 
L 1259 4666 
L 1259 531 
L 3531 531 
L 3531 0 
L 628 0 
L 628 4666 
z
" transform="scale(0.015625)"/>
      <path id="DejaVuSans-4d" d="M 628 4666 
L 1569 4666 
L 2759 1491 
L 3956 4666 
L 4897 4666 
L 4897 0 
L 4281 0 
L 4281 4097 
L 3078 897 
L 2444 897 
L 1241 4097 
L 1241 0 
L 628 0 
L 628 4666 
z
" transform="scale(0.015625)"/>
      <path id="DejaVuSans-2d" d="M 313 2009 
L 1997 2009 
L 1997 1497 
L 313 1497 
L 313 2009 
z
" transform="scale(0.015625)"/>
      <path id="DejaVuSans-52" d="M 2841 2188 
Q 3044 2119 3236 1894 
Q 3428 1669 3622 1275 
L 4263 0 
L 3584 0 
L 2988 1197 
Q 2756 1666 2539 1819 
Q 2322 1972 1947 1972 
L 1259 1972 
L 1259 0 
L 628 0 
L 628 4666 
L 2053 4666 
Q 2853 4666 3247 4331 
Q 3641 3997 3641 3322 
Q 3641 2881 3436 2590 
Q 3231 2300 2841 2188 
z
M 1259 4147 
L 1259 2491 
L 2053 2491 
Q 2509 2491 2742 2702 
Q 2975 2913 2975 3322 
Q 2975 3731 2742 3939 
Q 2509 4147 2053 4147 
L 1259 4147 
z
" transform="scale(0.015625)"/>
      <path id="DejaVuSans-4e" d="M 628 4666 
L 1478 4666 
L 3547 763 
L 3547 4666 
L 4159 4666 
L 4159 0 
L 3309 0 
L 1241 3903 
L 1241 0 
L 628 0 
L 628 4666 
z
" transform="scale(0.015625)"/>
      <path id="DejaVuSans-44" d="M 1259 4147 
L 1259 519 
L 2022 519 
Q 2988 519 3436 956 
Q 3884 1394 3884 2338 
Q 3884 3275 3436 3711 
Q 2988 4147 2022 4147 
L 1259 4147 
z
M 628 4666 
L 1925 4666 
Q 3281 4666 3915 4102 
Q 4550 3538 4550 2338 
Q 4550 1131 3912 565 
Q 3275 0 1925 0 
L 628 0 
L 628 4666 
z
" transform="scale(0.015625)"/>
      <path id="DejaVuSans-77" d="M 269 3500 
L 844 3500 
L 1563 769 
L 2278 3500 
L 2956 3500 
L 3675 769 
L 4391 3500 
L 4966 3500 
L 4050 0 
L 3372 0 
L 2619 2869 
L 1863 0 
L 1184 0 
L 269 3500 
z
" transform="scale(0.015625)"/>
      <path id="DejaVuSans-68" d="M 3513 2113 
L 3513 0 
L 2938 0 
L 2938 2094 
Q 2938 2591 2744 2837 
Q 2550 3084 2163 3084 
Q 1697 3084 1428 2787 
Q 1159 2491 1159 1978 
L 1159 0 
L 581 0 
L 581 4863 
L 1159 4863 
L 1159 2956 
Q 1366 3272 1645 3428 
Q 1925 3584 2291 3584 
Q 2894 3584 3203 3211 
Q 3513 2838 3513 2113 
z
" transform="scale(0.015625)"/>
      <path id="DejaVuSans-73" d="M 2834 3397 
L 2834 2853 
Q 2591 2978 2328 3040 
Q 2066 3103 1784 3103 
Q 1356 3103 1142 2972 
Q 928 2841 928 2578 
Q 928 2378 1081 2264 
Q 1234 2150 1697 2047 
L 1894 2003 
Q 2506 1872 2764 1633 
Q 3022 1394 3022 966 
Q 3022 478 2636 193 
Q 2250 -91 1575 -91 
Q 1294 -91 989 -36 
Q 684 19 347 128 
L 347 722 
Q 666 556 975 473 
Q 1284 391 1588 391 
Q 1994 391 2212 530 
Q 2431 669 2431 922 
Q 2431 1156 2273 1281 
Q 2116 1406 1581 1522 
L 1381 1569 
Q 847 1681 609 1914 
Q 372 2147 372 2553 
Q 372 3047 722 3315 
Q 1072 3584 1716 3584 
Q 2034 3584 2315 3537 
Q 2597 3491 2834 3397 
z
" transform="scale(0.015625)"/>
      <path id="DejaVuSans-35" d="M 691 4666 
L 3169 4666 
L 3169 4134 
L 1269 4134 
L 1269 2991 
Q 1406 3038 1543 3061 
Q 1681 3084 1819 3084 
Q 2600 3084 3056 2656 
Q 3513 2228 3513 1497 
Q 3513 744 3044 326 
Q 2575 -91 1722 -91 
Q 1428 -91 1123 -41 
Q 819 9 494 109 
L 494 744 
Q 775 591 1075 516 
Q 1375 441 1709 441 
Q 2250 441 2565 725 
Q 2881 1009 2881 1497 
Q 2881 1984 2565 2268 
Q 2250 2553 1709 2553 
Q 1456 2553 1204 2497 
Q 953 2441 691 2322 
L 691 4666 
z
" transform="scale(0.015625)"/>
      <path id="DejaVuSans-37" d="M 525 4666 
L 3525 4666 
L 3525 4397 
L 1831 0 
L 1172 0 
L 2766 4134 
L 525 4134 
L 525 4666 
z
" transform="scale(0.015625)"/>
      <path id="DejaVuSans-33" d="M 2597 2516 
Q 3050 2419 3304 2112 
Q 3559 1806 3559 1356 
Q 3559 666 3084 287 
Q 2609 -91 1734 -91 
Q 1441 -91 1130 -33 
Q 819 25 488 141 
L 488 750 
Q 750 597 1062 519 
Q 1375 441 1716 441 
Q 2309 441 2620 675 
Q 2931 909 2931 1356 
Q 2931 1769 2642 2001 
Q 2353 2234 1838 2234 
L 1294 2234 
L 1294 2753 
L 1863 2753 
Q 2328 2753 2575 2939 
Q 2822 3125 2822 3475 
Q 2822 3834 2567 4026 
Q 2313 4219 1838 4219 
Q 1578 4219 1281 4162 
Q 984 4106 628 3988 
L 628 4550 
Q 988 4650 1302 4700 
Q 1616 4750 1894 4750 
Q 2613 4750 3031 4423 
Q 3450 4097 3450 3541 
Q 3450 3153 3228 2886 
Q 3006 2619 2597 2516 
z
" transform="scale(0.015625)"/>
      <path id="DejaVuSans-39" d="M 703 97 
L 703 672 
Q 941 559 1184 500 
Q 1428 441 1663 441 
Q 2288 441 2617 861 
Q 2947 1281 2994 2138 
Q 2813 1869 2534 1725 
Q 2256 1581 1919 1581 
Q 1219 1581 811 2004 
Q 403 2428 403 3163 
Q 403 3881 828 4315 
Q 1253 4750 1959 4750 
Q 2769 4750 3195 4129 
Q 3622 3509 3622 2328 
Q 3622 1225 3098 567 
Q 2575 -91 1691 -91 
Q 1453 -91 1209 -44 
Q 966 3 703 97 
z
M 1959 2075 
Q 2384 2075 2632 2365 
Q 2881 2656 2881 3163 
Q 2881 3666 2632 3958 
Q 2384 4250 1959 4250 
Q 1534 4250 1286 3958 
Q 1038 3666 1038 3163 
Q 1038 2656 1286 2365 
Q 1534 2075 1959 2075 
z
" transform="scale(0.015625)"/>
      <path id="DejaVuSans-67" d="M 2906 1791 
Q 2906 2416 2648 2759 
Q 2391 3103 1925 3103 
Q 1463 3103 1205 2759 
Q 947 2416 947 1791 
Q 947 1169 1205 825 
Q 1463 481 1925 481 
Q 2391 481 2648 825 
Q 2906 1169 2906 1791 
z
M 3481 434 
Q 3481 -459 3084 -895 
Q 2688 -1331 1869 -1331 
Q 1566 -1331 1297 -1286 
Q 1028 -1241 775 -1147 
L 775 -588 
Q 1028 -725 1275 -790 
Q 1522 -856 1778 -856 
Q 2344 -856 2625 -561 
Q 2906 -266 2906 331 
L 2906 616 
Q 2728 306 2450 153 
Q 2172 0 1784 0 
Q 1141 0 747 490 
Q 353 981 353 1791 
Q 353 2603 747 3093 
Q 1141 3584 1784 3584 
Q 2172 3584 2450 3431 
Q 2728 3278 2906 2969 
L 2906 3500 
L 3481 3500 
L 3481 434 
z
" transform="scale(0.015625)"/>
     </defs>
     <use xlink:href="#DejaVuSans-53"/>
     <use xlink:href="#DejaVuSans-69" x="63.476562"/>
     <use xlink:href="#DejaVuSans-6d" x="91.259766"/>
     <use xlink:href="#DejaVuSans-69" x="188.671875"/>
     <use xlink:href="#DejaVuSans-6c" x="216.455078"/>
     <use xlink:href="#DejaVuSans-61" x="244.238281"/>
     <use xlink:href="#DejaVuSans-72" x="305.517578"/>
     <use xlink:href="#DejaVuSans-69" x="346.630859"/>
     <use xlink:href="#DejaVuSans-74" x="374.414062"/>
     <use xlink:href="#DejaVuSans-79" x="413.623047"/>
     <use xlink:href="#DejaVuSans-20" x="472.802734"/>
     <use xlink:href="#DejaVuSans-4c" x="504.589844"/>
     <use xlink:href="#DejaVuSans-4c" x="560.302734"/>
     <use xlink:href="#DejaVuSans-4d" x="616.015625"/>
     <use xlink:href="#DejaVuSans-2d" x="702.294922"/>
     <use xlink:href="#DejaVuSans-52" x="738.378906"/>
     <use xlink:href="#DejaVuSans-4e" x="807.861328"/>
     <use xlink:href="#DejaVuSans-44" x="882.666016"/>
     <use xlink:href="#DejaVuSans-20" x="959.667969"/>
     <use xlink:href="#DejaVuSans-77" x="991.455078"/>
     <use xlink:href="#DejaVuSans-69" x="1073.242188"/>
     <use xlink:href="#DejaVuSans-74" x="1101.025391"/>
     <use xlink:href="#DejaVuSans-68" x="1140.234375"/>
     <use xlink:href="#DejaVuSans-20" x="1203.613281"/>
     <use xlink:href="#DejaVuSans-73" x="1235.400391"/>
     <use xlink:href="#DejaVuSans-77" x="1287.5"/>
     <use xlink:href="#DejaVuSans-35" x="1369.287109"/>
     <use xlink:href="#DejaVuSans-30" x="1432.910156"/>
     <use xlink:href="#DejaVuSans-2d" x="1496.533203"/>
     <use xlink:href="#DejaVuSans-31" x="1532.617188"/>
     <use xlink:href="#DejaVuSans-6f" x="1596.240234"/>
     <use xlink:href="#DejaVuSans-20" x="1657.421875"/>
     <use xlink:href="#DejaVuSans-2d" x="1689.208984"/>
     <use xlink:href="#DejaVuSans-20" x="1725.292969"/>
     <use xlink:href="#DejaVuSans-32" x="1757.080078"/>
     <use xlink:href="#DejaVuSans-38" x="1820.703125"/>
     <use xlink:href="#DejaVuSans-31" x="1884.326172"/>
     <use xlink:href="#DejaVuSans-37" x="1947.949219"/>
     <use xlink:href="#DejaVuSans-33" x="2011.572266"/>
     <use xlink:href="#DejaVuSans-39" x="2075.195312"/>
     <use xlink:href="#DejaVuSans-33" x="2138.818359"/>
     <use xlink:href="#DejaVuSans-31" x="2202.441406"/>
     <use xlink:href="#DejaVuSans-2d" x="2266.064453"/>
     <use xlink:href="#DejaVuSans-32" x="2302.148438"/>
     <use xlink:href="#DejaVuSans-39" x="2365.771484"/>
     <use xlink:href="#DejaVuSans-30" x="2429.394531"/>
     <use xlink:href="#DejaVuSans-31" x="2493.017578"/>
     <use xlink:href="#DejaVuSans-34" x="2556.640625"/>
     <use xlink:href="#DejaVuSans-32" x="2620.263672"/>
     <use xlink:href="#DejaVuSans-30" x="2683.886719"/>
     <use xlink:href="#DejaVuSans-32" x="2747.509766"/>
     <use xlink:href="#DejaVuSans-20" x="2811.132812"/>
     <use xlink:href="#DejaVuSans-2d" x="2842.919922"/>
     <use xlink:href="#DejaVuSans-20" x="2879.003906"/>
     <use xlink:href="#DejaVuSans-35" x="2910.791016"/>
     <use xlink:href="#DejaVuSans-30" x="2974.414062"/>
     <use xlink:href="#DejaVuSans-20" x="3038.037109"/>
     <use xlink:href="#DejaVuSans-67" x="3069.824219"/>
     <use xlink:href="#DejaVuSans-61" x="3133.300781"/>
     <use xlink:href="#DejaVuSans-6d" x="3194.580078"/>
     <use xlink:href="#DejaVuSans-65" x="3291.992188"/>
     <use xlink:href="#DejaVuSans-73" x="3353.515625"/>
    </g>
   </g>
   <g id="legend_1">
    <g id="patch_7">
     <path d="M 333.953125 62.79625 
L 443 62.79625 
Q 445 62.79625 445 60.79625 
L 445 32.44 
Q 445 30.44 443 30.44 
L 333.953125 30.44 
Q 331.953125 30.44 331.953125 32.44 
L 331.953125 60.79625 
Q 331.953125 62.79625 333.953125 62.79625 
z
" style="fill: #ffffff; opacity: 0.8; stroke: #cccccc; stroke-linejoin: miter"/>
    </g>
    <g id="line2d_20">
     <path d="M 335.953125 38.538437 
L 345.953125 38.538437 
L 355.953125 38.538437 
" style="fill: none; stroke: #0000ff; stroke-linecap: square"/>
     <g>
      <use xlink:href="#m4d441d790f" x="345.953125" y="38.538437" style="fill: #0000ff"/>
     </g>
    </g>
    <g id="text_18">
     <!-- LLM-RND -->
     <g transform="translate(363.953125 42.038437) scale(0.1 -0.1)">
      <use xlink:href="#DejaVuSans-4c"/>
      <use xlink:href="#DejaVuSans-4c" x="55.712891"/>
      <use xlink:href="#DejaVuSans-4d" x="111.425781"/>
      <use xlink:href="#DejaVuSans-2d" x="197.705078"/>
      <use xlink:href="#DejaVuSans-52" x="233.789062"/>
      <use xlink:href="#DejaVuSans-4e" x="303.271484"/>
      <use xlink:href="#DejaVuSans-44" x="378.076172"/>
     </g>
    </g>
    <g id="line2d_21">
     <path d="M 335.953125 53.216562 
L 345.953125 53.216562 
L 355.953125 53.216562 
" style="fill: none; stroke: #ff0000; stroke-opacity: 0.5; stroke-width: 0.5; stroke-linecap: square"/>
     <g>
      <use xlink:href="#me88e33ac4f" x="345.953125" y="53.216562" style="fill: #ff0000; fill-opacity: 0.5"/>
     </g>
    </g>
    <g id="text_19">
     <!-- LLM-RND mean -->
     <g transform="translate(363.953125 56.716562) scale(0.1 -0.1)">
      <use xlink:href="#DejaVuSans-4c"/>
      <use xlink:href="#DejaVuSans-4c" x="55.712891"/>
      <use xlink:href="#DejaVuSans-4d" x="111.425781"/>
      <use xlink:href="#DejaVuSans-2d" x="197.705078"/>
      <use xlink:href="#DejaVuSans-52" x="233.789062"/>
      <use xlink:href="#DejaVuSans-4e" x="303.271484"/>
      <use xlink:href="#DejaVuSans-44" x="378.076172"/>
      <use xlink:href="#DejaVuSans-20" x="455.078125"/>
      <use xlink:href="#DejaVuSans-6d" x="486.865234"/>
      <use xlink:href="#DejaVuSans-65" x="584.277344"/>
      <use xlink:href="#DejaVuSans-61" x="645.800781"/>
      <use xlink:href="#DejaVuSans-6e" x="707.080078"/>
     </g>
    </g>
   </g>
  </g>
 </g>
 <defs>
  <clipPath id="pd471a6d09d">
   <rect x="47.81" y="25.44" width="402.19" height="278.2"/>
  </clipPath>
 </defs>
</svg>
