<?xml version="1.0" encoding="utf-8" standalone="no"?>
<!DOCTYPE svg PUBLIC "-//W3C//DTD SVG 1.1//EN"
  "http://www.w3.org/Graphics/SVG/1.1/DTD/svg11.dtd">
<svg xmlns:xlink="http://www.w3.org/1999/xlink" width="460.8pt" height="345.6pt" viewBox="0 0 460.8 345.6" xmlns="http://www.w3.org/2000/svg" version="1.1">
 <metadata>
  <rdf:RDF xmlns:dc="http://purl.org/dc/elements/1.1/" xmlns:cc="http://creativecommons.org/ns#" xmlns:rdf="http://www.w3.org/1999/02/22-rdf-syntax-ns#">
   <cc:Work>
    <dc:type rdf:resource="http://purl.org/dc/dcmitype/StillImage"/>
    <dc:date>2024-04-29T10:01:28.501045</dc:date>
    <dc:format>image/svg+xml</dc:format>
    <dc:creator>
     <cc:Agent>
      <dc:title>Matplotlib v3.8.0, https://matplotlib.org/</dc:title>
     </cc:Agent>
    </dc:creator>
   </cc:Work>
  </rdf:RDF>
 </metadata>
 <defs>
  <style type="text/css">*{stroke-linejoin: round; stroke-linecap: butt}</style>
 </defs>
 <g id="figure_1">
  <g id="patch_1">
   <path d="M 0 345.6 
L 460.8 345.6 
L 460.8 0 
L 0 0 
z
" style="fill: #ffffff"/>
  </g>
  <g id="axes_1">
   <g id="patch_2">
    <path d="M 47.81 303.64 
L 450 303.64 
L 450 25.44 
L 47.81 25.44 
z
" style="fill: #ffffff"/>
   </g>
   <g id="PolyCollection_1">
    <defs>
     <path id="m4ea07ba6bd" d="M 66.091364 -259.461818 
L 66.091364 -259.461818 
L 69.822254 -261.818882 
L 73.553145 -260.060048 
L 77.284035 -256.313256 
L 81.014926 -253.541521 
L 84.745816 -250.889813 
L 88.476707 -248.751071 
L 92.207597 -246.897986 
L 95.938488 -245.146765 
L 99.669378 -243.523555 
L 103.400269 -241.99865 
L 107.13116 -240.611585 
L 110.86205 -239.29493 
L 114.592941 -238.075797 
L 118.323831 -236.950612 
L 122.054722 -235.915149 
L 125.785612 -234.944507 
L 129.516503 -234.037682 
L 133.247393 -233.189448 
L 136.978284 -232.390308 
L 140.709174 -231.638829 
L 144.440065 -230.938689 
L 148.170955 -230.273254 
L 151.901846 -229.641218 
L 155.632737 -229.038132 
L 159.363627 -228.470743 
L 163.094518 -227.932311 
L 166.825408 -227.428444 
L 170.556299 -226.956936 
L 174.287189 -226.516138 
L 178.01808 -226.092541 
L 181.74897 -225.689189 
L 185.479861 -225.303588 
L 189.210751 -224.943597 
L 192.941642 -224.60581 
L 196.672532 -224.286695 
L 200.403423 -223.979762 
L 204.134314 -223.688194 
L 207.865204 -223.413949 
L 211.596095 -223.143525 
L 215.326985 -222.876504 
L 219.057876 -222.620908 
L 222.788766 -222.376048 
L 226.519657 -222.13614 
L 230.250547 -221.907324 
L 233.981438 -221.686901 
L 237.712328 -221.475079 
L 241.443219 -221.265628 
L 245.174109 -221.062248 
L 248.905 -220.869947 
L 252.635891 -220.685857 
L 256.366781 -220.508971 
L 260.097672 -220.339506 
L 263.828562 -220.17254 
L 267.559453 -220.007574 
L 271.290343 -219.847657 
L 275.021234 -219.692552 
L 278.752124 -219.546991 
L 282.483015 -219.403662 
L 286.213905 -219.261631 
L 289.944796 -219.125404 
L 293.675686 -218.999889 
L 297.406577 -218.876317 
L 301.137468 -218.756901 
L 304.868358 -218.640129 
L 308.599249 -218.524635 
L 312.330139 -218.415401 
L 316.06103 -218.311798 
L 319.79192 -218.210657 
L 323.522811 -218.111883 
L 327.253701 -218.015786 
L 330.984592 -217.922647 
L 334.715482 -217.832347 
L 338.446373 -217.745913 
L 342.177263 -217.65946 
L 345.908154 -217.572728 
L 349.639045 -217.487505 
L 353.369935 -217.405744 
L 357.100826 -217.326322 
L 360.831716 -217.245636 
L 364.562607 -217.1669 
L 368.293497 -217.087679 
L 372.024388 -217.011782 
L 375.755278 -216.936241 
L 379.486169 -216.86109 
L 383.217059 -216.788741 
L 386.94795 -216.717245 
L 390.67884 -216.647359 
L 394.409731 -216.578526 
L 398.140622 -216.511962 
L 401.871512 -216.445871 
L 405.602403 -216.378869 
L 409.333293 -216.313765 
L 413.064184 -216.250274 
L 416.795074 -216.187242 
L 420.525965 -216.125101 
L 424.256855 -216.063207 
L 427.987746 -216.002998 
L 431.718636 -215.944834 
L 431.718636 -199.290736 
L 431.718636 -199.290736 
L 427.987746 -199.266768 
L 424.256855 -199.244207 
L 420.525965 -199.222491 
L 416.795074 -199.199293 
L 413.064184 -199.175584 
L 409.333293 -199.150641 
L 405.602403 -199.126206 
L 401.871512 -199.102697 
L 398.140622 -199.075648 
L 394.409731 -199.047192 
L 390.67884 -199.019981 
L 386.94795 -198.99211 
L 383.217059 -198.964374 
L 379.486169 -198.935534 
L 375.755278 -198.90856 
L 372.024388 -198.879593 
L 368.293497 -198.848538 
L 364.562607 -198.81991 
L 360.831716 -198.7877 
L 357.100826 -198.755589 
L 353.369935 -198.71868 
L 349.639045 -198.682211 
L 345.908154 -198.647804 
L 342.177263 -198.612425 
L 338.446373 -198.573305 
L 334.715482 -198.530806 
L 330.984592 -198.490395 
L 327.253701 -198.450517 
L 323.522811 -198.411251 
L 319.79192 -198.372048 
L 316.06103 -198.332291 
L 312.330139 -198.291969 
L 308.599249 -198.256007 
L 304.868358 -198.225667 
L 301.137468 -198.192195 
L 297.406577 -198.15776 
L 293.675686 -198.124783 
L 289.944796 -198.08916 
L 286.213905 -198.066842 
L 282.483015 -198.048953 
L 278.752124 -198.025965 
L 275.021234 -197.999523 
L 271.290343 -197.984238 
L 267.559453 -197.970148 
L 263.828562 -197.957383 
L 260.097672 -197.938785 
L 256.366781 -197.915102 
L 252.635891 -197.896192 
L 248.905 -197.881281 
L 245.174109 -197.87231 
L 241.443219 -197.8762 
L 237.712328 -197.880001 
L 233.981438 -197.873644 
L 230.250547 -197.871614 
L 226.519657 -197.872617 
L 222.788766 -197.882841 
L 219.057876 -197.88513 
L 215.326985 -197.893315 
L 211.596095 -197.908186 
L 207.865204 -197.906983 
L 204.134314 -197.890274 
L 200.403423 -197.888981 
L 196.672532 -197.897444 
L 192.941642 -197.905454 
L 189.210751 -197.92844 
L 185.479861 -197.975818 
L 181.74897 -198.059675 
L 178.01808 -198.150351 
L 174.287189 -198.252869 
L 170.556299 -198.350274 
L 166.825408 -198.49092 
L 163.094518 -198.684005 
L 159.363627 -198.947345 
L 155.632737 -199.24097 
L 151.901846 -199.615719 
L 148.170955 -199.987536 
L 144.440065 -200.370146 
L 140.709174 -200.742178 
L 136.978284 -201.239611 
L 133.247393 -201.80817 
L 129.516503 -202.390861 
L 125.785612 -203.061557 
L 122.054722 -203.839796 
L 118.323831 -204.502496 
L 114.592941 -205.334628 
L 110.86205 -206.422111 
L 107.13116 -207.727028 
L 103.400269 -209.579672 
L 99.669378 -211.344632 
L 95.938488 -213.619745 
L 92.207597 -216.22156 
L 88.476707 -219.403216 
L 84.745816 -222.411834 
L 81.014926 -224.630031 
L 77.284035 -229.626819 
L 73.553145 -233.85369 
L 69.822254 -245.723846 
L 66.091364 -259.461818 
z
" style="stroke: #ff0000; stroke-opacity: 0.2"/>
    </defs>
    <g clip-path="url(#pe55acd01ea)">
     <use xlink:href="#m4ea07ba6bd" x="0" y="345.6" style="fill: #ff0000; fill-opacity: 0.2; stroke: #ff0000; stroke-opacity: 0.2"/>
    </g>
   </g>
   <g id="matplotlib.axis_1">
    <g id="xtick_1">
     <g id="line2d_1">
      <defs>
       <path id="mbb04d477bc" d="M 0 0 
L 0 3.5 
" style="stroke: #000000; stroke-width: 0.8"/>
      </defs>
      <g>
       <use xlink:href="#mbb04d477bc" x="66.091364" y="303.64" style="stroke: #000000; stroke-width: 0.8"/>
      </g>
     </g>
     <g id="text_1">
      <!-- 0 -->
      <g transform="translate(62.910114 318.238437) scale(0.1 -0.1)">
       <defs>
        <path id="DejaVuSans-30" d="M 2034 4250 
Q 1547 4250 1301 3770 
Q 1056 3291 1056 2328 
Q 1056 1369 1301 889 
Q 1547 409 2034 409 
Q 2525 409 2770 889 
Q 3016 1369 3016 2328 
Q 3016 3291 2770 3770 
Q 2525 4250 2034 4250 
z
M 2034 4750 
Q 2819 4750 3233 4129 
Q 3647 3509 3647 2328 
Q 3647 1150 3233 529 
Q 2819 -91 2034 -91 
Q 1250 -91 836 529 
Q 422 1150 422 2328 
Q 422 3509 836 4129 
Q 1250 4750 2034 4750 
z
" transform="scale(0.015625)"/>
       </defs>
       <use xlink:href="#DejaVuSans-30"/>
      </g>
     </g>
    </g>
    <g id="xtick_2">
     <g id="line2d_2">
      <g>
       <use xlink:href="#mbb04d477bc" x="140.709174" y="303.64" style="stroke: #000000; stroke-width: 0.8"/>
      </g>
     </g>
     <g id="text_2">
      <!-- 20 -->
      <g transform="translate(134.346674 318.238437) scale(0.1 -0.1)">
       <defs>
        <path id="DejaVuSans-32" d="M 1228 531 
L 3431 531 
L 3431 0 
L 469 0 
L 469 531 
Q 828 903 1448 1529 
Q 2069 2156 2228 2338 
Q 2531 2678 2651 2914 
Q 2772 3150 2772 3378 
Q 2772 3750 2511 3984 
Q 2250 4219 1831 4219 
Q 1534 4219 1204 4116 
Q 875 4013 500 3803 
L 500 4441 
Q 881 4594 1212 4672 
Q 1544 4750 1819 4750 
Q 2544 4750 2975 4387 
Q 3406 4025 3406 3419 
Q 3406 3131 3298 2873 
Q 3191 2616 2906 2266 
Q 2828 2175 2409 1742 
Q 1991 1309 1228 531 
z
" transform="scale(0.015625)"/>
       </defs>
       <use xlink:href="#DejaVuSans-32"/>
       <use xlink:href="#DejaVuSans-30" x="63.623047"/>
      </g>
     </g>
    </g>
    <g id="xtick_3">
     <g id="line2d_3">
      <g>
       <use xlink:href="#mbb04d477bc" x="215.326985" y="303.64" style="stroke: #000000; stroke-width: 0.8"/>
      </g>
     </g>
     <g id="text_3">
      <!-- 40 -->
      <g transform="translate(208.964485 318.238437) scale(0.1 -0.1)">
       <defs>
        <path id="DejaVuSans-34" d="M 2419 4116 
L 825 1625 
L 2419 1625 
L 2419 4116 
z
M 2253 4666 
L 3047 4666 
L 3047 1625 
L 3713 1625 
L 3713 1100 
L 3047 1100 
L 3047 0 
L 2419 0 
L 2419 1100 
L 313 1100 
L 313 1709 
L 2253 4666 
z
" transform="scale(0.015625)"/>
       </defs>
       <use xlink:href="#DejaVuSans-34"/>
       <use xlink:href="#DejaVuSans-30" x="63.623047"/>
      </g>
     </g>
    </g>
    <g id="xtick_4">
     <g id="line2d_4">
      <g>
       <use xlink:href="#mbb04d477bc" x="289.944796" y="303.64" style="stroke: #000000; stroke-width: 0.8"/>
      </g>
     </g>
     <g id="text_4">
      <!-- 60 -->
      <g transform="translate(283.582296 318.238437) scale(0.1 -0.1)">
       <defs>
        <path id="DejaVuSans-36" d="M 2113 2584 
Q 1688 2584 1439 2293 
Q 1191 2003 1191 1497 
Q 1191 994 1439 701 
Q 1688 409 2113 409 
Q 2538 409 2786 701 
Q 3034 994 3034 1497 
Q 3034 2003 2786 2293 
Q 2538 2584 2113 2584 
z
M 3366 4563 
L 3366 3988 
Q 3128 4100 2886 4159 
Q 2644 4219 2406 4219 
Q 1781 4219 1451 3797 
Q 1122 3375 1075 2522 
Q 1259 2794 1537 2939 
Q 1816 3084 2150 3084 
Q 2853 3084 3261 2657 
Q 3669 2231 3669 1497 
Q 3669 778 3244 343 
Q 2819 -91 2113 -91 
Q 1303 -91 875 529 
Q 447 1150 447 2328 
Q 447 3434 972 4092 
Q 1497 4750 2381 4750 
Q 2619 4750 2861 4703 
Q 3103 4656 3366 4563 
z
" transform="scale(0.015625)"/>
       </defs>
       <use xlink:href="#DejaVuSans-36"/>
       <use xlink:href="#DejaVuSans-30" x="63.623047"/>
      </g>
     </g>
    </g>
    <g id="xtick_5">
     <g id="line2d_5">
      <g>
       <use xlink:href="#mbb04d477bc" x="364.562607" y="303.64" style="stroke: #000000; stroke-width: 0.8"/>
      </g>
     </g>
     <g id="text_5">
      <!-- 80 -->
      <g transform="translate(358.200107 318.238437) scale(0.1 -0.1)">
       <defs>
        <path id="DejaVuSans-38" d="M 2034 2216 
Q 1584 2216 1326 1975 
Q 1069 1734 1069 1313 
Q 1069 891 1326 650 
Q 1584 409 2034 409 
Q 2484 409 2743 651 
Q 3003 894 3003 1313 
Q 3003 1734 2745 1975 
Q 2488 2216 2034 2216 
z
M 1403 2484 
Q 997 2584 770 2862 
Q 544 3141 544 3541 
Q 544 4100 942 4425 
Q 1341 4750 2034 4750 
Q 2731 4750 3128 4425 
Q 3525 4100 3525 3541 
Q 3525 3141 3298 2862 
Q 3072 2584 2669 2484 
Q 3125 2378 3379 2068 
Q 3634 1759 3634 1313 
Q 3634 634 3220 271 
Q 2806 -91 2034 -91 
Q 1263 -91 848 271 
Q 434 634 434 1313 
Q 434 1759 690 2068 
Q 947 2378 1403 2484 
z
M 1172 3481 
Q 1172 3119 1398 2916 
Q 1625 2713 2034 2713 
Q 2441 2713 2670 2916 
Q 2900 3119 2900 3481 
Q 2900 3844 2670 4047 
Q 2441 4250 2034 4250 
Q 1625 4250 1398 4047 
Q 1172 3844 1172 3481 
z
" transform="scale(0.015625)"/>
       </defs>
       <use xlink:href="#DejaVuSans-38"/>
       <use xlink:href="#DejaVuSans-30" x="63.623047"/>
      </g>
     </g>
    </g>
    <g id="xtick_6">
     <g id="line2d_6">
      <g>
       <use xlink:href="#mbb04d477bc" x="439.180417" y="303.64" style="stroke: #000000; stroke-width: 0.8"/>
      </g>
     </g>
     <g id="text_6">
      <!-- 100 -->
      <g transform="translate(429.636667 318.238437) scale(0.1 -0.1)">
       <defs>
        <path id="DejaVuSans-31" d="M 794 531 
L 1825 531 
L 1825 4091 
L 703 3866 
L 703 4441 
L 1819 4666 
L 2450 4666 
L 2450 531 
L 3481 531 
L 3481 0 
L 794 0 
L 794 531 
z
" transform="scale(0.015625)"/>
       </defs>
       <use xlink:href="#DejaVuSans-31"/>
       <use xlink:href="#DejaVuSans-30" x="63.623047"/>
       <use xlink:href="#DejaVuSans-30" x="127.246094"/>
      </g>
     </g>
    </g>
    <g id="text_7">
     <!-- Iteration -->
     <g transform="translate(227.696406 331.916562) scale(0.1 -0.1)">
      <defs>
       <path id="DejaVuSans-49" d="M 628 4666 
L 1259 4666 
L 1259 0 
L 628 0 
L 628 4666 
z
" transform="scale(0.015625)"/>
       <path id="DejaVuSans-74" d="M 1172 4494 
L 1172 3500 
L 2356 3500 
L 2356 3053 
L 1172 3053 
L 1172 1153 
Q 1172 725 1289 603 
Q 1406 481 1766 481 
L 2356 481 
L 2356 0 
L 1766 0 
Q 1100 0 847 248 
Q 594 497 594 1153 
L 594 3053 
L 172 3053 
L 172 3500 
L 594 3500 
L 594 4494 
L 1172 4494 
z
" transform="scale(0.015625)"/>
       <path id="DejaVuSans-65" d="M 3597 1894 
L 3597 1613 
L 953 1613 
Q 991 1019 1311 708 
Q 1631 397 2203 397 
Q 2534 397 2845 478 
Q 3156 559 3463 722 
L 3463 178 
Q 3153 47 2828 -22 
Q 2503 -91 2169 -91 
Q 1331 -91 842 396 
Q 353 884 353 1716 
Q 353 2575 817 3079 
Q 1281 3584 2069 3584 
Q 2775 3584 3186 3129 
Q 3597 2675 3597 1894 
z
M 3022 2063 
Q 3016 2534 2758 2815 
Q 2500 3097 2075 3097 
Q 1594 3097 1305 2825 
Q 1016 2553 972 2059 
L 3022 2063 
z
" transform="scale(0.015625)"/>
       <path id="DejaVuSans-72" d="M 2631 2963 
Q 2534 3019 2420 3045 
Q 2306 3072 2169 3072 
Q 1681 3072 1420 2755 
Q 1159 2438 1159 1844 
L 1159 0 
L 581 0 
L 581 3500 
L 1159 3500 
L 1159 2956 
Q 1341 3275 1631 3429 
Q 1922 3584 2338 3584 
Q 2397 3584 2469 3576 
Q 2541 3569 2628 3553 
L 2631 2963 
z
" transform="scale(0.015625)"/>
       <path id="DejaVuSans-61" d="M 2194 1759 
Q 1497 1759 1228 1600 
Q 959 1441 959 1056 
Q 959 750 1161 570 
Q 1363 391 1709 391 
Q 2188 391 2477 730 
Q 2766 1069 2766 1631 
L 2766 1759 
L 2194 1759 
z
M 3341 1997 
L 3341 0 
L 2766 0 
L 2766 531 
Q 2569 213 2275 61 
Q 1981 -91 1556 -91 
Q 1019 -91 701 211 
Q 384 513 384 1019 
Q 384 1609 779 1909 
Q 1175 2209 1959 2209 
L 2766 2209 
L 2766 2266 
Q 2766 2663 2505 2880 
Q 2244 3097 1772 3097 
Q 1472 3097 1187 3025 
Q 903 2953 641 2809 
L 641 3341 
Q 956 3463 1253 3523 
Q 1550 3584 1831 3584 
Q 2591 3584 2966 3190 
Q 3341 2797 3341 1997 
z
" transform="scale(0.015625)"/>
       <path id="DejaVuSans-69" d="M 603 3500 
L 1178 3500 
L 1178 0 
L 603 0 
L 603 3500 
z
M 603 4863 
L 1178 4863 
L 1178 4134 
L 603 4134 
L 603 4863 
z
" transform="scale(0.015625)"/>
       <path id="DejaVuSans-6f" d="M 1959 3097 
Q 1497 3097 1228 2736 
Q 959 2375 959 1747 
Q 959 1119 1226 758 
Q 1494 397 1959 397 
Q 2419 397 2687 759 
Q 2956 1122 2956 1747 
Q 2956 2369 2687 2733 
Q 2419 3097 1959 3097 
z
M 1959 3584 
Q 2709 3584 3137 3096 
Q 3566 2609 3566 1747 
Q 3566 888 3137 398 
Q 2709 -91 1959 -91 
Q 1206 -91 779 398 
Q 353 888 353 1747 
Q 353 2609 779 3096 
Q 1206 3584 1959 3584 
z
" transform="scale(0.015625)"/>
       <path id="DejaVuSans-6e" d="M 3513 2113 
L 3513 0 
L 2938 0 
L 2938 2094 
Q 2938 2591 2744 2837 
Q 2550 3084 2163 3084 
Q 1697 3084 1428 2787 
Q 1159 2491 1159 1978 
L 1159 0 
L 581 0 
L 581 3500 
L 1159 3500 
L 1159 2956 
Q 1366 3272 1645 3428 
Q 1925 3584 2291 3584 
Q 2894 3584 3203 3211 
Q 3513 2838 3513 2113 
z
" transform="scale(0.015625)"/>
      </defs>
      <use xlink:href="#DejaVuSans-49"/>
      <use xlink:href="#DejaVuSans-74" x="29.492188"/>
      <use xlink:href="#DejaVuSans-65" x="68.701172"/>
      <use xlink:href="#DejaVuSans-72" x="130.224609"/>
      <use xlink:href="#DejaVuSans-61" x="171.337891"/>
      <use xlink:href="#DejaVuSans-74" x="232.617188"/>
      <use xlink:href="#DejaVuSans-69" x="271.826172"/>
      <use xlink:href="#DejaVuSans-6f" x="299.609375"/>
      <use xlink:href="#DejaVuSans-6e" x="360.791016"/>
     </g>
    </g>
   </g>
   <g id="matplotlib.axis_2">
    <g id="ytick_1">
     <g id="line2d_7">
      <defs>
       <path id="m576b617d53" d="M 0 0 
L -3.5 0 
" style="stroke: #000000; stroke-width: 0.8"/>
      </defs>
      <g>
       <use xlink:href="#m576b617d53" x="47.81" y="290.994545" style="stroke: #000000; stroke-width: 0.8"/>
      </g>
     </g>
     <g id="text_8">
      <!-- 0.0 -->
      <g transform="translate(24.906875 294.793764) scale(0.1 -0.1)">
       <defs>
        <path id="DejaVuSans-2e" d="M 684 794 
L 1344 794 
L 1344 0 
L 684 0 
L 684 794 
z
" transform="scale(0.015625)"/>
       </defs>
       <use xlink:href="#DejaVuSans-30"/>
       <use xlink:href="#DejaVuSans-2e" x="63.623047"/>
       <use xlink:href="#DejaVuSans-30" x="95.410156"/>
      </g>
     </g>
    </g>
    <g id="ytick_2">
     <g id="line2d_8">
      <g>
       <use xlink:href="#m576b617d53" x="47.81" y="240.412727" style="stroke: #000000; stroke-width: 0.8"/>
      </g>
     </g>
     <g id="text_9">
      <!-- 0.2 -->
      <g transform="translate(24.906875 244.211946) scale(0.1 -0.1)">
       <use xlink:href="#DejaVuSans-30"/>
       <use xlink:href="#DejaVuSans-2e" x="63.623047"/>
       <use xlink:href="#DejaVuSans-32" x="95.410156"/>
      </g>
     </g>
    </g>
    <g id="ytick_3">
     <g id="line2d_9">
      <g>
       <use xlink:href="#m576b617d53" x="47.81" y="189.830909" style="stroke: #000000; stroke-width: 0.8"/>
      </g>
     </g>
     <g id="text_10">
      <!-- 0.4 -->
      <g transform="translate(24.906875 193.630128) scale(0.1 -0.1)">
       <use xlink:href="#DejaVuSans-30"/>
       <use xlink:href="#DejaVuSans-2e" x="63.623047"/>
       <use xlink:href="#DejaVuSans-34" x="95.410156"/>
      </g>
     </g>
    </g>
    <g id="ytick_4">
     <g id="line2d_10">
      <g>
       <use xlink:href="#m576b617d53" x="47.81" y="139.249091" style="stroke: #000000; stroke-width: 0.8"/>
      </g>
     </g>
     <g id="text_11">
      <!-- 0.6 -->
      <g transform="translate(24.906875 143.04831) scale(0.1 -0.1)">
       <use xlink:href="#DejaVuSans-30"/>
       <use xlink:href="#DejaVuSans-2e" x="63.623047"/>
       <use xlink:href="#DejaVuSans-36" x="95.410156"/>
      </g>
     </g>
    </g>
    <g id="ytick_5">
     <g id="line2d_11">
      <g>
       <use xlink:href="#m576b617d53" x="47.81" y="88.667273" style="stroke: #000000; stroke-width: 0.8"/>
      </g>
     </g>
     <g id="text_12">
      <!-- 0.8 -->
      <g transform="translate(24.906875 92.466491) scale(0.1 -0.1)">
       <use xlink:href="#DejaVuSans-30"/>
       <use xlink:href="#DejaVuSans-2e" x="63.623047"/>
       <use xlink:href="#DejaVuSans-38" x="95.410156"/>
      </g>
     </g>
    </g>
    <g id="ytick_6">
     <g id="line2d_12">
      <g>
       <use xlink:href="#m576b617d53" x="47.81" y="38.085455" style="stroke: #000000; stroke-width: 0.8"/>
      </g>
     </g>
     <g id="text_13">
      <!-- 1.0 -->
      <g transform="translate(24.906875 41.884673) scale(0.1 -0.1)">
       <use xlink:href="#DejaVuSans-31"/>
       <use xlink:href="#DejaVuSans-2e" x="63.623047"/>
       <use xlink:href="#DejaVuSans-30" x="95.410156"/>
      </g>
     </g>
    </g>
    <g id="text_14">
     <!-- Similarity -->
     <g transform="translate(18.827187 188.179844) rotate(-90) scale(0.1 -0.1)">
      <defs>
       <path id="DejaVuSans-53" d="M 3425 4513 
L 3425 3897 
Q 3066 4069 2747 4153 
Q 2428 4238 2131 4238 
Q 1616 4238 1336 4038 
Q 1056 3838 1056 3469 
Q 1056 3159 1242 3001 
Q 1428 2844 1947 2747 
L 2328 2669 
Q 3034 2534 3370 2195 
Q 3706 1856 3706 1288 
Q 3706 609 3251 259 
Q 2797 -91 1919 -91 
Q 1588 -91 1214 -16 
Q 841 59 441 206 
L 441 856 
Q 825 641 1194 531 
Q 1563 422 1919 422 
Q 2459 422 2753 634 
Q 3047 847 3047 1241 
Q 3047 1584 2836 1778 
Q 2625 1972 2144 2069 
L 1759 2144 
Q 1053 2284 737 2584 
Q 422 2884 422 3419 
Q 422 4038 858 4394 
Q 1294 4750 2059 4750 
Q 2388 4750 2728 4690 
Q 3069 4631 3425 4513 
z
" transform="scale(0.015625)"/>
       <path id="DejaVuSans-6d" d="M 3328 2828 
Q 3544 3216 3844 3400 
Q 4144 3584 4550 3584 
Q 5097 3584 5394 3201 
Q 5691 2819 5691 2113 
L 5691 0 
L 5113 0 
L 5113 2094 
Q 5113 2597 4934 2840 
Q 4756 3084 4391 3084 
Q 3944 3084 3684 2787 
Q 3425 2491 3425 1978 
L 3425 0 
L 2847 0 
L 2847 2094 
Q 2847 2600 2669 2842 
Q 2491 3084 2119 3084 
Q 1678 3084 1418 2786 
Q 1159 2488 1159 1978 
L 1159 0 
L 581 0 
L 581 3500 
L 1159 3500 
L 1159 2956 
Q 1356 3278 1631 3431 
Q 1906 3584 2284 3584 
Q 2666 3584 2933 3390 
Q 3200 3197 3328 2828 
z
" transform="scale(0.015625)"/>
       <path id="DejaVuSans-6c" d="M 603 4863 
L 1178 4863 
L 1178 0 
L 603 0 
L 603 4863 
z
" transform="scale(0.015625)"/>
       <path id="DejaVuSans-79" d="M 2059 -325 
Q 1816 -950 1584 -1140 
Q 1353 -1331 966 -1331 
L 506 -1331 
L 506 -850 
L 844 -850 
Q 1081 -850 1212 -737 
Q 1344 -625 1503 -206 
L 1606 56 
L 191 3500 
L 800 3500 
L 1894 763 
L 2988 3500 
L 3597 3500 
L 2059 -325 
z
" transform="scale(0.015625)"/>
      </defs>
      <use xlink:href="#DejaVuSans-53"/>
      <use xlink:href="#DejaVuSans-69" x="63.476562"/>
      <use xlink:href="#DejaVuSans-6d" x="91.259766"/>
      <use xlink:href="#DejaVuSans-69" x="188.671875"/>
      <use xlink:href="#DejaVuSans-6c" x="216.455078"/>
      <use xlink:href="#DejaVuSans-61" x="244.238281"/>
      <use xlink:href="#DejaVuSans-72" x="305.517578"/>
      <use xlink:href="#DejaVuSans-69" x="346.630859"/>
      <use xlink:href="#DejaVuSans-74" x="374.414062"/>
      <use xlink:href="#DejaVuSans-79" x="413.623047"/>
     </g>
    </g>
   </g>
   <g id="line2d_13">
    <path d="M 66.091364 86.138182 
L 69.822254 97.519091 
L 73.553145 112.272121 
L 77.284035 114.590455 
L 81.014926 122.051273 
L 84.745816 121.123939 
L 88.476707 126.964935 
L 92.207597 131.661818 
L 95.938488 133.628889 
L 99.669378 135.708364 
L 103.400269 136.260165 
L 107.13116 139.249091 
L 110.86205 138.470909 
L 114.592941 138.887792 
L 118.323831 138.574667 
L 122.054722 138.45875 
L 125.785612 140.588021 
L 129.516503 140.794646 
L 133.247393 140.979522 
L 136.978284 141.778182 
L 140.709174 141.898615 
L 144.440065 141.203388 
L 148.170955 141.998103 
L 151.901846 142.515833 
L 155.632737 143.194473 
L 159.363627 142.653636 
L 163.094518 142.714882 
L 166.825408 142.049156 
L 170.556299 141.516552 
L 174.287189 141.019455 
L 178.01808 141.370264 
L 181.74897 141.383011 
L 185.479861 141.471625 
L 189.210751 140.885561 
L 192.941642 140.477506 
L 196.672532 140.232626 
L 200.403423 140.342752 
L 204.134314 140.180861 
L 207.865204 139.832727 
L 211.596095 140.323955 
L 215.326985 140.852905 
L 219.057876 140.754502 
L 222.788766 140.660677 
L 226.519657 140.973471 
L 230.250547 140.766545 
L 233.981438 140.733557 
L 237.712328 140.648162 
L 241.443219 141.04053 
L 245.174109 141.107199 
L 248.905 140.715964 
L 252.635891 140.538431 
L 256.366781 140.416364 
L 260.097672 140.251184 
L 263.828562 140.466801 
L 267.559453 140.720562 
L 271.290343 140.694286 
L 275.021234 140.668931 
L 278.752124 140.208401 
L 282.483015 140.363606 
L 286.213905 140.597939 
L 289.944796 140.409985 
L 293.675686 139.779384 
L 297.406577 139.8914 
L 301.137468 139.80233 
L 304.868358 139.832727 
L 308.599249 139.977163 
L 312.330139 139.664315 
L 316.06103 139.397861 
L 319.79192 139.395705 
L 323.522811 139.39361 
L 327.253701 139.355954 
L 330.984592 139.284217 
L 334.715482 139.214446 
L 338.446373 139.044029 
L 342.177263 139.21537 
L 345.908154 139.415478 
L 349.639045 139.446163 
L 353.369935 139.281515 
L 357.100826 139.217077 
L 360.831716 139.502 
L 364.562607 139.467654 
L 368.293497 139.680887 
L 372.024388 139.492859 
L 375.755278 139.61039 
L 379.486169 139.725155 
L 383.217059 139.572579 
L 386.94795 139.627001 
L 390.67884 139.593967 
L 394.409731 139.618509 
L 398.140622 139.502 
L 401.871512 139.582597 
L 405.602403 139.826383 
L 409.333293 139.738592 
L 413.064184 139.679574 
L 416.795074 139.754909 
L 420.525965 139.775985 
L 424.256855 139.874845 
L 427.987746 139.791039 
L 431.718636 139.657833 
" clip-path="url(#pe55acd01ea)" style="fill: none; stroke: #0000ff; stroke-linecap: square"/>
    <defs>
     <path id="md1c4b67001" d="M -0.49999 0.49999 
L 0.50001 0.49999 
L 0.50001 -0.50001 
L -0.49999 -0.50001 
z
"/>
    </defs>
    <g clip-path="url(#pe55acd01ea)">
     <use xlink:href="#md1c4b67001" x="66.091364" y="86.138182" style="fill: #0000ff"/>
     <use xlink:href="#md1c4b67001" x="69.822254" y="97.519091" style="fill: #0000ff"/>
     <use xlink:href="#md1c4b67001" x="73.553145" y="112.272121" style="fill: #0000ff"/>
     <use xlink:href="#md1c4b67001" x="77.284035" y="114.590455" style="fill: #0000ff"/>
     <use xlink:href="#md1c4b67001" x="81.014926" y="122.051273" style="fill: #0000ff"/>
     <use xlink:href="#md1c4b67001" x="84.745816" y="121.123939" style="fill: #0000ff"/>
     <use xlink:href="#md1c4b67001" x="88.476707" y="126.964935" style="fill: #0000ff"/>
     <use xlink:href="#md1c4b67001" x="92.207597" y="131.661818" style="fill: #0000ff"/>
     <use xlink:href="#md1c4b67001" x="95.938488" y="133.628889" style="fill: #0000ff"/>
     <use xlink:href="#md1c4b67001" x="99.669378" y="135.708364" style="fill: #0000ff"/>
     <use xlink:href="#md1c4b67001" x="103.400269" y="136.260165" style="fill: #0000ff"/>
     <use xlink:href="#md1c4b67001" x="107.13116" y="139.249091" style="fill: #0000ff"/>
     <use xlink:href="#md1c4b67001" x="110.86205" y="138.470909" style="fill: #0000ff"/>
     <use xlink:href="#md1c4b67001" x="114.592941" y="138.887792" style="fill: #0000ff"/>
     <use xlink:href="#md1c4b67001" x="118.323831" y="138.574667" style="fill: #0000ff"/>
     <use xlink:href="#md1c4b67001" x="122.054722" y="138.45875" style="fill: #0000ff"/>
     <use xlink:href="#md1c4b67001" x="125.785612" y="140.588021" style="fill: #0000ff"/>
     <use xlink:href="#md1c4b67001" x="129.516503" y="140.794646" style="fill: #0000ff"/>
     <use xlink:href="#md1c4b67001" x="133.247393" y="140.979522" style="fill: #0000ff"/>
     <use xlink:href="#md1c4b67001" x="136.978284" y="141.778182" style="fill: #0000ff"/>
     <use xlink:href="#md1c4b67001" x="140.709174" y="141.898615" style="fill: #0000ff"/>
     <use xlink:href="#md1c4b67001" x="144.440065" y="141.203388" style="fill: #0000ff"/>
     <use xlink:href="#md1c4b67001" x="148.170955" y="141.998103" style="fill: #0000ff"/>
     <use xlink:href="#md1c4b67001" x="151.901846" y="142.515833" style="fill: #0000ff"/>
     <use xlink:href="#md1c4b67001" x="155.632737" y="143.194473" style="fill: #0000ff"/>
     <use xlink:href="#md1c4b67001" x="159.363627" y="142.653636" style="fill: #0000ff"/>
     <use xlink:href="#md1c4b67001" x="163.094518" y="142.714882" style="fill: #0000ff"/>
     <use xlink:href="#md1c4b67001" x="166.825408" y="142.049156" style="fill: #0000ff"/>
     <use xlink:href="#md1c4b67001" x="170.556299" y="141.516552" style="fill: #0000ff"/>
     <use xlink:href="#md1c4b67001" x="174.287189" y="141.019455" style="fill: #0000ff"/>
     <use xlink:href="#md1c4b67001" x="178.01808" y="141.370264" style="fill: #0000ff"/>
     <use xlink:href="#md1c4b67001" x="181.74897" y="141.383011" style="fill: #0000ff"/>
     <use xlink:href="#md1c4b67001" x="185.479861" y="141.471625" style="fill: #0000ff"/>
     <use xlink:href="#md1c4b67001" x="189.210751" y="140.885561" style="fill: #0000ff"/>
     <use xlink:href="#md1c4b67001" x="192.941642" y="140.477506" style="fill: #0000ff"/>
     <use xlink:href="#md1c4b67001" x="196.672532" y="140.232626" style="fill: #0000ff"/>
     <use xlink:href="#md1c4b67001" x="200.403423" y="140.342752" style="fill: #0000ff"/>
     <use xlink:href="#md1c4b67001" x="204.134314" y="140.180861" style="fill: #0000ff"/>
     <use xlink:href="#md1c4b67001" x="207.865204" y="139.832727" style="fill: #0000ff"/>
     <use xlink:href="#md1c4b67001" x="211.596095" y="140.323955" style="fill: #0000ff"/>
     <use xlink:href="#md1c4b67001" x="215.326985" y="140.852905" style="fill: #0000ff"/>
     <use xlink:href="#md1c4b67001" x="219.057876" y="140.754502" style="fill: #0000ff"/>
     <use xlink:href="#md1c4b67001" x="222.788766" y="140.660677" style="fill: #0000ff"/>
     <use xlink:href="#md1c4b67001" x="226.519657" y="140.973471" style="fill: #0000ff"/>
     <use xlink:href="#md1c4b67001" x="230.250547" y="140.766545" style="fill: #0000ff"/>
     <use xlink:href="#md1c4b67001" x="233.981438" y="140.733557" style="fill: #0000ff"/>
     <use xlink:href="#md1c4b67001" x="237.712328" y="140.648162" style="fill: #0000ff"/>
     <use xlink:href="#md1c4b67001" x="241.443219" y="141.04053" style="fill: #0000ff"/>
     <use xlink:href="#md1c4b67001" x="245.174109" y="141.107199" style="fill: #0000ff"/>
     <use xlink:href="#md1c4b67001" x="248.905" y="140.715964" style="fill: #0000ff"/>
     <use xlink:href="#md1c4b67001" x="252.635891" y="140.538431" style="fill: #0000ff"/>
     <use xlink:href="#md1c4b67001" x="256.366781" y="140.416364" style="fill: #0000ff"/>
     <use xlink:href="#md1c4b67001" x="260.097672" y="140.251184" style="fill: #0000ff"/>
     <use xlink:href="#md1c4b67001" x="263.828562" y="140.466801" style="fill: #0000ff"/>
     <use xlink:href="#md1c4b67001" x="267.559453" y="140.720562" style="fill: #0000ff"/>
     <use xlink:href="#md1c4b67001" x="271.290343" y="140.694286" style="fill: #0000ff"/>
     <use xlink:href="#md1c4b67001" x="275.021234" y="140.668931" style="fill: #0000ff"/>
     <use xlink:href="#md1c4b67001" x="278.752124" y="140.208401" style="fill: #0000ff"/>
     <use xlink:href="#md1c4b67001" x="282.483015" y="140.363606" style="fill: #0000ff"/>
     <use xlink:href="#md1c4b67001" x="286.213905" y="140.597939" style="fill: #0000ff"/>
     <use xlink:href="#md1c4b67001" x="289.944796" y="140.409985" style="fill: #0000ff"/>
     <use xlink:href="#md1c4b67001" x="293.675686" y="139.779384" style="fill: #0000ff"/>
     <use xlink:href="#md1c4b67001" x="297.406577" y="139.8914" style="fill: #0000ff"/>
     <use xlink:href="#md1c4b67001" x="301.137468" y="139.80233" style="fill: #0000ff"/>
     <use xlink:href="#md1c4b67001" x="304.868358" y="139.832727" style="fill: #0000ff"/>
     <use xlink:href="#md1c4b67001" x="308.599249" y="139.977163" style="fill: #0000ff"/>
     <use xlink:href="#md1c4b67001" x="312.330139" y="139.664315" style="fill: #0000ff"/>
     <use xlink:href="#md1c4b67001" x="316.06103" y="139.397861" style="fill: #0000ff"/>
     <use xlink:href="#md1c4b67001" x="319.79192" y="139.395705" style="fill: #0000ff"/>
     <use xlink:href="#md1c4b67001" x="323.522811" y="139.39361" style="fill: #0000ff"/>
     <use xlink:href="#md1c4b67001" x="327.253701" y="139.355954" style="fill: #0000ff"/>
     <use xlink:href="#md1c4b67001" x="330.984592" y="139.284217" style="fill: #0000ff"/>
     <use xlink:href="#md1c4b67001" x="334.715482" y="139.214446" style="fill: #0000ff"/>
     <use xlink:href="#md1c4b67001" x="338.446373" y="139.044029" style="fill: #0000ff"/>
     <use xlink:href="#md1c4b67001" x="342.177263" y="139.21537" style="fill: #0000ff"/>
     <use xlink:href="#md1c4b67001" x="345.908154" y="139.415478" style="fill: #0000ff"/>
     <use xlink:href="#md1c4b67001" x="349.639045" y="139.446163" style="fill: #0000ff"/>
     <use xlink:href="#md1c4b67001" x="353.369935" y="139.281515" style="fill: #0000ff"/>
     <use xlink:href="#md1c4b67001" x="357.100826" y="139.217077" style="fill: #0000ff"/>
     <use xlink:href="#md1c4b67001" x="360.831716" y="139.502" style="fill: #0000ff"/>
     <use xlink:href="#md1c4b67001" x="364.562607" y="139.467654" style="fill: #0000ff"/>
     <use xlink:href="#md1c4b67001" x="368.293497" y="139.680887" style="fill: #0000ff"/>
     <use xlink:href="#md1c4b67001" x="372.024388" y="139.492859" style="fill: #0000ff"/>
     <use xlink:href="#md1c4b67001" x="375.755278" y="139.61039" style="fill: #0000ff"/>
     <use xlink:href="#md1c4b67001" x="379.486169" y="139.725155" style="fill: #0000ff"/>
     <use xlink:href="#md1c4b67001" x="383.217059" y="139.572579" style="fill: #0000ff"/>
     <use xlink:href="#md1c4b67001" x="386.94795" y="139.627001" style="fill: #0000ff"/>
     <use xlink:href="#md1c4b67001" x="390.67884" y="139.593967" style="fill: #0000ff"/>
     <use xlink:href="#md1c4b67001" x="394.409731" y="139.618509" style="fill: #0000ff"/>
     <use xlink:href="#md1c4b67001" x="398.140622" y="139.502" style="fill: #0000ff"/>
     <use xlink:href="#md1c4b67001" x="401.871512" y="139.582597" style="fill: #0000ff"/>
     <use xlink:href="#md1c4b67001" x="405.602403" y="139.826383" style="fill: #0000ff"/>
     <use xlink:href="#md1c4b67001" x="409.333293" y="139.738592" style="fill: #0000ff"/>
     <use xlink:href="#md1c4b67001" x="413.064184" y="139.679574" style="fill: #0000ff"/>
     <use xlink:href="#md1c4b67001" x="416.795074" y="139.754909" style="fill: #0000ff"/>
     <use xlink:href="#md1c4b67001" x="420.525965" y="139.775985" style="fill: #0000ff"/>
     <use xlink:href="#md1c4b67001" x="424.256855" y="139.874845" style="fill: #0000ff"/>
     <use xlink:href="#md1c4b67001" x="427.987746" y="139.791039" style="fill: #0000ff"/>
     <use xlink:href="#md1c4b67001" x="431.718636" y="139.657833" style="fill: #0000ff"/>
    </g>
   </g>
   <g id="line2d_14">
    <path d="M 66.091364 86.138182 
L 69.822254 91.828636 
L 73.553145 98.643131 
L 77.284035 102.629962 
L 81.014926 106.514224 
L 84.745816 108.949177 
L 88.476707 111.522857 
L 92.207597 114.040227 
L 95.938488 116.216745 
L 99.669378 118.165907 
L 103.400269 119.810839 
L 107.13116 121.430694 
L 110.86205 122.741479 
L 114.592941 123.894787 
L 118.323831 124.873446 
L 122.054722 125.722528 
L 125.785612 126.596968 
L 129.516503 127.385728 
L 133.247393 128.101191 
L 136.978284 128.785041 
L 140.709174 129.409496 
L 144.440065 129.945582 
L 148.170955 130.469605 
L 151.901846 130.971531 
L 155.632737 131.460449 
L 159.363627 131.890956 
L 163.094518 132.291842 
L 166.825408 132.640318 
L 170.556299 132.946395 
L 174.287189 133.215497 
L 178.01808 133.478554 
L 181.74897 133.725568 
L 185.479861 133.960297 
L 189.210751 134.163981 
L 192.941642 134.344368 
L 196.672532 134.507931 
L 200.403423 134.665628 
L 204.134314 134.810766 
L 207.865204 134.939534 
L 211.596095 135.074145 
L 215.326985 135.21509 
L 219.057876 135.346981 
L 222.788766 135.470555 
L 226.519657 135.595622 
L 230.250547 135.710531 
L 233.981438 135.819727 
L 237.712328 135.92246 
L 241.443219 136.029086 
L 245.174109 136.132721 
L 248.905 136.224386 
L 252.635891 136.308975 
L 256.366781 136.387963 
L 260.097672 136.460854 
L 263.828562 136.535039 
L 267.559453 136.611139 
L 271.290343 136.684052 
L 275.021234 136.753963 
L 278.752124 136.813522 
L 282.483015 136.873693 
L 286.213905 136.935764 
L 289.944796 136.992718 
L 293.675686 137.037664 
L 297.406577 137.082962 
L 301.137468 137.125452 
L 304.868358 137.167102 
L 308.599249 137.209679 
L 312.330139 137.246315 
L 316.06103 137.277956 
L 319.79192 137.308648 
L 323.522811 137.338433 
L 327.253701 137.366849 
L 330.984592 137.393479 
L 334.715482 137.418423 
L 338.446373 137.440391 
L 342.177263 137.464057 
L 345.908154 137.489734 
L 349.639045 137.515142 
L 353.369935 137.537788 
L 357.100826 137.559045 
L 360.831716 137.583332 
L 364.562607 137.606595 
L 368.293497 137.631891 
L 372.024388 137.654313 
L 375.755278 137.677599 
L 379.486169 137.701688 
L 383.217059 137.723443 
L 386.94795 137.745323 
L 390.67884 137.76633 
L 394.409731 137.787141 
L 398.140622 137.806195 
L 401.871512 137.825716 
L 405.602403 137.847462 
L 409.333293 137.867797 
L 413.064184 137.887071 
L 416.795074 137.906733 
L 420.525965 137.926204 
L 424.256855 137.946293 
L 427.987746 137.965117 
L 431.718636 137.982215 
" clip-path="url(#pe55acd01ea)" style="fill: none; stroke: #ff0000; stroke-opacity: 0.5; stroke-width: 0.5; stroke-linecap: square"/>
    <defs>
     <path id="mbfd098a068" d="M -0.49999 0.49999 
L 0.50001 0.49999 
L 0.50001 -0.50001 
L -0.49999 -0.50001 
z
"/>
    </defs>
    <g clip-path="url(#pe55acd01ea)">
     <use xlink:href="#mbfd098a068" x="66.091364" y="86.138182" style="fill: #ff0000; fill-opacity: 0.5"/>
     <use xlink:href="#mbfd098a068" x="69.822254" y="91.828636" style="fill: #ff0000; fill-opacity: 0.5"/>
     <use xlink:href="#mbfd098a068" x="73.553145" y="98.643131" style="fill: #ff0000; fill-opacity: 0.5"/>
     <use xlink:href="#mbfd098a068" x="77.284035" y="102.629962" style="fill: #ff0000; fill-opacity: 0.5"/>
     <use xlink:href="#mbfd098a068" x="81.014926" y="106.514224" style="fill: #ff0000; fill-opacity: 0.5"/>
     <use xlink:href="#mbfd098a068" x="84.745816" y="108.949177" style="fill: #ff0000; fill-opacity: 0.5"/>
     <use xlink:href="#mbfd098a068" x="88.476707" y="111.522857" style="fill: #ff0000; fill-opacity: 0.5"/>
     <use xlink:href="#mbfd098a068" x="92.207597" y="114.040227" style="fill: #ff0000; fill-opacity: 0.5"/>
     <use xlink:href="#mbfd098a068" x="95.938488" y="116.216745" style="fill: #ff0000; fill-opacity: 0.5"/>
     <use xlink:href="#mbfd098a068" x="99.669378" y="118.165907" style="fill: #ff0000; fill-opacity: 0.5"/>
     <use xlink:href="#mbfd098a068" x="103.400269" y="119.810839" style="fill: #ff0000; fill-opacity: 0.5"/>
     <use xlink:href="#mbfd098a068" x="107.13116" y="121.430694" style="fill: #ff0000; fill-opacity: 0.5"/>
     <use xlink:href="#mbfd098a068" x="110.86205" y="122.741479" style="fill: #ff0000; fill-opacity: 0.5"/>
     <use xlink:href="#mbfd098a068" x="114.592941" y="123.894787" style="fill: #ff0000; fill-opacity: 0.5"/>
     <use xlink:href="#mbfd098a068" x="118.323831" y="124.873446" style="fill: #ff0000; fill-opacity: 0.5"/>
     <use xlink:href="#mbfd098a068" x="122.054722" y="125.722528" style="fill: #ff0000; fill-opacity: 0.5"/>
     <use xlink:href="#mbfd098a068" x="125.785612" y="126.596968" style="fill: #ff0000; fill-opacity: 0.5"/>
     <use xlink:href="#mbfd098a068" x="129.516503" y="127.385728" style="fill: #ff0000; fill-opacity: 0.5"/>
     <use xlink:href="#mbfd098a068" x="133.247393" y="128.101191" style="fill: #ff0000; fill-opacity: 0.5"/>
     <use xlink:href="#mbfd098a068" x="136.978284" y="128.785041" style="fill: #ff0000; fill-opacity: 0.5"/>
     <use xlink:href="#mbfd098a068" x="140.709174" y="129.409496" style="fill: #ff0000; fill-opacity: 0.5"/>
     <use xlink:href="#mbfd098a068" x="144.440065" y="129.945582" style="fill: #ff0000; fill-opacity: 0.5"/>
     <use xlink:href="#mbfd098a068" x="148.170955" y="130.469605" style="fill: #ff0000; fill-opacity: 0.5"/>
     <use xlink:href="#mbfd098a068" x="151.901846" y="130.971531" style="fill: #ff0000; fill-opacity: 0.5"/>
     <use xlink:href="#mbfd098a068" x="155.632737" y="131.460449" style="fill: #ff0000; fill-opacity: 0.5"/>
     <use xlink:href="#mbfd098a068" x="159.363627" y="131.890956" style="fill: #ff0000; fill-opacity: 0.5"/>
     <use xlink:href="#mbfd098a068" x="163.094518" y="132.291842" style="fill: #ff0000; fill-opacity: 0.5"/>
     <use xlink:href="#mbfd098a068" x="166.825408" y="132.640318" style="fill: #ff0000; fill-opacity: 0.5"/>
     <use xlink:href="#mbfd098a068" x="170.556299" y="132.946395" style="fill: #ff0000; fill-opacity: 0.5"/>
     <use xlink:href="#mbfd098a068" x="174.287189" y="133.215497" style="fill: #ff0000; fill-opacity: 0.5"/>
     <use xlink:href="#mbfd098a068" x="178.01808" y="133.478554" style="fill: #ff0000; fill-opacity: 0.5"/>
     <use xlink:href="#mbfd098a068" x="181.74897" y="133.725568" style="fill: #ff0000; fill-opacity: 0.5"/>
     <use xlink:href="#mbfd098a068" x="185.479861" y="133.960297" style="fill: #ff0000; fill-opacity: 0.5"/>
     <use xlink:href="#mbfd098a068" x="189.210751" y="134.163981" style="fill: #ff0000; fill-opacity: 0.5"/>
     <use xlink:href="#mbfd098a068" x="192.941642" y="134.344368" style="fill: #ff0000; fill-opacity: 0.5"/>
     <use xlink:href="#mbfd098a068" x="196.672532" y="134.507931" style="fill: #ff0000; fill-opacity: 0.5"/>
     <use xlink:href="#mbfd098a068" x="200.403423" y="134.665628" style="fill: #ff0000; fill-opacity: 0.5"/>
     <use xlink:href="#mbfd098a068" x="204.134314" y="134.810766" style="fill: #ff0000; fill-opacity: 0.5"/>
     <use xlink:href="#mbfd098a068" x="207.865204" y="134.939534" style="fill: #ff0000; fill-opacity: 0.5"/>
     <use xlink:href="#mbfd098a068" x="211.596095" y="135.074145" style="fill: #ff0000; fill-opacity: 0.5"/>
     <use xlink:href="#mbfd098a068" x="215.326985" y="135.21509" style="fill: #ff0000; fill-opacity: 0.5"/>
     <use xlink:href="#mbfd098a068" x="219.057876" y="135.346981" style="fill: #ff0000; fill-opacity: 0.5"/>
     <use xlink:href="#mbfd098a068" x="222.788766" y="135.470555" style="fill: #ff0000; fill-opacity: 0.5"/>
     <use xlink:href="#mbfd098a068" x="226.519657" y="135.595622" style="fill: #ff0000; fill-opacity: 0.5"/>
     <use xlink:href="#mbfd098a068" x="230.250547" y="135.710531" style="fill: #ff0000; fill-opacity: 0.5"/>
     <use xlink:href="#mbfd098a068" x="233.981438" y="135.819727" style="fill: #ff0000; fill-opacity: 0.5"/>
     <use xlink:href="#mbfd098a068" x="237.712328" y="135.92246" style="fill: #ff0000; fill-opacity: 0.5"/>
     <use xlink:href="#mbfd098a068" x="241.443219" y="136.029086" style="fill: #ff0000; fill-opacity: 0.5"/>
     <use xlink:href="#mbfd098a068" x="245.174109" y="136.132721" style="fill: #ff0000; fill-opacity: 0.5"/>
     <use xlink:href="#mbfd098a068" x="248.905" y="136.224386" style="fill: #ff0000; fill-opacity: 0.5"/>
     <use xlink:href="#mbfd098a068" x="252.635891" y="136.308975" style="fill: #ff0000; fill-opacity: 0.5"/>
     <use xlink:href="#mbfd098a068" x="256.366781" y="136.387963" style="fill: #ff0000; fill-opacity: 0.5"/>
     <use xlink:href="#mbfd098a068" x="260.097672" y="136.460854" style="fill: #ff0000; fill-opacity: 0.5"/>
     <use xlink:href="#mbfd098a068" x="263.828562" y="136.535039" style="fill: #ff0000; fill-opacity: 0.5"/>
     <use xlink:href="#mbfd098a068" x="267.559453" y="136.611139" style="fill: #ff0000; fill-opacity: 0.5"/>
     <use xlink:href="#mbfd098a068" x="271.290343" y="136.684052" style="fill: #ff0000; fill-opacity: 0.5"/>
     <use xlink:href="#mbfd098a068" x="275.021234" y="136.753963" style="fill: #ff0000; fill-opacity: 0.5"/>
     <use xlink:href="#mbfd098a068" x="278.752124" y="136.813522" style="fill: #ff0000; fill-opacity: 0.5"/>
     <use xlink:href="#mbfd098a068" x="282.483015" y="136.873693" style="fill: #ff0000; fill-opacity: 0.5"/>
     <use xlink:href="#mbfd098a068" x="286.213905" y="136.935764" style="fill: #ff0000; fill-opacity: 0.5"/>
     <use xlink:href="#mbfd098a068" x="289.944796" y="136.992718" style="fill: #ff0000; fill-opacity: 0.5"/>
     <use xlink:href="#mbfd098a068" x="293.675686" y="137.037664" style="fill: #ff0000; fill-opacity: 0.5"/>
     <use xlink:href="#mbfd098a068" x="297.406577" y="137.082962" style="fill: #ff0000; fill-opacity: 0.5"/>
     <use xlink:href="#mbfd098a068" x="301.137468" y="137.125452" style="fill: #ff0000; fill-opacity: 0.5"/>
     <use xlink:href="#mbfd098a068" x="304.868358" y="137.167102" style="fill: #ff0000; fill-opacity: 0.5"/>
     <use xlink:href="#mbfd098a068" x="308.599249" y="137.209679" style="fill: #ff0000; fill-opacity: 0.5"/>
     <use xlink:href="#mbfd098a068" x="312.330139" y="137.246315" style="fill: #ff0000; fill-opacity: 0.5"/>
     <use xlink:href="#mbfd098a068" x="316.06103" y="137.277956" style="fill: #ff0000; fill-opacity: 0.5"/>
     <use xlink:href="#mbfd098a068" x="319.79192" y="137.308648" style="fill: #ff0000; fill-opacity: 0.5"/>
     <use xlink:href="#mbfd098a068" x="323.522811" y="137.338433" style="fill: #ff0000; fill-opacity: 0.5"/>
     <use xlink:href="#mbfd098a068" x="327.253701" y="137.366849" style="fill: #ff0000; fill-opacity: 0.5"/>
     <use xlink:href="#mbfd098a068" x="330.984592" y="137.393479" style="fill: #ff0000; fill-opacity: 0.5"/>
     <use xlink:href="#mbfd098a068" x="334.715482" y="137.418423" style="fill: #ff0000; fill-opacity: 0.5"/>
     <use xlink:href="#mbfd098a068" x="338.446373" y="137.440391" style="fill: #ff0000; fill-opacity: 0.5"/>
     <use xlink:href="#mbfd098a068" x="342.177263" y="137.464057" style="fill: #ff0000; fill-opacity: 0.5"/>
     <use xlink:href="#mbfd098a068" x="345.908154" y="137.489734" style="fill: #ff0000; fill-opacity: 0.5"/>
     <use xlink:href="#mbfd098a068" x="349.639045" y="137.515142" style="fill: #ff0000; fill-opacity: 0.5"/>
     <use xlink:href="#mbfd098a068" x="353.369935" y="137.537788" style="fill: #ff0000; fill-opacity: 0.5"/>
     <use xlink:href="#mbfd098a068" x="357.100826" y="137.559045" style="fill: #ff0000; fill-opacity: 0.5"/>
     <use xlink:href="#mbfd098a068" x="360.831716" y="137.583332" style="fill: #ff0000; fill-opacity: 0.5"/>
     <use xlink:href="#mbfd098a068" x="364.562607" y="137.606595" style="fill: #ff0000; fill-opacity: 0.5"/>
     <use xlink:href="#mbfd098a068" x="368.293497" y="137.631891" style="fill: #ff0000; fill-opacity: 0.5"/>
     <use xlink:href="#mbfd098a068" x="372.024388" y="137.654313" style="fill: #ff0000; fill-opacity: 0.5"/>
     <use xlink:href="#mbfd098a068" x="375.755278" y="137.677599" style="fill: #ff0000; fill-opacity: 0.5"/>
     <use xlink:href="#mbfd098a068" x="379.486169" y="137.701688" style="fill: #ff0000; fill-opacity: 0.5"/>
     <use xlink:href="#mbfd098a068" x="383.217059" y="137.723443" style="fill: #ff0000; fill-opacity: 0.5"/>
     <use xlink:href="#mbfd098a068" x="386.94795" y="137.745323" style="fill: #ff0000; fill-opacity: 0.5"/>
     <use xlink:href="#mbfd098a068" x="390.67884" y="137.76633" style="fill: #ff0000; fill-opacity: 0.5"/>
     <use xlink:href="#mbfd098a068" x="394.409731" y="137.787141" style="fill: #ff0000; fill-opacity: 0.5"/>
     <use xlink:href="#mbfd098a068" x="398.140622" y="137.806195" style="fill: #ff0000; fill-opacity: 0.5"/>
     <use xlink:href="#mbfd098a068" x="401.871512" y="137.825716" style="fill: #ff0000; fill-opacity: 0.5"/>
     <use xlink:href="#mbfd098a068" x="405.602403" y="137.847462" style="fill: #ff0000; fill-opacity: 0.5"/>
     <use xlink:href="#mbfd098a068" x="409.333293" y="137.867797" style="fill: #ff0000; fill-opacity: 0.5"/>
     <use xlink:href="#mbfd098a068" x="413.064184" y="137.887071" style="fill: #ff0000; fill-opacity: 0.5"/>
     <use xlink:href="#mbfd098a068" x="416.795074" y="137.906733" style="fill: #ff0000; fill-opacity: 0.5"/>
     <use xlink:href="#mbfd098a068" x="420.525965" y="137.926204" style="fill: #ff0000; fill-opacity: 0.5"/>
     <use xlink:href="#mbfd098a068" x="424.256855" y="137.946293" style="fill: #ff0000; fill-opacity: 0.5"/>
     <use xlink:href="#mbfd098a068" x="427.987746" y="137.965117" style="fill: #ff0000; fill-opacity: 0.5"/>
     <use xlink:href="#mbfd098a068" x="431.718636" y="137.982215" style="fill: #ff0000; fill-opacity: 0.5"/>
    </g>
   </g>
   <g id="line2d_15">
    <path d="M 47.81 290.994545 
L 450 290.994545 
" clip-path="url(#pe55acd01ea)" style="fill: none; stroke-dasharray: 0.555,0.24; stroke-dashoffset: 0; stroke: #ff0000; stroke-width: 0.15"/>
   </g>
   <g id="line2d_16">
    <path d="M 47.81 164.54 
L 450 164.54 
" clip-path="url(#pe55acd01ea)" style="fill: none; stroke-dasharray: 0.555,0.24; stroke-dashoffset: 0; stroke: #ff0000; stroke-width: 0.15"/>
   </g>
   <g id="line2d_17">
    <path d="M 47.81 38.085455 
L 450 38.085455 
" clip-path="url(#pe55acd01ea)" style="fill: none; stroke-dasharray: 0.555,0.24; stroke-dashoffset: 0; stroke: #ff0000; stroke-width: 0.15"/>
   </g>
   <g id="patch_3">
    <path d="M 47.81 303.64 
L 47.81 25.44 
" style="fill: none; stroke: #000000; stroke-width: 0.8; stroke-linejoin: miter; stroke-linecap: square"/>
   </g>
   <g id="patch_4">
    <path d="M 450 303.64 
L 450 25.44 
" style="fill: none; stroke: #000000; stroke-width: 0.8; stroke-linejoin: miter; stroke-linecap: square"/>
   </g>
   <g id="patch_5">
    <path d="M 47.81 303.64 
L 450 303.64 
" style="fill: none; stroke: #000000; stroke-width: 0.8; stroke-linejoin: miter; stroke-linecap: square"/>
   </g>
   <g id="patch_6">
    <path d="M 47.81 25.44 
L 450 25.44 
" style="fill: none; stroke: #000000; stroke-width: 0.8; stroke-linejoin: miter; stroke-linecap: square"/>
   </g>
   <g id="text_15">
    <!-- Similarity LLM-URND04 - 20240426104728 - 100 games -->
    <g transform="translate(80.389375 19.44) scale(0.12 -0.12)">
     <defs>
      <path id="DejaVuSans-20" transform="scale(0.015625)"/>
      <path id="DejaVuSans-4c" d="M 628 4666 
L 1259 4666 
L 1259 531 
L 3531 531 
L 3531 0 
L 628 0 
L 628 4666 
z
" transform="scale(0.015625)"/>
      <path id="DejaVuSans-4d" d="M 628 4666 
L 1569 4666 
L 2759 1491 
L 3956 4666 
L 4897 4666 
L 4897 0 
L 4281 0 
L 4281 4097 
L 3078 897 
L 2444 897 
L 1241 4097 
L 1241 0 
L 628 0 
L 628 4666 
z
" transform="scale(0.015625)"/>
      <path id="DejaVuSans-2d" d="M 313 2009 
L 1997 2009 
L 1997 1497 
L 313 1497 
L 313 2009 
z
" transform="scale(0.015625)"/>
      <path id="DejaVuSans-55" d="M 556 4666 
L 1191 4666 
L 1191 1831 
Q 1191 1081 1462 751 
Q 1734 422 2344 422 
Q 2950 422 3222 751 
Q 3494 1081 3494 1831 
L 3494 4666 
L 4128 4666 
L 4128 1753 
Q 4128 841 3676 375 
Q 3225 -91 2344 -91 
Q 1459 -91 1007 375 
Q 556 841 556 1753 
L 556 4666 
z
" transform="scale(0.015625)"/>
      <path id="DejaVuSans-52" d="M 2841 2188 
Q 3044 2119 3236 1894 
Q 3428 1669 3622 1275 
L 4263 0 
L 3584 0 
L 2988 1197 
Q 2756 1666 2539 1819 
Q 2322 1972 1947 1972 
L 1259 1972 
L 1259 0 
L 628 0 
L 628 4666 
L 2053 4666 
Q 2853 4666 3247 4331 
Q 3641 3997 3641 3322 
Q 3641 2881 3436 2590 
Q 3231 2300 2841 2188 
z
M 1259 4147 
L 1259 2491 
L 2053 2491 
Q 2509 2491 2742 2702 
Q 2975 2913 2975 3322 
Q 2975 3731 2742 3939 
Q 2509 4147 2053 4147 
L 1259 4147 
z
" transform="scale(0.015625)"/>
      <path id="DejaVuSans-4e" d="M 628 4666 
L 1478 4666 
L 3547 763 
L 3547 4666 
L 4159 4666 
L 4159 0 
L 3309 0 
L 1241 3903 
L 1241 0 
L 628 0 
L 628 4666 
z
" transform="scale(0.015625)"/>
      <path id="DejaVuSans-44" d="M 1259 4147 
L 1259 519 
L 2022 519 
Q 2988 519 3436 956 
Q 3884 1394 3884 2338 
Q 3884 3275 3436 3711 
Q 2988 4147 2022 4147 
L 1259 4147 
z
M 628 4666 
L 1925 4666 
Q 3281 4666 3915 4102 
Q 4550 3538 4550 2338 
Q 4550 1131 3912 565 
Q 3275 0 1925 0 
L 628 0 
L 628 4666 
z
" transform="scale(0.015625)"/>
      <path id="DejaVuSans-37" d="M 525 4666 
L 3525 4666 
L 3525 4397 
L 1831 0 
L 1172 0 
L 2766 4134 
L 525 4134 
L 525 4666 
z
" transform="scale(0.015625)"/>
      <path id="DejaVuSans-67" d="M 2906 1791 
Q 2906 2416 2648 2759 
Q 2391 3103 1925 3103 
Q 1463 3103 1205 2759 
Q 947 2416 947 1791 
Q 947 1169 1205 825 
Q 1463 481 1925 481 
Q 2391 481 2648 825 
Q 2906 1169 2906 1791 
z
M 3481 434 
Q 3481 -459 3084 -895 
Q 2688 -1331 1869 -1331 
Q 1566 -1331 1297 -1286 
Q 1028 -1241 775 -1147 
L 775 -588 
Q 1028 -725 1275 -790 
Q 1522 -856 1778 -856 
Q 2344 -856 2625 -561 
Q 2906 -266 2906 331 
L 2906 616 
Q 2728 306 2450 153 
Q 2172 0 1784 0 
Q 1141 0 747 490 
Q 353 981 353 1791 
Q 353 2603 747 3093 
Q 1141 3584 1784 3584 
Q 2172 3584 2450 3431 
Q 2728 3278 2906 2969 
L 2906 3500 
L 3481 3500 
L 3481 434 
z
" transform="scale(0.015625)"/>
      <path id="DejaVuSans-73" d="M 2834 3397 
L 2834 2853 
Q 2591 2978 2328 3040 
Q 2066 3103 1784 3103 
Q 1356 3103 1142 2972 
Q 928 2841 928 2578 
Q 928 2378 1081 2264 
Q 1234 2150 1697 2047 
L 1894 2003 
Q 2506 1872 2764 1633 
Q 3022 1394 3022 966 
Q 3022 478 2636 193 
Q 2250 -91 1575 -91 
Q 1294 -91 989 -36 
Q 684 19 347 128 
L 347 722 
Q 666 556 975 473 
Q 1284 391 1588 391 
Q 1994 391 2212 530 
Q 2431 669 2431 922 
Q 2431 1156 2273 1281 
Q 2116 1406 1581 1522 
L 1381 1569 
Q 847 1681 609 1914 
Q 372 2147 372 2553 
Q 372 3047 722 3315 
Q 1072 3584 1716 3584 
Q 2034 3584 2315 3537 
Q 2597 3491 2834 3397 
z
" transform="scale(0.015625)"/>
     </defs>
     <use xlink:href="#DejaVuSans-53"/>
     <use xlink:href="#DejaVuSans-69" x="63.476562"/>
     <use xlink:href="#DejaVuSans-6d" x="91.259766"/>
     <use xlink:href="#DejaVuSans-69" x="188.671875"/>
     <use xlink:href="#DejaVuSans-6c" x="216.455078"/>
     <use xlink:href="#DejaVuSans-61" x="244.238281"/>
     <use xlink:href="#DejaVuSans-72" x="305.517578"/>
     <use xlink:href="#DejaVuSans-69" x="346.630859"/>
     <use xlink:href="#DejaVuSans-74" x="374.414062"/>
     <use xlink:href="#DejaVuSans-79" x="413.623047"/>
     <use xlink:href="#DejaVuSans-20" x="472.802734"/>
     <use xlink:href="#DejaVuSans-4c" x="504.589844"/>
     <use xlink:href="#DejaVuSans-4c" x="560.302734"/>
     <use xlink:href="#DejaVuSans-4d" x="616.015625"/>
     <use xlink:href="#DejaVuSans-2d" x="702.294922"/>
     <use xlink:href="#DejaVuSans-55" x="738.378906"/>
     <use xlink:href="#DejaVuSans-52" x="811.572266"/>
     <use xlink:href="#DejaVuSans-4e" x="881.054688"/>
     <use xlink:href="#DejaVuSans-44" x="955.859375"/>
     <use xlink:href="#DejaVuSans-30" x="1032.861328"/>
     <use xlink:href="#DejaVuSans-34" x="1096.484375"/>
     <use xlink:href="#DejaVuSans-20" x="1160.107422"/>
     <use xlink:href="#DejaVuSans-2d" x="1191.894531"/>
     <use xlink:href="#DejaVuSans-20" x="1227.978516"/>
     <use xlink:href="#DejaVuSans-32" x="1259.765625"/>
     <use xlink:href="#DejaVuSans-30" x="1323.388672"/>
     <use xlink:href="#DejaVuSans-32" x="1387.011719"/>
     <use xlink:href="#DejaVuSans-34" x="1450.634766"/>
     <use xlink:href="#DejaVuSans-30" x="1514.257812"/>
     <use xlink:href="#DejaVuSans-34" x="1577.880859"/>
     <use xlink:href="#DejaVuSans-32" x="1641.503906"/>
     <use xlink:href="#DejaVuSans-36" x="1705.126953"/>
     <use xlink:href="#DejaVuSans-31" x="1768.75"/>
     <use xlink:href="#DejaVuSans-30" x="1832.373047"/>
     <use xlink:href="#DejaVuSans-34" x="1895.996094"/>
     <use xlink:href="#DejaVuSans-37" x="1959.619141"/>
     <use xlink:href="#DejaVuSans-32" x="2023.242188"/>
     <use xlink:href="#DejaVuSans-38" x="2086.865234"/>
     <use xlink:href="#DejaVuSans-20" x="2150.488281"/>
     <use xlink:href="#DejaVuSans-2d" x="2182.275391"/>
     <use xlink:href="#DejaVuSans-20" x="2218.359375"/>
     <use xlink:href="#DejaVuSans-31" x="2250.146484"/>
     <use xlink:href="#DejaVuSans-30" x="2313.769531"/>
     <use xlink:href="#DejaVuSans-30" x="2377.392578"/>
     <use xlink:href="#DejaVuSans-20" x="2441.015625"/>
     <use xlink:href="#DejaVuSans-67" x="2472.802734"/>
     <use xlink:href="#DejaVuSans-61" x="2536.279297"/>
     <use xlink:href="#DejaVuSans-6d" x="2597.558594"/>
     <use xlink:href="#DejaVuSans-65" x="2694.970703"/>
     <use xlink:href="#DejaVuSans-73" x="2756.494141"/>
    </g>
   </g>
   <g id="legend_1">
    <g id="patch_7">
     <path d="M 313.909375 62.79625 
L 443 62.79625 
Q 445 62.79625 445 60.79625 
L 445 32.44 
Q 445 30.44 443 30.44 
L 313.909375 30.44 
Q 311.909375 30.44 311.909375 32.44 
L 311.909375 60.79625 
Q 311.909375 62.79625 313.909375 62.79625 
z
" style="fill: #ffffff; opacity: 0.8; stroke: #cccccc; stroke-linejoin: miter"/>
    </g>
    <g id="line2d_18">
     <path d="M 315.909375 38.538437 
L 325.909375 38.538437 
L 335.909375 38.538437 
" style="fill: none; stroke: #0000ff; stroke-linecap: square"/>
     <g>
      <use xlink:href="#md1c4b67001" x="325.909375" y="38.538437" style="fill: #0000ff"/>
     </g>
    </g>
    <g id="text_16">
     <!-- LLM-URND04 -->
     <g transform="translate(343.909375 42.038437) scale(0.1 -0.1)">
      <use xlink:href="#DejaVuSans-4c"/>
      <use xlink:href="#DejaVuSans-4c" x="55.712891"/>
      <use xlink:href="#DejaVuSans-4d" x="111.425781"/>
      <use xlink:href="#DejaVuSans-2d" x="197.705078"/>
      <use xlink:href="#DejaVuSans-55" x="233.789062"/>
      <use xlink:href="#DejaVuSans-52" x="306.982422"/>
      <use xlink:href="#DejaVuSans-4e" x="376.464844"/>
      <use xlink:href="#DejaVuSans-44" x="451.269531"/>
      <use xlink:href="#DejaVuSans-30" x="528.271484"/>
      <use xlink:href="#DejaVuSans-34" x="591.894531"/>
     </g>
    </g>
    <g id="line2d_19">
     <path d="M 315.909375 53.216562 
L 325.909375 53.216562 
L 335.909375 53.216562 
" style="fill: none; stroke: #ff0000; stroke-opacity: 0.5; stroke-width: 0.5; stroke-linecap: square"/>
     <g>
      <use xlink:href="#mbfd098a068" x="325.909375" y="53.216562" style="fill: #ff0000; fill-opacity: 0.5"/>
     </g>
    </g>
    <g id="text_17">
     <!-- LLM-URND04 mean -->
     <g transform="translate(343.909375 56.716562) scale(0.1 -0.1)">
      <use xlink:href="#DejaVuSans-4c"/>
      <use xlink:href="#DejaVuSans-4c" x="55.712891"/>
      <use xlink:href="#DejaVuSans-4d" x="111.425781"/>
      <use xlink:href="#DejaVuSans-2d" x="197.705078"/>
      <use xlink:href="#DejaVuSans-55" x="233.789062"/>
      <use xlink:href="#DejaVuSans-52" x="306.982422"/>
      <use xlink:href="#DejaVuSans-4e" x="376.464844"/>
      <use xlink:href="#DejaVuSans-44" x="451.269531"/>
      <use xlink:href="#DejaVuSans-30" x="528.271484"/>
      <use xlink:href="#DejaVuSans-34" x="591.894531"/>
      <use xlink:href="#DejaVuSans-20" x="655.517578"/>
      <use xlink:href="#DejaVuSans-6d" x="687.304688"/>
      <use xlink:href="#DejaVuSans-65" x="784.716797"/>
      <use xlink:href="#DejaVuSans-61" x="846.240234"/>
      <use xlink:href="#DejaVuSans-6e" x="907.519531"/>
     </g>
    </g>
   </g>
  </g>
 </g>
 <defs>
  <clipPath id="pe55acd01ea">
   <rect x="47.81" y="25.44" width="402.19" height="278.2"/>
  </clipPath>
 </defs>
</svg>
