<?xml version="1.0" encoding="utf-8" standalone="no"?>
<!DOCTYPE svg PUBLIC "-//W3C//DTD SVG 1.1//EN"
  "http://www.w3.org/Graphics/SVG/1.1/DTD/svg11.dtd">
<svg xmlns:xlink="http://www.w3.org/1999/xlink" width="460.8pt" height="345.6pt" viewBox="0 0 460.8 345.6" xmlns="http://www.w3.org/2000/svg" version="1.1">
 <metadata>
  <rdf:RDF xmlns:dc="http://purl.org/dc/elements/1.1/" xmlns:cc="http://creativecommons.org/ns#" xmlns:rdf="http://www.w3.org/1999/02/22-rdf-syntax-ns#">
   <cc:Work>
    <dc:type rdf:resource="http://purl.org/dc/dcmitype/StillImage"/>
    <dc:date>2024-04-08T17:53:13.745043</dc:date>
    <dc:format>image/svg+xml</dc:format>
    <dc:creator>
     <cc:Agent>
      <dc:title>Matplotlib v3.8.0, https://matplotlib.org/</dc:title>
     </cc:Agent>
    </dc:creator>
   </cc:Work>
  </rdf:RDF>
 </metadata>
 <defs>
  <style type="text/css">*{stroke-linejoin: round; stroke-linecap: butt}</style>
 </defs>
 <g id="figure_1">
  <g id="patch_1">
   <path d="M 0 345.6 
L 460.8 345.6 
L 460.8 0 
L 0 0 
z
" style="fill: #ffffff"/>
  </g>
  <g id="axes_1">
   <g id="patch_2">
    <path d="M 47.81 303.64 
L 450 303.64 
L 450 25.44 
L 47.81 25.44 
z
" style="fill: #ffffff"/>
   </g>
   <g id="PolyCollection_1">
    <defs>
     <path id="m5430f90869" d="M 66.091364 -256.932727 
L 66.091364 -256.932727 
L 69.822254 -259.027895 
L 73.553145 -257.22454 
L 77.284035 -254.495188 
L 81.014926 -251.935274 
L 84.745816 -249.941144 
L 88.476707 -248.131242 
L 92.207597 -245.979066 
L 95.938488 -244.092449 
L 99.669378 -241.644477 
L 103.400269 -239.350661 
L 107.13116 -237.225718 
L 110.86205 -235.311165 
L 114.592941 -233.945188 
L 118.323831 -232.429101 
L 122.054722 -230.98379 
L 125.785612 -229.707316 
L 129.516503 -228.476665 
L 133.247393 -227.30589 
L 136.978284 -226.197732 
L 140.709174 -225.147725 
L 144.440065 -224.31248 
L 148.170955 -223.391439 
L 151.901846 -222.528609 
L 155.632737 -221.585666 
L 159.363627 -220.668819 
L 163.094518 -219.866127 
L 166.825408 -219.163211 
L 170.556299 -218.593671 
L 174.287189 -218.006676 
L 178.01808 -217.473822 
L 181.74897 -216.945906 
L 185.479861 -216.404734 
L 189.210751 -215.872131 
L 192.941642 -215.300278 
L 196.672532 -214.851105 
L 200.403423 -214.334388 
L 204.134314 -213.838266 
L 207.865204 -213.430521 
L 211.596095 -213.039396 
L 215.326985 -212.647963 
L 219.057876 -212.384473 
L 222.788766 -212.070014 
L 226.519657 -211.718878 
L 230.250547 -211.366942 
L 233.981438 -211.004365 
L 237.712328 -210.689758 
L 241.443219 -210.449545 
L 245.174109 -210.217243 
L 248.905 -210.287641 
L 252.635891 -210.383725 
L 256.366781 -210.384686 
L 260.097672 -210.331377 
L 263.828562 -210.118487 
L 267.559453 -209.806772 
L 271.290343 -209.504691 
L 275.021234 -209.226078 
L 278.752124 -208.952618 
L 282.483015 -208.653375 
L 286.213905 -208.42121 
L 289.944796 -208.195206 
L 293.675686 -208.073924 
L 297.406577 -207.938694 
L 301.137468 -207.776585 
L 304.868358 -207.570438 
L 308.599249 -207.379825 
L 312.330139 -207.165535 
L 316.06103 -206.956234 
L 319.79192 -206.779634 
L 323.522811 -206.607133 
L 327.253701 -206.428604 
L 330.984592 -206.223471 
L 334.715482 -206.017183 
L 338.446373 -205.815031 
L 342.177263 -205.605664 
L 345.908154 -205.397778 
L 349.639045 -205.191548 
L 353.369935 -204.99231 
L 357.100826 -204.796469 
L 360.831716 -204.628715 
L 364.562607 -204.509105 
L 368.293497 -204.428085 
L 372.024388 -204.361991 
L 375.755278 -204.238093 
L 379.486169 -204.072789 
L 383.217059 -203.92181 
L 386.94795 -203.78804 
L 390.67884 -203.616587 
L 394.409731 -203.451091 
L 398.140622 -203.288099 
L 401.871512 -203.155051 
L 405.602403 -203.012952 
L 409.333293 -202.848492 
L 413.064184 -202.686628 
L 416.795074 -202.530543 
L 420.525965 -202.392775 
L 424.256855 -202.284461 
L 427.987746 -202.170147 
L 431.718636 -202.10328 
L 431.718636 -172.352212 
L 431.718636 -172.352212 
L 427.987746 -172.266698 
L 424.256855 -172.237644 
L 420.525965 -172.195292 
L 416.795074 -172.210065 
L 413.064184 -172.295862 
L 409.333293 -172.424593 
L 405.602403 -172.579038 
L 401.871512 -172.940724 
L 398.140622 -173.345136 
L 394.409731 -173.436147 
L 390.67884 -173.530428 
L 386.94795 -173.671236 
L 383.217059 -173.64525 
L 379.486169 -173.652197 
L 375.755278 -173.696754 
L 372.024388 -173.641512 
L 368.293497 -173.522379 
L 364.562607 -173.411989 
L 360.831716 -173.338147 
L 357.100826 -173.345375 
L 353.369935 -173.4587 
L 349.639045 -173.576658 
L 345.908154 -173.80246 
L 342.177263 -173.957195 
L 338.446373 -174.092908 
L 334.715482 -174.162143 
L 330.984592 -174.23478 
L 327.253701 -174.287932 
L 323.522811 -174.259452 
L 319.79192 -174.212027 
L 316.06103 -174.164181 
L 312.330139 -174.178072 
L 308.599249 -174.193738 
L 304.868358 -174.146774 
L 301.137468 -174.120379 
L 297.406577 -174.015267 
L 293.675686 -173.873605 
L 289.944796 -173.712511 
L 286.213905 -173.681419 
L 282.483015 -173.650771 
L 278.752124 -173.943718 
L 275.021234 -174.5317 
L 271.290343 -175.109164 
L 267.559453 -175.547143 
L 263.828562 -175.927962 
L 260.097672 -175.82294 
L 256.366781 -175.570374 
L 252.635891 -175.284921 
L 248.905 -174.961738 
L 245.174109 -174.637047 
L 241.443219 -174.499013 
L 237.712328 -174.357079 
L 233.981438 -174.32096 
L 230.250547 -174.384134 
L 226.519657 -174.385334 
L 222.788766 -174.356707 
L 219.057876 -174.235594 
L 215.326985 -174.026837 
L 211.596095 -173.996364 
L 207.865204 -173.932832 
L 204.134314 -173.869922 
L 200.403423 -174.01069 
L 196.672532 -174.166245 
L 192.941642 -174.080913 
L 189.210751 -174.31086 
L 185.479861 -174.322094 
L 181.74897 -174.295522 
L 178.01808 -174.184873 
L 174.287189 -174.029659 
L 170.556299 -173.916118 
L 166.825408 -173.70933 
L 163.094518 -173.695781 
L 159.363627 -173.868938 
L 155.632737 -174.815318 
L 151.901846 -175.975173 
L 148.170955 -177.925805 
L 144.440065 -179.706126 
L 140.709174 -182.022209 
L 136.978284 -183.123535 
L 133.247393 -184.073702 
L 129.516503 -185.189955 
L 125.785612 -185.920313 
L 122.054722 -186.344157 
L 118.323831 -187.365412 
L 114.592941 -187.945661 
L 110.86205 -187.597804 
L 107.13116 -188.725727 
L 103.400269 -190.564303 
L 99.669378 -193.229038 
L 95.938488 -196.616709 
L 92.207597 -203.289191 
L 88.476707 -209.251182 
L 84.745816 -216.574108 
L 81.014926 -223.319393 
L 77.284035 -228.810419 
L 73.553145 -235.284147 
L 69.822254 -244.721196 
L 66.091364 -256.932727 
z
" style="stroke: #ff0000; stroke-opacity: 0.2"/>
    </defs>
    <g clip-path="url(#pd33a346549)">
     <use xlink:href="#m5430f90869" x="0" y="345.6" style="fill: #ff0000; fill-opacity: 0.2; stroke: #ff0000; stroke-opacity: 0.2"/>
    </g>
   </g>
   <g id="matplotlib.axis_1">
    <g id="xtick_1">
     <g id="line2d_1">
      <defs>
       <path id="mc243cdd7c4" d="M 0 0 
L 0 3.5 
" style="stroke: #000000; stroke-width: 0.8"/>
      </defs>
      <g>
       <use xlink:href="#mc243cdd7c4" x="66.091364" y="303.64" style="stroke: #000000; stroke-width: 0.8"/>
      </g>
     </g>
     <g id="text_1">
      <!-- 0 -->
      <g transform="translate(62.910114 318.238437) scale(0.1 -0.1)">
       <defs>
        <path id="DejaVuSans-30" d="M 2034 4250 
Q 1547 4250 1301 3770 
Q 1056 3291 1056 2328 
Q 1056 1369 1301 889 
Q 1547 409 2034 409 
Q 2525 409 2770 889 
Q 3016 1369 3016 2328 
Q 3016 3291 2770 3770 
Q 2525 4250 2034 4250 
z
M 2034 4750 
Q 2819 4750 3233 4129 
Q 3647 3509 3647 2328 
Q 3647 1150 3233 529 
Q 2819 -91 2034 -91 
Q 1250 -91 836 529 
Q 422 1150 422 2328 
Q 422 3509 836 4129 
Q 1250 4750 2034 4750 
z
" transform="scale(0.015625)"/>
       </defs>
       <use xlink:href="#DejaVuSans-30"/>
      </g>
     </g>
    </g>
    <g id="xtick_2">
     <g id="line2d_2">
      <g>
       <use xlink:href="#mc243cdd7c4" x="140.709174" y="303.64" style="stroke: #000000; stroke-width: 0.8"/>
      </g>
     </g>
     <g id="text_2">
      <!-- 20 -->
      <g transform="translate(134.346674 318.238437) scale(0.1 -0.1)">
       <defs>
        <path id="DejaVuSans-32" d="M 1228 531 
L 3431 531 
L 3431 0 
L 469 0 
L 469 531 
Q 828 903 1448 1529 
Q 2069 2156 2228 2338 
Q 2531 2678 2651 2914 
Q 2772 3150 2772 3378 
Q 2772 3750 2511 3984 
Q 2250 4219 1831 4219 
Q 1534 4219 1204 4116 
Q 875 4013 500 3803 
L 500 4441 
Q 881 4594 1212 4672 
Q 1544 4750 1819 4750 
Q 2544 4750 2975 4387 
Q 3406 4025 3406 3419 
Q 3406 3131 3298 2873 
Q 3191 2616 2906 2266 
Q 2828 2175 2409 1742 
Q 1991 1309 1228 531 
z
" transform="scale(0.015625)"/>
       </defs>
       <use xlink:href="#DejaVuSans-32"/>
       <use xlink:href="#DejaVuSans-30" x="63.623047"/>
      </g>
     </g>
    </g>
    <g id="xtick_3">
     <g id="line2d_3">
      <g>
       <use xlink:href="#mc243cdd7c4" x="215.326985" y="303.64" style="stroke: #000000; stroke-width: 0.8"/>
      </g>
     </g>
     <g id="text_3">
      <!-- 40 -->
      <g transform="translate(208.964485 318.238437) scale(0.1 -0.1)">
       <defs>
        <path id="DejaVuSans-34" d="M 2419 4116 
L 825 1625 
L 2419 1625 
L 2419 4116 
z
M 2253 4666 
L 3047 4666 
L 3047 1625 
L 3713 1625 
L 3713 1100 
L 3047 1100 
L 3047 0 
L 2419 0 
L 2419 1100 
L 313 1100 
L 313 1709 
L 2253 4666 
z
" transform="scale(0.015625)"/>
       </defs>
       <use xlink:href="#DejaVuSans-34"/>
       <use xlink:href="#DejaVuSans-30" x="63.623047"/>
      </g>
     </g>
    </g>
    <g id="xtick_4">
     <g id="line2d_4">
      <g>
       <use xlink:href="#mc243cdd7c4" x="289.944796" y="303.64" style="stroke: #000000; stroke-width: 0.8"/>
      </g>
     </g>
     <g id="text_4">
      <!-- 60 -->
      <g transform="translate(283.582296 318.238437) scale(0.1 -0.1)">
       <defs>
        <path id="DejaVuSans-36" d="M 2113 2584 
Q 1688 2584 1439 2293 
Q 1191 2003 1191 1497 
Q 1191 994 1439 701 
Q 1688 409 2113 409 
Q 2538 409 2786 701 
Q 3034 994 3034 1497 
Q 3034 2003 2786 2293 
Q 2538 2584 2113 2584 
z
M 3366 4563 
L 3366 3988 
Q 3128 4100 2886 4159 
Q 2644 4219 2406 4219 
Q 1781 4219 1451 3797 
Q 1122 3375 1075 2522 
Q 1259 2794 1537 2939 
Q 1816 3084 2150 3084 
Q 2853 3084 3261 2657 
Q 3669 2231 3669 1497 
Q 3669 778 3244 343 
Q 2819 -91 2113 -91 
Q 1303 -91 875 529 
Q 447 1150 447 2328 
Q 447 3434 972 4092 
Q 1497 4750 2381 4750 
Q 2619 4750 2861 4703 
Q 3103 4656 3366 4563 
z
" transform="scale(0.015625)"/>
       </defs>
       <use xlink:href="#DejaVuSans-36"/>
       <use xlink:href="#DejaVuSans-30" x="63.623047"/>
      </g>
     </g>
    </g>
    <g id="xtick_5">
     <g id="line2d_5">
      <g>
       <use xlink:href="#mc243cdd7c4" x="364.562607" y="303.64" style="stroke: #000000; stroke-width: 0.8"/>
      </g>
     </g>
     <g id="text_5">
      <!-- 80 -->
      <g transform="translate(358.200107 318.238437) scale(0.1 -0.1)">
       <defs>
        <path id="DejaVuSans-38" d="M 2034 2216 
Q 1584 2216 1326 1975 
Q 1069 1734 1069 1313 
Q 1069 891 1326 650 
Q 1584 409 2034 409 
Q 2484 409 2743 651 
Q 3003 894 3003 1313 
Q 3003 1734 2745 1975 
Q 2488 2216 2034 2216 
z
M 1403 2484 
Q 997 2584 770 2862 
Q 544 3141 544 3541 
Q 544 4100 942 4425 
Q 1341 4750 2034 4750 
Q 2731 4750 3128 4425 
Q 3525 4100 3525 3541 
Q 3525 3141 3298 2862 
Q 3072 2584 2669 2484 
Q 3125 2378 3379 2068 
Q 3634 1759 3634 1313 
Q 3634 634 3220 271 
Q 2806 -91 2034 -91 
Q 1263 -91 848 271 
Q 434 634 434 1313 
Q 434 1759 690 2068 
Q 947 2378 1403 2484 
z
M 1172 3481 
Q 1172 3119 1398 2916 
Q 1625 2713 2034 2713 
Q 2441 2713 2670 2916 
Q 2900 3119 2900 3481 
Q 2900 3844 2670 4047 
Q 2441 4250 2034 4250 
Q 1625 4250 1398 4047 
Q 1172 3844 1172 3481 
z
" transform="scale(0.015625)"/>
       </defs>
       <use xlink:href="#DejaVuSans-38"/>
       <use xlink:href="#DejaVuSans-30" x="63.623047"/>
      </g>
     </g>
    </g>
    <g id="xtick_6">
     <g id="line2d_6">
      <g>
       <use xlink:href="#mc243cdd7c4" x="439.180417" y="303.64" style="stroke: #000000; stroke-width: 0.8"/>
      </g>
     </g>
     <g id="text_6">
      <!-- 100 -->
      <g transform="translate(429.636667 318.238437) scale(0.1 -0.1)">
       <defs>
        <path id="DejaVuSans-31" d="M 794 531 
L 1825 531 
L 1825 4091 
L 703 3866 
L 703 4441 
L 1819 4666 
L 2450 4666 
L 2450 531 
L 3481 531 
L 3481 0 
L 794 0 
L 794 531 
z
" transform="scale(0.015625)"/>
       </defs>
       <use xlink:href="#DejaVuSans-31"/>
       <use xlink:href="#DejaVuSans-30" x="63.623047"/>
       <use xlink:href="#DejaVuSans-30" x="127.246094"/>
      </g>
     </g>
    </g>
    <g id="text_7">
     <!-- Iteration -->
     <g transform="translate(227.696406 331.916562) scale(0.1 -0.1)">
      <defs>
       <path id="DejaVuSans-49" d="M 628 4666 
L 1259 4666 
L 1259 0 
L 628 0 
L 628 4666 
z
" transform="scale(0.015625)"/>
       <path id="DejaVuSans-74" d="M 1172 4494 
L 1172 3500 
L 2356 3500 
L 2356 3053 
L 1172 3053 
L 1172 1153 
Q 1172 725 1289 603 
Q 1406 481 1766 481 
L 2356 481 
L 2356 0 
L 1766 0 
Q 1100 0 847 248 
Q 594 497 594 1153 
L 594 3053 
L 172 3053 
L 172 3500 
L 594 3500 
L 594 4494 
L 1172 4494 
z
" transform="scale(0.015625)"/>
       <path id="DejaVuSans-65" d="M 3597 1894 
L 3597 1613 
L 953 1613 
Q 991 1019 1311 708 
Q 1631 397 2203 397 
Q 2534 397 2845 478 
Q 3156 559 3463 722 
L 3463 178 
Q 3153 47 2828 -22 
Q 2503 -91 2169 -91 
Q 1331 -91 842 396 
Q 353 884 353 1716 
Q 353 2575 817 3079 
Q 1281 3584 2069 3584 
Q 2775 3584 3186 3129 
Q 3597 2675 3597 1894 
z
M 3022 2063 
Q 3016 2534 2758 2815 
Q 2500 3097 2075 3097 
Q 1594 3097 1305 2825 
Q 1016 2553 972 2059 
L 3022 2063 
z
" transform="scale(0.015625)"/>
       <path id="DejaVuSans-72" d="M 2631 2963 
Q 2534 3019 2420 3045 
Q 2306 3072 2169 3072 
Q 1681 3072 1420 2755 
Q 1159 2438 1159 1844 
L 1159 0 
L 581 0 
L 581 3500 
L 1159 3500 
L 1159 2956 
Q 1341 3275 1631 3429 
Q 1922 3584 2338 3584 
Q 2397 3584 2469 3576 
Q 2541 3569 2628 3553 
L 2631 2963 
z
" transform="scale(0.015625)"/>
       <path id="DejaVuSans-61" d="M 2194 1759 
Q 1497 1759 1228 1600 
Q 959 1441 959 1056 
Q 959 750 1161 570 
Q 1363 391 1709 391 
Q 2188 391 2477 730 
Q 2766 1069 2766 1631 
L 2766 1759 
L 2194 1759 
z
M 3341 1997 
L 3341 0 
L 2766 0 
L 2766 531 
Q 2569 213 2275 61 
Q 1981 -91 1556 -91 
Q 1019 -91 701 211 
Q 384 513 384 1019 
Q 384 1609 779 1909 
Q 1175 2209 1959 2209 
L 2766 2209 
L 2766 2266 
Q 2766 2663 2505 2880 
Q 2244 3097 1772 3097 
Q 1472 3097 1187 3025 
Q 903 2953 641 2809 
L 641 3341 
Q 956 3463 1253 3523 
Q 1550 3584 1831 3584 
Q 2591 3584 2966 3190 
Q 3341 2797 3341 1997 
z
" transform="scale(0.015625)"/>
       <path id="DejaVuSans-69" d="M 603 3500 
L 1178 3500 
L 1178 0 
L 603 0 
L 603 3500 
z
M 603 4863 
L 1178 4863 
L 1178 4134 
L 603 4134 
L 603 4863 
z
" transform="scale(0.015625)"/>
       <path id="DejaVuSans-6f" d="M 1959 3097 
Q 1497 3097 1228 2736 
Q 959 2375 959 1747 
Q 959 1119 1226 758 
Q 1494 397 1959 397 
Q 2419 397 2687 759 
Q 2956 1122 2956 1747 
Q 2956 2369 2687 2733 
Q 2419 3097 1959 3097 
z
M 1959 3584 
Q 2709 3584 3137 3096 
Q 3566 2609 3566 1747 
Q 3566 888 3137 398 
Q 2709 -91 1959 -91 
Q 1206 -91 779 398 
Q 353 888 353 1747 
Q 353 2609 779 3096 
Q 1206 3584 1959 3584 
z
" transform="scale(0.015625)"/>
       <path id="DejaVuSans-6e" d="M 3513 2113 
L 3513 0 
L 2938 0 
L 2938 2094 
Q 2938 2591 2744 2837 
Q 2550 3084 2163 3084 
Q 1697 3084 1428 2787 
Q 1159 2491 1159 1978 
L 1159 0 
L 581 0 
L 581 3500 
L 1159 3500 
L 1159 2956 
Q 1366 3272 1645 3428 
Q 1925 3584 2291 3584 
Q 2894 3584 3203 3211 
Q 3513 2838 3513 2113 
z
" transform="scale(0.015625)"/>
      </defs>
      <use xlink:href="#DejaVuSans-49"/>
      <use xlink:href="#DejaVuSans-74" x="29.492188"/>
      <use xlink:href="#DejaVuSans-65" x="68.701172"/>
      <use xlink:href="#DejaVuSans-72" x="130.224609"/>
      <use xlink:href="#DejaVuSans-61" x="171.337891"/>
      <use xlink:href="#DejaVuSans-74" x="232.617188"/>
      <use xlink:href="#DejaVuSans-69" x="271.826172"/>
      <use xlink:href="#DejaVuSans-6f" x="299.609375"/>
      <use xlink:href="#DejaVuSans-6e" x="360.791016"/>
     </g>
    </g>
   </g>
   <g id="matplotlib.axis_2">
    <g id="ytick_1">
     <g id="line2d_7">
      <defs>
       <path id="m7033d1433a" d="M 0 0 
L -3.5 0 
" style="stroke: #000000; stroke-width: 0.8"/>
      </defs>
      <g>
       <use xlink:href="#m7033d1433a" x="47.81" y="290.994545" style="stroke: #000000; stroke-width: 0.8"/>
      </g>
     </g>
     <g id="text_8">
      <!-- 0.0 -->
      <g transform="translate(24.906875 294.793764) scale(0.1 -0.1)">
       <defs>
        <path id="DejaVuSans-2e" d="M 684 794 
L 1344 794 
L 1344 0 
L 684 0 
L 684 794 
z
" transform="scale(0.015625)"/>
       </defs>
       <use xlink:href="#DejaVuSans-30"/>
       <use xlink:href="#DejaVuSans-2e" x="63.623047"/>
       <use xlink:href="#DejaVuSans-30" x="95.410156"/>
      </g>
     </g>
    </g>
    <g id="ytick_2">
     <g id="line2d_8">
      <g>
       <use xlink:href="#m7033d1433a" x="47.81" y="240.412727" style="stroke: #000000; stroke-width: 0.8"/>
      </g>
     </g>
     <g id="text_9">
      <!-- 0.2 -->
      <g transform="translate(24.906875 244.211946) scale(0.1 -0.1)">
       <use xlink:href="#DejaVuSans-30"/>
       <use xlink:href="#DejaVuSans-2e" x="63.623047"/>
       <use xlink:href="#DejaVuSans-32" x="95.410156"/>
      </g>
     </g>
    </g>
    <g id="ytick_3">
     <g id="line2d_9">
      <g>
       <use xlink:href="#m7033d1433a" x="47.81" y="189.830909" style="stroke: #000000; stroke-width: 0.8"/>
      </g>
     </g>
     <g id="text_10">
      <!-- 0.4 -->
      <g transform="translate(24.906875 193.630128) scale(0.1 -0.1)">
       <use xlink:href="#DejaVuSans-30"/>
       <use xlink:href="#DejaVuSans-2e" x="63.623047"/>
       <use xlink:href="#DejaVuSans-34" x="95.410156"/>
      </g>
     </g>
    </g>
    <g id="ytick_4">
     <g id="line2d_10">
      <g>
       <use xlink:href="#m7033d1433a" x="47.81" y="139.249091" style="stroke: #000000; stroke-width: 0.8"/>
      </g>
     </g>
     <g id="text_11">
      <!-- 0.6 -->
      <g transform="translate(24.906875 143.04831) scale(0.1 -0.1)">
       <use xlink:href="#DejaVuSans-30"/>
       <use xlink:href="#DejaVuSans-2e" x="63.623047"/>
       <use xlink:href="#DejaVuSans-36" x="95.410156"/>
      </g>
     </g>
    </g>
    <g id="ytick_5">
     <g id="line2d_11">
      <g>
       <use xlink:href="#m7033d1433a" x="47.81" y="88.667273" style="stroke: #000000; stroke-width: 0.8"/>
      </g>
     </g>
     <g id="text_12">
      <!-- 0.8 -->
      <g transform="translate(24.906875 92.466491) scale(0.1 -0.1)">
       <use xlink:href="#DejaVuSans-30"/>
       <use xlink:href="#DejaVuSans-2e" x="63.623047"/>
       <use xlink:href="#DejaVuSans-38" x="95.410156"/>
      </g>
     </g>
    </g>
    <g id="ytick_6">
     <g id="line2d_12">
      <g>
       <use xlink:href="#m7033d1433a" x="47.81" y="38.085455" style="stroke: #000000; stroke-width: 0.8"/>
      </g>
     </g>
     <g id="text_13">
      <!-- 1.0 -->
      <g transform="translate(24.906875 41.884673) scale(0.1 -0.1)">
       <use xlink:href="#DejaVuSans-31"/>
       <use xlink:href="#DejaVuSans-2e" x="63.623047"/>
       <use xlink:href="#DejaVuSans-30" x="95.410156"/>
      </g>
     </g>
    </g>
    <g id="text_14">
     <!-- Similarity -->
     <g transform="translate(18.827187 188.179844) rotate(-90) scale(0.1 -0.1)">
      <defs>
       <path id="DejaVuSans-53" d="M 3425 4513 
L 3425 3897 
Q 3066 4069 2747 4153 
Q 2428 4238 2131 4238 
Q 1616 4238 1336 4038 
Q 1056 3838 1056 3469 
Q 1056 3159 1242 3001 
Q 1428 2844 1947 2747 
L 2328 2669 
Q 3034 2534 3370 2195 
Q 3706 1856 3706 1288 
Q 3706 609 3251 259 
Q 2797 -91 1919 -91 
Q 1588 -91 1214 -16 
Q 841 59 441 206 
L 441 856 
Q 825 641 1194 531 
Q 1563 422 1919 422 
Q 2459 422 2753 634 
Q 3047 847 3047 1241 
Q 3047 1584 2836 1778 
Q 2625 1972 2144 2069 
L 1759 2144 
Q 1053 2284 737 2584 
Q 422 2884 422 3419 
Q 422 4038 858 4394 
Q 1294 4750 2059 4750 
Q 2388 4750 2728 4690 
Q 3069 4631 3425 4513 
z
" transform="scale(0.015625)"/>
       <path id="DejaVuSans-6d" d="M 3328 2828 
Q 3544 3216 3844 3400 
Q 4144 3584 4550 3584 
Q 5097 3584 5394 3201 
Q 5691 2819 5691 2113 
L 5691 0 
L 5113 0 
L 5113 2094 
Q 5113 2597 4934 2840 
Q 4756 3084 4391 3084 
Q 3944 3084 3684 2787 
Q 3425 2491 3425 1978 
L 3425 0 
L 2847 0 
L 2847 2094 
Q 2847 2600 2669 2842 
Q 2491 3084 2119 3084 
Q 1678 3084 1418 2786 
Q 1159 2488 1159 1978 
L 1159 0 
L 581 0 
L 581 3500 
L 1159 3500 
L 1159 2956 
Q 1356 3278 1631 3431 
Q 1906 3584 2284 3584 
Q 2666 3584 2933 3390 
Q 3200 3197 3328 2828 
z
" transform="scale(0.015625)"/>
       <path id="DejaVuSans-6c" d="M 603 4863 
L 1178 4863 
L 1178 0 
L 603 0 
L 603 4863 
z
" transform="scale(0.015625)"/>
       <path id="DejaVuSans-79" d="M 2059 -325 
Q 1816 -950 1584 -1140 
Q 1353 -1331 966 -1331 
L 506 -1331 
L 506 -850 
L 844 -850 
Q 1081 -850 1212 -737 
Q 1344 -625 1503 -206 
L 1606 56 
L 191 3500 
L 800 3500 
L 1894 763 
L 2988 3500 
L 3597 3500 
L 2059 -325 
z
" transform="scale(0.015625)"/>
      </defs>
      <use xlink:href="#DejaVuSans-53"/>
      <use xlink:href="#DejaVuSans-69" x="63.476562"/>
      <use xlink:href="#DejaVuSans-6d" x="91.259766"/>
      <use xlink:href="#DejaVuSans-69" x="188.671875"/>
      <use xlink:href="#DejaVuSans-6c" x="216.455078"/>
      <use xlink:href="#DejaVuSans-61" x="244.238281"/>
      <use xlink:href="#DejaVuSans-72" x="305.517578"/>
      <use xlink:href="#DejaVuSans-69" x="346.630859"/>
      <use xlink:href="#DejaVuSans-74" x="374.414062"/>
      <use xlink:href="#DejaVuSans-79" x="413.623047"/>
     </g>
    </g>
   </g>
   <g id="line2d_13">
    <path d="M 66.091364 88.667273 
L 69.822254 98.783636 
L 73.553145 110.586061 
L 77.284035 117.751818 
L 81.014926 124.074545 
L 84.745816 134.190909 
L 88.476707 144.307273 
L 92.207597 149.365455 
L 95.938488 159.481818 
L 99.669378 154.423636 
L 103.400269 155.435273 
L 107.13116 154.423636 
L 110.86205 152.400364 
L 114.592941 141.272364 
L 118.323831 150.377091 
L 122.054722 155.435273 
L 125.785612 151.388727 
L 129.516503 155.435273 
L 133.247393 160.493455 
L 136.978284 160.493455 
L 140.709174 163.528364 
L 144.440065 176.679636 
L 148.170955 174.656364 
L 151.901846 178.702909 
L 155.632737 172.633091 
L 159.363627 171.621455 
L 163.094518 161.505091 
L 166.825408 158.470182 
L 170.556299 154.423636 
L 174.287189 156.446909 
L 178.01808 155.435273 
L 181.74897 156.446909 
L 185.479861 158.470182 
L 189.210751 159.481818 
L 192.941642 164.54 
L 196.672532 157.458545 
L 200.403423 163.528364 
L 204.134314 163.528364 
L 207.865204 158.470182 
L 211.596095 158.470182 
L 215.326985 159.481818 
L 219.057876 153.412 
L 222.788766 156.446909 
L 226.519657 159.481818 
L 230.250547 160.493455 
L 233.981438 162.516727 
L 237.712328 159.481818 
L 241.443219 155.435273 
L 245.174109 155.435273 
L 248.905 143.295636 
L 252.635891 142.284 
L 256.366781 145.318909 
L 260.097672 147.342182 
L 263.828562 155.435273 
L 267.559453 171.621455 
L 271.290343 173.644727 
L 275.021234 177.691273 
L 278.752124 178.702909 
L 282.483015 171.621455 
L 286.213905 160.493455 
L 289.944796 160.493455 
L 293.675686 153.412 
L 297.406577 154.423636 
L 301.137468 156.446909 
L 304.868358 160.493455 
L 308.599249 159.481818 
L 312.330139 162.516727 
L 316.06103 162.516727 
L 319.79192 159.481818 
L 323.522811 159.481818 
L 327.253701 160.493455 
L 330.984592 164.54 
L 334.715482 165.551636 
L 338.446373 165.551636 
L 342.177263 168.586545 
L 345.908154 169.598182 
L 349.639045 172.633091 
L 353.369935 168.586545 
L 357.100826 168.586545 
L 360.831716 163.528364 
L 364.562607 158.470182 
L 368.293497 155.435273 
L 372.024388 154.423636 
L 375.755278 159.481818 
L 379.486169 165.551636 
L 383.217059 163.528364 
L 386.94795 161.505091 
L 390.67884 170.609818 
L 394.409731 168.586545 
L 398.140622 168.586545 
L 401.871512 181.737818 
L 405.602403 180.726182 
L 409.333293 172.633091 
L 413.064184 171.621455 
L 416.795074 169.598182 
L 420.525965 165.551636 
L 424.256855 161.505091 
L 427.987746 162.516727 
L 431.718636 157.458545 
" clip-path="url(#pd33a346549)" style="fill: none; stroke: #0000ff; stroke-linecap: square"/>
    <defs>
     <path id="mde76a3fa0f" d="M -0.49999 0.49999 
L 0.50001 0.49999 
L 0.50001 -0.50001 
L -0.49999 -0.50001 
z
"/>
    </defs>
    <g clip-path="url(#pd33a346549)">
     <use xlink:href="#mde76a3fa0f" x="66.091364" y="88.667273" style="fill: #0000ff"/>
     <use xlink:href="#mde76a3fa0f" x="69.822254" y="98.783636" style="fill: #0000ff"/>
     <use xlink:href="#mde76a3fa0f" x="73.553145" y="110.586061" style="fill: #0000ff"/>
     <use xlink:href="#mde76a3fa0f" x="77.284035" y="117.751818" style="fill: #0000ff"/>
     <use xlink:href="#mde76a3fa0f" x="81.014926" y="124.074545" style="fill: #0000ff"/>
     <use xlink:href="#mde76a3fa0f" x="84.745816" y="134.190909" style="fill: #0000ff"/>
     <use xlink:href="#mde76a3fa0f" x="88.476707" y="144.307273" style="fill: #0000ff"/>
     <use xlink:href="#mde76a3fa0f" x="92.207597" y="149.365455" style="fill: #0000ff"/>
     <use xlink:href="#mde76a3fa0f" x="95.938488" y="159.481818" style="fill: #0000ff"/>
     <use xlink:href="#mde76a3fa0f" x="99.669378" y="154.423636" style="fill: #0000ff"/>
     <use xlink:href="#mde76a3fa0f" x="103.400269" y="155.435273" style="fill: #0000ff"/>
     <use xlink:href="#mde76a3fa0f" x="107.13116" y="154.423636" style="fill: #0000ff"/>
     <use xlink:href="#mde76a3fa0f" x="110.86205" y="152.400364" style="fill: #0000ff"/>
     <use xlink:href="#mde76a3fa0f" x="114.592941" y="141.272364" style="fill: #0000ff"/>
     <use xlink:href="#mde76a3fa0f" x="118.323831" y="150.377091" style="fill: #0000ff"/>
     <use xlink:href="#mde76a3fa0f" x="122.054722" y="155.435273" style="fill: #0000ff"/>
     <use xlink:href="#mde76a3fa0f" x="125.785612" y="151.388727" style="fill: #0000ff"/>
     <use xlink:href="#mde76a3fa0f" x="129.516503" y="155.435273" style="fill: #0000ff"/>
     <use xlink:href="#mde76a3fa0f" x="133.247393" y="160.493455" style="fill: #0000ff"/>
     <use xlink:href="#mde76a3fa0f" x="136.978284" y="160.493455" style="fill: #0000ff"/>
     <use xlink:href="#mde76a3fa0f" x="140.709174" y="163.528364" style="fill: #0000ff"/>
     <use xlink:href="#mde76a3fa0f" x="144.440065" y="176.679636" style="fill: #0000ff"/>
     <use xlink:href="#mde76a3fa0f" x="148.170955" y="174.656364" style="fill: #0000ff"/>
     <use xlink:href="#mde76a3fa0f" x="151.901846" y="178.702909" style="fill: #0000ff"/>
     <use xlink:href="#mde76a3fa0f" x="155.632737" y="172.633091" style="fill: #0000ff"/>
     <use xlink:href="#mde76a3fa0f" x="159.363627" y="171.621455" style="fill: #0000ff"/>
     <use xlink:href="#mde76a3fa0f" x="163.094518" y="161.505091" style="fill: #0000ff"/>
     <use xlink:href="#mde76a3fa0f" x="166.825408" y="158.470182" style="fill: #0000ff"/>
     <use xlink:href="#mde76a3fa0f" x="170.556299" y="154.423636" style="fill: #0000ff"/>
     <use xlink:href="#mde76a3fa0f" x="174.287189" y="156.446909" style="fill: #0000ff"/>
     <use xlink:href="#mde76a3fa0f" x="178.01808" y="155.435273" style="fill: #0000ff"/>
     <use xlink:href="#mde76a3fa0f" x="181.74897" y="156.446909" style="fill: #0000ff"/>
     <use xlink:href="#mde76a3fa0f" x="185.479861" y="158.470182" style="fill: #0000ff"/>
     <use xlink:href="#mde76a3fa0f" x="189.210751" y="159.481818" style="fill: #0000ff"/>
     <use xlink:href="#mde76a3fa0f" x="192.941642" y="164.54" style="fill: #0000ff"/>
     <use xlink:href="#mde76a3fa0f" x="196.672532" y="157.458545" style="fill: #0000ff"/>
     <use xlink:href="#mde76a3fa0f" x="200.403423" y="163.528364" style="fill: #0000ff"/>
     <use xlink:href="#mde76a3fa0f" x="204.134314" y="163.528364" style="fill: #0000ff"/>
     <use xlink:href="#mde76a3fa0f" x="207.865204" y="158.470182" style="fill: #0000ff"/>
     <use xlink:href="#mde76a3fa0f" x="211.596095" y="158.470182" style="fill: #0000ff"/>
     <use xlink:href="#mde76a3fa0f" x="215.326985" y="159.481818" style="fill: #0000ff"/>
     <use xlink:href="#mde76a3fa0f" x="219.057876" y="153.412" style="fill: #0000ff"/>
     <use xlink:href="#mde76a3fa0f" x="222.788766" y="156.446909" style="fill: #0000ff"/>
     <use xlink:href="#mde76a3fa0f" x="226.519657" y="159.481818" style="fill: #0000ff"/>
     <use xlink:href="#mde76a3fa0f" x="230.250547" y="160.493455" style="fill: #0000ff"/>
     <use xlink:href="#mde76a3fa0f" x="233.981438" y="162.516727" style="fill: #0000ff"/>
     <use xlink:href="#mde76a3fa0f" x="237.712328" y="159.481818" style="fill: #0000ff"/>
     <use xlink:href="#mde76a3fa0f" x="241.443219" y="155.435273" style="fill: #0000ff"/>
     <use xlink:href="#mde76a3fa0f" x="245.174109" y="155.435273" style="fill: #0000ff"/>
     <use xlink:href="#mde76a3fa0f" x="248.905" y="143.295636" style="fill: #0000ff"/>
     <use xlink:href="#mde76a3fa0f" x="252.635891" y="142.284" style="fill: #0000ff"/>
     <use xlink:href="#mde76a3fa0f" x="256.366781" y="145.318909" style="fill: #0000ff"/>
     <use xlink:href="#mde76a3fa0f" x="260.097672" y="147.342182" style="fill: #0000ff"/>
     <use xlink:href="#mde76a3fa0f" x="263.828562" y="155.435273" style="fill: #0000ff"/>
     <use xlink:href="#mde76a3fa0f" x="267.559453" y="171.621455" style="fill: #0000ff"/>
     <use xlink:href="#mde76a3fa0f" x="271.290343" y="173.644727" style="fill: #0000ff"/>
     <use xlink:href="#mde76a3fa0f" x="275.021234" y="177.691273" style="fill: #0000ff"/>
     <use xlink:href="#mde76a3fa0f" x="278.752124" y="178.702909" style="fill: #0000ff"/>
     <use xlink:href="#mde76a3fa0f" x="282.483015" y="171.621455" style="fill: #0000ff"/>
     <use xlink:href="#mde76a3fa0f" x="286.213905" y="160.493455" style="fill: #0000ff"/>
     <use xlink:href="#mde76a3fa0f" x="289.944796" y="160.493455" style="fill: #0000ff"/>
     <use xlink:href="#mde76a3fa0f" x="293.675686" y="153.412" style="fill: #0000ff"/>
     <use xlink:href="#mde76a3fa0f" x="297.406577" y="154.423636" style="fill: #0000ff"/>
     <use xlink:href="#mde76a3fa0f" x="301.137468" y="156.446909" style="fill: #0000ff"/>
     <use xlink:href="#mde76a3fa0f" x="304.868358" y="160.493455" style="fill: #0000ff"/>
     <use xlink:href="#mde76a3fa0f" x="308.599249" y="159.481818" style="fill: #0000ff"/>
     <use xlink:href="#mde76a3fa0f" x="312.330139" y="162.516727" style="fill: #0000ff"/>
     <use xlink:href="#mde76a3fa0f" x="316.06103" y="162.516727" style="fill: #0000ff"/>
     <use xlink:href="#mde76a3fa0f" x="319.79192" y="159.481818" style="fill: #0000ff"/>
     <use xlink:href="#mde76a3fa0f" x="323.522811" y="159.481818" style="fill: #0000ff"/>
     <use xlink:href="#mde76a3fa0f" x="327.253701" y="160.493455" style="fill: #0000ff"/>
     <use xlink:href="#mde76a3fa0f" x="330.984592" y="164.54" style="fill: #0000ff"/>
     <use xlink:href="#mde76a3fa0f" x="334.715482" y="165.551636" style="fill: #0000ff"/>
     <use xlink:href="#mde76a3fa0f" x="338.446373" y="165.551636" style="fill: #0000ff"/>
     <use xlink:href="#mde76a3fa0f" x="342.177263" y="168.586545" style="fill: #0000ff"/>
     <use xlink:href="#mde76a3fa0f" x="345.908154" y="169.598182" style="fill: #0000ff"/>
     <use xlink:href="#mde76a3fa0f" x="349.639045" y="172.633091" style="fill: #0000ff"/>
     <use xlink:href="#mde76a3fa0f" x="353.369935" y="168.586545" style="fill: #0000ff"/>
     <use xlink:href="#mde76a3fa0f" x="357.100826" y="168.586545" style="fill: #0000ff"/>
     <use xlink:href="#mde76a3fa0f" x="360.831716" y="163.528364" style="fill: #0000ff"/>
     <use xlink:href="#mde76a3fa0f" x="364.562607" y="158.470182" style="fill: #0000ff"/>
     <use xlink:href="#mde76a3fa0f" x="368.293497" y="155.435273" style="fill: #0000ff"/>
     <use xlink:href="#mde76a3fa0f" x="372.024388" y="154.423636" style="fill: #0000ff"/>
     <use xlink:href="#mde76a3fa0f" x="375.755278" y="159.481818" style="fill: #0000ff"/>
     <use xlink:href="#mde76a3fa0f" x="379.486169" y="165.551636" style="fill: #0000ff"/>
     <use xlink:href="#mde76a3fa0f" x="383.217059" y="163.528364" style="fill: #0000ff"/>
     <use xlink:href="#mde76a3fa0f" x="386.94795" y="161.505091" style="fill: #0000ff"/>
     <use xlink:href="#mde76a3fa0f" x="390.67884" y="170.609818" style="fill: #0000ff"/>
     <use xlink:href="#mde76a3fa0f" x="394.409731" y="168.586545" style="fill: #0000ff"/>
     <use xlink:href="#mde76a3fa0f" x="398.140622" y="168.586545" style="fill: #0000ff"/>
     <use xlink:href="#mde76a3fa0f" x="401.871512" y="181.737818" style="fill: #0000ff"/>
     <use xlink:href="#mde76a3fa0f" x="405.602403" y="180.726182" style="fill: #0000ff"/>
     <use xlink:href="#mde76a3fa0f" x="409.333293" y="172.633091" style="fill: #0000ff"/>
     <use xlink:href="#mde76a3fa0f" x="413.064184" y="171.621455" style="fill: #0000ff"/>
     <use xlink:href="#mde76a3fa0f" x="416.795074" y="169.598182" style="fill: #0000ff"/>
     <use xlink:href="#mde76a3fa0f" x="420.525965" y="165.551636" style="fill: #0000ff"/>
     <use xlink:href="#mde76a3fa0f" x="424.256855" y="161.505091" style="fill: #0000ff"/>
     <use xlink:href="#mde76a3fa0f" x="427.987746" y="162.516727" style="fill: #0000ff"/>
     <use xlink:href="#mde76a3fa0f" x="431.718636" y="157.458545" style="fill: #0000ff"/>
    </g>
   </g>
   <g id="line2d_14">
    <path d="M 66.091364 88.667273 
L 69.822254 93.725455 
L 73.553145 99.345657 
L 77.284035 103.947197 
L 81.014926 107.972667 
L 84.745816 112.342374 
L 88.476707 116.908788 
L 92.207597 120.965871 
L 95.938488 125.245421 
L 99.669378 128.163242 
L 103.400269 130.642518 
L 107.13116 132.624278 
L 110.86205 134.145515 
L 114.592941 134.654576 
L 118.323831 135.702743 
L 122.054722 136.936027 
L 125.785612 137.786185 
L 129.516503 138.76669 
L 133.247393 139.910204 
L 136.978284 140.939367 
L 140.709174 142.015033 
L 144.440065 143.590697 
L 148.170955 144.941378 
L 151.901846 146.348109 
L 155.632737 147.399508 
L 159.363627 148.331121 
L 163.094518 148.819046 
L 166.825408 149.163729 
L 170.556299 149.345106 
L 174.287189 149.581832 
L 178.01808 149.770653 
L 181.74897 149.979286 
L 185.479861 150.236586 
L 189.210751 150.508504 
L 192.941642 150.909404 
L 196.672532 151.091325 
L 200.403423 151.427461 
L 204.134314 151.745906 
L 207.865204 151.918323 
L 211.596095 152.08212 
L 215.326985 152.2626 
L 219.057876 152.289967 
L 222.788766 152.38664 
L 226.519657 152.547894 
L 230.250547 152.724462 
L 233.981438 152.937337 
L 237.712328 153.076582 
L 241.443219 153.125721 
L 245.174109 153.172855 
L 248.905 152.97531 
L 252.635891 152.765677 
L 256.366781 152.62247 
L 260.097672 152.522842 
L 263.828562 152.576776 
L 267.559453 152.923042 
L 271.290343 153.293073 
L 275.021234 153.721111 
L 278.752124 154.151832 
L 282.483015 154.447927 
L 286.213905 154.548686 
L 289.944796 154.646141 
L 293.675686 154.626236 
L 297.406577 154.62302 
L 301.137468 154.651518 
L 304.868358 154.741394 
L 308.599249 154.813219 
L 312.330139 154.928196 
L 316.06103 155.039792 
L 319.79192 155.10417 
L 323.522811 155.166707 
L 327.253701 155.241732 
L 330.984592 155.370875 
L 334.715482 155.510337 
L 338.446373 155.64603 
L 342.177263 155.818571 
L 345.908154 155.999881 
L 349.639045 156.215897 
L 353.369935 156.374495 
L 357.100826 156.529078 
L 360.831716 156.616569 
L 364.562607 156.639453 
L 368.293497 156.624768 
L 372.024388 156.598248 
L 375.755278 156.632576 
L 379.486169 156.737507 
L 383.217059 156.81647 
L 386.94795 156.870362 
L 390.67884 157.026492 
L 394.409731 157.156381 
L 398.140622 157.283382 
L 401.871512 157.552113 
L 405.602403 157.804005 
L 409.333293 157.963457 
L 413.064184 158.108755 
L 416.795074 158.229696 
L 420.525965 158.305967 
L 424.256855 158.338947 
L 427.987746 158.381578 
L 431.718636 158.372254 
" clip-path="url(#pd33a346549)" style="fill: none; stroke: #ff0000; stroke-opacity: 0.5; stroke-width: 0.5; stroke-linecap: square"/>
    <defs>
     <path id="mf0d46a08af" d="M -0.49999 0.49999 
L 0.50001 0.49999 
L 0.50001 -0.50001 
L -0.49999 -0.50001 
z
"/>
    </defs>
    <g clip-path="url(#pd33a346549)">
     <use xlink:href="#mf0d46a08af" x="66.091364" y="88.667273" style="fill: #ff0000; fill-opacity: 0.5"/>
     <use xlink:href="#mf0d46a08af" x="69.822254" y="93.725455" style="fill: #ff0000; fill-opacity: 0.5"/>
     <use xlink:href="#mf0d46a08af" x="73.553145" y="99.345657" style="fill: #ff0000; fill-opacity: 0.5"/>
     <use xlink:href="#mf0d46a08af" x="77.284035" y="103.947197" style="fill: #ff0000; fill-opacity: 0.5"/>
     <use xlink:href="#mf0d46a08af" x="81.014926" y="107.972667" style="fill: #ff0000; fill-opacity: 0.5"/>
     <use xlink:href="#mf0d46a08af" x="84.745816" y="112.342374" style="fill: #ff0000; fill-opacity: 0.5"/>
     <use xlink:href="#mf0d46a08af" x="88.476707" y="116.908788" style="fill: #ff0000; fill-opacity: 0.5"/>
     <use xlink:href="#mf0d46a08af" x="92.207597" y="120.965871" style="fill: #ff0000; fill-opacity: 0.5"/>
     <use xlink:href="#mf0d46a08af" x="95.938488" y="125.245421" style="fill: #ff0000; fill-opacity: 0.5"/>
     <use xlink:href="#mf0d46a08af" x="99.669378" y="128.163242" style="fill: #ff0000; fill-opacity: 0.5"/>
     <use xlink:href="#mf0d46a08af" x="103.400269" y="130.642518" style="fill: #ff0000; fill-opacity: 0.5"/>
     <use xlink:href="#mf0d46a08af" x="107.13116" y="132.624278" style="fill: #ff0000; fill-opacity: 0.5"/>
     <use xlink:href="#mf0d46a08af" x="110.86205" y="134.145515" style="fill: #ff0000; fill-opacity: 0.5"/>
     <use xlink:href="#mf0d46a08af" x="114.592941" y="134.654576" style="fill: #ff0000; fill-opacity: 0.5"/>
     <use xlink:href="#mf0d46a08af" x="118.323831" y="135.702743" style="fill: #ff0000; fill-opacity: 0.5"/>
     <use xlink:href="#mf0d46a08af" x="122.054722" y="136.936027" style="fill: #ff0000; fill-opacity: 0.5"/>
     <use xlink:href="#mf0d46a08af" x="125.785612" y="137.786185" style="fill: #ff0000; fill-opacity: 0.5"/>
     <use xlink:href="#mf0d46a08af" x="129.516503" y="138.76669" style="fill: #ff0000; fill-opacity: 0.5"/>
     <use xlink:href="#mf0d46a08af" x="133.247393" y="139.910204" style="fill: #ff0000; fill-opacity: 0.5"/>
     <use xlink:href="#mf0d46a08af" x="136.978284" y="140.939367" style="fill: #ff0000; fill-opacity: 0.5"/>
     <use xlink:href="#mf0d46a08af" x="140.709174" y="142.015033" style="fill: #ff0000; fill-opacity: 0.5"/>
     <use xlink:href="#mf0d46a08af" x="144.440065" y="143.590697" style="fill: #ff0000; fill-opacity: 0.5"/>
     <use xlink:href="#mf0d46a08af" x="148.170955" y="144.941378" style="fill: #ff0000; fill-opacity: 0.5"/>
     <use xlink:href="#mf0d46a08af" x="151.901846" y="146.348109" style="fill: #ff0000; fill-opacity: 0.5"/>
     <use xlink:href="#mf0d46a08af" x="155.632737" y="147.399508" style="fill: #ff0000; fill-opacity: 0.5"/>
     <use xlink:href="#mf0d46a08af" x="159.363627" y="148.331121" style="fill: #ff0000; fill-opacity: 0.5"/>
     <use xlink:href="#mf0d46a08af" x="163.094518" y="148.819046" style="fill: #ff0000; fill-opacity: 0.5"/>
     <use xlink:href="#mf0d46a08af" x="166.825408" y="149.163729" style="fill: #ff0000; fill-opacity: 0.5"/>
     <use xlink:href="#mf0d46a08af" x="170.556299" y="149.345106" style="fill: #ff0000; fill-opacity: 0.5"/>
     <use xlink:href="#mf0d46a08af" x="174.287189" y="149.581832" style="fill: #ff0000; fill-opacity: 0.5"/>
     <use xlink:href="#mf0d46a08af" x="178.01808" y="149.770653" style="fill: #ff0000; fill-opacity: 0.5"/>
     <use xlink:href="#mf0d46a08af" x="181.74897" y="149.979286" style="fill: #ff0000; fill-opacity: 0.5"/>
     <use xlink:href="#mf0d46a08af" x="185.479861" y="150.236586" style="fill: #ff0000; fill-opacity: 0.5"/>
     <use xlink:href="#mf0d46a08af" x="189.210751" y="150.508504" style="fill: #ff0000; fill-opacity: 0.5"/>
     <use xlink:href="#mf0d46a08af" x="192.941642" y="150.909404" style="fill: #ff0000; fill-opacity: 0.5"/>
     <use xlink:href="#mf0d46a08af" x="196.672532" y="151.091325" style="fill: #ff0000; fill-opacity: 0.5"/>
     <use xlink:href="#mf0d46a08af" x="200.403423" y="151.427461" style="fill: #ff0000; fill-opacity: 0.5"/>
     <use xlink:href="#mf0d46a08af" x="204.134314" y="151.745906" style="fill: #ff0000; fill-opacity: 0.5"/>
     <use xlink:href="#mf0d46a08af" x="207.865204" y="151.918323" style="fill: #ff0000; fill-opacity: 0.5"/>
     <use xlink:href="#mf0d46a08af" x="211.596095" y="152.08212" style="fill: #ff0000; fill-opacity: 0.5"/>
     <use xlink:href="#mf0d46a08af" x="215.326985" y="152.2626" style="fill: #ff0000; fill-opacity: 0.5"/>
     <use xlink:href="#mf0d46a08af" x="219.057876" y="152.289967" style="fill: #ff0000; fill-opacity: 0.5"/>
     <use xlink:href="#mf0d46a08af" x="222.788766" y="152.38664" style="fill: #ff0000; fill-opacity: 0.5"/>
     <use xlink:href="#mf0d46a08af" x="226.519657" y="152.547894" style="fill: #ff0000; fill-opacity: 0.5"/>
     <use xlink:href="#mf0d46a08af" x="230.250547" y="152.724462" style="fill: #ff0000; fill-opacity: 0.5"/>
     <use xlink:href="#mf0d46a08af" x="233.981438" y="152.937337" style="fill: #ff0000; fill-opacity: 0.5"/>
     <use xlink:href="#mf0d46a08af" x="237.712328" y="153.076582" style="fill: #ff0000; fill-opacity: 0.5"/>
     <use xlink:href="#mf0d46a08af" x="241.443219" y="153.125721" style="fill: #ff0000; fill-opacity: 0.5"/>
     <use xlink:href="#mf0d46a08af" x="245.174109" y="153.172855" style="fill: #ff0000; fill-opacity: 0.5"/>
     <use xlink:href="#mf0d46a08af" x="248.905" y="152.97531" style="fill: #ff0000; fill-opacity: 0.5"/>
     <use xlink:href="#mf0d46a08af" x="252.635891" y="152.765677" style="fill: #ff0000; fill-opacity: 0.5"/>
     <use xlink:href="#mf0d46a08af" x="256.366781" y="152.62247" style="fill: #ff0000; fill-opacity: 0.5"/>
     <use xlink:href="#mf0d46a08af" x="260.097672" y="152.522842" style="fill: #ff0000; fill-opacity: 0.5"/>
     <use xlink:href="#mf0d46a08af" x="263.828562" y="152.576776" style="fill: #ff0000; fill-opacity: 0.5"/>
     <use xlink:href="#mf0d46a08af" x="267.559453" y="152.923042" style="fill: #ff0000; fill-opacity: 0.5"/>
     <use xlink:href="#mf0d46a08af" x="271.290343" y="153.293073" style="fill: #ff0000; fill-opacity: 0.5"/>
     <use xlink:href="#mf0d46a08af" x="275.021234" y="153.721111" style="fill: #ff0000; fill-opacity: 0.5"/>
     <use xlink:href="#mf0d46a08af" x="278.752124" y="154.151832" style="fill: #ff0000; fill-opacity: 0.5"/>
     <use xlink:href="#mf0d46a08af" x="282.483015" y="154.447927" style="fill: #ff0000; fill-opacity: 0.5"/>
     <use xlink:href="#mf0d46a08af" x="286.213905" y="154.548686" style="fill: #ff0000; fill-opacity: 0.5"/>
     <use xlink:href="#mf0d46a08af" x="289.944796" y="154.646141" style="fill: #ff0000; fill-opacity: 0.5"/>
     <use xlink:href="#mf0d46a08af" x="293.675686" y="154.626236" style="fill: #ff0000; fill-opacity: 0.5"/>
     <use xlink:href="#mf0d46a08af" x="297.406577" y="154.62302" style="fill: #ff0000; fill-opacity: 0.5"/>
     <use xlink:href="#mf0d46a08af" x="301.137468" y="154.651518" style="fill: #ff0000; fill-opacity: 0.5"/>
     <use xlink:href="#mf0d46a08af" x="304.868358" y="154.741394" style="fill: #ff0000; fill-opacity: 0.5"/>
     <use xlink:href="#mf0d46a08af" x="308.599249" y="154.813219" style="fill: #ff0000; fill-opacity: 0.5"/>
     <use xlink:href="#mf0d46a08af" x="312.330139" y="154.928196" style="fill: #ff0000; fill-opacity: 0.5"/>
     <use xlink:href="#mf0d46a08af" x="316.06103" y="155.039792" style="fill: #ff0000; fill-opacity: 0.5"/>
     <use xlink:href="#mf0d46a08af" x="319.79192" y="155.10417" style="fill: #ff0000; fill-opacity: 0.5"/>
     <use xlink:href="#mf0d46a08af" x="323.522811" y="155.166707" style="fill: #ff0000; fill-opacity: 0.5"/>
     <use xlink:href="#mf0d46a08af" x="327.253701" y="155.241732" style="fill: #ff0000; fill-opacity: 0.5"/>
     <use xlink:href="#mf0d46a08af" x="330.984592" y="155.370875" style="fill: #ff0000; fill-opacity: 0.5"/>
     <use xlink:href="#mf0d46a08af" x="334.715482" y="155.510337" style="fill: #ff0000; fill-opacity: 0.5"/>
     <use xlink:href="#mf0d46a08af" x="338.446373" y="155.64603" style="fill: #ff0000; fill-opacity: 0.5"/>
     <use xlink:href="#mf0d46a08af" x="342.177263" y="155.818571" style="fill: #ff0000; fill-opacity: 0.5"/>
     <use xlink:href="#mf0d46a08af" x="345.908154" y="155.999881" style="fill: #ff0000; fill-opacity: 0.5"/>
     <use xlink:href="#mf0d46a08af" x="349.639045" y="156.215897" style="fill: #ff0000; fill-opacity: 0.5"/>
     <use xlink:href="#mf0d46a08af" x="353.369935" y="156.374495" style="fill: #ff0000; fill-opacity: 0.5"/>
     <use xlink:href="#mf0d46a08af" x="357.100826" y="156.529078" style="fill: #ff0000; fill-opacity: 0.5"/>
     <use xlink:href="#mf0d46a08af" x="360.831716" y="156.616569" style="fill: #ff0000; fill-opacity: 0.5"/>
     <use xlink:href="#mf0d46a08af" x="364.562607" y="156.639453" style="fill: #ff0000; fill-opacity: 0.5"/>
     <use xlink:href="#mf0d46a08af" x="368.293497" y="156.624768" style="fill: #ff0000; fill-opacity: 0.5"/>
     <use xlink:href="#mf0d46a08af" x="372.024388" y="156.598248" style="fill: #ff0000; fill-opacity: 0.5"/>
     <use xlink:href="#mf0d46a08af" x="375.755278" y="156.632576" style="fill: #ff0000; fill-opacity: 0.5"/>
     <use xlink:href="#mf0d46a08af" x="379.486169" y="156.737507" style="fill: #ff0000; fill-opacity: 0.5"/>
     <use xlink:href="#mf0d46a08af" x="383.217059" y="156.81647" style="fill: #ff0000; fill-opacity: 0.5"/>
     <use xlink:href="#mf0d46a08af" x="386.94795" y="156.870362" style="fill: #ff0000; fill-opacity: 0.5"/>
     <use xlink:href="#mf0d46a08af" x="390.67884" y="157.026492" style="fill: #ff0000; fill-opacity: 0.5"/>
     <use xlink:href="#mf0d46a08af" x="394.409731" y="157.156381" style="fill: #ff0000; fill-opacity: 0.5"/>
     <use xlink:href="#mf0d46a08af" x="398.140622" y="157.283382" style="fill: #ff0000; fill-opacity: 0.5"/>
     <use xlink:href="#mf0d46a08af" x="401.871512" y="157.552113" style="fill: #ff0000; fill-opacity: 0.5"/>
     <use xlink:href="#mf0d46a08af" x="405.602403" y="157.804005" style="fill: #ff0000; fill-opacity: 0.5"/>
     <use xlink:href="#mf0d46a08af" x="409.333293" y="157.963457" style="fill: #ff0000; fill-opacity: 0.5"/>
     <use xlink:href="#mf0d46a08af" x="413.064184" y="158.108755" style="fill: #ff0000; fill-opacity: 0.5"/>
     <use xlink:href="#mf0d46a08af" x="416.795074" y="158.229696" style="fill: #ff0000; fill-opacity: 0.5"/>
     <use xlink:href="#mf0d46a08af" x="420.525965" y="158.305967" style="fill: #ff0000; fill-opacity: 0.5"/>
     <use xlink:href="#mf0d46a08af" x="424.256855" y="158.338947" style="fill: #ff0000; fill-opacity: 0.5"/>
     <use xlink:href="#mf0d46a08af" x="427.987746" y="158.381578" style="fill: #ff0000; fill-opacity: 0.5"/>
     <use xlink:href="#mf0d46a08af" x="431.718636" y="158.372254" style="fill: #ff0000; fill-opacity: 0.5"/>
    </g>
   </g>
   <g id="line2d_15">
    <path d="M 47.81 290.994545 
L 450 290.994545 
" clip-path="url(#pd33a346549)" style="fill: none; stroke-dasharray: 0.555,0.24; stroke-dashoffset: 0; stroke: #ff0000; stroke-width: 0.15"/>
   </g>
   <g id="line2d_16">
    <path d="M 47.81 164.54 
L 450 164.54 
" clip-path="url(#pd33a346549)" style="fill: none; stroke-dasharray: 0.555,0.24; stroke-dashoffset: 0; stroke: #ff0000; stroke-width: 0.15"/>
   </g>
   <g id="line2d_17">
    <path d="M 47.81 38.085455 
L 450 38.085455 
" clip-path="url(#pd33a346549)" style="fill: none; stroke-dasharray: 0.555,0.24; stroke-dashoffset: 0; stroke: #ff0000; stroke-width: 0.15"/>
   </g>
   <g id="patch_3">
    <path d="M 47.81 303.64 
L 47.81 25.44 
" style="fill: none; stroke: #000000; stroke-width: 0.8; stroke-linejoin: miter; stroke-linecap: square"/>
   </g>
   <g id="patch_4">
    <path d="M 450 303.64 
L 450 25.44 
" style="fill: none; stroke: #000000; stroke-width: 0.8; stroke-linejoin: miter; stroke-linecap: square"/>
   </g>
   <g id="patch_5">
    <path d="M 47.81 303.64 
L 450 303.64 
" style="fill: none; stroke: #000000; stroke-width: 0.8; stroke-linejoin: miter; stroke-linecap: square"/>
   </g>
   <g id="patch_6">
    <path d="M 47.81 25.44 
L 450 25.44 
" style="fill: none; stroke: #000000; stroke-width: 0.8; stroke-linejoin: miter; stroke-linecap: square"/>
   </g>
   <g id="text_15">
    <!-- Similarity LLM-RND with sw5 - 28173931-29014202 - 50 games -->
    <g transform="translate(58.04125 19.44) scale(0.12 -0.12)">
     <defs>
      <path id="DejaVuSans-20" transform="scale(0.015625)"/>
      <path id="DejaVuSans-4c" d="M 628 4666 
L 1259 4666 
L 1259 531 
L 3531 531 
L 3531 0 
L 628 0 
L 628 4666 
z
" transform="scale(0.015625)"/>
      <path id="DejaVuSans-4d" d="M 628 4666 
L 1569 4666 
L 2759 1491 
L 3956 4666 
L 4897 4666 
L 4897 0 
L 4281 0 
L 4281 4097 
L 3078 897 
L 2444 897 
L 1241 4097 
L 1241 0 
L 628 0 
L 628 4666 
z
" transform="scale(0.015625)"/>
      <path id="DejaVuSans-2d" d="M 313 2009 
L 1997 2009 
L 1997 1497 
L 313 1497 
L 313 2009 
z
" transform="scale(0.015625)"/>
      <path id="DejaVuSans-52" d="M 2841 2188 
Q 3044 2119 3236 1894 
Q 3428 1669 3622 1275 
L 4263 0 
L 3584 0 
L 2988 1197 
Q 2756 1666 2539 1819 
Q 2322 1972 1947 1972 
L 1259 1972 
L 1259 0 
L 628 0 
L 628 4666 
L 2053 4666 
Q 2853 4666 3247 4331 
Q 3641 3997 3641 3322 
Q 3641 2881 3436 2590 
Q 3231 2300 2841 2188 
z
M 1259 4147 
L 1259 2491 
L 2053 2491 
Q 2509 2491 2742 2702 
Q 2975 2913 2975 3322 
Q 2975 3731 2742 3939 
Q 2509 4147 2053 4147 
L 1259 4147 
z
" transform="scale(0.015625)"/>
      <path id="DejaVuSans-4e" d="M 628 4666 
L 1478 4666 
L 3547 763 
L 3547 4666 
L 4159 4666 
L 4159 0 
L 3309 0 
L 1241 3903 
L 1241 0 
L 628 0 
L 628 4666 
z
" transform="scale(0.015625)"/>
      <path id="DejaVuSans-44" d="M 1259 4147 
L 1259 519 
L 2022 519 
Q 2988 519 3436 956 
Q 3884 1394 3884 2338 
Q 3884 3275 3436 3711 
Q 2988 4147 2022 4147 
L 1259 4147 
z
M 628 4666 
L 1925 4666 
Q 3281 4666 3915 4102 
Q 4550 3538 4550 2338 
Q 4550 1131 3912 565 
Q 3275 0 1925 0 
L 628 0 
L 628 4666 
z
" transform="scale(0.015625)"/>
      <path id="DejaVuSans-77" d="M 269 3500 
L 844 3500 
L 1563 769 
L 2278 3500 
L 2956 3500 
L 3675 769 
L 4391 3500 
L 4966 3500 
L 4050 0 
L 3372 0 
L 2619 2869 
L 1863 0 
L 1184 0 
L 269 3500 
z
" transform="scale(0.015625)"/>
      <path id="DejaVuSans-68" d="M 3513 2113 
L 3513 0 
L 2938 0 
L 2938 2094 
Q 2938 2591 2744 2837 
Q 2550 3084 2163 3084 
Q 1697 3084 1428 2787 
Q 1159 2491 1159 1978 
L 1159 0 
L 581 0 
L 581 4863 
L 1159 4863 
L 1159 2956 
Q 1366 3272 1645 3428 
Q 1925 3584 2291 3584 
Q 2894 3584 3203 3211 
Q 3513 2838 3513 2113 
z
" transform="scale(0.015625)"/>
      <path id="DejaVuSans-73" d="M 2834 3397 
L 2834 2853 
Q 2591 2978 2328 3040 
Q 2066 3103 1784 3103 
Q 1356 3103 1142 2972 
Q 928 2841 928 2578 
Q 928 2378 1081 2264 
Q 1234 2150 1697 2047 
L 1894 2003 
Q 2506 1872 2764 1633 
Q 3022 1394 3022 966 
Q 3022 478 2636 193 
Q 2250 -91 1575 -91 
Q 1294 -91 989 -36 
Q 684 19 347 128 
L 347 722 
Q 666 556 975 473 
Q 1284 391 1588 391 
Q 1994 391 2212 530 
Q 2431 669 2431 922 
Q 2431 1156 2273 1281 
Q 2116 1406 1581 1522 
L 1381 1569 
Q 847 1681 609 1914 
Q 372 2147 372 2553 
Q 372 3047 722 3315 
Q 1072 3584 1716 3584 
Q 2034 3584 2315 3537 
Q 2597 3491 2834 3397 
z
" transform="scale(0.015625)"/>
      <path id="DejaVuSans-35" d="M 691 4666 
L 3169 4666 
L 3169 4134 
L 1269 4134 
L 1269 2991 
Q 1406 3038 1543 3061 
Q 1681 3084 1819 3084 
Q 2600 3084 3056 2656 
Q 3513 2228 3513 1497 
Q 3513 744 3044 326 
Q 2575 -91 1722 -91 
Q 1428 -91 1123 -41 
Q 819 9 494 109 
L 494 744 
Q 775 591 1075 516 
Q 1375 441 1709 441 
Q 2250 441 2565 725 
Q 2881 1009 2881 1497 
Q 2881 1984 2565 2268 
Q 2250 2553 1709 2553 
Q 1456 2553 1204 2497 
Q 953 2441 691 2322 
L 691 4666 
z
" transform="scale(0.015625)"/>
      <path id="DejaVuSans-37" d="M 525 4666 
L 3525 4666 
L 3525 4397 
L 1831 0 
L 1172 0 
L 2766 4134 
L 525 4134 
L 525 4666 
z
" transform="scale(0.015625)"/>
      <path id="DejaVuSans-33" d="M 2597 2516 
Q 3050 2419 3304 2112 
Q 3559 1806 3559 1356 
Q 3559 666 3084 287 
Q 2609 -91 1734 -91 
Q 1441 -91 1130 -33 
Q 819 25 488 141 
L 488 750 
Q 750 597 1062 519 
Q 1375 441 1716 441 
Q 2309 441 2620 675 
Q 2931 909 2931 1356 
Q 2931 1769 2642 2001 
Q 2353 2234 1838 2234 
L 1294 2234 
L 1294 2753 
L 1863 2753 
Q 2328 2753 2575 2939 
Q 2822 3125 2822 3475 
Q 2822 3834 2567 4026 
Q 2313 4219 1838 4219 
Q 1578 4219 1281 4162 
Q 984 4106 628 3988 
L 628 4550 
Q 988 4650 1302 4700 
Q 1616 4750 1894 4750 
Q 2613 4750 3031 4423 
Q 3450 4097 3450 3541 
Q 3450 3153 3228 2886 
Q 3006 2619 2597 2516 
z
" transform="scale(0.015625)"/>
      <path id="DejaVuSans-39" d="M 703 97 
L 703 672 
Q 941 559 1184 500 
Q 1428 441 1663 441 
Q 2288 441 2617 861 
Q 2947 1281 2994 2138 
Q 2813 1869 2534 1725 
Q 2256 1581 1919 1581 
Q 1219 1581 811 2004 
Q 403 2428 403 3163 
Q 403 3881 828 4315 
Q 1253 4750 1959 4750 
Q 2769 4750 3195 4129 
Q 3622 3509 3622 2328 
Q 3622 1225 3098 567 
Q 2575 -91 1691 -91 
Q 1453 -91 1209 -44 
Q 966 3 703 97 
z
M 1959 2075 
Q 2384 2075 2632 2365 
Q 2881 2656 2881 3163 
Q 2881 3666 2632 3958 
Q 2384 4250 1959 4250 
Q 1534 4250 1286 3958 
Q 1038 3666 1038 3163 
Q 1038 2656 1286 2365 
Q 1534 2075 1959 2075 
z
" transform="scale(0.015625)"/>
      <path id="DejaVuSans-67" d="M 2906 1791 
Q 2906 2416 2648 2759 
Q 2391 3103 1925 3103 
Q 1463 3103 1205 2759 
Q 947 2416 947 1791 
Q 947 1169 1205 825 
Q 1463 481 1925 481 
Q 2391 481 2648 825 
Q 2906 1169 2906 1791 
z
M 3481 434 
Q 3481 -459 3084 -895 
Q 2688 -1331 1869 -1331 
Q 1566 -1331 1297 -1286 
Q 1028 -1241 775 -1147 
L 775 -588 
Q 1028 -725 1275 -790 
Q 1522 -856 1778 -856 
Q 2344 -856 2625 -561 
Q 2906 -266 2906 331 
L 2906 616 
Q 2728 306 2450 153 
Q 2172 0 1784 0 
Q 1141 0 747 490 
Q 353 981 353 1791 
Q 353 2603 747 3093 
Q 1141 3584 1784 3584 
Q 2172 3584 2450 3431 
Q 2728 3278 2906 2969 
L 2906 3500 
L 3481 3500 
L 3481 434 
z
" transform="scale(0.015625)"/>
     </defs>
     <use xlink:href="#DejaVuSans-53"/>
     <use xlink:href="#DejaVuSans-69" x="63.476562"/>
     <use xlink:href="#DejaVuSans-6d" x="91.259766"/>
     <use xlink:href="#DejaVuSans-69" x="188.671875"/>
     <use xlink:href="#DejaVuSans-6c" x="216.455078"/>
     <use xlink:href="#DejaVuSans-61" x="244.238281"/>
     <use xlink:href="#DejaVuSans-72" x="305.517578"/>
     <use xlink:href="#DejaVuSans-69" x="346.630859"/>
     <use xlink:href="#DejaVuSans-74" x="374.414062"/>
     <use xlink:href="#DejaVuSans-79" x="413.623047"/>
     <use xlink:href="#DejaVuSans-20" x="472.802734"/>
     <use xlink:href="#DejaVuSans-4c" x="504.589844"/>
     <use xlink:href="#DejaVuSans-4c" x="560.302734"/>
     <use xlink:href="#DejaVuSans-4d" x="616.015625"/>
     <use xlink:href="#DejaVuSans-2d" x="702.294922"/>
     <use xlink:href="#DejaVuSans-52" x="738.378906"/>
     <use xlink:href="#DejaVuSans-4e" x="807.861328"/>
     <use xlink:href="#DejaVuSans-44" x="882.666016"/>
     <use xlink:href="#DejaVuSans-20" x="959.667969"/>
     <use xlink:href="#DejaVuSans-77" x="991.455078"/>
     <use xlink:href="#DejaVuSans-69" x="1073.242188"/>
     <use xlink:href="#DejaVuSans-74" x="1101.025391"/>
     <use xlink:href="#DejaVuSans-68" x="1140.234375"/>
     <use xlink:href="#DejaVuSans-20" x="1203.613281"/>
     <use xlink:href="#DejaVuSans-73" x="1235.400391"/>
     <use xlink:href="#DejaVuSans-77" x="1287.5"/>
     <use xlink:href="#DejaVuSans-35" x="1369.287109"/>
     <use xlink:href="#DejaVuSans-20" x="1432.910156"/>
     <use xlink:href="#DejaVuSans-2d" x="1464.697266"/>
     <use xlink:href="#DejaVuSans-20" x="1500.78125"/>
     <use xlink:href="#DejaVuSans-32" x="1532.568359"/>
     <use xlink:href="#DejaVuSans-38" x="1596.191406"/>
     <use xlink:href="#DejaVuSans-31" x="1659.814453"/>
     <use xlink:href="#DejaVuSans-37" x="1723.4375"/>
     <use xlink:href="#DejaVuSans-33" x="1787.060547"/>
     <use xlink:href="#DejaVuSans-39" x="1850.683594"/>
     <use xlink:href="#DejaVuSans-33" x="1914.306641"/>
     <use xlink:href="#DejaVuSans-31" x="1977.929688"/>
     <use xlink:href="#DejaVuSans-2d" x="2041.552734"/>
     <use xlink:href="#DejaVuSans-32" x="2077.636719"/>
     <use xlink:href="#DejaVuSans-39" x="2141.259766"/>
     <use xlink:href="#DejaVuSans-30" x="2204.882812"/>
     <use xlink:href="#DejaVuSans-31" x="2268.505859"/>
     <use xlink:href="#DejaVuSans-34" x="2332.128906"/>
     <use xlink:href="#DejaVuSans-32" x="2395.751953"/>
     <use xlink:href="#DejaVuSans-30" x="2459.375"/>
     <use xlink:href="#DejaVuSans-32" x="2522.998047"/>
     <use xlink:href="#DejaVuSans-20" x="2586.621094"/>
     <use xlink:href="#DejaVuSans-2d" x="2618.408203"/>
     <use xlink:href="#DejaVuSans-20" x="2654.492188"/>
     <use xlink:href="#DejaVuSans-35" x="2686.279297"/>
     <use xlink:href="#DejaVuSans-30" x="2749.902344"/>
     <use xlink:href="#DejaVuSans-20" x="2813.525391"/>
     <use xlink:href="#DejaVuSans-67" x="2845.3125"/>
     <use xlink:href="#DejaVuSans-61" x="2908.789062"/>
     <use xlink:href="#DejaVuSans-6d" x="2970.068359"/>
     <use xlink:href="#DejaVuSans-65" x="3067.480469"/>
     <use xlink:href="#DejaVuSans-73" x="3129.003906"/>
    </g>
   </g>
   <g id="legend_1">
    <g id="patch_7">
     <path d="M 333.953125 62.79625 
L 443 62.79625 
Q 445 62.79625 445 60.79625 
L 445 32.44 
Q 445 30.44 443 30.44 
L 333.953125 30.44 
Q 331.953125 30.44 331.953125 32.44 
L 331.953125 60.79625 
Q 331.953125 62.79625 333.953125 62.79625 
z
" style="fill: #ffffff; opacity: 0.8; stroke: #cccccc; stroke-linejoin: miter"/>
    </g>
    <g id="line2d_18">
     <path d="M 335.953125 38.538437 
L 345.953125 38.538437 
L 355.953125 38.538437 
" style="fill: none; stroke: #0000ff; stroke-linecap: square"/>
     <g>
      <use xlink:href="#mde76a3fa0f" x="345.953125" y="38.538437" style="fill: #0000ff"/>
     </g>
    </g>
    <g id="text_16">
     <!-- LLM-RND -->
     <g transform="translate(363.953125 42.038437) scale(0.1 -0.1)">
      <use xlink:href="#DejaVuSans-4c"/>
      <use xlink:href="#DejaVuSans-4c" x="55.712891"/>
      <use xlink:href="#DejaVuSans-4d" x="111.425781"/>
      <use xlink:href="#DejaVuSans-2d" x="197.705078"/>
      <use xlink:href="#DejaVuSans-52" x="233.789062"/>
      <use xlink:href="#DejaVuSans-4e" x="303.271484"/>
      <use xlink:href="#DejaVuSans-44" x="378.076172"/>
     </g>
    </g>
    <g id="line2d_19">
     <path d="M 335.953125 53.216562 
L 345.953125 53.216562 
L 355.953125 53.216562 
" style="fill: none; stroke: #ff0000; stroke-opacity: 0.5; stroke-width: 0.5; stroke-linecap: square"/>
     <g>
      <use xlink:href="#mf0d46a08af" x="345.953125" y="53.216562" style="fill: #ff0000; fill-opacity: 0.5"/>
     </g>
    </g>
    <g id="text_17">
     <!-- LLM-RND mean -->
     <g transform="translate(363.953125 56.716562) scale(0.1 -0.1)">
      <use xlink:href="#DejaVuSans-4c"/>
      <use xlink:href="#DejaVuSans-4c" x="55.712891"/>
      <use xlink:href="#DejaVuSans-4d" x="111.425781"/>
      <use xlink:href="#DejaVuSans-2d" x="197.705078"/>
      <use xlink:href="#DejaVuSans-52" x="233.789062"/>
      <use xlink:href="#DejaVuSans-4e" x="303.271484"/>
      <use xlink:href="#DejaVuSans-44" x="378.076172"/>
      <use xlink:href="#DejaVuSans-20" x="455.078125"/>
      <use xlink:href="#DejaVuSans-6d" x="486.865234"/>
      <use xlink:href="#DejaVuSans-65" x="584.277344"/>
      <use xlink:href="#DejaVuSans-61" x="645.800781"/>
      <use xlink:href="#DejaVuSans-6e" x="707.080078"/>
     </g>
    </g>
   </g>
  </g>
 </g>
 <defs>
  <clipPath id="pd33a346549">
   <rect x="47.81" y="25.44" width="402.19" height="278.2"/>
  </clipPath>
 </defs>
</svg>
