<?xml version="1.0" encoding="utf-8" standalone="no"?>
<!DOCTYPE svg PUBLIC "-//W3C//DTD SVG 1.1//EN"
  "http://www.w3.org/Graphics/SVG/1.1/DTD/svg11.dtd">
<svg xmlns:xlink="http://www.w3.org/1999/xlink" width="460.8pt" height="345.6pt" viewBox="0 0 460.8 345.6" xmlns="http://www.w3.org/2000/svg" version="1.1">
 <metadata>
  <rdf:RDF xmlns:dc="http://purl.org/dc/elements/1.1/" xmlns:cc="http://creativecommons.org/ns#" xmlns:rdf="http://www.w3.org/1999/02/22-rdf-syntax-ns#">
   <cc:Work>
    <dc:type rdf:resource="http://purl.org/dc/dcmitype/StillImage"/>
    <dc:date>2024-04-10T11:23:45.992273</dc:date>
    <dc:format>image/svg+xml</dc:format>
    <dc:creator>
     <cc:Agent>
      <dc:title>Matplotlib v3.8.0, https://matplotlib.org/</dc:title>
     </cc:Agent>
    </dc:creator>
   </cc:Work>
  </rdf:RDF>
 </metadata>
 <defs>
  <style type="text/css">*{stroke-linejoin: round; stroke-linecap: butt}</style>
 </defs>
 <g id="figure_1">
  <g id="patch_1">
   <path d="M 0 345.6 
L 460.8 345.6 
L 460.8 0 
L 0 0 
z
" style="fill: #ffffff"/>
  </g>
  <g id="axes_1">
   <g id="patch_2">
    <path d="M 47.81 303.64 
L 450 303.64 
L 450 25.44 
L 47.81 25.44 
z
" style="fill: #ffffff"/>
   </g>
   <g id="PolyCollection_1">
    <defs>
     <path id="mee6828a025" d="M 66.091364 -256.932727 
L 66.091364 -256.932727 
L 69.822254 -259.027895 
L 73.553145 -257.22454 
L 77.284035 -254.495188 
L 81.014926 -251.935274 
L 84.745816 -249.409277 
L 88.476707 -247.225224 
L 92.207597 -245.235863 
L 95.938488 -243.519688 
L 99.669378 -241.725181 
L 103.400269 -240.066773 
L 107.13116 -238.549881 
L 110.86205 -237.155525 
L 114.592941 -235.878006 
L 118.323831 -234.696347 
L 122.054722 -233.596561 
L 125.785612 -232.572846 
L 129.516503 -231.612453 
L 133.247393 -230.709364 
L 136.978284 -229.855966 
L 140.709174 -229.046488 
L 144.440065 -228.27907 
L 148.170955 -227.540909 
L 151.901846 -226.833775 
L 155.632737 -226.150709 
L 159.363627 -225.49504 
L 163.094518 -224.863518 
L 166.825408 -224.257104 
L 170.556299 -223.674535 
L 174.287189 -223.115738 
L 178.01808 -222.576691 
L 181.74897 -222.058198 
L 185.479861 -221.559388 
L 189.210751 -221.077966 
L 192.941642 -220.607336 
L 196.672532 -220.150351 
L 200.403423 -219.707055 
L 204.134314 -219.274798 
L 207.865204 -218.852284 
L 211.596095 -218.44098 
L 215.326985 -218.038721 
L 219.057876 -217.646427 
L 222.788766 -217.265055 
L 226.519657 -216.892375 
L 230.250547 -216.528115 
L 233.981438 -216.172177 
L 237.712328 -215.824864 
L 241.443219 -215.485232 
L 245.174109 -215.154318 
L 248.905 -214.836352 
L 252.635891 -214.52497 
L 256.366781 -214.223489 
L 260.097672 -213.929848 
L 263.828562 -213.640515 
L 267.559453 -213.356581 
L 271.290343 -213.084618 
L 275.021234 -212.817264 
L 278.752124 -212.558606 
L 282.483015 -212.303311 
L 286.213905 -212.059517 
L 289.944796 -211.819938 
L 293.675686 -211.586877 
L 297.406577 -211.357634 
L 301.137468 -211.130588 
L 304.868358 -210.910101 
L 308.599249 -210.694521 
L 312.330139 -210.483686 
L 316.06103 -210.276661 
L 319.79192 -210.077318 
L 323.522811 -209.878264 
L 327.253701 -209.687381 
L 330.984592 -209.49726 
L 334.715482 -209.306112 
L 338.446373 -209.121395 
L 342.177263 -208.935783 
L 345.908154 -208.752527 
L 349.639045 -208.570591 
L 353.369935 -208.391869 
L 357.100826 -208.21896 
L 360.831716 -208.049167 
L 364.562607 -207.882407 
L 368.293497 -207.715856 
L 372.024388 -207.552651 
L 375.755278 -207.38719 
L 379.486169 -207.22248 
L 383.217059 -207.061315 
L 386.94795 -206.902245 
L 390.67884 -206.745502 
L 394.409731 -206.593198 
L 398.140622 -206.441354 
L 401.871512 -206.29051 
L 405.602403 -206.142056 
L 409.333293 -205.996 
L 413.064184 -205.850827 
L 416.795074 -205.706881 
L 420.525965 -205.563614 
L 424.256855 -205.423085 
L 427.987746 -205.284859 
L 431.718636 -205.150013 
L 431.718636 -177.882002 
L 431.718636 -177.882002 
L 427.987746 -177.957508 
L 424.256855 -178.049307 
L 420.525965 -178.149796 
L 416.795074 -178.271412 
L 413.064184 -178.375828 
L 409.333293 -178.474759 
L 405.602403 -178.565178 
L 401.871512 -178.661666 
L 398.140622 -178.764512 
L 394.409731 -178.858688 
L 390.67884 -178.941089 
L 386.94795 -179.044966 
L 383.217059 -179.152577 
L 379.486169 -179.260868 
L 375.755278 -179.38974 
L 372.024388 -179.499841 
L 368.293497 -179.575378 
L 364.562607 -179.657135 
L 360.831716 -179.726297 
L 357.100826 -179.798397 
L 353.369935 -179.873584 
L 349.639045 -179.968722 
L 345.908154 -180.067854 
L 342.177263 -180.157291 
L 338.446373 -180.243703 
L 334.715482 -180.309929 
L 330.984592 -180.393226 
L 327.253701 -180.455945 
L 323.522811 -180.508124 
L 319.79192 -180.580737 
L 316.06103 -180.639175 
L 312.330139 -180.71539 
L 308.599249 -180.791868 
L 304.868358 -180.872443 
L 301.137468 -180.957364 
L 297.406577 -181.054868 
L 293.675686 -181.141449 
L 289.944796 -181.224812 
L 286.213905 -181.317161 
L 282.483015 -181.406463 
L 278.752124 -181.531659 
L 275.021234 -181.645962 
L 271.290343 -181.78083 
L 267.559453 -181.909486 
L 263.828562 -182.085087 
L 260.097672 -182.255789 
L 256.366781 -182.411268 
L 252.635891 -182.576518 
L 248.905 -182.76839 
L 245.174109 -182.956001 
L 241.443219 -183.213718 
L 237.712328 -183.506756 
L 233.981438 -183.800217 
L 230.250547 -184.126755 
L 226.519657 -184.475993 
L 222.788766 -184.80156 
L 219.057876 -185.109179 
L 215.326985 -185.468514 
L 211.596095 -185.862904 
L 207.865204 -186.31199 
L 204.134314 -186.74034 
L 200.403423 -187.221023 
L 196.672532 -187.716591 
L 192.941642 -188.167108 
L 189.210751 -188.604855 
L 185.479861 -188.933585 
L 181.74897 -189.275838 
L 178.01808 -189.651434 
L 174.287189 -190.064722 
L 170.556299 -190.475926 
L 166.825408 -190.941781 
L 163.094518 -191.44484 
L 159.363627 -192.032839 
L 155.632737 -192.706358 
L 151.901846 -193.375699 
L 148.170955 -194.186224 
L 144.440065 -194.997895 
L 140.709174 -195.894591 
L 136.978284 -196.684625 
L 133.247393 -197.411488 
L 129.516503 -198.134093 
L 125.785612 -198.903651 
L 122.054722 -199.648433 
L 118.323831 -200.634769 
L 114.592941 -201.599392 
L 110.86205 -202.505609 
L 107.13116 -203.746954 
L 103.400269 -205.227075 
L 99.669378 -206.919836 
L 95.938488 -209.119018 
L 92.207597 -212.816469 
L 88.476707 -216.041208 
L 84.745816 -219.635067 
L 81.014926 -223.319393 
L 77.284035 -228.810419 
L 73.553145 -235.284147 
L 69.822254 -244.721196 
L 66.091364 -256.932727 
z
" style="stroke: #ff0000; stroke-opacity: 0.2"/>
    </defs>
    <g clip-path="url(#p463b0e4509)">
     <use xlink:href="#mee6828a025" x="0" y="345.6" style="fill: #ff0000; fill-opacity: 0.2; stroke: #ff0000; stroke-opacity: 0.2"/>
    </g>
   </g>
   <g id="matplotlib.axis_1">
    <g id="xtick_1">
     <g id="line2d_1">
      <defs>
       <path id="md9ba24d312" d="M 0 0 
L 0 3.5 
" style="stroke: #000000; stroke-width: 0.8"/>
      </defs>
      <g>
       <use xlink:href="#md9ba24d312" x="66.091364" y="303.64" style="stroke: #000000; stroke-width: 0.8"/>
      </g>
     </g>
     <g id="text_1">
      <!-- 0 -->
      <g transform="translate(62.910114 318.238437) scale(0.1 -0.1)">
       <defs>
        <path id="DejaVuSans-30" d="M 2034 4250 
Q 1547 4250 1301 3770 
Q 1056 3291 1056 2328 
Q 1056 1369 1301 889 
Q 1547 409 2034 409 
Q 2525 409 2770 889 
Q 3016 1369 3016 2328 
Q 3016 3291 2770 3770 
Q 2525 4250 2034 4250 
z
M 2034 4750 
Q 2819 4750 3233 4129 
Q 3647 3509 3647 2328 
Q 3647 1150 3233 529 
Q 2819 -91 2034 -91 
Q 1250 -91 836 529 
Q 422 1150 422 2328 
Q 422 3509 836 4129 
Q 1250 4750 2034 4750 
z
" transform="scale(0.015625)"/>
       </defs>
       <use xlink:href="#DejaVuSans-30"/>
      </g>
     </g>
    </g>
    <g id="xtick_2">
     <g id="line2d_2">
      <g>
       <use xlink:href="#md9ba24d312" x="140.709174" y="303.64" style="stroke: #000000; stroke-width: 0.8"/>
      </g>
     </g>
     <g id="text_2">
      <!-- 20 -->
      <g transform="translate(134.346674 318.238437) scale(0.1 -0.1)">
       <defs>
        <path id="DejaVuSans-32" d="M 1228 531 
L 3431 531 
L 3431 0 
L 469 0 
L 469 531 
Q 828 903 1448 1529 
Q 2069 2156 2228 2338 
Q 2531 2678 2651 2914 
Q 2772 3150 2772 3378 
Q 2772 3750 2511 3984 
Q 2250 4219 1831 4219 
Q 1534 4219 1204 4116 
Q 875 4013 500 3803 
L 500 4441 
Q 881 4594 1212 4672 
Q 1544 4750 1819 4750 
Q 2544 4750 2975 4387 
Q 3406 4025 3406 3419 
Q 3406 3131 3298 2873 
Q 3191 2616 2906 2266 
Q 2828 2175 2409 1742 
Q 1991 1309 1228 531 
z
" transform="scale(0.015625)"/>
       </defs>
       <use xlink:href="#DejaVuSans-32"/>
       <use xlink:href="#DejaVuSans-30" x="63.623047"/>
      </g>
     </g>
    </g>
    <g id="xtick_3">
     <g id="line2d_3">
      <g>
       <use xlink:href="#md9ba24d312" x="215.326985" y="303.64" style="stroke: #000000; stroke-width: 0.8"/>
      </g>
     </g>
     <g id="text_3">
      <!-- 40 -->
      <g transform="translate(208.964485 318.238437) scale(0.1 -0.1)">
       <defs>
        <path id="DejaVuSans-34" d="M 2419 4116 
L 825 1625 
L 2419 1625 
L 2419 4116 
z
M 2253 4666 
L 3047 4666 
L 3047 1625 
L 3713 1625 
L 3713 1100 
L 3047 1100 
L 3047 0 
L 2419 0 
L 2419 1100 
L 313 1100 
L 313 1709 
L 2253 4666 
z
" transform="scale(0.015625)"/>
       </defs>
       <use xlink:href="#DejaVuSans-34"/>
       <use xlink:href="#DejaVuSans-30" x="63.623047"/>
      </g>
     </g>
    </g>
    <g id="xtick_4">
     <g id="line2d_4">
      <g>
       <use xlink:href="#md9ba24d312" x="289.944796" y="303.64" style="stroke: #000000; stroke-width: 0.8"/>
      </g>
     </g>
     <g id="text_4">
      <!-- 60 -->
      <g transform="translate(283.582296 318.238437) scale(0.1 -0.1)">
       <defs>
        <path id="DejaVuSans-36" d="M 2113 2584 
Q 1688 2584 1439 2293 
Q 1191 2003 1191 1497 
Q 1191 994 1439 701 
Q 1688 409 2113 409 
Q 2538 409 2786 701 
Q 3034 994 3034 1497 
Q 3034 2003 2786 2293 
Q 2538 2584 2113 2584 
z
M 3366 4563 
L 3366 3988 
Q 3128 4100 2886 4159 
Q 2644 4219 2406 4219 
Q 1781 4219 1451 3797 
Q 1122 3375 1075 2522 
Q 1259 2794 1537 2939 
Q 1816 3084 2150 3084 
Q 2853 3084 3261 2657 
Q 3669 2231 3669 1497 
Q 3669 778 3244 343 
Q 2819 -91 2113 -91 
Q 1303 -91 875 529 
Q 447 1150 447 2328 
Q 447 3434 972 4092 
Q 1497 4750 2381 4750 
Q 2619 4750 2861 4703 
Q 3103 4656 3366 4563 
z
" transform="scale(0.015625)"/>
       </defs>
       <use xlink:href="#DejaVuSans-36"/>
       <use xlink:href="#DejaVuSans-30" x="63.623047"/>
      </g>
     </g>
    </g>
    <g id="xtick_5">
     <g id="line2d_5">
      <g>
       <use xlink:href="#md9ba24d312" x="364.562607" y="303.64" style="stroke: #000000; stroke-width: 0.8"/>
      </g>
     </g>
     <g id="text_5">
      <!-- 80 -->
      <g transform="translate(358.200107 318.238437) scale(0.1 -0.1)">
       <defs>
        <path id="DejaVuSans-38" d="M 2034 2216 
Q 1584 2216 1326 1975 
Q 1069 1734 1069 1313 
Q 1069 891 1326 650 
Q 1584 409 2034 409 
Q 2484 409 2743 651 
Q 3003 894 3003 1313 
Q 3003 1734 2745 1975 
Q 2488 2216 2034 2216 
z
M 1403 2484 
Q 997 2584 770 2862 
Q 544 3141 544 3541 
Q 544 4100 942 4425 
Q 1341 4750 2034 4750 
Q 2731 4750 3128 4425 
Q 3525 4100 3525 3541 
Q 3525 3141 3298 2862 
Q 3072 2584 2669 2484 
Q 3125 2378 3379 2068 
Q 3634 1759 3634 1313 
Q 3634 634 3220 271 
Q 2806 -91 2034 -91 
Q 1263 -91 848 271 
Q 434 634 434 1313 
Q 434 1759 690 2068 
Q 947 2378 1403 2484 
z
M 1172 3481 
Q 1172 3119 1398 2916 
Q 1625 2713 2034 2713 
Q 2441 2713 2670 2916 
Q 2900 3119 2900 3481 
Q 2900 3844 2670 4047 
Q 2441 4250 2034 4250 
Q 1625 4250 1398 4047 
Q 1172 3844 1172 3481 
z
" transform="scale(0.015625)"/>
       </defs>
       <use xlink:href="#DejaVuSans-38"/>
       <use xlink:href="#DejaVuSans-30" x="63.623047"/>
      </g>
     </g>
    </g>
    <g id="xtick_6">
     <g id="line2d_6">
      <g>
       <use xlink:href="#md9ba24d312" x="439.180417" y="303.64" style="stroke: #000000; stroke-width: 0.8"/>
      </g>
     </g>
     <g id="text_6">
      <!-- 100 -->
      <g transform="translate(429.636667 318.238437) scale(0.1 -0.1)">
       <defs>
        <path id="DejaVuSans-31" d="M 794 531 
L 1825 531 
L 1825 4091 
L 703 3866 
L 703 4441 
L 1819 4666 
L 2450 4666 
L 2450 531 
L 3481 531 
L 3481 0 
L 794 0 
L 794 531 
z
" transform="scale(0.015625)"/>
       </defs>
       <use xlink:href="#DejaVuSans-31"/>
       <use xlink:href="#DejaVuSans-30" x="63.623047"/>
       <use xlink:href="#DejaVuSans-30" x="127.246094"/>
      </g>
     </g>
    </g>
    <g id="text_7">
     <!-- Iteration -->
     <g transform="translate(227.696406 331.916562) scale(0.1 -0.1)">
      <defs>
       <path id="DejaVuSans-49" d="M 628 4666 
L 1259 4666 
L 1259 0 
L 628 0 
L 628 4666 
z
" transform="scale(0.015625)"/>
       <path id="DejaVuSans-74" d="M 1172 4494 
L 1172 3500 
L 2356 3500 
L 2356 3053 
L 1172 3053 
L 1172 1153 
Q 1172 725 1289 603 
Q 1406 481 1766 481 
L 2356 481 
L 2356 0 
L 1766 0 
Q 1100 0 847 248 
Q 594 497 594 1153 
L 594 3053 
L 172 3053 
L 172 3500 
L 594 3500 
L 594 4494 
L 1172 4494 
z
" transform="scale(0.015625)"/>
       <path id="DejaVuSans-65" d="M 3597 1894 
L 3597 1613 
L 953 1613 
Q 991 1019 1311 708 
Q 1631 397 2203 397 
Q 2534 397 2845 478 
Q 3156 559 3463 722 
L 3463 178 
Q 3153 47 2828 -22 
Q 2503 -91 2169 -91 
Q 1331 -91 842 396 
Q 353 884 353 1716 
Q 353 2575 817 3079 
Q 1281 3584 2069 3584 
Q 2775 3584 3186 3129 
Q 3597 2675 3597 1894 
z
M 3022 2063 
Q 3016 2534 2758 2815 
Q 2500 3097 2075 3097 
Q 1594 3097 1305 2825 
Q 1016 2553 972 2059 
L 3022 2063 
z
" transform="scale(0.015625)"/>
       <path id="DejaVuSans-72" d="M 2631 2963 
Q 2534 3019 2420 3045 
Q 2306 3072 2169 3072 
Q 1681 3072 1420 2755 
Q 1159 2438 1159 1844 
L 1159 0 
L 581 0 
L 581 3500 
L 1159 3500 
L 1159 2956 
Q 1341 3275 1631 3429 
Q 1922 3584 2338 3584 
Q 2397 3584 2469 3576 
Q 2541 3569 2628 3553 
L 2631 2963 
z
" transform="scale(0.015625)"/>
       <path id="DejaVuSans-61" d="M 2194 1759 
Q 1497 1759 1228 1600 
Q 959 1441 959 1056 
Q 959 750 1161 570 
Q 1363 391 1709 391 
Q 2188 391 2477 730 
Q 2766 1069 2766 1631 
L 2766 1759 
L 2194 1759 
z
M 3341 1997 
L 3341 0 
L 2766 0 
L 2766 531 
Q 2569 213 2275 61 
Q 1981 -91 1556 -91 
Q 1019 -91 701 211 
Q 384 513 384 1019 
Q 384 1609 779 1909 
Q 1175 2209 1959 2209 
L 2766 2209 
L 2766 2266 
Q 2766 2663 2505 2880 
Q 2244 3097 1772 3097 
Q 1472 3097 1187 3025 
Q 903 2953 641 2809 
L 641 3341 
Q 956 3463 1253 3523 
Q 1550 3584 1831 3584 
Q 2591 3584 2966 3190 
Q 3341 2797 3341 1997 
z
" transform="scale(0.015625)"/>
       <path id="DejaVuSans-69" d="M 603 3500 
L 1178 3500 
L 1178 0 
L 603 0 
L 603 3500 
z
M 603 4863 
L 1178 4863 
L 1178 4134 
L 603 4134 
L 603 4863 
z
" transform="scale(0.015625)"/>
       <path id="DejaVuSans-6f" d="M 1959 3097 
Q 1497 3097 1228 2736 
Q 959 2375 959 1747 
Q 959 1119 1226 758 
Q 1494 397 1959 397 
Q 2419 397 2687 759 
Q 2956 1122 2956 1747 
Q 2956 2369 2687 2733 
Q 2419 3097 1959 3097 
z
M 1959 3584 
Q 2709 3584 3137 3096 
Q 3566 2609 3566 1747 
Q 3566 888 3137 398 
Q 2709 -91 1959 -91 
Q 1206 -91 779 398 
Q 353 888 353 1747 
Q 353 2609 779 3096 
Q 1206 3584 1959 3584 
z
" transform="scale(0.015625)"/>
       <path id="DejaVuSans-6e" d="M 3513 2113 
L 3513 0 
L 2938 0 
L 2938 2094 
Q 2938 2591 2744 2837 
Q 2550 3084 2163 3084 
Q 1697 3084 1428 2787 
Q 1159 2491 1159 1978 
L 1159 0 
L 581 0 
L 581 3500 
L 1159 3500 
L 1159 2956 
Q 1366 3272 1645 3428 
Q 1925 3584 2291 3584 
Q 2894 3584 3203 3211 
Q 3513 2838 3513 2113 
z
" transform="scale(0.015625)"/>
      </defs>
      <use xlink:href="#DejaVuSans-49"/>
      <use xlink:href="#DejaVuSans-74" x="29.492188"/>
      <use xlink:href="#DejaVuSans-65" x="68.701172"/>
      <use xlink:href="#DejaVuSans-72" x="130.224609"/>
      <use xlink:href="#DejaVuSans-61" x="171.337891"/>
      <use xlink:href="#DejaVuSans-74" x="232.617188"/>
      <use xlink:href="#DejaVuSans-69" x="271.826172"/>
      <use xlink:href="#DejaVuSans-6f" x="299.609375"/>
      <use xlink:href="#DejaVuSans-6e" x="360.791016"/>
     </g>
    </g>
   </g>
   <g id="matplotlib.axis_2">
    <g id="ytick_1">
     <g id="line2d_7">
      <defs>
       <path id="mb541e18428" d="M 0 0 
L -3.5 0 
" style="stroke: #000000; stroke-width: 0.8"/>
      </defs>
      <g>
       <use xlink:href="#mb541e18428" x="47.81" y="290.994545" style="stroke: #000000; stroke-width: 0.8"/>
      </g>
     </g>
     <g id="text_8">
      <!-- 0.0 -->
      <g transform="translate(24.906875 294.793764) scale(0.1 -0.1)">
       <defs>
        <path id="DejaVuSans-2e" d="M 684 794 
L 1344 794 
L 1344 0 
L 684 0 
L 684 794 
z
" transform="scale(0.015625)"/>
       </defs>
       <use xlink:href="#DejaVuSans-30"/>
       <use xlink:href="#DejaVuSans-2e" x="63.623047"/>
       <use xlink:href="#DejaVuSans-30" x="95.410156"/>
      </g>
     </g>
    </g>
    <g id="ytick_2">
     <g id="line2d_8">
      <g>
       <use xlink:href="#mb541e18428" x="47.81" y="240.412727" style="stroke: #000000; stroke-width: 0.8"/>
      </g>
     </g>
     <g id="text_9">
      <!-- 0.2 -->
      <g transform="translate(24.906875 244.211946) scale(0.1 -0.1)">
       <use xlink:href="#DejaVuSans-30"/>
       <use xlink:href="#DejaVuSans-2e" x="63.623047"/>
       <use xlink:href="#DejaVuSans-32" x="95.410156"/>
      </g>
     </g>
    </g>
    <g id="ytick_3">
     <g id="line2d_9">
      <g>
       <use xlink:href="#mb541e18428" x="47.81" y="189.830909" style="stroke: #000000; stroke-width: 0.8"/>
      </g>
     </g>
     <g id="text_10">
      <!-- 0.4 -->
      <g transform="translate(24.906875 193.630128) scale(0.1 -0.1)">
       <use xlink:href="#DejaVuSans-30"/>
       <use xlink:href="#DejaVuSans-2e" x="63.623047"/>
       <use xlink:href="#DejaVuSans-34" x="95.410156"/>
      </g>
     </g>
    </g>
    <g id="ytick_4">
     <g id="line2d_10">
      <g>
       <use xlink:href="#mb541e18428" x="47.81" y="139.249091" style="stroke: #000000; stroke-width: 0.8"/>
      </g>
     </g>
     <g id="text_11">
      <!-- 0.6 -->
      <g transform="translate(24.906875 143.04831) scale(0.1 -0.1)">
       <use xlink:href="#DejaVuSans-30"/>
       <use xlink:href="#DejaVuSans-2e" x="63.623047"/>
       <use xlink:href="#DejaVuSans-36" x="95.410156"/>
      </g>
     </g>
    </g>
    <g id="ytick_5">
     <g id="line2d_11">
      <g>
       <use xlink:href="#mb541e18428" x="47.81" y="88.667273" style="stroke: #000000; stroke-width: 0.8"/>
      </g>
     </g>
     <g id="text_12">
      <!-- 0.8 -->
      <g transform="translate(24.906875 92.466491) scale(0.1 -0.1)">
       <use xlink:href="#DejaVuSans-30"/>
       <use xlink:href="#DejaVuSans-2e" x="63.623047"/>
       <use xlink:href="#DejaVuSans-38" x="95.410156"/>
      </g>
     </g>
    </g>
    <g id="ytick_6">
     <g id="line2d_12">
      <g>
       <use xlink:href="#mb541e18428" x="47.81" y="38.085455" style="stroke: #000000; stroke-width: 0.8"/>
      </g>
     </g>
     <g id="text_13">
      <!-- 1.0 -->
      <g transform="translate(24.906875 41.884673) scale(0.1 -0.1)">
       <use xlink:href="#DejaVuSans-31"/>
       <use xlink:href="#DejaVuSans-2e" x="63.623047"/>
       <use xlink:href="#DejaVuSans-30" x="95.410156"/>
      </g>
     </g>
    </g>
    <g id="text_14">
     <!-- Similarity -->
     <g transform="translate(18.827187 188.179844) rotate(-90) scale(0.1 -0.1)">
      <defs>
       <path id="DejaVuSans-53" d="M 3425 4513 
L 3425 3897 
Q 3066 4069 2747 4153 
Q 2428 4238 2131 4238 
Q 1616 4238 1336 4038 
Q 1056 3838 1056 3469 
Q 1056 3159 1242 3001 
Q 1428 2844 1947 2747 
L 2328 2669 
Q 3034 2534 3370 2195 
Q 3706 1856 3706 1288 
Q 3706 609 3251 259 
Q 2797 -91 1919 -91 
Q 1588 -91 1214 -16 
Q 841 59 441 206 
L 441 856 
Q 825 641 1194 531 
Q 1563 422 1919 422 
Q 2459 422 2753 634 
Q 3047 847 3047 1241 
Q 3047 1584 2836 1778 
Q 2625 1972 2144 2069 
L 1759 2144 
Q 1053 2284 737 2584 
Q 422 2884 422 3419 
Q 422 4038 858 4394 
Q 1294 4750 2059 4750 
Q 2388 4750 2728 4690 
Q 3069 4631 3425 4513 
z
" transform="scale(0.015625)"/>
       <path id="DejaVuSans-6d" d="M 3328 2828 
Q 3544 3216 3844 3400 
Q 4144 3584 4550 3584 
Q 5097 3584 5394 3201 
Q 5691 2819 5691 2113 
L 5691 0 
L 5113 0 
L 5113 2094 
Q 5113 2597 4934 2840 
Q 4756 3084 4391 3084 
Q 3944 3084 3684 2787 
Q 3425 2491 3425 1978 
L 3425 0 
L 2847 0 
L 2847 2094 
Q 2847 2600 2669 2842 
Q 2491 3084 2119 3084 
Q 1678 3084 1418 2786 
Q 1159 2488 1159 1978 
L 1159 0 
L 581 0 
L 581 3500 
L 1159 3500 
L 1159 2956 
Q 1356 3278 1631 3431 
Q 1906 3584 2284 3584 
Q 2666 3584 2933 3390 
Q 3200 3197 3328 2828 
z
" transform="scale(0.015625)"/>
       <path id="DejaVuSans-6c" d="M 603 4863 
L 1178 4863 
L 1178 0 
L 603 0 
L 603 4863 
z
" transform="scale(0.015625)"/>
       <path id="DejaVuSans-79" d="M 2059 -325 
Q 1816 -950 1584 -1140 
Q 1353 -1331 966 -1331 
L 506 -1331 
L 506 -850 
L 844 -850 
Q 1081 -850 1212 -737 
Q 1344 -625 1503 -206 
L 1606 56 
L 191 3500 
L 800 3500 
L 1894 763 
L 2988 3500 
L 3597 3500 
L 2059 -325 
z
" transform="scale(0.015625)"/>
      </defs>
      <use xlink:href="#DejaVuSans-53"/>
      <use xlink:href="#DejaVuSans-69" x="63.476562"/>
      <use xlink:href="#DejaVuSans-6d" x="91.259766"/>
      <use xlink:href="#DejaVuSans-69" x="188.671875"/>
      <use xlink:href="#DejaVuSans-6c" x="216.455078"/>
      <use xlink:href="#DejaVuSans-61" x="244.238281"/>
      <use xlink:href="#DejaVuSans-72" x="305.517578"/>
      <use xlink:href="#DejaVuSans-69" x="346.630859"/>
      <use xlink:href="#DejaVuSans-74" x="374.414062"/>
      <use xlink:href="#DejaVuSans-79" x="413.623047"/>
     </g>
    </g>
   </g>
   <g id="line2d_13">
    <path d="M 66.091364 88.667273 
L 69.822254 98.783636 
L 73.553145 110.586061 
L 77.284035 117.751818 
L 81.014926 124.074545 
L 84.745816 126.603636 
L 88.476707 131.300519 
L 92.207597 134.823182 
L 95.938488 140.935152 
L 99.669378 139.249091 
L 103.400269 139.708926 
L 107.13116 140.935152 
L 110.86205 141.583636 
L 114.592941 141.055584 
L 118.323831 142.958424 
L 122.054722 144.623409 
L 125.785612 144.009733 
L 129.516503 145.431313 
L 133.247393 146.170813 
L 136.978284 147.342182 
L 140.709174 149.124589 
L 144.440065 151.434711 
L 148.170955 151.784585 
L 151.901846 152.948333 
L 155.632737 152.400364 
L 159.363627 153.450909 
L 163.094518 153.299596 
L 166.825408 152.978442 
L 170.556299 153.202696 
L 174.287189 153.074788 
L 178.01808 153.770968 
L 181.74897 153.791364 
L 185.479861 153.810523 
L 189.210751 154.126096 
L 192.941642 156.655187 
L 196.672532 157.547807 
L 200.403423 159.035508 
L 204.134314 159.481818 
L 207.865204 159.184278 
L 211.596095 160.225668 
L 215.326985 159.779358 
L 219.057876 159.630588 
L 222.788766 159.035508 
L 226.519657 159.928128 
L 230.250547 160.969519 
L 233.981438 160.969519 
L 237.712328 160.671979 
L 241.443219 161.118289 
L 245.174109 160.671979 
L 248.905 159.184278 
L 252.635891 159.630588 
L 256.366781 159.184278 
L 260.097672 159.184278 
L 263.828562 159.928128 
L 267.559453 160.374439 
L 271.290343 159.184278 
L 275.021234 159.630588 
L 278.752124 159.184278 
L 282.483015 159.779358 
L 286.213905 158.737968 
L 289.944796 159.035508 
L 293.675686 158.886738 
L 297.406577 159.184278 
L 301.137468 159.779358 
L 304.868358 159.481818 
L 308.599249 159.481818 
L 312.330139 159.481818 
L 316.06103 159.630588 
L 319.79192 159.035508 
L 323.522811 159.779358 
L 327.253701 159.035508 
L 330.984592 159.630588 
L 334.715482 160.671979 
L 338.446373 160.076898 
L 342.177263 161.118289 
L 345.908154 161.415829 
L 349.639045 162.010909 
L 353.369935 162.010909 
L 357.100826 161.267059 
L 360.831716 161.267059 
L 364.562607 161.267059 
L 368.293497 162.010909 
L 372.024388 161.862139 
L 375.755278 163.64738 
L 379.486169 164.68877 
L 383.217059 163.94492 
L 386.94795 164.09369 
L 390.67884 164.09369 
L 394.409731 163.20107 
L 398.140622 163.94492 
L 401.871512 164.54 
L 405.602403 164.39123 
L 409.333293 164.24246 
L 413.064184 164.83754 
L 416.795074 165.28385 
L 420.525965 166.325241 
L 424.256855 165.43262 
L 427.987746 165.13508 
L 431.718636 164.39123 
" clip-path="url(#p463b0e4509)" style="fill: none; stroke: #0000ff; stroke-linecap: square"/>
    <defs>
     <path id="mea744fcb67" d="M -0.49999 0.49999 
L 0.50001 0.49999 
L 0.50001 -0.50001 
L -0.49999 -0.50001 
z
"/>
    </defs>
    <g clip-path="url(#p463b0e4509)">
     <use xlink:href="#mea744fcb67" x="66.091364" y="88.667273" style="fill: #0000ff"/>
     <use xlink:href="#mea744fcb67" x="69.822254" y="98.783636" style="fill: #0000ff"/>
     <use xlink:href="#mea744fcb67" x="73.553145" y="110.586061" style="fill: #0000ff"/>
     <use xlink:href="#mea744fcb67" x="77.284035" y="117.751818" style="fill: #0000ff"/>
     <use xlink:href="#mea744fcb67" x="81.014926" y="124.074545" style="fill: #0000ff"/>
     <use xlink:href="#mea744fcb67" x="84.745816" y="126.603636" style="fill: #0000ff"/>
     <use xlink:href="#mea744fcb67" x="88.476707" y="131.300519" style="fill: #0000ff"/>
     <use xlink:href="#mea744fcb67" x="92.207597" y="134.823182" style="fill: #0000ff"/>
     <use xlink:href="#mea744fcb67" x="95.938488" y="140.935152" style="fill: #0000ff"/>
     <use xlink:href="#mea744fcb67" x="99.669378" y="139.249091" style="fill: #0000ff"/>
     <use xlink:href="#mea744fcb67" x="103.400269" y="139.708926" style="fill: #0000ff"/>
     <use xlink:href="#mea744fcb67" x="107.13116" y="140.935152" style="fill: #0000ff"/>
     <use xlink:href="#mea744fcb67" x="110.86205" y="141.583636" style="fill: #0000ff"/>
     <use xlink:href="#mea744fcb67" x="114.592941" y="141.055584" style="fill: #0000ff"/>
     <use xlink:href="#mea744fcb67" x="118.323831" y="142.958424" style="fill: #0000ff"/>
     <use xlink:href="#mea744fcb67" x="122.054722" y="144.623409" style="fill: #0000ff"/>
     <use xlink:href="#mea744fcb67" x="125.785612" y="144.009733" style="fill: #0000ff"/>
     <use xlink:href="#mea744fcb67" x="129.516503" y="145.431313" style="fill: #0000ff"/>
     <use xlink:href="#mea744fcb67" x="133.247393" y="146.170813" style="fill: #0000ff"/>
     <use xlink:href="#mea744fcb67" x="136.978284" y="147.342182" style="fill: #0000ff"/>
     <use xlink:href="#mea744fcb67" x="140.709174" y="149.124589" style="fill: #0000ff"/>
     <use xlink:href="#mea744fcb67" x="144.440065" y="151.434711" style="fill: #0000ff"/>
     <use xlink:href="#mea744fcb67" x="148.170955" y="151.784585" style="fill: #0000ff"/>
     <use xlink:href="#mea744fcb67" x="151.901846" y="152.948333" style="fill: #0000ff"/>
     <use xlink:href="#mea744fcb67" x="155.632737" y="152.400364" style="fill: #0000ff"/>
     <use xlink:href="#mea744fcb67" x="159.363627" y="153.450909" style="fill: #0000ff"/>
     <use xlink:href="#mea744fcb67" x="163.094518" y="153.299596" style="fill: #0000ff"/>
     <use xlink:href="#mea744fcb67" x="166.825408" y="152.978442" style="fill: #0000ff"/>
     <use xlink:href="#mea744fcb67" x="170.556299" y="153.202696" style="fill: #0000ff"/>
     <use xlink:href="#mea744fcb67" x="174.287189" y="153.074788" style="fill: #0000ff"/>
     <use xlink:href="#mea744fcb67" x="178.01808" y="153.770968" style="fill: #0000ff"/>
     <use xlink:href="#mea744fcb67" x="181.74897" y="153.791364" style="fill: #0000ff"/>
     <use xlink:href="#mea744fcb67" x="185.479861" y="153.810523" style="fill: #0000ff"/>
     <use xlink:href="#mea744fcb67" x="189.210751" y="154.126096" style="fill: #0000ff"/>
     <use xlink:href="#mea744fcb67" x="192.941642" y="156.655187" style="fill: #0000ff"/>
     <use xlink:href="#mea744fcb67" x="196.672532" y="157.547807" style="fill: #0000ff"/>
     <use xlink:href="#mea744fcb67" x="200.403423" y="159.035508" style="fill: #0000ff"/>
     <use xlink:href="#mea744fcb67" x="204.134314" y="159.481818" style="fill: #0000ff"/>
     <use xlink:href="#mea744fcb67" x="207.865204" y="159.184278" style="fill: #0000ff"/>
     <use xlink:href="#mea744fcb67" x="211.596095" y="160.225668" style="fill: #0000ff"/>
     <use xlink:href="#mea744fcb67" x="215.326985" y="159.779358" style="fill: #0000ff"/>
     <use xlink:href="#mea744fcb67" x="219.057876" y="159.630588" style="fill: #0000ff"/>
     <use xlink:href="#mea744fcb67" x="222.788766" y="159.035508" style="fill: #0000ff"/>
     <use xlink:href="#mea744fcb67" x="226.519657" y="159.928128" style="fill: #0000ff"/>
     <use xlink:href="#mea744fcb67" x="230.250547" y="160.969519" style="fill: #0000ff"/>
     <use xlink:href="#mea744fcb67" x="233.981438" y="160.969519" style="fill: #0000ff"/>
     <use xlink:href="#mea744fcb67" x="237.712328" y="160.671979" style="fill: #0000ff"/>
     <use xlink:href="#mea744fcb67" x="241.443219" y="161.118289" style="fill: #0000ff"/>
     <use xlink:href="#mea744fcb67" x="245.174109" y="160.671979" style="fill: #0000ff"/>
     <use xlink:href="#mea744fcb67" x="248.905" y="159.184278" style="fill: #0000ff"/>
     <use xlink:href="#mea744fcb67" x="252.635891" y="159.630588" style="fill: #0000ff"/>
     <use xlink:href="#mea744fcb67" x="256.366781" y="159.184278" style="fill: #0000ff"/>
     <use xlink:href="#mea744fcb67" x="260.097672" y="159.184278" style="fill: #0000ff"/>
     <use xlink:href="#mea744fcb67" x="263.828562" y="159.928128" style="fill: #0000ff"/>
     <use xlink:href="#mea744fcb67" x="267.559453" y="160.374439" style="fill: #0000ff"/>
     <use xlink:href="#mea744fcb67" x="271.290343" y="159.184278" style="fill: #0000ff"/>
     <use xlink:href="#mea744fcb67" x="275.021234" y="159.630588" style="fill: #0000ff"/>
     <use xlink:href="#mea744fcb67" x="278.752124" y="159.184278" style="fill: #0000ff"/>
     <use xlink:href="#mea744fcb67" x="282.483015" y="159.779358" style="fill: #0000ff"/>
     <use xlink:href="#mea744fcb67" x="286.213905" y="158.737968" style="fill: #0000ff"/>
     <use xlink:href="#mea744fcb67" x="289.944796" y="159.035508" style="fill: #0000ff"/>
     <use xlink:href="#mea744fcb67" x="293.675686" y="158.886738" style="fill: #0000ff"/>
     <use xlink:href="#mea744fcb67" x="297.406577" y="159.184278" style="fill: #0000ff"/>
     <use xlink:href="#mea744fcb67" x="301.137468" y="159.779358" style="fill: #0000ff"/>
     <use xlink:href="#mea744fcb67" x="304.868358" y="159.481818" style="fill: #0000ff"/>
     <use xlink:href="#mea744fcb67" x="308.599249" y="159.481818" style="fill: #0000ff"/>
     <use xlink:href="#mea744fcb67" x="312.330139" y="159.481818" style="fill: #0000ff"/>
     <use xlink:href="#mea744fcb67" x="316.06103" y="159.630588" style="fill: #0000ff"/>
     <use xlink:href="#mea744fcb67" x="319.79192" y="159.035508" style="fill: #0000ff"/>
     <use xlink:href="#mea744fcb67" x="323.522811" y="159.779358" style="fill: #0000ff"/>
     <use xlink:href="#mea744fcb67" x="327.253701" y="159.035508" style="fill: #0000ff"/>
     <use xlink:href="#mea744fcb67" x="330.984592" y="159.630588" style="fill: #0000ff"/>
     <use xlink:href="#mea744fcb67" x="334.715482" y="160.671979" style="fill: #0000ff"/>
     <use xlink:href="#mea744fcb67" x="338.446373" y="160.076898" style="fill: #0000ff"/>
     <use xlink:href="#mea744fcb67" x="342.177263" y="161.118289" style="fill: #0000ff"/>
     <use xlink:href="#mea744fcb67" x="345.908154" y="161.415829" style="fill: #0000ff"/>
     <use xlink:href="#mea744fcb67" x="349.639045" y="162.010909" style="fill: #0000ff"/>
     <use xlink:href="#mea744fcb67" x="353.369935" y="162.010909" style="fill: #0000ff"/>
     <use xlink:href="#mea744fcb67" x="357.100826" y="161.267059" style="fill: #0000ff"/>
     <use xlink:href="#mea744fcb67" x="360.831716" y="161.267059" style="fill: #0000ff"/>
     <use xlink:href="#mea744fcb67" x="364.562607" y="161.267059" style="fill: #0000ff"/>
     <use xlink:href="#mea744fcb67" x="368.293497" y="162.010909" style="fill: #0000ff"/>
     <use xlink:href="#mea744fcb67" x="372.024388" y="161.862139" style="fill: #0000ff"/>
     <use xlink:href="#mea744fcb67" x="375.755278" y="163.64738" style="fill: #0000ff"/>
     <use xlink:href="#mea744fcb67" x="379.486169" y="164.68877" style="fill: #0000ff"/>
     <use xlink:href="#mea744fcb67" x="383.217059" y="163.94492" style="fill: #0000ff"/>
     <use xlink:href="#mea744fcb67" x="386.94795" y="164.09369" style="fill: #0000ff"/>
     <use xlink:href="#mea744fcb67" x="390.67884" y="164.09369" style="fill: #0000ff"/>
     <use xlink:href="#mea744fcb67" x="394.409731" y="163.20107" style="fill: #0000ff"/>
     <use xlink:href="#mea744fcb67" x="398.140622" y="163.94492" style="fill: #0000ff"/>
     <use xlink:href="#mea744fcb67" x="401.871512" y="164.54" style="fill: #0000ff"/>
     <use xlink:href="#mea744fcb67" x="405.602403" y="164.39123" style="fill: #0000ff"/>
     <use xlink:href="#mea744fcb67" x="409.333293" y="164.24246" style="fill: #0000ff"/>
     <use xlink:href="#mea744fcb67" x="413.064184" y="164.83754" style="fill: #0000ff"/>
     <use xlink:href="#mea744fcb67" x="416.795074" y="165.28385" style="fill: #0000ff"/>
     <use xlink:href="#mea744fcb67" x="420.525965" y="166.325241" style="fill: #0000ff"/>
     <use xlink:href="#mea744fcb67" x="424.256855" y="165.43262" style="fill: #0000ff"/>
     <use xlink:href="#mea744fcb67" x="427.987746" y="165.13508" style="fill: #0000ff"/>
     <use xlink:href="#mea744fcb67" x="431.718636" y="164.39123" style="fill: #0000ff"/>
    </g>
   </g>
   <g id="line2d_14">
    <path d="M 66.091364 88.667273 
L 69.822254 93.725455 
L 73.553145 99.345657 
L 77.284035 103.947197 
L 81.014926 107.972667 
L 84.745816 111.077828 
L 88.476707 113.966784 
L 92.207597 116.573834 
L 95.938488 119.280647 
L 99.669378 121.277491 
L 103.400269 122.953076 
L 107.13116 124.451583 
L 110.86205 125.769433 
L 114.592941 126.861301 
L 118.323831 127.934442 
L 122.054722 128.977503 
L 125.785612 129.861752 
L 129.516503 130.726727 
L 133.247393 131.539574 
L 136.978284 132.329704 
L 140.709174 133.129461 
L 144.440065 133.961518 
L 148.170955 134.736433 
L 151.901846 135.495263 
L 155.632737 136.171467 
L 159.363627 136.836061 
L 163.094518 137.445821 
L 166.825408 138.000558 
L 170.556299 138.524769 
L 174.287189 139.00977 
L 178.01808 139.485938 
L 181.74897 139.932982 
L 185.479861 140.353514 
L 189.210751 140.75859 
L 192.941642 141.212778 
L 196.672532 141.666529 
L 200.403423 142.135961 
L 204.134314 142.592431 
L 207.865204 143.017863 
L 211.596095 143.448058 
L 215.326985 143.846382 
L 219.057876 144.222197 
L 222.788766 144.566692 
L 226.519657 144.915816 
L 230.250547 145.272565 
L 233.981438 145.613803 
L 237.712328 145.93419 
L 241.443219 146.250525 
L 245.174109 146.54484 
L 248.905 146.797629 
L 252.635891 147.049256 
L 256.366781 147.282622 
L 260.097672 147.507181 
L 263.828562 147.737199 
L 267.559453 147.966967 
L 271.290343 148.167276 
L 275.021234 148.368387 
L 278.752124 148.554868 
L 282.483015 148.745113 
L 286.213905 148.911661 
L 289.944796 149.077625 
L 293.675686 149.235837 
L 297.406577 149.393749 
L 301.137468 149.556024 
L 304.868358 149.708728 
L 308.599249 149.856805 
L 312.330139 150.000462 
L 316.06103 150.142082 
L 319.79192 150.270972 
L 323.522811 150.406806 
L 327.253701 150.528337 
L 330.984592 150.654757 
L 334.715482 150.79198 
L 338.446373 150.917451 
L 342.177263 151.053463 
L 345.908154 151.18981 
L 349.639045 151.330343 
L 353.369935 151.467274 
L 357.100826 151.591322 
L 360.831716 151.712268 
L 364.562607 151.830229 
L 368.293497 151.954383 
L 372.024388 152.073754 
L 375.755278 152.211535 
L 379.486169 152.358326 
L 383.217059 152.493054 
L 386.94795 152.626395 
L 390.67884 152.756705 
L 394.409731 152.874057 
L 398.140622 152.997067 
L 401.871512 153.123912 
L 405.602403 153.246383 
L 409.333293 153.36462 
L 413.064184 153.486673 
L 416.795074 153.610854 
L 420.525965 153.743295 
L 424.256855 153.863804 
L 427.987746 153.978817 
L 431.718636 154.083992 
" clip-path="url(#p463b0e4509)" style="fill: none; stroke: #ff0000; stroke-opacity: 0.5; stroke-width: 0.5; stroke-linecap: square"/>
    <defs>
     <path id="m4a103c5960" d="M -0.49999 0.49999 
L 0.50001 0.49999 
L 0.50001 -0.50001 
L -0.49999 -0.50001 
z
"/>
    </defs>
    <g clip-path="url(#p463b0e4509)">
     <use xlink:href="#m4a103c5960" x="66.091364" y="88.667273" style="fill: #ff0000; fill-opacity: 0.5"/>
     <use xlink:href="#m4a103c5960" x="69.822254" y="93.725455" style="fill: #ff0000; fill-opacity: 0.5"/>
     <use xlink:href="#m4a103c5960" x="73.553145" y="99.345657" style="fill: #ff0000; fill-opacity: 0.5"/>
     <use xlink:href="#m4a103c5960" x="77.284035" y="103.947197" style="fill: #ff0000; fill-opacity: 0.5"/>
     <use xlink:href="#m4a103c5960" x="81.014926" y="107.972667" style="fill: #ff0000; fill-opacity: 0.5"/>
     <use xlink:href="#m4a103c5960" x="84.745816" y="111.077828" style="fill: #ff0000; fill-opacity: 0.5"/>
     <use xlink:href="#m4a103c5960" x="88.476707" y="113.966784" style="fill: #ff0000; fill-opacity: 0.5"/>
     <use xlink:href="#m4a103c5960" x="92.207597" y="116.573834" style="fill: #ff0000; fill-opacity: 0.5"/>
     <use xlink:href="#m4a103c5960" x="95.938488" y="119.280647" style="fill: #ff0000; fill-opacity: 0.5"/>
     <use xlink:href="#m4a103c5960" x="99.669378" y="121.277491" style="fill: #ff0000; fill-opacity: 0.5"/>
     <use xlink:href="#m4a103c5960" x="103.400269" y="122.953076" style="fill: #ff0000; fill-opacity: 0.5"/>
     <use xlink:href="#m4a103c5960" x="107.13116" y="124.451583" style="fill: #ff0000; fill-opacity: 0.5"/>
     <use xlink:href="#m4a103c5960" x="110.86205" y="125.769433" style="fill: #ff0000; fill-opacity: 0.5"/>
     <use xlink:href="#m4a103c5960" x="114.592941" y="126.861301" style="fill: #ff0000; fill-opacity: 0.5"/>
     <use xlink:href="#m4a103c5960" x="118.323831" y="127.934442" style="fill: #ff0000; fill-opacity: 0.5"/>
     <use xlink:href="#m4a103c5960" x="122.054722" y="128.977503" style="fill: #ff0000; fill-opacity: 0.5"/>
     <use xlink:href="#m4a103c5960" x="125.785612" y="129.861752" style="fill: #ff0000; fill-opacity: 0.5"/>
     <use xlink:href="#m4a103c5960" x="129.516503" y="130.726727" style="fill: #ff0000; fill-opacity: 0.5"/>
     <use xlink:href="#m4a103c5960" x="133.247393" y="131.539574" style="fill: #ff0000; fill-opacity: 0.5"/>
     <use xlink:href="#m4a103c5960" x="136.978284" y="132.329704" style="fill: #ff0000; fill-opacity: 0.5"/>
     <use xlink:href="#m4a103c5960" x="140.709174" y="133.129461" style="fill: #ff0000; fill-opacity: 0.5"/>
     <use xlink:href="#m4a103c5960" x="144.440065" y="133.961518" style="fill: #ff0000; fill-opacity: 0.5"/>
     <use xlink:href="#m4a103c5960" x="148.170955" y="134.736433" style="fill: #ff0000; fill-opacity: 0.5"/>
     <use xlink:href="#m4a103c5960" x="151.901846" y="135.495263" style="fill: #ff0000; fill-opacity: 0.5"/>
     <use xlink:href="#m4a103c5960" x="155.632737" y="136.171467" style="fill: #ff0000; fill-opacity: 0.5"/>
     <use xlink:href="#m4a103c5960" x="159.363627" y="136.836061" style="fill: #ff0000; fill-opacity: 0.5"/>
     <use xlink:href="#m4a103c5960" x="163.094518" y="137.445821" style="fill: #ff0000; fill-opacity: 0.5"/>
     <use xlink:href="#m4a103c5960" x="166.825408" y="138.000558" style="fill: #ff0000; fill-opacity: 0.5"/>
     <use xlink:href="#m4a103c5960" x="170.556299" y="138.524769" style="fill: #ff0000; fill-opacity: 0.5"/>
     <use xlink:href="#m4a103c5960" x="174.287189" y="139.00977" style="fill: #ff0000; fill-opacity: 0.5"/>
     <use xlink:href="#m4a103c5960" x="178.01808" y="139.485938" style="fill: #ff0000; fill-opacity: 0.5"/>
     <use xlink:href="#m4a103c5960" x="181.74897" y="139.932982" style="fill: #ff0000; fill-opacity: 0.5"/>
     <use xlink:href="#m4a103c5960" x="185.479861" y="140.353514" style="fill: #ff0000; fill-opacity: 0.5"/>
     <use xlink:href="#m4a103c5960" x="189.210751" y="140.75859" style="fill: #ff0000; fill-opacity: 0.5"/>
     <use xlink:href="#m4a103c5960" x="192.941642" y="141.212778" style="fill: #ff0000; fill-opacity: 0.5"/>
     <use xlink:href="#m4a103c5960" x="196.672532" y="141.666529" style="fill: #ff0000; fill-opacity: 0.5"/>
     <use xlink:href="#m4a103c5960" x="200.403423" y="142.135961" style="fill: #ff0000; fill-opacity: 0.5"/>
     <use xlink:href="#m4a103c5960" x="204.134314" y="142.592431" style="fill: #ff0000; fill-opacity: 0.5"/>
     <use xlink:href="#m4a103c5960" x="207.865204" y="143.017863" style="fill: #ff0000; fill-opacity: 0.5"/>
     <use xlink:href="#m4a103c5960" x="211.596095" y="143.448058" style="fill: #ff0000; fill-opacity: 0.5"/>
     <use xlink:href="#m4a103c5960" x="215.326985" y="143.846382" style="fill: #ff0000; fill-opacity: 0.5"/>
     <use xlink:href="#m4a103c5960" x="219.057876" y="144.222197" style="fill: #ff0000; fill-opacity: 0.5"/>
     <use xlink:href="#m4a103c5960" x="222.788766" y="144.566692" style="fill: #ff0000; fill-opacity: 0.5"/>
     <use xlink:href="#m4a103c5960" x="226.519657" y="144.915816" style="fill: #ff0000; fill-opacity: 0.5"/>
     <use xlink:href="#m4a103c5960" x="230.250547" y="145.272565" style="fill: #ff0000; fill-opacity: 0.5"/>
     <use xlink:href="#m4a103c5960" x="233.981438" y="145.613803" style="fill: #ff0000; fill-opacity: 0.5"/>
     <use xlink:href="#m4a103c5960" x="237.712328" y="145.93419" style="fill: #ff0000; fill-opacity: 0.5"/>
     <use xlink:href="#m4a103c5960" x="241.443219" y="146.250525" style="fill: #ff0000; fill-opacity: 0.5"/>
     <use xlink:href="#m4a103c5960" x="245.174109" y="146.54484" style="fill: #ff0000; fill-opacity: 0.5"/>
     <use xlink:href="#m4a103c5960" x="248.905" y="146.797629" style="fill: #ff0000; fill-opacity: 0.5"/>
     <use xlink:href="#m4a103c5960" x="252.635891" y="147.049256" style="fill: #ff0000; fill-opacity: 0.5"/>
     <use xlink:href="#m4a103c5960" x="256.366781" y="147.282622" style="fill: #ff0000; fill-opacity: 0.5"/>
     <use xlink:href="#m4a103c5960" x="260.097672" y="147.507181" style="fill: #ff0000; fill-opacity: 0.5"/>
     <use xlink:href="#m4a103c5960" x="263.828562" y="147.737199" style="fill: #ff0000; fill-opacity: 0.5"/>
     <use xlink:href="#m4a103c5960" x="267.559453" y="147.966967" style="fill: #ff0000; fill-opacity: 0.5"/>
     <use xlink:href="#m4a103c5960" x="271.290343" y="148.167276" style="fill: #ff0000; fill-opacity: 0.5"/>
     <use xlink:href="#m4a103c5960" x="275.021234" y="148.368387" style="fill: #ff0000; fill-opacity: 0.5"/>
     <use xlink:href="#m4a103c5960" x="278.752124" y="148.554868" style="fill: #ff0000; fill-opacity: 0.5"/>
     <use xlink:href="#m4a103c5960" x="282.483015" y="148.745113" style="fill: #ff0000; fill-opacity: 0.5"/>
     <use xlink:href="#m4a103c5960" x="286.213905" y="148.911661" style="fill: #ff0000; fill-opacity: 0.5"/>
     <use xlink:href="#m4a103c5960" x="289.944796" y="149.077625" style="fill: #ff0000; fill-opacity: 0.5"/>
     <use xlink:href="#m4a103c5960" x="293.675686" y="149.235837" style="fill: #ff0000; fill-opacity: 0.5"/>
     <use xlink:href="#m4a103c5960" x="297.406577" y="149.393749" style="fill: #ff0000; fill-opacity: 0.5"/>
     <use xlink:href="#m4a103c5960" x="301.137468" y="149.556024" style="fill: #ff0000; fill-opacity: 0.5"/>
     <use xlink:href="#m4a103c5960" x="304.868358" y="149.708728" style="fill: #ff0000; fill-opacity: 0.5"/>
     <use xlink:href="#m4a103c5960" x="308.599249" y="149.856805" style="fill: #ff0000; fill-opacity: 0.5"/>
     <use xlink:href="#m4a103c5960" x="312.330139" y="150.000462" style="fill: #ff0000; fill-opacity: 0.5"/>
     <use xlink:href="#m4a103c5960" x="316.06103" y="150.142082" style="fill: #ff0000; fill-opacity: 0.5"/>
     <use xlink:href="#m4a103c5960" x="319.79192" y="150.270972" style="fill: #ff0000; fill-opacity: 0.5"/>
     <use xlink:href="#m4a103c5960" x="323.522811" y="150.406806" style="fill: #ff0000; fill-opacity: 0.5"/>
     <use xlink:href="#m4a103c5960" x="327.253701" y="150.528337" style="fill: #ff0000; fill-opacity: 0.5"/>
     <use xlink:href="#m4a103c5960" x="330.984592" y="150.654757" style="fill: #ff0000; fill-opacity: 0.5"/>
     <use xlink:href="#m4a103c5960" x="334.715482" y="150.79198" style="fill: #ff0000; fill-opacity: 0.5"/>
     <use xlink:href="#m4a103c5960" x="338.446373" y="150.917451" style="fill: #ff0000; fill-opacity: 0.5"/>
     <use xlink:href="#m4a103c5960" x="342.177263" y="151.053463" style="fill: #ff0000; fill-opacity: 0.5"/>
     <use xlink:href="#m4a103c5960" x="345.908154" y="151.18981" style="fill: #ff0000; fill-opacity: 0.5"/>
     <use xlink:href="#m4a103c5960" x="349.639045" y="151.330343" style="fill: #ff0000; fill-opacity: 0.5"/>
     <use xlink:href="#m4a103c5960" x="353.369935" y="151.467274" style="fill: #ff0000; fill-opacity: 0.5"/>
     <use xlink:href="#m4a103c5960" x="357.100826" y="151.591322" style="fill: #ff0000; fill-opacity: 0.5"/>
     <use xlink:href="#m4a103c5960" x="360.831716" y="151.712268" style="fill: #ff0000; fill-opacity: 0.5"/>
     <use xlink:href="#m4a103c5960" x="364.562607" y="151.830229" style="fill: #ff0000; fill-opacity: 0.5"/>
     <use xlink:href="#m4a103c5960" x="368.293497" y="151.954383" style="fill: #ff0000; fill-opacity: 0.5"/>
     <use xlink:href="#m4a103c5960" x="372.024388" y="152.073754" style="fill: #ff0000; fill-opacity: 0.5"/>
     <use xlink:href="#m4a103c5960" x="375.755278" y="152.211535" style="fill: #ff0000; fill-opacity: 0.5"/>
     <use xlink:href="#m4a103c5960" x="379.486169" y="152.358326" style="fill: #ff0000; fill-opacity: 0.5"/>
     <use xlink:href="#m4a103c5960" x="383.217059" y="152.493054" style="fill: #ff0000; fill-opacity: 0.5"/>
     <use xlink:href="#m4a103c5960" x="386.94795" y="152.626395" style="fill: #ff0000; fill-opacity: 0.5"/>
     <use xlink:href="#m4a103c5960" x="390.67884" y="152.756705" style="fill: #ff0000; fill-opacity: 0.5"/>
     <use xlink:href="#m4a103c5960" x="394.409731" y="152.874057" style="fill: #ff0000; fill-opacity: 0.5"/>
     <use xlink:href="#m4a103c5960" x="398.140622" y="152.997067" style="fill: #ff0000; fill-opacity: 0.5"/>
     <use xlink:href="#m4a103c5960" x="401.871512" y="153.123912" style="fill: #ff0000; fill-opacity: 0.5"/>
     <use xlink:href="#m4a103c5960" x="405.602403" y="153.246383" style="fill: #ff0000; fill-opacity: 0.5"/>
     <use xlink:href="#m4a103c5960" x="409.333293" y="153.36462" style="fill: #ff0000; fill-opacity: 0.5"/>
     <use xlink:href="#m4a103c5960" x="413.064184" y="153.486673" style="fill: #ff0000; fill-opacity: 0.5"/>
     <use xlink:href="#m4a103c5960" x="416.795074" y="153.610854" style="fill: #ff0000; fill-opacity: 0.5"/>
     <use xlink:href="#m4a103c5960" x="420.525965" y="153.743295" style="fill: #ff0000; fill-opacity: 0.5"/>
     <use xlink:href="#m4a103c5960" x="424.256855" y="153.863804" style="fill: #ff0000; fill-opacity: 0.5"/>
     <use xlink:href="#m4a103c5960" x="427.987746" y="153.978817" style="fill: #ff0000; fill-opacity: 0.5"/>
     <use xlink:href="#m4a103c5960" x="431.718636" y="154.083992" style="fill: #ff0000; fill-opacity: 0.5"/>
    </g>
   </g>
   <g id="line2d_15">
    <path d="M 47.81 290.994545 
L 450 290.994545 
" clip-path="url(#p463b0e4509)" style="fill: none; stroke-dasharray: 0.555,0.24; stroke-dashoffset: 0; stroke: #ff0000; stroke-width: 0.15"/>
   </g>
   <g id="line2d_16">
    <path d="M 47.81 164.54 
L 450 164.54 
" clip-path="url(#p463b0e4509)" style="fill: none; stroke-dasharray: 0.555,0.24; stroke-dashoffset: 0; stroke: #ff0000; stroke-width: 0.15"/>
   </g>
   <g id="line2d_17">
    <path d="M 47.81 38.085455 
L 450 38.085455 
" clip-path="url(#p463b0e4509)" style="fill: none; stroke-dasharray: 0.555,0.24; stroke-dashoffset: 0; stroke: #ff0000; stroke-width: 0.15"/>
   </g>
   <g id="patch_3">
    <path d="M 47.81 303.64 
L 47.81 25.44 
" style="fill: none; stroke: #000000; stroke-width: 0.8; stroke-linejoin: miter; stroke-linecap: square"/>
   </g>
   <g id="patch_4">
    <path d="M 450 303.64 
L 450 25.44 
" style="fill: none; stroke: #000000; stroke-width: 0.8; stroke-linejoin: miter; stroke-linecap: square"/>
   </g>
   <g id="patch_5">
    <path d="M 47.81 303.64 
L 450 303.64 
" style="fill: none; stroke: #000000; stroke-width: 0.8; stroke-linejoin: miter; stroke-linecap: square"/>
   </g>
   <g id="patch_6">
    <path d="M 47.81 25.44 
L 450 25.44 
" style="fill: none; stroke: #000000; stroke-width: 0.8; stroke-linejoin: miter; stroke-linecap: square"/>
   </g>
   <g id="text_15">
    <!-- Similarity LLM-RND with sw34-1 - 28173931-29014202 - 50 games -->
    <g transform="translate(48.241563 19.44) scale(0.12 -0.12)">
     <defs>
      <path id="DejaVuSans-20" transform="scale(0.015625)"/>
      <path id="DejaVuSans-4c" d="M 628 4666 
L 1259 4666 
L 1259 531 
L 3531 531 
L 3531 0 
L 628 0 
L 628 4666 
z
" transform="scale(0.015625)"/>
      <path id="DejaVuSans-4d" d="M 628 4666 
L 1569 4666 
L 2759 1491 
L 3956 4666 
L 4897 4666 
L 4897 0 
L 4281 0 
L 4281 4097 
L 3078 897 
L 2444 897 
L 1241 4097 
L 1241 0 
L 628 0 
L 628 4666 
z
" transform="scale(0.015625)"/>
      <path id="DejaVuSans-2d" d="M 313 2009 
L 1997 2009 
L 1997 1497 
L 313 1497 
L 313 2009 
z
" transform="scale(0.015625)"/>
      <path id="DejaVuSans-52" d="M 2841 2188 
Q 3044 2119 3236 1894 
Q 3428 1669 3622 1275 
L 4263 0 
L 3584 0 
L 2988 1197 
Q 2756 1666 2539 1819 
Q 2322 1972 1947 1972 
L 1259 1972 
L 1259 0 
L 628 0 
L 628 4666 
L 2053 4666 
Q 2853 4666 3247 4331 
Q 3641 3997 3641 3322 
Q 3641 2881 3436 2590 
Q 3231 2300 2841 2188 
z
M 1259 4147 
L 1259 2491 
L 2053 2491 
Q 2509 2491 2742 2702 
Q 2975 2913 2975 3322 
Q 2975 3731 2742 3939 
Q 2509 4147 2053 4147 
L 1259 4147 
z
" transform="scale(0.015625)"/>
      <path id="DejaVuSans-4e" d="M 628 4666 
L 1478 4666 
L 3547 763 
L 3547 4666 
L 4159 4666 
L 4159 0 
L 3309 0 
L 1241 3903 
L 1241 0 
L 628 0 
L 628 4666 
z
" transform="scale(0.015625)"/>
      <path id="DejaVuSans-44" d="M 1259 4147 
L 1259 519 
L 2022 519 
Q 2988 519 3436 956 
Q 3884 1394 3884 2338 
Q 3884 3275 3436 3711 
Q 2988 4147 2022 4147 
L 1259 4147 
z
M 628 4666 
L 1925 4666 
Q 3281 4666 3915 4102 
Q 4550 3538 4550 2338 
Q 4550 1131 3912 565 
Q 3275 0 1925 0 
L 628 0 
L 628 4666 
z
" transform="scale(0.015625)"/>
      <path id="DejaVuSans-77" d="M 269 3500 
L 844 3500 
L 1563 769 
L 2278 3500 
L 2956 3500 
L 3675 769 
L 4391 3500 
L 4966 3500 
L 4050 0 
L 3372 0 
L 2619 2869 
L 1863 0 
L 1184 0 
L 269 3500 
z
" transform="scale(0.015625)"/>
      <path id="DejaVuSans-68" d="M 3513 2113 
L 3513 0 
L 2938 0 
L 2938 2094 
Q 2938 2591 2744 2837 
Q 2550 3084 2163 3084 
Q 1697 3084 1428 2787 
Q 1159 2491 1159 1978 
L 1159 0 
L 581 0 
L 581 4863 
L 1159 4863 
L 1159 2956 
Q 1366 3272 1645 3428 
Q 1925 3584 2291 3584 
Q 2894 3584 3203 3211 
Q 3513 2838 3513 2113 
z
" transform="scale(0.015625)"/>
      <path id="DejaVuSans-73" d="M 2834 3397 
L 2834 2853 
Q 2591 2978 2328 3040 
Q 2066 3103 1784 3103 
Q 1356 3103 1142 2972 
Q 928 2841 928 2578 
Q 928 2378 1081 2264 
Q 1234 2150 1697 2047 
L 1894 2003 
Q 2506 1872 2764 1633 
Q 3022 1394 3022 966 
Q 3022 478 2636 193 
Q 2250 -91 1575 -91 
Q 1294 -91 989 -36 
Q 684 19 347 128 
L 347 722 
Q 666 556 975 473 
Q 1284 391 1588 391 
Q 1994 391 2212 530 
Q 2431 669 2431 922 
Q 2431 1156 2273 1281 
Q 2116 1406 1581 1522 
L 1381 1569 
Q 847 1681 609 1914 
Q 372 2147 372 2553 
Q 372 3047 722 3315 
Q 1072 3584 1716 3584 
Q 2034 3584 2315 3537 
Q 2597 3491 2834 3397 
z
" transform="scale(0.015625)"/>
      <path id="DejaVuSans-33" d="M 2597 2516 
Q 3050 2419 3304 2112 
Q 3559 1806 3559 1356 
Q 3559 666 3084 287 
Q 2609 -91 1734 -91 
Q 1441 -91 1130 -33 
Q 819 25 488 141 
L 488 750 
Q 750 597 1062 519 
Q 1375 441 1716 441 
Q 2309 441 2620 675 
Q 2931 909 2931 1356 
Q 2931 1769 2642 2001 
Q 2353 2234 1838 2234 
L 1294 2234 
L 1294 2753 
L 1863 2753 
Q 2328 2753 2575 2939 
Q 2822 3125 2822 3475 
Q 2822 3834 2567 4026 
Q 2313 4219 1838 4219 
Q 1578 4219 1281 4162 
Q 984 4106 628 3988 
L 628 4550 
Q 988 4650 1302 4700 
Q 1616 4750 1894 4750 
Q 2613 4750 3031 4423 
Q 3450 4097 3450 3541 
Q 3450 3153 3228 2886 
Q 3006 2619 2597 2516 
z
" transform="scale(0.015625)"/>
      <path id="DejaVuSans-37" d="M 525 4666 
L 3525 4666 
L 3525 4397 
L 1831 0 
L 1172 0 
L 2766 4134 
L 525 4134 
L 525 4666 
z
" transform="scale(0.015625)"/>
      <path id="DejaVuSans-39" d="M 703 97 
L 703 672 
Q 941 559 1184 500 
Q 1428 441 1663 441 
Q 2288 441 2617 861 
Q 2947 1281 2994 2138 
Q 2813 1869 2534 1725 
Q 2256 1581 1919 1581 
Q 1219 1581 811 2004 
Q 403 2428 403 3163 
Q 403 3881 828 4315 
Q 1253 4750 1959 4750 
Q 2769 4750 3195 4129 
Q 3622 3509 3622 2328 
Q 3622 1225 3098 567 
Q 2575 -91 1691 -91 
Q 1453 -91 1209 -44 
Q 966 3 703 97 
z
M 1959 2075 
Q 2384 2075 2632 2365 
Q 2881 2656 2881 3163 
Q 2881 3666 2632 3958 
Q 2384 4250 1959 4250 
Q 1534 4250 1286 3958 
Q 1038 3666 1038 3163 
Q 1038 2656 1286 2365 
Q 1534 2075 1959 2075 
z
" transform="scale(0.015625)"/>
      <path id="DejaVuSans-35" d="M 691 4666 
L 3169 4666 
L 3169 4134 
L 1269 4134 
L 1269 2991 
Q 1406 3038 1543 3061 
Q 1681 3084 1819 3084 
Q 2600 3084 3056 2656 
Q 3513 2228 3513 1497 
Q 3513 744 3044 326 
Q 2575 -91 1722 -91 
Q 1428 -91 1123 -41 
Q 819 9 494 109 
L 494 744 
Q 775 591 1075 516 
Q 1375 441 1709 441 
Q 2250 441 2565 725 
Q 2881 1009 2881 1497 
Q 2881 1984 2565 2268 
Q 2250 2553 1709 2553 
Q 1456 2553 1204 2497 
Q 953 2441 691 2322 
L 691 4666 
z
" transform="scale(0.015625)"/>
      <path id="DejaVuSans-67" d="M 2906 1791 
Q 2906 2416 2648 2759 
Q 2391 3103 1925 3103 
Q 1463 3103 1205 2759 
Q 947 2416 947 1791 
Q 947 1169 1205 825 
Q 1463 481 1925 481 
Q 2391 481 2648 825 
Q 2906 1169 2906 1791 
z
M 3481 434 
Q 3481 -459 3084 -895 
Q 2688 -1331 1869 -1331 
Q 1566 -1331 1297 -1286 
Q 1028 -1241 775 -1147 
L 775 -588 
Q 1028 -725 1275 -790 
Q 1522 -856 1778 -856 
Q 2344 -856 2625 -561 
Q 2906 -266 2906 331 
L 2906 616 
Q 2728 306 2450 153 
Q 2172 0 1784 0 
Q 1141 0 747 490 
Q 353 981 353 1791 
Q 353 2603 747 3093 
Q 1141 3584 1784 3584 
Q 2172 3584 2450 3431 
Q 2728 3278 2906 2969 
L 2906 3500 
L 3481 3500 
L 3481 434 
z
" transform="scale(0.015625)"/>
     </defs>
     <use xlink:href="#DejaVuSans-53"/>
     <use xlink:href="#DejaVuSans-69" x="63.476562"/>
     <use xlink:href="#DejaVuSans-6d" x="91.259766"/>
     <use xlink:href="#DejaVuSans-69" x="188.671875"/>
     <use xlink:href="#DejaVuSans-6c" x="216.455078"/>
     <use xlink:href="#DejaVuSans-61" x="244.238281"/>
     <use xlink:href="#DejaVuSans-72" x="305.517578"/>
     <use xlink:href="#DejaVuSans-69" x="346.630859"/>
     <use xlink:href="#DejaVuSans-74" x="374.414062"/>
     <use xlink:href="#DejaVuSans-79" x="413.623047"/>
     <use xlink:href="#DejaVuSans-20" x="472.802734"/>
     <use xlink:href="#DejaVuSans-4c" x="504.589844"/>
     <use xlink:href="#DejaVuSans-4c" x="560.302734"/>
     <use xlink:href="#DejaVuSans-4d" x="616.015625"/>
     <use xlink:href="#DejaVuSans-2d" x="702.294922"/>
     <use xlink:href="#DejaVuSans-52" x="738.378906"/>
     <use xlink:href="#DejaVuSans-4e" x="807.861328"/>
     <use xlink:href="#DejaVuSans-44" x="882.666016"/>
     <use xlink:href="#DejaVuSans-20" x="959.667969"/>
     <use xlink:href="#DejaVuSans-77" x="991.455078"/>
     <use xlink:href="#DejaVuSans-69" x="1073.242188"/>
     <use xlink:href="#DejaVuSans-74" x="1101.025391"/>
     <use xlink:href="#DejaVuSans-68" x="1140.234375"/>
     <use xlink:href="#DejaVuSans-20" x="1203.613281"/>
     <use xlink:href="#DejaVuSans-73" x="1235.400391"/>
     <use xlink:href="#DejaVuSans-77" x="1287.5"/>
     <use xlink:href="#DejaVuSans-33" x="1369.287109"/>
     <use xlink:href="#DejaVuSans-34" x="1432.910156"/>
     <use xlink:href="#DejaVuSans-2d" x="1496.533203"/>
     <use xlink:href="#DejaVuSans-31" x="1532.617188"/>
     <use xlink:href="#DejaVuSans-20" x="1596.240234"/>
     <use xlink:href="#DejaVuSans-2d" x="1628.027344"/>
     <use xlink:href="#DejaVuSans-20" x="1664.111328"/>
     <use xlink:href="#DejaVuSans-32" x="1695.898438"/>
     <use xlink:href="#DejaVuSans-38" x="1759.521484"/>
     <use xlink:href="#DejaVuSans-31" x="1823.144531"/>
     <use xlink:href="#DejaVuSans-37" x="1886.767578"/>
     <use xlink:href="#DejaVuSans-33" x="1950.390625"/>
     <use xlink:href="#DejaVuSans-39" x="2014.013672"/>
     <use xlink:href="#DejaVuSans-33" x="2077.636719"/>
     <use xlink:href="#DejaVuSans-31" x="2141.259766"/>
     <use xlink:href="#DejaVuSans-2d" x="2204.882812"/>
     <use xlink:href="#DejaVuSans-32" x="2240.966797"/>
     <use xlink:href="#DejaVuSans-39" x="2304.589844"/>
     <use xlink:href="#DejaVuSans-30" x="2368.212891"/>
     <use xlink:href="#DejaVuSans-31" x="2431.835938"/>
     <use xlink:href="#DejaVuSans-34" x="2495.458984"/>
     <use xlink:href="#DejaVuSans-32" x="2559.082031"/>
     <use xlink:href="#DejaVuSans-30" x="2622.705078"/>
     <use xlink:href="#DejaVuSans-32" x="2686.328125"/>
     <use xlink:href="#DejaVuSans-20" x="2749.951172"/>
     <use xlink:href="#DejaVuSans-2d" x="2781.738281"/>
     <use xlink:href="#DejaVuSans-20" x="2817.822266"/>
     <use xlink:href="#DejaVuSans-35" x="2849.609375"/>
     <use xlink:href="#DejaVuSans-30" x="2913.232422"/>
     <use xlink:href="#DejaVuSans-20" x="2976.855469"/>
     <use xlink:href="#DejaVuSans-67" x="3008.642578"/>
     <use xlink:href="#DejaVuSans-61" x="3072.119141"/>
     <use xlink:href="#DejaVuSans-6d" x="3133.398438"/>
     <use xlink:href="#DejaVuSans-65" x="3230.810547"/>
     <use xlink:href="#DejaVuSans-73" x="3292.333984"/>
    </g>
   </g>
   <g id="legend_1">
    <g id="patch_7">
     <path d="M 333.953125 62.79625 
L 443 62.79625 
Q 445 62.79625 445 60.79625 
L 445 32.44 
Q 445 30.44 443 30.44 
L 333.953125 30.44 
Q 331.953125 30.44 331.953125 32.44 
L 331.953125 60.79625 
Q 331.953125 62.79625 333.953125 62.79625 
z
" style="fill: #ffffff; opacity: 0.8; stroke: #cccccc; stroke-linejoin: miter"/>
    </g>
    <g id="line2d_18">
     <path d="M 335.953125 38.538437 
L 345.953125 38.538437 
L 355.953125 38.538437 
" style="fill: none; stroke: #0000ff; stroke-linecap: square"/>
     <g>
      <use xlink:href="#mea744fcb67" x="345.953125" y="38.538437" style="fill: #0000ff"/>
     </g>
    </g>
    <g id="text_16">
     <!-- LLM-RND -->
     <g transform="translate(363.953125 42.038437) scale(0.1 -0.1)">
      <use xlink:href="#DejaVuSans-4c"/>
      <use xlink:href="#DejaVuSans-4c" x="55.712891"/>
      <use xlink:href="#DejaVuSans-4d" x="111.425781"/>
      <use xlink:href="#DejaVuSans-2d" x="197.705078"/>
      <use xlink:href="#DejaVuSans-52" x="233.789062"/>
      <use xlink:href="#DejaVuSans-4e" x="303.271484"/>
      <use xlink:href="#DejaVuSans-44" x="378.076172"/>
     </g>
    </g>
    <g id="line2d_19">
     <path d="M 335.953125 53.216562 
L 345.953125 53.216562 
L 355.953125 53.216562 
" style="fill: none; stroke: #ff0000; stroke-opacity: 0.5; stroke-width: 0.5; stroke-linecap: square"/>
     <g>
      <use xlink:href="#m4a103c5960" x="345.953125" y="53.216562" style="fill: #ff0000; fill-opacity: 0.5"/>
     </g>
    </g>
    <g id="text_17">
     <!-- LLM-RND mean -->
     <g transform="translate(363.953125 56.716562) scale(0.1 -0.1)">
      <use xlink:href="#DejaVuSans-4c"/>
      <use xlink:href="#DejaVuSans-4c" x="55.712891"/>
      <use xlink:href="#DejaVuSans-4d" x="111.425781"/>
      <use xlink:href="#DejaVuSans-2d" x="197.705078"/>
      <use xlink:href="#DejaVuSans-52" x="233.789062"/>
      <use xlink:href="#DejaVuSans-4e" x="303.271484"/>
      <use xlink:href="#DejaVuSans-44" x="378.076172"/>
      <use xlink:href="#DejaVuSans-20" x="455.078125"/>
      <use xlink:href="#DejaVuSans-6d" x="486.865234"/>
      <use xlink:href="#DejaVuSans-65" x="584.277344"/>
      <use xlink:href="#DejaVuSans-61" x="645.800781"/>
      <use xlink:href="#DejaVuSans-6e" x="707.080078"/>
     </g>
    </g>
   </g>
  </g>
 </g>
 <defs>
  <clipPath id="p463b0e4509">
   <rect x="47.81" y="25.44" width="402.19" height="278.2"/>
  </clipPath>
 </defs>
</svg>
