<?xml version="1.0" encoding="utf-8" standalone="no"?>
<!DOCTYPE svg PUBLIC "-//W3C//DTD SVG 1.1//EN"
  "http://www.w3.org/Graphics/SVG/1.1/DTD/svg11.dtd">
<svg xmlns:xlink="http://www.w3.org/1999/xlink" width="460.8pt" height="345.6pt" viewBox="0 0 460.8 345.6" xmlns="http://www.w3.org/2000/svg" version="1.1">
 <metadata>
  <rdf:RDF xmlns:dc="http://purl.org/dc/elements/1.1/" xmlns:cc="http://creativecommons.org/ns#" xmlns:rdf="http://www.w3.org/1999/02/22-rdf-syntax-ns#">
   <cc:Work>
    <dc:type rdf:resource="http://purl.org/dc/dcmitype/StillImage"/>
    <dc:date>2024-04-08T17:58:31.892572</dc:date>
    <dc:format>image/svg+xml</dc:format>
    <dc:creator>
     <cc:Agent>
      <dc:title>Matplotlib v3.8.0, https://matplotlib.org/</dc:title>
     </cc:Agent>
    </dc:creator>
   </cc:Work>
  </rdf:RDF>
 </metadata>
 <defs>
  <style type="text/css">*{stroke-linejoin: round; stroke-linecap: butt}</style>
 </defs>
 <g id="figure_1">
  <g id="patch_1">
   <path d="M 0 345.6 
L 460.8 345.6 
L 460.8 0 
L 0 0 
z
" style="fill: #ffffff"/>
  </g>
  <g id="axes_1">
   <g id="patch_2">
    <path d="M 47.81 303.64 
L 450 303.64 
L 450 25.44 
L 47.81 25.44 
z
" style="fill: #ffffff"/>
   </g>
   <g id="PolyCollection_1">
    <defs>
     <path id="me5df3898b9" d="M 66.091364 -256.932727 
L 66.091364 -256.932727 
L 69.822254 -259.027895 
L 73.553145 -257.22454 
L 77.284035 -254.495188 
L 81.014926 -251.935274 
L 84.745816 -249.409277 
L 88.476707 -247.225224 
L 92.207597 -245.235863 
L 95.938488 -243.519688 
L 99.669378 -241.725181 
L 103.400269 -240.153008 
L 107.13116 -238.720211 
L 110.86205 -237.30402 
L 114.592941 -235.900621 
L 118.323831 -234.580216 
L 122.054722 -233.34656 
L 125.785612 -232.133975 
L 129.516503 -230.990351 
L 133.247393 -229.925873 
L 136.978284 -228.91054 
L 140.709174 -227.957787 
L 144.440065 -227.077627 
L 148.170955 -226.215127 
L 151.901846 -225.422374 
L 155.632737 -224.584651 
L 159.363627 -223.771267 
L 163.094518 -222.985095 
L 166.825408 -222.204518 
L 170.556299 -221.44983 
L 174.287189 -220.726015 
L 178.01808 -220.036708 
L 181.74897 -219.421203 
L 185.479861 -218.841357 
L 189.210751 -218.310762 
L 192.941642 -217.757529 
L 196.672532 -217.282545 
L 200.403423 -216.779757 
L 204.134314 -216.286565 
L 207.865204 -215.835361 
L 211.596095 -215.374393 
L 215.326985 -214.964395 
L 219.057876 -214.569971 
L 222.788766 -214.172136 
L 226.519657 -213.800089 
L 230.250547 -213.435285 
L 233.981438 -213.067254 
L 237.712328 -212.766476 
L 241.443219 -212.483414 
L 245.174109 -212.18852 
L 248.905 -211.992821 
L 252.635891 -211.793723 
L 256.366781 -211.600689 
L 260.097672 -211.431843 
L 263.828562 -211.202201 
L 267.559453 -210.953654 
L 271.290343 -210.706622 
L 275.021234 -210.434895 
L 278.752124 -210.160725 
L 282.483015 -209.890633 
L 286.213905 -209.617306 
L 289.944796 -209.347455 
L 293.675686 -209.086852 
L 297.406577 -208.828777 
L 301.137468 -208.585606 
L 304.868358 -208.371877 
L 308.599249 -208.167663 
L 312.330139 -207.988035 
L 316.06103 -207.807475 
L 319.79192 -207.636326 
L 323.522811 -207.450117 
L 327.253701 -207.268113 
L 330.984592 -207.066271 
L 334.715482 -206.866053 
L 338.446373 -206.678029 
L 342.177263 -206.485675 
L 345.908154 -206.292695 
L 349.639045 -206.094737 
L 353.369935 -205.90224 
L 357.100826 -205.712925 
L 360.831716 -205.529646 
L 364.562607 -205.357989 
L 368.293497 -205.189501 
L 372.024388 -205.039333 
L 375.755278 -204.876888 
L 379.486169 -204.71494 
L 383.217059 -204.576941 
L 386.94795 -204.462497 
L 390.67884 -204.319306 
L 394.409731 -204.170428 
L 398.140622 -204.012963 
L 401.871512 -203.855375 
L 405.602403 -203.697524 
L 409.333293 -203.541492 
L 413.064184 -203.387086 
L 416.795074 -203.23562 
L 420.525965 -203.086573 
L 424.256855 -202.936772 
L 427.987746 -202.794111 
L 431.718636 -202.665293 
L 431.718636 -173.937432 
L 431.718636 -173.937432 
L 427.987746 -173.956398 
L 424.256855 -174.027142 
L 420.525965 -174.168957 
L 416.795074 -174.37091 
L 413.064184 -174.481054 
L 409.333293 -174.615638 
L 405.602403 -174.787868 
L 401.871512 -174.954375 
L 398.140622 -175.162075 
L 394.409731 -175.253074 
L 390.67884 -175.28933 
L 386.94795 -175.300646 
L 383.217059 -175.250196 
L 379.486169 -175.237205 
L 375.755278 -175.287545 
L 372.024388 -175.330315 
L 368.293497 -175.328681 
L 364.562607 -175.374842 
L 360.831716 -175.423199 
L 357.100826 -175.516728 
L 353.369935 -175.637256 
L 349.639045 -175.762651 
L 345.908154 -175.930884 
L 342.177263 -176.01944 
L 338.446373 -176.08889 
L 334.715482 -176.128269 
L 330.984592 -176.203921 
L 327.253701 -176.271472 
L 323.522811 -176.265394 
L 319.79192 -176.260212 
L 316.06103 -176.215905 
L 312.330139 -176.181072 
L 308.599249 -176.13626 
L 304.868358 -176.133264 
L 301.137468 -176.142848 
L 297.406577 -176.242484 
L 293.675686 -176.419857 
L 289.944796 -176.575812 
L 286.213905 -176.786985 
L 282.483015 -176.976695 
L 278.752124 -177.098398 
L 275.021234 -177.21202 
L 271.290343 -177.287741 
L 267.559453 -177.272038 
L 263.828562 -177.244654 
L 260.097672 -177.168171 
L 256.366781 -177.002738 
L 252.635891 -176.852922 
L 248.905 -176.698772 
L 245.174109 -176.529209 
L 241.443219 -176.493373 
L 237.712328 -176.415822 
L 233.981438 -176.351481 
L 230.250547 -176.432723 
L 226.519657 -176.468638 
L 222.788766 -176.492422 
L 219.057876 -176.55744 
L 215.326985 -176.574425 
L 211.596095 -176.596407 
L 207.865204 -176.745208 
L 204.134314 -176.802755 
L 200.403423 -176.955181 
L 196.672532 -177.077677 
L 192.941642 -177.06138 
L 189.210751 -177.231847 
L 185.479861 -177.254224 
L 181.74897 -177.356752 
L 178.01808 -177.500277 
L 174.287189 -177.924094 
L 170.556299 -178.459937 
L 166.825408 -179.199403 
L 163.094518 -180.023659 
L 159.363627 -181.160313 
L 155.632737 -182.302185 
L 151.901846 -183.498353 
L 148.170955 -185.180256 
L 144.440065 -186.603529 
L 140.709174 -188.13049 
L 136.978284 -189.370332 
L 133.247393 -190.352442 
L 129.516503 -191.001527 
L 125.785612 -192.13011 
L 122.054722 -193.347303 
L 118.323831 -195.204608 
L 114.592941 -196.983171 
L 110.86205 -198.844231 
L 107.13116 -201.320879 
L 103.400269 -204.212809 
L 99.669378 -206.919836 
L 95.938488 -209.119018 
L 92.207597 -212.816469 
L 88.476707 -216.041208 
L 84.745816 -219.635067 
L 81.014926 -223.319393 
L 77.284035 -228.810419 
L 73.553145 -235.284147 
L 69.822254 -244.721196 
L 66.091364 -256.932727 
z
" style="stroke: #ff0000; stroke-opacity: 0.2"/>
    </defs>
    <g clip-path="url(#p9eb6530af2)">
     <use xlink:href="#me5df3898b9" x="0" y="345.6" style="fill: #ff0000; fill-opacity: 0.2; stroke: #ff0000; stroke-opacity: 0.2"/>
    </g>
   </g>
   <g id="matplotlib.axis_1">
    <g id="xtick_1">
     <g id="line2d_1">
      <defs>
       <path id="mf248031550" d="M 0 0 
L 0 3.5 
" style="stroke: #000000; stroke-width: 0.8"/>
      </defs>
      <g>
       <use xlink:href="#mf248031550" x="66.091364" y="303.64" style="stroke: #000000; stroke-width: 0.8"/>
      </g>
     </g>
     <g id="text_1">
      <!-- 0 -->
      <g transform="translate(62.910114 318.238437) scale(0.1 -0.1)">
       <defs>
        <path id="DejaVuSans-30" d="M 2034 4250 
Q 1547 4250 1301 3770 
Q 1056 3291 1056 2328 
Q 1056 1369 1301 889 
Q 1547 409 2034 409 
Q 2525 409 2770 889 
Q 3016 1369 3016 2328 
Q 3016 3291 2770 3770 
Q 2525 4250 2034 4250 
z
M 2034 4750 
Q 2819 4750 3233 4129 
Q 3647 3509 3647 2328 
Q 3647 1150 3233 529 
Q 2819 -91 2034 -91 
Q 1250 -91 836 529 
Q 422 1150 422 2328 
Q 422 3509 836 4129 
Q 1250 4750 2034 4750 
z
" transform="scale(0.015625)"/>
       </defs>
       <use xlink:href="#DejaVuSans-30"/>
      </g>
     </g>
    </g>
    <g id="xtick_2">
     <g id="line2d_2">
      <g>
       <use xlink:href="#mf248031550" x="140.709174" y="303.64" style="stroke: #000000; stroke-width: 0.8"/>
      </g>
     </g>
     <g id="text_2">
      <!-- 20 -->
      <g transform="translate(134.346674 318.238437) scale(0.1 -0.1)">
       <defs>
        <path id="DejaVuSans-32" d="M 1228 531 
L 3431 531 
L 3431 0 
L 469 0 
L 469 531 
Q 828 903 1448 1529 
Q 2069 2156 2228 2338 
Q 2531 2678 2651 2914 
Q 2772 3150 2772 3378 
Q 2772 3750 2511 3984 
Q 2250 4219 1831 4219 
Q 1534 4219 1204 4116 
Q 875 4013 500 3803 
L 500 4441 
Q 881 4594 1212 4672 
Q 1544 4750 1819 4750 
Q 2544 4750 2975 4387 
Q 3406 4025 3406 3419 
Q 3406 3131 3298 2873 
Q 3191 2616 2906 2266 
Q 2828 2175 2409 1742 
Q 1991 1309 1228 531 
z
" transform="scale(0.015625)"/>
       </defs>
       <use xlink:href="#DejaVuSans-32"/>
       <use xlink:href="#DejaVuSans-30" x="63.623047"/>
      </g>
     </g>
    </g>
    <g id="xtick_3">
     <g id="line2d_3">
      <g>
       <use xlink:href="#mf248031550" x="215.326985" y="303.64" style="stroke: #000000; stroke-width: 0.8"/>
      </g>
     </g>
     <g id="text_3">
      <!-- 40 -->
      <g transform="translate(208.964485 318.238437) scale(0.1 -0.1)">
       <defs>
        <path id="DejaVuSans-34" d="M 2419 4116 
L 825 1625 
L 2419 1625 
L 2419 4116 
z
M 2253 4666 
L 3047 4666 
L 3047 1625 
L 3713 1625 
L 3713 1100 
L 3047 1100 
L 3047 0 
L 2419 0 
L 2419 1100 
L 313 1100 
L 313 1709 
L 2253 4666 
z
" transform="scale(0.015625)"/>
       </defs>
       <use xlink:href="#DejaVuSans-34"/>
       <use xlink:href="#DejaVuSans-30" x="63.623047"/>
      </g>
     </g>
    </g>
    <g id="xtick_4">
     <g id="line2d_4">
      <g>
       <use xlink:href="#mf248031550" x="289.944796" y="303.64" style="stroke: #000000; stroke-width: 0.8"/>
      </g>
     </g>
     <g id="text_4">
      <!-- 60 -->
      <g transform="translate(283.582296 318.238437) scale(0.1 -0.1)">
       <defs>
        <path id="DejaVuSans-36" d="M 2113 2584 
Q 1688 2584 1439 2293 
Q 1191 2003 1191 1497 
Q 1191 994 1439 701 
Q 1688 409 2113 409 
Q 2538 409 2786 701 
Q 3034 994 3034 1497 
Q 3034 2003 2786 2293 
Q 2538 2584 2113 2584 
z
M 3366 4563 
L 3366 3988 
Q 3128 4100 2886 4159 
Q 2644 4219 2406 4219 
Q 1781 4219 1451 3797 
Q 1122 3375 1075 2522 
Q 1259 2794 1537 2939 
Q 1816 3084 2150 3084 
Q 2853 3084 3261 2657 
Q 3669 2231 3669 1497 
Q 3669 778 3244 343 
Q 2819 -91 2113 -91 
Q 1303 -91 875 529 
Q 447 1150 447 2328 
Q 447 3434 972 4092 
Q 1497 4750 2381 4750 
Q 2619 4750 2861 4703 
Q 3103 4656 3366 4563 
z
" transform="scale(0.015625)"/>
       </defs>
       <use xlink:href="#DejaVuSans-36"/>
       <use xlink:href="#DejaVuSans-30" x="63.623047"/>
      </g>
     </g>
    </g>
    <g id="xtick_5">
     <g id="line2d_5">
      <g>
       <use xlink:href="#mf248031550" x="364.562607" y="303.64" style="stroke: #000000; stroke-width: 0.8"/>
      </g>
     </g>
     <g id="text_5">
      <!-- 80 -->
      <g transform="translate(358.200107 318.238437) scale(0.1 -0.1)">
       <defs>
        <path id="DejaVuSans-38" d="M 2034 2216 
Q 1584 2216 1326 1975 
Q 1069 1734 1069 1313 
Q 1069 891 1326 650 
Q 1584 409 2034 409 
Q 2484 409 2743 651 
Q 3003 894 3003 1313 
Q 3003 1734 2745 1975 
Q 2488 2216 2034 2216 
z
M 1403 2484 
Q 997 2584 770 2862 
Q 544 3141 544 3541 
Q 544 4100 942 4425 
Q 1341 4750 2034 4750 
Q 2731 4750 3128 4425 
Q 3525 4100 3525 3541 
Q 3525 3141 3298 2862 
Q 3072 2584 2669 2484 
Q 3125 2378 3379 2068 
Q 3634 1759 3634 1313 
Q 3634 634 3220 271 
Q 2806 -91 2034 -91 
Q 1263 -91 848 271 
Q 434 634 434 1313 
Q 434 1759 690 2068 
Q 947 2378 1403 2484 
z
M 1172 3481 
Q 1172 3119 1398 2916 
Q 1625 2713 2034 2713 
Q 2441 2713 2670 2916 
Q 2900 3119 2900 3481 
Q 2900 3844 2670 4047 
Q 2441 4250 2034 4250 
Q 1625 4250 1398 4047 
Q 1172 3844 1172 3481 
z
" transform="scale(0.015625)"/>
       </defs>
       <use xlink:href="#DejaVuSans-38"/>
       <use xlink:href="#DejaVuSans-30" x="63.623047"/>
      </g>
     </g>
    </g>
    <g id="xtick_6">
     <g id="line2d_6">
      <g>
       <use xlink:href="#mf248031550" x="439.180417" y="303.64" style="stroke: #000000; stroke-width: 0.8"/>
      </g>
     </g>
     <g id="text_6">
      <!-- 100 -->
      <g transform="translate(429.636667 318.238437) scale(0.1 -0.1)">
       <defs>
        <path id="DejaVuSans-31" d="M 794 531 
L 1825 531 
L 1825 4091 
L 703 3866 
L 703 4441 
L 1819 4666 
L 2450 4666 
L 2450 531 
L 3481 531 
L 3481 0 
L 794 0 
L 794 531 
z
" transform="scale(0.015625)"/>
       </defs>
       <use xlink:href="#DejaVuSans-31"/>
       <use xlink:href="#DejaVuSans-30" x="63.623047"/>
       <use xlink:href="#DejaVuSans-30" x="127.246094"/>
      </g>
     </g>
    </g>
    <g id="text_7">
     <!-- Iteration -->
     <g transform="translate(227.696406 331.916562) scale(0.1 -0.1)">
      <defs>
       <path id="DejaVuSans-49" d="M 628 4666 
L 1259 4666 
L 1259 0 
L 628 0 
L 628 4666 
z
" transform="scale(0.015625)"/>
       <path id="DejaVuSans-74" d="M 1172 4494 
L 1172 3500 
L 2356 3500 
L 2356 3053 
L 1172 3053 
L 1172 1153 
Q 1172 725 1289 603 
Q 1406 481 1766 481 
L 2356 481 
L 2356 0 
L 1766 0 
Q 1100 0 847 248 
Q 594 497 594 1153 
L 594 3053 
L 172 3053 
L 172 3500 
L 594 3500 
L 594 4494 
L 1172 4494 
z
" transform="scale(0.015625)"/>
       <path id="DejaVuSans-65" d="M 3597 1894 
L 3597 1613 
L 953 1613 
Q 991 1019 1311 708 
Q 1631 397 2203 397 
Q 2534 397 2845 478 
Q 3156 559 3463 722 
L 3463 178 
Q 3153 47 2828 -22 
Q 2503 -91 2169 -91 
Q 1331 -91 842 396 
Q 353 884 353 1716 
Q 353 2575 817 3079 
Q 1281 3584 2069 3584 
Q 2775 3584 3186 3129 
Q 3597 2675 3597 1894 
z
M 3022 2063 
Q 3016 2534 2758 2815 
Q 2500 3097 2075 3097 
Q 1594 3097 1305 2825 
Q 1016 2553 972 2059 
L 3022 2063 
z
" transform="scale(0.015625)"/>
       <path id="DejaVuSans-72" d="M 2631 2963 
Q 2534 3019 2420 3045 
Q 2306 3072 2169 3072 
Q 1681 3072 1420 2755 
Q 1159 2438 1159 1844 
L 1159 0 
L 581 0 
L 581 3500 
L 1159 3500 
L 1159 2956 
Q 1341 3275 1631 3429 
Q 1922 3584 2338 3584 
Q 2397 3584 2469 3576 
Q 2541 3569 2628 3553 
L 2631 2963 
z
" transform="scale(0.015625)"/>
       <path id="DejaVuSans-61" d="M 2194 1759 
Q 1497 1759 1228 1600 
Q 959 1441 959 1056 
Q 959 750 1161 570 
Q 1363 391 1709 391 
Q 2188 391 2477 730 
Q 2766 1069 2766 1631 
L 2766 1759 
L 2194 1759 
z
M 3341 1997 
L 3341 0 
L 2766 0 
L 2766 531 
Q 2569 213 2275 61 
Q 1981 -91 1556 -91 
Q 1019 -91 701 211 
Q 384 513 384 1019 
Q 384 1609 779 1909 
Q 1175 2209 1959 2209 
L 2766 2209 
L 2766 2266 
Q 2766 2663 2505 2880 
Q 2244 3097 1772 3097 
Q 1472 3097 1187 3025 
Q 903 2953 641 2809 
L 641 3341 
Q 956 3463 1253 3523 
Q 1550 3584 1831 3584 
Q 2591 3584 2966 3190 
Q 3341 2797 3341 1997 
z
" transform="scale(0.015625)"/>
       <path id="DejaVuSans-69" d="M 603 3500 
L 1178 3500 
L 1178 0 
L 603 0 
L 603 3500 
z
M 603 4863 
L 1178 4863 
L 1178 4134 
L 603 4134 
L 603 4863 
z
" transform="scale(0.015625)"/>
       <path id="DejaVuSans-6f" d="M 1959 3097 
Q 1497 3097 1228 2736 
Q 959 2375 959 1747 
Q 959 1119 1226 758 
Q 1494 397 1959 397 
Q 2419 397 2687 759 
Q 2956 1122 2956 1747 
Q 2956 2369 2687 2733 
Q 2419 3097 1959 3097 
z
M 1959 3584 
Q 2709 3584 3137 3096 
Q 3566 2609 3566 1747 
Q 3566 888 3137 398 
Q 2709 -91 1959 -91 
Q 1206 -91 779 398 
Q 353 888 353 1747 
Q 353 2609 779 3096 
Q 1206 3584 1959 3584 
z
" transform="scale(0.015625)"/>
       <path id="DejaVuSans-6e" d="M 3513 2113 
L 3513 0 
L 2938 0 
L 2938 2094 
Q 2938 2591 2744 2837 
Q 2550 3084 2163 3084 
Q 1697 3084 1428 2787 
Q 1159 2491 1159 1978 
L 1159 0 
L 581 0 
L 581 3500 
L 1159 3500 
L 1159 2956 
Q 1366 3272 1645 3428 
Q 1925 3584 2291 3584 
Q 2894 3584 3203 3211 
Q 3513 2838 3513 2113 
z
" transform="scale(0.015625)"/>
      </defs>
      <use xlink:href="#DejaVuSans-49"/>
      <use xlink:href="#DejaVuSans-74" x="29.492188"/>
      <use xlink:href="#DejaVuSans-65" x="68.701172"/>
      <use xlink:href="#DejaVuSans-72" x="130.224609"/>
      <use xlink:href="#DejaVuSans-61" x="171.337891"/>
      <use xlink:href="#DejaVuSans-74" x="232.617188"/>
      <use xlink:href="#DejaVuSans-69" x="271.826172"/>
      <use xlink:href="#DejaVuSans-6f" x="299.609375"/>
      <use xlink:href="#DejaVuSans-6e" x="360.791016"/>
     </g>
    </g>
   </g>
   <g id="matplotlib.axis_2">
    <g id="ytick_1">
     <g id="line2d_7">
      <defs>
       <path id="mc2d22aec24" d="M 0 0 
L -3.5 0 
" style="stroke: #000000; stroke-width: 0.8"/>
      </defs>
      <g>
       <use xlink:href="#mc2d22aec24" x="47.81" y="290.994545" style="stroke: #000000; stroke-width: 0.8"/>
      </g>
     </g>
     <g id="text_8">
      <!-- 0.0 -->
      <g transform="translate(24.906875 294.793764) scale(0.1 -0.1)">
       <defs>
        <path id="DejaVuSans-2e" d="M 684 794 
L 1344 794 
L 1344 0 
L 684 0 
L 684 794 
z
" transform="scale(0.015625)"/>
       </defs>
       <use xlink:href="#DejaVuSans-30"/>
       <use xlink:href="#DejaVuSans-2e" x="63.623047"/>
       <use xlink:href="#DejaVuSans-30" x="95.410156"/>
      </g>
     </g>
    </g>
    <g id="ytick_2">
     <g id="line2d_8">
      <g>
       <use xlink:href="#mc2d22aec24" x="47.81" y="240.412727" style="stroke: #000000; stroke-width: 0.8"/>
      </g>
     </g>
     <g id="text_9">
      <!-- 0.2 -->
      <g transform="translate(24.906875 244.211946) scale(0.1 -0.1)">
       <use xlink:href="#DejaVuSans-30"/>
       <use xlink:href="#DejaVuSans-2e" x="63.623047"/>
       <use xlink:href="#DejaVuSans-32" x="95.410156"/>
      </g>
     </g>
    </g>
    <g id="ytick_3">
     <g id="line2d_9">
      <g>
       <use xlink:href="#mc2d22aec24" x="47.81" y="189.830909" style="stroke: #000000; stroke-width: 0.8"/>
      </g>
     </g>
     <g id="text_10">
      <!-- 0.4 -->
      <g transform="translate(24.906875 193.630128) scale(0.1 -0.1)">
       <use xlink:href="#DejaVuSans-30"/>
       <use xlink:href="#DejaVuSans-2e" x="63.623047"/>
       <use xlink:href="#DejaVuSans-34" x="95.410156"/>
      </g>
     </g>
    </g>
    <g id="ytick_4">
     <g id="line2d_10">
      <g>
       <use xlink:href="#mc2d22aec24" x="47.81" y="139.249091" style="stroke: #000000; stroke-width: 0.8"/>
      </g>
     </g>
     <g id="text_11">
      <!-- 0.6 -->
      <g transform="translate(24.906875 143.04831) scale(0.1 -0.1)">
       <use xlink:href="#DejaVuSans-30"/>
       <use xlink:href="#DejaVuSans-2e" x="63.623047"/>
       <use xlink:href="#DejaVuSans-36" x="95.410156"/>
      </g>
     </g>
    </g>
    <g id="ytick_5">
     <g id="line2d_11">
      <g>
       <use xlink:href="#mc2d22aec24" x="47.81" y="88.667273" style="stroke: #000000; stroke-width: 0.8"/>
      </g>
     </g>
     <g id="text_12">
      <!-- 0.8 -->
      <g transform="translate(24.906875 92.466491) scale(0.1 -0.1)">
       <use xlink:href="#DejaVuSans-30"/>
       <use xlink:href="#DejaVuSans-2e" x="63.623047"/>
       <use xlink:href="#DejaVuSans-38" x="95.410156"/>
      </g>
     </g>
    </g>
    <g id="ytick_6">
     <g id="line2d_12">
      <g>
       <use xlink:href="#mc2d22aec24" x="47.81" y="38.085455" style="stroke: #000000; stroke-width: 0.8"/>
      </g>
     </g>
     <g id="text_13">
      <!-- 1.0 -->
      <g transform="translate(24.906875 41.884673) scale(0.1 -0.1)">
       <use xlink:href="#DejaVuSans-31"/>
       <use xlink:href="#DejaVuSans-2e" x="63.623047"/>
       <use xlink:href="#DejaVuSans-30" x="95.410156"/>
      </g>
     </g>
    </g>
    <g id="text_14">
     <!-- Similarity -->
     <g transform="translate(18.827187 188.179844) rotate(-90) scale(0.1 -0.1)">
      <defs>
       <path id="DejaVuSans-53" d="M 3425 4513 
L 3425 3897 
Q 3066 4069 2747 4153 
Q 2428 4238 2131 4238 
Q 1616 4238 1336 4038 
Q 1056 3838 1056 3469 
Q 1056 3159 1242 3001 
Q 1428 2844 1947 2747 
L 2328 2669 
Q 3034 2534 3370 2195 
Q 3706 1856 3706 1288 
Q 3706 609 3251 259 
Q 2797 -91 1919 -91 
Q 1588 -91 1214 -16 
Q 841 59 441 206 
L 441 856 
Q 825 641 1194 531 
Q 1563 422 1919 422 
Q 2459 422 2753 634 
Q 3047 847 3047 1241 
Q 3047 1584 2836 1778 
Q 2625 1972 2144 2069 
L 1759 2144 
Q 1053 2284 737 2584 
Q 422 2884 422 3419 
Q 422 4038 858 4394 
Q 1294 4750 2059 4750 
Q 2388 4750 2728 4690 
Q 3069 4631 3425 4513 
z
" transform="scale(0.015625)"/>
       <path id="DejaVuSans-6d" d="M 3328 2828 
Q 3544 3216 3844 3400 
Q 4144 3584 4550 3584 
Q 5097 3584 5394 3201 
Q 5691 2819 5691 2113 
L 5691 0 
L 5113 0 
L 5113 2094 
Q 5113 2597 4934 2840 
Q 4756 3084 4391 3084 
Q 3944 3084 3684 2787 
Q 3425 2491 3425 1978 
L 3425 0 
L 2847 0 
L 2847 2094 
Q 2847 2600 2669 2842 
Q 2491 3084 2119 3084 
Q 1678 3084 1418 2786 
Q 1159 2488 1159 1978 
L 1159 0 
L 581 0 
L 581 3500 
L 1159 3500 
L 1159 2956 
Q 1356 3278 1631 3431 
Q 1906 3584 2284 3584 
Q 2666 3584 2933 3390 
Q 3200 3197 3328 2828 
z
" transform="scale(0.015625)"/>
       <path id="DejaVuSans-6c" d="M 603 4863 
L 1178 4863 
L 1178 0 
L 603 0 
L 603 4863 
z
" transform="scale(0.015625)"/>
       <path id="DejaVuSans-79" d="M 2059 -325 
Q 1816 -950 1584 -1140 
Q 1353 -1331 966 -1331 
L 506 -1331 
L 506 -850 
L 844 -850 
Q 1081 -850 1212 -737 
Q 1344 -625 1503 -206 
L 1606 56 
L 191 3500 
L 800 3500 
L 1894 763 
L 2988 3500 
L 3597 3500 
L 2059 -325 
z
" transform="scale(0.015625)"/>
      </defs>
      <use xlink:href="#DejaVuSans-53"/>
      <use xlink:href="#DejaVuSans-69" x="63.476562"/>
      <use xlink:href="#DejaVuSans-6d" x="91.259766"/>
      <use xlink:href="#DejaVuSans-69" x="188.671875"/>
      <use xlink:href="#DejaVuSans-6c" x="216.455078"/>
      <use xlink:href="#DejaVuSans-61" x="244.238281"/>
      <use xlink:href="#DejaVuSans-72" x="305.517578"/>
      <use xlink:href="#DejaVuSans-69" x="346.630859"/>
      <use xlink:href="#DejaVuSans-74" x="374.414062"/>
      <use xlink:href="#DejaVuSans-79" x="413.623047"/>
     </g>
    </g>
   </g>
   <g id="line2d_13">
    <path d="M 66.091364 88.667273 
L 69.822254 98.783636 
L 73.553145 110.586061 
L 77.284035 117.751818 
L 81.014926 124.074545 
L 84.745816 126.603636 
L 88.476707 131.300519 
L 92.207597 134.823182 
L 95.938488 140.935152 
L 99.669378 139.249091 
L 103.400269 144.813091 
L 107.13116 149.365455 
L 110.86205 150.882909 
L 114.592941 150.377091 
L 118.323831 152.400364 
L 122.054722 155.435273 
L 125.785612 152.906182 
L 129.516503 153.917818 
L 133.247393 150.882909 
L 136.978284 155.435273 
L 140.709174 159.481818 
L 144.440065 164.034182 
L 148.170955 165.045818 
L 151.901846 169.598182 
L 155.632737 166.563273 
L 159.363627 167.574909 
L 163.094518 169.092364 
L 166.825408 166.563273 
L 170.556299 166.563273 
L 174.287189 164.54 
L 178.01808 163.528364 
L 181.74897 158.976 
L 185.479861 158.470182 
L 189.210751 156.952727 
L 192.941642 160.493455 
L 196.672532 156.446909 
L 200.403423 159.987636 
L 204.134314 160.999273 
L 207.865204 158.976 
L 211.596095 161.505091 
L 215.326985 158.470182 
L 219.057876 158.470182 
L 222.788766 159.987636 
L 226.519657 158.976 
L 230.250547 159.481818 
L 233.981438 160.999273 
L 237.712328 156.446909 
L 241.443219 155.941091 
L 245.174109 157.458545 
L 248.905 151.894545 
L 252.635891 152.400364 
L 256.366781 152.400364 
L 260.097672 151.388727 
L 263.828562 155.435273 
L 267.559453 157.458545 
L 271.290343 157.964364 
L 275.021234 161.505091 
L 278.752124 163.022545 
L 282.483015 163.528364 
L 286.213905 166.057455 
L 289.944796 167.069091 
L 293.675686 165.551636 
L 297.406577 166.563273 
L 301.137468 164.034182 
L 304.868358 160.493455 
L 308.599249 159.987636 
L 312.330139 157.964364 
L 316.06103 158.470182 
L 319.79192 157.964364 
L 323.522811 159.987636 
L 327.253701 159.987636 
L 330.984592 163.528364 
L 334.715482 164.034182 
L 338.446373 162.516727 
L 342.177263 164.034182 
L 345.908154 165.045818 
L 349.639045 168.586545 
L 353.369935 167.069091 
L 357.100826 167.069091 
L 360.831716 166.057455 
L 364.562607 164.034182 
L 368.293497 164.034182 
L 372.024388 161.505091 
L 375.755278 164.034182 
L 379.486169 164.54 
L 383.217059 160.999273 
L 386.94795 158.470182 
L 390.67884 162.516727 
L 394.409731 164.034182 
L 398.140622 167.069091 
L 401.871512 172.633091 
L 405.602403 171.115636 
L 409.333293 171.621455 
L 413.064184 170.104 
L 416.795074 169.092364 
L 420.525965 173.644727 
L 424.256855 171.115636 
L 427.987746 167.574909 
L 431.718636 164.54 
" clip-path="url(#p9eb6530af2)" style="fill: none; stroke: #0000ff; stroke-linecap: square"/>
    <defs>
     <path id="m46d5a6585d" d="M -0.49999 0.49999 
L 0.50001 0.49999 
L 0.50001 -0.50001 
L -0.49999 -0.50001 
z
"/>
    </defs>
    <g clip-path="url(#p9eb6530af2)">
     <use xlink:href="#m46d5a6585d" x="66.091364" y="88.667273" style="fill: #0000ff"/>
     <use xlink:href="#m46d5a6585d" x="69.822254" y="98.783636" style="fill: #0000ff"/>
     <use xlink:href="#m46d5a6585d" x="73.553145" y="110.586061" style="fill: #0000ff"/>
     <use xlink:href="#m46d5a6585d" x="77.284035" y="117.751818" style="fill: #0000ff"/>
     <use xlink:href="#m46d5a6585d" x="81.014926" y="124.074545" style="fill: #0000ff"/>
     <use xlink:href="#m46d5a6585d" x="84.745816" y="126.603636" style="fill: #0000ff"/>
     <use xlink:href="#m46d5a6585d" x="88.476707" y="131.300519" style="fill: #0000ff"/>
     <use xlink:href="#m46d5a6585d" x="92.207597" y="134.823182" style="fill: #0000ff"/>
     <use xlink:href="#m46d5a6585d" x="95.938488" y="140.935152" style="fill: #0000ff"/>
     <use xlink:href="#m46d5a6585d" x="99.669378" y="139.249091" style="fill: #0000ff"/>
     <use xlink:href="#m46d5a6585d" x="103.400269" y="144.813091" style="fill: #0000ff"/>
     <use xlink:href="#m46d5a6585d" x="107.13116" y="149.365455" style="fill: #0000ff"/>
     <use xlink:href="#m46d5a6585d" x="110.86205" y="150.882909" style="fill: #0000ff"/>
     <use xlink:href="#m46d5a6585d" x="114.592941" y="150.377091" style="fill: #0000ff"/>
     <use xlink:href="#m46d5a6585d" x="118.323831" y="152.400364" style="fill: #0000ff"/>
     <use xlink:href="#m46d5a6585d" x="122.054722" y="155.435273" style="fill: #0000ff"/>
     <use xlink:href="#m46d5a6585d" x="125.785612" y="152.906182" style="fill: #0000ff"/>
     <use xlink:href="#m46d5a6585d" x="129.516503" y="153.917818" style="fill: #0000ff"/>
     <use xlink:href="#m46d5a6585d" x="133.247393" y="150.882909" style="fill: #0000ff"/>
     <use xlink:href="#m46d5a6585d" x="136.978284" y="155.435273" style="fill: #0000ff"/>
     <use xlink:href="#m46d5a6585d" x="140.709174" y="159.481818" style="fill: #0000ff"/>
     <use xlink:href="#m46d5a6585d" x="144.440065" y="164.034182" style="fill: #0000ff"/>
     <use xlink:href="#m46d5a6585d" x="148.170955" y="165.045818" style="fill: #0000ff"/>
     <use xlink:href="#m46d5a6585d" x="151.901846" y="169.598182" style="fill: #0000ff"/>
     <use xlink:href="#m46d5a6585d" x="155.632737" y="166.563273" style="fill: #0000ff"/>
     <use xlink:href="#m46d5a6585d" x="159.363627" y="167.574909" style="fill: #0000ff"/>
     <use xlink:href="#m46d5a6585d" x="163.094518" y="169.092364" style="fill: #0000ff"/>
     <use xlink:href="#m46d5a6585d" x="166.825408" y="166.563273" style="fill: #0000ff"/>
     <use xlink:href="#m46d5a6585d" x="170.556299" y="166.563273" style="fill: #0000ff"/>
     <use xlink:href="#m46d5a6585d" x="174.287189" y="164.54" style="fill: #0000ff"/>
     <use xlink:href="#m46d5a6585d" x="178.01808" y="163.528364" style="fill: #0000ff"/>
     <use xlink:href="#m46d5a6585d" x="181.74897" y="158.976" style="fill: #0000ff"/>
     <use xlink:href="#m46d5a6585d" x="185.479861" y="158.470182" style="fill: #0000ff"/>
     <use xlink:href="#m46d5a6585d" x="189.210751" y="156.952727" style="fill: #0000ff"/>
     <use xlink:href="#m46d5a6585d" x="192.941642" y="160.493455" style="fill: #0000ff"/>
     <use xlink:href="#m46d5a6585d" x="196.672532" y="156.446909" style="fill: #0000ff"/>
     <use xlink:href="#m46d5a6585d" x="200.403423" y="159.987636" style="fill: #0000ff"/>
     <use xlink:href="#m46d5a6585d" x="204.134314" y="160.999273" style="fill: #0000ff"/>
     <use xlink:href="#m46d5a6585d" x="207.865204" y="158.976" style="fill: #0000ff"/>
     <use xlink:href="#m46d5a6585d" x="211.596095" y="161.505091" style="fill: #0000ff"/>
     <use xlink:href="#m46d5a6585d" x="215.326985" y="158.470182" style="fill: #0000ff"/>
     <use xlink:href="#m46d5a6585d" x="219.057876" y="158.470182" style="fill: #0000ff"/>
     <use xlink:href="#m46d5a6585d" x="222.788766" y="159.987636" style="fill: #0000ff"/>
     <use xlink:href="#m46d5a6585d" x="226.519657" y="158.976" style="fill: #0000ff"/>
     <use xlink:href="#m46d5a6585d" x="230.250547" y="159.481818" style="fill: #0000ff"/>
     <use xlink:href="#m46d5a6585d" x="233.981438" y="160.999273" style="fill: #0000ff"/>
     <use xlink:href="#m46d5a6585d" x="237.712328" y="156.446909" style="fill: #0000ff"/>
     <use xlink:href="#m46d5a6585d" x="241.443219" y="155.941091" style="fill: #0000ff"/>
     <use xlink:href="#m46d5a6585d" x="245.174109" y="157.458545" style="fill: #0000ff"/>
     <use xlink:href="#m46d5a6585d" x="248.905" y="151.894545" style="fill: #0000ff"/>
     <use xlink:href="#m46d5a6585d" x="252.635891" y="152.400364" style="fill: #0000ff"/>
     <use xlink:href="#m46d5a6585d" x="256.366781" y="152.400364" style="fill: #0000ff"/>
     <use xlink:href="#m46d5a6585d" x="260.097672" y="151.388727" style="fill: #0000ff"/>
     <use xlink:href="#m46d5a6585d" x="263.828562" y="155.435273" style="fill: #0000ff"/>
     <use xlink:href="#m46d5a6585d" x="267.559453" y="157.458545" style="fill: #0000ff"/>
     <use xlink:href="#m46d5a6585d" x="271.290343" y="157.964364" style="fill: #0000ff"/>
     <use xlink:href="#m46d5a6585d" x="275.021234" y="161.505091" style="fill: #0000ff"/>
     <use xlink:href="#m46d5a6585d" x="278.752124" y="163.022545" style="fill: #0000ff"/>
     <use xlink:href="#m46d5a6585d" x="282.483015" y="163.528364" style="fill: #0000ff"/>
     <use xlink:href="#m46d5a6585d" x="286.213905" y="166.057455" style="fill: #0000ff"/>
     <use xlink:href="#m46d5a6585d" x="289.944796" y="167.069091" style="fill: #0000ff"/>
     <use xlink:href="#m46d5a6585d" x="293.675686" y="165.551636" style="fill: #0000ff"/>
     <use xlink:href="#m46d5a6585d" x="297.406577" y="166.563273" style="fill: #0000ff"/>
     <use xlink:href="#m46d5a6585d" x="301.137468" y="164.034182" style="fill: #0000ff"/>
     <use xlink:href="#m46d5a6585d" x="304.868358" y="160.493455" style="fill: #0000ff"/>
     <use xlink:href="#m46d5a6585d" x="308.599249" y="159.987636" style="fill: #0000ff"/>
     <use xlink:href="#m46d5a6585d" x="312.330139" y="157.964364" style="fill: #0000ff"/>
     <use xlink:href="#m46d5a6585d" x="316.06103" y="158.470182" style="fill: #0000ff"/>
     <use xlink:href="#m46d5a6585d" x="319.79192" y="157.964364" style="fill: #0000ff"/>
     <use xlink:href="#m46d5a6585d" x="323.522811" y="159.987636" style="fill: #0000ff"/>
     <use xlink:href="#m46d5a6585d" x="327.253701" y="159.987636" style="fill: #0000ff"/>
     <use xlink:href="#m46d5a6585d" x="330.984592" y="163.528364" style="fill: #0000ff"/>
     <use xlink:href="#m46d5a6585d" x="334.715482" y="164.034182" style="fill: #0000ff"/>
     <use xlink:href="#m46d5a6585d" x="338.446373" y="162.516727" style="fill: #0000ff"/>
     <use xlink:href="#m46d5a6585d" x="342.177263" y="164.034182" style="fill: #0000ff"/>
     <use xlink:href="#m46d5a6585d" x="345.908154" y="165.045818" style="fill: #0000ff"/>
     <use xlink:href="#m46d5a6585d" x="349.639045" y="168.586545" style="fill: #0000ff"/>
     <use xlink:href="#m46d5a6585d" x="353.369935" y="167.069091" style="fill: #0000ff"/>
     <use xlink:href="#m46d5a6585d" x="357.100826" y="167.069091" style="fill: #0000ff"/>
     <use xlink:href="#m46d5a6585d" x="360.831716" y="166.057455" style="fill: #0000ff"/>
     <use xlink:href="#m46d5a6585d" x="364.562607" y="164.034182" style="fill: #0000ff"/>
     <use xlink:href="#m46d5a6585d" x="368.293497" y="164.034182" style="fill: #0000ff"/>
     <use xlink:href="#m46d5a6585d" x="372.024388" y="161.505091" style="fill: #0000ff"/>
     <use xlink:href="#m46d5a6585d" x="375.755278" y="164.034182" style="fill: #0000ff"/>
     <use xlink:href="#m46d5a6585d" x="379.486169" y="164.54" style="fill: #0000ff"/>
     <use xlink:href="#m46d5a6585d" x="383.217059" y="160.999273" style="fill: #0000ff"/>
     <use xlink:href="#m46d5a6585d" x="386.94795" y="158.470182" style="fill: #0000ff"/>
     <use xlink:href="#m46d5a6585d" x="390.67884" y="162.516727" style="fill: #0000ff"/>
     <use xlink:href="#m46d5a6585d" x="394.409731" y="164.034182" style="fill: #0000ff"/>
     <use xlink:href="#m46d5a6585d" x="398.140622" y="167.069091" style="fill: #0000ff"/>
     <use xlink:href="#m46d5a6585d" x="401.871512" y="172.633091" style="fill: #0000ff"/>
     <use xlink:href="#m46d5a6585d" x="405.602403" y="171.115636" style="fill: #0000ff"/>
     <use xlink:href="#m46d5a6585d" x="409.333293" y="171.621455" style="fill: #0000ff"/>
     <use xlink:href="#m46d5a6585d" x="413.064184" y="170.104" style="fill: #0000ff"/>
     <use xlink:href="#m46d5a6585d" x="416.795074" y="169.092364" style="fill: #0000ff"/>
     <use xlink:href="#m46d5a6585d" x="420.525965" y="173.644727" style="fill: #0000ff"/>
     <use xlink:href="#m46d5a6585d" x="424.256855" y="171.115636" style="fill: #0000ff"/>
     <use xlink:href="#m46d5a6585d" x="427.987746" y="167.574909" style="fill: #0000ff"/>
     <use xlink:href="#m46d5a6585d" x="431.718636" y="164.54" style="fill: #0000ff"/>
    </g>
   </g>
   <g id="line2d_14">
    <path d="M 66.091364 88.667273 
L 69.822254 93.725455 
L 73.553145 99.345657 
L 77.284035 103.947197 
L 81.014926 107.972667 
L 84.745816 111.077828 
L 88.476707 113.966784 
L 92.207597 116.573834 
L 95.938488 119.280647 
L 99.669378 121.277491 
L 103.400269 123.417091 
L 107.13116 125.579455 
L 110.86205 127.525874 
L 114.592941 129.158104 
L 118.323831 130.707588 
L 122.054722 132.253068 
L 125.785612 133.467957 
L 129.516503 134.604061 
L 133.247393 135.460842 
L 136.978284 136.459564 
L 140.709174 137.555862 
L 144.440065 138.759422 
L 148.170955 139.902308 
L 151.901846 141.139637 
L 155.632737 142.156582 
L 159.363627 143.13421 
L 163.094518 144.095623 
L 166.825408 144.898039 
L 170.556299 145.645116 
L 174.287189 146.274946 
L 178.01808 146.831507 
L 181.74897 147.211023 
L 185.479861 147.552209 
L 189.210751 147.828695 
L 192.941642 148.190546 
L 196.672532 148.419889 
L 200.403423 148.732531 
L 204.134314 149.05534 
L 207.865204 149.309716 
L 211.596095 149.6146 
L 215.326985 149.83059 
L 219.057876 150.036294 
L 222.788766 150.267721 
L 226.519657 150.465636 
L 230.250547 150.665996 
L 233.981438 150.890633 
L 237.712328 151.008851 
L 241.443219 151.111606 
L 245.174109 151.241136 
L 248.905 151.254204 
L 252.635891 151.276677 
L 256.366781 151.298287 
L 260.097672 151.299993 
L 263.828562 151.376572 
L 267.559453 151.487154 
L 271.290343 151.602818 
L 275.021234 151.776542 
L 278.752124 151.970439 
L 282.483015 152.166336 
L 286.213905 152.397855 
L 289.944796 152.638367 
L 293.675686 152.846645 
L 297.406577 153.064369 
L 301.137468 153.235773 
L 304.868358 153.347429 
L 308.599249 153.448039 
L 312.330139 153.515446 
L 316.06103 153.58831 
L 319.79192 153.651731 
L 323.522811 153.742244 
L 327.253701 153.830207 
L 330.984592 153.964904 
L 334.715482 154.102839 
L 338.446373 154.216541 
L 342.177263 154.347442 
L 345.908154 154.488211 
L 349.639045 154.671306 
L 353.369935 154.830252 
L 357.100826 154.985174 
L 360.831716 155.123577 
L 364.562607 155.233585 
L 368.293497 155.340909 
L 372.024388 155.415176 
L 375.755278 155.517784 
L 379.486169 155.623927 
L 383.217059 155.686431 
L 386.94795 155.718428 
L 390.67884 155.795682 
L 394.409731 155.888249 
L 398.140622 156.012481 
L 401.871512 156.195125 
L 405.602403 156.357304 
L 409.333293 156.521435 
L 413.064184 156.66593 
L 416.795074 156.796735 
L 420.525965 156.972235 
L 424.256855 157.118043 
L 427.987746 157.224746 
L 431.718636 157.298637 
" clip-path="url(#p9eb6530af2)" style="fill: none; stroke: #ff0000; stroke-opacity: 0.5; stroke-width: 0.5; stroke-linecap: square"/>
    <defs>
     <path id="mc923d6f05a" d="M -0.49999 0.49999 
L 0.50001 0.49999 
L 0.50001 -0.50001 
L -0.49999 -0.50001 
z
"/>
    </defs>
    <g clip-path="url(#p9eb6530af2)">
     <use xlink:href="#mc923d6f05a" x="66.091364" y="88.667273" style="fill: #ff0000; fill-opacity: 0.5"/>
     <use xlink:href="#mc923d6f05a" x="69.822254" y="93.725455" style="fill: #ff0000; fill-opacity: 0.5"/>
     <use xlink:href="#mc923d6f05a" x="73.553145" y="99.345657" style="fill: #ff0000; fill-opacity: 0.5"/>
     <use xlink:href="#mc923d6f05a" x="77.284035" y="103.947197" style="fill: #ff0000; fill-opacity: 0.5"/>
     <use xlink:href="#mc923d6f05a" x="81.014926" y="107.972667" style="fill: #ff0000; fill-opacity: 0.5"/>
     <use xlink:href="#mc923d6f05a" x="84.745816" y="111.077828" style="fill: #ff0000; fill-opacity: 0.5"/>
     <use xlink:href="#mc923d6f05a" x="88.476707" y="113.966784" style="fill: #ff0000; fill-opacity: 0.5"/>
     <use xlink:href="#mc923d6f05a" x="92.207597" y="116.573834" style="fill: #ff0000; fill-opacity: 0.5"/>
     <use xlink:href="#mc923d6f05a" x="95.938488" y="119.280647" style="fill: #ff0000; fill-opacity: 0.5"/>
     <use xlink:href="#mc923d6f05a" x="99.669378" y="121.277491" style="fill: #ff0000; fill-opacity: 0.5"/>
     <use xlink:href="#mc923d6f05a" x="103.400269" y="123.417091" style="fill: #ff0000; fill-opacity: 0.5"/>
     <use xlink:href="#mc923d6f05a" x="107.13116" y="125.579455" style="fill: #ff0000; fill-opacity: 0.5"/>
     <use xlink:href="#mc923d6f05a" x="110.86205" y="127.525874" style="fill: #ff0000; fill-opacity: 0.5"/>
     <use xlink:href="#mc923d6f05a" x="114.592941" y="129.158104" style="fill: #ff0000; fill-opacity: 0.5"/>
     <use xlink:href="#mc923d6f05a" x="118.323831" y="130.707588" style="fill: #ff0000; fill-opacity: 0.5"/>
     <use xlink:href="#mc923d6f05a" x="122.054722" y="132.253068" style="fill: #ff0000; fill-opacity: 0.5"/>
     <use xlink:href="#mc923d6f05a" x="125.785612" y="133.467957" style="fill: #ff0000; fill-opacity: 0.5"/>
     <use xlink:href="#mc923d6f05a" x="129.516503" y="134.604061" style="fill: #ff0000; fill-opacity: 0.5"/>
     <use xlink:href="#mc923d6f05a" x="133.247393" y="135.460842" style="fill: #ff0000; fill-opacity: 0.5"/>
     <use xlink:href="#mc923d6f05a" x="136.978284" y="136.459564" style="fill: #ff0000; fill-opacity: 0.5"/>
     <use xlink:href="#mc923d6f05a" x="140.709174" y="137.555862" style="fill: #ff0000; fill-opacity: 0.5"/>
     <use xlink:href="#mc923d6f05a" x="144.440065" y="138.759422" style="fill: #ff0000; fill-opacity: 0.5"/>
     <use xlink:href="#mc923d6f05a" x="148.170955" y="139.902308" style="fill: #ff0000; fill-opacity: 0.5"/>
     <use xlink:href="#mc923d6f05a" x="151.901846" y="141.139637" style="fill: #ff0000; fill-opacity: 0.5"/>
     <use xlink:href="#mc923d6f05a" x="155.632737" y="142.156582" style="fill: #ff0000; fill-opacity: 0.5"/>
     <use xlink:href="#mc923d6f05a" x="159.363627" y="143.13421" style="fill: #ff0000; fill-opacity: 0.5"/>
     <use xlink:href="#mc923d6f05a" x="163.094518" y="144.095623" style="fill: #ff0000; fill-opacity: 0.5"/>
     <use xlink:href="#mc923d6f05a" x="166.825408" y="144.898039" style="fill: #ff0000; fill-opacity: 0.5"/>
     <use xlink:href="#mc923d6f05a" x="170.556299" y="145.645116" style="fill: #ff0000; fill-opacity: 0.5"/>
     <use xlink:href="#mc923d6f05a" x="174.287189" y="146.274946" style="fill: #ff0000; fill-opacity: 0.5"/>
     <use xlink:href="#mc923d6f05a" x="178.01808" y="146.831507" style="fill: #ff0000; fill-opacity: 0.5"/>
     <use xlink:href="#mc923d6f05a" x="181.74897" y="147.211023" style="fill: #ff0000; fill-opacity: 0.5"/>
     <use xlink:href="#mc923d6f05a" x="185.479861" y="147.552209" style="fill: #ff0000; fill-opacity: 0.5"/>
     <use xlink:href="#mc923d6f05a" x="189.210751" y="147.828695" style="fill: #ff0000; fill-opacity: 0.5"/>
     <use xlink:href="#mc923d6f05a" x="192.941642" y="148.190546" style="fill: #ff0000; fill-opacity: 0.5"/>
     <use xlink:href="#mc923d6f05a" x="196.672532" y="148.419889" style="fill: #ff0000; fill-opacity: 0.5"/>
     <use xlink:href="#mc923d6f05a" x="200.403423" y="148.732531" style="fill: #ff0000; fill-opacity: 0.5"/>
     <use xlink:href="#mc923d6f05a" x="204.134314" y="149.05534" style="fill: #ff0000; fill-opacity: 0.5"/>
     <use xlink:href="#mc923d6f05a" x="207.865204" y="149.309716" style="fill: #ff0000; fill-opacity: 0.5"/>
     <use xlink:href="#mc923d6f05a" x="211.596095" y="149.6146" style="fill: #ff0000; fill-opacity: 0.5"/>
     <use xlink:href="#mc923d6f05a" x="215.326985" y="149.83059" style="fill: #ff0000; fill-opacity: 0.5"/>
     <use xlink:href="#mc923d6f05a" x="219.057876" y="150.036294" style="fill: #ff0000; fill-opacity: 0.5"/>
     <use xlink:href="#mc923d6f05a" x="222.788766" y="150.267721" style="fill: #ff0000; fill-opacity: 0.5"/>
     <use xlink:href="#mc923d6f05a" x="226.519657" y="150.465636" style="fill: #ff0000; fill-opacity: 0.5"/>
     <use xlink:href="#mc923d6f05a" x="230.250547" y="150.665996" style="fill: #ff0000; fill-opacity: 0.5"/>
     <use xlink:href="#mc923d6f05a" x="233.981438" y="150.890633" style="fill: #ff0000; fill-opacity: 0.5"/>
     <use xlink:href="#mc923d6f05a" x="237.712328" y="151.008851" style="fill: #ff0000; fill-opacity: 0.5"/>
     <use xlink:href="#mc923d6f05a" x="241.443219" y="151.111606" style="fill: #ff0000; fill-opacity: 0.5"/>
     <use xlink:href="#mc923d6f05a" x="245.174109" y="151.241136" style="fill: #ff0000; fill-opacity: 0.5"/>
     <use xlink:href="#mc923d6f05a" x="248.905" y="151.254204" style="fill: #ff0000; fill-opacity: 0.5"/>
     <use xlink:href="#mc923d6f05a" x="252.635891" y="151.276677" style="fill: #ff0000; fill-opacity: 0.5"/>
     <use xlink:href="#mc923d6f05a" x="256.366781" y="151.298287" style="fill: #ff0000; fill-opacity: 0.5"/>
     <use xlink:href="#mc923d6f05a" x="260.097672" y="151.299993" style="fill: #ff0000; fill-opacity: 0.5"/>
     <use xlink:href="#mc923d6f05a" x="263.828562" y="151.376572" style="fill: #ff0000; fill-opacity: 0.5"/>
     <use xlink:href="#mc923d6f05a" x="267.559453" y="151.487154" style="fill: #ff0000; fill-opacity: 0.5"/>
     <use xlink:href="#mc923d6f05a" x="271.290343" y="151.602818" style="fill: #ff0000; fill-opacity: 0.5"/>
     <use xlink:href="#mc923d6f05a" x="275.021234" y="151.776542" style="fill: #ff0000; fill-opacity: 0.5"/>
     <use xlink:href="#mc923d6f05a" x="278.752124" y="151.970439" style="fill: #ff0000; fill-opacity: 0.5"/>
     <use xlink:href="#mc923d6f05a" x="282.483015" y="152.166336" style="fill: #ff0000; fill-opacity: 0.5"/>
     <use xlink:href="#mc923d6f05a" x="286.213905" y="152.397855" style="fill: #ff0000; fill-opacity: 0.5"/>
     <use xlink:href="#mc923d6f05a" x="289.944796" y="152.638367" style="fill: #ff0000; fill-opacity: 0.5"/>
     <use xlink:href="#mc923d6f05a" x="293.675686" y="152.846645" style="fill: #ff0000; fill-opacity: 0.5"/>
     <use xlink:href="#mc923d6f05a" x="297.406577" y="153.064369" style="fill: #ff0000; fill-opacity: 0.5"/>
     <use xlink:href="#mc923d6f05a" x="301.137468" y="153.235773" style="fill: #ff0000; fill-opacity: 0.5"/>
     <use xlink:href="#mc923d6f05a" x="304.868358" y="153.347429" style="fill: #ff0000; fill-opacity: 0.5"/>
     <use xlink:href="#mc923d6f05a" x="308.599249" y="153.448039" style="fill: #ff0000; fill-opacity: 0.5"/>
     <use xlink:href="#mc923d6f05a" x="312.330139" y="153.515446" style="fill: #ff0000; fill-opacity: 0.5"/>
     <use xlink:href="#mc923d6f05a" x="316.06103" y="153.58831" style="fill: #ff0000; fill-opacity: 0.5"/>
     <use xlink:href="#mc923d6f05a" x="319.79192" y="153.651731" style="fill: #ff0000; fill-opacity: 0.5"/>
     <use xlink:href="#mc923d6f05a" x="323.522811" y="153.742244" style="fill: #ff0000; fill-opacity: 0.5"/>
     <use xlink:href="#mc923d6f05a" x="327.253701" y="153.830207" style="fill: #ff0000; fill-opacity: 0.5"/>
     <use xlink:href="#mc923d6f05a" x="330.984592" y="153.964904" style="fill: #ff0000; fill-opacity: 0.5"/>
     <use xlink:href="#mc923d6f05a" x="334.715482" y="154.102839" style="fill: #ff0000; fill-opacity: 0.5"/>
     <use xlink:href="#mc923d6f05a" x="338.446373" y="154.216541" style="fill: #ff0000; fill-opacity: 0.5"/>
     <use xlink:href="#mc923d6f05a" x="342.177263" y="154.347442" style="fill: #ff0000; fill-opacity: 0.5"/>
     <use xlink:href="#mc923d6f05a" x="345.908154" y="154.488211" style="fill: #ff0000; fill-opacity: 0.5"/>
     <use xlink:href="#mc923d6f05a" x="349.639045" y="154.671306" style="fill: #ff0000; fill-opacity: 0.5"/>
     <use xlink:href="#mc923d6f05a" x="353.369935" y="154.830252" style="fill: #ff0000; fill-opacity: 0.5"/>
     <use xlink:href="#mc923d6f05a" x="357.100826" y="154.985174" style="fill: #ff0000; fill-opacity: 0.5"/>
     <use xlink:href="#mc923d6f05a" x="360.831716" y="155.123577" style="fill: #ff0000; fill-opacity: 0.5"/>
     <use xlink:href="#mc923d6f05a" x="364.562607" y="155.233585" style="fill: #ff0000; fill-opacity: 0.5"/>
     <use xlink:href="#mc923d6f05a" x="368.293497" y="155.340909" style="fill: #ff0000; fill-opacity: 0.5"/>
     <use xlink:href="#mc923d6f05a" x="372.024388" y="155.415176" style="fill: #ff0000; fill-opacity: 0.5"/>
     <use xlink:href="#mc923d6f05a" x="375.755278" y="155.517784" style="fill: #ff0000; fill-opacity: 0.5"/>
     <use xlink:href="#mc923d6f05a" x="379.486169" y="155.623927" style="fill: #ff0000; fill-opacity: 0.5"/>
     <use xlink:href="#mc923d6f05a" x="383.217059" y="155.686431" style="fill: #ff0000; fill-opacity: 0.5"/>
     <use xlink:href="#mc923d6f05a" x="386.94795" y="155.718428" style="fill: #ff0000; fill-opacity: 0.5"/>
     <use xlink:href="#mc923d6f05a" x="390.67884" y="155.795682" style="fill: #ff0000; fill-opacity: 0.5"/>
     <use xlink:href="#mc923d6f05a" x="394.409731" y="155.888249" style="fill: #ff0000; fill-opacity: 0.5"/>
     <use xlink:href="#mc923d6f05a" x="398.140622" y="156.012481" style="fill: #ff0000; fill-opacity: 0.5"/>
     <use xlink:href="#mc923d6f05a" x="401.871512" y="156.195125" style="fill: #ff0000; fill-opacity: 0.5"/>
     <use xlink:href="#mc923d6f05a" x="405.602403" y="156.357304" style="fill: #ff0000; fill-opacity: 0.5"/>
     <use xlink:href="#mc923d6f05a" x="409.333293" y="156.521435" style="fill: #ff0000; fill-opacity: 0.5"/>
     <use xlink:href="#mc923d6f05a" x="413.064184" y="156.66593" style="fill: #ff0000; fill-opacity: 0.5"/>
     <use xlink:href="#mc923d6f05a" x="416.795074" y="156.796735" style="fill: #ff0000; fill-opacity: 0.5"/>
     <use xlink:href="#mc923d6f05a" x="420.525965" y="156.972235" style="fill: #ff0000; fill-opacity: 0.5"/>
     <use xlink:href="#mc923d6f05a" x="424.256855" y="157.118043" style="fill: #ff0000; fill-opacity: 0.5"/>
     <use xlink:href="#mc923d6f05a" x="427.987746" y="157.224746" style="fill: #ff0000; fill-opacity: 0.5"/>
     <use xlink:href="#mc923d6f05a" x="431.718636" y="157.298637" style="fill: #ff0000; fill-opacity: 0.5"/>
    </g>
   </g>
   <g id="line2d_15">
    <path d="M 47.81 290.994545 
L 450 290.994545 
" clip-path="url(#p9eb6530af2)" style="fill: none; stroke-dasharray: 0.555,0.24; stroke-dashoffset: 0; stroke: #ff0000; stroke-width: 0.15"/>
   </g>
   <g id="line2d_16">
    <path d="M 47.81 164.54 
L 450 164.54 
" clip-path="url(#p9eb6530af2)" style="fill: none; stroke-dasharray: 0.555,0.24; stroke-dashoffset: 0; stroke: #ff0000; stroke-width: 0.15"/>
   </g>
   <g id="line2d_17">
    <path d="M 47.81 38.085455 
L 450 38.085455 
" clip-path="url(#p9eb6530af2)" style="fill: none; stroke-dasharray: 0.555,0.24; stroke-dashoffset: 0; stroke: #ff0000; stroke-width: 0.15"/>
   </g>
   <g id="patch_3">
    <path d="M 47.81 303.64 
L 47.81 25.44 
" style="fill: none; stroke: #000000; stroke-width: 0.8; stroke-linejoin: miter; stroke-linecap: square"/>
   </g>
   <g id="patch_4">
    <path d="M 450 303.64 
L 450 25.44 
" style="fill: none; stroke: #000000; stroke-width: 0.8; stroke-linejoin: miter; stroke-linecap: square"/>
   </g>
   <g id="patch_5">
    <path d="M 47.81 303.64 
L 450 303.64 
" style="fill: none; stroke: #000000; stroke-width: 0.8; stroke-linejoin: miter; stroke-linecap: square"/>
   </g>
   <g id="patch_6">
    <path d="M 47.81 25.44 
L 450 25.44 
" style="fill: none; stroke: #000000; stroke-width: 0.8; stroke-linejoin: miter; stroke-linecap: square"/>
   </g>
   <g id="text_15">
    <!-- Similarity LLM-RND with sw10 - 28173931-29014202 - 50 games -->
    <g transform="translate(54.22375 19.44) scale(0.12 -0.12)">
     <defs>
      <path id="DejaVuSans-20" transform="scale(0.015625)"/>
      <path id="DejaVuSans-4c" d="M 628 4666 
L 1259 4666 
L 1259 531 
L 3531 531 
L 3531 0 
L 628 0 
L 628 4666 
z
" transform="scale(0.015625)"/>
      <path id="DejaVuSans-4d" d="M 628 4666 
L 1569 4666 
L 2759 1491 
L 3956 4666 
L 4897 4666 
L 4897 0 
L 4281 0 
L 4281 4097 
L 3078 897 
L 2444 897 
L 1241 4097 
L 1241 0 
L 628 0 
L 628 4666 
z
" transform="scale(0.015625)"/>
      <path id="DejaVuSans-2d" d="M 313 2009 
L 1997 2009 
L 1997 1497 
L 313 1497 
L 313 2009 
z
" transform="scale(0.015625)"/>
      <path id="DejaVuSans-52" d="M 2841 2188 
Q 3044 2119 3236 1894 
Q 3428 1669 3622 1275 
L 4263 0 
L 3584 0 
L 2988 1197 
Q 2756 1666 2539 1819 
Q 2322 1972 1947 1972 
L 1259 1972 
L 1259 0 
L 628 0 
L 628 4666 
L 2053 4666 
Q 2853 4666 3247 4331 
Q 3641 3997 3641 3322 
Q 3641 2881 3436 2590 
Q 3231 2300 2841 2188 
z
M 1259 4147 
L 1259 2491 
L 2053 2491 
Q 2509 2491 2742 2702 
Q 2975 2913 2975 3322 
Q 2975 3731 2742 3939 
Q 2509 4147 2053 4147 
L 1259 4147 
z
" transform="scale(0.015625)"/>
      <path id="DejaVuSans-4e" d="M 628 4666 
L 1478 4666 
L 3547 763 
L 3547 4666 
L 4159 4666 
L 4159 0 
L 3309 0 
L 1241 3903 
L 1241 0 
L 628 0 
L 628 4666 
z
" transform="scale(0.015625)"/>
      <path id="DejaVuSans-44" d="M 1259 4147 
L 1259 519 
L 2022 519 
Q 2988 519 3436 956 
Q 3884 1394 3884 2338 
Q 3884 3275 3436 3711 
Q 2988 4147 2022 4147 
L 1259 4147 
z
M 628 4666 
L 1925 4666 
Q 3281 4666 3915 4102 
Q 4550 3538 4550 2338 
Q 4550 1131 3912 565 
Q 3275 0 1925 0 
L 628 0 
L 628 4666 
z
" transform="scale(0.015625)"/>
      <path id="DejaVuSans-77" d="M 269 3500 
L 844 3500 
L 1563 769 
L 2278 3500 
L 2956 3500 
L 3675 769 
L 4391 3500 
L 4966 3500 
L 4050 0 
L 3372 0 
L 2619 2869 
L 1863 0 
L 1184 0 
L 269 3500 
z
" transform="scale(0.015625)"/>
      <path id="DejaVuSans-68" d="M 3513 2113 
L 3513 0 
L 2938 0 
L 2938 2094 
Q 2938 2591 2744 2837 
Q 2550 3084 2163 3084 
Q 1697 3084 1428 2787 
Q 1159 2491 1159 1978 
L 1159 0 
L 581 0 
L 581 4863 
L 1159 4863 
L 1159 2956 
Q 1366 3272 1645 3428 
Q 1925 3584 2291 3584 
Q 2894 3584 3203 3211 
Q 3513 2838 3513 2113 
z
" transform="scale(0.015625)"/>
      <path id="DejaVuSans-73" d="M 2834 3397 
L 2834 2853 
Q 2591 2978 2328 3040 
Q 2066 3103 1784 3103 
Q 1356 3103 1142 2972 
Q 928 2841 928 2578 
Q 928 2378 1081 2264 
Q 1234 2150 1697 2047 
L 1894 2003 
Q 2506 1872 2764 1633 
Q 3022 1394 3022 966 
Q 3022 478 2636 193 
Q 2250 -91 1575 -91 
Q 1294 -91 989 -36 
Q 684 19 347 128 
L 347 722 
Q 666 556 975 473 
Q 1284 391 1588 391 
Q 1994 391 2212 530 
Q 2431 669 2431 922 
Q 2431 1156 2273 1281 
Q 2116 1406 1581 1522 
L 1381 1569 
Q 847 1681 609 1914 
Q 372 2147 372 2553 
Q 372 3047 722 3315 
Q 1072 3584 1716 3584 
Q 2034 3584 2315 3537 
Q 2597 3491 2834 3397 
z
" transform="scale(0.015625)"/>
      <path id="DejaVuSans-37" d="M 525 4666 
L 3525 4666 
L 3525 4397 
L 1831 0 
L 1172 0 
L 2766 4134 
L 525 4134 
L 525 4666 
z
" transform="scale(0.015625)"/>
      <path id="DejaVuSans-33" d="M 2597 2516 
Q 3050 2419 3304 2112 
Q 3559 1806 3559 1356 
Q 3559 666 3084 287 
Q 2609 -91 1734 -91 
Q 1441 -91 1130 -33 
Q 819 25 488 141 
L 488 750 
Q 750 597 1062 519 
Q 1375 441 1716 441 
Q 2309 441 2620 675 
Q 2931 909 2931 1356 
Q 2931 1769 2642 2001 
Q 2353 2234 1838 2234 
L 1294 2234 
L 1294 2753 
L 1863 2753 
Q 2328 2753 2575 2939 
Q 2822 3125 2822 3475 
Q 2822 3834 2567 4026 
Q 2313 4219 1838 4219 
Q 1578 4219 1281 4162 
Q 984 4106 628 3988 
L 628 4550 
Q 988 4650 1302 4700 
Q 1616 4750 1894 4750 
Q 2613 4750 3031 4423 
Q 3450 4097 3450 3541 
Q 3450 3153 3228 2886 
Q 3006 2619 2597 2516 
z
" transform="scale(0.015625)"/>
      <path id="DejaVuSans-39" d="M 703 97 
L 703 672 
Q 941 559 1184 500 
Q 1428 441 1663 441 
Q 2288 441 2617 861 
Q 2947 1281 2994 2138 
Q 2813 1869 2534 1725 
Q 2256 1581 1919 1581 
Q 1219 1581 811 2004 
Q 403 2428 403 3163 
Q 403 3881 828 4315 
Q 1253 4750 1959 4750 
Q 2769 4750 3195 4129 
Q 3622 3509 3622 2328 
Q 3622 1225 3098 567 
Q 2575 -91 1691 -91 
Q 1453 -91 1209 -44 
Q 966 3 703 97 
z
M 1959 2075 
Q 2384 2075 2632 2365 
Q 2881 2656 2881 3163 
Q 2881 3666 2632 3958 
Q 2384 4250 1959 4250 
Q 1534 4250 1286 3958 
Q 1038 3666 1038 3163 
Q 1038 2656 1286 2365 
Q 1534 2075 1959 2075 
z
" transform="scale(0.015625)"/>
      <path id="DejaVuSans-35" d="M 691 4666 
L 3169 4666 
L 3169 4134 
L 1269 4134 
L 1269 2991 
Q 1406 3038 1543 3061 
Q 1681 3084 1819 3084 
Q 2600 3084 3056 2656 
Q 3513 2228 3513 1497 
Q 3513 744 3044 326 
Q 2575 -91 1722 -91 
Q 1428 -91 1123 -41 
Q 819 9 494 109 
L 494 744 
Q 775 591 1075 516 
Q 1375 441 1709 441 
Q 2250 441 2565 725 
Q 2881 1009 2881 1497 
Q 2881 1984 2565 2268 
Q 2250 2553 1709 2553 
Q 1456 2553 1204 2497 
Q 953 2441 691 2322 
L 691 4666 
z
" transform="scale(0.015625)"/>
      <path id="DejaVuSans-67" d="M 2906 1791 
Q 2906 2416 2648 2759 
Q 2391 3103 1925 3103 
Q 1463 3103 1205 2759 
Q 947 2416 947 1791 
Q 947 1169 1205 825 
Q 1463 481 1925 481 
Q 2391 481 2648 825 
Q 2906 1169 2906 1791 
z
M 3481 434 
Q 3481 -459 3084 -895 
Q 2688 -1331 1869 -1331 
Q 1566 -1331 1297 -1286 
Q 1028 -1241 775 -1147 
L 775 -588 
Q 1028 -725 1275 -790 
Q 1522 -856 1778 -856 
Q 2344 -856 2625 -561 
Q 2906 -266 2906 331 
L 2906 616 
Q 2728 306 2450 153 
Q 2172 0 1784 0 
Q 1141 0 747 490 
Q 353 981 353 1791 
Q 353 2603 747 3093 
Q 1141 3584 1784 3584 
Q 2172 3584 2450 3431 
Q 2728 3278 2906 2969 
L 2906 3500 
L 3481 3500 
L 3481 434 
z
" transform="scale(0.015625)"/>
     </defs>
     <use xlink:href="#DejaVuSans-53"/>
     <use xlink:href="#DejaVuSans-69" x="63.476562"/>
     <use xlink:href="#DejaVuSans-6d" x="91.259766"/>
     <use xlink:href="#DejaVuSans-69" x="188.671875"/>
     <use xlink:href="#DejaVuSans-6c" x="216.455078"/>
     <use xlink:href="#DejaVuSans-61" x="244.238281"/>
     <use xlink:href="#DejaVuSans-72" x="305.517578"/>
     <use xlink:href="#DejaVuSans-69" x="346.630859"/>
     <use xlink:href="#DejaVuSans-74" x="374.414062"/>
     <use xlink:href="#DejaVuSans-79" x="413.623047"/>
     <use xlink:href="#DejaVuSans-20" x="472.802734"/>
     <use xlink:href="#DejaVuSans-4c" x="504.589844"/>
     <use xlink:href="#DejaVuSans-4c" x="560.302734"/>
     <use xlink:href="#DejaVuSans-4d" x="616.015625"/>
     <use xlink:href="#DejaVuSans-2d" x="702.294922"/>
     <use xlink:href="#DejaVuSans-52" x="738.378906"/>
     <use xlink:href="#DejaVuSans-4e" x="807.861328"/>
     <use xlink:href="#DejaVuSans-44" x="882.666016"/>
     <use xlink:href="#DejaVuSans-20" x="959.667969"/>
     <use xlink:href="#DejaVuSans-77" x="991.455078"/>
     <use xlink:href="#DejaVuSans-69" x="1073.242188"/>
     <use xlink:href="#DejaVuSans-74" x="1101.025391"/>
     <use xlink:href="#DejaVuSans-68" x="1140.234375"/>
     <use xlink:href="#DejaVuSans-20" x="1203.613281"/>
     <use xlink:href="#DejaVuSans-73" x="1235.400391"/>
     <use xlink:href="#DejaVuSans-77" x="1287.5"/>
     <use xlink:href="#DejaVuSans-31" x="1369.287109"/>
     <use xlink:href="#DejaVuSans-30" x="1432.910156"/>
     <use xlink:href="#DejaVuSans-20" x="1496.533203"/>
     <use xlink:href="#DejaVuSans-2d" x="1528.320312"/>
     <use xlink:href="#DejaVuSans-20" x="1564.404297"/>
     <use xlink:href="#DejaVuSans-32" x="1596.191406"/>
     <use xlink:href="#DejaVuSans-38" x="1659.814453"/>
     <use xlink:href="#DejaVuSans-31" x="1723.4375"/>
     <use xlink:href="#DejaVuSans-37" x="1787.060547"/>
     <use xlink:href="#DejaVuSans-33" x="1850.683594"/>
     <use xlink:href="#DejaVuSans-39" x="1914.306641"/>
     <use xlink:href="#DejaVuSans-33" x="1977.929688"/>
     <use xlink:href="#DejaVuSans-31" x="2041.552734"/>
     <use xlink:href="#DejaVuSans-2d" x="2105.175781"/>
     <use xlink:href="#DejaVuSans-32" x="2141.259766"/>
     <use xlink:href="#DejaVuSans-39" x="2204.882812"/>
     <use xlink:href="#DejaVuSans-30" x="2268.505859"/>
     <use xlink:href="#DejaVuSans-31" x="2332.128906"/>
     <use xlink:href="#DejaVuSans-34" x="2395.751953"/>
     <use xlink:href="#DejaVuSans-32" x="2459.375"/>
     <use xlink:href="#DejaVuSans-30" x="2522.998047"/>
     <use xlink:href="#DejaVuSans-32" x="2586.621094"/>
     <use xlink:href="#DejaVuSans-20" x="2650.244141"/>
     <use xlink:href="#DejaVuSans-2d" x="2682.03125"/>
     <use xlink:href="#DejaVuSans-20" x="2718.115234"/>
     <use xlink:href="#DejaVuSans-35" x="2749.902344"/>
     <use xlink:href="#DejaVuSans-30" x="2813.525391"/>
     <use xlink:href="#DejaVuSans-20" x="2877.148438"/>
     <use xlink:href="#DejaVuSans-67" x="2908.935547"/>
     <use xlink:href="#DejaVuSans-61" x="2972.412109"/>
     <use xlink:href="#DejaVuSans-6d" x="3033.691406"/>
     <use xlink:href="#DejaVuSans-65" x="3131.103516"/>
     <use xlink:href="#DejaVuSans-73" x="3192.626953"/>
    </g>
   </g>
   <g id="legend_1">
    <g id="patch_7">
     <path d="M 333.953125 62.79625 
L 443 62.79625 
Q 445 62.79625 445 60.79625 
L 445 32.44 
Q 445 30.44 443 30.44 
L 333.953125 30.44 
Q 331.953125 30.44 331.953125 32.44 
L 331.953125 60.79625 
Q 331.953125 62.79625 333.953125 62.79625 
z
" style="fill: #ffffff; opacity: 0.8; stroke: #cccccc; stroke-linejoin: miter"/>
    </g>
    <g id="line2d_18">
     <path d="M 335.953125 38.538437 
L 345.953125 38.538437 
L 355.953125 38.538437 
" style="fill: none; stroke: #0000ff; stroke-linecap: square"/>
     <g>
      <use xlink:href="#m46d5a6585d" x="345.953125" y="38.538437" style="fill: #0000ff"/>
     </g>
    </g>
    <g id="text_16">
     <!-- LLM-RND -->
     <g transform="translate(363.953125 42.038437) scale(0.1 -0.1)">
      <use xlink:href="#DejaVuSans-4c"/>
      <use xlink:href="#DejaVuSans-4c" x="55.712891"/>
      <use xlink:href="#DejaVuSans-4d" x="111.425781"/>
      <use xlink:href="#DejaVuSans-2d" x="197.705078"/>
      <use xlink:href="#DejaVuSans-52" x="233.789062"/>
      <use xlink:href="#DejaVuSans-4e" x="303.271484"/>
      <use xlink:href="#DejaVuSans-44" x="378.076172"/>
     </g>
    </g>
    <g id="line2d_19">
     <path d="M 335.953125 53.216562 
L 345.953125 53.216562 
L 355.953125 53.216562 
" style="fill: none; stroke: #ff0000; stroke-opacity: 0.5; stroke-width: 0.5; stroke-linecap: square"/>
     <g>
      <use xlink:href="#mc923d6f05a" x="345.953125" y="53.216562" style="fill: #ff0000; fill-opacity: 0.5"/>
     </g>
    </g>
    <g id="text_17">
     <!-- LLM-RND mean -->
     <g transform="translate(363.953125 56.716562) scale(0.1 -0.1)">
      <use xlink:href="#DejaVuSans-4c"/>
      <use xlink:href="#DejaVuSans-4c" x="55.712891"/>
      <use xlink:href="#DejaVuSans-4d" x="111.425781"/>
      <use xlink:href="#DejaVuSans-2d" x="197.705078"/>
      <use xlink:href="#DejaVuSans-52" x="233.789062"/>
      <use xlink:href="#DejaVuSans-4e" x="303.271484"/>
      <use xlink:href="#DejaVuSans-44" x="378.076172"/>
      <use xlink:href="#DejaVuSans-20" x="455.078125"/>
      <use xlink:href="#DejaVuSans-6d" x="486.865234"/>
      <use xlink:href="#DejaVuSans-65" x="584.277344"/>
      <use xlink:href="#DejaVuSans-61" x="645.800781"/>
      <use xlink:href="#DejaVuSans-6e" x="707.080078"/>
     </g>
    </g>
   </g>
  </g>
 </g>
 <defs>
  <clipPath id="p9eb6530af2">
   <rect x="47.81" y="25.44" width="402.19" height="278.2"/>
  </clipPath>
 </defs>
</svg>
