<?xml version="1.0" encoding="utf-8" standalone="no"?>
<!DOCTYPE svg PUBLIC "-//W3C//DTD SVG 1.1//EN"
  "http://www.w3.org/Graphics/SVG/1.1/DTD/svg11.dtd">
<svg xmlns:xlink="http://www.w3.org/1999/xlink" width="460.8pt" height="345.6pt" viewBox="0 0 460.8 345.6" xmlns="http://www.w3.org/2000/svg" version="1.1">
 <metadata>
  <rdf:RDF xmlns:dc="http://purl.org/dc/elements/1.1/" xmlns:cc="http://creativecommons.org/ns#" xmlns:rdf="http://www.w3.org/1999/02/22-rdf-syntax-ns#">
   <cc:Work>
    <dc:type rdf:resource="http://purl.org/dc/dcmitype/StillImage"/>
    <dc:date>2024-04-10T11:52:50.880155</dc:date>
    <dc:format>image/svg+xml</dc:format>
    <dc:creator>
     <cc:Agent>
      <dc:title>Matplotlib v3.8.0, https://matplotlib.org/</dc:title>
     </cc:Agent>
    </dc:creator>
   </cc:Work>
  </rdf:RDF>
 </metadata>
 <defs>
  <style type="text/css">*{stroke-linejoin: round; stroke-linecap: butt}</style>
 </defs>
 <g id="figure_1">
  <g id="patch_1">
   <path d="M 0 345.6 
L 460.8 345.6 
L 460.8 0 
L 0 0 
z
" style="fill: #ffffff"/>
  </g>
  <g id="axes_1">
   <g id="patch_2">
    <path d="M 47.81 303.64 
L 450 303.64 
L 450 25.44 
L 47.81 25.44 
z
" style="fill: #ffffff"/>
   </g>
   <g id="PolyCollection_1">
    <defs>
     <path id="m20ac1e4f8b" d="M 66.091364 -256.932727 
L 66.091364 -256.932727 
L 69.822254 -259.027895 
L 73.553145 -259.440729 
L 77.284035 -255.926972 
L 81.014926 -251.494847 
L 84.745816 -247.133382 
L 88.476707 -243.458389 
L 92.207597 -240.421273 
L 95.938488 -238.108244 
L 99.669378 -235.230957 
L 103.400269 -234.157768 
L 107.13116 -232.195379 
L 110.86205 -230.388363 
L 114.592941 -229.274588 
L 118.323831 -227.834578 
L 122.054722 -226.442459 
L 125.785612 -225.264471 
L 129.516503 -224.193957 
L 133.247393 -223.016099 
L 136.978284 -221.90367 
L 140.709174 -220.956319 
L 144.440065 -220.427524 
L 148.170955 -219.415793 
L 151.901846 -218.409823 
L 155.632737 -217.630982 
L 159.363627 -216.901362 
L 163.094518 -216.114094 
L 166.825408 -215.903488 
L 170.556299 -215.504984 
L 174.287189 -215.047541 
L 178.01808 -214.44043 
L 181.74897 -213.825709 
L 185.479861 -213.446869 
L 189.210751 -212.967417 
L 192.941642 -212.386421 
L 196.672532 -212.006757 
L 200.403423 -211.548026 
L 204.134314 -211.031313 
L 207.865204 -210.996435 
L 211.596095 -210.678297 
L 215.326985 -210.32446 
L 219.057876 -210.22289 
L 222.788766 -209.853961 
L 226.519657 -209.498508 
L 230.250547 -209.105358 
L 233.981438 -208.724627 
L 237.712328 -208.740246 
L 241.443219 -208.832484 
L 245.174109 -208.705638 
L 248.905 -209.062703 
L 252.635891 -209.50099 
L 256.366781 -209.365551 
L 260.097672 -209.141689 
L 263.828562 -208.834906 
L 267.559453 -208.836374 
L 271.290343 -208.52572 
L 275.021234 -208.221635 
L 278.752124 -207.911947 
L 282.483015 -207.668292 
L 286.213905 -207.591386 
L 289.944796 -207.515682 
L 293.675686 -207.49413 
L 297.406577 -207.373654 
L 301.137468 -207.103246 
L 304.868358 -206.849835 
L 308.599249 -206.669963 
L 312.330139 -206.566735 
L 316.06103 -206.367252 
L 319.79192 -206.172447 
L 323.522811 -206.008869 
L 327.253701 -205.822642 
L 330.984592 -205.604369 
L 334.715482 -205.3756 
L 338.446373 -205.181561 
L 342.177263 -204.975931 
L 345.908154 -204.758289 
L 349.639045 -204.547354 
L 353.369935 -204.335622 
L 357.100826 -204.276099 
L 360.831716 -204.217377 
L 364.562607 -204.293824 
L 368.293497 -204.200635 
L 372.024388 -204.05555 
L 375.755278 -203.893875 
L 379.486169 -203.731619 
L 383.217059 -203.648791 
L 386.94795 -203.727841 
L 390.67884 -203.557878 
L 394.409731 -203.399538 
L 398.140622 -203.221615 
L 401.871512 -203.118529 
L 405.602403 -202.940252 
L 409.333293 -202.875244 
L 413.064184 -202.782822 
L 416.795074 -202.621332 
L 420.525965 -202.451761 
L 424.256855 -202.393708 
L 427.987746 -202.443568 
L 431.718636 -202.491637 
L 431.718636 -170.460025 
L 431.718636 -170.460025 
L 427.987746 -170.308937 
L 424.256855 -170.155533 
L 420.525965 -170.04805 
L 416.795074 -170.200716 
L 413.064184 -170.260698 
L 409.333293 -170.176956 
L 405.602403 -170.065835 
L 401.871512 -170.285107 
L 398.140622 -170.869416 
L 394.409731 -171.110166 
L 390.67884 -171.494973 
L 386.94795 -171.822504 
L 383.217059 -171.646008 
L 379.486169 -171.539654 
L 375.755278 -171.955476 
L 372.024388 -171.959215 
L 368.293497 -171.921893 
L 364.562607 -171.814234 
L 360.831716 -171.622941 
L 357.100826 -171.481784 
L 353.369935 -171.337711 
L 349.639045 -171.499069 
L 345.908154 -171.804151 
L 342.177263 -171.981403 
L 338.446373 -172.044631 
L 334.715482 -172.057526 
L 330.984592 -172.322449 
L 327.253701 -172.398049 
L 323.522811 -172.369572 
L 319.79192 -172.295011 
L 316.06103 -172.266224 
L 312.330139 -172.237716 
L 308.599249 -172.080725 
L 304.868358 -172.001074 
L 301.137468 -172.088118 
L 297.406577 -172.249261 
L 293.675686 -172.084756 
L 289.944796 -171.851889 
L 286.213905 -171.642129 
L 282.483015 -171.426624 
L 278.752124 -171.38843 
L 275.021234 -171.557631 
L 271.290343 -171.659215 
L 267.559453 -172.228816 
L 263.828562 -173.798831 
L 260.097672 -174.356287 
L 256.366781 -174.251721 
L 252.635891 -174.041898 
L 248.905 -173.694679 
L 245.174109 -173.337405 
L 241.443219 -173.098729 
L 237.712328 -172.751514 
L 233.981438 -172.418535 
L 230.250547 -172.572945 
L 226.519657 -172.739261 
L 222.788766 -172.73403 
L 219.057876 -172.732002 
L 215.326985 -172.398378 
L 211.596095 -172.306703 
L 207.865204 -172.134474 
L 204.134314 -171.720744 
L 200.403423 -172.03507 
L 196.672532 -172.032031 
L 192.941642 -171.845059 
L 189.210751 -172.211942 
L 185.479861 -172.124701 
L 181.74897 -171.84645 
L 178.01808 -171.991477 
L 174.287189 -172.026156 
L 170.556299 -171.731505 
L 166.825408 -171.326772 
L 163.094518 -170.734795 
L 159.363627 -170.898638 
L 155.632737 -170.791563 
L 151.901846 -170.687146 
L 148.170955 -171.29393 
L 144.440065 -172.961236 
L 140.709174 -176.570954 
L 136.978284 -178.658512 
L 133.247393 -179.569356 
L 129.516503 -180.639578 
L 125.785612 -180.593925 
L 122.054722 -180.568905 
L 118.323831 -182.843967 
L 114.592941 -183.065932 
L 110.86205 -182.313456 
L 107.13116 -182.614015 
L 103.400269 -182.682563 
L 99.669378 -181.011589 
L 95.938488 -182.461857 
L 92.207597 -189.984181 
L 88.476707 -195.256936 
L 84.745816 -199.289648 
L 81.014926 -203.695698 
L 77.284035 -212.414846 
L 73.553145 -225.761695 
L 69.822254 -244.721196 
L 66.091364 -256.932727 
z
" style="stroke: #ff0000; stroke-opacity: 0.2"/>
    </defs>
    <g clip-path="url(#p6cc065922e)">
     <use xlink:href="#m20ac1e4f8b" x="0" y="345.6" style="fill: #ff0000; fill-opacity: 0.2; stroke: #ff0000; stroke-opacity: 0.2"/>
    </g>
   </g>
   <g id="matplotlib.axis_1">
    <g id="xtick_1">
     <g id="line2d_1">
      <defs>
       <path id="me4ebe6c6cc" d="M 0 0 
L 0 3.5 
" style="stroke: #000000; stroke-width: 0.8"/>
      </defs>
      <g>
       <use xlink:href="#me4ebe6c6cc" x="66.091364" y="303.64" style="stroke: #000000; stroke-width: 0.8"/>
      </g>
     </g>
     <g id="text_1">
      <!-- 0 -->
      <g transform="translate(62.910114 318.238437) scale(0.1 -0.1)">
       <defs>
        <path id="DejaVuSans-30" d="M 2034 4250 
Q 1547 4250 1301 3770 
Q 1056 3291 1056 2328 
Q 1056 1369 1301 889 
Q 1547 409 2034 409 
Q 2525 409 2770 889 
Q 3016 1369 3016 2328 
Q 3016 3291 2770 3770 
Q 2525 4250 2034 4250 
z
M 2034 4750 
Q 2819 4750 3233 4129 
Q 3647 3509 3647 2328 
Q 3647 1150 3233 529 
Q 2819 -91 2034 -91 
Q 1250 -91 836 529 
Q 422 1150 422 2328 
Q 422 3509 836 4129 
Q 1250 4750 2034 4750 
z
" transform="scale(0.015625)"/>
       </defs>
       <use xlink:href="#DejaVuSans-30"/>
      </g>
     </g>
    </g>
    <g id="xtick_2">
     <g id="line2d_2">
      <g>
       <use xlink:href="#me4ebe6c6cc" x="140.709174" y="303.64" style="stroke: #000000; stroke-width: 0.8"/>
      </g>
     </g>
     <g id="text_2">
      <!-- 20 -->
      <g transform="translate(134.346674 318.238437) scale(0.1 -0.1)">
       <defs>
        <path id="DejaVuSans-32" d="M 1228 531 
L 3431 531 
L 3431 0 
L 469 0 
L 469 531 
Q 828 903 1448 1529 
Q 2069 2156 2228 2338 
Q 2531 2678 2651 2914 
Q 2772 3150 2772 3378 
Q 2772 3750 2511 3984 
Q 2250 4219 1831 4219 
Q 1534 4219 1204 4116 
Q 875 4013 500 3803 
L 500 4441 
Q 881 4594 1212 4672 
Q 1544 4750 1819 4750 
Q 2544 4750 2975 4387 
Q 3406 4025 3406 3419 
Q 3406 3131 3298 2873 
Q 3191 2616 2906 2266 
Q 2828 2175 2409 1742 
Q 1991 1309 1228 531 
z
" transform="scale(0.015625)"/>
       </defs>
       <use xlink:href="#DejaVuSans-32"/>
       <use xlink:href="#DejaVuSans-30" x="63.623047"/>
      </g>
     </g>
    </g>
    <g id="xtick_3">
     <g id="line2d_3">
      <g>
       <use xlink:href="#me4ebe6c6cc" x="215.326985" y="303.64" style="stroke: #000000; stroke-width: 0.8"/>
      </g>
     </g>
     <g id="text_3">
      <!-- 40 -->
      <g transform="translate(208.964485 318.238437) scale(0.1 -0.1)">
       <defs>
        <path id="DejaVuSans-34" d="M 2419 4116 
L 825 1625 
L 2419 1625 
L 2419 4116 
z
M 2253 4666 
L 3047 4666 
L 3047 1625 
L 3713 1625 
L 3713 1100 
L 3047 1100 
L 3047 0 
L 2419 0 
L 2419 1100 
L 313 1100 
L 313 1709 
L 2253 4666 
z
" transform="scale(0.015625)"/>
       </defs>
       <use xlink:href="#DejaVuSans-34"/>
       <use xlink:href="#DejaVuSans-30" x="63.623047"/>
      </g>
     </g>
    </g>
    <g id="xtick_4">
     <g id="line2d_4">
      <g>
       <use xlink:href="#me4ebe6c6cc" x="289.944796" y="303.64" style="stroke: #000000; stroke-width: 0.8"/>
      </g>
     </g>
     <g id="text_4">
      <!-- 60 -->
      <g transform="translate(283.582296 318.238437) scale(0.1 -0.1)">
       <defs>
        <path id="DejaVuSans-36" d="M 2113 2584 
Q 1688 2584 1439 2293 
Q 1191 2003 1191 1497 
Q 1191 994 1439 701 
Q 1688 409 2113 409 
Q 2538 409 2786 701 
Q 3034 994 3034 1497 
Q 3034 2003 2786 2293 
Q 2538 2584 2113 2584 
z
M 3366 4563 
L 3366 3988 
Q 3128 4100 2886 4159 
Q 2644 4219 2406 4219 
Q 1781 4219 1451 3797 
Q 1122 3375 1075 2522 
Q 1259 2794 1537 2939 
Q 1816 3084 2150 3084 
Q 2853 3084 3261 2657 
Q 3669 2231 3669 1497 
Q 3669 778 3244 343 
Q 2819 -91 2113 -91 
Q 1303 -91 875 529 
Q 447 1150 447 2328 
Q 447 3434 972 4092 
Q 1497 4750 2381 4750 
Q 2619 4750 2861 4703 
Q 3103 4656 3366 4563 
z
" transform="scale(0.015625)"/>
       </defs>
       <use xlink:href="#DejaVuSans-36"/>
       <use xlink:href="#DejaVuSans-30" x="63.623047"/>
      </g>
     </g>
    </g>
    <g id="xtick_5">
     <g id="line2d_5">
      <g>
       <use xlink:href="#me4ebe6c6cc" x="364.562607" y="303.64" style="stroke: #000000; stroke-width: 0.8"/>
      </g>
     </g>
     <g id="text_5">
      <!-- 80 -->
      <g transform="translate(358.200107 318.238437) scale(0.1 -0.1)">
       <defs>
        <path id="DejaVuSans-38" d="M 2034 2216 
Q 1584 2216 1326 1975 
Q 1069 1734 1069 1313 
Q 1069 891 1326 650 
Q 1584 409 2034 409 
Q 2484 409 2743 651 
Q 3003 894 3003 1313 
Q 3003 1734 2745 1975 
Q 2488 2216 2034 2216 
z
M 1403 2484 
Q 997 2584 770 2862 
Q 544 3141 544 3541 
Q 544 4100 942 4425 
Q 1341 4750 2034 4750 
Q 2731 4750 3128 4425 
Q 3525 4100 3525 3541 
Q 3525 3141 3298 2862 
Q 3072 2584 2669 2484 
Q 3125 2378 3379 2068 
Q 3634 1759 3634 1313 
Q 3634 634 3220 271 
Q 2806 -91 2034 -91 
Q 1263 -91 848 271 
Q 434 634 434 1313 
Q 434 1759 690 2068 
Q 947 2378 1403 2484 
z
M 1172 3481 
Q 1172 3119 1398 2916 
Q 1625 2713 2034 2713 
Q 2441 2713 2670 2916 
Q 2900 3119 2900 3481 
Q 2900 3844 2670 4047 
Q 2441 4250 2034 4250 
Q 1625 4250 1398 4047 
Q 1172 3844 1172 3481 
z
" transform="scale(0.015625)"/>
       </defs>
       <use xlink:href="#DejaVuSans-38"/>
       <use xlink:href="#DejaVuSans-30" x="63.623047"/>
      </g>
     </g>
    </g>
    <g id="xtick_6">
     <g id="line2d_6">
      <g>
       <use xlink:href="#me4ebe6c6cc" x="439.180417" y="303.64" style="stroke: #000000; stroke-width: 0.8"/>
      </g>
     </g>
     <g id="text_6">
      <!-- 100 -->
      <g transform="translate(429.636667 318.238437) scale(0.1 -0.1)">
       <defs>
        <path id="DejaVuSans-31" d="M 794 531 
L 1825 531 
L 1825 4091 
L 703 3866 
L 703 4441 
L 1819 4666 
L 2450 4666 
L 2450 531 
L 3481 531 
L 3481 0 
L 794 0 
L 794 531 
z
" transform="scale(0.015625)"/>
       </defs>
       <use xlink:href="#DejaVuSans-31"/>
       <use xlink:href="#DejaVuSans-30" x="63.623047"/>
       <use xlink:href="#DejaVuSans-30" x="127.246094"/>
      </g>
     </g>
    </g>
    <g id="text_7">
     <!-- Iteration -->
     <g transform="translate(227.696406 331.916562) scale(0.1 -0.1)">
      <defs>
       <path id="DejaVuSans-49" d="M 628 4666 
L 1259 4666 
L 1259 0 
L 628 0 
L 628 4666 
z
" transform="scale(0.015625)"/>
       <path id="DejaVuSans-74" d="M 1172 4494 
L 1172 3500 
L 2356 3500 
L 2356 3053 
L 1172 3053 
L 1172 1153 
Q 1172 725 1289 603 
Q 1406 481 1766 481 
L 2356 481 
L 2356 0 
L 1766 0 
Q 1100 0 847 248 
Q 594 497 594 1153 
L 594 3053 
L 172 3053 
L 172 3500 
L 594 3500 
L 594 4494 
L 1172 4494 
z
" transform="scale(0.015625)"/>
       <path id="DejaVuSans-65" d="M 3597 1894 
L 3597 1613 
L 953 1613 
Q 991 1019 1311 708 
Q 1631 397 2203 397 
Q 2534 397 2845 478 
Q 3156 559 3463 722 
L 3463 178 
Q 3153 47 2828 -22 
Q 2503 -91 2169 -91 
Q 1331 -91 842 396 
Q 353 884 353 1716 
Q 353 2575 817 3079 
Q 1281 3584 2069 3584 
Q 2775 3584 3186 3129 
Q 3597 2675 3597 1894 
z
M 3022 2063 
Q 3016 2534 2758 2815 
Q 2500 3097 2075 3097 
Q 1594 3097 1305 2825 
Q 1016 2553 972 2059 
L 3022 2063 
z
" transform="scale(0.015625)"/>
       <path id="DejaVuSans-72" d="M 2631 2963 
Q 2534 3019 2420 3045 
Q 2306 3072 2169 3072 
Q 1681 3072 1420 2755 
Q 1159 2438 1159 1844 
L 1159 0 
L 581 0 
L 581 3500 
L 1159 3500 
L 1159 2956 
Q 1341 3275 1631 3429 
Q 1922 3584 2338 3584 
Q 2397 3584 2469 3576 
Q 2541 3569 2628 3553 
L 2631 2963 
z
" transform="scale(0.015625)"/>
       <path id="DejaVuSans-61" d="M 2194 1759 
Q 1497 1759 1228 1600 
Q 959 1441 959 1056 
Q 959 750 1161 570 
Q 1363 391 1709 391 
Q 2188 391 2477 730 
Q 2766 1069 2766 1631 
L 2766 1759 
L 2194 1759 
z
M 3341 1997 
L 3341 0 
L 2766 0 
L 2766 531 
Q 2569 213 2275 61 
Q 1981 -91 1556 -91 
Q 1019 -91 701 211 
Q 384 513 384 1019 
Q 384 1609 779 1909 
Q 1175 2209 1959 2209 
L 2766 2209 
L 2766 2266 
Q 2766 2663 2505 2880 
Q 2244 3097 1772 3097 
Q 1472 3097 1187 3025 
Q 903 2953 641 2809 
L 641 3341 
Q 956 3463 1253 3523 
Q 1550 3584 1831 3584 
Q 2591 3584 2966 3190 
Q 3341 2797 3341 1997 
z
" transform="scale(0.015625)"/>
       <path id="DejaVuSans-69" d="M 603 3500 
L 1178 3500 
L 1178 0 
L 603 0 
L 603 3500 
z
M 603 4863 
L 1178 4863 
L 1178 4134 
L 603 4134 
L 603 4863 
z
" transform="scale(0.015625)"/>
       <path id="DejaVuSans-6f" d="M 1959 3097 
Q 1497 3097 1228 2736 
Q 959 2375 959 1747 
Q 959 1119 1226 758 
Q 1494 397 1959 397 
Q 2419 397 2687 759 
Q 2956 1122 2956 1747 
Q 2956 2369 2687 2733 
Q 2419 3097 1959 3097 
z
M 1959 3584 
Q 2709 3584 3137 3096 
Q 3566 2609 3566 1747 
Q 3566 888 3137 398 
Q 2709 -91 1959 -91 
Q 1206 -91 779 398 
Q 353 888 353 1747 
Q 353 2609 779 3096 
Q 1206 3584 1959 3584 
z
" transform="scale(0.015625)"/>
       <path id="DejaVuSans-6e" d="M 3513 2113 
L 3513 0 
L 2938 0 
L 2938 2094 
Q 2938 2591 2744 2837 
Q 2550 3084 2163 3084 
Q 1697 3084 1428 2787 
Q 1159 2491 1159 1978 
L 1159 0 
L 581 0 
L 581 3500 
L 1159 3500 
L 1159 2956 
Q 1366 3272 1645 3428 
Q 1925 3584 2291 3584 
Q 2894 3584 3203 3211 
Q 3513 2838 3513 2113 
z
" transform="scale(0.015625)"/>
      </defs>
      <use xlink:href="#DejaVuSans-49"/>
      <use xlink:href="#DejaVuSans-74" x="29.492188"/>
      <use xlink:href="#DejaVuSans-65" x="68.701172"/>
      <use xlink:href="#DejaVuSans-72" x="130.224609"/>
      <use xlink:href="#DejaVuSans-61" x="171.337891"/>
      <use xlink:href="#DejaVuSans-74" x="232.617188"/>
      <use xlink:href="#DejaVuSans-69" x="271.826172"/>
      <use xlink:href="#DejaVuSans-6f" x="299.609375"/>
      <use xlink:href="#DejaVuSans-6e" x="360.791016"/>
     </g>
    </g>
   </g>
   <g id="matplotlib.axis_2">
    <g id="ytick_1">
     <g id="line2d_7">
      <defs>
       <path id="m5027374a98" d="M 0 0 
L -3.5 0 
" style="stroke: #000000; stroke-width: 0.8"/>
      </defs>
      <g>
       <use xlink:href="#m5027374a98" x="47.81" y="290.994545" style="stroke: #000000; stroke-width: 0.8"/>
      </g>
     </g>
     <g id="text_8">
      <!-- 0.0 -->
      <g transform="translate(24.906875 294.793764) scale(0.1 -0.1)">
       <defs>
        <path id="DejaVuSans-2e" d="M 684 794 
L 1344 794 
L 1344 0 
L 684 0 
L 684 794 
z
" transform="scale(0.015625)"/>
       </defs>
       <use xlink:href="#DejaVuSans-30"/>
       <use xlink:href="#DejaVuSans-2e" x="63.623047"/>
       <use xlink:href="#DejaVuSans-30" x="95.410156"/>
      </g>
     </g>
    </g>
    <g id="ytick_2">
     <g id="line2d_8">
      <g>
       <use xlink:href="#m5027374a98" x="47.81" y="240.412727" style="stroke: #000000; stroke-width: 0.8"/>
      </g>
     </g>
     <g id="text_9">
      <!-- 0.2 -->
      <g transform="translate(24.906875 244.211946) scale(0.1 -0.1)">
       <use xlink:href="#DejaVuSans-30"/>
       <use xlink:href="#DejaVuSans-2e" x="63.623047"/>
       <use xlink:href="#DejaVuSans-32" x="95.410156"/>
      </g>
     </g>
    </g>
    <g id="ytick_3">
     <g id="line2d_9">
      <g>
       <use xlink:href="#m5027374a98" x="47.81" y="189.830909" style="stroke: #000000; stroke-width: 0.8"/>
      </g>
     </g>
     <g id="text_10">
      <!-- 0.4 -->
      <g transform="translate(24.906875 193.630128) scale(0.1 -0.1)">
       <use xlink:href="#DejaVuSans-30"/>
       <use xlink:href="#DejaVuSans-2e" x="63.623047"/>
       <use xlink:href="#DejaVuSans-34" x="95.410156"/>
      </g>
     </g>
    </g>
    <g id="ytick_4">
     <g id="line2d_10">
      <g>
       <use xlink:href="#m5027374a98" x="47.81" y="139.249091" style="stroke: #000000; stroke-width: 0.8"/>
      </g>
     </g>
     <g id="text_11">
      <!-- 0.6 -->
      <g transform="translate(24.906875 143.04831) scale(0.1 -0.1)">
       <use xlink:href="#DejaVuSans-30"/>
       <use xlink:href="#DejaVuSans-2e" x="63.623047"/>
       <use xlink:href="#DejaVuSans-36" x="95.410156"/>
      </g>
     </g>
    </g>
    <g id="ytick_5">
     <g id="line2d_11">
      <g>
       <use xlink:href="#m5027374a98" x="47.81" y="88.667273" style="stroke: #000000; stroke-width: 0.8"/>
      </g>
     </g>
     <g id="text_12">
      <!-- 0.8 -->
      <g transform="translate(24.906875 92.466491) scale(0.1 -0.1)">
       <use xlink:href="#DejaVuSans-30"/>
       <use xlink:href="#DejaVuSans-2e" x="63.623047"/>
       <use xlink:href="#DejaVuSans-38" x="95.410156"/>
      </g>
     </g>
    </g>
    <g id="ytick_6">
     <g id="line2d_12">
      <g>
       <use xlink:href="#m5027374a98" x="47.81" y="38.085455" style="stroke: #000000; stroke-width: 0.8"/>
      </g>
     </g>
     <g id="text_13">
      <!-- 1.0 -->
      <g transform="translate(24.906875 41.884673) scale(0.1 -0.1)">
       <use xlink:href="#DejaVuSans-31"/>
       <use xlink:href="#DejaVuSans-2e" x="63.623047"/>
       <use xlink:href="#DejaVuSans-30" x="95.410156"/>
      </g>
     </g>
    </g>
    <g id="text_14">
     <!-- Similarity -->
     <g transform="translate(18.827187 188.179844) rotate(-90) scale(0.1 -0.1)">
      <defs>
       <path id="DejaVuSans-53" d="M 3425 4513 
L 3425 3897 
Q 3066 4069 2747 4153 
Q 2428 4238 2131 4238 
Q 1616 4238 1336 4038 
Q 1056 3838 1056 3469 
Q 1056 3159 1242 3001 
Q 1428 2844 1947 2747 
L 2328 2669 
Q 3034 2534 3370 2195 
Q 3706 1856 3706 1288 
Q 3706 609 3251 259 
Q 2797 -91 1919 -91 
Q 1588 -91 1214 -16 
Q 841 59 441 206 
L 441 856 
Q 825 641 1194 531 
Q 1563 422 1919 422 
Q 2459 422 2753 634 
Q 3047 847 3047 1241 
Q 3047 1584 2836 1778 
Q 2625 1972 2144 2069 
L 1759 2144 
Q 1053 2284 737 2584 
Q 422 2884 422 3419 
Q 422 4038 858 4394 
Q 1294 4750 2059 4750 
Q 2388 4750 2728 4690 
Q 3069 4631 3425 4513 
z
" transform="scale(0.015625)"/>
       <path id="DejaVuSans-6d" d="M 3328 2828 
Q 3544 3216 3844 3400 
Q 4144 3584 4550 3584 
Q 5097 3584 5394 3201 
Q 5691 2819 5691 2113 
L 5691 0 
L 5113 0 
L 5113 2094 
Q 5113 2597 4934 2840 
Q 4756 3084 4391 3084 
Q 3944 3084 3684 2787 
Q 3425 2491 3425 1978 
L 3425 0 
L 2847 0 
L 2847 2094 
Q 2847 2600 2669 2842 
Q 2491 3084 2119 3084 
Q 1678 3084 1418 2786 
Q 1159 2488 1159 1978 
L 1159 0 
L 581 0 
L 581 3500 
L 1159 3500 
L 1159 2956 
Q 1356 3278 1631 3431 
Q 1906 3584 2284 3584 
Q 2666 3584 2933 3390 
Q 3200 3197 3328 2828 
z
" transform="scale(0.015625)"/>
       <path id="DejaVuSans-6c" d="M 603 4863 
L 1178 4863 
L 1178 0 
L 603 0 
L 603 4863 
z
" transform="scale(0.015625)"/>
       <path id="DejaVuSans-79" d="M 2059 -325 
Q 1816 -950 1584 -1140 
Q 1353 -1331 966 -1331 
L 506 -1331 
L 506 -850 
L 844 -850 
Q 1081 -850 1212 -737 
Q 1344 -625 1503 -206 
L 1606 56 
L 191 3500 
L 800 3500 
L 1894 763 
L 2988 3500 
L 3597 3500 
L 2059 -325 
z
" transform="scale(0.015625)"/>
      </defs>
      <use xlink:href="#DejaVuSans-53"/>
      <use xlink:href="#DejaVuSans-69" x="63.476562"/>
      <use xlink:href="#DejaVuSans-6d" x="91.259766"/>
      <use xlink:href="#DejaVuSans-69" x="188.671875"/>
      <use xlink:href="#DejaVuSans-6c" x="216.455078"/>
      <use xlink:href="#DejaVuSans-61" x="244.238281"/>
      <use xlink:href="#DejaVuSans-72" x="305.517578"/>
      <use xlink:href="#DejaVuSans-69" x="346.630859"/>
      <use xlink:href="#DejaVuSans-74" x="374.414062"/>
      <use xlink:href="#DejaVuSans-79" x="413.623047"/>
     </g>
    </g>
   </g>
   <g id="line2d_13">
    <path d="M 66.091364 88.667273 
L 69.822254 98.783636 
L 73.553145 121.545455 
L 77.284035 136.72 
L 81.014926 144.307273 
L 84.745816 144.307273 
L 88.476707 149.365455 
L 92.207597 159.481818 
L 95.938488 174.656364 
L 99.669378 156.952727 
L 103.400269 134.190909 
L 107.13116 149.365455 
L 110.86205 151.894545 
L 114.592941 141.778182 
L 118.323831 151.894545 
L 122.054722 169.598182 
L 125.785612 151.894545 
L 129.516503 151.894545 
L 133.247393 164.54 
L 136.978284 164.54 
L 140.709174 177.185455 
L 144.440065 192.36 
L 148.170955 179.714545 
L 151.901846 169.598182 
L 155.632737 159.481818 
L 159.363627 159.481818 
L 163.094518 164.54 
L 166.825408 146.836364 
L 170.556299 151.894545 
L 174.287189 154.423636 
L 178.01808 162.010909 
L 181.74897 164.54 
L 185.479861 154.423636 
L 189.210751 159.481818 
L 192.941642 169.598182 
L 196.672532 156.952727 
L 200.403423 162.010909 
L 204.134314 169.598182 
L 207.865204 146.836364 
L 211.596095 156.952727 
L 215.326985 159.481818 
L 219.057876 149.365455 
L 222.788766 162.010909 
L 226.519657 162.010909 
L 230.250547 167.069091 
L 233.981438 167.069091 
L 237.712328 146.836364 
L 241.443219 144.307273 
L 245.174109 151.894545 
L 248.905 136.72 
L 252.635891 134.190909 
L 256.366781 151.894545 
L 260.097672 156.952727 
L 263.828562 177.185455 
L 267.559453 197.418182 
L 271.290343 179.714545 
L 275.021234 167.069091 
L 278.752124 169.598182 
L 282.483015 162.010909 
L 286.213905 151.894545 
L 289.944796 151.894545 
L 293.675686 149.365455 
L 297.406577 154.423636 
L 301.137468 169.598182 
L 304.868358 167.069091 
L 308.599249 159.481818 
L 312.330139 154.423636 
L 316.06103 162.010909 
L 319.79192 162.010909 
L 323.522811 159.481818 
L 327.253701 162.010909 
L 330.984592 167.069091 
L 334.715482 174.656364 
L 338.446373 164.54 
L 342.177263 167.069091 
L 345.908154 172.127273 
L 349.639045 177.185455 
L 353.369935 172.127273 
L 357.100826 154.423636 
L 360.831716 154.423636 
L 364.562607 146.836364 
L 368.293497 156.952727 
L 372.024388 162.010909 
L 375.755278 164.54 
L 379.486169 182.243636 
L 383.217059 156.952727 
L 386.94795 146.836364 
L 390.67884 179.714545 
L 394.409731 182.243636 
L 398.140622 177.185455 
L 401.871512 189.830909 
L 405.602403 177.185455 
L 409.333293 156.952727 
L 413.064184 159.481818 
L 416.795074 169.598182 
L 420.525965 174.656364 
L 424.256855 156.952727 
L 427.987746 149.365455 
L 431.718636 149.365455 
" clip-path="url(#p6cc065922e)" style="fill: none; stroke: #0000ff; stroke-linecap: square"/>
    <defs>
     <path id="m620337c76b" d="M -0.49999 0.49999 
L 0.50001 0.49999 
L 0.50001 -0.50001 
L -0.49999 -0.50001 
z
"/>
    </defs>
    <g clip-path="url(#p6cc065922e)">
     <use xlink:href="#m620337c76b" x="66.091364" y="88.667273" style="fill: #0000ff"/>
     <use xlink:href="#m620337c76b" x="69.822254" y="98.783636" style="fill: #0000ff"/>
     <use xlink:href="#m620337c76b" x="73.553145" y="121.545455" style="fill: #0000ff"/>
     <use xlink:href="#m620337c76b" x="77.284035" y="136.72" style="fill: #0000ff"/>
     <use xlink:href="#m620337c76b" x="81.014926" y="144.307273" style="fill: #0000ff"/>
     <use xlink:href="#m620337c76b" x="84.745816" y="144.307273" style="fill: #0000ff"/>
     <use xlink:href="#m620337c76b" x="88.476707" y="149.365455" style="fill: #0000ff"/>
     <use xlink:href="#m620337c76b" x="92.207597" y="159.481818" style="fill: #0000ff"/>
     <use xlink:href="#m620337c76b" x="95.938488" y="174.656364" style="fill: #0000ff"/>
     <use xlink:href="#m620337c76b" x="99.669378" y="156.952727" style="fill: #0000ff"/>
     <use xlink:href="#m620337c76b" x="103.400269" y="134.190909" style="fill: #0000ff"/>
     <use xlink:href="#m620337c76b" x="107.13116" y="149.365455" style="fill: #0000ff"/>
     <use xlink:href="#m620337c76b" x="110.86205" y="151.894545" style="fill: #0000ff"/>
     <use xlink:href="#m620337c76b" x="114.592941" y="141.778182" style="fill: #0000ff"/>
     <use xlink:href="#m620337c76b" x="118.323831" y="151.894545" style="fill: #0000ff"/>
     <use xlink:href="#m620337c76b" x="122.054722" y="169.598182" style="fill: #0000ff"/>
     <use xlink:href="#m620337c76b" x="125.785612" y="151.894545" style="fill: #0000ff"/>
     <use xlink:href="#m620337c76b" x="129.516503" y="151.894545" style="fill: #0000ff"/>
     <use xlink:href="#m620337c76b" x="133.247393" y="164.54" style="fill: #0000ff"/>
     <use xlink:href="#m620337c76b" x="136.978284" y="164.54" style="fill: #0000ff"/>
     <use xlink:href="#m620337c76b" x="140.709174" y="177.185455" style="fill: #0000ff"/>
     <use xlink:href="#m620337c76b" x="144.440065" y="192.36" style="fill: #0000ff"/>
     <use xlink:href="#m620337c76b" x="148.170955" y="179.714545" style="fill: #0000ff"/>
     <use xlink:href="#m620337c76b" x="151.901846" y="169.598182" style="fill: #0000ff"/>
     <use xlink:href="#m620337c76b" x="155.632737" y="159.481818" style="fill: #0000ff"/>
     <use xlink:href="#m620337c76b" x="159.363627" y="159.481818" style="fill: #0000ff"/>
     <use xlink:href="#m620337c76b" x="163.094518" y="164.54" style="fill: #0000ff"/>
     <use xlink:href="#m620337c76b" x="166.825408" y="146.836364" style="fill: #0000ff"/>
     <use xlink:href="#m620337c76b" x="170.556299" y="151.894545" style="fill: #0000ff"/>
     <use xlink:href="#m620337c76b" x="174.287189" y="154.423636" style="fill: #0000ff"/>
     <use xlink:href="#m620337c76b" x="178.01808" y="162.010909" style="fill: #0000ff"/>
     <use xlink:href="#m620337c76b" x="181.74897" y="164.54" style="fill: #0000ff"/>
     <use xlink:href="#m620337c76b" x="185.479861" y="154.423636" style="fill: #0000ff"/>
     <use xlink:href="#m620337c76b" x="189.210751" y="159.481818" style="fill: #0000ff"/>
     <use xlink:href="#m620337c76b" x="192.941642" y="169.598182" style="fill: #0000ff"/>
     <use xlink:href="#m620337c76b" x="196.672532" y="156.952727" style="fill: #0000ff"/>
     <use xlink:href="#m620337c76b" x="200.403423" y="162.010909" style="fill: #0000ff"/>
     <use xlink:href="#m620337c76b" x="204.134314" y="169.598182" style="fill: #0000ff"/>
     <use xlink:href="#m620337c76b" x="207.865204" y="146.836364" style="fill: #0000ff"/>
     <use xlink:href="#m620337c76b" x="211.596095" y="156.952727" style="fill: #0000ff"/>
     <use xlink:href="#m620337c76b" x="215.326985" y="159.481818" style="fill: #0000ff"/>
     <use xlink:href="#m620337c76b" x="219.057876" y="149.365455" style="fill: #0000ff"/>
     <use xlink:href="#m620337c76b" x="222.788766" y="162.010909" style="fill: #0000ff"/>
     <use xlink:href="#m620337c76b" x="226.519657" y="162.010909" style="fill: #0000ff"/>
     <use xlink:href="#m620337c76b" x="230.250547" y="167.069091" style="fill: #0000ff"/>
     <use xlink:href="#m620337c76b" x="233.981438" y="167.069091" style="fill: #0000ff"/>
     <use xlink:href="#m620337c76b" x="237.712328" y="146.836364" style="fill: #0000ff"/>
     <use xlink:href="#m620337c76b" x="241.443219" y="144.307273" style="fill: #0000ff"/>
     <use xlink:href="#m620337c76b" x="245.174109" y="151.894545" style="fill: #0000ff"/>
     <use xlink:href="#m620337c76b" x="248.905" y="136.72" style="fill: #0000ff"/>
     <use xlink:href="#m620337c76b" x="252.635891" y="134.190909" style="fill: #0000ff"/>
     <use xlink:href="#m620337c76b" x="256.366781" y="151.894545" style="fill: #0000ff"/>
     <use xlink:href="#m620337c76b" x="260.097672" y="156.952727" style="fill: #0000ff"/>
     <use xlink:href="#m620337c76b" x="263.828562" y="177.185455" style="fill: #0000ff"/>
     <use xlink:href="#m620337c76b" x="267.559453" y="197.418182" style="fill: #0000ff"/>
     <use xlink:href="#m620337c76b" x="271.290343" y="179.714545" style="fill: #0000ff"/>
     <use xlink:href="#m620337c76b" x="275.021234" y="167.069091" style="fill: #0000ff"/>
     <use xlink:href="#m620337c76b" x="278.752124" y="169.598182" style="fill: #0000ff"/>
     <use xlink:href="#m620337c76b" x="282.483015" y="162.010909" style="fill: #0000ff"/>
     <use xlink:href="#m620337c76b" x="286.213905" y="151.894545" style="fill: #0000ff"/>
     <use xlink:href="#m620337c76b" x="289.944796" y="151.894545" style="fill: #0000ff"/>
     <use xlink:href="#m620337c76b" x="293.675686" y="149.365455" style="fill: #0000ff"/>
     <use xlink:href="#m620337c76b" x="297.406577" y="154.423636" style="fill: #0000ff"/>
     <use xlink:href="#m620337c76b" x="301.137468" y="169.598182" style="fill: #0000ff"/>
     <use xlink:href="#m620337c76b" x="304.868358" y="167.069091" style="fill: #0000ff"/>
     <use xlink:href="#m620337c76b" x="308.599249" y="159.481818" style="fill: #0000ff"/>
     <use xlink:href="#m620337c76b" x="312.330139" y="154.423636" style="fill: #0000ff"/>
     <use xlink:href="#m620337c76b" x="316.06103" y="162.010909" style="fill: #0000ff"/>
     <use xlink:href="#m620337c76b" x="319.79192" y="162.010909" style="fill: #0000ff"/>
     <use xlink:href="#m620337c76b" x="323.522811" y="159.481818" style="fill: #0000ff"/>
     <use xlink:href="#m620337c76b" x="327.253701" y="162.010909" style="fill: #0000ff"/>
     <use xlink:href="#m620337c76b" x="330.984592" y="167.069091" style="fill: #0000ff"/>
     <use xlink:href="#m620337c76b" x="334.715482" y="174.656364" style="fill: #0000ff"/>
     <use xlink:href="#m620337c76b" x="338.446373" y="164.54" style="fill: #0000ff"/>
     <use xlink:href="#m620337c76b" x="342.177263" y="167.069091" style="fill: #0000ff"/>
     <use xlink:href="#m620337c76b" x="345.908154" y="172.127273" style="fill: #0000ff"/>
     <use xlink:href="#m620337c76b" x="349.639045" y="177.185455" style="fill: #0000ff"/>
     <use xlink:href="#m620337c76b" x="353.369935" y="172.127273" style="fill: #0000ff"/>
     <use xlink:href="#m620337c76b" x="357.100826" y="154.423636" style="fill: #0000ff"/>
     <use xlink:href="#m620337c76b" x="360.831716" y="154.423636" style="fill: #0000ff"/>
     <use xlink:href="#m620337c76b" x="364.562607" y="146.836364" style="fill: #0000ff"/>
     <use xlink:href="#m620337c76b" x="368.293497" y="156.952727" style="fill: #0000ff"/>
     <use xlink:href="#m620337c76b" x="372.024388" y="162.010909" style="fill: #0000ff"/>
     <use xlink:href="#m620337c76b" x="375.755278" y="164.54" style="fill: #0000ff"/>
     <use xlink:href="#m620337c76b" x="379.486169" y="182.243636" style="fill: #0000ff"/>
     <use xlink:href="#m620337c76b" x="383.217059" y="156.952727" style="fill: #0000ff"/>
     <use xlink:href="#m620337c76b" x="386.94795" y="146.836364" style="fill: #0000ff"/>
     <use xlink:href="#m620337c76b" x="390.67884" y="179.714545" style="fill: #0000ff"/>
     <use xlink:href="#m620337c76b" x="394.409731" y="182.243636" style="fill: #0000ff"/>
     <use xlink:href="#m620337c76b" x="398.140622" y="177.185455" style="fill: #0000ff"/>
     <use xlink:href="#m620337c76b" x="401.871512" y="189.830909" style="fill: #0000ff"/>
     <use xlink:href="#m620337c76b" x="405.602403" y="177.185455" style="fill: #0000ff"/>
     <use xlink:href="#m620337c76b" x="409.333293" y="156.952727" style="fill: #0000ff"/>
     <use xlink:href="#m620337c76b" x="413.064184" y="159.481818" style="fill: #0000ff"/>
     <use xlink:href="#m620337c76b" x="416.795074" y="169.598182" style="fill: #0000ff"/>
     <use xlink:href="#m620337c76b" x="420.525965" y="174.656364" style="fill: #0000ff"/>
     <use xlink:href="#m620337c76b" x="424.256855" y="156.952727" style="fill: #0000ff"/>
     <use xlink:href="#m620337c76b" x="427.987746" y="149.365455" style="fill: #0000ff"/>
     <use xlink:href="#m620337c76b" x="431.718636" y="149.365455" style="fill: #0000ff"/>
    </g>
   </g>
   <g id="line2d_14">
    <path d="M 66.091364 88.667273 
L 69.822254 93.725455 
L 73.553145 102.998788 
L 77.284035 111.429091 
L 81.014926 118.004727 
L 84.745816 122.388485 
L 88.476707 126.242338 
L 92.207597 130.397273 
L 95.938488 135.314949 
L 99.669378 137.478727 
L 103.400269 137.179835 
L 107.13116 138.195303 
L 110.86205 139.249091 
L 114.592941 139.42974 
L 118.323831 140.260727 
L 122.054722 142.094318 
L 125.785612 142.670802 
L 129.516503 143.183232 
L 133.247393 144.307273 
L 136.978284 145.318909 
L 140.709174 146.836364 
L 144.440065 148.90562 
L 148.170955 150.245138 
L 151.901846 151.051515 
L 155.632737 151.388727 
L 159.363627 151.7 
L 163.094518 152.175556 
L 166.825408 151.98487 
L 170.556299 151.981755 
L 174.287189 152.063152 
L 178.01808 152.384047 
L 181.74897 152.76392 
L 185.479861 152.814215 
L 189.210751 153.010321 
L 192.941642 153.48426 
L 196.672532 153.580606 
L 200.403423 153.808452 
L 204.134314 154.223971 
L 207.865204 154.034545 
L 211.596095 154.1075 
L 215.326985 154.238581 
L 219.057876 154.122554 
L 222.788766 154.306004 
L 226.519657 154.481116 
L 230.250547 154.760848 
L 233.981438 155.028419 
L 237.712328 154.85412 
L 241.443219 154.634394 
L 245.174109 154.578479 
L 248.905 154.221309 
L 252.635891 153.828556 
L 256.366781 153.791364 
L 260.097672 153.851012 
L 263.828562 154.283131 
L 267.559453 155.067405 
L 271.290343 155.507532 
L 275.021234 155.710367 
L 278.752124 155.949812 
L 282.483015 156.052542 
L 286.213905 155.983242 
L 289.944796 155.916215 
L 293.675686 155.810557 
L 297.406577 155.788543 
L 301.137468 156.004318 
L 304.868358 156.174545 
L 308.599249 156.224656 
L 312.330139 156.197775 
L 316.06103 156.283262 
L 319.79192 156.366271 
L 323.522811 156.410779 
L 327.253701 156.489654 
L 330.984592 156.636591 
L 334.715482 156.883437 
L 338.446373 156.986904 
L 342.177263 157.121333 
L 345.908154 157.31878 
L 349.639045 157.576789 
L 353.369935 157.763333 
L 357.100826 157.721059 
L 360.831716 157.679841 
L 364.562607 157.545971 
L 368.293497 157.538736 
L 372.024388 157.592618 
L 375.755278 157.675325 
L 379.486169 157.964364 
L 383.217059 157.9526 
L 386.94795 157.824828 
L 390.67884 158.073574 
L 394.409731 158.345148 
L 398.140622 158.554485 
L 401.871512 158.898182 
L 405.602403 159.096957 
L 409.333293 159.0739 
L 413.064184 159.07824 
L 416.795074 159.188976 
L 420.525965 159.350095 
L 424.256855 159.32538 
L 427.987746 159.223748 
L 431.718636 159.124169 
" clip-path="url(#p6cc065922e)" style="fill: none; stroke: #ff0000; stroke-opacity: 0.5; stroke-width: 0.5; stroke-linecap: square"/>
    <defs>
     <path id="mfdd3ff00f6" d="M -0.49999 0.49999 
L 0.50001 0.49999 
L 0.50001 -0.50001 
L -0.49999 -0.50001 
z
"/>
    </defs>
    <g clip-path="url(#p6cc065922e)">
     <use xlink:href="#mfdd3ff00f6" x="66.091364" y="88.667273" style="fill: #ff0000; fill-opacity: 0.5"/>
     <use xlink:href="#mfdd3ff00f6" x="69.822254" y="93.725455" style="fill: #ff0000; fill-opacity: 0.5"/>
     <use xlink:href="#mfdd3ff00f6" x="73.553145" y="102.998788" style="fill: #ff0000; fill-opacity: 0.5"/>
     <use xlink:href="#mfdd3ff00f6" x="77.284035" y="111.429091" style="fill: #ff0000; fill-opacity: 0.5"/>
     <use xlink:href="#mfdd3ff00f6" x="81.014926" y="118.004727" style="fill: #ff0000; fill-opacity: 0.5"/>
     <use xlink:href="#mfdd3ff00f6" x="84.745816" y="122.388485" style="fill: #ff0000; fill-opacity: 0.5"/>
     <use xlink:href="#mfdd3ff00f6" x="88.476707" y="126.242338" style="fill: #ff0000; fill-opacity: 0.5"/>
     <use xlink:href="#mfdd3ff00f6" x="92.207597" y="130.397273" style="fill: #ff0000; fill-opacity: 0.5"/>
     <use xlink:href="#mfdd3ff00f6" x="95.938488" y="135.314949" style="fill: #ff0000; fill-opacity: 0.5"/>
     <use xlink:href="#mfdd3ff00f6" x="99.669378" y="137.478727" style="fill: #ff0000; fill-opacity: 0.5"/>
     <use xlink:href="#mfdd3ff00f6" x="103.400269" y="137.179835" style="fill: #ff0000; fill-opacity: 0.5"/>
     <use xlink:href="#mfdd3ff00f6" x="107.13116" y="138.195303" style="fill: #ff0000; fill-opacity: 0.5"/>
     <use xlink:href="#mfdd3ff00f6" x="110.86205" y="139.249091" style="fill: #ff0000; fill-opacity: 0.5"/>
     <use xlink:href="#mfdd3ff00f6" x="114.592941" y="139.42974" style="fill: #ff0000; fill-opacity: 0.5"/>
     <use xlink:href="#mfdd3ff00f6" x="118.323831" y="140.260727" style="fill: #ff0000; fill-opacity: 0.5"/>
     <use xlink:href="#mfdd3ff00f6" x="122.054722" y="142.094318" style="fill: #ff0000; fill-opacity: 0.5"/>
     <use xlink:href="#mfdd3ff00f6" x="125.785612" y="142.670802" style="fill: #ff0000; fill-opacity: 0.5"/>
     <use xlink:href="#mfdd3ff00f6" x="129.516503" y="143.183232" style="fill: #ff0000; fill-opacity: 0.5"/>
     <use xlink:href="#mfdd3ff00f6" x="133.247393" y="144.307273" style="fill: #ff0000; fill-opacity: 0.5"/>
     <use xlink:href="#mfdd3ff00f6" x="136.978284" y="145.318909" style="fill: #ff0000; fill-opacity: 0.5"/>
     <use xlink:href="#mfdd3ff00f6" x="140.709174" y="146.836364" style="fill: #ff0000; fill-opacity: 0.5"/>
     <use xlink:href="#mfdd3ff00f6" x="144.440065" y="148.90562" style="fill: #ff0000; fill-opacity: 0.5"/>
     <use xlink:href="#mfdd3ff00f6" x="148.170955" y="150.245138" style="fill: #ff0000; fill-opacity: 0.5"/>
     <use xlink:href="#mfdd3ff00f6" x="151.901846" y="151.051515" style="fill: #ff0000; fill-opacity: 0.5"/>
     <use xlink:href="#mfdd3ff00f6" x="155.632737" y="151.388727" style="fill: #ff0000; fill-opacity: 0.5"/>
     <use xlink:href="#mfdd3ff00f6" x="159.363627" y="151.7" style="fill: #ff0000; fill-opacity: 0.5"/>
     <use xlink:href="#mfdd3ff00f6" x="163.094518" y="152.175556" style="fill: #ff0000; fill-opacity: 0.5"/>
     <use xlink:href="#mfdd3ff00f6" x="166.825408" y="151.98487" style="fill: #ff0000; fill-opacity: 0.5"/>
     <use xlink:href="#mfdd3ff00f6" x="170.556299" y="151.981755" style="fill: #ff0000; fill-opacity: 0.5"/>
     <use xlink:href="#mfdd3ff00f6" x="174.287189" y="152.063152" style="fill: #ff0000; fill-opacity: 0.5"/>
     <use xlink:href="#mfdd3ff00f6" x="178.01808" y="152.384047" style="fill: #ff0000; fill-opacity: 0.5"/>
     <use xlink:href="#mfdd3ff00f6" x="181.74897" y="152.76392" style="fill: #ff0000; fill-opacity: 0.5"/>
     <use xlink:href="#mfdd3ff00f6" x="185.479861" y="152.814215" style="fill: #ff0000; fill-opacity: 0.5"/>
     <use xlink:href="#mfdd3ff00f6" x="189.210751" y="153.010321" style="fill: #ff0000; fill-opacity: 0.5"/>
     <use xlink:href="#mfdd3ff00f6" x="192.941642" y="153.48426" style="fill: #ff0000; fill-opacity: 0.5"/>
     <use xlink:href="#mfdd3ff00f6" x="196.672532" y="153.580606" style="fill: #ff0000; fill-opacity: 0.5"/>
     <use xlink:href="#mfdd3ff00f6" x="200.403423" y="153.808452" style="fill: #ff0000; fill-opacity: 0.5"/>
     <use xlink:href="#mfdd3ff00f6" x="204.134314" y="154.223971" style="fill: #ff0000; fill-opacity: 0.5"/>
     <use xlink:href="#mfdd3ff00f6" x="207.865204" y="154.034545" style="fill: #ff0000; fill-opacity: 0.5"/>
     <use xlink:href="#mfdd3ff00f6" x="211.596095" y="154.1075" style="fill: #ff0000; fill-opacity: 0.5"/>
     <use xlink:href="#mfdd3ff00f6" x="215.326985" y="154.238581" style="fill: #ff0000; fill-opacity: 0.5"/>
     <use xlink:href="#mfdd3ff00f6" x="219.057876" y="154.122554" style="fill: #ff0000; fill-opacity: 0.5"/>
     <use xlink:href="#mfdd3ff00f6" x="222.788766" y="154.306004" style="fill: #ff0000; fill-opacity: 0.5"/>
     <use xlink:href="#mfdd3ff00f6" x="226.519657" y="154.481116" style="fill: #ff0000; fill-opacity: 0.5"/>
     <use xlink:href="#mfdd3ff00f6" x="230.250547" y="154.760848" style="fill: #ff0000; fill-opacity: 0.5"/>
     <use xlink:href="#mfdd3ff00f6" x="233.981438" y="155.028419" style="fill: #ff0000; fill-opacity: 0.5"/>
     <use xlink:href="#mfdd3ff00f6" x="237.712328" y="154.85412" style="fill: #ff0000; fill-opacity: 0.5"/>
     <use xlink:href="#mfdd3ff00f6" x="241.443219" y="154.634394" style="fill: #ff0000; fill-opacity: 0.5"/>
     <use xlink:href="#mfdd3ff00f6" x="245.174109" y="154.578479" style="fill: #ff0000; fill-opacity: 0.5"/>
     <use xlink:href="#mfdd3ff00f6" x="248.905" y="154.221309" style="fill: #ff0000; fill-opacity: 0.5"/>
     <use xlink:href="#mfdd3ff00f6" x="252.635891" y="153.828556" style="fill: #ff0000; fill-opacity: 0.5"/>
     <use xlink:href="#mfdd3ff00f6" x="256.366781" y="153.791364" style="fill: #ff0000; fill-opacity: 0.5"/>
     <use xlink:href="#mfdd3ff00f6" x="260.097672" y="153.851012" style="fill: #ff0000; fill-opacity: 0.5"/>
     <use xlink:href="#mfdd3ff00f6" x="263.828562" y="154.283131" style="fill: #ff0000; fill-opacity: 0.5"/>
     <use xlink:href="#mfdd3ff00f6" x="267.559453" y="155.067405" style="fill: #ff0000; fill-opacity: 0.5"/>
     <use xlink:href="#mfdd3ff00f6" x="271.290343" y="155.507532" style="fill: #ff0000; fill-opacity: 0.5"/>
     <use xlink:href="#mfdd3ff00f6" x="275.021234" y="155.710367" style="fill: #ff0000; fill-opacity: 0.5"/>
     <use xlink:href="#mfdd3ff00f6" x="278.752124" y="155.949812" style="fill: #ff0000; fill-opacity: 0.5"/>
     <use xlink:href="#mfdd3ff00f6" x="282.483015" y="156.052542" style="fill: #ff0000; fill-opacity: 0.5"/>
     <use xlink:href="#mfdd3ff00f6" x="286.213905" y="155.983242" style="fill: #ff0000; fill-opacity: 0.5"/>
     <use xlink:href="#mfdd3ff00f6" x="289.944796" y="155.916215" style="fill: #ff0000; fill-opacity: 0.5"/>
     <use xlink:href="#mfdd3ff00f6" x="293.675686" y="155.810557" style="fill: #ff0000; fill-opacity: 0.5"/>
     <use xlink:href="#mfdd3ff00f6" x="297.406577" y="155.788543" style="fill: #ff0000; fill-opacity: 0.5"/>
     <use xlink:href="#mfdd3ff00f6" x="301.137468" y="156.004318" style="fill: #ff0000; fill-opacity: 0.5"/>
     <use xlink:href="#mfdd3ff00f6" x="304.868358" y="156.174545" style="fill: #ff0000; fill-opacity: 0.5"/>
     <use xlink:href="#mfdd3ff00f6" x="308.599249" y="156.224656" style="fill: #ff0000; fill-opacity: 0.5"/>
     <use xlink:href="#mfdd3ff00f6" x="312.330139" y="156.197775" style="fill: #ff0000; fill-opacity: 0.5"/>
     <use xlink:href="#mfdd3ff00f6" x="316.06103" y="156.283262" style="fill: #ff0000; fill-opacity: 0.5"/>
     <use xlink:href="#mfdd3ff00f6" x="319.79192" y="156.366271" style="fill: #ff0000; fill-opacity: 0.5"/>
     <use xlink:href="#mfdd3ff00f6" x="323.522811" y="156.410779" style="fill: #ff0000; fill-opacity: 0.5"/>
     <use xlink:href="#mfdd3ff00f6" x="327.253701" y="156.489654" style="fill: #ff0000; fill-opacity: 0.5"/>
     <use xlink:href="#mfdd3ff00f6" x="330.984592" y="156.636591" style="fill: #ff0000; fill-opacity: 0.5"/>
     <use xlink:href="#mfdd3ff00f6" x="334.715482" y="156.883437" style="fill: #ff0000; fill-opacity: 0.5"/>
     <use xlink:href="#mfdd3ff00f6" x="338.446373" y="156.986904" style="fill: #ff0000; fill-opacity: 0.5"/>
     <use xlink:href="#mfdd3ff00f6" x="342.177263" y="157.121333" style="fill: #ff0000; fill-opacity: 0.5"/>
     <use xlink:href="#mfdd3ff00f6" x="345.908154" y="157.31878" style="fill: #ff0000; fill-opacity: 0.5"/>
     <use xlink:href="#mfdd3ff00f6" x="349.639045" y="157.576789" style="fill: #ff0000; fill-opacity: 0.5"/>
     <use xlink:href="#mfdd3ff00f6" x="353.369935" y="157.763333" style="fill: #ff0000; fill-opacity: 0.5"/>
     <use xlink:href="#mfdd3ff00f6" x="357.100826" y="157.721059" style="fill: #ff0000; fill-opacity: 0.5"/>
     <use xlink:href="#mfdd3ff00f6" x="360.831716" y="157.679841" style="fill: #ff0000; fill-opacity: 0.5"/>
     <use xlink:href="#mfdd3ff00f6" x="364.562607" y="157.545971" style="fill: #ff0000; fill-opacity: 0.5"/>
     <use xlink:href="#mfdd3ff00f6" x="368.293497" y="157.538736" style="fill: #ff0000; fill-opacity: 0.5"/>
     <use xlink:href="#mfdd3ff00f6" x="372.024388" y="157.592618" style="fill: #ff0000; fill-opacity: 0.5"/>
     <use xlink:href="#mfdd3ff00f6" x="375.755278" y="157.675325" style="fill: #ff0000; fill-opacity: 0.5"/>
     <use xlink:href="#mfdd3ff00f6" x="379.486169" y="157.964364" style="fill: #ff0000; fill-opacity: 0.5"/>
     <use xlink:href="#mfdd3ff00f6" x="383.217059" y="157.9526" style="fill: #ff0000; fill-opacity: 0.5"/>
     <use xlink:href="#mfdd3ff00f6" x="386.94795" y="157.824828" style="fill: #ff0000; fill-opacity: 0.5"/>
     <use xlink:href="#mfdd3ff00f6" x="390.67884" y="158.073574" style="fill: #ff0000; fill-opacity: 0.5"/>
     <use xlink:href="#mfdd3ff00f6" x="394.409731" y="158.345148" style="fill: #ff0000; fill-opacity: 0.5"/>
     <use xlink:href="#mfdd3ff00f6" x="398.140622" y="158.554485" style="fill: #ff0000; fill-opacity: 0.5"/>
     <use xlink:href="#mfdd3ff00f6" x="401.871512" y="158.898182" style="fill: #ff0000; fill-opacity: 0.5"/>
     <use xlink:href="#mfdd3ff00f6" x="405.602403" y="159.096957" style="fill: #ff0000; fill-opacity: 0.5"/>
     <use xlink:href="#mfdd3ff00f6" x="409.333293" y="159.0739" style="fill: #ff0000; fill-opacity: 0.5"/>
     <use xlink:href="#mfdd3ff00f6" x="413.064184" y="159.07824" style="fill: #ff0000; fill-opacity: 0.5"/>
     <use xlink:href="#mfdd3ff00f6" x="416.795074" y="159.188976" style="fill: #ff0000; fill-opacity: 0.5"/>
     <use xlink:href="#mfdd3ff00f6" x="420.525965" y="159.350095" style="fill: #ff0000; fill-opacity: 0.5"/>
     <use xlink:href="#mfdd3ff00f6" x="424.256855" y="159.32538" style="fill: #ff0000; fill-opacity: 0.5"/>
     <use xlink:href="#mfdd3ff00f6" x="427.987746" y="159.223748" style="fill: #ff0000; fill-opacity: 0.5"/>
     <use xlink:href="#mfdd3ff00f6" x="431.718636" y="159.124169" style="fill: #ff0000; fill-opacity: 0.5"/>
    </g>
   </g>
   <g id="line2d_15">
    <path d="M 47.81 290.994545 
L 450 290.994545 
" clip-path="url(#p6cc065922e)" style="fill: none; stroke-dasharray: 0.555,0.24; stroke-dashoffset: 0; stroke: #ff0000; stroke-width: 0.15"/>
   </g>
   <g id="line2d_16">
    <path d="M 47.81 164.54 
L 450 164.54 
" clip-path="url(#p6cc065922e)" style="fill: none; stroke-dasharray: 0.555,0.24; stroke-dashoffset: 0; stroke: #ff0000; stroke-width: 0.15"/>
   </g>
   <g id="line2d_17">
    <path d="M 47.81 38.085455 
L 450 38.085455 
" clip-path="url(#p6cc065922e)" style="fill: none; stroke-dasharray: 0.555,0.24; stroke-dashoffset: 0; stroke: #ff0000; stroke-width: 0.15"/>
   </g>
   <g id="patch_3">
    <path d="M 47.81 303.64 
L 47.81 25.44 
" style="fill: none; stroke: #000000; stroke-width: 0.8; stroke-linejoin: miter; stroke-linecap: square"/>
   </g>
   <g id="patch_4">
    <path d="M 450 303.64 
L 450 25.44 
" style="fill: none; stroke: #000000; stroke-width: 0.8; stroke-linejoin: miter; stroke-linecap: square"/>
   </g>
   <g id="patch_5">
    <path d="M 47.81 303.64 
L 450 303.64 
" style="fill: none; stroke: #000000; stroke-width: 0.8; stroke-linejoin: miter; stroke-linecap: square"/>
   </g>
   <g id="patch_6">
    <path d="M 47.81 25.44 
L 450 25.44 
" style="fill: none; stroke: #000000; stroke-width: 0.8; stroke-linejoin: miter; stroke-linecap: square"/>
   </g>
   <g id="text_15">
    <!-- Similarity LLM-RND with sw2-1 - 28173931-29014202 - 50 games -->
    <g transform="translate(52.059063 19.44) scale(0.12 -0.12)">
     <defs>
      <path id="DejaVuSans-20" transform="scale(0.015625)"/>
      <path id="DejaVuSans-4c" d="M 628 4666 
L 1259 4666 
L 1259 531 
L 3531 531 
L 3531 0 
L 628 0 
L 628 4666 
z
" transform="scale(0.015625)"/>
      <path id="DejaVuSans-4d" d="M 628 4666 
L 1569 4666 
L 2759 1491 
L 3956 4666 
L 4897 4666 
L 4897 0 
L 4281 0 
L 4281 4097 
L 3078 897 
L 2444 897 
L 1241 4097 
L 1241 0 
L 628 0 
L 628 4666 
z
" transform="scale(0.015625)"/>
      <path id="DejaVuSans-2d" d="M 313 2009 
L 1997 2009 
L 1997 1497 
L 313 1497 
L 313 2009 
z
" transform="scale(0.015625)"/>
      <path id="DejaVuSans-52" d="M 2841 2188 
Q 3044 2119 3236 1894 
Q 3428 1669 3622 1275 
L 4263 0 
L 3584 0 
L 2988 1197 
Q 2756 1666 2539 1819 
Q 2322 1972 1947 1972 
L 1259 1972 
L 1259 0 
L 628 0 
L 628 4666 
L 2053 4666 
Q 2853 4666 3247 4331 
Q 3641 3997 3641 3322 
Q 3641 2881 3436 2590 
Q 3231 2300 2841 2188 
z
M 1259 4147 
L 1259 2491 
L 2053 2491 
Q 2509 2491 2742 2702 
Q 2975 2913 2975 3322 
Q 2975 3731 2742 3939 
Q 2509 4147 2053 4147 
L 1259 4147 
z
" transform="scale(0.015625)"/>
      <path id="DejaVuSans-4e" d="M 628 4666 
L 1478 4666 
L 3547 763 
L 3547 4666 
L 4159 4666 
L 4159 0 
L 3309 0 
L 1241 3903 
L 1241 0 
L 628 0 
L 628 4666 
z
" transform="scale(0.015625)"/>
      <path id="DejaVuSans-44" d="M 1259 4147 
L 1259 519 
L 2022 519 
Q 2988 519 3436 956 
Q 3884 1394 3884 2338 
Q 3884 3275 3436 3711 
Q 2988 4147 2022 4147 
L 1259 4147 
z
M 628 4666 
L 1925 4666 
Q 3281 4666 3915 4102 
Q 4550 3538 4550 2338 
Q 4550 1131 3912 565 
Q 3275 0 1925 0 
L 628 0 
L 628 4666 
z
" transform="scale(0.015625)"/>
      <path id="DejaVuSans-77" d="M 269 3500 
L 844 3500 
L 1563 769 
L 2278 3500 
L 2956 3500 
L 3675 769 
L 4391 3500 
L 4966 3500 
L 4050 0 
L 3372 0 
L 2619 2869 
L 1863 0 
L 1184 0 
L 269 3500 
z
" transform="scale(0.015625)"/>
      <path id="DejaVuSans-68" d="M 3513 2113 
L 3513 0 
L 2938 0 
L 2938 2094 
Q 2938 2591 2744 2837 
Q 2550 3084 2163 3084 
Q 1697 3084 1428 2787 
Q 1159 2491 1159 1978 
L 1159 0 
L 581 0 
L 581 4863 
L 1159 4863 
L 1159 2956 
Q 1366 3272 1645 3428 
Q 1925 3584 2291 3584 
Q 2894 3584 3203 3211 
Q 3513 2838 3513 2113 
z
" transform="scale(0.015625)"/>
      <path id="DejaVuSans-73" d="M 2834 3397 
L 2834 2853 
Q 2591 2978 2328 3040 
Q 2066 3103 1784 3103 
Q 1356 3103 1142 2972 
Q 928 2841 928 2578 
Q 928 2378 1081 2264 
Q 1234 2150 1697 2047 
L 1894 2003 
Q 2506 1872 2764 1633 
Q 3022 1394 3022 966 
Q 3022 478 2636 193 
Q 2250 -91 1575 -91 
Q 1294 -91 989 -36 
Q 684 19 347 128 
L 347 722 
Q 666 556 975 473 
Q 1284 391 1588 391 
Q 1994 391 2212 530 
Q 2431 669 2431 922 
Q 2431 1156 2273 1281 
Q 2116 1406 1581 1522 
L 1381 1569 
Q 847 1681 609 1914 
Q 372 2147 372 2553 
Q 372 3047 722 3315 
Q 1072 3584 1716 3584 
Q 2034 3584 2315 3537 
Q 2597 3491 2834 3397 
z
" transform="scale(0.015625)"/>
      <path id="DejaVuSans-37" d="M 525 4666 
L 3525 4666 
L 3525 4397 
L 1831 0 
L 1172 0 
L 2766 4134 
L 525 4134 
L 525 4666 
z
" transform="scale(0.015625)"/>
      <path id="DejaVuSans-33" d="M 2597 2516 
Q 3050 2419 3304 2112 
Q 3559 1806 3559 1356 
Q 3559 666 3084 287 
Q 2609 -91 1734 -91 
Q 1441 -91 1130 -33 
Q 819 25 488 141 
L 488 750 
Q 750 597 1062 519 
Q 1375 441 1716 441 
Q 2309 441 2620 675 
Q 2931 909 2931 1356 
Q 2931 1769 2642 2001 
Q 2353 2234 1838 2234 
L 1294 2234 
L 1294 2753 
L 1863 2753 
Q 2328 2753 2575 2939 
Q 2822 3125 2822 3475 
Q 2822 3834 2567 4026 
Q 2313 4219 1838 4219 
Q 1578 4219 1281 4162 
Q 984 4106 628 3988 
L 628 4550 
Q 988 4650 1302 4700 
Q 1616 4750 1894 4750 
Q 2613 4750 3031 4423 
Q 3450 4097 3450 3541 
Q 3450 3153 3228 2886 
Q 3006 2619 2597 2516 
z
" transform="scale(0.015625)"/>
      <path id="DejaVuSans-39" d="M 703 97 
L 703 672 
Q 941 559 1184 500 
Q 1428 441 1663 441 
Q 2288 441 2617 861 
Q 2947 1281 2994 2138 
Q 2813 1869 2534 1725 
Q 2256 1581 1919 1581 
Q 1219 1581 811 2004 
Q 403 2428 403 3163 
Q 403 3881 828 4315 
Q 1253 4750 1959 4750 
Q 2769 4750 3195 4129 
Q 3622 3509 3622 2328 
Q 3622 1225 3098 567 
Q 2575 -91 1691 -91 
Q 1453 -91 1209 -44 
Q 966 3 703 97 
z
M 1959 2075 
Q 2384 2075 2632 2365 
Q 2881 2656 2881 3163 
Q 2881 3666 2632 3958 
Q 2384 4250 1959 4250 
Q 1534 4250 1286 3958 
Q 1038 3666 1038 3163 
Q 1038 2656 1286 2365 
Q 1534 2075 1959 2075 
z
" transform="scale(0.015625)"/>
      <path id="DejaVuSans-35" d="M 691 4666 
L 3169 4666 
L 3169 4134 
L 1269 4134 
L 1269 2991 
Q 1406 3038 1543 3061 
Q 1681 3084 1819 3084 
Q 2600 3084 3056 2656 
Q 3513 2228 3513 1497 
Q 3513 744 3044 326 
Q 2575 -91 1722 -91 
Q 1428 -91 1123 -41 
Q 819 9 494 109 
L 494 744 
Q 775 591 1075 516 
Q 1375 441 1709 441 
Q 2250 441 2565 725 
Q 2881 1009 2881 1497 
Q 2881 1984 2565 2268 
Q 2250 2553 1709 2553 
Q 1456 2553 1204 2497 
Q 953 2441 691 2322 
L 691 4666 
z
" transform="scale(0.015625)"/>
      <path id="DejaVuSans-67" d="M 2906 1791 
Q 2906 2416 2648 2759 
Q 2391 3103 1925 3103 
Q 1463 3103 1205 2759 
Q 947 2416 947 1791 
Q 947 1169 1205 825 
Q 1463 481 1925 481 
Q 2391 481 2648 825 
Q 2906 1169 2906 1791 
z
M 3481 434 
Q 3481 -459 3084 -895 
Q 2688 -1331 1869 -1331 
Q 1566 -1331 1297 -1286 
Q 1028 -1241 775 -1147 
L 775 -588 
Q 1028 -725 1275 -790 
Q 1522 -856 1778 -856 
Q 2344 -856 2625 -561 
Q 2906 -266 2906 331 
L 2906 616 
Q 2728 306 2450 153 
Q 2172 0 1784 0 
Q 1141 0 747 490 
Q 353 981 353 1791 
Q 353 2603 747 3093 
Q 1141 3584 1784 3584 
Q 2172 3584 2450 3431 
Q 2728 3278 2906 2969 
L 2906 3500 
L 3481 3500 
L 3481 434 
z
" transform="scale(0.015625)"/>
     </defs>
     <use xlink:href="#DejaVuSans-53"/>
     <use xlink:href="#DejaVuSans-69" x="63.476562"/>
     <use xlink:href="#DejaVuSans-6d" x="91.259766"/>
     <use xlink:href="#DejaVuSans-69" x="188.671875"/>
     <use xlink:href="#DejaVuSans-6c" x="216.455078"/>
     <use xlink:href="#DejaVuSans-61" x="244.238281"/>
     <use xlink:href="#DejaVuSans-72" x="305.517578"/>
     <use xlink:href="#DejaVuSans-69" x="346.630859"/>
     <use xlink:href="#DejaVuSans-74" x="374.414062"/>
     <use xlink:href="#DejaVuSans-79" x="413.623047"/>
     <use xlink:href="#DejaVuSans-20" x="472.802734"/>
     <use xlink:href="#DejaVuSans-4c" x="504.589844"/>
     <use xlink:href="#DejaVuSans-4c" x="560.302734"/>
     <use xlink:href="#DejaVuSans-4d" x="616.015625"/>
     <use xlink:href="#DejaVuSans-2d" x="702.294922"/>
     <use xlink:href="#DejaVuSans-52" x="738.378906"/>
     <use xlink:href="#DejaVuSans-4e" x="807.861328"/>
     <use xlink:href="#DejaVuSans-44" x="882.666016"/>
     <use xlink:href="#DejaVuSans-20" x="959.667969"/>
     <use xlink:href="#DejaVuSans-77" x="991.455078"/>
     <use xlink:href="#DejaVuSans-69" x="1073.242188"/>
     <use xlink:href="#DejaVuSans-74" x="1101.025391"/>
     <use xlink:href="#DejaVuSans-68" x="1140.234375"/>
     <use xlink:href="#DejaVuSans-20" x="1203.613281"/>
     <use xlink:href="#DejaVuSans-73" x="1235.400391"/>
     <use xlink:href="#DejaVuSans-77" x="1287.5"/>
     <use xlink:href="#DejaVuSans-32" x="1369.287109"/>
     <use xlink:href="#DejaVuSans-2d" x="1432.910156"/>
     <use xlink:href="#DejaVuSans-31" x="1468.994141"/>
     <use xlink:href="#DejaVuSans-20" x="1532.617188"/>
     <use xlink:href="#DejaVuSans-2d" x="1564.404297"/>
     <use xlink:href="#DejaVuSans-20" x="1600.488281"/>
     <use xlink:href="#DejaVuSans-32" x="1632.275391"/>
     <use xlink:href="#DejaVuSans-38" x="1695.898438"/>
     <use xlink:href="#DejaVuSans-31" x="1759.521484"/>
     <use xlink:href="#DejaVuSans-37" x="1823.144531"/>
     <use xlink:href="#DejaVuSans-33" x="1886.767578"/>
     <use xlink:href="#DejaVuSans-39" x="1950.390625"/>
     <use xlink:href="#DejaVuSans-33" x="2014.013672"/>
     <use xlink:href="#DejaVuSans-31" x="2077.636719"/>
     <use xlink:href="#DejaVuSans-2d" x="2141.259766"/>
     <use xlink:href="#DejaVuSans-32" x="2177.34375"/>
     <use xlink:href="#DejaVuSans-39" x="2240.966797"/>
     <use xlink:href="#DejaVuSans-30" x="2304.589844"/>
     <use xlink:href="#DejaVuSans-31" x="2368.212891"/>
     <use xlink:href="#DejaVuSans-34" x="2431.835938"/>
     <use xlink:href="#DejaVuSans-32" x="2495.458984"/>
     <use xlink:href="#DejaVuSans-30" x="2559.082031"/>
     <use xlink:href="#DejaVuSans-32" x="2622.705078"/>
     <use xlink:href="#DejaVuSans-20" x="2686.328125"/>
     <use xlink:href="#DejaVuSans-2d" x="2718.115234"/>
     <use xlink:href="#DejaVuSans-20" x="2754.199219"/>
     <use xlink:href="#DejaVuSans-35" x="2785.986328"/>
     <use xlink:href="#DejaVuSans-30" x="2849.609375"/>
     <use xlink:href="#DejaVuSans-20" x="2913.232422"/>
     <use xlink:href="#DejaVuSans-67" x="2945.019531"/>
     <use xlink:href="#DejaVuSans-61" x="3008.496094"/>
     <use xlink:href="#DejaVuSans-6d" x="3069.775391"/>
     <use xlink:href="#DejaVuSans-65" x="3167.1875"/>
     <use xlink:href="#DejaVuSans-73" x="3228.710938"/>
    </g>
   </g>
   <g id="legend_1">
    <g id="patch_7">
     <path d="M 333.953125 62.79625 
L 443 62.79625 
Q 445 62.79625 445 60.79625 
L 445 32.44 
Q 445 30.44 443 30.44 
L 333.953125 30.44 
Q 331.953125 30.44 331.953125 32.44 
L 331.953125 60.79625 
Q 331.953125 62.79625 333.953125 62.79625 
z
" style="fill: #ffffff; opacity: 0.8; stroke: #cccccc; stroke-linejoin: miter"/>
    </g>
    <g id="line2d_18">
     <path d="M 335.953125 38.538437 
L 345.953125 38.538437 
L 355.953125 38.538437 
" style="fill: none; stroke: #0000ff; stroke-linecap: square"/>
     <g>
      <use xlink:href="#m620337c76b" x="345.953125" y="38.538437" style="fill: #0000ff"/>
     </g>
    </g>
    <g id="text_16">
     <!-- LLM-RND -->
     <g transform="translate(363.953125 42.038437) scale(0.1 -0.1)">
      <use xlink:href="#DejaVuSans-4c"/>
      <use xlink:href="#DejaVuSans-4c" x="55.712891"/>
      <use xlink:href="#DejaVuSans-4d" x="111.425781"/>
      <use xlink:href="#DejaVuSans-2d" x="197.705078"/>
      <use xlink:href="#DejaVuSans-52" x="233.789062"/>
      <use xlink:href="#DejaVuSans-4e" x="303.271484"/>
      <use xlink:href="#DejaVuSans-44" x="378.076172"/>
     </g>
    </g>
    <g id="line2d_19">
     <path d="M 335.953125 53.216562 
L 345.953125 53.216562 
L 355.953125 53.216562 
" style="fill: none; stroke: #ff0000; stroke-opacity: 0.5; stroke-width: 0.5; stroke-linecap: square"/>
     <g>
      <use xlink:href="#mfdd3ff00f6" x="345.953125" y="53.216562" style="fill: #ff0000; fill-opacity: 0.5"/>
     </g>
    </g>
    <g id="text_17">
     <!-- LLM-RND mean -->
     <g transform="translate(363.953125 56.716562) scale(0.1 -0.1)">
      <use xlink:href="#DejaVuSans-4c"/>
      <use xlink:href="#DejaVuSans-4c" x="55.712891"/>
      <use xlink:href="#DejaVuSans-4d" x="111.425781"/>
      <use xlink:href="#DejaVuSans-2d" x="197.705078"/>
      <use xlink:href="#DejaVuSans-52" x="233.789062"/>
      <use xlink:href="#DejaVuSans-4e" x="303.271484"/>
      <use xlink:href="#DejaVuSans-44" x="378.076172"/>
      <use xlink:href="#DejaVuSans-20" x="455.078125"/>
      <use xlink:href="#DejaVuSans-6d" x="486.865234"/>
      <use xlink:href="#DejaVuSans-65" x="584.277344"/>
      <use xlink:href="#DejaVuSans-61" x="645.800781"/>
      <use xlink:href="#DejaVuSans-6e" x="707.080078"/>
     </g>
    </g>
   </g>
  </g>
 </g>
 <defs>
  <clipPath id="p6cc065922e">
   <rect x="47.81" y="25.44" width="402.19" height="278.2"/>
  </clipPath>
 </defs>
</svg>
