<?xml version="1.0" encoding="utf-8" standalone="no"?>
<!DOCTYPE svg PUBLIC "-//W3C//DTD SVG 1.1//EN"
  "http://www.w3.org/Graphics/SVG/1.1/DTD/svg11.dtd">
<svg xmlns:xlink="http://www.w3.org/1999/xlink" width="460.8pt" height="345.6pt" viewBox="0 0 460.8 345.6" xmlns="http://www.w3.org/2000/svg" version="1.1">
 <metadata>
  <rdf:RDF xmlns:dc="http://purl.org/dc/elements/1.1/" xmlns:cc="http://creativecommons.org/ns#" xmlns:rdf="http://www.w3.org/1999/02/22-rdf-syntax-ns#">
   <cc:Work>
    <dc:type rdf:resource="http://purl.org/dc/dcmitype/StillImage"/>
    <dc:date>2024-04-15T10:04:47.069252</dc:date>
    <dc:format>image/svg+xml</dc:format>
    <dc:creator>
     <cc:Agent>
      <dc:title>Matplotlib v3.8.0, https://matplotlib.org/</dc:title>
     </cc:Agent>
    </dc:creator>
   </cc:Work>
  </rdf:RDF>
 </metadata>
 <defs>
  <style type="text/css">*{stroke-linejoin: round; stroke-linecap: butt}</style>
 </defs>
 <g id="figure_1">
  <g id="patch_1">
   <path d="M 0 345.6 
L 460.8 345.6 
L 460.8 0 
L 0 0 
z
" style="fill: #ffffff"/>
  </g>
  <g id="axes_1">
   <g id="patch_2">
    <path d="M 56.18 303.64 
L 450 303.64 
L 450 25.44 
L 56.18 25.44 
z
" style="fill: #ffffff"/>
   </g>
   <g id="PolyCollection_1">
    <defs>
     <path id="m0cdc63c6be" d="M 74.080909 -283.195305 
L 74.080909 -283.195305 
L 77.697254 -307.514545 
L 81.3136 -276.340546 
L 84.929945 -248.553374 
L 88.54629 -228.86224 
L 92.162635 -214.138393 
L 95.778981 -202.747314 
L 99.395326 -193.87381 
L 103.011671 -186.650904 
L 106.628017 -180.445214 
L 110.244362 -175.170601 
L 113.860707 -170.806584 
L 117.477052 -167.202683 
L 121.093398 -164.240375 
L 124.709743 -161.613218 
L 128.326088 -158.917174 
L 131.942433 -156.485568 
L 135.558779 -154.430466 
L 139.175124 -152.898562 
L 142.791469 -151.030921 
L 146.407815 -149.310747 
L 150.02416 -147.60815 
L 153.640505 -146.135707 
L 157.25685 -144.659168 
L 160.873196 -143.279211 
L 164.489541 -141.986084 
L 168.105886 -140.982179 
L 171.722231 -139.928346 
L 175.338577 -138.934466 
L 178.954922 -137.995201 
L 182.571267 -137.105848 
L 186.187612 -136.471731 
L 189.803958 -135.58338 
L 193.420303 -134.737643 
L 197.036648 -134.010014 
L 200.652994 -133.315562 
L 204.269339 -132.576875 
L 207.885684 -132.029332 
L 211.502029 -131.420798 
L 215.118375 -131.118448 
L 218.73472 -130.723209 
L 222.351065 -130.442765 
L 225.96741 -129.911822 
L 229.583756 -129.474219 
L 233.200101 -129.052262 
L 236.816446 -128.726586 
L 240.432792 -128.331717 
L 244.049137 -128.11729 
L 247.665482 -127.679506 
L 251.281827 -127.256008 
L 254.898173 -126.909604 
L 258.514518 -126.459518 
L 262.130863 -126.074521 
L 265.747208 -125.701139 
L 269.363554 -125.289077 
L 272.979899 -124.938063 
L 276.596244 -124.597072 
L 280.21259 -124.265646 
L 283.828935 -124.066335 
L 287.44528 -123.751139 
L 291.061625 -123.499128 
L 294.677971 -123.155203 
L 298.294316 -122.820088 
L 301.910661 -122.536959 
L 305.527006 -122.21797 
L 309.143352 -121.906785 
L 312.759697 -121.756521 
L 316.376042 -121.499825 
L 319.992388 -121.208458 
L 323.608733 -120.964126 
L 327.225078 -120.68557 
L 330.841423 -120.41326 
L 334.457769 -120.146974 
L 338.074114 -119.925205 
L 341.690459 -119.754982 
L 345.306804 -119.588217 
L 348.92315 -119.379288 
L 352.539495 -119.174689 
L 356.15584 -118.938059 
L 359.772185 -118.742112 
L 363.388531 -118.514574 
L 367.004876 -118.370073 
L 370.621221 -118.228232 
L 374.237567 -118.046697 
L 377.853912 -117.868607 
L 381.470257 -117.693859 
L 385.086602 -117.522351 
L 388.702948 -117.321216 
L 392.319293 -117.123726 
L 395.935638 -116.929774 
L 399.551983 -116.811043 
L 403.168329 -116.741233 
L 406.784674 -116.625851 
L 410.401019 -116.473991 
L 414.017365 -116.324705 
L 417.63371 -116.147791 
L 421.250055 -116.041131 
L 424.8664 -115.936102 
L 428.482746 -115.832665 
L 432.099091 -115.694576 
L 432.099091 -74.079145 
L 432.099091 -74.079145 
L 428.482746 -74.011431 
L 424.8664 -73.899925 
L 421.250055 -73.786662 
L 417.63371 -73.671594 
L 414.017365 -73.650902 
L 410.401019 -73.577882 
L 406.784674 -73.503928 
L 403.168329 -73.383057 
L 399.551983 -73.221612 
L 395.935638 -73.09619 
L 392.319293 -73.071313 
L 388.702948 -73.04674 
L 385.086602 -73.022497 
L 381.470257 -72.940969 
L 377.853912 -72.858317 
L 374.237567 -72.774518 
L 370.621221 -72.689544 
L 367.004876 -72.551155 
L 363.388531 -72.410189 
L 359.772185 -72.381981 
L 356.15584 -72.291319 
L 352.539495 -72.263036 
L 348.92315 -72.17053 
L 345.306804 -72.076643 
L 341.690459 -71.923612 
L 338.074114 -71.767494 
L 334.457769 -71.667453 
L 330.841423 -71.635001 
L 327.225078 -71.603113 
L 323.608733 -71.571848 
L 319.992388 -71.468521 
L 316.376042 -71.437428 
L 312.759697 -71.331936 
L 309.143352 -71.100239 
L 305.527006 -71.066418 
L 301.910661 -71.033461 
L 298.294316 -70.921186 
L 294.677971 -70.8887 
L 291.061625 -70.857324 
L 287.44528 -70.667341 
L 283.828935 -70.548957 
L 280.21259 -70.283305 
L 276.596244 -70.157885 
L 272.979899 -70.030258 
L 269.363554 -69.900367 
L 265.747208 -69.862584 
L 262.130863 -69.729903 
L 258.514518 -69.594864 
L 254.898173 -69.558035 
L 251.281827 -69.328287 
L 247.665482 -69.185966 
L 244.049137 -69.041076 
L 240.432792 -68.632331 
L 236.816446 -68.375053 
L 233.200101 -68.019123 
L 229.583756 -67.743451 
L 225.96741 -67.458938 
L 222.351065 -67.274761 
L 218.73472 -66.7852 
L 215.118375 -66.366094 
L 211.502029 -65.83793 
L 207.885684 -65.609716 
L 204.269339 -65.251476 
L 200.652994 -65.147512 
L 197.036648 -64.900387 
L 193.420303 -64.6464 
L 189.803958 -64.540231 
L 186.187612 -64.437669 
L 182.571267 -63.882466 
L 178.954922 -63.59917 
L 175.338577 -63.30776 
L 171.722231 -63.008011 
L 168.105886 -62.699725 
L 164.489541 -62.19763 
L 160.873196 -62.072719 
L 157.25685 -61.958327 
L 153.640505 -61.857404 
L 150.02416 -61.529804 
L 146.407815 -61.453855 
L 142.791469 -61.131581 
L 139.175124 -60.808989 
L 135.558779 -59.689099 
L 131.942433 -59.015452 
L 128.326088 -58.627247 
L 124.709743 -58.24706 
L 121.093398 -57.148274 
L 117.477052 -55.949472 
L 113.860707 -55.055349 
L 110.244362 -54.605455 
L 106.628017 -54.810613 
L 103.011671 -55.302422 
L 99.395326 -55.472859 
L 95.778981 -56.105081 
L 92.162635 -58.693012 
L 88.54629 -63.539778 
L 84.929945 -71.247503 
L 81.3136 -86.515682 
L 77.697254 -141.452382 
L 74.080909 -283.195305 
z
" style="stroke: #0000ff; stroke-opacity: 0.2"/>
    </defs>
    <g clip-path="url(#p040fc67fe9)">
     <use xlink:href="#m0cdc63c6be" x="0" y="345.6" style="fill: #0000ff; fill-opacity: 0.2; stroke: #0000ff; stroke-opacity: 0.2"/>
    </g>
   </g>
   <g id="matplotlib.axis_1">
    <g id="xtick_1">
     <g id="line2d_1">
      <defs>
       <path id="m1e8777b001" d="M 0 0 
L 0 3.5 
" style="stroke: #000000; stroke-width: 0.8"/>
      </defs>
      <g>
       <use xlink:href="#m1e8777b001" x="74.080909" y="303.64" style="stroke: #000000; stroke-width: 0.8"/>
      </g>
     </g>
     <g id="text_1">
      <!-- 0 -->
      <g transform="translate(70.899659 318.238437) scale(0.1 -0.1)">
       <defs>
        <path id="DejaVuSans-30" d="M 2034 4250 
Q 1547 4250 1301 3770 
Q 1056 3291 1056 2328 
Q 1056 1369 1301 889 
Q 1547 409 2034 409 
Q 2525 409 2770 889 
Q 3016 1369 3016 2328 
Q 3016 3291 2770 3770 
Q 2525 4250 2034 4250 
z
M 2034 4750 
Q 2819 4750 3233 4129 
Q 3647 3509 3647 2328 
Q 3647 1150 3233 529 
Q 2819 -91 2034 -91 
Q 1250 -91 836 529 
Q 422 1150 422 2328 
Q 422 3509 836 4129 
Q 1250 4750 2034 4750 
z
" transform="scale(0.015625)"/>
       </defs>
       <use xlink:href="#DejaVuSans-30"/>
      </g>
     </g>
    </g>
    <g id="xtick_2">
     <g id="line2d_2">
      <g>
       <use xlink:href="#m1e8777b001" x="146.407815" y="303.64" style="stroke: #000000; stroke-width: 0.8"/>
      </g>
     </g>
     <g id="text_2">
      <!-- 20 -->
      <g transform="translate(140.045315 318.238437) scale(0.1 -0.1)">
       <defs>
        <path id="DejaVuSans-32" d="M 1228 531 
L 3431 531 
L 3431 0 
L 469 0 
L 469 531 
Q 828 903 1448 1529 
Q 2069 2156 2228 2338 
Q 2531 2678 2651 2914 
Q 2772 3150 2772 3378 
Q 2772 3750 2511 3984 
Q 2250 4219 1831 4219 
Q 1534 4219 1204 4116 
Q 875 4013 500 3803 
L 500 4441 
Q 881 4594 1212 4672 
Q 1544 4750 1819 4750 
Q 2544 4750 2975 4387 
Q 3406 4025 3406 3419 
Q 3406 3131 3298 2873 
Q 3191 2616 2906 2266 
Q 2828 2175 2409 1742 
Q 1991 1309 1228 531 
z
" transform="scale(0.015625)"/>
       </defs>
       <use xlink:href="#DejaVuSans-32"/>
       <use xlink:href="#DejaVuSans-30" x="63.623047"/>
      </g>
     </g>
    </g>
    <g id="xtick_3">
     <g id="line2d_3">
      <g>
       <use xlink:href="#m1e8777b001" x="218.73472" y="303.64" style="stroke: #000000; stroke-width: 0.8"/>
      </g>
     </g>
     <g id="text_3">
      <!-- 40 -->
      <g transform="translate(212.37222 318.238437) scale(0.1 -0.1)">
       <defs>
        <path id="DejaVuSans-34" d="M 2419 4116 
L 825 1625 
L 2419 1625 
L 2419 4116 
z
M 2253 4666 
L 3047 4666 
L 3047 1625 
L 3713 1625 
L 3713 1100 
L 3047 1100 
L 3047 0 
L 2419 0 
L 2419 1100 
L 313 1100 
L 313 1709 
L 2253 4666 
z
" transform="scale(0.015625)"/>
       </defs>
       <use xlink:href="#DejaVuSans-34"/>
       <use xlink:href="#DejaVuSans-30" x="63.623047"/>
      </g>
     </g>
    </g>
    <g id="xtick_4">
     <g id="line2d_4">
      <g>
       <use xlink:href="#m1e8777b001" x="291.061625" y="303.64" style="stroke: #000000; stroke-width: 0.8"/>
      </g>
     </g>
     <g id="text_4">
      <!-- 60 -->
      <g transform="translate(284.699125 318.238437) scale(0.1 -0.1)">
       <defs>
        <path id="DejaVuSans-36" d="M 2113 2584 
Q 1688 2584 1439 2293 
Q 1191 2003 1191 1497 
Q 1191 994 1439 701 
Q 1688 409 2113 409 
Q 2538 409 2786 701 
Q 3034 994 3034 1497 
Q 3034 2003 2786 2293 
Q 2538 2584 2113 2584 
z
M 3366 4563 
L 3366 3988 
Q 3128 4100 2886 4159 
Q 2644 4219 2406 4219 
Q 1781 4219 1451 3797 
Q 1122 3375 1075 2522 
Q 1259 2794 1537 2939 
Q 1816 3084 2150 3084 
Q 2853 3084 3261 2657 
Q 3669 2231 3669 1497 
Q 3669 778 3244 343 
Q 2819 -91 2113 -91 
Q 1303 -91 875 529 
Q 447 1150 447 2328 
Q 447 3434 972 4092 
Q 1497 4750 2381 4750 
Q 2619 4750 2861 4703 
Q 3103 4656 3366 4563 
z
" transform="scale(0.015625)"/>
       </defs>
       <use xlink:href="#DejaVuSans-36"/>
       <use xlink:href="#DejaVuSans-30" x="63.623047"/>
      </g>
     </g>
    </g>
    <g id="xtick_5">
     <g id="line2d_5">
      <g>
       <use xlink:href="#m1e8777b001" x="363.388531" y="303.64" style="stroke: #000000; stroke-width: 0.8"/>
      </g>
     </g>
     <g id="text_5">
      <!-- 80 -->
      <g transform="translate(357.026031 318.238437) scale(0.1 -0.1)">
       <defs>
        <path id="DejaVuSans-38" d="M 2034 2216 
Q 1584 2216 1326 1975 
Q 1069 1734 1069 1313 
Q 1069 891 1326 650 
Q 1584 409 2034 409 
Q 2484 409 2743 651 
Q 3003 894 3003 1313 
Q 3003 1734 2745 1975 
Q 2488 2216 2034 2216 
z
M 1403 2484 
Q 997 2584 770 2862 
Q 544 3141 544 3541 
Q 544 4100 942 4425 
Q 1341 4750 2034 4750 
Q 2731 4750 3128 4425 
Q 3525 4100 3525 3541 
Q 3525 3141 3298 2862 
Q 3072 2584 2669 2484 
Q 3125 2378 3379 2068 
Q 3634 1759 3634 1313 
Q 3634 634 3220 271 
Q 2806 -91 2034 -91 
Q 1263 -91 848 271 
Q 434 634 434 1313 
Q 434 1759 690 2068 
Q 947 2378 1403 2484 
z
M 1172 3481 
Q 1172 3119 1398 2916 
Q 1625 2713 2034 2713 
Q 2441 2713 2670 2916 
Q 2900 3119 2900 3481 
Q 2900 3844 2670 4047 
Q 2441 4250 2034 4250 
Q 1625 4250 1398 4047 
Q 1172 3844 1172 3481 
z
" transform="scale(0.015625)"/>
       </defs>
       <use xlink:href="#DejaVuSans-38"/>
       <use xlink:href="#DejaVuSans-30" x="63.623047"/>
      </g>
     </g>
    </g>
    <g id="xtick_6">
     <g id="line2d_6">
      <g>
       <use xlink:href="#m1e8777b001" x="435.715436" y="303.64" style="stroke: #000000; stroke-width: 0.8"/>
      </g>
     </g>
     <g id="text_6">
      <!-- 100 -->
      <g transform="translate(426.171686 318.238437) scale(0.1 -0.1)">
       <defs>
        <path id="DejaVuSans-31" d="M 794 531 
L 1825 531 
L 1825 4091 
L 703 3866 
L 703 4441 
L 1819 4666 
L 2450 4666 
L 2450 531 
L 3481 531 
L 3481 0 
L 794 0 
L 794 531 
z
" transform="scale(0.015625)"/>
       </defs>
       <use xlink:href="#DejaVuSans-31"/>
       <use xlink:href="#DejaVuSans-30" x="63.623047"/>
       <use xlink:href="#DejaVuSans-30" x="127.246094"/>
      </g>
     </g>
    </g>
    <g id="text_7">
     <!-- Iteration -->
     <g transform="translate(231.881406 331.916562) scale(0.1 -0.1)">
      <defs>
       <path id="DejaVuSans-49" d="M 628 4666 
L 1259 4666 
L 1259 0 
L 628 0 
L 628 4666 
z
" transform="scale(0.015625)"/>
       <path id="DejaVuSans-74" d="M 1172 4494 
L 1172 3500 
L 2356 3500 
L 2356 3053 
L 1172 3053 
L 1172 1153 
Q 1172 725 1289 603 
Q 1406 481 1766 481 
L 2356 481 
L 2356 0 
L 1766 0 
Q 1100 0 847 248 
Q 594 497 594 1153 
L 594 3053 
L 172 3053 
L 172 3500 
L 594 3500 
L 594 4494 
L 1172 4494 
z
" transform="scale(0.015625)"/>
       <path id="DejaVuSans-65" d="M 3597 1894 
L 3597 1613 
L 953 1613 
Q 991 1019 1311 708 
Q 1631 397 2203 397 
Q 2534 397 2845 478 
Q 3156 559 3463 722 
L 3463 178 
Q 3153 47 2828 -22 
Q 2503 -91 2169 -91 
Q 1331 -91 842 396 
Q 353 884 353 1716 
Q 353 2575 817 3079 
Q 1281 3584 2069 3584 
Q 2775 3584 3186 3129 
Q 3597 2675 3597 1894 
z
M 3022 2063 
Q 3016 2534 2758 2815 
Q 2500 3097 2075 3097 
Q 1594 3097 1305 2825 
Q 1016 2553 972 2059 
L 3022 2063 
z
" transform="scale(0.015625)"/>
       <path id="DejaVuSans-72" d="M 2631 2963 
Q 2534 3019 2420 3045 
Q 2306 3072 2169 3072 
Q 1681 3072 1420 2755 
Q 1159 2438 1159 1844 
L 1159 0 
L 581 0 
L 581 3500 
L 1159 3500 
L 1159 2956 
Q 1341 3275 1631 3429 
Q 1922 3584 2338 3584 
Q 2397 3584 2469 3576 
Q 2541 3569 2628 3553 
L 2631 2963 
z
" transform="scale(0.015625)"/>
       <path id="DejaVuSans-61" d="M 2194 1759 
Q 1497 1759 1228 1600 
Q 959 1441 959 1056 
Q 959 750 1161 570 
Q 1363 391 1709 391 
Q 2188 391 2477 730 
Q 2766 1069 2766 1631 
L 2766 1759 
L 2194 1759 
z
M 3341 1997 
L 3341 0 
L 2766 0 
L 2766 531 
Q 2569 213 2275 61 
Q 1981 -91 1556 -91 
Q 1019 -91 701 211 
Q 384 513 384 1019 
Q 384 1609 779 1909 
Q 1175 2209 1959 2209 
L 2766 2209 
L 2766 2266 
Q 2766 2663 2505 2880 
Q 2244 3097 1772 3097 
Q 1472 3097 1187 3025 
Q 903 2953 641 2809 
L 641 3341 
Q 956 3463 1253 3523 
Q 1550 3584 1831 3584 
Q 2591 3584 2966 3190 
Q 3341 2797 3341 1997 
z
" transform="scale(0.015625)"/>
       <path id="DejaVuSans-69" d="M 603 3500 
L 1178 3500 
L 1178 0 
L 603 0 
L 603 3500 
z
M 603 4863 
L 1178 4863 
L 1178 4134 
L 603 4134 
L 603 4863 
z
" transform="scale(0.015625)"/>
       <path id="DejaVuSans-6f" d="M 1959 3097 
Q 1497 3097 1228 2736 
Q 959 2375 959 1747 
Q 959 1119 1226 758 
Q 1494 397 1959 397 
Q 2419 397 2687 759 
Q 2956 1122 2956 1747 
Q 2956 2369 2687 2733 
Q 2419 3097 1959 3097 
z
M 1959 3584 
Q 2709 3584 3137 3096 
Q 3566 2609 3566 1747 
Q 3566 888 3137 398 
Q 2709 -91 1959 -91 
Q 1206 -91 779 398 
Q 353 888 353 1747 
Q 353 2609 779 3096 
Q 1206 3584 1959 3584 
z
" transform="scale(0.015625)"/>
       <path id="DejaVuSans-6e" d="M 3513 2113 
L 3513 0 
L 2938 0 
L 2938 2094 
Q 2938 2591 2744 2837 
Q 2550 3084 2163 3084 
Q 1697 3084 1428 2787 
Q 1159 2491 1159 1978 
L 1159 0 
L 581 0 
L 581 3500 
L 1159 3500 
L 1159 2956 
Q 1366 3272 1645 3428 
Q 1925 3584 2291 3584 
Q 2894 3584 3203 3211 
Q 3513 2838 3513 2113 
z
" transform="scale(0.015625)"/>
      </defs>
      <use xlink:href="#DejaVuSans-49"/>
      <use xlink:href="#DejaVuSans-74" x="29.492188"/>
      <use xlink:href="#DejaVuSans-65" x="68.701172"/>
      <use xlink:href="#DejaVuSans-72" x="130.224609"/>
      <use xlink:href="#DejaVuSans-61" x="171.337891"/>
      <use xlink:href="#DejaVuSans-74" x="232.617188"/>
      <use xlink:href="#DejaVuSans-69" x="271.826172"/>
      <use xlink:href="#DejaVuSans-6f" x="299.609375"/>
      <use xlink:href="#DejaVuSans-6e" x="360.791016"/>
     </g>
    </g>
   </g>
   <g id="matplotlib.axis_2">
    <g id="ytick_1">
     <g id="line2d_7">
      <defs>
       <path id="m73d8246074" d="M 0 0 
L -3.5 0 
" style="stroke: #000000; stroke-width: 0.8"/>
      </defs>
      <g>
       <use xlink:href="#m73d8246074" x="56.18" y="297.252059" style="stroke: #000000; stroke-width: 0.8"/>
      </g>
     </g>
     <g id="text_8">
      <!-- −0.2 -->
      <g transform="translate(24.897188 301.051278) scale(0.1 -0.1)">
       <defs>
        <path id="DejaVuSans-2212" d="M 678 2272 
L 4684 2272 
L 4684 1741 
L 678 1741 
L 678 2272 
z
" transform="scale(0.015625)"/>
        <path id="DejaVuSans-2e" d="M 684 794 
L 1344 794 
L 1344 0 
L 684 0 
L 684 794 
z
" transform="scale(0.015625)"/>
       </defs>
       <use xlink:href="#DejaVuSans-2212"/>
       <use xlink:href="#DejaVuSans-30" x="83.789062"/>
       <use xlink:href="#DejaVuSans-2e" x="147.412109"/>
       <use xlink:href="#DejaVuSans-32" x="179.199219"/>
      </g>
     </g>
    </g>
    <g id="ytick_2">
     <g id="line2d_8">
      <g>
       <use xlink:href="#m73d8246074" x="56.18" y="258.110832" style="stroke: #000000; stroke-width: 0.8"/>
      </g>
     </g>
     <g id="text_9">
      <!-- 0.0 -->
      <g transform="translate(33.276875 261.91005) scale(0.1 -0.1)">
       <use xlink:href="#DejaVuSans-30"/>
       <use xlink:href="#DejaVuSans-2e" x="63.623047"/>
       <use xlink:href="#DejaVuSans-30" x="95.410156"/>
      </g>
     </g>
    </g>
    <g id="ytick_3">
     <g id="line2d_9">
      <g>
       <use xlink:href="#m73d8246074" x="56.18" y="218.969604" style="stroke: #000000; stroke-width: 0.8"/>
      </g>
     </g>
     <g id="text_10">
      <!-- 0.2 -->
      <g transform="translate(33.276875 222.768823) scale(0.1 -0.1)">
       <use xlink:href="#DejaVuSans-30"/>
       <use xlink:href="#DejaVuSans-2e" x="63.623047"/>
       <use xlink:href="#DejaVuSans-32" x="95.410156"/>
      </g>
     </g>
    </g>
    <g id="ytick_4">
     <g id="line2d_10">
      <g>
       <use xlink:href="#m73d8246074" x="56.18" y="179.828377" style="stroke: #000000; stroke-width: 0.8"/>
      </g>
     </g>
     <g id="text_11">
      <!-- 0.4 -->
      <g transform="translate(33.276875 183.627596) scale(0.1 -0.1)">
       <use xlink:href="#DejaVuSans-30"/>
       <use xlink:href="#DejaVuSans-2e" x="63.623047"/>
       <use xlink:href="#DejaVuSans-34" x="95.410156"/>
      </g>
     </g>
    </g>
    <g id="ytick_5">
     <g id="line2d_11">
      <g>
       <use xlink:href="#m73d8246074" x="56.18" y="140.68715" style="stroke: #000000; stroke-width: 0.8"/>
      </g>
     </g>
     <g id="text_12">
      <!-- 0.6 -->
      <g transform="translate(33.276875 144.486369) scale(0.1 -0.1)">
       <use xlink:href="#DejaVuSans-30"/>
       <use xlink:href="#DejaVuSans-2e" x="63.623047"/>
       <use xlink:href="#DejaVuSans-36" x="95.410156"/>
      </g>
     </g>
    </g>
    <g id="ytick_6">
     <g id="line2d_12">
      <g>
       <use xlink:href="#m73d8246074" x="56.18" y="101.545923" style="stroke: #000000; stroke-width: 0.8"/>
      </g>
     </g>
     <g id="text_13">
      <!-- 0.8 -->
      <g transform="translate(33.276875 105.345141) scale(0.1 -0.1)">
       <use xlink:href="#DejaVuSans-30"/>
       <use xlink:href="#DejaVuSans-2e" x="63.623047"/>
       <use xlink:href="#DejaVuSans-38" x="95.410156"/>
      </g>
     </g>
    </g>
    <g id="ytick_7">
     <g id="line2d_13">
      <g>
       <use xlink:href="#m73d8246074" x="56.18" y="62.404695" style="stroke: #000000; stroke-width: 0.8"/>
      </g>
     </g>
     <g id="text_14">
      <!-- 1.0 -->
      <g transform="translate(33.276875 66.203914) scale(0.1 -0.1)">
       <use xlink:href="#DejaVuSans-31"/>
       <use xlink:href="#DejaVuSans-2e" x="63.623047"/>
       <use xlink:href="#DejaVuSans-30" x="95.410156"/>
      </g>
     </g>
    </g>
    <g id="text_15">
     <!-- Avg action -->
     <g transform="translate(18.8175 190.779844) rotate(-90) scale(0.1 -0.1)">
      <defs>
       <path id="DejaVuSans-41" d="M 2188 4044 
L 1331 1722 
L 3047 1722 
L 2188 4044 
z
M 1831 4666 
L 2547 4666 
L 4325 0 
L 3669 0 
L 3244 1197 
L 1141 1197 
L 716 0 
L 50 0 
L 1831 4666 
z
" transform="scale(0.015625)"/>
       <path id="DejaVuSans-76" d="M 191 3500 
L 800 3500 
L 1894 563 
L 2988 3500 
L 3597 3500 
L 2284 0 
L 1503 0 
L 191 3500 
z
" transform="scale(0.015625)"/>
       <path id="DejaVuSans-67" d="M 2906 1791 
Q 2906 2416 2648 2759 
Q 2391 3103 1925 3103 
Q 1463 3103 1205 2759 
Q 947 2416 947 1791 
Q 947 1169 1205 825 
Q 1463 481 1925 481 
Q 2391 481 2648 825 
Q 2906 1169 2906 1791 
z
M 3481 434 
Q 3481 -459 3084 -895 
Q 2688 -1331 1869 -1331 
Q 1566 -1331 1297 -1286 
Q 1028 -1241 775 -1147 
L 775 -588 
Q 1028 -725 1275 -790 
Q 1522 -856 1778 -856 
Q 2344 -856 2625 -561 
Q 2906 -266 2906 331 
L 2906 616 
Q 2728 306 2450 153 
Q 2172 0 1784 0 
Q 1141 0 747 490 
Q 353 981 353 1791 
Q 353 2603 747 3093 
Q 1141 3584 1784 3584 
Q 2172 3584 2450 3431 
Q 2728 3278 2906 2969 
L 2906 3500 
L 3481 3500 
L 3481 434 
z
" transform="scale(0.015625)"/>
       <path id="DejaVuSans-20" transform="scale(0.015625)"/>
       <path id="DejaVuSans-63" d="M 3122 3366 
L 3122 2828 
Q 2878 2963 2633 3030 
Q 2388 3097 2138 3097 
Q 1578 3097 1268 2742 
Q 959 2388 959 1747 
Q 959 1106 1268 751 
Q 1578 397 2138 397 
Q 2388 397 2633 464 
Q 2878 531 3122 666 
L 3122 134 
Q 2881 22 2623 -34 
Q 2366 -91 2075 -91 
Q 1284 -91 818 406 
Q 353 903 353 1747 
Q 353 2603 823 3093 
Q 1294 3584 2113 3584 
Q 2378 3584 2631 3529 
Q 2884 3475 3122 3366 
z
" transform="scale(0.015625)"/>
      </defs>
      <use xlink:href="#DejaVuSans-41"/>
      <use xlink:href="#DejaVuSans-76" x="62.533203"/>
      <use xlink:href="#DejaVuSans-67" x="121.712891"/>
      <use xlink:href="#DejaVuSans-20" x="185.189453"/>
      <use xlink:href="#DejaVuSans-61" x="216.976562"/>
      <use xlink:href="#DejaVuSans-63" x="278.255859"/>
      <use xlink:href="#DejaVuSans-74" x="333.236328"/>
      <use xlink:href="#DejaVuSans-69" x="372.445312"/>
      <use xlink:href="#DejaVuSans-6f" x="400.228516"/>
      <use xlink:href="#DejaVuSans-6e" x="461.410156"/>
     </g>
    </g>
   </g>
   <g id="line2d_14">
    <path d="M 74.080909 62.404695 
L 77.697254 179.828377 
L 81.3136 250.282586 
L 84.929945 250.282586 
L 88.54629 254.196709 
L 92.162635 258.110832 
L 95.778981 258.110832 
L 99.395326 254.196709 
L 103.011671 254.196709 
L 106.628017 258.110832 
L 110.244362 258.110832 
L 113.860707 254.196709 
L 117.477052 250.282586 
L 121.093398 246.368463 
L 124.709743 246.368463 
L 128.326088 254.196709 
L 131.942433 254.196709 
L 135.558779 250.282586 
L 139.175124 242.454341 
L 142.791469 254.196709 
L 146.407815 254.196709 
L 150.02416 258.110832 
L 153.640505 254.196709 
L 157.25685 258.110832 
L 160.873196 258.110832 
L 164.489541 258.110832 
L 168.105886 250.282586 
L 171.722231 254.196709 
L 175.338577 254.196709 
L 178.954922 254.196709 
L 182.571267 254.196709 
L 186.187612 246.368463 
L 189.803958 258.110832 
L 193.420303 258.110832 
L 197.036648 254.196709 
L 200.652994 254.196709 
L 204.269339 258.110832 
L 207.885684 250.282586 
L 211.502029 254.196709 
L 215.118375 242.454341 
L 218.73472 246.368463 
L 222.351065 242.454341 
L 225.96741 254.196709 
L 229.583756 250.282586 
L 233.200101 250.282586 
L 236.816446 246.368463 
L 240.432792 250.282586 
L 244.049137 242.454341 
L 247.665482 254.196709 
L 251.281827 254.196709 
L 254.898173 250.282586 
L 258.514518 258.110832 
L 262.130863 254.196709 
L 265.747208 254.196709 
L 269.363554 258.110832 
L 272.979899 254.196709 
L 276.596244 254.196709 
L 280.21259 254.196709 
L 283.828935 246.368463 
L 287.44528 254.196709 
L 291.061625 250.282586 
L 294.677971 258.110832 
L 298.294316 258.110832 
L 301.910661 254.196709 
L 305.527006 258.110832 
L 309.143352 258.110832 
L 312.759697 246.368463 
L 316.376042 254.196709 
L 319.992388 258.110832 
L 323.608733 254.196709 
L 327.225078 258.110832 
L 330.841423 258.110832 
L 334.457769 258.110832 
L 338.074114 254.196709 
L 341.690459 250.282586 
L 345.306804 250.282586 
L 348.92315 254.196709 
L 352.539495 254.196709 
L 356.15584 258.110832 
L 359.772185 254.196709 
L 363.388531 258.110832 
L 367.004876 250.282586 
L 370.621221 250.282586 
L 374.237567 254.196709 
L 377.853912 254.196709 
L 381.470257 254.196709 
L 385.086602 254.196709 
L 388.702948 258.110832 
L 392.319293 258.110832 
L 395.935638 258.110832 
L 399.551983 250.282586 
L 403.168329 246.368463 
L 406.784674 250.282586 
L 410.401019 254.196709 
L 414.017365 254.196709 
L 417.63371 258.110832 
L 421.250055 250.282586 
L 424.8664 250.282586 
L 428.482746 250.282586 
L 432.099091 254.196709 
" clip-path="url(#p040fc67fe9)" style="fill: none; stroke: #0000ff; stroke-linecap: square"/>
    <defs>
     <path id="m46c331bafb" d="M -0.49999 0.49999 
L 0.50001 0.49999 
L 0.50001 -0.50001 
L -0.49999 -0.50001 
z
"/>
    </defs>
    <g clip-path="url(#p040fc67fe9)">
     <use xlink:href="#m46c331bafb" x="74.080909" y="62.404695" style="fill: #0000ff"/>
     <use xlink:href="#m46c331bafb" x="77.697254" y="179.828377" style="fill: #0000ff"/>
     <use xlink:href="#m46c331bafb" x="81.3136" y="250.282586" style="fill: #0000ff"/>
     <use xlink:href="#m46c331bafb" x="84.929945" y="250.282586" style="fill: #0000ff"/>
     <use xlink:href="#m46c331bafb" x="88.54629" y="254.196709" style="fill: #0000ff"/>
     <use xlink:href="#m46c331bafb" x="92.162635" y="258.110832" style="fill: #0000ff"/>
     <use xlink:href="#m46c331bafb" x="95.778981" y="258.110832" style="fill: #0000ff"/>
     <use xlink:href="#m46c331bafb" x="99.395326" y="254.196709" style="fill: #0000ff"/>
     <use xlink:href="#m46c331bafb" x="103.011671" y="254.196709" style="fill: #0000ff"/>
     <use xlink:href="#m46c331bafb" x="106.628017" y="258.110832" style="fill: #0000ff"/>
     <use xlink:href="#m46c331bafb" x="110.244362" y="258.110832" style="fill: #0000ff"/>
     <use xlink:href="#m46c331bafb" x="113.860707" y="254.196709" style="fill: #0000ff"/>
     <use xlink:href="#m46c331bafb" x="117.477052" y="250.282586" style="fill: #0000ff"/>
     <use xlink:href="#m46c331bafb" x="121.093398" y="246.368463" style="fill: #0000ff"/>
     <use xlink:href="#m46c331bafb" x="124.709743" y="246.368463" style="fill: #0000ff"/>
     <use xlink:href="#m46c331bafb" x="128.326088" y="254.196709" style="fill: #0000ff"/>
     <use xlink:href="#m46c331bafb" x="131.942433" y="254.196709" style="fill: #0000ff"/>
     <use xlink:href="#m46c331bafb" x="135.558779" y="250.282586" style="fill: #0000ff"/>
     <use xlink:href="#m46c331bafb" x="139.175124" y="242.454341" style="fill: #0000ff"/>
     <use xlink:href="#m46c331bafb" x="142.791469" y="254.196709" style="fill: #0000ff"/>
     <use xlink:href="#m46c331bafb" x="146.407815" y="254.196709" style="fill: #0000ff"/>
     <use xlink:href="#m46c331bafb" x="150.02416" y="258.110832" style="fill: #0000ff"/>
     <use xlink:href="#m46c331bafb" x="153.640505" y="254.196709" style="fill: #0000ff"/>
     <use xlink:href="#m46c331bafb" x="157.25685" y="258.110832" style="fill: #0000ff"/>
     <use xlink:href="#m46c331bafb" x="160.873196" y="258.110832" style="fill: #0000ff"/>
     <use xlink:href="#m46c331bafb" x="164.489541" y="258.110832" style="fill: #0000ff"/>
     <use xlink:href="#m46c331bafb" x="168.105886" y="250.282586" style="fill: #0000ff"/>
     <use xlink:href="#m46c331bafb" x="171.722231" y="254.196709" style="fill: #0000ff"/>
     <use xlink:href="#m46c331bafb" x="175.338577" y="254.196709" style="fill: #0000ff"/>
     <use xlink:href="#m46c331bafb" x="178.954922" y="254.196709" style="fill: #0000ff"/>
     <use xlink:href="#m46c331bafb" x="182.571267" y="254.196709" style="fill: #0000ff"/>
     <use xlink:href="#m46c331bafb" x="186.187612" y="246.368463" style="fill: #0000ff"/>
     <use xlink:href="#m46c331bafb" x="189.803958" y="258.110832" style="fill: #0000ff"/>
     <use xlink:href="#m46c331bafb" x="193.420303" y="258.110832" style="fill: #0000ff"/>
     <use xlink:href="#m46c331bafb" x="197.036648" y="254.196709" style="fill: #0000ff"/>
     <use xlink:href="#m46c331bafb" x="200.652994" y="254.196709" style="fill: #0000ff"/>
     <use xlink:href="#m46c331bafb" x="204.269339" y="258.110832" style="fill: #0000ff"/>
     <use xlink:href="#m46c331bafb" x="207.885684" y="250.282586" style="fill: #0000ff"/>
     <use xlink:href="#m46c331bafb" x="211.502029" y="254.196709" style="fill: #0000ff"/>
     <use xlink:href="#m46c331bafb" x="215.118375" y="242.454341" style="fill: #0000ff"/>
     <use xlink:href="#m46c331bafb" x="218.73472" y="246.368463" style="fill: #0000ff"/>
     <use xlink:href="#m46c331bafb" x="222.351065" y="242.454341" style="fill: #0000ff"/>
     <use xlink:href="#m46c331bafb" x="225.96741" y="254.196709" style="fill: #0000ff"/>
     <use xlink:href="#m46c331bafb" x="229.583756" y="250.282586" style="fill: #0000ff"/>
     <use xlink:href="#m46c331bafb" x="233.200101" y="250.282586" style="fill: #0000ff"/>
     <use xlink:href="#m46c331bafb" x="236.816446" y="246.368463" style="fill: #0000ff"/>
     <use xlink:href="#m46c331bafb" x="240.432792" y="250.282586" style="fill: #0000ff"/>
     <use xlink:href="#m46c331bafb" x="244.049137" y="242.454341" style="fill: #0000ff"/>
     <use xlink:href="#m46c331bafb" x="247.665482" y="254.196709" style="fill: #0000ff"/>
     <use xlink:href="#m46c331bafb" x="251.281827" y="254.196709" style="fill: #0000ff"/>
     <use xlink:href="#m46c331bafb" x="254.898173" y="250.282586" style="fill: #0000ff"/>
     <use xlink:href="#m46c331bafb" x="258.514518" y="258.110832" style="fill: #0000ff"/>
     <use xlink:href="#m46c331bafb" x="262.130863" y="254.196709" style="fill: #0000ff"/>
     <use xlink:href="#m46c331bafb" x="265.747208" y="254.196709" style="fill: #0000ff"/>
     <use xlink:href="#m46c331bafb" x="269.363554" y="258.110832" style="fill: #0000ff"/>
     <use xlink:href="#m46c331bafb" x="272.979899" y="254.196709" style="fill: #0000ff"/>
     <use xlink:href="#m46c331bafb" x="276.596244" y="254.196709" style="fill: #0000ff"/>
     <use xlink:href="#m46c331bafb" x="280.21259" y="254.196709" style="fill: #0000ff"/>
     <use xlink:href="#m46c331bafb" x="283.828935" y="246.368463" style="fill: #0000ff"/>
     <use xlink:href="#m46c331bafb" x="287.44528" y="254.196709" style="fill: #0000ff"/>
     <use xlink:href="#m46c331bafb" x="291.061625" y="250.282586" style="fill: #0000ff"/>
     <use xlink:href="#m46c331bafb" x="294.677971" y="258.110832" style="fill: #0000ff"/>
     <use xlink:href="#m46c331bafb" x="298.294316" y="258.110832" style="fill: #0000ff"/>
     <use xlink:href="#m46c331bafb" x="301.910661" y="254.196709" style="fill: #0000ff"/>
     <use xlink:href="#m46c331bafb" x="305.527006" y="258.110832" style="fill: #0000ff"/>
     <use xlink:href="#m46c331bafb" x="309.143352" y="258.110832" style="fill: #0000ff"/>
     <use xlink:href="#m46c331bafb" x="312.759697" y="246.368463" style="fill: #0000ff"/>
     <use xlink:href="#m46c331bafb" x="316.376042" y="254.196709" style="fill: #0000ff"/>
     <use xlink:href="#m46c331bafb" x="319.992388" y="258.110832" style="fill: #0000ff"/>
     <use xlink:href="#m46c331bafb" x="323.608733" y="254.196709" style="fill: #0000ff"/>
     <use xlink:href="#m46c331bafb" x="327.225078" y="258.110832" style="fill: #0000ff"/>
     <use xlink:href="#m46c331bafb" x="330.841423" y="258.110832" style="fill: #0000ff"/>
     <use xlink:href="#m46c331bafb" x="334.457769" y="258.110832" style="fill: #0000ff"/>
     <use xlink:href="#m46c331bafb" x="338.074114" y="254.196709" style="fill: #0000ff"/>
     <use xlink:href="#m46c331bafb" x="341.690459" y="250.282586" style="fill: #0000ff"/>
     <use xlink:href="#m46c331bafb" x="345.306804" y="250.282586" style="fill: #0000ff"/>
     <use xlink:href="#m46c331bafb" x="348.92315" y="254.196709" style="fill: #0000ff"/>
     <use xlink:href="#m46c331bafb" x="352.539495" y="254.196709" style="fill: #0000ff"/>
     <use xlink:href="#m46c331bafb" x="356.15584" y="258.110832" style="fill: #0000ff"/>
     <use xlink:href="#m46c331bafb" x="359.772185" y="254.196709" style="fill: #0000ff"/>
     <use xlink:href="#m46c331bafb" x="363.388531" y="258.110832" style="fill: #0000ff"/>
     <use xlink:href="#m46c331bafb" x="367.004876" y="250.282586" style="fill: #0000ff"/>
     <use xlink:href="#m46c331bafb" x="370.621221" y="250.282586" style="fill: #0000ff"/>
     <use xlink:href="#m46c331bafb" x="374.237567" y="254.196709" style="fill: #0000ff"/>
     <use xlink:href="#m46c331bafb" x="377.853912" y="254.196709" style="fill: #0000ff"/>
     <use xlink:href="#m46c331bafb" x="381.470257" y="254.196709" style="fill: #0000ff"/>
     <use xlink:href="#m46c331bafb" x="385.086602" y="254.196709" style="fill: #0000ff"/>
     <use xlink:href="#m46c331bafb" x="388.702948" y="258.110832" style="fill: #0000ff"/>
     <use xlink:href="#m46c331bafb" x="392.319293" y="258.110832" style="fill: #0000ff"/>
     <use xlink:href="#m46c331bafb" x="395.935638" y="258.110832" style="fill: #0000ff"/>
     <use xlink:href="#m46c331bafb" x="399.551983" y="250.282586" style="fill: #0000ff"/>
     <use xlink:href="#m46c331bafb" x="403.168329" y="246.368463" style="fill: #0000ff"/>
     <use xlink:href="#m46c331bafb" x="406.784674" y="250.282586" style="fill: #0000ff"/>
     <use xlink:href="#m46c331bafb" x="410.401019" y="254.196709" style="fill: #0000ff"/>
     <use xlink:href="#m46c331bafb" x="414.017365" y="254.196709" style="fill: #0000ff"/>
     <use xlink:href="#m46c331bafb" x="417.63371" y="258.110832" style="fill: #0000ff"/>
     <use xlink:href="#m46c331bafb" x="421.250055" y="250.282586" style="fill: #0000ff"/>
     <use xlink:href="#m46c331bafb" x="424.8664" y="250.282586" style="fill: #0000ff"/>
     <use xlink:href="#m46c331bafb" x="428.482746" y="250.282586" style="fill: #0000ff"/>
     <use xlink:href="#m46c331bafb" x="432.099091" y="254.196709" style="fill: #0000ff"/>
    </g>
   </g>
   <g id="line2d_15">
    <path d="M 74.080909 62.404695 
L 77.697254 121.116536 
L 81.3136 164.171886 
L 84.929945 185.699561 
L 88.54629 199.398991 
L 92.162635 209.184297 
L 95.778981 216.173802 
L 99.395326 220.926666 
L 103.011671 224.623337 
L 106.628017 227.972087 
L 110.244362 230.711972 
L 113.860707 232.669034 
L 117.477052 234.023922 
L 121.093398 234.905675 
L 124.709743 235.669861 
L 128.326088 236.827789 
L 131.942433 237.84949 
L 135.558779 238.540218 
L 139.175124 238.746224 
L 142.791469 239.518749 
L 146.407815 240.217699 
L 150.02416 241.031023 
L 153.640505 241.603444 
L 157.25685 242.291252 
L 160.873196 242.924035 
L 164.489541 243.508143 
L 168.105886 243.759048 
L 171.722231 244.131822 
L 175.338577 244.478887 
L 178.954922 244.802814 
L 182.571267 245.105843 
L 186.187612 245.1453 
L 189.803958 245.538195 
L 193.420303 245.907978 
L 197.036648 246.144799 
L 200.652994 246.368463 
L 204.269339 246.685825 
L 207.885684 246.780476 
L 211.502029 246.970636 
L 215.118375 246.857729 
L 218.73472 246.845795 
L 222.351065 246.741237 
L 225.96741 246.91462 
L 229.583756 246.991165 
L 233.200101 247.064307 
L 236.816446 247.04918 
L 240.432792 247.117976 
L 244.049137 247.020817 
L 247.665482 247.167264 
L 251.281827 247.307853 
L 254.898173 247.366181 
L 258.514518 247.572809 
L 262.130863 247.697788 
L 265.747208 247.818138 
L 269.363554 248.005278 
L 272.979899 248.11584 
L 276.596244 248.222521 
L 280.21259 248.325525 
L 283.828935 248.292354 
L 287.44528 248.39076 
L 291.061625 248.421774 
L 294.677971 248.578049 
L 298.294316 248.729363 
L 301.910661 248.81479 
L 305.527006 248.957806 
L 309.143352 249.096488 
L 312.759697 249.055771 
L 316.376042 249.131373 
L 319.992388 249.261511 
L 323.608733 249.332013 
L 327.225078 249.455659 
L 330.841423 249.575869 
L 334.457769 249.692787 
L 338.074114 249.753651 
L 341.690459 249.760703 
L 345.306804 249.76757 
L 348.92315 249.825091 
L 352.539495 249.881138 
L 356.15584 249.985311 
L 359.772185 250.037953 
L 363.388531 250.137619 
L 367.004876 250.139386 
L 370.621221 250.141112 
L 374.237567 250.189393 
L 377.853912 250.236538 
L 381.470257 250.282586 
L 385.086602 250.327576 
L 388.702948 250.416022 
L 392.319293 250.502481 
L 395.935638 250.587018 
L 399.551983 250.583672 
L 403.168329 250.537855 
L 406.784674 250.53511 
L 410.401019 250.574063 
L 414.017365 250.612196 
L 417.63371 250.690307 
L 421.250055 250.686104 
L 424.8664 250.681986 
L 428.482746 250.677952 
L 432.099091 250.71314 
" clip-path="url(#p040fc67fe9)" style="fill: none; stroke: #0000ff; stroke-opacity: 0.5; stroke-width: 0.5; stroke-linecap: square"/>
    <defs>
     <path id="m3e298f0f51" d="M -0.49999 0.49999 
L 0.50001 0.49999 
L 0.50001 -0.50001 
L -0.49999 -0.50001 
z
"/>
    </defs>
    <g clip-path="url(#p040fc67fe9)">
     <use xlink:href="#m3e298f0f51" x="74.080909" y="62.404695" style="fill: #0000ff; fill-opacity: 0.5"/>
     <use xlink:href="#m3e298f0f51" x="77.697254" y="121.116536" style="fill: #0000ff; fill-opacity: 0.5"/>
     <use xlink:href="#m3e298f0f51" x="81.3136" y="164.171886" style="fill: #0000ff; fill-opacity: 0.5"/>
     <use xlink:href="#m3e298f0f51" x="84.929945" y="185.699561" style="fill: #0000ff; fill-opacity: 0.5"/>
     <use xlink:href="#m3e298f0f51" x="88.54629" y="199.398991" style="fill: #0000ff; fill-opacity: 0.5"/>
     <use xlink:href="#m3e298f0f51" x="92.162635" y="209.184297" style="fill: #0000ff; fill-opacity: 0.5"/>
     <use xlink:href="#m3e298f0f51" x="95.778981" y="216.173802" style="fill: #0000ff; fill-opacity: 0.5"/>
     <use xlink:href="#m3e298f0f51" x="99.395326" y="220.926666" style="fill: #0000ff; fill-opacity: 0.5"/>
     <use xlink:href="#m3e298f0f51" x="103.011671" y="224.623337" style="fill: #0000ff; fill-opacity: 0.5"/>
     <use xlink:href="#m3e298f0f51" x="106.628017" y="227.972087" style="fill: #0000ff; fill-opacity: 0.5"/>
     <use xlink:href="#m3e298f0f51" x="110.244362" y="230.711972" style="fill: #0000ff; fill-opacity: 0.5"/>
     <use xlink:href="#m3e298f0f51" x="113.860707" y="232.669034" style="fill: #0000ff; fill-opacity: 0.5"/>
     <use xlink:href="#m3e298f0f51" x="117.477052" y="234.023922" style="fill: #0000ff; fill-opacity: 0.5"/>
     <use xlink:href="#m3e298f0f51" x="121.093398" y="234.905675" style="fill: #0000ff; fill-opacity: 0.5"/>
     <use xlink:href="#m3e298f0f51" x="124.709743" y="235.669861" style="fill: #0000ff; fill-opacity: 0.5"/>
     <use xlink:href="#m3e298f0f51" x="128.326088" y="236.827789" style="fill: #0000ff; fill-opacity: 0.5"/>
     <use xlink:href="#m3e298f0f51" x="131.942433" y="237.84949" style="fill: #0000ff; fill-opacity: 0.5"/>
     <use xlink:href="#m3e298f0f51" x="135.558779" y="238.540218" style="fill: #0000ff; fill-opacity: 0.5"/>
     <use xlink:href="#m3e298f0f51" x="139.175124" y="238.746224" style="fill: #0000ff; fill-opacity: 0.5"/>
     <use xlink:href="#m3e298f0f51" x="142.791469" y="239.518749" style="fill: #0000ff; fill-opacity: 0.5"/>
     <use xlink:href="#m3e298f0f51" x="146.407815" y="240.217699" style="fill: #0000ff; fill-opacity: 0.5"/>
     <use xlink:href="#m3e298f0f51" x="150.02416" y="241.031023" style="fill: #0000ff; fill-opacity: 0.5"/>
     <use xlink:href="#m3e298f0f51" x="153.640505" y="241.603444" style="fill: #0000ff; fill-opacity: 0.5"/>
     <use xlink:href="#m3e298f0f51" x="157.25685" y="242.291252" style="fill: #0000ff; fill-opacity: 0.5"/>
     <use xlink:href="#m3e298f0f51" x="160.873196" y="242.924035" style="fill: #0000ff; fill-opacity: 0.5"/>
     <use xlink:href="#m3e298f0f51" x="164.489541" y="243.508143" style="fill: #0000ff; fill-opacity: 0.5"/>
     <use xlink:href="#m3e298f0f51" x="168.105886" y="243.759048" style="fill: #0000ff; fill-opacity: 0.5"/>
     <use xlink:href="#m3e298f0f51" x="171.722231" y="244.131822" style="fill: #0000ff; fill-opacity: 0.5"/>
     <use xlink:href="#m3e298f0f51" x="175.338577" y="244.478887" style="fill: #0000ff; fill-opacity: 0.5"/>
     <use xlink:href="#m3e298f0f51" x="178.954922" y="244.802814" style="fill: #0000ff; fill-opacity: 0.5"/>
     <use xlink:href="#m3e298f0f51" x="182.571267" y="245.105843" style="fill: #0000ff; fill-opacity: 0.5"/>
     <use xlink:href="#m3e298f0f51" x="186.187612" y="245.1453" style="fill: #0000ff; fill-opacity: 0.5"/>
     <use xlink:href="#m3e298f0f51" x="189.803958" y="245.538195" style="fill: #0000ff; fill-opacity: 0.5"/>
     <use xlink:href="#m3e298f0f51" x="193.420303" y="245.907978" style="fill: #0000ff; fill-opacity: 0.5"/>
     <use xlink:href="#m3e298f0f51" x="197.036648" y="246.144799" style="fill: #0000ff; fill-opacity: 0.5"/>
     <use xlink:href="#m3e298f0f51" x="200.652994" y="246.368463" style="fill: #0000ff; fill-opacity: 0.5"/>
     <use xlink:href="#m3e298f0f51" x="204.269339" y="246.685825" style="fill: #0000ff; fill-opacity: 0.5"/>
     <use xlink:href="#m3e298f0f51" x="207.885684" y="246.780476" style="fill: #0000ff; fill-opacity: 0.5"/>
     <use xlink:href="#m3e298f0f51" x="211.502029" y="246.970636" style="fill: #0000ff; fill-opacity: 0.5"/>
     <use xlink:href="#m3e298f0f51" x="215.118375" y="246.857729" style="fill: #0000ff; fill-opacity: 0.5"/>
     <use xlink:href="#m3e298f0f51" x="218.73472" y="246.845795" style="fill: #0000ff; fill-opacity: 0.5"/>
     <use xlink:href="#m3e298f0f51" x="222.351065" y="246.741237" style="fill: #0000ff; fill-opacity: 0.5"/>
     <use xlink:href="#m3e298f0f51" x="225.96741" y="246.91462" style="fill: #0000ff; fill-opacity: 0.5"/>
     <use xlink:href="#m3e298f0f51" x="229.583756" y="246.991165" style="fill: #0000ff; fill-opacity: 0.5"/>
     <use xlink:href="#m3e298f0f51" x="233.200101" y="247.064307" style="fill: #0000ff; fill-opacity: 0.5"/>
     <use xlink:href="#m3e298f0f51" x="236.816446" y="247.04918" style="fill: #0000ff; fill-opacity: 0.5"/>
     <use xlink:href="#m3e298f0f51" x="240.432792" y="247.117976" style="fill: #0000ff; fill-opacity: 0.5"/>
     <use xlink:href="#m3e298f0f51" x="244.049137" y="247.020817" style="fill: #0000ff; fill-opacity: 0.5"/>
     <use xlink:href="#m3e298f0f51" x="247.665482" y="247.167264" style="fill: #0000ff; fill-opacity: 0.5"/>
     <use xlink:href="#m3e298f0f51" x="251.281827" y="247.307853" style="fill: #0000ff; fill-opacity: 0.5"/>
     <use xlink:href="#m3e298f0f51" x="254.898173" y="247.366181" style="fill: #0000ff; fill-opacity: 0.5"/>
     <use xlink:href="#m3e298f0f51" x="258.514518" y="247.572809" style="fill: #0000ff; fill-opacity: 0.5"/>
     <use xlink:href="#m3e298f0f51" x="262.130863" y="247.697788" style="fill: #0000ff; fill-opacity: 0.5"/>
     <use xlink:href="#m3e298f0f51" x="265.747208" y="247.818138" style="fill: #0000ff; fill-opacity: 0.5"/>
     <use xlink:href="#m3e298f0f51" x="269.363554" y="248.005278" style="fill: #0000ff; fill-opacity: 0.5"/>
     <use xlink:href="#m3e298f0f51" x="272.979899" y="248.11584" style="fill: #0000ff; fill-opacity: 0.5"/>
     <use xlink:href="#m3e298f0f51" x="276.596244" y="248.222521" style="fill: #0000ff; fill-opacity: 0.5"/>
     <use xlink:href="#m3e298f0f51" x="280.21259" y="248.325525" style="fill: #0000ff; fill-opacity: 0.5"/>
     <use xlink:href="#m3e298f0f51" x="283.828935" y="248.292354" style="fill: #0000ff; fill-opacity: 0.5"/>
     <use xlink:href="#m3e298f0f51" x="287.44528" y="248.39076" style="fill: #0000ff; fill-opacity: 0.5"/>
     <use xlink:href="#m3e298f0f51" x="291.061625" y="248.421774" style="fill: #0000ff; fill-opacity: 0.5"/>
     <use xlink:href="#m3e298f0f51" x="294.677971" y="248.578049" style="fill: #0000ff; fill-opacity: 0.5"/>
     <use xlink:href="#m3e298f0f51" x="298.294316" y="248.729363" style="fill: #0000ff; fill-opacity: 0.5"/>
     <use xlink:href="#m3e298f0f51" x="301.910661" y="248.81479" style="fill: #0000ff; fill-opacity: 0.5"/>
     <use xlink:href="#m3e298f0f51" x="305.527006" y="248.957806" style="fill: #0000ff; fill-opacity: 0.5"/>
     <use xlink:href="#m3e298f0f51" x="309.143352" y="249.096488" style="fill: #0000ff; fill-opacity: 0.5"/>
     <use xlink:href="#m3e298f0f51" x="312.759697" y="249.055771" style="fill: #0000ff; fill-opacity: 0.5"/>
     <use xlink:href="#m3e298f0f51" x="316.376042" y="249.131373" style="fill: #0000ff; fill-opacity: 0.5"/>
     <use xlink:href="#m3e298f0f51" x="319.992388" y="249.261511" style="fill: #0000ff; fill-opacity: 0.5"/>
     <use xlink:href="#m3e298f0f51" x="323.608733" y="249.332013" style="fill: #0000ff; fill-opacity: 0.5"/>
     <use xlink:href="#m3e298f0f51" x="327.225078" y="249.455659" style="fill: #0000ff; fill-opacity: 0.5"/>
     <use xlink:href="#m3e298f0f51" x="330.841423" y="249.575869" style="fill: #0000ff; fill-opacity: 0.5"/>
     <use xlink:href="#m3e298f0f51" x="334.457769" y="249.692787" style="fill: #0000ff; fill-opacity: 0.5"/>
     <use xlink:href="#m3e298f0f51" x="338.074114" y="249.753651" style="fill: #0000ff; fill-opacity: 0.5"/>
     <use xlink:href="#m3e298f0f51" x="341.690459" y="249.760703" style="fill: #0000ff; fill-opacity: 0.5"/>
     <use xlink:href="#m3e298f0f51" x="345.306804" y="249.76757" style="fill: #0000ff; fill-opacity: 0.5"/>
     <use xlink:href="#m3e298f0f51" x="348.92315" y="249.825091" style="fill: #0000ff; fill-opacity: 0.5"/>
     <use xlink:href="#m3e298f0f51" x="352.539495" y="249.881138" style="fill: #0000ff; fill-opacity: 0.5"/>
     <use xlink:href="#m3e298f0f51" x="356.15584" y="249.985311" style="fill: #0000ff; fill-opacity: 0.5"/>
     <use xlink:href="#m3e298f0f51" x="359.772185" y="250.037953" style="fill: #0000ff; fill-opacity: 0.5"/>
     <use xlink:href="#m3e298f0f51" x="363.388531" y="250.137619" style="fill: #0000ff; fill-opacity: 0.5"/>
     <use xlink:href="#m3e298f0f51" x="367.004876" y="250.139386" style="fill: #0000ff; fill-opacity: 0.5"/>
     <use xlink:href="#m3e298f0f51" x="370.621221" y="250.141112" style="fill: #0000ff; fill-opacity: 0.5"/>
     <use xlink:href="#m3e298f0f51" x="374.237567" y="250.189393" style="fill: #0000ff; fill-opacity: 0.5"/>
     <use xlink:href="#m3e298f0f51" x="377.853912" y="250.236538" style="fill: #0000ff; fill-opacity: 0.5"/>
     <use xlink:href="#m3e298f0f51" x="381.470257" y="250.282586" style="fill: #0000ff; fill-opacity: 0.5"/>
     <use xlink:href="#m3e298f0f51" x="385.086602" y="250.327576" style="fill: #0000ff; fill-opacity: 0.5"/>
     <use xlink:href="#m3e298f0f51" x="388.702948" y="250.416022" style="fill: #0000ff; fill-opacity: 0.5"/>
     <use xlink:href="#m3e298f0f51" x="392.319293" y="250.502481" style="fill: #0000ff; fill-opacity: 0.5"/>
     <use xlink:href="#m3e298f0f51" x="395.935638" y="250.587018" style="fill: #0000ff; fill-opacity: 0.5"/>
     <use xlink:href="#m3e298f0f51" x="399.551983" y="250.583672" style="fill: #0000ff; fill-opacity: 0.5"/>
     <use xlink:href="#m3e298f0f51" x="403.168329" y="250.537855" style="fill: #0000ff; fill-opacity: 0.5"/>
     <use xlink:href="#m3e298f0f51" x="406.784674" y="250.53511" style="fill: #0000ff; fill-opacity: 0.5"/>
     <use xlink:href="#m3e298f0f51" x="410.401019" y="250.574063" style="fill: #0000ff; fill-opacity: 0.5"/>
     <use xlink:href="#m3e298f0f51" x="414.017365" y="250.612196" style="fill: #0000ff; fill-opacity: 0.5"/>
     <use xlink:href="#m3e298f0f51" x="417.63371" y="250.690307" style="fill: #0000ff; fill-opacity: 0.5"/>
     <use xlink:href="#m3e298f0f51" x="421.250055" y="250.686104" style="fill: #0000ff; fill-opacity: 0.5"/>
     <use xlink:href="#m3e298f0f51" x="424.8664" y="250.681986" style="fill: #0000ff; fill-opacity: 0.5"/>
     <use xlink:href="#m3e298f0f51" x="428.482746" y="250.677952" style="fill: #0000ff; fill-opacity: 0.5"/>
     <use xlink:href="#m3e298f0f51" x="432.099091" y="250.71314" style="fill: #0000ff; fill-opacity: 0.5"/>
    </g>
   </g>
   <g id="line2d_16">
    <path d="M 56.18 258.110832 
L 450 258.110832 
" clip-path="url(#p040fc67fe9)" style="fill: none; stroke-dasharray: 0.555,0.24; stroke-dashoffset: 0; stroke: #ff0000; stroke-width: 0.15"/>
   </g>
   <g id="line2d_17">
    <path d="M 56.18 160.257763 
L 450 160.257763 
" clip-path="url(#p040fc67fe9)" style="fill: none; stroke-dasharray: 0.555,0.24; stroke-dashoffset: 0; stroke: #ff0000; stroke-width: 0.15"/>
   </g>
   <g id="line2d_18">
    <path d="M 56.18 62.404695 
L 450 62.404695 
" clip-path="url(#p040fc67fe9)" style="fill: none; stroke-dasharray: 0.555,0.24; stroke-dashoffset: 0; stroke: #ff0000; stroke-width: 0.15"/>
   </g>
   <g id="patch_3">
    <path d="M 56.18 303.64 
L 56.18 25.44 
" style="fill: none; stroke: #000000; stroke-width: 0.8; stroke-linejoin: miter; stroke-linecap: square"/>
   </g>
   <g id="patch_4">
    <path d="M 450 303.64 
L 450 25.44 
" style="fill: none; stroke: #000000; stroke-width: 0.8; stroke-linejoin: miter; stroke-linecap: square"/>
   </g>
   <g id="patch_5">
    <path d="M 56.18 303.64 
L 450 303.64 
" style="fill: none; stroke: #000000; stroke-width: 0.8; stroke-linejoin: miter; stroke-linecap: square"/>
   </g>
   <g id="patch_6">
    <path d="M 56.18 25.44 
L 450 25.44 
" style="fill: none; stroke: #000000; stroke-width: 0.8; stroke-linejoin: miter; stroke-linecap: square"/>
   </g>
   <g id="text_16">
    <!-- Average action - 20240412100726 - 50 games -->
    <g transform="translate(112.983438 19.44) scale(0.12 -0.12)">
     <defs>
      <path id="DejaVuSans-2d" d="M 313 2009 
L 1997 2009 
L 1997 1497 
L 313 1497 
L 313 2009 
z
" transform="scale(0.015625)"/>
      <path id="DejaVuSans-37" d="M 525 4666 
L 3525 4666 
L 3525 4397 
L 1831 0 
L 1172 0 
L 2766 4134 
L 525 4134 
L 525 4666 
z
" transform="scale(0.015625)"/>
      <path id="DejaVuSans-35" d="M 691 4666 
L 3169 4666 
L 3169 4134 
L 1269 4134 
L 1269 2991 
Q 1406 3038 1543 3061 
Q 1681 3084 1819 3084 
Q 2600 3084 3056 2656 
Q 3513 2228 3513 1497 
Q 3513 744 3044 326 
Q 2575 -91 1722 -91 
Q 1428 -91 1123 -41 
Q 819 9 494 109 
L 494 744 
Q 775 591 1075 516 
Q 1375 441 1709 441 
Q 2250 441 2565 725 
Q 2881 1009 2881 1497 
Q 2881 1984 2565 2268 
Q 2250 2553 1709 2553 
Q 1456 2553 1204 2497 
Q 953 2441 691 2322 
L 691 4666 
z
" transform="scale(0.015625)"/>
      <path id="DejaVuSans-6d" d="M 3328 2828 
Q 3544 3216 3844 3400 
Q 4144 3584 4550 3584 
Q 5097 3584 5394 3201 
Q 5691 2819 5691 2113 
L 5691 0 
L 5113 0 
L 5113 2094 
Q 5113 2597 4934 2840 
Q 4756 3084 4391 3084 
Q 3944 3084 3684 2787 
Q 3425 2491 3425 1978 
L 3425 0 
L 2847 0 
L 2847 2094 
Q 2847 2600 2669 2842 
Q 2491 3084 2119 3084 
Q 1678 3084 1418 2786 
Q 1159 2488 1159 1978 
L 1159 0 
L 581 0 
L 581 3500 
L 1159 3500 
L 1159 2956 
Q 1356 3278 1631 3431 
Q 1906 3584 2284 3584 
Q 2666 3584 2933 3390 
Q 3200 3197 3328 2828 
z
" transform="scale(0.015625)"/>
      <path id="DejaVuSans-73" d="M 2834 3397 
L 2834 2853 
Q 2591 2978 2328 3040 
Q 2066 3103 1784 3103 
Q 1356 3103 1142 2972 
Q 928 2841 928 2578 
Q 928 2378 1081 2264 
Q 1234 2150 1697 2047 
L 1894 2003 
Q 2506 1872 2764 1633 
Q 3022 1394 3022 966 
Q 3022 478 2636 193 
Q 2250 -91 1575 -91 
Q 1294 -91 989 -36 
Q 684 19 347 128 
L 347 722 
Q 666 556 975 473 
Q 1284 391 1588 391 
Q 1994 391 2212 530 
Q 2431 669 2431 922 
Q 2431 1156 2273 1281 
Q 2116 1406 1581 1522 
L 1381 1569 
Q 847 1681 609 1914 
Q 372 2147 372 2553 
Q 372 3047 722 3315 
Q 1072 3584 1716 3584 
Q 2034 3584 2315 3537 
Q 2597 3491 2834 3397 
z
" transform="scale(0.015625)"/>
     </defs>
     <use xlink:href="#DejaVuSans-41"/>
     <use xlink:href="#DejaVuSans-76" x="62.533203"/>
     <use xlink:href="#DejaVuSans-65" x="121.712891"/>
     <use xlink:href="#DejaVuSans-72" x="183.236328"/>
     <use xlink:href="#DejaVuSans-61" x="224.349609"/>
     <use xlink:href="#DejaVuSans-67" x="285.628906"/>
     <use xlink:href="#DejaVuSans-65" x="349.105469"/>
     <use xlink:href="#DejaVuSans-20" x="410.628906"/>
     <use xlink:href="#DejaVuSans-61" x="442.416016"/>
     <use xlink:href="#DejaVuSans-63" x="503.695312"/>
     <use xlink:href="#DejaVuSans-74" x="558.675781"/>
     <use xlink:href="#DejaVuSans-69" x="597.884766"/>
     <use xlink:href="#DejaVuSans-6f" x="625.667969"/>
     <use xlink:href="#DejaVuSans-6e" x="686.849609"/>
     <use xlink:href="#DejaVuSans-20" x="750.228516"/>
     <use xlink:href="#DejaVuSans-2d" x="782.015625"/>
     <use xlink:href="#DejaVuSans-20" x="818.099609"/>
     <use xlink:href="#DejaVuSans-32" x="849.886719"/>
     <use xlink:href="#DejaVuSans-30" x="913.509766"/>
     <use xlink:href="#DejaVuSans-32" x="977.132812"/>
     <use xlink:href="#DejaVuSans-34" x="1040.755859"/>
     <use xlink:href="#DejaVuSans-30" x="1104.378906"/>
     <use xlink:href="#DejaVuSans-34" x="1168.001953"/>
     <use xlink:href="#DejaVuSans-31" x="1231.625"/>
     <use xlink:href="#DejaVuSans-32" x="1295.248047"/>
     <use xlink:href="#DejaVuSans-31" x="1358.871094"/>
     <use xlink:href="#DejaVuSans-30" x="1422.494141"/>
     <use xlink:href="#DejaVuSans-30" x="1486.117188"/>
     <use xlink:href="#DejaVuSans-37" x="1549.740234"/>
     <use xlink:href="#DejaVuSans-32" x="1613.363281"/>
     <use xlink:href="#DejaVuSans-36" x="1676.986328"/>
     <use xlink:href="#DejaVuSans-20" x="1740.609375"/>
     <use xlink:href="#DejaVuSans-2d" x="1772.396484"/>
     <use xlink:href="#DejaVuSans-20" x="1808.480469"/>
     <use xlink:href="#DejaVuSans-35" x="1840.267578"/>
     <use xlink:href="#DejaVuSans-30" x="1903.890625"/>
     <use xlink:href="#DejaVuSans-20" x="1967.513672"/>
     <use xlink:href="#DejaVuSans-67" x="1999.300781"/>
     <use xlink:href="#DejaVuSans-61" x="2062.777344"/>
     <use xlink:href="#DejaVuSans-6d" x="2124.056641"/>
     <use xlink:href="#DejaVuSans-65" x="2221.46875"/>
     <use xlink:href="#DejaVuSans-73" x="2282.992188"/>
    </g>
   </g>
   <g id="legend_1">
    <g id="patch_7">
     <path d="M 359.690625 298.64 
L 443 298.64 
Q 445 298.64 445 296.64 
L 445 268.28375 
Q 445 266.28375 443 266.28375 
L 359.690625 266.28375 
Q 357.690625 266.28375 357.690625 268.28375 
L 357.690625 296.64 
Q 357.690625 298.64 359.690625 298.64 
z
" style="fill: #ffffff; opacity: 0.8; stroke: #cccccc; stroke-linejoin: miter"/>
    </g>
    <g id="line2d_19">
     <path d="M 361.690625 274.382187 
L 371.690625 274.382187 
L 381.690625 274.382187 
" style="fill: none; stroke: #0000ff; stroke-linecap: square"/>
     <g>
      <use xlink:href="#m46c331bafb" x="371.690625" y="274.382187" style="fill: #0000ff"/>
     </g>
    </g>
    <g id="text_17">
     <!-- LLM -->
     <g transform="translate(389.690625 277.882187) scale(0.1 -0.1)">
      <defs>
       <path id="DejaVuSans-4c" d="M 628 4666 
L 1259 4666 
L 1259 531 
L 3531 531 
L 3531 0 
L 628 0 
L 628 4666 
z
" transform="scale(0.015625)"/>
       <path id="DejaVuSans-4d" d="M 628 4666 
L 1569 4666 
L 2759 1491 
L 3956 4666 
L 4897 4666 
L 4897 0 
L 4281 0 
L 4281 4097 
L 3078 897 
L 2444 897 
L 1241 4097 
L 1241 0 
L 628 0 
L 628 4666 
z
" transform="scale(0.015625)"/>
      </defs>
      <use xlink:href="#DejaVuSans-4c"/>
      <use xlink:href="#DejaVuSans-4c" x="55.712891"/>
      <use xlink:href="#DejaVuSans-4d" x="111.425781"/>
     </g>
    </g>
    <g id="line2d_20">
     <path d="M 361.690625 289.060312 
L 371.690625 289.060312 
L 381.690625 289.060312 
" style="fill: none; stroke: #0000ff; stroke-opacity: 0.5; stroke-width: 0.5; stroke-linecap: square"/>
     <g>
      <use xlink:href="#m3e298f0f51" x="371.690625" y="289.060312" style="fill: #0000ff; fill-opacity: 0.5"/>
     </g>
    </g>
    <g id="text_18">
     <!-- LLM mean -->
     <g transform="translate(389.690625 292.560312) scale(0.1 -0.1)">
      <use xlink:href="#DejaVuSans-4c"/>
      <use xlink:href="#DejaVuSans-4c" x="55.712891"/>
      <use xlink:href="#DejaVuSans-4d" x="111.425781"/>
      <use xlink:href="#DejaVuSans-20" x="197.705078"/>
      <use xlink:href="#DejaVuSans-6d" x="229.492188"/>
      <use xlink:href="#DejaVuSans-65" x="326.904297"/>
      <use xlink:href="#DejaVuSans-61" x="388.427734"/>
      <use xlink:href="#DejaVuSans-6e" x="449.707031"/>
     </g>
    </g>
   </g>
  </g>
 </g>
 <defs>
  <clipPath id="p040fc67fe9">
   <rect x="56.18" y="25.44" width="393.82" height="278.2"/>
  </clipPath>
 </defs>
</svg>
