<?xml version="1.0" encoding="utf-8" standalone="no"?>
<!DOCTYPE svg PUBLIC "-//W3C//DTD SVG 1.1//EN"
  "http://www.w3.org/Graphics/SVG/1.1/DTD/svg11.dtd">
<svg xmlns:xlink="http://www.w3.org/1999/xlink" width="460.8pt" height="345.6pt" viewBox="0 0 460.8 345.6" xmlns="http://www.w3.org/2000/svg" version="1.1">
 <metadata>
  <rdf:RDF xmlns:dc="http://purl.org/dc/elements/1.1/" xmlns:cc="http://creativecommons.org/ns#" xmlns:rdf="http://www.w3.org/1999/02/22-rdf-syntax-ns#">
   <cc:Work>
    <dc:type rdf:resource="http://purl.org/dc/dcmitype/StillImage"/>
    <dc:date>2024-04-29T10:00:40.995671</dc:date>
    <dc:format>image/svg+xml</dc:format>
    <dc:creator>
     <cc:Agent>
      <dc:title>Matplotlib v3.8.0, https://matplotlib.org/</dc:title>
     </cc:Agent>
    </dc:creator>
   </cc:Work>
  </rdf:RDF>
 </metadata>
 <defs>
  <style type="text/css">*{stroke-linejoin: round; stroke-linecap: butt}</style>
 </defs>
 <g id="figure_1">
  <g id="patch_1">
   <path d="M 0 345.6 
L 460.8 345.6 
L 460.8 0 
L 0 0 
z
" style="fill: #ffffff"/>
  </g>
  <g id="axes_1">
   <g id="patch_2">
    <path d="M 47.81 303.64 
L 450 303.64 
L 450 25.44 
L 47.81 25.44 
z
" style="fill: #ffffff"/>
   </g>
   <g id="PolyCollection_1">
    <defs>
     <path id="m48378e914b" d="M 66.091364 -295.064377 
L 66.091364 -295.064377 
L 69.784568 -307.514545 
L 73.477773 -290.760467 
L 77.170978 -277.469384 
L 80.864183 -268.883833 
L 84.557388 -261.990092 
L 88.250592 -256.376571 
L 91.943797 -251.600925 
L 95.637002 -247.469675 
L 99.330207 -243.850835 
L 103.023411 -240.539844 
L 106.716616 -237.742922 
L 110.409821 -234.887457 
L 114.103026 -232.246027 
L 117.79623 -229.812169 
L 121.489435 -227.547636 
L 125.18264 -225.479155 
L 128.875845 -223.612161 
L 132.56905 -221.631264 
L 136.262254 -219.760307 
L 139.955459 -218.035817 
L 143.648664 -216.339956 
L 147.341869 -214.676683 
L 151.035073 -213.094015 
L 154.728278 -211.579641 
L 158.421483 -210.127535 
L 162.114688 -208.734924 
L 165.807893 -207.425142 
L 169.501097 -206.139069 
L 173.194302 -204.902834 
L 176.887507 -203.70982 
L 180.580712 -202.549974 
L 184.273916 -201.42413 
L 187.967121 -200.333126 
L 191.660326 -199.282239 
L 195.353531 -198.24728 
L 199.046736 -197.25765 
L 202.73994 -196.285297 
L 206.433145 -195.335644 
L 210.12635 -194.410691 
L 213.819555 -193.518077 
L 217.512759 -192.678125 
L 221.205964 -191.81647 
L 224.899169 -190.976233 
L 228.592374 -190.150541 
L 232.285579 -189.342959 
L 235.978783 -188.573369 
L 239.671988 -187.806442 
L 243.365193 -187.052778 
L 247.058398 -186.315225 
L 250.751602 -185.590898 
L 254.444807 -184.880278 
L 258.138012 -184.187756 
L 261.831217 -183.502885 
L 265.524421 -182.8307 
L 269.217626 -182.171626 
L 272.910831 -181.523076 
L 276.604036 -180.887238 
L 280.297241 -180.279857 
L 283.990445 -179.659919 
L 287.68365 -179.051641 
L 291.376855 -178.451629 
L 295.07006 -177.862478 
L 298.763264 -177.282024 
L 302.456469 -176.710018 
L 306.149674 -176.147485 
L 309.842879 -175.593013 
L 313.536084 -175.047001 
L 317.229288 -174.509284 
L 320.922493 -173.987543 
L 324.615698 -173.46724 
L 328.308903 -172.953246 
L 332.002107 -172.451459 
L 335.695312 -171.953639 
L 339.388517 -171.460394 
L 343.081722 -170.97439 
L 346.774927 -170.494227 
L 350.468131 -170.031548 
L 354.161336 -169.565122 
L 357.854541 -169.10497 
L 361.547746 -168.653589 
L 365.24095 -168.214055 
L 368.934155 -167.770055 
L 372.62736 -167.331584 
L 376.320565 -166.904392 
L 380.01377 -166.483595 
L 383.706974 -166.069074 
L 387.400179 -165.656387 
L 391.093384 -165.249403 
L 394.786589 -164.848034 
L 398.479793 -164.452195 
L 402.172998 -164.061796 
L 405.866203 -163.697367 
L 409.559408 -163.323164 
L 413.252612 -162.949038 
L 416.945817 -162.585409 
L 420.639022 -162.214776 
L 424.332227 -161.855257 
L 428.025432 -161.506389 
L 431.718636 -161.179101 
L 431.718636 -90.191123 
L 431.718636 -90.191123 
L 428.025432 -90.279659 
L 424.332227 -90.453248 
L 420.639022 -90.676537 
L 416.945817 -91.05114 
L 413.252612 -91.245945 
L 409.559408 -91.493297 
L 405.866203 -91.702225 
L 402.172998 -91.829056 
L 398.479793 -92.099258 
L 394.786589 -92.3787 
L 391.093384 -92.667788 
L 387.400179 -92.966953 
L 383.706974 -93.276647 
L 380.01377 -93.545387 
L 376.320565 -93.823928 
L 372.62736 -94.112724 
L 368.934155 -94.523378 
L 365.24095 -94.949213 
L 361.547746 -95.579109 
L 357.854541 -95.923321 
L 354.161336 -96.339779 
L 350.468131 -96.772439 
L 346.774927 -97.044829 
L 343.081722 -97.508916 
L 339.388517 -97.928219 
L 335.695312 -98.364748 
L 332.002107 -98.953934 
L 328.308903 -99.302172 
L 324.615698 -99.865351 
L 320.922493 -100.452997 
L 317.229288 -100.792527 
L 313.536084 -101.353582 
L 309.842879 -101.867363 
L 306.149674 -102.404799 
L 302.456469 -102.893783 
L 298.763264 -103.481298 
L 295.07006 -104.097175 
L 291.376855 -104.587811 
L 287.68365 -105.102989 
L 283.990445 -105.807381 
L 280.297241 -106.463097 
L 276.604036 -107.42411 
L 272.910831 -108.158583 
L 269.217626 -108.843404 
L 265.524421 -109.566189 
L 261.831217 -110.237983 
L 258.138012 -110.857068 
L 254.444807 -111.703622 
L 250.751602 -112.40384 
L 247.058398 -113.146784 
L 243.365193 -113.740097 
L 239.671988 -114.573135 
L 235.978783 -115.460429 
L 232.285579 -115.894246 
L 228.592374 -116.664167 
L 224.899169 -117.378384 
L 221.205964 -118.373362 
L 217.512759 -119.319808 
L 213.819555 -120.72805 
L 210.12635 -121.354432 
L 206.433145 -122.272998 
L 202.73994 -123.137333 
L 199.046736 -124.207 
L 195.353531 -124.838482 
L 191.660326 -125.79208 
L 187.967121 -127.129617 
L 184.273916 -128.280324 
L 180.580712 -129.386012 
L 176.887507 -130.601667 
L 173.194302 -131.942522 
L 169.501097 -132.917403 
L 165.807893 -134.000384 
L 162.114688 -134.700788 
L 158.421483 -136.212865 
L 154.728278 -137.513089 
L 151.035073 -138.780023 
L 147.341869 -140.011422 
L 143.648664 -141.418039 
L 139.955459 -143.771465 
L 136.262254 -146.50119 
L 132.56905 -148.540855 
L 128.875845 -150.37074 
L 125.18264 -154.177319 
L 121.489435 -157.289313 
L 117.79623 -159.613537 
L 114.103026 -161.393436 
L 110.409821 -163.614033 
L 106.716616 -166.430932 
L 103.023411 -171.649307 
L 99.330207 -173.628413 
L 95.637002 -178.078305 
L 91.943797 -181.628382 
L 88.250592 -184.667651 
L 84.557388 -189.474017 
L 80.864183 -192.358938 
L 77.170978 -191.227614 
L 73.477773 -199.978599 
L 69.784568 -222.499478 
L 66.091364 -295.064377 
z
" style="stroke: #0000ff; stroke-opacity: 0.2"/>
    </defs>
    <g clip-path="url(#p50c96c24bb)">
     <use xlink:href="#m48378e914b" x="0" y="345.6" style="fill: #0000ff; fill-opacity: 0.2; stroke: #0000ff; stroke-opacity: 0.2"/>
    </g>
   </g>
   <g id="PolyCollection_2">
    <defs>
     <path id="m47cf7d9fb8" d="M 66.091364 -220.522111 
L 66.091364 -220.522111 
L 69.784568 -223.012145 
L 73.477773 -220.143588 
L 77.170978 -220.319597 
L 80.864183 -219.231037 
L 84.557388 -217.217456 
L 88.250592 -216.271754 
L 91.943797 -214.870546 
L 95.637002 -213.713131 
L 99.330207 -212.56392 
L 103.023411 -212.520148 
L 106.716616 -211.813475 
L 110.409821 -211.048518 
L 114.103026 -210.905516 
L 117.79623 -210.29359 
L 121.489435 -209.598553 
L 125.18264 -210.680971 
L 128.875845 -210.098856 
L 132.56905 -209.528017 
L 136.262254 -209.142215 
L 139.955459 -208.70662 
L 143.648664 -211.575155 
L 147.341869 -211.040573 
L 151.035073 -212.465883 
L 154.728278 -212.162497 
L 158.421483 -211.693277 
L 162.114688 -211.223579 
L 165.807893 -210.99438 
L 169.501097 -210.977784 
L 173.194302 -210.957864 
L 176.887507 -210.63131 
L 180.580712 -210.862842 
L 184.273916 -210.840442 
L 187.967121 -210.590979 
L 191.660326 -210.279319 
L 195.353531 -210.379836 
L 199.046736 -210.583421 
L 202.73994 -210.284993 
L 206.433145 -210.077724 
L 210.12635 -209.919627 
L 213.819555 -209.932477 
L 217.512759 -210.03172 
L 221.205964 -209.84902 
L 224.899169 -209.722612 
L 228.592374 -210.265627 
L 232.285579 -210.261468 
L 235.978783 -210.18925 
L 239.671988 -210.260056 
L 243.365193 -210.856273 
L 247.058398 -211.179234 
L 250.751602 -211.252008 
L 254.444807 -211.125078 
L 258.138012 -212.181347 
L 261.831217 -212.046337 
L 265.524421 -211.835141 
L 269.217626 -211.806031 
L 272.910831 -211.604849 
L 276.604036 -211.398915 
L 280.297241 -211.379479 
L 283.990445 -211.208834 
L 287.68365 -211.249883 
L 291.376855 -211.50568 
L 295.07006 -211.835127 
L 298.763264 -211.659331 
L 302.456469 -211.584016 
L 306.149674 -212.085966 
L 309.842879 -211.900722 
L 313.536084 -211.720368 
L 317.229288 -211.592096 
L 320.922493 -211.682606 
L 324.615698 -211.622284 
L 328.308903 -211.620013 
L 332.002107 -211.837925 
L 335.695312 -211.868489 
L 339.388517 -211.703996 
L 343.081722 -211.542178 
L 346.774927 -211.49119 
L 350.468131 -211.380413 
L 354.161336 -211.226738 
L 357.854541 -211.12103 
L 361.547746 -211.017435 
L 365.24095 -211.056536 
L 368.934155 -211.093892 
L 372.62736 -210.961695 
L 376.320565 -210.83007 
L 380.01377 -210.692105 
L 383.706974 -211.026157 
L 387.400179 -211.108905 
L 391.093384 -210.982547 
L 394.786589 -210.890238 
L 398.479793 -210.780996 
L 402.172998 -210.660256 
L 405.866203 -210.555032 
L 409.559408 -210.451606 
L 413.252612 -210.45444 
L 416.945817 -210.353786 
L 420.639022 -210.438544 
L 424.332227 -210.740339 
L 428.025432 -210.640939 
L 431.718636 -210.765889 
L 431.718636 -186.707176 
L 431.718636 -186.707176 
L 428.025432 -186.586324 
L 424.332227 -186.874058 
L 420.639022 -186.777701 
L 416.945817 -186.656396 
L 413.252612 -186.649078 
L 409.559408 -186.542588 
L 405.866203 -186.534334 
L 402.172998 -186.526349 
L 398.479793 -186.557835 
L 394.786589 -186.871378 
L 391.093384 -186.833105 
L 387.400179 -186.87131 
L 383.706974 -186.73546 
L 380.01377 -186.622146 
L 376.320565 -186.705232 
L 372.62736 -186.742669 
L 368.934155 -187.015376 
L 365.24095 -186.881025 
L 361.547746 -186.744181 
L 357.854541 -186.7007 
L 354.161336 -186.656629 
L 350.468131 -186.75114 
L 346.774927 -186.707624 
L 343.081722 -186.59911 
L 339.388517 -186.827088 
L 335.695312 -186.932949 
L 332.002107 -186.78012 
L 328.308903 -186.609162 
L 324.615698 -187.426295 
L 320.922493 -187.315656 
L 317.229288 -187.145296 
L 313.536084 -187.102096 
L 309.842879 -187.224691 
L 306.149674 -187.424443 
L 302.456469 -187.287411 
L 298.763264 -187.98087 
L 295.07006 -188.292911 
L 291.376855 -188.117553 
L 287.68365 -187.930835 
L 283.990445 -187.755077 
L 280.297241 -187.767832 
L 276.604036 -187.606454 
L 272.910831 -187.844198 
L 269.217626 -187.930783 
L 265.524421 -187.762707 
L 261.831217 -187.852692 
L 258.138012 -187.75801 
L 254.444807 -187.746348 
L 250.751602 -187.64118 
L 247.058398 -188.890788 
L 243.365193 -188.67198 
L 239.671988 -188.503473 
L 235.978783 -188.288627 
L 232.285579 -188.127432 
L 228.592374 -187.923472 
L 224.899169 -187.711106 
L 221.205964 -187.577072 
L 217.512759 -187.500888 
L 213.819555 -187.242654 
L 210.12635 -187.000383 
L 206.433145 -187.930516 
L 202.73994 -187.856295 
L 199.046736 -188.08804 
L 195.353531 -187.782545 
L 191.660326 -187.482297 
L 187.967121 -188.019316 
L 184.273916 -187.941303 
L 180.580712 -187.650208 
L 176.887507 -187.28544 
L 173.194302 -187.28467 
L 169.501097 -186.949666 
L 165.807893 -186.59548 
L 162.114688 -186.359919 
L 158.421483 -186.808213 
L 154.728278 -187.52279 
L 151.035073 -187.299558 
L 147.341869 -186.930138 
L 143.648664 -187.498055 
L 139.955459 -187.680946 
L 136.262254 -187.657566 
L 132.56905 -187.474255 
L 128.875845 -187.66276 
L 125.18264 -188.778002 
L 121.489435 -188.163064 
L 117.79623 -188.750474 
L 114.103026 -190.291228 
L 110.409821 -189.672593 
L 106.716616 -191.158084 
L 103.023411 -190.925043 
L 99.330207 -190.006874 
L 95.637002 -191.529429 
L 91.943797 -193.711722 
L 88.250592 -195.230372 
L 84.557388 -194.170166 
L 80.864183 -193.919951 
L 77.170978 -201.487912 
L 73.477773 -198.457801 
L 69.784568 -206.009131 
L 66.091364 -220.522111 
z
" style="stroke: #ff0000; stroke-opacity: 0.1"/>
    </defs>
    <g clip-path="url(#p50c96c24bb)">
     <use xlink:href="#m47cf7d9fb8" x="0" y="345.6" style="fill: #ff0000; fill-opacity: 0.1; stroke: #ff0000; stroke-opacity: 0.1"/>
    </g>
   </g>
   <g id="matplotlib.axis_1">
    <g id="xtick_1">
     <g id="line2d_1">
      <defs>
       <path id="mf23c04938b" d="M 0 0 
L 0 3.5 
" style="stroke: #000000; stroke-width: 0.8"/>
      </defs>
      <g>
       <use xlink:href="#mf23c04938b" x="66.091364" y="303.64" style="stroke: #000000; stroke-width: 0.8"/>
      </g>
     </g>
     <g id="text_1">
      <!-- 0 -->
      <g transform="translate(62.910114 318.238437) scale(0.1 -0.1)">
       <defs>
        <path id="DejaVuSans-30" d="M 2034 4250 
Q 1547 4250 1301 3770 
Q 1056 3291 1056 2328 
Q 1056 1369 1301 889 
Q 1547 409 2034 409 
Q 2525 409 2770 889 
Q 3016 1369 3016 2328 
Q 3016 3291 2770 3770 
Q 2525 4250 2034 4250 
z
M 2034 4750 
Q 2819 4750 3233 4129 
Q 3647 3509 3647 2328 
Q 3647 1150 3233 529 
Q 2819 -91 2034 -91 
Q 1250 -91 836 529 
Q 422 1150 422 2328 
Q 422 3509 836 4129 
Q 1250 4750 2034 4750 
z
" transform="scale(0.015625)"/>
       </defs>
       <use xlink:href="#DejaVuSans-30"/>
      </g>
     </g>
    </g>
    <g id="xtick_2">
     <g id="line2d_2">
      <g>
       <use xlink:href="#mf23c04938b" x="139.955459" y="303.64" style="stroke: #000000; stroke-width: 0.8"/>
      </g>
     </g>
     <g id="text_2">
      <!-- 20 -->
      <g transform="translate(133.592959 318.238437) scale(0.1 -0.1)">
       <defs>
        <path id="DejaVuSans-32" d="M 1228 531 
L 3431 531 
L 3431 0 
L 469 0 
L 469 531 
Q 828 903 1448 1529 
Q 2069 2156 2228 2338 
Q 2531 2678 2651 2914 
Q 2772 3150 2772 3378 
Q 2772 3750 2511 3984 
Q 2250 4219 1831 4219 
Q 1534 4219 1204 4116 
Q 875 4013 500 3803 
L 500 4441 
Q 881 4594 1212 4672 
Q 1544 4750 1819 4750 
Q 2544 4750 2975 4387 
Q 3406 4025 3406 3419 
Q 3406 3131 3298 2873 
Q 3191 2616 2906 2266 
Q 2828 2175 2409 1742 
Q 1991 1309 1228 531 
z
" transform="scale(0.015625)"/>
       </defs>
       <use xlink:href="#DejaVuSans-32"/>
       <use xlink:href="#DejaVuSans-30" x="63.623047"/>
      </g>
     </g>
    </g>
    <g id="xtick_3">
     <g id="line2d_3">
      <g>
       <use xlink:href="#mf23c04938b" x="213.819555" y="303.64" style="stroke: #000000; stroke-width: 0.8"/>
      </g>
     </g>
     <g id="text_3">
      <!-- 40 -->
      <g transform="translate(207.457055 318.238437) scale(0.1 -0.1)">
       <defs>
        <path id="DejaVuSans-34" d="M 2419 4116 
L 825 1625 
L 2419 1625 
L 2419 4116 
z
M 2253 4666 
L 3047 4666 
L 3047 1625 
L 3713 1625 
L 3713 1100 
L 3047 1100 
L 3047 0 
L 2419 0 
L 2419 1100 
L 313 1100 
L 313 1709 
L 2253 4666 
z
" transform="scale(0.015625)"/>
       </defs>
       <use xlink:href="#DejaVuSans-34"/>
       <use xlink:href="#DejaVuSans-30" x="63.623047"/>
      </g>
     </g>
    </g>
    <g id="xtick_4">
     <g id="line2d_4">
      <g>
       <use xlink:href="#mf23c04938b" x="287.68365" y="303.64" style="stroke: #000000; stroke-width: 0.8"/>
      </g>
     </g>
     <g id="text_4">
      <!-- 60 -->
      <g transform="translate(281.32115 318.238437) scale(0.1 -0.1)">
       <defs>
        <path id="DejaVuSans-36" d="M 2113 2584 
Q 1688 2584 1439 2293 
Q 1191 2003 1191 1497 
Q 1191 994 1439 701 
Q 1688 409 2113 409 
Q 2538 409 2786 701 
Q 3034 994 3034 1497 
Q 3034 2003 2786 2293 
Q 2538 2584 2113 2584 
z
M 3366 4563 
L 3366 3988 
Q 3128 4100 2886 4159 
Q 2644 4219 2406 4219 
Q 1781 4219 1451 3797 
Q 1122 3375 1075 2522 
Q 1259 2794 1537 2939 
Q 1816 3084 2150 3084 
Q 2853 3084 3261 2657 
Q 3669 2231 3669 1497 
Q 3669 778 3244 343 
Q 2819 -91 2113 -91 
Q 1303 -91 875 529 
Q 447 1150 447 2328 
Q 447 3434 972 4092 
Q 1497 4750 2381 4750 
Q 2619 4750 2861 4703 
Q 3103 4656 3366 4563 
z
" transform="scale(0.015625)"/>
       </defs>
       <use xlink:href="#DejaVuSans-36"/>
       <use xlink:href="#DejaVuSans-30" x="63.623047"/>
      </g>
     </g>
    </g>
    <g id="xtick_5">
     <g id="line2d_5">
      <g>
       <use xlink:href="#mf23c04938b" x="361.547746" y="303.64" style="stroke: #000000; stroke-width: 0.8"/>
      </g>
     </g>
     <g id="text_5">
      <!-- 80 -->
      <g transform="translate(355.185246 318.238437) scale(0.1 -0.1)">
       <defs>
        <path id="DejaVuSans-38" d="M 2034 2216 
Q 1584 2216 1326 1975 
Q 1069 1734 1069 1313 
Q 1069 891 1326 650 
Q 1584 409 2034 409 
Q 2484 409 2743 651 
Q 3003 894 3003 1313 
Q 3003 1734 2745 1975 
Q 2488 2216 2034 2216 
z
M 1403 2484 
Q 997 2584 770 2862 
Q 544 3141 544 3541 
Q 544 4100 942 4425 
Q 1341 4750 2034 4750 
Q 2731 4750 3128 4425 
Q 3525 4100 3525 3541 
Q 3525 3141 3298 2862 
Q 3072 2584 2669 2484 
Q 3125 2378 3379 2068 
Q 3634 1759 3634 1313 
Q 3634 634 3220 271 
Q 2806 -91 2034 -91 
Q 1263 -91 848 271 
Q 434 634 434 1313 
Q 434 1759 690 2068 
Q 947 2378 1403 2484 
z
M 1172 3481 
Q 1172 3119 1398 2916 
Q 1625 2713 2034 2713 
Q 2441 2713 2670 2916 
Q 2900 3119 2900 3481 
Q 2900 3844 2670 4047 
Q 2441 4250 2034 4250 
Q 1625 4250 1398 4047 
Q 1172 3844 1172 3481 
z
" transform="scale(0.015625)"/>
       </defs>
       <use xlink:href="#DejaVuSans-38"/>
       <use xlink:href="#DejaVuSans-30" x="63.623047"/>
      </g>
     </g>
    </g>
    <g id="xtick_6">
     <g id="line2d_6">
      <g>
       <use xlink:href="#mf23c04938b" x="435.411841" y="303.64" style="stroke: #000000; stroke-width: 0.8"/>
      </g>
     </g>
     <g id="text_6">
      <!-- 100 -->
      <g transform="translate(425.868091 318.238437) scale(0.1 -0.1)">
       <defs>
        <path id="DejaVuSans-31" d="M 794 531 
L 1825 531 
L 1825 4091 
L 703 3866 
L 703 4441 
L 1819 4666 
L 2450 4666 
L 2450 531 
L 3481 531 
L 3481 0 
L 794 0 
L 794 531 
z
" transform="scale(0.015625)"/>
       </defs>
       <use xlink:href="#DejaVuSans-31"/>
       <use xlink:href="#DejaVuSans-30" x="63.623047"/>
       <use xlink:href="#DejaVuSans-30" x="127.246094"/>
      </g>
     </g>
    </g>
    <g id="text_7">
     <!-- Iteration -->
     <g transform="translate(227.696406 331.916562) scale(0.1 -0.1)">
      <defs>
       <path id="DejaVuSans-49" d="M 628 4666 
L 1259 4666 
L 1259 0 
L 628 0 
L 628 4666 
z
" transform="scale(0.015625)"/>
       <path id="DejaVuSans-74" d="M 1172 4494 
L 1172 3500 
L 2356 3500 
L 2356 3053 
L 1172 3053 
L 1172 1153 
Q 1172 725 1289 603 
Q 1406 481 1766 481 
L 2356 481 
L 2356 0 
L 1766 0 
Q 1100 0 847 248 
Q 594 497 594 1153 
L 594 3053 
L 172 3053 
L 172 3500 
L 594 3500 
L 594 4494 
L 1172 4494 
z
" transform="scale(0.015625)"/>
       <path id="DejaVuSans-65" d="M 3597 1894 
L 3597 1613 
L 953 1613 
Q 991 1019 1311 708 
Q 1631 397 2203 397 
Q 2534 397 2845 478 
Q 3156 559 3463 722 
L 3463 178 
Q 3153 47 2828 -22 
Q 2503 -91 2169 -91 
Q 1331 -91 842 396 
Q 353 884 353 1716 
Q 353 2575 817 3079 
Q 1281 3584 2069 3584 
Q 2775 3584 3186 3129 
Q 3597 2675 3597 1894 
z
M 3022 2063 
Q 3016 2534 2758 2815 
Q 2500 3097 2075 3097 
Q 1594 3097 1305 2825 
Q 1016 2553 972 2059 
L 3022 2063 
z
" transform="scale(0.015625)"/>
       <path id="DejaVuSans-72" d="M 2631 2963 
Q 2534 3019 2420 3045 
Q 2306 3072 2169 3072 
Q 1681 3072 1420 2755 
Q 1159 2438 1159 1844 
L 1159 0 
L 581 0 
L 581 3500 
L 1159 3500 
L 1159 2956 
Q 1341 3275 1631 3429 
Q 1922 3584 2338 3584 
Q 2397 3584 2469 3576 
Q 2541 3569 2628 3553 
L 2631 2963 
z
" transform="scale(0.015625)"/>
       <path id="DejaVuSans-61" d="M 2194 1759 
Q 1497 1759 1228 1600 
Q 959 1441 959 1056 
Q 959 750 1161 570 
Q 1363 391 1709 391 
Q 2188 391 2477 730 
Q 2766 1069 2766 1631 
L 2766 1759 
L 2194 1759 
z
M 3341 1997 
L 3341 0 
L 2766 0 
L 2766 531 
Q 2569 213 2275 61 
Q 1981 -91 1556 -91 
Q 1019 -91 701 211 
Q 384 513 384 1019 
Q 384 1609 779 1909 
Q 1175 2209 1959 2209 
L 2766 2209 
L 2766 2266 
Q 2766 2663 2505 2880 
Q 2244 3097 1772 3097 
Q 1472 3097 1187 3025 
Q 903 2953 641 2809 
L 641 3341 
Q 956 3463 1253 3523 
Q 1550 3584 1831 3584 
Q 2591 3584 2966 3190 
Q 3341 2797 3341 1997 
z
" transform="scale(0.015625)"/>
       <path id="DejaVuSans-69" d="M 603 3500 
L 1178 3500 
L 1178 0 
L 603 0 
L 603 3500 
z
M 603 4863 
L 1178 4863 
L 1178 4134 
L 603 4134 
L 603 4863 
z
" transform="scale(0.015625)"/>
       <path id="DejaVuSans-6f" d="M 1959 3097 
Q 1497 3097 1228 2736 
Q 959 2375 959 1747 
Q 959 1119 1226 758 
Q 1494 397 1959 397 
Q 2419 397 2687 759 
Q 2956 1122 2956 1747 
Q 2956 2369 2687 2733 
Q 2419 3097 1959 3097 
z
M 1959 3584 
Q 2709 3584 3137 3096 
Q 3566 2609 3566 1747 
Q 3566 888 3137 398 
Q 2709 -91 1959 -91 
Q 1206 -91 779 398 
Q 353 888 353 1747 
Q 353 2609 779 3096 
Q 1206 3584 1959 3584 
z
" transform="scale(0.015625)"/>
       <path id="DejaVuSans-6e" d="M 3513 2113 
L 3513 0 
L 2938 0 
L 2938 2094 
Q 2938 2591 2744 2837 
Q 2550 3084 2163 3084 
Q 1697 3084 1428 2787 
Q 1159 2491 1159 1978 
L 1159 0 
L 581 0 
L 581 3500 
L 1159 3500 
L 1159 2956 
Q 1366 3272 1645 3428 
Q 1925 3584 2291 3584 
Q 2894 3584 3203 3211 
Q 3513 2838 3513 2113 
z
" transform="scale(0.015625)"/>
      </defs>
      <use xlink:href="#DejaVuSans-49"/>
      <use xlink:href="#DejaVuSans-74" x="29.492188"/>
      <use xlink:href="#DejaVuSans-65" x="68.701172"/>
      <use xlink:href="#DejaVuSans-72" x="130.224609"/>
      <use xlink:href="#DejaVuSans-61" x="171.337891"/>
      <use xlink:href="#DejaVuSans-74" x="232.617188"/>
      <use xlink:href="#DejaVuSans-69" x="271.826172"/>
      <use xlink:href="#DejaVuSans-6f" x="299.609375"/>
      <use xlink:href="#DejaVuSans-6e" x="360.791016"/>
     </g>
    </g>
   </g>
   <g id="matplotlib.axis_2">
    <g id="ytick_1">
     <g id="line2d_7">
      <defs>
       <path id="m49b6cee3e8" d="M 0 0 
L -3.5 0 
" style="stroke: #000000; stroke-width: 0.8"/>
      </defs>
      <g>
       <use xlink:href="#m49b6cee3e8" x="47.81" y="290.994545" style="stroke: #000000; stroke-width: 0.8"/>
      </g>
     </g>
     <g id="text_8">
      <!-- 0.0 -->
      <g transform="translate(24.906875 294.793764) scale(0.1 -0.1)">
       <defs>
        <path id="DejaVuSans-2e" d="M 684 794 
L 1344 794 
L 1344 0 
L 684 0 
L 684 794 
z
" transform="scale(0.015625)"/>
       </defs>
       <use xlink:href="#DejaVuSans-30"/>
       <use xlink:href="#DejaVuSans-2e" x="63.623047"/>
       <use xlink:href="#DejaVuSans-30" x="95.410156"/>
      </g>
     </g>
    </g>
    <g id="ytick_2">
     <g id="line2d_8">
      <g>
       <use xlink:href="#m49b6cee3e8" x="47.81" y="242.902761" style="stroke: #000000; stroke-width: 0.8"/>
      </g>
     </g>
     <g id="text_9">
      <!-- 0.2 -->
      <g transform="translate(24.906875 246.70198) scale(0.1 -0.1)">
       <use xlink:href="#DejaVuSans-30"/>
       <use xlink:href="#DejaVuSans-2e" x="63.623047"/>
       <use xlink:href="#DejaVuSans-32" x="95.410156"/>
      </g>
     </g>
    </g>
    <g id="ytick_3">
     <g id="line2d_9">
      <g>
       <use xlink:href="#m49b6cee3e8" x="47.81" y="194.810976" style="stroke: #000000; stroke-width: 0.8"/>
      </g>
     </g>
     <g id="text_10">
      <!-- 0.4 -->
      <g transform="translate(24.906875 198.610195) scale(0.1 -0.1)">
       <use xlink:href="#DejaVuSans-30"/>
       <use xlink:href="#DejaVuSans-2e" x="63.623047"/>
       <use xlink:href="#DejaVuSans-34" x="95.410156"/>
      </g>
     </g>
    </g>
    <g id="ytick_4">
     <g id="line2d_10">
      <g>
       <use xlink:href="#m49b6cee3e8" x="47.81" y="146.719192" style="stroke: #000000; stroke-width: 0.8"/>
      </g>
     </g>
     <g id="text_11">
      <!-- 0.6 -->
      <g transform="translate(24.906875 150.518411) scale(0.1 -0.1)">
       <use xlink:href="#DejaVuSans-30"/>
       <use xlink:href="#DejaVuSans-2e" x="63.623047"/>
       <use xlink:href="#DejaVuSans-36" x="95.410156"/>
      </g>
     </g>
    </g>
    <g id="ytick_5">
     <g id="line2d_11">
      <g>
       <use xlink:href="#m49b6cee3e8" x="47.81" y="98.627407" style="stroke: #000000; stroke-width: 0.8"/>
      </g>
     </g>
     <g id="text_12">
      <!-- 0.8 -->
      <g transform="translate(24.906875 102.426626) scale(0.1 -0.1)">
       <use xlink:href="#DejaVuSans-30"/>
       <use xlink:href="#DejaVuSans-2e" x="63.623047"/>
       <use xlink:href="#DejaVuSans-38" x="95.410156"/>
      </g>
     </g>
    </g>
    <g id="ytick_6">
     <g id="line2d_12">
      <g>
       <use xlink:href="#m49b6cee3e8" x="47.81" y="50.535623" style="stroke: #000000; stroke-width: 0.8"/>
      </g>
     </g>
     <g id="text_13">
      <!-- 1.0 -->
      <g transform="translate(24.906875 54.334842) scale(0.1 -0.1)">
       <use xlink:href="#DejaVuSans-31"/>
       <use xlink:href="#DejaVuSans-2e" x="63.623047"/>
       <use xlink:href="#DejaVuSans-30" x="95.410156"/>
      </g>
     </g>
    </g>
    <g id="text_14">
     <!-- Avg action -->
     <g transform="translate(18.827187 190.779844) rotate(-90) scale(0.1 -0.1)">
      <defs>
       <path id="DejaVuSans-41" d="M 2188 4044 
L 1331 1722 
L 3047 1722 
L 2188 4044 
z
M 1831 4666 
L 2547 4666 
L 4325 0 
L 3669 0 
L 3244 1197 
L 1141 1197 
L 716 0 
L 50 0 
L 1831 4666 
z
" transform="scale(0.015625)"/>
       <path id="DejaVuSans-76" d="M 191 3500 
L 800 3500 
L 1894 563 
L 2988 3500 
L 3597 3500 
L 2284 0 
L 1503 0 
L 191 3500 
z
" transform="scale(0.015625)"/>
       <path id="DejaVuSans-67" d="M 2906 1791 
Q 2906 2416 2648 2759 
Q 2391 3103 1925 3103 
Q 1463 3103 1205 2759 
Q 947 2416 947 1791 
Q 947 1169 1205 825 
Q 1463 481 1925 481 
Q 2391 481 2648 825 
Q 2906 1169 2906 1791 
z
M 3481 434 
Q 3481 -459 3084 -895 
Q 2688 -1331 1869 -1331 
Q 1566 -1331 1297 -1286 
Q 1028 -1241 775 -1147 
L 775 -588 
Q 1028 -725 1275 -790 
Q 1522 -856 1778 -856 
Q 2344 -856 2625 -561 
Q 2906 -266 2906 331 
L 2906 616 
Q 2728 306 2450 153 
Q 2172 0 1784 0 
Q 1141 0 747 490 
Q 353 981 353 1791 
Q 353 2603 747 3093 
Q 1141 3584 1784 3584 
Q 2172 3584 2450 3431 
Q 2728 3278 2906 2969 
L 2906 3500 
L 3481 3500 
L 3481 434 
z
" transform="scale(0.015625)"/>
       <path id="DejaVuSans-20" transform="scale(0.015625)"/>
       <path id="DejaVuSans-63" d="M 3122 3366 
L 3122 2828 
Q 2878 2963 2633 3030 
Q 2388 3097 2138 3097 
Q 1578 3097 1268 2742 
Q 959 2388 959 1747 
Q 959 1106 1268 751 
Q 1578 397 2138 397 
Q 2388 397 2633 464 
Q 2878 531 3122 666 
L 3122 134 
Q 2881 22 2623 -34 
Q 2366 -91 2075 -91 
Q 1284 -91 818 406 
Q 353 903 353 1747 
Q 353 2603 823 3093 
Q 1294 3584 2113 3584 
Q 2378 3584 2631 3529 
Q 2884 3475 3122 3366 
z
" transform="scale(0.015625)"/>
      </defs>
      <use xlink:href="#DejaVuSans-41"/>
      <use xlink:href="#DejaVuSans-76" x="62.533203"/>
      <use xlink:href="#DejaVuSans-67" x="121.712891"/>
      <use xlink:href="#DejaVuSans-20" x="185.189453"/>
      <use xlink:href="#DejaVuSans-61" x="216.976562"/>
      <use xlink:href="#DejaVuSans-63" x="278.255859"/>
      <use xlink:href="#DejaVuSans-74" x="333.236328"/>
      <use xlink:href="#DejaVuSans-69" x="372.445312"/>
      <use xlink:href="#DejaVuSans-6f" x="400.228516"/>
      <use xlink:href="#DejaVuSans-6e" x="461.410156"/>
     </g>
    </g>
   </g>
   <g id="line2d_13">
    <path d="M 66.091364 50.535623 
L 69.784568 110.650354 
L 73.477773 139.505424 
L 77.170978 144.314603 
L 80.864183 129.887067 
L 84.557388 144.314603 
L 88.250592 156.337549 
L 91.943797 156.337549 
L 95.637002 163.551317 
L 99.330207 173.169673 
L 103.023411 165.955906 
L 106.716616 187.597209 
L 110.409821 180.383441 
L 114.103026 180.383441 
L 117.79623 180.383441 
L 121.489435 187.597209 
L 125.18264 197.215566 
L 128.875845 206.833923 
L 132.56905 194.810976 
L 136.262254 199.620155 
L 139.955459 209.238512 
L 143.648664 209.238512 
L 147.341869 202.024744 
L 151.035073 202.024744 
L 154.728278 204.429333 
L 158.421483 206.833923 
L 162.114688 211.643101 
L 165.807893 202.024744 
L 169.501097 209.238512 
L 173.194302 209.238512 
L 176.887507 216.452279 
L 180.580712 216.452279 
L 184.273916 216.452279 
L 187.967121 218.856869 
L 191.660326 223.666047 
L 195.353531 218.856869 
L 199.046736 214.04769 
L 202.73994 223.666047 
L 206.433145 221.261458 
L 210.12635 223.666047 
L 213.819555 218.856869 
L 217.512759 235.688993 
L 221.205964 228.475226 
L 224.899169 230.879815 
L 228.592374 226.070636 
L 232.285579 228.475226 
L 235.978783 221.261458 
L 239.671988 233.284404 
L 243.365193 233.284404 
L 247.058398 228.475226 
L 250.751602 233.284404 
L 254.444807 233.284404 
L 258.138012 238.093582 
L 261.831217 233.284404 
L 265.524421 235.688993 
L 269.217626 238.093582 
L 272.910831 238.093582 
L 276.604036 240.498172 
L 280.297241 247.711939 
L 283.990445 240.498172 
L 287.68365 242.902761 
L 291.376855 238.093582 
L 295.07006 238.093582 
L 298.763264 242.902761 
L 302.456469 242.902761 
L 306.149674 240.498172 
L 309.842879 242.902761 
L 313.536084 242.902761 
L 317.229288 245.30735 
L 320.922493 238.093582 
L 324.615698 247.711939 
L 328.308903 247.711939 
L 332.002107 240.498172 
L 335.695312 250.116529 
L 339.388517 245.30735 
L 343.081722 245.30735 
L 346.774927 247.711939 
L 350.468131 240.498172 
L 354.161336 247.711939 
L 357.854541 247.711939 
L 361.547746 245.30735 
L 365.24095 257.330296 
L 368.934155 250.116529 
L 372.62736 250.116529 
L 376.320565 245.30735 
L 380.01377 245.30735 
L 383.706974 245.30735 
L 387.400179 247.711939 
L 391.093384 247.711939 
L 394.786589 247.711939 
L 398.479793 247.711939 
L 402.172998 247.711939 
L 405.866203 240.498172 
L 409.559408 245.30735 
L 413.252612 247.711939 
L 416.945817 245.30735 
L 420.639022 254.925707 
L 424.332227 247.711939 
L 428.025432 245.30735 
L 431.718636 240.498172 
" clip-path="url(#p50c96c24bb)" style="fill: none; stroke: #0000ff; stroke-linecap: square"/>
    <defs>
     <path id="m611e3b6a9c" d="M -0.49999 0.49999 
L 0.50001 0.49999 
L 0.50001 -0.50001 
L -0.49999 -0.50001 
z
"/>
    </defs>
    <g clip-path="url(#p50c96c24bb)">
     <use xlink:href="#m611e3b6a9c" x="66.091364" y="50.535623" style="fill: #0000ff"/>
     <use xlink:href="#m611e3b6a9c" x="69.784568" y="110.650354" style="fill: #0000ff"/>
     <use xlink:href="#m611e3b6a9c" x="73.477773" y="139.505424" style="fill: #0000ff"/>
     <use xlink:href="#m611e3b6a9c" x="77.170978" y="144.314603" style="fill: #0000ff"/>
     <use xlink:href="#m611e3b6a9c" x="80.864183" y="129.887067" style="fill: #0000ff"/>
     <use xlink:href="#m611e3b6a9c" x="84.557388" y="144.314603" style="fill: #0000ff"/>
     <use xlink:href="#m611e3b6a9c" x="88.250592" y="156.337549" style="fill: #0000ff"/>
     <use xlink:href="#m611e3b6a9c" x="91.943797" y="156.337549" style="fill: #0000ff"/>
     <use xlink:href="#m611e3b6a9c" x="95.637002" y="163.551317" style="fill: #0000ff"/>
     <use xlink:href="#m611e3b6a9c" x="99.330207" y="173.169673" style="fill: #0000ff"/>
     <use xlink:href="#m611e3b6a9c" x="103.023411" y="165.955906" style="fill: #0000ff"/>
     <use xlink:href="#m611e3b6a9c" x="106.716616" y="187.597209" style="fill: #0000ff"/>
     <use xlink:href="#m611e3b6a9c" x="110.409821" y="180.383441" style="fill: #0000ff"/>
     <use xlink:href="#m611e3b6a9c" x="114.103026" y="180.383441" style="fill: #0000ff"/>
     <use xlink:href="#m611e3b6a9c" x="117.79623" y="180.383441" style="fill: #0000ff"/>
     <use xlink:href="#m611e3b6a9c" x="121.489435" y="187.597209" style="fill: #0000ff"/>
     <use xlink:href="#m611e3b6a9c" x="125.18264" y="197.215566" style="fill: #0000ff"/>
     <use xlink:href="#m611e3b6a9c" x="128.875845" y="206.833923" style="fill: #0000ff"/>
     <use xlink:href="#m611e3b6a9c" x="132.56905" y="194.810976" style="fill: #0000ff"/>
     <use xlink:href="#m611e3b6a9c" x="136.262254" y="199.620155" style="fill: #0000ff"/>
     <use xlink:href="#m611e3b6a9c" x="139.955459" y="209.238512" style="fill: #0000ff"/>
     <use xlink:href="#m611e3b6a9c" x="143.648664" y="209.238512" style="fill: #0000ff"/>
     <use xlink:href="#m611e3b6a9c" x="147.341869" y="202.024744" style="fill: #0000ff"/>
     <use xlink:href="#m611e3b6a9c" x="151.035073" y="202.024744" style="fill: #0000ff"/>
     <use xlink:href="#m611e3b6a9c" x="154.728278" y="204.429333" style="fill: #0000ff"/>
     <use xlink:href="#m611e3b6a9c" x="158.421483" y="206.833923" style="fill: #0000ff"/>
     <use xlink:href="#m611e3b6a9c" x="162.114688" y="211.643101" style="fill: #0000ff"/>
     <use xlink:href="#m611e3b6a9c" x="165.807893" y="202.024744" style="fill: #0000ff"/>
     <use xlink:href="#m611e3b6a9c" x="169.501097" y="209.238512" style="fill: #0000ff"/>
     <use xlink:href="#m611e3b6a9c" x="173.194302" y="209.238512" style="fill: #0000ff"/>
     <use xlink:href="#m611e3b6a9c" x="176.887507" y="216.452279" style="fill: #0000ff"/>
     <use xlink:href="#m611e3b6a9c" x="180.580712" y="216.452279" style="fill: #0000ff"/>
     <use xlink:href="#m611e3b6a9c" x="184.273916" y="216.452279" style="fill: #0000ff"/>
     <use xlink:href="#m611e3b6a9c" x="187.967121" y="218.856869" style="fill: #0000ff"/>
     <use xlink:href="#m611e3b6a9c" x="191.660326" y="223.666047" style="fill: #0000ff"/>
     <use xlink:href="#m611e3b6a9c" x="195.353531" y="218.856869" style="fill: #0000ff"/>
     <use xlink:href="#m611e3b6a9c" x="199.046736" y="214.04769" style="fill: #0000ff"/>
     <use xlink:href="#m611e3b6a9c" x="202.73994" y="223.666047" style="fill: #0000ff"/>
     <use xlink:href="#m611e3b6a9c" x="206.433145" y="221.261458" style="fill: #0000ff"/>
     <use xlink:href="#m611e3b6a9c" x="210.12635" y="223.666047" style="fill: #0000ff"/>
     <use xlink:href="#m611e3b6a9c" x="213.819555" y="218.856869" style="fill: #0000ff"/>
     <use xlink:href="#m611e3b6a9c" x="217.512759" y="235.688993" style="fill: #0000ff"/>
     <use xlink:href="#m611e3b6a9c" x="221.205964" y="228.475226" style="fill: #0000ff"/>
     <use xlink:href="#m611e3b6a9c" x="224.899169" y="230.879815" style="fill: #0000ff"/>
     <use xlink:href="#m611e3b6a9c" x="228.592374" y="226.070636" style="fill: #0000ff"/>
     <use xlink:href="#m611e3b6a9c" x="232.285579" y="228.475226" style="fill: #0000ff"/>
     <use xlink:href="#m611e3b6a9c" x="235.978783" y="221.261458" style="fill: #0000ff"/>
     <use xlink:href="#m611e3b6a9c" x="239.671988" y="233.284404" style="fill: #0000ff"/>
     <use xlink:href="#m611e3b6a9c" x="243.365193" y="233.284404" style="fill: #0000ff"/>
     <use xlink:href="#m611e3b6a9c" x="247.058398" y="228.475226" style="fill: #0000ff"/>
     <use xlink:href="#m611e3b6a9c" x="250.751602" y="233.284404" style="fill: #0000ff"/>
     <use xlink:href="#m611e3b6a9c" x="254.444807" y="233.284404" style="fill: #0000ff"/>
     <use xlink:href="#m611e3b6a9c" x="258.138012" y="238.093582" style="fill: #0000ff"/>
     <use xlink:href="#m611e3b6a9c" x="261.831217" y="233.284404" style="fill: #0000ff"/>
     <use xlink:href="#m611e3b6a9c" x="265.524421" y="235.688993" style="fill: #0000ff"/>
     <use xlink:href="#m611e3b6a9c" x="269.217626" y="238.093582" style="fill: #0000ff"/>
     <use xlink:href="#m611e3b6a9c" x="272.910831" y="238.093582" style="fill: #0000ff"/>
     <use xlink:href="#m611e3b6a9c" x="276.604036" y="240.498172" style="fill: #0000ff"/>
     <use xlink:href="#m611e3b6a9c" x="280.297241" y="247.711939" style="fill: #0000ff"/>
     <use xlink:href="#m611e3b6a9c" x="283.990445" y="240.498172" style="fill: #0000ff"/>
     <use xlink:href="#m611e3b6a9c" x="287.68365" y="242.902761" style="fill: #0000ff"/>
     <use xlink:href="#m611e3b6a9c" x="291.376855" y="238.093582" style="fill: #0000ff"/>
     <use xlink:href="#m611e3b6a9c" x="295.07006" y="238.093582" style="fill: #0000ff"/>
     <use xlink:href="#m611e3b6a9c" x="298.763264" y="242.902761" style="fill: #0000ff"/>
     <use xlink:href="#m611e3b6a9c" x="302.456469" y="242.902761" style="fill: #0000ff"/>
     <use xlink:href="#m611e3b6a9c" x="306.149674" y="240.498172" style="fill: #0000ff"/>
     <use xlink:href="#m611e3b6a9c" x="309.842879" y="242.902761" style="fill: #0000ff"/>
     <use xlink:href="#m611e3b6a9c" x="313.536084" y="242.902761" style="fill: #0000ff"/>
     <use xlink:href="#m611e3b6a9c" x="317.229288" y="245.30735" style="fill: #0000ff"/>
     <use xlink:href="#m611e3b6a9c" x="320.922493" y="238.093582" style="fill: #0000ff"/>
     <use xlink:href="#m611e3b6a9c" x="324.615698" y="247.711939" style="fill: #0000ff"/>
     <use xlink:href="#m611e3b6a9c" x="328.308903" y="247.711939" style="fill: #0000ff"/>
     <use xlink:href="#m611e3b6a9c" x="332.002107" y="240.498172" style="fill: #0000ff"/>
     <use xlink:href="#m611e3b6a9c" x="335.695312" y="250.116529" style="fill: #0000ff"/>
     <use xlink:href="#m611e3b6a9c" x="339.388517" y="245.30735" style="fill: #0000ff"/>
     <use xlink:href="#m611e3b6a9c" x="343.081722" y="245.30735" style="fill: #0000ff"/>
     <use xlink:href="#m611e3b6a9c" x="346.774927" y="247.711939" style="fill: #0000ff"/>
     <use xlink:href="#m611e3b6a9c" x="350.468131" y="240.498172" style="fill: #0000ff"/>
     <use xlink:href="#m611e3b6a9c" x="354.161336" y="247.711939" style="fill: #0000ff"/>
     <use xlink:href="#m611e3b6a9c" x="357.854541" y="247.711939" style="fill: #0000ff"/>
     <use xlink:href="#m611e3b6a9c" x="361.547746" y="245.30735" style="fill: #0000ff"/>
     <use xlink:href="#m611e3b6a9c" x="365.24095" y="257.330296" style="fill: #0000ff"/>
     <use xlink:href="#m611e3b6a9c" x="368.934155" y="250.116529" style="fill: #0000ff"/>
     <use xlink:href="#m611e3b6a9c" x="372.62736" y="250.116529" style="fill: #0000ff"/>
     <use xlink:href="#m611e3b6a9c" x="376.320565" y="245.30735" style="fill: #0000ff"/>
     <use xlink:href="#m611e3b6a9c" x="380.01377" y="245.30735" style="fill: #0000ff"/>
     <use xlink:href="#m611e3b6a9c" x="383.706974" y="245.30735" style="fill: #0000ff"/>
     <use xlink:href="#m611e3b6a9c" x="387.400179" y="247.711939" style="fill: #0000ff"/>
     <use xlink:href="#m611e3b6a9c" x="391.093384" y="247.711939" style="fill: #0000ff"/>
     <use xlink:href="#m611e3b6a9c" x="394.786589" y="247.711939" style="fill: #0000ff"/>
     <use xlink:href="#m611e3b6a9c" x="398.479793" y="247.711939" style="fill: #0000ff"/>
     <use xlink:href="#m611e3b6a9c" x="402.172998" y="247.711939" style="fill: #0000ff"/>
     <use xlink:href="#m611e3b6a9c" x="405.866203" y="240.498172" style="fill: #0000ff"/>
     <use xlink:href="#m611e3b6a9c" x="409.559408" y="245.30735" style="fill: #0000ff"/>
     <use xlink:href="#m611e3b6a9c" x="413.252612" y="247.711939" style="fill: #0000ff"/>
     <use xlink:href="#m611e3b6a9c" x="416.945817" y="245.30735" style="fill: #0000ff"/>
     <use xlink:href="#m611e3b6a9c" x="420.639022" y="254.925707" style="fill: #0000ff"/>
     <use xlink:href="#m611e3b6a9c" x="424.332227" y="247.711939" style="fill: #0000ff"/>
     <use xlink:href="#m611e3b6a9c" x="428.025432" y="245.30735" style="fill: #0000ff"/>
     <use xlink:href="#m611e3b6a9c" x="431.718636" y="240.498172" style="fill: #0000ff"/>
    </g>
   </g>
   <g id="line2d_14">
    <path d="M 66.091364 50.535623 
L 69.784568 80.592988 
L 73.477773 100.230467 
L 77.170978 111.251501 
L 80.864183 114.978614 
L 84.557388 119.867946 
L 88.250592 125.077889 
L 91.943797 128.985346 
L 95.637002 132.82601 
L 99.330207 136.860376 
L 103.023411 139.505424 
L 106.716616 143.513073 
L 110.409821 146.349255 
L 114.103026 148.780268 
L 117.79623 150.887147 
L 121.489435 153.181525 
L 125.18264 155.771763 
L 128.875845 158.60855 
L 132.56905 160.513941 
L 136.262254 162.469251 
L 139.955459 164.696359 
L 143.648664 166.721002 
L 147.341869 168.255948 
L 151.035073 169.662981 
L 154.728278 171.053635 
L 158.421483 172.4298 
L 162.114688 173.882144 
L 165.807893 174.887237 
L 169.501097 176.071764 
L 173.194302 177.177322 
L 176.887507 178.444256 
L 180.580712 179.632007 
L 184.273916 180.747773 
L 187.967121 181.868629 
L 191.660326 183.062841 
L 195.353531 184.057119 
L 199.046736 184.867675 
L 202.73994 185.888685 
L 206.433145 186.795679 
L 210.12635 187.717438 
L 213.819555 188.476937 
L 217.512759 189.601033 
L 221.205964 190.505084 
L 224.899169 191.422692 
L 228.592374 192.192646 
L 232.285579 192.981398 
L 235.978783 193.583101 
L 239.671988 194.410212 
L 243.365193 195.203562 
L 247.058398 195.868996 
L 250.751602 196.602631 
L 254.444807 197.30805 
L 258.138012 198.077588 
L 261.831217 198.729566 
L 265.524421 199.401556 
L 269.217626 200.092485 
L 272.910831 200.759171 
L 276.604036 201.444326 
L 280.297241 202.228523 
L 283.990445 202.86635 
L 287.68365 203.522685 
L 291.376855 204.08028 
L 295.07006 204.620174 
L 298.763264 205.218339 
L 302.456469 205.7981 
L 306.149674 206.323858 
L 309.842879 206.869812 
L 313.536084 207.399708 
L 317.229288 207.949094 
L 320.922493 208.37973 
L 324.615698 208.933705 
L 328.308903 209.472291 
L 332.002107 209.897303 
L 335.695312 210.440806 
L 339.388517 210.905694 
L 343.081722 211.358347 
L 346.774927 211.830472 
L 350.468131 212.198006 
L 354.161336 212.64755 
L 357.854541 213.085855 
L 361.547746 213.483651 
L 365.24095 214.018366 
L 368.934155 214.453284 
L 372.62736 214.877846 
L 376.320565 215.23584 
L 380.01377 215.585509 
L 383.706974 215.927139 
L 387.400179 216.28833 
L 391.093384 216.641404 
L 394.786589 216.986633 
L 398.479793 217.324273 
L 402.172998 217.654574 
L 405.866203 217.900204 
L 409.559408 218.19177 
L 413.252612 218.502508 
L 416.945817 218.781725 
L 420.639022 219.154344 
L 424.332227 219.445748 
L 428.025432 219.706976 
L 431.718636 219.914888 
" clip-path="url(#p50c96c24bb)" style="fill: none; stroke: #0000ff; stroke-opacity: 0.5; stroke-width: 0.5; stroke-linecap: square"/>
    <defs>
     <path id="mcf2ccdd9c7" d="M -0.49999 0.49999 
L 0.50001 0.49999 
L 0.50001 -0.50001 
L -0.49999 -0.50001 
z
"/>
    </defs>
    <g clip-path="url(#p50c96c24bb)">
     <use xlink:href="#mcf2ccdd9c7" x="66.091364" y="50.535623" style="fill: #0000ff; fill-opacity: 0.5"/>
     <use xlink:href="#mcf2ccdd9c7" x="69.784568" y="80.592988" style="fill: #0000ff; fill-opacity: 0.5"/>
     <use xlink:href="#mcf2ccdd9c7" x="73.477773" y="100.230467" style="fill: #0000ff; fill-opacity: 0.5"/>
     <use xlink:href="#mcf2ccdd9c7" x="77.170978" y="111.251501" style="fill: #0000ff; fill-opacity: 0.5"/>
     <use xlink:href="#mcf2ccdd9c7" x="80.864183" y="114.978614" style="fill: #0000ff; fill-opacity: 0.5"/>
     <use xlink:href="#mcf2ccdd9c7" x="84.557388" y="119.867946" style="fill: #0000ff; fill-opacity: 0.5"/>
     <use xlink:href="#mcf2ccdd9c7" x="88.250592" y="125.077889" style="fill: #0000ff; fill-opacity: 0.5"/>
     <use xlink:href="#mcf2ccdd9c7" x="91.943797" y="128.985346" style="fill: #0000ff; fill-opacity: 0.5"/>
     <use xlink:href="#mcf2ccdd9c7" x="95.637002" y="132.82601" style="fill: #0000ff; fill-opacity: 0.5"/>
     <use xlink:href="#mcf2ccdd9c7" x="99.330207" y="136.860376" style="fill: #0000ff; fill-opacity: 0.5"/>
     <use xlink:href="#mcf2ccdd9c7" x="103.023411" y="139.505424" style="fill: #0000ff; fill-opacity: 0.5"/>
     <use xlink:href="#mcf2ccdd9c7" x="106.716616" y="143.513073" style="fill: #0000ff; fill-opacity: 0.5"/>
     <use xlink:href="#mcf2ccdd9c7" x="110.409821" y="146.349255" style="fill: #0000ff; fill-opacity: 0.5"/>
     <use xlink:href="#mcf2ccdd9c7" x="114.103026" y="148.780268" style="fill: #0000ff; fill-opacity: 0.5"/>
     <use xlink:href="#mcf2ccdd9c7" x="117.79623" y="150.887147" style="fill: #0000ff; fill-opacity: 0.5"/>
     <use xlink:href="#mcf2ccdd9c7" x="121.489435" y="153.181525" style="fill: #0000ff; fill-opacity: 0.5"/>
     <use xlink:href="#mcf2ccdd9c7" x="125.18264" y="155.771763" style="fill: #0000ff; fill-opacity: 0.5"/>
     <use xlink:href="#mcf2ccdd9c7" x="128.875845" y="158.60855" style="fill: #0000ff; fill-opacity: 0.5"/>
     <use xlink:href="#mcf2ccdd9c7" x="132.56905" y="160.513941" style="fill: #0000ff; fill-opacity: 0.5"/>
     <use xlink:href="#mcf2ccdd9c7" x="136.262254" y="162.469251" style="fill: #0000ff; fill-opacity: 0.5"/>
     <use xlink:href="#mcf2ccdd9c7" x="139.955459" y="164.696359" style="fill: #0000ff; fill-opacity: 0.5"/>
     <use xlink:href="#mcf2ccdd9c7" x="143.648664" y="166.721002" style="fill: #0000ff; fill-opacity: 0.5"/>
     <use xlink:href="#mcf2ccdd9c7" x="147.341869" y="168.255948" style="fill: #0000ff; fill-opacity: 0.5"/>
     <use xlink:href="#mcf2ccdd9c7" x="151.035073" y="169.662981" style="fill: #0000ff; fill-opacity: 0.5"/>
     <use xlink:href="#mcf2ccdd9c7" x="154.728278" y="171.053635" style="fill: #0000ff; fill-opacity: 0.5"/>
     <use xlink:href="#mcf2ccdd9c7" x="158.421483" y="172.4298" style="fill: #0000ff; fill-opacity: 0.5"/>
     <use xlink:href="#mcf2ccdd9c7" x="162.114688" y="173.882144" style="fill: #0000ff; fill-opacity: 0.5"/>
     <use xlink:href="#mcf2ccdd9c7" x="165.807893" y="174.887237" style="fill: #0000ff; fill-opacity: 0.5"/>
     <use xlink:href="#mcf2ccdd9c7" x="169.501097" y="176.071764" style="fill: #0000ff; fill-opacity: 0.5"/>
     <use xlink:href="#mcf2ccdd9c7" x="173.194302" y="177.177322" style="fill: #0000ff; fill-opacity: 0.5"/>
     <use xlink:href="#mcf2ccdd9c7" x="176.887507" y="178.444256" style="fill: #0000ff; fill-opacity: 0.5"/>
     <use xlink:href="#mcf2ccdd9c7" x="180.580712" y="179.632007" style="fill: #0000ff; fill-opacity: 0.5"/>
     <use xlink:href="#mcf2ccdd9c7" x="184.273916" y="180.747773" style="fill: #0000ff; fill-opacity: 0.5"/>
     <use xlink:href="#mcf2ccdd9c7" x="187.967121" y="181.868629" style="fill: #0000ff; fill-opacity: 0.5"/>
     <use xlink:href="#mcf2ccdd9c7" x="191.660326" y="183.062841" style="fill: #0000ff; fill-opacity: 0.5"/>
     <use xlink:href="#mcf2ccdd9c7" x="195.353531" y="184.057119" style="fill: #0000ff; fill-opacity: 0.5"/>
     <use xlink:href="#mcf2ccdd9c7" x="199.046736" y="184.867675" style="fill: #0000ff; fill-opacity: 0.5"/>
     <use xlink:href="#mcf2ccdd9c7" x="202.73994" y="185.888685" style="fill: #0000ff; fill-opacity: 0.5"/>
     <use xlink:href="#mcf2ccdd9c7" x="206.433145" y="186.795679" style="fill: #0000ff; fill-opacity: 0.5"/>
     <use xlink:href="#mcf2ccdd9c7" x="210.12635" y="187.717438" style="fill: #0000ff; fill-opacity: 0.5"/>
     <use xlink:href="#mcf2ccdd9c7" x="213.819555" y="188.476937" style="fill: #0000ff; fill-opacity: 0.5"/>
     <use xlink:href="#mcf2ccdd9c7" x="217.512759" y="189.601033" style="fill: #0000ff; fill-opacity: 0.5"/>
     <use xlink:href="#mcf2ccdd9c7" x="221.205964" y="190.505084" style="fill: #0000ff; fill-opacity: 0.5"/>
     <use xlink:href="#mcf2ccdd9c7" x="224.899169" y="191.422692" style="fill: #0000ff; fill-opacity: 0.5"/>
     <use xlink:href="#mcf2ccdd9c7" x="228.592374" y="192.192646" style="fill: #0000ff; fill-opacity: 0.5"/>
     <use xlink:href="#mcf2ccdd9c7" x="232.285579" y="192.981398" style="fill: #0000ff; fill-opacity: 0.5"/>
     <use xlink:href="#mcf2ccdd9c7" x="235.978783" y="193.583101" style="fill: #0000ff; fill-opacity: 0.5"/>
     <use xlink:href="#mcf2ccdd9c7" x="239.671988" y="194.410212" style="fill: #0000ff; fill-opacity: 0.5"/>
     <use xlink:href="#mcf2ccdd9c7" x="243.365193" y="195.203562" style="fill: #0000ff; fill-opacity: 0.5"/>
     <use xlink:href="#mcf2ccdd9c7" x="247.058398" y="195.868996" style="fill: #0000ff; fill-opacity: 0.5"/>
     <use xlink:href="#mcf2ccdd9c7" x="250.751602" y="196.602631" style="fill: #0000ff; fill-opacity: 0.5"/>
     <use xlink:href="#mcf2ccdd9c7" x="254.444807" y="197.30805" style="fill: #0000ff; fill-opacity: 0.5"/>
     <use xlink:href="#mcf2ccdd9c7" x="258.138012" y="198.077588" style="fill: #0000ff; fill-opacity: 0.5"/>
     <use xlink:href="#mcf2ccdd9c7" x="261.831217" y="198.729566" style="fill: #0000ff; fill-opacity: 0.5"/>
     <use xlink:href="#mcf2ccdd9c7" x="265.524421" y="199.401556" style="fill: #0000ff; fill-opacity: 0.5"/>
     <use xlink:href="#mcf2ccdd9c7" x="269.217626" y="200.092485" style="fill: #0000ff; fill-opacity: 0.5"/>
     <use xlink:href="#mcf2ccdd9c7" x="272.910831" y="200.759171" style="fill: #0000ff; fill-opacity: 0.5"/>
     <use xlink:href="#mcf2ccdd9c7" x="276.604036" y="201.444326" style="fill: #0000ff; fill-opacity: 0.5"/>
     <use xlink:href="#mcf2ccdd9c7" x="280.297241" y="202.228523" style="fill: #0000ff; fill-opacity: 0.5"/>
     <use xlink:href="#mcf2ccdd9c7" x="283.990445" y="202.86635" style="fill: #0000ff; fill-opacity: 0.5"/>
     <use xlink:href="#mcf2ccdd9c7" x="287.68365" y="203.522685" style="fill: #0000ff; fill-opacity: 0.5"/>
     <use xlink:href="#mcf2ccdd9c7" x="291.376855" y="204.08028" style="fill: #0000ff; fill-opacity: 0.5"/>
     <use xlink:href="#mcf2ccdd9c7" x="295.07006" y="204.620174" style="fill: #0000ff; fill-opacity: 0.5"/>
     <use xlink:href="#mcf2ccdd9c7" x="298.763264" y="205.218339" style="fill: #0000ff; fill-opacity: 0.5"/>
     <use xlink:href="#mcf2ccdd9c7" x="302.456469" y="205.7981" style="fill: #0000ff; fill-opacity: 0.5"/>
     <use xlink:href="#mcf2ccdd9c7" x="306.149674" y="206.323858" style="fill: #0000ff; fill-opacity: 0.5"/>
     <use xlink:href="#mcf2ccdd9c7" x="309.842879" y="206.869812" style="fill: #0000ff; fill-opacity: 0.5"/>
     <use xlink:href="#mcf2ccdd9c7" x="313.536084" y="207.399708" style="fill: #0000ff; fill-opacity: 0.5"/>
     <use xlink:href="#mcf2ccdd9c7" x="317.229288" y="207.949094" style="fill: #0000ff; fill-opacity: 0.5"/>
     <use xlink:href="#mcf2ccdd9c7" x="320.922493" y="208.37973" style="fill: #0000ff; fill-opacity: 0.5"/>
     <use xlink:href="#mcf2ccdd9c7" x="324.615698" y="208.933705" style="fill: #0000ff; fill-opacity: 0.5"/>
     <use xlink:href="#mcf2ccdd9c7" x="328.308903" y="209.472291" style="fill: #0000ff; fill-opacity: 0.5"/>
     <use xlink:href="#mcf2ccdd9c7" x="332.002107" y="209.897303" style="fill: #0000ff; fill-opacity: 0.5"/>
     <use xlink:href="#mcf2ccdd9c7" x="335.695312" y="210.440806" style="fill: #0000ff; fill-opacity: 0.5"/>
     <use xlink:href="#mcf2ccdd9c7" x="339.388517" y="210.905694" style="fill: #0000ff; fill-opacity: 0.5"/>
     <use xlink:href="#mcf2ccdd9c7" x="343.081722" y="211.358347" style="fill: #0000ff; fill-opacity: 0.5"/>
     <use xlink:href="#mcf2ccdd9c7" x="346.774927" y="211.830472" style="fill: #0000ff; fill-opacity: 0.5"/>
     <use xlink:href="#mcf2ccdd9c7" x="350.468131" y="212.198006" style="fill: #0000ff; fill-opacity: 0.5"/>
     <use xlink:href="#mcf2ccdd9c7" x="354.161336" y="212.64755" style="fill: #0000ff; fill-opacity: 0.5"/>
     <use xlink:href="#mcf2ccdd9c7" x="357.854541" y="213.085855" style="fill: #0000ff; fill-opacity: 0.5"/>
     <use xlink:href="#mcf2ccdd9c7" x="361.547746" y="213.483651" style="fill: #0000ff; fill-opacity: 0.5"/>
     <use xlink:href="#mcf2ccdd9c7" x="365.24095" y="214.018366" style="fill: #0000ff; fill-opacity: 0.5"/>
     <use xlink:href="#mcf2ccdd9c7" x="368.934155" y="214.453284" style="fill: #0000ff; fill-opacity: 0.5"/>
     <use xlink:href="#mcf2ccdd9c7" x="372.62736" y="214.877846" style="fill: #0000ff; fill-opacity: 0.5"/>
     <use xlink:href="#mcf2ccdd9c7" x="376.320565" y="215.23584" style="fill: #0000ff; fill-opacity: 0.5"/>
     <use xlink:href="#mcf2ccdd9c7" x="380.01377" y="215.585509" style="fill: #0000ff; fill-opacity: 0.5"/>
     <use xlink:href="#mcf2ccdd9c7" x="383.706974" y="215.927139" style="fill: #0000ff; fill-opacity: 0.5"/>
     <use xlink:href="#mcf2ccdd9c7" x="387.400179" y="216.28833" style="fill: #0000ff; fill-opacity: 0.5"/>
     <use xlink:href="#mcf2ccdd9c7" x="391.093384" y="216.641404" style="fill: #0000ff; fill-opacity: 0.5"/>
     <use xlink:href="#mcf2ccdd9c7" x="394.786589" y="216.986633" style="fill: #0000ff; fill-opacity: 0.5"/>
     <use xlink:href="#mcf2ccdd9c7" x="398.479793" y="217.324273" style="fill: #0000ff; fill-opacity: 0.5"/>
     <use xlink:href="#mcf2ccdd9c7" x="402.172998" y="217.654574" style="fill: #0000ff; fill-opacity: 0.5"/>
     <use xlink:href="#mcf2ccdd9c7" x="405.866203" y="217.900204" style="fill: #0000ff; fill-opacity: 0.5"/>
     <use xlink:href="#mcf2ccdd9c7" x="409.559408" y="218.19177" style="fill: #0000ff; fill-opacity: 0.5"/>
     <use xlink:href="#mcf2ccdd9c7" x="413.252612" y="218.502508" style="fill: #0000ff; fill-opacity: 0.5"/>
     <use xlink:href="#mcf2ccdd9c7" x="416.945817" y="218.781725" style="fill: #0000ff; fill-opacity: 0.5"/>
     <use xlink:href="#mcf2ccdd9c7" x="420.639022" y="219.154344" style="fill: #0000ff; fill-opacity: 0.5"/>
     <use xlink:href="#mcf2ccdd9c7" x="424.332227" y="219.445748" style="fill: #0000ff; fill-opacity: 0.5"/>
     <use xlink:href="#mcf2ccdd9c7" x="428.025432" y="219.706976" style="fill: #0000ff; fill-opacity: 0.5"/>
     <use xlink:href="#mcf2ccdd9c7" x="431.718636" y="219.914888" style="fill: #0000ff; fill-opacity: 0.5"/>
    </g>
   </g>
   <g id="line2d_15">
    <path d="M 47.81 290.994545 
L 450 290.994545 
" clip-path="url(#p50c96c24bb)" style="fill: none; stroke-dasharray: 0.555,0.24; stroke-dashoffset: 0; stroke: #ff0000; stroke-width: 0.15"/>
   </g>
   <g id="line2d_16">
    <path d="M 47.81 170.765084 
L 450 170.765084 
" clip-path="url(#p50c96c24bb)" style="fill: none; stroke-dasharray: 0.555,0.24; stroke-dashoffset: 0; stroke: #ff0000; stroke-width: 0.15"/>
   </g>
   <g id="line2d_17">
    <path d="M 47.81 50.535623 
L 450 50.535623 
" clip-path="url(#p50c96c24bb)" style="fill: none; stroke-dasharray: 0.555,0.24; stroke-dashoffset: 0; stroke: #ff0000; stroke-width: 0.15"/>
   </g>
   <g id="line2d_18">
    <path d="M 66.091364 125.077889 
L 69.784568 137.100835 
L 73.477773 146.719192 
L 77.170978 129.887067 
L 80.864183 156.337549 
L 84.557388 144.314603 
L 88.250592 139.505424 
L 91.943797 151.52837 
L 95.637002 156.337549 
L 99.330207 156.337549 
L 103.023411 139.505424 
L 106.716616 146.719192 
L 110.409821 158.742138 
L 114.103026 141.910013 
L 117.79623 161.146727 
L 121.489435 156.337549 
L 125.18264 132.291657 
L 128.875845 161.146727 
L 132.56905 153.93296 
L 136.262254 149.123781 
L 139.955459 151.52837 
L 143.648664 117.864121 
L 147.341869 158.742138 
L 151.035073 125.077889 
L 154.728278 146.719192 
L 158.421483 161.146727 
L 162.114688 158.742138 
L 165.807893 146.719192 
L 169.501097 141.910013 
L 173.194302 141.910013 
L 176.887507 151.52837 
L 180.580712 137.100835 
L 184.273916 141.910013 
L 187.967121 149.123781 
L 191.660326 161.146727 
L 195.353531 139.505424 
L 199.046736 137.100835 
L 202.73994 156.337549 
L 206.433145 149.123781 
L 210.12635 168.360495 
L 213.819555 141.910013 
L 217.512759 139.505424 
L 221.205964 149.123781 
L 224.899169 146.719192 
L 228.592374 129.887067 
L 232.285579 141.910013 
L 235.978783 144.314603 
L 239.671988 139.505424 
L 243.365193 127.482478 
L 247.058398 132.291657 
L 250.751602 175.574263 
L 254.444807 146.719192 
L 258.138012 117.864121 
L 261.831217 146.719192 
L 265.524421 153.93296 
L 269.217626 141.910013 
L 272.910831 153.93296 
L 276.604036 158.742138 
L 280.297241 141.910013 
L 283.990445 151.52837 
L 287.68365 139.505424 
L 291.376855 132.291657 
L 295.07006 129.887067 
L 298.763264 161.146727 
L 302.456469 170.765084 
L 306.149674 125.077889 
L 309.842879 158.742138 
L 313.536084 156.337549 
L 317.229288 149.123781 
L 320.922493 137.100835 
L 324.615698 144.314603 
L 328.308903 175.574263 
L 332.002107 132.291657 
L 335.695312 139.505424 
L 339.388517 156.337549 
L 343.081722 161.146727 
L 346.774927 144.314603 
L 350.468131 149.123781 
L 354.161336 156.337549 
L 357.854541 149.123781 
L 361.547746 149.123781 
L 365.24095 139.505424 
L 368.934155 139.505424 
L 372.62736 163.551317 
L 376.320565 153.93296 
L 380.01377 156.337549 
L 383.706974 127.482478 
L 387.400179 137.100835 
L 391.093384 153.93296 
L 394.786589 149.123781 
L 398.479793 165.955906 
L 402.172998 153.93296 
L 405.866203 151.52837 
L 409.559408 151.52837 
L 413.252612 141.910013 
L 416.945817 151.52837 
L 420.639022 137.100835 
L 424.332227 127.482478 
L 428.025432 165.955906 
L 431.718636 134.696246 
" clip-path="url(#p50c96c24bb)" style="fill: none; stroke: #ff0000; stroke-width: 0.5; stroke-linecap: square"/>
    <defs>
     <path id="m42517c3e9c" d="M -0.49999 0.49999 
L 0.50001 0.49999 
L 0.50001 -0.50001 
L -0.49999 -0.50001 
z
"/>
    </defs>
    <g clip-path="url(#p50c96c24bb)">
     <use xlink:href="#m42517c3e9c" x="66.091364" y="125.077889" style="fill: #ff0000"/>
     <use xlink:href="#m42517c3e9c" x="69.784568" y="137.100835" style="fill: #ff0000"/>
     <use xlink:href="#m42517c3e9c" x="73.477773" y="146.719192" style="fill: #ff0000"/>
     <use xlink:href="#m42517c3e9c" x="77.170978" y="129.887067" style="fill: #ff0000"/>
     <use xlink:href="#m42517c3e9c" x="80.864183" y="156.337549" style="fill: #ff0000"/>
     <use xlink:href="#m42517c3e9c" x="84.557388" y="144.314603" style="fill: #ff0000"/>
     <use xlink:href="#m42517c3e9c" x="88.250592" y="139.505424" style="fill: #ff0000"/>
     <use xlink:href="#m42517c3e9c" x="91.943797" y="151.52837" style="fill: #ff0000"/>
     <use xlink:href="#m42517c3e9c" x="95.637002" y="156.337549" style="fill: #ff0000"/>
     <use xlink:href="#m42517c3e9c" x="99.330207" y="156.337549" style="fill: #ff0000"/>
     <use xlink:href="#m42517c3e9c" x="103.023411" y="139.505424" style="fill: #ff0000"/>
     <use xlink:href="#m42517c3e9c" x="106.716616" y="146.719192" style="fill: #ff0000"/>
     <use xlink:href="#m42517c3e9c" x="110.409821" y="158.742138" style="fill: #ff0000"/>
     <use xlink:href="#m42517c3e9c" x="114.103026" y="141.910013" style="fill: #ff0000"/>
     <use xlink:href="#m42517c3e9c" x="117.79623" y="161.146727" style="fill: #ff0000"/>
     <use xlink:href="#m42517c3e9c" x="121.489435" y="156.337549" style="fill: #ff0000"/>
     <use xlink:href="#m42517c3e9c" x="125.18264" y="132.291657" style="fill: #ff0000"/>
     <use xlink:href="#m42517c3e9c" x="128.875845" y="161.146727" style="fill: #ff0000"/>
     <use xlink:href="#m42517c3e9c" x="132.56905" y="153.93296" style="fill: #ff0000"/>
     <use xlink:href="#m42517c3e9c" x="136.262254" y="149.123781" style="fill: #ff0000"/>
     <use xlink:href="#m42517c3e9c" x="139.955459" y="151.52837" style="fill: #ff0000"/>
     <use xlink:href="#m42517c3e9c" x="143.648664" y="117.864121" style="fill: #ff0000"/>
     <use xlink:href="#m42517c3e9c" x="147.341869" y="158.742138" style="fill: #ff0000"/>
     <use xlink:href="#m42517c3e9c" x="151.035073" y="125.077889" style="fill: #ff0000"/>
     <use xlink:href="#m42517c3e9c" x="154.728278" y="146.719192" style="fill: #ff0000"/>
     <use xlink:href="#m42517c3e9c" x="158.421483" y="161.146727" style="fill: #ff0000"/>
     <use xlink:href="#m42517c3e9c" x="162.114688" y="158.742138" style="fill: #ff0000"/>
     <use xlink:href="#m42517c3e9c" x="165.807893" y="146.719192" style="fill: #ff0000"/>
     <use xlink:href="#m42517c3e9c" x="169.501097" y="141.910013" style="fill: #ff0000"/>
     <use xlink:href="#m42517c3e9c" x="173.194302" y="141.910013" style="fill: #ff0000"/>
     <use xlink:href="#m42517c3e9c" x="176.887507" y="151.52837" style="fill: #ff0000"/>
     <use xlink:href="#m42517c3e9c" x="180.580712" y="137.100835" style="fill: #ff0000"/>
     <use xlink:href="#m42517c3e9c" x="184.273916" y="141.910013" style="fill: #ff0000"/>
     <use xlink:href="#m42517c3e9c" x="187.967121" y="149.123781" style="fill: #ff0000"/>
     <use xlink:href="#m42517c3e9c" x="191.660326" y="161.146727" style="fill: #ff0000"/>
     <use xlink:href="#m42517c3e9c" x="195.353531" y="139.505424" style="fill: #ff0000"/>
     <use xlink:href="#m42517c3e9c" x="199.046736" y="137.100835" style="fill: #ff0000"/>
     <use xlink:href="#m42517c3e9c" x="202.73994" y="156.337549" style="fill: #ff0000"/>
     <use xlink:href="#m42517c3e9c" x="206.433145" y="149.123781" style="fill: #ff0000"/>
     <use xlink:href="#m42517c3e9c" x="210.12635" y="168.360495" style="fill: #ff0000"/>
     <use xlink:href="#m42517c3e9c" x="213.819555" y="141.910013" style="fill: #ff0000"/>
     <use xlink:href="#m42517c3e9c" x="217.512759" y="139.505424" style="fill: #ff0000"/>
     <use xlink:href="#m42517c3e9c" x="221.205964" y="149.123781" style="fill: #ff0000"/>
     <use xlink:href="#m42517c3e9c" x="224.899169" y="146.719192" style="fill: #ff0000"/>
     <use xlink:href="#m42517c3e9c" x="228.592374" y="129.887067" style="fill: #ff0000"/>
     <use xlink:href="#m42517c3e9c" x="232.285579" y="141.910013" style="fill: #ff0000"/>
     <use xlink:href="#m42517c3e9c" x="235.978783" y="144.314603" style="fill: #ff0000"/>
     <use xlink:href="#m42517c3e9c" x="239.671988" y="139.505424" style="fill: #ff0000"/>
     <use xlink:href="#m42517c3e9c" x="243.365193" y="127.482478" style="fill: #ff0000"/>
     <use xlink:href="#m42517c3e9c" x="247.058398" y="132.291657" style="fill: #ff0000"/>
     <use xlink:href="#m42517c3e9c" x="250.751602" y="175.574263" style="fill: #ff0000"/>
     <use xlink:href="#m42517c3e9c" x="254.444807" y="146.719192" style="fill: #ff0000"/>
     <use xlink:href="#m42517c3e9c" x="258.138012" y="117.864121" style="fill: #ff0000"/>
     <use xlink:href="#m42517c3e9c" x="261.831217" y="146.719192" style="fill: #ff0000"/>
     <use xlink:href="#m42517c3e9c" x="265.524421" y="153.93296" style="fill: #ff0000"/>
     <use xlink:href="#m42517c3e9c" x="269.217626" y="141.910013" style="fill: #ff0000"/>
     <use xlink:href="#m42517c3e9c" x="272.910831" y="153.93296" style="fill: #ff0000"/>
     <use xlink:href="#m42517c3e9c" x="276.604036" y="158.742138" style="fill: #ff0000"/>
     <use xlink:href="#m42517c3e9c" x="280.297241" y="141.910013" style="fill: #ff0000"/>
     <use xlink:href="#m42517c3e9c" x="283.990445" y="151.52837" style="fill: #ff0000"/>
     <use xlink:href="#m42517c3e9c" x="287.68365" y="139.505424" style="fill: #ff0000"/>
     <use xlink:href="#m42517c3e9c" x="291.376855" y="132.291657" style="fill: #ff0000"/>
     <use xlink:href="#m42517c3e9c" x="295.07006" y="129.887067" style="fill: #ff0000"/>
     <use xlink:href="#m42517c3e9c" x="298.763264" y="161.146727" style="fill: #ff0000"/>
     <use xlink:href="#m42517c3e9c" x="302.456469" y="170.765084" style="fill: #ff0000"/>
     <use xlink:href="#m42517c3e9c" x="306.149674" y="125.077889" style="fill: #ff0000"/>
     <use xlink:href="#m42517c3e9c" x="309.842879" y="158.742138" style="fill: #ff0000"/>
     <use xlink:href="#m42517c3e9c" x="313.536084" y="156.337549" style="fill: #ff0000"/>
     <use xlink:href="#m42517c3e9c" x="317.229288" y="149.123781" style="fill: #ff0000"/>
     <use xlink:href="#m42517c3e9c" x="320.922493" y="137.100835" style="fill: #ff0000"/>
     <use xlink:href="#m42517c3e9c" x="324.615698" y="144.314603" style="fill: #ff0000"/>
     <use xlink:href="#m42517c3e9c" x="328.308903" y="175.574263" style="fill: #ff0000"/>
     <use xlink:href="#m42517c3e9c" x="332.002107" y="132.291657" style="fill: #ff0000"/>
     <use xlink:href="#m42517c3e9c" x="335.695312" y="139.505424" style="fill: #ff0000"/>
     <use xlink:href="#m42517c3e9c" x="339.388517" y="156.337549" style="fill: #ff0000"/>
     <use xlink:href="#m42517c3e9c" x="343.081722" y="161.146727" style="fill: #ff0000"/>
     <use xlink:href="#m42517c3e9c" x="346.774927" y="144.314603" style="fill: #ff0000"/>
     <use xlink:href="#m42517c3e9c" x="350.468131" y="149.123781" style="fill: #ff0000"/>
     <use xlink:href="#m42517c3e9c" x="354.161336" y="156.337549" style="fill: #ff0000"/>
     <use xlink:href="#m42517c3e9c" x="357.854541" y="149.123781" style="fill: #ff0000"/>
     <use xlink:href="#m42517c3e9c" x="361.547746" y="149.123781" style="fill: #ff0000"/>
     <use xlink:href="#m42517c3e9c" x="365.24095" y="139.505424" style="fill: #ff0000"/>
     <use xlink:href="#m42517c3e9c" x="368.934155" y="139.505424" style="fill: #ff0000"/>
     <use xlink:href="#m42517c3e9c" x="372.62736" y="163.551317" style="fill: #ff0000"/>
     <use xlink:href="#m42517c3e9c" x="376.320565" y="153.93296" style="fill: #ff0000"/>
     <use xlink:href="#m42517c3e9c" x="380.01377" y="156.337549" style="fill: #ff0000"/>
     <use xlink:href="#m42517c3e9c" x="383.706974" y="127.482478" style="fill: #ff0000"/>
     <use xlink:href="#m42517c3e9c" x="387.400179" y="137.100835" style="fill: #ff0000"/>
     <use xlink:href="#m42517c3e9c" x="391.093384" y="153.93296" style="fill: #ff0000"/>
     <use xlink:href="#m42517c3e9c" x="394.786589" y="149.123781" style="fill: #ff0000"/>
     <use xlink:href="#m42517c3e9c" x="398.479793" y="165.955906" style="fill: #ff0000"/>
     <use xlink:href="#m42517c3e9c" x="402.172998" y="153.93296" style="fill: #ff0000"/>
     <use xlink:href="#m42517c3e9c" x="405.866203" y="151.52837" style="fill: #ff0000"/>
     <use xlink:href="#m42517c3e9c" x="409.559408" y="151.52837" style="fill: #ff0000"/>
     <use xlink:href="#m42517c3e9c" x="413.252612" y="141.910013" style="fill: #ff0000"/>
     <use xlink:href="#m42517c3e9c" x="416.945817" y="151.52837" style="fill: #ff0000"/>
     <use xlink:href="#m42517c3e9c" x="420.639022" y="137.100835" style="fill: #ff0000"/>
     <use xlink:href="#m42517c3e9c" x="424.332227" y="127.482478" style="fill: #ff0000"/>
     <use xlink:href="#m42517c3e9c" x="428.025432" y="165.955906" style="fill: #ff0000"/>
     <use xlink:href="#m42517c3e9c" x="431.718636" y="134.696246" style="fill: #ff0000"/>
    </g>
   </g>
   <g id="line2d_19">
    <path d="M 66.091364 125.077889 
L 69.784568 131.089362 
L 73.477773 136.299305 
L 77.170978 134.696246 
L 80.864183 139.024506 
L 84.557388 139.906189 
L 88.250592 139.848937 
L 91.943797 141.308866 
L 95.637002 142.97872 
L 99.330207 144.314603 
L 103.023411 143.877405 
L 106.716616 144.11422 
L 110.409821 145.239445 
L 114.103026 145.001628 
L 117.79623 146.077968 
L 121.489435 146.719192 
L 125.18264 145.870513 
L 128.875845 146.719192 
L 132.56905 147.098864 
L 136.262254 147.20011 
L 139.955459 147.406217 
L 143.648664 146.063395 
L 147.341869 146.614645 
L 151.035073 145.71728 
L 154.728278 145.757356 
L 158.421483 146.349255 
L 162.114688 146.808251 
L 165.807893 146.80507 
L 169.501097 146.636275 
L 173.194302 146.478733 
L 176.887507 146.641625 
L 180.580712 146.343475 
L 184.273916 146.209128 
L 187.967121 146.294853 
L 191.660326 146.719192 
L 195.353531 146.518809 
L 199.046736 146.26427 
L 202.73994 146.529356 
L 206.433145 146.59588 
L 210.12635 147.139995 
L 213.819555 147.012435 
L 217.512759 146.833696 
L 221.205964 146.886954 
L 224.899169 146.883141 
L 228.592374 146.505451 
L 232.285579 146.40555 
L 235.978783 146.361062 
L 239.671988 146.218236 
L 243.365193 145.835873 
L 247.058398 145.564989 
L 250.751602 146.153406 
L 254.444807 146.164287 
L 258.138012 145.630321 
L 261.831217 145.650486 
L 265.524421 145.801076 
L 269.217626 145.731593 
L 272.910831 145.875476 
L 276.604036 146.097315 
L 280.297241 146.026344 
L 283.990445 146.118045 
L 287.68365 146.009641 
L 291.376855 145.788383 
L 295.07006 145.535981 
L 298.763264 145.779899 
L 302.456469 146.164287 
L 306.149674 145.844796 
L 309.842879 146.037293 
L 313.536084 146.188768 
L 317.229288 146.231304 
L 320.922493 146.100869 
L 324.615698 146.07571 
L 328.308903 146.485412 
L 332.002107 146.290977 
L 335.695312 146.199281 
L 339.388517 146.334458 
L 343.081722 146.529356 
L 346.774927 146.500593 
L 350.468131 146.534224 
L 354.161336 146.658316 
L 357.854541 146.689135 
L 361.547746 146.719192 
L 365.24095 146.631219 
L 368.934155 146.545366 
L 372.62736 146.747818 
L 376.320565 146.832349 
L 380.01377 146.942875 
L 383.706974 146.719192 
L 387.400179 146.609892 
L 391.093384 146.692174 
L 394.786589 146.719192 
L 398.479793 146.930584 
L 402.172998 147.006697 
L 405.866203 147.055317 
L 409.559408 147.102903 
L 413.252612 147.048241 
L 416.945817 147.094909 
L 420.639022 146.991877 
L 424.332227 146.792802 
L 428.025432 146.986369 
L 431.718636 146.863467 
" clip-path="url(#p50c96c24bb)" style="fill: none; stroke: #ff0000; stroke-opacity: 0.5; stroke-width: 0.25; stroke-linecap: square"/>
    <defs>
     <path id="mc169de2da2" d="M -0.49999 0.49999 
L 0.50001 0.49999 
L 0.50001 -0.50001 
L -0.49999 -0.50001 
z
"/>
    </defs>
    <g clip-path="url(#p50c96c24bb)">
     <use xlink:href="#mc169de2da2" x="66.091364" y="125.077889" style="fill: #ff0000; fill-opacity: 0.5"/>
     <use xlink:href="#mc169de2da2" x="69.784568" y="131.089362" style="fill: #ff0000; fill-opacity: 0.5"/>
     <use xlink:href="#mc169de2da2" x="73.477773" y="136.299305" style="fill: #ff0000; fill-opacity: 0.5"/>
     <use xlink:href="#mc169de2da2" x="77.170978" y="134.696246" style="fill: #ff0000; fill-opacity: 0.5"/>
     <use xlink:href="#mc169de2da2" x="80.864183" y="139.024506" style="fill: #ff0000; fill-opacity: 0.5"/>
     <use xlink:href="#mc169de2da2" x="84.557388" y="139.906189" style="fill: #ff0000; fill-opacity: 0.5"/>
     <use xlink:href="#mc169de2da2" x="88.250592" y="139.848937" style="fill: #ff0000; fill-opacity: 0.5"/>
     <use xlink:href="#mc169de2da2" x="91.943797" y="141.308866" style="fill: #ff0000; fill-opacity: 0.5"/>
     <use xlink:href="#mc169de2da2" x="95.637002" y="142.97872" style="fill: #ff0000; fill-opacity: 0.5"/>
     <use xlink:href="#mc169de2da2" x="99.330207" y="144.314603" style="fill: #ff0000; fill-opacity: 0.5"/>
     <use xlink:href="#mc169de2da2" x="103.023411" y="143.877405" style="fill: #ff0000; fill-opacity: 0.5"/>
     <use xlink:href="#mc169de2da2" x="106.716616" y="144.11422" style="fill: #ff0000; fill-opacity: 0.5"/>
     <use xlink:href="#mc169de2da2" x="110.409821" y="145.239445" style="fill: #ff0000; fill-opacity: 0.5"/>
     <use xlink:href="#mc169de2da2" x="114.103026" y="145.001628" style="fill: #ff0000; fill-opacity: 0.5"/>
     <use xlink:href="#mc169de2da2" x="117.79623" y="146.077968" style="fill: #ff0000; fill-opacity: 0.5"/>
     <use xlink:href="#mc169de2da2" x="121.489435" y="146.719192" style="fill: #ff0000; fill-opacity: 0.5"/>
     <use xlink:href="#mc169de2da2" x="125.18264" y="145.870513" style="fill: #ff0000; fill-opacity: 0.5"/>
     <use xlink:href="#mc169de2da2" x="128.875845" y="146.719192" style="fill: #ff0000; fill-opacity: 0.5"/>
     <use xlink:href="#mc169de2da2" x="132.56905" y="147.098864" style="fill: #ff0000; fill-opacity: 0.5"/>
     <use xlink:href="#mc169de2da2" x="136.262254" y="147.20011" style="fill: #ff0000; fill-opacity: 0.5"/>
     <use xlink:href="#mc169de2da2" x="139.955459" y="147.406217" style="fill: #ff0000; fill-opacity: 0.5"/>
     <use xlink:href="#mc169de2da2" x="143.648664" y="146.063395" style="fill: #ff0000; fill-opacity: 0.5"/>
     <use xlink:href="#mc169de2da2" x="147.341869" y="146.614645" style="fill: #ff0000; fill-opacity: 0.5"/>
     <use xlink:href="#mc169de2da2" x="151.035073" y="145.71728" style="fill: #ff0000; fill-opacity: 0.5"/>
     <use xlink:href="#mc169de2da2" x="154.728278" y="145.757356" style="fill: #ff0000; fill-opacity: 0.5"/>
     <use xlink:href="#mc169de2da2" x="158.421483" y="146.349255" style="fill: #ff0000; fill-opacity: 0.5"/>
     <use xlink:href="#mc169de2da2" x="162.114688" y="146.808251" style="fill: #ff0000; fill-opacity: 0.5"/>
     <use xlink:href="#mc169de2da2" x="165.807893" y="146.80507" style="fill: #ff0000; fill-opacity: 0.5"/>
     <use xlink:href="#mc169de2da2" x="169.501097" y="146.636275" style="fill: #ff0000; fill-opacity: 0.5"/>
     <use xlink:href="#mc169de2da2" x="173.194302" y="146.478733" style="fill: #ff0000; fill-opacity: 0.5"/>
     <use xlink:href="#mc169de2da2" x="176.887507" y="146.641625" style="fill: #ff0000; fill-opacity: 0.5"/>
     <use xlink:href="#mc169de2da2" x="180.580712" y="146.343475" style="fill: #ff0000; fill-opacity: 0.5"/>
     <use xlink:href="#mc169de2da2" x="184.273916" y="146.209128" style="fill: #ff0000; fill-opacity: 0.5"/>
     <use xlink:href="#mc169de2da2" x="187.967121" y="146.294853" style="fill: #ff0000; fill-opacity: 0.5"/>
     <use xlink:href="#mc169de2da2" x="191.660326" y="146.719192" style="fill: #ff0000; fill-opacity: 0.5"/>
     <use xlink:href="#mc169de2da2" x="195.353531" y="146.518809" style="fill: #ff0000; fill-opacity: 0.5"/>
     <use xlink:href="#mc169de2da2" x="199.046736" y="146.26427" style="fill: #ff0000; fill-opacity: 0.5"/>
     <use xlink:href="#mc169de2da2" x="202.73994" y="146.529356" style="fill: #ff0000; fill-opacity: 0.5"/>
     <use xlink:href="#mc169de2da2" x="206.433145" y="146.59588" style="fill: #ff0000; fill-opacity: 0.5"/>
     <use xlink:href="#mc169de2da2" x="210.12635" y="147.139995" style="fill: #ff0000; fill-opacity: 0.5"/>
     <use xlink:href="#mc169de2da2" x="213.819555" y="147.012435" style="fill: #ff0000; fill-opacity: 0.5"/>
     <use xlink:href="#mc169de2da2" x="217.512759" y="146.833696" style="fill: #ff0000; fill-opacity: 0.5"/>
     <use xlink:href="#mc169de2da2" x="221.205964" y="146.886954" style="fill: #ff0000; fill-opacity: 0.5"/>
     <use xlink:href="#mc169de2da2" x="224.899169" y="146.883141" style="fill: #ff0000; fill-opacity: 0.5"/>
     <use xlink:href="#mc169de2da2" x="228.592374" y="146.505451" style="fill: #ff0000; fill-opacity: 0.5"/>
     <use xlink:href="#mc169de2da2" x="232.285579" y="146.40555" style="fill: #ff0000; fill-opacity: 0.5"/>
     <use xlink:href="#mc169de2da2" x="235.978783" y="146.361062" style="fill: #ff0000; fill-opacity: 0.5"/>
     <use xlink:href="#mc169de2da2" x="239.671988" y="146.218236" style="fill: #ff0000; fill-opacity: 0.5"/>
     <use xlink:href="#mc169de2da2" x="243.365193" y="145.835873" style="fill: #ff0000; fill-opacity: 0.5"/>
     <use xlink:href="#mc169de2da2" x="247.058398" y="145.564989" style="fill: #ff0000; fill-opacity: 0.5"/>
     <use xlink:href="#mc169de2da2" x="250.751602" y="146.153406" style="fill: #ff0000; fill-opacity: 0.5"/>
     <use xlink:href="#mc169de2da2" x="254.444807" y="146.164287" style="fill: #ff0000; fill-opacity: 0.5"/>
     <use xlink:href="#mc169de2da2" x="258.138012" y="145.630321" style="fill: #ff0000; fill-opacity: 0.5"/>
     <use xlink:href="#mc169de2da2" x="261.831217" y="145.650486" style="fill: #ff0000; fill-opacity: 0.5"/>
     <use xlink:href="#mc169de2da2" x="265.524421" y="145.801076" style="fill: #ff0000; fill-opacity: 0.5"/>
     <use xlink:href="#mc169de2da2" x="269.217626" y="145.731593" style="fill: #ff0000; fill-opacity: 0.5"/>
     <use xlink:href="#mc169de2da2" x="272.910831" y="145.875476" style="fill: #ff0000; fill-opacity: 0.5"/>
     <use xlink:href="#mc169de2da2" x="276.604036" y="146.097315" style="fill: #ff0000; fill-opacity: 0.5"/>
     <use xlink:href="#mc169de2da2" x="280.297241" y="146.026344" style="fill: #ff0000; fill-opacity: 0.5"/>
     <use xlink:href="#mc169de2da2" x="283.990445" y="146.118045" style="fill: #ff0000; fill-opacity: 0.5"/>
     <use xlink:href="#mc169de2da2" x="287.68365" y="146.009641" style="fill: #ff0000; fill-opacity: 0.5"/>
     <use xlink:href="#mc169de2da2" x="291.376855" y="145.788383" style="fill: #ff0000; fill-opacity: 0.5"/>
     <use xlink:href="#mc169de2da2" x="295.07006" y="145.535981" style="fill: #ff0000; fill-opacity: 0.5"/>
     <use xlink:href="#mc169de2da2" x="298.763264" y="145.779899" style="fill: #ff0000; fill-opacity: 0.5"/>
     <use xlink:href="#mc169de2da2" x="302.456469" y="146.164287" style="fill: #ff0000; fill-opacity: 0.5"/>
     <use xlink:href="#mc169de2da2" x="306.149674" y="145.844796" style="fill: #ff0000; fill-opacity: 0.5"/>
     <use xlink:href="#mc169de2da2" x="309.842879" y="146.037293" style="fill: #ff0000; fill-opacity: 0.5"/>
     <use xlink:href="#mc169de2da2" x="313.536084" y="146.188768" style="fill: #ff0000; fill-opacity: 0.5"/>
     <use xlink:href="#mc169de2da2" x="317.229288" y="146.231304" style="fill: #ff0000; fill-opacity: 0.5"/>
     <use xlink:href="#mc169de2da2" x="320.922493" y="146.100869" style="fill: #ff0000; fill-opacity: 0.5"/>
     <use xlink:href="#mc169de2da2" x="324.615698" y="146.07571" style="fill: #ff0000; fill-opacity: 0.5"/>
     <use xlink:href="#mc169de2da2" x="328.308903" y="146.485412" style="fill: #ff0000; fill-opacity: 0.5"/>
     <use xlink:href="#mc169de2da2" x="332.002107" y="146.290977" style="fill: #ff0000; fill-opacity: 0.5"/>
     <use xlink:href="#mc169de2da2" x="335.695312" y="146.199281" style="fill: #ff0000; fill-opacity: 0.5"/>
     <use xlink:href="#mc169de2da2" x="339.388517" y="146.334458" style="fill: #ff0000; fill-opacity: 0.5"/>
     <use xlink:href="#mc169de2da2" x="343.081722" y="146.529356" style="fill: #ff0000; fill-opacity: 0.5"/>
     <use xlink:href="#mc169de2da2" x="346.774927" y="146.500593" style="fill: #ff0000; fill-opacity: 0.5"/>
     <use xlink:href="#mc169de2da2" x="350.468131" y="146.534224" style="fill: #ff0000; fill-opacity: 0.5"/>
     <use xlink:href="#mc169de2da2" x="354.161336" y="146.658316" style="fill: #ff0000; fill-opacity: 0.5"/>
     <use xlink:href="#mc169de2da2" x="357.854541" y="146.689135" style="fill: #ff0000; fill-opacity: 0.5"/>
     <use xlink:href="#mc169de2da2" x="361.547746" y="146.719192" style="fill: #ff0000; fill-opacity: 0.5"/>
     <use xlink:href="#mc169de2da2" x="365.24095" y="146.631219" style="fill: #ff0000; fill-opacity: 0.5"/>
     <use xlink:href="#mc169de2da2" x="368.934155" y="146.545366" style="fill: #ff0000; fill-opacity: 0.5"/>
     <use xlink:href="#mc169de2da2" x="372.62736" y="146.747818" style="fill: #ff0000; fill-opacity: 0.5"/>
     <use xlink:href="#mc169de2da2" x="376.320565" y="146.832349" style="fill: #ff0000; fill-opacity: 0.5"/>
     <use xlink:href="#mc169de2da2" x="380.01377" y="146.942875" style="fill: #ff0000; fill-opacity: 0.5"/>
     <use xlink:href="#mc169de2da2" x="383.706974" y="146.719192" style="fill: #ff0000; fill-opacity: 0.5"/>
     <use xlink:href="#mc169de2da2" x="387.400179" y="146.609892" style="fill: #ff0000; fill-opacity: 0.5"/>
     <use xlink:href="#mc169de2da2" x="391.093384" y="146.692174" style="fill: #ff0000; fill-opacity: 0.5"/>
     <use xlink:href="#mc169de2da2" x="394.786589" y="146.719192" style="fill: #ff0000; fill-opacity: 0.5"/>
     <use xlink:href="#mc169de2da2" x="398.479793" y="146.930584" style="fill: #ff0000; fill-opacity: 0.5"/>
     <use xlink:href="#mc169de2da2" x="402.172998" y="147.006697" style="fill: #ff0000; fill-opacity: 0.5"/>
     <use xlink:href="#mc169de2da2" x="405.866203" y="147.055317" style="fill: #ff0000; fill-opacity: 0.5"/>
     <use xlink:href="#mc169de2da2" x="409.559408" y="147.102903" style="fill: #ff0000; fill-opacity: 0.5"/>
     <use xlink:href="#mc169de2da2" x="413.252612" y="147.048241" style="fill: #ff0000; fill-opacity: 0.5"/>
     <use xlink:href="#mc169de2da2" x="416.945817" y="147.094909" style="fill: #ff0000; fill-opacity: 0.5"/>
     <use xlink:href="#mc169de2da2" x="420.639022" y="146.991877" style="fill: #ff0000; fill-opacity: 0.5"/>
     <use xlink:href="#mc169de2da2" x="424.332227" y="146.792802" style="fill: #ff0000; fill-opacity: 0.5"/>
     <use xlink:href="#mc169de2da2" x="428.025432" y="146.986369" style="fill: #ff0000; fill-opacity: 0.5"/>
     <use xlink:href="#mc169de2da2" x="431.718636" y="146.863467" style="fill: #ff0000; fill-opacity: 0.5"/>
    </g>
   </g>
   <g id="patch_3">
    <path d="M 47.81 303.64 
L 47.81 25.44 
" style="fill: none; stroke: #000000; stroke-width: 0.8; stroke-linejoin: miter; stroke-linecap: square"/>
   </g>
   <g id="patch_4">
    <path d="M 450 303.64 
L 450 25.44 
" style="fill: none; stroke: #000000; stroke-width: 0.8; stroke-linejoin: miter; stroke-linecap: square"/>
   </g>
   <g id="patch_5">
    <path d="M 47.81 303.64 
L 450 303.64 
" style="fill: none; stroke: #000000; stroke-width: 0.8; stroke-linejoin: miter; stroke-linecap: square"/>
   </g>
   <g id="patch_6">
    <path d="M 47.81 25.44 
L 450 25.44 
" style="fill: none; stroke: #000000; stroke-width: 0.8; stroke-linejoin: miter; stroke-linecap: square"/>
   </g>
   <g id="text_15">
    <!-- Average action - 20240424102314 - 100 games -->
    <g transform="translate(104.980938 19.44) scale(0.12 -0.12)">
     <defs>
      <path id="DejaVuSans-2d" d="M 313 2009 
L 1997 2009 
L 1997 1497 
L 313 1497 
L 313 2009 
z
" transform="scale(0.015625)"/>
      <path id="DejaVuSans-33" d="M 2597 2516 
Q 3050 2419 3304 2112 
Q 3559 1806 3559 1356 
Q 3559 666 3084 287 
Q 2609 -91 1734 -91 
Q 1441 -91 1130 -33 
Q 819 25 488 141 
L 488 750 
Q 750 597 1062 519 
Q 1375 441 1716 441 
Q 2309 441 2620 675 
Q 2931 909 2931 1356 
Q 2931 1769 2642 2001 
Q 2353 2234 1838 2234 
L 1294 2234 
L 1294 2753 
L 1863 2753 
Q 2328 2753 2575 2939 
Q 2822 3125 2822 3475 
Q 2822 3834 2567 4026 
Q 2313 4219 1838 4219 
Q 1578 4219 1281 4162 
Q 984 4106 628 3988 
L 628 4550 
Q 988 4650 1302 4700 
Q 1616 4750 1894 4750 
Q 2613 4750 3031 4423 
Q 3450 4097 3450 3541 
Q 3450 3153 3228 2886 
Q 3006 2619 2597 2516 
z
" transform="scale(0.015625)"/>
      <path id="DejaVuSans-6d" d="M 3328 2828 
Q 3544 3216 3844 3400 
Q 4144 3584 4550 3584 
Q 5097 3584 5394 3201 
Q 5691 2819 5691 2113 
L 5691 0 
L 5113 0 
L 5113 2094 
Q 5113 2597 4934 2840 
Q 4756 3084 4391 3084 
Q 3944 3084 3684 2787 
Q 3425 2491 3425 1978 
L 3425 0 
L 2847 0 
L 2847 2094 
Q 2847 2600 2669 2842 
Q 2491 3084 2119 3084 
Q 1678 3084 1418 2786 
Q 1159 2488 1159 1978 
L 1159 0 
L 581 0 
L 581 3500 
L 1159 3500 
L 1159 2956 
Q 1356 3278 1631 3431 
Q 1906 3584 2284 3584 
Q 2666 3584 2933 3390 
Q 3200 3197 3328 2828 
z
" transform="scale(0.015625)"/>
      <path id="DejaVuSans-73" d="M 2834 3397 
L 2834 2853 
Q 2591 2978 2328 3040 
Q 2066 3103 1784 3103 
Q 1356 3103 1142 2972 
Q 928 2841 928 2578 
Q 928 2378 1081 2264 
Q 1234 2150 1697 2047 
L 1894 2003 
Q 2506 1872 2764 1633 
Q 3022 1394 3022 966 
Q 3022 478 2636 193 
Q 2250 -91 1575 -91 
Q 1294 -91 989 -36 
Q 684 19 347 128 
L 347 722 
Q 666 556 975 473 
Q 1284 391 1588 391 
Q 1994 391 2212 530 
Q 2431 669 2431 922 
Q 2431 1156 2273 1281 
Q 2116 1406 1581 1522 
L 1381 1569 
Q 847 1681 609 1914 
Q 372 2147 372 2553 
Q 372 3047 722 3315 
Q 1072 3584 1716 3584 
Q 2034 3584 2315 3537 
Q 2597 3491 2834 3397 
z
" transform="scale(0.015625)"/>
     </defs>
     <use xlink:href="#DejaVuSans-41"/>
     <use xlink:href="#DejaVuSans-76" x="62.533203"/>
     <use xlink:href="#DejaVuSans-65" x="121.712891"/>
     <use xlink:href="#DejaVuSans-72" x="183.236328"/>
     <use xlink:href="#DejaVuSans-61" x="224.349609"/>
     <use xlink:href="#DejaVuSans-67" x="285.628906"/>
     <use xlink:href="#DejaVuSans-65" x="349.105469"/>
     <use xlink:href="#DejaVuSans-20" x="410.628906"/>
     <use xlink:href="#DejaVuSans-61" x="442.416016"/>
     <use xlink:href="#DejaVuSans-63" x="503.695312"/>
     <use xlink:href="#DejaVuSans-74" x="558.675781"/>
     <use xlink:href="#DejaVuSans-69" x="597.884766"/>
     <use xlink:href="#DejaVuSans-6f" x="625.667969"/>
     <use xlink:href="#DejaVuSans-6e" x="686.849609"/>
     <use xlink:href="#DejaVuSans-20" x="750.228516"/>
     <use xlink:href="#DejaVuSans-2d" x="782.015625"/>
     <use xlink:href="#DejaVuSans-20" x="818.099609"/>
     <use xlink:href="#DejaVuSans-32" x="849.886719"/>
     <use xlink:href="#DejaVuSans-30" x="913.509766"/>
     <use xlink:href="#DejaVuSans-32" x="977.132812"/>
     <use xlink:href="#DejaVuSans-34" x="1040.755859"/>
     <use xlink:href="#DejaVuSans-30" x="1104.378906"/>
     <use xlink:href="#DejaVuSans-34" x="1168.001953"/>
     <use xlink:href="#DejaVuSans-32" x="1231.625"/>
     <use xlink:href="#DejaVuSans-34" x="1295.248047"/>
     <use xlink:href="#DejaVuSans-31" x="1358.871094"/>
     <use xlink:href="#DejaVuSans-30" x="1422.494141"/>
     <use xlink:href="#DejaVuSans-32" x="1486.117188"/>
     <use xlink:href="#DejaVuSans-33" x="1549.740234"/>
     <use xlink:href="#DejaVuSans-31" x="1613.363281"/>
     <use xlink:href="#DejaVuSans-34" x="1676.986328"/>
     <use xlink:href="#DejaVuSans-20" x="1740.609375"/>
     <use xlink:href="#DejaVuSans-2d" x="1772.396484"/>
     <use xlink:href="#DejaVuSans-20" x="1808.480469"/>
     <use xlink:href="#DejaVuSans-31" x="1840.267578"/>
     <use xlink:href="#DejaVuSans-30" x="1903.890625"/>
     <use xlink:href="#DejaVuSans-30" x="1967.513672"/>
     <use xlink:href="#DejaVuSans-20" x="2031.136719"/>
     <use xlink:href="#DejaVuSans-67" x="2062.923828"/>
     <use xlink:href="#DejaVuSans-61" x="2126.400391"/>
     <use xlink:href="#DejaVuSans-6d" x="2187.679688"/>
     <use xlink:href="#DejaVuSans-65" x="2285.091797"/>
     <use xlink:href="#DejaVuSans-73" x="2346.615234"/>
    </g>
   </g>
   <g id="legend_1">
    <g id="patch_7">
     <path d="M 337.289062 92.1525 
L 443 92.1525 
Q 445 92.1525 445 90.1525 
L 445 32.44 
Q 445 30.44 443 30.44 
L 337.289062 30.44 
Q 335.289062 30.44 335.289062 32.44 
L 335.289062 90.1525 
Q 335.289062 92.1525 337.289062 92.1525 
z
" style="fill: #ffffff; opacity: 0.8; stroke: #cccccc; stroke-linejoin: miter"/>
    </g>
    <g id="line2d_20">
     <path d="M 339.289062 38.538438 
L 349.289062 38.538438 
L 359.289062 38.538438 
" style="fill: none; stroke: #0000ff; stroke-linecap: square"/>
     <g>
      <use xlink:href="#m611e3b6a9c" x="349.289062" y="38.538438" style="fill: #0000ff"/>
     </g>
    </g>
    <g id="text_16">
     <!-- LLM -->
     <g transform="translate(367.289062 42.038438) scale(0.1 -0.1)">
      <defs>
       <path id="DejaVuSans-4c" d="M 628 4666 
L 1259 4666 
L 1259 531 
L 3531 531 
L 3531 0 
L 628 0 
L 628 4666 
z
" transform="scale(0.015625)"/>
       <path id="DejaVuSans-4d" d="M 628 4666 
L 1569 4666 
L 2759 1491 
L 3956 4666 
L 4897 4666 
L 4897 0 
L 4281 0 
L 4281 4097 
L 3078 897 
L 2444 897 
L 1241 4097 
L 1241 0 
L 628 0 
L 628 4666 
z
" transform="scale(0.015625)"/>
      </defs>
      <use xlink:href="#DejaVuSans-4c"/>
      <use xlink:href="#DejaVuSans-4c" x="55.712891"/>
      <use xlink:href="#DejaVuSans-4d" x="111.425781"/>
     </g>
    </g>
    <g id="line2d_21">
     <path d="M 339.289062 53.216563 
L 349.289062 53.216563 
L 359.289062 53.216563 
" style="fill: none; stroke: #0000ff; stroke-opacity: 0.5; stroke-width: 0.5; stroke-linecap: square"/>
     <g>
      <use xlink:href="#mcf2ccdd9c7" x="349.289062" y="53.216563" style="fill: #0000ff; fill-opacity: 0.5"/>
     </g>
    </g>
    <g id="text_17">
     <!-- LLM mean -->
     <g transform="translate(367.289062 56.716563) scale(0.1 -0.1)">
      <use xlink:href="#DejaVuSans-4c"/>
      <use xlink:href="#DejaVuSans-4c" x="55.712891"/>
      <use xlink:href="#DejaVuSans-4d" x="111.425781"/>
      <use xlink:href="#DejaVuSans-20" x="197.705078"/>
      <use xlink:href="#DejaVuSans-6d" x="229.492188"/>
      <use xlink:href="#DejaVuSans-65" x="326.904297"/>
      <use xlink:href="#DejaVuSans-61" x="388.427734"/>
      <use xlink:href="#DejaVuSans-6e" x="449.707031"/>
     </g>
    </g>
    <g id="line2d_22">
     <path d="M 339.289062 67.894688 
L 349.289062 67.894688 
L 359.289062 67.894688 
" style="fill: none; stroke: #ff0000; stroke-width: 0.5; stroke-linecap: square"/>
     <g>
      <use xlink:href="#m42517c3e9c" x="349.289062" y="67.894688" style="fill: #ff0000"/>
     </g>
    </g>
    <g id="text_18">
     <!-- URND06 -->
     <g transform="translate(367.289062 71.394688) scale(0.1 -0.1)">
      <defs>
       <path id="DejaVuSans-55" d="M 556 4666 
L 1191 4666 
L 1191 1831 
Q 1191 1081 1462 751 
Q 1734 422 2344 422 
Q 2950 422 3222 751 
Q 3494 1081 3494 1831 
L 3494 4666 
L 4128 4666 
L 4128 1753 
Q 4128 841 3676 375 
Q 3225 -91 2344 -91 
Q 1459 -91 1007 375 
Q 556 841 556 1753 
L 556 4666 
z
" transform="scale(0.015625)"/>
       <path id="DejaVuSans-52" d="M 2841 2188 
Q 3044 2119 3236 1894 
Q 3428 1669 3622 1275 
L 4263 0 
L 3584 0 
L 2988 1197 
Q 2756 1666 2539 1819 
Q 2322 1972 1947 1972 
L 1259 1972 
L 1259 0 
L 628 0 
L 628 4666 
L 2053 4666 
Q 2853 4666 3247 4331 
Q 3641 3997 3641 3322 
Q 3641 2881 3436 2590 
Q 3231 2300 2841 2188 
z
M 1259 4147 
L 1259 2491 
L 2053 2491 
Q 2509 2491 2742 2702 
Q 2975 2913 2975 3322 
Q 2975 3731 2742 3939 
Q 2509 4147 2053 4147 
L 1259 4147 
z
" transform="scale(0.015625)"/>
       <path id="DejaVuSans-4e" d="M 628 4666 
L 1478 4666 
L 3547 763 
L 3547 4666 
L 4159 4666 
L 4159 0 
L 3309 0 
L 1241 3903 
L 1241 0 
L 628 0 
L 628 4666 
z
" transform="scale(0.015625)"/>
       <path id="DejaVuSans-44" d="M 1259 4147 
L 1259 519 
L 2022 519 
Q 2988 519 3436 956 
Q 3884 1394 3884 2338 
Q 3884 3275 3436 3711 
Q 2988 4147 2022 4147 
L 1259 4147 
z
M 628 4666 
L 1925 4666 
Q 3281 4666 3915 4102 
Q 4550 3538 4550 2338 
Q 4550 1131 3912 565 
Q 3275 0 1925 0 
L 628 0 
L 628 4666 
z
" transform="scale(0.015625)"/>
      </defs>
      <use xlink:href="#DejaVuSans-55"/>
      <use xlink:href="#DejaVuSans-52" x="73.193359"/>
      <use xlink:href="#DejaVuSans-4e" x="142.675781"/>
      <use xlink:href="#DejaVuSans-44" x="217.480469"/>
      <use xlink:href="#DejaVuSans-30" x="294.482422"/>
      <use xlink:href="#DejaVuSans-36" x="358.105469"/>
     </g>
    </g>
    <g id="line2d_23">
     <path d="M 339.289062 82.572813 
L 349.289062 82.572813 
L 359.289062 82.572813 
" style="fill: none; stroke: #ff0000; stroke-opacity: 0.5; stroke-width: 0.25; stroke-linecap: square"/>
     <g>
      <use xlink:href="#mc169de2da2" x="349.289062" y="82.572813" style="fill: #ff0000; fill-opacity: 0.5"/>
     </g>
    </g>
    <g id="text_19">
     <!-- URND06 mean -->
     <g transform="translate(367.289062 86.072813) scale(0.1 -0.1)">
      <use xlink:href="#DejaVuSans-55"/>
      <use xlink:href="#DejaVuSans-52" x="73.193359"/>
      <use xlink:href="#DejaVuSans-4e" x="142.675781"/>
      <use xlink:href="#DejaVuSans-44" x="217.480469"/>
      <use xlink:href="#DejaVuSans-30" x="294.482422"/>
      <use xlink:href="#DejaVuSans-36" x="358.105469"/>
      <use xlink:href="#DejaVuSans-20" x="421.728516"/>
      <use xlink:href="#DejaVuSans-6d" x="453.515625"/>
      <use xlink:href="#DejaVuSans-65" x="550.927734"/>
      <use xlink:href="#DejaVuSans-61" x="612.451172"/>
      <use xlink:href="#DejaVuSans-6e" x="673.730469"/>
     </g>
    </g>
   </g>
  </g>
 </g>
 <defs>
  <clipPath id="p50c96c24bb">
   <rect x="47.81" y="25.44" width="402.19" height="278.2"/>
  </clipPath>
 </defs>
</svg>
