<?xml version="1.0" encoding="utf-8" standalone="no"?>
<!DOCTYPE svg PUBLIC "-//W3C//DTD SVG 1.1//EN"
  "http://www.w3.org/Graphics/SVG/1.1/DTD/svg11.dtd">
<svg xmlns:xlink="http://www.w3.org/1999/xlink" width="460.8pt" height="345.6pt" viewBox="0 0 460.8 345.6" xmlns="http://www.w3.org/2000/svg" version="1.1">
 <metadata>
  <rdf:RDF xmlns:dc="http://purl.org/dc/elements/1.1/" xmlns:cc="http://creativecommons.org/ns#" xmlns:rdf="http://www.w3.org/1999/02/22-rdf-syntax-ns#">
   <cc:Work>
    <dc:type rdf:resource="http://purl.org/dc/dcmitype/StillImage"/>
    <dc:date>2024-04-10T14:37:44.026024</dc:date>
    <dc:format>image/svg+xml</dc:format>
    <dc:creator>
     <cc:Agent>
      <dc:title>Matplotlib v3.8.0, https://matplotlib.org/</dc:title>
     </cc:Agent>
    </dc:creator>
   </cc:Work>
  </rdf:RDF>
 </metadata>
 <defs>
  <style type="text/css">*{stroke-linejoin: round; stroke-linecap: butt}</style>
 </defs>
 <g id="figure_1">
  <g id="patch_1">
   <path d="M 0 345.6 
L 460.8 345.6 
L 460.8 0 
L 0 0 
z
" style="fill: #ffffff"/>
  </g>
  <g id="axes_1">
   <g id="patch_2">
    <path d="M 47.81 303.64 
L 450 303.64 
L 450 25.44 
L 47.81 25.44 
z
" style="fill: #ffffff"/>
   </g>
   <g id="PolyCollection_1">
    <defs>
     <path id="m66d75dae17" d="M 66.091364 -255.334547 
L 66.091364 -255.334547 
L 69.784568 -267.595823 
L 73.477773 -258.572685 
L 77.170978 -238.848843 
L 80.864183 -223.62454 
L 84.557388 -210.773555 
L 88.250592 -200.385713 
L 91.943797 -191.629973 
L 95.637002 -184.191036 
L 99.330207 -177.841238 
L 103.023411 -172.695723 
L 106.716616 -167.931846 
L 110.409821 -164.063424 
L 114.103026 -160.65323 
L 117.79623 -157.317826 
L 121.489435 -154.610885 
L 125.18264 -152.350134 
L 128.875845 -150.300165 
L 132.56905 -148.833367 
L 136.262254 -147.712421 
L 139.955459 -145.952738 
L 143.648664 -145.026202 
L 147.341869 -143.962237 
L 151.035073 -144.43486 
L 154.728278 -144.055072 
L 158.421483 -142.968103 
L 162.114688 -143.115542 
L 165.807893 -142.785691 
L 169.501097 -143.404329 
L 173.194302 -143.957115 
L 176.887507 -143.430677 
L 180.580712 -143.686746 
L 184.273916 -145.209028 
L 187.967121 -145.808101 
L 191.660326 -147.397759 
L 195.353531 -149.756168 
L 199.046736 -152.547069 
L 202.73994 -154.205227 
L 206.433145 -156.284475 
L 210.12635 -160.780442 
L 213.819555 -164.170745 
L 217.512759 -167.580311 
L 221.205964 -171.638824 
L 224.899169 -177.340915 
L 228.592374 -183.170574 
L 232.285579 -188.778446 
L 235.978783 -193.579742 
L 239.671988 -197.992989 
L 243.365193 -202.624681 
L 247.058398 -207.177615 
L 250.751602 -211.660316 
L 254.444807 -216.342358 
L 258.138012 -220.443032 
L 261.831217 -224.510968 
L 265.524421 -228.787215 
L 269.217626 -232.559616 
L 272.910831 -236.545073 
L 276.604036 -239.657898 
L 280.297241 -242.998665 
L 283.990445 -246.152717 
L 287.68365 -249.52651 
L 291.376855 -252.157071 
L 295.07006 -254.654578 
L 298.763264 -257.376715 
L 302.456469 -259.9641 
L 306.149674 -262.59584 
L 309.842879 -264.93715 
L 313.536084 -267.013642 
L 317.229288 -269.305923 
L 320.922493 -271.49536 
L 324.615698 -273.588522 
L 328.308903 -275.5914 
L 332.002107 -277.509475 
L 335.695312 -278.943968 
L 339.388517 -280.581468 
L 343.081722 -282.28559 
L 346.774927 -283.793092 
L 350.468131 -285.368684 
L 354.161336 -286.883772 
L 357.854541 -288.341537 
L 361.547746 -289.744935 
L 365.24095 -290.866419 
L 368.934155 -292.173601 
L 372.62736 -293.433975 
L 376.320565 -294.53956 
L 380.01377 -295.714947 
L 383.706974 -296.743435 
L 387.400179 -297.736928 
L 391.093384 -298.696993 
L 394.786589 -299.726255 
L 398.479793 -300.62218 
L 402.172998 -301.586798 
L 405.866203 -302.424049 
L 409.559408 -303.234565 
L 413.252612 -304.019451 
L 416.945817 -304.779756 
L 420.639022 -305.342376 
L 424.332227 -306.059007 
L 428.025432 -306.841957 
L 431.718636 -307.514545 
L 431.718636 -131.473769 
L 431.718636 -131.473769 
L 428.025432 -130.5943 
L 424.332227 -129.700578 
L 420.639022 -128.799864 
L 416.945817 -127.901197 
L 413.252612 -126.977701 
L 409.559408 -126.042961 
L 405.866203 -125.096869 
L 402.172998 -124.139325 
L 398.479793 -123.169614 
L 394.786589 -122.189425 
L 391.093384 -121.198075 
L 387.400179 -120.195106 
L 383.706974 -119.180438 
L 380.01377 -118.154064 
L 376.320565 -117.119085 
L 372.62736 -116.070106 
L 368.934155 -115.014262 
L 365.24095 -113.948734 
L 361.547746 -112.863813 
L 357.854541 -111.777944 
L 354.161336 -110.683422 
L 350.468131 -109.58078 
L 346.774927 -108.470649 
L 343.081722 -107.341595 
L 339.388517 -106.217411 
L 335.695312 -105.073247 
L 332.002107 -103.899402 
L 328.308903 -102.757182 
L 324.615698 -101.613559 
L 320.922493 -100.47032 
L 317.229288 -99.329548 
L 313.536084 -98.193672 
L 309.842879 -97.011559 
L 306.149674 -95.857514 
L 302.456469 -94.746227 
L 298.763264 -93.61593 
L 295.07006 -92.502362 
L 291.376855 -91.334242 
L 287.68365 -90.178991 
L 283.990445 -89.185374 
L 280.297241 -88.132717 
L 276.604036 -87.121716 
L 272.910831 -86.049661 
L 269.217626 -85.212846 
L 265.524421 -84.318822 
L 261.831217 -83.587145 
L 258.138012 -82.801881 
L 254.444807 -82.037849 
L 250.751602 -81.485822 
L 247.058398 -80.889416 
L 243.365193 -80.341812 
L 239.671988 -79.850195 
L 235.978783 -79.309699 
L 232.285579 -78.941872 
L 228.592374 -78.94848 
L 224.899169 -79.129275 
L 221.205964 -79.343396 
L 217.512759 -78.953766 
L 213.819555 -78.364651 
L 210.12635 -77.784043 
L 206.433145 -77.638381 
L 202.73994 -76.749198 
L 199.046736 -75.7708 
L 195.353531 -75.01966 
L 191.660326 -74.154089 
L 187.967121 -73.133777 
L 184.273916 -72.068714 
L 180.580712 -70.968967 
L 176.887507 -69.902891 
L 173.194302 -69.18058 
L 169.501097 -67.953621 
L 165.807893 -66.66539 
L 162.114688 -65.636769 
L 158.421483 -64.331063 
L 154.728278 -63.860643 
L 151.035073 -62.630766 
L 147.341869 -60.991364 
L 143.648664 -60.107402 
L 139.955459 -58.944291 
L 136.262254 -58.745998 
L 132.56905 -57.433302 
L 128.875845 -56.259454 
L 125.18264 -55.608443 
L 121.489435 -54.921518 
L 117.79623 -54.605455 
L 114.103026 -55.303639 
L 110.409821 -55.146341 
L 106.716616 -55.072962 
L 103.023411 -56.450154 
L 99.330207 -56.852303 
L 95.637002 -59.307005 
L 91.943797 -62.873694 
L 88.250592 -69.569202 
L 84.557388 -75.228972 
L 80.864183 -83.023023 
L 77.170978 -101.043299 
L 73.477773 -121.546917 
L 69.784568 -183.870595 
L 66.091364 -255.334547 
z
" style="stroke: #0000ff; stroke-opacity: 0.2"/>
    </defs>
    <g clip-path="url(#pa3a0aa9979)">
     <use xlink:href="#m66d75dae17" x="0" y="345.6" style="fill: #0000ff; fill-opacity: 0.2; stroke: #0000ff; stroke-opacity: 0.2"/>
    </g>
   </g>
   <g id="matplotlib.axis_1">
    <g id="xtick_1">
     <g id="line2d_1">
      <defs>
       <path id="mce64cd9c94" d="M 0 0 
L 0 3.5 
" style="stroke: #000000; stroke-width: 0.8"/>
      </defs>
      <g>
       <use xlink:href="#mce64cd9c94" x="66.091364" y="303.64" style="stroke: #000000; stroke-width: 0.8"/>
      </g>
     </g>
     <g id="text_1">
      <!-- 0 -->
      <g transform="translate(62.910114 318.238437) scale(0.1 -0.1)">
       <defs>
        <path id="DejaVuSans-30" d="M 2034 4250 
Q 1547 4250 1301 3770 
Q 1056 3291 1056 2328 
Q 1056 1369 1301 889 
Q 1547 409 2034 409 
Q 2525 409 2770 889 
Q 3016 1369 3016 2328 
Q 3016 3291 2770 3770 
Q 2525 4250 2034 4250 
z
M 2034 4750 
Q 2819 4750 3233 4129 
Q 3647 3509 3647 2328 
Q 3647 1150 3233 529 
Q 2819 -91 2034 -91 
Q 1250 -91 836 529 
Q 422 1150 422 2328 
Q 422 3509 836 4129 
Q 1250 4750 2034 4750 
z
" transform="scale(0.015625)"/>
       </defs>
       <use xlink:href="#DejaVuSans-30"/>
      </g>
     </g>
    </g>
    <g id="xtick_2">
     <g id="line2d_2">
      <g>
       <use xlink:href="#mce64cd9c94" x="139.955459" y="303.64" style="stroke: #000000; stroke-width: 0.8"/>
      </g>
     </g>
     <g id="text_2">
      <!-- 20 -->
      <g transform="translate(133.592959 318.238437) scale(0.1 -0.1)">
       <defs>
        <path id="DejaVuSans-32" d="M 1228 531 
L 3431 531 
L 3431 0 
L 469 0 
L 469 531 
Q 828 903 1448 1529 
Q 2069 2156 2228 2338 
Q 2531 2678 2651 2914 
Q 2772 3150 2772 3378 
Q 2772 3750 2511 3984 
Q 2250 4219 1831 4219 
Q 1534 4219 1204 4116 
Q 875 4013 500 3803 
L 500 4441 
Q 881 4594 1212 4672 
Q 1544 4750 1819 4750 
Q 2544 4750 2975 4387 
Q 3406 4025 3406 3419 
Q 3406 3131 3298 2873 
Q 3191 2616 2906 2266 
Q 2828 2175 2409 1742 
Q 1991 1309 1228 531 
z
" transform="scale(0.015625)"/>
       </defs>
       <use xlink:href="#DejaVuSans-32"/>
       <use xlink:href="#DejaVuSans-30" x="63.623047"/>
      </g>
     </g>
    </g>
    <g id="xtick_3">
     <g id="line2d_3">
      <g>
       <use xlink:href="#mce64cd9c94" x="213.819555" y="303.64" style="stroke: #000000; stroke-width: 0.8"/>
      </g>
     </g>
     <g id="text_3">
      <!-- 40 -->
      <g transform="translate(207.457055 318.238437) scale(0.1 -0.1)">
       <defs>
        <path id="DejaVuSans-34" d="M 2419 4116 
L 825 1625 
L 2419 1625 
L 2419 4116 
z
M 2253 4666 
L 3047 4666 
L 3047 1625 
L 3713 1625 
L 3713 1100 
L 3047 1100 
L 3047 0 
L 2419 0 
L 2419 1100 
L 313 1100 
L 313 1709 
L 2253 4666 
z
" transform="scale(0.015625)"/>
       </defs>
       <use xlink:href="#DejaVuSans-34"/>
       <use xlink:href="#DejaVuSans-30" x="63.623047"/>
      </g>
     </g>
    </g>
    <g id="xtick_4">
     <g id="line2d_4">
      <g>
       <use xlink:href="#mce64cd9c94" x="287.68365" y="303.64" style="stroke: #000000; stroke-width: 0.8"/>
      </g>
     </g>
     <g id="text_4">
      <!-- 60 -->
      <g transform="translate(281.32115 318.238437) scale(0.1 -0.1)">
       <defs>
        <path id="DejaVuSans-36" d="M 2113 2584 
Q 1688 2584 1439 2293 
Q 1191 2003 1191 1497 
Q 1191 994 1439 701 
Q 1688 409 2113 409 
Q 2538 409 2786 701 
Q 3034 994 3034 1497 
Q 3034 2003 2786 2293 
Q 2538 2584 2113 2584 
z
M 3366 4563 
L 3366 3988 
Q 3128 4100 2886 4159 
Q 2644 4219 2406 4219 
Q 1781 4219 1451 3797 
Q 1122 3375 1075 2522 
Q 1259 2794 1537 2939 
Q 1816 3084 2150 3084 
Q 2853 3084 3261 2657 
Q 3669 2231 3669 1497 
Q 3669 778 3244 343 
Q 2819 -91 2113 -91 
Q 1303 -91 875 529 
Q 447 1150 447 2328 
Q 447 3434 972 4092 
Q 1497 4750 2381 4750 
Q 2619 4750 2861 4703 
Q 3103 4656 3366 4563 
z
" transform="scale(0.015625)"/>
       </defs>
       <use xlink:href="#DejaVuSans-36"/>
       <use xlink:href="#DejaVuSans-30" x="63.623047"/>
      </g>
     </g>
    </g>
    <g id="xtick_5">
     <g id="line2d_5">
      <g>
       <use xlink:href="#mce64cd9c94" x="361.547746" y="303.64" style="stroke: #000000; stroke-width: 0.8"/>
      </g>
     </g>
     <g id="text_5">
      <!-- 80 -->
      <g transform="translate(355.185246 318.238437) scale(0.1 -0.1)">
       <defs>
        <path id="DejaVuSans-38" d="M 2034 2216 
Q 1584 2216 1326 1975 
Q 1069 1734 1069 1313 
Q 1069 891 1326 650 
Q 1584 409 2034 409 
Q 2484 409 2743 651 
Q 3003 894 3003 1313 
Q 3003 1734 2745 1975 
Q 2488 2216 2034 2216 
z
M 1403 2484 
Q 997 2584 770 2862 
Q 544 3141 544 3541 
Q 544 4100 942 4425 
Q 1341 4750 2034 4750 
Q 2731 4750 3128 4425 
Q 3525 4100 3525 3541 
Q 3525 3141 3298 2862 
Q 3072 2584 2669 2484 
Q 3125 2378 3379 2068 
Q 3634 1759 3634 1313 
Q 3634 634 3220 271 
Q 2806 -91 2034 -91 
Q 1263 -91 848 271 
Q 434 634 434 1313 
Q 434 1759 690 2068 
Q 947 2378 1403 2484 
z
M 1172 3481 
Q 1172 3119 1398 2916 
Q 1625 2713 2034 2713 
Q 2441 2713 2670 2916 
Q 2900 3119 2900 3481 
Q 2900 3844 2670 4047 
Q 2441 4250 2034 4250 
Q 1625 4250 1398 4047 
Q 1172 3844 1172 3481 
z
" transform="scale(0.015625)"/>
       </defs>
       <use xlink:href="#DejaVuSans-38"/>
       <use xlink:href="#DejaVuSans-30" x="63.623047"/>
      </g>
     </g>
    </g>
    <g id="xtick_6">
     <g id="line2d_6">
      <g>
       <use xlink:href="#mce64cd9c94" x="435.411841" y="303.64" style="stroke: #000000; stroke-width: 0.8"/>
      </g>
     </g>
     <g id="text_6">
      <!-- 100 -->
      <g transform="translate(425.868091 318.238437) scale(0.1 -0.1)">
       <defs>
        <path id="DejaVuSans-31" d="M 794 531 
L 1825 531 
L 1825 4091 
L 703 3866 
L 703 4441 
L 1819 4666 
L 2450 4666 
L 2450 531 
L 3481 531 
L 3481 0 
L 794 0 
L 794 531 
z
" transform="scale(0.015625)"/>
       </defs>
       <use xlink:href="#DejaVuSans-31"/>
       <use xlink:href="#DejaVuSans-30" x="63.623047"/>
       <use xlink:href="#DejaVuSans-30" x="127.246094"/>
      </g>
     </g>
    </g>
    <g id="text_7">
     <!-- Iteration -->
     <g transform="translate(227.696406 331.916562) scale(0.1 -0.1)">
      <defs>
       <path id="DejaVuSans-49" d="M 628 4666 
L 1259 4666 
L 1259 0 
L 628 0 
L 628 4666 
z
" transform="scale(0.015625)"/>
       <path id="DejaVuSans-74" d="M 1172 4494 
L 1172 3500 
L 2356 3500 
L 2356 3053 
L 1172 3053 
L 1172 1153 
Q 1172 725 1289 603 
Q 1406 481 1766 481 
L 2356 481 
L 2356 0 
L 1766 0 
Q 1100 0 847 248 
Q 594 497 594 1153 
L 594 3053 
L 172 3053 
L 172 3500 
L 594 3500 
L 594 4494 
L 1172 4494 
z
" transform="scale(0.015625)"/>
       <path id="DejaVuSans-65" d="M 3597 1894 
L 3597 1613 
L 953 1613 
Q 991 1019 1311 708 
Q 1631 397 2203 397 
Q 2534 397 2845 478 
Q 3156 559 3463 722 
L 3463 178 
Q 3153 47 2828 -22 
Q 2503 -91 2169 -91 
Q 1331 -91 842 396 
Q 353 884 353 1716 
Q 353 2575 817 3079 
Q 1281 3584 2069 3584 
Q 2775 3584 3186 3129 
Q 3597 2675 3597 1894 
z
M 3022 2063 
Q 3016 2534 2758 2815 
Q 2500 3097 2075 3097 
Q 1594 3097 1305 2825 
Q 1016 2553 972 2059 
L 3022 2063 
z
" transform="scale(0.015625)"/>
       <path id="DejaVuSans-72" d="M 2631 2963 
Q 2534 3019 2420 3045 
Q 2306 3072 2169 3072 
Q 1681 3072 1420 2755 
Q 1159 2438 1159 1844 
L 1159 0 
L 581 0 
L 581 3500 
L 1159 3500 
L 1159 2956 
Q 1341 3275 1631 3429 
Q 1922 3584 2338 3584 
Q 2397 3584 2469 3576 
Q 2541 3569 2628 3553 
L 2631 2963 
z
" transform="scale(0.015625)"/>
       <path id="DejaVuSans-61" d="M 2194 1759 
Q 1497 1759 1228 1600 
Q 959 1441 959 1056 
Q 959 750 1161 570 
Q 1363 391 1709 391 
Q 2188 391 2477 730 
Q 2766 1069 2766 1631 
L 2766 1759 
L 2194 1759 
z
M 3341 1997 
L 3341 0 
L 2766 0 
L 2766 531 
Q 2569 213 2275 61 
Q 1981 -91 1556 -91 
Q 1019 -91 701 211 
Q 384 513 384 1019 
Q 384 1609 779 1909 
Q 1175 2209 1959 2209 
L 2766 2209 
L 2766 2266 
Q 2766 2663 2505 2880 
Q 2244 3097 1772 3097 
Q 1472 3097 1187 3025 
Q 903 2953 641 2809 
L 641 3341 
Q 956 3463 1253 3523 
Q 1550 3584 1831 3584 
Q 2591 3584 2966 3190 
Q 3341 2797 3341 1997 
z
" transform="scale(0.015625)"/>
       <path id="DejaVuSans-69" d="M 603 3500 
L 1178 3500 
L 1178 0 
L 603 0 
L 603 3500 
z
M 603 4863 
L 1178 4863 
L 1178 4134 
L 603 4134 
L 603 4863 
z
" transform="scale(0.015625)"/>
       <path id="DejaVuSans-6f" d="M 1959 3097 
Q 1497 3097 1228 2736 
Q 959 2375 959 1747 
Q 959 1119 1226 758 
Q 1494 397 1959 397 
Q 2419 397 2687 759 
Q 2956 1122 2956 1747 
Q 2956 2369 2687 2733 
Q 2419 3097 1959 3097 
z
M 1959 3584 
Q 2709 3584 3137 3096 
Q 3566 2609 3566 1747 
Q 3566 888 3137 398 
Q 2709 -91 1959 -91 
Q 1206 -91 779 398 
Q 353 888 353 1747 
Q 353 2609 779 3096 
Q 1206 3584 1959 3584 
z
" transform="scale(0.015625)"/>
       <path id="DejaVuSans-6e" d="M 3513 2113 
L 3513 0 
L 2938 0 
L 2938 2094 
Q 2938 2591 2744 2837 
Q 2550 3084 2163 3084 
Q 1697 3084 1428 2787 
Q 1159 2491 1159 1978 
L 1159 0 
L 581 0 
L 581 3500 
L 1159 3500 
L 1159 2956 
Q 1366 3272 1645 3428 
Q 1925 3584 2291 3584 
Q 2894 3584 3203 3211 
Q 3513 2838 3513 2113 
z
" transform="scale(0.015625)"/>
      </defs>
      <use xlink:href="#DejaVuSans-49"/>
      <use xlink:href="#DejaVuSans-74" x="29.492188"/>
      <use xlink:href="#DejaVuSans-65" x="68.701172"/>
      <use xlink:href="#DejaVuSans-72" x="130.224609"/>
      <use xlink:href="#DejaVuSans-61" x="171.337891"/>
      <use xlink:href="#DejaVuSans-74" x="232.617188"/>
      <use xlink:href="#DejaVuSans-69" x="271.826172"/>
      <use xlink:href="#DejaVuSans-6f" x="299.609375"/>
      <use xlink:href="#DejaVuSans-6e" x="360.791016"/>
     </g>
    </g>
   </g>
   <g id="matplotlib.axis_2">
    <g id="ytick_1">
     <g id="line2d_7">
      <defs>
       <path id="m4bb45c861d" d="M 0 0 
L -3.5 0 
" style="stroke: #000000; stroke-width: 0.8"/>
      </defs>
      <g>
       <use xlink:href="#m4bb45c861d" x="47.81" y="272.427534" style="stroke: #000000; stroke-width: 0.8"/>
      </g>
     </g>
     <g id="text_8">
      <!-- 0.0 -->
      <g transform="translate(24.906875 276.226753) scale(0.1 -0.1)">
       <defs>
        <path id="DejaVuSans-2e" d="M 684 794 
L 1344 794 
L 1344 0 
L 684 0 
L 684 794 
z
" transform="scale(0.015625)"/>
       </defs>
       <use xlink:href="#DejaVuSans-30"/>
       <use xlink:href="#DejaVuSans-2e" x="63.623047"/>
       <use xlink:href="#DejaVuSans-30" x="95.410156"/>
      </g>
     </g>
    </g>
    <g id="ytick_2">
     <g id="line2d_8">
      <g>
       <use xlink:href="#m4bb45c861d" x="47.81" y="226.887014" style="stroke: #000000; stroke-width: 0.8"/>
      </g>
     </g>
     <g id="text_9">
      <!-- 0.2 -->
      <g transform="translate(24.906875 230.686233) scale(0.1 -0.1)">
       <use xlink:href="#DejaVuSans-30"/>
       <use xlink:href="#DejaVuSans-2e" x="63.623047"/>
       <use xlink:href="#DejaVuSans-32" x="95.410156"/>
      </g>
     </g>
    </g>
    <g id="ytick_3">
     <g id="line2d_9">
      <g>
       <use xlink:href="#m4bb45c861d" x="47.81" y="181.346494" style="stroke: #000000; stroke-width: 0.8"/>
      </g>
     </g>
     <g id="text_10">
      <!-- 0.4 -->
      <g transform="translate(24.906875 185.145712) scale(0.1 -0.1)">
       <use xlink:href="#DejaVuSans-30"/>
       <use xlink:href="#DejaVuSans-2e" x="63.623047"/>
       <use xlink:href="#DejaVuSans-34" x="95.410156"/>
      </g>
     </g>
    </g>
    <g id="ytick_4">
     <g id="line2d_10">
      <g>
       <use xlink:href="#m4bb45c861d" x="47.81" y="135.805973" style="stroke: #000000; stroke-width: 0.8"/>
      </g>
     </g>
     <g id="text_11">
      <!-- 0.6 -->
      <g transform="translate(24.906875 139.605192) scale(0.1 -0.1)">
       <use xlink:href="#DejaVuSans-30"/>
       <use xlink:href="#DejaVuSans-2e" x="63.623047"/>
       <use xlink:href="#DejaVuSans-36" x="95.410156"/>
      </g>
     </g>
    </g>
    <g id="ytick_5">
     <g id="line2d_11">
      <g>
       <use xlink:href="#m4bb45c861d" x="47.81" y="90.265453" style="stroke: #000000; stroke-width: 0.8"/>
      </g>
     </g>
     <g id="text_12">
      <!-- 0.8 -->
      <g transform="translate(24.906875 94.064672) scale(0.1 -0.1)">
       <use xlink:href="#DejaVuSans-30"/>
       <use xlink:href="#DejaVuSans-2e" x="63.623047"/>
       <use xlink:href="#DejaVuSans-38" x="95.410156"/>
      </g>
     </g>
    </g>
    <g id="ytick_6">
     <g id="line2d_12">
      <g>
       <use xlink:href="#m4bb45c861d" x="47.81" y="44.724933" style="stroke: #000000; stroke-width: 0.8"/>
      </g>
     </g>
     <g id="text_13">
      <!-- 1.0 -->
      <g transform="translate(24.906875 48.524152) scale(0.1 -0.1)">
       <use xlink:href="#DejaVuSans-31"/>
       <use xlink:href="#DejaVuSans-2e" x="63.623047"/>
       <use xlink:href="#DejaVuSans-30" x="95.410156"/>
      </g>
     </g>
    </g>
    <g id="text_14">
     <!-- Avg action -->
     <g transform="translate(18.827187 190.779844) rotate(-90) scale(0.1 -0.1)">
      <defs>
       <path id="DejaVuSans-41" d="M 2188 4044 
L 1331 1722 
L 3047 1722 
L 2188 4044 
z
M 1831 4666 
L 2547 4666 
L 4325 0 
L 3669 0 
L 3244 1197 
L 1141 1197 
L 716 0 
L 50 0 
L 1831 4666 
z
" transform="scale(0.015625)"/>
       <path id="DejaVuSans-76" d="M 191 3500 
L 800 3500 
L 1894 563 
L 2988 3500 
L 3597 3500 
L 2284 0 
L 1503 0 
L 191 3500 
z
" transform="scale(0.015625)"/>
       <path id="DejaVuSans-67" d="M 2906 1791 
Q 2906 2416 2648 2759 
Q 2391 3103 1925 3103 
Q 1463 3103 1205 2759 
Q 947 2416 947 1791 
Q 947 1169 1205 825 
Q 1463 481 1925 481 
Q 2391 481 2648 825 
Q 2906 1169 2906 1791 
z
M 3481 434 
Q 3481 -459 3084 -895 
Q 2688 -1331 1869 -1331 
Q 1566 -1331 1297 -1286 
Q 1028 -1241 775 -1147 
L 775 -588 
Q 1028 -725 1275 -790 
Q 1522 -856 1778 -856 
Q 2344 -856 2625 -561 
Q 2906 -266 2906 331 
L 2906 616 
Q 2728 306 2450 153 
Q 2172 0 1784 0 
Q 1141 0 747 490 
Q 353 981 353 1791 
Q 353 2603 747 3093 
Q 1141 3584 1784 3584 
Q 2172 3584 2450 3431 
Q 2728 3278 2906 2969 
L 2906 3500 
L 3481 3500 
L 3481 434 
z
" transform="scale(0.015625)"/>
       <path id="DejaVuSans-20" transform="scale(0.015625)"/>
       <path id="DejaVuSans-63" d="M 3122 3366 
L 3122 2828 
Q 2878 2963 2633 3030 
Q 2388 3097 2138 3097 
Q 1578 3097 1268 2742 
Q 959 2388 959 1747 
Q 959 1106 1268 751 
Q 1578 397 2138 397 
Q 2388 397 2633 464 
Q 2878 531 3122 666 
L 3122 134 
Q 2881 22 2623 -34 
Q 2366 -91 2075 -91 
Q 1284 -91 818 406 
Q 353 903 353 1747 
Q 353 2603 823 3093 
Q 1294 3584 2113 3584 
Q 2378 3584 2631 3529 
Q 2884 3475 3122 3366 
z
" transform="scale(0.015625)"/>
      </defs>
      <use xlink:href="#DejaVuSans-41"/>
      <use xlink:href="#DejaVuSans-76" x="62.533203"/>
      <use xlink:href="#DejaVuSans-67" x="121.712891"/>
      <use xlink:href="#DejaVuSans-20" x="185.189453"/>
      <use xlink:href="#DejaVuSans-61" x="216.976562"/>
      <use xlink:href="#DejaVuSans-63" x="278.255859"/>
      <use xlink:href="#DejaVuSans-74" x="333.236328"/>
      <use xlink:href="#DejaVuSans-69" x="372.445312"/>
      <use xlink:href="#DejaVuSans-6f" x="400.228516"/>
      <use xlink:href="#DejaVuSans-6e" x="461.410156"/>
     </g>
    </g>
   </g>
   <g id="line2d_13">
    <path d="M 66.091364 90.265453 
L 69.784568 149.468129 
L 73.477773 226.887014 
L 77.170978 235.995118 
L 80.864183 258.765378 
L 84.557388 254.211326 
L 88.250592 258.765378 
L 91.943797 272.427534 
L 95.637002 267.873482 
L 99.330207 267.873482 
L 103.023411 258.765378 
L 106.716616 267.873482 
L 110.409821 258.765378 
L 114.103026 258.765378 
L 117.79623 267.873482 
L 121.489435 258.765378 
L 125.18264 254.211326 
L 128.875845 254.211326 
L 132.56905 245.103222 
L 136.262254 240.54917 
L 139.955459 258.765378 
L 143.648664 240.54917 
L 147.341869 245.103222 
L 151.035073 217.77891 
L 154.728278 231.441066 
L 158.421483 249.657274 
L 162.114688 222.332962 
L 165.807893 231.441066 
L 169.501097 213.224858 
L 173.194302 213.224858 
L 176.887507 235.995118 
L 180.580712 217.77891 
L 184.273916 195.00865 
L 187.967121 208.670806 
L 191.660326 190.454598 
L 195.353531 176.792442 
L 199.046736 167.684338 
L 202.73994 181.346494 
L 206.433145 172.23839 
L 210.12635 135.805973 
L 213.819555 144.914077 
L 217.512759 140.360025 
L 221.205964 126.697869 
L 224.899169 99.373557 
L 228.592374 90.265453 
L 232.285579 85.711401 
L 235.978783 90.265453 
L 239.671988 90.265453 
L 243.365193 81.157349 
L 247.058398 76.603297 
L 250.751602 72.049245 
L 254.444807 62.941141 
L 258.138012 67.495193 
L 261.831217 62.941141 
L 265.524421 53.833037 
L 269.217626 58.387089 
L 272.910831 49.278985 
L 276.604036 62.941141 
L 280.297241 53.833037 
L 283.990445 53.833037 
L 287.68365 44.724933 
L 291.376855 58.387089 
L 295.07006 58.387089 
L 298.763264 49.278985 
L 302.456469 49.278985 
L 306.149674 44.724933 
L 309.842879 49.278985 
L 313.536084 53.833037 
L 317.229288 44.724933 
L 320.922493 44.724933 
L 324.615698 44.724933 
L 328.308903 44.724933 
L 332.002107 44.724933 
L 335.695312 58.387089 
L 339.388517 49.278985 
L 343.081722 44.724933 
L 346.774927 49.278985 
L 350.468131 44.724933 
L 354.161336 44.724933 
L 357.854541 44.724933 
L 361.547746 44.724933 
L 365.24095 53.833037 
L 368.934155 44.724933 
L 372.62736 44.724933 
L 376.320565 49.278985 
L 380.01377 44.724933 
L 383.706974 49.278985 
L 387.400179 49.278985 
L 391.093384 49.278985 
L 394.786589 44.724933 
L 398.479793 49.278985 
L 402.172998 44.724933 
L 405.866203 49.278985 
L 409.559408 49.278985 
L 413.252612 49.278985 
L 416.945817 49.278985 
L 420.639022 58.387089 
L 424.332227 49.278985 
L 428.025432 44.724933 
L 431.718636 49.278985 
" clip-path="url(#pa3a0aa9979)" style="fill: none; stroke: #0000ff; stroke-linecap: square"/>
    <defs>
     <path id="m911bbdbf8e" d="M -0.49999 0.49999 
L 0.50001 0.49999 
L 0.50001 -0.50001 
L -0.49999 -0.50001 
z
"/>
    </defs>
    <g clip-path="url(#pa3a0aa9979)">
     <use xlink:href="#m911bbdbf8e" x="66.091364" y="90.265453" style="fill: #0000ff"/>
     <use xlink:href="#m911bbdbf8e" x="69.784568" y="149.468129" style="fill: #0000ff"/>
     <use xlink:href="#m911bbdbf8e" x="73.477773" y="226.887014" style="fill: #0000ff"/>
     <use xlink:href="#m911bbdbf8e" x="77.170978" y="235.995118" style="fill: #0000ff"/>
     <use xlink:href="#m911bbdbf8e" x="80.864183" y="258.765378" style="fill: #0000ff"/>
     <use xlink:href="#m911bbdbf8e" x="84.557388" y="254.211326" style="fill: #0000ff"/>
     <use xlink:href="#m911bbdbf8e" x="88.250592" y="258.765378" style="fill: #0000ff"/>
     <use xlink:href="#m911bbdbf8e" x="91.943797" y="272.427534" style="fill: #0000ff"/>
     <use xlink:href="#m911bbdbf8e" x="95.637002" y="267.873482" style="fill: #0000ff"/>
     <use xlink:href="#m911bbdbf8e" x="99.330207" y="267.873482" style="fill: #0000ff"/>
     <use xlink:href="#m911bbdbf8e" x="103.023411" y="258.765378" style="fill: #0000ff"/>
     <use xlink:href="#m911bbdbf8e" x="106.716616" y="267.873482" style="fill: #0000ff"/>
     <use xlink:href="#m911bbdbf8e" x="110.409821" y="258.765378" style="fill: #0000ff"/>
     <use xlink:href="#m911bbdbf8e" x="114.103026" y="258.765378" style="fill: #0000ff"/>
     <use xlink:href="#m911bbdbf8e" x="117.79623" y="267.873482" style="fill: #0000ff"/>
     <use xlink:href="#m911bbdbf8e" x="121.489435" y="258.765378" style="fill: #0000ff"/>
     <use xlink:href="#m911bbdbf8e" x="125.18264" y="254.211326" style="fill: #0000ff"/>
     <use xlink:href="#m911bbdbf8e" x="128.875845" y="254.211326" style="fill: #0000ff"/>
     <use xlink:href="#m911bbdbf8e" x="132.56905" y="245.103222" style="fill: #0000ff"/>
     <use xlink:href="#m911bbdbf8e" x="136.262254" y="240.54917" style="fill: #0000ff"/>
     <use xlink:href="#m911bbdbf8e" x="139.955459" y="258.765378" style="fill: #0000ff"/>
     <use xlink:href="#m911bbdbf8e" x="143.648664" y="240.54917" style="fill: #0000ff"/>
     <use xlink:href="#m911bbdbf8e" x="147.341869" y="245.103222" style="fill: #0000ff"/>
     <use xlink:href="#m911bbdbf8e" x="151.035073" y="217.77891" style="fill: #0000ff"/>
     <use xlink:href="#m911bbdbf8e" x="154.728278" y="231.441066" style="fill: #0000ff"/>
     <use xlink:href="#m911bbdbf8e" x="158.421483" y="249.657274" style="fill: #0000ff"/>
     <use xlink:href="#m911bbdbf8e" x="162.114688" y="222.332962" style="fill: #0000ff"/>
     <use xlink:href="#m911bbdbf8e" x="165.807893" y="231.441066" style="fill: #0000ff"/>
     <use xlink:href="#m911bbdbf8e" x="169.501097" y="213.224858" style="fill: #0000ff"/>
     <use xlink:href="#m911bbdbf8e" x="173.194302" y="213.224858" style="fill: #0000ff"/>
     <use xlink:href="#m911bbdbf8e" x="176.887507" y="235.995118" style="fill: #0000ff"/>
     <use xlink:href="#m911bbdbf8e" x="180.580712" y="217.77891" style="fill: #0000ff"/>
     <use xlink:href="#m911bbdbf8e" x="184.273916" y="195.00865" style="fill: #0000ff"/>
     <use xlink:href="#m911bbdbf8e" x="187.967121" y="208.670806" style="fill: #0000ff"/>
     <use xlink:href="#m911bbdbf8e" x="191.660326" y="190.454598" style="fill: #0000ff"/>
     <use xlink:href="#m911bbdbf8e" x="195.353531" y="176.792442" style="fill: #0000ff"/>
     <use xlink:href="#m911bbdbf8e" x="199.046736" y="167.684338" style="fill: #0000ff"/>
     <use xlink:href="#m911bbdbf8e" x="202.73994" y="181.346494" style="fill: #0000ff"/>
     <use xlink:href="#m911bbdbf8e" x="206.433145" y="172.23839" style="fill: #0000ff"/>
     <use xlink:href="#m911bbdbf8e" x="210.12635" y="135.805973" style="fill: #0000ff"/>
     <use xlink:href="#m911bbdbf8e" x="213.819555" y="144.914077" style="fill: #0000ff"/>
     <use xlink:href="#m911bbdbf8e" x="217.512759" y="140.360025" style="fill: #0000ff"/>
     <use xlink:href="#m911bbdbf8e" x="221.205964" y="126.697869" style="fill: #0000ff"/>
     <use xlink:href="#m911bbdbf8e" x="224.899169" y="99.373557" style="fill: #0000ff"/>
     <use xlink:href="#m911bbdbf8e" x="228.592374" y="90.265453" style="fill: #0000ff"/>
     <use xlink:href="#m911bbdbf8e" x="232.285579" y="85.711401" style="fill: #0000ff"/>
     <use xlink:href="#m911bbdbf8e" x="235.978783" y="90.265453" style="fill: #0000ff"/>
     <use xlink:href="#m911bbdbf8e" x="239.671988" y="90.265453" style="fill: #0000ff"/>
     <use xlink:href="#m911bbdbf8e" x="243.365193" y="81.157349" style="fill: #0000ff"/>
     <use xlink:href="#m911bbdbf8e" x="247.058398" y="76.603297" style="fill: #0000ff"/>
     <use xlink:href="#m911bbdbf8e" x="250.751602" y="72.049245" style="fill: #0000ff"/>
     <use xlink:href="#m911bbdbf8e" x="254.444807" y="62.941141" style="fill: #0000ff"/>
     <use xlink:href="#m911bbdbf8e" x="258.138012" y="67.495193" style="fill: #0000ff"/>
     <use xlink:href="#m911bbdbf8e" x="261.831217" y="62.941141" style="fill: #0000ff"/>
     <use xlink:href="#m911bbdbf8e" x="265.524421" y="53.833037" style="fill: #0000ff"/>
     <use xlink:href="#m911bbdbf8e" x="269.217626" y="58.387089" style="fill: #0000ff"/>
     <use xlink:href="#m911bbdbf8e" x="272.910831" y="49.278985" style="fill: #0000ff"/>
     <use xlink:href="#m911bbdbf8e" x="276.604036" y="62.941141" style="fill: #0000ff"/>
     <use xlink:href="#m911bbdbf8e" x="280.297241" y="53.833037" style="fill: #0000ff"/>
     <use xlink:href="#m911bbdbf8e" x="283.990445" y="53.833037" style="fill: #0000ff"/>
     <use xlink:href="#m911bbdbf8e" x="287.68365" y="44.724933" style="fill: #0000ff"/>
     <use xlink:href="#m911bbdbf8e" x="291.376855" y="58.387089" style="fill: #0000ff"/>
     <use xlink:href="#m911bbdbf8e" x="295.07006" y="58.387089" style="fill: #0000ff"/>
     <use xlink:href="#m911bbdbf8e" x="298.763264" y="49.278985" style="fill: #0000ff"/>
     <use xlink:href="#m911bbdbf8e" x="302.456469" y="49.278985" style="fill: #0000ff"/>
     <use xlink:href="#m911bbdbf8e" x="306.149674" y="44.724933" style="fill: #0000ff"/>
     <use xlink:href="#m911bbdbf8e" x="309.842879" y="49.278985" style="fill: #0000ff"/>
     <use xlink:href="#m911bbdbf8e" x="313.536084" y="53.833037" style="fill: #0000ff"/>
     <use xlink:href="#m911bbdbf8e" x="317.229288" y="44.724933" style="fill: #0000ff"/>
     <use xlink:href="#m911bbdbf8e" x="320.922493" y="44.724933" style="fill: #0000ff"/>
     <use xlink:href="#m911bbdbf8e" x="324.615698" y="44.724933" style="fill: #0000ff"/>
     <use xlink:href="#m911bbdbf8e" x="328.308903" y="44.724933" style="fill: #0000ff"/>
     <use xlink:href="#m911bbdbf8e" x="332.002107" y="44.724933" style="fill: #0000ff"/>
     <use xlink:href="#m911bbdbf8e" x="335.695312" y="58.387089" style="fill: #0000ff"/>
     <use xlink:href="#m911bbdbf8e" x="339.388517" y="49.278985" style="fill: #0000ff"/>
     <use xlink:href="#m911bbdbf8e" x="343.081722" y="44.724933" style="fill: #0000ff"/>
     <use xlink:href="#m911bbdbf8e" x="346.774927" y="49.278985" style="fill: #0000ff"/>
     <use xlink:href="#m911bbdbf8e" x="350.468131" y="44.724933" style="fill: #0000ff"/>
     <use xlink:href="#m911bbdbf8e" x="354.161336" y="44.724933" style="fill: #0000ff"/>
     <use xlink:href="#m911bbdbf8e" x="357.854541" y="44.724933" style="fill: #0000ff"/>
     <use xlink:href="#m911bbdbf8e" x="361.547746" y="44.724933" style="fill: #0000ff"/>
     <use xlink:href="#m911bbdbf8e" x="365.24095" y="53.833037" style="fill: #0000ff"/>
     <use xlink:href="#m911bbdbf8e" x="368.934155" y="44.724933" style="fill: #0000ff"/>
     <use xlink:href="#m911bbdbf8e" x="372.62736" y="44.724933" style="fill: #0000ff"/>
     <use xlink:href="#m911bbdbf8e" x="376.320565" y="49.278985" style="fill: #0000ff"/>
     <use xlink:href="#m911bbdbf8e" x="380.01377" y="44.724933" style="fill: #0000ff"/>
     <use xlink:href="#m911bbdbf8e" x="383.706974" y="49.278985" style="fill: #0000ff"/>
     <use xlink:href="#m911bbdbf8e" x="387.400179" y="49.278985" style="fill: #0000ff"/>
     <use xlink:href="#m911bbdbf8e" x="391.093384" y="49.278985" style="fill: #0000ff"/>
     <use xlink:href="#m911bbdbf8e" x="394.786589" y="44.724933" style="fill: #0000ff"/>
     <use xlink:href="#m911bbdbf8e" x="398.479793" y="49.278985" style="fill: #0000ff"/>
     <use xlink:href="#m911bbdbf8e" x="402.172998" y="44.724933" style="fill: #0000ff"/>
     <use xlink:href="#m911bbdbf8e" x="405.866203" y="49.278985" style="fill: #0000ff"/>
     <use xlink:href="#m911bbdbf8e" x="409.559408" y="49.278985" style="fill: #0000ff"/>
     <use xlink:href="#m911bbdbf8e" x="413.252612" y="49.278985" style="fill: #0000ff"/>
     <use xlink:href="#m911bbdbf8e" x="416.945817" y="49.278985" style="fill: #0000ff"/>
     <use xlink:href="#m911bbdbf8e" x="420.639022" y="58.387089" style="fill: #0000ff"/>
     <use xlink:href="#m911bbdbf8e" x="424.332227" y="49.278985" style="fill: #0000ff"/>
     <use xlink:href="#m911bbdbf8e" x="428.025432" y="44.724933" style="fill: #0000ff"/>
     <use xlink:href="#m911bbdbf8e" x="431.718636" y="49.278985" style="fill: #0000ff"/>
    </g>
   </g>
   <g id="line2d_14">
    <path d="M 66.091364 90.265453 
L 69.784568 119.866791 
L 73.477773 155.540199 
L 77.170978 175.653929 
L 80.864183 192.276219 
L 84.557388 202.598736 
L 88.250592 210.622542 
L 91.943797 218.348166 
L 95.637002 223.850979 
L 99.330207 228.253229 
L 103.023411 231.027061 
L 106.716616 234.097596 
L 110.409821 235.995118 
L 114.103026 237.621565 
L 117.79623 239.63836 
L 121.489435 240.833798 
L 125.18264 241.620712 
L 128.875845 242.32019 
L 132.56905 242.466666 
L 136.262254 242.370791 
L 139.955459 243.151485 
L 143.648664 243.033198 
L 147.341869 243.123199 
L 151.035073 242.067187 
L 154.728278 241.642142 
L 158.421483 241.950417 
L 162.114688 241.223844 
L 165.807893 240.874459 
L 169.501097 239.921025 
L 173.194302 239.031153 
L 176.887507 238.933216 
L 180.580712 238.272144 
L 184.273916 236.961129 
L 187.967121 236.129061 
L 191.660326 234.824076 
L 195.353531 233.212086 
L 199.046736 231.441066 
L 202.73994 230.122788 
L 206.433145 228.638572 
L 210.12635 226.317757 
L 213.819555 224.332302 
L 217.512759 222.332962 
L 221.205964 220.10889 
L 224.899169 217.364905 
L 228.592374 214.540473 
L 232.285579 211.739841 
L 235.978783 209.155279 
L 239.671988 206.678408 
L 243.365193 204.116754 
L 247.058398 201.566485 
L 250.751602 199.026931 
L 254.444807 196.409896 
L 258.138012 193.977544 
L 261.831217 191.550944 
L 265.524421 189.046982 
L 269.217626 186.713769 
L 272.910831 184.302633 
L 276.604036 182.210193 
L 280.297241 180.034309 
L 283.990445 177.930955 
L 287.68365 175.747249 
L 291.376855 173.854344 
L 295.07006 172.02153 
L 298.763264 170.103678 
L 302.456469 168.244836 
L 306.149674 166.373323 
L 309.842879 164.625646 
L 313.536084 162.996343 
L 317.229288 161.282264 
L 320.922493 159.61716 
L 324.615698 157.998959 
L 328.308903 156.425709 
L 332.002107 154.895561 
L 335.695312 153.591393 
L 339.388517 152.200561 
L 343.081722 150.786408 
L 346.774927 149.468129 
L 350.468131 148.125268 
L 354.161336 146.816403 
L 357.854541 145.54026 
L 361.547746 144.295626 
L 365.24095 143.192424 
L 368.934155 142.006068 
L 372.62736 140.84796 
L 376.320565 139.770678 
L 380.01377 138.665494 
L 383.706974 137.638063 
L 387.400179 136.633983 
L 391.093384 135.652466 
L 394.786589 134.64216 
L 398.479793 133.704103 
L 402.172998 132.736938 
L 405.866203 131.839541 
L 409.559408 130.961237 
L 413.252612 130.101424 
L 416.945817 129.259524 
L 420.639022 128.52888 
L 424.332227 127.720208 
L 428.025432 126.881871 
L 431.718636 126.105843 
" clip-path="url(#pa3a0aa9979)" style="fill: none; stroke: #0000ff; stroke-opacity: 0.5; stroke-width: 0.5; stroke-linecap: square"/>
    <defs>
     <path id="m04802ed9ab" d="M -0.49999 0.49999 
L 0.50001 0.49999 
L 0.50001 -0.50001 
L -0.49999 -0.50001 
z
"/>
    </defs>
    <g clip-path="url(#pa3a0aa9979)">
     <use xlink:href="#m04802ed9ab" x="66.091364" y="90.265453" style="fill: #0000ff; fill-opacity: 0.5"/>
     <use xlink:href="#m04802ed9ab" x="69.784568" y="119.866791" style="fill: #0000ff; fill-opacity: 0.5"/>
     <use xlink:href="#m04802ed9ab" x="73.477773" y="155.540199" style="fill: #0000ff; fill-opacity: 0.5"/>
     <use xlink:href="#m04802ed9ab" x="77.170978" y="175.653929" style="fill: #0000ff; fill-opacity: 0.5"/>
     <use xlink:href="#m04802ed9ab" x="80.864183" y="192.276219" style="fill: #0000ff; fill-opacity: 0.5"/>
     <use xlink:href="#m04802ed9ab" x="84.557388" y="202.598736" style="fill: #0000ff; fill-opacity: 0.5"/>
     <use xlink:href="#m04802ed9ab" x="88.250592" y="210.622542" style="fill: #0000ff; fill-opacity: 0.5"/>
     <use xlink:href="#m04802ed9ab" x="91.943797" y="218.348166" style="fill: #0000ff; fill-opacity: 0.5"/>
     <use xlink:href="#m04802ed9ab" x="95.637002" y="223.850979" style="fill: #0000ff; fill-opacity: 0.5"/>
     <use xlink:href="#m04802ed9ab" x="99.330207" y="228.253229" style="fill: #0000ff; fill-opacity: 0.5"/>
     <use xlink:href="#m04802ed9ab" x="103.023411" y="231.027061" style="fill: #0000ff; fill-opacity: 0.5"/>
     <use xlink:href="#m04802ed9ab" x="106.716616" y="234.097596" style="fill: #0000ff; fill-opacity: 0.5"/>
     <use xlink:href="#m04802ed9ab" x="110.409821" y="235.995118" style="fill: #0000ff; fill-opacity: 0.5"/>
     <use xlink:href="#m04802ed9ab" x="114.103026" y="237.621565" style="fill: #0000ff; fill-opacity: 0.5"/>
     <use xlink:href="#m04802ed9ab" x="117.79623" y="239.63836" style="fill: #0000ff; fill-opacity: 0.5"/>
     <use xlink:href="#m04802ed9ab" x="121.489435" y="240.833798" style="fill: #0000ff; fill-opacity: 0.5"/>
     <use xlink:href="#m04802ed9ab" x="125.18264" y="241.620712" style="fill: #0000ff; fill-opacity: 0.5"/>
     <use xlink:href="#m04802ed9ab" x="128.875845" y="242.32019" style="fill: #0000ff; fill-opacity: 0.5"/>
     <use xlink:href="#m04802ed9ab" x="132.56905" y="242.466666" style="fill: #0000ff; fill-opacity: 0.5"/>
     <use xlink:href="#m04802ed9ab" x="136.262254" y="242.370791" style="fill: #0000ff; fill-opacity: 0.5"/>
     <use xlink:href="#m04802ed9ab" x="139.955459" y="243.151485" style="fill: #0000ff; fill-opacity: 0.5"/>
     <use xlink:href="#m04802ed9ab" x="143.648664" y="243.033198" style="fill: #0000ff; fill-opacity: 0.5"/>
     <use xlink:href="#m04802ed9ab" x="147.341869" y="243.123199" style="fill: #0000ff; fill-opacity: 0.5"/>
     <use xlink:href="#m04802ed9ab" x="151.035073" y="242.067187" style="fill: #0000ff; fill-opacity: 0.5"/>
     <use xlink:href="#m04802ed9ab" x="154.728278" y="241.642142" style="fill: #0000ff; fill-opacity: 0.5"/>
     <use xlink:href="#m04802ed9ab" x="158.421483" y="241.950417" style="fill: #0000ff; fill-opacity: 0.5"/>
     <use xlink:href="#m04802ed9ab" x="162.114688" y="241.223844" style="fill: #0000ff; fill-opacity: 0.5"/>
     <use xlink:href="#m04802ed9ab" x="165.807893" y="240.874459" style="fill: #0000ff; fill-opacity: 0.5"/>
     <use xlink:href="#m04802ed9ab" x="169.501097" y="239.921025" style="fill: #0000ff; fill-opacity: 0.5"/>
     <use xlink:href="#m04802ed9ab" x="173.194302" y="239.031153" style="fill: #0000ff; fill-opacity: 0.5"/>
     <use xlink:href="#m04802ed9ab" x="176.887507" y="238.933216" style="fill: #0000ff; fill-opacity: 0.5"/>
     <use xlink:href="#m04802ed9ab" x="180.580712" y="238.272144" style="fill: #0000ff; fill-opacity: 0.5"/>
     <use xlink:href="#m04802ed9ab" x="184.273916" y="236.961129" style="fill: #0000ff; fill-opacity: 0.5"/>
     <use xlink:href="#m04802ed9ab" x="187.967121" y="236.129061" style="fill: #0000ff; fill-opacity: 0.5"/>
     <use xlink:href="#m04802ed9ab" x="191.660326" y="234.824076" style="fill: #0000ff; fill-opacity: 0.5"/>
     <use xlink:href="#m04802ed9ab" x="195.353531" y="233.212086" style="fill: #0000ff; fill-opacity: 0.5"/>
     <use xlink:href="#m04802ed9ab" x="199.046736" y="231.441066" style="fill: #0000ff; fill-opacity: 0.5"/>
     <use xlink:href="#m04802ed9ab" x="202.73994" y="230.122788" style="fill: #0000ff; fill-opacity: 0.5"/>
     <use xlink:href="#m04802ed9ab" x="206.433145" y="228.638572" style="fill: #0000ff; fill-opacity: 0.5"/>
     <use xlink:href="#m04802ed9ab" x="210.12635" y="226.317757" style="fill: #0000ff; fill-opacity: 0.5"/>
     <use xlink:href="#m04802ed9ab" x="213.819555" y="224.332302" style="fill: #0000ff; fill-opacity: 0.5"/>
     <use xlink:href="#m04802ed9ab" x="217.512759" y="222.332962" style="fill: #0000ff; fill-opacity: 0.5"/>
     <use xlink:href="#m04802ed9ab" x="221.205964" y="220.10889" style="fill: #0000ff; fill-opacity: 0.5"/>
     <use xlink:href="#m04802ed9ab" x="224.899169" y="217.364905" style="fill: #0000ff; fill-opacity: 0.5"/>
     <use xlink:href="#m04802ed9ab" x="228.592374" y="214.540473" style="fill: #0000ff; fill-opacity: 0.5"/>
     <use xlink:href="#m04802ed9ab" x="232.285579" y="211.739841" style="fill: #0000ff; fill-opacity: 0.5"/>
     <use xlink:href="#m04802ed9ab" x="235.978783" y="209.155279" style="fill: #0000ff; fill-opacity: 0.5"/>
     <use xlink:href="#m04802ed9ab" x="239.671988" y="206.678408" style="fill: #0000ff; fill-opacity: 0.5"/>
     <use xlink:href="#m04802ed9ab" x="243.365193" y="204.116754" style="fill: #0000ff; fill-opacity: 0.5"/>
     <use xlink:href="#m04802ed9ab" x="247.058398" y="201.566485" style="fill: #0000ff; fill-opacity: 0.5"/>
     <use xlink:href="#m04802ed9ab" x="250.751602" y="199.026931" style="fill: #0000ff; fill-opacity: 0.5"/>
     <use xlink:href="#m04802ed9ab" x="254.444807" y="196.409896" style="fill: #0000ff; fill-opacity: 0.5"/>
     <use xlink:href="#m04802ed9ab" x="258.138012" y="193.977544" style="fill: #0000ff; fill-opacity: 0.5"/>
     <use xlink:href="#m04802ed9ab" x="261.831217" y="191.550944" style="fill: #0000ff; fill-opacity: 0.5"/>
     <use xlink:href="#m04802ed9ab" x="265.524421" y="189.046982" style="fill: #0000ff; fill-opacity: 0.5"/>
     <use xlink:href="#m04802ed9ab" x="269.217626" y="186.713769" style="fill: #0000ff; fill-opacity: 0.5"/>
     <use xlink:href="#m04802ed9ab" x="272.910831" y="184.302633" style="fill: #0000ff; fill-opacity: 0.5"/>
     <use xlink:href="#m04802ed9ab" x="276.604036" y="182.210193" style="fill: #0000ff; fill-opacity: 0.5"/>
     <use xlink:href="#m04802ed9ab" x="280.297241" y="180.034309" style="fill: #0000ff; fill-opacity: 0.5"/>
     <use xlink:href="#m04802ed9ab" x="283.990445" y="177.930955" style="fill: #0000ff; fill-opacity: 0.5"/>
     <use xlink:href="#m04802ed9ab" x="287.68365" y="175.747249" style="fill: #0000ff; fill-opacity: 0.5"/>
     <use xlink:href="#m04802ed9ab" x="291.376855" y="173.854344" style="fill: #0000ff; fill-opacity: 0.5"/>
     <use xlink:href="#m04802ed9ab" x="295.07006" y="172.02153" style="fill: #0000ff; fill-opacity: 0.5"/>
     <use xlink:href="#m04802ed9ab" x="298.763264" y="170.103678" style="fill: #0000ff; fill-opacity: 0.5"/>
     <use xlink:href="#m04802ed9ab" x="302.456469" y="168.244836" style="fill: #0000ff; fill-opacity: 0.5"/>
     <use xlink:href="#m04802ed9ab" x="306.149674" y="166.373323" style="fill: #0000ff; fill-opacity: 0.5"/>
     <use xlink:href="#m04802ed9ab" x="309.842879" y="164.625646" style="fill: #0000ff; fill-opacity: 0.5"/>
     <use xlink:href="#m04802ed9ab" x="313.536084" y="162.996343" style="fill: #0000ff; fill-opacity: 0.5"/>
     <use xlink:href="#m04802ed9ab" x="317.229288" y="161.282264" style="fill: #0000ff; fill-opacity: 0.5"/>
     <use xlink:href="#m04802ed9ab" x="320.922493" y="159.61716" style="fill: #0000ff; fill-opacity: 0.5"/>
     <use xlink:href="#m04802ed9ab" x="324.615698" y="157.998959" style="fill: #0000ff; fill-opacity: 0.5"/>
     <use xlink:href="#m04802ed9ab" x="328.308903" y="156.425709" style="fill: #0000ff; fill-opacity: 0.5"/>
     <use xlink:href="#m04802ed9ab" x="332.002107" y="154.895561" style="fill: #0000ff; fill-opacity: 0.5"/>
     <use xlink:href="#m04802ed9ab" x="335.695312" y="153.591393" style="fill: #0000ff; fill-opacity: 0.5"/>
     <use xlink:href="#m04802ed9ab" x="339.388517" y="152.200561" style="fill: #0000ff; fill-opacity: 0.5"/>
     <use xlink:href="#m04802ed9ab" x="343.081722" y="150.786408" style="fill: #0000ff; fill-opacity: 0.5"/>
     <use xlink:href="#m04802ed9ab" x="346.774927" y="149.468129" style="fill: #0000ff; fill-opacity: 0.5"/>
     <use xlink:href="#m04802ed9ab" x="350.468131" y="148.125268" style="fill: #0000ff; fill-opacity: 0.5"/>
     <use xlink:href="#m04802ed9ab" x="354.161336" y="146.816403" style="fill: #0000ff; fill-opacity: 0.5"/>
     <use xlink:href="#m04802ed9ab" x="357.854541" y="145.54026" style="fill: #0000ff; fill-opacity: 0.5"/>
     <use xlink:href="#m04802ed9ab" x="361.547746" y="144.295626" style="fill: #0000ff; fill-opacity: 0.5"/>
     <use xlink:href="#m04802ed9ab" x="365.24095" y="143.192424" style="fill: #0000ff; fill-opacity: 0.5"/>
     <use xlink:href="#m04802ed9ab" x="368.934155" y="142.006068" style="fill: #0000ff; fill-opacity: 0.5"/>
     <use xlink:href="#m04802ed9ab" x="372.62736" y="140.84796" style="fill: #0000ff; fill-opacity: 0.5"/>
     <use xlink:href="#m04802ed9ab" x="376.320565" y="139.770678" style="fill: #0000ff; fill-opacity: 0.5"/>
     <use xlink:href="#m04802ed9ab" x="380.01377" y="138.665494" style="fill: #0000ff; fill-opacity: 0.5"/>
     <use xlink:href="#m04802ed9ab" x="383.706974" y="137.638063" style="fill: #0000ff; fill-opacity: 0.5"/>
     <use xlink:href="#m04802ed9ab" x="387.400179" y="136.633983" style="fill: #0000ff; fill-opacity: 0.5"/>
     <use xlink:href="#m04802ed9ab" x="391.093384" y="135.652466" style="fill: #0000ff; fill-opacity: 0.5"/>
     <use xlink:href="#m04802ed9ab" x="394.786589" y="134.64216" style="fill: #0000ff; fill-opacity: 0.5"/>
     <use xlink:href="#m04802ed9ab" x="398.479793" y="133.704103" style="fill: #0000ff; fill-opacity: 0.5"/>
     <use xlink:href="#m04802ed9ab" x="402.172998" y="132.736938" style="fill: #0000ff; fill-opacity: 0.5"/>
     <use xlink:href="#m04802ed9ab" x="405.866203" y="131.839541" style="fill: #0000ff; fill-opacity: 0.5"/>
     <use xlink:href="#m04802ed9ab" x="409.559408" y="130.961237" style="fill: #0000ff; fill-opacity: 0.5"/>
     <use xlink:href="#m04802ed9ab" x="413.252612" y="130.101424" style="fill: #0000ff; fill-opacity: 0.5"/>
     <use xlink:href="#m04802ed9ab" x="416.945817" y="129.259524" style="fill: #0000ff; fill-opacity: 0.5"/>
     <use xlink:href="#m04802ed9ab" x="420.639022" y="128.52888" style="fill: #0000ff; fill-opacity: 0.5"/>
     <use xlink:href="#m04802ed9ab" x="424.332227" y="127.720208" style="fill: #0000ff; fill-opacity: 0.5"/>
     <use xlink:href="#m04802ed9ab" x="428.025432" y="126.881871" style="fill: #0000ff; fill-opacity: 0.5"/>
     <use xlink:href="#m04802ed9ab" x="431.718636" y="126.105843" style="fill: #0000ff; fill-opacity: 0.5"/>
    </g>
   </g>
   <g id="line2d_15">
    <path d="M 47.81 272.427534 
L 450 272.427534 
" clip-path="url(#pa3a0aa9979)" style="fill: none; stroke-dasharray: 0.555,0.24; stroke-dashoffset: 0; stroke: #ff0000; stroke-width: 0.15"/>
   </g>
   <g id="line2d_16">
    <path d="M 47.81 158.576234 
L 450 158.576234 
" clip-path="url(#pa3a0aa9979)" style="fill: none; stroke-dasharray: 0.555,0.24; stroke-dashoffset: 0; stroke: #ff0000; stroke-width: 0.15"/>
   </g>
   <g id="line2d_17">
    <path d="M 47.81 44.724933 
L 450 44.724933 
" clip-path="url(#pa3a0aa9979)" style="fill: none; stroke-dasharray: 0.555,0.24; stroke-dashoffset: 0; stroke: #ff0000; stroke-width: 0.15"/>
   </g>
   <g id="patch_3">
    <path d="M 47.81 303.64 
L 47.81 25.44 
" style="fill: none; stroke: #000000; stroke-width: 0.8; stroke-linejoin: miter; stroke-linecap: square"/>
   </g>
   <g id="patch_4">
    <path d="M 450 303.64 
L 450 25.44 
" style="fill: none; stroke: #000000; stroke-width: 0.8; stroke-linejoin: miter; stroke-linecap: square"/>
   </g>
   <g id="patch_5">
    <path d="M 47.81 303.64 
L 450 303.64 
" style="fill: none; stroke: #000000; stroke-width: 0.8; stroke-linejoin: miter; stroke-linecap: square"/>
   </g>
   <g id="patch_6">
    <path d="M 47.81 25.44 
L 450 25.44 
" style="fill: none; stroke: #000000; stroke-width: 0.8; stroke-linejoin: miter; stroke-linecap: square"/>
   </g>
   <g id="text_15">
    <!-- Average action - 20240409114154 - 50 games -->
    <g transform="translate(108.798438 19.44) scale(0.12 -0.12)">
     <defs>
      <path id="DejaVuSans-2d" d="M 313 2009 
L 1997 2009 
L 1997 1497 
L 313 1497 
L 313 2009 
z
" transform="scale(0.015625)"/>
      <path id="DejaVuSans-39" d="M 703 97 
L 703 672 
Q 941 559 1184 500 
Q 1428 441 1663 441 
Q 2288 441 2617 861 
Q 2947 1281 2994 2138 
Q 2813 1869 2534 1725 
Q 2256 1581 1919 1581 
Q 1219 1581 811 2004 
Q 403 2428 403 3163 
Q 403 3881 828 4315 
Q 1253 4750 1959 4750 
Q 2769 4750 3195 4129 
Q 3622 3509 3622 2328 
Q 3622 1225 3098 567 
Q 2575 -91 1691 -91 
Q 1453 -91 1209 -44 
Q 966 3 703 97 
z
M 1959 2075 
Q 2384 2075 2632 2365 
Q 2881 2656 2881 3163 
Q 2881 3666 2632 3958 
Q 2384 4250 1959 4250 
Q 1534 4250 1286 3958 
Q 1038 3666 1038 3163 
Q 1038 2656 1286 2365 
Q 1534 2075 1959 2075 
z
" transform="scale(0.015625)"/>
      <path id="DejaVuSans-35" d="M 691 4666 
L 3169 4666 
L 3169 4134 
L 1269 4134 
L 1269 2991 
Q 1406 3038 1543 3061 
Q 1681 3084 1819 3084 
Q 2600 3084 3056 2656 
Q 3513 2228 3513 1497 
Q 3513 744 3044 326 
Q 2575 -91 1722 -91 
Q 1428 -91 1123 -41 
Q 819 9 494 109 
L 494 744 
Q 775 591 1075 516 
Q 1375 441 1709 441 
Q 2250 441 2565 725 
Q 2881 1009 2881 1497 
Q 2881 1984 2565 2268 
Q 2250 2553 1709 2553 
Q 1456 2553 1204 2497 
Q 953 2441 691 2322 
L 691 4666 
z
" transform="scale(0.015625)"/>
      <path id="DejaVuSans-6d" d="M 3328 2828 
Q 3544 3216 3844 3400 
Q 4144 3584 4550 3584 
Q 5097 3584 5394 3201 
Q 5691 2819 5691 2113 
L 5691 0 
L 5113 0 
L 5113 2094 
Q 5113 2597 4934 2840 
Q 4756 3084 4391 3084 
Q 3944 3084 3684 2787 
Q 3425 2491 3425 1978 
L 3425 0 
L 2847 0 
L 2847 2094 
Q 2847 2600 2669 2842 
Q 2491 3084 2119 3084 
Q 1678 3084 1418 2786 
Q 1159 2488 1159 1978 
L 1159 0 
L 581 0 
L 581 3500 
L 1159 3500 
L 1159 2956 
Q 1356 3278 1631 3431 
Q 1906 3584 2284 3584 
Q 2666 3584 2933 3390 
Q 3200 3197 3328 2828 
z
" transform="scale(0.015625)"/>
      <path id="DejaVuSans-73" d="M 2834 3397 
L 2834 2853 
Q 2591 2978 2328 3040 
Q 2066 3103 1784 3103 
Q 1356 3103 1142 2972 
Q 928 2841 928 2578 
Q 928 2378 1081 2264 
Q 1234 2150 1697 2047 
L 1894 2003 
Q 2506 1872 2764 1633 
Q 3022 1394 3022 966 
Q 3022 478 2636 193 
Q 2250 -91 1575 -91 
Q 1294 -91 989 -36 
Q 684 19 347 128 
L 347 722 
Q 666 556 975 473 
Q 1284 391 1588 391 
Q 1994 391 2212 530 
Q 2431 669 2431 922 
Q 2431 1156 2273 1281 
Q 2116 1406 1581 1522 
L 1381 1569 
Q 847 1681 609 1914 
Q 372 2147 372 2553 
Q 372 3047 722 3315 
Q 1072 3584 1716 3584 
Q 2034 3584 2315 3537 
Q 2597 3491 2834 3397 
z
" transform="scale(0.015625)"/>
     </defs>
     <use xlink:href="#DejaVuSans-41"/>
     <use xlink:href="#DejaVuSans-76" x="62.533203"/>
     <use xlink:href="#DejaVuSans-65" x="121.712891"/>
     <use xlink:href="#DejaVuSans-72" x="183.236328"/>
     <use xlink:href="#DejaVuSans-61" x="224.349609"/>
     <use xlink:href="#DejaVuSans-67" x="285.628906"/>
     <use xlink:href="#DejaVuSans-65" x="349.105469"/>
     <use xlink:href="#DejaVuSans-20" x="410.628906"/>
     <use xlink:href="#DejaVuSans-61" x="442.416016"/>
     <use xlink:href="#DejaVuSans-63" x="503.695312"/>
     <use xlink:href="#DejaVuSans-74" x="558.675781"/>
     <use xlink:href="#DejaVuSans-69" x="597.884766"/>
     <use xlink:href="#DejaVuSans-6f" x="625.667969"/>
     <use xlink:href="#DejaVuSans-6e" x="686.849609"/>
     <use xlink:href="#DejaVuSans-20" x="750.228516"/>
     <use xlink:href="#DejaVuSans-2d" x="782.015625"/>
     <use xlink:href="#DejaVuSans-20" x="818.099609"/>
     <use xlink:href="#DejaVuSans-32" x="849.886719"/>
     <use xlink:href="#DejaVuSans-30" x="913.509766"/>
     <use xlink:href="#DejaVuSans-32" x="977.132812"/>
     <use xlink:href="#DejaVuSans-34" x="1040.755859"/>
     <use xlink:href="#DejaVuSans-30" x="1104.378906"/>
     <use xlink:href="#DejaVuSans-34" x="1168.001953"/>
     <use xlink:href="#DejaVuSans-30" x="1231.625"/>
     <use xlink:href="#DejaVuSans-39" x="1295.248047"/>
     <use xlink:href="#DejaVuSans-31" x="1358.871094"/>
     <use xlink:href="#DejaVuSans-31" x="1422.494141"/>
     <use xlink:href="#DejaVuSans-34" x="1486.117188"/>
     <use xlink:href="#DejaVuSans-31" x="1549.740234"/>
     <use xlink:href="#DejaVuSans-35" x="1613.363281"/>
     <use xlink:href="#DejaVuSans-34" x="1676.986328"/>
     <use xlink:href="#DejaVuSans-20" x="1740.609375"/>
     <use xlink:href="#DejaVuSans-2d" x="1772.396484"/>
     <use xlink:href="#DejaVuSans-20" x="1808.480469"/>
     <use xlink:href="#DejaVuSans-35" x="1840.267578"/>
     <use xlink:href="#DejaVuSans-30" x="1903.890625"/>
     <use xlink:href="#DejaVuSans-20" x="1967.513672"/>
     <use xlink:href="#DejaVuSans-67" x="1999.300781"/>
     <use xlink:href="#DejaVuSans-61" x="2062.777344"/>
     <use xlink:href="#DejaVuSans-6d" x="2124.056641"/>
     <use xlink:href="#DejaVuSans-65" x="2221.46875"/>
     <use xlink:href="#DejaVuSans-73" x="2282.992188"/>
    </g>
   </g>
   <g id="legend_1">
    <g id="patch_7">
     <path d="M 359.690625 298.64 
L 443 298.64 
Q 445 298.64 445 296.64 
L 445 268.28375 
Q 445 266.28375 443 266.28375 
L 359.690625 266.28375 
Q 357.690625 266.28375 357.690625 268.28375 
L 357.690625 296.64 
Q 357.690625 298.64 359.690625 298.64 
z
" style="fill: #ffffff; opacity: 0.8; stroke: #cccccc; stroke-linejoin: miter"/>
    </g>
    <g id="line2d_18">
     <path d="M 361.690625 274.382187 
L 371.690625 274.382187 
L 381.690625 274.382187 
" style="fill: none; stroke: #0000ff; stroke-linecap: square"/>
     <g>
      <use xlink:href="#m911bbdbf8e" x="371.690625" y="274.382187" style="fill: #0000ff"/>
     </g>
    </g>
    <g id="text_16">
     <!-- LLM -->
     <g transform="translate(389.690625 277.882187) scale(0.1 -0.1)">
      <defs>
       <path id="DejaVuSans-4c" d="M 628 4666 
L 1259 4666 
L 1259 531 
L 3531 531 
L 3531 0 
L 628 0 
L 628 4666 
z
" transform="scale(0.015625)"/>
       <path id="DejaVuSans-4d" d="M 628 4666 
L 1569 4666 
L 2759 1491 
L 3956 4666 
L 4897 4666 
L 4897 0 
L 4281 0 
L 4281 4097 
L 3078 897 
L 2444 897 
L 1241 4097 
L 1241 0 
L 628 0 
L 628 4666 
z
" transform="scale(0.015625)"/>
      </defs>
      <use xlink:href="#DejaVuSans-4c"/>
      <use xlink:href="#DejaVuSans-4c" x="55.712891"/>
      <use xlink:href="#DejaVuSans-4d" x="111.425781"/>
     </g>
    </g>
    <g id="line2d_19">
     <path d="M 361.690625 289.060312 
L 371.690625 289.060312 
L 381.690625 289.060312 
" style="fill: none; stroke: #0000ff; stroke-opacity: 0.5; stroke-width: 0.5; stroke-linecap: square"/>
     <g>
      <use xlink:href="#m04802ed9ab" x="371.690625" y="289.060312" style="fill: #0000ff; fill-opacity: 0.5"/>
     </g>
    </g>
    <g id="text_17">
     <!-- LLM mean -->
     <g transform="translate(389.690625 292.560312) scale(0.1 -0.1)">
      <use xlink:href="#DejaVuSans-4c"/>
      <use xlink:href="#DejaVuSans-4c" x="55.712891"/>
      <use xlink:href="#DejaVuSans-4d" x="111.425781"/>
      <use xlink:href="#DejaVuSans-20" x="197.705078"/>
      <use xlink:href="#DejaVuSans-6d" x="229.492188"/>
      <use xlink:href="#DejaVuSans-65" x="326.904297"/>
      <use xlink:href="#DejaVuSans-61" x="388.427734"/>
      <use xlink:href="#DejaVuSans-6e" x="449.707031"/>
     </g>
    </g>
   </g>
  </g>
 </g>
 <defs>
  <clipPath id="pa3a0aa9979">
   <rect x="47.81" y="25.44" width="402.19" height="278.2"/>
  </clipPath>
 </defs>
</svg>
