<?xml version="1.0" encoding="utf-8" standalone="no"?>
<!DOCTYPE svg PUBLIC "-//W3C//DTD SVG 1.1//EN"
  "http://www.w3.org/Graphics/SVG/1.1/DTD/svg11.dtd">
<svg xmlns:xlink="http://www.w3.org/1999/xlink" width="460.8pt" height="345.6pt" viewBox="0 0 460.8 345.6" xmlns="http://www.w3.org/2000/svg" version="1.1">
 <metadata>
  <rdf:RDF xmlns:dc="http://purl.org/dc/elements/1.1/" xmlns:cc="http://creativecommons.org/ns#" xmlns:rdf="http://www.w3.org/1999/02/22-rdf-syntax-ns#">
   <cc:Work>
    <dc:type rdf:resource="http://purl.org/dc/dcmitype/StillImage"/>
    <dc:date>2024-04-10T11:15:17.367637</dc:date>
    <dc:format>image/svg+xml</dc:format>
    <dc:creator>
     <cc:Agent>
      <dc:title>Matplotlib v3.8.0, https://matplotlib.org/</dc:title>
     </cc:Agent>
    </dc:creator>
   </cc:Work>
  </rdf:RDF>
 </metadata>
 <defs>
  <style type="text/css">*{stroke-linejoin: round; stroke-linecap: butt}</style>
 </defs>
 <g id="figure_1">
  <g id="patch_1">
   <path d="M 0 345.6 
L 460.8 345.6 
L 460.8 0 
L 0 0 
z
" style="fill: #ffffff"/>
  </g>
  <g id="axes_1">
   <g id="patch_2">
    <path d="M 48.49 317.72 
L 450 317.72 
L 450 10.8 
L 48.49 10.8 
z
" style="fill: #ffffff"/>
   </g>
   <g id="PolyCollection_1">
    <defs>
     <path id="m47d90186d8" d="M 66.740455 -181.34 
L 66.740455 -181.34 
L 70.427415 -181.34 
L 74.114376 -181.34 
L 77.801336 -181.34 
L 81.488297 -181.34 
L 85.175257 -181.34 
L 88.862218 -181.34 
L 92.549178 -181.34 
L 96.236139 -181.34 
L 99.923099 -181.34 
L 103.61006 -181.34 
L 107.29702 -181.34 
L 110.983981 -181.34 
L 114.670941 -181.34 
L 118.357902 -181.34 
L 122.044862 -181.34 
L 125.731823 -181.34 
L 129.418783 -181.34 
L 133.105744 -181.34 
L 136.792704 -181.34 
L 140.479665 -181.34 
L 144.166625 -181.34 
L 147.853586 -181.34 
L 151.540546 -181.34 
L 155.227507 -181.34 
L 158.914467 -181.34 
L 162.601428 -181.34 
L 166.288388 -181.34 
L 169.975349 -181.34 
L 173.662309 -181.34 
L 177.34927 -181.34 
L 181.03623 -181.34 
L 184.723191 -181.34 
L 188.410152 -181.34 
L 192.097112 -181.34 
L 195.784073 -181.34 
L 199.471033 -181.34 
L 203.157994 -181.34 
L 206.844954 -181.34 
L 210.531915 -181.34 
L 214.218875 -181.34 
L 217.905836 -181.34 
L 221.592796 -181.34 
L 225.279757 -181.34 
L 228.966717 -181.34 
L 232.653678 -181.34 
L 236.340638 -181.34 
L 240.027599 -181.34 
L 243.714559 -181.34 
L 247.40152 -181.34 
L 251.08848 -181.34 
L 254.775441 -181.34 
L 258.462401 -181.34 
L 262.149362 -181.34 
L 265.836322 -181.34 
L 269.523283 -181.34 
L 273.210243 -181.34 
L 276.897204 -181.34 
L 280.584164 -181.34 
L 284.271125 -181.34 
L 287.958085 -181.34 
L 291.645046 -181.34 
L 295.332006 -181.34 
L 299.018967 -181.34 
L 302.705927 -181.34 
L 306.392888 -181.34 
L 310.079848 -181.34 
L 313.766809 -181.34 
L 317.45377 -181.34 
L 321.14073 -181.34 
L 324.827691 -181.34 
L 328.514651 -181.34 
L 332.201612 -181.34 
L 335.888572 -181.34 
L 339.575533 -181.34 
L 343.262493 -181.34 
L 346.949454 -181.34 
L 350.636414 -181.34 
L 354.323375 -181.34 
L 358.010335 -181.34 
L 361.697296 -181.34 
L 365.384256 -181.34 
L 369.071217 -181.34 
L 372.758177 -181.34 
L 376.445138 -181.34 
L 380.132098 -181.34 
L 383.819059 -181.34 
L 387.506019 -181.34 
L 391.19298 -181.34 
L 394.87994 -181.34 
L 398.566901 -181.34 
L 402.253861 -181.34 
L 405.940822 -181.34 
L 409.627782 -181.34 
L 413.314743 -181.34 
L 417.001703 -181.34 
L 420.688664 -181.34 
L 424.375624 -181.34 
L 428.062585 -181.34 
L 431.749545 -181.34 
L 431.749545 -181.34 
L 431.749545 -181.34 
L 428.062585 -181.34 
L 424.375624 -181.34 
L 420.688664 -181.34 
L 417.001703 -181.34 
L 413.314743 -181.34 
L 409.627782 -181.34 
L 405.940822 -181.34 
L 402.253861 -181.34 
L 398.566901 -181.34 
L 394.87994 -181.34 
L 391.19298 -181.34 
L 387.506019 -181.34 
L 383.819059 -181.34 
L 380.132098 -181.34 
L 376.445138 -181.34 
L 372.758177 -181.34 
L 369.071217 -181.34 
L 365.384256 -181.34 
L 361.697296 -181.34 
L 358.010335 -181.34 
L 354.323375 -181.34 
L 350.636414 -181.34 
L 346.949454 -181.34 
L 343.262493 -181.34 
L 339.575533 -181.34 
L 335.888572 -181.34 
L 332.201612 -181.34 
L 328.514651 -181.34 
L 324.827691 -181.34 
L 321.14073 -181.34 
L 317.45377 -181.34 
L 313.766809 -181.34 
L 310.079848 -181.34 
L 306.392888 -181.34 
L 302.705927 -181.34 
L 299.018967 -181.34 
L 295.332006 -181.34 
L 291.645046 -181.34 
L 287.958085 -181.34 
L 284.271125 -181.34 
L 280.584164 -181.34 
L 276.897204 -181.34 
L 273.210243 -181.34 
L 269.523283 -181.34 
L 265.836322 -181.34 
L 262.149362 -181.34 
L 258.462401 -181.34 
L 254.775441 -181.34 
L 251.08848 -181.34 
L 247.40152 -181.34 
L 243.714559 -181.34 
L 240.027599 -181.34 
L 236.340638 -181.34 
L 232.653678 -181.34 
L 228.966717 -181.34 
L 225.279757 -181.34 
L 221.592796 -181.34 
L 217.905836 -181.34 
L 214.218875 -181.34 
L 210.531915 -181.34 
L 206.844954 -181.34 
L 203.157994 -181.34 
L 199.471033 -181.34 
L 195.784073 -181.34 
L 192.097112 -181.34 
L 188.410152 -181.34 
L 184.723191 -181.34 
L 181.03623 -181.34 
L 177.34927 -181.34 
L 173.662309 -181.34 
L 169.975349 -181.34 
L 166.288388 -181.34 
L 162.601428 -181.34 
L 158.914467 -181.34 
L 155.227507 -181.34 
L 151.540546 -181.34 
L 147.853586 -181.34 
L 144.166625 -181.34 
L 140.479665 -181.34 
L 136.792704 -181.34 
L 133.105744 -181.34 
L 129.418783 -181.34 
L 125.731823 -181.34 
L 122.044862 -181.34 
L 118.357902 -181.34 
L 114.670941 -181.34 
L 110.983981 -181.34 
L 107.29702 -181.34 
L 103.61006 -181.34 
L 99.923099 -181.34 
L 96.236139 -181.34 
L 92.549178 -181.34 
L 88.862218 -181.34 
L 85.175257 -181.34 
L 81.488297 -181.34 
L 77.801336 -181.34 
L 74.114376 -181.34 
L 70.427415 -181.34 
L 66.740455 -181.34 
z
" style="stroke: #ff0000; stroke-opacity: 0.1"/>
    </defs>
    <g clip-path="url(#p5385f0aabc)">
     <use xlink:href="#m47d90186d8" x="0" y="345.6" style="fill: #ff0000; fill-opacity: 0.1; stroke: #ff0000; stroke-opacity: 0.1"/>
    </g>
   </g>
   <g id="matplotlib.axis_1">
    <g id="xtick_1">
     <g id="line2d_1">
      <defs>
       <path id="mbde6a28002" d="M 0 0 
L 0 3.5 
" style="stroke: #000000; stroke-width: 0.8"/>
      </defs>
      <g>
       <use xlink:href="#mbde6a28002" x="66.740455" y="317.72" style="stroke: #000000; stroke-width: 0.8"/>
      </g>
     </g>
     <g id="text_1">
      <!-- 0 -->
      <g transform="translate(63.559205 332.318437) scale(0.1 -0.1)">
       <defs>
        <path id="DejaVuSans-30" d="M 2034 4250 
Q 1547 4250 1301 3770 
Q 1056 3291 1056 2328 
Q 1056 1369 1301 889 
Q 1547 409 2034 409 
Q 2525 409 2770 889 
Q 3016 1369 3016 2328 
Q 3016 3291 2770 3770 
Q 2525 4250 2034 4250 
z
M 2034 4750 
Q 2819 4750 3233 4129 
Q 3647 3509 3647 2328 
Q 3647 1150 3233 529 
Q 2819 -91 2034 -91 
Q 1250 -91 836 529 
Q 422 1150 422 2328 
Q 422 3509 836 4129 
Q 1250 4750 2034 4750 
z
" transform="scale(0.015625)"/>
       </defs>
       <use xlink:href="#DejaVuSans-30"/>
      </g>
     </g>
    </g>
    <g id="xtick_2">
     <g id="line2d_2">
      <g>
       <use xlink:href="#mbde6a28002" x="140.479665" y="317.72" style="stroke: #000000; stroke-width: 0.8"/>
      </g>
     </g>
     <g id="text_2">
      <!-- 20 -->
      <g transform="translate(134.117165 332.318437) scale(0.1 -0.1)">
       <defs>
        <path id="DejaVuSans-32" d="M 1228 531 
L 3431 531 
L 3431 0 
L 469 0 
L 469 531 
Q 828 903 1448 1529 
Q 2069 2156 2228 2338 
Q 2531 2678 2651 2914 
Q 2772 3150 2772 3378 
Q 2772 3750 2511 3984 
Q 2250 4219 1831 4219 
Q 1534 4219 1204 4116 
Q 875 4013 500 3803 
L 500 4441 
Q 881 4594 1212 4672 
Q 1544 4750 1819 4750 
Q 2544 4750 2975 4387 
Q 3406 4025 3406 3419 
Q 3406 3131 3298 2873 
Q 3191 2616 2906 2266 
Q 2828 2175 2409 1742 
Q 1991 1309 1228 531 
z
" transform="scale(0.015625)"/>
       </defs>
       <use xlink:href="#DejaVuSans-32"/>
       <use xlink:href="#DejaVuSans-30" x="63.623047"/>
      </g>
     </g>
    </g>
    <g id="xtick_3">
     <g id="line2d_3">
      <g>
       <use xlink:href="#mbde6a28002" x="214.218875" y="317.72" style="stroke: #000000; stroke-width: 0.8"/>
      </g>
     </g>
     <g id="text_3">
      <!-- 40 -->
      <g transform="translate(207.856375 332.318437) scale(0.1 -0.1)">
       <defs>
        <path id="DejaVuSans-34" d="M 2419 4116 
L 825 1625 
L 2419 1625 
L 2419 4116 
z
M 2253 4666 
L 3047 4666 
L 3047 1625 
L 3713 1625 
L 3713 1100 
L 3047 1100 
L 3047 0 
L 2419 0 
L 2419 1100 
L 313 1100 
L 313 1709 
L 2253 4666 
z
" transform="scale(0.015625)"/>
       </defs>
       <use xlink:href="#DejaVuSans-34"/>
       <use xlink:href="#DejaVuSans-30" x="63.623047"/>
      </g>
     </g>
    </g>
    <g id="xtick_4">
     <g id="line2d_4">
      <g>
       <use xlink:href="#mbde6a28002" x="287.958085" y="317.72" style="stroke: #000000; stroke-width: 0.8"/>
      </g>
     </g>
     <g id="text_4">
      <!-- 60 -->
      <g transform="translate(281.595585 332.318437) scale(0.1 -0.1)">
       <defs>
        <path id="DejaVuSans-36" d="M 2113 2584 
Q 1688 2584 1439 2293 
Q 1191 2003 1191 1497 
Q 1191 994 1439 701 
Q 1688 409 2113 409 
Q 2538 409 2786 701 
Q 3034 994 3034 1497 
Q 3034 2003 2786 2293 
Q 2538 2584 2113 2584 
z
M 3366 4563 
L 3366 3988 
Q 3128 4100 2886 4159 
Q 2644 4219 2406 4219 
Q 1781 4219 1451 3797 
Q 1122 3375 1075 2522 
Q 1259 2794 1537 2939 
Q 1816 3084 2150 3084 
Q 2853 3084 3261 2657 
Q 3669 2231 3669 1497 
Q 3669 778 3244 343 
Q 2819 -91 2113 -91 
Q 1303 -91 875 529 
Q 447 1150 447 2328 
Q 447 3434 972 4092 
Q 1497 4750 2381 4750 
Q 2619 4750 2861 4703 
Q 3103 4656 3366 4563 
z
" transform="scale(0.015625)"/>
       </defs>
       <use xlink:href="#DejaVuSans-36"/>
       <use xlink:href="#DejaVuSans-30" x="63.623047"/>
      </g>
     </g>
    </g>
    <g id="xtick_5">
     <g id="line2d_5">
      <g>
       <use xlink:href="#mbde6a28002" x="361.697296" y="317.72" style="stroke: #000000; stroke-width: 0.8"/>
      </g>
     </g>
     <g id="text_5">
      <!-- 80 -->
      <g transform="translate(355.334796 332.318437) scale(0.1 -0.1)">
       <defs>
        <path id="DejaVuSans-38" d="M 2034 2216 
Q 1584 2216 1326 1975 
Q 1069 1734 1069 1313 
Q 1069 891 1326 650 
Q 1584 409 2034 409 
Q 2484 409 2743 651 
Q 3003 894 3003 1313 
Q 3003 1734 2745 1975 
Q 2488 2216 2034 2216 
z
M 1403 2484 
Q 997 2584 770 2862 
Q 544 3141 544 3541 
Q 544 4100 942 4425 
Q 1341 4750 2034 4750 
Q 2731 4750 3128 4425 
Q 3525 4100 3525 3541 
Q 3525 3141 3298 2862 
Q 3072 2584 2669 2484 
Q 3125 2378 3379 2068 
Q 3634 1759 3634 1313 
Q 3634 634 3220 271 
Q 2806 -91 2034 -91 
Q 1263 -91 848 271 
Q 434 634 434 1313 
Q 434 1759 690 2068 
Q 947 2378 1403 2484 
z
M 1172 3481 
Q 1172 3119 1398 2916 
Q 1625 2713 2034 2713 
Q 2441 2713 2670 2916 
Q 2900 3119 2900 3481 
Q 2900 3844 2670 4047 
Q 2441 4250 2034 4250 
Q 1625 4250 1398 4047 
Q 1172 3844 1172 3481 
z
" transform="scale(0.015625)"/>
       </defs>
       <use xlink:href="#DejaVuSans-38"/>
       <use xlink:href="#DejaVuSans-30" x="63.623047"/>
      </g>
     </g>
    </g>
    <g id="xtick_6">
     <g id="line2d_6">
      <g>
       <use xlink:href="#mbde6a28002" x="435.436506" y="317.72" style="stroke: #000000; stroke-width: 0.8"/>
      </g>
     </g>
     <g id="text_6">
      <!-- 100 -->
      <g transform="translate(425.892756 332.318437) scale(0.1 -0.1)">
       <defs>
        <path id="DejaVuSans-31" d="M 794 531 
L 1825 531 
L 1825 4091 
L 703 3866 
L 703 4441 
L 1819 4666 
L 2450 4666 
L 2450 531 
L 3481 531 
L 3481 0 
L 794 0 
L 794 531 
z
" transform="scale(0.015625)"/>
       </defs>
       <use xlink:href="#DejaVuSans-31"/>
       <use xlink:href="#DejaVuSans-30" x="63.623047"/>
       <use xlink:href="#DejaVuSans-30" x="127.246094"/>
      </g>
     </g>
    </g>
   </g>
   <g id="matplotlib.axis_2">
    <g id="ytick_1">
     <g id="line2d_7">
      <defs>
       <path id="mf1008dc3c1" d="M 0 0 
L -3.5 0 
" style="stroke: #000000; stroke-width: 0.8"/>
      </defs>
      <g>
       <use xlink:href="#mf1008dc3c1" x="48.49" y="275.867273" style="stroke: #000000; stroke-width: 0.8"/>
      </g>
     </g>
     <g id="text_7">
      <!-- −0.04 -->
      <g transform="translate(10.844687 279.666491) scale(0.1 -0.1)">
       <defs>
        <path id="DejaVuSans-2212" d="M 678 2272 
L 4684 2272 
L 4684 1741 
L 678 1741 
L 678 2272 
z
" transform="scale(0.015625)"/>
        <path id="DejaVuSans-2e" d="M 684 794 
L 1344 794 
L 1344 0 
L 684 0 
L 684 794 
z
" transform="scale(0.015625)"/>
       </defs>
       <use xlink:href="#DejaVuSans-2212"/>
       <use xlink:href="#DejaVuSans-30" x="83.789062"/>
       <use xlink:href="#DejaVuSans-2e" x="147.412109"/>
       <use xlink:href="#DejaVuSans-30" x="179.199219"/>
       <use xlink:href="#DejaVuSans-34" x="242.822266"/>
      </g>
     </g>
    </g>
    <g id="ytick_2">
     <g id="line2d_8">
      <g>
       <use xlink:href="#mf1008dc3c1" x="48.49" y="220.063636" style="stroke: #000000; stroke-width: 0.8"/>
      </g>
     </g>
     <g id="text_8">
      <!-- −0.02 -->
      <g transform="translate(10.844687 223.862855) scale(0.1 -0.1)">
       <use xlink:href="#DejaVuSans-2212"/>
       <use xlink:href="#DejaVuSans-30" x="83.789062"/>
       <use xlink:href="#DejaVuSans-2e" x="147.412109"/>
       <use xlink:href="#DejaVuSans-30" x="179.199219"/>
       <use xlink:href="#DejaVuSans-32" x="242.822266"/>
      </g>
     </g>
    </g>
    <g id="ytick_3">
     <g id="line2d_9">
      <g>
       <use xlink:href="#mf1008dc3c1" x="48.49" y="164.26" style="stroke: #000000; stroke-width: 0.8"/>
      </g>
     </g>
     <g id="text_9">
      <!-- 0.00 -->
      <g transform="translate(19.224375 168.059219) scale(0.1 -0.1)">
       <use xlink:href="#DejaVuSans-30"/>
       <use xlink:href="#DejaVuSans-2e" x="63.623047"/>
       <use xlink:href="#DejaVuSans-30" x="95.410156"/>
       <use xlink:href="#DejaVuSans-30" x="159.033203"/>
      </g>
     </g>
    </g>
    <g id="ytick_4">
     <g id="line2d_10">
      <g>
       <use xlink:href="#mf1008dc3c1" x="48.49" y="108.456364" style="stroke: #000000; stroke-width: 0.8"/>
      </g>
     </g>
     <g id="text_10">
      <!-- 0.02 -->
      <g transform="translate(19.224375 112.255582) scale(0.1 -0.1)">
       <use xlink:href="#DejaVuSans-30"/>
       <use xlink:href="#DejaVuSans-2e" x="63.623047"/>
       <use xlink:href="#DejaVuSans-30" x="95.410156"/>
       <use xlink:href="#DejaVuSans-32" x="159.033203"/>
      </g>
     </g>
    </g>
    <g id="ytick_5">
     <g id="line2d_11">
      <g>
       <use xlink:href="#mf1008dc3c1" x="48.49" y="52.652727" style="stroke: #000000; stroke-width: 0.8"/>
      </g>
     </g>
     <g id="text_11">
      <!-- 0.04 -->
      <g transform="translate(19.224375 56.451946) scale(0.1 -0.1)">
       <use xlink:href="#DejaVuSans-30"/>
       <use xlink:href="#DejaVuSans-2e" x="63.623047"/>
       <use xlink:href="#DejaVuSans-30" x="95.410156"/>
       <use xlink:href="#DejaVuSans-34" x="159.033203"/>
      </g>
     </g>
    </g>
   </g>
   <g id="line2d_12">
    <path d="M 66.740455 164.26 
L 70.427415 164.26 
L 74.114376 164.26 
L 77.801336 164.26 
L 81.488297 164.26 
L 85.175257 164.26 
L 88.862218 164.26 
L 92.549178 164.26 
L 96.236139 164.26 
L 99.923099 164.26 
L 103.61006 164.26 
L 107.29702 164.26 
L 110.983981 164.26 
L 114.670941 164.26 
L 118.357902 164.26 
L 122.044862 164.26 
L 125.731823 164.26 
L 129.418783 164.26 
L 133.105744 164.26 
L 136.792704 164.26 
L 140.479665 164.26 
L 144.166625 164.26 
L 147.853586 164.26 
L 151.540546 164.26 
L 155.227507 164.26 
L 158.914467 164.26 
L 162.601428 164.26 
L 166.288388 164.26 
L 169.975349 164.26 
L 173.662309 164.26 
L 177.34927 164.26 
L 181.03623 164.26 
L 184.723191 164.26 
L 188.410152 164.26 
L 192.097112 164.26 
L 195.784073 164.26 
L 199.471033 164.26 
L 203.157994 164.26 
L 206.844954 164.26 
L 210.531915 164.26 
L 214.218875 164.26 
L 217.905836 164.26 
L 221.592796 164.26 
L 225.279757 164.26 
L 228.966717 164.26 
L 232.653678 164.26 
L 236.340638 164.26 
L 240.027599 164.26 
L 243.714559 164.26 
L 247.40152 164.26 
L 251.08848 164.26 
L 254.775441 164.26 
L 258.462401 164.26 
L 262.149362 164.26 
L 265.836322 164.26 
L 269.523283 164.26 
L 273.210243 164.26 
L 276.897204 164.26 
L 280.584164 164.26 
L 284.271125 164.26 
L 287.958085 164.26 
L 291.645046 164.26 
L 295.332006 164.26 
L 299.018967 164.26 
L 302.705927 164.26 
L 306.392888 164.26 
L 310.079848 164.26 
L 313.766809 164.26 
L 317.45377 164.26 
L 321.14073 164.26 
L 324.827691 164.26 
L 328.514651 164.26 
L 332.201612 164.26 
L 335.888572 164.26 
L 339.575533 164.26 
L 343.262493 164.26 
L 346.949454 164.26 
L 350.636414 164.26 
L 354.323375 164.26 
L 358.010335 164.26 
L 361.697296 164.26 
L 365.384256 164.26 
L 369.071217 164.26 
L 372.758177 164.26 
L 376.445138 164.26 
L 380.132098 164.26 
L 383.819059 164.26 
L 387.506019 164.26 
L 391.19298 164.26 
L 394.87994 164.26 
L 398.566901 164.26 
L 402.253861 164.26 
L 405.940822 164.26 
L 409.627782 164.26 
L 413.314743 164.26 
L 417.001703 164.26 
L 420.688664 164.26 
L 424.375624 164.26 
L 428.062585 164.26 
L 431.749545 164.26 
" clip-path="url(#p5385f0aabc)" style="fill: none; stroke: #ff0000; stroke-width: 0.5; stroke-linecap: square"/>
    <defs>
     <path id="m67d11d9877" d="M -0.49999 0.49999 
L 0.50001 0.49999 
L 0.50001 -0.50001 
L -0.49999 -0.50001 
z
"/>
    </defs>
    <g clip-path="url(#p5385f0aabc)">
     <use xlink:href="#m67d11d9877" x="66.740455" y="164.26" style="fill: #ff0000"/>
     <use xlink:href="#m67d11d9877" x="70.427415" y="164.26" style="fill: #ff0000"/>
     <use xlink:href="#m67d11d9877" x="74.114376" y="164.26" style="fill: #ff0000"/>
     <use xlink:href="#m67d11d9877" x="77.801336" y="164.26" style="fill: #ff0000"/>
     <use xlink:href="#m67d11d9877" x="81.488297" y="164.26" style="fill: #ff0000"/>
     <use xlink:href="#m67d11d9877" x="85.175257" y="164.26" style="fill: #ff0000"/>
     <use xlink:href="#m67d11d9877" x="88.862218" y="164.26" style="fill: #ff0000"/>
     <use xlink:href="#m67d11d9877" x="92.549178" y="164.26" style="fill: #ff0000"/>
     <use xlink:href="#m67d11d9877" x="96.236139" y="164.26" style="fill: #ff0000"/>
     <use xlink:href="#m67d11d9877" x="99.923099" y="164.26" style="fill: #ff0000"/>
     <use xlink:href="#m67d11d9877" x="103.61006" y="164.26" style="fill: #ff0000"/>
     <use xlink:href="#m67d11d9877" x="107.29702" y="164.26" style="fill: #ff0000"/>
     <use xlink:href="#m67d11d9877" x="110.983981" y="164.26" style="fill: #ff0000"/>
     <use xlink:href="#m67d11d9877" x="114.670941" y="164.26" style="fill: #ff0000"/>
     <use xlink:href="#m67d11d9877" x="118.357902" y="164.26" style="fill: #ff0000"/>
     <use xlink:href="#m67d11d9877" x="122.044862" y="164.26" style="fill: #ff0000"/>
     <use xlink:href="#m67d11d9877" x="125.731823" y="164.26" style="fill: #ff0000"/>
     <use xlink:href="#m67d11d9877" x="129.418783" y="164.26" style="fill: #ff0000"/>
     <use xlink:href="#m67d11d9877" x="133.105744" y="164.26" style="fill: #ff0000"/>
     <use xlink:href="#m67d11d9877" x="136.792704" y="164.26" style="fill: #ff0000"/>
     <use xlink:href="#m67d11d9877" x="140.479665" y="164.26" style="fill: #ff0000"/>
     <use xlink:href="#m67d11d9877" x="144.166625" y="164.26" style="fill: #ff0000"/>
     <use xlink:href="#m67d11d9877" x="147.853586" y="164.26" style="fill: #ff0000"/>
     <use xlink:href="#m67d11d9877" x="151.540546" y="164.26" style="fill: #ff0000"/>
     <use xlink:href="#m67d11d9877" x="155.227507" y="164.26" style="fill: #ff0000"/>
     <use xlink:href="#m67d11d9877" x="158.914467" y="164.26" style="fill: #ff0000"/>
     <use xlink:href="#m67d11d9877" x="162.601428" y="164.26" style="fill: #ff0000"/>
     <use xlink:href="#m67d11d9877" x="166.288388" y="164.26" style="fill: #ff0000"/>
     <use xlink:href="#m67d11d9877" x="169.975349" y="164.26" style="fill: #ff0000"/>
     <use xlink:href="#m67d11d9877" x="173.662309" y="164.26" style="fill: #ff0000"/>
     <use xlink:href="#m67d11d9877" x="177.34927" y="164.26" style="fill: #ff0000"/>
     <use xlink:href="#m67d11d9877" x="181.03623" y="164.26" style="fill: #ff0000"/>
     <use xlink:href="#m67d11d9877" x="184.723191" y="164.26" style="fill: #ff0000"/>
     <use xlink:href="#m67d11d9877" x="188.410152" y="164.26" style="fill: #ff0000"/>
     <use xlink:href="#m67d11d9877" x="192.097112" y="164.26" style="fill: #ff0000"/>
     <use xlink:href="#m67d11d9877" x="195.784073" y="164.26" style="fill: #ff0000"/>
     <use xlink:href="#m67d11d9877" x="199.471033" y="164.26" style="fill: #ff0000"/>
     <use xlink:href="#m67d11d9877" x="203.157994" y="164.26" style="fill: #ff0000"/>
     <use xlink:href="#m67d11d9877" x="206.844954" y="164.26" style="fill: #ff0000"/>
     <use xlink:href="#m67d11d9877" x="210.531915" y="164.26" style="fill: #ff0000"/>
     <use xlink:href="#m67d11d9877" x="214.218875" y="164.26" style="fill: #ff0000"/>
     <use xlink:href="#m67d11d9877" x="217.905836" y="164.26" style="fill: #ff0000"/>
     <use xlink:href="#m67d11d9877" x="221.592796" y="164.26" style="fill: #ff0000"/>
     <use xlink:href="#m67d11d9877" x="225.279757" y="164.26" style="fill: #ff0000"/>
     <use xlink:href="#m67d11d9877" x="228.966717" y="164.26" style="fill: #ff0000"/>
     <use xlink:href="#m67d11d9877" x="232.653678" y="164.26" style="fill: #ff0000"/>
     <use xlink:href="#m67d11d9877" x="236.340638" y="164.26" style="fill: #ff0000"/>
     <use xlink:href="#m67d11d9877" x="240.027599" y="164.26" style="fill: #ff0000"/>
     <use xlink:href="#m67d11d9877" x="243.714559" y="164.26" style="fill: #ff0000"/>
     <use xlink:href="#m67d11d9877" x="247.40152" y="164.26" style="fill: #ff0000"/>
     <use xlink:href="#m67d11d9877" x="251.08848" y="164.26" style="fill: #ff0000"/>
     <use xlink:href="#m67d11d9877" x="254.775441" y="164.26" style="fill: #ff0000"/>
     <use xlink:href="#m67d11d9877" x="258.462401" y="164.26" style="fill: #ff0000"/>
     <use xlink:href="#m67d11d9877" x="262.149362" y="164.26" style="fill: #ff0000"/>
     <use xlink:href="#m67d11d9877" x="265.836322" y="164.26" style="fill: #ff0000"/>
     <use xlink:href="#m67d11d9877" x="269.523283" y="164.26" style="fill: #ff0000"/>
     <use xlink:href="#m67d11d9877" x="273.210243" y="164.26" style="fill: #ff0000"/>
     <use xlink:href="#m67d11d9877" x="276.897204" y="164.26" style="fill: #ff0000"/>
     <use xlink:href="#m67d11d9877" x="280.584164" y="164.26" style="fill: #ff0000"/>
     <use xlink:href="#m67d11d9877" x="284.271125" y="164.26" style="fill: #ff0000"/>
     <use xlink:href="#m67d11d9877" x="287.958085" y="164.26" style="fill: #ff0000"/>
     <use xlink:href="#m67d11d9877" x="291.645046" y="164.26" style="fill: #ff0000"/>
     <use xlink:href="#m67d11d9877" x="295.332006" y="164.26" style="fill: #ff0000"/>
     <use xlink:href="#m67d11d9877" x="299.018967" y="164.26" style="fill: #ff0000"/>
     <use xlink:href="#m67d11d9877" x="302.705927" y="164.26" style="fill: #ff0000"/>
     <use xlink:href="#m67d11d9877" x="306.392888" y="164.26" style="fill: #ff0000"/>
     <use xlink:href="#m67d11d9877" x="310.079848" y="164.26" style="fill: #ff0000"/>
     <use xlink:href="#m67d11d9877" x="313.766809" y="164.26" style="fill: #ff0000"/>
     <use xlink:href="#m67d11d9877" x="317.45377" y="164.26" style="fill: #ff0000"/>
     <use xlink:href="#m67d11d9877" x="321.14073" y="164.26" style="fill: #ff0000"/>
     <use xlink:href="#m67d11d9877" x="324.827691" y="164.26" style="fill: #ff0000"/>
     <use xlink:href="#m67d11d9877" x="328.514651" y="164.26" style="fill: #ff0000"/>
     <use xlink:href="#m67d11d9877" x="332.201612" y="164.26" style="fill: #ff0000"/>
     <use xlink:href="#m67d11d9877" x="335.888572" y="164.26" style="fill: #ff0000"/>
     <use xlink:href="#m67d11d9877" x="339.575533" y="164.26" style="fill: #ff0000"/>
     <use xlink:href="#m67d11d9877" x="343.262493" y="164.26" style="fill: #ff0000"/>
     <use xlink:href="#m67d11d9877" x="346.949454" y="164.26" style="fill: #ff0000"/>
     <use xlink:href="#m67d11d9877" x="350.636414" y="164.26" style="fill: #ff0000"/>
     <use xlink:href="#m67d11d9877" x="354.323375" y="164.26" style="fill: #ff0000"/>
     <use xlink:href="#m67d11d9877" x="358.010335" y="164.26" style="fill: #ff0000"/>
     <use xlink:href="#m67d11d9877" x="361.697296" y="164.26" style="fill: #ff0000"/>
     <use xlink:href="#m67d11d9877" x="365.384256" y="164.26" style="fill: #ff0000"/>
     <use xlink:href="#m67d11d9877" x="369.071217" y="164.26" style="fill: #ff0000"/>
     <use xlink:href="#m67d11d9877" x="372.758177" y="164.26" style="fill: #ff0000"/>
     <use xlink:href="#m67d11d9877" x="376.445138" y="164.26" style="fill: #ff0000"/>
     <use xlink:href="#m67d11d9877" x="380.132098" y="164.26" style="fill: #ff0000"/>
     <use xlink:href="#m67d11d9877" x="383.819059" y="164.26" style="fill: #ff0000"/>
     <use xlink:href="#m67d11d9877" x="387.506019" y="164.26" style="fill: #ff0000"/>
     <use xlink:href="#m67d11d9877" x="391.19298" y="164.26" style="fill: #ff0000"/>
     <use xlink:href="#m67d11d9877" x="394.87994" y="164.26" style="fill: #ff0000"/>
     <use xlink:href="#m67d11d9877" x="398.566901" y="164.26" style="fill: #ff0000"/>
     <use xlink:href="#m67d11d9877" x="402.253861" y="164.26" style="fill: #ff0000"/>
     <use xlink:href="#m67d11d9877" x="405.940822" y="164.26" style="fill: #ff0000"/>
     <use xlink:href="#m67d11d9877" x="409.627782" y="164.26" style="fill: #ff0000"/>
     <use xlink:href="#m67d11d9877" x="413.314743" y="164.26" style="fill: #ff0000"/>
     <use xlink:href="#m67d11d9877" x="417.001703" y="164.26" style="fill: #ff0000"/>
     <use xlink:href="#m67d11d9877" x="420.688664" y="164.26" style="fill: #ff0000"/>
     <use xlink:href="#m67d11d9877" x="424.375624" y="164.26" style="fill: #ff0000"/>
     <use xlink:href="#m67d11d9877" x="428.062585" y="164.26" style="fill: #ff0000"/>
     <use xlink:href="#m67d11d9877" x="431.749545" y="164.26" style="fill: #ff0000"/>
    </g>
   </g>
   <g id="line2d_13">
    <path d="M 66.740455 164.26 
L 70.427415 164.26 
L 74.114376 164.26 
L 77.801336 164.26 
L 81.488297 164.26 
L 85.175257 164.26 
L 88.862218 164.26 
L 92.549178 164.26 
L 96.236139 164.26 
L 99.923099 164.26 
L 103.61006 164.26 
L 107.29702 164.26 
L 110.983981 164.26 
L 114.670941 164.26 
L 118.357902 164.26 
L 122.044862 164.26 
L 125.731823 164.26 
L 129.418783 164.26 
L 133.105744 164.26 
L 136.792704 164.26 
L 140.479665 164.26 
L 144.166625 164.26 
L 147.853586 164.26 
L 151.540546 164.26 
L 155.227507 164.26 
L 158.914467 164.26 
L 162.601428 164.26 
L 166.288388 164.26 
L 169.975349 164.26 
L 173.662309 164.26 
L 177.34927 164.26 
L 181.03623 164.26 
L 184.723191 164.26 
L 188.410152 164.26 
L 192.097112 164.26 
L 195.784073 164.26 
L 199.471033 164.26 
L 203.157994 164.26 
L 206.844954 164.26 
L 210.531915 164.26 
L 214.218875 164.26 
L 217.905836 164.26 
L 221.592796 164.26 
L 225.279757 164.26 
L 228.966717 164.26 
L 232.653678 164.26 
L 236.340638 164.26 
L 240.027599 164.26 
L 243.714559 164.26 
L 247.40152 164.26 
L 251.08848 164.26 
L 254.775441 164.26 
L 258.462401 164.26 
L 262.149362 164.26 
L 265.836322 164.26 
L 269.523283 164.26 
L 273.210243 164.26 
L 276.897204 164.26 
L 280.584164 164.26 
L 284.271125 164.26 
L 287.958085 164.26 
L 291.645046 164.26 
L 295.332006 164.26 
L 299.018967 164.26 
L 302.705927 164.26 
L 306.392888 164.26 
L 310.079848 164.26 
L 313.766809 164.26 
L 317.45377 164.26 
L 321.14073 164.26 
L 324.827691 164.26 
L 328.514651 164.26 
L 332.201612 164.26 
L 335.888572 164.26 
L 339.575533 164.26 
L 343.262493 164.26 
L 346.949454 164.26 
L 350.636414 164.26 
L 354.323375 164.26 
L 358.010335 164.26 
L 361.697296 164.26 
L 365.384256 164.26 
L 369.071217 164.26 
L 372.758177 164.26 
L 376.445138 164.26 
L 380.132098 164.26 
L 383.819059 164.26 
L 387.506019 164.26 
L 391.19298 164.26 
L 394.87994 164.26 
L 398.566901 164.26 
L 402.253861 164.26 
L 405.940822 164.26 
L 409.627782 164.26 
L 413.314743 164.26 
L 417.001703 164.26 
L 420.688664 164.26 
L 424.375624 164.26 
L 428.062585 164.26 
L 431.749545 164.26 
" clip-path="url(#p5385f0aabc)" style="fill: none; stroke: #ff0000; stroke-opacity: 0.5; stroke-width: 0.25; stroke-linecap: square"/>
    <defs>
     <path id="m28ff1dca89" d="M -0.49999 0.49999 
L 0.50001 0.49999 
L 0.50001 -0.50001 
L -0.49999 -0.50001 
z
"/>
    </defs>
    <g clip-path="url(#p5385f0aabc)">
     <use xlink:href="#m28ff1dca89" x="66.740455" y="164.26" style="fill: #ff0000; fill-opacity: 0.5"/>
     <use xlink:href="#m28ff1dca89" x="70.427415" y="164.26" style="fill: #ff0000; fill-opacity: 0.5"/>
     <use xlink:href="#m28ff1dca89" x="74.114376" y="164.26" style="fill: #ff0000; fill-opacity: 0.5"/>
     <use xlink:href="#m28ff1dca89" x="77.801336" y="164.26" style="fill: #ff0000; fill-opacity: 0.5"/>
     <use xlink:href="#m28ff1dca89" x="81.488297" y="164.26" style="fill: #ff0000; fill-opacity: 0.5"/>
     <use xlink:href="#m28ff1dca89" x="85.175257" y="164.26" style="fill: #ff0000; fill-opacity: 0.5"/>
     <use xlink:href="#m28ff1dca89" x="88.862218" y="164.26" style="fill: #ff0000; fill-opacity: 0.5"/>
     <use xlink:href="#m28ff1dca89" x="92.549178" y="164.26" style="fill: #ff0000; fill-opacity: 0.5"/>
     <use xlink:href="#m28ff1dca89" x="96.236139" y="164.26" style="fill: #ff0000; fill-opacity: 0.5"/>
     <use xlink:href="#m28ff1dca89" x="99.923099" y="164.26" style="fill: #ff0000; fill-opacity: 0.5"/>
     <use xlink:href="#m28ff1dca89" x="103.61006" y="164.26" style="fill: #ff0000; fill-opacity: 0.5"/>
     <use xlink:href="#m28ff1dca89" x="107.29702" y="164.26" style="fill: #ff0000; fill-opacity: 0.5"/>
     <use xlink:href="#m28ff1dca89" x="110.983981" y="164.26" style="fill: #ff0000; fill-opacity: 0.5"/>
     <use xlink:href="#m28ff1dca89" x="114.670941" y="164.26" style="fill: #ff0000; fill-opacity: 0.5"/>
     <use xlink:href="#m28ff1dca89" x="118.357902" y="164.26" style="fill: #ff0000; fill-opacity: 0.5"/>
     <use xlink:href="#m28ff1dca89" x="122.044862" y="164.26" style="fill: #ff0000; fill-opacity: 0.5"/>
     <use xlink:href="#m28ff1dca89" x="125.731823" y="164.26" style="fill: #ff0000; fill-opacity: 0.5"/>
     <use xlink:href="#m28ff1dca89" x="129.418783" y="164.26" style="fill: #ff0000; fill-opacity: 0.5"/>
     <use xlink:href="#m28ff1dca89" x="133.105744" y="164.26" style="fill: #ff0000; fill-opacity: 0.5"/>
     <use xlink:href="#m28ff1dca89" x="136.792704" y="164.26" style="fill: #ff0000; fill-opacity: 0.5"/>
     <use xlink:href="#m28ff1dca89" x="140.479665" y="164.26" style="fill: #ff0000; fill-opacity: 0.5"/>
     <use xlink:href="#m28ff1dca89" x="144.166625" y="164.26" style="fill: #ff0000; fill-opacity: 0.5"/>
     <use xlink:href="#m28ff1dca89" x="147.853586" y="164.26" style="fill: #ff0000; fill-opacity: 0.5"/>
     <use xlink:href="#m28ff1dca89" x="151.540546" y="164.26" style="fill: #ff0000; fill-opacity: 0.5"/>
     <use xlink:href="#m28ff1dca89" x="155.227507" y="164.26" style="fill: #ff0000; fill-opacity: 0.5"/>
     <use xlink:href="#m28ff1dca89" x="158.914467" y="164.26" style="fill: #ff0000; fill-opacity: 0.5"/>
     <use xlink:href="#m28ff1dca89" x="162.601428" y="164.26" style="fill: #ff0000; fill-opacity: 0.5"/>
     <use xlink:href="#m28ff1dca89" x="166.288388" y="164.26" style="fill: #ff0000; fill-opacity: 0.5"/>
     <use xlink:href="#m28ff1dca89" x="169.975349" y="164.26" style="fill: #ff0000; fill-opacity: 0.5"/>
     <use xlink:href="#m28ff1dca89" x="173.662309" y="164.26" style="fill: #ff0000; fill-opacity: 0.5"/>
     <use xlink:href="#m28ff1dca89" x="177.34927" y="164.26" style="fill: #ff0000; fill-opacity: 0.5"/>
     <use xlink:href="#m28ff1dca89" x="181.03623" y="164.26" style="fill: #ff0000; fill-opacity: 0.5"/>
     <use xlink:href="#m28ff1dca89" x="184.723191" y="164.26" style="fill: #ff0000; fill-opacity: 0.5"/>
     <use xlink:href="#m28ff1dca89" x="188.410152" y="164.26" style="fill: #ff0000; fill-opacity: 0.5"/>
     <use xlink:href="#m28ff1dca89" x="192.097112" y="164.26" style="fill: #ff0000; fill-opacity: 0.5"/>
     <use xlink:href="#m28ff1dca89" x="195.784073" y="164.26" style="fill: #ff0000; fill-opacity: 0.5"/>
     <use xlink:href="#m28ff1dca89" x="199.471033" y="164.26" style="fill: #ff0000; fill-opacity: 0.5"/>
     <use xlink:href="#m28ff1dca89" x="203.157994" y="164.26" style="fill: #ff0000; fill-opacity: 0.5"/>
     <use xlink:href="#m28ff1dca89" x="206.844954" y="164.26" style="fill: #ff0000; fill-opacity: 0.5"/>
     <use xlink:href="#m28ff1dca89" x="210.531915" y="164.26" style="fill: #ff0000; fill-opacity: 0.5"/>
     <use xlink:href="#m28ff1dca89" x="214.218875" y="164.26" style="fill: #ff0000; fill-opacity: 0.5"/>
     <use xlink:href="#m28ff1dca89" x="217.905836" y="164.26" style="fill: #ff0000; fill-opacity: 0.5"/>
     <use xlink:href="#m28ff1dca89" x="221.592796" y="164.26" style="fill: #ff0000; fill-opacity: 0.5"/>
     <use xlink:href="#m28ff1dca89" x="225.279757" y="164.26" style="fill: #ff0000; fill-opacity: 0.5"/>
     <use xlink:href="#m28ff1dca89" x="228.966717" y="164.26" style="fill: #ff0000; fill-opacity: 0.5"/>
     <use xlink:href="#m28ff1dca89" x="232.653678" y="164.26" style="fill: #ff0000; fill-opacity: 0.5"/>
     <use xlink:href="#m28ff1dca89" x="236.340638" y="164.26" style="fill: #ff0000; fill-opacity: 0.5"/>
     <use xlink:href="#m28ff1dca89" x="240.027599" y="164.26" style="fill: #ff0000; fill-opacity: 0.5"/>
     <use xlink:href="#m28ff1dca89" x="243.714559" y="164.26" style="fill: #ff0000; fill-opacity: 0.5"/>
     <use xlink:href="#m28ff1dca89" x="247.40152" y="164.26" style="fill: #ff0000; fill-opacity: 0.5"/>
     <use xlink:href="#m28ff1dca89" x="251.08848" y="164.26" style="fill: #ff0000; fill-opacity: 0.5"/>
     <use xlink:href="#m28ff1dca89" x="254.775441" y="164.26" style="fill: #ff0000; fill-opacity: 0.5"/>
     <use xlink:href="#m28ff1dca89" x="258.462401" y="164.26" style="fill: #ff0000; fill-opacity: 0.5"/>
     <use xlink:href="#m28ff1dca89" x="262.149362" y="164.26" style="fill: #ff0000; fill-opacity: 0.5"/>
     <use xlink:href="#m28ff1dca89" x="265.836322" y="164.26" style="fill: #ff0000; fill-opacity: 0.5"/>
     <use xlink:href="#m28ff1dca89" x="269.523283" y="164.26" style="fill: #ff0000; fill-opacity: 0.5"/>
     <use xlink:href="#m28ff1dca89" x="273.210243" y="164.26" style="fill: #ff0000; fill-opacity: 0.5"/>
     <use xlink:href="#m28ff1dca89" x="276.897204" y="164.26" style="fill: #ff0000; fill-opacity: 0.5"/>
     <use xlink:href="#m28ff1dca89" x="280.584164" y="164.26" style="fill: #ff0000; fill-opacity: 0.5"/>
     <use xlink:href="#m28ff1dca89" x="284.271125" y="164.26" style="fill: #ff0000; fill-opacity: 0.5"/>
     <use xlink:href="#m28ff1dca89" x="287.958085" y="164.26" style="fill: #ff0000; fill-opacity: 0.5"/>
     <use xlink:href="#m28ff1dca89" x="291.645046" y="164.26" style="fill: #ff0000; fill-opacity: 0.5"/>
     <use xlink:href="#m28ff1dca89" x="295.332006" y="164.26" style="fill: #ff0000; fill-opacity: 0.5"/>
     <use xlink:href="#m28ff1dca89" x="299.018967" y="164.26" style="fill: #ff0000; fill-opacity: 0.5"/>
     <use xlink:href="#m28ff1dca89" x="302.705927" y="164.26" style="fill: #ff0000; fill-opacity: 0.5"/>
     <use xlink:href="#m28ff1dca89" x="306.392888" y="164.26" style="fill: #ff0000; fill-opacity: 0.5"/>
     <use xlink:href="#m28ff1dca89" x="310.079848" y="164.26" style="fill: #ff0000; fill-opacity: 0.5"/>
     <use xlink:href="#m28ff1dca89" x="313.766809" y="164.26" style="fill: #ff0000; fill-opacity: 0.5"/>
     <use xlink:href="#m28ff1dca89" x="317.45377" y="164.26" style="fill: #ff0000; fill-opacity: 0.5"/>
     <use xlink:href="#m28ff1dca89" x="321.14073" y="164.26" style="fill: #ff0000; fill-opacity: 0.5"/>
     <use xlink:href="#m28ff1dca89" x="324.827691" y="164.26" style="fill: #ff0000; fill-opacity: 0.5"/>
     <use xlink:href="#m28ff1dca89" x="328.514651" y="164.26" style="fill: #ff0000; fill-opacity: 0.5"/>
     <use xlink:href="#m28ff1dca89" x="332.201612" y="164.26" style="fill: #ff0000; fill-opacity: 0.5"/>
     <use xlink:href="#m28ff1dca89" x="335.888572" y="164.26" style="fill: #ff0000; fill-opacity: 0.5"/>
     <use xlink:href="#m28ff1dca89" x="339.575533" y="164.26" style="fill: #ff0000; fill-opacity: 0.5"/>
     <use xlink:href="#m28ff1dca89" x="343.262493" y="164.26" style="fill: #ff0000; fill-opacity: 0.5"/>
     <use xlink:href="#m28ff1dca89" x="346.949454" y="164.26" style="fill: #ff0000; fill-opacity: 0.5"/>
     <use xlink:href="#m28ff1dca89" x="350.636414" y="164.26" style="fill: #ff0000; fill-opacity: 0.5"/>
     <use xlink:href="#m28ff1dca89" x="354.323375" y="164.26" style="fill: #ff0000; fill-opacity: 0.5"/>
     <use xlink:href="#m28ff1dca89" x="358.010335" y="164.26" style="fill: #ff0000; fill-opacity: 0.5"/>
     <use xlink:href="#m28ff1dca89" x="361.697296" y="164.26" style="fill: #ff0000; fill-opacity: 0.5"/>
     <use xlink:href="#m28ff1dca89" x="365.384256" y="164.26" style="fill: #ff0000; fill-opacity: 0.5"/>
     <use xlink:href="#m28ff1dca89" x="369.071217" y="164.26" style="fill: #ff0000; fill-opacity: 0.5"/>
     <use xlink:href="#m28ff1dca89" x="372.758177" y="164.26" style="fill: #ff0000; fill-opacity: 0.5"/>
     <use xlink:href="#m28ff1dca89" x="376.445138" y="164.26" style="fill: #ff0000; fill-opacity: 0.5"/>
     <use xlink:href="#m28ff1dca89" x="380.132098" y="164.26" style="fill: #ff0000; fill-opacity: 0.5"/>
     <use xlink:href="#m28ff1dca89" x="383.819059" y="164.26" style="fill: #ff0000; fill-opacity: 0.5"/>
     <use xlink:href="#m28ff1dca89" x="387.506019" y="164.26" style="fill: #ff0000; fill-opacity: 0.5"/>
     <use xlink:href="#m28ff1dca89" x="391.19298" y="164.26" style="fill: #ff0000; fill-opacity: 0.5"/>
     <use xlink:href="#m28ff1dca89" x="394.87994" y="164.26" style="fill: #ff0000; fill-opacity: 0.5"/>
     <use xlink:href="#m28ff1dca89" x="398.566901" y="164.26" style="fill: #ff0000; fill-opacity: 0.5"/>
     <use xlink:href="#m28ff1dca89" x="402.253861" y="164.26" style="fill: #ff0000; fill-opacity: 0.5"/>
     <use xlink:href="#m28ff1dca89" x="405.940822" y="164.26" style="fill: #ff0000; fill-opacity: 0.5"/>
     <use xlink:href="#m28ff1dca89" x="409.627782" y="164.26" style="fill: #ff0000; fill-opacity: 0.5"/>
     <use xlink:href="#m28ff1dca89" x="413.314743" y="164.26" style="fill: #ff0000; fill-opacity: 0.5"/>
     <use xlink:href="#m28ff1dca89" x="417.001703" y="164.26" style="fill: #ff0000; fill-opacity: 0.5"/>
     <use xlink:href="#m28ff1dca89" x="420.688664" y="164.26" style="fill: #ff0000; fill-opacity: 0.5"/>
     <use xlink:href="#m28ff1dca89" x="424.375624" y="164.26" style="fill: #ff0000; fill-opacity: 0.5"/>
     <use xlink:href="#m28ff1dca89" x="428.062585" y="164.26" style="fill: #ff0000; fill-opacity: 0.5"/>
     <use xlink:href="#m28ff1dca89" x="431.749545" y="164.26" style="fill: #ff0000; fill-opacity: 0.5"/>
    </g>
   </g>
   <g id="patch_3">
    <path d="M 48.49 317.72 
L 48.49 10.8 
" style="fill: none; stroke: #000000; stroke-width: 0.8; stroke-linejoin: miter; stroke-linecap: square"/>
   </g>
   <g id="patch_4">
    <path d="M 450 317.72 
L 450 10.8 
" style="fill: none; stroke: #000000; stroke-width: 0.8; stroke-linejoin: miter; stroke-linecap: square"/>
   </g>
   <g id="patch_5">
    <path d="M 48.49 317.72 
L 450 317.72 
" style="fill: none; stroke: #000000; stroke-width: 0.8; stroke-linejoin: miter; stroke-linecap: square"/>
   </g>
   <g id="patch_6">
    <path d="M 48.49 10.8 
L 450 10.8 
" style="fill: none; stroke: #000000; stroke-width: 0.8; stroke-linejoin: miter; stroke-linecap: square"/>
   </g>
   <g id="legend_1">
    <g id="patch_7">
     <path d="M 340.282812 48.15625 
L 443 48.15625 
Q 445 48.15625 445 46.15625 
L 445 17.8 
Q 445 15.8 443 15.8 
L 340.282812 15.8 
Q 338.282812 15.8 338.282812 17.8 
L 338.282812 46.15625 
Q 338.282812 48.15625 340.282812 48.15625 
z
" style="fill: #ffffff; opacity: 0.8; stroke: #cccccc; stroke-linejoin: miter"/>
    </g>
    <g id="line2d_14">
     <path d="M 342.282812 23.898438 
L 352.282812 23.898438 
L 362.282812 23.898438 
" style="fill: none; stroke: #ff0000; stroke-width: 0.5; stroke-linecap: square"/>
     <g>
      <use xlink:href="#m67d11d9877" x="352.282812" y="23.898438" style="fill: #ff0000"/>
     </g>
    </g>
    <g id="text_12">
     <!-- DEFECT -->
     <g transform="translate(370.282812 27.398438) scale(0.1 -0.1)">
      <defs>
       <path id="DejaVuSans-44" d="M 1259 4147 
L 1259 519 
L 2022 519 
Q 2988 519 3436 956 
Q 3884 1394 3884 2338 
Q 3884 3275 3436 3711 
Q 2988 4147 2022 4147 
L 1259 4147 
z
M 628 4666 
L 1925 4666 
Q 3281 4666 3915 4102 
Q 4550 3538 4550 2338 
Q 4550 1131 3912 565 
Q 3275 0 1925 0 
L 628 0 
L 628 4666 
z
" transform="scale(0.015625)"/>
       <path id="DejaVuSans-45" d="M 628 4666 
L 3578 4666 
L 3578 4134 
L 1259 4134 
L 1259 2753 
L 3481 2753 
L 3481 2222 
L 1259 2222 
L 1259 531 
L 3634 531 
L 3634 0 
L 628 0 
L 628 4666 
z
" transform="scale(0.015625)"/>
       <path id="DejaVuSans-46" d="M 628 4666 
L 3309 4666 
L 3309 4134 
L 1259 4134 
L 1259 2759 
L 3109 2759 
L 3109 2228 
L 1259 2228 
L 1259 0 
L 628 0 
L 628 4666 
z
" transform="scale(0.015625)"/>
       <path id="DejaVuSans-43" d="M 4122 4306 
L 4122 3641 
Q 3803 3938 3442 4084 
Q 3081 4231 2675 4231 
Q 1875 4231 1450 3742 
Q 1025 3253 1025 2328 
Q 1025 1406 1450 917 
Q 1875 428 2675 428 
Q 3081 428 3442 575 
Q 3803 722 4122 1019 
L 4122 359 
Q 3791 134 3420 21 
Q 3050 -91 2638 -91 
Q 1578 -91 968 557 
Q 359 1206 359 2328 
Q 359 3453 968 4101 
Q 1578 4750 2638 4750 
Q 3056 4750 3426 4639 
Q 3797 4528 4122 4306 
z
" transform="scale(0.015625)"/>
       <path id="DejaVuSans-54" d="M -19 4666 
L 3928 4666 
L 3928 4134 
L 2272 4134 
L 2272 0 
L 1638 0 
L 1638 4134 
L -19 4134 
L -19 4666 
z
" transform="scale(0.015625)"/>
      </defs>
      <use xlink:href="#DejaVuSans-44"/>
      <use xlink:href="#DejaVuSans-45" x="77.001953"/>
      <use xlink:href="#DejaVuSans-46" x="140.185547"/>
      <use xlink:href="#DejaVuSans-45" x="197.705078"/>
      <use xlink:href="#DejaVuSans-43" x="260.888672"/>
      <use xlink:href="#DejaVuSans-54" x="330.712891"/>
     </g>
    </g>
    <g id="line2d_15">
     <path d="M 342.282812 38.576563 
L 352.282812 38.576563 
L 362.282812 38.576563 
" style="fill: none; stroke: #ff0000; stroke-opacity: 0.5; stroke-width: 0.25; stroke-linecap: square"/>
     <g>
      <use xlink:href="#m28ff1dca89" x="352.282812" y="38.576563" style="fill: #ff0000; fill-opacity: 0.5"/>
     </g>
    </g>
    <g id="text_13">
     <!-- DEFECT mean -->
     <g transform="translate(370.282812 42.076563) scale(0.1 -0.1)">
      <defs>
       <path id="DejaVuSans-20" transform="scale(0.015625)"/>
       <path id="DejaVuSans-6d" d="M 3328 2828 
Q 3544 3216 3844 3400 
Q 4144 3584 4550 3584 
Q 5097 3584 5394 3201 
Q 5691 2819 5691 2113 
L 5691 0 
L 5113 0 
L 5113 2094 
Q 5113 2597 4934 2840 
Q 4756 3084 4391 3084 
Q 3944 3084 3684 2787 
Q 3425 2491 3425 1978 
L 3425 0 
L 2847 0 
L 2847 2094 
Q 2847 2600 2669 2842 
Q 2491 3084 2119 3084 
Q 1678 3084 1418 2786 
Q 1159 2488 1159 1978 
L 1159 0 
L 581 0 
L 581 3500 
L 1159 3500 
L 1159 2956 
Q 1356 3278 1631 3431 
Q 1906 3584 2284 3584 
Q 2666 3584 2933 3390 
Q 3200 3197 3328 2828 
z
" transform="scale(0.015625)"/>
       <path id="DejaVuSans-65" d="M 3597 1894 
L 3597 1613 
L 953 1613 
Q 991 1019 1311 708 
Q 1631 397 2203 397 
Q 2534 397 2845 478 
Q 3156 559 3463 722 
L 3463 178 
Q 3153 47 2828 -22 
Q 2503 -91 2169 -91 
Q 1331 -91 842 396 
Q 353 884 353 1716 
Q 353 2575 817 3079 
Q 1281 3584 2069 3584 
Q 2775 3584 3186 3129 
Q 3597 2675 3597 1894 
z
M 3022 2063 
Q 3016 2534 2758 2815 
Q 2500 3097 2075 3097 
Q 1594 3097 1305 2825 
Q 1016 2553 972 2059 
L 3022 2063 
z
" transform="scale(0.015625)"/>
       <path id="DejaVuSans-61" d="M 2194 1759 
Q 1497 1759 1228 1600 
Q 959 1441 959 1056 
Q 959 750 1161 570 
Q 1363 391 1709 391 
Q 2188 391 2477 730 
Q 2766 1069 2766 1631 
L 2766 1759 
L 2194 1759 
z
M 3341 1997 
L 3341 0 
L 2766 0 
L 2766 531 
Q 2569 213 2275 61 
Q 1981 -91 1556 -91 
Q 1019 -91 701 211 
Q 384 513 384 1019 
Q 384 1609 779 1909 
Q 1175 2209 1959 2209 
L 2766 2209 
L 2766 2266 
Q 2766 2663 2505 2880 
Q 2244 3097 1772 3097 
Q 1472 3097 1187 3025 
Q 903 2953 641 2809 
L 641 3341 
Q 956 3463 1253 3523 
Q 1550 3584 1831 3584 
Q 2591 3584 2966 3190 
Q 3341 2797 3341 1997 
z
" transform="scale(0.015625)"/>
       <path id="DejaVuSans-6e" d="M 3513 2113 
L 3513 0 
L 2938 0 
L 2938 2094 
Q 2938 2591 2744 2837 
Q 2550 3084 2163 3084 
Q 1697 3084 1428 2787 
Q 1159 2491 1159 1978 
L 1159 0 
L 581 0 
L 581 3500 
L 1159 3500 
L 1159 2956 
Q 1366 3272 1645 3428 
Q 1925 3584 2291 3584 
Q 2894 3584 3203 3211 
Q 3513 2838 3513 2113 
z
" transform="scale(0.015625)"/>
      </defs>
      <use xlink:href="#DejaVuSans-44"/>
      <use xlink:href="#DejaVuSans-45" x="77.001953"/>
      <use xlink:href="#DejaVuSans-46" x="140.185547"/>
      <use xlink:href="#DejaVuSans-45" x="197.705078"/>
      <use xlink:href="#DejaVuSans-43" x="260.888672"/>
      <use xlink:href="#DejaVuSans-54" x="330.712891"/>
      <use xlink:href="#DejaVuSans-20" x="391.796875"/>
      <use xlink:href="#DejaVuSans-6d" x="423.583984"/>
      <use xlink:href="#DejaVuSans-65" x="520.996094"/>
      <use xlink:href="#DejaVuSans-61" x="582.519531"/>
      <use xlink:href="#DejaVuSans-6e" x="643.798828"/>
     </g>
    </g>
   </g>
  </g>
 </g>
 <defs>
  <clipPath id="p5385f0aabc">
   <rect x="48.49" y="10.8" width="401.51" height="306.92"/>
  </clipPath>
 </defs>
</svg>
