<?xml version="1.0" encoding="utf-8" standalone="no"?>
<!DOCTYPE svg PUBLIC "-//W3C//DTD SVG 1.1//EN"
  "http://www.w3.org/Graphics/SVG/1.1/DTD/svg11.dtd">
<svg xmlns:xlink="http://www.w3.org/1999/xlink" width="460.8pt" height="345.6pt" viewBox="0 0 460.8 345.6" xmlns="http://www.w3.org/2000/svg" version="1.1">
 <metadata>
  <rdf:RDF xmlns:dc="http://purl.org/dc/elements/1.1/" xmlns:cc="http://creativecommons.org/ns#" xmlns:rdf="http://www.w3.org/1999/02/22-rdf-syntax-ns#">
   <cc:Work>
    <dc:type rdf:resource="http://purl.org/dc/dcmitype/StillImage"/>
    <dc:date>2024-04-17T09:31:19.211547</dc:date>
    <dc:format>image/svg+xml</dc:format>
    <dc:creator>
     <cc:Agent>
      <dc:title>Matplotlib v3.8.0, https://matplotlib.org/</dc:title>
     </cc:Agent>
    </dc:creator>
   </cc:Work>
  </rdf:RDF>
 </metadata>
 <defs>
  <style type="text/css">*{stroke-linejoin: round; stroke-linecap: butt}</style>
 </defs>
 <g id="figure_1">
  <g id="patch_1">
   <path d="M 0 345.6 
L 460.8 345.6 
L 460.8 0 
L 0 0 
z
" style="fill: #ffffff"/>
  </g>
  <g id="axes_1">
   <g id="patch_2">
    <path d="M 47.81 303.64 
L 450 303.64 
L 450 25.44 
L 47.81 25.44 
z
" style="fill: #ffffff"/>
   </g>
   <g id="PolyCollection_1">
    <defs>
     <path id="mf862a4de3f" d="M 66.091364 -76.058097 
L 66.091364 -76.058097 
L 69.822254 -201.09326 
L 73.553145 -228.497016 
L 77.284035 -246.420123 
L 81.014926 -259.641329 
L 84.745816 -269.538059 
L 88.476707 -276.692011 
L 92.207597 -282.092531 
L 95.938488 -286.562826 
L 99.669378 -290.303549 
L 103.400269 -293.295075 
L 107.13116 -295.590516 
L 110.86205 -297.266778 
L 114.592941 -298.500856 
L 118.323831 -299.57851 
L 122.054722 -300.524581 
L 125.785612 -301.294687 
L 129.516503 -301.812389 
L 133.247393 -302.286859 
L 136.978284 -302.721819 
L 140.709174 -303.16161 
L 144.440065 -303.562654 
L 148.170955 -303.963009 
L 151.901846 -304.35888 
L 155.632737 -304.747584 
L 159.363627 -305.0737 
L 163.094518 -305.371147 
L 166.825408 -305.642892 
L 170.556299 -305.891527 
L 174.287189 -306.119323 
L 178.01808 -306.29167 
L 181.74897 -306.46778 
L 185.479861 -306.646111 
L 189.210751 -306.810196 
L 192.941642 -306.961286 
L 196.672532 -307.114 
L 200.403423 -307.24189 
L 204.134314 -307.359826 
L 207.865204 -307.434719 
L 211.596095 -307.482784 
L 215.326985 -307.497451 
L 219.057876 -307.511016 
L 222.788766 -307.514545 
L 226.519657 -307.509142 
L 230.250547 -307.487752 
L 233.981438 -307.459853 
L 237.712328 -307.411693 
L 241.443219 -307.366274 
L 245.174109 -307.323341 
L 248.905 -307.276304 
L 252.635891 -307.237821 
L 256.366781 -307.201197 
L 260.097672 -307.166269 
L 263.828562 -307.138375 
L 267.559453 -307.111582 
L 271.290343 -307.085791 
L 275.021234 -307.060912 
L 278.752124 -307.027366 
L 282.483015 -306.995086 
L 286.213905 -306.959562 
L 289.944796 -306.929612 
L 293.675686 -306.904811 
L 297.406577 -306.880726 
L 301.137468 -306.861216 
L 304.868358 -306.845937 
L 308.599249 -306.823494 
L 312.330139 -306.801583 
L 316.06103 -306.78363 
L 319.79192 -306.765978 
L 323.522811 -306.751883 
L 327.253701 -306.741099 
L 330.984592 -306.733394 
L 334.715482 -306.725506 
L 338.446373 -306.714487 
L 342.177263 -306.700556 
L 345.908154 -306.686695 
L 349.639045 -306.672898 
L 353.369935 -306.661802 
L 357.100826 -306.650652 
L 360.831716 -306.641968 
L 364.562607 -306.630673 
L 368.293497 -306.616936 
L 372.024388 -306.60324 
L 375.755278 -306.589581 
L 379.486169 -306.575956 
L 383.217059 -306.562363 
L 386.94795 -306.550917 
L 390.67884 -306.541498 
L 394.409731 -306.533993 
L 398.140622 -306.524309 
L 401.871512 -306.510643 
L 405.602403 -306.495122 
L 409.333293 -306.479691 
L 413.064184 -306.464347 
L 416.795074 -306.450852 
L 420.525965 -306.435652 
L 424.256855 -306.418846 
L 427.987746 -306.400525 
L 431.718636 -306.382383 
L 431.718636 -254.918595 
L 431.718636 -254.918595 
L 427.987746 -254.707971 
L 424.256855 -254.494177 
L 420.525965 -254.276363 
L 416.795074 -254.054414 
L 413.064184 -253.828213 
L 409.333293 -253.599248 
L 405.602403 -253.36664 
L 401.871512 -253.130291 
L 398.140622 -252.889241 
L 394.409731 -252.642484 
L 390.67884 -252.390722 
L 386.94795 -252.135586 
L 383.217059 -251.877009 
L 379.486169 -251.614922 
L 375.755278 -251.348273 
L 372.024388 -251.07693 
L 368.293497 -250.800756 
L 364.562607 -250.519605 
L 360.831716 -250.23226 
L 357.100826 -249.938514 
L 353.369935 -249.640363 
L 349.639045 -249.336558 
L 345.908154 -249.028098 
L 342.177263 -248.713657 
L 338.446373 -248.393041 
L 334.715482 -248.064775 
L 330.984592 -247.72858 
L 327.253701 -247.385478 
L 323.522811 -247.036597 
L 319.79192 -246.681788 
L 316.06103 -246.3209 
L 312.330139 -245.952247 
L 308.599249 -245.577123 
L 304.868358 -245.193722 
L 301.137468 -244.798408 
L 297.406577 -244.395758 
L 293.675686 -243.985565 
L 289.944796 -243.565764 
L 286.213905 -243.137894 
L 282.483015 -242.701727 
L 278.752124 -242.252858 
L 275.021234 -241.792827 
L 271.290343 -241.316781 
L 267.559453 -240.8284 
L 263.828562 -240.327143 
L 260.097672 -239.812437 
L 256.366781 -239.286204 
L 252.635891 -238.745395 
L 248.905 -238.189329 
L 245.174109 -237.620164 
L 241.443219 -237.031389 
L 237.712328 -236.425022 
L 233.981438 -235.800175 
L 230.250547 -235.145827 
L 226.519657 -234.466985 
L 222.788766 -233.758681 
L 219.057876 -233.022652 
L 215.326985 -232.257162 
L 211.596095 -231.464182 
L 207.865204 -230.630072 
L 204.134314 -229.756169 
L 200.403423 -228.835822 
L 196.672532 -227.878206 
L 192.941642 -226.876474 
L 189.210751 -225.836372 
L 185.479861 -224.750553 
L 181.74897 -223.615608 
L 178.01808 -222.433089 
L 174.287189 -221.199547 
L 170.556299 -219.892918 
L 166.825408 -218.519258 
L 163.094518 -217.072686 
L 159.363627 -215.546573 
L 155.632737 -213.93341 
L 151.901846 -212.216802 
L 148.170955 -210.402687 
L 144.440065 -208.481234 
L 140.709174 -206.441158 
L 136.978284 -204.257995 
L 133.247393 -201.926589 
L 129.516503 -199.414815 
L 125.785612 -196.697888 
L 122.054722 -193.697396 
L 118.323831 -190.403972 
L 114.592941 -186.787204 
L 110.86205 -182.790138 
L 107.13116 -178.30016 
L 103.400269 -173.227744 
L 99.669378 -167.48247 
L 95.938488 -160.940146 
L 92.207597 -153.419821 
L 88.476707 -144.636954 
L 84.745816 -134.181356 
L 81.014926 -121.507327 
L 77.284035 -105.667881 
L 73.553145 -84.747542 
L 69.822254 -54.605455 
L 66.091364 -76.058097 
z
" style="stroke: #ff0000; stroke-opacity: 0.2"/>
    </defs>
    <g clip-path="url(#pbf32d738ba)">
     <use xlink:href="#mf862a4de3f" x="0" y="345.6" style="fill: #ff0000; fill-opacity: 0.2; stroke: #ff0000; stroke-opacity: 0.2"/>
    </g>
   </g>
   <g id="matplotlib.axis_1">
    <g id="xtick_1">
     <g id="line2d_1">
      <defs>
       <path id="mb0b7065f5c" d="M 0 0 
L 0 3.5 
" style="stroke: #000000; stroke-width: 0.8"/>
      </defs>
      <g>
       <use xlink:href="#mb0b7065f5c" x="66.091364" y="303.64" style="stroke: #000000; stroke-width: 0.8"/>
      </g>
     </g>
     <g id="text_1">
      <!-- 0 -->
      <g transform="translate(62.910114 318.238437) scale(0.1 -0.1)">
       <defs>
        <path id="DejaVuSans-30" d="M 2034 4250 
Q 1547 4250 1301 3770 
Q 1056 3291 1056 2328 
Q 1056 1369 1301 889 
Q 1547 409 2034 409 
Q 2525 409 2770 889 
Q 3016 1369 3016 2328 
Q 3016 3291 2770 3770 
Q 2525 4250 2034 4250 
z
M 2034 4750 
Q 2819 4750 3233 4129 
Q 3647 3509 3647 2328 
Q 3647 1150 3233 529 
Q 2819 -91 2034 -91 
Q 1250 -91 836 529 
Q 422 1150 422 2328 
Q 422 3509 836 4129 
Q 1250 4750 2034 4750 
z
" transform="scale(0.015625)"/>
       </defs>
       <use xlink:href="#DejaVuSans-30"/>
      </g>
     </g>
    </g>
    <g id="xtick_2">
     <g id="line2d_2">
      <g>
       <use xlink:href="#mb0b7065f5c" x="140.709174" y="303.64" style="stroke: #000000; stroke-width: 0.8"/>
      </g>
     </g>
     <g id="text_2">
      <!-- 20 -->
      <g transform="translate(134.346674 318.238437) scale(0.1 -0.1)">
       <defs>
        <path id="DejaVuSans-32" d="M 1228 531 
L 3431 531 
L 3431 0 
L 469 0 
L 469 531 
Q 828 903 1448 1529 
Q 2069 2156 2228 2338 
Q 2531 2678 2651 2914 
Q 2772 3150 2772 3378 
Q 2772 3750 2511 3984 
Q 2250 4219 1831 4219 
Q 1534 4219 1204 4116 
Q 875 4013 500 3803 
L 500 4441 
Q 881 4594 1212 4672 
Q 1544 4750 1819 4750 
Q 2544 4750 2975 4387 
Q 3406 4025 3406 3419 
Q 3406 3131 3298 2873 
Q 3191 2616 2906 2266 
Q 2828 2175 2409 1742 
Q 1991 1309 1228 531 
z
" transform="scale(0.015625)"/>
       </defs>
       <use xlink:href="#DejaVuSans-32"/>
       <use xlink:href="#DejaVuSans-30" x="63.623047"/>
      </g>
     </g>
    </g>
    <g id="xtick_3">
     <g id="line2d_3">
      <g>
       <use xlink:href="#mb0b7065f5c" x="215.326985" y="303.64" style="stroke: #000000; stroke-width: 0.8"/>
      </g>
     </g>
     <g id="text_3">
      <!-- 40 -->
      <g transform="translate(208.964485 318.238437) scale(0.1 -0.1)">
       <defs>
        <path id="DejaVuSans-34" d="M 2419 4116 
L 825 1625 
L 2419 1625 
L 2419 4116 
z
M 2253 4666 
L 3047 4666 
L 3047 1625 
L 3713 1625 
L 3713 1100 
L 3047 1100 
L 3047 0 
L 2419 0 
L 2419 1100 
L 313 1100 
L 313 1709 
L 2253 4666 
z
" transform="scale(0.015625)"/>
       </defs>
       <use xlink:href="#DejaVuSans-34"/>
       <use xlink:href="#DejaVuSans-30" x="63.623047"/>
      </g>
     </g>
    </g>
    <g id="xtick_4">
     <g id="line2d_4">
      <g>
       <use xlink:href="#mb0b7065f5c" x="289.944796" y="303.64" style="stroke: #000000; stroke-width: 0.8"/>
      </g>
     </g>
     <g id="text_4">
      <!-- 60 -->
      <g transform="translate(283.582296 318.238437) scale(0.1 -0.1)">
       <defs>
        <path id="DejaVuSans-36" d="M 2113 2584 
Q 1688 2584 1439 2293 
Q 1191 2003 1191 1497 
Q 1191 994 1439 701 
Q 1688 409 2113 409 
Q 2538 409 2786 701 
Q 3034 994 3034 1497 
Q 3034 2003 2786 2293 
Q 2538 2584 2113 2584 
z
M 3366 4563 
L 3366 3988 
Q 3128 4100 2886 4159 
Q 2644 4219 2406 4219 
Q 1781 4219 1451 3797 
Q 1122 3375 1075 2522 
Q 1259 2794 1537 2939 
Q 1816 3084 2150 3084 
Q 2853 3084 3261 2657 
Q 3669 2231 3669 1497 
Q 3669 778 3244 343 
Q 2819 -91 2113 -91 
Q 1303 -91 875 529 
Q 447 1150 447 2328 
Q 447 3434 972 4092 
Q 1497 4750 2381 4750 
Q 2619 4750 2861 4703 
Q 3103 4656 3366 4563 
z
" transform="scale(0.015625)"/>
       </defs>
       <use xlink:href="#DejaVuSans-36"/>
       <use xlink:href="#DejaVuSans-30" x="63.623047"/>
      </g>
     </g>
    </g>
    <g id="xtick_5">
     <g id="line2d_5">
      <g>
       <use xlink:href="#mb0b7065f5c" x="364.562607" y="303.64" style="stroke: #000000; stroke-width: 0.8"/>
      </g>
     </g>
     <g id="text_5">
      <!-- 80 -->
      <g transform="translate(358.200107 318.238437) scale(0.1 -0.1)">
       <defs>
        <path id="DejaVuSans-38" d="M 2034 2216 
Q 1584 2216 1326 1975 
Q 1069 1734 1069 1313 
Q 1069 891 1326 650 
Q 1584 409 2034 409 
Q 2484 409 2743 651 
Q 3003 894 3003 1313 
Q 3003 1734 2745 1975 
Q 2488 2216 2034 2216 
z
M 1403 2484 
Q 997 2584 770 2862 
Q 544 3141 544 3541 
Q 544 4100 942 4425 
Q 1341 4750 2034 4750 
Q 2731 4750 3128 4425 
Q 3525 4100 3525 3541 
Q 3525 3141 3298 2862 
Q 3072 2584 2669 2484 
Q 3125 2378 3379 2068 
Q 3634 1759 3634 1313 
Q 3634 634 3220 271 
Q 2806 -91 2034 -91 
Q 1263 -91 848 271 
Q 434 634 434 1313 
Q 434 1759 690 2068 
Q 947 2378 1403 2484 
z
M 1172 3481 
Q 1172 3119 1398 2916 
Q 1625 2713 2034 2713 
Q 2441 2713 2670 2916 
Q 2900 3119 2900 3481 
Q 2900 3844 2670 4047 
Q 2441 4250 2034 4250 
Q 1625 4250 1398 4047 
Q 1172 3844 1172 3481 
z
" transform="scale(0.015625)"/>
       </defs>
       <use xlink:href="#DejaVuSans-38"/>
       <use xlink:href="#DejaVuSans-30" x="63.623047"/>
      </g>
     </g>
    </g>
    <g id="xtick_6">
     <g id="line2d_6">
      <g>
       <use xlink:href="#mb0b7065f5c" x="439.180417" y="303.64" style="stroke: #000000; stroke-width: 0.8"/>
      </g>
     </g>
     <g id="text_6">
      <!-- 100 -->
      <g transform="translate(429.636667 318.238437) scale(0.1 -0.1)">
       <defs>
        <path id="DejaVuSans-31" d="M 794 531 
L 1825 531 
L 1825 4091 
L 703 3866 
L 703 4441 
L 1819 4666 
L 2450 4666 
L 2450 531 
L 3481 531 
L 3481 0 
L 794 0 
L 794 531 
z
" transform="scale(0.015625)"/>
       </defs>
       <use xlink:href="#DejaVuSans-31"/>
       <use xlink:href="#DejaVuSans-30" x="63.623047"/>
       <use xlink:href="#DejaVuSans-30" x="127.246094"/>
      </g>
     </g>
    </g>
    <g id="text_7">
     <!-- Iteration -->
     <g transform="translate(227.696406 331.916562) scale(0.1 -0.1)">
      <defs>
       <path id="DejaVuSans-49" d="M 628 4666 
L 1259 4666 
L 1259 0 
L 628 0 
L 628 4666 
z
" transform="scale(0.015625)"/>
       <path id="DejaVuSans-74" d="M 1172 4494 
L 1172 3500 
L 2356 3500 
L 2356 3053 
L 1172 3053 
L 1172 1153 
Q 1172 725 1289 603 
Q 1406 481 1766 481 
L 2356 481 
L 2356 0 
L 1766 0 
Q 1100 0 847 248 
Q 594 497 594 1153 
L 594 3053 
L 172 3053 
L 172 3500 
L 594 3500 
L 594 4494 
L 1172 4494 
z
" transform="scale(0.015625)"/>
       <path id="DejaVuSans-65" d="M 3597 1894 
L 3597 1613 
L 953 1613 
Q 991 1019 1311 708 
Q 1631 397 2203 397 
Q 2534 397 2845 478 
Q 3156 559 3463 722 
L 3463 178 
Q 3153 47 2828 -22 
Q 2503 -91 2169 -91 
Q 1331 -91 842 396 
Q 353 884 353 1716 
Q 353 2575 817 3079 
Q 1281 3584 2069 3584 
Q 2775 3584 3186 3129 
Q 3597 2675 3597 1894 
z
M 3022 2063 
Q 3016 2534 2758 2815 
Q 2500 3097 2075 3097 
Q 1594 3097 1305 2825 
Q 1016 2553 972 2059 
L 3022 2063 
z
" transform="scale(0.015625)"/>
       <path id="DejaVuSans-72" d="M 2631 2963 
Q 2534 3019 2420 3045 
Q 2306 3072 2169 3072 
Q 1681 3072 1420 2755 
Q 1159 2438 1159 1844 
L 1159 0 
L 581 0 
L 581 3500 
L 1159 3500 
L 1159 2956 
Q 1341 3275 1631 3429 
Q 1922 3584 2338 3584 
Q 2397 3584 2469 3576 
Q 2541 3569 2628 3553 
L 2631 2963 
z
" transform="scale(0.015625)"/>
       <path id="DejaVuSans-61" d="M 2194 1759 
Q 1497 1759 1228 1600 
Q 959 1441 959 1056 
Q 959 750 1161 570 
Q 1363 391 1709 391 
Q 2188 391 2477 730 
Q 2766 1069 2766 1631 
L 2766 1759 
L 2194 1759 
z
M 3341 1997 
L 3341 0 
L 2766 0 
L 2766 531 
Q 2569 213 2275 61 
Q 1981 -91 1556 -91 
Q 1019 -91 701 211 
Q 384 513 384 1019 
Q 384 1609 779 1909 
Q 1175 2209 1959 2209 
L 2766 2209 
L 2766 2266 
Q 2766 2663 2505 2880 
Q 2244 3097 1772 3097 
Q 1472 3097 1187 3025 
Q 903 2953 641 2809 
L 641 3341 
Q 956 3463 1253 3523 
Q 1550 3584 1831 3584 
Q 2591 3584 2966 3190 
Q 3341 2797 3341 1997 
z
" transform="scale(0.015625)"/>
       <path id="DejaVuSans-69" d="M 603 3500 
L 1178 3500 
L 1178 0 
L 603 0 
L 603 3500 
z
M 603 4863 
L 1178 4863 
L 1178 4134 
L 603 4134 
L 603 4863 
z
" transform="scale(0.015625)"/>
       <path id="DejaVuSans-6f" d="M 1959 3097 
Q 1497 3097 1228 2736 
Q 959 2375 959 1747 
Q 959 1119 1226 758 
Q 1494 397 1959 397 
Q 2419 397 2687 759 
Q 2956 1122 2956 1747 
Q 2956 2369 2687 2733 
Q 2419 3097 1959 3097 
z
M 1959 3584 
Q 2709 3584 3137 3096 
Q 3566 2609 3566 1747 
Q 3566 888 3137 398 
Q 2709 -91 1959 -91 
Q 1206 -91 779 398 
Q 353 888 353 1747 
Q 353 2609 779 3096 
Q 1206 3584 1959 3584 
z
" transform="scale(0.015625)"/>
       <path id="DejaVuSans-6e" d="M 3513 2113 
L 3513 0 
L 2938 0 
L 2938 2094 
Q 2938 2591 2744 2837 
Q 2550 3084 2163 3084 
Q 1697 3084 1428 2787 
Q 1159 2491 1159 1978 
L 1159 0 
L 581 0 
L 581 3500 
L 1159 3500 
L 1159 2956 
Q 1366 3272 1645 3428 
Q 1925 3584 2291 3584 
Q 2894 3584 3203 3211 
Q 3513 2838 3513 2113 
z
" transform="scale(0.015625)"/>
      </defs>
      <use xlink:href="#DejaVuSans-49"/>
      <use xlink:href="#DejaVuSans-74" x="29.492188"/>
      <use xlink:href="#DejaVuSans-65" x="68.701172"/>
      <use xlink:href="#DejaVuSans-72" x="130.224609"/>
      <use xlink:href="#DejaVuSans-61" x="171.337891"/>
      <use xlink:href="#DejaVuSans-74" x="232.617188"/>
      <use xlink:href="#DejaVuSans-69" x="271.826172"/>
      <use xlink:href="#DejaVuSans-6f" x="299.609375"/>
      <use xlink:href="#DejaVuSans-6e" x="360.791016"/>
     </g>
    </g>
   </g>
   <g id="matplotlib.axis_2">
    <g id="ytick_1">
     <g id="line2d_7">
      <defs>
       <path id="m12a6c70bf0" d="M 0 0 
L -3.5 0 
" style="stroke: #000000; stroke-width: 0.8"/>
      </defs>
      <g>
       <use xlink:href="#m12a6c70bf0" x="47.81" y="269.541903" style="stroke: #000000; stroke-width: 0.8"/>
      </g>
     </g>
     <g id="text_8">
      <!-- 0.6 -->
      <g transform="translate(24.906875 273.341122) scale(0.1 -0.1)">
       <defs>
        <path id="DejaVuSans-2e" d="M 684 794 
L 1344 794 
L 1344 0 
L 684 0 
L 684 794 
z
" transform="scale(0.015625)"/>
       </defs>
       <use xlink:href="#DejaVuSans-30"/>
       <use xlink:href="#DejaVuSans-2e" x="63.623047"/>
       <use xlink:href="#DejaVuSans-36" x="95.410156"/>
      </g>
     </g>
    </g>
    <g id="ytick_2">
     <g id="line2d_8">
      <g>
       <use xlink:href="#m12a6c70bf0" x="47.81" y="211.996058" style="stroke: #000000; stroke-width: 0.8"/>
      </g>
     </g>
     <g id="text_9">
      <!-- 0.7 -->
      <g transform="translate(24.906875 215.795277) scale(0.1 -0.1)">
       <defs>
        <path id="DejaVuSans-37" d="M 525 4666 
L 3525 4666 
L 3525 4397 
L 1831 0 
L 1172 0 
L 2766 4134 
L 525 4134 
L 525 4666 
z
" transform="scale(0.015625)"/>
       </defs>
       <use xlink:href="#DejaVuSans-30"/>
       <use xlink:href="#DejaVuSans-2e" x="63.623047"/>
       <use xlink:href="#DejaVuSans-37" x="95.410156"/>
      </g>
     </g>
    </g>
    <g id="ytick_3">
     <g id="line2d_9">
      <g>
       <use xlink:href="#m12a6c70bf0" x="47.81" y="154.450214" style="stroke: #000000; stroke-width: 0.8"/>
      </g>
     </g>
     <g id="text_10">
      <!-- 0.8 -->
      <g transform="translate(24.906875 158.249433) scale(0.1 -0.1)">
       <use xlink:href="#DejaVuSans-30"/>
       <use xlink:href="#DejaVuSans-2e" x="63.623047"/>
       <use xlink:href="#DejaVuSans-38" x="95.410156"/>
      </g>
     </g>
    </g>
    <g id="ytick_4">
     <g id="line2d_10">
      <g>
       <use xlink:href="#m12a6c70bf0" x="47.81" y="96.904369" style="stroke: #000000; stroke-width: 0.8"/>
      </g>
     </g>
     <g id="text_11">
      <!-- 0.9 -->
      <g transform="translate(24.906875 100.703588) scale(0.1 -0.1)">
       <defs>
        <path id="DejaVuSans-39" d="M 703 97 
L 703 672 
Q 941 559 1184 500 
Q 1428 441 1663 441 
Q 2288 441 2617 861 
Q 2947 1281 2994 2138 
Q 2813 1869 2534 1725 
Q 2256 1581 1919 1581 
Q 1219 1581 811 2004 
Q 403 2428 403 3163 
Q 403 3881 828 4315 
Q 1253 4750 1959 4750 
Q 2769 4750 3195 4129 
Q 3622 3509 3622 2328 
Q 3622 1225 3098 567 
Q 2575 -91 1691 -91 
Q 1453 -91 1209 -44 
Q 966 3 703 97 
z
M 1959 2075 
Q 2384 2075 2632 2365 
Q 2881 2656 2881 3163 
Q 2881 3666 2632 3958 
Q 2384 4250 1959 4250 
Q 1534 4250 1286 3958 
Q 1038 3666 1038 3163 
Q 1038 2656 1286 2365 
Q 1534 2075 1959 2075 
z
" transform="scale(0.015625)"/>
       </defs>
       <use xlink:href="#DejaVuSans-30"/>
       <use xlink:href="#DejaVuSans-2e" x="63.623047"/>
       <use xlink:href="#DejaVuSans-39" x="95.410156"/>
      </g>
     </g>
    </g>
    <g id="ytick_5">
     <g id="line2d_11">
      <g>
       <use xlink:href="#m12a6c70bf0" x="47.81" y="39.358525" style="stroke: #000000; stroke-width: 0.8"/>
      </g>
     </g>
     <g id="text_12">
      <!-- 1.0 -->
      <g transform="translate(24.906875 43.157743) scale(0.1 -0.1)">
       <use xlink:href="#DejaVuSans-31"/>
       <use xlink:href="#DejaVuSans-2e" x="63.623047"/>
       <use xlink:href="#DejaVuSans-30" x="95.410156"/>
      </g>
     </g>
    </g>
    <g id="text_13">
     <!-- Similarity -->
     <g transform="translate(18.827187 188.179844) rotate(-90) scale(0.1 -0.1)">
      <defs>
       <path id="DejaVuSans-53" d="M 3425 4513 
L 3425 3897 
Q 3066 4069 2747 4153 
Q 2428 4238 2131 4238 
Q 1616 4238 1336 4038 
Q 1056 3838 1056 3469 
Q 1056 3159 1242 3001 
Q 1428 2844 1947 2747 
L 2328 2669 
Q 3034 2534 3370 2195 
Q 3706 1856 3706 1288 
Q 3706 609 3251 259 
Q 2797 -91 1919 -91 
Q 1588 -91 1214 -16 
Q 841 59 441 206 
L 441 856 
Q 825 641 1194 531 
Q 1563 422 1919 422 
Q 2459 422 2753 634 
Q 3047 847 3047 1241 
Q 3047 1584 2836 1778 
Q 2625 1972 2144 2069 
L 1759 2144 
Q 1053 2284 737 2584 
Q 422 2884 422 3419 
Q 422 4038 858 4394 
Q 1294 4750 2059 4750 
Q 2388 4750 2728 4690 
Q 3069 4631 3425 4513 
z
" transform="scale(0.015625)"/>
       <path id="DejaVuSans-6d" d="M 3328 2828 
Q 3544 3216 3844 3400 
Q 4144 3584 4550 3584 
Q 5097 3584 5394 3201 
Q 5691 2819 5691 2113 
L 5691 0 
L 5113 0 
L 5113 2094 
Q 5113 2597 4934 2840 
Q 4756 3084 4391 3084 
Q 3944 3084 3684 2787 
Q 3425 2491 3425 1978 
L 3425 0 
L 2847 0 
L 2847 2094 
Q 2847 2600 2669 2842 
Q 2491 3084 2119 3084 
Q 1678 3084 1418 2786 
Q 1159 2488 1159 1978 
L 1159 0 
L 581 0 
L 581 3500 
L 1159 3500 
L 1159 2956 
Q 1356 3278 1631 3431 
Q 1906 3584 2284 3584 
Q 2666 3584 2933 3390 
Q 3200 3197 3328 2828 
z
" transform="scale(0.015625)"/>
       <path id="DejaVuSans-6c" d="M 603 4863 
L 1178 4863 
L 1178 0 
L 603 0 
L 603 4863 
z
" transform="scale(0.015625)"/>
       <path id="DejaVuSans-79" d="M 2059 -325 
Q 1816 -950 1584 -1140 
Q 1353 -1331 966 -1331 
L 506 -1331 
L 506 -850 
L 844 -850 
Q 1081 -850 1212 -737 
Q 1344 -625 1503 -206 
L 1606 56 
L 191 3500 
L 800 3500 
L 1894 763 
L 2988 3500 
L 3597 3500 
L 2059 -325 
z
" transform="scale(0.015625)"/>
      </defs>
      <use xlink:href="#DejaVuSans-53"/>
      <use xlink:href="#DejaVuSans-69" x="63.476562"/>
      <use xlink:href="#DejaVuSans-6d" x="91.259766"/>
      <use xlink:href="#DejaVuSans-69" x="188.671875"/>
      <use xlink:href="#DejaVuSans-6c" x="216.455078"/>
      <use xlink:href="#DejaVuSans-61" x="244.238281"/>
      <use xlink:href="#DejaVuSans-72" x="305.517578"/>
      <use xlink:href="#DejaVuSans-69" x="346.630859"/>
      <use xlink:href="#DejaVuSans-74" x="374.414062"/>
      <use xlink:href="#DejaVuSans-79" x="413.623047"/>
     </g>
    </g>
   </g>
   <g id="line2d_12">
    <path d="M 66.091364 269.541903 
L 69.822254 165.959383 
L 73.553145 131.431876 
L 77.284035 111.29083 
L 81.014926 96.904369 
L 84.745816 87.313395 
L 88.476707 82.106866 
L 92.207597 78.20197 
L 95.938488 73.886031 
L 99.669378 70.433281 
L 103.400269 68.654591 
L 107.13116 68.131447 
L 110.86205 68.574107 
L 114.592941 68.95353 
L 118.323831 67.747808 
L 122.054722 66.692801 
L 125.785612 66.438922 
L 129.516503 67.492049 
L 133.247393 66.617083 
L 136.978284 65.829613 
L 140.709174 64.569085 
L 144.440065 63.946295 
L 148.170955 62.877261 
L 151.901846 61.897314 
L 155.632737 60.995762 
L 159.363627 61.048881 
L 163.094518 60.6718 
L 166.825408 60.321654 
L 170.556299 59.995655 
L 174.287189 59.69139 
L 178.01808 60.149281 
L 181.74897 59.49957 
L 185.479861 58.889235 
L 189.210751 58.653308 
L 192.941642 58.430862 
L 196.672532 57.901074 
L 200.403423 58.022042 
L 204.134314 57.833769 
L 207.865204 58.540473 
L 211.596095 58.924112 
L 215.326985 59.569748 
L 219.057876 59.362556 
L 222.788766 59.432656 
L 226.519657 59.49957 
L 230.250547 59.819269 
L 233.981438 59.874869 
L 237.712328 60.417855 
L 241.443219 60.218893 
L 245.174109 60.028052 
L 248.905 60.075029 
L 252.635891 59.668823 
L 256.366781 59.49957 
L 260.097672 59.336705 
L 263.828562 58.966738 
L 267.559453 58.819483 
L 271.290343 58.677487 
L 275.021234 58.540473 
L 278.752124 58.805051 
L 282.483015 58.67052 
L 286.213905 58.732292 
L 289.944796 58.414689 
L 293.675686 58.107332 
L 297.406577 57.992417 
L 301.137468 57.701263 
L 304.868358 57.419067 
L 308.599249 57.668566 
L 312.330139 57.56706 
L 316.06103 57.299288 
L 319.79192 57.206076 
L 323.522811 56.951111 
L 327.253701 56.703328 
L 330.984592 56.462428 
L 334.715482 56.385788 
L 338.446373 56.466749 
L 342.177263 56.54555 
L 345.908154 56.470841 
L 349.639045 56.398073 
L 353.369935 56.179618 
L 357.100826 56.112378 
L 360.831716 55.902955 
L 364.562607 55.98288 
L 368.293497 56.060855 
L 372.024388 55.998287 
L 375.755278 55.937208 
L 379.486169 55.877567 
L 383.217059 55.819313 
L 386.94795 55.630108 
L 390.67884 55.445204 
L 394.409731 55.264455 
L 398.140622 55.343481 
L 401.871512 55.547246 
L 405.602403 55.621481 
L 409.333293 55.570365 
L 413.064184 55.520336 
L 416.795074 55.350212 
L 420.525965 55.423406 
L 424.256855 55.495091 
L 427.987746 55.565313 
L 431.718636 55.517863 
" clip-path="url(#pbf32d738ba)" style="fill: none; stroke: #0000ff; stroke-linecap: square"/>
    <defs>
     <path id="m42534d8662" d="M -0.49999 0.49999 
L 0.50001 0.49999 
L 0.50001 -0.50001 
L -0.49999 -0.50001 
z
"/>
    </defs>
    <g clip-path="url(#pbf32d738ba)">
     <use xlink:href="#m42534d8662" x="66.091364" y="269.541903" style="fill: #0000ff"/>
     <use xlink:href="#m42534d8662" x="69.822254" y="165.959383" style="fill: #0000ff"/>
     <use xlink:href="#m42534d8662" x="73.553145" y="131.431876" style="fill: #0000ff"/>
     <use xlink:href="#m42534d8662" x="77.284035" y="111.29083" style="fill: #0000ff"/>
     <use xlink:href="#m42534d8662" x="81.014926" y="96.904369" style="fill: #0000ff"/>
     <use xlink:href="#m42534d8662" x="84.745816" y="87.313395" style="fill: #0000ff"/>
     <use xlink:href="#m42534d8662" x="88.476707" y="82.106866" style="fill: #0000ff"/>
     <use xlink:href="#m42534d8662" x="92.207597" y="78.20197" style="fill: #0000ff"/>
     <use xlink:href="#m42534d8662" x="95.938488" y="73.886031" style="fill: #0000ff"/>
     <use xlink:href="#m42534d8662" x="99.669378" y="70.433281" style="fill: #0000ff"/>
     <use xlink:href="#m42534d8662" x="103.400269" y="68.654591" style="fill: #0000ff"/>
     <use xlink:href="#m42534d8662" x="107.13116" y="68.131447" style="fill: #0000ff"/>
     <use xlink:href="#m42534d8662" x="110.86205" y="68.574107" style="fill: #0000ff"/>
     <use xlink:href="#m42534d8662" x="114.592941" y="68.95353" style="fill: #0000ff"/>
     <use xlink:href="#m42534d8662" x="118.323831" y="67.747808" style="fill: #0000ff"/>
     <use xlink:href="#m42534d8662" x="122.054722" y="66.692801" style="fill: #0000ff"/>
     <use xlink:href="#m42534d8662" x="125.785612" y="66.438922" style="fill: #0000ff"/>
     <use xlink:href="#m42534d8662" x="129.516503" y="67.492049" style="fill: #0000ff"/>
     <use xlink:href="#m42534d8662" x="133.247393" y="66.617083" style="fill: #0000ff"/>
     <use xlink:href="#m42534d8662" x="136.978284" y="65.829613" style="fill: #0000ff"/>
     <use xlink:href="#m42534d8662" x="140.709174" y="64.569085" style="fill: #0000ff"/>
     <use xlink:href="#m42534d8662" x="144.440065" y="63.946295" style="fill: #0000ff"/>
     <use xlink:href="#m42534d8662" x="148.170955" y="62.877261" style="fill: #0000ff"/>
     <use xlink:href="#m42534d8662" x="151.901846" y="61.897314" style="fill: #0000ff"/>
     <use xlink:href="#m42534d8662" x="155.632737" y="60.995762" style="fill: #0000ff"/>
     <use xlink:href="#m42534d8662" x="159.363627" y="61.048881" style="fill: #0000ff"/>
     <use xlink:href="#m42534d8662" x="163.094518" y="60.6718" style="fill: #0000ff"/>
     <use xlink:href="#m42534d8662" x="166.825408" y="60.321654" style="fill: #0000ff"/>
     <use xlink:href="#m42534d8662" x="170.556299" y="59.995655" style="fill: #0000ff"/>
     <use xlink:href="#m42534d8662" x="174.287189" y="59.69139" style="fill: #0000ff"/>
     <use xlink:href="#m42534d8662" x="178.01808" y="60.149281" style="fill: #0000ff"/>
     <use xlink:href="#m42534d8662" x="181.74897" y="59.49957" style="fill: #0000ff"/>
     <use xlink:href="#m42534d8662" x="185.479861" y="58.889235" style="fill: #0000ff"/>
     <use xlink:href="#m42534d8662" x="189.210751" y="58.653308" style="fill: #0000ff"/>
     <use xlink:href="#m42534d8662" x="192.941642" y="58.430862" style="fill: #0000ff"/>
     <use xlink:href="#m42534d8662" x="196.672532" y="57.901074" style="fill: #0000ff"/>
     <use xlink:href="#m42534d8662" x="200.403423" y="58.022042" style="fill: #0000ff"/>
     <use xlink:href="#m42534d8662" x="204.134314" y="57.833769" style="fill: #0000ff"/>
     <use xlink:href="#m42534d8662" x="207.865204" y="58.540473" style="fill: #0000ff"/>
     <use xlink:href="#m42534d8662" x="211.596095" y="58.924112" style="fill: #0000ff"/>
     <use xlink:href="#m42534d8662" x="215.326985" y="59.569748" style="fill: #0000ff"/>
     <use xlink:href="#m42534d8662" x="219.057876" y="59.362556" style="fill: #0000ff"/>
     <use xlink:href="#m42534d8662" x="222.788766" y="59.432656" style="fill: #0000ff"/>
     <use xlink:href="#m42534d8662" x="226.519657" y="59.49957" style="fill: #0000ff"/>
     <use xlink:href="#m42534d8662" x="230.250547" y="59.819269" style="fill: #0000ff"/>
     <use xlink:href="#m42534d8662" x="233.981438" y="59.874869" style="fill: #0000ff"/>
     <use xlink:href="#m42534d8662" x="237.712328" y="60.417855" style="fill: #0000ff"/>
     <use xlink:href="#m42534d8662" x="241.443219" y="60.218893" style="fill: #0000ff"/>
     <use xlink:href="#m42534d8662" x="245.174109" y="60.028052" style="fill: #0000ff"/>
     <use xlink:href="#m42534d8662" x="248.905" y="60.075029" style="fill: #0000ff"/>
     <use xlink:href="#m42534d8662" x="252.635891" y="59.668823" style="fill: #0000ff"/>
     <use xlink:href="#m42534d8662" x="256.366781" y="59.49957" style="fill: #0000ff"/>
     <use xlink:href="#m42534d8662" x="260.097672" y="59.336705" style="fill: #0000ff"/>
     <use xlink:href="#m42534d8662" x="263.828562" y="58.966738" style="fill: #0000ff"/>
     <use xlink:href="#m42534d8662" x="267.559453" y="58.819483" style="fill: #0000ff"/>
     <use xlink:href="#m42534d8662" x="271.290343" y="58.677487" style="fill: #0000ff"/>
     <use xlink:href="#m42534d8662" x="275.021234" y="58.540473" style="fill: #0000ff"/>
     <use xlink:href="#m42534d8662" x="278.752124" y="58.805051" style="fill: #0000ff"/>
     <use xlink:href="#m42534d8662" x="282.483015" y="58.67052" style="fill: #0000ff"/>
     <use xlink:href="#m42534d8662" x="286.213905" y="58.732292" style="fill: #0000ff"/>
     <use xlink:href="#m42534d8662" x="289.944796" y="58.414689" style="fill: #0000ff"/>
     <use xlink:href="#m42534d8662" x="293.675686" y="58.107332" style="fill: #0000ff"/>
     <use xlink:href="#m42534d8662" x="297.406577" y="57.992417" style="fill: #0000ff"/>
     <use xlink:href="#m42534d8662" x="301.137468" y="57.701263" style="fill: #0000ff"/>
     <use xlink:href="#m42534d8662" x="304.868358" y="57.419067" style="fill: #0000ff"/>
     <use xlink:href="#m42534d8662" x="308.599249" y="57.668566" style="fill: #0000ff"/>
     <use xlink:href="#m42534d8662" x="312.330139" y="57.56706" style="fill: #0000ff"/>
     <use xlink:href="#m42534d8662" x="316.06103" y="57.299288" style="fill: #0000ff"/>
     <use xlink:href="#m42534d8662" x="319.79192" y="57.206076" style="fill: #0000ff"/>
     <use xlink:href="#m42534d8662" x="323.522811" y="56.951111" style="fill: #0000ff"/>
     <use xlink:href="#m42534d8662" x="327.253701" y="56.703328" style="fill: #0000ff"/>
     <use xlink:href="#m42534d8662" x="330.984592" y="56.462428" style="fill: #0000ff"/>
     <use xlink:href="#m42534d8662" x="334.715482" y="56.385788" style="fill: #0000ff"/>
     <use xlink:href="#m42534d8662" x="338.446373" y="56.466749" style="fill: #0000ff"/>
     <use xlink:href="#m42534d8662" x="342.177263" y="56.54555" style="fill: #0000ff"/>
     <use xlink:href="#m42534d8662" x="345.908154" y="56.470841" style="fill: #0000ff"/>
     <use xlink:href="#m42534d8662" x="349.639045" y="56.398073" style="fill: #0000ff"/>
     <use xlink:href="#m42534d8662" x="353.369935" y="56.179618" style="fill: #0000ff"/>
     <use xlink:href="#m42534d8662" x="357.100826" y="56.112378" style="fill: #0000ff"/>
     <use xlink:href="#m42534d8662" x="360.831716" y="55.902955" style="fill: #0000ff"/>
     <use xlink:href="#m42534d8662" x="364.562607" y="55.98288" style="fill: #0000ff"/>
     <use xlink:href="#m42534d8662" x="368.293497" y="56.060855" style="fill: #0000ff"/>
     <use xlink:href="#m42534d8662" x="372.024388" y="55.998287" style="fill: #0000ff"/>
     <use xlink:href="#m42534d8662" x="375.755278" y="55.937208" style="fill: #0000ff"/>
     <use xlink:href="#m42534d8662" x="379.486169" y="55.877567" style="fill: #0000ff"/>
     <use xlink:href="#m42534d8662" x="383.217059" y="55.819313" style="fill: #0000ff"/>
     <use xlink:href="#m42534d8662" x="386.94795" y="55.630108" style="fill: #0000ff"/>
     <use xlink:href="#m42534d8662" x="390.67884" y="55.445204" style="fill: #0000ff"/>
     <use xlink:href="#m42534d8662" x="394.409731" y="55.264455" style="fill: #0000ff"/>
     <use xlink:href="#m42534d8662" x="398.140622" y="55.343481" style="fill: #0000ff"/>
     <use xlink:href="#m42534d8662" x="401.871512" y="55.547246" style="fill: #0000ff"/>
     <use xlink:href="#m42534d8662" x="405.602403" y="55.621481" style="fill: #0000ff"/>
     <use xlink:href="#m42534d8662" x="409.333293" y="55.570365" style="fill: #0000ff"/>
     <use xlink:href="#m42534d8662" x="413.064184" y="55.520336" style="fill: #0000ff"/>
     <use xlink:href="#m42534d8662" x="416.795074" y="55.350212" style="fill: #0000ff"/>
     <use xlink:href="#m42534d8662" x="420.525965" y="55.423406" style="fill: #0000ff"/>
     <use xlink:href="#m42534d8662" x="424.256855" y="55.495091" style="fill: #0000ff"/>
     <use xlink:href="#m42534d8662" x="427.987746" y="55.565313" style="fill: #0000ff"/>
     <use xlink:href="#m42534d8662" x="431.718636" y="55.517863" style="fill: #0000ff"/>
    </g>
   </g>
   <g id="line2d_13">
    <path d="M 66.091364 269.541903 
L 69.822254 217.750643 
L 73.553145 188.977721 
L 77.284035 169.555998 
L 81.014926 155.025672 
L 84.745816 143.740293 
L 88.476707 134.935518 
L 92.207597 127.843824 
L 95.938488 121.848514 
L 99.669378 116.70699 
L 103.400269 112.33859 
L 107.13116 108.654662 
L 110.86205 105.571542 
L 114.592941 102.95597 
L 118.323831 100.608759 
L 122.054722 98.489012 
L 125.785612 96.603712 
L 129.516503 94.986398 
L 133.247393 93.493276 
L 136.978284 92.110093 
L 140.709174 90.798616 
L 144.440065 89.578056 
L 148.170955 88.417152 
L 151.901846 87.312159 
L 155.632737 86.259503 
L 159.363627 85.289864 
L 163.094518 84.378083 
L 166.825408 83.518925 
L 170.556299 82.707778 
L 174.287189 81.940565 
L 178.01808 81.23762 
L 181.74897 80.558306 
L 185.479861 79.901668 
L 189.210751 79.276716 
L 192.941642 78.68112 
L 196.672532 78.103897 
L 200.403423 77.561144 
L 204.134314 77.042002 
L 207.865204 76.567604 
L 211.596095 76.126517 
L 215.326985 75.722693 
L 219.057876 75.333166 
L 222.788766 74.963387 
L 226.519657 74.611937 
L 230.250547 74.283211 
L 233.981438 73.969986 
L 237.712328 73.681643 
L 241.443219 73.401169 
L 245.174109 73.128248 
L 248.905 72.867184 
L 252.635891 72.608392 
L 256.366781 72.356299 
L 260.097672 72.110647 
L 263.828562 71.867241 
L 267.559453 71.630009 
L 271.290343 71.398714 
L 275.021234 71.173131 
L 278.752124 70.959888 
L 282.483015 70.751594 
L 286.213905 70.551272 
L 289.944796 70.352312 
L 293.675686 70.154812 
L 297.406577 69.961758 
L 301.137468 69.770188 
L 304.868358 69.580171 
L 308.599249 69.399692 
L 312.330139 69.223085 
L 316.06103 69.047735 
L 319.79192 68.876117 
L 323.522811 68.70576 
L 327.253701 68.536711 
L 330.984592 68.369013 
L 334.715482 68.204859 
L 338.446373 68.046236 
L 342.177263 67.892894 
L 345.908154 67.742604 
L 349.639045 67.595272 
L 353.369935 67.448917 
L 357.100826 67.305417 
L 360.831716 67.162886 
L 364.562607 67.024861 
L 368.293497 66.891154 
L 372.024388 66.759915 
L 375.755278 66.631073 
L 379.486169 66.504561 
L 383.217059 66.380314 
L 386.94795 66.256748 
L 390.67884 66.13389 
L 394.409731 66.011761 
L 398.140622 65.893225 
L 401.871512 65.779533 
L 405.602403 65.669119 
L 409.333293 65.560531 
L 413.064184 65.45372 
L 416.795074 65.347367 
L 420.525965 65.243993 
L 424.256855 65.143489 
L 427.987746 65.045752 
L 431.718636 64.949511 
" clip-path="url(#pbf32d738ba)" style="fill: none; stroke: #ff0000; stroke-opacity: 0.5; stroke-width: 0.5; stroke-linecap: square"/>
    <defs>
     <path id="md74f2cd6dd" d="M -0.49999 0.49999 
L 0.50001 0.49999 
L 0.50001 -0.50001 
L -0.49999 -0.50001 
z
"/>
    </defs>
    <g clip-path="url(#pbf32d738ba)">
     <use xlink:href="#md74f2cd6dd" x="66.091364" y="269.541903" style="fill: #ff0000; fill-opacity: 0.5"/>
     <use xlink:href="#md74f2cd6dd" x="69.822254" y="217.750643" style="fill: #ff0000; fill-opacity: 0.5"/>
     <use xlink:href="#md74f2cd6dd" x="73.553145" y="188.977721" style="fill: #ff0000; fill-opacity: 0.5"/>
     <use xlink:href="#md74f2cd6dd" x="77.284035" y="169.555998" style="fill: #ff0000; fill-opacity: 0.5"/>
     <use xlink:href="#md74f2cd6dd" x="81.014926" y="155.025672" style="fill: #ff0000; fill-opacity: 0.5"/>
     <use xlink:href="#md74f2cd6dd" x="84.745816" y="143.740293" style="fill: #ff0000; fill-opacity: 0.5"/>
     <use xlink:href="#md74f2cd6dd" x="88.476707" y="134.935518" style="fill: #ff0000; fill-opacity: 0.5"/>
     <use xlink:href="#md74f2cd6dd" x="92.207597" y="127.843824" style="fill: #ff0000; fill-opacity: 0.5"/>
     <use xlink:href="#md74f2cd6dd" x="95.938488" y="121.848514" style="fill: #ff0000; fill-opacity: 0.5"/>
     <use xlink:href="#md74f2cd6dd" x="99.669378" y="116.70699" style="fill: #ff0000; fill-opacity: 0.5"/>
     <use xlink:href="#md74f2cd6dd" x="103.400269" y="112.33859" style="fill: #ff0000; fill-opacity: 0.5"/>
     <use xlink:href="#md74f2cd6dd" x="107.13116" y="108.654662" style="fill: #ff0000; fill-opacity: 0.5"/>
     <use xlink:href="#md74f2cd6dd" x="110.86205" y="105.571542" style="fill: #ff0000; fill-opacity: 0.5"/>
     <use xlink:href="#md74f2cd6dd" x="114.592941" y="102.95597" style="fill: #ff0000; fill-opacity: 0.5"/>
     <use xlink:href="#md74f2cd6dd" x="118.323831" y="100.608759" style="fill: #ff0000; fill-opacity: 0.5"/>
     <use xlink:href="#md74f2cd6dd" x="122.054722" y="98.489012" style="fill: #ff0000; fill-opacity: 0.5"/>
     <use xlink:href="#md74f2cd6dd" x="125.785612" y="96.603712" style="fill: #ff0000; fill-opacity: 0.5"/>
     <use xlink:href="#md74f2cd6dd" x="129.516503" y="94.986398" style="fill: #ff0000; fill-opacity: 0.5"/>
     <use xlink:href="#md74f2cd6dd" x="133.247393" y="93.493276" style="fill: #ff0000; fill-opacity: 0.5"/>
     <use xlink:href="#md74f2cd6dd" x="136.978284" y="92.110093" style="fill: #ff0000; fill-opacity: 0.5"/>
     <use xlink:href="#md74f2cd6dd" x="140.709174" y="90.798616" style="fill: #ff0000; fill-opacity: 0.5"/>
     <use xlink:href="#md74f2cd6dd" x="144.440065" y="89.578056" style="fill: #ff0000; fill-opacity: 0.5"/>
     <use xlink:href="#md74f2cd6dd" x="148.170955" y="88.417152" style="fill: #ff0000; fill-opacity: 0.5"/>
     <use xlink:href="#md74f2cd6dd" x="151.901846" y="87.312159" style="fill: #ff0000; fill-opacity: 0.5"/>
     <use xlink:href="#md74f2cd6dd" x="155.632737" y="86.259503" style="fill: #ff0000; fill-opacity: 0.5"/>
     <use xlink:href="#md74f2cd6dd" x="159.363627" y="85.289864" style="fill: #ff0000; fill-opacity: 0.5"/>
     <use xlink:href="#md74f2cd6dd" x="163.094518" y="84.378083" style="fill: #ff0000; fill-opacity: 0.5"/>
     <use xlink:href="#md74f2cd6dd" x="166.825408" y="83.518925" style="fill: #ff0000; fill-opacity: 0.5"/>
     <use xlink:href="#md74f2cd6dd" x="170.556299" y="82.707778" style="fill: #ff0000; fill-opacity: 0.5"/>
     <use xlink:href="#md74f2cd6dd" x="174.287189" y="81.940565" style="fill: #ff0000; fill-opacity: 0.5"/>
     <use xlink:href="#md74f2cd6dd" x="178.01808" y="81.23762" style="fill: #ff0000; fill-opacity: 0.5"/>
     <use xlink:href="#md74f2cd6dd" x="181.74897" y="80.558306" style="fill: #ff0000; fill-opacity: 0.5"/>
     <use xlink:href="#md74f2cd6dd" x="185.479861" y="79.901668" style="fill: #ff0000; fill-opacity: 0.5"/>
     <use xlink:href="#md74f2cd6dd" x="189.210751" y="79.276716" style="fill: #ff0000; fill-opacity: 0.5"/>
     <use xlink:href="#md74f2cd6dd" x="192.941642" y="78.68112" style="fill: #ff0000; fill-opacity: 0.5"/>
     <use xlink:href="#md74f2cd6dd" x="196.672532" y="78.103897" style="fill: #ff0000; fill-opacity: 0.5"/>
     <use xlink:href="#md74f2cd6dd" x="200.403423" y="77.561144" style="fill: #ff0000; fill-opacity: 0.5"/>
     <use xlink:href="#md74f2cd6dd" x="204.134314" y="77.042002" style="fill: #ff0000; fill-opacity: 0.5"/>
     <use xlink:href="#md74f2cd6dd" x="207.865204" y="76.567604" style="fill: #ff0000; fill-opacity: 0.5"/>
     <use xlink:href="#md74f2cd6dd" x="211.596095" y="76.126517" style="fill: #ff0000; fill-opacity: 0.5"/>
     <use xlink:href="#md74f2cd6dd" x="215.326985" y="75.722693" style="fill: #ff0000; fill-opacity: 0.5"/>
     <use xlink:href="#md74f2cd6dd" x="219.057876" y="75.333166" style="fill: #ff0000; fill-opacity: 0.5"/>
     <use xlink:href="#md74f2cd6dd" x="222.788766" y="74.963387" style="fill: #ff0000; fill-opacity: 0.5"/>
     <use xlink:href="#md74f2cd6dd" x="226.519657" y="74.611937" style="fill: #ff0000; fill-opacity: 0.5"/>
     <use xlink:href="#md74f2cd6dd" x="230.250547" y="74.283211" style="fill: #ff0000; fill-opacity: 0.5"/>
     <use xlink:href="#md74f2cd6dd" x="233.981438" y="73.969986" style="fill: #ff0000; fill-opacity: 0.5"/>
     <use xlink:href="#md74f2cd6dd" x="237.712328" y="73.681643" style="fill: #ff0000; fill-opacity: 0.5"/>
     <use xlink:href="#md74f2cd6dd" x="241.443219" y="73.401169" style="fill: #ff0000; fill-opacity: 0.5"/>
     <use xlink:href="#md74f2cd6dd" x="245.174109" y="73.128248" style="fill: #ff0000; fill-opacity: 0.5"/>
     <use xlink:href="#md74f2cd6dd" x="248.905" y="72.867184" style="fill: #ff0000; fill-opacity: 0.5"/>
     <use xlink:href="#md74f2cd6dd" x="252.635891" y="72.608392" style="fill: #ff0000; fill-opacity: 0.5"/>
     <use xlink:href="#md74f2cd6dd" x="256.366781" y="72.356299" style="fill: #ff0000; fill-opacity: 0.5"/>
     <use xlink:href="#md74f2cd6dd" x="260.097672" y="72.110647" style="fill: #ff0000; fill-opacity: 0.5"/>
     <use xlink:href="#md74f2cd6dd" x="263.828562" y="71.867241" style="fill: #ff0000; fill-opacity: 0.5"/>
     <use xlink:href="#md74f2cd6dd" x="267.559453" y="71.630009" style="fill: #ff0000; fill-opacity: 0.5"/>
     <use xlink:href="#md74f2cd6dd" x="271.290343" y="71.398714" style="fill: #ff0000; fill-opacity: 0.5"/>
     <use xlink:href="#md74f2cd6dd" x="275.021234" y="71.173131" style="fill: #ff0000; fill-opacity: 0.5"/>
     <use xlink:href="#md74f2cd6dd" x="278.752124" y="70.959888" style="fill: #ff0000; fill-opacity: 0.5"/>
     <use xlink:href="#md74f2cd6dd" x="282.483015" y="70.751594" style="fill: #ff0000; fill-opacity: 0.5"/>
     <use xlink:href="#md74f2cd6dd" x="286.213905" y="70.551272" style="fill: #ff0000; fill-opacity: 0.5"/>
     <use xlink:href="#md74f2cd6dd" x="289.944796" y="70.352312" style="fill: #ff0000; fill-opacity: 0.5"/>
     <use xlink:href="#md74f2cd6dd" x="293.675686" y="70.154812" style="fill: #ff0000; fill-opacity: 0.5"/>
     <use xlink:href="#md74f2cd6dd" x="297.406577" y="69.961758" style="fill: #ff0000; fill-opacity: 0.5"/>
     <use xlink:href="#md74f2cd6dd" x="301.137468" y="69.770188" style="fill: #ff0000; fill-opacity: 0.5"/>
     <use xlink:href="#md74f2cd6dd" x="304.868358" y="69.580171" style="fill: #ff0000; fill-opacity: 0.5"/>
     <use xlink:href="#md74f2cd6dd" x="308.599249" y="69.399692" style="fill: #ff0000; fill-opacity: 0.5"/>
     <use xlink:href="#md74f2cd6dd" x="312.330139" y="69.223085" style="fill: #ff0000; fill-opacity: 0.5"/>
     <use xlink:href="#md74f2cd6dd" x="316.06103" y="69.047735" style="fill: #ff0000; fill-opacity: 0.5"/>
     <use xlink:href="#md74f2cd6dd" x="319.79192" y="68.876117" style="fill: #ff0000; fill-opacity: 0.5"/>
     <use xlink:href="#md74f2cd6dd" x="323.522811" y="68.70576" style="fill: #ff0000; fill-opacity: 0.5"/>
     <use xlink:href="#md74f2cd6dd" x="327.253701" y="68.536711" style="fill: #ff0000; fill-opacity: 0.5"/>
     <use xlink:href="#md74f2cd6dd" x="330.984592" y="68.369013" style="fill: #ff0000; fill-opacity: 0.5"/>
     <use xlink:href="#md74f2cd6dd" x="334.715482" y="68.204859" style="fill: #ff0000; fill-opacity: 0.5"/>
     <use xlink:href="#md74f2cd6dd" x="338.446373" y="68.046236" style="fill: #ff0000; fill-opacity: 0.5"/>
     <use xlink:href="#md74f2cd6dd" x="342.177263" y="67.892894" style="fill: #ff0000; fill-opacity: 0.5"/>
     <use xlink:href="#md74f2cd6dd" x="345.908154" y="67.742604" style="fill: #ff0000; fill-opacity: 0.5"/>
     <use xlink:href="#md74f2cd6dd" x="349.639045" y="67.595272" style="fill: #ff0000; fill-opacity: 0.5"/>
     <use xlink:href="#md74f2cd6dd" x="353.369935" y="67.448917" style="fill: #ff0000; fill-opacity: 0.5"/>
     <use xlink:href="#md74f2cd6dd" x="357.100826" y="67.305417" style="fill: #ff0000; fill-opacity: 0.5"/>
     <use xlink:href="#md74f2cd6dd" x="360.831716" y="67.162886" style="fill: #ff0000; fill-opacity: 0.5"/>
     <use xlink:href="#md74f2cd6dd" x="364.562607" y="67.024861" style="fill: #ff0000; fill-opacity: 0.5"/>
     <use xlink:href="#md74f2cd6dd" x="368.293497" y="66.891154" style="fill: #ff0000; fill-opacity: 0.5"/>
     <use xlink:href="#md74f2cd6dd" x="372.024388" y="66.759915" style="fill: #ff0000; fill-opacity: 0.5"/>
     <use xlink:href="#md74f2cd6dd" x="375.755278" y="66.631073" style="fill: #ff0000; fill-opacity: 0.5"/>
     <use xlink:href="#md74f2cd6dd" x="379.486169" y="66.504561" style="fill: #ff0000; fill-opacity: 0.5"/>
     <use xlink:href="#md74f2cd6dd" x="383.217059" y="66.380314" style="fill: #ff0000; fill-opacity: 0.5"/>
     <use xlink:href="#md74f2cd6dd" x="386.94795" y="66.256748" style="fill: #ff0000; fill-opacity: 0.5"/>
     <use xlink:href="#md74f2cd6dd" x="390.67884" y="66.13389" style="fill: #ff0000; fill-opacity: 0.5"/>
     <use xlink:href="#md74f2cd6dd" x="394.409731" y="66.011761" style="fill: #ff0000; fill-opacity: 0.5"/>
     <use xlink:href="#md74f2cd6dd" x="398.140622" y="65.893225" style="fill: #ff0000; fill-opacity: 0.5"/>
     <use xlink:href="#md74f2cd6dd" x="401.871512" y="65.779533" style="fill: #ff0000; fill-opacity: 0.5"/>
     <use xlink:href="#md74f2cd6dd" x="405.602403" y="65.669119" style="fill: #ff0000; fill-opacity: 0.5"/>
     <use xlink:href="#md74f2cd6dd" x="409.333293" y="65.560531" style="fill: #ff0000; fill-opacity: 0.5"/>
     <use xlink:href="#md74f2cd6dd" x="413.064184" y="65.45372" style="fill: #ff0000; fill-opacity: 0.5"/>
     <use xlink:href="#md74f2cd6dd" x="416.795074" y="65.347367" style="fill: #ff0000; fill-opacity: 0.5"/>
     <use xlink:href="#md74f2cd6dd" x="420.525965" y="65.243993" style="fill: #ff0000; fill-opacity: 0.5"/>
     <use xlink:href="#md74f2cd6dd" x="424.256855" y="65.143489" style="fill: #ff0000; fill-opacity: 0.5"/>
     <use xlink:href="#md74f2cd6dd" x="427.987746" y="65.045752" style="fill: #ff0000; fill-opacity: 0.5"/>
     <use xlink:href="#md74f2cd6dd" x="431.718636" y="64.949511" style="fill: #ff0000; fill-opacity: 0.5"/>
    </g>
   </g>
   <g id="line2d_14">
    <path d="M 47.81 154.450214 
L 450 154.450214 
" clip-path="url(#pbf32d738ba)" style="fill: none; stroke-dasharray: 0.555,0.24; stroke-dashoffset: 0; stroke: #ff0000; stroke-width: 0.15"/>
   </g>
   <g id="line2d_15">
    <path d="M 47.81 39.358525 
L 450 39.358525 
" clip-path="url(#pbf32d738ba)" style="fill: none; stroke-dasharray: 0.555,0.24; stroke-dashoffset: 0; stroke: #ff0000; stroke-width: 0.15"/>
   </g>
   <g id="patch_3">
    <path d="M 47.81 303.64 
L 47.81 25.44 
" style="fill: none; stroke: #000000; stroke-width: 0.8; stroke-linejoin: miter; stroke-linecap: square"/>
   </g>
   <g id="patch_4">
    <path d="M 450 303.64 
L 450 25.44 
" style="fill: none; stroke: #000000; stroke-width: 0.8; stroke-linejoin: miter; stroke-linecap: square"/>
   </g>
   <g id="patch_5">
    <path d="M 47.81 303.64 
L 450 303.64 
" style="fill: none; stroke: #000000; stroke-width: 0.8; stroke-linejoin: miter; stroke-linecap: square"/>
   </g>
   <g id="patch_6">
    <path d="M 47.81 25.44 
L 450 25.44 
" style="fill: none; stroke: #000000; stroke-width: 0.8; stroke-linejoin: miter; stroke-linecap: square"/>
   </g>
   <g id="text_14">
    <!-- Similarity LLM-DEF_sw10 - 20240412100726 - 50 games -->
    <g transform="translate(78.98125 19.44) scale(0.12 -0.12)">
     <defs>
      <path id="DejaVuSans-20" transform="scale(0.015625)"/>
      <path id="DejaVuSans-4c" d="M 628 4666 
L 1259 4666 
L 1259 531 
L 3531 531 
L 3531 0 
L 628 0 
L 628 4666 
z
" transform="scale(0.015625)"/>
      <path id="DejaVuSans-4d" d="M 628 4666 
L 1569 4666 
L 2759 1491 
L 3956 4666 
L 4897 4666 
L 4897 0 
L 4281 0 
L 4281 4097 
L 3078 897 
L 2444 897 
L 1241 4097 
L 1241 0 
L 628 0 
L 628 4666 
z
" transform="scale(0.015625)"/>
      <path id="DejaVuSans-2d" d="M 313 2009 
L 1997 2009 
L 1997 1497 
L 313 1497 
L 313 2009 
z
" transform="scale(0.015625)"/>
      <path id="DejaVuSans-44" d="M 1259 4147 
L 1259 519 
L 2022 519 
Q 2988 519 3436 956 
Q 3884 1394 3884 2338 
Q 3884 3275 3436 3711 
Q 2988 4147 2022 4147 
L 1259 4147 
z
M 628 4666 
L 1925 4666 
Q 3281 4666 3915 4102 
Q 4550 3538 4550 2338 
Q 4550 1131 3912 565 
Q 3275 0 1925 0 
L 628 0 
L 628 4666 
z
" transform="scale(0.015625)"/>
      <path id="DejaVuSans-45" d="M 628 4666 
L 3578 4666 
L 3578 4134 
L 1259 4134 
L 1259 2753 
L 3481 2753 
L 3481 2222 
L 1259 2222 
L 1259 531 
L 3634 531 
L 3634 0 
L 628 0 
L 628 4666 
z
" transform="scale(0.015625)"/>
      <path id="DejaVuSans-46" d="M 628 4666 
L 3309 4666 
L 3309 4134 
L 1259 4134 
L 1259 2759 
L 3109 2759 
L 3109 2228 
L 1259 2228 
L 1259 0 
L 628 0 
L 628 4666 
z
" transform="scale(0.015625)"/>
      <path id="DejaVuSans-5f" d="M 3263 -1063 
L 3263 -1509 
L -63 -1509 
L -63 -1063 
L 3263 -1063 
z
" transform="scale(0.015625)"/>
      <path id="DejaVuSans-73" d="M 2834 3397 
L 2834 2853 
Q 2591 2978 2328 3040 
Q 2066 3103 1784 3103 
Q 1356 3103 1142 2972 
Q 928 2841 928 2578 
Q 928 2378 1081 2264 
Q 1234 2150 1697 2047 
L 1894 2003 
Q 2506 1872 2764 1633 
Q 3022 1394 3022 966 
Q 3022 478 2636 193 
Q 2250 -91 1575 -91 
Q 1294 -91 989 -36 
Q 684 19 347 128 
L 347 722 
Q 666 556 975 473 
Q 1284 391 1588 391 
Q 1994 391 2212 530 
Q 2431 669 2431 922 
Q 2431 1156 2273 1281 
Q 2116 1406 1581 1522 
L 1381 1569 
Q 847 1681 609 1914 
Q 372 2147 372 2553 
Q 372 3047 722 3315 
Q 1072 3584 1716 3584 
Q 2034 3584 2315 3537 
Q 2597 3491 2834 3397 
z
" transform="scale(0.015625)"/>
      <path id="DejaVuSans-77" d="M 269 3500 
L 844 3500 
L 1563 769 
L 2278 3500 
L 2956 3500 
L 3675 769 
L 4391 3500 
L 4966 3500 
L 4050 0 
L 3372 0 
L 2619 2869 
L 1863 0 
L 1184 0 
L 269 3500 
z
" transform="scale(0.015625)"/>
      <path id="DejaVuSans-35" d="M 691 4666 
L 3169 4666 
L 3169 4134 
L 1269 4134 
L 1269 2991 
Q 1406 3038 1543 3061 
Q 1681 3084 1819 3084 
Q 2600 3084 3056 2656 
Q 3513 2228 3513 1497 
Q 3513 744 3044 326 
Q 2575 -91 1722 -91 
Q 1428 -91 1123 -41 
Q 819 9 494 109 
L 494 744 
Q 775 591 1075 516 
Q 1375 441 1709 441 
Q 2250 441 2565 725 
Q 2881 1009 2881 1497 
Q 2881 1984 2565 2268 
Q 2250 2553 1709 2553 
Q 1456 2553 1204 2497 
Q 953 2441 691 2322 
L 691 4666 
z
" transform="scale(0.015625)"/>
      <path id="DejaVuSans-67" d="M 2906 1791 
Q 2906 2416 2648 2759 
Q 2391 3103 1925 3103 
Q 1463 3103 1205 2759 
Q 947 2416 947 1791 
Q 947 1169 1205 825 
Q 1463 481 1925 481 
Q 2391 481 2648 825 
Q 2906 1169 2906 1791 
z
M 3481 434 
Q 3481 -459 3084 -895 
Q 2688 -1331 1869 -1331 
Q 1566 -1331 1297 -1286 
Q 1028 -1241 775 -1147 
L 775 -588 
Q 1028 -725 1275 -790 
Q 1522 -856 1778 -856 
Q 2344 -856 2625 -561 
Q 2906 -266 2906 331 
L 2906 616 
Q 2728 306 2450 153 
Q 2172 0 1784 0 
Q 1141 0 747 490 
Q 353 981 353 1791 
Q 353 2603 747 3093 
Q 1141 3584 1784 3584 
Q 2172 3584 2450 3431 
Q 2728 3278 2906 2969 
L 2906 3500 
L 3481 3500 
L 3481 434 
z
" transform="scale(0.015625)"/>
     </defs>
     <use xlink:href="#DejaVuSans-53"/>
     <use xlink:href="#DejaVuSans-69" x="63.476562"/>
     <use xlink:href="#DejaVuSans-6d" x="91.259766"/>
     <use xlink:href="#DejaVuSans-69" x="188.671875"/>
     <use xlink:href="#DejaVuSans-6c" x="216.455078"/>
     <use xlink:href="#DejaVuSans-61" x="244.238281"/>
     <use xlink:href="#DejaVuSans-72" x="305.517578"/>
     <use xlink:href="#DejaVuSans-69" x="346.630859"/>
     <use xlink:href="#DejaVuSans-74" x="374.414062"/>
     <use xlink:href="#DejaVuSans-79" x="413.623047"/>
     <use xlink:href="#DejaVuSans-20" x="472.802734"/>
     <use xlink:href="#DejaVuSans-4c" x="504.589844"/>
     <use xlink:href="#DejaVuSans-4c" x="560.302734"/>
     <use xlink:href="#DejaVuSans-4d" x="616.015625"/>
     <use xlink:href="#DejaVuSans-2d" x="702.294922"/>
     <use xlink:href="#DejaVuSans-44" x="738.378906"/>
     <use xlink:href="#DejaVuSans-45" x="815.380859"/>
     <use xlink:href="#DejaVuSans-46" x="878.564453"/>
     <use xlink:href="#DejaVuSans-5f" x="936.083984"/>
     <use xlink:href="#DejaVuSans-73" x="986.083984"/>
     <use xlink:href="#DejaVuSans-77" x="1038.183594"/>
     <use xlink:href="#DejaVuSans-31" x="1119.970703"/>
     <use xlink:href="#DejaVuSans-30" x="1183.59375"/>
     <use xlink:href="#DejaVuSans-20" x="1247.216797"/>
     <use xlink:href="#DejaVuSans-2d" x="1279.003906"/>
     <use xlink:href="#DejaVuSans-20" x="1315.087891"/>
     <use xlink:href="#DejaVuSans-32" x="1346.875"/>
     <use xlink:href="#DejaVuSans-30" x="1410.498047"/>
     <use xlink:href="#DejaVuSans-32" x="1474.121094"/>
     <use xlink:href="#DejaVuSans-34" x="1537.744141"/>
     <use xlink:href="#DejaVuSans-30" x="1601.367188"/>
     <use xlink:href="#DejaVuSans-34" x="1664.990234"/>
     <use xlink:href="#DejaVuSans-31" x="1728.613281"/>
     <use xlink:href="#DejaVuSans-32" x="1792.236328"/>
     <use xlink:href="#DejaVuSans-31" x="1855.859375"/>
     <use xlink:href="#DejaVuSans-30" x="1919.482422"/>
     <use xlink:href="#DejaVuSans-30" x="1983.105469"/>
     <use xlink:href="#DejaVuSans-37" x="2046.728516"/>
     <use xlink:href="#DejaVuSans-32" x="2110.351562"/>
     <use xlink:href="#DejaVuSans-36" x="2173.974609"/>
     <use xlink:href="#DejaVuSans-20" x="2237.597656"/>
     <use xlink:href="#DejaVuSans-2d" x="2269.384766"/>
     <use xlink:href="#DejaVuSans-20" x="2305.46875"/>
     <use xlink:href="#DejaVuSans-35" x="2337.255859"/>
     <use xlink:href="#DejaVuSans-30" x="2400.878906"/>
     <use xlink:href="#DejaVuSans-20" x="2464.501953"/>
     <use xlink:href="#DejaVuSans-67" x="2496.289062"/>
     <use xlink:href="#DejaVuSans-61" x="2559.765625"/>
     <use xlink:href="#DejaVuSans-6d" x="2621.044922"/>
     <use xlink:href="#DejaVuSans-65" x="2718.457031"/>
     <use xlink:href="#DejaVuSans-73" x="2779.980469"/>
    </g>
   </g>
   <g id="legend_1">
    <g id="patch_7">
     <path d="M 305.2 298.64 
L 443 298.64 
Q 445 298.64 445 296.64 
L 445 267.7275 
Q 445 265.7275 443 265.7275 
L 305.2 265.7275 
Q 303.2 265.7275 303.2 267.7275 
L 303.2 296.64 
Q 303.2 298.64 305.2 298.64 
z
" style="fill: #ffffff; opacity: 0.8; stroke: #cccccc; stroke-linejoin: miter"/>
    </g>
    <g id="line2d_16">
     <path d="M 307.2 273.825937 
L 317.2 273.825937 
L 327.2 273.825937 
" style="fill: none; stroke: #0000ff; stroke-linecap: square"/>
     <g>
      <use xlink:href="#m42534d8662" x="317.2" y="273.825937" style="fill: #0000ff"/>
     </g>
    </g>
    <g id="text_15">
     <!-- LLM-DEF_sw10 -->
     <g transform="translate(335.2 277.325937) scale(0.1 -0.1)">
      <use xlink:href="#DejaVuSans-4c"/>
      <use xlink:href="#DejaVuSans-4c" x="55.712891"/>
      <use xlink:href="#DejaVuSans-4d" x="111.425781"/>
      <use xlink:href="#DejaVuSans-2d" x="197.705078"/>
      <use xlink:href="#DejaVuSans-44" x="233.789062"/>
      <use xlink:href="#DejaVuSans-45" x="310.791016"/>
      <use xlink:href="#DejaVuSans-46" x="373.974609"/>
      <use xlink:href="#DejaVuSans-5f" x="431.494141"/>
      <use xlink:href="#DejaVuSans-73" x="481.494141"/>
      <use xlink:href="#DejaVuSans-77" x="533.59375"/>
      <use xlink:href="#DejaVuSans-31" x="615.380859"/>
      <use xlink:href="#DejaVuSans-30" x="679.003906"/>
     </g>
    </g>
    <g id="line2d_17">
     <path d="M 307.2 288.782187 
L 317.2 288.782187 
L 327.2 288.782187 
" style="fill: none; stroke: #ff0000; stroke-opacity: 0.5; stroke-width: 0.5; stroke-linecap: square"/>
     <g>
      <use xlink:href="#md74f2cd6dd" x="317.2" y="288.782187" style="fill: #ff0000; fill-opacity: 0.5"/>
     </g>
    </g>
    <g id="text_16">
     <!-- LLM-DEF_sw10 mean -->
     <g transform="translate(335.2 292.282187) scale(0.1 -0.1)">
      <use xlink:href="#DejaVuSans-4c"/>
      <use xlink:href="#DejaVuSans-4c" x="55.712891"/>
      <use xlink:href="#DejaVuSans-4d" x="111.425781"/>
      <use xlink:href="#DejaVuSans-2d" x="197.705078"/>
      <use xlink:href="#DejaVuSans-44" x="233.789062"/>
      <use xlink:href="#DejaVuSans-45" x="310.791016"/>
      <use xlink:href="#DejaVuSans-46" x="373.974609"/>
      <use xlink:href="#DejaVuSans-5f" x="431.494141"/>
      <use xlink:href="#DejaVuSans-73" x="481.494141"/>
      <use xlink:href="#DejaVuSans-77" x="533.59375"/>
      <use xlink:href="#DejaVuSans-31" x="615.380859"/>
      <use xlink:href="#DejaVuSans-30" x="679.003906"/>
      <use xlink:href="#DejaVuSans-20" x="742.626953"/>
      <use xlink:href="#DejaVuSans-6d" x="774.414062"/>
      <use xlink:href="#DejaVuSans-65" x="871.826172"/>
      <use xlink:href="#DejaVuSans-61" x="933.349609"/>
      <use xlink:href="#DejaVuSans-6e" x="994.628906"/>
     </g>
    </g>
   </g>
  </g>
 </g>
 <defs>
  <clipPath id="pbf32d738ba">
   <rect x="47.81" y="25.44" width="402.19" height="278.2"/>
  </clipPath>
 </defs>
</svg>
