<?xml version="1.0" encoding="utf-8" standalone="no"?>
<!DOCTYPE svg PUBLIC "-//W3C//DTD SVG 1.1//EN"
  "http://www.w3.org/Graphics/SVG/1.1/DTD/svg11.dtd">
<svg xmlns:xlink="http://www.w3.org/1999/xlink" width="460.8pt" height="345.6pt" viewBox="0 0 460.8 345.6" xmlns="http://www.w3.org/2000/svg" version="1.1">
 <metadata>
  <rdf:RDF xmlns:dc="http://purl.org/dc/elements/1.1/" xmlns:cc="http://creativecommons.org/ns#" xmlns:rdf="http://www.w3.org/1999/02/22-rdf-syntax-ns#">
   <cc:Work>
    <dc:type rdf:resource="http://purl.org/dc/dcmitype/StillImage"/>
    <dc:date>2024-04-17T09:34:18.758529</dc:date>
    <dc:format>image/svg+xml</dc:format>
    <dc:creator>
     <cc:Agent>
      <dc:title>Matplotlib v3.8.0, https://matplotlib.org/</dc:title>
     </cc:Agent>
    </dc:creator>
   </cc:Work>
  </rdf:RDF>
 </metadata>
 <defs>
  <style type="text/css">*{stroke-linejoin: round; stroke-linecap: butt}</style>
 </defs>
 <g id="figure_1">
  <g id="patch_1">
   <path d="M 0 345.6 
L 460.8 345.6 
L 460.8 0 
L 0 0 
z
" style="fill: #ffffff"/>
  </g>
  <g id="axes_1">
   <g id="patch_2">
    <path d="M 47.81 303.64 
L 450 303.64 
L 450 25.44 
L 47.81 25.44 
z
" style="fill: #ffffff"/>
   </g>
   <g id="PolyCollection_1">
    <defs>
     <path id="m907c339e88" d="M 66.091364 -104.964457 
L 66.091364 -104.964457 
L 69.822254 -214.384106 
L 73.553145 -238.365435 
L 77.284035 -254.050143 
L 81.014926 -265.620166 
L 84.745816 -274.280904 
L 88.476707 -280.541406 
L 92.207597 -285.26746 
L 95.938488 -289.179465 
L 99.669378 -292.453013 
L 103.400269 -295.07093 
L 107.13116 -297.079696 
L 110.86205 -298.546611 
L 114.592941 -299.626566 
L 118.323831 -300.569633 
L 122.054722 -301.39755 
L 125.785612 -302.071479 
L 129.516503 -302.524526 
L 133.247393 -302.93974 
L 136.978284 -303.320378 
L 140.709174 -303.705244 
L 144.440065 -304.056202 
L 148.170955 -304.406557 
L 151.901846 -304.752988 
L 155.632737 -305.093147 
L 159.363627 -305.378535 
L 163.094518 -305.638834 
L 166.825408 -305.876641 
L 170.556299 -306.094224 
L 174.287189 -306.293571 
L 178.01808 -306.444394 
L 181.74897 -306.598509 
L 185.479861 -306.754569 
L 189.210751 -306.898162 
L 192.941642 -307.030382 
L 196.672532 -307.164024 
L 200.403423 -307.275942 
L 204.134314 -307.379149 
L 207.865204 -307.444689 
L 211.596095 -307.486751 
L 215.326985 -307.499586 
L 219.057876 -307.511457 
L 222.788766 -307.514545 
L 226.519657 -307.509817 
L 230.250547 -307.491098 
L 233.981438 -307.466684 
L 237.712328 -307.424538 
L 241.443219 -307.384792 
L 245.174109 -307.34722 
L 248.905 -307.306058 
L 252.635891 -307.272381 
L 256.366781 -307.240331 
L 260.097672 -307.209765 
L 263.828562 -307.185355 
L 267.559453 -307.161908 
L 271.290343 -307.139338 
L 275.021234 -307.117565 
L 278.752124 -307.08821 
L 282.483015 -307.05996 
L 286.213905 -307.028873 
L 289.944796 -307.002664 
L 293.675686 -306.98096 
L 297.406577 -306.959883 
L 301.137468 -306.94281 
L 304.868358 -306.929439 
L 308.599249 -306.909798 
L 312.330139 -306.890624 
L 316.06103 -306.874913 
L 319.79192 -306.859466 
L 323.522811 -306.847131 
L 327.253701 -306.837694 
L 330.984592 -306.830951 
L 334.715482 -306.824048 
L 338.446373 -306.814405 
L 342.177263 -306.802214 
L 345.908154 -306.790084 
L 349.639045 -306.77801 
L 353.369935 -306.768301 
L 357.100826 -306.758543 
L 360.831716 -306.750943 
L 364.562607 -306.741058 
L 368.293497 -306.729038 
L 372.024388 -306.717052 
L 375.755278 -306.705099 
L 379.486169 -306.693176 
L 383.217059 -306.68128 
L 386.94795 -306.671264 
L 390.67884 -306.663021 
L 394.409731 -306.656453 
L 398.140622 -306.647979 
L 401.871512 -306.63602 
L 405.602403 -306.622436 
L 409.333293 -306.608933 
L 413.064184 -306.595505 
L 416.795074 -306.583695 
L 420.525965 -306.570394 
L 424.256855 -306.555686 
L 427.987746 -306.539654 
L 431.718636 -306.523778 
L 431.718636 -261.48725 
L 431.718636 -261.48725 
L 427.987746 -261.30293 
L 424.256855 -261.115837 
L 420.525965 -260.925225 
L 416.795074 -260.730995 
L 413.064184 -260.533044 
L 409.333293 -260.332675 
L 405.602403 -260.129116 
L 401.871512 -259.922285 
L 398.140622 -259.711339 
L 394.409731 -259.4954 
L 390.67884 -259.27508 
L 386.94795 -259.051808 
L 383.217059 -258.825524 
L 379.486169 -258.596169 
L 375.755278 -258.362822 
L 372.024388 -258.125367 
L 368.293497 -257.883683 
L 364.562607 -257.637645 
L 360.831716 -257.386186 
L 357.100826 -257.129126 
L 353.369935 -256.868211 
L 349.639045 -256.602348 
L 345.908154 -256.332411 
L 342.177263 -256.05724 
L 338.446373 -255.776666 
L 334.715482 -255.489396 
L 330.984592 -255.195188 
L 327.253701 -254.894936 
L 323.522811 -254.589626 
L 319.79192 -254.279129 
L 316.06103 -253.963312 
L 312.330139 -253.6407 
L 308.599249 -253.312425 
L 304.868358 -252.976906 
L 301.137468 -252.630963 
L 297.406577 -252.278599 
L 293.675686 -251.919635 
L 289.944796 -251.552263 
L 286.213905 -251.177829 
L 282.483015 -250.796134 
L 278.752124 -250.403323 
L 275.021234 -250.000745 
L 271.290343 -249.584153 
L 267.559453 -249.156764 
L 263.828562 -248.718109 
L 260.097672 -248.267685 
L 256.366781 -247.807172 
L 252.635891 -247.333904 
L 248.905 -246.847285 
L 245.174109 -246.349202 
L 241.443219 -245.833958 
L 237.712328 -245.30332 
L 233.981438 -244.75651 
L 230.250547 -244.183883 
L 226.519657 -243.58982 
L 222.788766 -242.969976 
L 219.057876 -242.325868 
L 215.326985 -241.65598 
L 211.596095 -240.962035 
L 207.865204 -240.232096 
L 204.134314 -239.467333 
L 200.403423 -238.661928 
L 196.672532 -237.823908 
L 192.941642 -236.94728 
L 189.210751 -236.037076 
L 185.479861 -235.086864 
L 181.74897 -234.093661 
L 178.01808 -233.058825 
L 174.287189 -231.979339 
L 170.556299 -230.835893 
L 166.825408 -229.633788 
L 163.094518 -228.367878 
L 159.363627 -227.032359 
L 155.632737 -225.620663 
L 151.901846 -224.11844 
L 148.170955 -222.530888 
L 144.440065 -220.849403 
L 140.709174 -219.06411 
L 136.978284 -217.153601 
L 133.247393 -215.113361 
L 129.516503 -212.915281 
L 125.785612 -210.537667 
L 122.054722 -207.911904 
L 118.323831 -205.029792 
L 114.592941 -201.864719 
L 110.86205 -198.366842 
L 107.13116 -194.437614 
L 103.400269 -189.998686 
L 99.669378 -184.970934 
L 95.938488 -179.245674 
L 92.207597 -172.664555 
L 88.476707 -164.978571 
L 84.745816 -155.828761 
L 81.014926 -144.737579 
L 77.284035 -130.876305 
L 73.553145 -112.568687 
L 69.822254 -86.191014 
L 66.091364 -104.964457 
z
" style="stroke: #ff0000; stroke-opacity: 0.2"/>
    </defs>
    <g clip-path="url(#pd24c965da3)">
     <use xlink:href="#m907c339e88" x="0" y="345.6" style="fill: #ff0000; fill-opacity: 0.2; stroke: #ff0000; stroke-opacity: 0.2"/>
    </g>
   </g>
   <g id="matplotlib.axis_1">
    <g id="xtick_1">
     <g id="line2d_1">
      <defs>
       <path id="m8a0e638116" d="M 0 0 
L 0 3.5 
" style="stroke: #000000; stroke-width: 0.8"/>
      </defs>
      <g>
       <use xlink:href="#m8a0e638116" x="66.091364" y="303.64" style="stroke: #000000; stroke-width: 0.8"/>
      </g>
     </g>
     <g id="text_1">
      <!-- 0 -->
      <g transform="translate(62.910114 318.238437) scale(0.1 -0.1)">
       <defs>
        <path id="DejaVuSans-30" d="M 2034 4250 
Q 1547 4250 1301 3770 
Q 1056 3291 1056 2328 
Q 1056 1369 1301 889 
Q 1547 409 2034 409 
Q 2525 409 2770 889 
Q 3016 1369 3016 2328 
Q 3016 3291 2770 3770 
Q 2525 4250 2034 4250 
z
M 2034 4750 
Q 2819 4750 3233 4129 
Q 3647 3509 3647 2328 
Q 3647 1150 3233 529 
Q 2819 -91 2034 -91 
Q 1250 -91 836 529 
Q 422 1150 422 2328 
Q 422 3509 836 4129 
Q 1250 4750 2034 4750 
z
" transform="scale(0.015625)"/>
       </defs>
       <use xlink:href="#DejaVuSans-30"/>
      </g>
     </g>
    </g>
    <g id="xtick_2">
     <g id="line2d_2">
      <g>
       <use xlink:href="#m8a0e638116" x="140.709174" y="303.64" style="stroke: #000000; stroke-width: 0.8"/>
      </g>
     </g>
     <g id="text_2">
      <!-- 20 -->
      <g transform="translate(134.346674 318.238437) scale(0.1 -0.1)">
       <defs>
        <path id="DejaVuSans-32" d="M 1228 531 
L 3431 531 
L 3431 0 
L 469 0 
L 469 531 
Q 828 903 1448 1529 
Q 2069 2156 2228 2338 
Q 2531 2678 2651 2914 
Q 2772 3150 2772 3378 
Q 2772 3750 2511 3984 
Q 2250 4219 1831 4219 
Q 1534 4219 1204 4116 
Q 875 4013 500 3803 
L 500 4441 
Q 881 4594 1212 4672 
Q 1544 4750 1819 4750 
Q 2544 4750 2975 4387 
Q 3406 4025 3406 3419 
Q 3406 3131 3298 2873 
Q 3191 2616 2906 2266 
Q 2828 2175 2409 1742 
Q 1991 1309 1228 531 
z
" transform="scale(0.015625)"/>
       </defs>
       <use xlink:href="#DejaVuSans-32"/>
       <use xlink:href="#DejaVuSans-30" x="63.623047"/>
      </g>
     </g>
    </g>
    <g id="xtick_3">
     <g id="line2d_3">
      <g>
       <use xlink:href="#m8a0e638116" x="215.326985" y="303.64" style="stroke: #000000; stroke-width: 0.8"/>
      </g>
     </g>
     <g id="text_3">
      <!-- 40 -->
      <g transform="translate(208.964485 318.238437) scale(0.1 -0.1)">
       <defs>
        <path id="DejaVuSans-34" d="M 2419 4116 
L 825 1625 
L 2419 1625 
L 2419 4116 
z
M 2253 4666 
L 3047 4666 
L 3047 1625 
L 3713 1625 
L 3713 1100 
L 3047 1100 
L 3047 0 
L 2419 0 
L 2419 1100 
L 313 1100 
L 313 1709 
L 2253 4666 
z
" transform="scale(0.015625)"/>
       </defs>
       <use xlink:href="#DejaVuSans-34"/>
       <use xlink:href="#DejaVuSans-30" x="63.623047"/>
      </g>
     </g>
    </g>
    <g id="xtick_4">
     <g id="line2d_4">
      <g>
       <use xlink:href="#m8a0e638116" x="289.944796" y="303.64" style="stroke: #000000; stroke-width: 0.8"/>
      </g>
     </g>
     <g id="text_4">
      <!-- 60 -->
      <g transform="translate(283.582296 318.238437) scale(0.1 -0.1)">
       <defs>
        <path id="DejaVuSans-36" d="M 2113 2584 
Q 1688 2584 1439 2293 
Q 1191 2003 1191 1497 
Q 1191 994 1439 701 
Q 1688 409 2113 409 
Q 2538 409 2786 701 
Q 3034 994 3034 1497 
Q 3034 2003 2786 2293 
Q 2538 2584 2113 2584 
z
M 3366 4563 
L 3366 3988 
Q 3128 4100 2886 4159 
Q 2644 4219 2406 4219 
Q 1781 4219 1451 3797 
Q 1122 3375 1075 2522 
Q 1259 2794 1537 2939 
Q 1816 3084 2150 3084 
Q 2853 3084 3261 2657 
Q 3669 2231 3669 1497 
Q 3669 778 3244 343 
Q 2819 -91 2113 -91 
Q 1303 -91 875 529 
Q 447 1150 447 2328 
Q 447 3434 972 4092 
Q 1497 4750 2381 4750 
Q 2619 4750 2861 4703 
Q 3103 4656 3366 4563 
z
" transform="scale(0.015625)"/>
       </defs>
       <use xlink:href="#DejaVuSans-36"/>
       <use xlink:href="#DejaVuSans-30" x="63.623047"/>
      </g>
     </g>
    </g>
    <g id="xtick_5">
     <g id="line2d_5">
      <g>
       <use xlink:href="#m8a0e638116" x="364.562607" y="303.64" style="stroke: #000000; stroke-width: 0.8"/>
      </g>
     </g>
     <g id="text_5">
      <!-- 80 -->
      <g transform="translate(358.200107 318.238437) scale(0.1 -0.1)">
       <defs>
        <path id="DejaVuSans-38" d="M 2034 2216 
Q 1584 2216 1326 1975 
Q 1069 1734 1069 1313 
Q 1069 891 1326 650 
Q 1584 409 2034 409 
Q 2484 409 2743 651 
Q 3003 894 3003 1313 
Q 3003 1734 2745 1975 
Q 2488 2216 2034 2216 
z
M 1403 2484 
Q 997 2584 770 2862 
Q 544 3141 544 3541 
Q 544 4100 942 4425 
Q 1341 4750 2034 4750 
Q 2731 4750 3128 4425 
Q 3525 4100 3525 3541 
Q 3525 3141 3298 2862 
Q 3072 2584 2669 2484 
Q 3125 2378 3379 2068 
Q 3634 1759 3634 1313 
Q 3634 634 3220 271 
Q 2806 -91 2034 -91 
Q 1263 -91 848 271 
Q 434 634 434 1313 
Q 434 1759 690 2068 
Q 947 2378 1403 2484 
z
M 1172 3481 
Q 1172 3119 1398 2916 
Q 1625 2713 2034 2713 
Q 2441 2713 2670 2916 
Q 2900 3119 2900 3481 
Q 2900 3844 2670 4047 
Q 2441 4250 2034 4250 
Q 1625 4250 1398 4047 
Q 1172 3844 1172 3481 
z
" transform="scale(0.015625)"/>
       </defs>
       <use xlink:href="#DejaVuSans-38"/>
       <use xlink:href="#DejaVuSans-30" x="63.623047"/>
      </g>
     </g>
    </g>
    <g id="xtick_6">
     <g id="line2d_6">
      <g>
       <use xlink:href="#m8a0e638116" x="439.180417" y="303.64" style="stroke: #000000; stroke-width: 0.8"/>
      </g>
     </g>
     <g id="text_6">
      <!-- 100 -->
      <g transform="translate(429.636667 318.238437) scale(0.1 -0.1)">
       <defs>
        <path id="DejaVuSans-31" d="M 794 531 
L 1825 531 
L 1825 4091 
L 703 3866 
L 703 4441 
L 1819 4666 
L 2450 4666 
L 2450 531 
L 3481 531 
L 3481 0 
L 794 0 
L 794 531 
z
" transform="scale(0.015625)"/>
       </defs>
       <use xlink:href="#DejaVuSans-31"/>
       <use xlink:href="#DejaVuSans-30" x="63.623047"/>
       <use xlink:href="#DejaVuSans-30" x="127.246094"/>
      </g>
     </g>
    </g>
    <g id="text_7">
     <!-- Iteration -->
     <g transform="translate(227.696406 331.916562) scale(0.1 -0.1)">
      <defs>
       <path id="DejaVuSans-49" d="M 628 4666 
L 1259 4666 
L 1259 0 
L 628 0 
L 628 4666 
z
" transform="scale(0.015625)"/>
       <path id="DejaVuSans-74" d="M 1172 4494 
L 1172 3500 
L 2356 3500 
L 2356 3053 
L 1172 3053 
L 1172 1153 
Q 1172 725 1289 603 
Q 1406 481 1766 481 
L 2356 481 
L 2356 0 
L 1766 0 
Q 1100 0 847 248 
Q 594 497 594 1153 
L 594 3053 
L 172 3053 
L 172 3500 
L 594 3500 
L 594 4494 
L 1172 4494 
z
" transform="scale(0.015625)"/>
       <path id="DejaVuSans-65" d="M 3597 1894 
L 3597 1613 
L 953 1613 
Q 991 1019 1311 708 
Q 1631 397 2203 397 
Q 2534 397 2845 478 
Q 3156 559 3463 722 
L 3463 178 
Q 3153 47 2828 -22 
Q 2503 -91 2169 -91 
Q 1331 -91 842 396 
Q 353 884 353 1716 
Q 353 2575 817 3079 
Q 1281 3584 2069 3584 
Q 2775 3584 3186 3129 
Q 3597 2675 3597 1894 
z
M 3022 2063 
Q 3016 2534 2758 2815 
Q 2500 3097 2075 3097 
Q 1594 3097 1305 2825 
Q 1016 2553 972 2059 
L 3022 2063 
z
" transform="scale(0.015625)"/>
       <path id="DejaVuSans-72" d="M 2631 2963 
Q 2534 3019 2420 3045 
Q 2306 3072 2169 3072 
Q 1681 3072 1420 2755 
Q 1159 2438 1159 1844 
L 1159 0 
L 581 0 
L 581 3500 
L 1159 3500 
L 1159 2956 
Q 1341 3275 1631 3429 
Q 1922 3584 2338 3584 
Q 2397 3584 2469 3576 
Q 2541 3569 2628 3553 
L 2631 2963 
z
" transform="scale(0.015625)"/>
       <path id="DejaVuSans-61" d="M 2194 1759 
Q 1497 1759 1228 1600 
Q 959 1441 959 1056 
Q 959 750 1161 570 
Q 1363 391 1709 391 
Q 2188 391 2477 730 
Q 2766 1069 2766 1631 
L 2766 1759 
L 2194 1759 
z
M 3341 1997 
L 3341 0 
L 2766 0 
L 2766 531 
Q 2569 213 2275 61 
Q 1981 -91 1556 -91 
Q 1019 -91 701 211 
Q 384 513 384 1019 
Q 384 1609 779 1909 
Q 1175 2209 1959 2209 
L 2766 2209 
L 2766 2266 
Q 2766 2663 2505 2880 
Q 2244 3097 1772 3097 
Q 1472 3097 1187 3025 
Q 903 2953 641 2809 
L 641 3341 
Q 956 3463 1253 3523 
Q 1550 3584 1831 3584 
Q 2591 3584 2966 3190 
Q 3341 2797 3341 1997 
z
" transform="scale(0.015625)"/>
       <path id="DejaVuSans-69" d="M 603 3500 
L 1178 3500 
L 1178 0 
L 603 0 
L 603 3500 
z
M 603 4863 
L 1178 4863 
L 1178 4134 
L 603 4134 
L 603 4863 
z
" transform="scale(0.015625)"/>
       <path id="DejaVuSans-6f" d="M 1959 3097 
Q 1497 3097 1228 2736 
Q 959 2375 959 1747 
Q 959 1119 1226 758 
Q 1494 397 1959 397 
Q 2419 397 2687 759 
Q 2956 1122 2956 1747 
Q 2956 2369 2687 2733 
Q 2419 3097 1959 3097 
z
M 1959 3584 
Q 2709 3584 3137 3096 
Q 3566 2609 3566 1747 
Q 3566 888 3137 398 
Q 2709 -91 1959 -91 
Q 1206 -91 779 398 
Q 353 888 353 1747 
Q 353 2609 779 3096 
Q 1206 3584 1959 3584 
z
" transform="scale(0.015625)"/>
       <path id="DejaVuSans-6e" d="M 3513 2113 
L 3513 0 
L 2938 0 
L 2938 2094 
Q 2938 2591 2744 2837 
Q 2550 3084 2163 3084 
Q 1697 3084 1428 2787 
Q 1159 2491 1159 1978 
L 1159 0 
L 581 0 
L 581 3500 
L 1159 3500 
L 1159 2956 
Q 1366 3272 1645 3428 
Q 1925 3584 2291 3584 
Q 2894 3584 3203 3211 
Q 3513 2838 3513 2113 
z
" transform="scale(0.015625)"/>
      </defs>
      <use xlink:href="#DejaVuSans-49"/>
      <use xlink:href="#DejaVuSans-74" x="29.492188"/>
      <use xlink:href="#DejaVuSans-65" x="68.701172"/>
      <use xlink:href="#DejaVuSans-72" x="130.224609"/>
      <use xlink:href="#DejaVuSans-61" x="171.337891"/>
      <use xlink:href="#DejaVuSans-74" x="232.617188"/>
      <use xlink:href="#DejaVuSans-69" x="271.826172"/>
      <use xlink:href="#DejaVuSans-6f" x="299.609375"/>
      <use xlink:href="#DejaVuSans-6e" x="360.791016"/>
     </g>
    </g>
   </g>
   <g id="matplotlib.axis_2">
    <g id="ytick_1">
     <g id="line2d_7">
      <defs>
       <path id="m6861f581d2" d="M 0 0 
L -3.5 0 
" style="stroke: #000000; stroke-width: 0.8"/>
      </defs>
      <g>
       <use xlink:href="#m6861f581d2" x="47.81" y="290.994545" style="stroke: #000000; stroke-width: 0.8"/>
      </g>
     </g>
     <g id="text_8">
      <!-- 0.5 -->
      <g transform="translate(24.906875 294.793764) scale(0.1 -0.1)">
       <defs>
        <path id="DejaVuSans-2e" d="M 684 794 
L 1344 794 
L 1344 0 
L 684 0 
L 684 794 
z
" transform="scale(0.015625)"/>
        <path id="DejaVuSans-35" d="M 691 4666 
L 3169 4666 
L 3169 4134 
L 1269 4134 
L 1269 2991 
Q 1406 3038 1543 3061 
Q 1681 3084 1819 3084 
Q 2600 3084 3056 2656 
Q 3513 2228 3513 1497 
Q 3513 744 3044 326 
Q 2575 -91 1722 -91 
Q 1428 -91 1123 -41 
Q 819 9 494 109 
L 494 744 
Q 775 591 1075 516 
Q 1375 441 1709 441 
Q 2250 441 2565 725 
Q 2881 1009 2881 1497 
Q 2881 1984 2565 2268 
Q 2250 2553 1709 2553 
Q 1456 2553 1204 2497 
Q 953 2441 691 2322 
L 691 4666 
z
" transform="scale(0.015625)"/>
       </defs>
       <use xlink:href="#DejaVuSans-30"/>
       <use xlink:href="#DejaVuSans-2e" x="63.623047"/>
       <use xlink:href="#DejaVuSans-35" x="95.410156"/>
      </g>
     </g>
    </g>
    <g id="ytick_2">
     <g id="line2d_8">
      <g>
       <use xlink:href="#m6861f581d2" x="47.81" y="240.635543" style="stroke: #000000; stroke-width: 0.8"/>
      </g>
     </g>
     <g id="text_9">
      <!-- 0.6 -->
      <g transform="translate(24.906875 244.434762) scale(0.1 -0.1)">
       <use xlink:href="#DejaVuSans-30"/>
       <use xlink:href="#DejaVuSans-2e" x="63.623047"/>
       <use xlink:href="#DejaVuSans-36" x="95.410156"/>
      </g>
     </g>
    </g>
    <g id="ytick_3">
     <g id="line2d_9">
      <g>
       <use xlink:href="#m6861f581d2" x="47.81" y="190.27654" style="stroke: #000000; stroke-width: 0.8"/>
      </g>
     </g>
     <g id="text_10">
      <!-- 0.7 -->
      <g transform="translate(24.906875 194.075759) scale(0.1 -0.1)">
       <defs>
        <path id="DejaVuSans-37" d="M 525 4666 
L 3525 4666 
L 3525 4397 
L 1831 0 
L 1172 0 
L 2766 4134 
L 525 4134 
L 525 4666 
z
" transform="scale(0.015625)"/>
       </defs>
       <use xlink:href="#DejaVuSans-30"/>
       <use xlink:href="#DejaVuSans-2e" x="63.623047"/>
       <use xlink:href="#DejaVuSans-37" x="95.410156"/>
      </g>
     </g>
    </g>
    <g id="ytick_4">
     <g id="line2d_10">
      <g>
       <use xlink:href="#m6861f581d2" x="47.81" y="139.917537" style="stroke: #000000; stroke-width: 0.8"/>
      </g>
     </g>
     <g id="text_11">
      <!-- 0.8 -->
      <g transform="translate(24.906875 143.716756) scale(0.1 -0.1)">
       <use xlink:href="#DejaVuSans-30"/>
       <use xlink:href="#DejaVuSans-2e" x="63.623047"/>
       <use xlink:href="#DejaVuSans-38" x="95.410156"/>
      </g>
     </g>
    </g>
    <g id="ytick_5">
     <g id="line2d_11">
      <g>
       <use xlink:href="#m6861f581d2" x="47.81" y="89.558535" style="stroke: #000000; stroke-width: 0.8"/>
      </g>
     </g>
     <g id="text_12">
      <!-- 0.9 -->
      <g transform="translate(24.906875 93.357754) scale(0.1 -0.1)">
       <defs>
        <path id="DejaVuSans-39" d="M 703 97 
L 703 672 
Q 941 559 1184 500 
Q 1428 441 1663 441 
Q 2288 441 2617 861 
Q 2947 1281 2994 2138 
Q 2813 1869 2534 1725 
Q 2256 1581 1919 1581 
Q 1219 1581 811 2004 
Q 403 2428 403 3163 
Q 403 3881 828 4315 
Q 1253 4750 1959 4750 
Q 2769 4750 3195 4129 
Q 3622 3509 3622 2328 
Q 3622 1225 3098 567 
Q 2575 -91 1691 -91 
Q 1453 -91 1209 -44 
Q 966 3 703 97 
z
M 1959 2075 
Q 2384 2075 2632 2365 
Q 2881 2656 2881 3163 
Q 2881 3666 2632 3958 
Q 2384 4250 1959 4250 
Q 1534 4250 1286 3958 
Q 1038 3666 1038 3163 
Q 1038 2656 1286 2365 
Q 1534 2075 1959 2075 
z
" transform="scale(0.015625)"/>
       </defs>
       <use xlink:href="#DejaVuSans-30"/>
       <use xlink:href="#DejaVuSans-2e" x="63.623047"/>
       <use xlink:href="#DejaVuSans-39" x="95.410156"/>
      </g>
     </g>
    </g>
    <g id="ytick_6">
     <g id="line2d_12">
      <g>
       <use xlink:href="#m6861f581d2" x="47.81" y="39.199532" style="stroke: #000000; stroke-width: 0.8"/>
      </g>
     </g>
     <g id="text_13">
      <!-- 1.0 -->
      <g transform="translate(24.906875 42.998751) scale(0.1 -0.1)">
       <use xlink:href="#DejaVuSans-31"/>
       <use xlink:href="#DejaVuSans-2e" x="63.623047"/>
       <use xlink:href="#DejaVuSans-30" x="95.410156"/>
      </g>
     </g>
    </g>
    <g id="text_14">
     <!-- Similarity -->
     <g transform="translate(18.827187 188.179844) rotate(-90) scale(0.1 -0.1)">
      <defs>
       <path id="DejaVuSans-53" d="M 3425 4513 
L 3425 3897 
Q 3066 4069 2747 4153 
Q 2428 4238 2131 4238 
Q 1616 4238 1336 4038 
Q 1056 3838 1056 3469 
Q 1056 3159 1242 3001 
Q 1428 2844 1947 2747 
L 2328 2669 
Q 3034 2534 3370 2195 
Q 3706 1856 3706 1288 
Q 3706 609 3251 259 
Q 2797 -91 1919 -91 
Q 1588 -91 1214 -16 
Q 841 59 441 206 
L 441 856 
Q 825 641 1194 531 
Q 1563 422 1919 422 
Q 2459 422 2753 634 
Q 3047 847 3047 1241 
Q 3047 1584 2836 1778 
Q 2625 1972 2144 2069 
L 1759 2144 
Q 1053 2284 737 2584 
Q 422 2884 422 3419 
Q 422 4038 858 4394 
Q 1294 4750 2059 4750 
Q 2388 4750 2728 4690 
Q 3069 4631 3425 4513 
z
" transform="scale(0.015625)"/>
       <path id="DejaVuSans-6d" d="M 3328 2828 
Q 3544 3216 3844 3400 
Q 4144 3584 4550 3584 
Q 5097 3584 5394 3201 
Q 5691 2819 5691 2113 
L 5691 0 
L 5113 0 
L 5113 2094 
Q 5113 2597 4934 2840 
Q 4756 3084 4391 3084 
Q 3944 3084 3684 2787 
Q 3425 2491 3425 1978 
L 3425 0 
L 2847 0 
L 2847 2094 
Q 2847 2600 2669 2842 
Q 2491 3084 2119 3084 
Q 1678 3084 1418 2786 
Q 1159 2488 1159 1978 
L 1159 0 
L 581 0 
L 581 3500 
L 1159 3500 
L 1159 2956 
Q 1356 3278 1631 3431 
Q 1906 3584 2284 3584 
Q 2666 3584 2933 3390 
Q 3200 3197 3328 2828 
z
" transform="scale(0.015625)"/>
       <path id="DejaVuSans-6c" d="M 603 4863 
L 1178 4863 
L 1178 0 
L 603 0 
L 603 4863 
z
" transform="scale(0.015625)"/>
       <path id="DejaVuSans-79" d="M 2059 -325 
Q 1816 -950 1584 -1140 
Q 1353 -1331 966 -1331 
L 506 -1331 
L 506 -850 
L 844 -850 
Q 1081 -850 1212 -737 
Q 1344 -625 1503 -206 
L 1606 56 
L 191 3500 
L 800 3500 
L 1894 763 
L 2988 3500 
L 3597 3500 
L 2059 -325 
z
" transform="scale(0.015625)"/>
      </defs>
      <use xlink:href="#DejaVuSans-53"/>
      <use xlink:href="#DejaVuSans-69" x="63.476562"/>
      <use xlink:href="#DejaVuSans-6d" x="91.259766"/>
      <use xlink:href="#DejaVuSans-69" x="188.671875"/>
      <use xlink:href="#DejaVuSans-6c" x="216.455078"/>
      <use xlink:href="#DejaVuSans-61" x="244.238281"/>
      <use xlink:href="#DejaVuSans-72" x="305.517578"/>
      <use xlink:href="#DejaVuSans-69" x="346.630859"/>
      <use xlink:href="#DejaVuSans-74" x="374.414062"/>
      <use xlink:href="#DejaVuSans-79" x="413.623047"/>
     </g>
    </g>
   </g>
   <g id="line2d_13">
    <path d="M 66.091364 240.635543 
L 69.822254 149.989338 
L 73.553145 119.773936 
L 77.284035 102.148285 
L 81.014926 89.558535 
L 84.745816 81.165368 
L 88.476707 76.609077 
L 92.207597 73.191859 
L 95.938488 69.414934 
L 99.669378 66.393394 
L 103.400269 64.836843 
L 107.13116 64.379033 
L 110.86205 64.76641 
L 114.592941 65.098448 
L 118.323831 64.043307 
L 122.054722 63.120058 
L 125.785612 62.897886 
L 129.516503 63.819489 
L 133.247393 63.053797 
L 136.978284 62.364673 
L 140.709174 61.261571 
L 144.440065 60.716561 
L 148.170955 59.781038 
L 151.901846 58.923475 
L 155.632737 58.134517 
L 159.363627 58.181002 
L 163.094518 57.851015 
L 166.825408 57.544597 
L 170.556299 57.259312 
L 174.287189 56.993046 
L 178.01808 57.393752 
L 181.74897 56.825183 
L 185.479861 56.291072 
L 189.210751 56.084609 
L 192.941642 55.889944 
L 196.672532 55.426322 
L 200.403423 55.532182 
L 204.134314 55.367422 
L 207.865204 55.985866 
L 211.596095 56.321593 
L 215.326985 56.886596 
L 219.057876 56.705281 
L 222.788766 56.766626 
L 226.519657 56.825183 
L 230.250547 57.104955 
L 233.981438 57.153611 
L 237.712328 57.628784 
L 241.443219 57.454671 
L 245.174109 57.287664 
L 248.905 57.328773 
L 252.635891 56.973298 
L 256.366781 56.825183 
L 260.097672 56.682658 
L 263.828562 56.358896 
L 267.559453 56.230031 
L 271.290343 56.105769 
L 275.021234 55.985866 
L 278.752124 56.217402 
L 282.483015 56.099672 
L 286.213905 56.15373 
L 289.944796 55.875792 
L 293.675686 55.60682 
L 297.406577 55.506257 
L 301.137468 55.251464 
L 304.868358 55.004511 
L 308.599249 55.222851 
L 312.330139 55.134023 
L 316.06103 54.899692 
L 319.79192 54.818121 
L 323.522811 54.594999 
L 327.253701 54.378161 
L 330.984592 54.167347 
L 334.715482 54.100278 
L 338.446373 54.171128 
L 342.177263 54.240088 
L 345.908154 54.174709 
L 349.639045 54.111029 
L 353.369935 53.919856 
L 357.100826 53.861014 
L 360.831716 53.677745 
L 364.562607 53.747688 
L 368.293497 53.815926 
L 372.024388 53.761171 
L 375.755278 53.707721 
L 379.486169 53.655528 
L 383.217059 53.604549 
L 386.94795 53.438974 
L 390.67884 53.277162 
L 394.409731 53.118987 
L 398.140622 53.188144 
L 401.871512 53.36646 
L 405.602403 53.431424 
L 409.333293 53.386692 
L 413.064184 53.342912 
L 416.795074 53.194034 
L 420.525965 53.258087 
L 424.256855 53.320819 
L 427.987746 53.382272 
L 431.718636 53.340747 
" clip-path="url(#pd24c965da3)" style="fill: none; stroke: #0000ff; stroke-linecap: square"/>
    <defs>
     <path id="m8602cd4be0" d="M -0.49999 0.49999 
L 0.50001 0.49999 
L 0.50001 -0.50001 
L -0.49999 -0.50001 
z
"/>
    </defs>
    <g clip-path="url(#pd24c965da3)">
     <use xlink:href="#m8602cd4be0" x="66.091364" y="240.635543" style="fill: #0000ff"/>
     <use xlink:href="#m8602cd4be0" x="69.822254" y="149.989338" style="fill: #0000ff"/>
     <use xlink:href="#m8602cd4be0" x="73.553145" y="119.773936" style="fill: #0000ff"/>
     <use xlink:href="#m8602cd4be0" x="77.284035" y="102.148285" style="fill: #0000ff"/>
     <use xlink:href="#m8602cd4be0" x="81.014926" y="89.558535" style="fill: #0000ff"/>
     <use xlink:href="#m8602cd4be0" x="84.745816" y="81.165368" style="fill: #0000ff"/>
     <use xlink:href="#m8602cd4be0" x="88.476707" y="76.609077" style="fill: #0000ff"/>
     <use xlink:href="#m8602cd4be0" x="92.207597" y="73.191859" style="fill: #0000ff"/>
     <use xlink:href="#m8602cd4be0" x="95.938488" y="69.414934" style="fill: #0000ff"/>
     <use xlink:href="#m8602cd4be0" x="99.669378" y="66.393394" style="fill: #0000ff"/>
     <use xlink:href="#m8602cd4be0" x="103.400269" y="64.836843" style="fill: #0000ff"/>
     <use xlink:href="#m8602cd4be0" x="107.13116" y="64.379033" style="fill: #0000ff"/>
     <use xlink:href="#m8602cd4be0" x="110.86205" y="64.76641" style="fill: #0000ff"/>
     <use xlink:href="#m8602cd4be0" x="114.592941" y="65.098448" style="fill: #0000ff"/>
     <use xlink:href="#m8602cd4be0" x="118.323831" y="64.043307" style="fill: #0000ff"/>
     <use xlink:href="#m8602cd4be0" x="122.054722" y="63.120058" style="fill: #0000ff"/>
     <use xlink:href="#m8602cd4be0" x="125.785612" y="62.897886" style="fill: #0000ff"/>
     <use xlink:href="#m8602cd4be0" x="129.516503" y="63.819489" style="fill: #0000ff"/>
     <use xlink:href="#m8602cd4be0" x="133.247393" y="63.053797" style="fill: #0000ff"/>
     <use xlink:href="#m8602cd4be0" x="136.978284" y="62.364673" style="fill: #0000ff"/>
     <use xlink:href="#m8602cd4be0" x="140.709174" y="61.261571" style="fill: #0000ff"/>
     <use xlink:href="#m8602cd4be0" x="144.440065" y="60.716561" style="fill: #0000ff"/>
     <use xlink:href="#m8602cd4be0" x="148.170955" y="59.781038" style="fill: #0000ff"/>
     <use xlink:href="#m8602cd4be0" x="151.901846" y="58.923475" style="fill: #0000ff"/>
     <use xlink:href="#m8602cd4be0" x="155.632737" y="58.134517" style="fill: #0000ff"/>
     <use xlink:href="#m8602cd4be0" x="159.363627" y="58.181002" style="fill: #0000ff"/>
     <use xlink:href="#m8602cd4be0" x="163.094518" y="57.851015" style="fill: #0000ff"/>
     <use xlink:href="#m8602cd4be0" x="166.825408" y="57.544597" style="fill: #0000ff"/>
     <use xlink:href="#m8602cd4be0" x="170.556299" y="57.259312" style="fill: #0000ff"/>
     <use xlink:href="#m8602cd4be0" x="174.287189" y="56.993046" style="fill: #0000ff"/>
     <use xlink:href="#m8602cd4be0" x="178.01808" y="57.393752" style="fill: #0000ff"/>
     <use xlink:href="#m8602cd4be0" x="181.74897" y="56.825183" style="fill: #0000ff"/>
     <use xlink:href="#m8602cd4be0" x="185.479861" y="56.291072" style="fill: #0000ff"/>
     <use xlink:href="#m8602cd4be0" x="189.210751" y="56.084609" style="fill: #0000ff"/>
     <use xlink:href="#m8602cd4be0" x="192.941642" y="55.889944" style="fill: #0000ff"/>
     <use xlink:href="#m8602cd4be0" x="196.672532" y="55.426322" style="fill: #0000ff"/>
     <use xlink:href="#m8602cd4be0" x="200.403423" y="55.532182" style="fill: #0000ff"/>
     <use xlink:href="#m8602cd4be0" x="204.134314" y="55.367422" style="fill: #0000ff"/>
     <use xlink:href="#m8602cd4be0" x="207.865204" y="55.985866" style="fill: #0000ff"/>
     <use xlink:href="#m8602cd4be0" x="211.596095" y="56.321593" style="fill: #0000ff"/>
     <use xlink:href="#m8602cd4be0" x="215.326985" y="56.886596" style="fill: #0000ff"/>
     <use xlink:href="#m8602cd4be0" x="219.057876" y="56.705281" style="fill: #0000ff"/>
     <use xlink:href="#m8602cd4be0" x="222.788766" y="56.766626" style="fill: #0000ff"/>
     <use xlink:href="#m8602cd4be0" x="226.519657" y="56.825183" style="fill: #0000ff"/>
     <use xlink:href="#m8602cd4be0" x="230.250547" y="57.104955" style="fill: #0000ff"/>
     <use xlink:href="#m8602cd4be0" x="233.981438" y="57.153611" style="fill: #0000ff"/>
     <use xlink:href="#m8602cd4be0" x="237.712328" y="57.628784" style="fill: #0000ff"/>
     <use xlink:href="#m8602cd4be0" x="241.443219" y="57.454671" style="fill: #0000ff"/>
     <use xlink:href="#m8602cd4be0" x="245.174109" y="57.287664" style="fill: #0000ff"/>
     <use xlink:href="#m8602cd4be0" x="248.905" y="57.328773" style="fill: #0000ff"/>
     <use xlink:href="#m8602cd4be0" x="252.635891" y="56.973298" style="fill: #0000ff"/>
     <use xlink:href="#m8602cd4be0" x="256.366781" y="56.825183" style="fill: #0000ff"/>
     <use xlink:href="#m8602cd4be0" x="260.097672" y="56.682658" style="fill: #0000ff"/>
     <use xlink:href="#m8602cd4be0" x="263.828562" y="56.358896" style="fill: #0000ff"/>
     <use xlink:href="#m8602cd4be0" x="267.559453" y="56.230031" style="fill: #0000ff"/>
     <use xlink:href="#m8602cd4be0" x="271.290343" y="56.105769" style="fill: #0000ff"/>
     <use xlink:href="#m8602cd4be0" x="275.021234" y="55.985866" style="fill: #0000ff"/>
     <use xlink:href="#m8602cd4be0" x="278.752124" y="56.217402" style="fill: #0000ff"/>
     <use xlink:href="#m8602cd4be0" x="282.483015" y="56.099672" style="fill: #0000ff"/>
     <use xlink:href="#m8602cd4be0" x="286.213905" y="56.15373" style="fill: #0000ff"/>
     <use xlink:href="#m8602cd4be0" x="289.944796" y="55.875792" style="fill: #0000ff"/>
     <use xlink:href="#m8602cd4be0" x="293.675686" y="55.60682" style="fill: #0000ff"/>
     <use xlink:href="#m8602cd4be0" x="297.406577" y="55.506257" style="fill: #0000ff"/>
     <use xlink:href="#m8602cd4be0" x="301.137468" y="55.251464" style="fill: #0000ff"/>
     <use xlink:href="#m8602cd4be0" x="304.868358" y="55.004511" style="fill: #0000ff"/>
     <use xlink:href="#m8602cd4be0" x="308.599249" y="55.222851" style="fill: #0000ff"/>
     <use xlink:href="#m8602cd4be0" x="312.330139" y="55.134023" style="fill: #0000ff"/>
     <use xlink:href="#m8602cd4be0" x="316.06103" y="54.899692" style="fill: #0000ff"/>
     <use xlink:href="#m8602cd4be0" x="319.79192" y="54.818121" style="fill: #0000ff"/>
     <use xlink:href="#m8602cd4be0" x="323.522811" y="54.594999" style="fill: #0000ff"/>
     <use xlink:href="#m8602cd4be0" x="327.253701" y="54.378161" style="fill: #0000ff"/>
     <use xlink:href="#m8602cd4be0" x="330.984592" y="54.167347" style="fill: #0000ff"/>
     <use xlink:href="#m8602cd4be0" x="334.715482" y="54.100278" style="fill: #0000ff"/>
     <use xlink:href="#m8602cd4be0" x="338.446373" y="54.171128" style="fill: #0000ff"/>
     <use xlink:href="#m8602cd4be0" x="342.177263" y="54.240088" style="fill: #0000ff"/>
     <use xlink:href="#m8602cd4be0" x="345.908154" y="54.174709" style="fill: #0000ff"/>
     <use xlink:href="#m8602cd4be0" x="349.639045" y="54.111029" style="fill: #0000ff"/>
     <use xlink:href="#m8602cd4be0" x="353.369935" y="53.919856" style="fill: #0000ff"/>
     <use xlink:href="#m8602cd4be0" x="357.100826" y="53.861014" style="fill: #0000ff"/>
     <use xlink:href="#m8602cd4be0" x="360.831716" y="53.677745" style="fill: #0000ff"/>
     <use xlink:href="#m8602cd4be0" x="364.562607" y="53.747688" style="fill: #0000ff"/>
     <use xlink:href="#m8602cd4be0" x="368.293497" y="53.815926" style="fill: #0000ff"/>
     <use xlink:href="#m8602cd4be0" x="372.024388" y="53.761171" style="fill: #0000ff"/>
     <use xlink:href="#m8602cd4be0" x="375.755278" y="53.707721" style="fill: #0000ff"/>
     <use xlink:href="#m8602cd4be0" x="379.486169" y="53.655528" style="fill: #0000ff"/>
     <use xlink:href="#m8602cd4be0" x="383.217059" y="53.604549" style="fill: #0000ff"/>
     <use xlink:href="#m8602cd4be0" x="386.94795" y="53.438974" style="fill: #0000ff"/>
     <use xlink:href="#m8602cd4be0" x="390.67884" y="53.277162" style="fill: #0000ff"/>
     <use xlink:href="#m8602cd4be0" x="394.409731" y="53.118987" style="fill: #0000ff"/>
     <use xlink:href="#m8602cd4be0" x="398.140622" y="53.188144" style="fill: #0000ff"/>
     <use xlink:href="#m8602cd4be0" x="401.871512" y="53.36646" style="fill: #0000ff"/>
     <use xlink:href="#m8602cd4be0" x="405.602403" y="53.431424" style="fill: #0000ff"/>
     <use xlink:href="#m8602cd4be0" x="409.333293" y="53.386692" style="fill: #0000ff"/>
     <use xlink:href="#m8602cd4be0" x="413.064184" y="53.342912" style="fill: #0000ff"/>
     <use xlink:href="#m8602cd4be0" x="416.795074" y="53.194034" style="fill: #0000ff"/>
     <use xlink:href="#m8602cd4be0" x="420.525965" y="53.258087" style="fill: #0000ff"/>
     <use xlink:href="#m8602cd4be0" x="424.256855" y="53.320819" style="fill: #0000ff"/>
     <use xlink:href="#m8602cd4be0" x="427.987746" y="53.382272" style="fill: #0000ff"/>
     <use xlink:href="#m8602cd4be0" x="431.718636" y="53.340747" style="fill: #0000ff"/>
    </g>
   </g>
   <g id="line2d_14">
    <path d="M 66.091364 240.635543 
L 69.822254 195.31244 
L 73.553145 170.132939 
L 77.284035 153.136776 
L 81.014926 140.421127 
L 84.745816 130.545168 
L 88.476707 122.840012 
L 92.207597 116.633993 
L 95.938488 111.387431 
L 99.669378 106.888027 
L 103.400269 103.065192 
L 107.13116 99.841345 
L 110.86205 97.143273 
L 114.592941 94.854357 
L 118.323831 92.800287 
L 122.054722 90.945273 
L 125.785612 89.295427 
L 129.516503 87.880097 
L 133.247393 86.573449 
L 136.978284 85.363011 
L 140.709174 84.215323 
L 144.440065 83.147197 
L 148.170955 82.131277 
L 151.901846 81.164286 
L 155.632737 80.243095 
L 159.363627 79.394553 
L 163.094518 78.596644 
L 166.825408 77.844785 
L 170.556299 77.134941 
L 174.287189 76.463545 
L 178.01808 75.84839 
L 181.74897 75.253915 
L 185.479861 74.679283 
L 189.210751 74.132381 
L 192.941642 73.611169 
L 196.672532 73.106034 
L 200.403423 72.631065 
L 204.134314 72.176759 
L 207.865204 71.761608 
L 211.596095 71.375607 
L 215.326985 71.022217 
L 219.057876 70.681337 
L 222.788766 70.357739 
L 226.519657 70.050181 
L 230.250547 69.76251 
L 233.981438 69.488403 
L 237.712328 69.236071 
L 241.443219 68.990625 
L 245.174109 68.751789 
L 248.905 68.523329 
L 252.635891 68.296858 
L 256.366781 68.076248 
L 260.097672 67.861275 
L 263.828562 67.648268 
L 267.559453 67.440664 
L 271.290343 67.238255 
L 275.021234 67.040845 
L 278.752124 66.854233 
L 282.483015 66.671953 
L 286.213905 66.496649 
L 289.944796 66.322537 
L 293.675686 66.149703 
L 297.406577 65.980759 
L 301.137468 65.813114 
L 304.868358 65.646828 
L 308.599249 65.488888 
L 312.330139 65.334338 
L 316.06103 65.180888 
L 319.79192 65.030703 
L 323.522811 64.881621 
L 327.253701 64.733685 
L 330.984592 64.58693 
L 334.715482 64.443278 
L 338.446373 64.304465 
L 342.177263 64.170273 
L 345.908154 64.038752 
L 349.639045 63.909821 
L 353.369935 63.781744 
L 357.100826 63.656166 
L 360.831716 63.531435 
L 364.562607 63.410648 
L 368.293497 63.29364 
L 372.024388 63.178791 
L 375.755278 63.06604 
L 379.486169 62.955328 
L 383.217059 62.846598 
L 386.94795 62.738464 
L 390.67884 62.630949 
L 394.409731 62.524073 
L 398.140622 62.420341 
L 401.871512 62.320848 
L 405.602403 62.224224 
L 409.333293 62.129196 
L 413.064184 62.035725 
L 416.795074 61.942655 
L 420.525965 61.852191 
L 424.256855 61.764238 
L 427.987746 61.678708 
L 431.718636 61.594486 
" clip-path="url(#pd24c965da3)" style="fill: none; stroke: #ff0000; stroke-opacity: 0.5; stroke-width: 0.5; stroke-linecap: square"/>
    <defs>
     <path id="mc2c0e31577" d="M -0.49999 0.49999 
L 0.50001 0.49999 
L 0.50001 -0.50001 
L -0.49999 -0.50001 
z
"/>
    </defs>
    <g clip-path="url(#pd24c965da3)">
     <use xlink:href="#mc2c0e31577" x="66.091364" y="240.635543" style="fill: #ff0000; fill-opacity: 0.5"/>
     <use xlink:href="#mc2c0e31577" x="69.822254" y="195.31244" style="fill: #ff0000; fill-opacity: 0.5"/>
     <use xlink:href="#mc2c0e31577" x="73.553145" y="170.132939" style="fill: #ff0000; fill-opacity: 0.5"/>
     <use xlink:href="#mc2c0e31577" x="77.284035" y="153.136776" style="fill: #ff0000; fill-opacity: 0.5"/>
     <use xlink:href="#mc2c0e31577" x="81.014926" y="140.421127" style="fill: #ff0000; fill-opacity: 0.5"/>
     <use xlink:href="#mc2c0e31577" x="84.745816" y="130.545168" style="fill: #ff0000; fill-opacity: 0.5"/>
     <use xlink:href="#mc2c0e31577" x="88.476707" y="122.840012" style="fill: #ff0000; fill-opacity: 0.5"/>
     <use xlink:href="#mc2c0e31577" x="92.207597" y="116.633993" style="fill: #ff0000; fill-opacity: 0.5"/>
     <use xlink:href="#mc2c0e31577" x="95.938488" y="111.387431" style="fill: #ff0000; fill-opacity: 0.5"/>
     <use xlink:href="#mc2c0e31577" x="99.669378" y="106.888027" style="fill: #ff0000; fill-opacity: 0.5"/>
     <use xlink:href="#mc2c0e31577" x="103.400269" y="103.065192" style="fill: #ff0000; fill-opacity: 0.5"/>
     <use xlink:href="#mc2c0e31577" x="107.13116" y="99.841345" style="fill: #ff0000; fill-opacity: 0.5"/>
     <use xlink:href="#mc2c0e31577" x="110.86205" y="97.143273" style="fill: #ff0000; fill-opacity: 0.5"/>
     <use xlink:href="#mc2c0e31577" x="114.592941" y="94.854357" style="fill: #ff0000; fill-opacity: 0.5"/>
     <use xlink:href="#mc2c0e31577" x="118.323831" y="92.800287" style="fill: #ff0000; fill-opacity: 0.5"/>
     <use xlink:href="#mc2c0e31577" x="122.054722" y="90.945273" style="fill: #ff0000; fill-opacity: 0.5"/>
     <use xlink:href="#mc2c0e31577" x="125.785612" y="89.295427" style="fill: #ff0000; fill-opacity: 0.5"/>
     <use xlink:href="#mc2c0e31577" x="129.516503" y="87.880097" style="fill: #ff0000; fill-opacity: 0.5"/>
     <use xlink:href="#mc2c0e31577" x="133.247393" y="86.573449" style="fill: #ff0000; fill-opacity: 0.5"/>
     <use xlink:href="#mc2c0e31577" x="136.978284" y="85.363011" style="fill: #ff0000; fill-opacity: 0.5"/>
     <use xlink:href="#mc2c0e31577" x="140.709174" y="84.215323" style="fill: #ff0000; fill-opacity: 0.5"/>
     <use xlink:href="#mc2c0e31577" x="144.440065" y="83.147197" style="fill: #ff0000; fill-opacity: 0.5"/>
     <use xlink:href="#mc2c0e31577" x="148.170955" y="82.131277" style="fill: #ff0000; fill-opacity: 0.5"/>
     <use xlink:href="#mc2c0e31577" x="151.901846" y="81.164286" style="fill: #ff0000; fill-opacity: 0.5"/>
     <use xlink:href="#mc2c0e31577" x="155.632737" y="80.243095" style="fill: #ff0000; fill-opacity: 0.5"/>
     <use xlink:href="#mc2c0e31577" x="159.363627" y="79.394553" style="fill: #ff0000; fill-opacity: 0.5"/>
     <use xlink:href="#mc2c0e31577" x="163.094518" y="78.596644" style="fill: #ff0000; fill-opacity: 0.5"/>
     <use xlink:href="#mc2c0e31577" x="166.825408" y="77.844785" style="fill: #ff0000; fill-opacity: 0.5"/>
     <use xlink:href="#mc2c0e31577" x="170.556299" y="77.134941" style="fill: #ff0000; fill-opacity: 0.5"/>
     <use xlink:href="#mc2c0e31577" x="174.287189" y="76.463545" style="fill: #ff0000; fill-opacity: 0.5"/>
     <use xlink:href="#mc2c0e31577" x="178.01808" y="75.84839" style="fill: #ff0000; fill-opacity: 0.5"/>
     <use xlink:href="#mc2c0e31577" x="181.74897" y="75.253915" style="fill: #ff0000; fill-opacity: 0.5"/>
     <use xlink:href="#mc2c0e31577" x="185.479861" y="74.679283" style="fill: #ff0000; fill-opacity: 0.5"/>
     <use xlink:href="#mc2c0e31577" x="189.210751" y="74.132381" style="fill: #ff0000; fill-opacity: 0.5"/>
     <use xlink:href="#mc2c0e31577" x="192.941642" y="73.611169" style="fill: #ff0000; fill-opacity: 0.5"/>
     <use xlink:href="#mc2c0e31577" x="196.672532" y="73.106034" style="fill: #ff0000; fill-opacity: 0.5"/>
     <use xlink:href="#mc2c0e31577" x="200.403423" y="72.631065" style="fill: #ff0000; fill-opacity: 0.5"/>
     <use xlink:href="#mc2c0e31577" x="204.134314" y="72.176759" style="fill: #ff0000; fill-opacity: 0.5"/>
     <use xlink:href="#mc2c0e31577" x="207.865204" y="71.761608" style="fill: #ff0000; fill-opacity: 0.5"/>
     <use xlink:href="#mc2c0e31577" x="211.596095" y="71.375607" style="fill: #ff0000; fill-opacity: 0.5"/>
     <use xlink:href="#mc2c0e31577" x="215.326985" y="71.022217" style="fill: #ff0000; fill-opacity: 0.5"/>
     <use xlink:href="#mc2c0e31577" x="219.057876" y="70.681337" style="fill: #ff0000; fill-opacity: 0.5"/>
     <use xlink:href="#mc2c0e31577" x="222.788766" y="70.357739" style="fill: #ff0000; fill-opacity: 0.5"/>
     <use xlink:href="#mc2c0e31577" x="226.519657" y="70.050181" style="fill: #ff0000; fill-opacity: 0.5"/>
     <use xlink:href="#mc2c0e31577" x="230.250547" y="69.76251" style="fill: #ff0000; fill-opacity: 0.5"/>
     <use xlink:href="#mc2c0e31577" x="233.981438" y="69.488403" style="fill: #ff0000; fill-opacity: 0.5"/>
     <use xlink:href="#mc2c0e31577" x="237.712328" y="69.236071" style="fill: #ff0000; fill-opacity: 0.5"/>
     <use xlink:href="#mc2c0e31577" x="241.443219" y="68.990625" style="fill: #ff0000; fill-opacity: 0.5"/>
     <use xlink:href="#mc2c0e31577" x="245.174109" y="68.751789" style="fill: #ff0000; fill-opacity: 0.5"/>
     <use xlink:href="#mc2c0e31577" x="248.905" y="68.523329" style="fill: #ff0000; fill-opacity: 0.5"/>
     <use xlink:href="#mc2c0e31577" x="252.635891" y="68.296858" style="fill: #ff0000; fill-opacity: 0.5"/>
     <use xlink:href="#mc2c0e31577" x="256.366781" y="68.076248" style="fill: #ff0000; fill-opacity: 0.5"/>
     <use xlink:href="#mc2c0e31577" x="260.097672" y="67.861275" style="fill: #ff0000; fill-opacity: 0.5"/>
     <use xlink:href="#mc2c0e31577" x="263.828562" y="67.648268" style="fill: #ff0000; fill-opacity: 0.5"/>
     <use xlink:href="#mc2c0e31577" x="267.559453" y="67.440664" style="fill: #ff0000; fill-opacity: 0.5"/>
     <use xlink:href="#mc2c0e31577" x="271.290343" y="67.238255" style="fill: #ff0000; fill-opacity: 0.5"/>
     <use xlink:href="#mc2c0e31577" x="275.021234" y="67.040845" style="fill: #ff0000; fill-opacity: 0.5"/>
     <use xlink:href="#mc2c0e31577" x="278.752124" y="66.854233" style="fill: #ff0000; fill-opacity: 0.5"/>
     <use xlink:href="#mc2c0e31577" x="282.483015" y="66.671953" style="fill: #ff0000; fill-opacity: 0.5"/>
     <use xlink:href="#mc2c0e31577" x="286.213905" y="66.496649" style="fill: #ff0000; fill-opacity: 0.5"/>
     <use xlink:href="#mc2c0e31577" x="289.944796" y="66.322537" style="fill: #ff0000; fill-opacity: 0.5"/>
     <use xlink:href="#mc2c0e31577" x="293.675686" y="66.149703" style="fill: #ff0000; fill-opacity: 0.5"/>
     <use xlink:href="#mc2c0e31577" x="297.406577" y="65.980759" style="fill: #ff0000; fill-opacity: 0.5"/>
     <use xlink:href="#mc2c0e31577" x="301.137468" y="65.813114" style="fill: #ff0000; fill-opacity: 0.5"/>
     <use xlink:href="#mc2c0e31577" x="304.868358" y="65.646828" style="fill: #ff0000; fill-opacity: 0.5"/>
     <use xlink:href="#mc2c0e31577" x="308.599249" y="65.488888" style="fill: #ff0000; fill-opacity: 0.5"/>
     <use xlink:href="#mc2c0e31577" x="312.330139" y="65.334338" style="fill: #ff0000; fill-opacity: 0.5"/>
     <use xlink:href="#mc2c0e31577" x="316.06103" y="65.180888" style="fill: #ff0000; fill-opacity: 0.5"/>
     <use xlink:href="#mc2c0e31577" x="319.79192" y="65.030703" style="fill: #ff0000; fill-opacity: 0.5"/>
     <use xlink:href="#mc2c0e31577" x="323.522811" y="64.881621" style="fill: #ff0000; fill-opacity: 0.5"/>
     <use xlink:href="#mc2c0e31577" x="327.253701" y="64.733685" style="fill: #ff0000; fill-opacity: 0.5"/>
     <use xlink:href="#mc2c0e31577" x="330.984592" y="64.58693" style="fill: #ff0000; fill-opacity: 0.5"/>
     <use xlink:href="#mc2c0e31577" x="334.715482" y="64.443278" style="fill: #ff0000; fill-opacity: 0.5"/>
     <use xlink:href="#mc2c0e31577" x="338.446373" y="64.304465" style="fill: #ff0000; fill-opacity: 0.5"/>
     <use xlink:href="#mc2c0e31577" x="342.177263" y="64.170273" style="fill: #ff0000; fill-opacity: 0.5"/>
     <use xlink:href="#mc2c0e31577" x="345.908154" y="64.038752" style="fill: #ff0000; fill-opacity: 0.5"/>
     <use xlink:href="#mc2c0e31577" x="349.639045" y="63.909821" style="fill: #ff0000; fill-opacity: 0.5"/>
     <use xlink:href="#mc2c0e31577" x="353.369935" y="63.781744" style="fill: #ff0000; fill-opacity: 0.5"/>
     <use xlink:href="#mc2c0e31577" x="357.100826" y="63.656166" style="fill: #ff0000; fill-opacity: 0.5"/>
     <use xlink:href="#mc2c0e31577" x="360.831716" y="63.531435" style="fill: #ff0000; fill-opacity: 0.5"/>
     <use xlink:href="#mc2c0e31577" x="364.562607" y="63.410648" style="fill: #ff0000; fill-opacity: 0.5"/>
     <use xlink:href="#mc2c0e31577" x="368.293497" y="63.29364" style="fill: #ff0000; fill-opacity: 0.5"/>
     <use xlink:href="#mc2c0e31577" x="372.024388" y="63.178791" style="fill: #ff0000; fill-opacity: 0.5"/>
     <use xlink:href="#mc2c0e31577" x="375.755278" y="63.06604" style="fill: #ff0000; fill-opacity: 0.5"/>
     <use xlink:href="#mc2c0e31577" x="379.486169" y="62.955328" style="fill: #ff0000; fill-opacity: 0.5"/>
     <use xlink:href="#mc2c0e31577" x="383.217059" y="62.846598" style="fill: #ff0000; fill-opacity: 0.5"/>
     <use xlink:href="#mc2c0e31577" x="386.94795" y="62.738464" style="fill: #ff0000; fill-opacity: 0.5"/>
     <use xlink:href="#mc2c0e31577" x="390.67884" y="62.630949" style="fill: #ff0000; fill-opacity: 0.5"/>
     <use xlink:href="#mc2c0e31577" x="394.409731" y="62.524073" style="fill: #ff0000; fill-opacity: 0.5"/>
     <use xlink:href="#mc2c0e31577" x="398.140622" y="62.420341" style="fill: #ff0000; fill-opacity: 0.5"/>
     <use xlink:href="#mc2c0e31577" x="401.871512" y="62.320848" style="fill: #ff0000; fill-opacity: 0.5"/>
     <use xlink:href="#mc2c0e31577" x="405.602403" y="62.224224" style="fill: #ff0000; fill-opacity: 0.5"/>
     <use xlink:href="#mc2c0e31577" x="409.333293" y="62.129196" style="fill: #ff0000; fill-opacity: 0.5"/>
     <use xlink:href="#mc2c0e31577" x="413.064184" y="62.035725" style="fill: #ff0000; fill-opacity: 0.5"/>
     <use xlink:href="#mc2c0e31577" x="416.795074" y="61.942655" style="fill: #ff0000; fill-opacity: 0.5"/>
     <use xlink:href="#mc2c0e31577" x="420.525965" y="61.852191" style="fill: #ff0000; fill-opacity: 0.5"/>
     <use xlink:href="#mc2c0e31577" x="424.256855" y="61.764238" style="fill: #ff0000; fill-opacity: 0.5"/>
     <use xlink:href="#mc2c0e31577" x="427.987746" y="61.678708" style="fill: #ff0000; fill-opacity: 0.5"/>
     <use xlink:href="#mc2c0e31577" x="431.718636" y="61.594486" style="fill: #ff0000; fill-opacity: 0.5"/>
    </g>
   </g>
   <g id="line2d_15">
    <path d="M 47.81 290.994545 
L 450 290.994545 
" clip-path="url(#pd24c965da3)" style="fill: none; stroke-dasharray: 0.555,0.24; stroke-dashoffset: 0; stroke: #ff0000; stroke-width: 0.15"/>
   </g>
   <g id="line2d_16">
    <path d="M 47.81 39.199532 
L 450 39.199532 
" clip-path="url(#pd24c965da3)" style="fill: none; stroke-dasharray: 0.555,0.24; stroke-dashoffset: 0; stroke: #ff0000; stroke-width: 0.15"/>
   </g>
   <g id="patch_3">
    <path d="M 47.81 303.64 
L 47.81 25.44 
" style="fill: none; stroke: #000000; stroke-width: 0.8; stroke-linejoin: miter; stroke-linecap: square"/>
   </g>
   <g id="patch_4">
    <path d="M 450 303.64 
L 450 25.44 
" style="fill: none; stroke: #000000; stroke-width: 0.8; stroke-linejoin: miter; stroke-linecap: square"/>
   </g>
   <g id="patch_5">
    <path d="M 47.81 303.64 
L 450 303.64 
" style="fill: none; stroke: #000000; stroke-width: 0.8; stroke-linejoin: miter; stroke-linecap: square"/>
   </g>
   <g id="patch_6">
    <path d="M 47.81 25.44 
L 450 25.44 
" style="fill: none; stroke: #000000; stroke-width: 0.8; stroke-linejoin: miter; stroke-linecap: square"/>
   </g>
   <g id="text_15">
    <!-- Similarity LLM-DEF_sw10 - 20240412100726 - 50 games -->
    <g transform="translate(78.98125 19.44) scale(0.12 -0.12)">
     <defs>
      <path id="DejaVuSans-20" transform="scale(0.015625)"/>
      <path id="DejaVuSans-4c" d="M 628 4666 
L 1259 4666 
L 1259 531 
L 3531 531 
L 3531 0 
L 628 0 
L 628 4666 
z
" transform="scale(0.015625)"/>
      <path id="DejaVuSans-4d" d="M 628 4666 
L 1569 4666 
L 2759 1491 
L 3956 4666 
L 4897 4666 
L 4897 0 
L 4281 0 
L 4281 4097 
L 3078 897 
L 2444 897 
L 1241 4097 
L 1241 0 
L 628 0 
L 628 4666 
z
" transform="scale(0.015625)"/>
      <path id="DejaVuSans-2d" d="M 313 2009 
L 1997 2009 
L 1997 1497 
L 313 1497 
L 313 2009 
z
" transform="scale(0.015625)"/>
      <path id="DejaVuSans-44" d="M 1259 4147 
L 1259 519 
L 2022 519 
Q 2988 519 3436 956 
Q 3884 1394 3884 2338 
Q 3884 3275 3436 3711 
Q 2988 4147 2022 4147 
L 1259 4147 
z
M 628 4666 
L 1925 4666 
Q 3281 4666 3915 4102 
Q 4550 3538 4550 2338 
Q 4550 1131 3912 565 
Q 3275 0 1925 0 
L 628 0 
L 628 4666 
z
" transform="scale(0.015625)"/>
      <path id="DejaVuSans-45" d="M 628 4666 
L 3578 4666 
L 3578 4134 
L 1259 4134 
L 1259 2753 
L 3481 2753 
L 3481 2222 
L 1259 2222 
L 1259 531 
L 3634 531 
L 3634 0 
L 628 0 
L 628 4666 
z
" transform="scale(0.015625)"/>
      <path id="DejaVuSans-46" d="M 628 4666 
L 3309 4666 
L 3309 4134 
L 1259 4134 
L 1259 2759 
L 3109 2759 
L 3109 2228 
L 1259 2228 
L 1259 0 
L 628 0 
L 628 4666 
z
" transform="scale(0.015625)"/>
      <path id="DejaVuSans-5f" d="M 3263 -1063 
L 3263 -1509 
L -63 -1509 
L -63 -1063 
L 3263 -1063 
z
" transform="scale(0.015625)"/>
      <path id="DejaVuSans-73" d="M 2834 3397 
L 2834 2853 
Q 2591 2978 2328 3040 
Q 2066 3103 1784 3103 
Q 1356 3103 1142 2972 
Q 928 2841 928 2578 
Q 928 2378 1081 2264 
Q 1234 2150 1697 2047 
L 1894 2003 
Q 2506 1872 2764 1633 
Q 3022 1394 3022 966 
Q 3022 478 2636 193 
Q 2250 -91 1575 -91 
Q 1294 -91 989 -36 
Q 684 19 347 128 
L 347 722 
Q 666 556 975 473 
Q 1284 391 1588 391 
Q 1994 391 2212 530 
Q 2431 669 2431 922 
Q 2431 1156 2273 1281 
Q 2116 1406 1581 1522 
L 1381 1569 
Q 847 1681 609 1914 
Q 372 2147 372 2553 
Q 372 3047 722 3315 
Q 1072 3584 1716 3584 
Q 2034 3584 2315 3537 
Q 2597 3491 2834 3397 
z
" transform="scale(0.015625)"/>
      <path id="DejaVuSans-77" d="M 269 3500 
L 844 3500 
L 1563 769 
L 2278 3500 
L 2956 3500 
L 3675 769 
L 4391 3500 
L 4966 3500 
L 4050 0 
L 3372 0 
L 2619 2869 
L 1863 0 
L 1184 0 
L 269 3500 
z
" transform="scale(0.015625)"/>
      <path id="DejaVuSans-67" d="M 2906 1791 
Q 2906 2416 2648 2759 
Q 2391 3103 1925 3103 
Q 1463 3103 1205 2759 
Q 947 2416 947 1791 
Q 947 1169 1205 825 
Q 1463 481 1925 481 
Q 2391 481 2648 825 
Q 2906 1169 2906 1791 
z
M 3481 434 
Q 3481 -459 3084 -895 
Q 2688 -1331 1869 -1331 
Q 1566 -1331 1297 -1286 
Q 1028 -1241 775 -1147 
L 775 -588 
Q 1028 -725 1275 -790 
Q 1522 -856 1778 -856 
Q 2344 -856 2625 -561 
Q 2906 -266 2906 331 
L 2906 616 
Q 2728 306 2450 153 
Q 2172 0 1784 0 
Q 1141 0 747 490 
Q 353 981 353 1791 
Q 353 2603 747 3093 
Q 1141 3584 1784 3584 
Q 2172 3584 2450 3431 
Q 2728 3278 2906 2969 
L 2906 3500 
L 3481 3500 
L 3481 434 
z
" transform="scale(0.015625)"/>
     </defs>
     <use xlink:href="#DejaVuSans-53"/>
     <use xlink:href="#DejaVuSans-69" x="63.476562"/>
     <use xlink:href="#DejaVuSans-6d" x="91.259766"/>
     <use xlink:href="#DejaVuSans-69" x="188.671875"/>
     <use xlink:href="#DejaVuSans-6c" x="216.455078"/>
     <use xlink:href="#DejaVuSans-61" x="244.238281"/>
     <use xlink:href="#DejaVuSans-72" x="305.517578"/>
     <use xlink:href="#DejaVuSans-69" x="346.630859"/>
     <use xlink:href="#DejaVuSans-74" x="374.414062"/>
     <use xlink:href="#DejaVuSans-79" x="413.623047"/>
     <use xlink:href="#DejaVuSans-20" x="472.802734"/>
     <use xlink:href="#DejaVuSans-4c" x="504.589844"/>
     <use xlink:href="#DejaVuSans-4c" x="560.302734"/>
     <use xlink:href="#DejaVuSans-4d" x="616.015625"/>
     <use xlink:href="#DejaVuSans-2d" x="702.294922"/>
     <use xlink:href="#DejaVuSans-44" x="738.378906"/>
     <use xlink:href="#DejaVuSans-45" x="815.380859"/>
     <use xlink:href="#DejaVuSans-46" x="878.564453"/>
     <use xlink:href="#DejaVuSans-5f" x="936.083984"/>
     <use xlink:href="#DejaVuSans-73" x="986.083984"/>
     <use xlink:href="#DejaVuSans-77" x="1038.183594"/>
     <use xlink:href="#DejaVuSans-31" x="1119.970703"/>
     <use xlink:href="#DejaVuSans-30" x="1183.59375"/>
     <use xlink:href="#DejaVuSans-20" x="1247.216797"/>
     <use xlink:href="#DejaVuSans-2d" x="1279.003906"/>
     <use xlink:href="#DejaVuSans-20" x="1315.087891"/>
     <use xlink:href="#DejaVuSans-32" x="1346.875"/>
     <use xlink:href="#DejaVuSans-30" x="1410.498047"/>
     <use xlink:href="#DejaVuSans-32" x="1474.121094"/>
     <use xlink:href="#DejaVuSans-34" x="1537.744141"/>
     <use xlink:href="#DejaVuSans-30" x="1601.367188"/>
     <use xlink:href="#DejaVuSans-34" x="1664.990234"/>
     <use xlink:href="#DejaVuSans-31" x="1728.613281"/>
     <use xlink:href="#DejaVuSans-32" x="1792.236328"/>
     <use xlink:href="#DejaVuSans-31" x="1855.859375"/>
     <use xlink:href="#DejaVuSans-30" x="1919.482422"/>
     <use xlink:href="#DejaVuSans-30" x="1983.105469"/>
     <use xlink:href="#DejaVuSans-37" x="2046.728516"/>
     <use xlink:href="#DejaVuSans-32" x="2110.351562"/>
     <use xlink:href="#DejaVuSans-36" x="2173.974609"/>
     <use xlink:href="#DejaVuSans-20" x="2237.597656"/>
     <use xlink:href="#DejaVuSans-2d" x="2269.384766"/>
     <use xlink:href="#DejaVuSans-20" x="2305.46875"/>
     <use xlink:href="#DejaVuSans-35" x="2337.255859"/>
     <use xlink:href="#DejaVuSans-30" x="2400.878906"/>
     <use xlink:href="#DejaVuSans-20" x="2464.501953"/>
     <use xlink:href="#DejaVuSans-67" x="2496.289062"/>
     <use xlink:href="#DejaVuSans-61" x="2559.765625"/>
     <use xlink:href="#DejaVuSans-6d" x="2621.044922"/>
     <use xlink:href="#DejaVuSans-65" x="2718.457031"/>
     <use xlink:href="#DejaVuSans-73" x="2779.980469"/>
    </g>
   </g>
   <g id="legend_1">
    <g id="patch_7">
     <path d="M 305.2 180.99625 
L 443 180.99625 
Q 445 180.99625 445 178.99625 
L 445 150.08375 
Q 445 148.08375 443 148.08375 
L 305.2 148.08375 
Q 303.2 148.08375 303.2 150.08375 
L 303.2 178.99625 
Q 303.2 180.99625 305.2 180.99625 
z
" style="fill: #ffffff; opacity: 0.8; stroke: #cccccc; stroke-linejoin: miter"/>
    </g>
    <g id="line2d_17">
     <path d="M 307.2 156.182187 
L 317.2 156.182187 
L 327.2 156.182187 
" style="fill: none; stroke: #0000ff; stroke-linecap: square"/>
     <g>
      <use xlink:href="#m8602cd4be0" x="317.2" y="156.182187" style="fill: #0000ff"/>
     </g>
    </g>
    <g id="text_16">
     <!-- LLM-DEF_sw10 -->
     <g transform="translate(335.2 159.682187) scale(0.1 -0.1)">
      <use xlink:href="#DejaVuSans-4c"/>
      <use xlink:href="#DejaVuSans-4c" x="55.712891"/>
      <use xlink:href="#DejaVuSans-4d" x="111.425781"/>
      <use xlink:href="#DejaVuSans-2d" x="197.705078"/>
      <use xlink:href="#DejaVuSans-44" x="233.789062"/>
      <use xlink:href="#DejaVuSans-45" x="310.791016"/>
      <use xlink:href="#DejaVuSans-46" x="373.974609"/>
      <use xlink:href="#DejaVuSans-5f" x="431.494141"/>
      <use xlink:href="#DejaVuSans-73" x="481.494141"/>
      <use xlink:href="#DejaVuSans-77" x="533.59375"/>
      <use xlink:href="#DejaVuSans-31" x="615.380859"/>
      <use xlink:href="#DejaVuSans-30" x="679.003906"/>
     </g>
    </g>
    <g id="line2d_18">
     <path d="M 307.2 171.138437 
L 317.2 171.138437 
L 327.2 171.138437 
" style="fill: none; stroke: #ff0000; stroke-opacity: 0.5; stroke-width: 0.5; stroke-linecap: square"/>
     <g>
      <use xlink:href="#mc2c0e31577" x="317.2" y="171.138437" style="fill: #ff0000; fill-opacity: 0.5"/>
     </g>
    </g>
    <g id="text_17">
     <!-- LLM-DEF_sw10 mean -->
     <g transform="translate(335.2 174.638437) scale(0.1 -0.1)">
      <use xlink:href="#DejaVuSans-4c"/>
      <use xlink:href="#DejaVuSans-4c" x="55.712891"/>
      <use xlink:href="#DejaVuSans-4d" x="111.425781"/>
      <use xlink:href="#DejaVuSans-2d" x="197.705078"/>
      <use xlink:href="#DejaVuSans-44" x="233.789062"/>
      <use xlink:href="#DejaVuSans-45" x="310.791016"/>
      <use xlink:href="#DejaVuSans-46" x="373.974609"/>
      <use xlink:href="#DejaVuSans-5f" x="431.494141"/>
      <use xlink:href="#DejaVuSans-73" x="481.494141"/>
      <use xlink:href="#DejaVuSans-77" x="533.59375"/>
      <use xlink:href="#DejaVuSans-31" x="615.380859"/>
      <use xlink:href="#DejaVuSans-30" x="679.003906"/>
      <use xlink:href="#DejaVuSans-20" x="742.626953"/>
      <use xlink:href="#DejaVuSans-6d" x="774.414062"/>
      <use xlink:href="#DejaVuSans-65" x="871.826172"/>
      <use xlink:href="#DejaVuSans-61" x="933.349609"/>
      <use xlink:href="#DejaVuSans-6e" x="994.628906"/>
     </g>
    </g>
   </g>
  </g>
 </g>
 <defs>
  <clipPath id="pd24c965da3">
   <rect x="47.81" y="25.44" width="402.19" height="278.2"/>
  </clipPath>
 </defs>
</svg>
