<?xml version="1.0" encoding="utf-8" standalone="no"?>
<!DOCTYPE svg PUBLIC "-//W3C//DTD SVG 1.1//EN"
  "http://www.w3.org/Graphics/SVG/1.1/DTD/svg11.dtd">
<svg xmlns:xlink="http://www.w3.org/1999/xlink" width="460.8pt" height="345.6pt" viewBox="0 0 460.8 345.6" xmlns="http://www.w3.org/2000/svg" version="1.1">
 <metadata>
  <rdf:RDF xmlns:dc="http://purl.org/dc/elements/1.1/" xmlns:cc="http://creativecommons.org/ns#" xmlns:rdf="http://www.w3.org/1999/02/22-rdf-syntax-ns#">
   <cc:Work>
    <dc:type rdf:resource="http://purl.org/dc/dcmitype/StillImage"/>
    <dc:date>2024-04-29T10:02:14.102745</dc:date>
    <dc:format>image/svg+xml</dc:format>
    <dc:creator>
     <cc:Agent>
      <dc:title>Matplotlib v3.8.0, https://matplotlib.org/</dc:title>
     </cc:Agent>
    </dc:creator>
   </cc:Work>
  </rdf:RDF>
 </metadata>
 <defs>
  <style type="text/css">*{stroke-linejoin: round; stroke-linecap: butt}</style>
 </defs>
 <g id="figure_1">
  <g id="patch_1">
   <path d="M 0 345.6 
L 460.8 345.6 
L 460.8 0 
L 0 0 
z
" style="fill: #ffffff"/>
  </g>
  <g id="axes_1">
   <g id="patch_2">
    <path d="M 47.81 303.64 
L 450 303.64 
L 450 25.44 
L 47.81 25.44 
z
" style="fill: #ffffff"/>
   </g>
   <g id="PolyCollection_1">
    <defs>
     <path id="m50f0338222" d="M 66.091364 -286.716028 
L 66.091364 -286.716028 
L 69.784568 -307.514545 
L 73.477773 -279.845646 
L 77.170978 -257.271542 
L 80.864183 -241.67242 
L 84.557388 -229.789095 
L 88.250592 -220.138529 
L 91.943797 -212.053513 
L 95.637002 -205.290614 
L 99.330207 -199.254172 
L 103.023411 -193.854557 
L 106.716616 -188.972817 
L 110.409821 -184.612891 
L 114.103026 -180.658525 
L 117.79623 -177.169614 
L 121.489435 -173.853007 
L 125.18264 -170.843965 
L 128.875845 -168.081395 
L 132.56905 -165.536445 
L 136.262254 -163.227812 
L 139.955459 -161.008601 
L 143.648664 -158.980392 
L 147.341869 -157.015534 
L 151.035073 -155.247403 
L 154.728278 -153.551273 
L 158.421483 -151.921497 
L 162.114688 -150.457532 
L 165.807893 -149.003914 
L 169.501097 -147.62745 
L 173.194302 -146.321957 
L 176.887507 -145.115856 
L 180.580712 -143.93598 
L 184.273916 -142.782377 
L 187.967121 -141.710464 
L 191.660326 -140.719624 
L 195.353531 -139.772871 
L 199.046736 -138.806661 
L 202.73994 -137.879944 
L 206.433145 -136.990243 
L 210.12635 -136.194536 
L 213.819555 -135.29385 
L 217.512759 -134.437978 
L 221.205964 -133.611103 
L 224.899169 -132.876771 
L 228.592374 -132.168308 
L 232.285579 -131.420467 
L 235.978783 -130.696197 
L 239.671988 -129.97884 
L 243.365193 -129.298361 
L 247.058398 -128.609566 
L 250.751602 -128.009271 
L 254.444807 -127.42727 
L 258.138012 -126.862692 
L 261.831217 -126.293708 
L 265.524421 -125.740873 
L 269.217626 -125.203476 
L 272.910831 -124.701479 
L 276.604036 -124.17499 
L 280.297241 -123.634212 
L 283.990445 -123.152469 
L 287.68365 -122.665433 
L 291.376855 -122.175327 
L 295.07006 -121.712155 
L 298.763264 -121.245057 
L 302.456469 -120.788838 
L 306.149674 -120.375746 
L 309.842879 -119.940073 
L 313.536084 -119.514159 
L 317.229288 -119.097668 
L 320.922493 -118.705213 
L 324.615698 -118.306583 
L 328.308903 -117.916451 
L 332.002107 -117.521986 
L 335.695312 -117.135484 
L 339.388517 -116.756702 
L 343.081722 -116.385405 
L 346.774927 -116.021368 
L 350.468131 -115.664374 
L 354.161336 -115.326777 
L 357.854541 -114.983238 
L 361.547746 -114.646136 
L 365.24095 -114.304855 
L 368.934155 -113.992581 
L 372.62736 -113.673689 
L 376.320565 -113.372952 
L 380.01377 -113.054977 
L 383.706974 -112.752806 
L 387.400179 -112.45591 
L 391.093384 -112.153794 
L 394.786589 -111.867045 
L 398.479793 -111.597418 
L 402.172998 -111.332425 
L 405.866203 -111.059809 
L 409.559408 -110.791682 
L 413.252612 -110.527929 
L 416.945817 -110.280453 
L 420.639022 -110.037027 
L 424.332227 -109.797546 
L 428.025432 -109.575558 
L 431.718636 -109.408723 
L 431.718636 -54.739232 
L 431.718636 -54.739232 
L 428.025432 -54.631006 
L 424.332227 -54.605455 
L 420.639022 -54.612474 
L 416.945817 -54.620683 
L 413.252612 -54.63014 
L 409.559408 -54.676269 
L 405.866203 -54.724688 
L 402.172998 -54.775499 
L 398.479793 -54.791994 
L 394.786589 -54.81011 
L 391.093384 -54.86772 
L 387.400179 -54.968509 
L 383.706974 -55.032477 
L 380.01377 -55.099563 
L 376.320565 -55.212043 
L 372.62736 -55.24574 
L 368.934155 -55.323117 
L 365.24095 -55.362345 
L 361.547746 -55.49145 
L 357.854541 -55.580703 
L 354.161336 -55.674313 
L 350.468131 -55.727852 
L 346.774927 -55.830117 
L 343.081722 -55.937426 
L 339.388517 -56.050044 
L 335.695312 -56.168256 
L 332.002107 -56.292365 
L 328.308903 -56.422693 
L 324.615698 -56.509275 
L 320.922493 -56.600978 
L 317.229288 -56.648384 
L 313.536084 -56.750328 
L 309.842879 -56.858324 
L 306.149674 -56.97274 
L 302.456469 -56.989332 
L 298.763264 -57.115701 
L 295.07006 -57.249686 
L 291.376855 -57.335 
L 287.68365 -57.48453 
L 283.990445 -57.584064 
L 280.297241 -57.633125 
L 276.604036 -57.872315 
L 272.910831 -57.996554 
L 269.217626 -58.009123 
L 265.524421 -58.086153 
L 261.831217 -58.170503 
L 258.138012 -58.262747 
L 254.444807 -58.298997 
L 250.751602 -58.341386 
L 247.058398 -58.390457 
L 243.365193 -58.741883 
L 239.671988 -58.958996 
L 235.978783 -59.272391 
L 232.285579 -59.526661 
L 228.592374 -59.800849 
L 224.899169 -59.856556 
L 221.205964 -59.921937 
L 217.512759 -60.251663 
L 213.819555 -60.608812 
L 210.12635 -61.093381 
L 206.433145 -61.067305 
L 202.73994 -61.222654 
L 199.046736 -61.397475 
L 195.353531 -61.594 
L 191.660326 -61.621379 
L 187.967121 -61.661973 
L 184.273916 -61.819256 
L 180.580712 -62.111151 
L 176.887507 -62.326055 
L 173.194302 -62.458943 
L 169.501097 -62.738688 
L 165.807893 -63.060695 
L 162.114688 -63.43136 
L 158.421483 -63.588678 
L 154.728278 -64.06695 
L 151.035073 -64.468568 
L 147.341869 -64.786542 
L 143.648664 -65.503189 
L 139.955459 -65.98679 
L 136.262254 -66.753736 
L 132.56905 -67.275772 
L 128.875845 -68.123969 
L 125.18264 -69.153741 
L 121.489435 -70.411083 
L 117.79623 -72.227265 
L 114.103026 -73.329171 
L 110.409821 -75.358562 
L 106.716616 -77.607746 
L 103.023411 -81.754033 
L 99.330207 -85.402733 
L 95.637002 -90.921264 
L 91.943797 -93.580876 
L 88.250592 -98.24813 
L 84.557388 -104.856708 
L 80.864183 -110.380231 
L 77.170978 -114.19644 
L 73.477773 -125.468986 
L 69.784568 -165.493386 
L 66.091364 -286.716028 
z
" style="stroke: #0000ff; stroke-opacity: 0.2"/>
    </defs>
    <g clip-path="url(#pe4ac4c0d62)">
     <use xlink:href="#m50f0338222" x="0" y="345.6" style="fill: #0000ff; fill-opacity: 0.2; stroke: #0000ff; stroke-opacity: 0.2"/>
    </g>
   </g>
   <g id="PolyCollection_2">
    <defs>
     <path id="m3427f6df3f" d="M 66.091364 -148.3539 
L 66.091364 -148.3539 
L 69.784568 -151.127036 
L 73.477773 -147.157964 
L 77.170978 -145.279318 
L 80.864183 -143.890606 
L 84.557388 -144.893901 
L 88.250592 -144.930349 
L 91.943797 -147.314963 
L 95.637002 -147.372381 
L 99.330207 -146.73636 
L 103.023411 -146.130755 
L 106.716616 -146.288981 
L 110.409821 -147.069952 
L 114.103026 -147.533463 
L 117.79623 -147.648452 
L 121.489435 -147.251212 
L 125.18264 -147.010613 
L 128.875845 -146.564205 
L 132.56905 -146.708836 
L 136.262254 -146.318176 
L 139.955459 -145.944395 
L 143.648664 -147.649981 
L 147.341869 -147.270839 
L 151.035073 -147.168278 
L 154.728278 -146.84052 
L 158.421483 -146.68539 
L 162.114688 -146.434014 
L 165.807893 -146.273378 
L 169.501097 -145.955519 
L 173.194302 -145.64416 
L 176.887507 -146.495635 
L 180.580712 -146.356018 
L 184.273916 -146.302915 
L 187.967121 -146.013853 
L 191.660326 -147.105596 
L 195.353531 -146.817903 
L 199.046736 -146.762592 
L 202.73994 -146.708203 
L 206.433145 -146.516005 
L 210.12635 -146.280678 
L 213.819555 -146.035729 
L 217.512759 -145.808509 
L 221.205964 -145.727834 
L 224.899169 -145.522749 
L 228.592374 -145.514177 
L 232.285579 -145.661466 
L 235.978783 -145.44714 
L 239.671988 -145.379304 
L 243.365193 -145.248728 
L 247.058398 -145.249045 
L 250.751602 -145.190686 
L 254.444807 -145.023467 
L 258.138012 -144.836392 
L 261.831217 -144.683724 
L 265.524421 -145.217277 
L 269.217626 -145.087816 
L 272.910831 -145.152932 
L 276.604036 -144.987024 
L 280.297241 -144.817562 
L 283.990445 -144.650225 
L 287.68365 -144.641804 
L 291.376855 -144.487729 
L 295.07006 -144.968299 
L 298.763264 -144.885087 
L 302.456469 -144.71601 
L 306.149674 -144.589344 
L 309.842879 -144.614031 
L 313.536084 -144.890763 
L 317.229288 -144.824606 
L 320.922493 -144.728537 
L 324.615698 -144.610377 
L 328.308903 -144.680498 
L 332.002107 -144.680575 
L 335.695312 -144.751306 
L 339.388517 -144.606083 
L 343.081722 -144.497281 
L 346.774927 -144.443845 
L 350.468131 -144.321851 
L 354.161336 -144.393541 
L 357.854541 -144.514026 
L 361.547746 -144.63005 
L 365.24095 -145.073988 
L 368.934155 -144.946223 
L 372.62736 -144.844984 
L 376.320565 -144.717506 
L 380.01377 -144.933679 
L 383.706974 -144.855755 
L 387.400179 -144.869447 
L 391.093384 -144.751864 
L 394.786589 -144.677792 
L 398.479793 -144.732292 
L 402.172998 -144.784889 
L 405.866203 -144.68141 
L 409.559408 -144.633644 
L 413.252612 -144.525543 
L 416.945817 -144.418965 
L 420.639022 -144.33104 
L 424.332227 -144.428912 
L 428.025432 -144.346269 
L 431.718636 -144.264962 
L 431.718636 -123.431425 
L 431.718636 -123.431425 
L 428.025432 -123.417743 
L 424.332227 -123.404106 
L 420.639022 -123.296326 
L 416.945817 -123.556377 
L 413.252612 -123.617173 
L 409.559408 -123.680006 
L 405.866203 -123.614881 
L 402.172998 -123.639209 
L 398.479793 -123.528137 
L 394.786589 -123.415331 
L 391.093384 -123.370792 
L 387.400179 -123.43557 
L 383.706974 -123.328003 
L 380.01377 -123.281695 
L 376.320565 -123.162663 
L 372.62736 -123.276478 
L 368.934155 -123.261022 
L 365.24095 -123.329994 
L 361.547746 -123.259195 
L 357.854541 -123.126569 
L 354.161336 -122.992109 
L 350.468131 -122.85954 
L 346.774927 -122.87577 
L 343.081722 -122.788012 
L 339.388517 -122.762996 
L 335.695312 -122.94508 
L 332.002107 -122.801818 
L 328.308903 -123.51181 
L 324.615698 -123.368894 
L 320.922493 -123.350418 
L 317.229288 -123.292236 
L 313.536084 -123.199444 
L 309.842879 -123.049047 
L 306.149674 -122.904165 
L 302.456469 -122.877377 
L 298.763264 -123.020516 
L 295.07006 -123.613662 
L 291.376855 -123.496612 
L 287.68365 -123.822854 
L 283.990445 -124.608314 
L 280.297241 -124.807875 
L 276.604036 -125.017963 
L 272.910831 -125.088315 
L 269.217626 -124.919919 
L 265.524421 -124.873058 
L 261.831217 -124.748388 
L 258.138012 -125.175854 
L 254.444807 -125.33373 
L 250.751602 -125.349957 
L 247.058398 -125.214584 
L 243.365193 -125.043656 
L 239.671988 -125.664553 
L 235.978783 -125.525494 
L 232.285579 -125.72199 
L 228.592374 -125.504884 
L 224.899169 -125.318232 
L 221.205964 -125.341973 
L 217.512759 -125.182214 
L 213.819555 -125.634078 
L 210.12635 -125.990585 
L 206.433145 -126.044227 
L 202.73994 -126.743484 
L 199.046736 -126.543069 
L 195.353531 -126.333621 
L 191.660326 -126.648119 
L 187.967121 -126.539648 
L 184.273916 -126.871151 
L 180.580712 -126.640531 
L 176.887507 -126.45592 
L 173.194302 -126.217968 
L 169.501097 -126.742835 
L 165.807893 -126.842723 
L 162.114688 -126.634856 
L 158.421483 -126.504282 
L 154.728278 -127.907872 
L 151.035073 -128.710815 
L 147.341869 -130.225389 
L 143.648664 -130.59601 
L 139.955459 -130.572311 
L 136.262254 -130.974293 
L 132.56905 -131.206145 
L 128.875845 -130.802652 
L 125.18264 -131.318915 
L 121.489435 -131.045499 
L 117.79623 -130.908618 
L 114.103026 -130.364739 
L 110.409821 -129.724689 
L 106.716616 -134.053406 
L 103.023411 -133.535376 
L 99.330207 -133.90358 
L 95.637002 -133.96185 
L 91.943797 -133.213395 
L 88.250592 -132.649046 
L 84.557388 -131.729074 
L 80.864183 -130.500722 
L 77.170978 -132.459481 
L 73.477773 -131.696658 
L 69.784568 -132.190881 
L 66.091364 -148.3539 
z
" style="stroke: #ff0000; stroke-opacity: 0.1"/>
    </defs>
    <g clip-path="url(#pe4ac4c0d62)">
     <use xlink:href="#m3427f6df3f" x="0" y="345.6" style="fill: #ff0000; fill-opacity: 0.1; stroke: #ff0000; stroke-opacity: 0.1"/>
    </g>
   </g>
   <g id="matplotlib.axis_1">
    <g id="xtick_1">
     <g id="line2d_1">
      <defs>
       <path id="mf807f2c4c4" d="M 0 0 
L 0 3.5 
" style="stroke: #000000; stroke-width: 0.8"/>
      </defs>
      <g>
       <use xlink:href="#mf807f2c4c4" x="66.091364" y="303.64" style="stroke: #000000; stroke-width: 0.8"/>
      </g>
     </g>
     <g id="text_1">
      <!-- 0 -->
      <g transform="translate(62.910114 318.238437) scale(0.1 -0.1)">
       <defs>
        <path id="DejaVuSans-30" d="M 2034 4250 
Q 1547 4250 1301 3770 
Q 1056 3291 1056 2328 
Q 1056 1369 1301 889 
Q 1547 409 2034 409 
Q 2525 409 2770 889 
Q 3016 1369 3016 2328 
Q 3016 3291 2770 3770 
Q 2525 4250 2034 4250 
z
M 2034 4750 
Q 2819 4750 3233 4129 
Q 3647 3509 3647 2328 
Q 3647 1150 3233 529 
Q 2819 -91 2034 -91 
Q 1250 -91 836 529 
Q 422 1150 422 2328 
Q 422 3509 836 4129 
Q 1250 4750 2034 4750 
z
" transform="scale(0.015625)"/>
       </defs>
       <use xlink:href="#DejaVuSans-30"/>
      </g>
     </g>
    </g>
    <g id="xtick_2">
     <g id="line2d_2">
      <g>
       <use xlink:href="#mf807f2c4c4" x="139.955459" y="303.64" style="stroke: #000000; stroke-width: 0.8"/>
      </g>
     </g>
     <g id="text_2">
      <!-- 20 -->
      <g transform="translate(133.592959 318.238437) scale(0.1 -0.1)">
       <defs>
        <path id="DejaVuSans-32" d="M 1228 531 
L 3431 531 
L 3431 0 
L 469 0 
L 469 531 
Q 828 903 1448 1529 
Q 2069 2156 2228 2338 
Q 2531 2678 2651 2914 
Q 2772 3150 2772 3378 
Q 2772 3750 2511 3984 
Q 2250 4219 1831 4219 
Q 1534 4219 1204 4116 
Q 875 4013 500 3803 
L 500 4441 
Q 881 4594 1212 4672 
Q 1544 4750 1819 4750 
Q 2544 4750 2975 4387 
Q 3406 4025 3406 3419 
Q 3406 3131 3298 2873 
Q 3191 2616 2906 2266 
Q 2828 2175 2409 1742 
Q 1991 1309 1228 531 
z
" transform="scale(0.015625)"/>
       </defs>
       <use xlink:href="#DejaVuSans-32"/>
       <use xlink:href="#DejaVuSans-30" x="63.623047"/>
      </g>
     </g>
    </g>
    <g id="xtick_3">
     <g id="line2d_3">
      <g>
       <use xlink:href="#mf807f2c4c4" x="213.819555" y="303.64" style="stroke: #000000; stroke-width: 0.8"/>
      </g>
     </g>
     <g id="text_3">
      <!-- 40 -->
      <g transform="translate(207.457055 318.238437) scale(0.1 -0.1)">
       <defs>
        <path id="DejaVuSans-34" d="M 2419 4116 
L 825 1625 
L 2419 1625 
L 2419 4116 
z
M 2253 4666 
L 3047 4666 
L 3047 1625 
L 3713 1625 
L 3713 1100 
L 3047 1100 
L 3047 0 
L 2419 0 
L 2419 1100 
L 313 1100 
L 313 1709 
L 2253 4666 
z
" transform="scale(0.015625)"/>
       </defs>
       <use xlink:href="#DejaVuSans-34"/>
       <use xlink:href="#DejaVuSans-30" x="63.623047"/>
      </g>
     </g>
    </g>
    <g id="xtick_4">
     <g id="line2d_4">
      <g>
       <use xlink:href="#mf807f2c4c4" x="287.68365" y="303.64" style="stroke: #000000; stroke-width: 0.8"/>
      </g>
     </g>
     <g id="text_4">
      <!-- 60 -->
      <g transform="translate(281.32115 318.238437) scale(0.1 -0.1)">
       <defs>
        <path id="DejaVuSans-36" d="M 2113 2584 
Q 1688 2584 1439 2293 
Q 1191 2003 1191 1497 
Q 1191 994 1439 701 
Q 1688 409 2113 409 
Q 2538 409 2786 701 
Q 3034 994 3034 1497 
Q 3034 2003 2786 2293 
Q 2538 2584 2113 2584 
z
M 3366 4563 
L 3366 3988 
Q 3128 4100 2886 4159 
Q 2644 4219 2406 4219 
Q 1781 4219 1451 3797 
Q 1122 3375 1075 2522 
Q 1259 2794 1537 2939 
Q 1816 3084 2150 3084 
Q 2853 3084 3261 2657 
Q 3669 2231 3669 1497 
Q 3669 778 3244 343 
Q 2819 -91 2113 -91 
Q 1303 -91 875 529 
Q 447 1150 447 2328 
Q 447 3434 972 4092 
Q 1497 4750 2381 4750 
Q 2619 4750 2861 4703 
Q 3103 4656 3366 4563 
z
" transform="scale(0.015625)"/>
       </defs>
       <use xlink:href="#DejaVuSans-36"/>
       <use xlink:href="#DejaVuSans-30" x="63.623047"/>
      </g>
     </g>
    </g>
    <g id="xtick_5">
     <g id="line2d_5">
      <g>
       <use xlink:href="#mf807f2c4c4" x="361.547746" y="303.64" style="stroke: #000000; stroke-width: 0.8"/>
      </g>
     </g>
     <g id="text_5">
      <!-- 80 -->
      <g transform="translate(355.185246 318.238437) scale(0.1 -0.1)">
       <defs>
        <path id="DejaVuSans-38" d="M 2034 2216 
Q 1584 2216 1326 1975 
Q 1069 1734 1069 1313 
Q 1069 891 1326 650 
Q 1584 409 2034 409 
Q 2484 409 2743 651 
Q 3003 894 3003 1313 
Q 3003 1734 2745 1975 
Q 2488 2216 2034 2216 
z
M 1403 2484 
Q 997 2584 770 2862 
Q 544 3141 544 3541 
Q 544 4100 942 4425 
Q 1341 4750 2034 4750 
Q 2731 4750 3128 4425 
Q 3525 4100 3525 3541 
Q 3525 3141 3298 2862 
Q 3072 2584 2669 2484 
Q 3125 2378 3379 2068 
Q 3634 1759 3634 1313 
Q 3634 634 3220 271 
Q 2806 -91 2034 -91 
Q 1263 -91 848 271 
Q 434 634 434 1313 
Q 434 1759 690 2068 
Q 947 2378 1403 2484 
z
M 1172 3481 
Q 1172 3119 1398 2916 
Q 1625 2713 2034 2713 
Q 2441 2713 2670 2916 
Q 2900 3119 2900 3481 
Q 2900 3844 2670 4047 
Q 2441 4250 2034 4250 
Q 1625 4250 1398 4047 
Q 1172 3844 1172 3481 
z
" transform="scale(0.015625)"/>
       </defs>
       <use xlink:href="#DejaVuSans-38"/>
       <use xlink:href="#DejaVuSans-30" x="63.623047"/>
      </g>
     </g>
    </g>
    <g id="xtick_6">
     <g id="line2d_6">
      <g>
       <use xlink:href="#mf807f2c4c4" x="435.411841" y="303.64" style="stroke: #000000; stroke-width: 0.8"/>
      </g>
     </g>
     <g id="text_6">
      <!-- 100 -->
      <g transform="translate(425.868091 318.238437) scale(0.1 -0.1)">
       <defs>
        <path id="DejaVuSans-31" d="M 794 531 
L 1825 531 
L 1825 4091 
L 703 3866 
L 703 4441 
L 1819 4666 
L 2450 4666 
L 2450 531 
L 3481 531 
L 3481 0 
L 794 0 
L 794 531 
z
" transform="scale(0.015625)"/>
       </defs>
       <use xlink:href="#DejaVuSans-31"/>
       <use xlink:href="#DejaVuSans-30" x="63.623047"/>
       <use xlink:href="#DejaVuSans-30" x="127.246094"/>
      </g>
     </g>
    </g>
    <g id="text_7">
     <!-- Iteration -->
     <g transform="translate(227.696406 331.916562) scale(0.1 -0.1)">
      <defs>
       <path id="DejaVuSans-49" d="M 628 4666 
L 1259 4666 
L 1259 0 
L 628 0 
L 628 4666 
z
" transform="scale(0.015625)"/>
       <path id="DejaVuSans-74" d="M 1172 4494 
L 1172 3500 
L 2356 3500 
L 2356 3053 
L 1172 3053 
L 1172 1153 
Q 1172 725 1289 603 
Q 1406 481 1766 481 
L 2356 481 
L 2356 0 
L 1766 0 
Q 1100 0 847 248 
Q 594 497 594 1153 
L 594 3053 
L 172 3053 
L 172 3500 
L 594 3500 
L 594 4494 
L 1172 4494 
z
" transform="scale(0.015625)"/>
       <path id="DejaVuSans-65" d="M 3597 1894 
L 3597 1613 
L 953 1613 
Q 991 1019 1311 708 
Q 1631 397 2203 397 
Q 2534 397 2845 478 
Q 3156 559 3463 722 
L 3463 178 
Q 3153 47 2828 -22 
Q 2503 -91 2169 -91 
Q 1331 -91 842 396 
Q 353 884 353 1716 
Q 353 2575 817 3079 
Q 1281 3584 2069 3584 
Q 2775 3584 3186 3129 
Q 3597 2675 3597 1894 
z
M 3022 2063 
Q 3016 2534 2758 2815 
Q 2500 3097 2075 3097 
Q 1594 3097 1305 2825 
Q 1016 2553 972 2059 
L 3022 2063 
z
" transform="scale(0.015625)"/>
       <path id="DejaVuSans-72" d="M 2631 2963 
Q 2534 3019 2420 3045 
Q 2306 3072 2169 3072 
Q 1681 3072 1420 2755 
Q 1159 2438 1159 1844 
L 1159 0 
L 581 0 
L 581 3500 
L 1159 3500 
L 1159 2956 
Q 1341 3275 1631 3429 
Q 1922 3584 2338 3584 
Q 2397 3584 2469 3576 
Q 2541 3569 2628 3553 
L 2631 2963 
z
" transform="scale(0.015625)"/>
       <path id="DejaVuSans-61" d="M 2194 1759 
Q 1497 1759 1228 1600 
Q 959 1441 959 1056 
Q 959 750 1161 570 
Q 1363 391 1709 391 
Q 2188 391 2477 730 
Q 2766 1069 2766 1631 
L 2766 1759 
L 2194 1759 
z
M 3341 1997 
L 3341 0 
L 2766 0 
L 2766 531 
Q 2569 213 2275 61 
Q 1981 -91 1556 -91 
Q 1019 -91 701 211 
Q 384 513 384 1019 
Q 384 1609 779 1909 
Q 1175 2209 1959 2209 
L 2766 2209 
L 2766 2266 
Q 2766 2663 2505 2880 
Q 2244 3097 1772 3097 
Q 1472 3097 1187 3025 
Q 903 2953 641 2809 
L 641 3341 
Q 956 3463 1253 3523 
Q 1550 3584 1831 3584 
Q 2591 3584 2966 3190 
Q 3341 2797 3341 1997 
z
" transform="scale(0.015625)"/>
       <path id="DejaVuSans-69" d="M 603 3500 
L 1178 3500 
L 1178 0 
L 603 0 
L 603 3500 
z
M 603 4863 
L 1178 4863 
L 1178 4134 
L 603 4134 
L 603 4863 
z
" transform="scale(0.015625)"/>
       <path id="DejaVuSans-6f" d="M 1959 3097 
Q 1497 3097 1228 2736 
Q 959 2375 959 1747 
Q 959 1119 1226 758 
Q 1494 397 1959 397 
Q 2419 397 2687 759 
Q 2956 1122 2956 1747 
Q 2956 2369 2687 2733 
Q 2419 3097 1959 3097 
z
M 1959 3584 
Q 2709 3584 3137 3096 
Q 3566 2609 3566 1747 
Q 3566 888 3137 398 
Q 2709 -91 1959 -91 
Q 1206 -91 779 398 
Q 353 888 353 1747 
Q 353 2609 779 3096 
Q 1206 3584 1959 3584 
z
" transform="scale(0.015625)"/>
       <path id="DejaVuSans-6e" d="M 3513 2113 
L 3513 0 
L 2938 0 
L 2938 2094 
Q 2938 2591 2744 2837 
Q 2550 3084 2163 3084 
Q 1697 3084 1428 2787 
Q 1159 2491 1159 1978 
L 1159 0 
L 581 0 
L 581 3500 
L 1159 3500 
L 1159 2956 
Q 1366 3272 1645 3428 
Q 1925 3584 2291 3584 
Q 2894 3584 3203 3211 
Q 3513 2838 3513 2113 
z
" transform="scale(0.015625)"/>
      </defs>
      <use xlink:href="#DejaVuSans-49"/>
      <use xlink:href="#DejaVuSans-74" x="29.492188"/>
      <use xlink:href="#DejaVuSans-65" x="68.701172"/>
      <use xlink:href="#DejaVuSans-72" x="130.224609"/>
      <use xlink:href="#DejaVuSans-61" x="171.337891"/>
      <use xlink:href="#DejaVuSans-74" x="232.617188"/>
      <use xlink:href="#DejaVuSans-69" x="271.826172"/>
      <use xlink:href="#DejaVuSans-6f" x="299.609375"/>
      <use xlink:href="#DejaVuSans-6e" x="360.791016"/>
     </g>
    </g>
   </g>
   <g id="matplotlib.axis_2">
    <g id="ytick_1">
     <g id="line2d_7">
      <defs>
       <path id="m0e6334db52" d="M 0 0 
L -3.5 0 
" style="stroke: #000000; stroke-width: 0.8"/>
      </defs>
      <g>
       <use xlink:href="#m0e6334db52" x="47.81" y="279.817047" style="stroke: #000000; stroke-width: 0.8"/>
      </g>
     </g>
     <g id="text_8">
      <!-- 0.0 -->
      <g transform="translate(24.906875 283.616266) scale(0.1 -0.1)">
       <defs>
        <path id="DejaVuSans-2e" d="M 684 794 
L 1344 794 
L 1344 0 
L 684 0 
L 684 794 
z
" transform="scale(0.015625)"/>
       </defs>
       <use xlink:href="#DejaVuSans-30"/>
       <use xlink:href="#DejaVuSans-2e" x="63.623047"/>
       <use xlink:href="#DejaVuSans-30" x="95.410156"/>
      </g>
     </g>
    </g>
    <g id="ytick_2">
     <g id="line2d_8">
      <g>
       <use xlink:href="#m0e6334db52" x="47.81" y="235.184103" style="stroke: #000000; stroke-width: 0.8"/>
      </g>
     </g>
     <g id="text_9">
      <!-- 0.2 -->
      <g transform="translate(24.906875 238.983321) scale(0.1 -0.1)">
       <use xlink:href="#DejaVuSans-30"/>
       <use xlink:href="#DejaVuSans-2e" x="63.623047"/>
       <use xlink:href="#DejaVuSans-32" x="95.410156"/>
      </g>
     </g>
    </g>
    <g id="ytick_3">
     <g id="line2d_9">
      <g>
       <use xlink:href="#m0e6334db52" x="47.81" y="190.551158" style="stroke: #000000; stroke-width: 0.8"/>
      </g>
     </g>
     <g id="text_10">
      <!-- 0.4 -->
      <g transform="translate(24.906875 194.350377) scale(0.1 -0.1)">
       <use xlink:href="#DejaVuSans-30"/>
       <use xlink:href="#DejaVuSans-2e" x="63.623047"/>
       <use xlink:href="#DejaVuSans-34" x="95.410156"/>
      </g>
     </g>
    </g>
    <g id="ytick_4">
     <g id="line2d_10">
      <g>
       <use xlink:href="#m0e6334db52" x="47.81" y="145.918214" style="stroke: #000000; stroke-width: 0.8"/>
      </g>
     </g>
     <g id="text_11">
      <!-- 0.6 -->
      <g transform="translate(24.906875 149.717432) scale(0.1 -0.1)">
       <use xlink:href="#DejaVuSans-30"/>
       <use xlink:href="#DejaVuSans-2e" x="63.623047"/>
       <use xlink:href="#DejaVuSans-36" x="95.410156"/>
      </g>
     </g>
    </g>
    <g id="ytick_5">
     <g id="line2d_11">
      <g>
       <use xlink:href="#m0e6334db52" x="47.81" y="101.285269" style="stroke: #000000; stroke-width: 0.8"/>
      </g>
     </g>
     <g id="text_12">
      <!-- 0.8 -->
      <g transform="translate(24.906875 105.084488) scale(0.1 -0.1)">
       <use xlink:href="#DejaVuSans-30"/>
       <use xlink:href="#DejaVuSans-2e" x="63.623047"/>
       <use xlink:href="#DejaVuSans-38" x="95.410156"/>
      </g>
     </g>
    </g>
    <g id="ytick_6">
     <g id="line2d_12">
      <g>
       <use xlink:href="#m0e6334db52" x="47.81" y="56.652325" style="stroke: #000000; stroke-width: 0.8"/>
      </g>
     </g>
     <g id="text_13">
      <!-- 1.0 -->
      <g transform="translate(24.906875 60.451543) scale(0.1 -0.1)">
       <use xlink:href="#DejaVuSans-31"/>
       <use xlink:href="#DejaVuSans-2e" x="63.623047"/>
       <use xlink:href="#DejaVuSans-30" x="95.410156"/>
      </g>
     </g>
    </g>
    <g id="text_14">
     <!-- Avg action -->
     <g transform="translate(18.827187 190.779844) rotate(-90) scale(0.1 -0.1)">
      <defs>
       <path id="DejaVuSans-41" d="M 2188 4044 
L 1331 1722 
L 3047 1722 
L 2188 4044 
z
M 1831 4666 
L 2547 4666 
L 4325 0 
L 3669 0 
L 3244 1197 
L 1141 1197 
L 716 0 
L 50 0 
L 1831 4666 
z
" transform="scale(0.015625)"/>
       <path id="DejaVuSans-76" d="M 191 3500 
L 800 3500 
L 1894 563 
L 2988 3500 
L 3597 3500 
L 2284 0 
L 1503 0 
L 191 3500 
z
" transform="scale(0.015625)"/>
       <path id="DejaVuSans-67" d="M 2906 1791 
Q 2906 2416 2648 2759 
Q 2391 3103 1925 3103 
Q 1463 3103 1205 2759 
Q 947 2416 947 1791 
Q 947 1169 1205 825 
Q 1463 481 1925 481 
Q 2391 481 2648 825 
Q 2906 1169 2906 1791 
z
M 3481 434 
Q 3481 -459 3084 -895 
Q 2688 -1331 1869 -1331 
Q 1566 -1331 1297 -1286 
Q 1028 -1241 775 -1147 
L 775 -588 
Q 1028 -725 1275 -790 
Q 1522 -856 1778 -856 
Q 2344 -856 2625 -561 
Q 2906 -266 2906 331 
L 2906 616 
Q 2728 306 2450 153 
Q 2172 0 1784 0 
Q 1141 0 747 490 
Q 353 981 353 1791 
Q 353 2603 747 3093 
Q 1141 3584 1784 3584 
Q 2172 3584 2450 3431 
Q 2728 3278 2906 2969 
L 2906 3500 
L 3481 3500 
L 3481 434 
z
" transform="scale(0.015625)"/>
       <path id="DejaVuSans-20" transform="scale(0.015625)"/>
       <path id="DejaVuSans-63" d="M 3122 3366 
L 3122 2828 
Q 2878 2963 2633 3030 
Q 2388 3097 2138 3097 
Q 1578 3097 1268 2742 
Q 959 2388 959 1747 
Q 959 1106 1268 751 
Q 1578 397 2138 397 
Q 2388 397 2633 464 
Q 2878 531 3122 666 
L 3122 134 
Q 2881 22 2623 -34 
Q 2366 -91 2075 -91 
Q 1284 -91 818 406 
Q 353 903 353 1747 
Q 353 2603 823 3093 
Q 1294 3584 2113 3584 
Q 2378 3584 2631 3529 
Q 2884 3475 3122 3366 
z
" transform="scale(0.015625)"/>
      </defs>
      <use xlink:href="#DejaVuSans-41"/>
      <use xlink:href="#DejaVuSans-76" x="62.533203"/>
      <use xlink:href="#DejaVuSans-67" x="121.712891"/>
      <use xlink:href="#DejaVuSans-20" x="185.189453"/>
      <use xlink:href="#DejaVuSans-61" x="216.976562"/>
      <use xlink:href="#DejaVuSans-63" x="278.255859"/>
      <use xlink:href="#DejaVuSans-74" x="333.236328"/>
      <use xlink:href="#DejaVuSans-69" x="372.445312"/>
      <use xlink:href="#DejaVuSans-6f" x="400.228516"/>
      <use xlink:href="#DejaVuSans-6e" x="461.410156"/>
     </g>
    </g>
   </g>
   <g id="line2d_13">
    <path d="M 66.091364 58.883972 
L 69.784568 159.308097 
L 73.477773 210.635983 
L 77.170978 210.635983 
L 80.864183 208.404336 
L 84.557388 221.794219 
L 88.250592 235.184103 
L 91.943797 237.41575 
L 95.637002 235.184103 
L 99.330207 255.268928 
L 103.023411 253.037281 
L 106.716616 261.963869 
L 110.409821 255.268928 
L 114.103026 257.500575 
L 117.79623 253.037281 
L 121.489435 261.963869 
L 125.18264 259.732222 
L 128.875845 259.732222 
L 132.56905 259.732222 
L 136.262254 257.500575 
L 139.955459 261.963869 
L 143.648664 259.732222 
L 147.341869 264.195517 
L 151.035073 259.732222 
L 154.728278 261.963869 
L 158.421483 264.195517 
L 162.114688 259.732222 
L 165.807893 264.195517 
L 169.501097 264.195517 
L 173.194302 264.195517 
L 176.887507 261.963869 
L 180.580712 264.195517 
L 184.273916 266.427164 
L 187.967121 264.195517 
L 191.660326 261.963869 
L 195.353531 261.963869 
L 199.046736 266.427164 
L 202.73994 266.427164 
L 206.433145 266.427164 
L 210.12635 261.963869 
L 213.819555 275.353753 
L 217.512759 273.122106 
L 221.205964 273.122106 
L 224.899169 266.427164 
L 228.592374 266.427164 
L 232.285579 273.122106 
L 235.978783 273.122106 
L 239.671988 275.353753 
L 243.365193 273.122106 
L 247.058398 277.5854 
L 250.751602 268.658811 
L 254.444807 268.658811 
L 258.138012 268.658811 
L 261.831217 270.890458 
L 265.524421 270.890458 
L 269.217626 270.890458 
L 272.910831 268.658811 
L 276.604036 273.122106 
L 280.297241 277.5854 
L 283.990445 270.890458 
L 287.68365 273.122106 
L 291.376855 275.353753 
L 295.07006 273.122106 
L 298.763264 275.353753 
L 302.456469 275.353753 
L 306.149674 270.890458 
L 309.842879 275.353753 
L 313.536084 275.353753 
L 317.229288 275.353753 
L 320.922493 273.122106 
L 324.615698 275.353753 
L 328.308903 275.353753 
L 332.002107 277.5854 
L 335.695312 277.5854 
L 339.388517 277.5854 
L 343.081722 277.5854 
L 346.774927 277.5854 
L 350.468131 277.5854 
L 354.161336 275.353753 
L 357.854541 277.5854 
L 361.547746 277.5854 
L 365.24095 279.817047 
L 368.934155 275.353753 
L 372.62736 277.5854 
L 376.320565 275.353753 
L 380.01377 279.817047 
L 383.706974 277.5854 
L 387.400179 277.5854 
L 391.093384 279.817047 
L 394.786589 277.5854 
L 398.479793 275.353753 
L 402.172998 275.353753 
L 405.866203 277.5854 
L 409.559408 277.5854 
L 413.252612 277.5854 
L 416.945817 275.353753 
L 420.639022 275.353753 
L 424.332227 275.353753 
L 428.025432 273.122106 
L 431.718636 266.427164 
" clip-path="url(#pe4ac4c0d62)" style="fill: none; stroke: #0000ff; stroke-linecap: square"/>
    <defs>
     <path id="mb43f7a8f25" d="M -0.49999 0.49999 
L 0.50001 0.49999 
L 0.50001 -0.50001 
L -0.49999 -0.50001 
z
"/>
    </defs>
    <g clip-path="url(#pe4ac4c0d62)">
     <use xlink:href="#mb43f7a8f25" x="66.091364" y="58.883972" style="fill: #0000ff"/>
     <use xlink:href="#mb43f7a8f25" x="69.784568" y="159.308097" style="fill: #0000ff"/>
     <use xlink:href="#mb43f7a8f25" x="73.477773" y="210.635983" style="fill: #0000ff"/>
     <use xlink:href="#mb43f7a8f25" x="77.170978" y="210.635983" style="fill: #0000ff"/>
     <use xlink:href="#mb43f7a8f25" x="80.864183" y="208.404336" style="fill: #0000ff"/>
     <use xlink:href="#mb43f7a8f25" x="84.557388" y="221.794219" style="fill: #0000ff"/>
     <use xlink:href="#mb43f7a8f25" x="88.250592" y="235.184103" style="fill: #0000ff"/>
     <use xlink:href="#mb43f7a8f25" x="91.943797" y="237.41575" style="fill: #0000ff"/>
     <use xlink:href="#mb43f7a8f25" x="95.637002" y="235.184103" style="fill: #0000ff"/>
     <use xlink:href="#mb43f7a8f25" x="99.330207" y="255.268928" style="fill: #0000ff"/>
     <use xlink:href="#mb43f7a8f25" x="103.023411" y="253.037281" style="fill: #0000ff"/>
     <use xlink:href="#mb43f7a8f25" x="106.716616" y="261.963869" style="fill: #0000ff"/>
     <use xlink:href="#mb43f7a8f25" x="110.409821" y="255.268928" style="fill: #0000ff"/>
     <use xlink:href="#mb43f7a8f25" x="114.103026" y="257.500575" style="fill: #0000ff"/>
     <use xlink:href="#mb43f7a8f25" x="117.79623" y="253.037281" style="fill: #0000ff"/>
     <use xlink:href="#mb43f7a8f25" x="121.489435" y="261.963869" style="fill: #0000ff"/>
     <use xlink:href="#mb43f7a8f25" x="125.18264" y="259.732222" style="fill: #0000ff"/>
     <use xlink:href="#mb43f7a8f25" x="128.875845" y="259.732222" style="fill: #0000ff"/>
     <use xlink:href="#mb43f7a8f25" x="132.56905" y="259.732222" style="fill: #0000ff"/>
     <use xlink:href="#mb43f7a8f25" x="136.262254" y="257.500575" style="fill: #0000ff"/>
     <use xlink:href="#mb43f7a8f25" x="139.955459" y="261.963869" style="fill: #0000ff"/>
     <use xlink:href="#mb43f7a8f25" x="143.648664" y="259.732222" style="fill: #0000ff"/>
     <use xlink:href="#mb43f7a8f25" x="147.341869" y="264.195517" style="fill: #0000ff"/>
     <use xlink:href="#mb43f7a8f25" x="151.035073" y="259.732222" style="fill: #0000ff"/>
     <use xlink:href="#mb43f7a8f25" x="154.728278" y="261.963869" style="fill: #0000ff"/>
     <use xlink:href="#mb43f7a8f25" x="158.421483" y="264.195517" style="fill: #0000ff"/>
     <use xlink:href="#mb43f7a8f25" x="162.114688" y="259.732222" style="fill: #0000ff"/>
     <use xlink:href="#mb43f7a8f25" x="165.807893" y="264.195517" style="fill: #0000ff"/>
     <use xlink:href="#mb43f7a8f25" x="169.501097" y="264.195517" style="fill: #0000ff"/>
     <use xlink:href="#mb43f7a8f25" x="173.194302" y="264.195517" style="fill: #0000ff"/>
     <use xlink:href="#mb43f7a8f25" x="176.887507" y="261.963869" style="fill: #0000ff"/>
     <use xlink:href="#mb43f7a8f25" x="180.580712" y="264.195517" style="fill: #0000ff"/>
     <use xlink:href="#mb43f7a8f25" x="184.273916" y="266.427164" style="fill: #0000ff"/>
     <use xlink:href="#mb43f7a8f25" x="187.967121" y="264.195517" style="fill: #0000ff"/>
     <use xlink:href="#mb43f7a8f25" x="191.660326" y="261.963869" style="fill: #0000ff"/>
     <use xlink:href="#mb43f7a8f25" x="195.353531" y="261.963869" style="fill: #0000ff"/>
     <use xlink:href="#mb43f7a8f25" x="199.046736" y="266.427164" style="fill: #0000ff"/>
     <use xlink:href="#mb43f7a8f25" x="202.73994" y="266.427164" style="fill: #0000ff"/>
     <use xlink:href="#mb43f7a8f25" x="206.433145" y="266.427164" style="fill: #0000ff"/>
     <use xlink:href="#mb43f7a8f25" x="210.12635" y="261.963869" style="fill: #0000ff"/>
     <use xlink:href="#mb43f7a8f25" x="213.819555" y="275.353753" style="fill: #0000ff"/>
     <use xlink:href="#mb43f7a8f25" x="217.512759" y="273.122106" style="fill: #0000ff"/>
     <use xlink:href="#mb43f7a8f25" x="221.205964" y="273.122106" style="fill: #0000ff"/>
     <use xlink:href="#mb43f7a8f25" x="224.899169" y="266.427164" style="fill: #0000ff"/>
     <use xlink:href="#mb43f7a8f25" x="228.592374" y="266.427164" style="fill: #0000ff"/>
     <use xlink:href="#mb43f7a8f25" x="232.285579" y="273.122106" style="fill: #0000ff"/>
     <use xlink:href="#mb43f7a8f25" x="235.978783" y="273.122106" style="fill: #0000ff"/>
     <use xlink:href="#mb43f7a8f25" x="239.671988" y="275.353753" style="fill: #0000ff"/>
     <use xlink:href="#mb43f7a8f25" x="243.365193" y="273.122106" style="fill: #0000ff"/>
     <use xlink:href="#mb43f7a8f25" x="247.058398" y="277.5854" style="fill: #0000ff"/>
     <use xlink:href="#mb43f7a8f25" x="250.751602" y="268.658811" style="fill: #0000ff"/>
     <use xlink:href="#mb43f7a8f25" x="254.444807" y="268.658811" style="fill: #0000ff"/>
     <use xlink:href="#mb43f7a8f25" x="258.138012" y="268.658811" style="fill: #0000ff"/>
     <use xlink:href="#mb43f7a8f25" x="261.831217" y="270.890458" style="fill: #0000ff"/>
     <use xlink:href="#mb43f7a8f25" x="265.524421" y="270.890458" style="fill: #0000ff"/>
     <use xlink:href="#mb43f7a8f25" x="269.217626" y="270.890458" style="fill: #0000ff"/>
     <use xlink:href="#mb43f7a8f25" x="272.910831" y="268.658811" style="fill: #0000ff"/>
     <use xlink:href="#mb43f7a8f25" x="276.604036" y="273.122106" style="fill: #0000ff"/>
     <use xlink:href="#mb43f7a8f25" x="280.297241" y="277.5854" style="fill: #0000ff"/>
     <use xlink:href="#mb43f7a8f25" x="283.990445" y="270.890458" style="fill: #0000ff"/>
     <use xlink:href="#mb43f7a8f25" x="287.68365" y="273.122106" style="fill: #0000ff"/>
     <use xlink:href="#mb43f7a8f25" x="291.376855" y="275.353753" style="fill: #0000ff"/>
     <use xlink:href="#mb43f7a8f25" x="295.07006" y="273.122106" style="fill: #0000ff"/>
     <use xlink:href="#mb43f7a8f25" x="298.763264" y="275.353753" style="fill: #0000ff"/>
     <use xlink:href="#mb43f7a8f25" x="302.456469" y="275.353753" style="fill: #0000ff"/>
     <use xlink:href="#mb43f7a8f25" x="306.149674" y="270.890458" style="fill: #0000ff"/>
     <use xlink:href="#mb43f7a8f25" x="309.842879" y="275.353753" style="fill: #0000ff"/>
     <use xlink:href="#mb43f7a8f25" x="313.536084" y="275.353753" style="fill: #0000ff"/>
     <use xlink:href="#mb43f7a8f25" x="317.229288" y="275.353753" style="fill: #0000ff"/>
     <use xlink:href="#mb43f7a8f25" x="320.922493" y="273.122106" style="fill: #0000ff"/>
     <use xlink:href="#mb43f7a8f25" x="324.615698" y="275.353753" style="fill: #0000ff"/>
     <use xlink:href="#mb43f7a8f25" x="328.308903" y="275.353753" style="fill: #0000ff"/>
     <use xlink:href="#mb43f7a8f25" x="332.002107" y="277.5854" style="fill: #0000ff"/>
     <use xlink:href="#mb43f7a8f25" x="335.695312" y="277.5854" style="fill: #0000ff"/>
     <use xlink:href="#mb43f7a8f25" x="339.388517" y="277.5854" style="fill: #0000ff"/>
     <use xlink:href="#mb43f7a8f25" x="343.081722" y="277.5854" style="fill: #0000ff"/>
     <use xlink:href="#mb43f7a8f25" x="346.774927" y="277.5854" style="fill: #0000ff"/>
     <use xlink:href="#mb43f7a8f25" x="350.468131" y="277.5854" style="fill: #0000ff"/>
     <use xlink:href="#mb43f7a8f25" x="354.161336" y="275.353753" style="fill: #0000ff"/>
     <use xlink:href="#mb43f7a8f25" x="357.854541" y="277.5854" style="fill: #0000ff"/>
     <use xlink:href="#mb43f7a8f25" x="361.547746" y="277.5854" style="fill: #0000ff"/>
     <use xlink:href="#mb43f7a8f25" x="365.24095" y="279.817047" style="fill: #0000ff"/>
     <use xlink:href="#mb43f7a8f25" x="368.934155" y="275.353753" style="fill: #0000ff"/>
     <use xlink:href="#mb43f7a8f25" x="372.62736" y="277.5854" style="fill: #0000ff"/>
     <use xlink:href="#mb43f7a8f25" x="376.320565" y="275.353753" style="fill: #0000ff"/>
     <use xlink:href="#mb43f7a8f25" x="380.01377" y="279.817047" style="fill: #0000ff"/>
     <use xlink:href="#mb43f7a8f25" x="383.706974" y="277.5854" style="fill: #0000ff"/>
     <use xlink:href="#mb43f7a8f25" x="387.400179" y="277.5854" style="fill: #0000ff"/>
     <use xlink:href="#mb43f7a8f25" x="391.093384" y="279.817047" style="fill: #0000ff"/>
     <use xlink:href="#mb43f7a8f25" x="394.786589" y="277.5854" style="fill: #0000ff"/>
     <use xlink:href="#mb43f7a8f25" x="398.479793" y="275.353753" style="fill: #0000ff"/>
     <use xlink:href="#mb43f7a8f25" x="402.172998" y="275.353753" style="fill: #0000ff"/>
     <use xlink:href="#mb43f7a8f25" x="405.866203" y="277.5854" style="fill: #0000ff"/>
     <use xlink:href="#mb43f7a8f25" x="409.559408" y="277.5854" style="fill: #0000ff"/>
     <use xlink:href="#mb43f7a8f25" x="413.252612" y="277.5854" style="fill: #0000ff"/>
     <use xlink:href="#mb43f7a8f25" x="416.945817" y="275.353753" style="fill: #0000ff"/>
     <use xlink:href="#mb43f7a8f25" x="420.639022" y="275.353753" style="fill: #0000ff"/>
     <use xlink:href="#mb43f7a8f25" x="424.332227" y="275.353753" style="fill: #0000ff"/>
     <use xlink:href="#mb43f7a8f25" x="428.025432" y="273.122106" style="fill: #0000ff"/>
     <use xlink:href="#mb43f7a8f25" x="431.718636" y="266.427164" style="fill: #0000ff"/>
    </g>
   </g>
   <g id="line2d_14">
    <path d="M 66.091364 58.883972 
L 69.784568 109.096034 
L 73.477773 142.942684 
L 77.170978 159.866009 
L 80.864183 169.573674 
L 84.557388 178.277098 
L 88.250592 186.40667 
L 91.943797 192.782805 
L 95.637002 197.494061 
L 99.330207 203.271547 
L 103.023411 207.795705 
L 106.716616 212.309719 
L 110.409821 215.614273 
L 114.103026 218.606152 
L 117.79623 220.90156 
L 121.489435 223.467955 
L 125.18264 225.601147 
L 128.875845 227.497318 
L 132.56905 229.193892 
L 136.262254 230.609226 
L 139.955459 232.102304 
L 143.648664 233.35821 
L 147.341869 234.698962 
L 151.035073 235.742015 
L 154.728278 236.790889 
L 158.421483 237.844913 
L 162.114688 238.655554 
L 165.807893 239.567695 
L 169.501097 240.416931 
L 173.194302 241.20955 
L 176.887507 241.879044 
L 180.580712 242.576434 
L 184.273916 243.299184 
L 187.967121 243.913782 
L 191.660326 244.429498 
L 195.353531 244.916564 
L 199.046736 245.497932 
L 202.73994 246.048701 
L 206.433145 246.571226 
L 210.12635 246.956042 
L 213.819555 247.648669 
L 217.512759 248.255179 
L 221.205964 248.83348 
L 224.899169 249.233336 
L 228.592374 249.615421 
L 232.285579 250.126436 
L 235.978783 250.615706 
L 239.671988 251.131082 
L 243.365193 251.579878 
L 247.058398 252.099989 
L 250.751602 252.424671 
L 254.444807 252.736866 
L 258.138012 253.037281 
L 261.831217 253.367895 
L 265.524421 253.686487 
L 269.217626 253.993701 
L 272.910831 254.250983 
L 276.604036 254.576348 
L 280.297241 254.966332 
L 283.990445 255.231734 
L 287.68365 255.525018 
L 291.376855 255.844837 
L 295.07006 256.119079 
L 298.763264 256.419621 
L 302.456469 256.710915 
L 306.149674 256.925757 
L 309.842879 257.200801 
L 313.536084 257.467757 
L 317.229288 257.726974 
L 320.922493 257.946904 
L 324.615698 258.192071 
L 328.308903 258.430428 
L 332.002107 258.692825 
L 335.695312 258.94813 
L 339.388517 259.196627 
L 343.081722 259.438584 
L 346.774927 259.674257 
L 350.468131 259.903887 
L 354.161336 260.099455 
L 357.854541 260.31803 
L 361.547746 260.531207 
L 365.24095 260.7664 
L 368.934155 260.942151 
L 372.62736 261.140285 
L 376.320565 261.307503 
L 380.01377 261.52273 
L 383.706974 261.707358 
L 387.400179 261.887791 
L 391.093384 262.089243 
L 394.786589 262.261422 
L 398.479793 262.405294 
L 402.172998 262.546038 
L 405.866203 262.707752 
L 409.559408 262.866025 
L 413.252612 263.020965 
L 416.945817 263.149432 
L 420.639022 263.27525 
L 424.332227 263.3985 
L 428.025432 263.496718 
L 431.718636 263.526022 
" clip-path="url(#pe4ac4c0d62)" style="fill: none; stroke: #0000ff; stroke-opacity: 0.5; stroke-width: 0.5; stroke-linecap: square"/>
    <defs>
     <path id="m7dffc7491a" d="M -0.49999 0.49999 
L 0.50001 0.49999 
L 0.50001 -0.50001 
L -0.49999 -0.50001 
z
"/>
    </defs>
    <g clip-path="url(#pe4ac4c0d62)">
     <use xlink:href="#m7dffc7491a" x="66.091364" y="58.883972" style="fill: #0000ff; fill-opacity: 0.5"/>
     <use xlink:href="#m7dffc7491a" x="69.784568" y="109.096034" style="fill: #0000ff; fill-opacity: 0.5"/>
     <use xlink:href="#m7dffc7491a" x="73.477773" y="142.942684" style="fill: #0000ff; fill-opacity: 0.5"/>
     <use xlink:href="#m7dffc7491a" x="77.170978" y="159.866009" style="fill: #0000ff; fill-opacity: 0.5"/>
     <use xlink:href="#m7dffc7491a" x="80.864183" y="169.573674" style="fill: #0000ff; fill-opacity: 0.5"/>
     <use xlink:href="#m7dffc7491a" x="84.557388" y="178.277098" style="fill: #0000ff; fill-opacity: 0.5"/>
     <use xlink:href="#m7dffc7491a" x="88.250592" y="186.40667" style="fill: #0000ff; fill-opacity: 0.5"/>
     <use xlink:href="#m7dffc7491a" x="91.943797" y="192.782805" style="fill: #0000ff; fill-opacity: 0.5"/>
     <use xlink:href="#m7dffc7491a" x="95.637002" y="197.494061" style="fill: #0000ff; fill-opacity: 0.5"/>
     <use xlink:href="#m7dffc7491a" x="99.330207" y="203.271547" style="fill: #0000ff; fill-opacity: 0.5"/>
     <use xlink:href="#m7dffc7491a" x="103.023411" y="207.795705" style="fill: #0000ff; fill-opacity: 0.5"/>
     <use xlink:href="#m7dffc7491a" x="106.716616" y="212.309719" style="fill: #0000ff; fill-opacity: 0.5"/>
     <use xlink:href="#m7dffc7491a" x="110.409821" y="215.614273" style="fill: #0000ff; fill-opacity: 0.5"/>
     <use xlink:href="#m7dffc7491a" x="114.103026" y="218.606152" style="fill: #0000ff; fill-opacity: 0.5"/>
     <use xlink:href="#m7dffc7491a" x="117.79623" y="220.90156" style="fill: #0000ff; fill-opacity: 0.5"/>
     <use xlink:href="#m7dffc7491a" x="121.489435" y="223.467955" style="fill: #0000ff; fill-opacity: 0.5"/>
     <use xlink:href="#m7dffc7491a" x="125.18264" y="225.601147" style="fill: #0000ff; fill-opacity: 0.5"/>
     <use xlink:href="#m7dffc7491a" x="128.875845" y="227.497318" style="fill: #0000ff; fill-opacity: 0.5"/>
     <use xlink:href="#m7dffc7491a" x="132.56905" y="229.193892" style="fill: #0000ff; fill-opacity: 0.5"/>
     <use xlink:href="#m7dffc7491a" x="136.262254" y="230.609226" style="fill: #0000ff; fill-opacity: 0.5"/>
     <use xlink:href="#m7dffc7491a" x="139.955459" y="232.102304" style="fill: #0000ff; fill-opacity: 0.5"/>
     <use xlink:href="#m7dffc7491a" x="143.648664" y="233.35821" style="fill: #0000ff; fill-opacity: 0.5"/>
     <use xlink:href="#m7dffc7491a" x="147.341869" y="234.698962" style="fill: #0000ff; fill-opacity: 0.5"/>
     <use xlink:href="#m7dffc7491a" x="151.035073" y="235.742015" style="fill: #0000ff; fill-opacity: 0.5"/>
     <use xlink:href="#m7dffc7491a" x="154.728278" y="236.790889" style="fill: #0000ff; fill-opacity: 0.5"/>
     <use xlink:href="#m7dffc7491a" x="158.421483" y="237.844913" style="fill: #0000ff; fill-opacity: 0.5"/>
     <use xlink:href="#m7dffc7491a" x="162.114688" y="238.655554" style="fill: #0000ff; fill-opacity: 0.5"/>
     <use xlink:href="#m7dffc7491a" x="165.807893" y="239.567695" style="fill: #0000ff; fill-opacity: 0.5"/>
     <use xlink:href="#m7dffc7491a" x="169.501097" y="240.416931" style="fill: #0000ff; fill-opacity: 0.5"/>
     <use xlink:href="#m7dffc7491a" x="173.194302" y="241.20955" style="fill: #0000ff; fill-opacity: 0.5"/>
     <use xlink:href="#m7dffc7491a" x="176.887507" y="241.879044" style="fill: #0000ff; fill-opacity: 0.5"/>
     <use xlink:href="#m7dffc7491a" x="180.580712" y="242.576434" style="fill: #0000ff; fill-opacity: 0.5"/>
     <use xlink:href="#m7dffc7491a" x="184.273916" y="243.299184" style="fill: #0000ff; fill-opacity: 0.5"/>
     <use xlink:href="#m7dffc7491a" x="187.967121" y="243.913782" style="fill: #0000ff; fill-opacity: 0.5"/>
     <use xlink:href="#m7dffc7491a" x="191.660326" y="244.429498" style="fill: #0000ff; fill-opacity: 0.5"/>
     <use xlink:href="#m7dffc7491a" x="195.353531" y="244.916564" style="fill: #0000ff; fill-opacity: 0.5"/>
     <use xlink:href="#m7dffc7491a" x="199.046736" y="245.497932" style="fill: #0000ff; fill-opacity: 0.5"/>
     <use xlink:href="#m7dffc7491a" x="202.73994" y="246.048701" style="fill: #0000ff; fill-opacity: 0.5"/>
     <use xlink:href="#m7dffc7491a" x="206.433145" y="246.571226" style="fill: #0000ff; fill-opacity: 0.5"/>
     <use xlink:href="#m7dffc7491a" x="210.12635" y="246.956042" style="fill: #0000ff; fill-opacity: 0.5"/>
     <use xlink:href="#m7dffc7491a" x="213.819555" y="247.648669" style="fill: #0000ff; fill-opacity: 0.5"/>
     <use xlink:href="#m7dffc7491a" x="217.512759" y="248.255179" style="fill: #0000ff; fill-opacity: 0.5"/>
     <use xlink:href="#m7dffc7491a" x="221.205964" y="248.83348" style="fill: #0000ff; fill-opacity: 0.5"/>
     <use xlink:href="#m7dffc7491a" x="224.899169" y="249.233336" style="fill: #0000ff; fill-opacity: 0.5"/>
     <use xlink:href="#m7dffc7491a" x="228.592374" y="249.615421" style="fill: #0000ff; fill-opacity: 0.5"/>
     <use xlink:href="#m7dffc7491a" x="232.285579" y="250.126436" style="fill: #0000ff; fill-opacity: 0.5"/>
     <use xlink:href="#m7dffc7491a" x="235.978783" y="250.615706" style="fill: #0000ff; fill-opacity: 0.5"/>
     <use xlink:href="#m7dffc7491a" x="239.671988" y="251.131082" style="fill: #0000ff; fill-opacity: 0.5"/>
     <use xlink:href="#m7dffc7491a" x="243.365193" y="251.579878" style="fill: #0000ff; fill-opacity: 0.5"/>
     <use xlink:href="#m7dffc7491a" x="247.058398" y="252.099989" style="fill: #0000ff; fill-opacity: 0.5"/>
     <use xlink:href="#m7dffc7491a" x="250.751602" y="252.424671" style="fill: #0000ff; fill-opacity: 0.5"/>
     <use xlink:href="#m7dffc7491a" x="254.444807" y="252.736866" style="fill: #0000ff; fill-opacity: 0.5"/>
     <use xlink:href="#m7dffc7491a" x="258.138012" y="253.037281" style="fill: #0000ff; fill-opacity: 0.5"/>
     <use xlink:href="#m7dffc7491a" x="261.831217" y="253.367895" style="fill: #0000ff; fill-opacity: 0.5"/>
     <use xlink:href="#m7dffc7491a" x="265.524421" y="253.686487" style="fill: #0000ff; fill-opacity: 0.5"/>
     <use xlink:href="#m7dffc7491a" x="269.217626" y="253.993701" style="fill: #0000ff; fill-opacity: 0.5"/>
     <use xlink:href="#m7dffc7491a" x="272.910831" y="254.250983" style="fill: #0000ff; fill-opacity: 0.5"/>
     <use xlink:href="#m7dffc7491a" x="276.604036" y="254.576348" style="fill: #0000ff; fill-opacity: 0.5"/>
     <use xlink:href="#m7dffc7491a" x="280.297241" y="254.966332" style="fill: #0000ff; fill-opacity: 0.5"/>
     <use xlink:href="#m7dffc7491a" x="283.990445" y="255.231734" style="fill: #0000ff; fill-opacity: 0.5"/>
     <use xlink:href="#m7dffc7491a" x="287.68365" y="255.525018" style="fill: #0000ff; fill-opacity: 0.5"/>
     <use xlink:href="#m7dffc7491a" x="291.376855" y="255.844837" style="fill: #0000ff; fill-opacity: 0.5"/>
     <use xlink:href="#m7dffc7491a" x="295.07006" y="256.119079" style="fill: #0000ff; fill-opacity: 0.5"/>
     <use xlink:href="#m7dffc7491a" x="298.763264" y="256.419621" style="fill: #0000ff; fill-opacity: 0.5"/>
     <use xlink:href="#m7dffc7491a" x="302.456469" y="256.710915" style="fill: #0000ff; fill-opacity: 0.5"/>
     <use xlink:href="#m7dffc7491a" x="306.149674" y="256.925757" style="fill: #0000ff; fill-opacity: 0.5"/>
     <use xlink:href="#m7dffc7491a" x="309.842879" y="257.200801" style="fill: #0000ff; fill-opacity: 0.5"/>
     <use xlink:href="#m7dffc7491a" x="313.536084" y="257.467757" style="fill: #0000ff; fill-opacity: 0.5"/>
     <use xlink:href="#m7dffc7491a" x="317.229288" y="257.726974" style="fill: #0000ff; fill-opacity: 0.5"/>
     <use xlink:href="#m7dffc7491a" x="320.922493" y="257.946904" style="fill: #0000ff; fill-opacity: 0.5"/>
     <use xlink:href="#m7dffc7491a" x="324.615698" y="258.192071" style="fill: #0000ff; fill-opacity: 0.5"/>
     <use xlink:href="#m7dffc7491a" x="328.308903" y="258.430428" style="fill: #0000ff; fill-opacity: 0.5"/>
     <use xlink:href="#m7dffc7491a" x="332.002107" y="258.692825" style="fill: #0000ff; fill-opacity: 0.5"/>
     <use xlink:href="#m7dffc7491a" x="335.695312" y="258.94813" style="fill: #0000ff; fill-opacity: 0.5"/>
     <use xlink:href="#m7dffc7491a" x="339.388517" y="259.196627" style="fill: #0000ff; fill-opacity: 0.5"/>
     <use xlink:href="#m7dffc7491a" x="343.081722" y="259.438584" style="fill: #0000ff; fill-opacity: 0.5"/>
     <use xlink:href="#m7dffc7491a" x="346.774927" y="259.674257" style="fill: #0000ff; fill-opacity: 0.5"/>
     <use xlink:href="#m7dffc7491a" x="350.468131" y="259.903887" style="fill: #0000ff; fill-opacity: 0.5"/>
     <use xlink:href="#m7dffc7491a" x="354.161336" y="260.099455" style="fill: #0000ff; fill-opacity: 0.5"/>
     <use xlink:href="#m7dffc7491a" x="357.854541" y="260.31803" style="fill: #0000ff; fill-opacity: 0.5"/>
     <use xlink:href="#m7dffc7491a" x="361.547746" y="260.531207" style="fill: #0000ff; fill-opacity: 0.5"/>
     <use xlink:href="#m7dffc7491a" x="365.24095" y="260.7664" style="fill: #0000ff; fill-opacity: 0.5"/>
     <use xlink:href="#m7dffc7491a" x="368.934155" y="260.942151" style="fill: #0000ff; fill-opacity: 0.5"/>
     <use xlink:href="#m7dffc7491a" x="372.62736" y="261.140285" style="fill: #0000ff; fill-opacity: 0.5"/>
     <use xlink:href="#m7dffc7491a" x="376.320565" y="261.307503" style="fill: #0000ff; fill-opacity: 0.5"/>
     <use xlink:href="#m7dffc7491a" x="380.01377" y="261.52273" style="fill: #0000ff; fill-opacity: 0.5"/>
     <use xlink:href="#m7dffc7491a" x="383.706974" y="261.707358" style="fill: #0000ff; fill-opacity: 0.5"/>
     <use xlink:href="#m7dffc7491a" x="387.400179" y="261.887791" style="fill: #0000ff; fill-opacity: 0.5"/>
     <use xlink:href="#m7dffc7491a" x="391.093384" y="262.089243" style="fill: #0000ff; fill-opacity: 0.5"/>
     <use xlink:href="#m7dffc7491a" x="394.786589" y="262.261422" style="fill: #0000ff; fill-opacity: 0.5"/>
     <use xlink:href="#m7dffc7491a" x="398.479793" y="262.405294" style="fill: #0000ff; fill-opacity: 0.5"/>
     <use xlink:href="#m7dffc7491a" x="402.172998" y="262.546038" style="fill: #0000ff; fill-opacity: 0.5"/>
     <use xlink:href="#m7dffc7491a" x="405.866203" y="262.707752" style="fill: #0000ff; fill-opacity: 0.5"/>
     <use xlink:href="#m7dffc7491a" x="409.559408" y="262.866025" style="fill: #0000ff; fill-opacity: 0.5"/>
     <use xlink:href="#m7dffc7491a" x="413.252612" y="263.020965" style="fill: #0000ff; fill-opacity: 0.5"/>
     <use xlink:href="#m7dffc7491a" x="416.945817" y="263.149432" style="fill: #0000ff; fill-opacity: 0.5"/>
     <use xlink:href="#m7dffc7491a" x="420.639022" y="263.27525" style="fill: #0000ff; fill-opacity: 0.5"/>
     <use xlink:href="#m7dffc7491a" x="424.332227" y="263.3985" style="fill: #0000ff; fill-opacity: 0.5"/>
     <use xlink:href="#m7dffc7491a" x="428.025432" y="263.496718" style="fill: #0000ff; fill-opacity: 0.5"/>
     <use xlink:href="#m7dffc7491a" x="431.718636" y="263.526022" style="fill: #0000ff; fill-opacity: 0.5"/>
    </g>
   </g>
   <g id="line2d_15">
    <path d="M 47.81 279.817047 
L 450 279.817047 
" clip-path="url(#pe4ac4c0d62)" style="fill: none; stroke-dasharray: 0.555,0.24; stroke-dashoffset: 0; stroke: #ff0000; stroke-width: 0.15"/>
   </g>
   <g id="line2d_16">
    <path d="M 47.81 168.234686 
L 450 168.234686 
" clip-path="url(#pe4ac4c0d62)" style="fill: none; stroke-dasharray: 0.555,0.24; stroke-dashoffset: 0; stroke: #ff0000; stroke-width: 0.15"/>
   </g>
   <g id="line2d_17">
    <path d="M 47.81 56.652325 
L 450 56.652325 
" clip-path="url(#pe4ac4c0d62)" style="fill: none; stroke-dasharray: 0.555,0.24; stroke-dashoffset: 0; stroke: #ff0000; stroke-width: 0.15"/>
   </g>
   <g id="line2d_18">
    <path d="M 66.091364 197.2461 
L 69.784568 210.635983 
L 73.477773 210.635983 
L 77.170978 208.404336 
L 80.864183 215.099278 
L 84.557388 201.709394 
L 88.250592 203.941042 
L 91.943797 195.014453 
L 95.637002 201.709394 
L 99.330207 208.404336 
L 103.023411 210.635983 
L 106.716616 201.709394 
L 110.409821 228.489161 
L 114.103026 199.477747 
L 117.79623 201.709394 
L 121.489435 208.404336 
L 125.18264 206.172689 
L 128.875845 215.099278 
L 132.56905 201.709394 
L 136.262254 212.86763 
L 139.955459 215.099278 
L 143.648664 188.319511 
L 147.341869 215.099278 
L 151.035073 226.257514 
L 154.728278 221.794219 
L 158.421483 228.489161 
L 162.114688 210.635983 
L 165.807893 208.404336 
L 169.501097 215.099278 
L 173.194302 221.794219 
L 176.887507 192.782805 
L 180.580712 208.404336 
L 184.273916 206.172689 
L 187.967121 219.562572 
L 191.660326 188.319511 
L 195.353531 219.562572 
L 199.046736 206.172689 
L 202.73994 206.172689 
L 206.433145 226.257514 
L 210.12635 215.099278 
L 213.819555 221.794219 
L 217.512759 224.025867 
L 221.205964 208.404336 
L 224.899169 215.099278 
L 228.592374 206.172689 
L 232.285579 201.709394 
L 235.978783 219.562572 
L 239.671988 208.404336 
L 243.365193 228.489161 
L 247.058398 206.172689 
L 250.751602 208.404336 
L 254.444807 215.099278 
L 258.138012 219.562572 
L 261.831217 226.257514 
L 265.524421 192.782805 
L 269.217626 212.86763 
L 272.910831 203.941042 
L 276.604036 217.330925 
L 280.297241 221.794219 
L 283.990445 221.794219 
L 287.68365 235.184103 
L 291.376855 226.257514 
L 295.07006 192.782805 
L 298.763264 232.952456 
L 302.456469 221.794219 
L 306.149674 215.099278 
L 309.842879 206.172689 
L 313.536084 197.2461 
L 317.229288 210.635983 
L 320.922493 212.86763 
L 324.615698 215.099278 
L 328.308903 203.941042 
L 332.002107 237.41575 
L 335.695312 203.941042 
L 339.388517 224.025867 
L 343.081722 215.099278 
L 346.774927 210.635983 
L 350.468131 217.330925 
L 354.161336 203.941042 
L 357.854541 201.709394 
L 361.547746 201.709394 
L 365.24095 190.551158 
L 368.934155 219.562572 
L 372.62736 215.099278 
L 376.320565 221.794219 
L 380.01377 197.2461 
L 383.706974 212.86763 
L 387.400179 206.172689 
L 391.093384 219.562572 
L 394.786589 212.86763 
L 398.479793 203.941042 
L 402.172998 203.941042 
L 405.866203 217.330925 
L 409.559408 210.635983 
L 413.252612 219.562572 
L 416.945817 219.562572 
L 420.639022 228.489161 
L 424.332227 201.709394 
L 428.025432 215.099278 
L 431.718636 215.099278 
" clip-path="url(#pe4ac4c0d62)" style="fill: none; stroke: #ff0000; stroke-width: 0.5; stroke-linecap: square"/>
    <defs>
     <path id="md280fc610a" d="M -0.49999 0.49999 
L 0.50001 0.49999 
L 0.50001 -0.50001 
L -0.49999 -0.50001 
z
"/>
    </defs>
    <g clip-path="url(#pe4ac4c0d62)">
     <use xlink:href="#md280fc610a" x="66.091364" y="197.2461" style="fill: #ff0000"/>
     <use xlink:href="#md280fc610a" x="69.784568" y="210.635983" style="fill: #ff0000"/>
     <use xlink:href="#md280fc610a" x="73.477773" y="210.635983" style="fill: #ff0000"/>
     <use xlink:href="#md280fc610a" x="77.170978" y="208.404336" style="fill: #ff0000"/>
     <use xlink:href="#md280fc610a" x="80.864183" y="215.099278" style="fill: #ff0000"/>
     <use xlink:href="#md280fc610a" x="84.557388" y="201.709394" style="fill: #ff0000"/>
     <use xlink:href="#md280fc610a" x="88.250592" y="203.941042" style="fill: #ff0000"/>
     <use xlink:href="#md280fc610a" x="91.943797" y="195.014453" style="fill: #ff0000"/>
     <use xlink:href="#md280fc610a" x="95.637002" y="201.709394" style="fill: #ff0000"/>
     <use xlink:href="#md280fc610a" x="99.330207" y="208.404336" style="fill: #ff0000"/>
     <use xlink:href="#md280fc610a" x="103.023411" y="210.635983" style="fill: #ff0000"/>
     <use xlink:href="#md280fc610a" x="106.716616" y="201.709394" style="fill: #ff0000"/>
     <use xlink:href="#md280fc610a" x="110.409821" y="228.489161" style="fill: #ff0000"/>
     <use xlink:href="#md280fc610a" x="114.103026" y="199.477747" style="fill: #ff0000"/>
     <use xlink:href="#md280fc610a" x="117.79623" y="201.709394" style="fill: #ff0000"/>
     <use xlink:href="#md280fc610a" x="121.489435" y="208.404336" style="fill: #ff0000"/>
     <use xlink:href="#md280fc610a" x="125.18264" y="206.172689" style="fill: #ff0000"/>
     <use xlink:href="#md280fc610a" x="128.875845" y="215.099278" style="fill: #ff0000"/>
     <use xlink:href="#md280fc610a" x="132.56905" y="201.709394" style="fill: #ff0000"/>
     <use xlink:href="#md280fc610a" x="136.262254" y="212.86763" style="fill: #ff0000"/>
     <use xlink:href="#md280fc610a" x="139.955459" y="215.099278" style="fill: #ff0000"/>
     <use xlink:href="#md280fc610a" x="143.648664" y="188.319511" style="fill: #ff0000"/>
     <use xlink:href="#md280fc610a" x="147.341869" y="215.099278" style="fill: #ff0000"/>
     <use xlink:href="#md280fc610a" x="151.035073" y="226.257514" style="fill: #ff0000"/>
     <use xlink:href="#md280fc610a" x="154.728278" y="221.794219" style="fill: #ff0000"/>
     <use xlink:href="#md280fc610a" x="158.421483" y="228.489161" style="fill: #ff0000"/>
     <use xlink:href="#md280fc610a" x="162.114688" y="210.635983" style="fill: #ff0000"/>
     <use xlink:href="#md280fc610a" x="165.807893" y="208.404336" style="fill: #ff0000"/>
     <use xlink:href="#md280fc610a" x="169.501097" y="215.099278" style="fill: #ff0000"/>
     <use xlink:href="#md280fc610a" x="173.194302" y="221.794219" style="fill: #ff0000"/>
     <use xlink:href="#md280fc610a" x="176.887507" y="192.782805" style="fill: #ff0000"/>
     <use xlink:href="#md280fc610a" x="180.580712" y="208.404336" style="fill: #ff0000"/>
     <use xlink:href="#md280fc610a" x="184.273916" y="206.172689" style="fill: #ff0000"/>
     <use xlink:href="#md280fc610a" x="187.967121" y="219.562572" style="fill: #ff0000"/>
     <use xlink:href="#md280fc610a" x="191.660326" y="188.319511" style="fill: #ff0000"/>
     <use xlink:href="#md280fc610a" x="195.353531" y="219.562572" style="fill: #ff0000"/>
     <use xlink:href="#md280fc610a" x="199.046736" y="206.172689" style="fill: #ff0000"/>
     <use xlink:href="#md280fc610a" x="202.73994" y="206.172689" style="fill: #ff0000"/>
     <use xlink:href="#md280fc610a" x="206.433145" y="226.257514" style="fill: #ff0000"/>
     <use xlink:href="#md280fc610a" x="210.12635" y="215.099278" style="fill: #ff0000"/>
     <use xlink:href="#md280fc610a" x="213.819555" y="221.794219" style="fill: #ff0000"/>
     <use xlink:href="#md280fc610a" x="217.512759" y="224.025867" style="fill: #ff0000"/>
     <use xlink:href="#md280fc610a" x="221.205964" y="208.404336" style="fill: #ff0000"/>
     <use xlink:href="#md280fc610a" x="224.899169" y="215.099278" style="fill: #ff0000"/>
     <use xlink:href="#md280fc610a" x="228.592374" y="206.172689" style="fill: #ff0000"/>
     <use xlink:href="#md280fc610a" x="232.285579" y="201.709394" style="fill: #ff0000"/>
     <use xlink:href="#md280fc610a" x="235.978783" y="219.562572" style="fill: #ff0000"/>
     <use xlink:href="#md280fc610a" x="239.671988" y="208.404336" style="fill: #ff0000"/>
     <use xlink:href="#md280fc610a" x="243.365193" y="228.489161" style="fill: #ff0000"/>
     <use xlink:href="#md280fc610a" x="247.058398" y="206.172689" style="fill: #ff0000"/>
     <use xlink:href="#md280fc610a" x="250.751602" y="208.404336" style="fill: #ff0000"/>
     <use xlink:href="#md280fc610a" x="254.444807" y="215.099278" style="fill: #ff0000"/>
     <use xlink:href="#md280fc610a" x="258.138012" y="219.562572" style="fill: #ff0000"/>
     <use xlink:href="#md280fc610a" x="261.831217" y="226.257514" style="fill: #ff0000"/>
     <use xlink:href="#md280fc610a" x="265.524421" y="192.782805" style="fill: #ff0000"/>
     <use xlink:href="#md280fc610a" x="269.217626" y="212.86763" style="fill: #ff0000"/>
     <use xlink:href="#md280fc610a" x="272.910831" y="203.941042" style="fill: #ff0000"/>
     <use xlink:href="#md280fc610a" x="276.604036" y="217.330925" style="fill: #ff0000"/>
     <use xlink:href="#md280fc610a" x="280.297241" y="221.794219" style="fill: #ff0000"/>
     <use xlink:href="#md280fc610a" x="283.990445" y="221.794219" style="fill: #ff0000"/>
     <use xlink:href="#md280fc610a" x="287.68365" y="235.184103" style="fill: #ff0000"/>
     <use xlink:href="#md280fc610a" x="291.376855" y="226.257514" style="fill: #ff0000"/>
     <use xlink:href="#md280fc610a" x="295.07006" y="192.782805" style="fill: #ff0000"/>
     <use xlink:href="#md280fc610a" x="298.763264" y="232.952456" style="fill: #ff0000"/>
     <use xlink:href="#md280fc610a" x="302.456469" y="221.794219" style="fill: #ff0000"/>
     <use xlink:href="#md280fc610a" x="306.149674" y="215.099278" style="fill: #ff0000"/>
     <use xlink:href="#md280fc610a" x="309.842879" y="206.172689" style="fill: #ff0000"/>
     <use xlink:href="#md280fc610a" x="313.536084" y="197.2461" style="fill: #ff0000"/>
     <use xlink:href="#md280fc610a" x="317.229288" y="210.635983" style="fill: #ff0000"/>
     <use xlink:href="#md280fc610a" x="320.922493" y="212.86763" style="fill: #ff0000"/>
     <use xlink:href="#md280fc610a" x="324.615698" y="215.099278" style="fill: #ff0000"/>
     <use xlink:href="#md280fc610a" x="328.308903" y="203.941042" style="fill: #ff0000"/>
     <use xlink:href="#md280fc610a" x="332.002107" y="237.41575" style="fill: #ff0000"/>
     <use xlink:href="#md280fc610a" x="335.695312" y="203.941042" style="fill: #ff0000"/>
     <use xlink:href="#md280fc610a" x="339.388517" y="224.025867" style="fill: #ff0000"/>
     <use xlink:href="#md280fc610a" x="343.081722" y="215.099278" style="fill: #ff0000"/>
     <use xlink:href="#md280fc610a" x="346.774927" y="210.635983" style="fill: #ff0000"/>
     <use xlink:href="#md280fc610a" x="350.468131" y="217.330925" style="fill: #ff0000"/>
     <use xlink:href="#md280fc610a" x="354.161336" y="203.941042" style="fill: #ff0000"/>
     <use xlink:href="#md280fc610a" x="357.854541" y="201.709394" style="fill: #ff0000"/>
     <use xlink:href="#md280fc610a" x="361.547746" y="201.709394" style="fill: #ff0000"/>
     <use xlink:href="#md280fc610a" x="365.24095" y="190.551158" style="fill: #ff0000"/>
     <use xlink:href="#md280fc610a" x="368.934155" y="219.562572" style="fill: #ff0000"/>
     <use xlink:href="#md280fc610a" x="372.62736" y="215.099278" style="fill: #ff0000"/>
     <use xlink:href="#md280fc610a" x="376.320565" y="221.794219" style="fill: #ff0000"/>
     <use xlink:href="#md280fc610a" x="380.01377" y="197.2461" style="fill: #ff0000"/>
     <use xlink:href="#md280fc610a" x="383.706974" y="212.86763" style="fill: #ff0000"/>
     <use xlink:href="#md280fc610a" x="387.400179" y="206.172689" style="fill: #ff0000"/>
     <use xlink:href="#md280fc610a" x="391.093384" y="219.562572" style="fill: #ff0000"/>
     <use xlink:href="#md280fc610a" x="394.786589" y="212.86763" style="fill: #ff0000"/>
     <use xlink:href="#md280fc610a" x="398.479793" y="203.941042" style="fill: #ff0000"/>
     <use xlink:href="#md280fc610a" x="402.172998" y="203.941042" style="fill: #ff0000"/>
     <use xlink:href="#md280fc610a" x="405.866203" y="217.330925" style="fill: #ff0000"/>
     <use xlink:href="#md280fc610a" x="409.559408" y="210.635983" style="fill: #ff0000"/>
     <use xlink:href="#md280fc610a" x="413.252612" y="219.562572" style="fill: #ff0000"/>
     <use xlink:href="#md280fc610a" x="416.945817" y="219.562572" style="fill: #ff0000"/>
     <use xlink:href="#md280fc610a" x="420.639022" y="228.489161" style="fill: #ff0000"/>
     <use xlink:href="#md280fc610a" x="424.332227" y="201.709394" style="fill: #ff0000"/>
     <use xlink:href="#md280fc610a" x="428.025432" y="215.099278" style="fill: #ff0000"/>
     <use xlink:href="#md280fc610a" x="431.718636" y="215.099278" style="fill: #ff0000"/>
    </g>
   </g>
   <g id="line2d_19">
    <path d="M 66.091364 197.2461 
L 69.784568 203.941042 
L 73.477773 206.172689 
L 77.170978 206.730601 
L 80.864183 208.404336 
L 84.557388 207.288512 
L 88.250592 206.810302 
L 91.943797 205.335821 
L 95.637002 204.932885 
L 99.330207 205.28003 
L 103.023411 205.766935 
L 106.716616 205.428806 
L 110.409821 207.20268 
L 114.103026 206.650899 
L 117.79623 206.321465 
L 121.489435 206.451645 
L 125.18264 206.435236 
L 128.875845 206.916571 
L 132.56905 206.642509 
L 136.262254 206.953765 
L 139.955459 207.341647 
L 143.648664 206.477004 
L 147.341869 206.851886 
L 151.035073 207.660454 
L 154.728278 208.225804 
L 158.421483 209.005164 
L 162.114688 209.065565 
L 165.807893 209.04195 
L 169.501097 209.250823 
L 173.194302 209.668936 
L 176.887507 209.124222 
L 180.580712 209.101726 
L 184.273916 209.012967 
L 187.967121 209.32325 
L 191.660326 208.723143 
L 195.353531 209.024238 
L 199.046736 208.947169 
L 202.73994 208.874156 
L 206.433145 209.319884 
L 210.12635 209.464368 
L 213.819555 209.765097 
L 217.512759 210.104639 
L 221.205964 210.065097 
L 224.899169 210.17951 
L 228.592374 210.090469 
L 232.285579 209.908272 
L 235.978783 210.113683 
L 239.671988 210.078071 
L 243.365193 210.453808 
L 247.058398 210.368186 
L 250.751602 210.329679 
L 254.444807 210.421402 
L 258.138012 210.593877 
L 261.831217 210.883944 
L 265.524421 210.554832 
L 269.217626 210.596132 
L 272.910831 210.479376 
L 276.604036 210.597507 
L 280.297241 210.787281 
L 283.990445 210.97073 
L 287.68365 211.367671 
L 291.376855 211.60783 
L 295.07006 211.30902 
L 298.763264 211.647198 
L 302.456469 211.803306 
L 306.149674 211.853245 
L 309.842879 211.768461 
L 313.536084 211.554897 
L 317.229288 211.541579 
L 320.922493 211.560523 
L 324.615698 211.610364 
L 328.308903 211.503846 
L 332.002107 211.858804 
L 335.695312 211.751807 
L 339.388517 211.915461 
L 343.081722 211.957353 
L 346.774927 211.940193 
L 350.468131 212.009305 
L 354.161336 211.907175 
L 357.854541 211.779702 
L 361.547746 211.655378 
L 365.24095 211.398009 
L 368.934155 211.496377 
L 372.62736 211.539269 
L 376.320565 211.659915 
L 380.01377 211.492313 
L 383.706974 211.508121 
L 387.400179 211.447491 
L 391.093384 211.538672 
L 394.786589 211.553438 
L 398.479793 211.469786 
L 402.172998 211.387951 
L 405.866203 211.451854 
L 409.559408 211.443175 
L 413.252612 211.528642 
L 416.945817 211.612329 
L 420.639022 211.786317 
L 424.332227 211.683491 
L 428.025432 211.717994 
L 431.718636 211.751807 
" clip-path="url(#pe4ac4c0d62)" style="fill: none; stroke: #ff0000; stroke-opacity: 0.5; stroke-width: 0.25; stroke-linecap: square"/>
    <defs>
     <path id="m200ee4a580" d="M -0.49999 0.49999 
L 0.50001 0.49999 
L 0.50001 -0.50001 
L -0.49999 -0.50001 
z
"/>
    </defs>
    <g clip-path="url(#pe4ac4c0d62)">
     <use xlink:href="#m200ee4a580" x="66.091364" y="197.2461" style="fill: #ff0000; fill-opacity: 0.5"/>
     <use xlink:href="#m200ee4a580" x="69.784568" y="203.941042" style="fill: #ff0000; fill-opacity: 0.5"/>
     <use xlink:href="#m200ee4a580" x="73.477773" y="206.172689" style="fill: #ff0000; fill-opacity: 0.5"/>
     <use xlink:href="#m200ee4a580" x="77.170978" y="206.730601" style="fill: #ff0000; fill-opacity: 0.5"/>
     <use xlink:href="#m200ee4a580" x="80.864183" y="208.404336" style="fill: #ff0000; fill-opacity: 0.5"/>
     <use xlink:href="#m200ee4a580" x="84.557388" y="207.288512" style="fill: #ff0000; fill-opacity: 0.5"/>
     <use xlink:href="#m200ee4a580" x="88.250592" y="206.810302" style="fill: #ff0000; fill-opacity: 0.5"/>
     <use xlink:href="#m200ee4a580" x="91.943797" y="205.335821" style="fill: #ff0000; fill-opacity: 0.5"/>
     <use xlink:href="#m200ee4a580" x="95.637002" y="204.932885" style="fill: #ff0000; fill-opacity: 0.5"/>
     <use xlink:href="#m200ee4a580" x="99.330207" y="205.28003" style="fill: #ff0000; fill-opacity: 0.5"/>
     <use xlink:href="#m200ee4a580" x="103.023411" y="205.766935" style="fill: #ff0000; fill-opacity: 0.5"/>
     <use xlink:href="#m200ee4a580" x="106.716616" y="205.428806" style="fill: #ff0000; fill-opacity: 0.5"/>
     <use xlink:href="#m200ee4a580" x="110.409821" y="207.20268" style="fill: #ff0000; fill-opacity: 0.5"/>
     <use xlink:href="#m200ee4a580" x="114.103026" y="206.650899" style="fill: #ff0000; fill-opacity: 0.5"/>
     <use xlink:href="#m200ee4a580" x="117.79623" y="206.321465" style="fill: #ff0000; fill-opacity: 0.5"/>
     <use xlink:href="#m200ee4a580" x="121.489435" y="206.451645" style="fill: #ff0000; fill-opacity: 0.5"/>
     <use xlink:href="#m200ee4a580" x="125.18264" y="206.435236" style="fill: #ff0000; fill-opacity: 0.5"/>
     <use xlink:href="#m200ee4a580" x="128.875845" y="206.916571" style="fill: #ff0000; fill-opacity: 0.5"/>
     <use xlink:href="#m200ee4a580" x="132.56905" y="206.642509" style="fill: #ff0000; fill-opacity: 0.5"/>
     <use xlink:href="#m200ee4a580" x="136.262254" y="206.953765" style="fill: #ff0000; fill-opacity: 0.5"/>
     <use xlink:href="#m200ee4a580" x="139.955459" y="207.341647" style="fill: #ff0000; fill-opacity: 0.5"/>
     <use xlink:href="#m200ee4a580" x="143.648664" y="206.477004" style="fill: #ff0000; fill-opacity: 0.5"/>
     <use xlink:href="#m200ee4a580" x="147.341869" y="206.851886" style="fill: #ff0000; fill-opacity: 0.5"/>
     <use xlink:href="#m200ee4a580" x="151.035073" y="207.660454" style="fill: #ff0000; fill-opacity: 0.5"/>
     <use xlink:href="#m200ee4a580" x="154.728278" y="208.225804" style="fill: #ff0000; fill-opacity: 0.5"/>
     <use xlink:href="#m200ee4a580" x="158.421483" y="209.005164" style="fill: #ff0000; fill-opacity: 0.5"/>
     <use xlink:href="#m200ee4a580" x="162.114688" y="209.065565" style="fill: #ff0000; fill-opacity: 0.5"/>
     <use xlink:href="#m200ee4a580" x="165.807893" y="209.04195" style="fill: #ff0000; fill-opacity: 0.5"/>
     <use xlink:href="#m200ee4a580" x="169.501097" y="209.250823" style="fill: #ff0000; fill-opacity: 0.5"/>
     <use xlink:href="#m200ee4a580" x="173.194302" y="209.668936" style="fill: #ff0000; fill-opacity: 0.5"/>
     <use xlink:href="#m200ee4a580" x="176.887507" y="209.124222" style="fill: #ff0000; fill-opacity: 0.5"/>
     <use xlink:href="#m200ee4a580" x="180.580712" y="209.101726" style="fill: #ff0000; fill-opacity: 0.5"/>
     <use xlink:href="#m200ee4a580" x="184.273916" y="209.012967" style="fill: #ff0000; fill-opacity: 0.5"/>
     <use xlink:href="#m200ee4a580" x="187.967121" y="209.32325" style="fill: #ff0000; fill-opacity: 0.5"/>
     <use xlink:href="#m200ee4a580" x="191.660326" y="208.723143" style="fill: #ff0000; fill-opacity: 0.5"/>
     <use xlink:href="#m200ee4a580" x="195.353531" y="209.024238" style="fill: #ff0000; fill-opacity: 0.5"/>
     <use xlink:href="#m200ee4a580" x="199.046736" y="208.947169" style="fill: #ff0000; fill-opacity: 0.5"/>
     <use xlink:href="#m200ee4a580" x="202.73994" y="208.874156" style="fill: #ff0000; fill-opacity: 0.5"/>
     <use xlink:href="#m200ee4a580" x="206.433145" y="209.319884" style="fill: #ff0000; fill-opacity: 0.5"/>
     <use xlink:href="#m200ee4a580" x="210.12635" y="209.464368" style="fill: #ff0000; fill-opacity: 0.5"/>
     <use xlink:href="#m200ee4a580" x="213.819555" y="209.765097" style="fill: #ff0000; fill-opacity: 0.5"/>
     <use xlink:href="#m200ee4a580" x="217.512759" y="210.104639" style="fill: #ff0000; fill-opacity: 0.5"/>
     <use xlink:href="#m200ee4a580" x="221.205964" y="210.065097" style="fill: #ff0000; fill-opacity: 0.5"/>
     <use xlink:href="#m200ee4a580" x="224.899169" y="210.17951" style="fill: #ff0000; fill-opacity: 0.5"/>
     <use xlink:href="#m200ee4a580" x="228.592374" y="210.090469" style="fill: #ff0000; fill-opacity: 0.5"/>
     <use xlink:href="#m200ee4a580" x="232.285579" y="209.908272" style="fill: #ff0000; fill-opacity: 0.5"/>
     <use xlink:href="#m200ee4a580" x="235.978783" y="210.113683" style="fill: #ff0000; fill-opacity: 0.5"/>
     <use xlink:href="#m200ee4a580" x="239.671988" y="210.078071" style="fill: #ff0000; fill-opacity: 0.5"/>
     <use xlink:href="#m200ee4a580" x="243.365193" y="210.453808" style="fill: #ff0000; fill-opacity: 0.5"/>
     <use xlink:href="#m200ee4a580" x="247.058398" y="210.368186" style="fill: #ff0000; fill-opacity: 0.5"/>
     <use xlink:href="#m200ee4a580" x="250.751602" y="210.329679" style="fill: #ff0000; fill-opacity: 0.5"/>
     <use xlink:href="#m200ee4a580" x="254.444807" y="210.421402" style="fill: #ff0000; fill-opacity: 0.5"/>
     <use xlink:href="#m200ee4a580" x="258.138012" y="210.593877" style="fill: #ff0000; fill-opacity: 0.5"/>
     <use xlink:href="#m200ee4a580" x="261.831217" y="210.883944" style="fill: #ff0000; fill-opacity: 0.5"/>
     <use xlink:href="#m200ee4a580" x="265.524421" y="210.554832" style="fill: #ff0000; fill-opacity: 0.5"/>
     <use xlink:href="#m200ee4a580" x="269.217626" y="210.596132" style="fill: #ff0000; fill-opacity: 0.5"/>
     <use xlink:href="#m200ee4a580" x="272.910831" y="210.479376" style="fill: #ff0000; fill-opacity: 0.5"/>
     <use xlink:href="#m200ee4a580" x="276.604036" y="210.597507" style="fill: #ff0000; fill-opacity: 0.5"/>
     <use xlink:href="#m200ee4a580" x="280.297241" y="210.787281" style="fill: #ff0000; fill-opacity: 0.5"/>
     <use xlink:href="#m200ee4a580" x="283.990445" y="210.97073" style="fill: #ff0000; fill-opacity: 0.5"/>
     <use xlink:href="#m200ee4a580" x="287.68365" y="211.367671" style="fill: #ff0000; fill-opacity: 0.5"/>
     <use xlink:href="#m200ee4a580" x="291.376855" y="211.60783" style="fill: #ff0000; fill-opacity: 0.5"/>
     <use xlink:href="#m200ee4a580" x="295.07006" y="211.30902" style="fill: #ff0000; fill-opacity: 0.5"/>
     <use xlink:href="#m200ee4a580" x="298.763264" y="211.647198" style="fill: #ff0000; fill-opacity: 0.5"/>
     <use xlink:href="#m200ee4a580" x="302.456469" y="211.803306" style="fill: #ff0000; fill-opacity: 0.5"/>
     <use xlink:href="#m200ee4a580" x="306.149674" y="211.853245" style="fill: #ff0000; fill-opacity: 0.5"/>
     <use xlink:href="#m200ee4a580" x="309.842879" y="211.768461" style="fill: #ff0000; fill-opacity: 0.5"/>
     <use xlink:href="#m200ee4a580" x="313.536084" y="211.554897" style="fill: #ff0000; fill-opacity: 0.5"/>
     <use xlink:href="#m200ee4a580" x="317.229288" y="211.541579" style="fill: #ff0000; fill-opacity: 0.5"/>
     <use xlink:href="#m200ee4a580" x="320.922493" y="211.560523" style="fill: #ff0000; fill-opacity: 0.5"/>
     <use xlink:href="#m200ee4a580" x="324.615698" y="211.610364" style="fill: #ff0000; fill-opacity: 0.5"/>
     <use xlink:href="#m200ee4a580" x="328.308903" y="211.503846" style="fill: #ff0000; fill-opacity: 0.5"/>
     <use xlink:href="#m200ee4a580" x="332.002107" y="211.858804" style="fill: #ff0000; fill-opacity: 0.5"/>
     <use xlink:href="#m200ee4a580" x="335.695312" y="211.751807" style="fill: #ff0000; fill-opacity: 0.5"/>
     <use xlink:href="#m200ee4a580" x="339.388517" y="211.915461" style="fill: #ff0000; fill-opacity: 0.5"/>
     <use xlink:href="#m200ee4a580" x="343.081722" y="211.957353" style="fill: #ff0000; fill-opacity: 0.5"/>
     <use xlink:href="#m200ee4a580" x="346.774927" y="211.940193" style="fill: #ff0000; fill-opacity: 0.5"/>
     <use xlink:href="#m200ee4a580" x="350.468131" y="212.009305" style="fill: #ff0000; fill-opacity: 0.5"/>
     <use xlink:href="#m200ee4a580" x="354.161336" y="211.907175" style="fill: #ff0000; fill-opacity: 0.5"/>
     <use xlink:href="#m200ee4a580" x="357.854541" y="211.779702" style="fill: #ff0000; fill-opacity: 0.5"/>
     <use xlink:href="#m200ee4a580" x="361.547746" y="211.655378" style="fill: #ff0000; fill-opacity: 0.5"/>
     <use xlink:href="#m200ee4a580" x="365.24095" y="211.398009" style="fill: #ff0000; fill-opacity: 0.5"/>
     <use xlink:href="#m200ee4a580" x="368.934155" y="211.496377" style="fill: #ff0000; fill-opacity: 0.5"/>
     <use xlink:href="#m200ee4a580" x="372.62736" y="211.539269" style="fill: #ff0000; fill-opacity: 0.5"/>
     <use xlink:href="#m200ee4a580" x="376.320565" y="211.659915" style="fill: #ff0000; fill-opacity: 0.5"/>
     <use xlink:href="#m200ee4a580" x="380.01377" y="211.492313" style="fill: #ff0000; fill-opacity: 0.5"/>
     <use xlink:href="#m200ee4a580" x="383.706974" y="211.508121" style="fill: #ff0000; fill-opacity: 0.5"/>
     <use xlink:href="#m200ee4a580" x="387.400179" y="211.447491" style="fill: #ff0000; fill-opacity: 0.5"/>
     <use xlink:href="#m200ee4a580" x="391.093384" y="211.538672" style="fill: #ff0000; fill-opacity: 0.5"/>
     <use xlink:href="#m200ee4a580" x="394.786589" y="211.553438" style="fill: #ff0000; fill-opacity: 0.5"/>
     <use xlink:href="#m200ee4a580" x="398.479793" y="211.469786" style="fill: #ff0000; fill-opacity: 0.5"/>
     <use xlink:href="#m200ee4a580" x="402.172998" y="211.387951" style="fill: #ff0000; fill-opacity: 0.5"/>
     <use xlink:href="#m200ee4a580" x="405.866203" y="211.451854" style="fill: #ff0000; fill-opacity: 0.5"/>
     <use xlink:href="#m200ee4a580" x="409.559408" y="211.443175" style="fill: #ff0000; fill-opacity: 0.5"/>
     <use xlink:href="#m200ee4a580" x="413.252612" y="211.528642" style="fill: #ff0000; fill-opacity: 0.5"/>
     <use xlink:href="#m200ee4a580" x="416.945817" y="211.612329" style="fill: #ff0000; fill-opacity: 0.5"/>
     <use xlink:href="#m200ee4a580" x="420.639022" y="211.786317" style="fill: #ff0000; fill-opacity: 0.5"/>
     <use xlink:href="#m200ee4a580" x="424.332227" y="211.683491" style="fill: #ff0000; fill-opacity: 0.5"/>
     <use xlink:href="#m200ee4a580" x="428.025432" y="211.717994" style="fill: #ff0000; fill-opacity: 0.5"/>
     <use xlink:href="#m200ee4a580" x="431.718636" y="211.751807" style="fill: #ff0000; fill-opacity: 0.5"/>
    </g>
   </g>
   <g id="patch_3">
    <path d="M 47.81 303.64 
L 47.81 25.44 
" style="fill: none; stroke: #000000; stroke-width: 0.8; stroke-linejoin: miter; stroke-linecap: square"/>
   </g>
   <g id="patch_4">
    <path d="M 450 303.64 
L 450 25.44 
" style="fill: none; stroke: #000000; stroke-width: 0.8; stroke-linejoin: miter; stroke-linecap: square"/>
   </g>
   <g id="patch_5">
    <path d="M 47.81 303.64 
L 450 303.64 
" style="fill: none; stroke: #000000; stroke-width: 0.8; stroke-linejoin: miter; stroke-linecap: square"/>
   </g>
   <g id="patch_6">
    <path d="M 47.81 25.44 
L 450 25.44 
" style="fill: none; stroke: #000000; stroke-width: 0.8; stroke-linejoin: miter; stroke-linecap: square"/>
   </g>
   <g id="text_15">
    <!-- Average action - 20240426105448 - 100 games -->
    <g transform="translate(104.980938 19.44) scale(0.12 -0.12)">
     <defs>
      <path id="DejaVuSans-2d" d="M 313 2009 
L 1997 2009 
L 1997 1497 
L 313 1497 
L 313 2009 
z
" transform="scale(0.015625)"/>
      <path id="DejaVuSans-35" d="M 691 4666 
L 3169 4666 
L 3169 4134 
L 1269 4134 
L 1269 2991 
Q 1406 3038 1543 3061 
Q 1681 3084 1819 3084 
Q 2600 3084 3056 2656 
Q 3513 2228 3513 1497 
Q 3513 744 3044 326 
Q 2575 -91 1722 -91 
Q 1428 -91 1123 -41 
Q 819 9 494 109 
L 494 744 
Q 775 591 1075 516 
Q 1375 441 1709 441 
Q 2250 441 2565 725 
Q 2881 1009 2881 1497 
Q 2881 1984 2565 2268 
Q 2250 2553 1709 2553 
Q 1456 2553 1204 2497 
Q 953 2441 691 2322 
L 691 4666 
z
" transform="scale(0.015625)"/>
      <path id="DejaVuSans-6d" d="M 3328 2828 
Q 3544 3216 3844 3400 
Q 4144 3584 4550 3584 
Q 5097 3584 5394 3201 
Q 5691 2819 5691 2113 
L 5691 0 
L 5113 0 
L 5113 2094 
Q 5113 2597 4934 2840 
Q 4756 3084 4391 3084 
Q 3944 3084 3684 2787 
Q 3425 2491 3425 1978 
L 3425 0 
L 2847 0 
L 2847 2094 
Q 2847 2600 2669 2842 
Q 2491 3084 2119 3084 
Q 1678 3084 1418 2786 
Q 1159 2488 1159 1978 
L 1159 0 
L 581 0 
L 581 3500 
L 1159 3500 
L 1159 2956 
Q 1356 3278 1631 3431 
Q 1906 3584 2284 3584 
Q 2666 3584 2933 3390 
Q 3200 3197 3328 2828 
z
" transform="scale(0.015625)"/>
      <path id="DejaVuSans-73" d="M 2834 3397 
L 2834 2853 
Q 2591 2978 2328 3040 
Q 2066 3103 1784 3103 
Q 1356 3103 1142 2972 
Q 928 2841 928 2578 
Q 928 2378 1081 2264 
Q 1234 2150 1697 2047 
L 1894 2003 
Q 2506 1872 2764 1633 
Q 3022 1394 3022 966 
Q 3022 478 2636 193 
Q 2250 -91 1575 -91 
Q 1294 -91 989 -36 
Q 684 19 347 128 
L 347 722 
Q 666 556 975 473 
Q 1284 391 1588 391 
Q 1994 391 2212 530 
Q 2431 669 2431 922 
Q 2431 1156 2273 1281 
Q 2116 1406 1581 1522 
L 1381 1569 
Q 847 1681 609 1914 
Q 372 2147 372 2553 
Q 372 3047 722 3315 
Q 1072 3584 1716 3584 
Q 2034 3584 2315 3537 
Q 2597 3491 2834 3397 
z
" transform="scale(0.015625)"/>
     </defs>
     <use xlink:href="#DejaVuSans-41"/>
     <use xlink:href="#DejaVuSans-76" x="62.533203"/>
     <use xlink:href="#DejaVuSans-65" x="121.712891"/>
     <use xlink:href="#DejaVuSans-72" x="183.236328"/>
     <use xlink:href="#DejaVuSans-61" x="224.349609"/>
     <use xlink:href="#DejaVuSans-67" x="285.628906"/>
     <use xlink:href="#DejaVuSans-65" x="349.105469"/>
     <use xlink:href="#DejaVuSans-20" x="410.628906"/>
     <use xlink:href="#DejaVuSans-61" x="442.416016"/>
     <use xlink:href="#DejaVuSans-63" x="503.695312"/>
     <use xlink:href="#DejaVuSans-74" x="558.675781"/>
     <use xlink:href="#DejaVuSans-69" x="597.884766"/>
     <use xlink:href="#DejaVuSans-6f" x="625.667969"/>
     <use xlink:href="#DejaVuSans-6e" x="686.849609"/>
     <use xlink:href="#DejaVuSans-20" x="750.228516"/>
     <use xlink:href="#DejaVuSans-2d" x="782.015625"/>
     <use xlink:href="#DejaVuSans-20" x="818.099609"/>
     <use xlink:href="#DejaVuSans-32" x="849.886719"/>
     <use xlink:href="#DejaVuSans-30" x="913.509766"/>
     <use xlink:href="#DejaVuSans-32" x="977.132812"/>
     <use xlink:href="#DejaVuSans-34" x="1040.755859"/>
     <use xlink:href="#DejaVuSans-30" x="1104.378906"/>
     <use xlink:href="#DejaVuSans-34" x="1168.001953"/>
     <use xlink:href="#DejaVuSans-32" x="1231.625"/>
     <use xlink:href="#DejaVuSans-36" x="1295.248047"/>
     <use xlink:href="#DejaVuSans-31" x="1358.871094"/>
     <use xlink:href="#DejaVuSans-30" x="1422.494141"/>
     <use xlink:href="#DejaVuSans-35" x="1486.117188"/>
     <use xlink:href="#DejaVuSans-34" x="1549.740234"/>
     <use xlink:href="#DejaVuSans-34" x="1613.363281"/>
     <use xlink:href="#DejaVuSans-38" x="1676.986328"/>
     <use xlink:href="#DejaVuSans-20" x="1740.609375"/>
     <use xlink:href="#DejaVuSans-2d" x="1772.396484"/>
     <use xlink:href="#DejaVuSans-20" x="1808.480469"/>
     <use xlink:href="#DejaVuSans-31" x="1840.267578"/>
     <use xlink:href="#DejaVuSans-30" x="1903.890625"/>
     <use xlink:href="#DejaVuSans-30" x="1967.513672"/>
     <use xlink:href="#DejaVuSans-20" x="2031.136719"/>
     <use xlink:href="#DejaVuSans-67" x="2062.923828"/>
     <use xlink:href="#DejaVuSans-61" x="2126.400391"/>
     <use xlink:href="#DejaVuSans-6d" x="2187.679688"/>
     <use xlink:href="#DejaVuSans-65" x="2285.091797"/>
     <use xlink:href="#DejaVuSans-73" x="2346.615234"/>
    </g>
   </g>
   <g id="legend_1">
    <g id="patch_7">
     <path d="M 337.289062 92.1525 
L 443 92.1525 
Q 445 92.1525 445 90.1525 
L 445 32.44 
Q 445 30.44 443 30.44 
L 337.289062 30.44 
Q 335.289062 30.44 335.289062 32.44 
L 335.289062 90.1525 
Q 335.289062 92.1525 337.289062 92.1525 
z
" style="fill: #ffffff; opacity: 0.8; stroke: #cccccc; stroke-linejoin: miter"/>
    </g>
    <g id="line2d_20">
     <path d="M 339.289062 38.538438 
L 349.289062 38.538438 
L 359.289062 38.538438 
" style="fill: none; stroke: #0000ff; stroke-linecap: square"/>
     <g>
      <use xlink:href="#mb43f7a8f25" x="349.289062" y="38.538438" style="fill: #0000ff"/>
     </g>
    </g>
    <g id="text_16">
     <!-- LLM -->
     <g transform="translate(367.289062 42.038438) scale(0.1 -0.1)">
      <defs>
       <path id="DejaVuSans-4c" d="M 628 4666 
L 1259 4666 
L 1259 531 
L 3531 531 
L 3531 0 
L 628 0 
L 628 4666 
z
" transform="scale(0.015625)"/>
       <path id="DejaVuSans-4d" d="M 628 4666 
L 1569 4666 
L 2759 1491 
L 3956 4666 
L 4897 4666 
L 4897 0 
L 4281 0 
L 4281 4097 
L 3078 897 
L 2444 897 
L 1241 4097 
L 1241 0 
L 628 0 
L 628 4666 
z
" transform="scale(0.015625)"/>
      </defs>
      <use xlink:href="#DejaVuSans-4c"/>
      <use xlink:href="#DejaVuSans-4c" x="55.712891"/>
      <use xlink:href="#DejaVuSans-4d" x="111.425781"/>
     </g>
    </g>
    <g id="line2d_21">
     <path d="M 339.289062 53.216563 
L 349.289062 53.216563 
L 359.289062 53.216563 
" style="fill: none; stroke: #0000ff; stroke-opacity: 0.5; stroke-width: 0.5; stroke-linecap: square"/>
     <g>
      <use xlink:href="#m7dffc7491a" x="349.289062" y="53.216563" style="fill: #0000ff; fill-opacity: 0.5"/>
     </g>
    </g>
    <g id="text_17">
     <!-- LLM mean -->
     <g transform="translate(367.289062 56.716563) scale(0.1 -0.1)">
      <use xlink:href="#DejaVuSans-4c"/>
      <use xlink:href="#DejaVuSans-4c" x="55.712891"/>
      <use xlink:href="#DejaVuSans-4d" x="111.425781"/>
      <use xlink:href="#DejaVuSans-20" x="197.705078"/>
      <use xlink:href="#DejaVuSans-6d" x="229.492188"/>
      <use xlink:href="#DejaVuSans-65" x="326.904297"/>
      <use xlink:href="#DejaVuSans-61" x="388.427734"/>
      <use xlink:href="#DejaVuSans-6e" x="449.707031"/>
     </g>
    </g>
    <g id="line2d_22">
     <path d="M 339.289062 67.894688 
L 349.289062 67.894688 
L 359.289062 67.894688 
" style="fill: none; stroke: #ff0000; stroke-width: 0.5; stroke-linecap: square"/>
     <g>
      <use xlink:href="#md280fc610a" x="349.289062" y="67.894688" style="fill: #ff0000"/>
     </g>
    </g>
    <g id="text_18">
     <!-- URND03 -->
     <g transform="translate(367.289062 71.394688) scale(0.1 -0.1)">
      <defs>
       <path id="DejaVuSans-55" d="M 556 4666 
L 1191 4666 
L 1191 1831 
Q 1191 1081 1462 751 
Q 1734 422 2344 422 
Q 2950 422 3222 751 
Q 3494 1081 3494 1831 
L 3494 4666 
L 4128 4666 
L 4128 1753 
Q 4128 841 3676 375 
Q 3225 -91 2344 -91 
Q 1459 -91 1007 375 
Q 556 841 556 1753 
L 556 4666 
z
" transform="scale(0.015625)"/>
       <path id="DejaVuSans-52" d="M 2841 2188 
Q 3044 2119 3236 1894 
Q 3428 1669 3622 1275 
L 4263 0 
L 3584 0 
L 2988 1197 
Q 2756 1666 2539 1819 
Q 2322 1972 1947 1972 
L 1259 1972 
L 1259 0 
L 628 0 
L 628 4666 
L 2053 4666 
Q 2853 4666 3247 4331 
Q 3641 3997 3641 3322 
Q 3641 2881 3436 2590 
Q 3231 2300 2841 2188 
z
M 1259 4147 
L 1259 2491 
L 2053 2491 
Q 2509 2491 2742 2702 
Q 2975 2913 2975 3322 
Q 2975 3731 2742 3939 
Q 2509 4147 2053 4147 
L 1259 4147 
z
" transform="scale(0.015625)"/>
       <path id="DejaVuSans-4e" d="M 628 4666 
L 1478 4666 
L 3547 763 
L 3547 4666 
L 4159 4666 
L 4159 0 
L 3309 0 
L 1241 3903 
L 1241 0 
L 628 0 
L 628 4666 
z
" transform="scale(0.015625)"/>
       <path id="DejaVuSans-44" d="M 1259 4147 
L 1259 519 
L 2022 519 
Q 2988 519 3436 956 
Q 3884 1394 3884 2338 
Q 3884 3275 3436 3711 
Q 2988 4147 2022 4147 
L 1259 4147 
z
M 628 4666 
L 1925 4666 
Q 3281 4666 3915 4102 
Q 4550 3538 4550 2338 
Q 4550 1131 3912 565 
Q 3275 0 1925 0 
L 628 0 
L 628 4666 
z
" transform="scale(0.015625)"/>
       <path id="DejaVuSans-33" d="M 2597 2516 
Q 3050 2419 3304 2112 
Q 3559 1806 3559 1356 
Q 3559 666 3084 287 
Q 2609 -91 1734 -91 
Q 1441 -91 1130 -33 
Q 819 25 488 141 
L 488 750 
Q 750 597 1062 519 
Q 1375 441 1716 441 
Q 2309 441 2620 675 
Q 2931 909 2931 1356 
Q 2931 1769 2642 2001 
Q 2353 2234 1838 2234 
L 1294 2234 
L 1294 2753 
L 1863 2753 
Q 2328 2753 2575 2939 
Q 2822 3125 2822 3475 
Q 2822 3834 2567 4026 
Q 2313 4219 1838 4219 
Q 1578 4219 1281 4162 
Q 984 4106 628 3988 
L 628 4550 
Q 988 4650 1302 4700 
Q 1616 4750 1894 4750 
Q 2613 4750 3031 4423 
Q 3450 4097 3450 3541 
Q 3450 3153 3228 2886 
Q 3006 2619 2597 2516 
z
" transform="scale(0.015625)"/>
      </defs>
      <use xlink:href="#DejaVuSans-55"/>
      <use xlink:href="#DejaVuSans-52" x="73.193359"/>
      <use xlink:href="#DejaVuSans-4e" x="142.675781"/>
      <use xlink:href="#DejaVuSans-44" x="217.480469"/>
      <use xlink:href="#DejaVuSans-30" x="294.482422"/>
      <use xlink:href="#DejaVuSans-33" x="358.105469"/>
     </g>
    </g>
    <g id="line2d_23">
     <path d="M 339.289062 82.572813 
L 349.289062 82.572813 
L 359.289062 82.572813 
" style="fill: none; stroke: #ff0000; stroke-opacity: 0.5; stroke-width: 0.25; stroke-linecap: square"/>
     <g>
      <use xlink:href="#m200ee4a580" x="349.289062" y="82.572813" style="fill: #ff0000; fill-opacity: 0.5"/>
     </g>
    </g>
    <g id="text_19">
     <!-- URND03 mean -->
     <g transform="translate(367.289062 86.072813) scale(0.1 -0.1)">
      <use xlink:href="#DejaVuSans-55"/>
      <use xlink:href="#DejaVuSans-52" x="73.193359"/>
      <use xlink:href="#DejaVuSans-4e" x="142.675781"/>
      <use xlink:href="#DejaVuSans-44" x="217.480469"/>
      <use xlink:href="#DejaVuSans-30" x="294.482422"/>
      <use xlink:href="#DejaVuSans-33" x="358.105469"/>
      <use xlink:href="#DejaVuSans-20" x="421.728516"/>
      <use xlink:href="#DejaVuSans-6d" x="453.515625"/>
      <use xlink:href="#DejaVuSans-65" x="550.927734"/>
      <use xlink:href="#DejaVuSans-61" x="612.451172"/>
      <use xlink:href="#DejaVuSans-6e" x="673.730469"/>
     </g>
    </g>
   </g>
  </g>
 </g>
 <defs>
  <clipPath id="pe4ac4c0d62">
   <rect x="47.81" y="25.44" width="402.19" height="278.2"/>
  </clipPath>
 </defs>
</svg>
