<?xml version="1.0" encoding="utf-8" standalone="no"?>
<!DOCTYPE svg PUBLIC "-//W3C//DTD SVG 1.1//EN"
  "http://www.w3.org/Graphics/SVG/1.1/DTD/svg11.dtd">
<svg xmlns:xlink="http://www.w3.org/1999/xlink" width="460.8pt" height="345.6pt" viewBox="0 0 460.8 345.6" xmlns="http://www.w3.org/2000/svg" version="1.1">
 <metadata>
  <rdf:RDF xmlns:dc="http://purl.org/dc/elements/1.1/" xmlns:cc="http://creativecommons.org/ns#" xmlns:rdf="http://www.w3.org/1999/02/22-rdf-syntax-ns#">
   <cc:Work>
    <dc:type rdf:resource="http://purl.org/dc/dcmitype/StillImage"/>
    <dc:date>2024-04-10T11:52:51.575182</dc:date>
    <dc:format>image/svg+xml</dc:format>
    <dc:creator>
     <cc:Agent>
      <dc:title>Matplotlib v3.8.0, https://matplotlib.org/</dc:title>
     </cc:Agent>
    </dc:creator>
   </cc:Work>
  </rdf:RDF>
 </metadata>
 <defs>
  <style type="text/css">*{stroke-linejoin: round; stroke-linecap: butt}</style>
 </defs>
 <g id="figure_1">
  <g id="patch_1">
   <path d="M 0 345.6 
L 460.8 345.6 
L 460.8 0 
L 0 0 
z
" style="fill: #ffffff"/>
  </g>
  <g id="axes_1">
   <g id="patch_2">
    <path d="M 47.81 303.64 
L 450 303.64 
L 450 25.44 
L 47.81 25.44 
z
" style="fill: #ffffff"/>
   </g>
   <g id="PolyCollection_1">
    <defs>
     <path id="m6fb7b4b6ad" d="M 66.091364 -169.950539 
L 66.091364 -169.950539 
L 69.822254 -218.736091 
L 73.553145 -254.765378 
L 77.284035 -273.147145 
L 81.014926 -284.790136 
L 84.745816 -290.781871 
L 88.476707 -296.862597 
L 92.207597 -301.863381 
L 95.938488 -304.731898 
L 99.669378 -305.910229 
L 103.400269 -306.70644 
L 107.13116 -307.244199 
L 110.86205 -307.059443 
L 114.592941 -307.33735 
L 118.323831 -307.514545 
L 122.054722 -307.000272 
L 125.785612 -306.341452 
L 129.516503 -305.433946 
L 133.247393 -304.251095 
L 136.978284 -303.502422 
L 140.709174 -302.808769 
L 144.440065 -301.861515 
L 148.170955 -300.668922 
L 151.901846 -299.465426 
L 155.632737 -298.653444 
L 159.363627 -297.764237 
L 163.094518 -296.769593 
L 166.825408 -295.790089 
L 170.556299 -294.859136 
L 174.287189 -293.974582 
L 178.01808 -293.157769 
L 181.74897 -292.372878 
L 185.479861 -291.641245 
L 189.210751 -290.923988 
L 192.941642 -290.518774 
L 196.672532 -290.338523 
L 200.403423 -289.917936 
L 204.134314 -289.338124 
L 207.865204 -289.305521 
L 211.596095 -289.522166 
L 215.326985 -289.371921 
L 219.057876 -289.297105 
L 222.788766 -289.676846 
L 226.519657 -290.371708 
L 230.250547 -290.868176 
L 233.981438 -290.975025 
L 237.712328 -290.730898 
L 241.443219 -290.39293 
L 245.174109 -290.029471 
L 248.905 -289.587359 
L 252.635891 -289.127547 
L 256.366781 -288.552883 
L 260.097672 -287.840894 
L 263.828562 -287.137921 
L 267.559453 -286.361461 
L 271.290343 -285.523366 
L 275.021234 -284.568327 
L 278.752124 -283.522898 
L 282.483015 -282.484023 
L 286.213905 -281.451157 
L 289.944796 -280.349256 
L 293.675686 -279.156524 
L 297.406577 -277.984007 
L 301.137468 -276.830591 
L 304.868358 -275.676568 
L 308.599249 -274.505849 
L 312.330139 -273.294312 
L 316.06103 -272.0916 
L 319.79192 -270.910943 
L 323.522811 -269.724784 
L 327.253701 -268.535699 
L 330.984592 -267.345897 
L 334.715482 -266.132655 
L 338.446373 -264.921214 
L 342.177263 -263.737488 
L 345.908154 -262.560266 
L 349.639045 -261.39046 
L 353.369935 -260.234403 
L 357.100826 -259.085992 
L 360.831716 -257.945898 
L 364.562607 -256.807794 
L 368.293497 -255.680987 
L 372.024388 -254.570809 
L 375.755278 -253.468159 
L 379.486169 -252.376617 
L 383.217059 -251.296341 
L 386.94795 -250.226833 
L 390.67884 -249.169447 
L 394.409731 -248.124181 
L 398.140622 -247.090429 
L 401.871512 -246.068196 
L 405.602403 -245.057466 
L 409.333293 -244.059312 
L 413.064184 -243.073045 
L 416.795074 -242.098565 
L 420.525965 -241.141168 
L 424.256855 -240.196027 
L 427.987746 -239.254846 
L 431.718636 -238.324574 
L 431.718636 -54.605455 
L 431.718636 -54.605455 
L 427.987746 -55.379184 
L 424.256855 -56.177139 
L 420.525965 -56.85878 
L 416.795074 -57.562413 
L 413.064184 -58.38547 
L 409.333293 -59.235395 
L 405.602403 -60.11335 
L 401.871512 -61.072214 
L 398.140622 -62.063343 
L 394.409731 -63.088196 
L 390.67884 -64.148322 
L 386.94795 -65.190076 
L 383.217059 -66.268525 
L 379.486169 -67.442685 
L 375.755278 -68.659255 
L 372.024388 -69.920335 
L 368.293497 -71.289523 
L 364.562607 -72.5859 
L 360.831716 -73.93156 
L 357.100826 -75.458483 
L 353.369935 -77.045474 
L 349.639045 -78.695868 
L 345.908154 -80.343805 
L 342.177263 -82.059466 
L 338.446373 -83.846808 
L 334.715482 -85.492435 
L 330.984592 -87.281663 
L 327.253701 -89.37981 
L 323.522811 -91.572617 
L 319.79192 -93.866374 
L 316.06103 -96.267985 
L 312.330139 -98.612542 
L 308.599249 -100.983725 
L 304.868358 -103.652263 
L 301.137468 -106.457474 
L 297.406577 -109.313509 
L 293.675686 -112.126403 
L 289.944796 -114.893857 
L 286.213905 -118.121885 
L 282.483015 -121.646316 
L 278.752124 -125.157928 
L 275.021234 -128.65582 
L 271.290343 -132.491268 
L 267.559453 -136.704311 
L 263.828562 -141.078017 
L 260.097672 -145.629844 
L 256.366781 -150.100451 
L 252.635891 -154.911621 
L 248.905 -159.957983 
L 245.174109 -164.955679 
L 241.443219 -170.060574 
L 237.712328 -175.120161 
L 233.981438 -180.301538 
L 230.250547 -186.180684 
L 226.519657 -192.711827 
L 222.788766 -199.390322 
L 219.057876 -205.132965 
L 215.326985 -209.638934 
L 211.596095 -213.823038 
L 207.865204 -218.718224 
L 204.134314 -222.859652 
L 200.403423 -225.39443 
L 196.672532 -228.393543 
L 192.941642 -231.964251 
L 189.210751 -234.831416 
L 185.479861 -236.576283 
L 181.74897 -238.312071 
L 178.01808 -239.847032 
L 174.287189 -240.078307 
L 170.556299 -240.478078 
L 166.825408 -241.772249 
L 163.094518 -242.478287 
L 159.363627 -242.933093 
L 155.632737 -242.848534 
L 151.901846 -242.512026 
L 148.170955 -243.272444 
L 144.440065 -243.573928 
L 140.709174 -243.130964 
L 136.978284 -242.278821 
L 133.247393 -241.354973 
L 129.516503 -240.76994 
L 125.785612 -239.691512 
L 122.054722 -238.246062 
L 118.323831 -236.523293 
L 114.592941 -234.300478 
L 110.86205 -231.809141 
L 107.13116 -229.186058 
L 103.400269 -225.97766 
L 99.669378 -222.278482 
L 95.938488 -217.962449 
L 92.207597 -212.774326 
L 88.476707 -206.737326 
L 84.745816 -199.685918 
L 81.014926 -191.096455 
L 77.284035 -180.867651 
L 73.553145 -169.136076 
L 69.822254 -161.580262 
L 66.091364 -169.950539 
z
" style="stroke: #ff0000; stroke-opacity: 0.2"/>
    </defs>
    <g clip-path="url(#pea24502d0c)">
     <use xlink:href="#m6fb7b4b6ad" x="0" y="345.6" style="fill: #ff0000; fill-opacity: 0.2; stroke: #ff0000; stroke-opacity: 0.2"/>
    </g>
   </g>
   <g id="matplotlib.axis_1">
    <g id="xtick_1">
     <g id="line2d_1">
      <defs>
       <path id="m8d175c85ac" d="M 0 0 
L 0 3.5 
" style="stroke: #000000; stroke-width: 0.8"/>
      </defs>
      <g>
       <use xlink:href="#m8d175c85ac" x="66.091364" y="303.64" style="stroke: #000000; stroke-width: 0.8"/>
      </g>
     </g>
     <g id="text_1">
      <!-- 0 -->
      <g transform="translate(62.910114 318.238437) scale(0.1 -0.1)">
       <defs>
        <path id="DejaVuSans-30" d="M 2034 4250 
Q 1547 4250 1301 3770 
Q 1056 3291 1056 2328 
Q 1056 1369 1301 889 
Q 1547 409 2034 409 
Q 2525 409 2770 889 
Q 3016 1369 3016 2328 
Q 3016 3291 2770 3770 
Q 2525 4250 2034 4250 
z
M 2034 4750 
Q 2819 4750 3233 4129 
Q 3647 3509 3647 2328 
Q 3647 1150 3233 529 
Q 2819 -91 2034 -91 
Q 1250 -91 836 529 
Q 422 1150 422 2328 
Q 422 3509 836 4129 
Q 1250 4750 2034 4750 
z
" transform="scale(0.015625)"/>
       </defs>
       <use xlink:href="#DejaVuSans-30"/>
      </g>
     </g>
    </g>
    <g id="xtick_2">
     <g id="line2d_2">
      <g>
       <use xlink:href="#m8d175c85ac" x="140.709174" y="303.64" style="stroke: #000000; stroke-width: 0.8"/>
      </g>
     </g>
     <g id="text_2">
      <!-- 20 -->
      <g transform="translate(134.346674 318.238437) scale(0.1 -0.1)">
       <defs>
        <path id="DejaVuSans-32" d="M 1228 531 
L 3431 531 
L 3431 0 
L 469 0 
L 469 531 
Q 828 903 1448 1529 
Q 2069 2156 2228 2338 
Q 2531 2678 2651 2914 
Q 2772 3150 2772 3378 
Q 2772 3750 2511 3984 
Q 2250 4219 1831 4219 
Q 1534 4219 1204 4116 
Q 875 4013 500 3803 
L 500 4441 
Q 881 4594 1212 4672 
Q 1544 4750 1819 4750 
Q 2544 4750 2975 4387 
Q 3406 4025 3406 3419 
Q 3406 3131 3298 2873 
Q 3191 2616 2906 2266 
Q 2828 2175 2409 1742 
Q 1991 1309 1228 531 
z
" transform="scale(0.015625)"/>
       </defs>
       <use xlink:href="#DejaVuSans-32"/>
       <use xlink:href="#DejaVuSans-30" x="63.623047"/>
      </g>
     </g>
    </g>
    <g id="xtick_3">
     <g id="line2d_3">
      <g>
       <use xlink:href="#m8d175c85ac" x="215.326985" y="303.64" style="stroke: #000000; stroke-width: 0.8"/>
      </g>
     </g>
     <g id="text_3">
      <!-- 40 -->
      <g transform="translate(208.964485 318.238437) scale(0.1 -0.1)">
       <defs>
        <path id="DejaVuSans-34" d="M 2419 4116 
L 825 1625 
L 2419 1625 
L 2419 4116 
z
M 2253 4666 
L 3047 4666 
L 3047 1625 
L 3713 1625 
L 3713 1100 
L 3047 1100 
L 3047 0 
L 2419 0 
L 2419 1100 
L 313 1100 
L 313 1709 
L 2253 4666 
z
" transform="scale(0.015625)"/>
       </defs>
       <use xlink:href="#DejaVuSans-34"/>
       <use xlink:href="#DejaVuSans-30" x="63.623047"/>
      </g>
     </g>
    </g>
    <g id="xtick_4">
     <g id="line2d_4">
      <g>
       <use xlink:href="#m8d175c85ac" x="289.944796" y="303.64" style="stroke: #000000; stroke-width: 0.8"/>
      </g>
     </g>
     <g id="text_4">
      <!-- 60 -->
      <g transform="translate(283.582296 318.238437) scale(0.1 -0.1)">
       <defs>
        <path id="DejaVuSans-36" d="M 2113 2584 
Q 1688 2584 1439 2293 
Q 1191 2003 1191 1497 
Q 1191 994 1439 701 
Q 1688 409 2113 409 
Q 2538 409 2786 701 
Q 3034 994 3034 1497 
Q 3034 2003 2786 2293 
Q 2538 2584 2113 2584 
z
M 3366 4563 
L 3366 3988 
Q 3128 4100 2886 4159 
Q 2644 4219 2406 4219 
Q 1781 4219 1451 3797 
Q 1122 3375 1075 2522 
Q 1259 2794 1537 2939 
Q 1816 3084 2150 3084 
Q 2853 3084 3261 2657 
Q 3669 2231 3669 1497 
Q 3669 778 3244 343 
Q 2819 -91 2113 -91 
Q 1303 -91 875 529 
Q 447 1150 447 2328 
Q 447 3434 972 4092 
Q 1497 4750 2381 4750 
Q 2619 4750 2861 4703 
Q 3103 4656 3366 4563 
z
" transform="scale(0.015625)"/>
       </defs>
       <use xlink:href="#DejaVuSans-36"/>
       <use xlink:href="#DejaVuSans-30" x="63.623047"/>
      </g>
     </g>
    </g>
    <g id="xtick_5">
     <g id="line2d_5">
      <g>
       <use xlink:href="#m8d175c85ac" x="364.562607" y="303.64" style="stroke: #000000; stroke-width: 0.8"/>
      </g>
     </g>
     <g id="text_5">
      <!-- 80 -->
      <g transform="translate(358.200107 318.238437) scale(0.1 -0.1)">
       <defs>
        <path id="DejaVuSans-38" d="M 2034 2216 
Q 1584 2216 1326 1975 
Q 1069 1734 1069 1313 
Q 1069 891 1326 650 
Q 1584 409 2034 409 
Q 2484 409 2743 651 
Q 3003 894 3003 1313 
Q 3003 1734 2745 1975 
Q 2488 2216 2034 2216 
z
M 1403 2484 
Q 997 2584 770 2862 
Q 544 3141 544 3541 
Q 544 4100 942 4425 
Q 1341 4750 2034 4750 
Q 2731 4750 3128 4425 
Q 3525 4100 3525 3541 
Q 3525 3141 3298 2862 
Q 3072 2584 2669 2484 
Q 3125 2378 3379 2068 
Q 3634 1759 3634 1313 
Q 3634 634 3220 271 
Q 2806 -91 2034 -91 
Q 1263 -91 848 271 
Q 434 634 434 1313 
Q 434 1759 690 2068 
Q 947 2378 1403 2484 
z
M 1172 3481 
Q 1172 3119 1398 2916 
Q 1625 2713 2034 2713 
Q 2441 2713 2670 2916 
Q 2900 3119 2900 3481 
Q 2900 3844 2670 4047 
Q 2441 4250 2034 4250 
Q 1625 4250 1398 4047 
Q 1172 3844 1172 3481 
z
" transform="scale(0.015625)"/>
       </defs>
       <use xlink:href="#DejaVuSans-38"/>
       <use xlink:href="#DejaVuSans-30" x="63.623047"/>
      </g>
     </g>
    </g>
    <g id="xtick_6">
     <g id="line2d_6">
      <g>
       <use xlink:href="#m8d175c85ac" x="439.180417" y="303.64" style="stroke: #000000; stroke-width: 0.8"/>
      </g>
     </g>
     <g id="text_6">
      <!-- 100 -->
      <g transform="translate(429.636667 318.238437) scale(0.1 -0.1)">
       <defs>
        <path id="DejaVuSans-31" d="M 794 531 
L 1825 531 
L 1825 4091 
L 703 3866 
L 703 4441 
L 1819 4666 
L 2450 4666 
L 2450 531 
L 3481 531 
L 3481 0 
L 794 0 
L 794 531 
z
" transform="scale(0.015625)"/>
       </defs>
       <use xlink:href="#DejaVuSans-31"/>
       <use xlink:href="#DejaVuSans-30" x="63.623047"/>
       <use xlink:href="#DejaVuSans-30" x="127.246094"/>
      </g>
     </g>
    </g>
    <g id="text_7">
     <!-- Iteration -->
     <g transform="translate(227.696406 331.916562) scale(0.1 -0.1)">
      <defs>
       <path id="DejaVuSans-49" d="M 628 4666 
L 1259 4666 
L 1259 0 
L 628 0 
L 628 4666 
z
" transform="scale(0.015625)"/>
       <path id="DejaVuSans-74" d="M 1172 4494 
L 1172 3500 
L 2356 3500 
L 2356 3053 
L 1172 3053 
L 1172 1153 
Q 1172 725 1289 603 
Q 1406 481 1766 481 
L 2356 481 
L 2356 0 
L 1766 0 
Q 1100 0 847 248 
Q 594 497 594 1153 
L 594 3053 
L 172 3053 
L 172 3500 
L 594 3500 
L 594 4494 
L 1172 4494 
z
" transform="scale(0.015625)"/>
       <path id="DejaVuSans-65" d="M 3597 1894 
L 3597 1613 
L 953 1613 
Q 991 1019 1311 708 
Q 1631 397 2203 397 
Q 2534 397 2845 478 
Q 3156 559 3463 722 
L 3463 178 
Q 3153 47 2828 -22 
Q 2503 -91 2169 -91 
Q 1331 -91 842 396 
Q 353 884 353 1716 
Q 353 2575 817 3079 
Q 1281 3584 2069 3584 
Q 2775 3584 3186 3129 
Q 3597 2675 3597 1894 
z
M 3022 2063 
Q 3016 2534 2758 2815 
Q 2500 3097 2075 3097 
Q 1594 3097 1305 2825 
Q 1016 2553 972 2059 
L 3022 2063 
z
" transform="scale(0.015625)"/>
       <path id="DejaVuSans-72" d="M 2631 2963 
Q 2534 3019 2420 3045 
Q 2306 3072 2169 3072 
Q 1681 3072 1420 2755 
Q 1159 2438 1159 1844 
L 1159 0 
L 581 0 
L 581 3500 
L 1159 3500 
L 1159 2956 
Q 1341 3275 1631 3429 
Q 1922 3584 2338 3584 
Q 2397 3584 2469 3576 
Q 2541 3569 2628 3553 
L 2631 2963 
z
" transform="scale(0.015625)"/>
       <path id="DejaVuSans-61" d="M 2194 1759 
Q 1497 1759 1228 1600 
Q 959 1441 959 1056 
Q 959 750 1161 570 
Q 1363 391 1709 391 
Q 2188 391 2477 730 
Q 2766 1069 2766 1631 
L 2766 1759 
L 2194 1759 
z
M 3341 1997 
L 3341 0 
L 2766 0 
L 2766 531 
Q 2569 213 2275 61 
Q 1981 -91 1556 -91 
Q 1019 -91 701 211 
Q 384 513 384 1019 
Q 384 1609 779 1909 
Q 1175 2209 1959 2209 
L 2766 2209 
L 2766 2266 
Q 2766 2663 2505 2880 
Q 2244 3097 1772 3097 
Q 1472 3097 1187 3025 
Q 903 2953 641 2809 
L 641 3341 
Q 956 3463 1253 3523 
Q 1550 3584 1831 3584 
Q 2591 3584 2966 3190 
Q 3341 2797 3341 1997 
z
" transform="scale(0.015625)"/>
       <path id="DejaVuSans-69" d="M 603 3500 
L 1178 3500 
L 1178 0 
L 603 0 
L 603 3500 
z
M 603 4863 
L 1178 4863 
L 1178 4134 
L 603 4134 
L 603 4863 
z
" transform="scale(0.015625)"/>
       <path id="DejaVuSans-6f" d="M 1959 3097 
Q 1497 3097 1228 2736 
Q 959 2375 959 1747 
Q 959 1119 1226 758 
Q 1494 397 1959 397 
Q 2419 397 2687 759 
Q 2956 1122 2956 1747 
Q 2956 2369 2687 2733 
Q 2419 3097 1959 3097 
z
M 1959 3584 
Q 2709 3584 3137 3096 
Q 3566 2609 3566 1747 
Q 3566 888 3137 398 
Q 2709 -91 1959 -91 
Q 1206 -91 779 398 
Q 353 888 353 1747 
Q 353 2609 779 3096 
Q 1206 3584 1959 3584 
z
" transform="scale(0.015625)"/>
       <path id="DejaVuSans-6e" d="M 3513 2113 
L 3513 0 
L 2938 0 
L 2938 2094 
Q 2938 2591 2744 2837 
Q 2550 3084 2163 3084 
Q 1697 3084 1428 2787 
Q 1159 2491 1159 1978 
L 1159 0 
L 581 0 
L 581 3500 
L 1159 3500 
L 1159 2956 
Q 1366 3272 1645 3428 
Q 1925 3584 2291 3584 
Q 2894 3584 3203 3211 
Q 3513 2838 3513 2113 
z
" transform="scale(0.015625)"/>
      </defs>
      <use xlink:href="#DejaVuSans-49"/>
      <use xlink:href="#DejaVuSans-74" x="29.492188"/>
      <use xlink:href="#DejaVuSans-65" x="68.701172"/>
      <use xlink:href="#DejaVuSans-72" x="130.224609"/>
      <use xlink:href="#DejaVuSans-61" x="171.337891"/>
      <use xlink:href="#DejaVuSans-74" x="232.617188"/>
      <use xlink:href="#DejaVuSans-69" x="271.826172"/>
      <use xlink:href="#DejaVuSans-6f" x="299.609375"/>
      <use xlink:href="#DejaVuSans-6e" x="360.791016"/>
     </g>
    </g>
   </g>
   <g id="matplotlib.axis_2">
    <g id="ytick_1">
     <g id="line2d_7">
      <defs>
       <path id="m51dc70ee46" d="M 0 0 
L -3.5 0 
" style="stroke: #000000; stroke-width: 0.8"/>
      </defs>
      <g>
       <use xlink:href="#m51dc70ee46" x="47.81" y="285.008439" style="stroke: #000000; stroke-width: 0.8"/>
      </g>
     </g>
     <g id="text_8">
      <!-- 0.0 -->
      <g transform="translate(24.906875 288.807658) scale(0.1 -0.1)">
       <defs>
        <path id="DejaVuSans-2e" d="M 684 794 
L 1344 794 
L 1344 0 
L 684 0 
L 684 794 
z
" transform="scale(0.015625)"/>
       </defs>
       <use xlink:href="#DejaVuSans-30"/>
       <use xlink:href="#DejaVuSans-2e" x="63.623047"/>
       <use xlink:href="#DejaVuSans-30" x="95.410156"/>
      </g>
     </g>
    </g>
    <g id="ytick_2">
     <g id="line2d_8">
      <g>
       <use xlink:href="#m51dc70ee46" x="47.81" y="237.461057" style="stroke: #000000; stroke-width: 0.8"/>
      </g>
     </g>
     <g id="text_9">
      <!-- 0.2 -->
      <g transform="translate(24.906875 241.260276) scale(0.1 -0.1)">
       <use xlink:href="#DejaVuSans-30"/>
       <use xlink:href="#DejaVuSans-2e" x="63.623047"/>
       <use xlink:href="#DejaVuSans-32" x="95.410156"/>
      </g>
     </g>
    </g>
    <g id="ytick_3">
     <g id="line2d_9">
      <g>
       <use xlink:href="#m51dc70ee46" x="47.81" y="189.913675" style="stroke: #000000; stroke-width: 0.8"/>
      </g>
     </g>
     <g id="text_10">
      <!-- 0.4 -->
      <g transform="translate(24.906875 193.712894) scale(0.1 -0.1)">
       <use xlink:href="#DejaVuSans-30"/>
       <use xlink:href="#DejaVuSans-2e" x="63.623047"/>
       <use xlink:href="#DejaVuSans-34" x="95.410156"/>
      </g>
     </g>
    </g>
    <g id="ytick_4">
     <g id="line2d_10">
      <g>
       <use xlink:href="#m51dc70ee46" x="47.81" y="142.366293" style="stroke: #000000; stroke-width: 0.8"/>
      </g>
     </g>
     <g id="text_11">
      <!-- 0.6 -->
      <g transform="translate(24.906875 146.165512) scale(0.1 -0.1)">
       <use xlink:href="#DejaVuSans-30"/>
       <use xlink:href="#DejaVuSans-2e" x="63.623047"/>
       <use xlink:href="#DejaVuSans-36" x="95.410156"/>
      </g>
     </g>
    </g>
    <g id="ytick_5">
     <g id="line2d_11">
      <g>
       <use xlink:href="#m51dc70ee46" x="47.81" y="94.818911" style="stroke: #000000; stroke-width: 0.8"/>
      </g>
     </g>
     <g id="text_12">
      <!-- 0.8 -->
      <g transform="translate(24.906875 98.61813) scale(0.1 -0.1)">
       <use xlink:href="#DejaVuSans-30"/>
       <use xlink:href="#DejaVuSans-2e" x="63.623047"/>
       <use xlink:href="#DejaVuSans-38" x="95.410156"/>
      </g>
     </g>
    </g>
    <g id="ytick_6">
     <g id="line2d_12">
      <g>
       <use xlink:href="#m51dc70ee46" x="47.81" y="47.271529" style="stroke: #000000; stroke-width: 0.8"/>
      </g>
     </g>
     <g id="text_13">
      <!-- 1.0 -->
      <g transform="translate(24.906875 51.070748) scale(0.1 -0.1)">
       <use xlink:href="#DejaVuSans-31"/>
       <use xlink:href="#DejaVuSans-2e" x="63.623047"/>
       <use xlink:href="#DejaVuSans-30" x="95.410156"/>
      </g>
     </g>
    </g>
    <g id="text_14">
     <!-- Similarity -->
     <g transform="translate(18.827187 188.179844) rotate(-90) scale(0.1 -0.1)">
      <defs>
       <path id="DejaVuSans-53" d="M 3425 4513 
L 3425 3897 
Q 3066 4069 2747 4153 
Q 2428 4238 2131 4238 
Q 1616 4238 1336 4038 
Q 1056 3838 1056 3469 
Q 1056 3159 1242 3001 
Q 1428 2844 1947 2747 
L 2328 2669 
Q 3034 2534 3370 2195 
Q 3706 1856 3706 1288 
Q 3706 609 3251 259 
Q 2797 -91 1919 -91 
Q 1588 -91 1214 -16 
Q 841 59 441 206 
L 441 856 
Q 825 641 1194 531 
Q 1563 422 1919 422 
Q 2459 422 2753 634 
Q 3047 847 3047 1241 
Q 3047 1584 2836 1778 
Q 2625 1972 2144 2069 
L 1759 2144 
Q 1053 2284 737 2584 
Q 422 2884 422 3419 
Q 422 4038 858 4394 
Q 1294 4750 2059 4750 
Q 2388 4750 2728 4690 
Q 3069 4631 3425 4513 
z
" transform="scale(0.015625)"/>
       <path id="DejaVuSans-6d" d="M 3328 2828 
Q 3544 3216 3844 3400 
Q 4144 3584 4550 3584 
Q 5097 3584 5394 3201 
Q 5691 2819 5691 2113 
L 5691 0 
L 5113 0 
L 5113 2094 
Q 5113 2597 4934 2840 
Q 4756 3084 4391 3084 
Q 3944 3084 3684 2787 
Q 3425 2491 3425 1978 
L 3425 0 
L 2847 0 
L 2847 2094 
Q 2847 2600 2669 2842 
Q 2491 3084 2119 3084 
Q 1678 3084 1418 2786 
Q 1159 2488 1159 1978 
L 1159 0 
L 581 0 
L 581 3500 
L 1159 3500 
L 1159 2956 
Q 1356 3278 1631 3431 
Q 1906 3584 2284 3584 
Q 2666 3584 2933 3390 
Q 3200 3197 3328 2828 
z
" transform="scale(0.015625)"/>
       <path id="DejaVuSans-6c" d="M 603 4863 
L 1178 4863 
L 1178 0 
L 603 0 
L 603 4863 
z
" transform="scale(0.015625)"/>
       <path id="DejaVuSans-79" d="M 2059 -325 
Q 1816 -950 1584 -1140 
Q 1353 -1331 966 -1331 
L 506 -1331 
L 506 -850 
L 844 -850 
Q 1081 -850 1212 -737 
Q 1344 -625 1503 -206 
L 1606 56 
L 191 3500 
L 800 3500 
L 1894 763 
L 2988 3500 
L 3597 3500 
L 2059 -325 
z
" transform="scale(0.015625)"/>
      </defs>
      <use xlink:href="#DejaVuSans-53"/>
      <use xlink:href="#DejaVuSans-69" x="63.476562"/>
      <use xlink:href="#DejaVuSans-6d" x="91.259766"/>
      <use xlink:href="#DejaVuSans-69" x="188.671875"/>
      <use xlink:href="#DejaVuSans-6c" x="216.455078"/>
      <use xlink:href="#DejaVuSans-61" x="244.238281"/>
      <use xlink:href="#DejaVuSans-72" x="305.517578"/>
      <use xlink:href="#DejaVuSans-69" x="346.630859"/>
      <use xlink:href="#DejaVuSans-74" x="374.414062"/>
      <use xlink:href="#DejaVuSans-79" x="413.623047"/>
     </g>
    </g>
   </g>
   <g id="line2d_13">
    <path d="M 66.091364 175.649461 
L 69.822254 135.234186 
L 73.553145 90.064173 
L 77.284035 73.422589 
L 81.014926 63.913113 
L 84.745816 63.913113 
L 88.476707 54.403637 
L 92.207597 49.648898 
L 95.938488 52.026268 
L 99.669378 56.781006 
L 103.400269 56.781006 
L 107.13116 56.781006 
L 110.86205 61.535744 
L 114.592941 56.781006 
L 118.323831 56.781006 
L 122.054722 63.913113 
L 125.785612 66.290482 
L 129.516503 71.04522 
L 133.247393 78.177328 
L 136.978284 71.04522 
L 140.709174 71.04522 
L 144.440065 78.177328 
L 148.170955 90.064173 
L 151.901846 97.19628 
L 155.632737 80.554697 
L 159.363627 85.309435 
L 163.094518 94.818911 
L 166.825408 99.57365 
L 170.556299 109.083126 
L 174.287189 97.19628 
L 178.01808 94.818911 
L 181.74897 116.215233 
L 185.479861 120.969971 
L 189.210751 123.347341 
L 192.941642 139.988924 
L 196.672532 151.87577 
L 200.403423 149.498401 
L 204.134314 147.121032 
L 207.865204 170.894723 
L 211.596095 185.158937 
L 215.326985 182.781568 
L 219.057876 192.291044 
L 222.788766 213.687366 
L 226.519657 232.706319 
L 230.250547 239.838427 
L 233.981438 239.838427 
L 237.712328 237.461057 
L 241.443219 242.215796 
L 245.174109 249.347903 
L 248.905 254.102641 
L 252.635891 261.234748 
L 256.366781 263.612118 
L 260.097672 263.612118 
L 263.828562 270.744225 
L 267.559453 273.121594 
L 271.290343 275.498963 
L 275.021234 273.121594 
L 278.752124 270.744225 
L 282.483015 275.498963 
L 286.213905 280.253701 
L 289.944796 277.876332 
L 293.675686 270.744225 
L 297.406577 275.498963 
L 301.137468 280.253701 
L 304.868358 282.63107 
L 308.599249 282.63107 
L 312.330139 277.876332 
L 316.06103 280.253701 
L 319.79192 285.008439 
L 323.522811 285.008439 
L 327.253701 285.008439 
L 330.984592 285.008439 
L 334.715482 277.876332 
L 338.446373 275.498963 
L 342.177263 282.63107 
L 345.908154 282.63107 
L 349.639045 282.63107 
L 353.369935 285.008439 
L 357.100826 285.008439 
L 360.831716 285.008439 
L 364.562607 280.253701 
L 368.293497 280.253701 
L 372.024388 285.008439 
L 375.755278 282.63107 
L 379.486169 282.63107 
L 383.217059 282.63107 
L 386.94795 280.253701 
L 390.67884 280.253701 
L 394.409731 282.63107 
L 398.140622 282.63107 
L 401.871512 282.63107 
L 405.602403 282.63107 
L 409.333293 280.253701 
L 413.064184 280.253701 
L 416.795074 280.253701 
L 420.525965 275.498963 
L 424.256855 275.498963 
L 427.987746 282.63107 
L 431.718636 282.63107 
" clip-path="url(#pea24502d0c)" style="fill: none; stroke: #0000ff; stroke-linecap: square"/>
    <defs>
     <path id="m3f698d210c" d="M -0.49999 0.49999 
L 0.50001 0.49999 
L 0.50001 -0.50001 
L -0.49999 -0.50001 
z
"/>
    </defs>
    <g clip-path="url(#pea24502d0c)">
     <use xlink:href="#m3f698d210c" x="66.091364" y="175.649461" style="fill: #0000ff"/>
     <use xlink:href="#m3f698d210c" x="69.822254" y="135.234186" style="fill: #0000ff"/>
     <use xlink:href="#m3f698d210c" x="73.553145" y="90.064173" style="fill: #0000ff"/>
     <use xlink:href="#m3f698d210c" x="77.284035" y="73.422589" style="fill: #0000ff"/>
     <use xlink:href="#m3f698d210c" x="81.014926" y="63.913113" style="fill: #0000ff"/>
     <use xlink:href="#m3f698d210c" x="84.745816" y="63.913113" style="fill: #0000ff"/>
     <use xlink:href="#m3f698d210c" x="88.476707" y="54.403637" style="fill: #0000ff"/>
     <use xlink:href="#m3f698d210c" x="92.207597" y="49.648898" style="fill: #0000ff"/>
     <use xlink:href="#m3f698d210c" x="95.938488" y="52.026268" style="fill: #0000ff"/>
     <use xlink:href="#m3f698d210c" x="99.669378" y="56.781006" style="fill: #0000ff"/>
     <use xlink:href="#m3f698d210c" x="103.400269" y="56.781006" style="fill: #0000ff"/>
     <use xlink:href="#m3f698d210c" x="107.13116" y="56.781006" style="fill: #0000ff"/>
     <use xlink:href="#m3f698d210c" x="110.86205" y="61.535744" style="fill: #0000ff"/>
     <use xlink:href="#m3f698d210c" x="114.592941" y="56.781006" style="fill: #0000ff"/>
     <use xlink:href="#m3f698d210c" x="118.323831" y="56.781006" style="fill: #0000ff"/>
     <use xlink:href="#m3f698d210c" x="122.054722" y="63.913113" style="fill: #0000ff"/>
     <use xlink:href="#m3f698d210c" x="125.785612" y="66.290482" style="fill: #0000ff"/>
     <use xlink:href="#m3f698d210c" x="129.516503" y="71.04522" style="fill: #0000ff"/>
     <use xlink:href="#m3f698d210c" x="133.247393" y="78.177328" style="fill: #0000ff"/>
     <use xlink:href="#m3f698d210c" x="136.978284" y="71.04522" style="fill: #0000ff"/>
     <use xlink:href="#m3f698d210c" x="140.709174" y="71.04522" style="fill: #0000ff"/>
     <use xlink:href="#m3f698d210c" x="144.440065" y="78.177328" style="fill: #0000ff"/>
     <use xlink:href="#m3f698d210c" x="148.170955" y="90.064173" style="fill: #0000ff"/>
     <use xlink:href="#m3f698d210c" x="151.901846" y="97.19628" style="fill: #0000ff"/>
     <use xlink:href="#m3f698d210c" x="155.632737" y="80.554697" style="fill: #0000ff"/>
     <use xlink:href="#m3f698d210c" x="159.363627" y="85.309435" style="fill: #0000ff"/>
     <use xlink:href="#m3f698d210c" x="163.094518" y="94.818911" style="fill: #0000ff"/>
     <use xlink:href="#m3f698d210c" x="166.825408" y="99.57365" style="fill: #0000ff"/>
     <use xlink:href="#m3f698d210c" x="170.556299" y="109.083126" style="fill: #0000ff"/>
     <use xlink:href="#m3f698d210c" x="174.287189" y="97.19628" style="fill: #0000ff"/>
     <use xlink:href="#m3f698d210c" x="178.01808" y="94.818911" style="fill: #0000ff"/>
     <use xlink:href="#m3f698d210c" x="181.74897" y="116.215233" style="fill: #0000ff"/>
     <use xlink:href="#m3f698d210c" x="185.479861" y="120.969971" style="fill: #0000ff"/>
     <use xlink:href="#m3f698d210c" x="189.210751" y="123.347341" style="fill: #0000ff"/>
     <use xlink:href="#m3f698d210c" x="192.941642" y="139.988924" style="fill: #0000ff"/>
     <use xlink:href="#m3f698d210c" x="196.672532" y="151.87577" style="fill: #0000ff"/>
     <use xlink:href="#m3f698d210c" x="200.403423" y="149.498401" style="fill: #0000ff"/>
     <use xlink:href="#m3f698d210c" x="204.134314" y="147.121032" style="fill: #0000ff"/>
     <use xlink:href="#m3f698d210c" x="207.865204" y="170.894723" style="fill: #0000ff"/>
     <use xlink:href="#m3f698d210c" x="211.596095" y="185.158937" style="fill: #0000ff"/>
     <use xlink:href="#m3f698d210c" x="215.326985" y="182.781568" style="fill: #0000ff"/>
     <use xlink:href="#m3f698d210c" x="219.057876" y="192.291044" style="fill: #0000ff"/>
     <use xlink:href="#m3f698d210c" x="222.788766" y="213.687366" style="fill: #0000ff"/>
     <use xlink:href="#m3f698d210c" x="226.519657" y="232.706319" style="fill: #0000ff"/>
     <use xlink:href="#m3f698d210c" x="230.250547" y="239.838427" style="fill: #0000ff"/>
     <use xlink:href="#m3f698d210c" x="233.981438" y="239.838427" style="fill: #0000ff"/>
     <use xlink:href="#m3f698d210c" x="237.712328" y="237.461057" style="fill: #0000ff"/>
     <use xlink:href="#m3f698d210c" x="241.443219" y="242.215796" style="fill: #0000ff"/>
     <use xlink:href="#m3f698d210c" x="245.174109" y="249.347903" style="fill: #0000ff"/>
     <use xlink:href="#m3f698d210c" x="248.905" y="254.102641" style="fill: #0000ff"/>
     <use xlink:href="#m3f698d210c" x="252.635891" y="261.234748" style="fill: #0000ff"/>
     <use xlink:href="#m3f698d210c" x="256.366781" y="263.612118" style="fill: #0000ff"/>
     <use xlink:href="#m3f698d210c" x="260.097672" y="263.612118" style="fill: #0000ff"/>
     <use xlink:href="#m3f698d210c" x="263.828562" y="270.744225" style="fill: #0000ff"/>
     <use xlink:href="#m3f698d210c" x="267.559453" y="273.121594" style="fill: #0000ff"/>
     <use xlink:href="#m3f698d210c" x="271.290343" y="275.498963" style="fill: #0000ff"/>
     <use xlink:href="#m3f698d210c" x="275.021234" y="273.121594" style="fill: #0000ff"/>
     <use xlink:href="#m3f698d210c" x="278.752124" y="270.744225" style="fill: #0000ff"/>
     <use xlink:href="#m3f698d210c" x="282.483015" y="275.498963" style="fill: #0000ff"/>
     <use xlink:href="#m3f698d210c" x="286.213905" y="280.253701" style="fill: #0000ff"/>
     <use xlink:href="#m3f698d210c" x="289.944796" y="277.876332" style="fill: #0000ff"/>
     <use xlink:href="#m3f698d210c" x="293.675686" y="270.744225" style="fill: #0000ff"/>
     <use xlink:href="#m3f698d210c" x="297.406577" y="275.498963" style="fill: #0000ff"/>
     <use xlink:href="#m3f698d210c" x="301.137468" y="280.253701" style="fill: #0000ff"/>
     <use xlink:href="#m3f698d210c" x="304.868358" y="282.63107" style="fill: #0000ff"/>
     <use xlink:href="#m3f698d210c" x="308.599249" y="282.63107" style="fill: #0000ff"/>
     <use xlink:href="#m3f698d210c" x="312.330139" y="277.876332" style="fill: #0000ff"/>
     <use xlink:href="#m3f698d210c" x="316.06103" y="280.253701" style="fill: #0000ff"/>
     <use xlink:href="#m3f698d210c" x="319.79192" y="285.008439" style="fill: #0000ff"/>
     <use xlink:href="#m3f698d210c" x="323.522811" y="285.008439" style="fill: #0000ff"/>
     <use xlink:href="#m3f698d210c" x="327.253701" y="285.008439" style="fill: #0000ff"/>
     <use xlink:href="#m3f698d210c" x="330.984592" y="285.008439" style="fill: #0000ff"/>
     <use xlink:href="#m3f698d210c" x="334.715482" y="277.876332" style="fill: #0000ff"/>
     <use xlink:href="#m3f698d210c" x="338.446373" y="275.498963" style="fill: #0000ff"/>
     <use xlink:href="#m3f698d210c" x="342.177263" y="282.63107" style="fill: #0000ff"/>
     <use xlink:href="#m3f698d210c" x="345.908154" y="282.63107" style="fill: #0000ff"/>
     <use xlink:href="#m3f698d210c" x="349.639045" y="282.63107" style="fill: #0000ff"/>
     <use xlink:href="#m3f698d210c" x="353.369935" y="285.008439" style="fill: #0000ff"/>
     <use xlink:href="#m3f698d210c" x="357.100826" y="285.008439" style="fill: #0000ff"/>
     <use xlink:href="#m3f698d210c" x="360.831716" y="285.008439" style="fill: #0000ff"/>
     <use xlink:href="#m3f698d210c" x="364.562607" y="280.253701" style="fill: #0000ff"/>
     <use xlink:href="#m3f698d210c" x="368.293497" y="280.253701" style="fill: #0000ff"/>
     <use xlink:href="#m3f698d210c" x="372.024388" y="285.008439" style="fill: #0000ff"/>
     <use xlink:href="#m3f698d210c" x="375.755278" y="282.63107" style="fill: #0000ff"/>
     <use xlink:href="#m3f698d210c" x="379.486169" y="282.63107" style="fill: #0000ff"/>
     <use xlink:href="#m3f698d210c" x="383.217059" y="282.63107" style="fill: #0000ff"/>
     <use xlink:href="#m3f698d210c" x="386.94795" y="280.253701" style="fill: #0000ff"/>
     <use xlink:href="#m3f698d210c" x="390.67884" y="280.253701" style="fill: #0000ff"/>
     <use xlink:href="#m3f698d210c" x="394.409731" y="282.63107" style="fill: #0000ff"/>
     <use xlink:href="#m3f698d210c" x="398.140622" y="282.63107" style="fill: #0000ff"/>
     <use xlink:href="#m3f698d210c" x="401.871512" y="282.63107" style="fill: #0000ff"/>
     <use xlink:href="#m3f698d210c" x="405.602403" y="282.63107" style="fill: #0000ff"/>
     <use xlink:href="#m3f698d210c" x="409.333293" y="280.253701" style="fill: #0000ff"/>
     <use xlink:href="#m3f698d210c" x="413.064184" y="280.253701" style="fill: #0000ff"/>
     <use xlink:href="#m3f698d210c" x="416.795074" y="280.253701" style="fill: #0000ff"/>
     <use xlink:href="#m3f698d210c" x="420.525965" y="275.498963" style="fill: #0000ff"/>
     <use xlink:href="#m3f698d210c" x="424.256855" y="275.498963" style="fill: #0000ff"/>
     <use xlink:href="#m3f698d210c" x="427.987746" y="282.63107" style="fill: #0000ff"/>
     <use xlink:href="#m3f698d210c" x="431.718636" y="282.63107" style="fill: #0000ff"/>
    </g>
   </g>
   <g id="line2d_14">
    <path d="M 66.091364 175.649461 
L 69.822254 155.441823 
L 73.553145 133.649273 
L 77.284035 118.592602 
L 81.014926 107.656704 
L 84.745816 100.366106 
L 88.476707 93.800039 
L 92.207597 88.281146 
L 95.938488 84.252826 
L 99.669378 81.505644 
L 103.400269 79.25795 
L 107.13116 77.384871 
L 110.86205 76.165708 
L 114.592941 74.781086 
L 118.323831 73.581081 
L 122.054722 72.976833 
L 125.785612 72.583518 
L 129.516503 72.498057 
L 133.247393 72.796966 
L 136.978284 72.709379 
L 140.709174 72.630133 
L 144.440065 72.882278 
L 148.170955 73.629317 
L 151.901846 74.611274 
L 155.632737 74.849011 
L 159.363627 75.251335 
L 163.094518 75.97606 
L 166.825408 76.818831 
L 170.556299 77.931393 
L 174.287189 78.573556 
L 178.01808 79.0976 
L 181.74897 80.257526 
L 185.479861 81.491236 
L 189.210751 82.722298 
L 192.941642 84.358487 
L 196.672532 86.233967 
L 200.403423 87.943817 
L 204.134314 89.501112 
L 207.865204 91.588128 
L 211.596095 93.927398 
L 215.326985 96.094573 
L 219.057876 98.384965 
L 222.788766 101.066416 
L 226.519657 104.058232 
L 230.250547 107.07557 
L 233.981438 109.961719 
L 237.712328 112.674471 
L 241.443219 115.373248 
L 245.174109 118.107425 
L 248.905 120.827329 
L 252.635891 123.580416 
L 256.366781 126.273333 
L 260.097672 128.864631 
L 263.828562 131.492031 
L 267.559453 134.067114 
L 271.290343 136.592683 
L 275.021234 138.987927 
L 278.752124 141.259587 
L 282.483015 143.534831 
L 286.213905 145.813479 
L 289.944796 147.978443 
L 293.675686 149.958537 
L 297.406577 151.951242 
L 301.137468 153.955968 
L 304.868358 155.935585 
L 308.599249 157.855213 
L 312.330139 159.646573 
L 316.06103 161.420207 
L 319.79192 163.211341 
L 323.522811 164.9513 
L 327.253701 166.642245 
L 330.984592 168.28622 
L 334.715482 169.787455 
L 338.446373 171.215989 
L 342.177263 172.701523 
L 345.908154 174.147965 
L 349.639045 175.556836 
L 353.369935 176.960062 
L 357.100826 178.327763 
L 360.831716 179.661271 
L 364.562607 180.903153 
L 368.293497 182.114745 
L 372.024388 183.354428 
L 375.755278 184.536293 
L 379.486169 185.690349 
L 383.217059 186.817567 
L 386.94795 187.891545 
L 390.67884 188.941115 
L 394.409731 189.993811 
L 398.140622 191.023114 
L 401.871512 192.029795 
L 405.602403 193.014592 
L 409.333293 193.952647 
L 413.064184 194.870743 
L 416.795074 195.769511 
L 420.525965 196.600026 
L 424.256855 197.413417 
L 427.987746 198.282985 
L 431.718636 199.134986 
" clip-path="url(#pea24502d0c)" style="fill: none; stroke: #ff0000; stroke-opacity: 0.5; stroke-width: 0.5; stroke-linecap: square"/>
    <defs>
     <path id="m1e20d9c159" d="M -0.49999 0.49999 
L 0.50001 0.49999 
L 0.50001 -0.50001 
L -0.49999 -0.50001 
z
"/>
    </defs>
    <g clip-path="url(#pea24502d0c)">
     <use xlink:href="#m1e20d9c159" x="66.091364" y="175.649461" style="fill: #ff0000; fill-opacity: 0.5"/>
     <use xlink:href="#m1e20d9c159" x="69.822254" y="155.441823" style="fill: #ff0000; fill-opacity: 0.5"/>
     <use xlink:href="#m1e20d9c159" x="73.553145" y="133.649273" style="fill: #ff0000; fill-opacity: 0.5"/>
     <use xlink:href="#m1e20d9c159" x="77.284035" y="118.592602" style="fill: #ff0000; fill-opacity: 0.5"/>
     <use xlink:href="#m1e20d9c159" x="81.014926" y="107.656704" style="fill: #ff0000; fill-opacity: 0.5"/>
     <use xlink:href="#m1e20d9c159" x="84.745816" y="100.366106" style="fill: #ff0000; fill-opacity: 0.5"/>
     <use xlink:href="#m1e20d9c159" x="88.476707" y="93.800039" style="fill: #ff0000; fill-opacity: 0.5"/>
     <use xlink:href="#m1e20d9c159" x="92.207597" y="88.281146" style="fill: #ff0000; fill-opacity: 0.5"/>
     <use xlink:href="#m1e20d9c159" x="95.938488" y="84.252826" style="fill: #ff0000; fill-opacity: 0.5"/>
     <use xlink:href="#m1e20d9c159" x="99.669378" y="81.505644" style="fill: #ff0000; fill-opacity: 0.5"/>
     <use xlink:href="#m1e20d9c159" x="103.400269" y="79.25795" style="fill: #ff0000; fill-opacity: 0.5"/>
     <use xlink:href="#m1e20d9c159" x="107.13116" y="77.384871" style="fill: #ff0000; fill-opacity: 0.5"/>
     <use xlink:href="#m1e20d9c159" x="110.86205" y="76.165708" style="fill: #ff0000; fill-opacity: 0.5"/>
     <use xlink:href="#m1e20d9c159" x="114.592941" y="74.781086" style="fill: #ff0000; fill-opacity: 0.5"/>
     <use xlink:href="#m1e20d9c159" x="118.323831" y="73.581081" style="fill: #ff0000; fill-opacity: 0.5"/>
     <use xlink:href="#m1e20d9c159" x="122.054722" y="72.976833" style="fill: #ff0000; fill-opacity: 0.5"/>
     <use xlink:href="#m1e20d9c159" x="125.785612" y="72.583518" style="fill: #ff0000; fill-opacity: 0.5"/>
     <use xlink:href="#m1e20d9c159" x="129.516503" y="72.498057" style="fill: #ff0000; fill-opacity: 0.5"/>
     <use xlink:href="#m1e20d9c159" x="133.247393" y="72.796966" style="fill: #ff0000; fill-opacity: 0.5"/>
     <use xlink:href="#m1e20d9c159" x="136.978284" y="72.709379" style="fill: #ff0000; fill-opacity: 0.5"/>
     <use xlink:href="#m1e20d9c159" x="140.709174" y="72.630133" style="fill: #ff0000; fill-opacity: 0.5"/>
     <use xlink:href="#m1e20d9c159" x="144.440065" y="72.882278" style="fill: #ff0000; fill-opacity: 0.5"/>
     <use xlink:href="#m1e20d9c159" x="148.170955" y="73.629317" style="fill: #ff0000; fill-opacity: 0.5"/>
     <use xlink:href="#m1e20d9c159" x="151.901846" y="74.611274" style="fill: #ff0000; fill-opacity: 0.5"/>
     <use xlink:href="#m1e20d9c159" x="155.632737" y="74.849011" style="fill: #ff0000; fill-opacity: 0.5"/>
     <use xlink:href="#m1e20d9c159" x="159.363627" y="75.251335" style="fill: #ff0000; fill-opacity: 0.5"/>
     <use xlink:href="#m1e20d9c159" x="163.094518" y="75.97606" style="fill: #ff0000; fill-opacity: 0.5"/>
     <use xlink:href="#m1e20d9c159" x="166.825408" y="76.818831" style="fill: #ff0000; fill-opacity: 0.5"/>
     <use xlink:href="#m1e20d9c159" x="170.556299" y="77.931393" style="fill: #ff0000; fill-opacity: 0.5"/>
     <use xlink:href="#m1e20d9c159" x="174.287189" y="78.573556" style="fill: #ff0000; fill-opacity: 0.5"/>
     <use xlink:href="#m1e20d9c159" x="178.01808" y="79.0976" style="fill: #ff0000; fill-opacity: 0.5"/>
     <use xlink:href="#m1e20d9c159" x="181.74897" y="80.257526" style="fill: #ff0000; fill-opacity: 0.5"/>
     <use xlink:href="#m1e20d9c159" x="185.479861" y="81.491236" style="fill: #ff0000; fill-opacity: 0.5"/>
     <use xlink:href="#m1e20d9c159" x="189.210751" y="82.722298" style="fill: #ff0000; fill-opacity: 0.5"/>
     <use xlink:href="#m1e20d9c159" x="192.941642" y="84.358487" style="fill: #ff0000; fill-opacity: 0.5"/>
     <use xlink:href="#m1e20d9c159" x="196.672532" y="86.233967" style="fill: #ff0000; fill-opacity: 0.5"/>
     <use xlink:href="#m1e20d9c159" x="200.403423" y="87.943817" style="fill: #ff0000; fill-opacity: 0.5"/>
     <use xlink:href="#m1e20d9c159" x="204.134314" y="89.501112" style="fill: #ff0000; fill-opacity: 0.5"/>
     <use xlink:href="#m1e20d9c159" x="207.865204" y="91.588128" style="fill: #ff0000; fill-opacity: 0.5"/>
     <use xlink:href="#m1e20d9c159" x="211.596095" y="93.927398" style="fill: #ff0000; fill-opacity: 0.5"/>
     <use xlink:href="#m1e20d9c159" x="215.326985" y="96.094573" style="fill: #ff0000; fill-opacity: 0.5"/>
     <use xlink:href="#m1e20d9c159" x="219.057876" y="98.384965" style="fill: #ff0000; fill-opacity: 0.5"/>
     <use xlink:href="#m1e20d9c159" x="222.788766" y="101.066416" style="fill: #ff0000; fill-opacity: 0.5"/>
     <use xlink:href="#m1e20d9c159" x="226.519657" y="104.058232" style="fill: #ff0000; fill-opacity: 0.5"/>
     <use xlink:href="#m1e20d9c159" x="230.250547" y="107.07557" style="fill: #ff0000; fill-opacity: 0.5"/>
     <use xlink:href="#m1e20d9c159" x="233.981438" y="109.961719" style="fill: #ff0000; fill-opacity: 0.5"/>
     <use xlink:href="#m1e20d9c159" x="237.712328" y="112.674471" style="fill: #ff0000; fill-opacity: 0.5"/>
     <use xlink:href="#m1e20d9c159" x="241.443219" y="115.373248" style="fill: #ff0000; fill-opacity: 0.5"/>
     <use xlink:href="#m1e20d9c159" x="245.174109" y="118.107425" style="fill: #ff0000; fill-opacity: 0.5"/>
     <use xlink:href="#m1e20d9c159" x="248.905" y="120.827329" style="fill: #ff0000; fill-opacity: 0.5"/>
     <use xlink:href="#m1e20d9c159" x="252.635891" y="123.580416" style="fill: #ff0000; fill-opacity: 0.5"/>
     <use xlink:href="#m1e20d9c159" x="256.366781" y="126.273333" style="fill: #ff0000; fill-opacity: 0.5"/>
     <use xlink:href="#m1e20d9c159" x="260.097672" y="128.864631" style="fill: #ff0000; fill-opacity: 0.5"/>
     <use xlink:href="#m1e20d9c159" x="263.828562" y="131.492031" style="fill: #ff0000; fill-opacity: 0.5"/>
     <use xlink:href="#m1e20d9c159" x="267.559453" y="134.067114" style="fill: #ff0000; fill-opacity: 0.5"/>
     <use xlink:href="#m1e20d9c159" x="271.290343" y="136.592683" style="fill: #ff0000; fill-opacity: 0.5"/>
     <use xlink:href="#m1e20d9c159" x="275.021234" y="138.987927" style="fill: #ff0000; fill-opacity: 0.5"/>
     <use xlink:href="#m1e20d9c159" x="278.752124" y="141.259587" style="fill: #ff0000; fill-opacity: 0.5"/>
     <use xlink:href="#m1e20d9c159" x="282.483015" y="143.534831" style="fill: #ff0000; fill-opacity: 0.5"/>
     <use xlink:href="#m1e20d9c159" x="286.213905" y="145.813479" style="fill: #ff0000; fill-opacity: 0.5"/>
     <use xlink:href="#m1e20d9c159" x="289.944796" y="147.978443" style="fill: #ff0000; fill-opacity: 0.5"/>
     <use xlink:href="#m1e20d9c159" x="293.675686" y="149.958537" style="fill: #ff0000; fill-opacity: 0.5"/>
     <use xlink:href="#m1e20d9c159" x="297.406577" y="151.951242" style="fill: #ff0000; fill-opacity: 0.5"/>
     <use xlink:href="#m1e20d9c159" x="301.137468" y="153.955968" style="fill: #ff0000; fill-opacity: 0.5"/>
     <use xlink:href="#m1e20d9c159" x="304.868358" y="155.935585" style="fill: #ff0000; fill-opacity: 0.5"/>
     <use xlink:href="#m1e20d9c159" x="308.599249" y="157.855213" style="fill: #ff0000; fill-opacity: 0.5"/>
     <use xlink:href="#m1e20d9c159" x="312.330139" y="159.646573" style="fill: #ff0000; fill-opacity: 0.5"/>
     <use xlink:href="#m1e20d9c159" x="316.06103" y="161.420207" style="fill: #ff0000; fill-opacity: 0.5"/>
     <use xlink:href="#m1e20d9c159" x="319.79192" y="163.211341" style="fill: #ff0000; fill-opacity: 0.5"/>
     <use xlink:href="#m1e20d9c159" x="323.522811" y="164.9513" style="fill: #ff0000; fill-opacity: 0.5"/>
     <use xlink:href="#m1e20d9c159" x="327.253701" y="166.642245" style="fill: #ff0000; fill-opacity: 0.5"/>
     <use xlink:href="#m1e20d9c159" x="330.984592" y="168.28622" style="fill: #ff0000; fill-opacity: 0.5"/>
     <use xlink:href="#m1e20d9c159" x="334.715482" y="169.787455" style="fill: #ff0000; fill-opacity: 0.5"/>
     <use xlink:href="#m1e20d9c159" x="338.446373" y="171.215989" style="fill: #ff0000; fill-opacity: 0.5"/>
     <use xlink:href="#m1e20d9c159" x="342.177263" y="172.701523" style="fill: #ff0000; fill-opacity: 0.5"/>
     <use xlink:href="#m1e20d9c159" x="345.908154" y="174.147965" style="fill: #ff0000; fill-opacity: 0.5"/>
     <use xlink:href="#m1e20d9c159" x="349.639045" y="175.556836" style="fill: #ff0000; fill-opacity: 0.5"/>
     <use xlink:href="#m1e20d9c159" x="353.369935" y="176.960062" style="fill: #ff0000; fill-opacity: 0.5"/>
     <use xlink:href="#m1e20d9c159" x="357.100826" y="178.327763" style="fill: #ff0000; fill-opacity: 0.5"/>
     <use xlink:href="#m1e20d9c159" x="360.831716" y="179.661271" style="fill: #ff0000; fill-opacity: 0.5"/>
     <use xlink:href="#m1e20d9c159" x="364.562607" y="180.903153" style="fill: #ff0000; fill-opacity: 0.5"/>
     <use xlink:href="#m1e20d9c159" x="368.293497" y="182.114745" style="fill: #ff0000; fill-opacity: 0.5"/>
     <use xlink:href="#m1e20d9c159" x="372.024388" y="183.354428" style="fill: #ff0000; fill-opacity: 0.5"/>
     <use xlink:href="#m1e20d9c159" x="375.755278" y="184.536293" style="fill: #ff0000; fill-opacity: 0.5"/>
     <use xlink:href="#m1e20d9c159" x="379.486169" y="185.690349" style="fill: #ff0000; fill-opacity: 0.5"/>
     <use xlink:href="#m1e20d9c159" x="383.217059" y="186.817567" style="fill: #ff0000; fill-opacity: 0.5"/>
     <use xlink:href="#m1e20d9c159" x="386.94795" y="187.891545" style="fill: #ff0000; fill-opacity: 0.5"/>
     <use xlink:href="#m1e20d9c159" x="390.67884" y="188.941115" style="fill: #ff0000; fill-opacity: 0.5"/>
     <use xlink:href="#m1e20d9c159" x="394.409731" y="189.993811" style="fill: #ff0000; fill-opacity: 0.5"/>
     <use xlink:href="#m1e20d9c159" x="398.140622" y="191.023114" style="fill: #ff0000; fill-opacity: 0.5"/>
     <use xlink:href="#m1e20d9c159" x="401.871512" y="192.029795" style="fill: #ff0000; fill-opacity: 0.5"/>
     <use xlink:href="#m1e20d9c159" x="405.602403" y="193.014592" style="fill: #ff0000; fill-opacity: 0.5"/>
     <use xlink:href="#m1e20d9c159" x="409.333293" y="193.952647" style="fill: #ff0000; fill-opacity: 0.5"/>
     <use xlink:href="#m1e20d9c159" x="413.064184" y="194.870743" style="fill: #ff0000; fill-opacity: 0.5"/>
     <use xlink:href="#m1e20d9c159" x="416.795074" y="195.769511" style="fill: #ff0000; fill-opacity: 0.5"/>
     <use xlink:href="#m1e20d9c159" x="420.525965" y="196.600026" style="fill: #ff0000; fill-opacity: 0.5"/>
     <use xlink:href="#m1e20d9c159" x="424.256855" y="197.413417" style="fill: #ff0000; fill-opacity: 0.5"/>
     <use xlink:href="#m1e20d9c159" x="427.987746" y="198.282985" style="fill: #ff0000; fill-opacity: 0.5"/>
     <use xlink:href="#m1e20d9c159" x="431.718636" y="199.134986" style="fill: #ff0000; fill-opacity: 0.5"/>
    </g>
   </g>
   <g id="line2d_15">
    <path d="M 47.81 285.008439 
L 450 285.008439 
" clip-path="url(#pea24502d0c)" style="fill: none; stroke-dasharray: 0.555,0.24; stroke-dashoffset: 0; stroke: #ff0000; stroke-width: 0.15"/>
   </g>
   <g id="line2d_16">
    <path d="M 47.81 166.139984 
L 450 166.139984 
" clip-path="url(#pea24502d0c)" style="fill: none; stroke-dasharray: 0.555,0.24; stroke-dashoffset: 0; stroke: #ff0000; stroke-width: 0.15"/>
   </g>
   <g id="line2d_17">
    <path d="M 47.81 47.271529 
L 450 47.271529 
" clip-path="url(#pea24502d0c)" style="fill: none; stroke-dasharray: 0.555,0.24; stroke-dashoffset: 0; stroke: #ff0000; stroke-width: 0.15"/>
   </g>
   <g id="patch_3">
    <path d="M 47.81 303.64 
L 47.81 25.44 
" style="fill: none; stroke: #000000; stroke-width: 0.8; stroke-linejoin: miter; stroke-linecap: square"/>
   </g>
   <g id="patch_4">
    <path d="M 450 303.64 
L 450 25.44 
" style="fill: none; stroke: #000000; stroke-width: 0.8; stroke-linejoin: miter; stroke-linecap: square"/>
   </g>
   <g id="patch_5">
    <path d="M 47.81 303.64 
L 450 303.64 
" style="fill: none; stroke: #000000; stroke-width: 0.8; stroke-linejoin: miter; stroke-linecap: square"/>
   </g>
   <g id="patch_6">
    <path d="M 47.81 25.44 
L 450 25.44 
" style="fill: none; stroke: #000000; stroke-width: 0.8; stroke-linejoin: miter; stroke-linecap: square"/>
   </g>
   <g id="text_15">
    <!-- Similarity LLM-DEFECT with sw2-1 - 20240409114154 - 50 games -->
    <g transform="translate(51.62875 19.44) scale(0.12 -0.12)">
     <defs>
      <path id="DejaVuSans-20" transform="scale(0.015625)"/>
      <path id="DejaVuSans-4c" d="M 628 4666 
L 1259 4666 
L 1259 531 
L 3531 531 
L 3531 0 
L 628 0 
L 628 4666 
z
" transform="scale(0.015625)"/>
      <path id="DejaVuSans-4d" d="M 628 4666 
L 1569 4666 
L 2759 1491 
L 3956 4666 
L 4897 4666 
L 4897 0 
L 4281 0 
L 4281 4097 
L 3078 897 
L 2444 897 
L 1241 4097 
L 1241 0 
L 628 0 
L 628 4666 
z
" transform="scale(0.015625)"/>
      <path id="DejaVuSans-2d" d="M 313 2009 
L 1997 2009 
L 1997 1497 
L 313 1497 
L 313 2009 
z
" transform="scale(0.015625)"/>
      <path id="DejaVuSans-44" d="M 1259 4147 
L 1259 519 
L 2022 519 
Q 2988 519 3436 956 
Q 3884 1394 3884 2338 
Q 3884 3275 3436 3711 
Q 2988 4147 2022 4147 
L 1259 4147 
z
M 628 4666 
L 1925 4666 
Q 3281 4666 3915 4102 
Q 4550 3538 4550 2338 
Q 4550 1131 3912 565 
Q 3275 0 1925 0 
L 628 0 
L 628 4666 
z
" transform="scale(0.015625)"/>
      <path id="DejaVuSans-45" d="M 628 4666 
L 3578 4666 
L 3578 4134 
L 1259 4134 
L 1259 2753 
L 3481 2753 
L 3481 2222 
L 1259 2222 
L 1259 531 
L 3634 531 
L 3634 0 
L 628 0 
L 628 4666 
z
" transform="scale(0.015625)"/>
      <path id="DejaVuSans-46" d="M 628 4666 
L 3309 4666 
L 3309 4134 
L 1259 4134 
L 1259 2759 
L 3109 2759 
L 3109 2228 
L 1259 2228 
L 1259 0 
L 628 0 
L 628 4666 
z
" transform="scale(0.015625)"/>
      <path id="DejaVuSans-43" d="M 4122 4306 
L 4122 3641 
Q 3803 3938 3442 4084 
Q 3081 4231 2675 4231 
Q 1875 4231 1450 3742 
Q 1025 3253 1025 2328 
Q 1025 1406 1450 917 
Q 1875 428 2675 428 
Q 3081 428 3442 575 
Q 3803 722 4122 1019 
L 4122 359 
Q 3791 134 3420 21 
Q 3050 -91 2638 -91 
Q 1578 -91 968 557 
Q 359 1206 359 2328 
Q 359 3453 968 4101 
Q 1578 4750 2638 4750 
Q 3056 4750 3426 4639 
Q 3797 4528 4122 4306 
z
" transform="scale(0.015625)"/>
      <path id="DejaVuSans-54" d="M -19 4666 
L 3928 4666 
L 3928 4134 
L 2272 4134 
L 2272 0 
L 1638 0 
L 1638 4134 
L -19 4134 
L -19 4666 
z
" transform="scale(0.015625)"/>
      <path id="DejaVuSans-77" d="M 269 3500 
L 844 3500 
L 1563 769 
L 2278 3500 
L 2956 3500 
L 3675 769 
L 4391 3500 
L 4966 3500 
L 4050 0 
L 3372 0 
L 2619 2869 
L 1863 0 
L 1184 0 
L 269 3500 
z
" transform="scale(0.015625)"/>
      <path id="DejaVuSans-68" d="M 3513 2113 
L 3513 0 
L 2938 0 
L 2938 2094 
Q 2938 2591 2744 2837 
Q 2550 3084 2163 3084 
Q 1697 3084 1428 2787 
Q 1159 2491 1159 1978 
L 1159 0 
L 581 0 
L 581 4863 
L 1159 4863 
L 1159 2956 
Q 1366 3272 1645 3428 
Q 1925 3584 2291 3584 
Q 2894 3584 3203 3211 
Q 3513 2838 3513 2113 
z
" transform="scale(0.015625)"/>
      <path id="DejaVuSans-73" d="M 2834 3397 
L 2834 2853 
Q 2591 2978 2328 3040 
Q 2066 3103 1784 3103 
Q 1356 3103 1142 2972 
Q 928 2841 928 2578 
Q 928 2378 1081 2264 
Q 1234 2150 1697 2047 
L 1894 2003 
Q 2506 1872 2764 1633 
Q 3022 1394 3022 966 
Q 3022 478 2636 193 
Q 2250 -91 1575 -91 
Q 1294 -91 989 -36 
Q 684 19 347 128 
L 347 722 
Q 666 556 975 473 
Q 1284 391 1588 391 
Q 1994 391 2212 530 
Q 2431 669 2431 922 
Q 2431 1156 2273 1281 
Q 2116 1406 1581 1522 
L 1381 1569 
Q 847 1681 609 1914 
Q 372 2147 372 2553 
Q 372 3047 722 3315 
Q 1072 3584 1716 3584 
Q 2034 3584 2315 3537 
Q 2597 3491 2834 3397 
z
" transform="scale(0.015625)"/>
      <path id="DejaVuSans-39" d="M 703 97 
L 703 672 
Q 941 559 1184 500 
Q 1428 441 1663 441 
Q 2288 441 2617 861 
Q 2947 1281 2994 2138 
Q 2813 1869 2534 1725 
Q 2256 1581 1919 1581 
Q 1219 1581 811 2004 
Q 403 2428 403 3163 
Q 403 3881 828 4315 
Q 1253 4750 1959 4750 
Q 2769 4750 3195 4129 
Q 3622 3509 3622 2328 
Q 3622 1225 3098 567 
Q 2575 -91 1691 -91 
Q 1453 -91 1209 -44 
Q 966 3 703 97 
z
M 1959 2075 
Q 2384 2075 2632 2365 
Q 2881 2656 2881 3163 
Q 2881 3666 2632 3958 
Q 2384 4250 1959 4250 
Q 1534 4250 1286 3958 
Q 1038 3666 1038 3163 
Q 1038 2656 1286 2365 
Q 1534 2075 1959 2075 
z
" transform="scale(0.015625)"/>
      <path id="DejaVuSans-35" d="M 691 4666 
L 3169 4666 
L 3169 4134 
L 1269 4134 
L 1269 2991 
Q 1406 3038 1543 3061 
Q 1681 3084 1819 3084 
Q 2600 3084 3056 2656 
Q 3513 2228 3513 1497 
Q 3513 744 3044 326 
Q 2575 -91 1722 -91 
Q 1428 -91 1123 -41 
Q 819 9 494 109 
L 494 744 
Q 775 591 1075 516 
Q 1375 441 1709 441 
Q 2250 441 2565 725 
Q 2881 1009 2881 1497 
Q 2881 1984 2565 2268 
Q 2250 2553 1709 2553 
Q 1456 2553 1204 2497 
Q 953 2441 691 2322 
L 691 4666 
z
" transform="scale(0.015625)"/>
      <path id="DejaVuSans-67" d="M 2906 1791 
Q 2906 2416 2648 2759 
Q 2391 3103 1925 3103 
Q 1463 3103 1205 2759 
Q 947 2416 947 1791 
Q 947 1169 1205 825 
Q 1463 481 1925 481 
Q 2391 481 2648 825 
Q 2906 1169 2906 1791 
z
M 3481 434 
Q 3481 -459 3084 -895 
Q 2688 -1331 1869 -1331 
Q 1566 -1331 1297 -1286 
Q 1028 -1241 775 -1147 
L 775 -588 
Q 1028 -725 1275 -790 
Q 1522 -856 1778 -856 
Q 2344 -856 2625 -561 
Q 2906 -266 2906 331 
L 2906 616 
Q 2728 306 2450 153 
Q 2172 0 1784 0 
Q 1141 0 747 490 
Q 353 981 353 1791 
Q 353 2603 747 3093 
Q 1141 3584 1784 3584 
Q 2172 3584 2450 3431 
Q 2728 3278 2906 2969 
L 2906 3500 
L 3481 3500 
L 3481 434 
z
" transform="scale(0.015625)"/>
     </defs>
     <use xlink:href="#DejaVuSans-53"/>
     <use xlink:href="#DejaVuSans-69" x="63.476562"/>
     <use xlink:href="#DejaVuSans-6d" x="91.259766"/>
     <use xlink:href="#DejaVuSans-69" x="188.671875"/>
     <use xlink:href="#DejaVuSans-6c" x="216.455078"/>
     <use xlink:href="#DejaVuSans-61" x="244.238281"/>
     <use xlink:href="#DejaVuSans-72" x="305.517578"/>
     <use xlink:href="#DejaVuSans-69" x="346.630859"/>
     <use xlink:href="#DejaVuSans-74" x="374.414062"/>
     <use xlink:href="#DejaVuSans-79" x="413.623047"/>
     <use xlink:href="#DejaVuSans-20" x="472.802734"/>
     <use xlink:href="#DejaVuSans-4c" x="504.589844"/>
     <use xlink:href="#DejaVuSans-4c" x="560.302734"/>
     <use xlink:href="#DejaVuSans-4d" x="616.015625"/>
     <use xlink:href="#DejaVuSans-2d" x="702.294922"/>
     <use xlink:href="#DejaVuSans-44" x="738.378906"/>
     <use xlink:href="#DejaVuSans-45" x="815.380859"/>
     <use xlink:href="#DejaVuSans-46" x="878.564453"/>
     <use xlink:href="#DejaVuSans-45" x="936.083984"/>
     <use xlink:href="#DejaVuSans-43" x="999.267578"/>
     <use xlink:href="#DejaVuSans-54" x="1069.091797"/>
     <use xlink:href="#DejaVuSans-20" x="1130.175781"/>
     <use xlink:href="#DejaVuSans-77" x="1161.962891"/>
     <use xlink:href="#DejaVuSans-69" x="1243.75"/>
     <use xlink:href="#DejaVuSans-74" x="1271.533203"/>
     <use xlink:href="#DejaVuSans-68" x="1310.742188"/>
     <use xlink:href="#DejaVuSans-20" x="1374.121094"/>
     <use xlink:href="#DejaVuSans-73" x="1405.908203"/>
     <use xlink:href="#DejaVuSans-77" x="1458.007812"/>
     <use xlink:href="#DejaVuSans-32" x="1539.794922"/>
     <use xlink:href="#DejaVuSans-2d" x="1603.417969"/>
     <use xlink:href="#DejaVuSans-31" x="1639.501953"/>
     <use xlink:href="#DejaVuSans-20" x="1703.125"/>
     <use xlink:href="#DejaVuSans-2d" x="1734.912109"/>
     <use xlink:href="#DejaVuSans-20" x="1770.996094"/>
     <use xlink:href="#DejaVuSans-32" x="1802.783203"/>
     <use xlink:href="#DejaVuSans-30" x="1866.40625"/>
     <use xlink:href="#DejaVuSans-32" x="1930.029297"/>
     <use xlink:href="#DejaVuSans-34" x="1993.652344"/>
     <use xlink:href="#DejaVuSans-30" x="2057.275391"/>
     <use xlink:href="#DejaVuSans-34" x="2120.898438"/>
     <use xlink:href="#DejaVuSans-30" x="2184.521484"/>
     <use xlink:href="#DejaVuSans-39" x="2248.144531"/>
     <use xlink:href="#DejaVuSans-31" x="2311.767578"/>
     <use xlink:href="#DejaVuSans-31" x="2375.390625"/>
     <use xlink:href="#DejaVuSans-34" x="2439.013672"/>
     <use xlink:href="#DejaVuSans-31" x="2502.636719"/>
     <use xlink:href="#DejaVuSans-35" x="2566.259766"/>
     <use xlink:href="#DejaVuSans-34" x="2629.882812"/>
     <use xlink:href="#DejaVuSans-20" x="2693.505859"/>
     <use xlink:href="#DejaVuSans-2d" x="2725.292969"/>
     <use xlink:href="#DejaVuSans-20" x="2761.376953"/>
     <use xlink:href="#DejaVuSans-35" x="2793.164062"/>
     <use xlink:href="#DejaVuSans-30" x="2856.787109"/>
     <use xlink:href="#DejaVuSans-20" x="2920.410156"/>
     <use xlink:href="#DejaVuSans-67" x="2952.197266"/>
     <use xlink:href="#DejaVuSans-61" x="3015.673828"/>
     <use xlink:href="#DejaVuSans-6d" x="3076.953125"/>
     <use xlink:href="#DejaVuSans-65" x="3174.365234"/>
     <use xlink:href="#DejaVuSans-73" x="3235.888672"/>
    </g>
   </g>
   <g id="legend_1">
    <g id="patch_7">
     <path d="M 316.903125 62.79625 
L 443 62.79625 
Q 445 62.79625 445 60.79625 
L 445 32.44 
Q 445 30.44 443 30.44 
L 316.903125 30.44 
Q 314.903125 30.44 314.903125 32.44 
L 314.903125 60.79625 
Q 314.903125 62.79625 316.903125 62.79625 
z
" style="fill: #ffffff; opacity: 0.8; stroke: #cccccc; stroke-linejoin: miter"/>
    </g>
    <g id="line2d_18">
     <path d="M 318.903125 38.538437 
L 328.903125 38.538437 
L 338.903125 38.538437 
" style="fill: none; stroke: #0000ff; stroke-linecap: square"/>
     <g>
      <use xlink:href="#m3f698d210c" x="328.903125" y="38.538437" style="fill: #0000ff"/>
     </g>
    </g>
    <g id="text_16">
     <!-- LLM-DEFECT -->
     <g transform="translate(346.903125 42.038437) scale(0.1 -0.1)">
      <use xlink:href="#DejaVuSans-4c"/>
      <use xlink:href="#DejaVuSans-4c" x="55.712891"/>
      <use xlink:href="#DejaVuSans-4d" x="111.425781"/>
      <use xlink:href="#DejaVuSans-2d" x="197.705078"/>
      <use xlink:href="#DejaVuSans-44" x="233.789062"/>
      <use xlink:href="#DejaVuSans-45" x="310.791016"/>
      <use xlink:href="#DejaVuSans-46" x="373.974609"/>
      <use xlink:href="#DejaVuSans-45" x="431.494141"/>
      <use xlink:href="#DejaVuSans-43" x="494.677734"/>
      <use xlink:href="#DejaVuSans-54" x="564.501953"/>
     </g>
    </g>
    <g id="line2d_19">
     <path d="M 318.903125 53.216562 
L 328.903125 53.216562 
L 338.903125 53.216562 
" style="fill: none; stroke: #ff0000; stroke-opacity: 0.5; stroke-width: 0.5; stroke-linecap: square"/>
     <g>
      <use xlink:href="#m1e20d9c159" x="328.903125" y="53.216562" style="fill: #ff0000; fill-opacity: 0.5"/>
     </g>
    </g>
    <g id="text_17">
     <!-- LLM-DEFECT mean -->
     <g transform="translate(346.903125 56.716562) scale(0.1 -0.1)">
      <use xlink:href="#DejaVuSans-4c"/>
      <use xlink:href="#DejaVuSans-4c" x="55.712891"/>
      <use xlink:href="#DejaVuSans-4d" x="111.425781"/>
      <use xlink:href="#DejaVuSans-2d" x="197.705078"/>
      <use xlink:href="#DejaVuSans-44" x="233.789062"/>
      <use xlink:href="#DejaVuSans-45" x="310.791016"/>
      <use xlink:href="#DejaVuSans-46" x="373.974609"/>
      <use xlink:href="#DejaVuSans-45" x="431.494141"/>
      <use xlink:href="#DejaVuSans-43" x="494.677734"/>
      <use xlink:href="#DejaVuSans-54" x="564.501953"/>
      <use xlink:href="#DejaVuSans-20" x="625.585938"/>
      <use xlink:href="#DejaVuSans-6d" x="657.373047"/>
      <use xlink:href="#DejaVuSans-65" x="754.785156"/>
      <use xlink:href="#DejaVuSans-61" x="816.308594"/>
      <use xlink:href="#DejaVuSans-6e" x="877.587891"/>
     </g>
    </g>
   </g>
  </g>
 </g>
 <defs>
  <clipPath id="pea24502d0c">
   <rect x="47.81" y="25.44" width="402.19" height="278.2"/>
  </clipPath>
 </defs>
</svg>
