<?xml version="1.0" encoding="utf-8" standalone="no"?>
<!DOCTYPE svg PUBLIC "-//W3C//DTD SVG 1.1//EN"
  "http://www.w3.org/Graphics/SVG/1.1/DTD/svg11.dtd">
<svg xmlns:xlink="http://www.w3.org/1999/xlink" width="460.8pt" height="345.6pt" viewBox="0 0 460.8 345.6" xmlns="http://www.w3.org/2000/svg" version="1.1">
 <metadata>
  <rdf:RDF xmlns:dc="http://purl.org/dc/elements/1.1/" xmlns:cc="http://creativecommons.org/ns#" xmlns:rdf="http://www.w3.org/1999/02/22-rdf-syntax-ns#">
   <cc:Work>
    <dc:type rdf:resource="http://purl.org/dc/dcmitype/StillImage"/>
    <dc:date>2024-04-10T10:32:27.473981</dc:date>
    <dc:format>image/svg+xml</dc:format>
    <dc:creator>
     <cc:Agent>
      <dc:title>Matplotlib v3.8.0, https://matplotlib.org/</dc:title>
     </cc:Agent>
    </dc:creator>
   </cc:Work>
  </rdf:RDF>
 </metadata>
 <defs>
  <style type="text/css">*{stroke-linejoin: round; stroke-linecap: butt}</style>
 </defs>
 <g id="figure_1">
  <g id="patch_1">
   <path d="M 0 345.6 
L 460.8 345.6 
L 460.8 0 
L 0 0 
z
" style="fill: #ffffff"/>
  </g>
  <g id="axes_1">
   <g id="patch_2">
    <path d="M 47.81 303.64 
L 450 303.64 
L 450 25.44 
L 47.81 25.44 
z
" style="fill: #ffffff"/>
   </g>
   <g id="PolyCollection_1">
    <defs>
     <path id="m257fa8c493" d="M 66.091364 -166.182995 
L 66.091364 -166.182995 
L 69.784568 -202.099263 
L 73.477773 -195.937005 
L 77.170978 -199.0229 
L 80.864183 -197.970097 
L 84.557388 -208.369895 
L 88.250592 -211.369467 
L 91.943797 -215.276173 
L 95.637002 -219.788945 
L 99.330207 -226.695074 
L 103.023411 -231.505053 
L 106.716616 -238.245973 
L 110.409821 -243.244333 
L 114.103026 -247.110235 
L 117.79623 -248.172161 
L 121.489435 -250.882666 
L 125.18264 -254.102213 
L 128.875845 -259.973388 
L 132.56905 -261.955988 
L 136.262254 -263.643392 
L 139.955459 -266.64408 
L 143.648664 -269.2211 
L 147.341869 -270.141786 
L 151.035073 -272.187782 
L 154.728278 -275.389353 
L 158.421483 -278.924063 
L 162.114688 -280.72876 
L 165.807893 -282.339743 
L 169.501097 -283.277119 
L 173.194302 -286.343436 
L 176.887507 -287.01283 
L 180.580712 -289.045548 
L 184.273916 -290.888205 
L 187.967121 -292.097273 
L 187.967121 -215.729868 
L 187.967121 -215.729868 
L 184.273916 -214.592028 
L 180.580712 -213.47619 
L 176.887507 -212.359542 
L 173.194302 -211.157313 
L 169.501097 -210.170928 
L 165.807893 -208.891411 
L 162.114688 -207.570285 
L 158.421483 -206.217327 
L 154.728278 -205.151609 
L 151.035073 -203.989259 
L 147.341869 -202.585514 
L 143.648664 -201.095303 
L 139.955459 -199.614957 
L 136.262254 -198.152544 
L 132.56905 -196.473046 
L 128.875845 -194.714645 
L 125.18264 -193.779347 
L 121.489435 -192.131051 
L 117.79623 -190.316466 
L 114.103026 -188.332149 
L 110.409821 -186.394384 
L 106.716616 -184.621799 
L 103.023411 -183.360693 
L 99.330207 -181.543642 
L 95.637002 -180.350069 
L 91.943797 -178.457463 
L 88.250592 -176.253971 
L 84.557388 -173.586112 
L 80.864183 -173.076106 
L 77.170978 -170.535603 
L 73.477773 -166.182995 
L 69.784568 -160.020737 
L 66.091364 -166.182995 
z
" style="stroke: #0000ff; stroke-opacity: 0.2"/>
    </defs>
    <g clip-path="url(#pc32b47781f)">
     <use xlink:href="#m257fa8c493" x="0" y="345.6" style="fill: #0000ff; fill-opacity: 0.2; stroke: #0000ff; stroke-opacity: 0.2"/>
    </g>
   </g>
   <g id="PolyCollection_2">
    <defs>
     <path id="me15c4279b3" d="M 66.091364 -166.182995 
L 66.091364 -166.182995 
L 69.784568 -172.345252 
L 73.477773 -166.182995 
L 77.170978 -162.150025 
L 80.864183 -160.500484 
L 84.557388 -157.456988 
L 88.250592 -155.016077 
L 91.943797 -157.787308 
L 95.637002 -156.264991 
L 99.330207 -154.76929 
L 103.023411 -158.502016 
L 106.716616 -157.352303 
L 110.409821 -156.352951 
L 114.103026 -156.741317 
L 117.79623 -159.53466 
L 121.489435 -158.108464 
L 125.18264 -157.061681 
L 128.875845 -158.411964 
L 132.56905 -157.842289 
L 136.262254 -156.783012 
L 139.955459 -156.364603 
L 143.648664 -155.366189 
L 147.341869 -156.047475 
L 151.035073 -155.714815 
L 154.728278 -154.841577 
L 158.421483 -154.988228 
L 162.114688 -154.243208 
L 165.807893 -154.391406 
L 169.501097 -153.895405 
L 173.194302 -155.553366 
L 176.887507 -155.29932 
L 180.580712 -155.751326 
L 184.273916 -155.791663 
L 187.967121 -157.016034 
L 191.660326 -156.311173 
L 195.353531 -156.115994 
L 199.046736 -155.453184 
L 202.73994 -155.899296 
L 206.433145 -156.68555 
L 210.12635 -156.077093 
L 213.819555 -155.907973 
L 217.512759 -155.985225 
L 221.205964 -155.408353 
L 224.899169 -155.495306 
L 228.592374 -154.94903 
L 232.285579 -155.642861 
L 235.978783 -155.979616 
L 239.671988 -155.553126 
L 243.365193 -155.25297 
L 247.058398 -155.323077 
L 250.751602 -155.188167 
L 254.444807 -154.804188 
L 258.138012 -155.393309 
L 261.831217 -155.021759 
L 265.524421 -155.65865 
L 269.217626 -155.23211 
L 272.910831 -154.882333 
L 276.604036 -154.450916 
L 280.297241 -154.121558 
L 283.990445 -154.22191 
L 287.68365 -154.141861 
L 291.376855 -154.233783 
L 295.07006 -154.02137 
L 298.763264 -153.814153 
L 302.456469 -153.611922 
L 306.149674 -153.701519 
L 309.842879 -153.979471 
L 313.536084 -153.697232 
L 317.229288 -153.777075 
L 320.922493 -153.702252 
L 324.615698 -153.514237 
L 328.308903 -153.206586 
L 332.002107 -152.904872 
L 335.695312 -152.98926 
L 339.388517 -152.707283 
L 343.081722 -152.542511 
L 346.774927 -152.315807 
L 350.468131 -152.409983 
L 354.161336 -152.499993 
L 357.854541 -152.58604 
L 361.547746 -153.248228 
L 365.24095 -152.979605 
L 368.934155 -153.212065 
L 372.62736 -152.94056 
L 376.320565 -152.689279 
L 380.01377 -153.811838 
L 383.706974 -153.753094 
L 387.400179 -153.706731 
L 391.093384 -153.493797 
L 394.786589 -153.240437 
L 398.479793 -153.081228 
L 402.172998 -153.041898 
L 405.866203 -153.119686 
L 409.559408 -152.988362 
L 413.252612 -152.793957 
L 416.945817 -152.602825 
L 420.639022 -153.163908 
L 424.332227 -153.233377 
L 428.025432 -153.588651 
L 431.718636 -154.10925 
L 431.718636 -106.400804 
L 431.718636 -106.400804 
L 428.025432 -106.195585 
L 424.332227 -105.962035 
L 420.639022 -105.737282 
L 416.945817 -105.533107 
L 413.252612 -105.500205 
L 409.559408 -105.467398 
L 405.866203 -105.34118 
L 402.172998 -105.100772 
L 398.479793 -104.899734 
L 394.786589 -105.732326 
L 391.093384 -106.158739 
L 387.400179 -106.133857 
L 383.706974 -107.305869 
L 380.01377 -107.109928 
L 376.320565 -107.041919 
L 372.62736 -107.519903 
L 368.934155 -107.815995 
L 365.24095 -107.541335 
L 361.547746 -107.671402 
L 357.854541 -107.440511 
L 354.161336 -107.175818 
L 350.468131 -106.906095 
L 346.774927 -106.631195 
L 343.081722 -107.395952 
L 339.388517 -107.257281 
L 335.695312 -107.806271 
L 332.002107 -107.521626 
L 328.308903 -107.667128 
L 324.615698 -107.81929 
L 320.922493 -107.679169 
L 317.229288 -107.438019 
L 313.536084 -107.127864 
L 309.842879 -107.11012 
L 306.149674 -106.758944 
L 302.456469 -106.428933 
L 298.763264 -106.258889 
L 295.07006 -106.084879 
L 291.376855 -105.906745 
L 287.68365 -105.546299 
L 283.990445 -105.246753 
L 280.297241 -104.868015 
L 276.604036 -104.812547 
L 272.910831 -105.18663 
L 269.217626 -105.1398 
L 265.524421 -105.297714 
L 261.831217 -108.744705 
L 258.138012 -108.763014 
L 254.444807 -108.326507 
L 250.751602 -108.335209 
L 247.058398 -108.013608 
L 243.365193 -107.58579 
L 239.671988 -107.386838 
L 235.978783 -107.382391 
L 232.285579 -106.865885 
L 228.592374 -106.337934 
L 224.899169 -106.881135 
L 221.205964 -106.378355 
L 217.512759 -106.954739 
L 213.819555 -106.427235 
L 210.12635 -105.995046 
L 206.433145 -106.254415 
L 202.73994 -105.605168 
L 199.046736 -104.940266 
L 195.353531 -105.99747 
L 191.660326 -105.495306 
L 187.967121 -105.778077 
L 184.273916 -111.656484 
L 180.580712 -111.062858 
L 176.887507 -110.360097 
L 173.194302 -109.866099 
L 169.501097 -109.215559 
L 165.807893 -108.902773 
L 162.114688 -108.145757 
L 158.421483 -108.142467 
L 154.728278 -107.304947 
L 151.035073 -109.084775 
L 147.341869 -108.40175 
L 143.648664 -107.348366 
L 139.955459 -109.409077 
L 136.262254 -108.636453 
L 132.56905 -111.100677 
L 128.875845 -115.272504 
L 125.18264 -114.046051 
L 121.489435 -113.819691 
L 117.79623 -115.306909 
L 114.103026 -126.743083 
L 110.409821 -125.660098 
L 106.716616 -125.423669 
L 103.023411 -125.175592 
L 99.330207 -124.03948 
L 95.637002 -126.51098 
L 91.943797 -126.228414 
L 88.250592 -124.21775 
L 84.557388 -125.318983 
L 80.864183 -127.234489 
L 77.170978 -136.742702 
L 73.477773 -136.428984 
L 69.784568 -130.266727 
L 66.091364 -166.182995 
z
" style="stroke: #ff0000; stroke-opacity: 0.1"/>
    </defs>
    <g clip-path="url(#pc32b47781f)">
     <use xlink:href="#me15c4279b3" x="0" y="345.6" style="fill: #ff0000; fill-opacity: 0.1; stroke: #ff0000; stroke-opacity: 0.1"/>
    </g>
   </g>
   <g id="matplotlib.axis_1">
    <g id="xtick_1">
     <g id="line2d_1">
      <defs>
       <path id="m28d475084b" d="M 0 0 
L 0 3.5 
" style="stroke: #000000; stroke-width: 0.8"/>
      </defs>
      <g>
       <use xlink:href="#m28d475084b" x="66.091364" y="303.64" style="stroke: #000000; stroke-width: 0.8"/>
      </g>
     </g>
     <g id="text_1">
      <!-- 0 -->
      <g transform="translate(62.910114 318.238437) scale(0.1 -0.1)">
       <defs>
        <path id="DejaVuSans-30" d="M 2034 4250 
Q 1547 4250 1301 3770 
Q 1056 3291 1056 2328 
Q 1056 1369 1301 889 
Q 1547 409 2034 409 
Q 2525 409 2770 889 
Q 3016 1369 3016 2328 
Q 3016 3291 2770 3770 
Q 2525 4250 2034 4250 
z
M 2034 4750 
Q 2819 4750 3233 4129 
Q 3647 3509 3647 2328 
Q 3647 1150 3233 529 
Q 2819 -91 2034 -91 
Q 1250 -91 836 529 
Q 422 1150 422 2328 
Q 422 3509 836 4129 
Q 1250 4750 2034 4750 
z
" transform="scale(0.015625)"/>
       </defs>
       <use xlink:href="#DejaVuSans-30"/>
      </g>
     </g>
    </g>
    <g id="xtick_2">
     <g id="line2d_2">
      <g>
       <use xlink:href="#m28d475084b" x="139.955459" y="303.64" style="stroke: #000000; stroke-width: 0.8"/>
      </g>
     </g>
     <g id="text_2">
      <!-- 20 -->
      <g transform="translate(133.592959 318.238437) scale(0.1 -0.1)">
       <defs>
        <path id="DejaVuSans-32" d="M 1228 531 
L 3431 531 
L 3431 0 
L 469 0 
L 469 531 
Q 828 903 1448 1529 
Q 2069 2156 2228 2338 
Q 2531 2678 2651 2914 
Q 2772 3150 2772 3378 
Q 2772 3750 2511 3984 
Q 2250 4219 1831 4219 
Q 1534 4219 1204 4116 
Q 875 4013 500 3803 
L 500 4441 
Q 881 4594 1212 4672 
Q 1544 4750 1819 4750 
Q 2544 4750 2975 4387 
Q 3406 4025 3406 3419 
Q 3406 3131 3298 2873 
Q 3191 2616 2906 2266 
Q 2828 2175 2409 1742 
Q 1991 1309 1228 531 
z
" transform="scale(0.015625)"/>
       </defs>
       <use xlink:href="#DejaVuSans-32"/>
       <use xlink:href="#DejaVuSans-30" x="63.623047"/>
      </g>
     </g>
    </g>
    <g id="xtick_3">
     <g id="line2d_3">
      <g>
       <use xlink:href="#m28d475084b" x="213.819555" y="303.64" style="stroke: #000000; stroke-width: 0.8"/>
      </g>
     </g>
     <g id="text_3">
      <!-- 40 -->
      <g transform="translate(207.457055 318.238437) scale(0.1 -0.1)">
       <defs>
        <path id="DejaVuSans-34" d="M 2419 4116 
L 825 1625 
L 2419 1625 
L 2419 4116 
z
M 2253 4666 
L 3047 4666 
L 3047 1625 
L 3713 1625 
L 3713 1100 
L 3047 1100 
L 3047 0 
L 2419 0 
L 2419 1100 
L 313 1100 
L 313 1709 
L 2253 4666 
z
" transform="scale(0.015625)"/>
       </defs>
       <use xlink:href="#DejaVuSans-34"/>
       <use xlink:href="#DejaVuSans-30" x="63.623047"/>
      </g>
     </g>
    </g>
    <g id="xtick_4">
     <g id="line2d_4">
      <g>
       <use xlink:href="#m28d475084b" x="287.68365" y="303.64" style="stroke: #000000; stroke-width: 0.8"/>
      </g>
     </g>
     <g id="text_4">
      <!-- 60 -->
      <g transform="translate(281.32115 318.238437) scale(0.1 -0.1)">
       <defs>
        <path id="DejaVuSans-36" d="M 2113 2584 
Q 1688 2584 1439 2293 
Q 1191 2003 1191 1497 
Q 1191 994 1439 701 
Q 1688 409 2113 409 
Q 2538 409 2786 701 
Q 3034 994 3034 1497 
Q 3034 2003 2786 2293 
Q 2538 2584 2113 2584 
z
M 3366 4563 
L 3366 3988 
Q 3128 4100 2886 4159 
Q 2644 4219 2406 4219 
Q 1781 4219 1451 3797 
Q 1122 3375 1075 2522 
Q 1259 2794 1537 2939 
Q 1816 3084 2150 3084 
Q 2853 3084 3261 2657 
Q 3669 2231 3669 1497 
Q 3669 778 3244 343 
Q 2819 -91 2113 -91 
Q 1303 -91 875 529 
Q 447 1150 447 2328 
Q 447 3434 972 4092 
Q 1497 4750 2381 4750 
Q 2619 4750 2861 4703 
Q 3103 4656 3366 4563 
z
" transform="scale(0.015625)"/>
       </defs>
       <use xlink:href="#DejaVuSans-36"/>
       <use xlink:href="#DejaVuSans-30" x="63.623047"/>
      </g>
     </g>
    </g>
    <g id="xtick_5">
     <g id="line2d_5">
      <g>
       <use xlink:href="#m28d475084b" x="361.547746" y="303.64" style="stroke: #000000; stroke-width: 0.8"/>
      </g>
     </g>
     <g id="text_5">
      <!-- 80 -->
      <g transform="translate(355.185246 318.238437) scale(0.1 -0.1)">
       <defs>
        <path id="DejaVuSans-38" d="M 2034 2216 
Q 1584 2216 1326 1975 
Q 1069 1734 1069 1313 
Q 1069 891 1326 650 
Q 1584 409 2034 409 
Q 2484 409 2743 651 
Q 3003 894 3003 1313 
Q 3003 1734 2745 1975 
Q 2488 2216 2034 2216 
z
M 1403 2484 
Q 997 2584 770 2862 
Q 544 3141 544 3541 
Q 544 4100 942 4425 
Q 1341 4750 2034 4750 
Q 2731 4750 3128 4425 
Q 3525 4100 3525 3541 
Q 3525 3141 3298 2862 
Q 3072 2584 2669 2484 
Q 3125 2378 3379 2068 
Q 3634 1759 3634 1313 
Q 3634 634 3220 271 
Q 2806 -91 2034 -91 
Q 1263 -91 848 271 
Q 434 634 434 1313 
Q 434 1759 690 2068 
Q 947 2378 1403 2484 
z
M 1172 3481 
Q 1172 3119 1398 2916 
Q 1625 2713 2034 2713 
Q 2441 2713 2670 2916 
Q 2900 3119 2900 3481 
Q 2900 3844 2670 4047 
Q 2441 4250 2034 4250 
Q 1625 4250 1398 4047 
Q 1172 3844 1172 3481 
z
" transform="scale(0.015625)"/>
       </defs>
       <use xlink:href="#DejaVuSans-38"/>
       <use xlink:href="#DejaVuSans-30" x="63.623047"/>
      </g>
     </g>
    </g>
    <g id="xtick_6">
     <g id="line2d_6">
      <g>
       <use xlink:href="#m28d475084b" x="435.411841" y="303.64" style="stroke: #000000; stroke-width: 0.8"/>
      </g>
     </g>
     <g id="text_6">
      <!-- 100 -->
      <g transform="translate(425.868091 318.238437) scale(0.1 -0.1)">
       <defs>
        <path id="DejaVuSans-31" d="M 794 531 
L 1825 531 
L 1825 4091 
L 703 3866 
L 703 4441 
L 1819 4666 
L 2450 4666 
L 2450 531 
L 3481 531 
L 3481 0 
L 794 0 
L 794 531 
z
" transform="scale(0.015625)"/>
       </defs>
       <use xlink:href="#DejaVuSans-31"/>
       <use xlink:href="#DejaVuSans-30" x="63.623047"/>
       <use xlink:href="#DejaVuSans-30" x="127.246094"/>
      </g>
     </g>
    </g>
    <g id="text_7">
     <!-- Iteration -->
     <g transform="translate(227.696406 331.916562) scale(0.1 -0.1)">
      <defs>
       <path id="DejaVuSans-49" d="M 628 4666 
L 1259 4666 
L 1259 0 
L 628 0 
L 628 4666 
z
" transform="scale(0.015625)"/>
       <path id="DejaVuSans-74" d="M 1172 4494 
L 1172 3500 
L 2356 3500 
L 2356 3053 
L 1172 3053 
L 1172 1153 
Q 1172 725 1289 603 
Q 1406 481 1766 481 
L 2356 481 
L 2356 0 
L 1766 0 
Q 1100 0 847 248 
Q 594 497 594 1153 
L 594 3053 
L 172 3053 
L 172 3500 
L 594 3500 
L 594 4494 
L 1172 4494 
z
" transform="scale(0.015625)"/>
       <path id="DejaVuSans-65" d="M 3597 1894 
L 3597 1613 
L 953 1613 
Q 991 1019 1311 708 
Q 1631 397 2203 397 
Q 2534 397 2845 478 
Q 3156 559 3463 722 
L 3463 178 
Q 3153 47 2828 -22 
Q 2503 -91 2169 -91 
Q 1331 -91 842 396 
Q 353 884 353 1716 
Q 353 2575 817 3079 
Q 1281 3584 2069 3584 
Q 2775 3584 3186 3129 
Q 3597 2675 3597 1894 
z
M 3022 2063 
Q 3016 2534 2758 2815 
Q 2500 3097 2075 3097 
Q 1594 3097 1305 2825 
Q 1016 2553 972 2059 
L 3022 2063 
z
" transform="scale(0.015625)"/>
       <path id="DejaVuSans-72" d="M 2631 2963 
Q 2534 3019 2420 3045 
Q 2306 3072 2169 3072 
Q 1681 3072 1420 2755 
Q 1159 2438 1159 1844 
L 1159 0 
L 581 0 
L 581 3500 
L 1159 3500 
L 1159 2956 
Q 1341 3275 1631 3429 
Q 1922 3584 2338 3584 
Q 2397 3584 2469 3576 
Q 2541 3569 2628 3553 
L 2631 2963 
z
" transform="scale(0.015625)"/>
       <path id="DejaVuSans-61" d="M 2194 1759 
Q 1497 1759 1228 1600 
Q 959 1441 959 1056 
Q 959 750 1161 570 
Q 1363 391 1709 391 
Q 2188 391 2477 730 
Q 2766 1069 2766 1631 
L 2766 1759 
L 2194 1759 
z
M 3341 1997 
L 3341 0 
L 2766 0 
L 2766 531 
Q 2569 213 2275 61 
Q 1981 -91 1556 -91 
Q 1019 -91 701 211 
Q 384 513 384 1019 
Q 384 1609 779 1909 
Q 1175 2209 1959 2209 
L 2766 2209 
L 2766 2266 
Q 2766 2663 2505 2880 
Q 2244 3097 1772 3097 
Q 1472 3097 1187 3025 
Q 903 2953 641 2809 
L 641 3341 
Q 956 3463 1253 3523 
Q 1550 3584 1831 3584 
Q 2591 3584 2966 3190 
Q 3341 2797 3341 1997 
z
" transform="scale(0.015625)"/>
       <path id="DejaVuSans-69" d="M 603 3500 
L 1178 3500 
L 1178 0 
L 603 0 
L 603 3500 
z
M 603 4863 
L 1178 4863 
L 1178 4134 
L 603 4134 
L 603 4863 
z
" transform="scale(0.015625)"/>
       <path id="DejaVuSans-6f" d="M 1959 3097 
Q 1497 3097 1228 2736 
Q 959 2375 959 1747 
Q 959 1119 1226 758 
Q 1494 397 1959 397 
Q 2419 397 2687 759 
Q 2956 1122 2956 1747 
Q 2956 2369 2687 2733 
Q 2419 3097 1959 3097 
z
M 1959 3584 
Q 2709 3584 3137 3096 
Q 3566 2609 3566 1747 
Q 3566 888 3137 398 
Q 2709 -91 1959 -91 
Q 1206 -91 779 398 
Q 353 888 353 1747 
Q 353 2609 779 3096 
Q 1206 3584 1959 3584 
z
" transform="scale(0.015625)"/>
       <path id="DejaVuSans-6e" d="M 3513 2113 
L 3513 0 
L 2938 0 
L 2938 2094 
Q 2938 2591 2744 2837 
Q 2550 3084 2163 3084 
Q 1697 3084 1428 2787 
Q 1159 2491 1159 1978 
L 1159 0 
L 581 0 
L 581 3500 
L 1159 3500 
L 1159 2956 
Q 1366 3272 1645 3428 
Q 1925 3584 2291 3584 
Q 2894 3584 3203 3211 
Q 3513 2838 3513 2113 
z
" transform="scale(0.015625)"/>
      </defs>
      <use xlink:href="#DejaVuSans-49"/>
      <use xlink:href="#DejaVuSans-74" x="29.492188"/>
      <use xlink:href="#DejaVuSans-65" x="68.701172"/>
      <use xlink:href="#DejaVuSans-72" x="130.224609"/>
      <use xlink:href="#DejaVuSans-61" x="171.337891"/>
      <use xlink:href="#DejaVuSans-74" x="232.617188"/>
      <use xlink:href="#DejaVuSans-69" x="271.826172"/>
      <use xlink:href="#DejaVuSans-6f" x="299.609375"/>
      <use xlink:href="#DejaVuSans-6e" x="360.791016"/>
     </g>
    </g>
   </g>
   <g id="matplotlib.axis_2">
    <g id="ytick_1">
     <g id="line2d_7">
      <defs>
       <path id="mfc63018637" d="M 0 0 
L -3.5 0 
" style="stroke: #000000; stroke-width: 0.8"/>
      </defs>
      <g>
       <use xlink:href="#mfc63018637" x="47.81" y="290.994545" style="stroke: #000000; stroke-width: 0.8"/>
      </g>
     </g>
     <g id="text_8">
      <!-- 0.3 -->
      <g transform="translate(24.906875 294.793764) scale(0.1 -0.1)">
       <defs>
        <path id="DejaVuSans-2e" d="M 684 794 
L 1344 794 
L 1344 0 
L 684 0 
L 684 794 
z
" transform="scale(0.015625)"/>
        <path id="DejaVuSans-33" d="M 2597 2516 
Q 3050 2419 3304 2112 
Q 3559 1806 3559 1356 
Q 3559 666 3084 287 
Q 2609 -91 1734 -91 
Q 1441 -91 1130 -33 
Q 819 25 488 141 
L 488 750 
Q 750 597 1062 519 
Q 1375 441 1716 441 
Q 2309 441 2620 675 
Q 2931 909 2931 1356 
Q 2931 1769 2642 2001 
Q 2353 2234 1838 2234 
L 1294 2234 
L 1294 2753 
L 1863 2753 
Q 2328 2753 2575 2939 
Q 2822 3125 2822 3475 
Q 2822 3834 2567 4026 
Q 2313 4219 1838 4219 
Q 1578 4219 1281 4162 
Q 984 4106 628 3988 
L 628 4550 
Q 988 4650 1302 4700 
Q 1616 4750 1894 4750 
Q 2613 4750 3031 4423 
Q 3450 4097 3450 3541 
Q 3450 3153 3228 2886 
Q 3006 2619 2597 2516 
z
" transform="scale(0.015625)"/>
       </defs>
       <use xlink:href="#DejaVuSans-30"/>
       <use xlink:href="#DejaVuSans-2e" x="63.623047"/>
       <use xlink:href="#DejaVuSans-33" x="95.410156"/>
      </g>
     </g>
    </g>
    <g id="ytick_2">
     <g id="line2d_8">
      <g>
       <use xlink:href="#mfc63018637" x="47.81" y="253.802032" style="stroke: #000000; stroke-width: 0.8"/>
      </g>
     </g>
     <g id="text_9">
      <!-- 0.4 -->
      <g transform="translate(24.906875 257.601251) scale(0.1 -0.1)">
       <use xlink:href="#DejaVuSans-30"/>
       <use xlink:href="#DejaVuSans-2e" x="63.623047"/>
       <use xlink:href="#DejaVuSans-34" x="95.410156"/>
      </g>
     </g>
    </g>
    <g id="ytick_3">
     <g id="line2d_9">
      <g>
       <use xlink:href="#mfc63018637" x="47.81" y="216.609519" style="stroke: #000000; stroke-width: 0.8"/>
      </g>
     </g>
     <g id="text_10">
      <!-- 0.5 -->
      <g transform="translate(24.906875 220.408737) scale(0.1 -0.1)">
       <defs>
        <path id="DejaVuSans-35" d="M 691 4666 
L 3169 4666 
L 3169 4134 
L 1269 4134 
L 1269 2991 
Q 1406 3038 1543 3061 
Q 1681 3084 1819 3084 
Q 2600 3084 3056 2656 
Q 3513 2228 3513 1497 
Q 3513 744 3044 326 
Q 2575 -91 1722 -91 
Q 1428 -91 1123 -41 
Q 819 9 494 109 
L 494 744 
Q 775 591 1075 516 
Q 1375 441 1709 441 
Q 2250 441 2565 725 
Q 2881 1009 2881 1497 
Q 2881 1984 2565 2268 
Q 2250 2553 1709 2553 
Q 1456 2553 1204 2497 
Q 953 2441 691 2322 
L 691 4666 
z
" transform="scale(0.015625)"/>
       </defs>
       <use xlink:href="#DejaVuSans-30"/>
       <use xlink:href="#DejaVuSans-2e" x="63.623047"/>
       <use xlink:href="#DejaVuSans-35" x="95.410156"/>
      </g>
     </g>
    </g>
    <g id="ytick_4">
     <g id="line2d_10">
      <g>
       <use xlink:href="#mfc63018637" x="47.81" y="179.417005" style="stroke: #000000; stroke-width: 0.8"/>
      </g>
     </g>
     <g id="text_11">
      <!-- 0.6 -->
      <g transform="translate(24.906875 183.216224) scale(0.1 -0.1)">
       <use xlink:href="#DejaVuSans-30"/>
       <use xlink:href="#DejaVuSans-2e" x="63.623047"/>
       <use xlink:href="#DejaVuSans-36" x="95.410156"/>
      </g>
     </g>
    </g>
    <g id="ytick_5">
     <g id="line2d_11">
      <g>
       <use xlink:href="#mfc63018637" x="47.81" y="142.224492" style="stroke: #000000; stroke-width: 0.8"/>
      </g>
     </g>
     <g id="text_12">
      <!-- 0.7 -->
      <g transform="translate(24.906875 146.023711) scale(0.1 -0.1)">
       <defs>
        <path id="DejaVuSans-37" d="M 525 4666 
L 3525 4666 
L 3525 4397 
L 1831 0 
L 1172 0 
L 2766 4134 
L 525 4134 
L 525 4666 
z
" transform="scale(0.015625)"/>
       </defs>
       <use xlink:href="#DejaVuSans-30"/>
       <use xlink:href="#DejaVuSans-2e" x="63.623047"/>
       <use xlink:href="#DejaVuSans-37" x="95.410156"/>
      </g>
     </g>
    </g>
    <g id="ytick_6">
     <g id="line2d_12">
      <g>
       <use xlink:href="#mfc63018637" x="47.81" y="105.031979" style="stroke: #000000; stroke-width: 0.8"/>
      </g>
     </g>
     <g id="text_13">
      <!-- 0.8 -->
      <g transform="translate(24.906875 108.831197) scale(0.1 -0.1)">
       <use xlink:href="#DejaVuSans-30"/>
       <use xlink:href="#DejaVuSans-2e" x="63.623047"/>
       <use xlink:href="#DejaVuSans-38" x="95.410156"/>
      </g>
     </g>
    </g>
    <g id="ytick_7">
     <g id="line2d_13">
      <g>
       <use xlink:href="#mfc63018637" x="47.81" y="67.839465" style="stroke: #000000; stroke-width: 0.8"/>
      </g>
     </g>
     <g id="text_14">
      <!-- 0.9 -->
      <g transform="translate(24.906875 71.638684) scale(0.1 -0.1)">
       <defs>
        <path id="DejaVuSans-39" d="M 703 97 
L 703 672 
Q 941 559 1184 500 
Q 1428 441 1663 441 
Q 2288 441 2617 861 
Q 2947 1281 2994 2138 
Q 2813 1869 2534 1725 
Q 2256 1581 1919 1581 
Q 1219 1581 811 2004 
Q 403 2428 403 3163 
Q 403 3881 828 4315 
Q 1253 4750 1959 4750 
Q 2769 4750 3195 4129 
Q 3622 3509 3622 2328 
Q 3622 1225 3098 567 
Q 2575 -91 1691 -91 
Q 1453 -91 1209 -44 
Q 966 3 703 97 
z
M 1959 2075 
Q 2384 2075 2632 2365 
Q 2881 2656 2881 3163 
Q 2881 3666 2632 3958 
Q 2384 4250 1959 4250 
Q 1534 4250 1286 3958 
Q 1038 3666 1038 3163 
Q 1038 2656 1286 2365 
Q 1534 2075 1959 2075 
z
" transform="scale(0.015625)"/>
       </defs>
       <use xlink:href="#DejaVuSans-30"/>
       <use xlink:href="#DejaVuSans-2e" x="63.623047"/>
       <use xlink:href="#DejaVuSans-39" x="95.410156"/>
      </g>
     </g>
    </g>
    <g id="ytick_8">
     <g id="line2d_14">
      <g>
       <use xlink:href="#mfc63018637" x="47.81" y="30.646952" style="stroke: #000000; stroke-width: 0.8"/>
      </g>
     </g>
     <g id="text_15">
      <!-- 1.0 -->
      <g transform="translate(24.906875 34.446171) scale(0.1 -0.1)">
       <use xlink:href="#DejaVuSans-31"/>
       <use xlink:href="#DejaVuSans-2e" x="63.623047"/>
       <use xlink:href="#DejaVuSans-30" x="95.410156"/>
      </g>
     </g>
    </g>
    <g id="text_16">
     <!-- Avg action -->
     <g transform="translate(18.827187 190.779844) rotate(-90) scale(0.1 -0.1)">
      <defs>
       <path id="DejaVuSans-41" d="M 2188 4044 
L 1331 1722 
L 3047 1722 
L 2188 4044 
z
M 1831 4666 
L 2547 4666 
L 4325 0 
L 3669 0 
L 3244 1197 
L 1141 1197 
L 716 0 
L 50 0 
L 1831 4666 
z
" transform="scale(0.015625)"/>
       <path id="DejaVuSans-76" d="M 191 3500 
L 800 3500 
L 1894 563 
L 2988 3500 
L 3597 3500 
L 2284 0 
L 1503 0 
L 191 3500 
z
" transform="scale(0.015625)"/>
       <path id="DejaVuSans-67" d="M 2906 1791 
Q 2906 2416 2648 2759 
Q 2391 3103 1925 3103 
Q 1463 3103 1205 2759 
Q 947 2416 947 1791 
Q 947 1169 1205 825 
Q 1463 481 1925 481 
Q 2391 481 2648 825 
Q 2906 1169 2906 1791 
z
M 3481 434 
Q 3481 -459 3084 -895 
Q 2688 -1331 1869 -1331 
Q 1566 -1331 1297 -1286 
Q 1028 -1241 775 -1147 
L 775 -588 
Q 1028 -725 1275 -790 
Q 1522 -856 1778 -856 
Q 2344 -856 2625 -561 
Q 2906 -266 2906 331 
L 2906 616 
Q 2728 306 2450 153 
Q 2172 0 1784 0 
Q 1141 0 747 490 
Q 353 981 353 1791 
Q 353 2603 747 3093 
Q 1141 3584 1784 3584 
Q 2172 3584 2450 3431 
Q 2728 3278 2906 2969 
L 2906 3500 
L 3481 3500 
L 3481 434 
z
" transform="scale(0.015625)"/>
       <path id="DejaVuSans-20" transform="scale(0.015625)"/>
       <path id="DejaVuSans-63" d="M 3122 3366 
L 3122 2828 
Q 2878 2963 2633 3030 
Q 2388 3097 2138 3097 
Q 1578 3097 1268 2742 
Q 959 2388 959 1747 
Q 959 1106 1268 751 
Q 1578 397 2138 397 
Q 2388 397 2633 464 
Q 2878 531 3122 666 
L 3122 134 
Q 2881 22 2623 -34 
Q 2366 -91 2075 -91 
Q 1284 -91 818 406 
Q 353 903 353 1747 
Q 353 2603 823 3093 
Q 1294 3584 2113 3584 
Q 2378 3584 2631 3529 
Q 2884 3475 3122 3366 
z
" transform="scale(0.015625)"/>
      </defs>
      <use xlink:href="#DejaVuSans-41"/>
      <use xlink:href="#DejaVuSans-76" x="62.533203"/>
      <use xlink:href="#DejaVuSans-67" x="121.712891"/>
      <use xlink:href="#DejaVuSans-20" x="185.189453"/>
      <use xlink:href="#DejaVuSans-61" x="216.976562"/>
      <use xlink:href="#DejaVuSans-63" x="278.255859"/>
      <use xlink:href="#DejaVuSans-74" x="333.236328"/>
      <use xlink:href="#DejaVuSans-69" x="372.445312"/>
      <use xlink:href="#DejaVuSans-6f" x="400.228516"/>
      <use xlink:href="#DejaVuSans-6e" x="461.410156"/>
     </g>
    </g>
   </g>
   <g id="line2d_15">
    <path d="M 66.091364 179.417005 
L 69.784568 149.662995 
L 73.477773 164.54 
L 77.170978 149.662995 
L 80.864183 157.101497 
L 84.557388 127.347487 
L 88.250592 134.785989 
L 91.943797 127.347487 
L 95.637002 119.908984 
L 99.330207 105.031979 
L 103.023411 105.031979 
L 106.716616 90.154973 
L 110.409821 90.154973 
L 114.103026 90.154973 
L 117.79623 105.031979 
L 121.489435 90.154973 
L 125.18264 82.716471 
L 128.875845 60.400963 
L 132.56905 82.716471 
L 136.262254 82.716471 
L 139.955459 67.839465 
L 143.648664 67.839465 
L 147.341869 82.716471 
L 151.035073 67.839465 
L 154.728278 52.96246 
L 158.421483 45.523957 
L 162.114688 60.400963 
L 165.807893 60.400963 
L 169.501097 67.839465 
L 173.194302 38.085455 
L 176.887507 67.839465 
L 180.580712 45.523957 
L 184.273916 45.523957 
L 187.967121 52.96246 
" clip-path="url(#pc32b47781f)" style="fill: none; stroke: #0000ff; stroke-linecap: square"/>
    <defs>
     <path id="m01d184c391" d="M -0.49999 0.49999 
L 0.50001 0.49999 
L 0.50001 -0.50001 
L -0.49999 -0.50001 
z
"/>
    </defs>
    <g clip-path="url(#pc32b47781f)">
     <use xlink:href="#m01d184c391" x="66.091364" y="179.417005" style="fill: #0000ff"/>
     <use xlink:href="#m01d184c391" x="69.784568" y="149.662995" style="fill: #0000ff"/>
     <use xlink:href="#m01d184c391" x="73.477773" y="164.54" style="fill: #0000ff"/>
     <use xlink:href="#m01d184c391" x="77.170978" y="149.662995" style="fill: #0000ff"/>
     <use xlink:href="#m01d184c391" x="80.864183" y="157.101497" style="fill: #0000ff"/>
     <use xlink:href="#m01d184c391" x="84.557388" y="127.347487" style="fill: #0000ff"/>
     <use xlink:href="#m01d184c391" x="88.250592" y="134.785989" style="fill: #0000ff"/>
     <use xlink:href="#m01d184c391" x="91.943797" y="127.347487" style="fill: #0000ff"/>
     <use xlink:href="#m01d184c391" x="95.637002" y="119.908984" style="fill: #0000ff"/>
     <use xlink:href="#m01d184c391" x="99.330207" y="105.031979" style="fill: #0000ff"/>
     <use xlink:href="#m01d184c391" x="103.023411" y="105.031979" style="fill: #0000ff"/>
     <use xlink:href="#m01d184c391" x="106.716616" y="90.154973" style="fill: #0000ff"/>
     <use xlink:href="#m01d184c391" x="110.409821" y="90.154973" style="fill: #0000ff"/>
     <use xlink:href="#m01d184c391" x="114.103026" y="90.154973" style="fill: #0000ff"/>
     <use xlink:href="#m01d184c391" x="117.79623" y="105.031979" style="fill: #0000ff"/>
     <use xlink:href="#m01d184c391" x="121.489435" y="90.154973" style="fill: #0000ff"/>
     <use xlink:href="#m01d184c391" x="125.18264" y="82.716471" style="fill: #0000ff"/>
     <use xlink:href="#m01d184c391" x="128.875845" y="60.400963" style="fill: #0000ff"/>
     <use xlink:href="#m01d184c391" x="132.56905" y="82.716471" style="fill: #0000ff"/>
     <use xlink:href="#m01d184c391" x="136.262254" y="82.716471" style="fill: #0000ff"/>
     <use xlink:href="#m01d184c391" x="139.955459" y="67.839465" style="fill: #0000ff"/>
     <use xlink:href="#m01d184c391" x="143.648664" y="67.839465" style="fill: #0000ff"/>
     <use xlink:href="#m01d184c391" x="147.341869" y="82.716471" style="fill: #0000ff"/>
     <use xlink:href="#m01d184c391" x="151.035073" y="67.839465" style="fill: #0000ff"/>
     <use xlink:href="#m01d184c391" x="154.728278" y="52.96246" style="fill: #0000ff"/>
     <use xlink:href="#m01d184c391" x="158.421483" y="45.523957" style="fill: #0000ff"/>
     <use xlink:href="#m01d184c391" x="162.114688" y="60.400963" style="fill: #0000ff"/>
     <use xlink:href="#m01d184c391" x="165.807893" y="60.400963" style="fill: #0000ff"/>
     <use xlink:href="#m01d184c391" x="169.501097" y="67.839465" style="fill: #0000ff"/>
     <use xlink:href="#m01d184c391" x="173.194302" y="38.085455" style="fill: #0000ff"/>
     <use xlink:href="#m01d184c391" x="176.887507" y="67.839465" style="fill: #0000ff"/>
     <use xlink:href="#m01d184c391" x="180.580712" y="45.523957" style="fill: #0000ff"/>
     <use xlink:href="#m01d184c391" x="184.273916" y="45.523957" style="fill: #0000ff"/>
     <use xlink:href="#m01d184c391" x="187.967121" y="52.96246" style="fill: #0000ff"/>
    </g>
   </g>
   <g id="line2d_16">
    <path d="M 66.091364 179.417005 
L 69.784568 164.54 
L 73.477773 164.54 
L 77.170978 160.820749 
L 80.864183 160.076898 
L 84.557388 154.621996 
L 88.250592 151.788281 
L 91.943797 148.733182 
L 95.637002 145.530493 
L 99.330207 141.480642 
L 103.023411 138.167127 
L 106.716616 134.166114 
L 110.409821 130.780642 
L 114.103026 127.878808 
L 117.79623 126.355686 
L 121.489435 124.093142 
L 125.18264 121.65922 
L 128.875845 118.255983 
L 132.56905 116.385483 
L 136.262254 114.702032 
L 139.955459 112.470481 
L 143.648664 110.441799 
L 147.341869 109.23635 
L 151.035073 107.51148 
L 154.728278 105.329519 
L 158.421483 103.029305 
L 162.114688 101.450477 
L 165.807893 99.984423 
L 169.501097 98.875976 
L 173.194302 96.849626 
L 176.887507 95.913814 
L 180.580712 94.339131 
L 184.273916 92.859883 
L 187.967121 91.68643 
" clip-path="url(#pc32b47781f)" style="fill: none; stroke: #0000ff; stroke-opacity: 0.5; stroke-width: 0.5; stroke-linecap: square"/>
    <defs>
     <path id="m66f22e8a48" d="M -0.49999 0.49999 
L 0.50001 0.49999 
L 0.50001 -0.50001 
L -0.49999 -0.50001 
z
"/>
    </defs>
    <g clip-path="url(#pc32b47781f)">
     <use xlink:href="#m66f22e8a48" x="66.091364" y="179.417005" style="fill: #0000ff; fill-opacity: 0.5"/>
     <use xlink:href="#m66f22e8a48" x="69.784568" y="164.54" style="fill: #0000ff; fill-opacity: 0.5"/>
     <use xlink:href="#m66f22e8a48" x="73.477773" y="164.54" style="fill: #0000ff; fill-opacity: 0.5"/>
     <use xlink:href="#m66f22e8a48" x="77.170978" y="160.820749" style="fill: #0000ff; fill-opacity: 0.5"/>
     <use xlink:href="#m66f22e8a48" x="80.864183" y="160.076898" style="fill: #0000ff; fill-opacity: 0.5"/>
     <use xlink:href="#m66f22e8a48" x="84.557388" y="154.621996" style="fill: #0000ff; fill-opacity: 0.5"/>
     <use xlink:href="#m66f22e8a48" x="88.250592" y="151.788281" style="fill: #0000ff; fill-opacity: 0.5"/>
     <use xlink:href="#m66f22e8a48" x="91.943797" y="148.733182" style="fill: #0000ff; fill-opacity: 0.5"/>
     <use xlink:href="#m66f22e8a48" x="95.637002" y="145.530493" style="fill: #0000ff; fill-opacity: 0.5"/>
     <use xlink:href="#m66f22e8a48" x="99.330207" y="141.480642" style="fill: #0000ff; fill-opacity: 0.5"/>
     <use xlink:href="#m66f22e8a48" x="103.023411" y="138.167127" style="fill: #0000ff; fill-opacity: 0.5"/>
     <use xlink:href="#m66f22e8a48" x="106.716616" y="134.166114" style="fill: #0000ff; fill-opacity: 0.5"/>
     <use xlink:href="#m66f22e8a48" x="110.409821" y="130.780642" style="fill: #0000ff; fill-opacity: 0.5"/>
     <use xlink:href="#m66f22e8a48" x="114.103026" y="127.878808" style="fill: #0000ff; fill-opacity: 0.5"/>
     <use xlink:href="#m66f22e8a48" x="117.79623" y="126.355686" style="fill: #0000ff; fill-opacity: 0.5"/>
     <use xlink:href="#m66f22e8a48" x="121.489435" y="124.093142" style="fill: #0000ff; fill-opacity: 0.5"/>
     <use xlink:href="#m66f22e8a48" x="125.18264" y="121.65922" style="fill: #0000ff; fill-opacity: 0.5"/>
     <use xlink:href="#m66f22e8a48" x="128.875845" y="118.255983" style="fill: #0000ff; fill-opacity: 0.5"/>
     <use xlink:href="#m66f22e8a48" x="132.56905" y="116.385483" style="fill: #0000ff; fill-opacity: 0.5"/>
     <use xlink:href="#m66f22e8a48" x="136.262254" y="114.702032" style="fill: #0000ff; fill-opacity: 0.5"/>
     <use xlink:href="#m66f22e8a48" x="139.955459" y="112.470481" style="fill: #0000ff; fill-opacity: 0.5"/>
     <use xlink:href="#m66f22e8a48" x="143.648664" y="110.441799" style="fill: #0000ff; fill-opacity: 0.5"/>
     <use xlink:href="#m66f22e8a48" x="147.341869" y="109.23635" style="fill: #0000ff; fill-opacity: 0.5"/>
     <use xlink:href="#m66f22e8a48" x="151.035073" y="107.51148" style="fill: #0000ff; fill-opacity: 0.5"/>
     <use xlink:href="#m66f22e8a48" x="154.728278" y="105.329519" style="fill: #0000ff; fill-opacity: 0.5"/>
     <use xlink:href="#m66f22e8a48" x="158.421483" y="103.029305" style="fill: #0000ff; fill-opacity: 0.5"/>
     <use xlink:href="#m66f22e8a48" x="162.114688" y="101.450477" style="fill: #0000ff; fill-opacity: 0.5"/>
     <use xlink:href="#m66f22e8a48" x="165.807893" y="99.984423" style="fill: #0000ff; fill-opacity: 0.5"/>
     <use xlink:href="#m66f22e8a48" x="169.501097" y="98.875976" style="fill: #0000ff; fill-opacity: 0.5"/>
     <use xlink:href="#m66f22e8a48" x="173.194302" y="96.849626" style="fill: #0000ff; fill-opacity: 0.5"/>
     <use xlink:href="#m66f22e8a48" x="176.887507" y="95.913814" style="fill: #0000ff; fill-opacity: 0.5"/>
     <use xlink:href="#m66f22e8a48" x="180.580712" y="94.339131" style="fill: #0000ff; fill-opacity: 0.5"/>
     <use xlink:href="#m66f22e8a48" x="184.273916" y="92.859883" style="fill: #0000ff; fill-opacity: 0.5"/>
     <use xlink:href="#m66f22e8a48" x="187.967121" y="91.68643" style="fill: #0000ff; fill-opacity: 0.5"/>
    </g>
   </g>
   <g id="line2d_17">
    <path d="M 66.091364 179.417005 
L 69.784568 209.171016 
L 73.477773 194.294011 
L 77.170978 201.732513 
L 80.864183 224.048021 
L 84.557388 216.609519 
L 88.250592 216.609519 
L 91.943797 186.855508 
L 95.637002 209.171016 
L 99.330207 224.048021 
L 103.023411 179.417005 
L 106.716616 209.171016 
L 110.409821 209.171016 
L 114.103026 194.294011 
L 117.79623 268.679037 
L 121.489435 231.486524 
L 125.18264 216.609519 
L 128.875845 186.855508 
L 132.56905 253.802032 
L 136.262254 246.363529 
L 139.955459 209.171016 
L 143.648664 246.363529 
L 147.341869 194.294011 
L 151.035073 209.171016 
L 154.728278 246.363529 
L 158.421483 201.732513 
L 162.114688 224.048021 
L 165.807893 201.732513 
L 169.501097 216.609519 
L 173.194302 179.417005 
L 176.887507 209.171016 
L 180.580712 194.294011 
L 184.273916 201.732513 
L 187.967121 290.994545 
L 191.660326 231.486524 
L 195.353531 209.171016 
L 199.046736 246.363529 
L 202.73994 194.294011 
L 206.433145 186.855508 
L 210.12635 231.486524 
L 213.819555 209.171016 
L 217.512759 201.732513 
L 221.205964 238.925027 
L 224.899169 201.732513 
L 228.592374 238.925027 
L 232.285579 186.855508 
L 235.978783 194.294011 
L 239.671988 224.048021 
L 243.365193 216.609519 
L 247.058398 201.732513 
L 250.751602 209.171016 
L 254.444807 224.048021 
L 258.138012 186.855508 
L 261.831217 224.048021 
L 265.524421 290.994545 
L 269.217626 231.486524 
L 272.910831 224.048021 
L 276.604036 238.925027 
L 280.297241 224.048021 
L 283.990445 201.732513 
L 287.68365 209.171016 
L 291.376855 201.732513 
L 295.07006 216.609519 
L 298.763264 216.609519 
L 302.456469 216.609519 
L 306.149674 201.732513 
L 309.842879 194.294011 
L 313.536084 224.048021 
L 317.229288 201.732513 
L 320.922493 209.171016 
L 324.615698 216.609519 
L 328.308903 231.486524 
L 332.002107 231.486524 
L 335.695312 201.732513 
L 339.388517 246.363529 
L 343.081722 216.609519 
L 346.774927 253.802032 
L 350.468131 201.732513 
L 354.161336 201.732513 
L 357.854541 201.732513 
L 361.547746 179.417005 
L 365.24095 231.486524 
L 368.934155 194.294011 
L 372.62736 238.925027 
L 376.320565 246.363529 
L 380.01377 164.54 
L 383.706974 209.171016 
L 387.400179 268.679037 
L 391.093384 224.048021 
L 394.786589 246.363529 
L 398.479793 261.240535 
L 402.172998 209.171016 
L 405.866203 201.732513 
L 409.559408 216.609519 
L 413.252612 224.048021 
L 416.945817 224.048021 
L 420.639022 179.417005 
L 424.332227 201.732513 
L 428.025432 186.855508 
L 431.718636 179.417005 
" clip-path="url(#pc32b47781f)" style="fill: none; stroke: #ff0000; stroke-width: 0.5; stroke-linecap: square"/>
    <defs>
     <path id="mfce4409bcd" d="M -0.49999 0.49999 
L 0.50001 0.49999 
L 0.50001 -0.50001 
L -0.49999 -0.50001 
z
"/>
    </defs>
    <g clip-path="url(#pc32b47781f)">
     <use xlink:href="#mfce4409bcd" x="66.091364" y="179.417005" style="fill: #ff0000"/>
     <use xlink:href="#mfce4409bcd" x="69.784568" y="209.171016" style="fill: #ff0000"/>
     <use xlink:href="#mfce4409bcd" x="73.477773" y="194.294011" style="fill: #ff0000"/>
     <use xlink:href="#mfce4409bcd" x="77.170978" y="201.732513" style="fill: #ff0000"/>
     <use xlink:href="#mfce4409bcd" x="80.864183" y="224.048021" style="fill: #ff0000"/>
     <use xlink:href="#mfce4409bcd" x="84.557388" y="216.609519" style="fill: #ff0000"/>
     <use xlink:href="#mfce4409bcd" x="88.250592" y="216.609519" style="fill: #ff0000"/>
     <use xlink:href="#mfce4409bcd" x="91.943797" y="186.855508" style="fill: #ff0000"/>
     <use xlink:href="#mfce4409bcd" x="95.637002" y="209.171016" style="fill: #ff0000"/>
     <use xlink:href="#mfce4409bcd" x="99.330207" y="224.048021" style="fill: #ff0000"/>
     <use xlink:href="#mfce4409bcd" x="103.023411" y="179.417005" style="fill: #ff0000"/>
     <use xlink:href="#mfce4409bcd" x="106.716616" y="209.171016" style="fill: #ff0000"/>
     <use xlink:href="#mfce4409bcd" x="110.409821" y="209.171016" style="fill: #ff0000"/>
     <use xlink:href="#mfce4409bcd" x="114.103026" y="194.294011" style="fill: #ff0000"/>
     <use xlink:href="#mfce4409bcd" x="117.79623" y="268.679037" style="fill: #ff0000"/>
     <use xlink:href="#mfce4409bcd" x="121.489435" y="231.486524" style="fill: #ff0000"/>
     <use xlink:href="#mfce4409bcd" x="125.18264" y="216.609519" style="fill: #ff0000"/>
     <use xlink:href="#mfce4409bcd" x="128.875845" y="186.855508" style="fill: #ff0000"/>
     <use xlink:href="#mfce4409bcd" x="132.56905" y="253.802032" style="fill: #ff0000"/>
     <use xlink:href="#mfce4409bcd" x="136.262254" y="246.363529" style="fill: #ff0000"/>
     <use xlink:href="#mfce4409bcd" x="139.955459" y="209.171016" style="fill: #ff0000"/>
     <use xlink:href="#mfce4409bcd" x="143.648664" y="246.363529" style="fill: #ff0000"/>
     <use xlink:href="#mfce4409bcd" x="147.341869" y="194.294011" style="fill: #ff0000"/>
     <use xlink:href="#mfce4409bcd" x="151.035073" y="209.171016" style="fill: #ff0000"/>
     <use xlink:href="#mfce4409bcd" x="154.728278" y="246.363529" style="fill: #ff0000"/>
     <use xlink:href="#mfce4409bcd" x="158.421483" y="201.732513" style="fill: #ff0000"/>
     <use xlink:href="#mfce4409bcd" x="162.114688" y="224.048021" style="fill: #ff0000"/>
     <use xlink:href="#mfce4409bcd" x="165.807893" y="201.732513" style="fill: #ff0000"/>
     <use xlink:href="#mfce4409bcd" x="169.501097" y="216.609519" style="fill: #ff0000"/>
     <use xlink:href="#mfce4409bcd" x="173.194302" y="179.417005" style="fill: #ff0000"/>
     <use xlink:href="#mfce4409bcd" x="176.887507" y="209.171016" style="fill: #ff0000"/>
     <use xlink:href="#mfce4409bcd" x="180.580712" y="194.294011" style="fill: #ff0000"/>
     <use xlink:href="#mfce4409bcd" x="184.273916" y="201.732513" style="fill: #ff0000"/>
     <use xlink:href="#mfce4409bcd" x="187.967121" y="290.994545" style="fill: #ff0000"/>
     <use xlink:href="#mfce4409bcd" x="191.660326" y="231.486524" style="fill: #ff0000"/>
     <use xlink:href="#mfce4409bcd" x="195.353531" y="209.171016" style="fill: #ff0000"/>
     <use xlink:href="#mfce4409bcd" x="199.046736" y="246.363529" style="fill: #ff0000"/>
     <use xlink:href="#mfce4409bcd" x="202.73994" y="194.294011" style="fill: #ff0000"/>
     <use xlink:href="#mfce4409bcd" x="206.433145" y="186.855508" style="fill: #ff0000"/>
     <use xlink:href="#mfce4409bcd" x="210.12635" y="231.486524" style="fill: #ff0000"/>
     <use xlink:href="#mfce4409bcd" x="213.819555" y="209.171016" style="fill: #ff0000"/>
     <use xlink:href="#mfce4409bcd" x="217.512759" y="201.732513" style="fill: #ff0000"/>
     <use xlink:href="#mfce4409bcd" x="221.205964" y="238.925027" style="fill: #ff0000"/>
     <use xlink:href="#mfce4409bcd" x="224.899169" y="201.732513" style="fill: #ff0000"/>
     <use xlink:href="#mfce4409bcd" x="228.592374" y="238.925027" style="fill: #ff0000"/>
     <use xlink:href="#mfce4409bcd" x="232.285579" y="186.855508" style="fill: #ff0000"/>
     <use xlink:href="#mfce4409bcd" x="235.978783" y="194.294011" style="fill: #ff0000"/>
     <use xlink:href="#mfce4409bcd" x="239.671988" y="224.048021" style="fill: #ff0000"/>
     <use xlink:href="#mfce4409bcd" x="243.365193" y="216.609519" style="fill: #ff0000"/>
     <use xlink:href="#mfce4409bcd" x="247.058398" y="201.732513" style="fill: #ff0000"/>
     <use xlink:href="#mfce4409bcd" x="250.751602" y="209.171016" style="fill: #ff0000"/>
     <use xlink:href="#mfce4409bcd" x="254.444807" y="224.048021" style="fill: #ff0000"/>
     <use xlink:href="#mfce4409bcd" x="258.138012" y="186.855508" style="fill: #ff0000"/>
     <use xlink:href="#mfce4409bcd" x="261.831217" y="224.048021" style="fill: #ff0000"/>
     <use xlink:href="#mfce4409bcd" x="265.524421" y="290.994545" style="fill: #ff0000"/>
     <use xlink:href="#mfce4409bcd" x="269.217626" y="231.486524" style="fill: #ff0000"/>
     <use xlink:href="#mfce4409bcd" x="272.910831" y="224.048021" style="fill: #ff0000"/>
     <use xlink:href="#mfce4409bcd" x="276.604036" y="238.925027" style="fill: #ff0000"/>
     <use xlink:href="#mfce4409bcd" x="280.297241" y="224.048021" style="fill: #ff0000"/>
     <use xlink:href="#mfce4409bcd" x="283.990445" y="201.732513" style="fill: #ff0000"/>
     <use xlink:href="#mfce4409bcd" x="287.68365" y="209.171016" style="fill: #ff0000"/>
     <use xlink:href="#mfce4409bcd" x="291.376855" y="201.732513" style="fill: #ff0000"/>
     <use xlink:href="#mfce4409bcd" x="295.07006" y="216.609519" style="fill: #ff0000"/>
     <use xlink:href="#mfce4409bcd" x="298.763264" y="216.609519" style="fill: #ff0000"/>
     <use xlink:href="#mfce4409bcd" x="302.456469" y="216.609519" style="fill: #ff0000"/>
     <use xlink:href="#mfce4409bcd" x="306.149674" y="201.732513" style="fill: #ff0000"/>
     <use xlink:href="#mfce4409bcd" x="309.842879" y="194.294011" style="fill: #ff0000"/>
     <use xlink:href="#mfce4409bcd" x="313.536084" y="224.048021" style="fill: #ff0000"/>
     <use xlink:href="#mfce4409bcd" x="317.229288" y="201.732513" style="fill: #ff0000"/>
     <use xlink:href="#mfce4409bcd" x="320.922493" y="209.171016" style="fill: #ff0000"/>
     <use xlink:href="#mfce4409bcd" x="324.615698" y="216.609519" style="fill: #ff0000"/>
     <use xlink:href="#mfce4409bcd" x="328.308903" y="231.486524" style="fill: #ff0000"/>
     <use xlink:href="#mfce4409bcd" x="332.002107" y="231.486524" style="fill: #ff0000"/>
     <use xlink:href="#mfce4409bcd" x="335.695312" y="201.732513" style="fill: #ff0000"/>
     <use xlink:href="#mfce4409bcd" x="339.388517" y="246.363529" style="fill: #ff0000"/>
     <use xlink:href="#mfce4409bcd" x="343.081722" y="216.609519" style="fill: #ff0000"/>
     <use xlink:href="#mfce4409bcd" x="346.774927" y="253.802032" style="fill: #ff0000"/>
     <use xlink:href="#mfce4409bcd" x="350.468131" y="201.732513" style="fill: #ff0000"/>
     <use xlink:href="#mfce4409bcd" x="354.161336" y="201.732513" style="fill: #ff0000"/>
     <use xlink:href="#mfce4409bcd" x="357.854541" y="201.732513" style="fill: #ff0000"/>
     <use xlink:href="#mfce4409bcd" x="361.547746" y="179.417005" style="fill: #ff0000"/>
     <use xlink:href="#mfce4409bcd" x="365.24095" y="231.486524" style="fill: #ff0000"/>
     <use xlink:href="#mfce4409bcd" x="368.934155" y="194.294011" style="fill: #ff0000"/>
     <use xlink:href="#mfce4409bcd" x="372.62736" y="238.925027" style="fill: #ff0000"/>
     <use xlink:href="#mfce4409bcd" x="376.320565" y="246.363529" style="fill: #ff0000"/>
     <use xlink:href="#mfce4409bcd" x="380.01377" y="164.54" style="fill: #ff0000"/>
     <use xlink:href="#mfce4409bcd" x="383.706974" y="209.171016" style="fill: #ff0000"/>
     <use xlink:href="#mfce4409bcd" x="387.400179" y="268.679037" style="fill: #ff0000"/>
     <use xlink:href="#mfce4409bcd" x="391.093384" y="224.048021" style="fill: #ff0000"/>
     <use xlink:href="#mfce4409bcd" x="394.786589" y="246.363529" style="fill: #ff0000"/>
     <use xlink:href="#mfce4409bcd" x="398.479793" y="261.240535" style="fill: #ff0000"/>
     <use xlink:href="#mfce4409bcd" x="402.172998" y="209.171016" style="fill: #ff0000"/>
     <use xlink:href="#mfce4409bcd" x="405.866203" y="201.732513" style="fill: #ff0000"/>
     <use xlink:href="#mfce4409bcd" x="409.559408" y="216.609519" style="fill: #ff0000"/>
     <use xlink:href="#mfce4409bcd" x="413.252612" y="224.048021" style="fill: #ff0000"/>
     <use xlink:href="#mfce4409bcd" x="416.945817" y="224.048021" style="fill: #ff0000"/>
     <use xlink:href="#mfce4409bcd" x="420.639022" y="179.417005" style="fill: #ff0000"/>
     <use xlink:href="#mfce4409bcd" x="424.332227" y="201.732513" style="fill: #ff0000"/>
     <use xlink:href="#mfce4409bcd" x="428.025432" y="186.855508" style="fill: #ff0000"/>
     <use xlink:href="#mfce4409bcd" x="431.718636" y="179.417005" style="fill: #ff0000"/>
    </g>
   </g>
   <g id="line2d_18">
    <path d="M 66.091364 179.417005 
L 69.784568 194.294011 
L 73.477773 194.294011 
L 77.170978 196.153636 
L 80.864183 201.732513 
L 84.557388 204.212014 
L 88.250592 205.983086 
L 91.943797 203.592139 
L 95.637002 204.212014 
L 99.330207 206.195615 
L 103.023411 203.761196 
L 106.716616 204.212014 
L 110.409821 204.593476 
L 114.103026 203.8578 
L 117.79623 208.179216 
L 121.489435 209.635922 
L 125.18264 210.046134 
L 128.875845 208.757766 
L 132.56905 211.128517 
L 136.262254 212.890267 
L 139.955459 212.71316 
L 143.648664 214.242722 
L 147.341869 213.375387 
L 151.035073 213.200205 
L 154.728278 214.526738 
L 158.421483 214.034652 
L 162.114688 214.405518 
L 165.807893 213.952911 
L 169.501097 214.044518 
L 173.194302 212.890267 
L 176.887507 212.770292 
L 180.580712 212.192908 
L 184.273916 211.875926 
L 187.967121 214.202944 
L 191.660326 214.696761 
L 195.353531 214.543268 
L 199.046736 215.403275 
L 202.73994 214.847768 
L 206.433145 214.130018 
L 210.12635 214.56393 
L 213.819555 214.432396 
L 217.512759 214.130018 
L 221.205964 214.706646 
L 224.899169 214.411779 
L 228.592374 214.956518 
L 232.285579 214.345627 
L 235.978783 213.918996 
L 239.671988 214.130018 
L 243.365193 214.18062 
L 247.058398 213.931658 
L 250.751602 213.838312 
L 254.444807 214.034652 
L 258.138012 213.521838 
L 261.831217 213.716768 
L 265.524421 215.121818 
L 269.217626 215.414045 
L 272.910831 215.565518 
L 276.604036 215.968268 
L 280.297241 216.105213 
L 283.990445 215.865668 
L 287.68365 215.75592 
L 291.376855 215.529736 
L 295.07006 215.546875 
L 298.763264 215.563479 
L 302.456469 215.579572 
L 306.149674 215.369768 
L 309.842879 215.055205 
L 313.536084 215.187452 
L 317.229288 214.992453 
L 320.922493 214.90929 
L 324.615698 214.933236 
L 328.308903 215.163143 
L 332.002107 215.386751 
L 335.695312 215.202234 
L 339.388517 215.617718 
L 343.081722 215.630768 
L 346.774927 216.126499 
L 350.468131 215.941961 
L 354.161336 215.762094 
L 357.854541 215.586725 
L 361.547746 215.140185 
L 365.24095 215.33953 
L 368.934155 215.08597 
L 372.62736 215.369768 
L 376.320565 215.734401 
L 380.01377 215.139117 
L 383.706974 215.070518 
L 387.400179 215.679706 
L 391.093384 215.773732 
L 394.786589 216.113619 
L 398.479793 216.609519 
L 402.172998 216.528665 
L 405.866203 216.369567 
L 409.559408 216.37212 
L 413.252612 216.452919 
L 416.945817 216.532034 
L 420.639022 216.149405 
L 424.332227 216.002294 
L 428.025432 215.707882 
L 431.718636 215.344973 
" clip-path="url(#pc32b47781f)" style="fill: none; stroke: #ff0000; stroke-opacity: 0.5; stroke-width: 0.25; stroke-linecap: square"/>
    <defs>
     <path id="m8cd566682f" d="M -0.49999 0.49999 
L 0.50001 0.49999 
L 0.50001 -0.50001 
L -0.49999 -0.50001 
z
"/>
    </defs>
    <g clip-path="url(#pc32b47781f)">
     <use xlink:href="#m8cd566682f" x="66.091364" y="179.417005" style="fill: #ff0000; fill-opacity: 0.5"/>
     <use xlink:href="#m8cd566682f" x="69.784568" y="194.294011" style="fill: #ff0000; fill-opacity: 0.5"/>
     <use xlink:href="#m8cd566682f" x="73.477773" y="194.294011" style="fill: #ff0000; fill-opacity: 0.5"/>
     <use xlink:href="#m8cd566682f" x="77.170978" y="196.153636" style="fill: #ff0000; fill-opacity: 0.5"/>
     <use xlink:href="#m8cd566682f" x="80.864183" y="201.732513" style="fill: #ff0000; fill-opacity: 0.5"/>
     <use xlink:href="#m8cd566682f" x="84.557388" y="204.212014" style="fill: #ff0000; fill-opacity: 0.5"/>
     <use xlink:href="#m8cd566682f" x="88.250592" y="205.983086" style="fill: #ff0000; fill-opacity: 0.5"/>
     <use xlink:href="#m8cd566682f" x="91.943797" y="203.592139" style="fill: #ff0000; fill-opacity: 0.5"/>
     <use xlink:href="#m8cd566682f" x="95.637002" y="204.212014" style="fill: #ff0000; fill-opacity: 0.5"/>
     <use xlink:href="#m8cd566682f" x="99.330207" y="206.195615" style="fill: #ff0000; fill-opacity: 0.5"/>
     <use xlink:href="#m8cd566682f" x="103.023411" y="203.761196" style="fill: #ff0000; fill-opacity: 0.5"/>
     <use xlink:href="#m8cd566682f" x="106.716616" y="204.212014" style="fill: #ff0000; fill-opacity: 0.5"/>
     <use xlink:href="#m8cd566682f" x="110.409821" y="204.593476" style="fill: #ff0000; fill-opacity: 0.5"/>
     <use xlink:href="#m8cd566682f" x="114.103026" y="203.8578" style="fill: #ff0000; fill-opacity: 0.5"/>
     <use xlink:href="#m8cd566682f" x="117.79623" y="208.179216" style="fill: #ff0000; fill-opacity: 0.5"/>
     <use xlink:href="#m8cd566682f" x="121.489435" y="209.635922" style="fill: #ff0000; fill-opacity: 0.5"/>
     <use xlink:href="#m8cd566682f" x="125.18264" y="210.046134" style="fill: #ff0000; fill-opacity: 0.5"/>
     <use xlink:href="#m8cd566682f" x="128.875845" y="208.757766" style="fill: #ff0000; fill-opacity: 0.5"/>
     <use xlink:href="#m8cd566682f" x="132.56905" y="211.128517" style="fill: #ff0000; fill-opacity: 0.5"/>
     <use xlink:href="#m8cd566682f" x="136.262254" y="212.890267" style="fill: #ff0000; fill-opacity: 0.5"/>
     <use xlink:href="#m8cd566682f" x="139.955459" y="212.71316" style="fill: #ff0000; fill-opacity: 0.5"/>
     <use xlink:href="#m8cd566682f" x="143.648664" y="214.242722" style="fill: #ff0000; fill-opacity: 0.5"/>
     <use xlink:href="#m8cd566682f" x="147.341869" y="213.375387" style="fill: #ff0000; fill-opacity: 0.5"/>
     <use xlink:href="#m8cd566682f" x="151.035073" y="213.200205" style="fill: #ff0000; fill-opacity: 0.5"/>
     <use xlink:href="#m8cd566682f" x="154.728278" y="214.526738" style="fill: #ff0000; fill-opacity: 0.5"/>
     <use xlink:href="#m8cd566682f" x="158.421483" y="214.034652" style="fill: #ff0000; fill-opacity: 0.5"/>
     <use xlink:href="#m8cd566682f" x="162.114688" y="214.405518" style="fill: #ff0000; fill-opacity: 0.5"/>
     <use xlink:href="#m8cd566682f" x="165.807893" y="213.952911" style="fill: #ff0000; fill-opacity: 0.5"/>
     <use xlink:href="#m8cd566682f" x="169.501097" y="214.044518" style="fill: #ff0000; fill-opacity: 0.5"/>
     <use xlink:href="#m8cd566682f" x="173.194302" y="212.890267" style="fill: #ff0000; fill-opacity: 0.5"/>
     <use xlink:href="#m8cd566682f" x="176.887507" y="212.770292" style="fill: #ff0000; fill-opacity: 0.5"/>
     <use xlink:href="#m8cd566682f" x="180.580712" y="212.192908" style="fill: #ff0000; fill-opacity: 0.5"/>
     <use xlink:href="#m8cd566682f" x="184.273916" y="211.875926" style="fill: #ff0000; fill-opacity: 0.5"/>
     <use xlink:href="#m8cd566682f" x="187.967121" y="214.202944" style="fill: #ff0000; fill-opacity: 0.5"/>
     <use xlink:href="#m8cd566682f" x="191.660326" y="214.696761" style="fill: #ff0000; fill-opacity: 0.5"/>
     <use xlink:href="#m8cd566682f" x="195.353531" y="214.543268" style="fill: #ff0000; fill-opacity: 0.5"/>
     <use xlink:href="#m8cd566682f" x="199.046736" y="215.403275" style="fill: #ff0000; fill-opacity: 0.5"/>
     <use xlink:href="#m8cd566682f" x="202.73994" y="214.847768" style="fill: #ff0000; fill-opacity: 0.5"/>
     <use xlink:href="#m8cd566682f" x="206.433145" y="214.130018" style="fill: #ff0000; fill-opacity: 0.5"/>
     <use xlink:href="#m8cd566682f" x="210.12635" y="214.56393" style="fill: #ff0000; fill-opacity: 0.5"/>
     <use xlink:href="#m8cd566682f" x="213.819555" y="214.432396" style="fill: #ff0000; fill-opacity: 0.5"/>
     <use xlink:href="#m8cd566682f" x="217.512759" y="214.130018" style="fill: #ff0000; fill-opacity: 0.5"/>
     <use xlink:href="#m8cd566682f" x="221.205964" y="214.706646" style="fill: #ff0000; fill-opacity: 0.5"/>
     <use xlink:href="#m8cd566682f" x="224.899169" y="214.411779" style="fill: #ff0000; fill-opacity: 0.5"/>
     <use xlink:href="#m8cd566682f" x="228.592374" y="214.956518" style="fill: #ff0000; fill-opacity: 0.5"/>
     <use xlink:href="#m8cd566682f" x="232.285579" y="214.345627" style="fill: #ff0000; fill-opacity: 0.5"/>
     <use xlink:href="#m8cd566682f" x="235.978783" y="213.918996" style="fill: #ff0000; fill-opacity: 0.5"/>
     <use xlink:href="#m8cd566682f" x="239.671988" y="214.130018" style="fill: #ff0000; fill-opacity: 0.5"/>
     <use xlink:href="#m8cd566682f" x="243.365193" y="214.18062" style="fill: #ff0000; fill-opacity: 0.5"/>
     <use xlink:href="#m8cd566682f" x="247.058398" y="213.931658" style="fill: #ff0000; fill-opacity: 0.5"/>
     <use xlink:href="#m8cd566682f" x="250.751602" y="213.838312" style="fill: #ff0000; fill-opacity: 0.5"/>
     <use xlink:href="#m8cd566682f" x="254.444807" y="214.034652" style="fill: #ff0000; fill-opacity: 0.5"/>
     <use xlink:href="#m8cd566682f" x="258.138012" y="213.521838" style="fill: #ff0000; fill-opacity: 0.5"/>
     <use xlink:href="#m8cd566682f" x="261.831217" y="213.716768" style="fill: #ff0000; fill-opacity: 0.5"/>
     <use xlink:href="#m8cd566682f" x="265.524421" y="215.121818" style="fill: #ff0000; fill-opacity: 0.5"/>
     <use xlink:href="#m8cd566682f" x="269.217626" y="215.414045" style="fill: #ff0000; fill-opacity: 0.5"/>
     <use xlink:href="#m8cd566682f" x="272.910831" y="215.565518" style="fill: #ff0000; fill-opacity: 0.5"/>
     <use xlink:href="#m8cd566682f" x="276.604036" y="215.968268" style="fill: #ff0000; fill-opacity: 0.5"/>
     <use xlink:href="#m8cd566682f" x="280.297241" y="216.105213" style="fill: #ff0000; fill-opacity: 0.5"/>
     <use xlink:href="#m8cd566682f" x="283.990445" y="215.865668" style="fill: #ff0000; fill-opacity: 0.5"/>
     <use xlink:href="#m8cd566682f" x="287.68365" y="215.75592" style="fill: #ff0000; fill-opacity: 0.5"/>
     <use xlink:href="#m8cd566682f" x="291.376855" y="215.529736" style="fill: #ff0000; fill-opacity: 0.5"/>
     <use xlink:href="#m8cd566682f" x="295.07006" y="215.546875" style="fill: #ff0000; fill-opacity: 0.5"/>
     <use xlink:href="#m8cd566682f" x="298.763264" y="215.563479" style="fill: #ff0000; fill-opacity: 0.5"/>
     <use xlink:href="#m8cd566682f" x="302.456469" y="215.579572" style="fill: #ff0000; fill-opacity: 0.5"/>
     <use xlink:href="#m8cd566682f" x="306.149674" y="215.369768" style="fill: #ff0000; fill-opacity: 0.5"/>
     <use xlink:href="#m8cd566682f" x="309.842879" y="215.055205" style="fill: #ff0000; fill-opacity: 0.5"/>
     <use xlink:href="#m8cd566682f" x="313.536084" y="215.187452" style="fill: #ff0000; fill-opacity: 0.5"/>
     <use xlink:href="#m8cd566682f" x="317.229288" y="214.992453" style="fill: #ff0000; fill-opacity: 0.5"/>
     <use xlink:href="#m8cd566682f" x="320.922493" y="214.90929" style="fill: #ff0000; fill-opacity: 0.5"/>
     <use xlink:href="#m8cd566682f" x="324.615698" y="214.933236" style="fill: #ff0000; fill-opacity: 0.5"/>
     <use xlink:href="#m8cd566682f" x="328.308903" y="215.163143" style="fill: #ff0000; fill-opacity: 0.5"/>
     <use xlink:href="#m8cd566682f" x="332.002107" y="215.386751" style="fill: #ff0000; fill-opacity: 0.5"/>
     <use xlink:href="#m8cd566682f" x="335.695312" y="215.202234" style="fill: #ff0000; fill-opacity: 0.5"/>
     <use xlink:href="#m8cd566682f" x="339.388517" y="215.617718" style="fill: #ff0000; fill-opacity: 0.5"/>
     <use xlink:href="#m8cd566682f" x="343.081722" y="215.630768" style="fill: #ff0000; fill-opacity: 0.5"/>
     <use xlink:href="#m8cd566682f" x="346.774927" y="216.126499" style="fill: #ff0000; fill-opacity: 0.5"/>
     <use xlink:href="#m8cd566682f" x="350.468131" y="215.941961" style="fill: #ff0000; fill-opacity: 0.5"/>
     <use xlink:href="#m8cd566682f" x="354.161336" y="215.762094" style="fill: #ff0000; fill-opacity: 0.5"/>
     <use xlink:href="#m8cd566682f" x="357.854541" y="215.586725" style="fill: #ff0000; fill-opacity: 0.5"/>
     <use xlink:href="#m8cd566682f" x="361.547746" y="215.140185" style="fill: #ff0000; fill-opacity: 0.5"/>
     <use xlink:href="#m8cd566682f" x="365.24095" y="215.33953" style="fill: #ff0000; fill-opacity: 0.5"/>
     <use xlink:href="#m8cd566682f" x="368.934155" y="215.08597" style="fill: #ff0000; fill-opacity: 0.5"/>
     <use xlink:href="#m8cd566682f" x="372.62736" y="215.369768" style="fill: #ff0000; fill-opacity: 0.5"/>
     <use xlink:href="#m8cd566682f" x="376.320565" y="215.734401" style="fill: #ff0000; fill-opacity: 0.5"/>
     <use xlink:href="#m8cd566682f" x="380.01377" y="215.139117" style="fill: #ff0000; fill-opacity: 0.5"/>
     <use xlink:href="#m8cd566682f" x="383.706974" y="215.070518" style="fill: #ff0000; fill-opacity: 0.5"/>
     <use xlink:href="#m8cd566682f" x="387.400179" y="215.679706" style="fill: #ff0000; fill-opacity: 0.5"/>
     <use xlink:href="#m8cd566682f" x="391.093384" y="215.773732" style="fill: #ff0000; fill-opacity: 0.5"/>
     <use xlink:href="#m8cd566682f" x="394.786589" y="216.113619" style="fill: #ff0000; fill-opacity: 0.5"/>
     <use xlink:href="#m8cd566682f" x="398.479793" y="216.609519" style="fill: #ff0000; fill-opacity: 0.5"/>
     <use xlink:href="#m8cd566682f" x="402.172998" y="216.528665" style="fill: #ff0000; fill-opacity: 0.5"/>
     <use xlink:href="#m8cd566682f" x="405.866203" y="216.369567" style="fill: #ff0000; fill-opacity: 0.5"/>
     <use xlink:href="#m8cd566682f" x="409.559408" y="216.37212" style="fill: #ff0000; fill-opacity: 0.5"/>
     <use xlink:href="#m8cd566682f" x="413.252612" y="216.452919" style="fill: #ff0000; fill-opacity: 0.5"/>
     <use xlink:href="#m8cd566682f" x="416.945817" y="216.532034" style="fill: #ff0000; fill-opacity: 0.5"/>
     <use xlink:href="#m8cd566682f" x="420.639022" y="216.149405" style="fill: #ff0000; fill-opacity: 0.5"/>
     <use xlink:href="#m8cd566682f" x="424.332227" y="216.002294" style="fill: #ff0000; fill-opacity: 0.5"/>
     <use xlink:href="#m8cd566682f" x="428.025432" y="215.707882" style="fill: #ff0000; fill-opacity: 0.5"/>
     <use xlink:href="#m8cd566682f" x="431.718636" y="215.344973" style="fill: #ff0000; fill-opacity: 0.5"/>
    </g>
   </g>
   <g id="patch_3">
    <path d="M 47.81 303.64 
L 47.81 25.44 
" style="fill: none; stroke: #000000; stroke-width: 0.8; stroke-linejoin: miter; stroke-linecap: square"/>
   </g>
   <g id="patch_4">
    <path d="M 450 303.64 
L 450 25.44 
" style="fill: none; stroke: #000000; stroke-width: 0.8; stroke-linejoin: miter; stroke-linecap: square"/>
   </g>
   <g id="patch_5">
    <path d="M 47.81 303.64 
L 450 303.64 
" style="fill: none; stroke: #000000; stroke-width: 0.8; stroke-linejoin: miter; stroke-linecap: square"/>
   </g>
   <g id="patch_6">
    <path d="M 47.81 25.44 
L 450 25.44 
" style="fill: none; stroke: #000000; stroke-width: 0.8; stroke-linejoin: miter; stroke-linecap: square"/>
   </g>
   <g id="text_17">
    <!-- Average action - 28173931-29014202 - 50 games [34-67] -->
    <g transform="translate(74.975313 19.44) scale(0.12 -0.12)">
     <defs>
      <path id="DejaVuSans-2d" d="M 313 2009 
L 1997 2009 
L 1997 1497 
L 313 1497 
L 313 2009 
z
" transform="scale(0.015625)"/>
      <path id="DejaVuSans-6d" d="M 3328 2828 
Q 3544 3216 3844 3400 
Q 4144 3584 4550 3584 
Q 5097 3584 5394 3201 
Q 5691 2819 5691 2113 
L 5691 0 
L 5113 0 
L 5113 2094 
Q 5113 2597 4934 2840 
Q 4756 3084 4391 3084 
Q 3944 3084 3684 2787 
Q 3425 2491 3425 1978 
L 3425 0 
L 2847 0 
L 2847 2094 
Q 2847 2600 2669 2842 
Q 2491 3084 2119 3084 
Q 1678 3084 1418 2786 
Q 1159 2488 1159 1978 
L 1159 0 
L 581 0 
L 581 3500 
L 1159 3500 
L 1159 2956 
Q 1356 3278 1631 3431 
Q 1906 3584 2284 3584 
Q 2666 3584 2933 3390 
Q 3200 3197 3328 2828 
z
" transform="scale(0.015625)"/>
      <path id="DejaVuSans-73" d="M 2834 3397 
L 2834 2853 
Q 2591 2978 2328 3040 
Q 2066 3103 1784 3103 
Q 1356 3103 1142 2972 
Q 928 2841 928 2578 
Q 928 2378 1081 2264 
Q 1234 2150 1697 2047 
L 1894 2003 
Q 2506 1872 2764 1633 
Q 3022 1394 3022 966 
Q 3022 478 2636 193 
Q 2250 -91 1575 -91 
Q 1294 -91 989 -36 
Q 684 19 347 128 
L 347 722 
Q 666 556 975 473 
Q 1284 391 1588 391 
Q 1994 391 2212 530 
Q 2431 669 2431 922 
Q 2431 1156 2273 1281 
Q 2116 1406 1581 1522 
L 1381 1569 
Q 847 1681 609 1914 
Q 372 2147 372 2553 
Q 372 3047 722 3315 
Q 1072 3584 1716 3584 
Q 2034 3584 2315 3537 
Q 2597 3491 2834 3397 
z
" transform="scale(0.015625)"/>
      <path id="DejaVuSans-5b" d="M 550 4863 
L 1875 4863 
L 1875 4416 
L 1125 4416 
L 1125 -397 
L 1875 -397 
L 1875 -844 
L 550 -844 
L 550 4863 
z
" transform="scale(0.015625)"/>
      <path id="DejaVuSans-5d" d="M 1947 4863 
L 1947 -844 
L 622 -844 
L 622 -397 
L 1369 -397 
L 1369 4416 
L 622 4416 
L 622 4863 
L 1947 4863 
z
" transform="scale(0.015625)"/>
     </defs>
     <use xlink:href="#DejaVuSans-41"/>
     <use xlink:href="#DejaVuSans-76" x="62.533203"/>
     <use xlink:href="#DejaVuSans-65" x="121.712891"/>
     <use xlink:href="#DejaVuSans-72" x="183.236328"/>
     <use xlink:href="#DejaVuSans-61" x="224.349609"/>
     <use xlink:href="#DejaVuSans-67" x="285.628906"/>
     <use xlink:href="#DejaVuSans-65" x="349.105469"/>
     <use xlink:href="#DejaVuSans-20" x="410.628906"/>
     <use xlink:href="#DejaVuSans-61" x="442.416016"/>
     <use xlink:href="#DejaVuSans-63" x="503.695312"/>
     <use xlink:href="#DejaVuSans-74" x="558.675781"/>
     <use xlink:href="#DejaVuSans-69" x="597.884766"/>
     <use xlink:href="#DejaVuSans-6f" x="625.667969"/>
     <use xlink:href="#DejaVuSans-6e" x="686.849609"/>
     <use xlink:href="#DejaVuSans-20" x="750.228516"/>
     <use xlink:href="#DejaVuSans-2d" x="782.015625"/>
     <use xlink:href="#DejaVuSans-20" x="818.099609"/>
     <use xlink:href="#DejaVuSans-32" x="849.886719"/>
     <use xlink:href="#DejaVuSans-38" x="913.509766"/>
     <use xlink:href="#DejaVuSans-31" x="977.132812"/>
     <use xlink:href="#DejaVuSans-37" x="1040.755859"/>
     <use xlink:href="#DejaVuSans-33" x="1104.378906"/>
     <use xlink:href="#DejaVuSans-39" x="1168.001953"/>
     <use xlink:href="#DejaVuSans-33" x="1231.625"/>
     <use xlink:href="#DejaVuSans-31" x="1295.248047"/>
     <use xlink:href="#DejaVuSans-2d" x="1358.871094"/>
     <use xlink:href="#DejaVuSans-32" x="1394.955078"/>
     <use xlink:href="#DejaVuSans-39" x="1458.578125"/>
     <use xlink:href="#DejaVuSans-30" x="1522.201172"/>
     <use xlink:href="#DejaVuSans-31" x="1585.824219"/>
     <use xlink:href="#DejaVuSans-34" x="1649.447266"/>
     <use xlink:href="#DejaVuSans-32" x="1713.070312"/>
     <use xlink:href="#DejaVuSans-30" x="1776.693359"/>
     <use xlink:href="#DejaVuSans-32" x="1840.316406"/>
     <use xlink:href="#DejaVuSans-20" x="1903.939453"/>
     <use xlink:href="#DejaVuSans-2d" x="1935.726562"/>
     <use xlink:href="#DejaVuSans-20" x="1971.810547"/>
     <use xlink:href="#DejaVuSans-35" x="2003.597656"/>
     <use xlink:href="#DejaVuSans-30" x="2067.220703"/>
     <use xlink:href="#DejaVuSans-20" x="2130.84375"/>
     <use xlink:href="#DejaVuSans-67" x="2162.630859"/>
     <use xlink:href="#DejaVuSans-61" x="2226.107422"/>
     <use xlink:href="#DejaVuSans-6d" x="2287.386719"/>
     <use xlink:href="#DejaVuSans-65" x="2384.798828"/>
     <use xlink:href="#DejaVuSans-73" x="2446.322266"/>
     <use xlink:href="#DejaVuSans-20" x="2498.421875"/>
     <use xlink:href="#DejaVuSans-5b" x="2530.208984"/>
     <use xlink:href="#DejaVuSans-33" x="2569.222656"/>
     <use xlink:href="#DejaVuSans-34" x="2632.845703"/>
     <use xlink:href="#DejaVuSans-2d" x="2696.46875"/>
     <use xlink:href="#DejaVuSans-36" x="2732.552734"/>
     <use xlink:href="#DejaVuSans-37" x="2796.175781"/>
     <use xlink:href="#DejaVuSans-5d" x="2859.798828"/>
    </g>
   </g>
   <g id="legend_1">
    <g id="patch_7">
     <path d="M 357.332812 92.1525 
L 443 92.1525 
Q 445 92.1525 445 90.1525 
L 445 32.44 
Q 445 30.44 443 30.44 
L 357.332812 30.44 
Q 355.332812 30.44 355.332812 32.44 
L 355.332812 90.1525 
Q 355.332812 92.1525 357.332812 92.1525 
z
" style="fill: #ffffff; opacity: 0.8; stroke: #cccccc; stroke-linejoin: miter"/>
    </g>
    <g id="line2d_19">
     <path d="M 359.332812 38.538438 
L 369.332812 38.538438 
L 379.332812 38.538438 
" style="fill: none; stroke: #0000ff; stroke-linecap: square"/>
     <g>
      <use xlink:href="#m01d184c391" x="369.332812" y="38.538438" style="fill: #0000ff"/>
     </g>
    </g>
    <g id="text_18">
     <!-- LLM -->
     <g transform="translate(387.332812 42.038438) scale(0.1 -0.1)">
      <defs>
       <path id="DejaVuSans-4c" d="M 628 4666 
L 1259 4666 
L 1259 531 
L 3531 531 
L 3531 0 
L 628 0 
L 628 4666 
z
" transform="scale(0.015625)"/>
       <path id="DejaVuSans-4d" d="M 628 4666 
L 1569 4666 
L 2759 1491 
L 3956 4666 
L 4897 4666 
L 4897 0 
L 4281 0 
L 4281 4097 
L 3078 897 
L 2444 897 
L 1241 4097 
L 1241 0 
L 628 0 
L 628 4666 
z
" transform="scale(0.015625)"/>
      </defs>
      <use xlink:href="#DejaVuSans-4c"/>
      <use xlink:href="#DejaVuSans-4c" x="55.712891"/>
      <use xlink:href="#DejaVuSans-4d" x="111.425781"/>
     </g>
    </g>
    <g id="line2d_20">
     <path d="M 359.332812 53.216563 
L 369.332812 53.216563 
L 379.332812 53.216563 
" style="fill: none; stroke: #0000ff; stroke-opacity: 0.5; stroke-width: 0.5; stroke-linecap: square"/>
     <g>
      <use xlink:href="#m66f22e8a48" x="369.332812" y="53.216563" style="fill: #0000ff; fill-opacity: 0.5"/>
     </g>
    </g>
    <g id="text_19">
     <!-- LLM mean -->
     <g transform="translate(387.332812 56.716563) scale(0.1 -0.1)">
      <use xlink:href="#DejaVuSans-4c"/>
      <use xlink:href="#DejaVuSans-4c" x="55.712891"/>
      <use xlink:href="#DejaVuSans-4d" x="111.425781"/>
      <use xlink:href="#DejaVuSans-20" x="197.705078"/>
      <use xlink:href="#DejaVuSans-6d" x="229.492188"/>
      <use xlink:href="#DejaVuSans-65" x="326.904297"/>
      <use xlink:href="#DejaVuSans-61" x="388.427734"/>
      <use xlink:href="#DejaVuSans-6e" x="449.707031"/>
     </g>
    </g>
    <g id="line2d_21">
     <path d="M 359.332812 67.894688 
L 369.332812 67.894688 
L 379.332812 67.894688 
" style="fill: none; stroke: #ff0000; stroke-width: 0.5; stroke-linecap: square"/>
     <g>
      <use xlink:href="#mfce4409bcd" x="369.332812" y="67.894688" style="fill: #ff0000"/>
     </g>
    </g>
    <g id="text_20">
     <!-- RND -->
     <g transform="translate(387.332812 71.394688) scale(0.1 -0.1)">
      <defs>
       <path id="DejaVuSans-52" d="M 2841 2188 
Q 3044 2119 3236 1894 
Q 3428 1669 3622 1275 
L 4263 0 
L 3584 0 
L 2988 1197 
Q 2756 1666 2539 1819 
Q 2322 1972 1947 1972 
L 1259 1972 
L 1259 0 
L 628 0 
L 628 4666 
L 2053 4666 
Q 2853 4666 3247 4331 
Q 3641 3997 3641 3322 
Q 3641 2881 3436 2590 
Q 3231 2300 2841 2188 
z
M 1259 4147 
L 1259 2491 
L 2053 2491 
Q 2509 2491 2742 2702 
Q 2975 2913 2975 3322 
Q 2975 3731 2742 3939 
Q 2509 4147 2053 4147 
L 1259 4147 
z
" transform="scale(0.015625)"/>
       <path id="DejaVuSans-4e" d="M 628 4666 
L 1478 4666 
L 3547 763 
L 3547 4666 
L 4159 4666 
L 4159 0 
L 3309 0 
L 1241 3903 
L 1241 0 
L 628 0 
L 628 4666 
z
" transform="scale(0.015625)"/>
       <path id="DejaVuSans-44" d="M 1259 4147 
L 1259 519 
L 2022 519 
Q 2988 519 3436 956 
Q 3884 1394 3884 2338 
Q 3884 3275 3436 3711 
Q 2988 4147 2022 4147 
L 1259 4147 
z
M 628 4666 
L 1925 4666 
Q 3281 4666 3915 4102 
Q 4550 3538 4550 2338 
Q 4550 1131 3912 565 
Q 3275 0 1925 0 
L 628 0 
L 628 4666 
z
" transform="scale(0.015625)"/>
      </defs>
      <use xlink:href="#DejaVuSans-52"/>
      <use xlink:href="#DejaVuSans-4e" x="69.482422"/>
      <use xlink:href="#DejaVuSans-44" x="144.287109"/>
     </g>
    </g>
    <g id="line2d_22">
     <path d="M 359.332812 82.572813 
L 369.332812 82.572813 
L 379.332812 82.572813 
" style="fill: none; stroke: #ff0000; stroke-opacity: 0.5; stroke-width: 0.25; stroke-linecap: square"/>
     <g>
      <use xlink:href="#m8cd566682f" x="369.332812" y="82.572813" style="fill: #ff0000; fill-opacity: 0.5"/>
     </g>
    </g>
    <g id="text_21">
     <!-- RND mean -->
     <g transform="translate(387.332812 86.072813) scale(0.1 -0.1)">
      <use xlink:href="#DejaVuSans-52"/>
      <use xlink:href="#DejaVuSans-4e" x="69.482422"/>
      <use xlink:href="#DejaVuSans-44" x="144.287109"/>
      <use xlink:href="#DejaVuSans-20" x="221.289062"/>
      <use xlink:href="#DejaVuSans-6d" x="253.076172"/>
      <use xlink:href="#DejaVuSans-65" x="350.488281"/>
      <use xlink:href="#DejaVuSans-61" x="412.011719"/>
      <use xlink:href="#DejaVuSans-6e" x="473.291016"/>
     </g>
    </g>
   </g>
  </g>
 </g>
 <defs>
  <clipPath id="pc32b47781f">
   <rect x="47.81" y="25.44" width="402.19" height="278.2"/>
  </clipPath>
 </defs>
</svg>
