<?xml version="1.0" encoding="utf-8" standalone="no"?>
<!DOCTYPE svg PUBLIC "-//W3C//DTD SVG 1.1//EN"
  "http://www.w3.org/Graphics/SVG/1.1/DTD/svg11.dtd">
<svg xmlns:xlink="http://www.w3.org/1999/xlink" width="460.8pt" height="345.6pt" viewBox="0 0 460.8 345.6" xmlns="http://www.w3.org/2000/svg" version="1.1">
 <metadata>
  <rdf:RDF xmlns:dc="http://purl.org/dc/elements/1.1/" xmlns:cc="http://creativecommons.org/ns#" xmlns:rdf="http://www.w3.org/1999/02/22-rdf-syntax-ns#">
   <cc:Work>
    <dc:type rdf:resource="http://purl.org/dc/dcmitype/StillImage"/>
    <dc:date>2024-04-10T10:32:29.005959</dc:date>
    <dc:format>image/svg+xml</dc:format>
    <dc:creator>
     <cc:Agent>
      <dc:title>Matplotlib v3.8.0, https://matplotlib.org/</dc:title>
     </cc:Agent>
    </dc:creator>
   </cc:Work>
  </rdf:RDF>
 </metadata>
 <defs>
  <style type="text/css">*{stroke-linejoin: round; stroke-linecap: butt}</style>
 </defs>
 <g id="figure_1">
  <g id="patch_1">
   <path d="M 0 345.6 
L 460.8 345.6 
L 460.8 0 
L 0 0 
z
" style="fill: #ffffff"/>
  </g>
  <g id="axes_1">
   <g id="patch_2">
    <path d="M 47.81 303.64 
L 450 303.64 
L 450 25.44 
L 47.81 25.44 
z
" style="fill: #ffffff"/>
   </g>
   <g id="PolyCollection_1">
    <defs>
     <path id="mc4e0f235c8" d="M 66.091364 -290.273543 
L 66.091364 -290.273543 
L 69.784568 -307.514545 
L 73.477773 -304.556457 
L 77.170978 -303.245975 
L 80.864183 -304.818263 
L 84.557388 -305.626461 
L 88.250592 -306.094493 
L 91.943797 -305.40646 
L 95.637002 -305.777129 
L 99.330207 -306.035501 
L 103.023411 -306.220461 
L 106.716616 -306.355328 
L 110.409821 -306.454858 
L 114.103026 -306.528791 
L 117.79623 -306.583774 
L 121.489435 -306.624478 
L 125.18264 -306.654259 
L 128.875845 -306.67558 
L 132.56905 -306.690279 
L 136.262254 -306.49351 
L 139.955459 -306.299094 
L 143.648664 -306.339811 
L 147.341869 -306.373588 
L 151.035073 -306.401569 
L 154.728278 -306.424681 
L 158.421483 -306.443678 
L 162.114688 -306.459183 
L 165.807893 -307.226491 
L 169.501097 -307.044513 
L 173.194302 -307.068313 
L 176.887507 -306.901174 
L 180.580712 -306.740521 
L 180.580712 -296.569959 
L 180.580712 -296.569959 
L 176.887507 -296.68287 
L 173.194302 -296.807533 
L 169.501097 -296.650744 
L 165.807893 -296.785382 
L 162.114688 -298.950753 
L 158.421483 -298.823836 
L 154.728278 -298.689017 
L 151.035073 -298.545495 
L 147.341869 -298.392352 
L 143.648664 -298.228539 
L 139.955459 -298.052849 
L 136.262254 -298.33453 
L 132.56905 -298.663974 
L 128.875845 -298.469858 
L 125.18264 -298.257798 
L 121.489435 -298.025025 
L 117.79623 -297.768168 
L 114.103026 -297.483083 
L 110.409821 -297.164627 
L 106.716616 -296.806372 
L 103.023411 -296.400219 
L 99.330207 -295.935956 
L 95.637002 -295.400832 
L 91.943797 -294.779632 
L 88.250592 -294.856756 
L 84.557388 -293.96451 
L 80.864183 -292.868319 
L 77.170978 -291.584024 
L 73.477773 -290.273543 
L 69.784568 -287.315454 
L 66.091364 -290.273543 
z
" style="stroke: #0000ff; stroke-opacity: 0.2"/>
    </defs>
    <g clip-path="url(#p94ba445d96)">
     <use xlink:href="#mc4e0f235c8" x="0" y="345.6" style="fill: #0000ff; fill-opacity: 0.2; stroke: #0000ff; stroke-opacity: 0.2"/>
    </g>
   </g>
   <g id="PolyCollection_2">
    <defs>
     <path id="m0a980a8f4e" d="M 66.091364 -161.727313 
L 66.091364 -161.727313 
L 69.784568 -167.64349 
L 73.477773 -161.727313 
L 77.170978 -157.855394 
L 80.864183 -156.271725 
L 84.557388 -153.349766 
L 88.250592 -151.006329 
L 91.943797 -153.666895 
L 95.637002 -152.20537 
L 99.330207 -150.769397 
L 103.023411 -154.353063 
L 106.716616 -153.249261 
L 110.409821 -152.289817 
L 114.103026 -152.662674 
L 117.79623 -155.344469 
L 121.489435 -153.975226 
L 125.18264 -152.970246 
L 128.875845 -154.266606 
L 132.56905 -153.719681 
L 136.262254 -152.702705 
L 139.955459 -152.301004 
L 143.648664 -151.34246 
L 147.341869 -151.99654 
L 151.035073 -151.677164 
L 154.728278 -150.838798 
L 158.421483 -150.979593 
L 162.114688 -150.264323 
L 165.807893 -150.406604 
L 169.501097 -149.93041 
L 173.194302 -151.522163 
L 176.887507 -151.278261 
L 180.580712 -151.712217 
L 184.273916 -151.750944 
L 187.967121 -152.926421 
L 191.660326 -152.249707 
L 195.353531 -152.062322 
L 199.046736 -151.425981 
L 202.73994 -151.854278 
L 206.433145 -152.609134 
L 210.12635 -152.024975 
L 213.819555 -151.862609 
L 217.512759 -151.936776 
L 221.205964 -151.38294 
L 224.899169 -151.466421 
L 228.592374 -150.94196 
L 232.285579 -151.608084 
L 235.978783 -151.931391 
L 239.671988 -151.521932 
L 243.365193 -151.233762 
L 247.058398 -151.301069 
L 250.751602 -151.171547 
L 254.444807 -150.802902 
L 258.138012 -151.368497 
L 261.831217 -151.011785 
L 265.524421 -151.623242 
L 269.217626 -151.213735 
L 272.910831 -150.877926 
L 276.604036 -150.463737 
L 280.297241 -150.147531 
L 283.990445 -150.243876 
L 287.68365 -150.167024 
L 291.376855 -150.255275 
L 295.07006 -150.051345 
L 298.763264 -149.852402 
L 302.456469 -149.658247 
L 306.149674 -149.744266 
L 309.842879 -150.011118 
L 313.536084 -149.74015 
L 317.229288 -149.816805 
L 320.922493 -149.74497 
L 324.615698 -149.564463 
L 328.308903 -149.269097 
L 332.002107 -148.979432 
L 335.695312 -149.06045 
L 339.388517 -148.789733 
L 343.081722 -148.631541 
L 346.774927 -148.413891 
L 350.468131 -148.504306 
L 354.161336 -148.590721 
L 357.854541 -148.673332 
L 361.547746 -149.309077 
L 365.24095 -149.05118 
L 368.934155 -149.274358 
L 372.62736 -149.013695 
L 376.320565 -148.772449 
L 380.01377 -149.85018 
L 383.706974 -149.793782 
L 387.400179 -149.74927 
L 391.093384 -149.544839 
L 394.786589 -149.301597 
L 398.479793 -149.148746 
L 402.172998 -149.110986 
L 405.866203 -149.185668 
L 409.559408 -149.059588 
L 413.252612 -148.872947 
L 416.945817 -148.689447 
L 420.639022 -149.228123 
L 424.332227 -149.294819 
L 428.025432 -149.635905 
L 431.718636 -150.135715 
L 431.718636 -104.332434 
L 431.718636 -104.332434 
L 428.025432 -104.135411 
L 424.332227 -103.911187 
L 420.639022 -103.695409 
L 416.945817 -103.499387 
L 413.252612 -103.4678 
L 409.559408 -103.436303 
L 405.866203 -103.315125 
L 402.172998 -103.084317 
L 398.479793 -102.891308 
L 394.786589 -103.690651 
L 391.093384 -104.100036 
L 387.400179 -104.076148 
L 383.706974 -105.201357 
L 380.01377 -105.013241 
L 376.320565 -104.947947 
L 372.62736 -105.406844 
L 368.934155 -105.691112 
L 365.24095 -105.427419 
L 361.547746 -105.552293 
L 357.854541 -105.330622 
L 354.161336 -105.076499 
L 350.468131 -104.817547 
L 346.774927 -104.553625 
L 343.081722 -105.287843 
L 339.388517 -105.154709 
L 335.695312 -105.681776 
L 332.002107 -105.408498 
L 328.308903 -105.54819 
L 324.615698 -105.694275 
L 320.922493 -105.559749 
L 317.229288 -105.32823 
L 313.536084 -105.03046 
L 309.842879 -105.013425 
L 306.149674 -104.676273 
L 302.456469 -104.35944 
L 298.763264 -104.196186 
L 295.07006 -104.029125 
L 291.376855 -103.858105 
L 287.68365 -103.512052 
L 283.990445 -103.224469 
L 280.297241 -102.860855 
L 276.604036 -102.807602 
L 272.910831 -103.166746 
L 269.217626 -103.121787 
L 265.524421 -103.273394 
L 261.831217 -106.582735 
L 258.138012 -106.600313 
L 254.444807 -106.181237 
L 250.751602 -106.189592 
L 247.058398 -105.880833 
L 243.365193 -105.4701 
L 239.671988 -105.279093 
L 235.978783 -105.274823 
L 232.285579 -104.778943 
L 228.592374 -104.272075 
L 224.899169 -104.793584 
L 221.205964 -104.310882 
L 217.512759 -104.864249 
L 213.819555 -104.357809 
L 210.12635 -103.94288 
L 206.433145 -104.191891 
L 202.73994 -103.568571 
L 199.046736 -102.930221 
L 195.353531 -103.945207 
L 191.660326 -103.463096 
L 187.967121 -103.734575 
L 184.273916 -109.378237 
L 180.580712 -108.808317 
L 176.887507 -108.133619 
L 173.194302 -107.659348 
L 169.501097 -107.034786 
L 165.807893 -106.734491 
L 162.114688 -106.007705 
L 158.421483 -106.004547 
L 154.728278 -105.200472 
L 151.035073 -106.909225 
L 147.341869 -106.253476 
L 143.648664 -105.242157 
L 139.955459 -107.220576 
L 136.262254 -106.478806 
L 132.56905 -108.844625 
L 128.875845 -112.849857 
L 125.18264 -111.672379 
L 121.489435 -111.455059 
L 117.79623 -112.882887 
L 114.103026 -123.862375 
L 110.409821 -122.822637 
L 106.716616 -122.595649 
L 103.023411 -122.357479 
L 99.330207 -121.266736 
L 95.637002 -123.639541 
L 91.943797 -123.368258 
L 88.250592 -121.437887 
L 84.557388 -122.495145 
L 80.864183 -124.334157 
L 77.170978 -133.462674 
L 73.477773 -133.161484 
L 69.784568 -127.245307 
L 66.091364 -161.727313 
z
" style="stroke: #ff0000; stroke-opacity: 0.1"/>
    </defs>
    <g clip-path="url(#p94ba445d96)">
     <use xlink:href="#m0a980a8f4e" x="0" y="345.6" style="fill: #ff0000; fill-opacity: 0.1; stroke: #ff0000; stroke-opacity: 0.1"/>
    </g>
   </g>
   <g id="matplotlib.axis_1">
    <g id="xtick_1">
     <g id="line2d_1">
      <defs>
       <path id="m66dff054a4" d="M 0 0 
L 0 3.5 
" style="stroke: #000000; stroke-width: 0.8"/>
      </defs>
      <g>
       <use xlink:href="#m66dff054a4" x="66.091364" y="303.64" style="stroke: #000000; stroke-width: 0.8"/>
      </g>
     </g>
     <g id="text_1">
      <!-- 0 -->
      <g transform="translate(62.910114 318.238437) scale(0.1 -0.1)">
       <defs>
        <path id="DejaVuSans-30" d="M 2034 4250 
Q 1547 4250 1301 3770 
Q 1056 3291 1056 2328 
Q 1056 1369 1301 889 
Q 1547 409 2034 409 
Q 2525 409 2770 889 
Q 3016 1369 3016 2328 
Q 3016 3291 2770 3770 
Q 2525 4250 2034 4250 
z
M 2034 4750 
Q 2819 4750 3233 4129 
Q 3647 3509 3647 2328 
Q 3647 1150 3233 529 
Q 2819 -91 2034 -91 
Q 1250 -91 836 529 
Q 422 1150 422 2328 
Q 422 3509 836 4129 
Q 1250 4750 2034 4750 
z
" transform="scale(0.015625)"/>
       </defs>
       <use xlink:href="#DejaVuSans-30"/>
      </g>
     </g>
    </g>
    <g id="xtick_2">
     <g id="line2d_2">
      <g>
       <use xlink:href="#m66dff054a4" x="139.955459" y="303.64" style="stroke: #000000; stroke-width: 0.8"/>
      </g>
     </g>
     <g id="text_2">
      <!-- 20 -->
      <g transform="translate(133.592959 318.238437) scale(0.1 -0.1)">
       <defs>
        <path id="DejaVuSans-32" d="M 1228 531 
L 3431 531 
L 3431 0 
L 469 0 
L 469 531 
Q 828 903 1448 1529 
Q 2069 2156 2228 2338 
Q 2531 2678 2651 2914 
Q 2772 3150 2772 3378 
Q 2772 3750 2511 3984 
Q 2250 4219 1831 4219 
Q 1534 4219 1204 4116 
Q 875 4013 500 3803 
L 500 4441 
Q 881 4594 1212 4672 
Q 1544 4750 1819 4750 
Q 2544 4750 2975 4387 
Q 3406 4025 3406 3419 
Q 3406 3131 3298 2873 
Q 3191 2616 2906 2266 
Q 2828 2175 2409 1742 
Q 1991 1309 1228 531 
z
" transform="scale(0.015625)"/>
       </defs>
       <use xlink:href="#DejaVuSans-32"/>
       <use xlink:href="#DejaVuSans-30" x="63.623047"/>
      </g>
     </g>
    </g>
    <g id="xtick_3">
     <g id="line2d_3">
      <g>
       <use xlink:href="#m66dff054a4" x="213.819555" y="303.64" style="stroke: #000000; stroke-width: 0.8"/>
      </g>
     </g>
     <g id="text_3">
      <!-- 40 -->
      <g transform="translate(207.457055 318.238437) scale(0.1 -0.1)">
       <defs>
        <path id="DejaVuSans-34" d="M 2419 4116 
L 825 1625 
L 2419 1625 
L 2419 4116 
z
M 2253 4666 
L 3047 4666 
L 3047 1625 
L 3713 1625 
L 3713 1100 
L 3047 1100 
L 3047 0 
L 2419 0 
L 2419 1100 
L 313 1100 
L 313 1709 
L 2253 4666 
z
" transform="scale(0.015625)"/>
       </defs>
       <use xlink:href="#DejaVuSans-34"/>
       <use xlink:href="#DejaVuSans-30" x="63.623047"/>
      </g>
     </g>
    </g>
    <g id="xtick_4">
     <g id="line2d_4">
      <g>
       <use xlink:href="#m66dff054a4" x="287.68365" y="303.64" style="stroke: #000000; stroke-width: 0.8"/>
      </g>
     </g>
     <g id="text_4">
      <!-- 60 -->
      <g transform="translate(281.32115 318.238437) scale(0.1 -0.1)">
       <defs>
        <path id="DejaVuSans-36" d="M 2113 2584 
Q 1688 2584 1439 2293 
Q 1191 2003 1191 1497 
Q 1191 994 1439 701 
Q 1688 409 2113 409 
Q 2538 409 2786 701 
Q 3034 994 3034 1497 
Q 3034 2003 2786 2293 
Q 2538 2584 2113 2584 
z
M 3366 4563 
L 3366 3988 
Q 3128 4100 2886 4159 
Q 2644 4219 2406 4219 
Q 1781 4219 1451 3797 
Q 1122 3375 1075 2522 
Q 1259 2794 1537 2939 
Q 1816 3084 2150 3084 
Q 2853 3084 3261 2657 
Q 3669 2231 3669 1497 
Q 3669 778 3244 343 
Q 2819 -91 2113 -91 
Q 1303 -91 875 529 
Q 447 1150 447 2328 
Q 447 3434 972 4092 
Q 1497 4750 2381 4750 
Q 2619 4750 2861 4703 
Q 3103 4656 3366 4563 
z
" transform="scale(0.015625)"/>
       </defs>
       <use xlink:href="#DejaVuSans-36"/>
       <use xlink:href="#DejaVuSans-30" x="63.623047"/>
      </g>
     </g>
    </g>
    <g id="xtick_5">
     <g id="line2d_5">
      <g>
       <use xlink:href="#m66dff054a4" x="361.547746" y="303.64" style="stroke: #000000; stroke-width: 0.8"/>
      </g>
     </g>
     <g id="text_5">
      <!-- 80 -->
      <g transform="translate(355.185246 318.238437) scale(0.1 -0.1)">
       <defs>
        <path id="DejaVuSans-38" d="M 2034 2216 
Q 1584 2216 1326 1975 
Q 1069 1734 1069 1313 
Q 1069 891 1326 650 
Q 1584 409 2034 409 
Q 2484 409 2743 651 
Q 3003 894 3003 1313 
Q 3003 1734 2745 1975 
Q 2488 2216 2034 2216 
z
M 1403 2484 
Q 997 2584 770 2862 
Q 544 3141 544 3541 
Q 544 4100 942 4425 
Q 1341 4750 2034 4750 
Q 2731 4750 3128 4425 
Q 3525 4100 3525 3541 
Q 3525 3141 3298 2862 
Q 3072 2584 2669 2484 
Q 3125 2378 3379 2068 
Q 3634 1759 3634 1313 
Q 3634 634 3220 271 
Q 2806 -91 2034 -91 
Q 1263 -91 848 271 
Q 434 634 434 1313 
Q 434 1759 690 2068 
Q 947 2378 1403 2484 
z
M 1172 3481 
Q 1172 3119 1398 2916 
Q 1625 2713 2034 2713 
Q 2441 2713 2670 2916 
Q 2900 3119 2900 3481 
Q 2900 3844 2670 4047 
Q 2441 4250 2034 4250 
Q 1625 4250 1398 4047 
Q 1172 3844 1172 3481 
z
" transform="scale(0.015625)"/>
       </defs>
       <use xlink:href="#DejaVuSans-38"/>
       <use xlink:href="#DejaVuSans-30" x="63.623047"/>
      </g>
     </g>
    </g>
    <g id="xtick_6">
     <g id="line2d_6">
      <g>
       <use xlink:href="#m66dff054a4" x="435.411841" y="303.64" style="stroke: #000000; stroke-width: 0.8"/>
      </g>
     </g>
     <g id="text_6">
      <!-- 100 -->
      <g transform="translate(425.868091 318.238437) scale(0.1 -0.1)">
       <defs>
        <path id="DejaVuSans-31" d="M 794 531 
L 1825 531 
L 1825 4091 
L 703 3866 
L 703 4441 
L 1819 4666 
L 2450 4666 
L 2450 531 
L 3481 531 
L 3481 0 
L 794 0 
L 794 531 
z
" transform="scale(0.015625)"/>
       </defs>
       <use xlink:href="#DejaVuSans-31"/>
       <use xlink:href="#DejaVuSans-30" x="63.623047"/>
       <use xlink:href="#DejaVuSans-30" x="127.246094"/>
      </g>
     </g>
    </g>
    <g id="text_7">
     <!-- Iteration -->
     <g transform="translate(227.696406 331.916562) scale(0.1 -0.1)">
      <defs>
       <path id="DejaVuSans-49" d="M 628 4666 
L 1259 4666 
L 1259 0 
L 628 0 
L 628 4666 
z
" transform="scale(0.015625)"/>
       <path id="DejaVuSans-74" d="M 1172 4494 
L 1172 3500 
L 2356 3500 
L 2356 3053 
L 1172 3053 
L 1172 1153 
Q 1172 725 1289 603 
Q 1406 481 1766 481 
L 2356 481 
L 2356 0 
L 1766 0 
Q 1100 0 847 248 
Q 594 497 594 1153 
L 594 3053 
L 172 3053 
L 172 3500 
L 594 3500 
L 594 4494 
L 1172 4494 
z
" transform="scale(0.015625)"/>
       <path id="DejaVuSans-65" d="M 3597 1894 
L 3597 1613 
L 953 1613 
Q 991 1019 1311 708 
Q 1631 397 2203 397 
Q 2534 397 2845 478 
Q 3156 559 3463 722 
L 3463 178 
Q 3153 47 2828 -22 
Q 2503 -91 2169 -91 
Q 1331 -91 842 396 
Q 353 884 353 1716 
Q 353 2575 817 3079 
Q 1281 3584 2069 3584 
Q 2775 3584 3186 3129 
Q 3597 2675 3597 1894 
z
M 3022 2063 
Q 3016 2534 2758 2815 
Q 2500 3097 2075 3097 
Q 1594 3097 1305 2825 
Q 1016 2553 972 2059 
L 3022 2063 
z
" transform="scale(0.015625)"/>
       <path id="DejaVuSans-72" d="M 2631 2963 
Q 2534 3019 2420 3045 
Q 2306 3072 2169 3072 
Q 1681 3072 1420 2755 
Q 1159 2438 1159 1844 
L 1159 0 
L 581 0 
L 581 3500 
L 1159 3500 
L 1159 2956 
Q 1341 3275 1631 3429 
Q 1922 3584 2338 3584 
Q 2397 3584 2469 3576 
Q 2541 3569 2628 3553 
L 2631 2963 
z
" transform="scale(0.015625)"/>
       <path id="DejaVuSans-61" d="M 2194 1759 
Q 1497 1759 1228 1600 
Q 959 1441 959 1056 
Q 959 750 1161 570 
Q 1363 391 1709 391 
Q 2188 391 2477 730 
Q 2766 1069 2766 1631 
L 2766 1759 
L 2194 1759 
z
M 3341 1997 
L 3341 0 
L 2766 0 
L 2766 531 
Q 2569 213 2275 61 
Q 1981 -91 1556 -91 
Q 1019 -91 701 211 
Q 384 513 384 1019 
Q 384 1609 779 1909 
Q 1175 2209 1959 2209 
L 2766 2209 
L 2766 2266 
Q 2766 2663 2505 2880 
Q 2244 3097 1772 3097 
Q 1472 3097 1187 3025 
Q 903 2953 641 2809 
L 641 3341 
Q 956 3463 1253 3523 
Q 1550 3584 1831 3584 
Q 2591 3584 2966 3190 
Q 3341 2797 3341 1997 
z
" transform="scale(0.015625)"/>
       <path id="DejaVuSans-69" d="M 603 3500 
L 1178 3500 
L 1178 0 
L 603 0 
L 603 3500 
z
M 603 4863 
L 1178 4863 
L 1178 4134 
L 603 4134 
L 603 4863 
z
" transform="scale(0.015625)"/>
       <path id="DejaVuSans-6f" d="M 1959 3097 
Q 1497 3097 1228 2736 
Q 959 2375 959 1747 
Q 959 1119 1226 758 
Q 1494 397 1959 397 
Q 2419 397 2687 759 
Q 2956 1122 2956 1747 
Q 2956 2369 2687 2733 
Q 2419 3097 1959 3097 
z
M 1959 3584 
Q 2709 3584 3137 3096 
Q 3566 2609 3566 1747 
Q 3566 888 3137 398 
Q 2709 -91 1959 -91 
Q 1206 -91 779 398 
Q 353 888 353 1747 
Q 353 2609 779 3096 
Q 1206 3584 1959 3584 
z
" transform="scale(0.015625)"/>
       <path id="DejaVuSans-6e" d="M 3513 2113 
L 3513 0 
L 2938 0 
L 2938 2094 
Q 2938 2591 2744 2837 
Q 2550 3084 2163 3084 
Q 1697 3084 1428 2787 
Q 1159 2491 1159 1978 
L 1159 0 
L 581 0 
L 581 3500 
L 1159 3500 
L 1159 2956 
Q 1366 3272 1645 3428 
Q 1925 3584 2291 3584 
Q 2894 3584 3203 3211 
Q 3513 2838 3513 2113 
z
" transform="scale(0.015625)"/>
      </defs>
      <use xlink:href="#DejaVuSans-49"/>
      <use xlink:href="#DejaVuSans-74" x="29.492188"/>
      <use xlink:href="#DejaVuSans-65" x="68.701172"/>
      <use xlink:href="#DejaVuSans-72" x="130.224609"/>
      <use xlink:href="#DejaVuSans-61" x="171.337891"/>
      <use xlink:href="#DejaVuSans-74" x="232.617188"/>
      <use xlink:href="#DejaVuSans-69" x="271.826172"/>
      <use xlink:href="#DejaVuSans-6f" x="299.609375"/>
      <use xlink:href="#DejaVuSans-6e" x="360.791016"/>
     </g>
    </g>
   </g>
   <g id="matplotlib.axis_2">
    <g id="ytick_1">
     <g id="line2d_7">
      <defs>
       <path id="m2487791302" d="M 0 0 
L -3.5 0 
" style="stroke: #000000; stroke-width: 0.8"/>
      </defs>
      <g>
       <use xlink:href="#m2487791302" x="47.81" y="290.994545" style="stroke: #000000; stroke-width: 0.8"/>
      </g>
     </g>
     <g id="text_8">
      <!-- 0.3 -->
      <g transform="translate(24.906875 294.793764) scale(0.1 -0.1)">
       <defs>
        <path id="DejaVuSans-2e" d="M 684 794 
L 1344 794 
L 1344 0 
L 684 0 
L 684 794 
z
" transform="scale(0.015625)"/>
        <path id="DejaVuSans-33" d="M 2597 2516 
Q 3050 2419 3304 2112 
Q 3559 1806 3559 1356 
Q 3559 666 3084 287 
Q 2609 -91 1734 -91 
Q 1441 -91 1130 -33 
Q 819 25 488 141 
L 488 750 
Q 750 597 1062 519 
Q 1375 441 1716 441 
Q 2309 441 2620 675 
Q 2931 909 2931 1356 
Q 2931 1769 2642 2001 
Q 2353 2234 1838 2234 
L 1294 2234 
L 1294 2753 
L 1863 2753 
Q 2328 2753 2575 2939 
Q 2822 3125 2822 3475 
Q 2822 3834 2567 4026 
Q 2313 4219 1838 4219 
Q 1578 4219 1281 4162 
Q 984 4106 628 3988 
L 628 4550 
Q 988 4650 1302 4700 
Q 1616 4750 1894 4750 
Q 2613 4750 3031 4423 
Q 3450 4097 3450 3541 
Q 3450 3153 3228 2886 
Q 3006 2619 2597 2516 
z
" transform="scale(0.015625)"/>
       </defs>
       <use xlink:href="#DejaVuSans-30"/>
       <use xlink:href="#DejaVuSans-2e" x="63.623047"/>
       <use xlink:href="#DejaVuSans-33" x="95.410156"/>
      </g>
     </g>
    </g>
    <g id="ytick_2">
     <g id="line2d_8">
      <g>
       <use xlink:href="#m2487791302" x="47.81" y="255.287259" style="stroke: #000000; stroke-width: 0.8"/>
      </g>
     </g>
     <g id="text_9">
      <!-- 0.4 -->
      <g transform="translate(24.906875 259.086478) scale(0.1 -0.1)">
       <use xlink:href="#DejaVuSans-30"/>
       <use xlink:href="#DejaVuSans-2e" x="63.623047"/>
       <use xlink:href="#DejaVuSans-34" x="95.410156"/>
      </g>
     </g>
    </g>
    <g id="ytick_3">
     <g id="line2d_9">
      <g>
       <use xlink:href="#m2487791302" x="47.81" y="219.579973" style="stroke: #000000; stroke-width: 0.8"/>
      </g>
     </g>
     <g id="text_10">
      <!-- 0.5 -->
      <g transform="translate(24.906875 223.379192) scale(0.1 -0.1)">
       <defs>
        <path id="DejaVuSans-35" d="M 691 4666 
L 3169 4666 
L 3169 4134 
L 1269 4134 
L 1269 2991 
Q 1406 3038 1543 3061 
Q 1681 3084 1819 3084 
Q 2600 3084 3056 2656 
Q 3513 2228 3513 1497 
Q 3513 744 3044 326 
Q 2575 -91 1722 -91 
Q 1428 -91 1123 -41 
Q 819 9 494 109 
L 494 744 
Q 775 591 1075 516 
Q 1375 441 1709 441 
Q 2250 441 2565 725 
Q 2881 1009 2881 1497 
Q 2881 1984 2565 2268 
Q 2250 2553 1709 2553 
Q 1456 2553 1204 2497 
Q 953 2441 691 2322 
L 691 4666 
z
" transform="scale(0.015625)"/>
       </defs>
       <use xlink:href="#DejaVuSans-30"/>
       <use xlink:href="#DejaVuSans-2e" x="63.623047"/>
       <use xlink:href="#DejaVuSans-35" x="95.410156"/>
      </g>
     </g>
    </g>
    <g id="ytick_4">
     <g id="line2d_10">
      <g>
       <use xlink:href="#m2487791302" x="47.81" y="183.872687" style="stroke: #000000; stroke-width: 0.8"/>
      </g>
     </g>
     <g id="text_11">
      <!-- 0.6 -->
      <g transform="translate(24.906875 187.671906) scale(0.1 -0.1)">
       <use xlink:href="#DejaVuSans-30"/>
       <use xlink:href="#DejaVuSans-2e" x="63.623047"/>
       <use xlink:href="#DejaVuSans-36" x="95.410156"/>
      </g>
     </g>
    </g>
    <g id="ytick_5">
     <g id="line2d_11">
      <g>
       <use xlink:href="#m2487791302" x="47.81" y="148.165401" style="stroke: #000000; stroke-width: 0.8"/>
      </g>
     </g>
     <g id="text_12">
      <!-- 0.7 -->
      <g transform="translate(24.906875 151.96462) scale(0.1 -0.1)">
       <defs>
        <path id="DejaVuSans-37" d="M 525 4666 
L 3525 4666 
L 3525 4397 
L 1831 0 
L 1172 0 
L 2766 4134 
L 525 4134 
L 525 4666 
z
" transform="scale(0.015625)"/>
       </defs>
       <use xlink:href="#DejaVuSans-30"/>
       <use xlink:href="#DejaVuSans-2e" x="63.623047"/>
       <use xlink:href="#DejaVuSans-37" x="95.410156"/>
      </g>
     </g>
    </g>
    <g id="ytick_6">
     <g id="line2d_12">
      <g>
       <use xlink:href="#m2487791302" x="47.81" y="112.458115" style="stroke: #000000; stroke-width: 0.8"/>
      </g>
     </g>
     <g id="text_13">
      <!-- 0.8 -->
      <g transform="translate(24.906875 116.257334) scale(0.1 -0.1)">
       <use xlink:href="#DejaVuSans-30"/>
       <use xlink:href="#DejaVuSans-2e" x="63.623047"/>
       <use xlink:href="#DejaVuSans-38" x="95.410156"/>
      </g>
     </g>
    </g>
    <g id="ytick_7">
     <g id="line2d_13">
      <g>
       <use xlink:href="#m2487791302" x="47.81" y="76.750829" style="stroke: #000000; stroke-width: 0.8"/>
      </g>
     </g>
     <g id="text_14">
      <!-- 0.9 -->
      <g transform="translate(24.906875 80.550048) scale(0.1 -0.1)">
       <defs>
        <path id="DejaVuSans-39" d="M 703 97 
L 703 672 
Q 941 559 1184 500 
Q 1428 441 1663 441 
Q 2288 441 2617 861 
Q 2947 1281 2994 2138 
Q 2813 1869 2534 1725 
Q 2256 1581 1919 1581 
Q 1219 1581 811 2004 
Q 403 2428 403 3163 
Q 403 3881 828 4315 
Q 1253 4750 1959 4750 
Q 2769 4750 3195 4129 
Q 3622 3509 3622 2328 
Q 3622 1225 3098 567 
Q 2575 -91 1691 -91 
Q 1453 -91 1209 -44 
Q 966 3 703 97 
z
M 1959 2075 
Q 2384 2075 2632 2365 
Q 2881 2656 2881 3163 
Q 2881 3666 2632 3958 
Q 2384 4250 1959 4250 
Q 1534 4250 1286 3958 
Q 1038 3666 1038 3163 
Q 1038 2656 1286 2365 
Q 1534 2075 1959 2075 
z
" transform="scale(0.015625)"/>
       </defs>
       <use xlink:href="#DejaVuSans-30"/>
       <use xlink:href="#DejaVuSans-2e" x="63.623047"/>
       <use xlink:href="#DejaVuSans-39" x="95.410156"/>
      </g>
     </g>
    </g>
    <g id="ytick_8">
     <g id="line2d_14">
      <g>
       <use xlink:href="#m2487791302" x="47.81" y="41.043543" style="stroke: #000000; stroke-width: 0.8"/>
      </g>
     </g>
     <g id="text_15">
      <!-- 1.0 -->
      <g transform="translate(24.906875 44.842762) scale(0.1 -0.1)">
       <use xlink:href="#DejaVuSans-31"/>
       <use xlink:href="#DejaVuSans-2e" x="63.623047"/>
       <use xlink:href="#DejaVuSans-30" x="95.410156"/>
      </g>
     </g>
    </g>
    <g id="text_16">
     <!-- Avg action -->
     <g transform="translate(18.827187 190.779844) rotate(-90) scale(0.1 -0.1)">
      <defs>
       <path id="DejaVuSans-41" d="M 2188 4044 
L 1331 1722 
L 3047 1722 
L 2188 4044 
z
M 1831 4666 
L 2547 4666 
L 4325 0 
L 3669 0 
L 3244 1197 
L 1141 1197 
L 716 0 
L 50 0 
L 1831 4666 
z
" transform="scale(0.015625)"/>
       <path id="DejaVuSans-76" d="M 191 3500 
L 800 3500 
L 1894 563 
L 2988 3500 
L 3597 3500 
L 2284 0 
L 1503 0 
L 191 3500 
z
" transform="scale(0.015625)"/>
       <path id="DejaVuSans-67" d="M 2906 1791 
Q 2906 2416 2648 2759 
Q 2391 3103 1925 3103 
Q 1463 3103 1205 2759 
Q 947 2416 947 1791 
Q 947 1169 1205 825 
Q 1463 481 1925 481 
Q 2391 481 2648 825 
Q 2906 1169 2906 1791 
z
M 3481 434 
Q 3481 -459 3084 -895 
Q 2688 -1331 1869 -1331 
Q 1566 -1331 1297 -1286 
Q 1028 -1241 775 -1147 
L 775 -588 
Q 1028 -725 1275 -790 
Q 1522 -856 1778 -856 
Q 2344 -856 2625 -561 
Q 2906 -266 2906 331 
L 2906 616 
Q 2728 306 2450 153 
Q 2172 0 1784 0 
Q 1141 0 747 490 
Q 353 981 353 1791 
Q 353 2603 747 3093 
Q 1141 3584 1784 3584 
Q 2172 3584 2450 3431 
Q 2728 3278 2906 2969 
L 2906 3500 
L 3481 3500 
L 3481 434 
z
" transform="scale(0.015625)"/>
       <path id="DejaVuSans-20" transform="scale(0.015625)"/>
       <path id="DejaVuSans-63" d="M 3122 3366 
L 3122 2828 
Q 2878 2963 2633 3030 
Q 2388 3097 2138 3097 
Q 1578 3097 1268 2742 
Q 959 2388 959 1747 
Q 959 1106 1268 751 
Q 1578 397 2138 397 
Q 2388 397 2633 464 
Q 2878 531 3122 666 
L 3122 134 
Q 2881 22 2623 -34 
Q 2366 -91 2075 -91 
Q 1284 -91 818 406 
Q 353 903 353 1747 
Q 353 2603 823 3093 
Q 1294 3584 2113 3584 
Q 2378 3584 2631 3529 
Q 2884 3475 3122 3366 
z
" transform="scale(0.015625)"/>
      </defs>
      <use xlink:href="#DejaVuSans-41"/>
      <use xlink:href="#DejaVuSans-76" x="62.533203"/>
      <use xlink:href="#DejaVuSans-67" x="121.712891"/>
      <use xlink:href="#DejaVuSans-20" x="185.189453"/>
      <use xlink:href="#DejaVuSans-61" x="216.976562"/>
      <use xlink:href="#DejaVuSans-63" x="278.255859"/>
      <use xlink:href="#DejaVuSans-74" x="333.236328"/>
      <use xlink:href="#DejaVuSans-69" x="372.445312"/>
      <use xlink:href="#DejaVuSans-6f" x="400.228516"/>
      <use xlink:href="#DejaVuSans-6e" x="461.410156"/>
     </g>
    </g>
   </g>
   <g id="line2d_15">
    <path d="M 66.091364 55.326457 
L 69.784568 41.043543 
L 73.477773 48.185 
L 77.170978 48.185 
L 80.864183 41.043543 
L 84.557388 41.043543 
L 88.250592 41.043543 
L 91.943797 48.185 
L 95.637002 41.043543 
L 99.330207 41.043543 
L 103.023411 41.043543 
L 106.716616 41.043543 
L 110.409821 41.043543 
L 114.103026 41.043543 
L 117.79623 41.043543 
L 121.489435 41.043543 
L 125.18264 41.043543 
L 128.875845 41.043543 
L 132.56905 41.043543 
L 136.262254 48.185 
L 139.955459 48.185 
L 143.648664 41.043543 
L 147.341869 41.043543 
L 151.035073 41.043543 
L 154.728278 41.043543 
L 158.421483 41.043543 
L 162.114688 41.043543 
L 165.807893 62.467915 
L 169.501097 48.185 
L 173.194302 41.043543 
L 176.887507 48.185 
L 180.580712 48.185 
" clip-path="url(#p94ba445d96)" style="fill: none; stroke: #0000ff; stroke-linecap: square"/>
    <defs>
     <path id="m6b3431e1d8" d="M -0.49999 0.49999 
L 0.50001 0.49999 
L 0.50001 -0.50001 
L -0.49999 -0.50001 
z
"/>
    </defs>
    <g clip-path="url(#p94ba445d96)">
     <use xlink:href="#m6b3431e1d8" x="66.091364" y="55.326457" style="fill: #0000ff"/>
     <use xlink:href="#m6b3431e1d8" x="69.784568" y="41.043543" style="fill: #0000ff"/>
     <use xlink:href="#m6b3431e1d8" x="73.477773" y="48.185" style="fill: #0000ff"/>
     <use xlink:href="#m6b3431e1d8" x="77.170978" y="48.185" style="fill: #0000ff"/>
     <use xlink:href="#m6b3431e1d8" x="80.864183" y="41.043543" style="fill: #0000ff"/>
     <use xlink:href="#m6b3431e1d8" x="84.557388" y="41.043543" style="fill: #0000ff"/>
     <use xlink:href="#m6b3431e1d8" x="88.250592" y="41.043543" style="fill: #0000ff"/>
     <use xlink:href="#m6b3431e1d8" x="91.943797" y="48.185" style="fill: #0000ff"/>
     <use xlink:href="#m6b3431e1d8" x="95.637002" y="41.043543" style="fill: #0000ff"/>
     <use xlink:href="#m6b3431e1d8" x="99.330207" y="41.043543" style="fill: #0000ff"/>
     <use xlink:href="#m6b3431e1d8" x="103.023411" y="41.043543" style="fill: #0000ff"/>
     <use xlink:href="#m6b3431e1d8" x="106.716616" y="41.043543" style="fill: #0000ff"/>
     <use xlink:href="#m6b3431e1d8" x="110.409821" y="41.043543" style="fill: #0000ff"/>
     <use xlink:href="#m6b3431e1d8" x="114.103026" y="41.043543" style="fill: #0000ff"/>
     <use xlink:href="#m6b3431e1d8" x="117.79623" y="41.043543" style="fill: #0000ff"/>
     <use xlink:href="#m6b3431e1d8" x="121.489435" y="41.043543" style="fill: #0000ff"/>
     <use xlink:href="#m6b3431e1d8" x="125.18264" y="41.043543" style="fill: #0000ff"/>
     <use xlink:href="#m6b3431e1d8" x="128.875845" y="41.043543" style="fill: #0000ff"/>
     <use xlink:href="#m6b3431e1d8" x="132.56905" y="41.043543" style="fill: #0000ff"/>
     <use xlink:href="#m6b3431e1d8" x="136.262254" y="48.185" style="fill: #0000ff"/>
     <use xlink:href="#m6b3431e1d8" x="139.955459" y="48.185" style="fill: #0000ff"/>
     <use xlink:href="#m6b3431e1d8" x="143.648664" y="41.043543" style="fill: #0000ff"/>
     <use xlink:href="#m6b3431e1d8" x="147.341869" y="41.043543" style="fill: #0000ff"/>
     <use xlink:href="#m6b3431e1d8" x="151.035073" y="41.043543" style="fill: #0000ff"/>
     <use xlink:href="#m6b3431e1d8" x="154.728278" y="41.043543" style="fill: #0000ff"/>
     <use xlink:href="#m6b3431e1d8" x="158.421483" y="41.043543" style="fill: #0000ff"/>
     <use xlink:href="#m6b3431e1d8" x="162.114688" y="41.043543" style="fill: #0000ff"/>
     <use xlink:href="#m6b3431e1d8" x="165.807893" y="62.467915" style="fill: #0000ff"/>
     <use xlink:href="#m6b3431e1d8" x="169.501097" y="48.185" style="fill: #0000ff"/>
     <use xlink:href="#m6b3431e1d8" x="173.194302" y="41.043543" style="fill: #0000ff"/>
     <use xlink:href="#m6b3431e1d8" x="176.887507" y="48.185" style="fill: #0000ff"/>
     <use xlink:href="#m6b3431e1d8" x="180.580712" y="48.185" style="fill: #0000ff"/>
    </g>
   </g>
   <g id="line2d_16">
    <path d="M 66.091364 55.326457 
L 69.784568 48.185 
L 73.477773 48.185 
L 77.170978 48.185 
L 80.864183 46.756709 
L 84.557388 45.804514 
L 88.250592 45.124376 
L 91.943797 45.506954 
L 95.637002 45.011019 
L 99.330207 44.614272 
L 103.023411 44.28966 
L 106.716616 44.01915 
L 110.409821 43.790257 
L 114.103026 43.594063 
L 117.79623 43.424029 
L 121.489435 43.275248 
L 125.18264 43.143972 
L 128.875845 43.027281 
L 132.56905 42.922874 
L 136.262254 43.18598 
L 139.955459 43.424029 
L 143.648664 43.315825 
L 147.341869 43.21703 
L 151.035073 43.126468 
L 154.728278 43.043151 
L 158.421483 42.966243 
L 162.114688 42.895032 
L 165.807893 43.594063 
L 169.501097 43.752372 
L 173.194302 43.662077 
L 176.887507 43.807978 
L 180.580712 43.94476 
" clip-path="url(#p94ba445d96)" style="fill: none; stroke: #0000ff; stroke-opacity: 0.5; stroke-width: 0.5; stroke-linecap: square"/>
    <defs>
     <path id="m4357bd792f" d="M -0.49999 0.49999 
L 0.50001 0.49999 
L 0.50001 -0.50001 
L -0.49999 -0.50001 
z
"/>
    </defs>
    <g clip-path="url(#p94ba445d96)">
     <use xlink:href="#m4357bd792f" x="66.091364" y="55.326457" style="fill: #0000ff; fill-opacity: 0.5"/>
     <use xlink:href="#m4357bd792f" x="69.784568" y="48.185" style="fill: #0000ff; fill-opacity: 0.5"/>
     <use xlink:href="#m4357bd792f" x="73.477773" y="48.185" style="fill: #0000ff; fill-opacity: 0.5"/>
     <use xlink:href="#m4357bd792f" x="77.170978" y="48.185" style="fill: #0000ff; fill-opacity: 0.5"/>
     <use xlink:href="#m4357bd792f" x="80.864183" y="46.756709" style="fill: #0000ff; fill-opacity: 0.5"/>
     <use xlink:href="#m4357bd792f" x="84.557388" y="45.804514" style="fill: #0000ff; fill-opacity: 0.5"/>
     <use xlink:href="#m4357bd792f" x="88.250592" y="45.124376" style="fill: #0000ff; fill-opacity: 0.5"/>
     <use xlink:href="#m4357bd792f" x="91.943797" y="45.506954" style="fill: #0000ff; fill-opacity: 0.5"/>
     <use xlink:href="#m4357bd792f" x="95.637002" y="45.011019" style="fill: #0000ff; fill-opacity: 0.5"/>
     <use xlink:href="#m4357bd792f" x="99.330207" y="44.614272" style="fill: #0000ff; fill-opacity: 0.5"/>
     <use xlink:href="#m4357bd792f" x="103.023411" y="44.28966" style="fill: #0000ff; fill-opacity: 0.5"/>
     <use xlink:href="#m4357bd792f" x="106.716616" y="44.01915" style="fill: #0000ff; fill-opacity: 0.5"/>
     <use xlink:href="#m4357bd792f" x="110.409821" y="43.790257" style="fill: #0000ff; fill-opacity: 0.5"/>
     <use xlink:href="#m4357bd792f" x="114.103026" y="43.594063" style="fill: #0000ff; fill-opacity: 0.5"/>
     <use xlink:href="#m4357bd792f" x="117.79623" y="43.424029" style="fill: #0000ff; fill-opacity: 0.5"/>
     <use xlink:href="#m4357bd792f" x="121.489435" y="43.275248" style="fill: #0000ff; fill-opacity: 0.5"/>
     <use xlink:href="#m4357bd792f" x="125.18264" y="43.143972" style="fill: #0000ff; fill-opacity: 0.5"/>
     <use xlink:href="#m4357bd792f" x="128.875845" y="43.027281" style="fill: #0000ff; fill-opacity: 0.5"/>
     <use xlink:href="#m4357bd792f" x="132.56905" y="42.922874" style="fill: #0000ff; fill-opacity: 0.5"/>
     <use xlink:href="#m4357bd792f" x="136.262254" y="43.18598" style="fill: #0000ff; fill-opacity: 0.5"/>
     <use xlink:href="#m4357bd792f" x="139.955459" y="43.424029" style="fill: #0000ff; fill-opacity: 0.5"/>
     <use xlink:href="#m4357bd792f" x="143.648664" y="43.315825" style="fill: #0000ff; fill-opacity: 0.5"/>
     <use xlink:href="#m4357bd792f" x="147.341869" y="43.21703" style="fill: #0000ff; fill-opacity: 0.5"/>
     <use xlink:href="#m4357bd792f" x="151.035073" y="43.126468" style="fill: #0000ff; fill-opacity: 0.5"/>
     <use xlink:href="#m4357bd792f" x="154.728278" y="43.043151" style="fill: #0000ff; fill-opacity: 0.5"/>
     <use xlink:href="#m4357bd792f" x="158.421483" y="42.966243" style="fill: #0000ff; fill-opacity: 0.5"/>
     <use xlink:href="#m4357bd792f" x="162.114688" y="42.895032" style="fill: #0000ff; fill-opacity: 0.5"/>
     <use xlink:href="#m4357bd792f" x="165.807893" y="43.594063" style="fill: #0000ff; fill-opacity: 0.5"/>
     <use xlink:href="#m4357bd792f" x="169.501097" y="43.752372" style="fill: #0000ff; fill-opacity: 0.5"/>
     <use xlink:href="#m4357bd792f" x="173.194302" y="43.662077" style="fill: #0000ff; fill-opacity: 0.5"/>
     <use xlink:href="#m4357bd792f" x="176.887507" y="43.807978" style="fill: #0000ff; fill-opacity: 0.5"/>
     <use xlink:href="#m4357bd792f" x="180.580712" y="43.94476" style="fill: #0000ff; fill-opacity: 0.5"/>
    </g>
   </g>
   <g id="line2d_17">
    <path d="M 66.091364 183.872687 
L 69.784568 212.438516 
L 73.477773 198.155602 
L 77.170978 205.297059 
L 80.864183 226.721431 
L 84.557388 219.579973 
L 88.250592 219.579973 
L 91.943797 191.014144 
L 95.637002 212.438516 
L 99.330207 226.721431 
L 103.023411 183.872687 
L 106.716616 212.438516 
L 110.409821 212.438516 
L 114.103026 198.155602 
L 117.79623 269.570174 
L 121.489435 233.862888 
L 125.18264 219.579973 
L 128.875845 191.014144 
L 132.56905 255.287259 
L 136.262254 248.145802 
L 139.955459 212.438516 
L 143.648664 248.145802 
L 147.341869 198.155602 
L 151.035073 212.438516 
L 154.728278 248.145802 
L 158.421483 205.297059 
L 162.114688 226.721431 
L 165.807893 205.297059 
L 169.501097 219.579973 
L 173.194302 183.872687 
L 176.887507 212.438516 
L 180.580712 198.155602 
L 184.273916 205.297059 
L 187.967121 290.994545 
L 191.660326 233.862888 
L 195.353531 212.438516 
L 199.046736 248.145802 
L 202.73994 198.155602 
L 206.433145 191.014144 
L 210.12635 233.862888 
L 213.819555 212.438516 
L 217.512759 205.297059 
L 221.205964 241.004345 
L 224.899169 205.297059 
L 228.592374 241.004345 
L 232.285579 191.014144 
L 235.978783 198.155602 
L 239.671988 226.721431 
L 243.365193 219.579973 
L 247.058398 205.297059 
L 250.751602 212.438516 
L 254.444807 226.721431 
L 258.138012 191.014144 
L 261.831217 226.721431 
L 265.524421 290.994545 
L 269.217626 233.862888 
L 272.910831 226.721431 
L 276.604036 241.004345 
L 280.297241 226.721431 
L 283.990445 205.297059 
L 287.68365 212.438516 
L 291.376855 205.297059 
L 295.07006 219.579973 
L 298.763264 219.579973 
L 302.456469 219.579973 
L 306.149674 205.297059 
L 309.842879 198.155602 
L 313.536084 226.721431 
L 317.229288 205.297059 
L 320.922493 212.438516 
L 324.615698 219.579973 
L 328.308903 233.862888 
L 332.002107 233.862888 
L 335.695312 205.297059 
L 339.388517 248.145802 
L 343.081722 219.579973 
L 346.774927 255.287259 
L 350.468131 205.297059 
L 354.161336 205.297059 
L 357.854541 205.297059 
L 361.547746 183.872687 
L 365.24095 233.862888 
L 368.934155 198.155602 
L 372.62736 241.004345 
L 376.320565 248.145802 
L 380.01377 169.589773 
L 383.706974 212.438516 
L 387.400179 269.570174 
L 391.093384 226.721431 
L 394.786589 248.145802 
L 398.479793 262.428717 
L 402.172998 212.438516 
L 405.866203 205.297059 
L 409.559408 219.579973 
L 413.252612 226.721431 
L 416.945817 226.721431 
L 420.639022 183.872687 
L 424.332227 205.297059 
L 428.025432 191.014144 
L 431.718636 183.872687 
" clip-path="url(#p94ba445d96)" style="fill: none; stroke: #ff0000; stroke-width: 0.5; stroke-linecap: square"/>
    <defs>
     <path id="m377f424540" d="M -0.49999 0.49999 
L 0.50001 0.49999 
L 0.50001 -0.50001 
L -0.49999 -0.50001 
z
"/>
    </defs>
    <g clip-path="url(#p94ba445d96)">
     <use xlink:href="#m377f424540" x="66.091364" y="183.872687" style="fill: #ff0000"/>
     <use xlink:href="#m377f424540" x="69.784568" y="212.438516" style="fill: #ff0000"/>
     <use xlink:href="#m377f424540" x="73.477773" y="198.155602" style="fill: #ff0000"/>
     <use xlink:href="#m377f424540" x="77.170978" y="205.297059" style="fill: #ff0000"/>
     <use xlink:href="#m377f424540" x="80.864183" y="226.721431" style="fill: #ff0000"/>
     <use xlink:href="#m377f424540" x="84.557388" y="219.579973" style="fill: #ff0000"/>
     <use xlink:href="#m377f424540" x="88.250592" y="219.579973" style="fill: #ff0000"/>
     <use xlink:href="#m377f424540" x="91.943797" y="191.014144" style="fill: #ff0000"/>
     <use xlink:href="#m377f424540" x="95.637002" y="212.438516" style="fill: #ff0000"/>
     <use xlink:href="#m377f424540" x="99.330207" y="226.721431" style="fill: #ff0000"/>
     <use xlink:href="#m377f424540" x="103.023411" y="183.872687" style="fill: #ff0000"/>
     <use xlink:href="#m377f424540" x="106.716616" y="212.438516" style="fill: #ff0000"/>
     <use xlink:href="#m377f424540" x="110.409821" y="212.438516" style="fill: #ff0000"/>
     <use xlink:href="#m377f424540" x="114.103026" y="198.155602" style="fill: #ff0000"/>
     <use xlink:href="#m377f424540" x="117.79623" y="269.570174" style="fill: #ff0000"/>
     <use xlink:href="#m377f424540" x="121.489435" y="233.862888" style="fill: #ff0000"/>
     <use xlink:href="#m377f424540" x="125.18264" y="219.579973" style="fill: #ff0000"/>
     <use xlink:href="#m377f424540" x="128.875845" y="191.014144" style="fill: #ff0000"/>
     <use xlink:href="#m377f424540" x="132.56905" y="255.287259" style="fill: #ff0000"/>
     <use xlink:href="#m377f424540" x="136.262254" y="248.145802" style="fill: #ff0000"/>
     <use xlink:href="#m377f424540" x="139.955459" y="212.438516" style="fill: #ff0000"/>
     <use xlink:href="#m377f424540" x="143.648664" y="248.145802" style="fill: #ff0000"/>
     <use xlink:href="#m377f424540" x="147.341869" y="198.155602" style="fill: #ff0000"/>
     <use xlink:href="#m377f424540" x="151.035073" y="212.438516" style="fill: #ff0000"/>
     <use xlink:href="#m377f424540" x="154.728278" y="248.145802" style="fill: #ff0000"/>
     <use xlink:href="#m377f424540" x="158.421483" y="205.297059" style="fill: #ff0000"/>
     <use xlink:href="#m377f424540" x="162.114688" y="226.721431" style="fill: #ff0000"/>
     <use xlink:href="#m377f424540" x="165.807893" y="205.297059" style="fill: #ff0000"/>
     <use xlink:href="#m377f424540" x="169.501097" y="219.579973" style="fill: #ff0000"/>
     <use xlink:href="#m377f424540" x="173.194302" y="183.872687" style="fill: #ff0000"/>
     <use xlink:href="#m377f424540" x="176.887507" y="212.438516" style="fill: #ff0000"/>
     <use xlink:href="#m377f424540" x="180.580712" y="198.155602" style="fill: #ff0000"/>
     <use xlink:href="#m377f424540" x="184.273916" y="205.297059" style="fill: #ff0000"/>
     <use xlink:href="#m377f424540" x="187.967121" y="290.994545" style="fill: #ff0000"/>
     <use xlink:href="#m377f424540" x="191.660326" y="233.862888" style="fill: #ff0000"/>
     <use xlink:href="#m377f424540" x="195.353531" y="212.438516" style="fill: #ff0000"/>
     <use xlink:href="#m377f424540" x="199.046736" y="248.145802" style="fill: #ff0000"/>
     <use xlink:href="#m377f424540" x="202.73994" y="198.155602" style="fill: #ff0000"/>
     <use xlink:href="#m377f424540" x="206.433145" y="191.014144" style="fill: #ff0000"/>
     <use xlink:href="#m377f424540" x="210.12635" y="233.862888" style="fill: #ff0000"/>
     <use xlink:href="#m377f424540" x="213.819555" y="212.438516" style="fill: #ff0000"/>
     <use xlink:href="#m377f424540" x="217.512759" y="205.297059" style="fill: #ff0000"/>
     <use xlink:href="#m377f424540" x="221.205964" y="241.004345" style="fill: #ff0000"/>
     <use xlink:href="#m377f424540" x="224.899169" y="205.297059" style="fill: #ff0000"/>
     <use xlink:href="#m377f424540" x="228.592374" y="241.004345" style="fill: #ff0000"/>
     <use xlink:href="#m377f424540" x="232.285579" y="191.014144" style="fill: #ff0000"/>
     <use xlink:href="#m377f424540" x="235.978783" y="198.155602" style="fill: #ff0000"/>
     <use xlink:href="#m377f424540" x="239.671988" y="226.721431" style="fill: #ff0000"/>
     <use xlink:href="#m377f424540" x="243.365193" y="219.579973" style="fill: #ff0000"/>
     <use xlink:href="#m377f424540" x="247.058398" y="205.297059" style="fill: #ff0000"/>
     <use xlink:href="#m377f424540" x="250.751602" y="212.438516" style="fill: #ff0000"/>
     <use xlink:href="#m377f424540" x="254.444807" y="226.721431" style="fill: #ff0000"/>
     <use xlink:href="#m377f424540" x="258.138012" y="191.014144" style="fill: #ff0000"/>
     <use xlink:href="#m377f424540" x="261.831217" y="226.721431" style="fill: #ff0000"/>
     <use xlink:href="#m377f424540" x="265.524421" y="290.994545" style="fill: #ff0000"/>
     <use xlink:href="#m377f424540" x="269.217626" y="233.862888" style="fill: #ff0000"/>
     <use xlink:href="#m377f424540" x="272.910831" y="226.721431" style="fill: #ff0000"/>
     <use xlink:href="#m377f424540" x="276.604036" y="241.004345" style="fill: #ff0000"/>
     <use xlink:href="#m377f424540" x="280.297241" y="226.721431" style="fill: #ff0000"/>
     <use xlink:href="#m377f424540" x="283.990445" y="205.297059" style="fill: #ff0000"/>
     <use xlink:href="#m377f424540" x="287.68365" y="212.438516" style="fill: #ff0000"/>
     <use xlink:href="#m377f424540" x="291.376855" y="205.297059" style="fill: #ff0000"/>
     <use xlink:href="#m377f424540" x="295.07006" y="219.579973" style="fill: #ff0000"/>
     <use xlink:href="#m377f424540" x="298.763264" y="219.579973" style="fill: #ff0000"/>
     <use xlink:href="#m377f424540" x="302.456469" y="219.579973" style="fill: #ff0000"/>
     <use xlink:href="#m377f424540" x="306.149674" y="205.297059" style="fill: #ff0000"/>
     <use xlink:href="#m377f424540" x="309.842879" y="198.155602" style="fill: #ff0000"/>
     <use xlink:href="#m377f424540" x="313.536084" y="226.721431" style="fill: #ff0000"/>
     <use xlink:href="#m377f424540" x="317.229288" y="205.297059" style="fill: #ff0000"/>
     <use xlink:href="#m377f424540" x="320.922493" y="212.438516" style="fill: #ff0000"/>
     <use xlink:href="#m377f424540" x="324.615698" y="219.579973" style="fill: #ff0000"/>
     <use xlink:href="#m377f424540" x="328.308903" y="233.862888" style="fill: #ff0000"/>
     <use xlink:href="#m377f424540" x="332.002107" y="233.862888" style="fill: #ff0000"/>
     <use xlink:href="#m377f424540" x="335.695312" y="205.297059" style="fill: #ff0000"/>
     <use xlink:href="#m377f424540" x="339.388517" y="248.145802" style="fill: #ff0000"/>
     <use xlink:href="#m377f424540" x="343.081722" y="219.579973" style="fill: #ff0000"/>
     <use xlink:href="#m377f424540" x="346.774927" y="255.287259" style="fill: #ff0000"/>
     <use xlink:href="#m377f424540" x="350.468131" y="205.297059" style="fill: #ff0000"/>
     <use xlink:href="#m377f424540" x="354.161336" y="205.297059" style="fill: #ff0000"/>
     <use xlink:href="#m377f424540" x="357.854541" y="205.297059" style="fill: #ff0000"/>
     <use xlink:href="#m377f424540" x="361.547746" y="183.872687" style="fill: #ff0000"/>
     <use xlink:href="#m377f424540" x="365.24095" y="233.862888" style="fill: #ff0000"/>
     <use xlink:href="#m377f424540" x="368.934155" y="198.155602" style="fill: #ff0000"/>
     <use xlink:href="#m377f424540" x="372.62736" y="241.004345" style="fill: #ff0000"/>
     <use xlink:href="#m377f424540" x="376.320565" y="248.145802" style="fill: #ff0000"/>
     <use xlink:href="#m377f424540" x="380.01377" y="169.589773" style="fill: #ff0000"/>
     <use xlink:href="#m377f424540" x="383.706974" y="212.438516" style="fill: #ff0000"/>
     <use xlink:href="#m377f424540" x="387.400179" y="269.570174" style="fill: #ff0000"/>
     <use xlink:href="#m377f424540" x="391.093384" y="226.721431" style="fill: #ff0000"/>
     <use xlink:href="#m377f424540" x="394.786589" y="248.145802" style="fill: #ff0000"/>
     <use xlink:href="#m377f424540" x="398.479793" y="262.428717" style="fill: #ff0000"/>
     <use xlink:href="#m377f424540" x="402.172998" y="212.438516" style="fill: #ff0000"/>
     <use xlink:href="#m377f424540" x="405.866203" y="205.297059" style="fill: #ff0000"/>
     <use xlink:href="#m377f424540" x="409.559408" y="219.579973" style="fill: #ff0000"/>
     <use xlink:href="#m377f424540" x="413.252612" y="226.721431" style="fill: #ff0000"/>
     <use xlink:href="#m377f424540" x="416.945817" y="226.721431" style="fill: #ff0000"/>
     <use xlink:href="#m377f424540" x="420.639022" y="183.872687" style="fill: #ff0000"/>
     <use xlink:href="#m377f424540" x="424.332227" y="205.297059" style="fill: #ff0000"/>
     <use xlink:href="#m377f424540" x="428.025432" y="191.014144" style="fill: #ff0000"/>
     <use xlink:href="#m377f424540" x="431.718636" y="183.872687" style="fill: #ff0000"/>
    </g>
   </g>
   <g id="line2d_18">
    <path d="M 66.091364 183.872687 
L 69.784568 198.155602 
L 73.477773 198.155602 
L 77.170978 199.940966 
L 80.864183 205.297059 
L 84.557388 207.677545 
L 88.250592 209.377892 
L 91.943797 207.082423 
L 95.637002 207.677545 
L 99.330207 209.581933 
L 103.023411 207.244729 
L 106.716616 207.677545 
L 110.409821 208.043773 
L 114.103026 207.337475 
L 117.79623 211.486322 
L 121.489435 212.884857 
L 125.18264 213.278688 
L 128.875845 212.041768 
L 132.56905 214.317847 
L 136.262254 216.009245 
L 139.955459 215.83921 
L 143.648664 217.307691 
L 147.341869 216.474992 
L 151.035073 216.306805 
L 154.728278 217.580365 
L 158.421483 217.10793 
L 162.114688 217.463986 
L 165.807893 217.029453 
L 169.501097 217.117402 
L 173.194302 216.009245 
L 176.887507 215.89406 
L 180.580712 215.339733 
L 184.273916 215.03541 
L 187.967121 217.269502 
L 191.660326 217.743599 
L 195.353531 217.596235 
L 199.046736 218.421899 
L 202.73994 217.888576 
L 206.433145 217.199488 
L 210.12635 217.616073 
L 213.819555 217.489791 
L 217.512759 217.199488 
L 221.205964 217.753089 
L 224.899169 217.469997 
L 228.592374 217.992983 
L 232.285579 217.406486 
L 235.978783 216.996893 
L 239.671988 217.199488 
L 243.365193 217.248069 
L 247.058398 217.009049 
L 250.751602 216.91943 
L 254.444807 217.10793 
L 258.138012 216.615595 
L 261.831217 216.80274 
L 265.524421 218.151682 
L 269.217626 218.432239 
L 272.910831 218.577664 
L 276.604036 218.96433 
L 280.297241 219.095807 
L 283.990445 218.865828 
L 287.68365 218.760462 
L 291.376855 218.54331 
L 295.07006 218.559765 
L 298.763264 218.575706 
L 302.456469 218.591156 
L 306.149674 218.38973 
L 309.842879 218.087729 
L 313.536084 218.214695 
L 317.229288 218.027483 
L 320.922493 217.94764 
L 324.615698 217.970631 
L 328.308903 218.191357 
L 332.002107 218.406035 
L 335.695312 218.228887 
L 339.388517 218.627779 
L 343.081722 218.640308 
L 346.774927 219.116242 
L 350.468131 218.939073 
L 354.161336 218.76639 
L 357.854541 218.598023 
L 361.547746 218.169315 
L 365.24095 218.3607 
L 368.934155 218.117265 
L 372.62736 218.38973 
L 376.320565 218.739802 
L 380.01377 218.16829 
L 383.706974 218.10243 
L 387.400179 218.687291 
L 391.093384 218.777562 
L 394.786589 219.103876 
L 398.479793 219.579973 
L 402.172998 219.502349 
L 405.866203 219.349604 
L 409.559408 219.352054 
L 413.252612 219.429627 
L 416.945817 219.505583 
L 420.639022 219.138234 
L 424.332227 218.996997 
L 428.025432 218.714342 
L 431.718636 218.365926 
" clip-path="url(#p94ba445d96)" style="fill: none; stroke: #ff0000; stroke-opacity: 0.5; stroke-width: 0.25; stroke-linecap: square"/>
    <defs>
     <path id="m9bfa9b797c" d="M -0.49999 0.49999 
L 0.50001 0.49999 
L 0.50001 -0.50001 
L -0.49999 -0.50001 
z
"/>
    </defs>
    <g clip-path="url(#p94ba445d96)">
     <use xlink:href="#m9bfa9b797c" x="66.091364" y="183.872687" style="fill: #ff0000; fill-opacity: 0.5"/>
     <use xlink:href="#m9bfa9b797c" x="69.784568" y="198.155602" style="fill: #ff0000; fill-opacity: 0.5"/>
     <use xlink:href="#m9bfa9b797c" x="73.477773" y="198.155602" style="fill: #ff0000; fill-opacity: 0.5"/>
     <use xlink:href="#m9bfa9b797c" x="77.170978" y="199.940966" style="fill: #ff0000; fill-opacity: 0.5"/>
     <use xlink:href="#m9bfa9b797c" x="80.864183" y="205.297059" style="fill: #ff0000; fill-opacity: 0.5"/>
     <use xlink:href="#m9bfa9b797c" x="84.557388" y="207.677545" style="fill: #ff0000; fill-opacity: 0.5"/>
     <use xlink:href="#m9bfa9b797c" x="88.250592" y="209.377892" style="fill: #ff0000; fill-opacity: 0.5"/>
     <use xlink:href="#m9bfa9b797c" x="91.943797" y="207.082423" style="fill: #ff0000; fill-opacity: 0.5"/>
     <use xlink:href="#m9bfa9b797c" x="95.637002" y="207.677545" style="fill: #ff0000; fill-opacity: 0.5"/>
     <use xlink:href="#m9bfa9b797c" x="99.330207" y="209.581933" style="fill: #ff0000; fill-opacity: 0.5"/>
     <use xlink:href="#m9bfa9b797c" x="103.023411" y="207.244729" style="fill: #ff0000; fill-opacity: 0.5"/>
     <use xlink:href="#m9bfa9b797c" x="106.716616" y="207.677545" style="fill: #ff0000; fill-opacity: 0.5"/>
     <use xlink:href="#m9bfa9b797c" x="110.409821" y="208.043773" style="fill: #ff0000; fill-opacity: 0.5"/>
     <use xlink:href="#m9bfa9b797c" x="114.103026" y="207.337475" style="fill: #ff0000; fill-opacity: 0.5"/>
     <use xlink:href="#m9bfa9b797c" x="117.79623" y="211.486322" style="fill: #ff0000; fill-opacity: 0.5"/>
     <use xlink:href="#m9bfa9b797c" x="121.489435" y="212.884857" style="fill: #ff0000; fill-opacity: 0.5"/>
     <use xlink:href="#m9bfa9b797c" x="125.18264" y="213.278688" style="fill: #ff0000; fill-opacity: 0.5"/>
     <use xlink:href="#m9bfa9b797c" x="128.875845" y="212.041768" style="fill: #ff0000; fill-opacity: 0.5"/>
     <use xlink:href="#m9bfa9b797c" x="132.56905" y="214.317847" style="fill: #ff0000; fill-opacity: 0.5"/>
     <use xlink:href="#m9bfa9b797c" x="136.262254" y="216.009245" style="fill: #ff0000; fill-opacity: 0.5"/>
     <use xlink:href="#m9bfa9b797c" x="139.955459" y="215.83921" style="fill: #ff0000; fill-opacity: 0.5"/>
     <use xlink:href="#m9bfa9b797c" x="143.648664" y="217.307691" style="fill: #ff0000; fill-opacity: 0.5"/>
     <use xlink:href="#m9bfa9b797c" x="147.341869" y="216.474992" style="fill: #ff0000; fill-opacity: 0.5"/>
     <use xlink:href="#m9bfa9b797c" x="151.035073" y="216.306805" style="fill: #ff0000; fill-opacity: 0.5"/>
     <use xlink:href="#m9bfa9b797c" x="154.728278" y="217.580365" style="fill: #ff0000; fill-opacity: 0.5"/>
     <use xlink:href="#m9bfa9b797c" x="158.421483" y="217.10793" style="fill: #ff0000; fill-opacity: 0.5"/>
     <use xlink:href="#m9bfa9b797c" x="162.114688" y="217.463986" style="fill: #ff0000; fill-opacity: 0.5"/>
     <use xlink:href="#m9bfa9b797c" x="165.807893" y="217.029453" style="fill: #ff0000; fill-opacity: 0.5"/>
     <use xlink:href="#m9bfa9b797c" x="169.501097" y="217.117402" style="fill: #ff0000; fill-opacity: 0.5"/>
     <use xlink:href="#m9bfa9b797c" x="173.194302" y="216.009245" style="fill: #ff0000; fill-opacity: 0.5"/>
     <use xlink:href="#m9bfa9b797c" x="176.887507" y="215.89406" style="fill: #ff0000; fill-opacity: 0.5"/>
     <use xlink:href="#m9bfa9b797c" x="180.580712" y="215.339733" style="fill: #ff0000; fill-opacity: 0.5"/>
     <use xlink:href="#m9bfa9b797c" x="184.273916" y="215.03541" style="fill: #ff0000; fill-opacity: 0.5"/>
     <use xlink:href="#m9bfa9b797c" x="187.967121" y="217.269502" style="fill: #ff0000; fill-opacity: 0.5"/>
     <use xlink:href="#m9bfa9b797c" x="191.660326" y="217.743599" style="fill: #ff0000; fill-opacity: 0.5"/>
     <use xlink:href="#m9bfa9b797c" x="195.353531" y="217.596235" style="fill: #ff0000; fill-opacity: 0.5"/>
     <use xlink:href="#m9bfa9b797c" x="199.046736" y="218.421899" style="fill: #ff0000; fill-opacity: 0.5"/>
     <use xlink:href="#m9bfa9b797c" x="202.73994" y="217.888576" style="fill: #ff0000; fill-opacity: 0.5"/>
     <use xlink:href="#m9bfa9b797c" x="206.433145" y="217.199488" style="fill: #ff0000; fill-opacity: 0.5"/>
     <use xlink:href="#m9bfa9b797c" x="210.12635" y="217.616073" style="fill: #ff0000; fill-opacity: 0.5"/>
     <use xlink:href="#m9bfa9b797c" x="213.819555" y="217.489791" style="fill: #ff0000; fill-opacity: 0.5"/>
     <use xlink:href="#m9bfa9b797c" x="217.512759" y="217.199488" style="fill: #ff0000; fill-opacity: 0.5"/>
     <use xlink:href="#m9bfa9b797c" x="221.205964" y="217.753089" style="fill: #ff0000; fill-opacity: 0.5"/>
     <use xlink:href="#m9bfa9b797c" x="224.899169" y="217.469997" style="fill: #ff0000; fill-opacity: 0.5"/>
     <use xlink:href="#m9bfa9b797c" x="228.592374" y="217.992983" style="fill: #ff0000; fill-opacity: 0.5"/>
     <use xlink:href="#m9bfa9b797c" x="232.285579" y="217.406486" style="fill: #ff0000; fill-opacity: 0.5"/>
     <use xlink:href="#m9bfa9b797c" x="235.978783" y="216.996893" style="fill: #ff0000; fill-opacity: 0.5"/>
     <use xlink:href="#m9bfa9b797c" x="239.671988" y="217.199488" style="fill: #ff0000; fill-opacity: 0.5"/>
     <use xlink:href="#m9bfa9b797c" x="243.365193" y="217.248069" style="fill: #ff0000; fill-opacity: 0.5"/>
     <use xlink:href="#m9bfa9b797c" x="247.058398" y="217.009049" style="fill: #ff0000; fill-opacity: 0.5"/>
     <use xlink:href="#m9bfa9b797c" x="250.751602" y="216.91943" style="fill: #ff0000; fill-opacity: 0.5"/>
     <use xlink:href="#m9bfa9b797c" x="254.444807" y="217.10793" style="fill: #ff0000; fill-opacity: 0.5"/>
     <use xlink:href="#m9bfa9b797c" x="258.138012" y="216.615595" style="fill: #ff0000; fill-opacity: 0.5"/>
     <use xlink:href="#m9bfa9b797c" x="261.831217" y="216.80274" style="fill: #ff0000; fill-opacity: 0.5"/>
     <use xlink:href="#m9bfa9b797c" x="265.524421" y="218.151682" style="fill: #ff0000; fill-opacity: 0.5"/>
     <use xlink:href="#m9bfa9b797c" x="269.217626" y="218.432239" style="fill: #ff0000; fill-opacity: 0.5"/>
     <use xlink:href="#m9bfa9b797c" x="272.910831" y="218.577664" style="fill: #ff0000; fill-opacity: 0.5"/>
     <use xlink:href="#m9bfa9b797c" x="276.604036" y="218.96433" style="fill: #ff0000; fill-opacity: 0.5"/>
     <use xlink:href="#m9bfa9b797c" x="280.297241" y="219.095807" style="fill: #ff0000; fill-opacity: 0.5"/>
     <use xlink:href="#m9bfa9b797c" x="283.990445" y="218.865828" style="fill: #ff0000; fill-opacity: 0.5"/>
     <use xlink:href="#m9bfa9b797c" x="287.68365" y="218.760462" style="fill: #ff0000; fill-opacity: 0.5"/>
     <use xlink:href="#m9bfa9b797c" x="291.376855" y="218.54331" style="fill: #ff0000; fill-opacity: 0.5"/>
     <use xlink:href="#m9bfa9b797c" x="295.07006" y="218.559765" style="fill: #ff0000; fill-opacity: 0.5"/>
     <use xlink:href="#m9bfa9b797c" x="298.763264" y="218.575706" style="fill: #ff0000; fill-opacity: 0.5"/>
     <use xlink:href="#m9bfa9b797c" x="302.456469" y="218.591156" style="fill: #ff0000; fill-opacity: 0.5"/>
     <use xlink:href="#m9bfa9b797c" x="306.149674" y="218.38973" style="fill: #ff0000; fill-opacity: 0.5"/>
     <use xlink:href="#m9bfa9b797c" x="309.842879" y="218.087729" style="fill: #ff0000; fill-opacity: 0.5"/>
     <use xlink:href="#m9bfa9b797c" x="313.536084" y="218.214695" style="fill: #ff0000; fill-opacity: 0.5"/>
     <use xlink:href="#m9bfa9b797c" x="317.229288" y="218.027483" style="fill: #ff0000; fill-opacity: 0.5"/>
     <use xlink:href="#m9bfa9b797c" x="320.922493" y="217.94764" style="fill: #ff0000; fill-opacity: 0.5"/>
     <use xlink:href="#m9bfa9b797c" x="324.615698" y="217.970631" style="fill: #ff0000; fill-opacity: 0.5"/>
     <use xlink:href="#m9bfa9b797c" x="328.308903" y="218.191357" style="fill: #ff0000; fill-opacity: 0.5"/>
     <use xlink:href="#m9bfa9b797c" x="332.002107" y="218.406035" style="fill: #ff0000; fill-opacity: 0.5"/>
     <use xlink:href="#m9bfa9b797c" x="335.695312" y="218.228887" style="fill: #ff0000; fill-opacity: 0.5"/>
     <use xlink:href="#m9bfa9b797c" x="339.388517" y="218.627779" style="fill: #ff0000; fill-opacity: 0.5"/>
     <use xlink:href="#m9bfa9b797c" x="343.081722" y="218.640308" style="fill: #ff0000; fill-opacity: 0.5"/>
     <use xlink:href="#m9bfa9b797c" x="346.774927" y="219.116242" style="fill: #ff0000; fill-opacity: 0.5"/>
     <use xlink:href="#m9bfa9b797c" x="350.468131" y="218.939073" style="fill: #ff0000; fill-opacity: 0.5"/>
     <use xlink:href="#m9bfa9b797c" x="354.161336" y="218.76639" style="fill: #ff0000; fill-opacity: 0.5"/>
     <use xlink:href="#m9bfa9b797c" x="357.854541" y="218.598023" style="fill: #ff0000; fill-opacity: 0.5"/>
     <use xlink:href="#m9bfa9b797c" x="361.547746" y="218.169315" style="fill: #ff0000; fill-opacity: 0.5"/>
     <use xlink:href="#m9bfa9b797c" x="365.24095" y="218.3607" style="fill: #ff0000; fill-opacity: 0.5"/>
     <use xlink:href="#m9bfa9b797c" x="368.934155" y="218.117265" style="fill: #ff0000; fill-opacity: 0.5"/>
     <use xlink:href="#m9bfa9b797c" x="372.62736" y="218.38973" style="fill: #ff0000; fill-opacity: 0.5"/>
     <use xlink:href="#m9bfa9b797c" x="376.320565" y="218.739802" style="fill: #ff0000; fill-opacity: 0.5"/>
     <use xlink:href="#m9bfa9b797c" x="380.01377" y="218.16829" style="fill: #ff0000; fill-opacity: 0.5"/>
     <use xlink:href="#m9bfa9b797c" x="383.706974" y="218.10243" style="fill: #ff0000; fill-opacity: 0.5"/>
     <use xlink:href="#m9bfa9b797c" x="387.400179" y="218.687291" style="fill: #ff0000; fill-opacity: 0.5"/>
     <use xlink:href="#m9bfa9b797c" x="391.093384" y="218.777562" style="fill: #ff0000; fill-opacity: 0.5"/>
     <use xlink:href="#m9bfa9b797c" x="394.786589" y="219.103876" style="fill: #ff0000; fill-opacity: 0.5"/>
     <use xlink:href="#m9bfa9b797c" x="398.479793" y="219.579973" style="fill: #ff0000; fill-opacity: 0.5"/>
     <use xlink:href="#m9bfa9b797c" x="402.172998" y="219.502349" style="fill: #ff0000; fill-opacity: 0.5"/>
     <use xlink:href="#m9bfa9b797c" x="405.866203" y="219.349604" style="fill: #ff0000; fill-opacity: 0.5"/>
     <use xlink:href="#m9bfa9b797c" x="409.559408" y="219.352054" style="fill: #ff0000; fill-opacity: 0.5"/>
     <use xlink:href="#m9bfa9b797c" x="413.252612" y="219.429627" style="fill: #ff0000; fill-opacity: 0.5"/>
     <use xlink:href="#m9bfa9b797c" x="416.945817" y="219.505583" style="fill: #ff0000; fill-opacity: 0.5"/>
     <use xlink:href="#m9bfa9b797c" x="420.639022" y="219.138234" style="fill: #ff0000; fill-opacity: 0.5"/>
     <use xlink:href="#m9bfa9b797c" x="424.332227" y="218.996997" style="fill: #ff0000; fill-opacity: 0.5"/>
     <use xlink:href="#m9bfa9b797c" x="428.025432" y="218.714342" style="fill: #ff0000; fill-opacity: 0.5"/>
     <use xlink:href="#m9bfa9b797c" x="431.718636" y="218.365926" style="fill: #ff0000; fill-opacity: 0.5"/>
    </g>
   </g>
   <g id="patch_3">
    <path d="M 47.81 303.64 
L 47.81 25.44 
" style="fill: none; stroke: #000000; stroke-width: 0.8; stroke-linejoin: miter; stroke-linecap: square"/>
   </g>
   <g id="patch_4">
    <path d="M 450 303.64 
L 450 25.44 
" style="fill: none; stroke: #000000; stroke-width: 0.8; stroke-linejoin: miter; stroke-linecap: square"/>
   </g>
   <g id="patch_5">
    <path d="M 47.81 303.64 
L 450 303.64 
" style="fill: none; stroke: #000000; stroke-width: 0.8; stroke-linejoin: miter; stroke-linecap: square"/>
   </g>
   <g id="patch_6">
    <path d="M 47.81 25.44 
L 450 25.44 
" style="fill: none; stroke: #000000; stroke-width: 0.8; stroke-linejoin: miter; stroke-linecap: square"/>
   </g>
   <g id="text_17">
    <!-- Average action - 28173931-29014202 - 50 games [68-99] -->
    <g transform="translate(74.975313 19.44) scale(0.12 -0.12)">
     <defs>
      <path id="DejaVuSans-2d" d="M 313 2009 
L 1997 2009 
L 1997 1497 
L 313 1497 
L 313 2009 
z
" transform="scale(0.015625)"/>
      <path id="DejaVuSans-6d" d="M 3328 2828 
Q 3544 3216 3844 3400 
Q 4144 3584 4550 3584 
Q 5097 3584 5394 3201 
Q 5691 2819 5691 2113 
L 5691 0 
L 5113 0 
L 5113 2094 
Q 5113 2597 4934 2840 
Q 4756 3084 4391 3084 
Q 3944 3084 3684 2787 
Q 3425 2491 3425 1978 
L 3425 0 
L 2847 0 
L 2847 2094 
Q 2847 2600 2669 2842 
Q 2491 3084 2119 3084 
Q 1678 3084 1418 2786 
Q 1159 2488 1159 1978 
L 1159 0 
L 581 0 
L 581 3500 
L 1159 3500 
L 1159 2956 
Q 1356 3278 1631 3431 
Q 1906 3584 2284 3584 
Q 2666 3584 2933 3390 
Q 3200 3197 3328 2828 
z
" transform="scale(0.015625)"/>
      <path id="DejaVuSans-73" d="M 2834 3397 
L 2834 2853 
Q 2591 2978 2328 3040 
Q 2066 3103 1784 3103 
Q 1356 3103 1142 2972 
Q 928 2841 928 2578 
Q 928 2378 1081 2264 
Q 1234 2150 1697 2047 
L 1894 2003 
Q 2506 1872 2764 1633 
Q 3022 1394 3022 966 
Q 3022 478 2636 193 
Q 2250 -91 1575 -91 
Q 1294 -91 989 -36 
Q 684 19 347 128 
L 347 722 
Q 666 556 975 473 
Q 1284 391 1588 391 
Q 1994 391 2212 530 
Q 2431 669 2431 922 
Q 2431 1156 2273 1281 
Q 2116 1406 1581 1522 
L 1381 1569 
Q 847 1681 609 1914 
Q 372 2147 372 2553 
Q 372 3047 722 3315 
Q 1072 3584 1716 3584 
Q 2034 3584 2315 3537 
Q 2597 3491 2834 3397 
z
" transform="scale(0.015625)"/>
      <path id="DejaVuSans-5b" d="M 550 4863 
L 1875 4863 
L 1875 4416 
L 1125 4416 
L 1125 -397 
L 1875 -397 
L 1875 -844 
L 550 -844 
L 550 4863 
z
" transform="scale(0.015625)"/>
      <path id="DejaVuSans-5d" d="M 1947 4863 
L 1947 -844 
L 622 -844 
L 622 -397 
L 1369 -397 
L 1369 4416 
L 622 4416 
L 622 4863 
L 1947 4863 
z
" transform="scale(0.015625)"/>
     </defs>
     <use xlink:href="#DejaVuSans-41"/>
     <use xlink:href="#DejaVuSans-76" x="62.533203"/>
     <use xlink:href="#DejaVuSans-65" x="121.712891"/>
     <use xlink:href="#DejaVuSans-72" x="183.236328"/>
     <use xlink:href="#DejaVuSans-61" x="224.349609"/>
     <use xlink:href="#DejaVuSans-67" x="285.628906"/>
     <use xlink:href="#DejaVuSans-65" x="349.105469"/>
     <use xlink:href="#DejaVuSans-20" x="410.628906"/>
     <use xlink:href="#DejaVuSans-61" x="442.416016"/>
     <use xlink:href="#DejaVuSans-63" x="503.695312"/>
     <use xlink:href="#DejaVuSans-74" x="558.675781"/>
     <use xlink:href="#DejaVuSans-69" x="597.884766"/>
     <use xlink:href="#DejaVuSans-6f" x="625.667969"/>
     <use xlink:href="#DejaVuSans-6e" x="686.849609"/>
     <use xlink:href="#DejaVuSans-20" x="750.228516"/>
     <use xlink:href="#DejaVuSans-2d" x="782.015625"/>
     <use xlink:href="#DejaVuSans-20" x="818.099609"/>
     <use xlink:href="#DejaVuSans-32" x="849.886719"/>
     <use xlink:href="#DejaVuSans-38" x="913.509766"/>
     <use xlink:href="#DejaVuSans-31" x="977.132812"/>
     <use xlink:href="#DejaVuSans-37" x="1040.755859"/>
     <use xlink:href="#DejaVuSans-33" x="1104.378906"/>
     <use xlink:href="#DejaVuSans-39" x="1168.001953"/>
     <use xlink:href="#DejaVuSans-33" x="1231.625"/>
     <use xlink:href="#DejaVuSans-31" x="1295.248047"/>
     <use xlink:href="#DejaVuSans-2d" x="1358.871094"/>
     <use xlink:href="#DejaVuSans-32" x="1394.955078"/>
     <use xlink:href="#DejaVuSans-39" x="1458.578125"/>
     <use xlink:href="#DejaVuSans-30" x="1522.201172"/>
     <use xlink:href="#DejaVuSans-31" x="1585.824219"/>
     <use xlink:href="#DejaVuSans-34" x="1649.447266"/>
     <use xlink:href="#DejaVuSans-32" x="1713.070312"/>
     <use xlink:href="#DejaVuSans-30" x="1776.693359"/>
     <use xlink:href="#DejaVuSans-32" x="1840.316406"/>
     <use xlink:href="#DejaVuSans-20" x="1903.939453"/>
     <use xlink:href="#DejaVuSans-2d" x="1935.726562"/>
     <use xlink:href="#DejaVuSans-20" x="1971.810547"/>
     <use xlink:href="#DejaVuSans-35" x="2003.597656"/>
     <use xlink:href="#DejaVuSans-30" x="2067.220703"/>
     <use xlink:href="#DejaVuSans-20" x="2130.84375"/>
     <use xlink:href="#DejaVuSans-67" x="2162.630859"/>
     <use xlink:href="#DejaVuSans-61" x="2226.107422"/>
     <use xlink:href="#DejaVuSans-6d" x="2287.386719"/>
     <use xlink:href="#DejaVuSans-65" x="2384.798828"/>
     <use xlink:href="#DejaVuSans-73" x="2446.322266"/>
     <use xlink:href="#DejaVuSans-20" x="2498.421875"/>
     <use xlink:href="#DejaVuSans-5b" x="2530.208984"/>
     <use xlink:href="#DejaVuSans-36" x="2569.222656"/>
     <use xlink:href="#DejaVuSans-38" x="2632.845703"/>
     <use xlink:href="#DejaVuSans-2d" x="2696.46875"/>
     <use xlink:href="#DejaVuSans-39" x="2732.552734"/>
     <use xlink:href="#DejaVuSans-39" x="2796.175781"/>
     <use xlink:href="#DejaVuSans-5d" x="2859.798828"/>
    </g>
   </g>
   <g id="legend_1">
    <g id="patch_7">
     <path d="M 357.332812 92.1525 
L 443 92.1525 
Q 445 92.1525 445 90.1525 
L 445 32.44 
Q 445 30.44 443 30.44 
L 357.332812 30.44 
Q 355.332812 30.44 355.332812 32.44 
L 355.332812 90.1525 
Q 355.332812 92.1525 357.332812 92.1525 
z
" style="fill: #ffffff; opacity: 0.8; stroke: #cccccc; stroke-linejoin: miter"/>
    </g>
    <g id="line2d_19">
     <path d="M 359.332812 38.538438 
L 369.332812 38.538438 
L 379.332812 38.538438 
" style="fill: none; stroke: #0000ff; stroke-linecap: square"/>
     <g>
      <use xlink:href="#m6b3431e1d8" x="369.332812" y="38.538438" style="fill: #0000ff"/>
     </g>
    </g>
    <g id="text_18">
     <!-- LLM -->
     <g transform="translate(387.332812 42.038438) scale(0.1 -0.1)">
      <defs>
       <path id="DejaVuSans-4c" d="M 628 4666 
L 1259 4666 
L 1259 531 
L 3531 531 
L 3531 0 
L 628 0 
L 628 4666 
z
" transform="scale(0.015625)"/>
       <path id="DejaVuSans-4d" d="M 628 4666 
L 1569 4666 
L 2759 1491 
L 3956 4666 
L 4897 4666 
L 4897 0 
L 4281 0 
L 4281 4097 
L 3078 897 
L 2444 897 
L 1241 4097 
L 1241 0 
L 628 0 
L 628 4666 
z
" transform="scale(0.015625)"/>
      </defs>
      <use xlink:href="#DejaVuSans-4c"/>
      <use xlink:href="#DejaVuSans-4c" x="55.712891"/>
      <use xlink:href="#DejaVuSans-4d" x="111.425781"/>
     </g>
    </g>
    <g id="line2d_20">
     <path d="M 359.332812 53.216563 
L 369.332812 53.216563 
L 379.332812 53.216563 
" style="fill: none; stroke: #0000ff; stroke-opacity: 0.5; stroke-width: 0.5; stroke-linecap: square"/>
     <g>
      <use xlink:href="#m4357bd792f" x="369.332812" y="53.216563" style="fill: #0000ff; fill-opacity: 0.5"/>
     </g>
    </g>
    <g id="text_19">
     <!-- LLM mean -->
     <g transform="translate(387.332812 56.716563) scale(0.1 -0.1)">
      <use xlink:href="#DejaVuSans-4c"/>
      <use xlink:href="#DejaVuSans-4c" x="55.712891"/>
      <use xlink:href="#DejaVuSans-4d" x="111.425781"/>
      <use xlink:href="#DejaVuSans-20" x="197.705078"/>
      <use xlink:href="#DejaVuSans-6d" x="229.492188"/>
      <use xlink:href="#DejaVuSans-65" x="326.904297"/>
      <use xlink:href="#DejaVuSans-61" x="388.427734"/>
      <use xlink:href="#DejaVuSans-6e" x="449.707031"/>
     </g>
    </g>
    <g id="line2d_21">
     <path d="M 359.332812 67.894688 
L 369.332812 67.894688 
L 379.332812 67.894688 
" style="fill: none; stroke: #ff0000; stroke-width: 0.5; stroke-linecap: square"/>
     <g>
      <use xlink:href="#m377f424540" x="369.332812" y="67.894688" style="fill: #ff0000"/>
     </g>
    </g>
    <g id="text_20">
     <!-- RND -->
     <g transform="translate(387.332812 71.394688) scale(0.1 -0.1)">
      <defs>
       <path id="DejaVuSans-52" d="M 2841 2188 
Q 3044 2119 3236 1894 
Q 3428 1669 3622 1275 
L 4263 0 
L 3584 0 
L 2988 1197 
Q 2756 1666 2539 1819 
Q 2322 1972 1947 1972 
L 1259 1972 
L 1259 0 
L 628 0 
L 628 4666 
L 2053 4666 
Q 2853 4666 3247 4331 
Q 3641 3997 3641 3322 
Q 3641 2881 3436 2590 
Q 3231 2300 2841 2188 
z
M 1259 4147 
L 1259 2491 
L 2053 2491 
Q 2509 2491 2742 2702 
Q 2975 2913 2975 3322 
Q 2975 3731 2742 3939 
Q 2509 4147 2053 4147 
L 1259 4147 
z
" transform="scale(0.015625)"/>
       <path id="DejaVuSans-4e" d="M 628 4666 
L 1478 4666 
L 3547 763 
L 3547 4666 
L 4159 4666 
L 4159 0 
L 3309 0 
L 1241 3903 
L 1241 0 
L 628 0 
L 628 4666 
z
" transform="scale(0.015625)"/>
       <path id="DejaVuSans-44" d="M 1259 4147 
L 1259 519 
L 2022 519 
Q 2988 519 3436 956 
Q 3884 1394 3884 2338 
Q 3884 3275 3436 3711 
Q 2988 4147 2022 4147 
L 1259 4147 
z
M 628 4666 
L 1925 4666 
Q 3281 4666 3915 4102 
Q 4550 3538 4550 2338 
Q 4550 1131 3912 565 
Q 3275 0 1925 0 
L 628 0 
L 628 4666 
z
" transform="scale(0.015625)"/>
      </defs>
      <use xlink:href="#DejaVuSans-52"/>
      <use xlink:href="#DejaVuSans-4e" x="69.482422"/>
      <use xlink:href="#DejaVuSans-44" x="144.287109"/>
     </g>
    </g>
    <g id="line2d_22">
     <path d="M 359.332812 82.572813 
L 369.332812 82.572813 
L 379.332812 82.572813 
" style="fill: none; stroke: #ff0000; stroke-opacity: 0.5; stroke-width: 0.25; stroke-linecap: square"/>
     <g>
      <use xlink:href="#m9bfa9b797c" x="369.332812" y="82.572813" style="fill: #ff0000; fill-opacity: 0.5"/>
     </g>
    </g>
    <g id="text_21">
     <!-- RND mean -->
     <g transform="translate(387.332812 86.072813) scale(0.1 -0.1)">
      <use xlink:href="#DejaVuSans-52"/>
      <use xlink:href="#DejaVuSans-4e" x="69.482422"/>
      <use xlink:href="#DejaVuSans-44" x="144.287109"/>
      <use xlink:href="#DejaVuSans-20" x="221.289062"/>
      <use xlink:href="#DejaVuSans-6d" x="253.076172"/>
      <use xlink:href="#DejaVuSans-65" x="350.488281"/>
      <use xlink:href="#DejaVuSans-61" x="412.011719"/>
      <use xlink:href="#DejaVuSans-6e" x="473.291016"/>
     </g>
    </g>
   </g>
  </g>
 </g>
 <defs>
  <clipPath id="p94ba445d96">
   <rect x="47.81" y="25.44" width="402.19" height="278.2"/>
  </clipPath>
 </defs>
</svg>
