<?xml version="1.0" encoding="utf-8" standalone="no"?>
<!DOCTYPE svg PUBLIC "-//W3C//DTD SVG 1.1//EN"
  "http://www.w3.org/Graphics/SVG/1.1/DTD/svg11.dtd">
<svg xmlns:xlink="http://www.w3.org/1999/xlink" width="460.8pt" height="345.6pt" viewBox="0 0 460.8 345.6" xmlns="http://www.w3.org/2000/svg" version="1.1">
 <metadata>
  <rdf:RDF xmlns:dc="http://purl.org/dc/elements/1.1/" xmlns:cc="http://creativecommons.org/ns#" xmlns:rdf="http://www.w3.org/1999/02/22-rdf-syntax-ns#">
   <cc:Work>
    <dc:type rdf:resource="http://purl.org/dc/dcmitype/StillImage"/>
    <dc:date>2024-04-10T11:15:11.983650</dc:date>
    <dc:format>image/svg+xml</dc:format>
    <dc:creator>
     <cc:Agent>
      <dc:title>Matplotlib v3.8.0, https://matplotlib.org/</dc:title>
     </cc:Agent>
    </dc:creator>
   </cc:Work>
  </rdf:RDF>
 </metadata>
 <defs>
  <style type="text/css">*{stroke-linejoin: round; stroke-linecap: butt}</style>
 </defs>
 <g id="figure_1">
  <g id="patch_1">
   <path d="M 0 345.6 
L 460.8 345.6 
L 460.8 0 
L 0 0 
z
" style="fill: #ffffff"/>
  </g>
  <g id="axes_1">
   <g id="patch_2">
    <path d="M 40.12 317.72 
L 450 317.72 
L 450 10.8 
L 40.12 10.8 
z
" style="fill: #ffffff"/>
   </g>
   <g id="PolyCollection_1">
    <defs>
     <path id="m0d58d524f7" d="M 58.750909 -288.023422 
L 58.750909 -288.023422 
L 62.514729 -301.62026 
L 66.278549 -288.023422 
L 70.042369 -279.124796 
L 73.806189 -275.485133 
L 77.570009 -268.769749 
L 81.333829 -263.383952 
L 85.097649 -269.49859 
L 88.861469 -266.139643 
L 92.625289 -262.839424 
L 96.389109 -271.075572 
L 100.152929 -268.538765 
L 103.916749 -266.333723 
L 107.680569 -267.190642 
L 111.444389 -273.35407 
L 115.208209 -270.207211 
L 118.972029 -267.897517 
L 122.735849 -270.876875 
L 126.499669 -269.619905 
L 130.263489 -267.282642 
L 134.027309 -266.359434 
L 137.791129 -264.156463 
L 141.554949 -265.659702 
L 145.31877 -264.925696 
L 149.08259 -262.998923 
L 152.84641 -263.322504 
L 156.61023 -261.678638 
L 160.37405 -262.005634 
L 164.13787 -260.911223 
L 167.90169 -264.569465 
L 171.66551 -264.008919 
L 175.42933 -265.006257 
L 179.19315 -265.09526 
L 182.95697 -267.796797 
L 186.72079 -266.241542 
L 190.48461 -265.810885 
L 194.24843 -264.348415 
L 198.01225 -265.332748 
L 201.77607 -267.067593 
L 205.53989 -265.725052 
L 209.30371 -265.351895 
L 213.06753 -265.522348 
L 216.83135 -264.249497 
L 220.59517 -264.441357 
L 224.35899 -263.236015 
L 228.12281 -264.766933 
L 231.88663 -265.509972 
L 235.65045 -264.568935 
L 239.41427 -263.906649 
L 243.17809 -264.061338 
L 246.94191 -263.763664 
L 250.70573 -262.916426 
L 254.46955 -264.216304 
L 258.23337 -263.39649 
L 261.99719 -264.801769 
L 265.76101 -263.860622 
L 269.52483 -263.088851 
L 273.28865 -262.136941 
L 277.05247 -261.410222 
L 280.81629 -261.631645 
L 284.58011 -261.455021 
L 288.34393 -261.657844 
L 292.10775 -261.189162 
L 295.87157 -260.731941 
L 299.63539 -260.285726 
L 303.39921 -260.48342 
L 307.16303 -261.096711 
L 310.92685 -260.47396 
L 314.69067 -260.650131 
L 318.45449 -260.485037 
L 322.21831 -260.070187 
L 325.98213 -259.391363 
L 329.74595 -258.72564 
L 333.50977 -258.911841 
L 337.27359 -258.289666 
L 341.03741 -257.926102 
L 344.80123 -257.425887 
L 348.565051 -257.633684 
L 352.328871 -257.832288 
L 356.092691 -258.022147 
L 359.856511 -259.483247 
L 363.620331 -258.890536 
L 367.384151 -259.403453 
L 371.147971 -258.804386 
L 374.911791 -258.249942 
L 378.675611 -260.726834 
L 382.439431 -260.597218 
L 386.203251 -260.494918 
L 389.967071 -260.025086 
L 393.730891 -259.466055 
L 397.494711 -259.114766 
L 401.258531 -259.027984 
L 405.022351 -259.199622 
L 408.786171 -258.90986 
L 412.549991 -258.480911 
L 416.313811 -258.059183 
L 420.077631 -259.297195 
L 423.841451 -259.450478 
L 427.605271 -260.234378 
L 431.369091 -261.383065 
L 431.369091 -156.115801 
L 431.369091 -156.115801 
L 427.605271 -155.662993 
L 423.841451 -155.147671 
L 420.077631 -154.651761 
L 416.313811 -154.201254 
L 412.549991 -154.128658 
L 408.786171 -154.056271 
L 405.022351 -153.777773 
L 401.258531 -153.24732 
L 397.494711 -152.803737 
L 393.730891 -154.640826 
L 389.967071 -155.581694 
L 386.203251 -155.526793 
L 382.439431 -158.112802 
L 378.675611 -157.680464 
L 374.911791 -157.530404 
L 371.147971 -158.585061 
L 367.384151 -159.23838 
L 363.620331 -158.632349 
L 359.856511 -158.919339 
L 356.092691 -158.409885 
L 352.328871 -157.825848 
L 348.565051 -157.230712 
L 344.80123 -156.624152 
L 341.03741 -158.311567 
L 337.27359 -158.005592 
L 333.50977 -159.216924 
L 329.74595 -158.588863 
L 325.98213 -158.909909 
L 322.21831 -159.245649 
L 318.45449 -158.936476 
L 314.69067 -158.404386 
L 310.92685 -157.720038 
L 307.16303 -157.680886 
L 303.39921 -156.906028 
L 299.63539 -156.177869 
L 295.87157 -155.802671 
L 292.10775 -155.418722 
L 288.34393 -155.025676 
L 284.58011 -154.230362 
L 280.81629 -153.569424 
L 277.05247 -152.73375 
L 273.28865 -152.61136 
L 269.52483 -153.436764 
L 265.76101 -153.333434 
L 261.99719 -153.681867 
L 258.23337 -161.28755 
L 254.46955 -161.327948 
L 250.70573 -160.364808 
L 246.94191 -160.38401 
L 243.17809 -159.674406 
L 239.41427 -158.730439 
L 235.65045 -158.291457 
L 231.88663 -158.281645 
L 228.12281 -157.141991 
L 224.35899 -155.977081 
L 220.59517 -157.175639 
L 216.83135 -156.06627 
L 213.06753 -157.338045 
L 209.30371 -156.174121 
L 205.53989 -155.22051 
L 201.77607 -155.792799 
L 198.01225 -154.360255 
L 194.24843 -152.893169 
L 190.48461 -155.225859 
L 186.72079 -154.117847 
L 182.95697 -154.741774 
L 179.19315 -167.712304 
L 175.42933 -166.402487 
L 171.66551 -164.851864 
L 167.90169 -163.761872 
L 164.13787 -162.326475 
L 160.37405 -161.636321 
L 156.61023 -159.965988 
L 152.84641 -159.95873 
L 149.08259 -158.110767 
L 145.31877 -162.037905 
L 141.554949 -160.530831 
L 137.791129 -158.20657 
L 134.027309 -162.753466 
L 130.263489 -161.048695 
L 126.499669 -166.485933 
L 122.735849 -175.690945 
L 118.972029 -172.984811 
L 115.208209 -172.485356 
L 111.444389 -175.766857 
L 107.680569 -201.000435 
L 103.916749 -198.610859 
L 100.152929 -198.089186 
L 96.389109 -197.541812 
L 92.625289 -195.035015 
L 88.861469 -200.488307 
L 85.097649 -199.864832 
L 81.333829 -195.428362 
L 77.570009 -197.858201 
L 73.806189 -202.084707 
L 70.042369 -223.064295 
L 66.278549 -222.372086 
L 62.514729 -208.775248 
L 58.750909 -288.023422 
z
" style="stroke: #ff0000; stroke-opacity: 0.1"/>
    </defs>
    <g clip-path="url(#p061fb71e09)">
     <use xlink:href="#m0d58d524f7" x="0" y="345.6" style="fill: #ff0000; fill-opacity: 0.1; stroke: #ff0000; stroke-opacity: 0.1"/>
    </g>
   </g>
   <g id="matplotlib.axis_1">
    <g id="xtick_1">
     <g id="line2d_1">
      <defs>
       <path id="ma16e77f6b3" d="M 0 0 
L 0 3.5 
" style="stroke: #000000; stroke-width: 0.8"/>
      </defs>
      <g>
       <use xlink:href="#ma16e77f6b3" x="58.750909" y="317.72" style="stroke: #000000; stroke-width: 0.8"/>
      </g>
     </g>
     <g id="text_1">
      <!-- 0 -->
      <g transform="translate(55.569659 332.318437) scale(0.1 -0.1)">
       <defs>
        <path id="DejaVuSans-30" d="M 2034 4250 
Q 1547 4250 1301 3770 
Q 1056 3291 1056 2328 
Q 1056 1369 1301 889 
Q 1547 409 2034 409 
Q 2525 409 2770 889 
Q 3016 1369 3016 2328 
Q 3016 3291 2770 3770 
Q 2525 4250 2034 4250 
z
M 2034 4750 
Q 2819 4750 3233 4129 
Q 3647 3509 3647 2328 
Q 3647 1150 3233 529 
Q 2819 -91 2034 -91 
Q 1250 -91 836 529 
Q 422 1150 422 2328 
Q 422 3509 836 4129 
Q 1250 4750 2034 4750 
z
" transform="scale(0.015625)"/>
       </defs>
       <use xlink:href="#DejaVuSans-30"/>
      </g>
     </g>
    </g>
    <g id="xtick_2">
     <g id="line2d_2">
      <g>
       <use xlink:href="#ma16e77f6b3" x="134.027309" y="317.72" style="stroke: #000000; stroke-width: 0.8"/>
      </g>
     </g>
     <g id="text_2">
      <!-- 20 -->
      <g transform="translate(127.664809 332.318437) scale(0.1 -0.1)">
       <defs>
        <path id="DejaVuSans-32" d="M 1228 531 
L 3431 531 
L 3431 0 
L 469 0 
L 469 531 
Q 828 903 1448 1529 
Q 2069 2156 2228 2338 
Q 2531 2678 2651 2914 
Q 2772 3150 2772 3378 
Q 2772 3750 2511 3984 
Q 2250 4219 1831 4219 
Q 1534 4219 1204 4116 
Q 875 4013 500 3803 
L 500 4441 
Q 881 4594 1212 4672 
Q 1544 4750 1819 4750 
Q 2544 4750 2975 4387 
Q 3406 4025 3406 3419 
Q 3406 3131 3298 2873 
Q 3191 2616 2906 2266 
Q 2828 2175 2409 1742 
Q 1991 1309 1228 531 
z
" transform="scale(0.015625)"/>
       </defs>
       <use xlink:href="#DejaVuSans-32"/>
       <use xlink:href="#DejaVuSans-30" x="63.623047"/>
      </g>
     </g>
    </g>
    <g id="xtick_3">
     <g id="line2d_3">
      <g>
       <use xlink:href="#ma16e77f6b3" x="209.30371" y="317.72" style="stroke: #000000; stroke-width: 0.8"/>
      </g>
     </g>
     <g id="text_3">
      <!-- 40 -->
      <g transform="translate(202.94121 332.318437) scale(0.1 -0.1)">
       <defs>
        <path id="DejaVuSans-34" d="M 2419 4116 
L 825 1625 
L 2419 1625 
L 2419 4116 
z
M 2253 4666 
L 3047 4666 
L 3047 1625 
L 3713 1625 
L 3713 1100 
L 3047 1100 
L 3047 0 
L 2419 0 
L 2419 1100 
L 313 1100 
L 313 1709 
L 2253 4666 
z
" transform="scale(0.015625)"/>
       </defs>
       <use xlink:href="#DejaVuSans-34"/>
       <use xlink:href="#DejaVuSans-30" x="63.623047"/>
      </g>
     </g>
    </g>
    <g id="xtick_4">
     <g id="line2d_4">
      <g>
       <use xlink:href="#ma16e77f6b3" x="284.58011" y="317.72" style="stroke: #000000; stroke-width: 0.8"/>
      </g>
     </g>
     <g id="text_4">
      <!-- 60 -->
      <g transform="translate(278.21761 332.318437) scale(0.1 -0.1)">
       <defs>
        <path id="DejaVuSans-36" d="M 2113 2584 
Q 1688 2584 1439 2293 
Q 1191 2003 1191 1497 
Q 1191 994 1439 701 
Q 1688 409 2113 409 
Q 2538 409 2786 701 
Q 3034 994 3034 1497 
Q 3034 2003 2786 2293 
Q 2538 2584 2113 2584 
z
M 3366 4563 
L 3366 3988 
Q 3128 4100 2886 4159 
Q 2644 4219 2406 4219 
Q 1781 4219 1451 3797 
Q 1122 3375 1075 2522 
Q 1259 2794 1537 2939 
Q 1816 3084 2150 3084 
Q 2853 3084 3261 2657 
Q 3669 2231 3669 1497 
Q 3669 778 3244 343 
Q 2819 -91 2113 -91 
Q 1303 -91 875 529 
Q 447 1150 447 2328 
Q 447 3434 972 4092 
Q 1497 4750 2381 4750 
Q 2619 4750 2861 4703 
Q 3103 4656 3366 4563 
z
" transform="scale(0.015625)"/>
       </defs>
       <use xlink:href="#DejaVuSans-36"/>
       <use xlink:href="#DejaVuSans-30" x="63.623047"/>
      </g>
     </g>
    </g>
    <g id="xtick_5">
     <g id="line2d_5">
      <g>
       <use xlink:href="#ma16e77f6b3" x="359.856511" y="317.72" style="stroke: #000000; stroke-width: 0.8"/>
      </g>
     </g>
     <g id="text_5">
      <!-- 80 -->
      <g transform="translate(353.494011 332.318437) scale(0.1 -0.1)">
       <defs>
        <path id="DejaVuSans-38" d="M 2034 2216 
Q 1584 2216 1326 1975 
Q 1069 1734 1069 1313 
Q 1069 891 1326 650 
Q 1584 409 2034 409 
Q 2484 409 2743 651 
Q 3003 894 3003 1313 
Q 3003 1734 2745 1975 
Q 2488 2216 2034 2216 
z
M 1403 2484 
Q 997 2584 770 2862 
Q 544 3141 544 3541 
Q 544 4100 942 4425 
Q 1341 4750 2034 4750 
Q 2731 4750 3128 4425 
Q 3525 4100 3525 3541 
Q 3525 3141 3298 2862 
Q 3072 2584 2669 2484 
Q 3125 2378 3379 2068 
Q 3634 1759 3634 1313 
Q 3634 634 3220 271 
Q 2806 -91 2034 -91 
Q 1263 -91 848 271 
Q 434 634 434 1313 
Q 434 1759 690 2068 
Q 947 2378 1403 2484 
z
M 1172 3481 
Q 1172 3119 1398 2916 
Q 1625 2713 2034 2713 
Q 2441 2713 2670 2916 
Q 2900 3119 2900 3481 
Q 2900 3844 2670 4047 
Q 2441 4250 2034 4250 
Q 1625 4250 1398 4047 
Q 1172 3844 1172 3481 
z
" transform="scale(0.015625)"/>
       </defs>
       <use xlink:href="#DejaVuSans-38"/>
       <use xlink:href="#DejaVuSans-30" x="63.623047"/>
      </g>
     </g>
    </g>
    <g id="xtick_6">
     <g id="line2d_6">
      <g>
       <use xlink:href="#ma16e77f6b3" x="435.132911" y="317.72" style="stroke: #000000; stroke-width: 0.8"/>
      </g>
     </g>
     <g id="text_6">
      <!-- 100 -->
      <g transform="translate(425.589161 332.318437) scale(0.1 -0.1)">
       <defs>
        <path id="DejaVuSans-31" d="M 794 531 
L 1825 531 
L 1825 4091 
L 703 3866 
L 703 4441 
L 1819 4666 
L 2450 4666 
L 2450 531 
L 3481 531 
L 3481 0 
L 794 0 
L 794 531 
z
" transform="scale(0.015625)"/>
       </defs>
       <use xlink:href="#DejaVuSans-31"/>
       <use xlink:href="#DejaVuSans-30" x="63.623047"/>
       <use xlink:href="#DejaVuSans-30" x="127.246094"/>
      </g>
     </g>
    </g>
   </g>
   <g id="matplotlib.axis_2">
    <g id="ytick_1">
     <g id="line2d_7">
      <defs>
       <path id="m9d94de579e" d="M 0 0 
L -3.5 0 
" style="stroke: #000000; stroke-width: 0.8"/>
      </defs>
      <g>
       <use xlink:href="#m9d94de579e" x="40.12" y="303.769091" style="stroke: #000000; stroke-width: 0.8"/>
      </g>
     </g>
     <g id="text_7">
      <!-- 0.30 -->
      <g transform="translate(10.854375 307.56831) scale(0.1 -0.1)">
       <defs>
        <path id="DejaVuSans-2e" d="M 684 794 
L 1344 794 
L 1344 0 
L 684 0 
L 684 794 
z
" transform="scale(0.015625)"/>
        <path id="DejaVuSans-33" d="M 2597 2516 
Q 3050 2419 3304 2112 
Q 3559 1806 3559 1356 
Q 3559 666 3084 287 
Q 2609 -91 1734 -91 
Q 1441 -91 1130 -33 
Q 819 25 488 141 
L 488 750 
Q 750 597 1062 519 
Q 1375 441 1716 441 
Q 2309 441 2620 675 
Q 2931 909 2931 1356 
Q 2931 1769 2642 2001 
Q 2353 2234 1838 2234 
L 1294 2234 
L 1294 2753 
L 1863 2753 
Q 2328 2753 2575 2939 
Q 2822 3125 2822 3475 
Q 2822 3834 2567 4026 
Q 2313 4219 1838 4219 
Q 1578 4219 1281 4162 
Q 984 4106 628 3988 
L 628 4550 
Q 988 4650 1302 4700 
Q 1616 4750 1894 4750 
Q 2613 4750 3031 4423 
Q 3450 4097 3450 3541 
Q 3450 3153 3228 2886 
Q 3006 2619 2597 2516 
z
" transform="scale(0.015625)"/>
       </defs>
       <use xlink:href="#DejaVuSans-30"/>
       <use xlink:href="#DejaVuSans-2e" x="63.623047"/>
       <use xlink:href="#DejaVuSans-33" x="95.410156"/>
       <use xlink:href="#DejaVuSans-30" x="159.033203"/>
      </g>
     </g>
    </g>
    <g id="ytick_2">
     <g id="line2d_8">
      <g>
       <use xlink:href="#m9d94de579e" x="40.12" y="262.737005" style="stroke: #000000; stroke-width: 0.8"/>
      </g>
     </g>
     <g id="text_8">
      <!-- 0.35 -->
      <g transform="translate(10.854375 266.536224) scale(0.1 -0.1)">
       <defs>
        <path id="DejaVuSans-35" d="M 691 4666 
L 3169 4666 
L 3169 4134 
L 1269 4134 
L 1269 2991 
Q 1406 3038 1543 3061 
Q 1681 3084 1819 3084 
Q 2600 3084 3056 2656 
Q 3513 2228 3513 1497 
Q 3513 744 3044 326 
Q 2575 -91 1722 -91 
Q 1428 -91 1123 -41 
Q 819 9 494 109 
L 494 744 
Q 775 591 1075 516 
Q 1375 441 1709 441 
Q 2250 441 2565 725 
Q 2881 1009 2881 1497 
Q 2881 1984 2565 2268 
Q 2250 2553 1709 2553 
Q 1456 2553 1204 2497 
Q 953 2441 691 2322 
L 691 4666 
z
" transform="scale(0.015625)"/>
       </defs>
       <use xlink:href="#DejaVuSans-30"/>
       <use xlink:href="#DejaVuSans-2e" x="63.623047"/>
       <use xlink:href="#DejaVuSans-33" x="95.410156"/>
       <use xlink:href="#DejaVuSans-35" x="159.033203"/>
      </g>
     </g>
    </g>
    <g id="ytick_3">
     <g id="line2d_9">
      <g>
       <use xlink:href="#m9d94de579e" x="40.12" y="221.70492" style="stroke: #000000; stroke-width: 0.8"/>
      </g>
     </g>
     <g id="text_9">
      <!-- 0.40 -->
      <g transform="translate(10.854375 225.504139) scale(0.1 -0.1)">
       <use xlink:href="#DejaVuSans-30"/>
       <use xlink:href="#DejaVuSans-2e" x="63.623047"/>
       <use xlink:href="#DejaVuSans-34" x="95.410156"/>
       <use xlink:href="#DejaVuSans-30" x="159.033203"/>
      </g>
     </g>
    </g>
    <g id="ytick_4">
     <g id="line2d_10">
      <g>
       <use xlink:href="#m9d94de579e" x="40.12" y="180.672834" style="stroke: #000000; stroke-width: 0.8"/>
      </g>
     </g>
     <g id="text_10">
      <!-- 0.45 -->
      <g transform="translate(10.854375 184.472053) scale(0.1 -0.1)">
       <use xlink:href="#DejaVuSans-30"/>
       <use xlink:href="#DejaVuSans-2e" x="63.623047"/>
       <use xlink:href="#DejaVuSans-34" x="95.410156"/>
       <use xlink:href="#DejaVuSans-35" x="159.033203"/>
      </g>
     </g>
    </g>
    <g id="ytick_5">
     <g id="line2d_11">
      <g>
       <use xlink:href="#m9d94de579e" x="40.12" y="139.640749" style="stroke: #000000; stroke-width: 0.8"/>
      </g>
     </g>
     <g id="text_11">
      <!-- 0.50 -->
      <g transform="translate(10.854375 143.439967) scale(0.1 -0.1)">
       <use xlink:href="#DejaVuSans-30"/>
       <use xlink:href="#DejaVuSans-2e" x="63.623047"/>
       <use xlink:href="#DejaVuSans-35" x="95.410156"/>
       <use xlink:href="#DejaVuSans-30" x="159.033203"/>
      </g>
     </g>
    </g>
    <g id="ytick_6">
     <g id="line2d_12">
      <g>
       <use xlink:href="#m9d94de579e" x="40.12" y="98.608663" style="stroke: #000000; stroke-width: 0.8"/>
      </g>
     </g>
     <g id="text_12">
      <!-- 0.55 -->
      <g transform="translate(10.854375 102.407882) scale(0.1 -0.1)">
       <use xlink:href="#DejaVuSans-30"/>
       <use xlink:href="#DejaVuSans-2e" x="63.623047"/>
       <use xlink:href="#DejaVuSans-35" x="95.410156"/>
       <use xlink:href="#DejaVuSans-35" x="159.033203"/>
      </g>
     </g>
    </g>
    <g id="ytick_7">
     <g id="line2d_13">
      <g>
       <use xlink:href="#m9d94de579e" x="40.12" y="57.576578" style="stroke: #000000; stroke-width: 0.8"/>
      </g>
     </g>
     <g id="text_13">
      <!-- 0.60 -->
      <g transform="translate(10.854375 61.375796) scale(0.1 -0.1)">
       <use xlink:href="#DejaVuSans-30"/>
       <use xlink:href="#DejaVuSans-2e" x="63.623047"/>
       <use xlink:href="#DejaVuSans-36" x="95.410156"/>
       <use xlink:href="#DejaVuSans-30" x="159.033203"/>
      </g>
     </g>
    </g>
    <g id="ytick_8">
     <g id="line2d_14">
      <g>
       <use xlink:href="#m9d94de579e" x="40.12" y="16.544492" style="stroke: #000000; stroke-width: 0.8"/>
      </g>
     </g>
     <g id="text_14">
      <!-- 0.65 -->
      <g transform="translate(10.854375 20.343711) scale(0.1 -0.1)">
       <use xlink:href="#DejaVuSans-30"/>
       <use xlink:href="#DejaVuSans-2e" x="63.623047"/>
       <use xlink:href="#DejaVuSans-36" x="95.410156"/>
       <use xlink:href="#DejaVuSans-35" x="159.033203"/>
      </g>
     </g>
    </g>
   </g>
   <g id="line2d_15">
    <path d="M 58.750909 57.576578 
L 62.514729 123.227914 
L 66.278549 90.402246 
L 70.042369 106.81508 
L 73.806189 156.053583 
L 77.570009 139.640749 
L 81.333829 139.640749 
L 85.097649 73.989412 
L 88.861469 123.227914 
L 92.625289 156.053583 
L 96.389109 57.576578 
L 100.152929 123.227914 
L 103.916749 123.227914 
L 107.680569 90.402246 
L 111.444389 254.530588 
L 115.208209 172.466417 
L 118.972029 139.640749 
L 122.735849 73.989412 
L 126.499669 221.70492 
L 130.263489 205.292086 
L 134.027309 123.227914 
L 137.791129 205.292086 
L 141.554949 90.402246 
L 145.31877 123.227914 
L 149.08259 205.292086 
L 152.84641 106.81508 
L 156.61023 156.053583 
L 160.37405 106.81508 
L 164.13787 139.640749 
L 167.90169 57.576578 
L 171.66551 123.227914 
L 175.42933 90.402246 
L 179.19315 106.81508 
L 182.95697 303.769091 
L 186.72079 172.466417 
L 190.48461 123.227914 
L 194.24843 205.292086 
L 198.01225 90.402246 
L 201.77607 73.989412 
L 205.53989 172.466417 
L 209.30371 123.227914 
L 213.06753 106.81508 
L 216.83135 188.879251 
L 220.59517 106.81508 
L 224.35899 188.879251 
L 228.12281 73.989412 
L 231.88663 90.402246 
L 235.65045 156.053583 
L 239.41427 139.640749 
L 243.17809 106.81508 
L 246.94191 123.227914 
L 250.70573 156.053583 
L 254.46955 73.989412 
L 258.23337 156.053583 
L 261.99719 303.769091 
L 265.76101 172.466417 
L 269.52483 156.053583 
L 273.28865 188.879251 
L 277.05247 156.053583 
L 280.81629 106.81508 
L 284.58011 123.227914 
L 288.34393 106.81508 
L 292.10775 139.640749 
L 295.87157 139.640749 
L 299.63539 139.640749 
L 303.39921 106.81508 
L 307.16303 90.402246 
L 310.92685 156.053583 
L 314.69067 106.81508 
L 318.45449 123.227914 
L 322.21831 139.640749 
L 325.98213 172.466417 
L 329.74595 172.466417 
L 333.50977 106.81508 
L 337.27359 205.292086 
L 341.03741 139.640749 
L 344.80123 221.70492 
L 348.565051 106.81508 
L 352.328871 106.81508 
L 356.092691 106.81508 
L 359.856511 57.576578 
L 363.620331 172.466417 
L 367.384151 90.402246 
L 371.147971 188.879251 
L 374.911791 205.292086 
L 378.675611 24.750909 
L 382.439431 123.227914 
L 386.203251 254.530588 
L 389.967071 156.053583 
L 393.730891 205.292086 
L 397.494711 238.117754 
L 401.258531 123.227914 
L 405.022351 106.81508 
L 408.786171 139.640749 
L 412.549991 156.053583 
L 416.313811 156.053583 
L 420.077631 57.576578 
L 423.841451 106.81508 
L 427.605271 73.989412 
L 431.369091 57.576578 
" clip-path="url(#p061fb71e09)" style="fill: none; stroke: #ff0000; stroke-width: 0.5; stroke-linecap: square"/>
    <defs>
     <path id="m95d96ae1eb" d="M -0.49999 0.49999 
L 0.50001 0.49999 
L 0.50001 -0.50001 
L -0.49999 -0.50001 
z
"/>
    </defs>
    <g clip-path="url(#p061fb71e09)">
     <use xlink:href="#m95d96ae1eb" x="58.750909" y="57.576578" style="fill: #ff0000"/>
     <use xlink:href="#m95d96ae1eb" x="62.514729" y="123.227914" style="fill: #ff0000"/>
     <use xlink:href="#m95d96ae1eb" x="66.278549" y="90.402246" style="fill: #ff0000"/>
     <use xlink:href="#m95d96ae1eb" x="70.042369" y="106.81508" style="fill: #ff0000"/>
     <use xlink:href="#m95d96ae1eb" x="73.806189" y="156.053583" style="fill: #ff0000"/>
     <use xlink:href="#m95d96ae1eb" x="77.570009" y="139.640749" style="fill: #ff0000"/>
     <use xlink:href="#m95d96ae1eb" x="81.333829" y="139.640749" style="fill: #ff0000"/>
     <use xlink:href="#m95d96ae1eb" x="85.097649" y="73.989412" style="fill: #ff0000"/>
     <use xlink:href="#m95d96ae1eb" x="88.861469" y="123.227914" style="fill: #ff0000"/>
     <use xlink:href="#m95d96ae1eb" x="92.625289" y="156.053583" style="fill: #ff0000"/>
     <use xlink:href="#m95d96ae1eb" x="96.389109" y="57.576578" style="fill: #ff0000"/>
     <use xlink:href="#m95d96ae1eb" x="100.152929" y="123.227914" style="fill: #ff0000"/>
     <use xlink:href="#m95d96ae1eb" x="103.916749" y="123.227914" style="fill: #ff0000"/>
     <use xlink:href="#m95d96ae1eb" x="107.680569" y="90.402246" style="fill: #ff0000"/>
     <use xlink:href="#m95d96ae1eb" x="111.444389" y="254.530588" style="fill: #ff0000"/>
     <use xlink:href="#m95d96ae1eb" x="115.208209" y="172.466417" style="fill: #ff0000"/>
     <use xlink:href="#m95d96ae1eb" x="118.972029" y="139.640749" style="fill: #ff0000"/>
     <use xlink:href="#m95d96ae1eb" x="122.735849" y="73.989412" style="fill: #ff0000"/>
     <use xlink:href="#m95d96ae1eb" x="126.499669" y="221.70492" style="fill: #ff0000"/>
     <use xlink:href="#m95d96ae1eb" x="130.263489" y="205.292086" style="fill: #ff0000"/>
     <use xlink:href="#m95d96ae1eb" x="134.027309" y="123.227914" style="fill: #ff0000"/>
     <use xlink:href="#m95d96ae1eb" x="137.791129" y="205.292086" style="fill: #ff0000"/>
     <use xlink:href="#m95d96ae1eb" x="141.554949" y="90.402246" style="fill: #ff0000"/>
     <use xlink:href="#m95d96ae1eb" x="145.31877" y="123.227914" style="fill: #ff0000"/>
     <use xlink:href="#m95d96ae1eb" x="149.08259" y="205.292086" style="fill: #ff0000"/>
     <use xlink:href="#m95d96ae1eb" x="152.84641" y="106.81508" style="fill: #ff0000"/>
     <use xlink:href="#m95d96ae1eb" x="156.61023" y="156.053583" style="fill: #ff0000"/>
     <use xlink:href="#m95d96ae1eb" x="160.37405" y="106.81508" style="fill: #ff0000"/>
     <use xlink:href="#m95d96ae1eb" x="164.13787" y="139.640749" style="fill: #ff0000"/>
     <use xlink:href="#m95d96ae1eb" x="167.90169" y="57.576578" style="fill: #ff0000"/>
     <use xlink:href="#m95d96ae1eb" x="171.66551" y="123.227914" style="fill: #ff0000"/>
     <use xlink:href="#m95d96ae1eb" x="175.42933" y="90.402246" style="fill: #ff0000"/>
     <use xlink:href="#m95d96ae1eb" x="179.19315" y="106.81508" style="fill: #ff0000"/>
     <use xlink:href="#m95d96ae1eb" x="182.95697" y="303.769091" style="fill: #ff0000"/>
     <use xlink:href="#m95d96ae1eb" x="186.72079" y="172.466417" style="fill: #ff0000"/>
     <use xlink:href="#m95d96ae1eb" x="190.48461" y="123.227914" style="fill: #ff0000"/>
     <use xlink:href="#m95d96ae1eb" x="194.24843" y="205.292086" style="fill: #ff0000"/>
     <use xlink:href="#m95d96ae1eb" x="198.01225" y="90.402246" style="fill: #ff0000"/>
     <use xlink:href="#m95d96ae1eb" x="201.77607" y="73.989412" style="fill: #ff0000"/>
     <use xlink:href="#m95d96ae1eb" x="205.53989" y="172.466417" style="fill: #ff0000"/>
     <use xlink:href="#m95d96ae1eb" x="209.30371" y="123.227914" style="fill: #ff0000"/>
     <use xlink:href="#m95d96ae1eb" x="213.06753" y="106.81508" style="fill: #ff0000"/>
     <use xlink:href="#m95d96ae1eb" x="216.83135" y="188.879251" style="fill: #ff0000"/>
     <use xlink:href="#m95d96ae1eb" x="220.59517" y="106.81508" style="fill: #ff0000"/>
     <use xlink:href="#m95d96ae1eb" x="224.35899" y="188.879251" style="fill: #ff0000"/>
     <use xlink:href="#m95d96ae1eb" x="228.12281" y="73.989412" style="fill: #ff0000"/>
     <use xlink:href="#m95d96ae1eb" x="231.88663" y="90.402246" style="fill: #ff0000"/>
     <use xlink:href="#m95d96ae1eb" x="235.65045" y="156.053583" style="fill: #ff0000"/>
     <use xlink:href="#m95d96ae1eb" x="239.41427" y="139.640749" style="fill: #ff0000"/>
     <use xlink:href="#m95d96ae1eb" x="243.17809" y="106.81508" style="fill: #ff0000"/>
     <use xlink:href="#m95d96ae1eb" x="246.94191" y="123.227914" style="fill: #ff0000"/>
     <use xlink:href="#m95d96ae1eb" x="250.70573" y="156.053583" style="fill: #ff0000"/>
     <use xlink:href="#m95d96ae1eb" x="254.46955" y="73.989412" style="fill: #ff0000"/>
     <use xlink:href="#m95d96ae1eb" x="258.23337" y="156.053583" style="fill: #ff0000"/>
     <use xlink:href="#m95d96ae1eb" x="261.99719" y="303.769091" style="fill: #ff0000"/>
     <use xlink:href="#m95d96ae1eb" x="265.76101" y="172.466417" style="fill: #ff0000"/>
     <use xlink:href="#m95d96ae1eb" x="269.52483" y="156.053583" style="fill: #ff0000"/>
     <use xlink:href="#m95d96ae1eb" x="273.28865" y="188.879251" style="fill: #ff0000"/>
     <use xlink:href="#m95d96ae1eb" x="277.05247" y="156.053583" style="fill: #ff0000"/>
     <use xlink:href="#m95d96ae1eb" x="280.81629" y="106.81508" style="fill: #ff0000"/>
     <use xlink:href="#m95d96ae1eb" x="284.58011" y="123.227914" style="fill: #ff0000"/>
     <use xlink:href="#m95d96ae1eb" x="288.34393" y="106.81508" style="fill: #ff0000"/>
     <use xlink:href="#m95d96ae1eb" x="292.10775" y="139.640749" style="fill: #ff0000"/>
     <use xlink:href="#m95d96ae1eb" x="295.87157" y="139.640749" style="fill: #ff0000"/>
     <use xlink:href="#m95d96ae1eb" x="299.63539" y="139.640749" style="fill: #ff0000"/>
     <use xlink:href="#m95d96ae1eb" x="303.39921" y="106.81508" style="fill: #ff0000"/>
     <use xlink:href="#m95d96ae1eb" x="307.16303" y="90.402246" style="fill: #ff0000"/>
     <use xlink:href="#m95d96ae1eb" x="310.92685" y="156.053583" style="fill: #ff0000"/>
     <use xlink:href="#m95d96ae1eb" x="314.69067" y="106.81508" style="fill: #ff0000"/>
     <use xlink:href="#m95d96ae1eb" x="318.45449" y="123.227914" style="fill: #ff0000"/>
     <use xlink:href="#m95d96ae1eb" x="322.21831" y="139.640749" style="fill: #ff0000"/>
     <use xlink:href="#m95d96ae1eb" x="325.98213" y="172.466417" style="fill: #ff0000"/>
     <use xlink:href="#m95d96ae1eb" x="329.74595" y="172.466417" style="fill: #ff0000"/>
     <use xlink:href="#m95d96ae1eb" x="333.50977" y="106.81508" style="fill: #ff0000"/>
     <use xlink:href="#m95d96ae1eb" x="337.27359" y="205.292086" style="fill: #ff0000"/>
     <use xlink:href="#m95d96ae1eb" x="341.03741" y="139.640749" style="fill: #ff0000"/>
     <use xlink:href="#m95d96ae1eb" x="344.80123" y="221.70492" style="fill: #ff0000"/>
     <use xlink:href="#m95d96ae1eb" x="348.565051" y="106.81508" style="fill: #ff0000"/>
     <use xlink:href="#m95d96ae1eb" x="352.328871" y="106.81508" style="fill: #ff0000"/>
     <use xlink:href="#m95d96ae1eb" x="356.092691" y="106.81508" style="fill: #ff0000"/>
     <use xlink:href="#m95d96ae1eb" x="359.856511" y="57.576578" style="fill: #ff0000"/>
     <use xlink:href="#m95d96ae1eb" x="363.620331" y="172.466417" style="fill: #ff0000"/>
     <use xlink:href="#m95d96ae1eb" x="367.384151" y="90.402246" style="fill: #ff0000"/>
     <use xlink:href="#m95d96ae1eb" x="371.147971" y="188.879251" style="fill: #ff0000"/>
     <use xlink:href="#m95d96ae1eb" x="374.911791" y="205.292086" style="fill: #ff0000"/>
     <use xlink:href="#m95d96ae1eb" x="378.675611" y="24.750909" style="fill: #ff0000"/>
     <use xlink:href="#m95d96ae1eb" x="382.439431" y="123.227914" style="fill: #ff0000"/>
     <use xlink:href="#m95d96ae1eb" x="386.203251" y="254.530588" style="fill: #ff0000"/>
     <use xlink:href="#m95d96ae1eb" x="389.967071" y="156.053583" style="fill: #ff0000"/>
     <use xlink:href="#m95d96ae1eb" x="393.730891" y="205.292086" style="fill: #ff0000"/>
     <use xlink:href="#m95d96ae1eb" x="397.494711" y="238.117754" style="fill: #ff0000"/>
     <use xlink:href="#m95d96ae1eb" x="401.258531" y="123.227914" style="fill: #ff0000"/>
     <use xlink:href="#m95d96ae1eb" x="405.022351" y="106.81508" style="fill: #ff0000"/>
     <use xlink:href="#m95d96ae1eb" x="408.786171" y="139.640749" style="fill: #ff0000"/>
     <use xlink:href="#m95d96ae1eb" x="412.549991" y="156.053583" style="fill: #ff0000"/>
     <use xlink:href="#m95d96ae1eb" x="416.313811" y="156.053583" style="fill: #ff0000"/>
     <use xlink:href="#m95d96ae1eb" x="420.077631" y="57.576578" style="fill: #ff0000"/>
     <use xlink:href="#m95d96ae1eb" x="423.841451" y="106.81508" style="fill: #ff0000"/>
     <use xlink:href="#m95d96ae1eb" x="427.605271" y="73.989412" style="fill: #ff0000"/>
     <use xlink:href="#m95d96ae1eb" x="431.369091" y="57.576578" style="fill: #ff0000"/>
    </g>
   </g>
   <g id="line2d_16">
    <path d="M 58.750909 57.576578 
L 62.514729 90.402246 
L 66.278549 90.402246 
L 70.042369 94.505455 
L 73.806189 106.81508 
L 77.570009 112.286025 
L 81.333829 116.193843 
L 85.097649 110.918289 
L 88.861469 112.286025 
L 92.625289 116.662781 
L 96.389109 111.291308 
L 100.152929 112.286025 
L 103.916749 113.127709 
L 107.680569 111.504461 
L 111.444389 121.039537 
L 115.208209 124.253717 
L 118.972029 125.158836 
L 122.735849 122.31609 
L 126.499669 127.547081 
L 130.263489 131.434332 
L 134.027309 131.04355 
L 137.791129 134.418483 
L 141.554949 132.504734 
L 145.31877 132.1182 
L 149.08259 135.045155 
L 152.84641 133.959383 
L 156.61023 134.777687 
L 160.37405 133.779022 
L 164.13787 133.981151 
L 167.90169 131.434332 
L 171.66551 131.169608 
L 175.42933 129.895628 
L 179.19315 129.196218 
L 182.95697 134.330714 
L 186.72079 135.420306 
L 190.48461 135.081628 
L 194.24843 136.979208 
L 198.01225 135.753498 
L 201.77607 134.169804 
L 205.53989 135.127219 
L 209.30371 134.836992 
L 213.06753 134.169804 
L 216.83135 135.442117 
L 220.59517 134.791502 
L 224.35899 135.993452 
L 228.12281 134.645538 
L 231.88663 133.704192 
L 235.65045 134.169804 
L 239.41427 134.281456 
L 243.17809 133.732128 
L 246.94191 133.526163 
L 250.70573 133.959383 
L 254.46955 132.827874 
L 258.23337 133.25798 
L 261.99719 136.358182 
L 265.76101 137.002972 
L 269.52483 137.337193 
L 273.28865 138.225849 
L 277.05247 138.528014 
L 280.81629 137.999465 
L 284.58011 137.757309 
L 288.34393 137.25824 
L 292.10775 137.296058 
L 295.87157 137.332694 
L 299.63539 137.368202 
L 303.39921 136.905276 
L 307.16303 136.211201 
L 310.92685 136.503001 
L 314.69067 136.072741 
L 318.45449 135.889244 
L 322.21831 135.942082 
L 325.98213 136.449364 
L 329.74595 136.942749 
L 333.50977 136.535618 
L 337.27359 137.452371 
L 341.03741 137.481165 
L 344.80123 138.57498 
L 348.565051 138.167802 
L 352.328871 137.770932 
L 356.092691 137.383984 
L 359.856511 136.398707 
L 363.620331 136.838557 
L 367.384151 136.279084 
L 371.147971 136.905276 
L 374.911791 137.709827 
L 378.675611 136.396351 
L 382.439431 136.24499 
L 386.203251 137.589144 
L 389.967071 137.79661 
L 393.730891 138.54656 
L 397.494711 139.640749 
L 401.258531 139.462348 
L 405.022351 139.111302 
L 408.786171 139.116935 
L 412.549991 139.295215 
L 416.313811 139.469782 
L 420.077631 138.625522 
L 423.841451 138.300925 
L 427.605271 137.651314 
L 431.369091 136.850567 
" clip-path="url(#p061fb71e09)" style="fill: none; stroke: #ff0000; stroke-opacity: 0.5; stroke-width: 0.25; stroke-linecap: square"/>
    <defs>
     <path id="mbfb760fe7b" d="M -0.49999 0.49999 
L 0.50001 0.49999 
L 0.50001 -0.50001 
L -0.49999 -0.50001 
z
"/>
    </defs>
    <g clip-path="url(#p061fb71e09)">
     <use xlink:href="#mbfb760fe7b" x="58.750909" y="57.576578" style="fill: #ff0000; fill-opacity: 0.5"/>
     <use xlink:href="#mbfb760fe7b" x="62.514729" y="90.402246" style="fill: #ff0000; fill-opacity: 0.5"/>
     <use xlink:href="#mbfb760fe7b" x="66.278549" y="90.402246" style="fill: #ff0000; fill-opacity: 0.5"/>
     <use xlink:href="#mbfb760fe7b" x="70.042369" y="94.505455" style="fill: #ff0000; fill-opacity: 0.5"/>
     <use xlink:href="#mbfb760fe7b" x="73.806189" y="106.81508" style="fill: #ff0000; fill-opacity: 0.5"/>
     <use xlink:href="#mbfb760fe7b" x="77.570009" y="112.286025" style="fill: #ff0000; fill-opacity: 0.5"/>
     <use xlink:href="#mbfb760fe7b" x="81.333829" y="116.193843" style="fill: #ff0000; fill-opacity: 0.5"/>
     <use xlink:href="#mbfb760fe7b" x="85.097649" y="110.918289" style="fill: #ff0000; fill-opacity: 0.5"/>
     <use xlink:href="#mbfb760fe7b" x="88.861469" y="112.286025" style="fill: #ff0000; fill-opacity: 0.5"/>
     <use xlink:href="#mbfb760fe7b" x="92.625289" y="116.662781" style="fill: #ff0000; fill-opacity: 0.5"/>
     <use xlink:href="#mbfb760fe7b" x="96.389109" y="111.291308" style="fill: #ff0000; fill-opacity: 0.5"/>
     <use xlink:href="#mbfb760fe7b" x="100.152929" y="112.286025" style="fill: #ff0000; fill-opacity: 0.5"/>
     <use xlink:href="#mbfb760fe7b" x="103.916749" y="113.127709" style="fill: #ff0000; fill-opacity: 0.5"/>
     <use xlink:href="#mbfb760fe7b" x="107.680569" y="111.504461" style="fill: #ff0000; fill-opacity: 0.5"/>
     <use xlink:href="#mbfb760fe7b" x="111.444389" y="121.039537" style="fill: #ff0000; fill-opacity: 0.5"/>
     <use xlink:href="#mbfb760fe7b" x="115.208209" y="124.253717" style="fill: #ff0000; fill-opacity: 0.5"/>
     <use xlink:href="#mbfb760fe7b" x="118.972029" y="125.158836" style="fill: #ff0000; fill-opacity: 0.5"/>
     <use xlink:href="#mbfb760fe7b" x="122.735849" y="122.31609" style="fill: #ff0000; fill-opacity: 0.5"/>
     <use xlink:href="#mbfb760fe7b" x="126.499669" y="127.547081" style="fill: #ff0000; fill-opacity: 0.5"/>
     <use xlink:href="#mbfb760fe7b" x="130.263489" y="131.434332" style="fill: #ff0000; fill-opacity: 0.5"/>
     <use xlink:href="#mbfb760fe7b" x="134.027309" y="131.04355" style="fill: #ff0000; fill-opacity: 0.5"/>
     <use xlink:href="#mbfb760fe7b" x="137.791129" y="134.418483" style="fill: #ff0000; fill-opacity: 0.5"/>
     <use xlink:href="#mbfb760fe7b" x="141.554949" y="132.504734" style="fill: #ff0000; fill-opacity: 0.5"/>
     <use xlink:href="#mbfb760fe7b" x="145.31877" y="132.1182" style="fill: #ff0000; fill-opacity: 0.5"/>
     <use xlink:href="#mbfb760fe7b" x="149.08259" y="135.045155" style="fill: #ff0000; fill-opacity: 0.5"/>
     <use xlink:href="#mbfb760fe7b" x="152.84641" y="133.959383" style="fill: #ff0000; fill-opacity: 0.5"/>
     <use xlink:href="#mbfb760fe7b" x="156.61023" y="134.777687" style="fill: #ff0000; fill-opacity: 0.5"/>
     <use xlink:href="#mbfb760fe7b" x="160.37405" y="133.779022" style="fill: #ff0000; fill-opacity: 0.5"/>
     <use xlink:href="#mbfb760fe7b" x="164.13787" y="133.981151" style="fill: #ff0000; fill-opacity: 0.5"/>
     <use xlink:href="#mbfb760fe7b" x="167.90169" y="131.434332" style="fill: #ff0000; fill-opacity: 0.5"/>
     <use xlink:href="#mbfb760fe7b" x="171.66551" y="131.169608" style="fill: #ff0000; fill-opacity: 0.5"/>
     <use xlink:href="#mbfb760fe7b" x="175.42933" y="129.895628" style="fill: #ff0000; fill-opacity: 0.5"/>
     <use xlink:href="#mbfb760fe7b" x="179.19315" y="129.196218" style="fill: #ff0000; fill-opacity: 0.5"/>
     <use xlink:href="#mbfb760fe7b" x="182.95697" y="134.330714" style="fill: #ff0000; fill-opacity: 0.5"/>
     <use xlink:href="#mbfb760fe7b" x="186.72079" y="135.420306" style="fill: #ff0000; fill-opacity: 0.5"/>
     <use xlink:href="#mbfb760fe7b" x="190.48461" y="135.081628" style="fill: #ff0000; fill-opacity: 0.5"/>
     <use xlink:href="#mbfb760fe7b" x="194.24843" y="136.979208" style="fill: #ff0000; fill-opacity: 0.5"/>
     <use xlink:href="#mbfb760fe7b" x="198.01225" y="135.753498" style="fill: #ff0000; fill-opacity: 0.5"/>
     <use xlink:href="#mbfb760fe7b" x="201.77607" y="134.169804" style="fill: #ff0000; fill-opacity: 0.5"/>
     <use xlink:href="#mbfb760fe7b" x="205.53989" y="135.127219" style="fill: #ff0000; fill-opacity: 0.5"/>
     <use xlink:href="#mbfb760fe7b" x="209.30371" y="134.836992" style="fill: #ff0000; fill-opacity: 0.5"/>
     <use xlink:href="#mbfb760fe7b" x="213.06753" y="134.169804" style="fill: #ff0000; fill-opacity: 0.5"/>
     <use xlink:href="#mbfb760fe7b" x="216.83135" y="135.442117" style="fill: #ff0000; fill-opacity: 0.5"/>
     <use xlink:href="#mbfb760fe7b" x="220.59517" y="134.791502" style="fill: #ff0000; fill-opacity: 0.5"/>
     <use xlink:href="#mbfb760fe7b" x="224.35899" y="135.993452" style="fill: #ff0000; fill-opacity: 0.5"/>
     <use xlink:href="#mbfb760fe7b" x="228.12281" y="134.645538" style="fill: #ff0000; fill-opacity: 0.5"/>
     <use xlink:href="#mbfb760fe7b" x="231.88663" y="133.704192" style="fill: #ff0000; fill-opacity: 0.5"/>
     <use xlink:href="#mbfb760fe7b" x="235.65045" y="134.169804" style="fill: #ff0000; fill-opacity: 0.5"/>
     <use xlink:href="#mbfb760fe7b" x="239.41427" y="134.281456" style="fill: #ff0000; fill-opacity: 0.5"/>
     <use xlink:href="#mbfb760fe7b" x="243.17809" y="133.732128" style="fill: #ff0000; fill-opacity: 0.5"/>
     <use xlink:href="#mbfb760fe7b" x="246.94191" y="133.526163" style="fill: #ff0000; fill-opacity: 0.5"/>
     <use xlink:href="#mbfb760fe7b" x="250.70573" y="133.959383" style="fill: #ff0000; fill-opacity: 0.5"/>
     <use xlink:href="#mbfb760fe7b" x="254.46955" y="132.827874" style="fill: #ff0000; fill-opacity: 0.5"/>
     <use xlink:href="#mbfb760fe7b" x="258.23337" y="133.25798" style="fill: #ff0000; fill-opacity: 0.5"/>
     <use xlink:href="#mbfb760fe7b" x="261.99719" y="136.358182" style="fill: #ff0000; fill-opacity: 0.5"/>
     <use xlink:href="#mbfb760fe7b" x="265.76101" y="137.002972" style="fill: #ff0000; fill-opacity: 0.5"/>
     <use xlink:href="#mbfb760fe7b" x="269.52483" y="137.337193" style="fill: #ff0000; fill-opacity: 0.5"/>
     <use xlink:href="#mbfb760fe7b" x="273.28865" y="138.225849" style="fill: #ff0000; fill-opacity: 0.5"/>
     <use xlink:href="#mbfb760fe7b" x="277.05247" y="138.528014" style="fill: #ff0000; fill-opacity: 0.5"/>
     <use xlink:href="#mbfb760fe7b" x="280.81629" y="137.999465" style="fill: #ff0000; fill-opacity: 0.5"/>
     <use xlink:href="#mbfb760fe7b" x="284.58011" y="137.757309" style="fill: #ff0000; fill-opacity: 0.5"/>
     <use xlink:href="#mbfb760fe7b" x="288.34393" y="137.25824" style="fill: #ff0000; fill-opacity: 0.5"/>
     <use xlink:href="#mbfb760fe7b" x="292.10775" y="137.296058" style="fill: #ff0000; fill-opacity: 0.5"/>
     <use xlink:href="#mbfb760fe7b" x="295.87157" y="137.332694" style="fill: #ff0000; fill-opacity: 0.5"/>
     <use xlink:href="#mbfb760fe7b" x="299.63539" y="137.368202" style="fill: #ff0000; fill-opacity: 0.5"/>
     <use xlink:href="#mbfb760fe7b" x="303.39921" y="136.905276" style="fill: #ff0000; fill-opacity: 0.5"/>
     <use xlink:href="#mbfb760fe7b" x="307.16303" y="136.211201" style="fill: #ff0000; fill-opacity: 0.5"/>
     <use xlink:href="#mbfb760fe7b" x="310.92685" y="136.503001" style="fill: #ff0000; fill-opacity: 0.5"/>
     <use xlink:href="#mbfb760fe7b" x="314.69067" y="136.072741" style="fill: #ff0000; fill-opacity: 0.5"/>
     <use xlink:href="#mbfb760fe7b" x="318.45449" y="135.889244" style="fill: #ff0000; fill-opacity: 0.5"/>
     <use xlink:href="#mbfb760fe7b" x="322.21831" y="135.942082" style="fill: #ff0000; fill-opacity: 0.5"/>
     <use xlink:href="#mbfb760fe7b" x="325.98213" y="136.449364" style="fill: #ff0000; fill-opacity: 0.5"/>
     <use xlink:href="#mbfb760fe7b" x="329.74595" y="136.942749" style="fill: #ff0000; fill-opacity: 0.5"/>
     <use xlink:href="#mbfb760fe7b" x="333.50977" y="136.535618" style="fill: #ff0000; fill-opacity: 0.5"/>
     <use xlink:href="#mbfb760fe7b" x="337.27359" y="137.452371" style="fill: #ff0000; fill-opacity: 0.5"/>
     <use xlink:href="#mbfb760fe7b" x="341.03741" y="137.481165" style="fill: #ff0000; fill-opacity: 0.5"/>
     <use xlink:href="#mbfb760fe7b" x="344.80123" y="138.57498" style="fill: #ff0000; fill-opacity: 0.5"/>
     <use xlink:href="#mbfb760fe7b" x="348.565051" y="138.167802" style="fill: #ff0000; fill-opacity: 0.5"/>
     <use xlink:href="#mbfb760fe7b" x="352.328871" y="137.770932" style="fill: #ff0000; fill-opacity: 0.5"/>
     <use xlink:href="#mbfb760fe7b" x="356.092691" y="137.383984" style="fill: #ff0000; fill-opacity: 0.5"/>
     <use xlink:href="#mbfb760fe7b" x="359.856511" y="136.398707" style="fill: #ff0000; fill-opacity: 0.5"/>
     <use xlink:href="#mbfb760fe7b" x="363.620331" y="136.838557" style="fill: #ff0000; fill-opacity: 0.5"/>
     <use xlink:href="#mbfb760fe7b" x="367.384151" y="136.279084" style="fill: #ff0000; fill-opacity: 0.5"/>
     <use xlink:href="#mbfb760fe7b" x="371.147971" y="136.905276" style="fill: #ff0000; fill-opacity: 0.5"/>
     <use xlink:href="#mbfb760fe7b" x="374.911791" y="137.709827" style="fill: #ff0000; fill-opacity: 0.5"/>
     <use xlink:href="#mbfb760fe7b" x="378.675611" y="136.396351" style="fill: #ff0000; fill-opacity: 0.5"/>
     <use xlink:href="#mbfb760fe7b" x="382.439431" y="136.24499" style="fill: #ff0000; fill-opacity: 0.5"/>
     <use xlink:href="#mbfb760fe7b" x="386.203251" y="137.589144" style="fill: #ff0000; fill-opacity: 0.5"/>
     <use xlink:href="#mbfb760fe7b" x="389.967071" y="137.79661" style="fill: #ff0000; fill-opacity: 0.5"/>
     <use xlink:href="#mbfb760fe7b" x="393.730891" y="138.54656" style="fill: #ff0000; fill-opacity: 0.5"/>
     <use xlink:href="#mbfb760fe7b" x="397.494711" y="139.640749" style="fill: #ff0000; fill-opacity: 0.5"/>
     <use xlink:href="#mbfb760fe7b" x="401.258531" y="139.462348" style="fill: #ff0000; fill-opacity: 0.5"/>
     <use xlink:href="#mbfb760fe7b" x="405.022351" y="139.111302" style="fill: #ff0000; fill-opacity: 0.5"/>
     <use xlink:href="#mbfb760fe7b" x="408.786171" y="139.116935" style="fill: #ff0000; fill-opacity: 0.5"/>
     <use xlink:href="#mbfb760fe7b" x="412.549991" y="139.295215" style="fill: #ff0000; fill-opacity: 0.5"/>
     <use xlink:href="#mbfb760fe7b" x="416.313811" y="139.469782" style="fill: #ff0000; fill-opacity: 0.5"/>
     <use xlink:href="#mbfb760fe7b" x="420.077631" y="138.625522" style="fill: #ff0000; fill-opacity: 0.5"/>
     <use xlink:href="#mbfb760fe7b" x="423.841451" y="138.300925" style="fill: #ff0000; fill-opacity: 0.5"/>
     <use xlink:href="#mbfb760fe7b" x="427.605271" y="137.651314" style="fill: #ff0000; fill-opacity: 0.5"/>
     <use xlink:href="#mbfb760fe7b" x="431.369091" y="136.850567" style="fill: #ff0000; fill-opacity: 0.5"/>
    </g>
   </g>
   <g id="patch_3">
    <path d="M 40.12 317.72 
L 40.12 10.8 
" style="fill: none; stroke: #000000; stroke-width: 0.8; stroke-linejoin: miter; stroke-linecap: square"/>
   </g>
   <g id="patch_4">
    <path d="M 450 317.72 
L 450 10.8 
" style="fill: none; stroke: #000000; stroke-width: 0.8; stroke-linejoin: miter; stroke-linecap: square"/>
   </g>
   <g id="patch_5">
    <path d="M 40.12 317.72 
L 450 317.72 
" style="fill: none; stroke: #000000; stroke-width: 0.8; stroke-linejoin: miter; stroke-linecap: square"/>
   </g>
   <g id="patch_6">
    <path d="M 40.12 10.8 
L 450 10.8 
" style="fill: none; stroke: #000000; stroke-width: 0.8; stroke-linejoin: miter; stroke-linecap: square"/>
   </g>
   <g id="legend_1">
    <g id="patch_7">
     <path d="M 47.12 48.15625 
L 132.787188 48.15625 
Q 134.787188 48.15625 134.787188 46.15625 
L 134.787188 17.8 
Q 134.787188 15.8 132.787188 15.8 
L 47.12 15.8 
Q 45.12 15.8 45.12 17.8 
L 45.12 46.15625 
Q 45.12 48.15625 47.12 48.15625 
z
" style="fill: #ffffff; opacity: 0.8; stroke: #cccccc; stroke-linejoin: miter"/>
    </g>
    <g id="line2d_17">
     <path d="M 49.12 23.898438 
L 59.12 23.898438 
L 69.12 23.898438 
" style="fill: none; stroke: #ff0000; stroke-width: 0.5; stroke-linecap: square"/>
     <g>
      <use xlink:href="#m95d96ae1eb" x="59.12" y="23.898438" style="fill: #ff0000"/>
     </g>
    </g>
    <g id="text_15">
     <!-- RND -->
     <g transform="translate(77.12 27.398438) scale(0.1 -0.1)">
      <defs>
       <path id="DejaVuSans-52" d="M 2841 2188 
Q 3044 2119 3236 1894 
Q 3428 1669 3622 1275 
L 4263 0 
L 3584 0 
L 2988 1197 
Q 2756 1666 2539 1819 
Q 2322 1972 1947 1972 
L 1259 1972 
L 1259 0 
L 628 0 
L 628 4666 
L 2053 4666 
Q 2853 4666 3247 4331 
Q 3641 3997 3641 3322 
Q 3641 2881 3436 2590 
Q 3231 2300 2841 2188 
z
M 1259 4147 
L 1259 2491 
L 2053 2491 
Q 2509 2491 2742 2702 
Q 2975 2913 2975 3322 
Q 2975 3731 2742 3939 
Q 2509 4147 2053 4147 
L 1259 4147 
z
" transform="scale(0.015625)"/>
       <path id="DejaVuSans-4e" d="M 628 4666 
L 1478 4666 
L 3547 763 
L 3547 4666 
L 4159 4666 
L 4159 0 
L 3309 0 
L 1241 3903 
L 1241 0 
L 628 0 
L 628 4666 
z
" transform="scale(0.015625)"/>
       <path id="DejaVuSans-44" d="M 1259 4147 
L 1259 519 
L 2022 519 
Q 2988 519 3436 956 
Q 3884 1394 3884 2338 
Q 3884 3275 3436 3711 
Q 2988 4147 2022 4147 
L 1259 4147 
z
M 628 4666 
L 1925 4666 
Q 3281 4666 3915 4102 
Q 4550 3538 4550 2338 
Q 4550 1131 3912 565 
Q 3275 0 1925 0 
L 628 0 
L 628 4666 
z
" transform="scale(0.015625)"/>
      </defs>
      <use xlink:href="#DejaVuSans-52"/>
      <use xlink:href="#DejaVuSans-4e" x="69.482422"/>
      <use xlink:href="#DejaVuSans-44" x="144.287109"/>
     </g>
    </g>
    <g id="line2d_18">
     <path d="M 49.12 38.576563 
L 59.12 38.576563 
L 69.12 38.576563 
" style="fill: none; stroke: #ff0000; stroke-opacity: 0.5; stroke-width: 0.25; stroke-linecap: square"/>
     <g>
      <use xlink:href="#mbfb760fe7b" x="59.12" y="38.576563" style="fill: #ff0000; fill-opacity: 0.5"/>
     </g>
    </g>
    <g id="text_16">
     <!-- RND mean -->
     <g transform="translate(77.12 42.076563) scale(0.1 -0.1)">
      <defs>
       <path id="DejaVuSans-20" transform="scale(0.015625)"/>
       <path id="DejaVuSans-6d" d="M 3328 2828 
Q 3544 3216 3844 3400 
Q 4144 3584 4550 3584 
Q 5097 3584 5394 3201 
Q 5691 2819 5691 2113 
L 5691 0 
L 5113 0 
L 5113 2094 
Q 5113 2597 4934 2840 
Q 4756 3084 4391 3084 
Q 3944 3084 3684 2787 
Q 3425 2491 3425 1978 
L 3425 0 
L 2847 0 
L 2847 2094 
Q 2847 2600 2669 2842 
Q 2491 3084 2119 3084 
Q 1678 3084 1418 2786 
Q 1159 2488 1159 1978 
L 1159 0 
L 581 0 
L 581 3500 
L 1159 3500 
L 1159 2956 
Q 1356 3278 1631 3431 
Q 1906 3584 2284 3584 
Q 2666 3584 2933 3390 
Q 3200 3197 3328 2828 
z
" transform="scale(0.015625)"/>
       <path id="DejaVuSans-65" d="M 3597 1894 
L 3597 1613 
L 953 1613 
Q 991 1019 1311 708 
Q 1631 397 2203 397 
Q 2534 397 2845 478 
Q 3156 559 3463 722 
L 3463 178 
Q 3153 47 2828 -22 
Q 2503 -91 2169 -91 
Q 1331 -91 842 396 
Q 353 884 353 1716 
Q 353 2575 817 3079 
Q 1281 3584 2069 3584 
Q 2775 3584 3186 3129 
Q 3597 2675 3597 1894 
z
M 3022 2063 
Q 3016 2534 2758 2815 
Q 2500 3097 2075 3097 
Q 1594 3097 1305 2825 
Q 1016 2553 972 2059 
L 3022 2063 
z
" transform="scale(0.015625)"/>
       <path id="DejaVuSans-61" d="M 2194 1759 
Q 1497 1759 1228 1600 
Q 959 1441 959 1056 
Q 959 750 1161 570 
Q 1363 391 1709 391 
Q 2188 391 2477 730 
Q 2766 1069 2766 1631 
L 2766 1759 
L 2194 1759 
z
M 3341 1997 
L 3341 0 
L 2766 0 
L 2766 531 
Q 2569 213 2275 61 
Q 1981 -91 1556 -91 
Q 1019 -91 701 211 
Q 384 513 384 1019 
Q 384 1609 779 1909 
Q 1175 2209 1959 2209 
L 2766 2209 
L 2766 2266 
Q 2766 2663 2505 2880 
Q 2244 3097 1772 3097 
Q 1472 3097 1187 3025 
Q 903 2953 641 2809 
L 641 3341 
Q 956 3463 1253 3523 
Q 1550 3584 1831 3584 
Q 2591 3584 2966 3190 
Q 3341 2797 3341 1997 
z
" transform="scale(0.015625)"/>
       <path id="DejaVuSans-6e" d="M 3513 2113 
L 3513 0 
L 2938 0 
L 2938 2094 
Q 2938 2591 2744 2837 
Q 2550 3084 2163 3084 
Q 1697 3084 1428 2787 
Q 1159 2491 1159 1978 
L 1159 0 
L 581 0 
L 581 3500 
L 1159 3500 
L 1159 2956 
Q 1366 3272 1645 3428 
Q 1925 3584 2291 3584 
Q 2894 3584 3203 3211 
Q 3513 2838 3513 2113 
z
" transform="scale(0.015625)"/>
      </defs>
      <use xlink:href="#DejaVuSans-52"/>
      <use xlink:href="#DejaVuSans-4e" x="69.482422"/>
      <use xlink:href="#DejaVuSans-44" x="144.287109"/>
      <use xlink:href="#DejaVuSans-20" x="221.289062"/>
      <use xlink:href="#DejaVuSans-6d" x="253.076172"/>
      <use xlink:href="#DejaVuSans-65" x="350.488281"/>
      <use xlink:href="#DejaVuSans-61" x="412.011719"/>
      <use xlink:href="#DejaVuSans-6e" x="473.291016"/>
     </g>
    </g>
   </g>
  </g>
 </g>
 <defs>
  <clipPath id="p061fb71e09">
   <rect x="40.12" y="10.8" width="409.88" height="306.92"/>
  </clipPath>
 </defs>
</svg>
