<?xml version="1.0" encoding="utf-8" standalone="no"?>
<!DOCTYPE svg PUBLIC "-//W3C//DTD SVG 1.1//EN"
  "http://www.w3.org/Graphics/SVG/1.1/DTD/svg11.dtd">
<svg xmlns:xlink="http://www.w3.org/1999/xlink" width="460.8pt" height="345.6pt" viewBox="0 0 460.8 345.6" xmlns="http://www.w3.org/2000/svg" version="1.1">
 <metadata>
  <rdf:RDF xmlns:dc="http://purl.org/dc/elements/1.1/" xmlns:cc="http://creativecommons.org/ns#" xmlns:rdf="http://www.w3.org/1999/02/22-rdf-syntax-ns#">
   <cc:Work>
    <dc:type rdf:resource="http://purl.org/dc/dcmitype/StillImage"/>
    <dc:date>2024-04-10T10:32:26.048950</dc:date>
    <dc:format>image/svg+xml</dc:format>
    <dc:creator>
     <cc:Agent>
      <dc:title>Matplotlib v3.8.0, https://matplotlib.org/</dc:title>
     </cc:Agent>
    </dc:creator>
   </cc:Work>
  </rdf:RDF>
 </metadata>
 <defs>
  <style type="text/css">*{stroke-linejoin: round; stroke-linecap: butt}</style>
 </defs>
 <g id="figure_1">
  <g id="patch_1">
   <path d="M 0 345.6 
L 460.8 345.6 
L 460.8 0 
L 0 0 
z
" style="fill: #ffffff"/>
  </g>
  <g id="axes_1">
   <g id="patch_2">
    <path d="M 47.81 303.64 
L 450 303.64 
L 450 25.44 
L 47.81 25.44 
z
" style="fill: #ffffff"/>
   </g>
   <g id="PolyCollection_1">
    <defs>
     <path id="m5e1cdc6bd8" d="M 66.091364 -278.590863 
L 66.091364 -278.590863 
L 69.784568 -290.880604 
L 73.477773 -307.514545 
L 77.170978 -299.047346 
L 80.864183 -290.276946 
L 84.557388 -281.283287 
L 88.250592 -274.723446 
L 91.943797 -268.486567 
L 95.637002 -262.671229 
L 99.330207 -259.265519 
L 103.023411 -257.301024 
L 106.716616 -254.166248 
L 110.409821 -251.437726 
L 114.103026 -248.667777 
L 117.79623 -245.995854 
L 121.489435 -244.684519 
L 125.18264 -242.452146 
L 128.875845 -240.343338 
L 132.56905 -238.935905 
L 136.262254 -237.054375 
L 139.955459 -236.043762 
L 143.648664 -234.428069 
L 147.341869 -233.590256 
L 151.035073 -232.431573 
L 154.728278 -231.349726 
L 158.421483 -230.096836 
L 162.114688 -229.501213 
L 165.807893 -228.261792 
L 169.501097 -227.428181 
L 173.194302 -226.287789 
L 176.887507 -225.244657 
L 180.580712 -224.154132 
L 184.273916 -223.29439 
L 187.967121 -224.541778 
L 187.967121 -156.565857 
L 187.967121 -156.565857 
L 184.273916 -155.562865 
L 180.580712 -155.493705 
L 176.887507 -156.558464 
L 173.194302 -158.493047 
L 169.501097 -159.833579 
L 165.807893 -159.476427 
L 162.114688 -160.257076 
L 158.421483 -159.487417 
L 154.728278 -159.675552 
L 151.035073 -159.306385 
L 147.341869 -158.922356 
L 143.648664 -158.004059 
L 139.955459 -158.239485 
L 136.262254 -157.228872 
L 132.56905 -160.705845 
L 128.875845 -166.383543 
L 125.18264 -168.600062 
L 121.489435 -169.961038 
L 117.79623 -168.649703 
L 114.103026 -170.341132 
L 110.409821 -171.039489 
L 106.716616 -170.660463 
L 103.023411 -170.302366 
L 99.330207 -167.597424 
L 95.637002 -165.549201 
L 91.943797 -169.066589 
L 88.250592 -169.011125 
L 84.557388 -184.268045 
L 80.864183 -185.45554 
L 77.170978 -207.228605 
L 73.477773 -195.367687 
L 69.784568 -276.482277 
L 66.091364 -278.590863 
z
" style="stroke: #0000ff; stroke-opacity: 0.2"/>
    </defs>
    <g clip-path="url(#pbff8385ae2)">
     <use xlink:href="#m5e1cdc6bd8" x="0" y="345.6" style="fill: #0000ff; fill-opacity: 0.2; stroke: #0000ff; stroke-opacity: 0.2"/>
    </g>
   </g>
   <g id="PolyCollection_2">
    <defs>
     <path id="m8f452143fd" d="M 66.091364 -207.322778 
L 66.091364 -207.322778 
L 69.784568 -215.757123 
L 73.477773 -207.322778 
L 77.170978 -201.802812 
L 80.864183 -199.545068 
L 84.557388 -195.379404 
L 88.250592 -192.038504 
L 91.943797 -195.831516 
L 95.637002 -193.747905 
L 99.330207 -191.700724 
L 103.023411 -196.809744 
L 106.716616 -195.23612 
L 110.409821 -193.868296 
L 114.103026 -194.399857 
L 117.79623 -198.223134 
L 121.489435 -196.271085 
L 125.18264 -194.838343 
L 128.875845 -196.686489 
L 132.56905 -195.906769 
L 136.262254 -194.456926 
L 139.955459 -193.884245 
L 143.648664 -192.517705 
L 147.341869 -193.450189 
L 151.035073 -192.994873 
L 154.728278 -191.799664 
L 158.421483 -192.000387 
L 162.114688 -190.980669 
L 165.807893 -191.18351 
L 169.501097 -190.504629 
L 173.194302 -192.773897 
L 176.887507 -192.426181 
L 180.580712 -193.044847 
L 184.273916 -193.100057 
L 187.967121 -194.775865 
L 191.660326 -193.811114 
L 195.353531 -193.543971 
L 199.046736 -192.636777 
L 202.73994 -193.247375 
L 206.433145 -194.323528 
L 210.12635 -193.490727 
L 213.819555 -193.259252 
L 217.512759 -193.364986 
L 221.205964 -192.575416 
L 224.899169 -192.69443 
L 228.592374 -191.946736 
L 232.285579 -192.89639 
L 235.978783 -193.357309 
L 239.671988 -192.773569 
L 243.365193 -192.362742 
L 247.058398 -192.458697 
L 250.751602 -192.274045 
L 254.444807 -191.748489 
L 258.138012 -192.554825 
L 261.831217 -192.046281 
L 265.524421 -192.918 
L 269.217626 -192.33419 
L 272.910831 -191.855447 
L 276.604036 -191.264962 
L 280.297241 -190.814166 
L 283.990445 -190.951519 
L 287.68365 -190.841956 
L 291.376855 -190.96777 
L 295.07006 -190.677039 
L 298.763264 -190.393417 
L 302.456469 -190.116623 
L 306.149674 -190.239255 
L 309.842879 -190.61969 
L 313.536084 -190.233387 
L 317.229288 -190.342669 
L 320.922493 -190.240258 
L 324.615698 -189.98292 
L 328.308903 -189.561834 
L 332.002107 -189.148875 
L 335.695312 -189.264379 
L 339.388517 -188.878433 
L 343.081722 -188.652908 
L 346.774927 -188.342617 
L 350.468131 -188.471516 
L 354.161336 -188.594714 
L 357.854541 -188.712487 
L 361.547746 -189.618831 
L 365.24095 -189.251163 
L 368.934155 -189.569334 
L 372.62736 -189.197723 
L 376.320565 -188.853792 
L 380.01377 -190.390249 
L 383.706974 -190.309846 
L 387.400179 -190.246388 
L 391.093384 -189.954943 
L 394.786589 -189.608167 
L 398.479793 -189.390256 
L 402.172998 -189.336424 
L 405.866203 -189.442894 
L 409.559408 -189.26315 
L 413.252612 -188.997066 
L 416.945817 -188.73546 
L 420.639022 -189.50342 
L 424.332227 -189.598504 
L 428.025432 -190.084771 
L 431.718636 -190.79732 
L 431.718636 -125.49828 
L 431.718636 -125.49828 
L 428.025432 -125.217396 
L 424.332227 -124.897733 
L 420.639022 -124.590112 
L 416.945817 -124.310655 
L 413.252612 -124.265622 
L 409.559408 -124.220719 
L 405.866203 -124.047962 
L 402.172998 -123.718913 
L 398.479793 -123.443751 
L 394.786589 -124.583328 
L 391.093384 -125.166964 
L 387.400179 -125.132908 
L 383.706974 -126.737053 
L 380.01377 -126.468866 
L 376.320565 -126.375782 
L 372.62736 -127.030003 
L 368.934155 -127.435267 
L 365.24095 -127.059337 
L 361.547746 -127.237361 
L 357.854541 -126.921339 
L 354.161336 -126.559051 
L 350.468131 -126.189878 
L 346.774927 -125.813619 
L 343.081722 -126.86035 
L 339.388517 -126.670549 
L 335.695312 -127.421958 
L 332.002107 -127.032361 
L 328.308903 -127.231511 
L 324.615698 -127.439777 
L 320.922493 -127.247991 
L 317.229288 -126.917927 
L 313.536084 -126.493415 
L 309.842879 -126.469128 
L 306.149674 -125.988471 
L 302.456469 -125.536782 
L 298.763264 -125.30404 
L 295.07006 -125.06587 
L 291.376855 -124.822057 
L 287.68365 -124.32871 
L 283.990445 -123.91872 
L 280.297241 -123.400337 
L 276.604036 -123.324417 
L 272.910831 -123.836428 
L 269.217626 -123.772332 
L 265.524421 -123.98847 
L 261.831217 -128.706402 
L 258.138012 -128.731462 
L 254.444807 -128.13401 
L 250.751602 -128.145921 
L 247.058398 -127.705742 
L 243.365193 -127.120183 
L 239.671988 -126.847876 
L 235.978783 -126.841789 
L 232.285579 -126.134842 
L 228.592374 -125.41223 
L 224.899169 -126.155715 
L 221.205964 -125.467555 
L 217.512759 -126.256458 
L 213.819555 -125.534457 
L 210.12635 -124.942916 
L 206.433145 -125.297916 
L 202.73994 -124.409285 
L 199.046736 -123.499227 
L 195.353531 -124.946234 
L 191.660326 -124.258916 
L 187.967121 -124.645948 
L 184.273916 -132.691784 
L 180.580712 -131.879283 
L 176.887507 -130.917406 
L 173.194302 -130.241265 
L 169.501097 -129.350865 
L 165.807893 -128.922751 
L 162.114688 -127.886615 
L 158.421483 -127.882113 
L 154.728278 -126.735791 
L 151.035073 -129.17186 
L 147.341869 -128.236997 
L 143.648664 -126.795219 
L 139.955459 -129.615734 
L 136.262254 -128.558236 
L 132.56905 -131.931046 
L 128.875845 -137.641068 
L 125.18264 -135.962408 
L 121.489435 -135.652588 
L 117.79623 -137.688158 
L 114.103026 -153.340967 
L 110.409821 -151.858673 
L 106.716616 -151.535071 
L 103.023411 -151.195526 
L 99.330207 -149.640518 
L 95.637002 -153.023285 
L 91.943797 -152.636534 
L 88.250592 -149.884518 
L 84.557388 -151.391787 
L 80.864183 -154.013559 
L 77.170978 -167.027548 
L 73.477773 -166.598159 
L 69.784568 -158.163814 
L 66.091364 -207.322778 
z
" style="stroke: #ff0000; stroke-opacity: 0.1"/>
    </defs>
    <g clip-path="url(#pbff8385ae2)">
     <use xlink:href="#m8f452143fd" x="0" y="345.6" style="fill: #ff0000; fill-opacity: 0.1; stroke: #ff0000; stroke-opacity: 0.1"/>
    </g>
   </g>
   <g id="matplotlib.axis_1">
    <g id="xtick_1">
     <g id="line2d_1">
      <defs>
       <path id="m0c1b280476" d="M 0 0 
L 0 3.5 
" style="stroke: #000000; stroke-width: 0.8"/>
      </defs>
      <g>
       <use xlink:href="#m0c1b280476" x="66.091364" y="303.64" style="stroke: #000000; stroke-width: 0.8"/>
      </g>
     </g>
     <g id="text_1">
      <!-- 0 -->
      <g transform="translate(62.910114 318.238437) scale(0.1 -0.1)">
       <defs>
        <path id="DejaVuSans-30" d="M 2034 4250 
Q 1547 4250 1301 3770 
Q 1056 3291 1056 2328 
Q 1056 1369 1301 889 
Q 1547 409 2034 409 
Q 2525 409 2770 889 
Q 3016 1369 3016 2328 
Q 3016 3291 2770 3770 
Q 2525 4250 2034 4250 
z
M 2034 4750 
Q 2819 4750 3233 4129 
Q 3647 3509 3647 2328 
Q 3647 1150 3233 529 
Q 2819 -91 2034 -91 
Q 1250 -91 836 529 
Q 422 1150 422 2328 
Q 422 3509 836 4129 
Q 1250 4750 2034 4750 
z
" transform="scale(0.015625)"/>
       </defs>
       <use xlink:href="#DejaVuSans-30"/>
      </g>
     </g>
    </g>
    <g id="xtick_2">
     <g id="line2d_2">
      <g>
       <use xlink:href="#m0c1b280476" x="139.955459" y="303.64" style="stroke: #000000; stroke-width: 0.8"/>
      </g>
     </g>
     <g id="text_2">
      <!-- 20 -->
      <g transform="translate(133.592959 318.238437) scale(0.1 -0.1)">
       <defs>
        <path id="DejaVuSans-32" d="M 1228 531 
L 3431 531 
L 3431 0 
L 469 0 
L 469 531 
Q 828 903 1448 1529 
Q 2069 2156 2228 2338 
Q 2531 2678 2651 2914 
Q 2772 3150 2772 3378 
Q 2772 3750 2511 3984 
Q 2250 4219 1831 4219 
Q 1534 4219 1204 4116 
Q 875 4013 500 3803 
L 500 4441 
Q 881 4594 1212 4672 
Q 1544 4750 1819 4750 
Q 2544 4750 2975 4387 
Q 3406 4025 3406 3419 
Q 3406 3131 3298 2873 
Q 3191 2616 2906 2266 
Q 2828 2175 2409 1742 
Q 1991 1309 1228 531 
z
" transform="scale(0.015625)"/>
       </defs>
       <use xlink:href="#DejaVuSans-32"/>
       <use xlink:href="#DejaVuSans-30" x="63.623047"/>
      </g>
     </g>
    </g>
    <g id="xtick_3">
     <g id="line2d_3">
      <g>
       <use xlink:href="#m0c1b280476" x="213.819555" y="303.64" style="stroke: #000000; stroke-width: 0.8"/>
      </g>
     </g>
     <g id="text_3">
      <!-- 40 -->
      <g transform="translate(207.457055 318.238437) scale(0.1 -0.1)">
       <defs>
        <path id="DejaVuSans-34" d="M 2419 4116 
L 825 1625 
L 2419 1625 
L 2419 4116 
z
M 2253 4666 
L 3047 4666 
L 3047 1625 
L 3713 1625 
L 3713 1100 
L 3047 1100 
L 3047 0 
L 2419 0 
L 2419 1100 
L 313 1100 
L 313 1709 
L 2253 4666 
z
" transform="scale(0.015625)"/>
       </defs>
       <use xlink:href="#DejaVuSans-34"/>
       <use xlink:href="#DejaVuSans-30" x="63.623047"/>
      </g>
     </g>
    </g>
    <g id="xtick_4">
     <g id="line2d_4">
      <g>
       <use xlink:href="#m0c1b280476" x="287.68365" y="303.64" style="stroke: #000000; stroke-width: 0.8"/>
      </g>
     </g>
     <g id="text_4">
      <!-- 60 -->
      <g transform="translate(281.32115 318.238437) scale(0.1 -0.1)">
       <defs>
        <path id="DejaVuSans-36" d="M 2113 2584 
Q 1688 2584 1439 2293 
Q 1191 2003 1191 1497 
Q 1191 994 1439 701 
Q 1688 409 2113 409 
Q 2538 409 2786 701 
Q 3034 994 3034 1497 
Q 3034 2003 2786 2293 
Q 2538 2584 2113 2584 
z
M 3366 4563 
L 3366 3988 
Q 3128 4100 2886 4159 
Q 2644 4219 2406 4219 
Q 1781 4219 1451 3797 
Q 1122 3375 1075 2522 
Q 1259 2794 1537 2939 
Q 1816 3084 2150 3084 
Q 2853 3084 3261 2657 
Q 3669 2231 3669 1497 
Q 3669 778 3244 343 
Q 2819 -91 2113 -91 
Q 1303 -91 875 529 
Q 447 1150 447 2328 
Q 447 3434 972 4092 
Q 1497 4750 2381 4750 
Q 2619 4750 2861 4703 
Q 3103 4656 3366 4563 
z
" transform="scale(0.015625)"/>
       </defs>
       <use xlink:href="#DejaVuSans-36"/>
       <use xlink:href="#DejaVuSans-30" x="63.623047"/>
      </g>
     </g>
    </g>
    <g id="xtick_5">
     <g id="line2d_5">
      <g>
       <use xlink:href="#m0c1b280476" x="361.547746" y="303.64" style="stroke: #000000; stroke-width: 0.8"/>
      </g>
     </g>
     <g id="text_5">
      <!-- 80 -->
      <g transform="translate(355.185246 318.238437) scale(0.1 -0.1)">
       <defs>
        <path id="DejaVuSans-38" d="M 2034 2216 
Q 1584 2216 1326 1975 
Q 1069 1734 1069 1313 
Q 1069 891 1326 650 
Q 1584 409 2034 409 
Q 2484 409 2743 651 
Q 3003 894 3003 1313 
Q 3003 1734 2745 1975 
Q 2488 2216 2034 2216 
z
M 1403 2484 
Q 997 2584 770 2862 
Q 544 3141 544 3541 
Q 544 4100 942 4425 
Q 1341 4750 2034 4750 
Q 2731 4750 3128 4425 
Q 3525 4100 3525 3541 
Q 3525 3141 3298 2862 
Q 3072 2584 2669 2484 
Q 3125 2378 3379 2068 
Q 3634 1759 3634 1313 
Q 3634 634 3220 271 
Q 2806 -91 2034 -91 
Q 1263 -91 848 271 
Q 434 634 434 1313 
Q 434 1759 690 2068 
Q 947 2378 1403 2484 
z
M 1172 3481 
Q 1172 3119 1398 2916 
Q 1625 2713 2034 2713 
Q 2441 2713 2670 2916 
Q 2900 3119 2900 3481 
Q 2900 3844 2670 4047 
Q 2441 4250 2034 4250 
Q 1625 4250 1398 4047 
Q 1172 3844 1172 3481 
z
" transform="scale(0.015625)"/>
       </defs>
       <use xlink:href="#DejaVuSans-38"/>
       <use xlink:href="#DejaVuSans-30" x="63.623047"/>
      </g>
     </g>
    </g>
    <g id="xtick_6">
     <g id="line2d_6">
      <g>
       <use xlink:href="#m0c1b280476" x="435.411841" y="303.64" style="stroke: #000000; stroke-width: 0.8"/>
      </g>
     </g>
     <g id="text_6">
      <!-- 100 -->
      <g transform="translate(425.868091 318.238437) scale(0.1 -0.1)">
       <defs>
        <path id="DejaVuSans-31" d="M 794 531 
L 1825 531 
L 1825 4091 
L 703 3866 
L 703 4441 
L 1819 4666 
L 2450 4666 
L 2450 531 
L 3481 531 
L 3481 0 
L 794 0 
L 794 531 
z
" transform="scale(0.015625)"/>
       </defs>
       <use xlink:href="#DejaVuSans-31"/>
       <use xlink:href="#DejaVuSans-30" x="63.623047"/>
       <use xlink:href="#DejaVuSans-30" x="127.246094"/>
      </g>
     </g>
    </g>
    <g id="text_7">
     <!-- Iteration -->
     <g transform="translate(227.696406 331.916562) scale(0.1 -0.1)">
      <defs>
       <path id="DejaVuSans-49" d="M 628 4666 
L 1259 4666 
L 1259 0 
L 628 0 
L 628 4666 
z
" transform="scale(0.015625)"/>
       <path id="DejaVuSans-74" d="M 1172 4494 
L 1172 3500 
L 2356 3500 
L 2356 3053 
L 1172 3053 
L 1172 1153 
Q 1172 725 1289 603 
Q 1406 481 1766 481 
L 2356 481 
L 2356 0 
L 1766 0 
Q 1100 0 847 248 
Q 594 497 594 1153 
L 594 3053 
L 172 3053 
L 172 3500 
L 594 3500 
L 594 4494 
L 1172 4494 
z
" transform="scale(0.015625)"/>
       <path id="DejaVuSans-65" d="M 3597 1894 
L 3597 1613 
L 953 1613 
Q 991 1019 1311 708 
Q 1631 397 2203 397 
Q 2534 397 2845 478 
Q 3156 559 3463 722 
L 3463 178 
Q 3153 47 2828 -22 
Q 2503 -91 2169 -91 
Q 1331 -91 842 396 
Q 353 884 353 1716 
Q 353 2575 817 3079 
Q 1281 3584 2069 3584 
Q 2775 3584 3186 3129 
Q 3597 2675 3597 1894 
z
M 3022 2063 
Q 3016 2534 2758 2815 
Q 2500 3097 2075 3097 
Q 1594 3097 1305 2825 
Q 1016 2553 972 2059 
L 3022 2063 
z
" transform="scale(0.015625)"/>
       <path id="DejaVuSans-72" d="M 2631 2963 
Q 2534 3019 2420 3045 
Q 2306 3072 2169 3072 
Q 1681 3072 1420 2755 
Q 1159 2438 1159 1844 
L 1159 0 
L 581 0 
L 581 3500 
L 1159 3500 
L 1159 2956 
Q 1341 3275 1631 3429 
Q 1922 3584 2338 3584 
Q 2397 3584 2469 3576 
Q 2541 3569 2628 3553 
L 2631 2963 
z
" transform="scale(0.015625)"/>
       <path id="DejaVuSans-61" d="M 2194 1759 
Q 1497 1759 1228 1600 
Q 959 1441 959 1056 
Q 959 750 1161 570 
Q 1363 391 1709 391 
Q 2188 391 2477 730 
Q 2766 1069 2766 1631 
L 2766 1759 
L 2194 1759 
z
M 3341 1997 
L 3341 0 
L 2766 0 
L 2766 531 
Q 2569 213 2275 61 
Q 1981 -91 1556 -91 
Q 1019 -91 701 211 
Q 384 513 384 1019 
Q 384 1609 779 1909 
Q 1175 2209 1959 2209 
L 2766 2209 
L 2766 2266 
Q 2766 2663 2505 2880 
Q 2244 3097 1772 3097 
Q 1472 3097 1187 3025 
Q 903 2953 641 2809 
L 641 3341 
Q 956 3463 1253 3523 
Q 1550 3584 1831 3584 
Q 2591 3584 2966 3190 
Q 3341 2797 3341 1997 
z
" transform="scale(0.015625)"/>
       <path id="DejaVuSans-69" d="M 603 3500 
L 1178 3500 
L 1178 0 
L 603 0 
L 603 3500 
z
M 603 4863 
L 1178 4863 
L 1178 4134 
L 603 4134 
L 603 4863 
z
" transform="scale(0.015625)"/>
       <path id="DejaVuSans-6f" d="M 1959 3097 
Q 1497 3097 1228 2736 
Q 959 2375 959 1747 
Q 959 1119 1226 758 
Q 1494 397 1959 397 
Q 2419 397 2687 759 
Q 2956 1122 2956 1747 
Q 2956 2369 2687 2733 
Q 2419 3097 1959 3097 
z
M 1959 3584 
Q 2709 3584 3137 3096 
Q 3566 2609 3566 1747 
Q 3566 888 3137 398 
Q 2709 -91 1959 -91 
Q 1206 -91 779 398 
Q 353 888 353 1747 
Q 353 2609 779 3096 
Q 1206 3584 1959 3584 
z
" transform="scale(0.015625)"/>
       <path id="DejaVuSans-6e" d="M 3513 2113 
L 3513 0 
L 2938 0 
L 2938 2094 
Q 2938 2591 2744 2837 
Q 2550 3084 2163 3084 
Q 1697 3084 1428 2787 
Q 1159 2491 1159 1978 
L 1159 0 
L 581 0 
L 581 3500 
L 1159 3500 
L 1159 2956 
Q 1366 3272 1645 3428 
Q 1925 3584 2291 3584 
Q 2894 3584 3203 3211 
Q 3513 2838 3513 2113 
z
" transform="scale(0.015625)"/>
      </defs>
      <use xlink:href="#DejaVuSans-49"/>
      <use xlink:href="#DejaVuSans-74" x="29.492188"/>
      <use xlink:href="#DejaVuSans-65" x="68.701172"/>
      <use xlink:href="#DejaVuSans-72" x="130.224609"/>
      <use xlink:href="#DejaVuSans-61" x="171.337891"/>
      <use xlink:href="#DejaVuSans-74" x="232.617188"/>
      <use xlink:href="#DejaVuSans-69" x="271.826172"/>
      <use xlink:href="#DejaVuSans-6f" x="299.609375"/>
      <use xlink:href="#DejaVuSans-6e" x="360.791016"/>
     </g>
    </g>
   </g>
   <g id="matplotlib.axis_2">
    <g id="ytick_1">
     <g id="line2d_7">
      <defs>
       <path id="mf0c7154ce0" d="M 0 0 
L -3.5 0 
" style="stroke: #000000; stroke-width: 0.8"/>
      </defs>
      <g>
       <use xlink:href="#mf0c7154ce0" x="47.81" y="290.994545" style="stroke: #000000; stroke-width: 0.8"/>
      </g>
     </g>
     <g id="text_8">
      <!-- 0.3 -->
      <g transform="translate(24.906875 294.793764) scale(0.1 -0.1)">
       <defs>
        <path id="DejaVuSans-2e" d="M 684 794 
L 1344 794 
L 1344 0 
L 684 0 
L 684 794 
z
" transform="scale(0.015625)"/>
        <path id="DejaVuSans-33" d="M 2597 2516 
Q 3050 2419 3304 2112 
Q 3559 1806 3559 1356 
Q 3559 666 3084 287 
Q 2609 -91 1734 -91 
Q 1441 -91 1130 -33 
Q 819 25 488 141 
L 488 750 
Q 750 597 1062 519 
Q 1375 441 1716 441 
Q 2309 441 2620 675 
Q 2931 909 2931 1356 
Q 2931 1769 2642 2001 
Q 2353 2234 1838 2234 
L 1294 2234 
L 1294 2753 
L 1863 2753 
Q 2328 2753 2575 2939 
Q 2822 3125 2822 3475 
Q 2822 3834 2567 4026 
Q 2313 4219 1838 4219 
Q 1578 4219 1281 4162 
Q 984 4106 628 3988 
L 628 4550 
Q 988 4650 1302 4700 
Q 1616 4750 1894 4750 
Q 2613 4750 3031 4423 
Q 3450 4097 3450 3541 
Q 3450 3153 3228 2886 
Q 3006 2619 2597 2516 
z
" transform="scale(0.015625)"/>
       </defs>
       <use xlink:href="#DejaVuSans-30"/>
       <use xlink:href="#DejaVuSans-2e" x="63.623047"/>
       <use xlink:href="#DejaVuSans-33" x="95.410156"/>
      </g>
     </g>
    </g>
    <g id="ytick_2">
     <g id="line2d_8">
      <g>
       <use xlink:href="#mf0c7154ce0" x="47.81" y="240.088771" style="stroke: #000000; stroke-width: 0.8"/>
      </g>
     </g>
     <g id="text_9">
      <!-- 0.4 -->
      <g transform="translate(24.906875 243.88799) scale(0.1 -0.1)">
       <use xlink:href="#DejaVuSans-30"/>
       <use xlink:href="#DejaVuSans-2e" x="63.623047"/>
       <use xlink:href="#DejaVuSans-34" x="95.410156"/>
      </g>
     </g>
    </g>
    <g id="ytick_3">
     <g id="line2d_9">
      <g>
       <use xlink:href="#mf0c7154ce0" x="47.81" y="189.182996" style="stroke: #000000; stroke-width: 0.8"/>
      </g>
     </g>
     <g id="text_10">
      <!-- 0.5 -->
      <g transform="translate(24.906875 192.982215) scale(0.1 -0.1)">
       <defs>
        <path id="DejaVuSans-35" d="M 691 4666 
L 3169 4666 
L 3169 4134 
L 1269 4134 
L 1269 2991 
Q 1406 3038 1543 3061 
Q 1681 3084 1819 3084 
Q 2600 3084 3056 2656 
Q 3513 2228 3513 1497 
Q 3513 744 3044 326 
Q 2575 -91 1722 -91 
Q 1428 -91 1123 -41 
Q 819 9 494 109 
L 494 744 
Q 775 591 1075 516 
Q 1375 441 1709 441 
Q 2250 441 2565 725 
Q 2881 1009 2881 1497 
Q 2881 1984 2565 2268 
Q 2250 2553 1709 2553 
Q 1456 2553 1204 2497 
Q 953 2441 691 2322 
L 691 4666 
z
" transform="scale(0.015625)"/>
       </defs>
       <use xlink:href="#DejaVuSans-30"/>
       <use xlink:href="#DejaVuSans-2e" x="63.623047"/>
       <use xlink:href="#DejaVuSans-35" x="95.410156"/>
      </g>
     </g>
    </g>
    <g id="ytick_4">
     <g id="line2d_10">
      <g>
       <use xlink:href="#mf0c7154ce0" x="47.81" y="138.277222" style="stroke: #000000; stroke-width: 0.8"/>
      </g>
     </g>
     <g id="text_11">
      <!-- 0.6 -->
      <g transform="translate(24.906875 142.07644) scale(0.1 -0.1)">
       <use xlink:href="#DejaVuSans-30"/>
       <use xlink:href="#DejaVuSans-2e" x="63.623047"/>
       <use xlink:href="#DejaVuSans-36" x="95.410156"/>
      </g>
     </g>
    </g>
    <g id="ytick_5">
     <g id="line2d_11">
      <g>
       <use xlink:href="#mf0c7154ce0" x="47.81" y="87.371447" style="stroke: #000000; stroke-width: 0.8"/>
      </g>
     </g>
     <g id="text_12">
      <!-- 0.7 -->
      <g transform="translate(24.906875 91.170666) scale(0.1 -0.1)">
       <defs>
        <path id="DejaVuSans-37" d="M 525 4666 
L 3525 4666 
L 3525 4397 
L 1831 0 
L 1172 0 
L 2766 4134 
L 525 4134 
L 525 4666 
z
" transform="scale(0.015625)"/>
       </defs>
       <use xlink:href="#DejaVuSans-30"/>
       <use xlink:href="#DejaVuSans-2e" x="63.623047"/>
       <use xlink:href="#DejaVuSans-37" x="95.410156"/>
      </g>
     </g>
    </g>
    <g id="ytick_6">
     <g id="line2d_12">
      <g>
       <use xlink:href="#mf0c7154ce0" x="47.81" y="36.465672" style="stroke: #000000; stroke-width: 0.8"/>
      </g>
     </g>
     <g id="text_13">
      <!-- 0.8 -->
      <g transform="translate(24.906875 40.264891) scale(0.1 -0.1)">
       <use xlink:href="#DejaVuSans-30"/>
       <use xlink:href="#DejaVuSans-2e" x="63.623047"/>
       <use xlink:href="#DejaVuSans-38" x="95.410156"/>
      </g>
     </g>
    </g>
    <g id="text_14">
     <!-- Avg action -->
     <g transform="translate(18.827187 190.779844) rotate(-90) scale(0.1 -0.1)">
      <defs>
       <path id="DejaVuSans-41" d="M 2188 4044 
L 1331 1722 
L 3047 1722 
L 2188 4044 
z
M 1831 4666 
L 2547 4666 
L 4325 0 
L 3669 0 
L 3244 1197 
L 1141 1197 
L 716 0 
L 50 0 
L 1831 4666 
z
" transform="scale(0.015625)"/>
       <path id="DejaVuSans-76" d="M 191 3500 
L 800 3500 
L 1894 563 
L 2988 3500 
L 3597 3500 
L 2284 0 
L 1503 0 
L 191 3500 
z
" transform="scale(0.015625)"/>
       <path id="DejaVuSans-67" d="M 2906 1791 
Q 2906 2416 2648 2759 
Q 2391 3103 1925 3103 
Q 1463 3103 1205 2759 
Q 947 2416 947 1791 
Q 947 1169 1205 825 
Q 1463 481 1925 481 
Q 2391 481 2648 825 
Q 2906 1169 2906 1791 
z
M 3481 434 
Q 3481 -459 3084 -895 
Q 2688 -1331 1869 -1331 
Q 1566 -1331 1297 -1286 
Q 1028 -1241 775 -1147 
L 775 -588 
Q 1028 -725 1275 -790 
Q 1522 -856 1778 -856 
Q 2344 -856 2625 -561 
Q 2906 -266 2906 331 
L 2906 616 
Q 2728 306 2450 153 
Q 2172 0 1784 0 
Q 1141 0 747 490 
Q 353 981 353 1791 
Q 353 2603 747 3093 
Q 1141 3584 1784 3584 
Q 2172 3584 2450 3431 
Q 2728 3278 2906 2969 
L 2906 3500 
L 3481 3500 
L 3481 434 
z
" transform="scale(0.015625)"/>
       <path id="DejaVuSans-20" transform="scale(0.015625)"/>
       <path id="DejaVuSans-63" d="M 3122 3366 
L 3122 2828 
Q 2878 2963 2633 3030 
Q 2388 3097 2138 3097 
Q 1578 3097 1268 2742 
Q 959 2388 959 1747 
Q 959 1106 1268 751 
Q 1578 397 2138 397 
Q 2388 397 2633 464 
Q 2878 531 3122 666 
L 3122 134 
Q 2881 22 2623 -34 
Q 2366 -91 2075 -91 
Q 1284 -91 818 406 
Q 353 903 353 1747 
Q 353 2603 823 3093 
Q 1294 3584 2113 3584 
Q 2378 3584 2631 3529 
Q 2884 3475 3122 3366 
z
" transform="scale(0.015625)"/>
      </defs>
      <use xlink:href="#DejaVuSans-41"/>
      <use xlink:href="#DejaVuSans-76" x="62.533203"/>
      <use xlink:href="#DejaVuSans-67" x="121.712891"/>
      <use xlink:href="#DejaVuSans-20" x="185.189453"/>
      <use xlink:href="#DejaVuSans-61" x="216.976562"/>
      <use xlink:href="#DejaVuSans-63" x="278.255859"/>
      <use xlink:href="#DejaVuSans-74" x="333.236328"/>
      <use xlink:href="#DejaVuSans-69" x="372.445312"/>
      <use xlink:href="#DejaVuSans-6f" x="400.228516"/>
      <use xlink:href="#DejaVuSans-6e" x="461.410156"/>
     </g>
    </g>
   </g>
   <g id="line2d_13">
    <path d="M 66.091364 67.009137 
L 69.784568 56.827982 
L 73.477773 158.639531 
L 77.170978 87.371447 
L 80.864183 168.820686 
L 84.557388 138.277222 
L 88.250592 189.182996 
L 91.943797 148.458376 
L 95.637002 168.820686 
L 99.330207 138.277222 
L 103.023411 128.096067 
L 106.716616 148.458376 
L 110.409821 148.458376 
L 114.103026 158.639531 
L 117.79623 168.820686 
L 121.489435 138.277222 
L 125.18264 168.820686 
L 128.875845 179.001841 
L 132.56905 209.545306 
L 136.262254 199.364151 
L 139.955459 148.458376 
L 143.648664 168.820686 
L 147.341869 148.458376 
L 151.035073 158.639531 
L 154.728278 158.639531 
L 158.421483 168.820686 
L 162.114688 148.458376 
L 165.807893 179.001841 
L 169.501097 158.639531 
L 173.194302 189.182996 
L 176.887507 199.364151 
L 180.580712 189.182996 
L 184.273916 168.820686 
L 187.967121 117.914912 
" clip-path="url(#pbff8385ae2)" style="fill: none; stroke: #0000ff; stroke-linecap: square"/>
    <defs>
     <path id="m444be25bff" d="M -0.49999 0.49999 
L 0.50001 0.49999 
L 0.50001 -0.50001 
L -0.49999 -0.50001 
z
"/>
    </defs>
    <g clip-path="url(#pbff8385ae2)">
     <use xlink:href="#m444be25bff" x="66.091364" y="67.009137" style="fill: #0000ff"/>
     <use xlink:href="#m444be25bff" x="69.784568" y="56.827982" style="fill: #0000ff"/>
     <use xlink:href="#m444be25bff" x="73.477773" y="158.639531" style="fill: #0000ff"/>
     <use xlink:href="#m444be25bff" x="77.170978" y="87.371447" style="fill: #0000ff"/>
     <use xlink:href="#m444be25bff" x="80.864183" y="168.820686" style="fill: #0000ff"/>
     <use xlink:href="#m444be25bff" x="84.557388" y="138.277222" style="fill: #0000ff"/>
     <use xlink:href="#m444be25bff" x="88.250592" y="189.182996" style="fill: #0000ff"/>
     <use xlink:href="#m444be25bff" x="91.943797" y="148.458376" style="fill: #0000ff"/>
     <use xlink:href="#m444be25bff" x="95.637002" y="168.820686" style="fill: #0000ff"/>
     <use xlink:href="#m444be25bff" x="99.330207" y="138.277222" style="fill: #0000ff"/>
     <use xlink:href="#m444be25bff" x="103.023411" y="128.096067" style="fill: #0000ff"/>
     <use xlink:href="#m444be25bff" x="106.716616" y="148.458376" style="fill: #0000ff"/>
     <use xlink:href="#m444be25bff" x="110.409821" y="148.458376" style="fill: #0000ff"/>
     <use xlink:href="#m444be25bff" x="114.103026" y="158.639531" style="fill: #0000ff"/>
     <use xlink:href="#m444be25bff" x="117.79623" y="168.820686" style="fill: #0000ff"/>
     <use xlink:href="#m444be25bff" x="121.489435" y="138.277222" style="fill: #0000ff"/>
     <use xlink:href="#m444be25bff" x="125.18264" y="168.820686" style="fill: #0000ff"/>
     <use xlink:href="#m444be25bff" x="128.875845" y="179.001841" style="fill: #0000ff"/>
     <use xlink:href="#m444be25bff" x="132.56905" y="209.545306" style="fill: #0000ff"/>
     <use xlink:href="#m444be25bff" x="136.262254" y="199.364151" style="fill: #0000ff"/>
     <use xlink:href="#m444be25bff" x="139.955459" y="148.458376" style="fill: #0000ff"/>
     <use xlink:href="#m444be25bff" x="143.648664" y="168.820686" style="fill: #0000ff"/>
     <use xlink:href="#m444be25bff" x="147.341869" y="148.458376" style="fill: #0000ff"/>
     <use xlink:href="#m444be25bff" x="151.035073" y="158.639531" style="fill: #0000ff"/>
     <use xlink:href="#m444be25bff" x="154.728278" y="158.639531" style="fill: #0000ff"/>
     <use xlink:href="#m444be25bff" x="158.421483" y="168.820686" style="fill: #0000ff"/>
     <use xlink:href="#m444be25bff" x="162.114688" y="148.458376" style="fill: #0000ff"/>
     <use xlink:href="#m444be25bff" x="165.807893" y="179.001841" style="fill: #0000ff"/>
     <use xlink:href="#m444be25bff" x="169.501097" y="158.639531" style="fill: #0000ff"/>
     <use xlink:href="#m444be25bff" x="173.194302" y="189.182996" style="fill: #0000ff"/>
     <use xlink:href="#m444be25bff" x="176.887507" y="199.364151" style="fill: #0000ff"/>
     <use xlink:href="#m444be25bff" x="180.580712" y="189.182996" style="fill: #0000ff"/>
     <use xlink:href="#m444be25bff" x="184.273916" y="168.820686" style="fill: #0000ff"/>
     <use xlink:href="#m444be25bff" x="187.967121" y="117.914912" style="fill: #0000ff"/>
    </g>
   </g>
   <g id="line2d_14">
    <path d="M 66.091364 67.009137 
L 69.784568 61.91856 
L 73.477773 94.158884 
L 77.170978 92.462024 
L 80.864183 107.733757 
L 84.557388 112.824334 
L 88.250592 123.732715 
L 91.943797 126.823422 
L 95.637002 131.489785 
L 99.330207 132.168529 
L 103.023411 131.798305 
L 106.716616 133.186644 
L 110.409821 134.361393 
L 114.103026 136.095546 
L 117.79623 138.277222 
L 121.489435 138.277222 
L 125.18264 140.073896 
L 128.875845 142.23656 
L 132.56905 145.779125 
L 136.262254 148.458376 
L 139.955459 148.458376 
L 143.648664 149.383936 
L 147.341869 149.343694 
L 151.035073 149.731021 
L 154.728278 150.087361 
L 158.421483 150.807874 
L 162.114688 150.720855 
L 165.807893 151.730891 
L 169.501097 151.96912 
L 173.194302 153.209582 
L 176.887507 154.698439 
L 180.580712 155.776082 
L 184.273916 156.171373 
L 187.967121 155.046183 
" clip-path="url(#pbff8385ae2)" style="fill: none; stroke: #0000ff; stroke-opacity: 0.5; stroke-width: 0.5; stroke-linecap: square"/>
    <defs>
     <path id="m251f3454cf" d="M -0.49999 0.49999 
L 0.50001 0.49999 
L 0.50001 -0.50001 
L -0.49999 -0.50001 
z
"/>
    </defs>
    <g clip-path="url(#pbff8385ae2)">
     <use xlink:href="#m251f3454cf" x="66.091364" y="67.009137" style="fill: #0000ff; fill-opacity: 0.5"/>
     <use xlink:href="#m251f3454cf" x="69.784568" y="61.91856" style="fill: #0000ff; fill-opacity: 0.5"/>
     <use xlink:href="#m251f3454cf" x="73.477773" y="94.158884" style="fill: #0000ff; fill-opacity: 0.5"/>
     <use xlink:href="#m251f3454cf" x="77.170978" y="92.462024" style="fill: #0000ff; fill-opacity: 0.5"/>
     <use xlink:href="#m251f3454cf" x="80.864183" y="107.733757" style="fill: #0000ff; fill-opacity: 0.5"/>
     <use xlink:href="#m251f3454cf" x="84.557388" y="112.824334" style="fill: #0000ff; fill-opacity: 0.5"/>
     <use xlink:href="#m251f3454cf" x="88.250592" y="123.732715" style="fill: #0000ff; fill-opacity: 0.5"/>
     <use xlink:href="#m251f3454cf" x="91.943797" y="126.823422" style="fill: #0000ff; fill-opacity: 0.5"/>
     <use xlink:href="#m251f3454cf" x="95.637002" y="131.489785" style="fill: #0000ff; fill-opacity: 0.5"/>
     <use xlink:href="#m251f3454cf" x="99.330207" y="132.168529" style="fill: #0000ff; fill-opacity: 0.5"/>
     <use xlink:href="#m251f3454cf" x="103.023411" y="131.798305" style="fill: #0000ff; fill-opacity: 0.5"/>
     <use xlink:href="#m251f3454cf" x="106.716616" y="133.186644" style="fill: #0000ff; fill-opacity: 0.5"/>
     <use xlink:href="#m251f3454cf" x="110.409821" y="134.361393" style="fill: #0000ff; fill-opacity: 0.5"/>
     <use xlink:href="#m251f3454cf" x="114.103026" y="136.095546" style="fill: #0000ff; fill-opacity: 0.5"/>
     <use xlink:href="#m251f3454cf" x="117.79623" y="138.277222" style="fill: #0000ff; fill-opacity: 0.5"/>
     <use xlink:href="#m251f3454cf" x="121.489435" y="138.277222" style="fill: #0000ff; fill-opacity: 0.5"/>
     <use xlink:href="#m251f3454cf" x="125.18264" y="140.073896" style="fill: #0000ff; fill-opacity: 0.5"/>
     <use xlink:href="#m251f3454cf" x="128.875845" y="142.23656" style="fill: #0000ff; fill-opacity: 0.5"/>
     <use xlink:href="#m251f3454cf" x="132.56905" y="145.779125" style="fill: #0000ff; fill-opacity: 0.5"/>
     <use xlink:href="#m251f3454cf" x="136.262254" y="148.458376" style="fill: #0000ff; fill-opacity: 0.5"/>
     <use xlink:href="#m251f3454cf" x="139.955459" y="148.458376" style="fill: #0000ff; fill-opacity: 0.5"/>
     <use xlink:href="#m251f3454cf" x="143.648664" y="149.383936" style="fill: #0000ff; fill-opacity: 0.5"/>
     <use xlink:href="#m251f3454cf" x="147.341869" y="149.343694" style="fill: #0000ff; fill-opacity: 0.5"/>
     <use xlink:href="#m251f3454cf" x="151.035073" y="149.731021" style="fill: #0000ff; fill-opacity: 0.5"/>
     <use xlink:href="#m251f3454cf" x="154.728278" y="150.087361" style="fill: #0000ff; fill-opacity: 0.5"/>
     <use xlink:href="#m251f3454cf" x="158.421483" y="150.807874" style="fill: #0000ff; fill-opacity: 0.5"/>
     <use xlink:href="#m251f3454cf" x="162.114688" y="150.720855" style="fill: #0000ff; fill-opacity: 0.5"/>
     <use xlink:href="#m251f3454cf" x="165.807893" y="151.730891" style="fill: #0000ff; fill-opacity: 0.5"/>
     <use xlink:href="#m251f3454cf" x="169.501097" y="151.96912" style="fill: #0000ff; fill-opacity: 0.5"/>
     <use xlink:href="#m251f3454cf" x="173.194302" y="153.209582" style="fill: #0000ff; fill-opacity: 0.5"/>
     <use xlink:href="#m251f3454cf" x="176.887507" y="154.698439" style="fill: #0000ff; fill-opacity: 0.5"/>
     <use xlink:href="#m251f3454cf" x="180.580712" y="155.776082" style="fill: #0000ff; fill-opacity: 0.5"/>
     <use xlink:href="#m251f3454cf" x="184.273916" y="156.171373" style="fill: #0000ff; fill-opacity: 0.5"/>
     <use xlink:href="#m251f3454cf" x="187.967121" y="155.046183" style="fill: #0000ff; fill-opacity: 0.5"/>
    </g>
   </g>
   <g id="line2d_15">
    <path d="M 66.091364 138.277222 
L 69.784568 179.001841 
L 73.477773 158.639531 
L 77.170978 168.820686 
L 80.864183 199.364151 
L 84.557388 189.182996 
L 88.250592 189.182996 
L 91.943797 148.458376 
L 95.637002 179.001841 
L 99.330207 199.364151 
L 103.023411 138.277222 
L 106.716616 179.001841 
L 110.409821 179.001841 
L 114.103026 158.639531 
L 117.79623 260.451081 
L 121.489435 209.545306 
L 125.18264 189.182996 
L 128.875845 148.458376 
L 132.56905 240.088771 
L 136.262254 229.907616 
L 139.955459 179.001841 
L 143.648664 229.907616 
L 147.341869 158.639531 
L 151.035073 179.001841 
L 154.728278 229.907616 
L 158.421483 168.820686 
L 162.114688 199.364151 
L 165.807893 168.820686 
L 169.501097 189.182996 
L 173.194302 138.277222 
L 176.887507 179.001841 
L 180.580712 158.639531 
L 184.273916 168.820686 
L 187.967121 290.994545 
L 191.660326 209.545306 
L 195.353531 179.001841 
L 199.046736 229.907616 
L 202.73994 158.639531 
L 206.433145 148.458376 
L 210.12635 209.545306 
L 213.819555 179.001841 
L 217.512759 168.820686 
L 221.205964 219.726461 
L 224.899169 168.820686 
L 228.592374 219.726461 
L 232.285579 148.458376 
L 235.978783 158.639531 
L 239.671988 199.364151 
L 243.365193 189.182996 
L 247.058398 168.820686 
L 250.751602 179.001841 
L 254.444807 199.364151 
L 258.138012 148.458376 
L 261.831217 199.364151 
L 265.524421 290.994545 
L 269.217626 209.545306 
L 272.910831 199.364151 
L 276.604036 219.726461 
L 280.297241 199.364151 
L 283.990445 168.820686 
L 287.68365 179.001841 
L 291.376855 168.820686 
L 295.07006 189.182996 
L 298.763264 189.182996 
L 302.456469 189.182996 
L 306.149674 168.820686 
L 309.842879 158.639531 
L 313.536084 199.364151 
L 317.229288 168.820686 
L 320.922493 179.001841 
L 324.615698 189.182996 
L 328.308903 209.545306 
L 332.002107 209.545306 
L 335.695312 168.820686 
L 339.388517 229.907616 
L 343.081722 189.182996 
L 346.774927 240.088771 
L 350.468131 168.820686 
L 354.161336 168.820686 
L 357.854541 168.820686 
L 361.547746 138.277222 
L 365.24095 209.545306 
L 368.934155 158.639531 
L 372.62736 219.726461 
L 376.320565 229.907616 
L 380.01377 117.914912 
L 383.706974 179.001841 
L 387.400179 260.451081 
L 391.093384 199.364151 
L 394.786589 229.907616 
L 398.479793 250.269926 
L 402.172998 179.001841 
L 405.866203 168.820686 
L 409.559408 189.182996 
L 413.252612 199.364151 
L 416.945817 199.364151 
L 420.639022 138.277222 
L 424.332227 168.820686 
L 428.025432 148.458376 
L 431.718636 138.277222 
" clip-path="url(#pbff8385ae2)" style="fill: none; stroke: #ff0000; stroke-width: 0.5; stroke-linecap: square"/>
    <defs>
     <path id="mc08bc0e664" d="M -0.49999 0.49999 
L 0.50001 0.49999 
L 0.50001 -0.50001 
L -0.49999 -0.50001 
z
"/>
    </defs>
    <g clip-path="url(#pbff8385ae2)">
     <use xlink:href="#mc08bc0e664" x="66.091364" y="138.277222" style="fill: #ff0000"/>
     <use xlink:href="#mc08bc0e664" x="69.784568" y="179.001841" style="fill: #ff0000"/>
     <use xlink:href="#mc08bc0e664" x="73.477773" y="158.639531" style="fill: #ff0000"/>
     <use xlink:href="#mc08bc0e664" x="77.170978" y="168.820686" style="fill: #ff0000"/>
     <use xlink:href="#mc08bc0e664" x="80.864183" y="199.364151" style="fill: #ff0000"/>
     <use xlink:href="#mc08bc0e664" x="84.557388" y="189.182996" style="fill: #ff0000"/>
     <use xlink:href="#mc08bc0e664" x="88.250592" y="189.182996" style="fill: #ff0000"/>
     <use xlink:href="#mc08bc0e664" x="91.943797" y="148.458376" style="fill: #ff0000"/>
     <use xlink:href="#mc08bc0e664" x="95.637002" y="179.001841" style="fill: #ff0000"/>
     <use xlink:href="#mc08bc0e664" x="99.330207" y="199.364151" style="fill: #ff0000"/>
     <use xlink:href="#mc08bc0e664" x="103.023411" y="138.277222" style="fill: #ff0000"/>
     <use xlink:href="#mc08bc0e664" x="106.716616" y="179.001841" style="fill: #ff0000"/>
     <use xlink:href="#mc08bc0e664" x="110.409821" y="179.001841" style="fill: #ff0000"/>
     <use xlink:href="#mc08bc0e664" x="114.103026" y="158.639531" style="fill: #ff0000"/>
     <use xlink:href="#mc08bc0e664" x="117.79623" y="260.451081" style="fill: #ff0000"/>
     <use xlink:href="#mc08bc0e664" x="121.489435" y="209.545306" style="fill: #ff0000"/>
     <use xlink:href="#mc08bc0e664" x="125.18264" y="189.182996" style="fill: #ff0000"/>
     <use xlink:href="#mc08bc0e664" x="128.875845" y="148.458376" style="fill: #ff0000"/>
     <use xlink:href="#mc08bc0e664" x="132.56905" y="240.088771" style="fill: #ff0000"/>
     <use xlink:href="#mc08bc0e664" x="136.262254" y="229.907616" style="fill: #ff0000"/>
     <use xlink:href="#mc08bc0e664" x="139.955459" y="179.001841" style="fill: #ff0000"/>
     <use xlink:href="#mc08bc0e664" x="143.648664" y="229.907616" style="fill: #ff0000"/>
     <use xlink:href="#mc08bc0e664" x="147.341869" y="158.639531" style="fill: #ff0000"/>
     <use xlink:href="#mc08bc0e664" x="151.035073" y="179.001841" style="fill: #ff0000"/>
     <use xlink:href="#mc08bc0e664" x="154.728278" y="229.907616" style="fill: #ff0000"/>
     <use xlink:href="#mc08bc0e664" x="158.421483" y="168.820686" style="fill: #ff0000"/>
     <use xlink:href="#mc08bc0e664" x="162.114688" y="199.364151" style="fill: #ff0000"/>
     <use xlink:href="#mc08bc0e664" x="165.807893" y="168.820686" style="fill: #ff0000"/>
     <use xlink:href="#mc08bc0e664" x="169.501097" y="189.182996" style="fill: #ff0000"/>
     <use xlink:href="#mc08bc0e664" x="173.194302" y="138.277222" style="fill: #ff0000"/>
     <use xlink:href="#mc08bc0e664" x="176.887507" y="179.001841" style="fill: #ff0000"/>
     <use xlink:href="#mc08bc0e664" x="180.580712" y="158.639531" style="fill: #ff0000"/>
     <use xlink:href="#mc08bc0e664" x="184.273916" y="168.820686" style="fill: #ff0000"/>
     <use xlink:href="#mc08bc0e664" x="187.967121" y="290.994545" style="fill: #ff0000"/>
     <use xlink:href="#mc08bc0e664" x="191.660326" y="209.545306" style="fill: #ff0000"/>
     <use xlink:href="#mc08bc0e664" x="195.353531" y="179.001841" style="fill: #ff0000"/>
     <use xlink:href="#mc08bc0e664" x="199.046736" y="229.907616" style="fill: #ff0000"/>
     <use xlink:href="#mc08bc0e664" x="202.73994" y="158.639531" style="fill: #ff0000"/>
     <use xlink:href="#mc08bc0e664" x="206.433145" y="148.458376" style="fill: #ff0000"/>
     <use xlink:href="#mc08bc0e664" x="210.12635" y="209.545306" style="fill: #ff0000"/>
     <use xlink:href="#mc08bc0e664" x="213.819555" y="179.001841" style="fill: #ff0000"/>
     <use xlink:href="#mc08bc0e664" x="217.512759" y="168.820686" style="fill: #ff0000"/>
     <use xlink:href="#mc08bc0e664" x="221.205964" y="219.726461" style="fill: #ff0000"/>
     <use xlink:href="#mc08bc0e664" x="224.899169" y="168.820686" style="fill: #ff0000"/>
     <use xlink:href="#mc08bc0e664" x="228.592374" y="219.726461" style="fill: #ff0000"/>
     <use xlink:href="#mc08bc0e664" x="232.285579" y="148.458376" style="fill: #ff0000"/>
     <use xlink:href="#mc08bc0e664" x="235.978783" y="158.639531" style="fill: #ff0000"/>
     <use xlink:href="#mc08bc0e664" x="239.671988" y="199.364151" style="fill: #ff0000"/>
     <use xlink:href="#mc08bc0e664" x="243.365193" y="189.182996" style="fill: #ff0000"/>
     <use xlink:href="#mc08bc0e664" x="247.058398" y="168.820686" style="fill: #ff0000"/>
     <use xlink:href="#mc08bc0e664" x="250.751602" y="179.001841" style="fill: #ff0000"/>
     <use xlink:href="#mc08bc0e664" x="254.444807" y="199.364151" style="fill: #ff0000"/>
     <use xlink:href="#mc08bc0e664" x="258.138012" y="148.458376" style="fill: #ff0000"/>
     <use xlink:href="#mc08bc0e664" x="261.831217" y="199.364151" style="fill: #ff0000"/>
     <use xlink:href="#mc08bc0e664" x="265.524421" y="290.994545" style="fill: #ff0000"/>
     <use xlink:href="#mc08bc0e664" x="269.217626" y="209.545306" style="fill: #ff0000"/>
     <use xlink:href="#mc08bc0e664" x="272.910831" y="199.364151" style="fill: #ff0000"/>
     <use xlink:href="#mc08bc0e664" x="276.604036" y="219.726461" style="fill: #ff0000"/>
     <use xlink:href="#mc08bc0e664" x="280.297241" y="199.364151" style="fill: #ff0000"/>
     <use xlink:href="#mc08bc0e664" x="283.990445" y="168.820686" style="fill: #ff0000"/>
     <use xlink:href="#mc08bc0e664" x="287.68365" y="179.001841" style="fill: #ff0000"/>
     <use xlink:href="#mc08bc0e664" x="291.376855" y="168.820686" style="fill: #ff0000"/>
     <use xlink:href="#mc08bc0e664" x="295.07006" y="189.182996" style="fill: #ff0000"/>
     <use xlink:href="#mc08bc0e664" x="298.763264" y="189.182996" style="fill: #ff0000"/>
     <use xlink:href="#mc08bc0e664" x="302.456469" y="189.182996" style="fill: #ff0000"/>
     <use xlink:href="#mc08bc0e664" x="306.149674" y="168.820686" style="fill: #ff0000"/>
     <use xlink:href="#mc08bc0e664" x="309.842879" y="158.639531" style="fill: #ff0000"/>
     <use xlink:href="#mc08bc0e664" x="313.536084" y="199.364151" style="fill: #ff0000"/>
     <use xlink:href="#mc08bc0e664" x="317.229288" y="168.820686" style="fill: #ff0000"/>
     <use xlink:href="#mc08bc0e664" x="320.922493" y="179.001841" style="fill: #ff0000"/>
     <use xlink:href="#mc08bc0e664" x="324.615698" y="189.182996" style="fill: #ff0000"/>
     <use xlink:href="#mc08bc0e664" x="328.308903" y="209.545306" style="fill: #ff0000"/>
     <use xlink:href="#mc08bc0e664" x="332.002107" y="209.545306" style="fill: #ff0000"/>
     <use xlink:href="#mc08bc0e664" x="335.695312" y="168.820686" style="fill: #ff0000"/>
     <use xlink:href="#mc08bc0e664" x="339.388517" y="229.907616" style="fill: #ff0000"/>
     <use xlink:href="#mc08bc0e664" x="343.081722" y="189.182996" style="fill: #ff0000"/>
     <use xlink:href="#mc08bc0e664" x="346.774927" y="240.088771" style="fill: #ff0000"/>
     <use xlink:href="#mc08bc0e664" x="350.468131" y="168.820686" style="fill: #ff0000"/>
     <use xlink:href="#mc08bc0e664" x="354.161336" y="168.820686" style="fill: #ff0000"/>
     <use xlink:href="#mc08bc0e664" x="357.854541" y="168.820686" style="fill: #ff0000"/>
     <use xlink:href="#mc08bc0e664" x="361.547746" y="138.277222" style="fill: #ff0000"/>
     <use xlink:href="#mc08bc0e664" x="365.24095" y="209.545306" style="fill: #ff0000"/>
     <use xlink:href="#mc08bc0e664" x="368.934155" y="158.639531" style="fill: #ff0000"/>
     <use xlink:href="#mc08bc0e664" x="372.62736" y="219.726461" style="fill: #ff0000"/>
     <use xlink:href="#mc08bc0e664" x="376.320565" y="229.907616" style="fill: #ff0000"/>
     <use xlink:href="#mc08bc0e664" x="380.01377" y="117.914912" style="fill: #ff0000"/>
     <use xlink:href="#mc08bc0e664" x="383.706974" y="179.001841" style="fill: #ff0000"/>
     <use xlink:href="#mc08bc0e664" x="387.400179" y="260.451081" style="fill: #ff0000"/>
     <use xlink:href="#mc08bc0e664" x="391.093384" y="199.364151" style="fill: #ff0000"/>
     <use xlink:href="#mc08bc0e664" x="394.786589" y="229.907616" style="fill: #ff0000"/>
     <use xlink:href="#mc08bc0e664" x="398.479793" y="250.269926" style="fill: #ff0000"/>
     <use xlink:href="#mc08bc0e664" x="402.172998" y="179.001841" style="fill: #ff0000"/>
     <use xlink:href="#mc08bc0e664" x="405.866203" y="168.820686" style="fill: #ff0000"/>
     <use xlink:href="#mc08bc0e664" x="409.559408" y="189.182996" style="fill: #ff0000"/>
     <use xlink:href="#mc08bc0e664" x="413.252612" y="199.364151" style="fill: #ff0000"/>
     <use xlink:href="#mc08bc0e664" x="416.945817" y="199.364151" style="fill: #ff0000"/>
     <use xlink:href="#mc08bc0e664" x="420.639022" y="138.277222" style="fill: #ff0000"/>
     <use xlink:href="#mc08bc0e664" x="424.332227" y="168.820686" style="fill: #ff0000"/>
     <use xlink:href="#mc08bc0e664" x="428.025432" y="148.458376" style="fill: #ff0000"/>
     <use xlink:href="#mc08bc0e664" x="431.718636" y="138.277222" style="fill: #ff0000"/>
    </g>
   </g>
   <g id="line2d_16">
    <path d="M 66.091364 138.277222 
L 69.784568 158.639531 
L 73.477773 158.639531 
L 77.170978 161.18482 
L 80.864183 168.820686 
L 84.557388 172.214405 
L 88.250592 174.638489 
L 91.943797 171.365975 
L 95.637002 172.214405 
L 99.330207 174.929379 
L 103.023411 171.597365 
L 106.716616 172.214405 
L 110.409821 172.736515 
L 114.103026 171.729588 
L 117.79623 177.644354 
L 121.489435 179.638163 
L 125.18264 180.199624 
L 128.875845 178.436222 
L 132.56905 181.681093 
L 136.262254 184.092419 
L 139.955459 183.85001 
L 143.648664 185.943538 
L 147.341869 184.756407 
L 151.035073 184.516634 
L 154.728278 186.332273 
L 158.421483 185.65875 
L 162.114688 186.166358 
L 165.807893 185.546869 
L 169.501097 185.672253 
L 173.194302 184.092419 
L 176.887507 183.928207 
L 180.580712 183.137935 
L 184.273916 182.704079 
L 187.967121 185.889093 
L 191.660326 186.564985 
L 195.353531 186.354898 
L 199.046736 187.531998 
L 202.73994 186.77167 
L 206.433145 185.789278 
L 210.12635 186.383179 
L 213.819555 186.203146 
L 217.512759 185.789278 
L 221.205964 186.578515 
L 224.899169 186.174928 
L 228.592374 186.920517 
L 232.285579 186.084384 
L 235.978783 185.500451 
L 239.671988 185.789278 
L 243.365193 185.858537 
L 247.058398 185.51778 
L 250.751602 185.390017 
L 254.444807 185.65875 
L 258.138012 184.956856 
L 261.831217 185.223658 
L 265.524421 187.146765 
L 269.217626 187.546739 
L 272.910831 187.754062 
L 276.604036 188.30531 
L 280.297241 188.492748 
L 283.990445 188.164881 
L 287.68365 188.014667 
L 291.376855 187.705087 
L 295.07006 187.728545 
L 298.763264 187.751271 
L 302.456469 187.773298 
L 306.149674 187.486137 
L 309.842879 187.055591 
L 313.536084 187.236599 
L 317.229288 186.969702 
L 320.922493 186.855875 
L 324.615698 186.888651 
L 328.308903 187.203327 
L 332.002107 187.509382 
L 335.695312 187.256832 
L 339.388517 187.825509 
L 343.081722 187.843371 
L 346.774927 188.521882 
L 350.468131 188.269303 
L 354.161336 188.023118 
L 357.854541 187.783087 
L 361.547746 187.171904 
L 365.24095 187.44475 
L 368.934155 187.097699 
L 372.62736 187.486137 
L 376.320565 187.985213 
L 380.01377 187.170442 
L 383.706974 187.07655 
L 387.400179 187.910352 
L 391.093384 188.039046 
L 394.786589 188.504253 
L 398.479793 189.182996 
L 402.172998 189.072331 
L 405.866203 188.854572 
L 409.559408 188.858066 
L 413.252612 188.968656 
L 416.945817 189.076942 
L 420.639022 188.553234 
L 424.332227 188.351882 
L 428.025432 187.948917 
L 431.718636 187.4522 
" clip-path="url(#pbff8385ae2)" style="fill: none; stroke: #ff0000; stroke-opacity: 0.5; stroke-width: 0.25; stroke-linecap: square"/>
    <defs>
     <path id="m5d8d685aff" d="M -0.49999 0.49999 
L 0.50001 0.49999 
L 0.50001 -0.50001 
L -0.49999 -0.50001 
z
"/>
    </defs>
    <g clip-path="url(#pbff8385ae2)">
     <use xlink:href="#m5d8d685aff" x="66.091364" y="138.277222" style="fill: #ff0000; fill-opacity: 0.5"/>
     <use xlink:href="#m5d8d685aff" x="69.784568" y="158.639531" style="fill: #ff0000; fill-opacity: 0.5"/>
     <use xlink:href="#m5d8d685aff" x="73.477773" y="158.639531" style="fill: #ff0000; fill-opacity: 0.5"/>
     <use xlink:href="#m5d8d685aff" x="77.170978" y="161.18482" style="fill: #ff0000; fill-opacity: 0.5"/>
     <use xlink:href="#m5d8d685aff" x="80.864183" y="168.820686" style="fill: #ff0000; fill-opacity: 0.5"/>
     <use xlink:href="#m5d8d685aff" x="84.557388" y="172.214405" style="fill: #ff0000; fill-opacity: 0.5"/>
     <use xlink:href="#m5d8d685aff" x="88.250592" y="174.638489" style="fill: #ff0000; fill-opacity: 0.5"/>
     <use xlink:href="#m5d8d685aff" x="91.943797" y="171.365975" style="fill: #ff0000; fill-opacity: 0.5"/>
     <use xlink:href="#m5d8d685aff" x="95.637002" y="172.214405" style="fill: #ff0000; fill-opacity: 0.5"/>
     <use xlink:href="#m5d8d685aff" x="99.330207" y="174.929379" style="fill: #ff0000; fill-opacity: 0.5"/>
     <use xlink:href="#m5d8d685aff" x="103.023411" y="171.597365" style="fill: #ff0000; fill-opacity: 0.5"/>
     <use xlink:href="#m5d8d685aff" x="106.716616" y="172.214405" style="fill: #ff0000; fill-opacity: 0.5"/>
     <use xlink:href="#m5d8d685aff" x="110.409821" y="172.736515" style="fill: #ff0000; fill-opacity: 0.5"/>
     <use xlink:href="#m5d8d685aff" x="114.103026" y="171.729588" style="fill: #ff0000; fill-opacity: 0.5"/>
     <use xlink:href="#m5d8d685aff" x="117.79623" y="177.644354" style="fill: #ff0000; fill-opacity: 0.5"/>
     <use xlink:href="#m5d8d685aff" x="121.489435" y="179.638163" style="fill: #ff0000; fill-opacity: 0.5"/>
     <use xlink:href="#m5d8d685aff" x="125.18264" y="180.199624" style="fill: #ff0000; fill-opacity: 0.5"/>
     <use xlink:href="#m5d8d685aff" x="128.875845" y="178.436222" style="fill: #ff0000; fill-opacity: 0.5"/>
     <use xlink:href="#m5d8d685aff" x="132.56905" y="181.681093" style="fill: #ff0000; fill-opacity: 0.5"/>
     <use xlink:href="#m5d8d685aff" x="136.262254" y="184.092419" style="fill: #ff0000; fill-opacity: 0.5"/>
     <use xlink:href="#m5d8d685aff" x="139.955459" y="183.85001" style="fill: #ff0000; fill-opacity: 0.5"/>
     <use xlink:href="#m5d8d685aff" x="143.648664" y="185.943538" style="fill: #ff0000; fill-opacity: 0.5"/>
     <use xlink:href="#m5d8d685aff" x="147.341869" y="184.756407" style="fill: #ff0000; fill-opacity: 0.5"/>
     <use xlink:href="#m5d8d685aff" x="151.035073" y="184.516634" style="fill: #ff0000; fill-opacity: 0.5"/>
     <use xlink:href="#m5d8d685aff" x="154.728278" y="186.332273" style="fill: #ff0000; fill-opacity: 0.5"/>
     <use xlink:href="#m5d8d685aff" x="158.421483" y="185.65875" style="fill: #ff0000; fill-opacity: 0.5"/>
     <use xlink:href="#m5d8d685aff" x="162.114688" y="186.166358" style="fill: #ff0000; fill-opacity: 0.5"/>
     <use xlink:href="#m5d8d685aff" x="165.807893" y="185.546869" style="fill: #ff0000; fill-opacity: 0.5"/>
     <use xlink:href="#m5d8d685aff" x="169.501097" y="185.672253" style="fill: #ff0000; fill-opacity: 0.5"/>
     <use xlink:href="#m5d8d685aff" x="173.194302" y="184.092419" style="fill: #ff0000; fill-opacity: 0.5"/>
     <use xlink:href="#m5d8d685aff" x="176.887507" y="183.928207" style="fill: #ff0000; fill-opacity: 0.5"/>
     <use xlink:href="#m5d8d685aff" x="180.580712" y="183.137935" style="fill: #ff0000; fill-opacity: 0.5"/>
     <use xlink:href="#m5d8d685aff" x="184.273916" y="182.704079" style="fill: #ff0000; fill-opacity: 0.5"/>
     <use xlink:href="#m5d8d685aff" x="187.967121" y="185.889093" style="fill: #ff0000; fill-opacity: 0.5"/>
     <use xlink:href="#m5d8d685aff" x="191.660326" y="186.564985" style="fill: #ff0000; fill-opacity: 0.5"/>
     <use xlink:href="#m5d8d685aff" x="195.353531" y="186.354898" style="fill: #ff0000; fill-opacity: 0.5"/>
     <use xlink:href="#m5d8d685aff" x="199.046736" y="187.531998" style="fill: #ff0000; fill-opacity: 0.5"/>
     <use xlink:href="#m5d8d685aff" x="202.73994" y="186.77167" style="fill: #ff0000; fill-opacity: 0.5"/>
     <use xlink:href="#m5d8d685aff" x="206.433145" y="185.789278" style="fill: #ff0000; fill-opacity: 0.5"/>
     <use xlink:href="#m5d8d685aff" x="210.12635" y="186.383179" style="fill: #ff0000; fill-opacity: 0.5"/>
     <use xlink:href="#m5d8d685aff" x="213.819555" y="186.203146" style="fill: #ff0000; fill-opacity: 0.5"/>
     <use xlink:href="#m5d8d685aff" x="217.512759" y="185.789278" style="fill: #ff0000; fill-opacity: 0.5"/>
     <use xlink:href="#m5d8d685aff" x="221.205964" y="186.578515" style="fill: #ff0000; fill-opacity: 0.5"/>
     <use xlink:href="#m5d8d685aff" x="224.899169" y="186.174928" style="fill: #ff0000; fill-opacity: 0.5"/>
     <use xlink:href="#m5d8d685aff" x="228.592374" y="186.920517" style="fill: #ff0000; fill-opacity: 0.5"/>
     <use xlink:href="#m5d8d685aff" x="232.285579" y="186.084384" style="fill: #ff0000; fill-opacity: 0.5"/>
     <use xlink:href="#m5d8d685aff" x="235.978783" y="185.500451" style="fill: #ff0000; fill-opacity: 0.5"/>
     <use xlink:href="#m5d8d685aff" x="239.671988" y="185.789278" style="fill: #ff0000; fill-opacity: 0.5"/>
     <use xlink:href="#m5d8d685aff" x="243.365193" y="185.858537" style="fill: #ff0000; fill-opacity: 0.5"/>
     <use xlink:href="#m5d8d685aff" x="247.058398" y="185.51778" style="fill: #ff0000; fill-opacity: 0.5"/>
     <use xlink:href="#m5d8d685aff" x="250.751602" y="185.390017" style="fill: #ff0000; fill-opacity: 0.5"/>
     <use xlink:href="#m5d8d685aff" x="254.444807" y="185.65875" style="fill: #ff0000; fill-opacity: 0.5"/>
     <use xlink:href="#m5d8d685aff" x="258.138012" y="184.956856" style="fill: #ff0000; fill-opacity: 0.5"/>
     <use xlink:href="#m5d8d685aff" x="261.831217" y="185.223658" style="fill: #ff0000; fill-opacity: 0.5"/>
     <use xlink:href="#m5d8d685aff" x="265.524421" y="187.146765" style="fill: #ff0000; fill-opacity: 0.5"/>
     <use xlink:href="#m5d8d685aff" x="269.217626" y="187.546739" style="fill: #ff0000; fill-opacity: 0.5"/>
     <use xlink:href="#m5d8d685aff" x="272.910831" y="187.754062" style="fill: #ff0000; fill-opacity: 0.5"/>
     <use xlink:href="#m5d8d685aff" x="276.604036" y="188.30531" style="fill: #ff0000; fill-opacity: 0.5"/>
     <use xlink:href="#m5d8d685aff" x="280.297241" y="188.492748" style="fill: #ff0000; fill-opacity: 0.5"/>
     <use xlink:href="#m5d8d685aff" x="283.990445" y="188.164881" style="fill: #ff0000; fill-opacity: 0.5"/>
     <use xlink:href="#m5d8d685aff" x="287.68365" y="188.014667" style="fill: #ff0000; fill-opacity: 0.5"/>
     <use xlink:href="#m5d8d685aff" x="291.376855" y="187.705087" style="fill: #ff0000; fill-opacity: 0.5"/>
     <use xlink:href="#m5d8d685aff" x="295.07006" y="187.728545" style="fill: #ff0000; fill-opacity: 0.5"/>
     <use xlink:href="#m5d8d685aff" x="298.763264" y="187.751271" style="fill: #ff0000; fill-opacity: 0.5"/>
     <use xlink:href="#m5d8d685aff" x="302.456469" y="187.773298" style="fill: #ff0000; fill-opacity: 0.5"/>
     <use xlink:href="#m5d8d685aff" x="306.149674" y="187.486137" style="fill: #ff0000; fill-opacity: 0.5"/>
     <use xlink:href="#m5d8d685aff" x="309.842879" y="187.055591" style="fill: #ff0000; fill-opacity: 0.5"/>
     <use xlink:href="#m5d8d685aff" x="313.536084" y="187.236599" style="fill: #ff0000; fill-opacity: 0.5"/>
     <use xlink:href="#m5d8d685aff" x="317.229288" y="186.969702" style="fill: #ff0000; fill-opacity: 0.5"/>
     <use xlink:href="#m5d8d685aff" x="320.922493" y="186.855875" style="fill: #ff0000; fill-opacity: 0.5"/>
     <use xlink:href="#m5d8d685aff" x="324.615698" y="186.888651" style="fill: #ff0000; fill-opacity: 0.5"/>
     <use xlink:href="#m5d8d685aff" x="328.308903" y="187.203327" style="fill: #ff0000; fill-opacity: 0.5"/>
     <use xlink:href="#m5d8d685aff" x="332.002107" y="187.509382" style="fill: #ff0000; fill-opacity: 0.5"/>
     <use xlink:href="#m5d8d685aff" x="335.695312" y="187.256832" style="fill: #ff0000; fill-opacity: 0.5"/>
     <use xlink:href="#m5d8d685aff" x="339.388517" y="187.825509" style="fill: #ff0000; fill-opacity: 0.5"/>
     <use xlink:href="#m5d8d685aff" x="343.081722" y="187.843371" style="fill: #ff0000; fill-opacity: 0.5"/>
     <use xlink:href="#m5d8d685aff" x="346.774927" y="188.521882" style="fill: #ff0000; fill-opacity: 0.5"/>
     <use xlink:href="#m5d8d685aff" x="350.468131" y="188.269303" style="fill: #ff0000; fill-opacity: 0.5"/>
     <use xlink:href="#m5d8d685aff" x="354.161336" y="188.023118" style="fill: #ff0000; fill-opacity: 0.5"/>
     <use xlink:href="#m5d8d685aff" x="357.854541" y="187.783087" style="fill: #ff0000; fill-opacity: 0.5"/>
     <use xlink:href="#m5d8d685aff" x="361.547746" y="187.171904" style="fill: #ff0000; fill-opacity: 0.5"/>
     <use xlink:href="#m5d8d685aff" x="365.24095" y="187.44475" style="fill: #ff0000; fill-opacity: 0.5"/>
     <use xlink:href="#m5d8d685aff" x="368.934155" y="187.097699" style="fill: #ff0000; fill-opacity: 0.5"/>
     <use xlink:href="#m5d8d685aff" x="372.62736" y="187.486137" style="fill: #ff0000; fill-opacity: 0.5"/>
     <use xlink:href="#m5d8d685aff" x="376.320565" y="187.985213" style="fill: #ff0000; fill-opacity: 0.5"/>
     <use xlink:href="#m5d8d685aff" x="380.01377" y="187.170442" style="fill: #ff0000; fill-opacity: 0.5"/>
     <use xlink:href="#m5d8d685aff" x="383.706974" y="187.07655" style="fill: #ff0000; fill-opacity: 0.5"/>
     <use xlink:href="#m5d8d685aff" x="387.400179" y="187.910352" style="fill: #ff0000; fill-opacity: 0.5"/>
     <use xlink:href="#m5d8d685aff" x="391.093384" y="188.039046" style="fill: #ff0000; fill-opacity: 0.5"/>
     <use xlink:href="#m5d8d685aff" x="394.786589" y="188.504253" style="fill: #ff0000; fill-opacity: 0.5"/>
     <use xlink:href="#m5d8d685aff" x="398.479793" y="189.182996" style="fill: #ff0000; fill-opacity: 0.5"/>
     <use xlink:href="#m5d8d685aff" x="402.172998" y="189.072331" style="fill: #ff0000; fill-opacity: 0.5"/>
     <use xlink:href="#m5d8d685aff" x="405.866203" y="188.854572" style="fill: #ff0000; fill-opacity: 0.5"/>
     <use xlink:href="#m5d8d685aff" x="409.559408" y="188.858066" style="fill: #ff0000; fill-opacity: 0.5"/>
     <use xlink:href="#m5d8d685aff" x="413.252612" y="188.968656" style="fill: #ff0000; fill-opacity: 0.5"/>
     <use xlink:href="#m5d8d685aff" x="416.945817" y="189.076942" style="fill: #ff0000; fill-opacity: 0.5"/>
     <use xlink:href="#m5d8d685aff" x="420.639022" y="188.553234" style="fill: #ff0000; fill-opacity: 0.5"/>
     <use xlink:href="#m5d8d685aff" x="424.332227" y="188.351882" style="fill: #ff0000; fill-opacity: 0.5"/>
     <use xlink:href="#m5d8d685aff" x="428.025432" y="187.948917" style="fill: #ff0000; fill-opacity: 0.5"/>
     <use xlink:href="#m5d8d685aff" x="431.718636" y="187.4522" style="fill: #ff0000; fill-opacity: 0.5"/>
    </g>
   </g>
   <g id="patch_3">
    <path d="M 47.81 303.64 
L 47.81 25.44 
" style="fill: none; stroke: #000000; stroke-width: 0.8; stroke-linejoin: miter; stroke-linecap: square"/>
   </g>
   <g id="patch_4">
    <path d="M 450 303.64 
L 450 25.44 
" style="fill: none; stroke: #000000; stroke-width: 0.8; stroke-linejoin: miter; stroke-linecap: square"/>
   </g>
   <g id="patch_5">
    <path d="M 47.81 303.64 
L 450 303.64 
" style="fill: none; stroke: #000000; stroke-width: 0.8; stroke-linejoin: miter; stroke-linecap: square"/>
   </g>
   <g id="patch_6">
    <path d="M 47.81 25.44 
L 450 25.44 
" style="fill: none; stroke: #000000; stroke-width: 0.8; stroke-linejoin: miter; stroke-linecap: square"/>
   </g>
   <g id="text_15">
    <!-- Average action - 28173931-29014202 - 50 games [0-33] -->
    <g transform="translate(78.792812 19.44) scale(0.12 -0.12)">
     <defs>
      <path id="DejaVuSans-2d" d="M 313 2009 
L 1997 2009 
L 1997 1497 
L 313 1497 
L 313 2009 
z
" transform="scale(0.015625)"/>
      <path id="DejaVuSans-39" d="M 703 97 
L 703 672 
Q 941 559 1184 500 
Q 1428 441 1663 441 
Q 2288 441 2617 861 
Q 2947 1281 2994 2138 
Q 2813 1869 2534 1725 
Q 2256 1581 1919 1581 
Q 1219 1581 811 2004 
Q 403 2428 403 3163 
Q 403 3881 828 4315 
Q 1253 4750 1959 4750 
Q 2769 4750 3195 4129 
Q 3622 3509 3622 2328 
Q 3622 1225 3098 567 
Q 2575 -91 1691 -91 
Q 1453 -91 1209 -44 
Q 966 3 703 97 
z
M 1959 2075 
Q 2384 2075 2632 2365 
Q 2881 2656 2881 3163 
Q 2881 3666 2632 3958 
Q 2384 4250 1959 4250 
Q 1534 4250 1286 3958 
Q 1038 3666 1038 3163 
Q 1038 2656 1286 2365 
Q 1534 2075 1959 2075 
z
" transform="scale(0.015625)"/>
      <path id="DejaVuSans-6d" d="M 3328 2828 
Q 3544 3216 3844 3400 
Q 4144 3584 4550 3584 
Q 5097 3584 5394 3201 
Q 5691 2819 5691 2113 
L 5691 0 
L 5113 0 
L 5113 2094 
Q 5113 2597 4934 2840 
Q 4756 3084 4391 3084 
Q 3944 3084 3684 2787 
Q 3425 2491 3425 1978 
L 3425 0 
L 2847 0 
L 2847 2094 
Q 2847 2600 2669 2842 
Q 2491 3084 2119 3084 
Q 1678 3084 1418 2786 
Q 1159 2488 1159 1978 
L 1159 0 
L 581 0 
L 581 3500 
L 1159 3500 
L 1159 2956 
Q 1356 3278 1631 3431 
Q 1906 3584 2284 3584 
Q 2666 3584 2933 3390 
Q 3200 3197 3328 2828 
z
" transform="scale(0.015625)"/>
      <path id="DejaVuSans-73" d="M 2834 3397 
L 2834 2853 
Q 2591 2978 2328 3040 
Q 2066 3103 1784 3103 
Q 1356 3103 1142 2972 
Q 928 2841 928 2578 
Q 928 2378 1081 2264 
Q 1234 2150 1697 2047 
L 1894 2003 
Q 2506 1872 2764 1633 
Q 3022 1394 3022 966 
Q 3022 478 2636 193 
Q 2250 -91 1575 -91 
Q 1294 -91 989 -36 
Q 684 19 347 128 
L 347 722 
Q 666 556 975 473 
Q 1284 391 1588 391 
Q 1994 391 2212 530 
Q 2431 669 2431 922 
Q 2431 1156 2273 1281 
Q 2116 1406 1581 1522 
L 1381 1569 
Q 847 1681 609 1914 
Q 372 2147 372 2553 
Q 372 3047 722 3315 
Q 1072 3584 1716 3584 
Q 2034 3584 2315 3537 
Q 2597 3491 2834 3397 
z
" transform="scale(0.015625)"/>
      <path id="DejaVuSans-5b" d="M 550 4863 
L 1875 4863 
L 1875 4416 
L 1125 4416 
L 1125 -397 
L 1875 -397 
L 1875 -844 
L 550 -844 
L 550 4863 
z
" transform="scale(0.015625)"/>
      <path id="DejaVuSans-5d" d="M 1947 4863 
L 1947 -844 
L 622 -844 
L 622 -397 
L 1369 -397 
L 1369 4416 
L 622 4416 
L 622 4863 
L 1947 4863 
z
" transform="scale(0.015625)"/>
     </defs>
     <use xlink:href="#DejaVuSans-41"/>
     <use xlink:href="#DejaVuSans-76" x="62.533203"/>
     <use xlink:href="#DejaVuSans-65" x="121.712891"/>
     <use xlink:href="#DejaVuSans-72" x="183.236328"/>
     <use xlink:href="#DejaVuSans-61" x="224.349609"/>
     <use xlink:href="#DejaVuSans-67" x="285.628906"/>
     <use xlink:href="#DejaVuSans-65" x="349.105469"/>
     <use xlink:href="#DejaVuSans-20" x="410.628906"/>
     <use xlink:href="#DejaVuSans-61" x="442.416016"/>
     <use xlink:href="#DejaVuSans-63" x="503.695312"/>
     <use xlink:href="#DejaVuSans-74" x="558.675781"/>
     <use xlink:href="#DejaVuSans-69" x="597.884766"/>
     <use xlink:href="#DejaVuSans-6f" x="625.667969"/>
     <use xlink:href="#DejaVuSans-6e" x="686.849609"/>
     <use xlink:href="#DejaVuSans-20" x="750.228516"/>
     <use xlink:href="#DejaVuSans-2d" x="782.015625"/>
     <use xlink:href="#DejaVuSans-20" x="818.099609"/>
     <use xlink:href="#DejaVuSans-32" x="849.886719"/>
     <use xlink:href="#DejaVuSans-38" x="913.509766"/>
     <use xlink:href="#DejaVuSans-31" x="977.132812"/>
     <use xlink:href="#DejaVuSans-37" x="1040.755859"/>
     <use xlink:href="#DejaVuSans-33" x="1104.378906"/>
     <use xlink:href="#DejaVuSans-39" x="1168.001953"/>
     <use xlink:href="#DejaVuSans-33" x="1231.625"/>
     <use xlink:href="#DejaVuSans-31" x="1295.248047"/>
     <use xlink:href="#DejaVuSans-2d" x="1358.871094"/>
     <use xlink:href="#DejaVuSans-32" x="1394.955078"/>
     <use xlink:href="#DejaVuSans-39" x="1458.578125"/>
     <use xlink:href="#DejaVuSans-30" x="1522.201172"/>
     <use xlink:href="#DejaVuSans-31" x="1585.824219"/>
     <use xlink:href="#DejaVuSans-34" x="1649.447266"/>
     <use xlink:href="#DejaVuSans-32" x="1713.070312"/>
     <use xlink:href="#DejaVuSans-30" x="1776.693359"/>
     <use xlink:href="#DejaVuSans-32" x="1840.316406"/>
     <use xlink:href="#DejaVuSans-20" x="1903.939453"/>
     <use xlink:href="#DejaVuSans-2d" x="1935.726562"/>
     <use xlink:href="#DejaVuSans-20" x="1971.810547"/>
     <use xlink:href="#DejaVuSans-35" x="2003.597656"/>
     <use xlink:href="#DejaVuSans-30" x="2067.220703"/>
     <use xlink:href="#DejaVuSans-20" x="2130.84375"/>
     <use xlink:href="#DejaVuSans-67" x="2162.630859"/>
     <use xlink:href="#DejaVuSans-61" x="2226.107422"/>
     <use xlink:href="#DejaVuSans-6d" x="2287.386719"/>
     <use xlink:href="#DejaVuSans-65" x="2384.798828"/>
     <use xlink:href="#DejaVuSans-73" x="2446.322266"/>
     <use xlink:href="#DejaVuSans-20" x="2498.421875"/>
     <use xlink:href="#DejaVuSans-5b" x="2530.208984"/>
     <use xlink:href="#DejaVuSans-30" x="2569.222656"/>
     <use xlink:href="#DejaVuSans-2d" x="2632.845703"/>
     <use xlink:href="#DejaVuSans-33" x="2668.929688"/>
     <use xlink:href="#DejaVuSans-33" x="2732.552734"/>
     <use xlink:href="#DejaVuSans-5d" x="2796.175781"/>
    </g>
   </g>
   <g id="legend_1">
    <g id="patch_7">
     <path d="M 357.332812 92.1525 
L 443 92.1525 
Q 445 92.1525 445 90.1525 
L 445 32.44 
Q 445 30.44 443 30.44 
L 357.332812 30.44 
Q 355.332812 30.44 355.332812 32.44 
L 355.332812 90.1525 
Q 355.332812 92.1525 357.332812 92.1525 
z
" style="fill: #ffffff; opacity: 0.8; stroke: #cccccc; stroke-linejoin: miter"/>
    </g>
    <g id="line2d_17">
     <path d="M 359.332812 38.538438 
L 369.332812 38.538438 
L 379.332812 38.538438 
" style="fill: none; stroke: #0000ff; stroke-linecap: square"/>
     <g>
      <use xlink:href="#m444be25bff" x="369.332812" y="38.538438" style="fill: #0000ff"/>
     </g>
    </g>
    <g id="text_16">
     <!-- LLM -->
     <g transform="translate(387.332812 42.038438) scale(0.1 -0.1)">
      <defs>
       <path id="DejaVuSans-4c" d="M 628 4666 
L 1259 4666 
L 1259 531 
L 3531 531 
L 3531 0 
L 628 0 
L 628 4666 
z
" transform="scale(0.015625)"/>
       <path id="DejaVuSans-4d" d="M 628 4666 
L 1569 4666 
L 2759 1491 
L 3956 4666 
L 4897 4666 
L 4897 0 
L 4281 0 
L 4281 4097 
L 3078 897 
L 2444 897 
L 1241 4097 
L 1241 0 
L 628 0 
L 628 4666 
z
" transform="scale(0.015625)"/>
      </defs>
      <use xlink:href="#DejaVuSans-4c"/>
      <use xlink:href="#DejaVuSans-4c" x="55.712891"/>
      <use xlink:href="#DejaVuSans-4d" x="111.425781"/>
     </g>
    </g>
    <g id="line2d_18">
     <path d="M 359.332812 53.216563 
L 369.332812 53.216563 
L 379.332812 53.216563 
" style="fill: none; stroke: #0000ff; stroke-opacity: 0.5; stroke-width: 0.5; stroke-linecap: square"/>
     <g>
      <use xlink:href="#m251f3454cf" x="369.332812" y="53.216563" style="fill: #0000ff; fill-opacity: 0.5"/>
     </g>
    </g>
    <g id="text_17">
     <!-- LLM mean -->
     <g transform="translate(387.332812 56.716563) scale(0.1 -0.1)">
      <use xlink:href="#DejaVuSans-4c"/>
      <use xlink:href="#DejaVuSans-4c" x="55.712891"/>
      <use xlink:href="#DejaVuSans-4d" x="111.425781"/>
      <use xlink:href="#DejaVuSans-20" x="197.705078"/>
      <use xlink:href="#DejaVuSans-6d" x="229.492188"/>
      <use xlink:href="#DejaVuSans-65" x="326.904297"/>
      <use xlink:href="#DejaVuSans-61" x="388.427734"/>
      <use xlink:href="#DejaVuSans-6e" x="449.707031"/>
     </g>
    </g>
    <g id="line2d_19">
     <path d="M 359.332812 67.894688 
L 369.332812 67.894688 
L 379.332812 67.894688 
" style="fill: none; stroke: #ff0000; stroke-width: 0.5; stroke-linecap: square"/>
     <g>
      <use xlink:href="#mc08bc0e664" x="369.332812" y="67.894688" style="fill: #ff0000"/>
     </g>
    </g>
    <g id="text_18">
     <!-- RND -->
     <g transform="translate(387.332812 71.394688) scale(0.1 -0.1)">
      <defs>
       <path id="DejaVuSans-52" d="M 2841 2188 
Q 3044 2119 3236 1894 
Q 3428 1669 3622 1275 
L 4263 0 
L 3584 0 
L 2988 1197 
Q 2756 1666 2539 1819 
Q 2322 1972 1947 1972 
L 1259 1972 
L 1259 0 
L 628 0 
L 628 4666 
L 2053 4666 
Q 2853 4666 3247 4331 
Q 3641 3997 3641 3322 
Q 3641 2881 3436 2590 
Q 3231 2300 2841 2188 
z
M 1259 4147 
L 1259 2491 
L 2053 2491 
Q 2509 2491 2742 2702 
Q 2975 2913 2975 3322 
Q 2975 3731 2742 3939 
Q 2509 4147 2053 4147 
L 1259 4147 
z
" transform="scale(0.015625)"/>
       <path id="DejaVuSans-4e" d="M 628 4666 
L 1478 4666 
L 3547 763 
L 3547 4666 
L 4159 4666 
L 4159 0 
L 3309 0 
L 1241 3903 
L 1241 0 
L 628 0 
L 628 4666 
z
" transform="scale(0.015625)"/>
       <path id="DejaVuSans-44" d="M 1259 4147 
L 1259 519 
L 2022 519 
Q 2988 519 3436 956 
Q 3884 1394 3884 2338 
Q 3884 3275 3436 3711 
Q 2988 4147 2022 4147 
L 1259 4147 
z
M 628 4666 
L 1925 4666 
Q 3281 4666 3915 4102 
Q 4550 3538 4550 2338 
Q 4550 1131 3912 565 
Q 3275 0 1925 0 
L 628 0 
L 628 4666 
z
" transform="scale(0.015625)"/>
      </defs>
      <use xlink:href="#DejaVuSans-52"/>
      <use xlink:href="#DejaVuSans-4e" x="69.482422"/>
      <use xlink:href="#DejaVuSans-44" x="144.287109"/>
     </g>
    </g>
    <g id="line2d_20">
     <path d="M 359.332812 82.572813 
L 369.332812 82.572813 
L 379.332812 82.572813 
" style="fill: none; stroke: #ff0000; stroke-opacity: 0.5; stroke-width: 0.25; stroke-linecap: square"/>
     <g>
      <use xlink:href="#m5d8d685aff" x="369.332812" y="82.572813" style="fill: #ff0000; fill-opacity: 0.5"/>
     </g>
    </g>
    <g id="text_19">
     <!-- RND mean -->
     <g transform="translate(387.332812 86.072813) scale(0.1 -0.1)">
      <use xlink:href="#DejaVuSans-52"/>
      <use xlink:href="#DejaVuSans-4e" x="69.482422"/>
      <use xlink:href="#DejaVuSans-44" x="144.287109"/>
      <use xlink:href="#DejaVuSans-20" x="221.289062"/>
      <use xlink:href="#DejaVuSans-6d" x="253.076172"/>
      <use xlink:href="#DejaVuSans-65" x="350.488281"/>
      <use xlink:href="#DejaVuSans-61" x="412.011719"/>
      <use xlink:href="#DejaVuSans-6e" x="473.291016"/>
     </g>
    </g>
   </g>
  </g>
 </g>
 <defs>
  <clipPath id="pbff8385ae2">
   <rect x="47.81" y="25.44" width="402.19" height="278.2"/>
  </clipPath>
 </defs>
</svg>
