<?xml version="1.0" encoding="utf-8" standalone="no"?>
<!DOCTYPE svg PUBLIC "-//W3C//DTD SVG 1.1//EN"
  "http://www.w3.org/Graphics/SVG/1.1/DTD/svg11.dtd">
<svg xmlns:xlink="http://www.w3.org/1999/xlink" width="460.8pt" height="345.6pt" viewBox="0 0 460.8 345.6" xmlns="http://www.w3.org/2000/svg" version="1.1">
 <metadata>
  <rdf:RDF xmlns:dc="http://purl.org/dc/elements/1.1/" xmlns:cc="http://creativecommons.org/ns#" xmlns:rdf="http://www.w3.org/1999/02/22-rdf-syntax-ns#">
   <cc:Work>
    <dc:type rdf:resource="http://purl.org/dc/dcmitype/StillImage"/>
    <dc:date>2024-04-15T10:04:51.339604</dc:date>
    <dc:format>image/svg+xml</dc:format>
    <dc:creator>
     <cc:Agent>
      <dc:title>Matplotlib v3.8.0, https://matplotlib.org/</dc:title>
     </cc:Agent>
    </dc:creator>
   </cc:Work>
  </rdf:RDF>
 </metadata>
 <defs>
  <style type="text/css">*{stroke-linejoin: round; stroke-linecap: butt}</style>
 </defs>
 <g id="figure_1">
  <g id="patch_1">
   <path d="M 0 345.6 
L 460.8 345.6 
L 460.8 0 
L 0 0 
z
" style="fill: #ffffff"/>
  </g>
  <g id="axes_1">
   <g id="patch_2">
    <path d="M 56.18 303.64 
L 450 303.64 
L 450 25.44 
L 56.18 25.44 
z
" style="fill: #ffffff"/>
   </g>
   <g id="PolyCollection_1">
    <defs>
     <path id="mf22fcde539" d="M 74.080909 -277.906182 
L 74.080909 -277.906182 
L 77.697254 -307.514545 
L 81.3136 -265.053566 
L 84.929945 -238.030698 
L 88.54629 -219.580561 
L 92.162635 -205.665968 
L 95.778981 -194.853741 
L 99.395326 -186.409698 
L 103.011671 -179.528292 
L 106.628017 -173.796816 
L 110.244362 -168.757806 
L 113.860707 -164.409452 
L 117.477052 -160.781717 
L 121.093398 -157.427469 
L 124.709743 -154.774098 
L 128.326088 -152.792624 
L 131.942433 -150.636441 
L 135.558779 -148.401146 
L 139.175124 -146.486054 
L 142.791469 -144.60779 
L 146.407815 -143.131176 
L 150.02416 -142.076635 
L 153.640505 -140.939342 
L 157.25685 -139.879906 
L 160.873196 -138.760649 
L 164.489541 -137.71263 
L 168.105886 -136.986204 
L 171.722231 -135.950915 
L 175.338577 -134.974384 
L 178.954922 -134.384322 
L 182.571267 -133.595658 
L 186.187612 -132.951639 
L 189.803958 -132.339041 
L 193.420303 -131.572522 
L 197.036648 -130.924913 
L 200.652994 -131.06359 
L 204.269339 -130.764012 
L 207.885684 -131.046302 
L 211.502029 -131.003478 
L 215.118375 -131.248315 
L 218.73472 -131.189723 
L 222.351065 -131.558467 
L 225.96741 -131.900111 
L 229.583756 -131.81411 
L 233.200101 -131.521027 
L 236.816446 -131.439283 
L 240.432792 -131.078166 
L 244.049137 -131.115639 
L 247.665482 -131.147177 
L 251.281827 -131.41968 
L 254.898173 -131.550067 
L 258.514518 -131.792929 
L 262.130863 -132.020987 
L 265.747208 -131.830574 
L 269.363554 -131.644768 
L 272.979899 -131.546426 
L 276.596244 -131.296176 
L 280.21259 -130.991832 
L 283.828935 -130.755698 
L 287.44528 -130.759164 
L 291.061625 -130.38754 
L 294.677971 -130.23438 
L 298.294316 -129.96355 
L 301.910661 -129.653673 
L 305.527006 -129.451373 
L 309.143352 -129.12001 
L 312.759697 -128.929237 
L 316.376042 -128.690372 
L 319.992388 -128.457089 
L 323.608733 -128.280251 
L 327.225078 -128.166221 
L 330.841423 -128.196221 
L 334.457769 -127.978709 
L 338.074114 -127.813786 
L 341.690459 -127.652221 
L 345.306804 -127.409224 
L 348.92315 -127.255254 
L 352.539495 -127.021552 
L 356.15584 -126.792636 
L 359.772185 -126.649653 
L 363.388531 -126.46519 
L 367.004876 -126.221145 
L 370.621221 -126.009146 
L 374.237567 -125.879434 
L 377.853912 -125.648083 
L 381.470257 -125.482019 
L 385.086602 -125.319018 
L 388.702948 -125.099331 
L 392.319293 -124.909347 
L 395.935638 -124.697164 
L 399.551983 -124.514131 
L 403.168329 -124.367137 
L 406.784674 -124.14774 
L 410.401019 -124.006619 
L 414.017365 -123.867869 
L 417.63371 -123.699683 
L 421.250055 -123.510134 
L 424.8664 -123.306832 
L 428.482746 -123.106526 
L 432.099091 -123.065167 
L 432.099091 -81.524763 
L 432.099091 -81.524763 
L 428.482746 -81.37022 
L 424.8664 -81.44869 
L 421.250055 -81.529912 
L 417.63371 -81.550317 
L 414.017365 -81.515163 
L 410.401019 -81.430065 
L 406.784674 -81.343751 
L 403.168329 -81.43234 
L 399.551983 -81.345344 
L 395.935638 -81.309504 
L 392.319293 -81.33465 
L 388.702948 -81.299575 
L 385.086602 -81.327181 
L 381.470257 -81.237512 
L 377.853912 -81.146503 
L 374.237567 -81.175988 
L 370.621221 -81.034084 
L 367.004876 -80.998076 
L 363.388531 -81.029769 
L 359.772185 -80.934746 
L 356.15584 -80.785651 
L 352.539495 -80.748609 
L 348.92315 -80.711766 
L 345.306804 -80.556475 
L 341.690459 -80.518193 
L 338.074114 -80.358021 
L 334.457769 -80.194529 
L 330.841423 -80.085815 
L 327.225078 -79.792318 
L 323.608733 -79.566338 
L 319.992388 -79.3863 
L 316.376042 -79.263365 
L 312.759697 -79.138142 
L 309.143352 -78.947369 
L 305.527006 -78.972667 
L 301.910661 -78.77594 
L 298.294316 -78.717136 
L 294.677971 -78.580838 
L 291.061625 -78.313254 
L 287.44528 -78.33857 
L 283.828935 -77.966568 
L 280.21259 -77.741725 
L 276.596244 -77.584642 
L 272.979899 -77.348918 
L 269.363554 -76.984623 
L 265.747208 -76.66612 
L 262.130863 -76.338002 
L 258.514518 -75.828623 
L 254.898173 -75.305129 
L 251.281827 -74.793059 
L 247.665482 -74.239175 
L 244.049137 -73.731879 
L 240.432792 -73.207589 
L 236.816446 -72.932255 
L 233.200101 -72.42493 
L 229.583756 -72.038178 
L 225.96741 -71.494726 
L 222.351065 -70.805158 
L 218.73472 -70.092388 
L 215.118375 -69.477781 
L 211.502029 -68.741799 
L 207.885684 -68.073252 
L 204.269339 -67.278286 
L 200.652994 -66.700234 
L 197.036648 -65.882152 
L 193.420303 -65.58521 
L 189.803958 -65.424783 
L 186.187612 -64.973178 
L 182.571267 -64.500539 
L 178.954922 -64.152269 
L 175.338577 -63.50003 
L 171.722231 -63.284845 
L 168.105886 -63.067299 
L 164.489541 -62.329865 
L 160.873196 -61.88817 
L 157.25685 -61.425765 
L 153.640505 -60.744313 
L 150.02416 -60.019366 
L 146.407815 -59.048457 
L 142.791469 -58.436605 
L 139.175124 -58.327571 
L 135.558779 -57.948973 
L 131.942433 -57.885507 
L 128.326088 -57.206671 
L 124.709743 -55.869169 
L 121.093398 -55.05572 
L 117.477052 -55.013328 
L 113.860707 -54.605455 
L 110.244362 -54.764905 
L 106.628017 -55.135262 
L 103.011671 -55.156604 
L 99.395326 -55.466222 
L 95.778981 -56.267779 
L 92.162635 -59.070964 
L 88.54629 -64.217948 
L 84.929945 -68.564426 
L 81.3136 -79.535918 
L 77.697254 -105.335991 
L 74.080909 -277.906182 
z
" style="stroke: #0000ff; stroke-opacity: 0.2"/>
    </defs>
    <g clip-path="url(#pf0ea20c836)">
     <use xlink:href="#mf22fcde539" x="0" y="345.6" style="fill: #0000ff; fill-opacity: 0.2; stroke: #0000ff; stroke-opacity: 0.2"/>
    </g>
   </g>
   <g id="PolyCollection_2">
    <defs>
     <path id="m5c00b834fe" d="M 74.080909 -84.714524 
L 74.080909 -84.714524 
L 77.697254 -84.714524 
L 81.3136 -84.714524 
L 84.929945 -84.714524 
L 88.54629 -84.714524 
L 92.162635 -84.714524 
L 95.778981 -84.714524 
L 99.395326 -84.714524 
L 103.011671 -84.714524 
L 106.628017 -84.714524 
L 110.244362 -84.714524 
L 113.860707 -84.714524 
L 117.477052 -84.714524 
L 121.093398 -84.714524 
L 124.709743 -84.714524 
L 128.326088 -84.714524 
L 131.942433 -84.714524 
L 135.558779 -84.714524 
L 139.175124 -84.714524 
L 142.791469 -84.714524 
L 146.407815 -84.714524 
L 150.02416 -84.714524 
L 153.640505 -84.714524 
L 157.25685 -84.714524 
L 160.873196 -84.714524 
L 164.489541 -84.714524 
L 168.105886 -84.714524 
L 171.722231 -84.714524 
L 175.338577 -84.714524 
L 178.954922 -84.714524 
L 182.571267 -84.714524 
L 186.187612 -84.714524 
L 189.803958 -84.714524 
L 193.420303 -84.714524 
L 197.036648 -84.714524 
L 200.652994 -84.714524 
L 204.269339 -84.714524 
L 207.885684 -84.714524 
L 211.502029 -84.714524 
L 215.118375 -84.714524 
L 218.73472 -84.714524 
L 222.351065 -84.714524 
L 225.96741 -84.714524 
L 229.583756 -84.714524 
L 233.200101 -84.714524 
L 236.816446 -84.714524 
L 240.432792 -84.714524 
L 244.049137 -84.714524 
L 247.665482 -84.714524 
L 251.281827 -84.714524 
L 254.898173 -84.714524 
L 258.514518 -84.714524 
L 262.130863 -84.714524 
L 265.747208 -84.714524 
L 269.363554 -84.714524 
L 272.979899 -84.714524 
L 276.596244 -84.714524 
L 280.21259 -84.714524 
L 283.828935 -84.714524 
L 287.44528 -84.714524 
L 291.061625 -84.714524 
L 294.677971 -84.714524 
L 298.294316 -84.714524 
L 301.910661 -84.714524 
L 305.527006 -84.714524 
L 309.143352 -84.714524 
L 312.759697 -84.714524 
L 316.376042 -84.714524 
L 319.992388 -84.714524 
L 323.608733 -84.714524 
L 327.225078 -84.714524 
L 330.841423 -84.714524 
L 334.457769 -84.714524 
L 338.074114 -84.714524 
L 341.690459 -84.714524 
L 345.306804 -84.714524 
L 348.92315 -84.714524 
L 352.539495 -84.714524 
L 356.15584 -84.714524 
L 359.772185 -84.714524 
L 363.388531 -84.714524 
L 367.004876 -84.714524 
L 370.621221 -84.714524 
L 374.237567 -84.714524 
L 377.853912 -84.714524 
L 381.470257 -84.714524 
L 385.086602 -84.714524 
L 388.702948 -84.714524 
L 392.319293 -84.714524 
L 395.935638 -84.714524 
L 399.551983 -84.714524 
L 403.168329 -84.714524 
L 406.784674 -84.714524 
L 410.401019 -84.714524 
L 414.017365 -84.714524 
L 417.63371 -84.714524 
L 421.250055 -84.714524 
L 424.8664 -84.714524 
L 428.482746 -84.714524 
L 432.099091 -84.714524 
L 432.099091 -84.714524 
L 432.099091 -84.714524 
L 428.482746 -84.714524 
L 424.8664 -84.714524 
L 421.250055 -84.714524 
L 417.63371 -84.714524 
L 414.017365 -84.714524 
L 410.401019 -84.714524 
L 406.784674 -84.714524 
L 403.168329 -84.714524 
L 399.551983 -84.714524 
L 395.935638 -84.714524 
L 392.319293 -84.714524 
L 388.702948 -84.714524 
L 385.086602 -84.714524 
L 381.470257 -84.714524 
L 377.853912 -84.714524 
L 374.237567 -84.714524 
L 370.621221 -84.714524 
L 367.004876 -84.714524 
L 363.388531 -84.714524 
L 359.772185 -84.714524 
L 356.15584 -84.714524 
L 352.539495 -84.714524 
L 348.92315 -84.714524 
L 345.306804 -84.714524 
L 341.690459 -84.714524 
L 338.074114 -84.714524 
L 334.457769 -84.714524 
L 330.841423 -84.714524 
L 327.225078 -84.714524 
L 323.608733 -84.714524 
L 319.992388 -84.714524 
L 316.376042 -84.714524 
L 312.759697 -84.714524 
L 309.143352 -84.714524 
L 305.527006 -84.714524 
L 301.910661 -84.714524 
L 298.294316 -84.714524 
L 294.677971 -84.714524 
L 291.061625 -84.714524 
L 287.44528 -84.714524 
L 283.828935 -84.714524 
L 280.21259 -84.714524 
L 276.596244 -84.714524 
L 272.979899 -84.714524 
L 269.363554 -84.714524 
L 265.747208 -84.714524 
L 262.130863 -84.714524 
L 258.514518 -84.714524 
L 254.898173 -84.714524 
L 251.281827 -84.714524 
L 247.665482 -84.714524 
L 244.049137 -84.714524 
L 240.432792 -84.714524 
L 236.816446 -84.714524 
L 233.200101 -84.714524 
L 229.583756 -84.714524 
L 225.96741 -84.714524 
L 222.351065 -84.714524 
L 218.73472 -84.714524 
L 215.118375 -84.714524 
L 211.502029 -84.714524 
L 207.885684 -84.714524 
L 204.269339 -84.714524 
L 200.652994 -84.714524 
L 197.036648 -84.714524 
L 193.420303 -84.714524 
L 189.803958 -84.714524 
L 186.187612 -84.714524 
L 182.571267 -84.714524 
L 178.954922 -84.714524 
L 175.338577 -84.714524 
L 171.722231 -84.714524 
L 168.105886 -84.714524 
L 164.489541 -84.714524 
L 160.873196 -84.714524 
L 157.25685 -84.714524 
L 153.640505 -84.714524 
L 150.02416 -84.714524 
L 146.407815 -84.714524 
L 142.791469 -84.714524 
L 139.175124 -84.714524 
L 135.558779 -84.714524 
L 131.942433 -84.714524 
L 128.326088 -84.714524 
L 124.709743 -84.714524 
L 121.093398 -84.714524 
L 117.477052 -84.714524 
L 113.860707 -84.714524 
L 110.244362 -84.714524 
L 106.628017 -84.714524 
L 103.011671 -84.714524 
L 99.395326 -84.714524 
L 95.778981 -84.714524 
L 92.162635 -84.714524 
L 88.54629 -84.714524 
L 84.929945 -84.714524 
L 81.3136 -84.714524 
L 77.697254 -84.714524 
L 74.080909 -84.714524 
z
" style="stroke: #ff0000; stroke-opacity: 0.1"/>
    </defs>
    <g clip-path="url(#pf0ea20c836)">
     <use xlink:href="#m5c00b834fe" x="0" y="345.6" style="fill: #ff0000; fill-opacity: 0.1; stroke: #ff0000; stroke-opacity: 0.1"/>
    </g>
   </g>
   <g id="matplotlib.axis_1">
    <g id="xtick_1">
     <g id="line2d_1">
      <defs>
       <path id="mae06e62925" d="M 0 0 
L 0 3.5 
" style="stroke: #000000; stroke-width: 0.8"/>
      </defs>
      <g>
       <use xlink:href="#mae06e62925" x="74.080909" y="303.64" style="stroke: #000000; stroke-width: 0.8"/>
      </g>
     </g>
     <g id="text_1">
      <!-- 0 -->
      <g transform="translate(70.899659 318.238437) scale(0.1 -0.1)">
       <defs>
        <path id="DejaVuSans-30" d="M 2034 4250 
Q 1547 4250 1301 3770 
Q 1056 3291 1056 2328 
Q 1056 1369 1301 889 
Q 1547 409 2034 409 
Q 2525 409 2770 889 
Q 3016 1369 3016 2328 
Q 3016 3291 2770 3770 
Q 2525 4250 2034 4250 
z
M 2034 4750 
Q 2819 4750 3233 4129 
Q 3647 3509 3647 2328 
Q 3647 1150 3233 529 
Q 2819 -91 2034 -91 
Q 1250 -91 836 529 
Q 422 1150 422 2328 
Q 422 3509 836 4129 
Q 1250 4750 2034 4750 
z
" transform="scale(0.015625)"/>
       </defs>
       <use xlink:href="#DejaVuSans-30"/>
      </g>
     </g>
    </g>
    <g id="xtick_2">
     <g id="line2d_2">
      <g>
       <use xlink:href="#mae06e62925" x="146.407815" y="303.64" style="stroke: #000000; stroke-width: 0.8"/>
      </g>
     </g>
     <g id="text_2">
      <!-- 20 -->
      <g transform="translate(140.045315 318.238437) scale(0.1 -0.1)">
       <defs>
        <path id="DejaVuSans-32" d="M 1228 531 
L 3431 531 
L 3431 0 
L 469 0 
L 469 531 
Q 828 903 1448 1529 
Q 2069 2156 2228 2338 
Q 2531 2678 2651 2914 
Q 2772 3150 2772 3378 
Q 2772 3750 2511 3984 
Q 2250 4219 1831 4219 
Q 1534 4219 1204 4116 
Q 875 4013 500 3803 
L 500 4441 
Q 881 4594 1212 4672 
Q 1544 4750 1819 4750 
Q 2544 4750 2975 4387 
Q 3406 4025 3406 3419 
Q 3406 3131 3298 2873 
Q 3191 2616 2906 2266 
Q 2828 2175 2409 1742 
Q 1991 1309 1228 531 
z
" transform="scale(0.015625)"/>
       </defs>
       <use xlink:href="#DejaVuSans-32"/>
       <use xlink:href="#DejaVuSans-30" x="63.623047"/>
      </g>
     </g>
    </g>
    <g id="xtick_3">
     <g id="line2d_3">
      <g>
       <use xlink:href="#mae06e62925" x="218.73472" y="303.64" style="stroke: #000000; stroke-width: 0.8"/>
      </g>
     </g>
     <g id="text_3">
      <!-- 40 -->
      <g transform="translate(212.37222 318.238437) scale(0.1 -0.1)">
       <defs>
        <path id="DejaVuSans-34" d="M 2419 4116 
L 825 1625 
L 2419 1625 
L 2419 4116 
z
M 2253 4666 
L 3047 4666 
L 3047 1625 
L 3713 1625 
L 3713 1100 
L 3047 1100 
L 3047 0 
L 2419 0 
L 2419 1100 
L 313 1100 
L 313 1709 
L 2253 4666 
z
" transform="scale(0.015625)"/>
       </defs>
       <use xlink:href="#DejaVuSans-34"/>
       <use xlink:href="#DejaVuSans-30" x="63.623047"/>
      </g>
     </g>
    </g>
    <g id="xtick_4">
     <g id="line2d_4">
      <g>
       <use xlink:href="#mae06e62925" x="291.061625" y="303.64" style="stroke: #000000; stroke-width: 0.8"/>
      </g>
     </g>
     <g id="text_4">
      <!-- 60 -->
      <g transform="translate(284.699125 318.238437) scale(0.1 -0.1)">
       <defs>
        <path id="DejaVuSans-36" d="M 2113 2584 
Q 1688 2584 1439 2293 
Q 1191 2003 1191 1497 
Q 1191 994 1439 701 
Q 1688 409 2113 409 
Q 2538 409 2786 701 
Q 3034 994 3034 1497 
Q 3034 2003 2786 2293 
Q 2538 2584 2113 2584 
z
M 3366 4563 
L 3366 3988 
Q 3128 4100 2886 4159 
Q 2644 4219 2406 4219 
Q 1781 4219 1451 3797 
Q 1122 3375 1075 2522 
Q 1259 2794 1537 2939 
Q 1816 3084 2150 3084 
Q 2853 3084 3261 2657 
Q 3669 2231 3669 1497 
Q 3669 778 3244 343 
Q 2819 -91 2113 -91 
Q 1303 -91 875 529 
Q 447 1150 447 2328 
Q 447 3434 972 4092 
Q 1497 4750 2381 4750 
Q 2619 4750 2861 4703 
Q 3103 4656 3366 4563 
z
" transform="scale(0.015625)"/>
       </defs>
       <use xlink:href="#DejaVuSans-36"/>
       <use xlink:href="#DejaVuSans-30" x="63.623047"/>
      </g>
     </g>
    </g>
    <g id="xtick_5">
     <g id="line2d_5">
      <g>
       <use xlink:href="#mae06e62925" x="363.388531" y="303.64" style="stroke: #000000; stroke-width: 0.8"/>
      </g>
     </g>
     <g id="text_5">
      <!-- 80 -->
      <g transform="translate(357.026031 318.238437) scale(0.1 -0.1)">
       <defs>
        <path id="DejaVuSans-38" d="M 2034 2216 
Q 1584 2216 1326 1975 
Q 1069 1734 1069 1313 
Q 1069 891 1326 650 
Q 1584 409 2034 409 
Q 2484 409 2743 651 
Q 3003 894 3003 1313 
Q 3003 1734 2745 1975 
Q 2488 2216 2034 2216 
z
M 1403 2484 
Q 997 2584 770 2862 
Q 544 3141 544 3541 
Q 544 4100 942 4425 
Q 1341 4750 2034 4750 
Q 2731 4750 3128 4425 
Q 3525 4100 3525 3541 
Q 3525 3141 3298 2862 
Q 3072 2584 2669 2484 
Q 3125 2378 3379 2068 
Q 3634 1759 3634 1313 
Q 3634 634 3220 271 
Q 2806 -91 2034 -91 
Q 1263 -91 848 271 
Q 434 634 434 1313 
Q 434 1759 690 2068 
Q 947 2378 1403 2484 
z
M 1172 3481 
Q 1172 3119 1398 2916 
Q 1625 2713 2034 2713 
Q 2441 2713 2670 2916 
Q 2900 3119 2900 3481 
Q 2900 3844 2670 4047 
Q 2441 4250 2034 4250 
Q 1625 4250 1398 4047 
Q 1172 3844 1172 3481 
z
" transform="scale(0.015625)"/>
       </defs>
       <use xlink:href="#DejaVuSans-38"/>
       <use xlink:href="#DejaVuSans-30" x="63.623047"/>
      </g>
     </g>
    </g>
    <g id="xtick_6">
     <g id="line2d_6">
      <g>
       <use xlink:href="#mae06e62925" x="435.715436" y="303.64" style="stroke: #000000; stroke-width: 0.8"/>
      </g>
     </g>
     <g id="text_6">
      <!-- 100 -->
      <g transform="translate(426.171686 318.238437) scale(0.1 -0.1)">
       <defs>
        <path id="DejaVuSans-31" d="M 794 531 
L 1825 531 
L 1825 4091 
L 703 3866 
L 703 4441 
L 1819 4666 
L 2450 4666 
L 2450 531 
L 3481 531 
L 3481 0 
L 794 0 
L 794 531 
z
" transform="scale(0.015625)"/>
       </defs>
       <use xlink:href="#DejaVuSans-31"/>
       <use xlink:href="#DejaVuSans-30" x="63.623047"/>
       <use xlink:href="#DejaVuSans-30" x="127.246094"/>
      </g>
     </g>
    </g>
    <g id="text_7">
     <!-- Iteration -->
     <g transform="translate(231.881406 331.916562) scale(0.1 -0.1)">
      <defs>
       <path id="DejaVuSans-49" d="M 628 4666 
L 1259 4666 
L 1259 0 
L 628 0 
L 628 4666 
z
" transform="scale(0.015625)"/>
       <path id="DejaVuSans-74" d="M 1172 4494 
L 1172 3500 
L 2356 3500 
L 2356 3053 
L 1172 3053 
L 1172 1153 
Q 1172 725 1289 603 
Q 1406 481 1766 481 
L 2356 481 
L 2356 0 
L 1766 0 
Q 1100 0 847 248 
Q 594 497 594 1153 
L 594 3053 
L 172 3053 
L 172 3500 
L 594 3500 
L 594 4494 
L 1172 4494 
z
" transform="scale(0.015625)"/>
       <path id="DejaVuSans-65" d="M 3597 1894 
L 3597 1613 
L 953 1613 
Q 991 1019 1311 708 
Q 1631 397 2203 397 
Q 2534 397 2845 478 
Q 3156 559 3463 722 
L 3463 178 
Q 3153 47 2828 -22 
Q 2503 -91 2169 -91 
Q 1331 -91 842 396 
Q 353 884 353 1716 
Q 353 2575 817 3079 
Q 1281 3584 2069 3584 
Q 2775 3584 3186 3129 
Q 3597 2675 3597 1894 
z
M 3022 2063 
Q 3016 2534 2758 2815 
Q 2500 3097 2075 3097 
Q 1594 3097 1305 2825 
Q 1016 2553 972 2059 
L 3022 2063 
z
" transform="scale(0.015625)"/>
       <path id="DejaVuSans-72" d="M 2631 2963 
Q 2534 3019 2420 3045 
Q 2306 3072 2169 3072 
Q 1681 3072 1420 2755 
Q 1159 2438 1159 1844 
L 1159 0 
L 581 0 
L 581 3500 
L 1159 3500 
L 1159 2956 
Q 1341 3275 1631 3429 
Q 1922 3584 2338 3584 
Q 2397 3584 2469 3576 
Q 2541 3569 2628 3553 
L 2631 2963 
z
" transform="scale(0.015625)"/>
       <path id="DejaVuSans-61" d="M 2194 1759 
Q 1497 1759 1228 1600 
Q 959 1441 959 1056 
Q 959 750 1161 570 
Q 1363 391 1709 391 
Q 2188 391 2477 730 
Q 2766 1069 2766 1631 
L 2766 1759 
L 2194 1759 
z
M 3341 1997 
L 3341 0 
L 2766 0 
L 2766 531 
Q 2569 213 2275 61 
Q 1981 -91 1556 -91 
Q 1019 -91 701 211 
Q 384 513 384 1019 
Q 384 1609 779 1909 
Q 1175 2209 1959 2209 
L 2766 2209 
L 2766 2266 
Q 2766 2663 2505 2880 
Q 2244 3097 1772 3097 
Q 1472 3097 1187 3025 
Q 903 2953 641 2809 
L 641 3341 
Q 956 3463 1253 3523 
Q 1550 3584 1831 3584 
Q 2591 3584 2966 3190 
Q 3341 2797 3341 1997 
z
" transform="scale(0.015625)"/>
       <path id="DejaVuSans-69" d="M 603 3500 
L 1178 3500 
L 1178 0 
L 603 0 
L 603 3500 
z
M 603 4863 
L 1178 4863 
L 1178 4134 
L 603 4134 
L 603 4863 
z
" transform="scale(0.015625)"/>
       <path id="DejaVuSans-6f" d="M 1959 3097 
Q 1497 3097 1228 2736 
Q 959 2375 959 1747 
Q 959 1119 1226 758 
Q 1494 397 1959 397 
Q 2419 397 2687 759 
Q 2956 1122 2956 1747 
Q 2956 2369 2687 2733 
Q 2419 3097 1959 3097 
z
M 1959 3584 
Q 2709 3584 3137 3096 
Q 3566 2609 3566 1747 
Q 3566 888 3137 398 
Q 2709 -91 1959 -91 
Q 1206 -91 779 398 
Q 353 888 353 1747 
Q 353 2609 779 3096 
Q 1206 3584 1959 3584 
z
" transform="scale(0.015625)"/>
       <path id="DejaVuSans-6e" d="M 3513 2113 
L 3513 0 
L 2938 0 
L 2938 2094 
Q 2938 2591 2744 2837 
Q 2550 3084 2163 3084 
Q 1697 3084 1428 2787 
Q 1159 2491 1159 1978 
L 1159 0 
L 581 0 
L 581 3500 
L 1159 3500 
L 1159 2956 
Q 1366 3272 1645 3428 
Q 1925 3584 2291 3584 
Q 2894 3584 3203 3211 
Q 3513 2838 3513 2113 
z
" transform="scale(0.015625)"/>
      </defs>
      <use xlink:href="#DejaVuSans-49"/>
      <use xlink:href="#DejaVuSans-74" x="29.492188"/>
      <use xlink:href="#DejaVuSans-65" x="68.701172"/>
      <use xlink:href="#DejaVuSans-72" x="130.224609"/>
      <use xlink:href="#DejaVuSans-61" x="171.337891"/>
      <use xlink:href="#DejaVuSans-74" x="232.617188"/>
      <use xlink:href="#DejaVuSans-69" x="271.826172"/>
      <use xlink:href="#DejaVuSans-6f" x="299.609375"/>
      <use xlink:href="#DejaVuSans-6e" x="360.791016"/>
     </g>
    </g>
   </g>
   <g id="matplotlib.axis_2">
    <g id="ytick_1">
     <g id="line2d_7">
      <defs>
       <path id="m8eea60ed6f" d="M 0 0 
L -3.5 0 
" style="stroke: #000000; stroke-width: 0.8"/>
      </defs>
      <g>
       <use xlink:href="#m8eea60ed6f" x="56.18" y="299.523808" style="stroke: #000000; stroke-width: 0.8"/>
      </g>
     </g>
     <g id="text_8">
      <!-- −0.2 -->
      <g transform="translate(24.897188 303.323027) scale(0.1 -0.1)">
       <defs>
        <path id="DejaVuSans-2212" d="M 678 2272 
L 4684 2272 
L 4684 1741 
L 678 1741 
L 678 2272 
z
" transform="scale(0.015625)"/>
        <path id="DejaVuSans-2e" d="M 684 794 
L 1344 794 
L 1344 0 
L 684 0 
L 684 794 
z
" transform="scale(0.015625)"/>
       </defs>
       <use xlink:href="#DejaVuSans-2212"/>
       <use xlink:href="#DejaVuSans-30" x="83.789062"/>
       <use xlink:href="#DejaVuSans-2e" x="147.412109"/>
       <use xlink:href="#DejaVuSans-32" x="179.199219"/>
      </g>
     </g>
    </g>
    <g id="ytick_2">
     <g id="line2d_8">
      <g>
       <use xlink:href="#m8eea60ed6f" x="56.18" y="260.885476" style="stroke: #000000; stroke-width: 0.8"/>
      </g>
     </g>
     <g id="text_9">
      <!-- 0.0 -->
      <g transform="translate(33.276875 264.684695) scale(0.1 -0.1)">
       <use xlink:href="#DejaVuSans-30"/>
       <use xlink:href="#DejaVuSans-2e" x="63.623047"/>
       <use xlink:href="#DejaVuSans-30" x="95.410156"/>
      </g>
     </g>
    </g>
    <g id="ytick_3">
     <g id="line2d_9">
      <g>
       <use xlink:href="#m8eea60ed6f" x="56.18" y="222.247145" style="stroke: #000000; stroke-width: 0.8"/>
      </g>
     </g>
     <g id="text_10">
      <!-- 0.2 -->
      <g transform="translate(33.276875 226.046363) scale(0.1 -0.1)">
       <use xlink:href="#DejaVuSans-30"/>
       <use xlink:href="#DejaVuSans-2e" x="63.623047"/>
       <use xlink:href="#DejaVuSans-32" x="95.410156"/>
      </g>
     </g>
    </g>
    <g id="ytick_4">
     <g id="line2d_10">
      <g>
       <use xlink:href="#m8eea60ed6f" x="56.18" y="183.608813" style="stroke: #000000; stroke-width: 0.8"/>
      </g>
     </g>
     <g id="text_11">
      <!-- 0.4 -->
      <g transform="translate(33.276875 187.408032) scale(0.1 -0.1)">
       <use xlink:href="#DejaVuSans-30"/>
       <use xlink:href="#DejaVuSans-2e" x="63.623047"/>
       <use xlink:href="#DejaVuSans-34" x="95.410156"/>
      </g>
     </g>
    </g>
    <g id="ytick_5">
     <g id="line2d_11">
      <g>
       <use xlink:href="#m8eea60ed6f" x="56.18" y="144.970482" style="stroke: #000000; stroke-width: 0.8"/>
      </g>
     </g>
     <g id="text_12">
      <!-- 0.6 -->
      <g transform="translate(33.276875 148.7697) scale(0.1 -0.1)">
       <use xlink:href="#DejaVuSans-30"/>
       <use xlink:href="#DejaVuSans-2e" x="63.623047"/>
       <use xlink:href="#DejaVuSans-36" x="95.410156"/>
      </g>
     </g>
    </g>
    <g id="ytick_6">
     <g id="line2d_12">
      <g>
       <use xlink:href="#m8eea60ed6f" x="56.18" y="106.33215" style="stroke: #000000; stroke-width: 0.8"/>
      </g>
     </g>
     <g id="text_13">
      <!-- 0.8 -->
      <g transform="translate(33.276875 110.131369) scale(0.1 -0.1)">
       <use xlink:href="#DejaVuSans-30"/>
       <use xlink:href="#DejaVuSans-2e" x="63.623047"/>
       <use xlink:href="#DejaVuSans-38" x="95.410156"/>
      </g>
     </g>
    </g>
    <g id="ytick_7">
     <g id="line2d_13">
      <g>
       <use xlink:href="#m8eea60ed6f" x="56.18" y="67.693818" style="stroke: #000000; stroke-width: 0.8"/>
      </g>
     </g>
     <g id="text_14">
      <!-- 1.0 -->
      <g transform="translate(33.276875 71.493037) scale(0.1 -0.1)">
       <use xlink:href="#DejaVuSans-31"/>
       <use xlink:href="#DejaVuSans-2e" x="63.623047"/>
       <use xlink:href="#DejaVuSans-30" x="95.410156"/>
      </g>
     </g>
    </g>
    <g id="ytick_8">
     <g id="line2d_14">
      <g>
       <use xlink:href="#m8eea60ed6f" x="56.18" y="29.055487" style="stroke: #000000; stroke-width: 0.8"/>
      </g>
     </g>
     <g id="text_15">
      <!-- 1.2 -->
      <g transform="translate(33.276875 32.854706) scale(0.1 -0.1)">
       <use xlink:href="#DejaVuSans-31"/>
       <use xlink:href="#DejaVuSans-2e" x="63.623047"/>
       <use xlink:href="#DejaVuSans-32" x="95.410156"/>
      </g>
     </g>
    </g>
    <g id="text_16">
     <!-- Avg action -->
     <g transform="translate(18.8175 190.779844) rotate(-90) scale(0.1 -0.1)">
      <defs>
       <path id="DejaVuSans-41" d="M 2188 4044 
L 1331 1722 
L 3047 1722 
L 2188 4044 
z
M 1831 4666 
L 2547 4666 
L 4325 0 
L 3669 0 
L 3244 1197 
L 1141 1197 
L 716 0 
L 50 0 
L 1831 4666 
z
" transform="scale(0.015625)"/>
       <path id="DejaVuSans-76" d="M 191 3500 
L 800 3500 
L 1894 563 
L 2988 3500 
L 3597 3500 
L 2284 0 
L 1503 0 
L 191 3500 
z
" transform="scale(0.015625)"/>
       <path id="DejaVuSans-67" d="M 2906 1791 
Q 2906 2416 2648 2759 
Q 2391 3103 1925 3103 
Q 1463 3103 1205 2759 
Q 947 2416 947 1791 
Q 947 1169 1205 825 
Q 1463 481 1925 481 
Q 2391 481 2648 825 
Q 2906 1169 2906 1791 
z
M 3481 434 
Q 3481 -459 3084 -895 
Q 2688 -1331 1869 -1331 
Q 1566 -1331 1297 -1286 
Q 1028 -1241 775 -1147 
L 775 -588 
Q 1028 -725 1275 -790 
Q 1522 -856 1778 -856 
Q 2344 -856 2625 -561 
Q 2906 -266 2906 331 
L 2906 616 
Q 2728 306 2450 153 
Q 2172 0 1784 0 
Q 1141 0 747 490 
Q 353 981 353 1791 
Q 353 2603 747 3093 
Q 1141 3584 1784 3584 
Q 2172 3584 2450 3431 
Q 2728 3278 2906 2969 
L 2906 3500 
L 3481 3500 
L 3481 434 
z
" transform="scale(0.015625)"/>
       <path id="DejaVuSans-20" transform="scale(0.015625)"/>
       <path id="DejaVuSans-63" d="M 3122 3366 
L 3122 2828 
Q 2878 2963 2633 3030 
Q 2388 3097 2138 3097 
Q 1578 3097 1268 2742 
Q 959 2388 959 1747 
Q 959 1106 1268 751 
Q 1578 397 2138 397 
Q 2388 397 2633 464 
Q 2878 531 3122 666 
L 3122 134 
Q 2881 22 2623 -34 
Q 2366 -91 2075 -91 
Q 1284 -91 818 406 
Q 353 903 353 1747 
Q 353 2603 823 3093 
Q 1294 3584 2113 3584 
Q 2378 3584 2631 3529 
Q 2884 3475 3122 3366 
z
" transform="scale(0.015625)"/>
      </defs>
      <use xlink:href="#DejaVuSans-41"/>
      <use xlink:href="#DejaVuSans-76" x="62.533203"/>
      <use xlink:href="#DejaVuSans-67" x="121.712891"/>
      <use xlink:href="#DejaVuSans-20" x="185.189453"/>
      <use xlink:href="#DejaVuSans-61" x="216.976562"/>
      <use xlink:href="#DejaVuSans-63" x="278.255859"/>
      <use xlink:href="#DejaVuSans-74" x="333.236328"/>
      <use xlink:href="#DejaVuSans-69" x="372.445312"/>
      <use xlink:href="#DejaVuSans-6f" x="400.228516"/>
      <use xlink:href="#DejaVuSans-6e" x="461.410156"/>
     </g>
    </g>
   </g>
   <g id="line2d_15">
    <path d="M 74.080909 67.693818 
L 77.697254 210.655645 
L 81.3136 241.566311 
L 84.929945 249.293977 
L 88.54629 249.293977 
L 92.162635 260.885476 
L 95.778981 260.885476 
L 99.395326 257.021643 
L 103.011671 257.021643 
L 106.628017 257.021643 
L 110.244362 260.885476 
L 113.860707 260.885476 
L 117.477052 257.021643 
L 121.093398 260.885476 
L 124.709743 253.15781 
L 128.326088 245.430144 
L 131.942433 253.15781 
L 135.558779 260.885476 
L 139.175124 257.021643 
L 142.791469 260.885476 
L 146.407815 253.15781 
L 150.02416 245.430144 
L 153.640505 249.293977 
L 157.25685 249.293977 
L 160.873196 253.15781 
L 164.489541 253.15781 
L 168.105886 245.430144 
L 171.722231 257.021643 
L 175.338577 257.021643 
L 178.954922 245.430144 
L 182.571267 253.15781 
L 186.187612 249.293977 
L 189.803958 249.293977 
L 193.420303 257.021643 
L 197.036648 253.15781 
L 200.652994 229.974811 
L 204.269339 241.566311 
L 207.885684 226.110978 
L 211.502029 233.838644 
L 215.118375 226.110978 
L 218.73472 233.838644 
L 222.351065 222.247145 
L 225.96741 222.247145 
L 229.583756 233.838644 
L 233.200101 241.566311 
L 236.816446 233.838644 
L 240.432792 245.430144 
L 244.049137 229.974811 
L 247.665482 229.974811 
L 251.281827 222.247145 
L 254.898173 226.110978 
L 258.514518 222.247145 
L 262.130863 222.247145 
L 265.747208 237.702477 
L 269.363554 237.702477 
L 272.979899 233.838644 
L 276.596244 241.566311 
L 280.21259 245.430144 
L 283.828935 241.566311 
L 287.44528 229.974811 
L 291.061625 253.15781 
L 294.677971 237.702477 
L 298.294316 245.430144 
L 301.910661 249.293977 
L 305.527006 241.566311 
L 309.143352 253.15781 
L 312.759697 241.566311 
L 316.376042 245.430144 
L 319.992388 245.430144 
L 323.608733 241.566311 
L 327.225078 237.702477 
L 330.841423 229.974811 
L 334.457769 245.430144 
L 338.074114 241.566311 
L 341.690459 241.566311 
L 345.306804 249.293977 
L 348.92315 241.566311 
L 352.539495 249.293977 
L 356.15584 249.293977 
L 359.772185 241.566311 
L 363.388531 245.430144 
L 367.004876 253.15781 
L 370.621221 249.293977 
L 374.237567 241.566311 
L 377.853912 253.15781 
L 381.470257 245.430144 
L 385.086602 245.430144 
L 388.702948 253.15781 
L 392.319293 249.293977 
L 395.935638 253.15781 
L 399.551983 249.293977 
L 403.168329 245.430144 
L 406.784674 257.021643 
L 410.401019 245.430144 
L 414.017365 245.430144 
L 417.63371 249.293977 
L 421.250055 253.15781 
L 424.8664 257.021643 
L 428.482746 257.021643 
L 432.099091 237.702477 
" clip-path="url(#pf0ea20c836)" style="fill: none; stroke: #0000ff; stroke-linecap: square"/>
    <defs>
     <path id="me10b7e7eb1" d="M -0.49999 0.49999 
L 0.50001 0.49999 
L 0.50001 -0.50001 
L -0.49999 -0.50001 
z
"/>
    </defs>
    <g clip-path="url(#pf0ea20c836)">
     <use xlink:href="#me10b7e7eb1" x="74.080909" y="67.693818" style="fill: #0000ff"/>
     <use xlink:href="#me10b7e7eb1" x="77.697254" y="210.655645" style="fill: #0000ff"/>
     <use xlink:href="#me10b7e7eb1" x="81.3136" y="241.566311" style="fill: #0000ff"/>
     <use xlink:href="#me10b7e7eb1" x="84.929945" y="249.293977" style="fill: #0000ff"/>
     <use xlink:href="#me10b7e7eb1" x="88.54629" y="249.293977" style="fill: #0000ff"/>
     <use xlink:href="#me10b7e7eb1" x="92.162635" y="260.885476" style="fill: #0000ff"/>
     <use xlink:href="#me10b7e7eb1" x="95.778981" y="260.885476" style="fill: #0000ff"/>
     <use xlink:href="#me10b7e7eb1" x="99.395326" y="257.021643" style="fill: #0000ff"/>
     <use xlink:href="#me10b7e7eb1" x="103.011671" y="257.021643" style="fill: #0000ff"/>
     <use xlink:href="#me10b7e7eb1" x="106.628017" y="257.021643" style="fill: #0000ff"/>
     <use xlink:href="#me10b7e7eb1" x="110.244362" y="260.885476" style="fill: #0000ff"/>
     <use xlink:href="#me10b7e7eb1" x="113.860707" y="260.885476" style="fill: #0000ff"/>
     <use xlink:href="#me10b7e7eb1" x="117.477052" y="257.021643" style="fill: #0000ff"/>
     <use xlink:href="#me10b7e7eb1" x="121.093398" y="260.885476" style="fill: #0000ff"/>
     <use xlink:href="#me10b7e7eb1" x="124.709743" y="253.15781" style="fill: #0000ff"/>
     <use xlink:href="#me10b7e7eb1" x="128.326088" y="245.430144" style="fill: #0000ff"/>
     <use xlink:href="#me10b7e7eb1" x="131.942433" y="253.15781" style="fill: #0000ff"/>
     <use xlink:href="#me10b7e7eb1" x="135.558779" y="260.885476" style="fill: #0000ff"/>
     <use xlink:href="#me10b7e7eb1" x="139.175124" y="257.021643" style="fill: #0000ff"/>
     <use xlink:href="#me10b7e7eb1" x="142.791469" y="260.885476" style="fill: #0000ff"/>
     <use xlink:href="#me10b7e7eb1" x="146.407815" y="253.15781" style="fill: #0000ff"/>
     <use xlink:href="#me10b7e7eb1" x="150.02416" y="245.430144" style="fill: #0000ff"/>
     <use xlink:href="#me10b7e7eb1" x="153.640505" y="249.293977" style="fill: #0000ff"/>
     <use xlink:href="#me10b7e7eb1" x="157.25685" y="249.293977" style="fill: #0000ff"/>
     <use xlink:href="#me10b7e7eb1" x="160.873196" y="253.15781" style="fill: #0000ff"/>
     <use xlink:href="#me10b7e7eb1" x="164.489541" y="253.15781" style="fill: #0000ff"/>
     <use xlink:href="#me10b7e7eb1" x="168.105886" y="245.430144" style="fill: #0000ff"/>
     <use xlink:href="#me10b7e7eb1" x="171.722231" y="257.021643" style="fill: #0000ff"/>
     <use xlink:href="#me10b7e7eb1" x="175.338577" y="257.021643" style="fill: #0000ff"/>
     <use xlink:href="#me10b7e7eb1" x="178.954922" y="245.430144" style="fill: #0000ff"/>
     <use xlink:href="#me10b7e7eb1" x="182.571267" y="253.15781" style="fill: #0000ff"/>
     <use xlink:href="#me10b7e7eb1" x="186.187612" y="249.293977" style="fill: #0000ff"/>
     <use xlink:href="#me10b7e7eb1" x="189.803958" y="249.293977" style="fill: #0000ff"/>
     <use xlink:href="#me10b7e7eb1" x="193.420303" y="257.021643" style="fill: #0000ff"/>
     <use xlink:href="#me10b7e7eb1" x="197.036648" y="253.15781" style="fill: #0000ff"/>
     <use xlink:href="#me10b7e7eb1" x="200.652994" y="229.974811" style="fill: #0000ff"/>
     <use xlink:href="#me10b7e7eb1" x="204.269339" y="241.566311" style="fill: #0000ff"/>
     <use xlink:href="#me10b7e7eb1" x="207.885684" y="226.110978" style="fill: #0000ff"/>
     <use xlink:href="#me10b7e7eb1" x="211.502029" y="233.838644" style="fill: #0000ff"/>
     <use xlink:href="#me10b7e7eb1" x="215.118375" y="226.110978" style="fill: #0000ff"/>
     <use xlink:href="#me10b7e7eb1" x="218.73472" y="233.838644" style="fill: #0000ff"/>
     <use xlink:href="#me10b7e7eb1" x="222.351065" y="222.247145" style="fill: #0000ff"/>
     <use xlink:href="#me10b7e7eb1" x="225.96741" y="222.247145" style="fill: #0000ff"/>
     <use xlink:href="#me10b7e7eb1" x="229.583756" y="233.838644" style="fill: #0000ff"/>
     <use xlink:href="#me10b7e7eb1" x="233.200101" y="241.566311" style="fill: #0000ff"/>
     <use xlink:href="#me10b7e7eb1" x="236.816446" y="233.838644" style="fill: #0000ff"/>
     <use xlink:href="#me10b7e7eb1" x="240.432792" y="245.430144" style="fill: #0000ff"/>
     <use xlink:href="#me10b7e7eb1" x="244.049137" y="229.974811" style="fill: #0000ff"/>
     <use xlink:href="#me10b7e7eb1" x="247.665482" y="229.974811" style="fill: #0000ff"/>
     <use xlink:href="#me10b7e7eb1" x="251.281827" y="222.247145" style="fill: #0000ff"/>
     <use xlink:href="#me10b7e7eb1" x="254.898173" y="226.110978" style="fill: #0000ff"/>
     <use xlink:href="#me10b7e7eb1" x="258.514518" y="222.247145" style="fill: #0000ff"/>
     <use xlink:href="#me10b7e7eb1" x="262.130863" y="222.247145" style="fill: #0000ff"/>
     <use xlink:href="#me10b7e7eb1" x="265.747208" y="237.702477" style="fill: #0000ff"/>
     <use xlink:href="#me10b7e7eb1" x="269.363554" y="237.702477" style="fill: #0000ff"/>
     <use xlink:href="#me10b7e7eb1" x="272.979899" y="233.838644" style="fill: #0000ff"/>
     <use xlink:href="#me10b7e7eb1" x="276.596244" y="241.566311" style="fill: #0000ff"/>
     <use xlink:href="#me10b7e7eb1" x="280.21259" y="245.430144" style="fill: #0000ff"/>
     <use xlink:href="#me10b7e7eb1" x="283.828935" y="241.566311" style="fill: #0000ff"/>
     <use xlink:href="#me10b7e7eb1" x="287.44528" y="229.974811" style="fill: #0000ff"/>
     <use xlink:href="#me10b7e7eb1" x="291.061625" y="253.15781" style="fill: #0000ff"/>
     <use xlink:href="#me10b7e7eb1" x="294.677971" y="237.702477" style="fill: #0000ff"/>
     <use xlink:href="#me10b7e7eb1" x="298.294316" y="245.430144" style="fill: #0000ff"/>
     <use xlink:href="#me10b7e7eb1" x="301.910661" y="249.293977" style="fill: #0000ff"/>
     <use xlink:href="#me10b7e7eb1" x="305.527006" y="241.566311" style="fill: #0000ff"/>
     <use xlink:href="#me10b7e7eb1" x="309.143352" y="253.15781" style="fill: #0000ff"/>
     <use xlink:href="#me10b7e7eb1" x="312.759697" y="241.566311" style="fill: #0000ff"/>
     <use xlink:href="#me10b7e7eb1" x="316.376042" y="245.430144" style="fill: #0000ff"/>
     <use xlink:href="#me10b7e7eb1" x="319.992388" y="245.430144" style="fill: #0000ff"/>
     <use xlink:href="#me10b7e7eb1" x="323.608733" y="241.566311" style="fill: #0000ff"/>
     <use xlink:href="#me10b7e7eb1" x="327.225078" y="237.702477" style="fill: #0000ff"/>
     <use xlink:href="#me10b7e7eb1" x="330.841423" y="229.974811" style="fill: #0000ff"/>
     <use xlink:href="#me10b7e7eb1" x="334.457769" y="245.430144" style="fill: #0000ff"/>
     <use xlink:href="#me10b7e7eb1" x="338.074114" y="241.566311" style="fill: #0000ff"/>
     <use xlink:href="#me10b7e7eb1" x="341.690459" y="241.566311" style="fill: #0000ff"/>
     <use xlink:href="#me10b7e7eb1" x="345.306804" y="249.293977" style="fill: #0000ff"/>
     <use xlink:href="#me10b7e7eb1" x="348.92315" y="241.566311" style="fill: #0000ff"/>
     <use xlink:href="#me10b7e7eb1" x="352.539495" y="249.293977" style="fill: #0000ff"/>
     <use xlink:href="#me10b7e7eb1" x="356.15584" y="249.293977" style="fill: #0000ff"/>
     <use xlink:href="#me10b7e7eb1" x="359.772185" y="241.566311" style="fill: #0000ff"/>
     <use xlink:href="#me10b7e7eb1" x="363.388531" y="245.430144" style="fill: #0000ff"/>
     <use xlink:href="#me10b7e7eb1" x="367.004876" y="253.15781" style="fill: #0000ff"/>
     <use xlink:href="#me10b7e7eb1" x="370.621221" y="249.293977" style="fill: #0000ff"/>
     <use xlink:href="#me10b7e7eb1" x="374.237567" y="241.566311" style="fill: #0000ff"/>
     <use xlink:href="#me10b7e7eb1" x="377.853912" y="253.15781" style="fill: #0000ff"/>
     <use xlink:href="#me10b7e7eb1" x="381.470257" y="245.430144" style="fill: #0000ff"/>
     <use xlink:href="#me10b7e7eb1" x="385.086602" y="245.430144" style="fill: #0000ff"/>
     <use xlink:href="#me10b7e7eb1" x="388.702948" y="253.15781" style="fill: #0000ff"/>
     <use xlink:href="#me10b7e7eb1" x="392.319293" y="249.293977" style="fill: #0000ff"/>
     <use xlink:href="#me10b7e7eb1" x="395.935638" y="253.15781" style="fill: #0000ff"/>
     <use xlink:href="#me10b7e7eb1" x="399.551983" y="249.293977" style="fill: #0000ff"/>
     <use xlink:href="#me10b7e7eb1" x="403.168329" y="245.430144" style="fill: #0000ff"/>
     <use xlink:href="#me10b7e7eb1" x="406.784674" y="257.021643" style="fill: #0000ff"/>
     <use xlink:href="#me10b7e7eb1" x="410.401019" y="245.430144" style="fill: #0000ff"/>
     <use xlink:href="#me10b7e7eb1" x="414.017365" y="245.430144" style="fill: #0000ff"/>
     <use xlink:href="#me10b7e7eb1" x="417.63371" y="249.293977" style="fill: #0000ff"/>
     <use xlink:href="#me10b7e7eb1" x="421.250055" y="253.15781" style="fill: #0000ff"/>
     <use xlink:href="#me10b7e7eb1" x="424.8664" y="257.021643" style="fill: #0000ff"/>
     <use xlink:href="#me10b7e7eb1" x="428.482746" y="257.021643" style="fill: #0000ff"/>
     <use xlink:href="#me10b7e7eb1" x="432.099091" y="237.702477" style="fill: #0000ff"/>
    </g>
   </g>
   <g id="line2d_16">
    <path d="M 74.080909 67.693818 
L 77.697254 139.174732 
L 81.3136 173.305258 
L 84.929945 192.302438 
L 88.54629 203.700746 
L 92.162635 213.231534 
L 95.778981 220.03924 
L 99.395326 224.66204 
L 103.011671 228.257552 
L 106.628017 231.133961 
L 110.244362 233.838644 
L 113.860707 236.092547 
L 117.477052 237.702477 
L 121.093398 239.358406 
L 124.709743 240.278366 
L 128.326088 240.600352 
L 131.942433 241.339026 
L 135.558779 242.42494 
L 139.175124 243.193188 
L 142.791469 244.077802 
L 146.407815 244.510183 
L 150.02416 244.552 
L 153.640505 244.758173 
L 157.25685 244.947165 
L 160.873196 245.27559 
L 164.489541 245.578753 
L 168.105886 245.573249 
L 171.722231 245.98212 
L 175.338577 246.362793 
L 178.954922 246.331705 
L 182.571267 246.551902 
L 186.187612 246.637592 
L 189.803958 246.718088 
L 193.420303 247.021134 
L 197.036648 247.196467 
L 200.652994 246.718088 
L 204.269339 246.578851 
L 207.885684 246.040223 
L 211.502029 245.727362 
L 215.118375 245.236952 
L 218.73472 244.958945 
L 222.351065 244.418187 
L 225.96741 243.902582 
L 229.583756 243.673856 
L 233.200101 243.627022 
L 236.816446 243.414231 
L 240.432792 243.457122 
L 244.049137 243.176241 
L 247.665482 242.906824 
L 251.281827 242.49363 
L 254.898173 242.172402 
L 258.514518 241.789224 
L 262.130863 241.420505 
L 265.747208 241.351653 
L 269.363554 241.285304 
L 272.979899 241.152328 
L 276.596244 241.159591 
L 280.21259 241.233221 
L 283.828935 241.238867 
L 287.44528 241.051133 
L 291.061625 241.249603 
L 294.677971 241.192391 
L 298.294316 241.259657 
L 301.910661 241.385193 
L 305.527006 241.38798 
L 309.143352 241.566311 
L 312.759697 241.566311 
L 316.376042 241.623132 
L 319.992388 241.678306 
L 323.608733 241.676706 
L 327.225078 241.620731 
L 330.841423 241.458982 
L 334.457769 241.513381 
L 338.074114 241.514097 
L 341.690459 241.514793 
L 345.306804 241.61715 
L 348.92315 241.61649 
L 352.539495 241.714919 
L 356.15584 241.810857 
L 359.772185 241.8078 
L 363.388531 241.85252 
L 367.004876 241.99039 
L 370.621221 242.078385 
L 374.237567 242.072289 
L 377.853912 242.202707 
L 381.470257 242.240235 
L 385.086602 242.276901 
L 388.702948 242.400547 
L 392.319293 242.478001 
L 395.935638 242.596666 
L 399.551983 242.670263 
L 403.168329 242.700262 
L 406.784674 242.854255 
L 410.401019 242.881658 
L 414.017365 242.908484 
L 417.63371 242.975 
L 421.250055 243.079977 
L 424.8664 243.222239 
L 428.482746 243.361627 
L 432.099091 243.305035 
" clip-path="url(#pf0ea20c836)" style="fill: none; stroke: #0000ff; stroke-opacity: 0.5; stroke-width: 0.5; stroke-linecap: square"/>
    <defs>
     <path id="m40cc671f16" d="M -0.49999 0.49999 
L 0.50001 0.49999 
L 0.50001 -0.50001 
L -0.49999 -0.50001 
z
"/>
    </defs>
    <g clip-path="url(#pf0ea20c836)">
     <use xlink:href="#m40cc671f16" x="74.080909" y="67.693818" style="fill: #0000ff; fill-opacity: 0.5"/>
     <use xlink:href="#m40cc671f16" x="77.697254" y="139.174732" style="fill: #0000ff; fill-opacity: 0.5"/>
     <use xlink:href="#m40cc671f16" x="81.3136" y="173.305258" style="fill: #0000ff; fill-opacity: 0.5"/>
     <use xlink:href="#m40cc671f16" x="84.929945" y="192.302438" style="fill: #0000ff; fill-opacity: 0.5"/>
     <use xlink:href="#m40cc671f16" x="88.54629" y="203.700746" style="fill: #0000ff; fill-opacity: 0.5"/>
     <use xlink:href="#m40cc671f16" x="92.162635" y="213.231534" style="fill: #0000ff; fill-opacity: 0.5"/>
     <use xlink:href="#m40cc671f16" x="95.778981" y="220.03924" style="fill: #0000ff; fill-opacity: 0.5"/>
     <use xlink:href="#m40cc671f16" x="99.395326" y="224.66204" style="fill: #0000ff; fill-opacity: 0.5"/>
     <use xlink:href="#m40cc671f16" x="103.011671" y="228.257552" style="fill: #0000ff; fill-opacity: 0.5"/>
     <use xlink:href="#m40cc671f16" x="106.628017" y="231.133961" style="fill: #0000ff; fill-opacity: 0.5"/>
     <use xlink:href="#m40cc671f16" x="110.244362" y="233.838644" style="fill: #0000ff; fill-opacity: 0.5"/>
     <use xlink:href="#m40cc671f16" x="113.860707" y="236.092547" style="fill: #0000ff; fill-opacity: 0.5"/>
     <use xlink:href="#m40cc671f16" x="117.477052" y="237.702477" style="fill: #0000ff; fill-opacity: 0.5"/>
     <use xlink:href="#m40cc671f16" x="121.093398" y="239.358406" style="fill: #0000ff; fill-opacity: 0.5"/>
     <use xlink:href="#m40cc671f16" x="124.709743" y="240.278366" style="fill: #0000ff; fill-opacity: 0.5"/>
     <use xlink:href="#m40cc671f16" x="128.326088" y="240.600352" style="fill: #0000ff; fill-opacity: 0.5"/>
     <use xlink:href="#m40cc671f16" x="131.942433" y="241.339026" style="fill: #0000ff; fill-opacity: 0.5"/>
     <use xlink:href="#m40cc671f16" x="135.558779" y="242.42494" style="fill: #0000ff; fill-opacity: 0.5"/>
     <use xlink:href="#m40cc671f16" x="139.175124" y="243.193188" style="fill: #0000ff; fill-opacity: 0.5"/>
     <use xlink:href="#m40cc671f16" x="142.791469" y="244.077802" style="fill: #0000ff; fill-opacity: 0.5"/>
     <use xlink:href="#m40cc671f16" x="146.407815" y="244.510183" style="fill: #0000ff; fill-opacity: 0.5"/>
     <use xlink:href="#m40cc671f16" x="150.02416" y="244.552" style="fill: #0000ff; fill-opacity: 0.5"/>
     <use xlink:href="#m40cc671f16" x="153.640505" y="244.758173" style="fill: #0000ff; fill-opacity: 0.5"/>
     <use xlink:href="#m40cc671f16" x="157.25685" y="244.947165" style="fill: #0000ff; fill-opacity: 0.5"/>
     <use xlink:href="#m40cc671f16" x="160.873196" y="245.27559" style="fill: #0000ff; fill-opacity: 0.5"/>
     <use xlink:href="#m40cc671f16" x="164.489541" y="245.578753" style="fill: #0000ff; fill-opacity: 0.5"/>
     <use xlink:href="#m40cc671f16" x="168.105886" y="245.573249" style="fill: #0000ff; fill-opacity: 0.5"/>
     <use xlink:href="#m40cc671f16" x="171.722231" y="245.98212" style="fill: #0000ff; fill-opacity: 0.5"/>
     <use xlink:href="#m40cc671f16" x="175.338577" y="246.362793" style="fill: #0000ff; fill-opacity: 0.5"/>
     <use xlink:href="#m40cc671f16" x="178.954922" y="246.331705" style="fill: #0000ff; fill-opacity: 0.5"/>
     <use xlink:href="#m40cc671f16" x="182.571267" y="246.551902" style="fill: #0000ff; fill-opacity: 0.5"/>
     <use xlink:href="#m40cc671f16" x="186.187612" y="246.637592" style="fill: #0000ff; fill-opacity: 0.5"/>
     <use xlink:href="#m40cc671f16" x="189.803958" y="246.718088" style="fill: #0000ff; fill-opacity: 0.5"/>
     <use xlink:href="#m40cc671f16" x="193.420303" y="247.021134" style="fill: #0000ff; fill-opacity: 0.5"/>
     <use xlink:href="#m40cc671f16" x="197.036648" y="247.196467" style="fill: #0000ff; fill-opacity: 0.5"/>
     <use xlink:href="#m40cc671f16" x="200.652994" y="246.718088" style="fill: #0000ff; fill-opacity: 0.5"/>
     <use xlink:href="#m40cc671f16" x="204.269339" y="246.578851" style="fill: #0000ff; fill-opacity: 0.5"/>
     <use xlink:href="#m40cc671f16" x="207.885684" y="246.040223" style="fill: #0000ff; fill-opacity: 0.5"/>
     <use xlink:href="#m40cc671f16" x="211.502029" y="245.727362" style="fill: #0000ff; fill-opacity: 0.5"/>
     <use xlink:href="#m40cc671f16" x="215.118375" y="245.236952" style="fill: #0000ff; fill-opacity: 0.5"/>
     <use xlink:href="#m40cc671f16" x="218.73472" y="244.958945" style="fill: #0000ff; fill-opacity: 0.5"/>
     <use xlink:href="#m40cc671f16" x="222.351065" y="244.418187" style="fill: #0000ff; fill-opacity: 0.5"/>
     <use xlink:href="#m40cc671f16" x="225.96741" y="243.902582" style="fill: #0000ff; fill-opacity: 0.5"/>
     <use xlink:href="#m40cc671f16" x="229.583756" y="243.673856" style="fill: #0000ff; fill-opacity: 0.5"/>
     <use xlink:href="#m40cc671f16" x="233.200101" y="243.627022" style="fill: #0000ff; fill-opacity: 0.5"/>
     <use xlink:href="#m40cc671f16" x="236.816446" y="243.414231" style="fill: #0000ff; fill-opacity: 0.5"/>
     <use xlink:href="#m40cc671f16" x="240.432792" y="243.457122" style="fill: #0000ff; fill-opacity: 0.5"/>
     <use xlink:href="#m40cc671f16" x="244.049137" y="243.176241" style="fill: #0000ff; fill-opacity: 0.5"/>
     <use xlink:href="#m40cc671f16" x="247.665482" y="242.906824" style="fill: #0000ff; fill-opacity: 0.5"/>
     <use xlink:href="#m40cc671f16" x="251.281827" y="242.49363" style="fill: #0000ff; fill-opacity: 0.5"/>
     <use xlink:href="#m40cc671f16" x="254.898173" y="242.172402" style="fill: #0000ff; fill-opacity: 0.5"/>
     <use xlink:href="#m40cc671f16" x="258.514518" y="241.789224" style="fill: #0000ff; fill-opacity: 0.5"/>
     <use xlink:href="#m40cc671f16" x="262.130863" y="241.420505" style="fill: #0000ff; fill-opacity: 0.5"/>
     <use xlink:href="#m40cc671f16" x="265.747208" y="241.351653" style="fill: #0000ff; fill-opacity: 0.5"/>
     <use xlink:href="#m40cc671f16" x="269.363554" y="241.285304" style="fill: #0000ff; fill-opacity: 0.5"/>
     <use xlink:href="#m40cc671f16" x="272.979899" y="241.152328" style="fill: #0000ff; fill-opacity: 0.5"/>
     <use xlink:href="#m40cc671f16" x="276.596244" y="241.159591" style="fill: #0000ff; fill-opacity: 0.5"/>
     <use xlink:href="#m40cc671f16" x="280.21259" y="241.233221" style="fill: #0000ff; fill-opacity: 0.5"/>
     <use xlink:href="#m40cc671f16" x="283.828935" y="241.238867" style="fill: #0000ff; fill-opacity: 0.5"/>
     <use xlink:href="#m40cc671f16" x="287.44528" y="241.051133" style="fill: #0000ff; fill-opacity: 0.5"/>
     <use xlink:href="#m40cc671f16" x="291.061625" y="241.249603" style="fill: #0000ff; fill-opacity: 0.5"/>
     <use xlink:href="#m40cc671f16" x="294.677971" y="241.192391" style="fill: #0000ff; fill-opacity: 0.5"/>
     <use xlink:href="#m40cc671f16" x="298.294316" y="241.259657" style="fill: #0000ff; fill-opacity: 0.5"/>
     <use xlink:href="#m40cc671f16" x="301.910661" y="241.385193" style="fill: #0000ff; fill-opacity: 0.5"/>
     <use xlink:href="#m40cc671f16" x="305.527006" y="241.38798" style="fill: #0000ff; fill-opacity: 0.5"/>
     <use xlink:href="#m40cc671f16" x="309.143352" y="241.566311" style="fill: #0000ff; fill-opacity: 0.5"/>
     <use xlink:href="#m40cc671f16" x="312.759697" y="241.566311" style="fill: #0000ff; fill-opacity: 0.5"/>
     <use xlink:href="#m40cc671f16" x="316.376042" y="241.623132" style="fill: #0000ff; fill-opacity: 0.5"/>
     <use xlink:href="#m40cc671f16" x="319.992388" y="241.678306" style="fill: #0000ff; fill-opacity: 0.5"/>
     <use xlink:href="#m40cc671f16" x="323.608733" y="241.676706" style="fill: #0000ff; fill-opacity: 0.5"/>
     <use xlink:href="#m40cc671f16" x="327.225078" y="241.620731" style="fill: #0000ff; fill-opacity: 0.5"/>
     <use xlink:href="#m40cc671f16" x="330.841423" y="241.458982" style="fill: #0000ff; fill-opacity: 0.5"/>
     <use xlink:href="#m40cc671f16" x="334.457769" y="241.513381" style="fill: #0000ff; fill-opacity: 0.5"/>
     <use xlink:href="#m40cc671f16" x="338.074114" y="241.514097" style="fill: #0000ff; fill-opacity: 0.5"/>
     <use xlink:href="#m40cc671f16" x="341.690459" y="241.514793" style="fill: #0000ff; fill-opacity: 0.5"/>
     <use xlink:href="#m40cc671f16" x="345.306804" y="241.61715" style="fill: #0000ff; fill-opacity: 0.5"/>
     <use xlink:href="#m40cc671f16" x="348.92315" y="241.61649" style="fill: #0000ff; fill-opacity: 0.5"/>
     <use xlink:href="#m40cc671f16" x="352.539495" y="241.714919" style="fill: #0000ff; fill-opacity: 0.5"/>
     <use xlink:href="#m40cc671f16" x="356.15584" y="241.810857" style="fill: #0000ff; fill-opacity: 0.5"/>
     <use xlink:href="#m40cc671f16" x="359.772185" y="241.8078" style="fill: #0000ff; fill-opacity: 0.5"/>
     <use xlink:href="#m40cc671f16" x="363.388531" y="241.85252" style="fill: #0000ff; fill-opacity: 0.5"/>
     <use xlink:href="#m40cc671f16" x="367.004876" y="241.99039" style="fill: #0000ff; fill-opacity: 0.5"/>
     <use xlink:href="#m40cc671f16" x="370.621221" y="242.078385" style="fill: #0000ff; fill-opacity: 0.5"/>
     <use xlink:href="#m40cc671f16" x="374.237567" y="242.072289" style="fill: #0000ff; fill-opacity: 0.5"/>
     <use xlink:href="#m40cc671f16" x="377.853912" y="242.202707" style="fill: #0000ff; fill-opacity: 0.5"/>
     <use xlink:href="#m40cc671f16" x="381.470257" y="242.240235" style="fill: #0000ff; fill-opacity: 0.5"/>
     <use xlink:href="#m40cc671f16" x="385.086602" y="242.276901" style="fill: #0000ff; fill-opacity: 0.5"/>
     <use xlink:href="#m40cc671f16" x="388.702948" y="242.400547" style="fill: #0000ff; fill-opacity: 0.5"/>
     <use xlink:href="#m40cc671f16" x="392.319293" y="242.478001" style="fill: #0000ff; fill-opacity: 0.5"/>
     <use xlink:href="#m40cc671f16" x="395.935638" y="242.596666" style="fill: #0000ff; fill-opacity: 0.5"/>
     <use xlink:href="#m40cc671f16" x="399.551983" y="242.670263" style="fill: #0000ff; fill-opacity: 0.5"/>
     <use xlink:href="#m40cc671f16" x="403.168329" y="242.700262" style="fill: #0000ff; fill-opacity: 0.5"/>
     <use xlink:href="#m40cc671f16" x="406.784674" y="242.854255" style="fill: #0000ff; fill-opacity: 0.5"/>
     <use xlink:href="#m40cc671f16" x="410.401019" y="242.881658" style="fill: #0000ff; fill-opacity: 0.5"/>
     <use xlink:href="#m40cc671f16" x="414.017365" y="242.908484" style="fill: #0000ff; fill-opacity: 0.5"/>
     <use xlink:href="#m40cc671f16" x="417.63371" y="242.975" style="fill: #0000ff; fill-opacity: 0.5"/>
     <use xlink:href="#m40cc671f16" x="421.250055" y="243.079977" style="fill: #0000ff; fill-opacity: 0.5"/>
     <use xlink:href="#m40cc671f16" x="424.8664" y="243.222239" style="fill: #0000ff; fill-opacity: 0.5"/>
     <use xlink:href="#m40cc671f16" x="428.482746" y="243.361627" style="fill: #0000ff; fill-opacity: 0.5"/>
     <use xlink:href="#m40cc671f16" x="432.099091" y="243.305035" style="fill: #0000ff; fill-opacity: 0.5"/>
    </g>
   </g>
   <g id="line2d_17">
    <path d="M 56.18 260.885476 
L 450 260.885476 
" clip-path="url(#pf0ea20c836)" style="fill: none; stroke-dasharray: 0.555,0.24; stroke-dashoffset: 0; stroke: #ff0000; stroke-width: 0.15"/>
   </g>
   <g id="line2d_18">
    <path d="M 56.18 164.289647 
L 450 164.289647 
" clip-path="url(#pf0ea20c836)" style="fill: none; stroke-dasharray: 0.555,0.24; stroke-dashoffset: 0; stroke: #ff0000; stroke-width: 0.15"/>
   </g>
   <g id="line2d_19">
    <path d="M 56.18 67.693818 
L 450 67.693818 
" clip-path="url(#pf0ea20c836)" style="fill: none; stroke-dasharray: 0.555,0.24; stroke-dashoffset: 0; stroke: #ff0000; stroke-width: 0.15"/>
   </g>
   <g id="line2d_20">
    <path d="M 74.080909 260.885476 
L 77.697254 260.885476 
L 81.3136 260.885476 
L 84.929945 260.885476 
L 88.54629 260.885476 
L 92.162635 260.885476 
L 95.778981 260.885476 
L 99.395326 260.885476 
L 103.011671 260.885476 
L 106.628017 260.885476 
L 110.244362 260.885476 
L 113.860707 260.885476 
L 117.477052 260.885476 
L 121.093398 260.885476 
L 124.709743 260.885476 
L 128.326088 260.885476 
L 131.942433 260.885476 
L 135.558779 260.885476 
L 139.175124 260.885476 
L 142.791469 260.885476 
L 146.407815 260.885476 
L 150.02416 260.885476 
L 153.640505 260.885476 
L 157.25685 260.885476 
L 160.873196 260.885476 
L 164.489541 260.885476 
L 168.105886 260.885476 
L 171.722231 260.885476 
L 175.338577 260.885476 
L 178.954922 260.885476 
L 182.571267 260.885476 
L 186.187612 260.885476 
L 189.803958 260.885476 
L 193.420303 260.885476 
L 197.036648 260.885476 
L 200.652994 260.885476 
L 204.269339 260.885476 
L 207.885684 260.885476 
L 211.502029 260.885476 
L 215.118375 260.885476 
L 218.73472 260.885476 
L 222.351065 260.885476 
L 225.96741 260.885476 
L 229.583756 260.885476 
L 233.200101 260.885476 
L 236.816446 260.885476 
L 240.432792 260.885476 
L 244.049137 260.885476 
L 247.665482 260.885476 
L 251.281827 260.885476 
L 254.898173 260.885476 
L 258.514518 260.885476 
L 262.130863 260.885476 
L 265.747208 260.885476 
L 269.363554 260.885476 
L 272.979899 260.885476 
L 276.596244 260.885476 
L 280.21259 260.885476 
L 283.828935 260.885476 
L 287.44528 260.885476 
L 291.061625 260.885476 
L 294.677971 260.885476 
L 298.294316 260.885476 
L 301.910661 260.885476 
L 305.527006 260.885476 
L 309.143352 260.885476 
L 312.759697 260.885476 
L 316.376042 260.885476 
L 319.992388 260.885476 
L 323.608733 260.885476 
L 327.225078 260.885476 
L 330.841423 260.885476 
L 334.457769 260.885476 
L 338.074114 260.885476 
L 341.690459 260.885476 
L 345.306804 260.885476 
L 348.92315 260.885476 
L 352.539495 260.885476 
L 356.15584 260.885476 
L 359.772185 260.885476 
L 363.388531 260.885476 
L 367.004876 260.885476 
L 370.621221 260.885476 
L 374.237567 260.885476 
L 377.853912 260.885476 
L 381.470257 260.885476 
L 385.086602 260.885476 
L 388.702948 260.885476 
L 392.319293 260.885476 
L 395.935638 260.885476 
L 399.551983 260.885476 
L 403.168329 260.885476 
L 406.784674 260.885476 
L 410.401019 260.885476 
L 414.017365 260.885476 
L 417.63371 260.885476 
L 421.250055 260.885476 
L 424.8664 260.885476 
L 428.482746 260.885476 
L 432.099091 260.885476 
" clip-path="url(#pf0ea20c836)" style="fill: none; stroke: #ff0000; stroke-width: 0.5; stroke-linecap: square"/>
    <defs>
     <path id="mdd8e79b275" d="M -0.49999 0.49999 
L 0.50001 0.49999 
L 0.50001 -0.50001 
L -0.49999 -0.50001 
z
"/>
    </defs>
    <g clip-path="url(#pf0ea20c836)">
     <use xlink:href="#mdd8e79b275" x="74.080909" y="260.885476" style="fill: #ff0000"/>
     <use xlink:href="#mdd8e79b275" x="77.697254" y="260.885476" style="fill: #ff0000"/>
     <use xlink:href="#mdd8e79b275" x="81.3136" y="260.885476" style="fill: #ff0000"/>
     <use xlink:href="#mdd8e79b275" x="84.929945" y="260.885476" style="fill: #ff0000"/>
     <use xlink:href="#mdd8e79b275" x="88.54629" y="260.885476" style="fill: #ff0000"/>
     <use xlink:href="#mdd8e79b275" x="92.162635" y="260.885476" style="fill: #ff0000"/>
     <use xlink:href="#mdd8e79b275" x="95.778981" y="260.885476" style="fill: #ff0000"/>
     <use xlink:href="#mdd8e79b275" x="99.395326" y="260.885476" style="fill: #ff0000"/>
     <use xlink:href="#mdd8e79b275" x="103.011671" y="260.885476" style="fill: #ff0000"/>
     <use xlink:href="#mdd8e79b275" x="106.628017" y="260.885476" style="fill: #ff0000"/>
     <use xlink:href="#mdd8e79b275" x="110.244362" y="260.885476" style="fill: #ff0000"/>
     <use xlink:href="#mdd8e79b275" x="113.860707" y="260.885476" style="fill: #ff0000"/>
     <use xlink:href="#mdd8e79b275" x="117.477052" y="260.885476" style="fill: #ff0000"/>
     <use xlink:href="#mdd8e79b275" x="121.093398" y="260.885476" style="fill: #ff0000"/>
     <use xlink:href="#mdd8e79b275" x="124.709743" y="260.885476" style="fill: #ff0000"/>
     <use xlink:href="#mdd8e79b275" x="128.326088" y="260.885476" style="fill: #ff0000"/>
     <use xlink:href="#mdd8e79b275" x="131.942433" y="260.885476" style="fill: #ff0000"/>
     <use xlink:href="#mdd8e79b275" x="135.558779" y="260.885476" style="fill: #ff0000"/>
     <use xlink:href="#mdd8e79b275" x="139.175124" y="260.885476" style="fill: #ff0000"/>
     <use xlink:href="#mdd8e79b275" x="142.791469" y="260.885476" style="fill: #ff0000"/>
     <use xlink:href="#mdd8e79b275" x="146.407815" y="260.885476" style="fill: #ff0000"/>
     <use xlink:href="#mdd8e79b275" x="150.02416" y="260.885476" style="fill: #ff0000"/>
     <use xlink:href="#mdd8e79b275" x="153.640505" y="260.885476" style="fill: #ff0000"/>
     <use xlink:href="#mdd8e79b275" x="157.25685" y="260.885476" style="fill: #ff0000"/>
     <use xlink:href="#mdd8e79b275" x="160.873196" y="260.885476" style="fill: #ff0000"/>
     <use xlink:href="#mdd8e79b275" x="164.489541" y="260.885476" style="fill: #ff0000"/>
     <use xlink:href="#mdd8e79b275" x="168.105886" y="260.885476" style="fill: #ff0000"/>
     <use xlink:href="#mdd8e79b275" x="171.722231" y="260.885476" style="fill: #ff0000"/>
     <use xlink:href="#mdd8e79b275" x="175.338577" y="260.885476" style="fill: #ff0000"/>
     <use xlink:href="#mdd8e79b275" x="178.954922" y="260.885476" style="fill: #ff0000"/>
     <use xlink:href="#mdd8e79b275" x="182.571267" y="260.885476" style="fill: #ff0000"/>
     <use xlink:href="#mdd8e79b275" x="186.187612" y="260.885476" style="fill: #ff0000"/>
     <use xlink:href="#mdd8e79b275" x="189.803958" y="260.885476" style="fill: #ff0000"/>
     <use xlink:href="#mdd8e79b275" x="193.420303" y="260.885476" style="fill: #ff0000"/>
     <use xlink:href="#mdd8e79b275" x="197.036648" y="260.885476" style="fill: #ff0000"/>
     <use xlink:href="#mdd8e79b275" x="200.652994" y="260.885476" style="fill: #ff0000"/>
     <use xlink:href="#mdd8e79b275" x="204.269339" y="260.885476" style="fill: #ff0000"/>
     <use xlink:href="#mdd8e79b275" x="207.885684" y="260.885476" style="fill: #ff0000"/>
     <use xlink:href="#mdd8e79b275" x="211.502029" y="260.885476" style="fill: #ff0000"/>
     <use xlink:href="#mdd8e79b275" x="215.118375" y="260.885476" style="fill: #ff0000"/>
     <use xlink:href="#mdd8e79b275" x="218.73472" y="260.885476" style="fill: #ff0000"/>
     <use xlink:href="#mdd8e79b275" x="222.351065" y="260.885476" style="fill: #ff0000"/>
     <use xlink:href="#mdd8e79b275" x="225.96741" y="260.885476" style="fill: #ff0000"/>
     <use xlink:href="#mdd8e79b275" x="229.583756" y="260.885476" style="fill: #ff0000"/>
     <use xlink:href="#mdd8e79b275" x="233.200101" y="260.885476" style="fill: #ff0000"/>
     <use xlink:href="#mdd8e79b275" x="236.816446" y="260.885476" style="fill: #ff0000"/>
     <use xlink:href="#mdd8e79b275" x="240.432792" y="260.885476" style="fill: #ff0000"/>
     <use xlink:href="#mdd8e79b275" x="244.049137" y="260.885476" style="fill: #ff0000"/>
     <use xlink:href="#mdd8e79b275" x="247.665482" y="260.885476" style="fill: #ff0000"/>
     <use xlink:href="#mdd8e79b275" x="251.281827" y="260.885476" style="fill: #ff0000"/>
     <use xlink:href="#mdd8e79b275" x="254.898173" y="260.885476" style="fill: #ff0000"/>
     <use xlink:href="#mdd8e79b275" x="258.514518" y="260.885476" style="fill: #ff0000"/>
     <use xlink:href="#mdd8e79b275" x="262.130863" y="260.885476" style="fill: #ff0000"/>
     <use xlink:href="#mdd8e79b275" x="265.747208" y="260.885476" style="fill: #ff0000"/>
     <use xlink:href="#mdd8e79b275" x="269.363554" y="260.885476" style="fill: #ff0000"/>
     <use xlink:href="#mdd8e79b275" x="272.979899" y="260.885476" style="fill: #ff0000"/>
     <use xlink:href="#mdd8e79b275" x="276.596244" y="260.885476" style="fill: #ff0000"/>
     <use xlink:href="#mdd8e79b275" x="280.21259" y="260.885476" style="fill: #ff0000"/>
     <use xlink:href="#mdd8e79b275" x="283.828935" y="260.885476" style="fill: #ff0000"/>
     <use xlink:href="#mdd8e79b275" x="287.44528" y="260.885476" style="fill: #ff0000"/>
     <use xlink:href="#mdd8e79b275" x="291.061625" y="260.885476" style="fill: #ff0000"/>
     <use xlink:href="#mdd8e79b275" x="294.677971" y="260.885476" style="fill: #ff0000"/>
     <use xlink:href="#mdd8e79b275" x="298.294316" y="260.885476" style="fill: #ff0000"/>
     <use xlink:href="#mdd8e79b275" x="301.910661" y="260.885476" style="fill: #ff0000"/>
     <use xlink:href="#mdd8e79b275" x="305.527006" y="260.885476" style="fill: #ff0000"/>
     <use xlink:href="#mdd8e79b275" x="309.143352" y="260.885476" style="fill: #ff0000"/>
     <use xlink:href="#mdd8e79b275" x="312.759697" y="260.885476" style="fill: #ff0000"/>
     <use xlink:href="#mdd8e79b275" x="316.376042" y="260.885476" style="fill: #ff0000"/>
     <use xlink:href="#mdd8e79b275" x="319.992388" y="260.885476" style="fill: #ff0000"/>
     <use xlink:href="#mdd8e79b275" x="323.608733" y="260.885476" style="fill: #ff0000"/>
     <use xlink:href="#mdd8e79b275" x="327.225078" y="260.885476" style="fill: #ff0000"/>
     <use xlink:href="#mdd8e79b275" x="330.841423" y="260.885476" style="fill: #ff0000"/>
     <use xlink:href="#mdd8e79b275" x="334.457769" y="260.885476" style="fill: #ff0000"/>
     <use xlink:href="#mdd8e79b275" x="338.074114" y="260.885476" style="fill: #ff0000"/>
     <use xlink:href="#mdd8e79b275" x="341.690459" y="260.885476" style="fill: #ff0000"/>
     <use xlink:href="#mdd8e79b275" x="345.306804" y="260.885476" style="fill: #ff0000"/>
     <use xlink:href="#mdd8e79b275" x="348.92315" y="260.885476" style="fill: #ff0000"/>
     <use xlink:href="#mdd8e79b275" x="352.539495" y="260.885476" style="fill: #ff0000"/>
     <use xlink:href="#mdd8e79b275" x="356.15584" y="260.885476" style="fill: #ff0000"/>
     <use xlink:href="#mdd8e79b275" x="359.772185" y="260.885476" style="fill: #ff0000"/>
     <use xlink:href="#mdd8e79b275" x="363.388531" y="260.885476" style="fill: #ff0000"/>
     <use xlink:href="#mdd8e79b275" x="367.004876" y="260.885476" style="fill: #ff0000"/>
     <use xlink:href="#mdd8e79b275" x="370.621221" y="260.885476" style="fill: #ff0000"/>
     <use xlink:href="#mdd8e79b275" x="374.237567" y="260.885476" style="fill: #ff0000"/>
     <use xlink:href="#mdd8e79b275" x="377.853912" y="260.885476" style="fill: #ff0000"/>
     <use xlink:href="#mdd8e79b275" x="381.470257" y="260.885476" style="fill: #ff0000"/>
     <use xlink:href="#mdd8e79b275" x="385.086602" y="260.885476" style="fill: #ff0000"/>
     <use xlink:href="#mdd8e79b275" x="388.702948" y="260.885476" style="fill: #ff0000"/>
     <use xlink:href="#mdd8e79b275" x="392.319293" y="260.885476" style="fill: #ff0000"/>
     <use xlink:href="#mdd8e79b275" x="395.935638" y="260.885476" style="fill: #ff0000"/>
     <use xlink:href="#mdd8e79b275" x="399.551983" y="260.885476" style="fill: #ff0000"/>
     <use xlink:href="#mdd8e79b275" x="403.168329" y="260.885476" style="fill: #ff0000"/>
     <use xlink:href="#mdd8e79b275" x="406.784674" y="260.885476" style="fill: #ff0000"/>
     <use xlink:href="#mdd8e79b275" x="410.401019" y="260.885476" style="fill: #ff0000"/>
     <use xlink:href="#mdd8e79b275" x="414.017365" y="260.885476" style="fill: #ff0000"/>
     <use xlink:href="#mdd8e79b275" x="417.63371" y="260.885476" style="fill: #ff0000"/>
     <use xlink:href="#mdd8e79b275" x="421.250055" y="260.885476" style="fill: #ff0000"/>
     <use xlink:href="#mdd8e79b275" x="424.8664" y="260.885476" style="fill: #ff0000"/>
     <use xlink:href="#mdd8e79b275" x="428.482746" y="260.885476" style="fill: #ff0000"/>
     <use xlink:href="#mdd8e79b275" x="432.099091" y="260.885476" style="fill: #ff0000"/>
    </g>
   </g>
   <g id="line2d_21">
    <path d="M 74.080909 260.885476 
L 77.697254 260.885476 
L 81.3136 260.885476 
L 84.929945 260.885476 
L 88.54629 260.885476 
L 92.162635 260.885476 
L 95.778981 260.885476 
L 99.395326 260.885476 
L 103.011671 260.885476 
L 106.628017 260.885476 
L 110.244362 260.885476 
L 113.860707 260.885476 
L 117.477052 260.885476 
L 121.093398 260.885476 
L 124.709743 260.885476 
L 128.326088 260.885476 
L 131.942433 260.885476 
L 135.558779 260.885476 
L 139.175124 260.885476 
L 142.791469 260.885476 
L 146.407815 260.885476 
L 150.02416 260.885476 
L 153.640505 260.885476 
L 157.25685 260.885476 
L 160.873196 260.885476 
L 164.489541 260.885476 
L 168.105886 260.885476 
L 171.722231 260.885476 
L 175.338577 260.885476 
L 178.954922 260.885476 
L 182.571267 260.885476 
L 186.187612 260.885476 
L 189.803958 260.885476 
L 193.420303 260.885476 
L 197.036648 260.885476 
L 200.652994 260.885476 
L 204.269339 260.885476 
L 207.885684 260.885476 
L 211.502029 260.885476 
L 215.118375 260.885476 
L 218.73472 260.885476 
L 222.351065 260.885476 
L 225.96741 260.885476 
L 229.583756 260.885476 
L 233.200101 260.885476 
L 236.816446 260.885476 
L 240.432792 260.885476 
L 244.049137 260.885476 
L 247.665482 260.885476 
L 251.281827 260.885476 
L 254.898173 260.885476 
L 258.514518 260.885476 
L 262.130863 260.885476 
L 265.747208 260.885476 
L 269.363554 260.885476 
L 272.979899 260.885476 
L 276.596244 260.885476 
L 280.21259 260.885476 
L 283.828935 260.885476 
L 287.44528 260.885476 
L 291.061625 260.885476 
L 294.677971 260.885476 
L 298.294316 260.885476 
L 301.910661 260.885476 
L 305.527006 260.885476 
L 309.143352 260.885476 
L 312.759697 260.885476 
L 316.376042 260.885476 
L 319.992388 260.885476 
L 323.608733 260.885476 
L 327.225078 260.885476 
L 330.841423 260.885476 
L 334.457769 260.885476 
L 338.074114 260.885476 
L 341.690459 260.885476 
L 345.306804 260.885476 
L 348.92315 260.885476 
L 352.539495 260.885476 
L 356.15584 260.885476 
L 359.772185 260.885476 
L 363.388531 260.885476 
L 367.004876 260.885476 
L 370.621221 260.885476 
L 374.237567 260.885476 
L 377.853912 260.885476 
L 381.470257 260.885476 
L 385.086602 260.885476 
L 388.702948 260.885476 
L 392.319293 260.885476 
L 395.935638 260.885476 
L 399.551983 260.885476 
L 403.168329 260.885476 
L 406.784674 260.885476 
L 410.401019 260.885476 
L 414.017365 260.885476 
L 417.63371 260.885476 
L 421.250055 260.885476 
L 424.8664 260.885476 
L 428.482746 260.885476 
L 432.099091 260.885476 
" clip-path="url(#pf0ea20c836)" style="fill: none; stroke: #ff0000; stroke-opacity: 0.5; stroke-width: 0.25; stroke-linecap: square"/>
    <defs>
     <path id="m09ec5030b6" d="M -0.49999 0.49999 
L 0.50001 0.49999 
L 0.50001 -0.50001 
L -0.49999 -0.50001 
z
"/>
    </defs>
    <g clip-path="url(#pf0ea20c836)">
     <use xlink:href="#m09ec5030b6" x="74.080909" y="260.885476" style="fill: #ff0000; fill-opacity: 0.5"/>
     <use xlink:href="#m09ec5030b6" x="77.697254" y="260.885476" style="fill: #ff0000; fill-opacity: 0.5"/>
     <use xlink:href="#m09ec5030b6" x="81.3136" y="260.885476" style="fill: #ff0000; fill-opacity: 0.5"/>
     <use xlink:href="#m09ec5030b6" x="84.929945" y="260.885476" style="fill: #ff0000; fill-opacity: 0.5"/>
     <use xlink:href="#m09ec5030b6" x="88.54629" y="260.885476" style="fill: #ff0000; fill-opacity: 0.5"/>
     <use xlink:href="#m09ec5030b6" x="92.162635" y="260.885476" style="fill: #ff0000; fill-opacity: 0.5"/>
     <use xlink:href="#m09ec5030b6" x="95.778981" y="260.885476" style="fill: #ff0000; fill-opacity: 0.5"/>
     <use xlink:href="#m09ec5030b6" x="99.395326" y="260.885476" style="fill: #ff0000; fill-opacity: 0.5"/>
     <use xlink:href="#m09ec5030b6" x="103.011671" y="260.885476" style="fill: #ff0000; fill-opacity: 0.5"/>
     <use xlink:href="#m09ec5030b6" x="106.628017" y="260.885476" style="fill: #ff0000; fill-opacity: 0.5"/>
     <use xlink:href="#m09ec5030b6" x="110.244362" y="260.885476" style="fill: #ff0000; fill-opacity: 0.5"/>
     <use xlink:href="#m09ec5030b6" x="113.860707" y="260.885476" style="fill: #ff0000; fill-opacity: 0.5"/>
     <use xlink:href="#m09ec5030b6" x="117.477052" y="260.885476" style="fill: #ff0000; fill-opacity: 0.5"/>
     <use xlink:href="#m09ec5030b6" x="121.093398" y="260.885476" style="fill: #ff0000; fill-opacity: 0.5"/>
     <use xlink:href="#m09ec5030b6" x="124.709743" y="260.885476" style="fill: #ff0000; fill-opacity: 0.5"/>
     <use xlink:href="#m09ec5030b6" x="128.326088" y="260.885476" style="fill: #ff0000; fill-opacity: 0.5"/>
     <use xlink:href="#m09ec5030b6" x="131.942433" y="260.885476" style="fill: #ff0000; fill-opacity: 0.5"/>
     <use xlink:href="#m09ec5030b6" x="135.558779" y="260.885476" style="fill: #ff0000; fill-opacity: 0.5"/>
     <use xlink:href="#m09ec5030b6" x="139.175124" y="260.885476" style="fill: #ff0000; fill-opacity: 0.5"/>
     <use xlink:href="#m09ec5030b6" x="142.791469" y="260.885476" style="fill: #ff0000; fill-opacity: 0.5"/>
     <use xlink:href="#m09ec5030b6" x="146.407815" y="260.885476" style="fill: #ff0000; fill-opacity: 0.5"/>
     <use xlink:href="#m09ec5030b6" x="150.02416" y="260.885476" style="fill: #ff0000; fill-opacity: 0.5"/>
     <use xlink:href="#m09ec5030b6" x="153.640505" y="260.885476" style="fill: #ff0000; fill-opacity: 0.5"/>
     <use xlink:href="#m09ec5030b6" x="157.25685" y="260.885476" style="fill: #ff0000; fill-opacity: 0.5"/>
     <use xlink:href="#m09ec5030b6" x="160.873196" y="260.885476" style="fill: #ff0000; fill-opacity: 0.5"/>
     <use xlink:href="#m09ec5030b6" x="164.489541" y="260.885476" style="fill: #ff0000; fill-opacity: 0.5"/>
     <use xlink:href="#m09ec5030b6" x="168.105886" y="260.885476" style="fill: #ff0000; fill-opacity: 0.5"/>
     <use xlink:href="#m09ec5030b6" x="171.722231" y="260.885476" style="fill: #ff0000; fill-opacity: 0.5"/>
     <use xlink:href="#m09ec5030b6" x="175.338577" y="260.885476" style="fill: #ff0000; fill-opacity: 0.5"/>
     <use xlink:href="#m09ec5030b6" x="178.954922" y="260.885476" style="fill: #ff0000; fill-opacity: 0.5"/>
     <use xlink:href="#m09ec5030b6" x="182.571267" y="260.885476" style="fill: #ff0000; fill-opacity: 0.5"/>
     <use xlink:href="#m09ec5030b6" x="186.187612" y="260.885476" style="fill: #ff0000; fill-opacity: 0.5"/>
     <use xlink:href="#m09ec5030b6" x="189.803958" y="260.885476" style="fill: #ff0000; fill-opacity: 0.5"/>
     <use xlink:href="#m09ec5030b6" x="193.420303" y="260.885476" style="fill: #ff0000; fill-opacity: 0.5"/>
     <use xlink:href="#m09ec5030b6" x="197.036648" y="260.885476" style="fill: #ff0000; fill-opacity: 0.5"/>
     <use xlink:href="#m09ec5030b6" x="200.652994" y="260.885476" style="fill: #ff0000; fill-opacity: 0.5"/>
     <use xlink:href="#m09ec5030b6" x="204.269339" y="260.885476" style="fill: #ff0000; fill-opacity: 0.5"/>
     <use xlink:href="#m09ec5030b6" x="207.885684" y="260.885476" style="fill: #ff0000; fill-opacity: 0.5"/>
     <use xlink:href="#m09ec5030b6" x="211.502029" y="260.885476" style="fill: #ff0000; fill-opacity: 0.5"/>
     <use xlink:href="#m09ec5030b6" x="215.118375" y="260.885476" style="fill: #ff0000; fill-opacity: 0.5"/>
     <use xlink:href="#m09ec5030b6" x="218.73472" y="260.885476" style="fill: #ff0000; fill-opacity: 0.5"/>
     <use xlink:href="#m09ec5030b6" x="222.351065" y="260.885476" style="fill: #ff0000; fill-opacity: 0.5"/>
     <use xlink:href="#m09ec5030b6" x="225.96741" y="260.885476" style="fill: #ff0000; fill-opacity: 0.5"/>
     <use xlink:href="#m09ec5030b6" x="229.583756" y="260.885476" style="fill: #ff0000; fill-opacity: 0.5"/>
     <use xlink:href="#m09ec5030b6" x="233.200101" y="260.885476" style="fill: #ff0000; fill-opacity: 0.5"/>
     <use xlink:href="#m09ec5030b6" x="236.816446" y="260.885476" style="fill: #ff0000; fill-opacity: 0.5"/>
     <use xlink:href="#m09ec5030b6" x="240.432792" y="260.885476" style="fill: #ff0000; fill-opacity: 0.5"/>
     <use xlink:href="#m09ec5030b6" x="244.049137" y="260.885476" style="fill: #ff0000; fill-opacity: 0.5"/>
     <use xlink:href="#m09ec5030b6" x="247.665482" y="260.885476" style="fill: #ff0000; fill-opacity: 0.5"/>
     <use xlink:href="#m09ec5030b6" x="251.281827" y="260.885476" style="fill: #ff0000; fill-opacity: 0.5"/>
     <use xlink:href="#m09ec5030b6" x="254.898173" y="260.885476" style="fill: #ff0000; fill-opacity: 0.5"/>
     <use xlink:href="#m09ec5030b6" x="258.514518" y="260.885476" style="fill: #ff0000; fill-opacity: 0.5"/>
     <use xlink:href="#m09ec5030b6" x="262.130863" y="260.885476" style="fill: #ff0000; fill-opacity: 0.5"/>
     <use xlink:href="#m09ec5030b6" x="265.747208" y="260.885476" style="fill: #ff0000; fill-opacity: 0.5"/>
     <use xlink:href="#m09ec5030b6" x="269.363554" y="260.885476" style="fill: #ff0000; fill-opacity: 0.5"/>
     <use xlink:href="#m09ec5030b6" x="272.979899" y="260.885476" style="fill: #ff0000; fill-opacity: 0.5"/>
     <use xlink:href="#m09ec5030b6" x="276.596244" y="260.885476" style="fill: #ff0000; fill-opacity: 0.5"/>
     <use xlink:href="#m09ec5030b6" x="280.21259" y="260.885476" style="fill: #ff0000; fill-opacity: 0.5"/>
     <use xlink:href="#m09ec5030b6" x="283.828935" y="260.885476" style="fill: #ff0000; fill-opacity: 0.5"/>
     <use xlink:href="#m09ec5030b6" x="287.44528" y="260.885476" style="fill: #ff0000; fill-opacity: 0.5"/>
     <use xlink:href="#m09ec5030b6" x="291.061625" y="260.885476" style="fill: #ff0000; fill-opacity: 0.5"/>
     <use xlink:href="#m09ec5030b6" x="294.677971" y="260.885476" style="fill: #ff0000; fill-opacity: 0.5"/>
     <use xlink:href="#m09ec5030b6" x="298.294316" y="260.885476" style="fill: #ff0000; fill-opacity: 0.5"/>
     <use xlink:href="#m09ec5030b6" x="301.910661" y="260.885476" style="fill: #ff0000; fill-opacity: 0.5"/>
     <use xlink:href="#m09ec5030b6" x="305.527006" y="260.885476" style="fill: #ff0000; fill-opacity: 0.5"/>
     <use xlink:href="#m09ec5030b6" x="309.143352" y="260.885476" style="fill: #ff0000; fill-opacity: 0.5"/>
     <use xlink:href="#m09ec5030b6" x="312.759697" y="260.885476" style="fill: #ff0000; fill-opacity: 0.5"/>
     <use xlink:href="#m09ec5030b6" x="316.376042" y="260.885476" style="fill: #ff0000; fill-opacity: 0.5"/>
     <use xlink:href="#m09ec5030b6" x="319.992388" y="260.885476" style="fill: #ff0000; fill-opacity: 0.5"/>
     <use xlink:href="#m09ec5030b6" x="323.608733" y="260.885476" style="fill: #ff0000; fill-opacity: 0.5"/>
     <use xlink:href="#m09ec5030b6" x="327.225078" y="260.885476" style="fill: #ff0000; fill-opacity: 0.5"/>
     <use xlink:href="#m09ec5030b6" x="330.841423" y="260.885476" style="fill: #ff0000; fill-opacity: 0.5"/>
     <use xlink:href="#m09ec5030b6" x="334.457769" y="260.885476" style="fill: #ff0000; fill-opacity: 0.5"/>
     <use xlink:href="#m09ec5030b6" x="338.074114" y="260.885476" style="fill: #ff0000; fill-opacity: 0.5"/>
     <use xlink:href="#m09ec5030b6" x="341.690459" y="260.885476" style="fill: #ff0000; fill-opacity: 0.5"/>
     <use xlink:href="#m09ec5030b6" x="345.306804" y="260.885476" style="fill: #ff0000; fill-opacity: 0.5"/>
     <use xlink:href="#m09ec5030b6" x="348.92315" y="260.885476" style="fill: #ff0000; fill-opacity: 0.5"/>
     <use xlink:href="#m09ec5030b6" x="352.539495" y="260.885476" style="fill: #ff0000; fill-opacity: 0.5"/>
     <use xlink:href="#m09ec5030b6" x="356.15584" y="260.885476" style="fill: #ff0000; fill-opacity: 0.5"/>
     <use xlink:href="#m09ec5030b6" x="359.772185" y="260.885476" style="fill: #ff0000; fill-opacity: 0.5"/>
     <use xlink:href="#m09ec5030b6" x="363.388531" y="260.885476" style="fill: #ff0000; fill-opacity: 0.5"/>
     <use xlink:href="#m09ec5030b6" x="367.004876" y="260.885476" style="fill: #ff0000; fill-opacity: 0.5"/>
     <use xlink:href="#m09ec5030b6" x="370.621221" y="260.885476" style="fill: #ff0000; fill-opacity: 0.5"/>
     <use xlink:href="#m09ec5030b6" x="374.237567" y="260.885476" style="fill: #ff0000; fill-opacity: 0.5"/>
     <use xlink:href="#m09ec5030b6" x="377.853912" y="260.885476" style="fill: #ff0000; fill-opacity: 0.5"/>
     <use xlink:href="#m09ec5030b6" x="381.470257" y="260.885476" style="fill: #ff0000; fill-opacity: 0.5"/>
     <use xlink:href="#m09ec5030b6" x="385.086602" y="260.885476" style="fill: #ff0000; fill-opacity: 0.5"/>
     <use xlink:href="#m09ec5030b6" x="388.702948" y="260.885476" style="fill: #ff0000; fill-opacity: 0.5"/>
     <use xlink:href="#m09ec5030b6" x="392.319293" y="260.885476" style="fill: #ff0000; fill-opacity: 0.5"/>
     <use xlink:href="#m09ec5030b6" x="395.935638" y="260.885476" style="fill: #ff0000; fill-opacity: 0.5"/>
     <use xlink:href="#m09ec5030b6" x="399.551983" y="260.885476" style="fill: #ff0000; fill-opacity: 0.5"/>
     <use xlink:href="#m09ec5030b6" x="403.168329" y="260.885476" style="fill: #ff0000; fill-opacity: 0.5"/>
     <use xlink:href="#m09ec5030b6" x="406.784674" y="260.885476" style="fill: #ff0000; fill-opacity: 0.5"/>
     <use xlink:href="#m09ec5030b6" x="410.401019" y="260.885476" style="fill: #ff0000; fill-opacity: 0.5"/>
     <use xlink:href="#m09ec5030b6" x="414.017365" y="260.885476" style="fill: #ff0000; fill-opacity: 0.5"/>
     <use xlink:href="#m09ec5030b6" x="417.63371" y="260.885476" style="fill: #ff0000; fill-opacity: 0.5"/>
     <use xlink:href="#m09ec5030b6" x="421.250055" y="260.885476" style="fill: #ff0000; fill-opacity: 0.5"/>
     <use xlink:href="#m09ec5030b6" x="424.8664" y="260.885476" style="fill: #ff0000; fill-opacity: 0.5"/>
     <use xlink:href="#m09ec5030b6" x="428.482746" y="260.885476" style="fill: #ff0000; fill-opacity: 0.5"/>
     <use xlink:href="#m09ec5030b6" x="432.099091" y="260.885476" style="fill: #ff0000; fill-opacity: 0.5"/>
    </g>
   </g>
   <g id="patch_3">
    <path d="M 56.18 303.64 
L 56.18 25.44 
" style="fill: none; stroke: #000000; stroke-width: 0.8; stroke-linejoin: miter; stroke-linecap: square"/>
   </g>
   <g id="patch_4">
    <path d="M 450 303.64 
L 450 25.44 
" style="fill: none; stroke: #000000; stroke-width: 0.8; stroke-linejoin: miter; stroke-linecap: square"/>
   </g>
   <g id="patch_5">
    <path d="M 56.18 303.64 
L 450 303.64 
" style="fill: none; stroke: #000000; stroke-width: 0.8; stroke-linejoin: miter; stroke-linecap: square"/>
   </g>
   <g id="patch_6">
    <path d="M 56.18 25.44 
L 450 25.44 
" style="fill: none; stroke: #000000; stroke-width: 0.8; stroke-linejoin: miter; stroke-linecap: square"/>
   </g>
   <g id="text_17">
    <!-- Average action - 20240412104155 - 50 games -->
    <g transform="translate(112.983438 19.44) scale(0.12 -0.12)">
     <defs>
      <path id="DejaVuSans-2d" d="M 313 2009 
L 1997 2009 
L 1997 1497 
L 313 1497 
L 313 2009 
z
" transform="scale(0.015625)"/>
      <path id="DejaVuSans-35" d="M 691 4666 
L 3169 4666 
L 3169 4134 
L 1269 4134 
L 1269 2991 
Q 1406 3038 1543 3061 
Q 1681 3084 1819 3084 
Q 2600 3084 3056 2656 
Q 3513 2228 3513 1497 
Q 3513 744 3044 326 
Q 2575 -91 1722 -91 
Q 1428 -91 1123 -41 
Q 819 9 494 109 
L 494 744 
Q 775 591 1075 516 
Q 1375 441 1709 441 
Q 2250 441 2565 725 
Q 2881 1009 2881 1497 
Q 2881 1984 2565 2268 
Q 2250 2553 1709 2553 
Q 1456 2553 1204 2497 
Q 953 2441 691 2322 
L 691 4666 
z
" transform="scale(0.015625)"/>
      <path id="DejaVuSans-6d" d="M 3328 2828 
Q 3544 3216 3844 3400 
Q 4144 3584 4550 3584 
Q 5097 3584 5394 3201 
Q 5691 2819 5691 2113 
L 5691 0 
L 5113 0 
L 5113 2094 
Q 5113 2597 4934 2840 
Q 4756 3084 4391 3084 
Q 3944 3084 3684 2787 
Q 3425 2491 3425 1978 
L 3425 0 
L 2847 0 
L 2847 2094 
Q 2847 2600 2669 2842 
Q 2491 3084 2119 3084 
Q 1678 3084 1418 2786 
Q 1159 2488 1159 1978 
L 1159 0 
L 581 0 
L 581 3500 
L 1159 3500 
L 1159 2956 
Q 1356 3278 1631 3431 
Q 1906 3584 2284 3584 
Q 2666 3584 2933 3390 
Q 3200 3197 3328 2828 
z
" transform="scale(0.015625)"/>
      <path id="DejaVuSans-73" d="M 2834 3397 
L 2834 2853 
Q 2591 2978 2328 3040 
Q 2066 3103 1784 3103 
Q 1356 3103 1142 2972 
Q 928 2841 928 2578 
Q 928 2378 1081 2264 
Q 1234 2150 1697 2047 
L 1894 2003 
Q 2506 1872 2764 1633 
Q 3022 1394 3022 966 
Q 3022 478 2636 193 
Q 2250 -91 1575 -91 
Q 1294 -91 989 -36 
Q 684 19 347 128 
L 347 722 
Q 666 556 975 473 
Q 1284 391 1588 391 
Q 1994 391 2212 530 
Q 2431 669 2431 922 
Q 2431 1156 2273 1281 
Q 2116 1406 1581 1522 
L 1381 1569 
Q 847 1681 609 1914 
Q 372 2147 372 2553 
Q 372 3047 722 3315 
Q 1072 3584 1716 3584 
Q 2034 3584 2315 3537 
Q 2597 3491 2834 3397 
z
" transform="scale(0.015625)"/>
     </defs>
     <use xlink:href="#DejaVuSans-41"/>
     <use xlink:href="#DejaVuSans-76" x="62.533203"/>
     <use xlink:href="#DejaVuSans-65" x="121.712891"/>
     <use xlink:href="#DejaVuSans-72" x="183.236328"/>
     <use xlink:href="#DejaVuSans-61" x="224.349609"/>
     <use xlink:href="#DejaVuSans-67" x="285.628906"/>
     <use xlink:href="#DejaVuSans-65" x="349.105469"/>
     <use xlink:href="#DejaVuSans-20" x="410.628906"/>
     <use xlink:href="#DejaVuSans-61" x="442.416016"/>
     <use xlink:href="#DejaVuSans-63" x="503.695312"/>
     <use xlink:href="#DejaVuSans-74" x="558.675781"/>
     <use xlink:href="#DejaVuSans-69" x="597.884766"/>
     <use xlink:href="#DejaVuSans-6f" x="625.667969"/>
     <use xlink:href="#DejaVuSans-6e" x="686.849609"/>
     <use xlink:href="#DejaVuSans-20" x="750.228516"/>
     <use xlink:href="#DejaVuSans-2d" x="782.015625"/>
     <use xlink:href="#DejaVuSans-20" x="818.099609"/>
     <use xlink:href="#DejaVuSans-32" x="849.886719"/>
     <use xlink:href="#DejaVuSans-30" x="913.509766"/>
     <use xlink:href="#DejaVuSans-32" x="977.132812"/>
     <use xlink:href="#DejaVuSans-34" x="1040.755859"/>
     <use xlink:href="#DejaVuSans-30" x="1104.378906"/>
     <use xlink:href="#DejaVuSans-34" x="1168.001953"/>
     <use xlink:href="#DejaVuSans-31" x="1231.625"/>
     <use xlink:href="#DejaVuSans-32" x="1295.248047"/>
     <use xlink:href="#DejaVuSans-31" x="1358.871094"/>
     <use xlink:href="#DejaVuSans-30" x="1422.494141"/>
     <use xlink:href="#DejaVuSans-34" x="1486.117188"/>
     <use xlink:href="#DejaVuSans-31" x="1549.740234"/>
     <use xlink:href="#DejaVuSans-35" x="1613.363281"/>
     <use xlink:href="#DejaVuSans-35" x="1676.986328"/>
     <use xlink:href="#DejaVuSans-20" x="1740.609375"/>
     <use xlink:href="#DejaVuSans-2d" x="1772.396484"/>
     <use xlink:href="#DejaVuSans-20" x="1808.480469"/>
     <use xlink:href="#DejaVuSans-35" x="1840.267578"/>
     <use xlink:href="#DejaVuSans-30" x="1903.890625"/>
     <use xlink:href="#DejaVuSans-20" x="1967.513672"/>
     <use xlink:href="#DejaVuSans-67" x="1999.300781"/>
     <use xlink:href="#DejaVuSans-61" x="2062.777344"/>
     <use xlink:href="#DejaVuSans-6d" x="2124.056641"/>
     <use xlink:href="#DejaVuSans-65" x="2221.46875"/>
     <use xlink:href="#DejaVuSans-73" x="2282.992188"/>
    </g>
   </g>
   <g id="legend_1">
    <g id="patch_7">
     <path d="M 328.579687 92.70875 
L 443 92.70875 
Q 445 92.70875 445 90.70875 
L 445 32.44 
Q 445 30.44 443 30.44 
L 328.579687 30.44 
Q 326.579687 30.44 326.579687 32.44 
L 326.579687 90.70875 
Q 326.579687 92.70875 328.579687 92.70875 
z
" style="fill: #ffffff; opacity: 0.8; stroke: #cccccc; stroke-linejoin: miter"/>
    </g>
    <g id="line2d_22">
     <path d="M 330.579687 38.538438 
L 340.579687 38.538438 
L 350.579687 38.538438 
" style="fill: none; stroke: #0000ff; stroke-linecap: square"/>
     <g>
      <use xlink:href="#me10b7e7eb1" x="340.579687" y="38.538438" style="fill: #0000ff"/>
     </g>
    </g>
    <g id="text_18">
     <!-- LLM -->
     <g transform="translate(358.579687 42.038438) scale(0.1 -0.1)">
      <defs>
       <path id="DejaVuSans-4c" d="M 628 4666 
L 1259 4666 
L 1259 531 
L 3531 531 
L 3531 0 
L 628 0 
L 628 4666 
z
" transform="scale(0.015625)"/>
       <path id="DejaVuSans-4d" d="M 628 4666 
L 1569 4666 
L 2759 1491 
L 3956 4666 
L 4897 4666 
L 4897 0 
L 4281 0 
L 4281 4097 
L 3078 897 
L 2444 897 
L 1241 4097 
L 1241 0 
L 628 0 
L 628 4666 
z
" transform="scale(0.015625)"/>
      </defs>
      <use xlink:href="#DejaVuSans-4c"/>
      <use xlink:href="#DejaVuSans-4c" x="55.712891"/>
      <use xlink:href="#DejaVuSans-4d" x="111.425781"/>
     </g>
    </g>
    <g id="line2d_23">
     <path d="M 330.579687 53.216563 
L 340.579687 53.216563 
L 350.579687 53.216563 
" style="fill: none; stroke: #0000ff; stroke-opacity: 0.5; stroke-width: 0.5; stroke-linecap: square"/>
     <g>
      <use xlink:href="#m40cc671f16" x="340.579687" y="53.216563" style="fill: #0000ff; fill-opacity: 0.5"/>
     </g>
    </g>
    <g id="text_19">
     <!-- LLM mean -->
     <g transform="translate(358.579687 56.716563) scale(0.1 -0.1)">
      <use xlink:href="#DejaVuSans-4c"/>
      <use xlink:href="#DejaVuSans-4c" x="55.712891"/>
      <use xlink:href="#DejaVuSans-4d" x="111.425781"/>
      <use xlink:href="#DejaVuSans-20" x="197.705078"/>
      <use xlink:href="#DejaVuSans-6d" x="229.492188"/>
      <use xlink:href="#DejaVuSans-65" x="326.904297"/>
      <use xlink:href="#DejaVuSans-61" x="388.427734"/>
      <use xlink:href="#DejaVuSans-6e" x="449.707031"/>
     </g>
    </g>
    <g id="line2d_24">
     <path d="M 330.579687 67.894688 
L 340.579687 67.894688 
L 350.579687 67.894688 
" style="fill: none; stroke: #ff0000; stroke-width: 0.5; stroke-linecap: square"/>
     <g>
      <use xlink:href="#mdd8e79b275" x="340.579687" y="67.894688" style="fill: #ff0000"/>
     </g>
    </g>
    <g id="text_20">
     <!-- DEF_sw20 -->
     <g transform="translate(358.579687 71.394688) scale(0.1 -0.1)">
      <defs>
       <path id="DejaVuSans-44" d="M 1259 4147 
L 1259 519 
L 2022 519 
Q 2988 519 3436 956 
Q 3884 1394 3884 2338 
Q 3884 3275 3436 3711 
Q 2988 4147 2022 4147 
L 1259 4147 
z
M 628 4666 
L 1925 4666 
Q 3281 4666 3915 4102 
Q 4550 3538 4550 2338 
Q 4550 1131 3912 565 
Q 3275 0 1925 0 
L 628 0 
L 628 4666 
z
" transform="scale(0.015625)"/>
       <path id="DejaVuSans-45" d="M 628 4666 
L 3578 4666 
L 3578 4134 
L 1259 4134 
L 1259 2753 
L 3481 2753 
L 3481 2222 
L 1259 2222 
L 1259 531 
L 3634 531 
L 3634 0 
L 628 0 
L 628 4666 
z
" transform="scale(0.015625)"/>
       <path id="DejaVuSans-46" d="M 628 4666 
L 3309 4666 
L 3309 4134 
L 1259 4134 
L 1259 2759 
L 3109 2759 
L 3109 2228 
L 1259 2228 
L 1259 0 
L 628 0 
L 628 4666 
z
" transform="scale(0.015625)"/>
       <path id="DejaVuSans-5f" d="M 3263 -1063 
L 3263 -1509 
L -63 -1509 
L -63 -1063 
L 3263 -1063 
z
" transform="scale(0.015625)"/>
       <path id="DejaVuSans-77" d="M 269 3500 
L 844 3500 
L 1563 769 
L 2278 3500 
L 2956 3500 
L 3675 769 
L 4391 3500 
L 4966 3500 
L 4050 0 
L 3372 0 
L 2619 2869 
L 1863 0 
L 1184 0 
L 269 3500 
z
" transform="scale(0.015625)"/>
      </defs>
      <use xlink:href="#DejaVuSans-44"/>
      <use xlink:href="#DejaVuSans-45" x="77.001953"/>
      <use xlink:href="#DejaVuSans-46" x="140.185547"/>
      <use xlink:href="#DejaVuSans-5f" x="197.705078"/>
      <use xlink:href="#DejaVuSans-73" x="247.705078"/>
      <use xlink:href="#DejaVuSans-77" x="299.804688"/>
      <use xlink:href="#DejaVuSans-32" x="381.591797"/>
      <use xlink:href="#DejaVuSans-30" x="445.214844"/>
     </g>
    </g>
    <g id="line2d_25">
     <path d="M 330.579687 82.850938 
L 340.579687 82.850938 
L 350.579687 82.850938 
" style="fill: none; stroke: #ff0000; stroke-opacity: 0.5; stroke-width: 0.25; stroke-linecap: square"/>
     <g>
      <use xlink:href="#m09ec5030b6" x="340.579687" y="82.850938" style="fill: #ff0000; fill-opacity: 0.5"/>
     </g>
    </g>
    <g id="text_21">
     <!-- DEF_sw20 mean -->
     <g transform="translate(358.579687 86.350938) scale(0.1 -0.1)">
      <use xlink:href="#DejaVuSans-44"/>
      <use xlink:href="#DejaVuSans-45" x="77.001953"/>
      <use xlink:href="#DejaVuSans-46" x="140.185547"/>
      <use xlink:href="#DejaVuSans-5f" x="197.705078"/>
      <use xlink:href="#DejaVuSans-73" x="247.705078"/>
      <use xlink:href="#DejaVuSans-77" x="299.804688"/>
      <use xlink:href="#DejaVuSans-32" x="381.591797"/>
      <use xlink:href="#DejaVuSans-30" x="445.214844"/>
      <use xlink:href="#DejaVuSans-20" x="508.837891"/>
      <use xlink:href="#DejaVuSans-6d" x="540.625"/>
      <use xlink:href="#DejaVuSans-65" x="638.037109"/>
      <use xlink:href="#DejaVuSans-61" x="699.560547"/>
      <use xlink:href="#DejaVuSans-6e" x="760.839844"/>
     </g>
    </g>
   </g>
  </g>
 </g>
 <defs>
  <clipPath id="pf0ea20c836">
   <rect x="56.18" y="25.44" width="393.82" height="278.2"/>
  </clipPath>
 </defs>
</svg>
