<?xml version="1.0" encoding="utf-8" standalone="no"?>
<!DOCTYPE svg PUBLIC "-//W3C//DTD SVG 1.1//EN"
  "http://www.w3.org/Graphics/SVG/1.1/DTD/svg11.dtd">
<svg xmlns:xlink="http://www.w3.org/1999/xlink" width="460.8pt" height="345.6pt" viewBox="0 0 460.8 345.6" xmlns="http://www.w3.org/2000/svg" version="1.1">
 <metadata>
  <rdf:RDF xmlns:dc="http://purl.org/dc/elements/1.1/" xmlns:cc="http://creativecommons.org/ns#" xmlns:rdf="http://www.w3.org/1999/02/22-rdf-syntax-ns#">
   <cc:Work>
    <dc:type rdf:resource="http://purl.org/dc/dcmitype/StillImage"/>
    <dc:date>2024-04-29T10:01:27.834212</dc:date>
    <dc:format>image/svg+xml</dc:format>
    <dc:creator>
     <cc:Agent>
      <dc:title>Matplotlib v3.8.0, https://matplotlib.org/</dc:title>
     </cc:Agent>
    </dc:creator>
   </cc:Work>
  </rdf:RDF>
 </metadata>
 <defs>
  <style type="text/css">*{stroke-linejoin: round; stroke-linecap: butt}</style>
 </defs>
 <g id="figure_1">
  <g id="patch_1">
   <path d="M 0 345.6 
L 460.8 345.6 
L 460.8 0 
L 0 0 
z
" style="fill: #ffffff"/>
  </g>
  <g id="axes_1">
   <g id="patch_2">
    <path d="M 47.81 303.64 
L 450 303.64 
L 450 25.44 
L 47.81 25.44 
z
" style="fill: #ffffff"/>
   </g>
   <g id="PolyCollection_1">
    <defs>
     <path id="ma102664240" d="M 66.091364 -291.045909 
L 66.091364 -291.045909 
L 69.784568 -307.514545 
L 73.477773 -289.225415 
L 77.170978 -268.329912 
L 80.864183 -253.763671 
L 84.557388 -242.752247 
L 88.250592 -233.806662 
L 91.943797 -226.268487 
L 95.637002 -219.809884 
L 99.330207 -214.118892 
L 103.023411 -209.041757 
L 106.716616 -204.443571 
L 110.409821 -200.211243 
L 114.103026 -196.322893 
L 117.79623 -192.786806 
L 121.489435 -189.47413 
L 125.18264 -186.383243 
L 128.875845 -183.54012 
L 132.56905 -180.858141 
L 136.262254 -178.334089 
L 139.955459 -176.01446 
L 143.648664 -173.819061 
L 147.341869 -171.714541 
L 151.035073 -169.776045 
L 154.728278 -167.868503 
L 158.421483 -166.116046 
L 162.114688 -164.488211 
L 165.807893 -162.948694 
L 169.501097 -161.523973 
L 173.194302 -160.110712 
L 176.887507 -158.766222 
L 180.580712 -157.459441 
L 184.273916 -156.169818 
L 187.967121 -154.976444 
L 191.660326 -153.861388 
L 195.353531 -152.767708 
L 199.046736 -151.719086 
L 202.73994 -150.689353 
L 206.433145 -149.678991 
L 210.12635 -148.663213 
L 213.819555 -147.691381 
L 217.512759 -146.73945 
L 221.205964 -145.885875 
L 224.899169 -145.006353 
L 228.592374 -144.141516 
L 232.285579 -143.316018 
L 235.978783 -142.551727 
L 239.671988 -141.776121 
L 243.365193 -140.998437 
L 247.058398 -140.241802 
L 250.751602 -139.531907 
L 254.444807 -138.827668 
L 258.138012 -138.142628 
L 261.831217 -137.476019 
L 265.524421 -136.814585 
L 269.217626 -136.182563 
L 272.910831 -135.5669 
L 276.604036 -134.954065 
L 280.297241 -134.36918 
L 283.990445 -133.775034 
L 287.68365 -133.218607 
L 291.376855 -132.651442 
L 295.07006 -132.108073 
L 298.763264 -131.590646 
L 302.456469 -131.085326 
L 306.149674 -130.551031 
L 309.842879 -130.03417 
L 313.536084 -129.537241 
L 317.229288 -129.04119 
L 320.922493 -128.54743 
L 324.615698 -128.080576 
L 328.308903 -127.613324 
L 332.002107 -127.165165 
L 335.695312 -126.707835 
L 339.388517 -126.25882 
L 343.081722 -125.817914 
L 346.774927 -125.403783 
L 350.468131 -124.978696 
L 354.161336 -124.561106 
L 357.854541 -124.150825 
L 361.547746 -123.747672 
L 365.24095 -123.360335 
L 368.934155 -122.970983 
L 372.62736 -122.588233 
L 376.320565 -122.220963 
L 380.01377 -121.870928 
L 383.706974 -121.516228 
L 387.400179 -121.16756 
L 391.093384 -120.815671 
L 394.786589 -120.489479 
L 398.479793 -120.168836 
L 402.172998 -119.833662 
L 405.866203 -119.512884 
L 409.559408 -119.208114 
L 413.252612 -118.897533 
L 416.945817 -118.591866 
L 420.639022 -118.301772 
L 424.332227 -118.016302 
L 428.025432 -117.72464 
L 431.718636 -117.448115 
L 431.718636 -54.605455 
L 431.718636 -54.605455 
L 428.025432 -54.639197 
L 424.332227 -54.710501 
L 420.639022 -54.748636 
L 416.945817 -54.788889 
L 413.252612 -54.868355 
L 409.559408 -54.951101 
L 405.866203 -54.999257 
L 402.172998 -55.088468 
L 398.479793 -55.222226 
L 394.786589 -55.279961 
L 391.093384 -55.340649 
L 387.400179 -55.487704 
L 383.706974 -55.597221 
L 380.01377 -55.711361 
L 376.320565 -55.787741 
L 372.62736 -55.911131 
L 368.934155 -56.085611 
L 365.24095 -56.267079 
L 361.547746 -56.408559 
L 357.854541 -56.604242 
L 354.161336 -56.807959 
L 350.468131 -57.020109 
L 346.774927 -57.241119 
L 343.081722 -57.370512 
L 339.388517 -57.608794 
L 335.695312 -57.857324 
L 332.002107 -58.116649 
L 328.308903 -58.278834 
L 324.615698 -58.503116 
L 320.922493 -58.682643 
L 317.229288 -58.985706 
L 313.536084 -59.243092 
L 309.842879 -59.454272 
L 306.149674 -59.735823 
L 302.456469 -60.094414 
L 298.763264 -60.225889 
L 295.07006 -60.365475 
L 291.376855 -60.5736 
L 287.68365 -60.857057 
L 283.990445 -61.028145 
L 280.297241 -61.340205 
L 276.604036 -61.536089 
L 272.910831 -61.811135 
L 269.217626 -62.033923 
L 265.524421 -62.270841 
L 261.831217 -62.594676 
L 258.138012 -62.864783 
L 254.444807 -63.152485 
L 250.751602 -63.459136 
L 247.058398 -63.709689 
L 243.365193 -64.138169 
L 239.671988 -64.594978 
L 235.978783 -64.913041 
L 232.285579 -65.092411 
L 228.592374 -65.454464 
L 224.899169 -65.934427 
L 221.205964 -66.356582 
L 217.512759 -66.542108 
L 213.819555 -67.123269 
L 210.12635 -67.647587 
L 206.433145 -68.321194 
L 202.73994 -68.730406 
L 199.046736 -69.074175 
L 195.353531 -69.34914 
L 191.660326 -69.654681 
L 187.967121 -69.887511 
L 184.273916 -70.261406 
L 180.580712 -70.920997 
L 176.887507 -71.396034 
L 173.194302 -71.800687 
L 169.501097 -72.2572 
L 165.807893 -72.511246 
L 162.114688 -72.943141 
L 158.421483 -73.438364 
L 154.728278 -74.160565 
L 151.035073 -75.501885 
L 147.341869 -76.304525 
L 143.648664 -77.603412 
L 139.955459 -78.702806 
L 136.262254 -79.780256 
L 132.56905 -81.489172 
L 128.875845 -83.258053 
L 125.18264 -84.854849 
L 121.489435 -87.326854 
L 117.79623 -90.015864 
L 114.103026 -92.040601 
L 110.409821 -95.267642 
L 106.716616 -98.579292 
L 103.023411 -103.309796 
L 99.330207 -106.246384 
L 95.637002 -111.864563 
L 91.943797 -115.566544 
L 88.250592 -121.091977 
L 84.557388 -126.535293 
L 80.864183 -130.215695 
L 77.170978 -138.823158 
L 73.477773 -141.404284 
L 69.784568 -195.05966 
L 66.091364 -291.045909 
z
" style="stroke: #0000ff; stroke-opacity: 0.2"/>
    </defs>
    <g clip-path="url(#pcf00a8c583)">
     <use xlink:href="#ma102664240" x="0" y="345.6" style="fill: #0000ff; fill-opacity: 0.2; stroke: #0000ff; stroke-opacity: 0.2"/>
    </g>
   </g>
   <g id="matplotlib.axis_1">
    <g id="xtick_1">
     <g id="line2d_1">
      <defs>
       <path id="mfedce31892" d="M 0 0 
L 0 3.5 
" style="stroke: #000000; stroke-width: 0.8"/>
      </defs>
      <g>
       <use xlink:href="#mfedce31892" x="66.091364" y="303.64" style="stroke: #000000; stroke-width: 0.8"/>
      </g>
     </g>
     <g id="text_1">
      <!-- 0 -->
      <g transform="translate(62.910114 318.238437) scale(0.1 -0.1)">
       <defs>
        <path id="DejaVuSans-30" d="M 2034 4250 
Q 1547 4250 1301 3770 
Q 1056 3291 1056 2328 
Q 1056 1369 1301 889 
Q 1547 409 2034 409 
Q 2525 409 2770 889 
Q 3016 1369 3016 2328 
Q 3016 3291 2770 3770 
Q 2525 4250 2034 4250 
z
M 2034 4750 
Q 2819 4750 3233 4129 
Q 3647 3509 3647 2328 
Q 3647 1150 3233 529 
Q 2819 -91 2034 -91 
Q 1250 -91 836 529 
Q 422 1150 422 2328 
Q 422 3509 836 4129 
Q 1250 4750 2034 4750 
z
" transform="scale(0.015625)"/>
       </defs>
       <use xlink:href="#DejaVuSans-30"/>
      </g>
     </g>
    </g>
    <g id="xtick_2">
     <g id="line2d_2">
      <g>
       <use xlink:href="#mfedce31892" x="139.955459" y="303.64" style="stroke: #000000; stroke-width: 0.8"/>
      </g>
     </g>
     <g id="text_2">
      <!-- 20 -->
      <g transform="translate(133.592959 318.238437) scale(0.1 -0.1)">
       <defs>
        <path id="DejaVuSans-32" d="M 1228 531 
L 3431 531 
L 3431 0 
L 469 0 
L 469 531 
Q 828 903 1448 1529 
Q 2069 2156 2228 2338 
Q 2531 2678 2651 2914 
Q 2772 3150 2772 3378 
Q 2772 3750 2511 3984 
Q 2250 4219 1831 4219 
Q 1534 4219 1204 4116 
Q 875 4013 500 3803 
L 500 4441 
Q 881 4594 1212 4672 
Q 1544 4750 1819 4750 
Q 2544 4750 2975 4387 
Q 3406 4025 3406 3419 
Q 3406 3131 3298 2873 
Q 3191 2616 2906 2266 
Q 2828 2175 2409 1742 
Q 1991 1309 1228 531 
z
" transform="scale(0.015625)"/>
       </defs>
       <use xlink:href="#DejaVuSans-32"/>
       <use xlink:href="#DejaVuSans-30" x="63.623047"/>
      </g>
     </g>
    </g>
    <g id="xtick_3">
     <g id="line2d_3">
      <g>
       <use xlink:href="#mfedce31892" x="213.819555" y="303.64" style="stroke: #000000; stroke-width: 0.8"/>
      </g>
     </g>
     <g id="text_3">
      <!-- 40 -->
      <g transform="translate(207.457055 318.238437) scale(0.1 -0.1)">
       <defs>
        <path id="DejaVuSans-34" d="M 2419 4116 
L 825 1625 
L 2419 1625 
L 2419 4116 
z
M 2253 4666 
L 3047 4666 
L 3047 1625 
L 3713 1625 
L 3713 1100 
L 3047 1100 
L 3047 0 
L 2419 0 
L 2419 1100 
L 313 1100 
L 313 1709 
L 2253 4666 
z
" transform="scale(0.015625)"/>
       </defs>
       <use xlink:href="#DejaVuSans-34"/>
       <use xlink:href="#DejaVuSans-30" x="63.623047"/>
      </g>
     </g>
    </g>
    <g id="xtick_4">
     <g id="line2d_4">
      <g>
       <use xlink:href="#mfedce31892" x="287.68365" y="303.64" style="stroke: #000000; stroke-width: 0.8"/>
      </g>
     </g>
     <g id="text_4">
      <!-- 60 -->
      <g transform="translate(281.32115 318.238437) scale(0.1 -0.1)">
       <defs>
        <path id="DejaVuSans-36" d="M 2113 2584 
Q 1688 2584 1439 2293 
Q 1191 2003 1191 1497 
Q 1191 994 1439 701 
Q 1688 409 2113 409 
Q 2538 409 2786 701 
Q 3034 994 3034 1497 
Q 3034 2003 2786 2293 
Q 2538 2584 2113 2584 
z
M 3366 4563 
L 3366 3988 
Q 3128 4100 2886 4159 
Q 2644 4219 2406 4219 
Q 1781 4219 1451 3797 
Q 1122 3375 1075 2522 
Q 1259 2794 1537 2939 
Q 1816 3084 2150 3084 
Q 2853 3084 3261 2657 
Q 3669 2231 3669 1497 
Q 3669 778 3244 343 
Q 2819 -91 2113 -91 
Q 1303 -91 875 529 
Q 447 1150 447 2328 
Q 447 3434 972 4092 
Q 1497 4750 2381 4750 
Q 2619 4750 2861 4703 
Q 3103 4656 3366 4563 
z
" transform="scale(0.015625)"/>
       </defs>
       <use xlink:href="#DejaVuSans-36"/>
       <use xlink:href="#DejaVuSans-30" x="63.623047"/>
      </g>
     </g>
    </g>
    <g id="xtick_5">
     <g id="line2d_5">
      <g>
       <use xlink:href="#mfedce31892" x="361.547746" y="303.64" style="stroke: #000000; stroke-width: 0.8"/>
      </g>
     </g>
     <g id="text_5">
      <!-- 80 -->
      <g transform="translate(355.185246 318.238437) scale(0.1 -0.1)">
       <defs>
        <path id="DejaVuSans-38" d="M 2034 2216 
Q 1584 2216 1326 1975 
Q 1069 1734 1069 1313 
Q 1069 891 1326 650 
Q 1584 409 2034 409 
Q 2484 409 2743 651 
Q 3003 894 3003 1313 
Q 3003 1734 2745 1975 
Q 2488 2216 2034 2216 
z
M 1403 2484 
Q 997 2584 770 2862 
Q 544 3141 544 3541 
Q 544 4100 942 4425 
Q 1341 4750 2034 4750 
Q 2731 4750 3128 4425 
Q 3525 4100 3525 3541 
Q 3525 3141 3298 2862 
Q 3072 2584 2669 2484 
Q 3125 2378 3379 2068 
Q 3634 1759 3634 1313 
Q 3634 634 3220 271 
Q 2806 -91 2034 -91 
Q 1263 -91 848 271 
Q 434 634 434 1313 
Q 434 1759 690 2068 
Q 947 2378 1403 2484 
z
M 1172 3481 
Q 1172 3119 1398 2916 
Q 1625 2713 2034 2713 
Q 2441 2713 2670 2916 
Q 2900 3119 2900 3481 
Q 2900 3844 2670 4047 
Q 2441 4250 2034 4250 
Q 1625 4250 1398 4047 
Q 1172 3844 1172 3481 
z
" transform="scale(0.015625)"/>
       </defs>
       <use xlink:href="#DejaVuSans-38"/>
       <use xlink:href="#DejaVuSans-30" x="63.623047"/>
      </g>
     </g>
    </g>
    <g id="xtick_6">
     <g id="line2d_6">
      <g>
       <use xlink:href="#mfedce31892" x="435.411841" y="303.64" style="stroke: #000000; stroke-width: 0.8"/>
      </g>
     </g>
     <g id="text_6">
      <!-- 100 -->
      <g transform="translate(425.868091 318.238437) scale(0.1 -0.1)">
       <defs>
        <path id="DejaVuSans-31" d="M 794 531 
L 1825 531 
L 1825 4091 
L 703 3866 
L 703 4441 
L 1819 4666 
L 2450 4666 
L 2450 531 
L 3481 531 
L 3481 0 
L 794 0 
L 794 531 
z
" transform="scale(0.015625)"/>
       </defs>
       <use xlink:href="#DejaVuSans-31"/>
       <use xlink:href="#DejaVuSans-30" x="63.623047"/>
       <use xlink:href="#DejaVuSans-30" x="127.246094"/>
      </g>
     </g>
    </g>
    <g id="text_7">
     <!-- Iteration -->
     <g transform="translate(227.696406 331.916562) scale(0.1 -0.1)">
      <defs>
       <path id="DejaVuSans-49" d="M 628 4666 
L 1259 4666 
L 1259 0 
L 628 0 
L 628 4666 
z
" transform="scale(0.015625)"/>
       <path id="DejaVuSans-74" d="M 1172 4494 
L 1172 3500 
L 2356 3500 
L 2356 3053 
L 1172 3053 
L 1172 1153 
Q 1172 725 1289 603 
Q 1406 481 1766 481 
L 2356 481 
L 2356 0 
L 1766 0 
Q 1100 0 847 248 
Q 594 497 594 1153 
L 594 3053 
L 172 3053 
L 172 3500 
L 594 3500 
L 594 4494 
L 1172 4494 
z
" transform="scale(0.015625)"/>
       <path id="DejaVuSans-65" d="M 3597 1894 
L 3597 1613 
L 953 1613 
Q 991 1019 1311 708 
Q 1631 397 2203 397 
Q 2534 397 2845 478 
Q 3156 559 3463 722 
L 3463 178 
Q 3153 47 2828 -22 
Q 2503 -91 2169 -91 
Q 1331 -91 842 396 
Q 353 884 353 1716 
Q 353 2575 817 3079 
Q 1281 3584 2069 3584 
Q 2775 3584 3186 3129 
Q 3597 2675 3597 1894 
z
M 3022 2063 
Q 3016 2534 2758 2815 
Q 2500 3097 2075 3097 
Q 1594 3097 1305 2825 
Q 1016 2553 972 2059 
L 3022 2063 
z
" transform="scale(0.015625)"/>
       <path id="DejaVuSans-72" d="M 2631 2963 
Q 2534 3019 2420 3045 
Q 2306 3072 2169 3072 
Q 1681 3072 1420 2755 
Q 1159 2438 1159 1844 
L 1159 0 
L 581 0 
L 581 3500 
L 1159 3500 
L 1159 2956 
Q 1341 3275 1631 3429 
Q 1922 3584 2338 3584 
Q 2397 3584 2469 3576 
Q 2541 3569 2628 3553 
L 2631 2963 
z
" transform="scale(0.015625)"/>
       <path id="DejaVuSans-61" d="M 2194 1759 
Q 1497 1759 1228 1600 
Q 959 1441 959 1056 
Q 959 750 1161 570 
Q 1363 391 1709 391 
Q 2188 391 2477 730 
Q 2766 1069 2766 1631 
L 2766 1759 
L 2194 1759 
z
M 3341 1997 
L 3341 0 
L 2766 0 
L 2766 531 
Q 2569 213 2275 61 
Q 1981 -91 1556 -91 
Q 1019 -91 701 211 
Q 384 513 384 1019 
Q 384 1609 779 1909 
Q 1175 2209 1959 2209 
L 2766 2209 
L 2766 2266 
Q 2766 2663 2505 2880 
Q 2244 3097 1772 3097 
Q 1472 3097 1187 3025 
Q 903 2953 641 2809 
L 641 3341 
Q 956 3463 1253 3523 
Q 1550 3584 1831 3584 
Q 2591 3584 2966 3190 
Q 3341 2797 3341 1997 
z
" transform="scale(0.015625)"/>
       <path id="DejaVuSans-69" d="M 603 3500 
L 1178 3500 
L 1178 0 
L 603 0 
L 603 3500 
z
M 603 4863 
L 1178 4863 
L 1178 4134 
L 603 4134 
L 603 4863 
z
" transform="scale(0.015625)"/>
       <path id="DejaVuSans-6f" d="M 1959 3097 
Q 1497 3097 1228 2736 
Q 959 2375 959 1747 
Q 959 1119 1226 758 
Q 1494 397 1959 397 
Q 2419 397 2687 759 
Q 2956 1122 2956 1747 
Q 2956 2369 2687 2733 
Q 2419 3097 1959 3097 
z
M 1959 3584 
Q 2709 3584 3137 3096 
Q 3566 2609 3566 1747 
Q 3566 888 3137 398 
Q 2709 -91 1959 -91 
Q 1206 -91 779 398 
Q 353 888 353 1747 
Q 353 2609 779 3096 
Q 1206 3584 1959 3584 
z
" transform="scale(0.015625)"/>
       <path id="DejaVuSans-6e" d="M 3513 2113 
L 3513 0 
L 2938 0 
L 2938 2094 
Q 2938 2591 2744 2837 
Q 2550 3084 2163 3084 
Q 1697 3084 1428 2787 
Q 1159 2491 1159 1978 
L 1159 0 
L 581 0 
L 581 3500 
L 1159 3500 
L 1159 2956 
Q 1366 3272 1645 3428 
Q 1925 3584 2291 3584 
Q 2894 3584 3203 3211 
Q 3513 2838 3513 2113 
z
" transform="scale(0.015625)"/>
      </defs>
      <use xlink:href="#DejaVuSans-49"/>
      <use xlink:href="#DejaVuSans-74" x="29.492188"/>
      <use xlink:href="#DejaVuSans-65" x="68.701172"/>
      <use xlink:href="#DejaVuSans-72" x="130.224609"/>
      <use xlink:href="#DejaVuSans-61" x="171.337891"/>
      <use xlink:href="#DejaVuSans-74" x="232.617188"/>
      <use xlink:href="#DejaVuSans-69" x="271.826172"/>
      <use xlink:href="#DejaVuSans-6f" x="299.609375"/>
      <use xlink:href="#DejaVuSans-6e" x="360.791016"/>
     </g>
    </g>
   </g>
   <g id="matplotlib.axis_2">
    <g id="ytick_1">
     <g id="line2d_7">
      <defs>
       <path id="m58f05ba65f" d="M 0 0 
L -3.5 0 
" style="stroke: #000000; stroke-width: 0.8"/>
      </defs>
      <g>
       <use xlink:href="#m58f05ba65f" x="47.81" y="279.475338" style="stroke: #000000; stroke-width: 0.8"/>
      </g>
     </g>
     <g id="text_8">
      <!-- 0.0 -->
      <g transform="translate(24.906875 283.274557) scale(0.1 -0.1)">
       <defs>
        <path id="DejaVuSans-2e" d="M 684 794 
L 1344 794 
L 1344 0 
L 684 0 
L 684 794 
z
" transform="scale(0.015625)"/>
       </defs>
       <use xlink:href="#DejaVuSans-30"/>
       <use xlink:href="#DejaVuSans-2e" x="63.623047"/>
       <use xlink:href="#DejaVuSans-30" x="95.410156"/>
      </g>
     </g>
    </g>
    <g id="ytick_2">
     <g id="line2d_8">
      <g>
       <use xlink:href="#m58f05ba65f" x="47.81" y="234.036702" style="stroke: #000000; stroke-width: 0.8"/>
      </g>
     </g>
     <g id="text_9">
      <!-- 0.2 -->
      <g transform="translate(24.906875 237.835921) scale(0.1 -0.1)">
       <use xlink:href="#DejaVuSans-30"/>
       <use xlink:href="#DejaVuSans-2e" x="63.623047"/>
       <use xlink:href="#DejaVuSans-32" x="95.410156"/>
      </g>
     </g>
    </g>
    <g id="ytick_3">
     <g id="line2d_9">
      <g>
       <use xlink:href="#m58f05ba65f" x="47.81" y="188.598067" style="stroke: #000000; stroke-width: 0.8"/>
      </g>
     </g>
     <g id="text_10">
      <!-- 0.4 -->
      <g transform="translate(24.906875 192.397285) scale(0.1 -0.1)">
       <use xlink:href="#DejaVuSans-30"/>
       <use xlink:href="#DejaVuSans-2e" x="63.623047"/>
       <use xlink:href="#DejaVuSans-34" x="95.410156"/>
      </g>
     </g>
    </g>
    <g id="ytick_4">
     <g id="line2d_10">
      <g>
       <use xlink:href="#m58f05ba65f" x="47.81" y="143.159431" style="stroke: #000000; stroke-width: 0.8"/>
      </g>
     </g>
     <g id="text_11">
      <!-- 0.6 -->
      <g transform="translate(24.906875 146.95865) scale(0.1 -0.1)">
       <use xlink:href="#DejaVuSans-30"/>
       <use xlink:href="#DejaVuSans-2e" x="63.623047"/>
       <use xlink:href="#DejaVuSans-36" x="95.410156"/>
      </g>
     </g>
    </g>
    <g id="ytick_5">
     <g id="line2d_11">
      <g>
       <use xlink:href="#m58f05ba65f" x="47.81" y="97.720795" style="stroke: #000000; stroke-width: 0.8"/>
      </g>
     </g>
     <g id="text_12">
      <!-- 0.8 -->
      <g transform="translate(24.906875 101.520014) scale(0.1 -0.1)">
       <use xlink:href="#DejaVuSans-30"/>
       <use xlink:href="#DejaVuSans-2e" x="63.623047"/>
       <use xlink:href="#DejaVuSans-38" x="95.410156"/>
      </g>
     </g>
    </g>
    <g id="ytick_6">
     <g id="line2d_12">
      <g>
       <use xlink:href="#m58f05ba65f" x="47.81" y="52.28216" style="stroke: #000000; stroke-width: 0.8"/>
      </g>
     </g>
     <g id="text_13">
      <!-- 1.0 -->
      <g transform="translate(24.906875 56.081378) scale(0.1 -0.1)">
       <use xlink:href="#DejaVuSans-31"/>
       <use xlink:href="#DejaVuSans-2e" x="63.623047"/>
       <use xlink:href="#DejaVuSans-30" x="95.410156"/>
      </g>
     </g>
    </g>
    <g id="text_14">
     <!-- Avg action -->
     <g transform="translate(18.827187 190.779844) rotate(-90) scale(0.1 -0.1)">
      <defs>
       <path id="DejaVuSans-41" d="M 2188 4044 
L 1331 1722 
L 3047 1722 
L 2188 4044 
z
M 1831 4666 
L 2547 4666 
L 4325 0 
L 3669 0 
L 3244 1197 
L 1141 1197 
L 716 0 
L 50 0 
L 1831 4666 
z
" transform="scale(0.015625)"/>
       <path id="DejaVuSans-76" d="M 191 3500 
L 800 3500 
L 1894 563 
L 2988 3500 
L 3597 3500 
L 2284 0 
L 1503 0 
L 191 3500 
z
" transform="scale(0.015625)"/>
       <path id="DejaVuSans-67" d="M 2906 1791 
Q 2906 2416 2648 2759 
Q 2391 3103 1925 3103 
Q 1463 3103 1205 2759 
Q 947 2416 947 1791 
Q 947 1169 1205 825 
Q 1463 481 1925 481 
Q 2391 481 2648 825 
Q 2906 1169 2906 1791 
z
M 3481 434 
Q 3481 -459 3084 -895 
Q 2688 -1331 1869 -1331 
Q 1566 -1331 1297 -1286 
Q 1028 -1241 775 -1147 
L 775 -588 
Q 1028 -725 1275 -790 
Q 1522 -856 1778 -856 
Q 2344 -856 2625 -561 
Q 2906 -266 2906 331 
L 2906 616 
Q 2728 306 2450 153 
Q 2172 0 1784 0 
Q 1141 0 747 490 
Q 353 981 353 1791 
Q 353 2603 747 3093 
Q 1141 3584 1784 3584 
Q 2172 3584 2450 3431 
Q 2728 3278 2906 2969 
L 2906 3500 
L 3481 3500 
L 3481 434 
z
" transform="scale(0.015625)"/>
       <path id="DejaVuSans-20" transform="scale(0.015625)"/>
       <path id="DejaVuSans-63" d="M 3122 3366 
L 3122 2828 
Q 2878 2963 2633 3030 
Q 2388 3097 2138 3097 
Q 1578 3097 1268 2742 
Q 959 2388 959 1747 
Q 959 1106 1268 751 
Q 1578 397 2138 397 
Q 2388 397 2633 464 
Q 2878 531 3122 666 
L 3122 134 
Q 2881 22 2623 -34 
Q 2366 -91 2075 -91 
Q 1284 -91 818 406 
Q 353 903 353 1747 
Q 353 2603 823 3093 
Q 1294 3584 2113 3584 
Q 2378 3584 2631 3529 
Q 2884 3475 3122 3366 
z
" transform="scale(0.015625)"/>
      </defs>
      <use xlink:href="#DejaVuSans-41"/>
      <use xlink:href="#DejaVuSans-76" x="62.533203"/>
      <use xlink:href="#DejaVuSans-67" x="121.712891"/>
      <use xlink:href="#DejaVuSans-20" x="185.189453"/>
      <use xlink:href="#DejaVuSans-61" x="216.976562"/>
      <use xlink:href="#DejaVuSans-63" x="278.255859"/>
      <use xlink:href="#DejaVuSans-74" x="333.236328"/>
      <use xlink:href="#DejaVuSans-69" x="372.445312"/>
      <use xlink:href="#DejaVuSans-6f" x="400.228516"/>
      <use xlink:href="#DejaVuSans-6e" x="461.410156"/>
     </g>
    </g>
   </g>
   <g id="line2d_13">
    <path d="M 66.091364 54.554091 
L 69.784568 134.071704 
L 73.477773 202.229657 
L 77.170978 177.238408 
L 80.864183 199.957725 
L 84.557388 197.685794 
L 88.250592 211.317384 
L 91.943797 220.405111 
L 95.637002 220.405111 
L 99.330207 236.308634 
L 103.023411 229.492839 
L 106.716616 245.396361 
L 110.409821 243.124429 
L 114.103026 247.668293 
L 117.79623 243.124429 
L 121.489435 252.212156 
L 125.18264 254.484088 
L 128.875845 249.940225 
L 132.56905 254.484088 
L 136.262254 256.75602 
L 139.955459 252.212156 
L 143.648664 254.484088 
L 147.341869 259.027952 
L 151.035073 254.484088 
L 154.728278 263.571815 
L 158.421483 256.75602 
L 162.114688 254.484088 
L 165.807893 254.484088 
L 169.501097 252.212156 
L 173.194302 256.75602 
L 176.887507 256.75602 
L 180.580712 259.027952 
L 184.273916 263.571815 
L 187.967121 259.027952 
L 191.660326 256.75602 
L 195.353531 259.027952 
L 199.046736 259.027952 
L 202.73994 261.299884 
L 206.433145 263.571815 
L 210.12635 270.387611 
L 213.819555 268.115679 
L 217.512759 270.387611 
L 221.205964 261.299884 
L 224.899169 268.115679 
L 228.592374 270.387611 
L 232.285579 268.115679 
L 235.978783 263.571815 
L 239.671988 268.115679 
L 243.365193 272.659542 
L 247.058398 272.659542 
L 250.751602 268.115679 
L 254.444807 270.387611 
L 258.138012 270.387611 
L 261.831217 270.387611 
L 265.524421 272.659542 
L 269.217626 270.387611 
L 272.910831 270.387611 
L 276.604036 272.659542 
L 280.297241 270.387611 
L 283.990445 274.931474 
L 287.68365 270.387611 
L 291.376855 274.931474 
L 295.07006 272.659542 
L 298.763264 270.387611 
L 302.456469 270.387611 
L 306.149674 279.475338 
L 309.842879 277.203406 
L 313.536084 274.931474 
L 317.229288 277.203406 
L 320.922493 279.475338 
L 324.615698 274.931474 
L 328.308903 277.203406 
L 332.002107 274.931474 
L 335.695312 279.475338 
L 339.388517 279.475338 
L 343.081722 279.475338 
L 346.774927 274.931474 
L 350.468131 279.475338 
L 354.161336 279.475338 
L 357.854541 279.475338 
L 361.547746 279.475338 
L 365.24095 277.203406 
L 368.934155 279.475338 
L 372.62736 279.475338 
L 376.320565 277.203406 
L 380.01377 274.931474 
L 383.706974 277.203406 
L 387.400179 277.203406 
L 391.093384 279.475338 
L 394.786589 274.931474 
L 398.479793 274.931474 
L 402.172998 279.475338 
L 405.866203 277.203406 
L 409.559408 274.931474 
L 413.252612 277.203406 
L 416.945817 277.203406 
L 420.639022 274.931474 
L 424.332227 274.931474 
L 428.025432 277.203406 
L 431.718636 274.931474 
" clip-path="url(#pcf00a8c583)" style="fill: none; stroke: #0000ff; stroke-linecap: square"/>
    <defs>
     <path id="mdbb7cda52c" d="M -0.49999 0.49999 
L 0.50001 0.49999 
L 0.50001 -0.50001 
L -0.49999 -0.50001 
z
"/>
    </defs>
    <g clip-path="url(#pcf00a8c583)">
     <use xlink:href="#mdbb7cda52c" x="66.091364" y="54.554091" style="fill: #0000ff"/>
     <use xlink:href="#mdbb7cda52c" x="69.784568" y="134.071704" style="fill: #0000ff"/>
     <use xlink:href="#mdbb7cda52c" x="73.477773" y="202.229657" style="fill: #0000ff"/>
     <use xlink:href="#mdbb7cda52c" x="77.170978" y="177.238408" style="fill: #0000ff"/>
     <use xlink:href="#mdbb7cda52c" x="80.864183" y="199.957725" style="fill: #0000ff"/>
     <use xlink:href="#mdbb7cda52c" x="84.557388" y="197.685794" style="fill: #0000ff"/>
     <use xlink:href="#mdbb7cda52c" x="88.250592" y="211.317384" style="fill: #0000ff"/>
     <use xlink:href="#mdbb7cda52c" x="91.943797" y="220.405111" style="fill: #0000ff"/>
     <use xlink:href="#mdbb7cda52c" x="95.637002" y="220.405111" style="fill: #0000ff"/>
     <use xlink:href="#mdbb7cda52c" x="99.330207" y="236.308634" style="fill: #0000ff"/>
     <use xlink:href="#mdbb7cda52c" x="103.023411" y="229.492839" style="fill: #0000ff"/>
     <use xlink:href="#mdbb7cda52c" x="106.716616" y="245.396361" style="fill: #0000ff"/>
     <use xlink:href="#mdbb7cda52c" x="110.409821" y="243.124429" style="fill: #0000ff"/>
     <use xlink:href="#mdbb7cda52c" x="114.103026" y="247.668293" style="fill: #0000ff"/>
     <use xlink:href="#mdbb7cda52c" x="117.79623" y="243.124429" style="fill: #0000ff"/>
     <use xlink:href="#mdbb7cda52c" x="121.489435" y="252.212156" style="fill: #0000ff"/>
     <use xlink:href="#mdbb7cda52c" x="125.18264" y="254.484088" style="fill: #0000ff"/>
     <use xlink:href="#mdbb7cda52c" x="128.875845" y="249.940225" style="fill: #0000ff"/>
     <use xlink:href="#mdbb7cda52c" x="132.56905" y="254.484088" style="fill: #0000ff"/>
     <use xlink:href="#mdbb7cda52c" x="136.262254" y="256.75602" style="fill: #0000ff"/>
     <use xlink:href="#mdbb7cda52c" x="139.955459" y="252.212156" style="fill: #0000ff"/>
     <use xlink:href="#mdbb7cda52c" x="143.648664" y="254.484088" style="fill: #0000ff"/>
     <use xlink:href="#mdbb7cda52c" x="147.341869" y="259.027952" style="fill: #0000ff"/>
     <use xlink:href="#mdbb7cda52c" x="151.035073" y="254.484088" style="fill: #0000ff"/>
     <use xlink:href="#mdbb7cda52c" x="154.728278" y="263.571815" style="fill: #0000ff"/>
     <use xlink:href="#mdbb7cda52c" x="158.421483" y="256.75602" style="fill: #0000ff"/>
     <use xlink:href="#mdbb7cda52c" x="162.114688" y="254.484088" style="fill: #0000ff"/>
     <use xlink:href="#mdbb7cda52c" x="165.807893" y="254.484088" style="fill: #0000ff"/>
     <use xlink:href="#mdbb7cda52c" x="169.501097" y="252.212156" style="fill: #0000ff"/>
     <use xlink:href="#mdbb7cda52c" x="173.194302" y="256.75602" style="fill: #0000ff"/>
     <use xlink:href="#mdbb7cda52c" x="176.887507" y="256.75602" style="fill: #0000ff"/>
     <use xlink:href="#mdbb7cda52c" x="180.580712" y="259.027952" style="fill: #0000ff"/>
     <use xlink:href="#mdbb7cda52c" x="184.273916" y="263.571815" style="fill: #0000ff"/>
     <use xlink:href="#mdbb7cda52c" x="187.967121" y="259.027952" style="fill: #0000ff"/>
     <use xlink:href="#mdbb7cda52c" x="191.660326" y="256.75602" style="fill: #0000ff"/>
     <use xlink:href="#mdbb7cda52c" x="195.353531" y="259.027952" style="fill: #0000ff"/>
     <use xlink:href="#mdbb7cda52c" x="199.046736" y="259.027952" style="fill: #0000ff"/>
     <use xlink:href="#mdbb7cda52c" x="202.73994" y="261.299884" style="fill: #0000ff"/>
     <use xlink:href="#mdbb7cda52c" x="206.433145" y="263.571815" style="fill: #0000ff"/>
     <use xlink:href="#mdbb7cda52c" x="210.12635" y="270.387611" style="fill: #0000ff"/>
     <use xlink:href="#mdbb7cda52c" x="213.819555" y="268.115679" style="fill: #0000ff"/>
     <use xlink:href="#mdbb7cda52c" x="217.512759" y="270.387611" style="fill: #0000ff"/>
     <use xlink:href="#mdbb7cda52c" x="221.205964" y="261.299884" style="fill: #0000ff"/>
     <use xlink:href="#mdbb7cda52c" x="224.899169" y="268.115679" style="fill: #0000ff"/>
     <use xlink:href="#mdbb7cda52c" x="228.592374" y="270.387611" style="fill: #0000ff"/>
     <use xlink:href="#mdbb7cda52c" x="232.285579" y="268.115679" style="fill: #0000ff"/>
     <use xlink:href="#mdbb7cda52c" x="235.978783" y="263.571815" style="fill: #0000ff"/>
     <use xlink:href="#mdbb7cda52c" x="239.671988" y="268.115679" style="fill: #0000ff"/>
     <use xlink:href="#mdbb7cda52c" x="243.365193" y="272.659542" style="fill: #0000ff"/>
     <use xlink:href="#mdbb7cda52c" x="247.058398" y="272.659542" style="fill: #0000ff"/>
     <use xlink:href="#mdbb7cda52c" x="250.751602" y="268.115679" style="fill: #0000ff"/>
     <use xlink:href="#mdbb7cda52c" x="254.444807" y="270.387611" style="fill: #0000ff"/>
     <use xlink:href="#mdbb7cda52c" x="258.138012" y="270.387611" style="fill: #0000ff"/>
     <use xlink:href="#mdbb7cda52c" x="261.831217" y="270.387611" style="fill: #0000ff"/>
     <use xlink:href="#mdbb7cda52c" x="265.524421" y="272.659542" style="fill: #0000ff"/>
     <use xlink:href="#mdbb7cda52c" x="269.217626" y="270.387611" style="fill: #0000ff"/>
     <use xlink:href="#mdbb7cda52c" x="272.910831" y="270.387611" style="fill: #0000ff"/>
     <use xlink:href="#mdbb7cda52c" x="276.604036" y="272.659542" style="fill: #0000ff"/>
     <use xlink:href="#mdbb7cda52c" x="280.297241" y="270.387611" style="fill: #0000ff"/>
     <use xlink:href="#mdbb7cda52c" x="283.990445" y="274.931474" style="fill: #0000ff"/>
     <use xlink:href="#mdbb7cda52c" x="287.68365" y="270.387611" style="fill: #0000ff"/>
     <use xlink:href="#mdbb7cda52c" x="291.376855" y="274.931474" style="fill: #0000ff"/>
     <use xlink:href="#mdbb7cda52c" x="295.07006" y="272.659542" style="fill: #0000ff"/>
     <use xlink:href="#mdbb7cda52c" x="298.763264" y="270.387611" style="fill: #0000ff"/>
     <use xlink:href="#mdbb7cda52c" x="302.456469" y="270.387611" style="fill: #0000ff"/>
     <use xlink:href="#mdbb7cda52c" x="306.149674" y="279.475338" style="fill: #0000ff"/>
     <use xlink:href="#mdbb7cda52c" x="309.842879" y="277.203406" style="fill: #0000ff"/>
     <use xlink:href="#mdbb7cda52c" x="313.536084" y="274.931474" style="fill: #0000ff"/>
     <use xlink:href="#mdbb7cda52c" x="317.229288" y="277.203406" style="fill: #0000ff"/>
     <use xlink:href="#mdbb7cda52c" x="320.922493" y="279.475338" style="fill: #0000ff"/>
     <use xlink:href="#mdbb7cda52c" x="324.615698" y="274.931474" style="fill: #0000ff"/>
     <use xlink:href="#mdbb7cda52c" x="328.308903" y="277.203406" style="fill: #0000ff"/>
     <use xlink:href="#mdbb7cda52c" x="332.002107" y="274.931474" style="fill: #0000ff"/>
     <use xlink:href="#mdbb7cda52c" x="335.695312" y="279.475338" style="fill: #0000ff"/>
     <use xlink:href="#mdbb7cda52c" x="339.388517" y="279.475338" style="fill: #0000ff"/>
     <use xlink:href="#mdbb7cda52c" x="343.081722" y="279.475338" style="fill: #0000ff"/>
     <use xlink:href="#mdbb7cda52c" x="346.774927" y="274.931474" style="fill: #0000ff"/>
     <use xlink:href="#mdbb7cda52c" x="350.468131" y="279.475338" style="fill: #0000ff"/>
     <use xlink:href="#mdbb7cda52c" x="354.161336" y="279.475338" style="fill: #0000ff"/>
     <use xlink:href="#mdbb7cda52c" x="357.854541" y="279.475338" style="fill: #0000ff"/>
     <use xlink:href="#mdbb7cda52c" x="361.547746" y="279.475338" style="fill: #0000ff"/>
     <use xlink:href="#mdbb7cda52c" x="365.24095" y="277.203406" style="fill: #0000ff"/>
     <use xlink:href="#mdbb7cda52c" x="368.934155" y="279.475338" style="fill: #0000ff"/>
     <use xlink:href="#mdbb7cda52c" x="372.62736" y="279.475338" style="fill: #0000ff"/>
     <use xlink:href="#mdbb7cda52c" x="376.320565" y="277.203406" style="fill: #0000ff"/>
     <use xlink:href="#mdbb7cda52c" x="380.01377" y="274.931474" style="fill: #0000ff"/>
     <use xlink:href="#mdbb7cda52c" x="383.706974" y="277.203406" style="fill: #0000ff"/>
     <use xlink:href="#mdbb7cda52c" x="387.400179" y="277.203406" style="fill: #0000ff"/>
     <use xlink:href="#mdbb7cda52c" x="391.093384" y="279.475338" style="fill: #0000ff"/>
     <use xlink:href="#mdbb7cda52c" x="394.786589" y="274.931474" style="fill: #0000ff"/>
     <use xlink:href="#mdbb7cda52c" x="398.479793" y="274.931474" style="fill: #0000ff"/>
     <use xlink:href="#mdbb7cda52c" x="402.172998" y="279.475338" style="fill: #0000ff"/>
     <use xlink:href="#mdbb7cda52c" x="405.866203" y="277.203406" style="fill: #0000ff"/>
     <use xlink:href="#mdbb7cda52c" x="409.559408" y="274.931474" style="fill: #0000ff"/>
     <use xlink:href="#mdbb7cda52c" x="413.252612" y="277.203406" style="fill: #0000ff"/>
     <use xlink:href="#mdbb7cda52c" x="416.945817" y="277.203406" style="fill: #0000ff"/>
     <use xlink:href="#mdbb7cda52c" x="420.639022" y="274.931474" style="fill: #0000ff"/>
     <use xlink:href="#mdbb7cda52c" x="424.332227" y="274.931474" style="fill: #0000ff"/>
     <use xlink:href="#mdbb7cda52c" x="428.025432" y="277.203406" style="fill: #0000ff"/>
     <use xlink:href="#mdbb7cda52c" x="431.718636" y="274.931474" style="fill: #0000ff"/>
    </g>
   </g>
   <g id="line2d_14">
    <path d="M 66.091364 54.554091 
L 69.784568 94.312898 
L 73.477773 130.285151 
L 77.170978 142.023465 
L 80.864183 153.610317 
L 84.557388 160.95623 
L 88.250592 168.15068 
L 91.943797 174.682484 
L 95.637002 179.762776 
L 99.330207 185.417362 
L 103.023411 189.424224 
L 106.716616 194.088568 
L 110.409821 197.860558 
L 114.103026 201.418253 
L 117.79623 204.198665 
L 121.489435 207.199508 
L 125.18264 209.980954 
L 128.875845 212.200913 
L 132.56905 214.426344 
L 136.262254 216.542827 
L 139.955459 218.241367 
L 143.648664 219.888763 
L 147.341869 221.590467 
L 151.035073 222.961035 
L 154.728278 224.585466 
L 158.421483 225.822795 
L 162.114688 226.884324 
L 165.807893 227.87003 
L 169.501097 228.709414 
L 173.194302 229.644301 
L 176.887507 230.518872 
L 180.580712 231.409781 
L 184.273916 232.384388 
L 187.967121 233.168022 
L 191.660326 233.841965 
L 195.353531 234.541576 
L 199.046736 235.20337 
L 202.73994 235.89012 
L 206.433145 236.599907 
L 210.12635 237.4446 
L 213.819555 238.192675 
L 217.512759 238.959221 
L 221.205964 239.478771 
L 224.899169 240.12961 
L 228.592374 240.80201 
L 232.285579 241.395786 
L 235.978783 241.867616 
L 239.671988 242.414451 
L 243.365193 243.031697 
L 247.058398 243.624254 
L 250.751602 244.104478 
L 254.444807 244.609923 
L 258.138012 245.096295 
L 261.831217 245.564652 
L 265.524421 246.057287 
L 269.217626 246.491757 
L 272.910831 246.910982 
L 276.604036 247.354923 
L 280.297241 247.745308 
L 283.990445 248.19841 
L 287.68365 248.562168 
L 291.376855 248.987479 
L 295.07006 249.363226 
L 298.763264 249.691732 
L 302.456469 250.01013 
L 306.149674 250.456573 
L 309.842879 250.855779 
L 313.536084 251.209834 
L 317.229288 251.586552 
L 320.922493 251.984963 
L 324.615698 252.308154 
L 328.308903 252.653921 
L 332.002107 252.959093 
L 335.695312 253.317421 
L 339.388517 253.666193 
L 343.081722 254.005787 
L 346.774927 254.277549 
L 350.468131 254.600598 
L 354.161336 254.915468 
L 357.854541 255.222466 
L 361.547746 255.521884 
L 365.24095 255.786293 
L 368.934155 256.071703 
L 372.62736 256.350318 
L 376.320565 256.595648 
L 380.01377 256.808856 
L 383.706974 257.043276 
L 387.400179 257.272368 
L 391.093384 257.52184 
L 394.786589 257.71528 
L 398.479793 257.904469 
L 402.172998 258.138935 
L 405.866203 258.343929 
L 409.559408 258.520393 
L 413.252612 258.717056 
L 416.945817 258.909622 
L 420.639022 259.074796 
L 424.332227 259.236599 
L 428.025432 259.418081 
L 431.718636 259.573215 
" clip-path="url(#pcf00a8c583)" style="fill: none; stroke: #0000ff; stroke-opacity: 0.5; stroke-width: 0.5; stroke-linecap: square"/>
    <defs>
     <path id="mef1c6d19d1" d="M -0.49999 0.49999 
L 0.50001 0.49999 
L 0.50001 -0.50001 
L -0.49999 -0.50001 
z
"/>
    </defs>
    <g clip-path="url(#pcf00a8c583)">
     <use xlink:href="#mef1c6d19d1" x="66.091364" y="54.554091" style="fill: #0000ff; fill-opacity: 0.5"/>
     <use xlink:href="#mef1c6d19d1" x="69.784568" y="94.312898" style="fill: #0000ff; fill-opacity: 0.5"/>
     <use xlink:href="#mef1c6d19d1" x="73.477773" y="130.285151" style="fill: #0000ff; fill-opacity: 0.5"/>
     <use xlink:href="#mef1c6d19d1" x="77.170978" y="142.023465" style="fill: #0000ff; fill-opacity: 0.5"/>
     <use xlink:href="#mef1c6d19d1" x="80.864183" y="153.610317" style="fill: #0000ff; fill-opacity: 0.5"/>
     <use xlink:href="#mef1c6d19d1" x="84.557388" y="160.95623" style="fill: #0000ff; fill-opacity: 0.5"/>
     <use xlink:href="#mef1c6d19d1" x="88.250592" y="168.15068" style="fill: #0000ff; fill-opacity: 0.5"/>
     <use xlink:href="#mef1c6d19d1" x="91.943797" y="174.682484" style="fill: #0000ff; fill-opacity: 0.5"/>
     <use xlink:href="#mef1c6d19d1" x="95.637002" y="179.762776" style="fill: #0000ff; fill-opacity: 0.5"/>
     <use xlink:href="#mef1c6d19d1" x="99.330207" y="185.417362" style="fill: #0000ff; fill-opacity: 0.5"/>
     <use xlink:href="#mef1c6d19d1" x="103.023411" y="189.424224" style="fill: #0000ff; fill-opacity: 0.5"/>
     <use xlink:href="#mef1c6d19d1" x="106.716616" y="194.088568" style="fill: #0000ff; fill-opacity: 0.5"/>
     <use xlink:href="#mef1c6d19d1" x="110.409821" y="197.860558" style="fill: #0000ff; fill-opacity: 0.5"/>
     <use xlink:href="#mef1c6d19d1" x="114.103026" y="201.418253" style="fill: #0000ff; fill-opacity: 0.5"/>
     <use xlink:href="#mef1c6d19d1" x="117.79623" y="204.198665" style="fill: #0000ff; fill-opacity: 0.5"/>
     <use xlink:href="#mef1c6d19d1" x="121.489435" y="207.199508" style="fill: #0000ff; fill-opacity: 0.5"/>
     <use xlink:href="#mef1c6d19d1" x="125.18264" y="209.980954" style="fill: #0000ff; fill-opacity: 0.5"/>
     <use xlink:href="#mef1c6d19d1" x="128.875845" y="212.200913" style="fill: #0000ff; fill-opacity: 0.5"/>
     <use xlink:href="#mef1c6d19d1" x="132.56905" y="214.426344" style="fill: #0000ff; fill-opacity: 0.5"/>
     <use xlink:href="#mef1c6d19d1" x="136.262254" y="216.542827" style="fill: #0000ff; fill-opacity: 0.5"/>
     <use xlink:href="#mef1c6d19d1" x="139.955459" y="218.241367" style="fill: #0000ff; fill-opacity: 0.5"/>
     <use xlink:href="#mef1c6d19d1" x="143.648664" y="219.888763" style="fill: #0000ff; fill-opacity: 0.5"/>
     <use xlink:href="#mef1c6d19d1" x="147.341869" y="221.590467" style="fill: #0000ff; fill-opacity: 0.5"/>
     <use xlink:href="#mef1c6d19d1" x="151.035073" y="222.961035" style="fill: #0000ff; fill-opacity: 0.5"/>
     <use xlink:href="#mef1c6d19d1" x="154.728278" y="224.585466" style="fill: #0000ff; fill-opacity: 0.5"/>
     <use xlink:href="#mef1c6d19d1" x="158.421483" y="225.822795" style="fill: #0000ff; fill-opacity: 0.5"/>
     <use xlink:href="#mef1c6d19d1" x="162.114688" y="226.884324" style="fill: #0000ff; fill-opacity: 0.5"/>
     <use xlink:href="#mef1c6d19d1" x="165.807893" y="227.87003" style="fill: #0000ff; fill-opacity: 0.5"/>
     <use xlink:href="#mef1c6d19d1" x="169.501097" y="228.709414" style="fill: #0000ff; fill-opacity: 0.5"/>
     <use xlink:href="#mef1c6d19d1" x="173.194302" y="229.644301" style="fill: #0000ff; fill-opacity: 0.5"/>
     <use xlink:href="#mef1c6d19d1" x="176.887507" y="230.518872" style="fill: #0000ff; fill-opacity: 0.5"/>
     <use xlink:href="#mef1c6d19d1" x="180.580712" y="231.409781" style="fill: #0000ff; fill-opacity: 0.5"/>
     <use xlink:href="#mef1c6d19d1" x="184.273916" y="232.384388" style="fill: #0000ff; fill-opacity: 0.5"/>
     <use xlink:href="#mef1c6d19d1" x="187.967121" y="233.168022" style="fill: #0000ff; fill-opacity: 0.5"/>
     <use xlink:href="#mef1c6d19d1" x="191.660326" y="233.841965" style="fill: #0000ff; fill-opacity: 0.5"/>
     <use xlink:href="#mef1c6d19d1" x="195.353531" y="234.541576" style="fill: #0000ff; fill-opacity: 0.5"/>
     <use xlink:href="#mef1c6d19d1" x="199.046736" y="235.20337" style="fill: #0000ff; fill-opacity: 0.5"/>
     <use xlink:href="#mef1c6d19d1" x="202.73994" y="235.89012" style="fill: #0000ff; fill-opacity: 0.5"/>
     <use xlink:href="#mef1c6d19d1" x="206.433145" y="236.599907" style="fill: #0000ff; fill-opacity: 0.5"/>
     <use xlink:href="#mef1c6d19d1" x="210.12635" y="237.4446" style="fill: #0000ff; fill-opacity: 0.5"/>
     <use xlink:href="#mef1c6d19d1" x="213.819555" y="238.192675" style="fill: #0000ff; fill-opacity: 0.5"/>
     <use xlink:href="#mef1c6d19d1" x="217.512759" y="238.959221" style="fill: #0000ff; fill-opacity: 0.5"/>
     <use xlink:href="#mef1c6d19d1" x="221.205964" y="239.478771" style="fill: #0000ff; fill-opacity: 0.5"/>
     <use xlink:href="#mef1c6d19d1" x="224.899169" y="240.12961" style="fill: #0000ff; fill-opacity: 0.5"/>
     <use xlink:href="#mef1c6d19d1" x="228.592374" y="240.80201" style="fill: #0000ff; fill-opacity: 0.5"/>
     <use xlink:href="#mef1c6d19d1" x="232.285579" y="241.395786" style="fill: #0000ff; fill-opacity: 0.5"/>
     <use xlink:href="#mef1c6d19d1" x="235.978783" y="241.867616" style="fill: #0000ff; fill-opacity: 0.5"/>
     <use xlink:href="#mef1c6d19d1" x="239.671988" y="242.414451" style="fill: #0000ff; fill-opacity: 0.5"/>
     <use xlink:href="#mef1c6d19d1" x="243.365193" y="243.031697" style="fill: #0000ff; fill-opacity: 0.5"/>
     <use xlink:href="#mef1c6d19d1" x="247.058398" y="243.624254" style="fill: #0000ff; fill-opacity: 0.5"/>
     <use xlink:href="#mef1c6d19d1" x="250.751602" y="244.104478" style="fill: #0000ff; fill-opacity: 0.5"/>
     <use xlink:href="#mef1c6d19d1" x="254.444807" y="244.609923" style="fill: #0000ff; fill-opacity: 0.5"/>
     <use xlink:href="#mef1c6d19d1" x="258.138012" y="245.096295" style="fill: #0000ff; fill-opacity: 0.5"/>
     <use xlink:href="#mef1c6d19d1" x="261.831217" y="245.564652" style="fill: #0000ff; fill-opacity: 0.5"/>
     <use xlink:href="#mef1c6d19d1" x="265.524421" y="246.057287" style="fill: #0000ff; fill-opacity: 0.5"/>
     <use xlink:href="#mef1c6d19d1" x="269.217626" y="246.491757" style="fill: #0000ff; fill-opacity: 0.5"/>
     <use xlink:href="#mef1c6d19d1" x="272.910831" y="246.910982" style="fill: #0000ff; fill-opacity: 0.5"/>
     <use xlink:href="#mef1c6d19d1" x="276.604036" y="247.354923" style="fill: #0000ff; fill-opacity: 0.5"/>
     <use xlink:href="#mef1c6d19d1" x="280.297241" y="247.745308" style="fill: #0000ff; fill-opacity: 0.5"/>
     <use xlink:href="#mef1c6d19d1" x="283.990445" y="248.19841" style="fill: #0000ff; fill-opacity: 0.5"/>
     <use xlink:href="#mef1c6d19d1" x="287.68365" y="248.562168" style="fill: #0000ff; fill-opacity: 0.5"/>
     <use xlink:href="#mef1c6d19d1" x="291.376855" y="248.987479" style="fill: #0000ff; fill-opacity: 0.5"/>
     <use xlink:href="#mef1c6d19d1" x="295.07006" y="249.363226" style="fill: #0000ff; fill-opacity: 0.5"/>
     <use xlink:href="#mef1c6d19d1" x="298.763264" y="249.691732" style="fill: #0000ff; fill-opacity: 0.5"/>
     <use xlink:href="#mef1c6d19d1" x="302.456469" y="250.01013" style="fill: #0000ff; fill-opacity: 0.5"/>
     <use xlink:href="#mef1c6d19d1" x="306.149674" y="250.456573" style="fill: #0000ff; fill-opacity: 0.5"/>
     <use xlink:href="#mef1c6d19d1" x="309.842879" y="250.855779" style="fill: #0000ff; fill-opacity: 0.5"/>
     <use xlink:href="#mef1c6d19d1" x="313.536084" y="251.209834" style="fill: #0000ff; fill-opacity: 0.5"/>
     <use xlink:href="#mef1c6d19d1" x="317.229288" y="251.586552" style="fill: #0000ff; fill-opacity: 0.5"/>
     <use xlink:href="#mef1c6d19d1" x="320.922493" y="251.984963" style="fill: #0000ff; fill-opacity: 0.5"/>
     <use xlink:href="#mef1c6d19d1" x="324.615698" y="252.308154" style="fill: #0000ff; fill-opacity: 0.5"/>
     <use xlink:href="#mef1c6d19d1" x="328.308903" y="252.653921" style="fill: #0000ff; fill-opacity: 0.5"/>
     <use xlink:href="#mef1c6d19d1" x="332.002107" y="252.959093" style="fill: #0000ff; fill-opacity: 0.5"/>
     <use xlink:href="#mef1c6d19d1" x="335.695312" y="253.317421" style="fill: #0000ff; fill-opacity: 0.5"/>
     <use xlink:href="#mef1c6d19d1" x="339.388517" y="253.666193" style="fill: #0000ff; fill-opacity: 0.5"/>
     <use xlink:href="#mef1c6d19d1" x="343.081722" y="254.005787" style="fill: #0000ff; fill-opacity: 0.5"/>
     <use xlink:href="#mef1c6d19d1" x="346.774927" y="254.277549" style="fill: #0000ff; fill-opacity: 0.5"/>
     <use xlink:href="#mef1c6d19d1" x="350.468131" y="254.600598" style="fill: #0000ff; fill-opacity: 0.5"/>
     <use xlink:href="#mef1c6d19d1" x="354.161336" y="254.915468" style="fill: #0000ff; fill-opacity: 0.5"/>
     <use xlink:href="#mef1c6d19d1" x="357.854541" y="255.222466" style="fill: #0000ff; fill-opacity: 0.5"/>
     <use xlink:href="#mef1c6d19d1" x="361.547746" y="255.521884" style="fill: #0000ff; fill-opacity: 0.5"/>
     <use xlink:href="#mef1c6d19d1" x="365.24095" y="255.786293" style="fill: #0000ff; fill-opacity: 0.5"/>
     <use xlink:href="#mef1c6d19d1" x="368.934155" y="256.071703" style="fill: #0000ff; fill-opacity: 0.5"/>
     <use xlink:href="#mef1c6d19d1" x="372.62736" y="256.350318" style="fill: #0000ff; fill-opacity: 0.5"/>
     <use xlink:href="#mef1c6d19d1" x="376.320565" y="256.595648" style="fill: #0000ff; fill-opacity: 0.5"/>
     <use xlink:href="#mef1c6d19d1" x="380.01377" y="256.808856" style="fill: #0000ff; fill-opacity: 0.5"/>
     <use xlink:href="#mef1c6d19d1" x="383.706974" y="257.043276" style="fill: #0000ff; fill-opacity: 0.5"/>
     <use xlink:href="#mef1c6d19d1" x="387.400179" y="257.272368" style="fill: #0000ff; fill-opacity: 0.5"/>
     <use xlink:href="#mef1c6d19d1" x="391.093384" y="257.52184" style="fill: #0000ff; fill-opacity: 0.5"/>
     <use xlink:href="#mef1c6d19d1" x="394.786589" y="257.71528" style="fill: #0000ff; fill-opacity: 0.5"/>
     <use xlink:href="#mef1c6d19d1" x="398.479793" y="257.904469" style="fill: #0000ff; fill-opacity: 0.5"/>
     <use xlink:href="#mef1c6d19d1" x="402.172998" y="258.138935" style="fill: #0000ff; fill-opacity: 0.5"/>
     <use xlink:href="#mef1c6d19d1" x="405.866203" y="258.343929" style="fill: #0000ff; fill-opacity: 0.5"/>
     <use xlink:href="#mef1c6d19d1" x="409.559408" y="258.520393" style="fill: #0000ff; fill-opacity: 0.5"/>
     <use xlink:href="#mef1c6d19d1" x="413.252612" y="258.717056" style="fill: #0000ff; fill-opacity: 0.5"/>
     <use xlink:href="#mef1c6d19d1" x="416.945817" y="258.909622" style="fill: #0000ff; fill-opacity: 0.5"/>
     <use xlink:href="#mef1c6d19d1" x="420.639022" y="259.074796" style="fill: #0000ff; fill-opacity: 0.5"/>
     <use xlink:href="#mef1c6d19d1" x="424.332227" y="259.236599" style="fill: #0000ff; fill-opacity: 0.5"/>
     <use xlink:href="#mef1c6d19d1" x="428.025432" y="259.418081" style="fill: #0000ff; fill-opacity: 0.5"/>
     <use xlink:href="#mef1c6d19d1" x="431.718636" y="259.573215" style="fill: #0000ff; fill-opacity: 0.5"/>
    </g>
   </g>
   <g id="line2d_15">
    <path d="M 47.81 279.475338 
L 450 279.475338 
" clip-path="url(#pcf00a8c583)" style="fill: none; stroke-dasharray: 0.555,0.24; stroke-dashoffset: 0; stroke: #ff0000; stroke-width: 0.15"/>
   </g>
   <g id="line2d_16">
    <path d="M 47.81 165.878749 
L 450 165.878749 
" clip-path="url(#pcf00a8c583)" style="fill: none; stroke-dasharray: 0.555,0.24; stroke-dashoffset: 0; stroke: #ff0000; stroke-width: 0.15"/>
   </g>
   <g id="line2d_17">
    <path d="M 47.81 52.28216 
L 450 52.28216 
" clip-path="url(#pcf00a8c583)" style="fill: none; stroke-dasharray: 0.555,0.24; stroke-dashoffset: 0; stroke: #ff0000; stroke-width: 0.15"/>
   </g>
   <g id="patch_3">
    <path d="M 47.81 303.64 
L 47.81 25.44 
" style="fill: none; stroke: #000000; stroke-width: 0.8; stroke-linejoin: miter; stroke-linecap: square"/>
   </g>
   <g id="patch_4">
    <path d="M 450 303.64 
L 450 25.44 
" style="fill: none; stroke: #000000; stroke-width: 0.8; stroke-linejoin: miter; stroke-linecap: square"/>
   </g>
   <g id="patch_5">
    <path d="M 47.81 303.64 
L 450 303.64 
" style="fill: none; stroke: #000000; stroke-width: 0.8; stroke-linejoin: miter; stroke-linecap: square"/>
   </g>
   <g id="patch_6">
    <path d="M 47.81 25.44 
L 450 25.44 
" style="fill: none; stroke: #000000; stroke-width: 0.8; stroke-linejoin: miter; stroke-linecap: square"/>
   </g>
   <g id="text_15">
    <!-- Average action - 20240426104728 - 100 games -->
    <g transform="translate(104.980938 19.44) scale(0.12 -0.12)">
     <defs>
      <path id="DejaVuSans-2d" d="M 313 2009 
L 1997 2009 
L 1997 1497 
L 313 1497 
L 313 2009 
z
" transform="scale(0.015625)"/>
      <path id="DejaVuSans-37" d="M 525 4666 
L 3525 4666 
L 3525 4397 
L 1831 0 
L 1172 0 
L 2766 4134 
L 525 4134 
L 525 4666 
z
" transform="scale(0.015625)"/>
      <path id="DejaVuSans-6d" d="M 3328 2828 
Q 3544 3216 3844 3400 
Q 4144 3584 4550 3584 
Q 5097 3584 5394 3201 
Q 5691 2819 5691 2113 
L 5691 0 
L 5113 0 
L 5113 2094 
Q 5113 2597 4934 2840 
Q 4756 3084 4391 3084 
Q 3944 3084 3684 2787 
Q 3425 2491 3425 1978 
L 3425 0 
L 2847 0 
L 2847 2094 
Q 2847 2600 2669 2842 
Q 2491 3084 2119 3084 
Q 1678 3084 1418 2786 
Q 1159 2488 1159 1978 
L 1159 0 
L 581 0 
L 581 3500 
L 1159 3500 
L 1159 2956 
Q 1356 3278 1631 3431 
Q 1906 3584 2284 3584 
Q 2666 3584 2933 3390 
Q 3200 3197 3328 2828 
z
" transform="scale(0.015625)"/>
      <path id="DejaVuSans-73" d="M 2834 3397 
L 2834 2853 
Q 2591 2978 2328 3040 
Q 2066 3103 1784 3103 
Q 1356 3103 1142 2972 
Q 928 2841 928 2578 
Q 928 2378 1081 2264 
Q 1234 2150 1697 2047 
L 1894 2003 
Q 2506 1872 2764 1633 
Q 3022 1394 3022 966 
Q 3022 478 2636 193 
Q 2250 -91 1575 -91 
Q 1294 -91 989 -36 
Q 684 19 347 128 
L 347 722 
Q 666 556 975 473 
Q 1284 391 1588 391 
Q 1994 391 2212 530 
Q 2431 669 2431 922 
Q 2431 1156 2273 1281 
Q 2116 1406 1581 1522 
L 1381 1569 
Q 847 1681 609 1914 
Q 372 2147 372 2553 
Q 372 3047 722 3315 
Q 1072 3584 1716 3584 
Q 2034 3584 2315 3537 
Q 2597 3491 2834 3397 
z
" transform="scale(0.015625)"/>
     </defs>
     <use xlink:href="#DejaVuSans-41"/>
     <use xlink:href="#DejaVuSans-76" x="62.533203"/>
     <use xlink:href="#DejaVuSans-65" x="121.712891"/>
     <use xlink:href="#DejaVuSans-72" x="183.236328"/>
     <use xlink:href="#DejaVuSans-61" x="224.349609"/>
     <use xlink:href="#DejaVuSans-67" x="285.628906"/>
     <use xlink:href="#DejaVuSans-65" x="349.105469"/>
     <use xlink:href="#DejaVuSans-20" x="410.628906"/>
     <use xlink:href="#DejaVuSans-61" x="442.416016"/>
     <use xlink:href="#DejaVuSans-63" x="503.695312"/>
     <use xlink:href="#DejaVuSans-74" x="558.675781"/>
     <use xlink:href="#DejaVuSans-69" x="597.884766"/>
     <use xlink:href="#DejaVuSans-6f" x="625.667969"/>
     <use xlink:href="#DejaVuSans-6e" x="686.849609"/>
     <use xlink:href="#DejaVuSans-20" x="750.228516"/>
     <use xlink:href="#DejaVuSans-2d" x="782.015625"/>
     <use xlink:href="#DejaVuSans-20" x="818.099609"/>
     <use xlink:href="#DejaVuSans-32" x="849.886719"/>
     <use xlink:href="#DejaVuSans-30" x="913.509766"/>
     <use xlink:href="#DejaVuSans-32" x="977.132812"/>
     <use xlink:href="#DejaVuSans-34" x="1040.755859"/>
     <use xlink:href="#DejaVuSans-30" x="1104.378906"/>
     <use xlink:href="#DejaVuSans-34" x="1168.001953"/>
     <use xlink:href="#DejaVuSans-32" x="1231.625"/>
     <use xlink:href="#DejaVuSans-36" x="1295.248047"/>
     <use xlink:href="#DejaVuSans-31" x="1358.871094"/>
     <use xlink:href="#DejaVuSans-30" x="1422.494141"/>
     <use xlink:href="#DejaVuSans-34" x="1486.117188"/>
     <use xlink:href="#DejaVuSans-37" x="1549.740234"/>
     <use xlink:href="#DejaVuSans-32" x="1613.363281"/>
     <use xlink:href="#DejaVuSans-38" x="1676.986328"/>
     <use xlink:href="#DejaVuSans-20" x="1740.609375"/>
     <use xlink:href="#DejaVuSans-2d" x="1772.396484"/>
     <use xlink:href="#DejaVuSans-20" x="1808.480469"/>
     <use xlink:href="#DejaVuSans-31" x="1840.267578"/>
     <use xlink:href="#DejaVuSans-30" x="1903.890625"/>
     <use xlink:href="#DejaVuSans-30" x="1967.513672"/>
     <use xlink:href="#DejaVuSans-20" x="2031.136719"/>
     <use xlink:href="#DejaVuSans-67" x="2062.923828"/>
     <use xlink:href="#DejaVuSans-61" x="2126.400391"/>
     <use xlink:href="#DejaVuSans-6d" x="2187.679688"/>
     <use xlink:href="#DejaVuSans-65" x="2285.091797"/>
     <use xlink:href="#DejaVuSans-73" x="2346.615234"/>
    </g>
   </g>
   <g id="legend_1">
    <g id="patch_7">
     <path d="M 359.690625 298.64 
L 443 298.64 
Q 445 298.64 445 296.64 
L 445 268.28375 
Q 445 266.28375 443 266.28375 
L 359.690625 266.28375 
Q 357.690625 266.28375 357.690625 268.28375 
L 357.690625 296.64 
Q 357.690625 298.64 359.690625 298.64 
z
" style="fill: #ffffff; opacity: 0.8; stroke: #cccccc; stroke-linejoin: miter"/>
    </g>
    <g id="line2d_18">
     <path d="M 361.690625 274.382187 
L 371.690625 274.382187 
L 381.690625 274.382187 
" style="fill: none; stroke: #0000ff; stroke-linecap: square"/>
     <g>
      <use xlink:href="#mdbb7cda52c" x="371.690625" y="274.382187" style="fill: #0000ff"/>
     </g>
    </g>
    <g id="text_16">
     <!-- LLM -->
     <g transform="translate(389.690625 277.882187) scale(0.1 -0.1)">
      <defs>
       <path id="DejaVuSans-4c" d="M 628 4666 
L 1259 4666 
L 1259 531 
L 3531 531 
L 3531 0 
L 628 0 
L 628 4666 
z
" transform="scale(0.015625)"/>
       <path id="DejaVuSans-4d" d="M 628 4666 
L 1569 4666 
L 2759 1491 
L 3956 4666 
L 4897 4666 
L 4897 0 
L 4281 0 
L 4281 4097 
L 3078 897 
L 2444 897 
L 1241 4097 
L 1241 0 
L 628 0 
L 628 4666 
z
" transform="scale(0.015625)"/>
      </defs>
      <use xlink:href="#DejaVuSans-4c"/>
      <use xlink:href="#DejaVuSans-4c" x="55.712891"/>
      <use xlink:href="#DejaVuSans-4d" x="111.425781"/>
     </g>
    </g>
    <g id="line2d_19">
     <path d="M 361.690625 289.060312 
L 371.690625 289.060312 
L 381.690625 289.060312 
" style="fill: none; stroke: #0000ff; stroke-opacity: 0.5; stroke-width: 0.5; stroke-linecap: square"/>
     <g>
      <use xlink:href="#mef1c6d19d1" x="371.690625" y="289.060312" style="fill: #0000ff; fill-opacity: 0.5"/>
     </g>
    </g>
    <g id="text_17">
     <!-- LLM mean -->
     <g transform="translate(389.690625 292.560312) scale(0.1 -0.1)">
      <use xlink:href="#DejaVuSans-4c"/>
      <use xlink:href="#DejaVuSans-4c" x="55.712891"/>
      <use xlink:href="#DejaVuSans-4d" x="111.425781"/>
      <use xlink:href="#DejaVuSans-20" x="197.705078"/>
      <use xlink:href="#DejaVuSans-6d" x="229.492188"/>
      <use xlink:href="#DejaVuSans-65" x="326.904297"/>
      <use xlink:href="#DejaVuSans-61" x="388.427734"/>
      <use xlink:href="#DejaVuSans-6e" x="449.707031"/>
     </g>
    </g>
   </g>
  </g>
 </g>
 <defs>
  <clipPath id="pcf00a8c583">
   <rect x="47.81" y="25.44" width="402.19" height="278.2"/>
  </clipPath>
 </defs>
</svg>
