<?xml version="1.0" encoding="utf-8" standalone="no"?>
<!DOCTYPE svg PUBLIC "-//W3C//DTD SVG 1.1//EN"
  "http://www.w3.org/Graphics/SVG/1.1/DTD/svg11.dtd">
<svg xmlns:xlink="http://www.w3.org/1999/xlink" width="460.8pt" height="345.6pt" viewBox="0 0 460.8 345.6" xmlns="http://www.w3.org/2000/svg" version="1.1">
 <metadata>
  <rdf:RDF xmlns:dc="http://purl.org/dc/elements/1.1/" xmlns:cc="http://creativecommons.org/ns#" xmlns:rdf="http://www.w3.org/1999/02/22-rdf-syntax-ns#">
   <cc:Work>
    <dc:type rdf:resource="http://purl.org/dc/dcmitype/StillImage"/>
    <dc:date>2024-04-29T11:04:48.195743</dc:date>
    <dc:format>image/svg+xml</dc:format>
    <dc:creator>
     <cc:Agent>
      <dc:title>Matplotlib v3.8.0, https://matplotlib.org/</dc:title>
     </cc:Agent>
    </dc:creator>
   </cc:Work>
  </rdf:RDF>
 </metadata>
 <defs>
  <style type="text/css">*{stroke-linejoin: round; stroke-linecap: butt}</style>
 </defs>
 <g id="figure_1">
  <g id="patch_1">
   <path d="M 0 345.6 
L 460.8 345.6 
L 460.8 0 
L 0 0 
z
" style="fill: #ffffff"/>
  </g>
  <g id="axes_1">
   <g id="patch_2">
    <path d="M 47.81 303.64 
L 450 303.64 
L 450 25.44 
L 47.81 25.44 
z
" style="fill: #ffffff"/>
   </g>
   <g id="PolyCollection_1">
    <defs>
     <path id="m8c754cabf8" d="M 66.091364 -261.990909 
L 66.091364 -261.990909 
L 69.822254 -280.308206 
L 73.553145 -275.892475 
L 77.284035 -275.61382 
L 81.014926 -271.941688 
L 84.745816 -268.337748 
L 88.476707 -265.089355 
L 92.207597 -262.205517 
L 95.938488 -259.728608 
L 99.669378 -257.553813 
L 103.400269 -255.613623 
L 107.13116 -253.89671 
L 110.86205 -252.338511 
L 114.592941 -250.91313 
L 118.323831 -249.61012 
L 122.054722 -248.414437 
L 125.785612 -247.326276 
L 129.516503 -246.326514 
L 133.247393 -245.387975 
L 136.978284 -244.495888 
L 140.709174 -243.669989 
L 144.440065 -242.893704 
L 148.170955 -242.157001 
L 151.901846 -241.465747 
L 155.632737 -240.809052 
L 159.363627 -240.180008 
L 163.094518 -239.592014 
L 166.825408 -239.03235 
L 170.556299 -238.485114 
L 174.287189 -237.962138 
L 178.01808 -237.46174 
L 181.74897 -236.978593 
L 185.479861 -236.511733 
L 189.210751 -236.065292 
L 192.941642 -235.640798 
L 196.672532 -235.223977 
L 200.403423 -234.818147 
L 204.134314 -234.431625 
L 207.865204 -234.063751 
L 211.596095 -233.705708 
L 215.326985 -233.358002 
L 219.057876 -233.024581 
L 222.788766 -232.701169 
L 226.519657 -232.389023 
L 230.250547 -232.084997 
L 233.981438 -231.787968 
L 237.712328 -231.495059 
L 241.443219 -231.208873 
L 245.174109 -230.930251 
L 248.905 -230.655857 
L 252.635891 -230.388829 
L 256.366781 -230.130358 
L 260.097672 -229.878758 
L 263.828562 -229.63278 
L 267.559453 -229.394128 
L 271.290343 -229.16368 
L 275.021234 -228.940209 
L 278.752124 -228.720271 
L 282.483015 -228.503842 
L 286.213905 -228.291318 
L 289.944796 -228.08519 
L 293.675686 -227.884868 
L 297.406577 -227.690195 
L 301.137468 -227.498663 
L 304.868358 -227.31196 
L 308.599249 -227.12904 
L 312.330139 -226.948933 
L 316.06103 -226.772379 
L 319.79192 -226.599656 
L 323.522811 -226.430638 
L 327.253701 -226.265207 
L 330.984592 -226.103634 
L 334.715482 -225.946195 
L 338.446373 -225.79085 
L 342.177263 -225.63722 
L 345.908154 -225.487362 
L 349.639045 -225.341187 
L 353.369935 -225.198968 
L 357.100826 -225.059881 
L 360.831716 -224.921378 
L 364.562607 -224.784528 
L 368.293497 -224.650888 
L 372.024388 -224.519733 
L 375.755278 -224.39068 
L 379.486169 -224.26492 
L 383.217059 -224.141119 
L 386.94795 -224.017749 
L 390.67884 -223.896275 
L 394.409731 -223.777771 
L 398.140622 -223.661041 
L 401.871512 -223.544967 
L 405.602403 -223.43035 
L 409.333293 -223.316675 
L 413.064184 -223.205126 
L 416.795074 -223.095415 
L 420.525965 -222.98657 
L 424.256855 -222.87926 
L 427.987746 -222.774113 
L 431.718636 -222.669342 
L 431.718636 -200.264507 
L 431.718636 -200.264507 
L 427.987746 -200.294383 
L 424.256855 -200.320585 
L 420.525965 -200.349789 
L 416.795074 -200.379509 
L 413.064184 -200.407063 
L 409.333293 -200.435974 
L 405.602403 -200.467246 
L 401.871512 -200.496202 
L 398.140622 -200.524649 
L 394.409731 -200.54958 
L 390.67884 -200.57481 
L 386.94795 -200.604471 
L 383.217059 -200.634583 
L 379.486169 -200.659747 
L 375.755278 -200.685165 
L 372.024388 -200.715354 
L 368.293497 -200.745963 
L 364.562607 -200.778189 
L 360.831716 -200.81459 
L 357.100826 -200.84908 
L 353.369935 -200.877674 
L 349.639045 -200.909154 
L 345.908154 -200.946434 
L 342.177263 -200.988544 
L 338.446373 -201.035835 
L 334.715482 -201.079599 
L 330.984592 -201.121104 
L 327.253701 -201.168037 
L 323.522811 -201.219161 
L 319.79192 -201.273065 
L 316.06103 -201.329911 
L 312.330139 -201.389876 
L 308.599249 -201.451269 
L 304.868358 -201.510275 
L 301.137468 -201.57059 
L 297.406577 -201.636349 
L 293.675686 -201.699457 
L 289.944796 -201.770548 
L 286.213905 -201.850319 
L 282.483015 -201.941958 
L 278.752124 -202.03146 
L 275.021234 -202.115947 
L 271.290343 -202.194877 
L 267.559453 -202.283936 
L 263.828562 -202.389884 
L 260.097672 -202.50845 
L 256.366781 -202.628073 
L 252.635891 -202.75524 
L 248.905 -202.901024 
L 245.174109 -203.056374 
L 241.443219 -203.195378 
L 237.712328 -203.339556 
L 233.981438 -203.481003 
L 230.250547 -203.602386 
L 226.519657 -203.718573 
L 222.788766 -203.833115 
L 219.057876 -203.959511 
L 215.326985 -204.089095 
L 211.596095 -204.24282 
L 207.865204 -204.395946 
L 204.134314 -204.542083 
L 200.403423 -204.728905 
L 196.672532 -204.970043 
L 192.941642 -205.194194 
L 189.210751 -205.376116 
L 185.479861 -205.602211 
L 181.74897 -205.862882 
L 178.01808 -206.11743 
L 174.287189 -206.363454 
L 170.556299 -206.628625 
L 166.825408 -206.915034 
L 163.094518 -207.131719 
L 159.363627 -207.362293 
L 155.632737 -207.675523 
L 151.901846 -207.970237 
L 148.170955 -208.271339 
L 144.440065 -208.6297 
L 140.709174 -208.979464 
L 136.978284 -209.35609 
L 133.247393 -209.857763 
L 129.516503 -210.277054 
L 125.785612 -210.669588 
L 122.054722 -211.147759 
L 118.323831 -211.811556 
L 114.592941 -212.591514 
L 110.86205 -213.51768 
L 107.13116 -214.443557 
L 103.400269 -215.332233 
L 99.669378 -216.825307 
L 95.938488 -218.356232 
L 92.207597 -219.837049 
L 88.476707 -221.9815 
L 84.745816 -225.828898 
L 81.014926 -231.099258 
L 77.284035 -238.883908 
L 73.553145 -254.833585 
L 69.822254 -258.848158 
L 66.091364 -261.990909 
z
" style="stroke: #ff0000; stroke-opacity: 0.2"/>
    </defs>
    <g clip-path="url(#p0f25cc7a5a)">
     <use xlink:href="#m8c754cabf8" x="0" y="345.6" style="fill: #ff0000; fill-opacity: 0.2; stroke: #ff0000; stroke-opacity: 0.2"/>
    </g>
   </g>
   <g id="matplotlib.axis_1">
    <g id="xtick_1">
     <g id="line2d_1">
      <defs>
       <path id="m3e3b635779" d="M 0 0 
L 0 3.5 
" style="stroke: #000000; stroke-width: 0.8"/>
      </defs>
      <g>
       <use xlink:href="#m3e3b635779" x="66.091364" y="303.64" style="stroke: #000000; stroke-width: 0.8"/>
      </g>
     </g>
     <g id="text_1">
      <!-- 0 -->
      <g transform="translate(62.910114 318.238437) scale(0.1 -0.1)">
       <defs>
        <path id="DejaVuSans-30" d="M 2034 4250 
Q 1547 4250 1301 3770 
Q 1056 3291 1056 2328 
Q 1056 1369 1301 889 
Q 1547 409 2034 409 
Q 2525 409 2770 889 
Q 3016 1369 3016 2328 
Q 3016 3291 2770 3770 
Q 2525 4250 2034 4250 
z
M 2034 4750 
Q 2819 4750 3233 4129 
Q 3647 3509 3647 2328 
Q 3647 1150 3233 529 
Q 2819 -91 2034 -91 
Q 1250 -91 836 529 
Q 422 1150 422 2328 
Q 422 3509 836 4129 
Q 1250 4750 2034 4750 
z
" transform="scale(0.015625)"/>
       </defs>
       <use xlink:href="#DejaVuSans-30"/>
      </g>
     </g>
    </g>
    <g id="xtick_2">
     <g id="line2d_2">
      <g>
       <use xlink:href="#m3e3b635779" x="140.709174" y="303.64" style="stroke: #000000; stroke-width: 0.8"/>
      </g>
     </g>
     <g id="text_2">
      <!-- 20 -->
      <g transform="translate(134.346674 318.238437) scale(0.1 -0.1)">
       <defs>
        <path id="DejaVuSans-32" d="M 1228 531 
L 3431 531 
L 3431 0 
L 469 0 
L 469 531 
Q 828 903 1448 1529 
Q 2069 2156 2228 2338 
Q 2531 2678 2651 2914 
Q 2772 3150 2772 3378 
Q 2772 3750 2511 3984 
Q 2250 4219 1831 4219 
Q 1534 4219 1204 4116 
Q 875 4013 500 3803 
L 500 4441 
Q 881 4594 1212 4672 
Q 1544 4750 1819 4750 
Q 2544 4750 2975 4387 
Q 3406 4025 3406 3419 
Q 3406 3131 3298 2873 
Q 3191 2616 2906 2266 
Q 2828 2175 2409 1742 
Q 1991 1309 1228 531 
z
" transform="scale(0.015625)"/>
       </defs>
       <use xlink:href="#DejaVuSans-32"/>
       <use xlink:href="#DejaVuSans-30" x="63.623047"/>
      </g>
     </g>
    </g>
    <g id="xtick_3">
     <g id="line2d_3">
      <g>
       <use xlink:href="#m3e3b635779" x="215.326985" y="303.64" style="stroke: #000000; stroke-width: 0.8"/>
      </g>
     </g>
     <g id="text_3">
      <!-- 40 -->
      <g transform="translate(208.964485 318.238437) scale(0.1 -0.1)">
       <defs>
        <path id="DejaVuSans-34" d="M 2419 4116 
L 825 1625 
L 2419 1625 
L 2419 4116 
z
M 2253 4666 
L 3047 4666 
L 3047 1625 
L 3713 1625 
L 3713 1100 
L 3047 1100 
L 3047 0 
L 2419 0 
L 2419 1100 
L 313 1100 
L 313 1709 
L 2253 4666 
z
" transform="scale(0.015625)"/>
       </defs>
       <use xlink:href="#DejaVuSans-34"/>
       <use xlink:href="#DejaVuSans-30" x="63.623047"/>
      </g>
     </g>
    </g>
    <g id="xtick_4">
     <g id="line2d_4">
      <g>
       <use xlink:href="#m3e3b635779" x="289.944796" y="303.64" style="stroke: #000000; stroke-width: 0.8"/>
      </g>
     </g>
     <g id="text_4">
      <!-- 60 -->
      <g transform="translate(283.582296 318.238437) scale(0.1 -0.1)">
       <defs>
        <path id="DejaVuSans-36" d="M 2113 2584 
Q 1688 2584 1439 2293 
Q 1191 2003 1191 1497 
Q 1191 994 1439 701 
Q 1688 409 2113 409 
Q 2538 409 2786 701 
Q 3034 994 3034 1497 
Q 3034 2003 2786 2293 
Q 2538 2584 2113 2584 
z
M 3366 4563 
L 3366 3988 
Q 3128 4100 2886 4159 
Q 2644 4219 2406 4219 
Q 1781 4219 1451 3797 
Q 1122 3375 1075 2522 
Q 1259 2794 1537 2939 
Q 1816 3084 2150 3084 
Q 2853 3084 3261 2657 
Q 3669 2231 3669 1497 
Q 3669 778 3244 343 
Q 2819 -91 2113 -91 
Q 1303 -91 875 529 
Q 447 1150 447 2328 
Q 447 3434 972 4092 
Q 1497 4750 2381 4750 
Q 2619 4750 2861 4703 
Q 3103 4656 3366 4563 
z
" transform="scale(0.015625)"/>
       </defs>
       <use xlink:href="#DejaVuSans-36"/>
       <use xlink:href="#DejaVuSans-30" x="63.623047"/>
      </g>
     </g>
    </g>
    <g id="xtick_5">
     <g id="line2d_5">
      <g>
       <use xlink:href="#m3e3b635779" x="364.562607" y="303.64" style="stroke: #000000; stroke-width: 0.8"/>
      </g>
     </g>
     <g id="text_5">
      <!-- 80 -->
      <g transform="translate(358.200107 318.238437) scale(0.1 -0.1)">
       <defs>
        <path id="DejaVuSans-38" d="M 2034 2216 
Q 1584 2216 1326 1975 
Q 1069 1734 1069 1313 
Q 1069 891 1326 650 
Q 1584 409 2034 409 
Q 2484 409 2743 651 
Q 3003 894 3003 1313 
Q 3003 1734 2745 1975 
Q 2488 2216 2034 2216 
z
M 1403 2484 
Q 997 2584 770 2862 
Q 544 3141 544 3541 
Q 544 4100 942 4425 
Q 1341 4750 2034 4750 
Q 2731 4750 3128 4425 
Q 3525 4100 3525 3541 
Q 3525 3141 3298 2862 
Q 3072 2584 2669 2484 
Q 3125 2378 3379 2068 
Q 3634 1759 3634 1313 
Q 3634 634 3220 271 
Q 2806 -91 2034 -91 
Q 1263 -91 848 271 
Q 434 634 434 1313 
Q 434 1759 690 2068 
Q 947 2378 1403 2484 
z
M 1172 3481 
Q 1172 3119 1398 2916 
Q 1625 2713 2034 2713 
Q 2441 2713 2670 2916 
Q 2900 3119 2900 3481 
Q 2900 3844 2670 4047 
Q 2441 4250 2034 4250 
Q 1625 4250 1398 4047 
Q 1172 3844 1172 3481 
z
" transform="scale(0.015625)"/>
       </defs>
       <use xlink:href="#DejaVuSans-38"/>
       <use xlink:href="#DejaVuSans-30" x="63.623047"/>
      </g>
     </g>
    </g>
    <g id="xtick_6">
     <g id="line2d_6">
      <g>
       <use xlink:href="#m3e3b635779" x="439.180417" y="303.64" style="stroke: #000000; stroke-width: 0.8"/>
      </g>
     </g>
     <g id="text_6">
      <!-- 100 -->
      <g transform="translate(429.636667 318.238437) scale(0.1 -0.1)">
       <defs>
        <path id="DejaVuSans-31" d="M 794 531 
L 1825 531 
L 1825 4091 
L 703 3866 
L 703 4441 
L 1819 4666 
L 2450 4666 
L 2450 531 
L 3481 531 
L 3481 0 
L 794 0 
L 794 531 
z
" transform="scale(0.015625)"/>
       </defs>
       <use xlink:href="#DejaVuSans-31"/>
       <use xlink:href="#DejaVuSans-30" x="63.623047"/>
       <use xlink:href="#DejaVuSans-30" x="127.246094"/>
      </g>
     </g>
    </g>
    <g id="text_7">
     <!-- Iteration -->
     <g transform="translate(227.696406 331.916562) scale(0.1 -0.1)">
      <defs>
       <path id="DejaVuSans-49" d="M 628 4666 
L 1259 4666 
L 1259 0 
L 628 0 
L 628 4666 
z
" transform="scale(0.015625)"/>
       <path id="DejaVuSans-74" d="M 1172 4494 
L 1172 3500 
L 2356 3500 
L 2356 3053 
L 1172 3053 
L 1172 1153 
Q 1172 725 1289 603 
Q 1406 481 1766 481 
L 2356 481 
L 2356 0 
L 1766 0 
Q 1100 0 847 248 
Q 594 497 594 1153 
L 594 3053 
L 172 3053 
L 172 3500 
L 594 3500 
L 594 4494 
L 1172 4494 
z
" transform="scale(0.015625)"/>
       <path id="DejaVuSans-65" d="M 3597 1894 
L 3597 1613 
L 953 1613 
Q 991 1019 1311 708 
Q 1631 397 2203 397 
Q 2534 397 2845 478 
Q 3156 559 3463 722 
L 3463 178 
Q 3153 47 2828 -22 
Q 2503 -91 2169 -91 
Q 1331 -91 842 396 
Q 353 884 353 1716 
Q 353 2575 817 3079 
Q 1281 3584 2069 3584 
Q 2775 3584 3186 3129 
Q 3597 2675 3597 1894 
z
M 3022 2063 
Q 3016 2534 2758 2815 
Q 2500 3097 2075 3097 
Q 1594 3097 1305 2825 
Q 1016 2553 972 2059 
L 3022 2063 
z
" transform="scale(0.015625)"/>
       <path id="DejaVuSans-72" d="M 2631 2963 
Q 2534 3019 2420 3045 
Q 2306 3072 2169 3072 
Q 1681 3072 1420 2755 
Q 1159 2438 1159 1844 
L 1159 0 
L 581 0 
L 581 3500 
L 1159 3500 
L 1159 2956 
Q 1341 3275 1631 3429 
Q 1922 3584 2338 3584 
Q 2397 3584 2469 3576 
Q 2541 3569 2628 3553 
L 2631 2963 
z
" transform="scale(0.015625)"/>
       <path id="DejaVuSans-61" d="M 2194 1759 
Q 1497 1759 1228 1600 
Q 959 1441 959 1056 
Q 959 750 1161 570 
Q 1363 391 1709 391 
Q 2188 391 2477 730 
Q 2766 1069 2766 1631 
L 2766 1759 
L 2194 1759 
z
M 3341 1997 
L 3341 0 
L 2766 0 
L 2766 531 
Q 2569 213 2275 61 
Q 1981 -91 1556 -91 
Q 1019 -91 701 211 
Q 384 513 384 1019 
Q 384 1609 779 1909 
Q 1175 2209 1959 2209 
L 2766 2209 
L 2766 2266 
Q 2766 2663 2505 2880 
Q 2244 3097 1772 3097 
Q 1472 3097 1187 3025 
Q 903 2953 641 2809 
L 641 3341 
Q 956 3463 1253 3523 
Q 1550 3584 1831 3584 
Q 2591 3584 2966 3190 
Q 3341 2797 3341 1997 
z
" transform="scale(0.015625)"/>
       <path id="DejaVuSans-69" d="M 603 3500 
L 1178 3500 
L 1178 0 
L 603 0 
L 603 3500 
z
M 603 4863 
L 1178 4863 
L 1178 4134 
L 603 4134 
L 603 4863 
z
" transform="scale(0.015625)"/>
       <path id="DejaVuSans-6f" d="M 1959 3097 
Q 1497 3097 1228 2736 
Q 959 2375 959 1747 
Q 959 1119 1226 758 
Q 1494 397 1959 397 
Q 2419 397 2687 759 
Q 2956 1122 2956 1747 
Q 2956 2369 2687 2733 
Q 2419 3097 1959 3097 
z
M 1959 3584 
Q 2709 3584 3137 3096 
Q 3566 2609 3566 1747 
Q 3566 888 3137 398 
Q 2709 -91 1959 -91 
Q 1206 -91 779 398 
Q 353 888 353 1747 
Q 353 2609 779 3096 
Q 1206 3584 1959 3584 
z
" transform="scale(0.015625)"/>
       <path id="DejaVuSans-6e" d="M 3513 2113 
L 3513 0 
L 2938 0 
L 2938 2094 
Q 2938 2591 2744 2837 
Q 2550 3084 2163 3084 
Q 1697 3084 1428 2787 
Q 1159 2491 1159 1978 
L 1159 0 
L 581 0 
L 581 3500 
L 1159 3500 
L 1159 2956 
Q 1366 3272 1645 3428 
Q 1925 3584 2291 3584 
Q 2894 3584 3203 3211 
Q 3513 2838 3513 2113 
z
" transform="scale(0.015625)"/>
      </defs>
      <use xlink:href="#DejaVuSans-49"/>
      <use xlink:href="#DejaVuSans-74" x="29.492188"/>
      <use xlink:href="#DejaVuSans-65" x="68.701172"/>
      <use xlink:href="#DejaVuSans-72" x="130.224609"/>
      <use xlink:href="#DejaVuSans-61" x="171.337891"/>
      <use xlink:href="#DejaVuSans-74" x="232.617188"/>
      <use xlink:href="#DejaVuSans-69" x="271.826172"/>
      <use xlink:href="#DejaVuSans-6f" x="299.609375"/>
      <use xlink:href="#DejaVuSans-6e" x="360.791016"/>
     </g>
    </g>
   </g>
   <g id="matplotlib.axis_2">
    <g id="ytick_1">
     <g id="line2d_7">
      <defs>
       <path id="m6319942a06" d="M 0 0 
L -3.5 0 
" style="stroke: #000000; stroke-width: 0.8"/>
      </defs>
      <g>
       <use xlink:href="#m6319942a06" x="47.81" y="290.994545" style="stroke: #000000; stroke-width: 0.8"/>
      </g>
     </g>
     <g id="text_8">
      <!-- 0.0 -->
      <g transform="translate(24.906875 294.793764) scale(0.1 -0.1)">
       <defs>
        <path id="DejaVuSans-2e" d="M 684 794 
L 1344 794 
L 1344 0 
L 684 0 
L 684 794 
z
" transform="scale(0.015625)"/>
       </defs>
       <use xlink:href="#DejaVuSans-30"/>
       <use xlink:href="#DejaVuSans-2e" x="63.623047"/>
       <use xlink:href="#DejaVuSans-30" x="95.410156"/>
      </g>
     </g>
    </g>
    <g id="ytick_2">
     <g id="line2d_8">
      <g>
       <use xlink:href="#m6319942a06" x="47.81" y="240.412727" style="stroke: #000000; stroke-width: 0.8"/>
      </g>
     </g>
     <g id="text_9">
      <!-- 0.2 -->
      <g transform="translate(24.906875 244.211946) scale(0.1 -0.1)">
       <use xlink:href="#DejaVuSans-30"/>
       <use xlink:href="#DejaVuSans-2e" x="63.623047"/>
       <use xlink:href="#DejaVuSans-32" x="95.410156"/>
      </g>
     </g>
    </g>
    <g id="ytick_3">
     <g id="line2d_9">
      <g>
       <use xlink:href="#m6319942a06" x="47.81" y="189.830909" style="stroke: #000000; stroke-width: 0.8"/>
      </g>
     </g>
     <g id="text_10">
      <!-- 0.4 -->
      <g transform="translate(24.906875 193.630128) scale(0.1 -0.1)">
       <use xlink:href="#DejaVuSans-30"/>
       <use xlink:href="#DejaVuSans-2e" x="63.623047"/>
       <use xlink:href="#DejaVuSans-34" x="95.410156"/>
      </g>
     </g>
    </g>
    <g id="ytick_4">
     <g id="line2d_10">
      <g>
       <use xlink:href="#m6319942a06" x="47.81" y="139.249091" style="stroke: #000000; stroke-width: 0.8"/>
      </g>
     </g>
     <g id="text_11">
      <!-- 0.6 -->
      <g transform="translate(24.906875 143.04831) scale(0.1 -0.1)">
       <use xlink:href="#DejaVuSans-30"/>
       <use xlink:href="#DejaVuSans-2e" x="63.623047"/>
       <use xlink:href="#DejaVuSans-36" x="95.410156"/>
      </g>
     </g>
    </g>
    <g id="ytick_5">
     <g id="line2d_11">
      <g>
       <use xlink:href="#m6319942a06" x="47.81" y="88.667273" style="stroke: #000000; stroke-width: 0.8"/>
      </g>
     </g>
     <g id="text_12">
      <!-- 0.8 -->
      <g transform="translate(24.906875 92.466491) scale(0.1 -0.1)">
       <use xlink:href="#DejaVuSans-30"/>
       <use xlink:href="#DejaVuSans-2e" x="63.623047"/>
       <use xlink:href="#DejaVuSans-38" x="95.410156"/>
      </g>
     </g>
    </g>
    <g id="ytick_6">
     <g id="line2d_12">
      <g>
       <use xlink:href="#m6319942a06" x="47.81" y="38.085455" style="stroke: #000000; stroke-width: 0.8"/>
      </g>
     </g>
     <g id="text_13">
      <!-- 1.0 -->
      <g transform="translate(24.906875 41.884673) scale(0.1 -0.1)">
       <use xlink:href="#DejaVuSans-31"/>
       <use xlink:href="#DejaVuSans-2e" x="63.623047"/>
       <use xlink:href="#DejaVuSans-30" x="95.410156"/>
      </g>
     </g>
    </g>
    <g id="text_14">
     <!-- Similarity -->
     <g transform="translate(18.827187 188.179844) rotate(-90) scale(0.1 -0.1)">
      <defs>
       <path id="DejaVuSans-53" d="M 3425 4513 
L 3425 3897 
Q 3066 4069 2747 4153 
Q 2428 4238 2131 4238 
Q 1616 4238 1336 4038 
Q 1056 3838 1056 3469 
Q 1056 3159 1242 3001 
Q 1428 2844 1947 2747 
L 2328 2669 
Q 3034 2534 3370 2195 
Q 3706 1856 3706 1288 
Q 3706 609 3251 259 
Q 2797 -91 1919 -91 
Q 1588 -91 1214 -16 
Q 841 59 441 206 
L 441 856 
Q 825 641 1194 531 
Q 1563 422 1919 422 
Q 2459 422 2753 634 
Q 3047 847 3047 1241 
Q 3047 1584 2836 1778 
Q 2625 1972 2144 2069 
L 1759 2144 
Q 1053 2284 737 2584 
Q 422 2884 422 3419 
Q 422 4038 858 4394 
Q 1294 4750 2059 4750 
Q 2388 4750 2728 4690 
Q 3069 4631 3425 4513 
z
" transform="scale(0.015625)"/>
       <path id="DejaVuSans-6d" d="M 3328 2828 
Q 3544 3216 3844 3400 
Q 4144 3584 4550 3584 
Q 5097 3584 5394 3201 
Q 5691 2819 5691 2113 
L 5691 0 
L 5113 0 
L 5113 2094 
Q 5113 2597 4934 2840 
Q 4756 3084 4391 3084 
Q 3944 3084 3684 2787 
Q 3425 2491 3425 1978 
L 3425 0 
L 2847 0 
L 2847 2094 
Q 2847 2600 2669 2842 
Q 2491 3084 2119 3084 
Q 1678 3084 1418 2786 
Q 1159 2488 1159 1978 
L 1159 0 
L 581 0 
L 581 3500 
L 1159 3500 
L 1159 2956 
Q 1356 3278 1631 3431 
Q 1906 3584 2284 3584 
Q 2666 3584 2933 3390 
Q 3200 3197 3328 2828 
z
" transform="scale(0.015625)"/>
       <path id="DejaVuSans-6c" d="M 603 4863 
L 1178 4863 
L 1178 0 
L 603 0 
L 603 4863 
z
" transform="scale(0.015625)"/>
       <path id="DejaVuSans-79" d="M 2059 -325 
Q 1816 -950 1584 -1140 
Q 1353 -1331 966 -1331 
L 506 -1331 
L 506 -850 
L 844 -850 
Q 1081 -850 1212 -737 
Q 1344 -625 1503 -206 
L 1606 56 
L 191 3500 
L 800 3500 
L 1894 763 
L 2988 3500 
L 3597 3500 
L 2059 -325 
z
" transform="scale(0.015625)"/>
      </defs>
      <use xlink:href="#DejaVuSans-53"/>
      <use xlink:href="#DejaVuSans-69" x="63.476562"/>
      <use xlink:href="#DejaVuSans-6d" x="91.259766"/>
      <use xlink:href="#DejaVuSans-69" x="188.671875"/>
      <use xlink:href="#DejaVuSans-6c" x="216.455078"/>
      <use xlink:href="#DejaVuSans-61" x="244.238281"/>
      <use xlink:href="#DejaVuSans-72" x="305.517578"/>
      <use xlink:href="#DejaVuSans-69" x="346.630859"/>
      <use xlink:href="#DejaVuSans-74" x="374.414062"/>
      <use xlink:href="#DejaVuSans-79" x="413.623047"/>
     </g>
    </g>
   </g>
   <g id="line2d_13">
    <path d="M 66.091364 83.609091 
L 69.822254 68.434545 
L 73.553145 88.667273 
L 77.284035 112.693636 
L 81.014926 116.993091 
L 84.745816 120.702424 
L 88.476707 123.351948 
L 92.207597 122.177727 
L 95.938488 122.388485 
L 99.669378 125.086182 
L 103.400269 127.293388 
L 107.13116 125.760606 
L 110.86205 127.576364 
L 114.592941 129.132727 
L 118.323831 129.469939 
L 122.054722 129.765 
L 125.785612 129.132727 
L 129.516503 129.132727 
L 133.247393 130.197608 
L 136.978284 131.914727 
L 140.709174 131.300519 
L 144.440065 131.661818 
L 148.170955 132.431542 
L 151.901846 132.294091 
L 155.632737 132.774618 
L 159.363627 133.607273 
L 163.094518 132.879529 
L 166.825408 133.107013 
L 170.556299 134.714169 
L 174.287189 134.865333 
L 178.01808 135.006745 
L 181.74897 135.613523 
L 185.479861 136.183526 
L 189.210751 135.97615 
L 192.941642 135.491584 
L 196.672532 136.72 
L 200.403423 137.471892 
L 204.134314 136.72 
L 207.865204 136.136364 
L 211.596095 136.593545 
L 215.326985 136.905055 
L 219.057876 136.599567 
L 222.788766 136.778816 
L 226.519657 136.72 
L 230.250547 137.00101 
L 233.981438 137.379763 
L 237.712328 138.172882 
L 241.443219 138.511439 
L 245.174109 138.629722 
L 248.905 139.350255 
L 252.635891 139.348271 
L 256.366781 139.054545 
L 260.097672 139.058216 
L 263.828562 139.249091 
L 267.559453 139.065157 
L 271.290343 138.707143 
L 275.021234 138.539171 
L 278.752124 138.900251 
L 282.483015 139.249091 
L 286.213905 139.502 
L 289.944796 139.249091 
L 293.675686 139.085924 
L 297.406577 138.927937 
L 301.137468 139.170057 
L 304.868358 139.093455 
L 308.599249 139.172452 
L 312.330139 139.400081 
L 316.06103 139.472246 
L 319.79192 139.469012 
L 323.522811 139.46587 
L 327.253701 139.462817 
L 330.984592 139.389596 
L 334.715482 139.249091 
L 338.446373 139.454152 
L 342.177263 139.721188 
L 345.908154 139.581866 
L 349.639045 139.446163 
L 353.369935 139.249091 
L 357.100826 139.185063 
L 360.831716 139.565227 
L 364.562607 139.748664 
L 368.293497 139.619202 
L 372.024388 139.614743 
L 375.755278 139.670606 
L 379.486169 139.487123 
L 383.217059 139.543171 
L 386.94795 139.888631 
L 390.67884 139.938843 
L 394.409731 139.760592 
L 398.140622 139.811111 
L 401.871512 140.082857 
L 405.602403 140.183755 
L 409.333293 140.391261 
L 413.064184 140.3253 
L 416.795074 140.313971 
L 420.525965 140.513636 
L 424.256855 140.552746 
L 427.987746 140.436215 
L 431.718636 140.730781 
" clip-path="url(#p0f25cc7a5a)" style="fill: none; stroke: #0000ff; stroke-linecap: square"/>
    <defs>
     <path id="m8f83fae02f" d="M -0.49999 0.49999 
L 0.50001 0.49999 
L 0.50001 -0.50001 
L -0.49999 -0.50001 
z
"/>
    </defs>
    <g clip-path="url(#p0f25cc7a5a)">
     <use xlink:href="#m8f83fae02f" x="66.091364" y="83.609091" style="fill: #0000ff"/>
     <use xlink:href="#m8f83fae02f" x="69.822254" y="68.434545" style="fill: #0000ff"/>
     <use xlink:href="#m8f83fae02f" x="73.553145" y="88.667273" style="fill: #0000ff"/>
     <use xlink:href="#m8f83fae02f" x="77.284035" y="112.693636" style="fill: #0000ff"/>
     <use xlink:href="#m8f83fae02f" x="81.014926" y="116.993091" style="fill: #0000ff"/>
     <use xlink:href="#m8f83fae02f" x="84.745816" y="120.702424" style="fill: #0000ff"/>
     <use xlink:href="#m8f83fae02f" x="88.476707" y="123.351948" style="fill: #0000ff"/>
     <use xlink:href="#m8f83fae02f" x="92.207597" y="122.177727" style="fill: #0000ff"/>
     <use xlink:href="#m8f83fae02f" x="95.938488" y="122.388485" style="fill: #0000ff"/>
     <use xlink:href="#m8f83fae02f" x="99.669378" y="125.086182" style="fill: #0000ff"/>
     <use xlink:href="#m8f83fae02f" x="103.400269" y="127.293388" style="fill: #0000ff"/>
     <use xlink:href="#m8f83fae02f" x="107.13116" y="125.760606" style="fill: #0000ff"/>
     <use xlink:href="#m8f83fae02f" x="110.86205" y="127.576364" style="fill: #0000ff"/>
     <use xlink:href="#m8f83fae02f" x="114.592941" y="129.132727" style="fill: #0000ff"/>
     <use xlink:href="#m8f83fae02f" x="118.323831" y="129.469939" style="fill: #0000ff"/>
     <use xlink:href="#m8f83fae02f" x="122.054722" y="129.765" style="fill: #0000ff"/>
     <use xlink:href="#m8f83fae02f" x="125.785612" y="129.132727" style="fill: #0000ff"/>
     <use xlink:href="#m8f83fae02f" x="129.516503" y="129.132727" style="fill: #0000ff"/>
     <use xlink:href="#m8f83fae02f" x="133.247393" y="130.197608" style="fill: #0000ff"/>
     <use xlink:href="#m8f83fae02f" x="136.978284" y="131.914727" style="fill: #0000ff"/>
     <use xlink:href="#m8f83fae02f" x="140.709174" y="131.300519" style="fill: #0000ff"/>
     <use xlink:href="#m8f83fae02f" x="144.440065" y="131.661818" style="fill: #0000ff"/>
     <use xlink:href="#m8f83fae02f" x="148.170955" y="132.431542" style="fill: #0000ff"/>
     <use xlink:href="#m8f83fae02f" x="151.901846" y="132.294091" style="fill: #0000ff"/>
     <use xlink:href="#m8f83fae02f" x="155.632737" y="132.774618" style="fill: #0000ff"/>
     <use xlink:href="#m8f83fae02f" x="159.363627" y="133.607273" style="fill: #0000ff"/>
     <use xlink:href="#m8f83fae02f" x="163.094518" y="132.879529" style="fill: #0000ff"/>
     <use xlink:href="#m8f83fae02f" x="166.825408" y="133.107013" style="fill: #0000ff"/>
     <use xlink:href="#m8f83fae02f" x="170.556299" y="134.714169" style="fill: #0000ff"/>
     <use xlink:href="#m8f83fae02f" x="174.287189" y="134.865333" style="fill: #0000ff"/>
     <use xlink:href="#m8f83fae02f" x="178.01808" y="135.006745" style="fill: #0000ff"/>
     <use xlink:href="#m8f83fae02f" x="181.74897" y="135.613523" style="fill: #0000ff"/>
     <use xlink:href="#m8f83fae02f" x="185.479861" y="136.183526" style="fill: #0000ff"/>
     <use xlink:href="#m8f83fae02f" x="189.210751" y="135.97615" style="fill: #0000ff"/>
     <use xlink:href="#m8f83fae02f" x="192.941642" y="135.491584" style="fill: #0000ff"/>
     <use xlink:href="#m8f83fae02f" x="196.672532" y="136.72" style="fill: #0000ff"/>
     <use xlink:href="#m8f83fae02f" x="200.403423" y="137.471892" style="fill: #0000ff"/>
     <use xlink:href="#m8f83fae02f" x="204.134314" y="136.72" style="fill: #0000ff"/>
     <use xlink:href="#m8f83fae02f" x="207.865204" y="136.136364" style="fill: #0000ff"/>
     <use xlink:href="#m8f83fae02f" x="211.596095" y="136.593545" style="fill: #0000ff"/>
     <use xlink:href="#m8f83fae02f" x="215.326985" y="136.905055" style="fill: #0000ff"/>
     <use xlink:href="#m8f83fae02f" x="219.057876" y="136.599567" style="fill: #0000ff"/>
     <use xlink:href="#m8f83fae02f" x="222.788766" y="136.778816" style="fill: #0000ff"/>
     <use xlink:href="#m8f83fae02f" x="226.519657" y="136.72" style="fill: #0000ff"/>
     <use xlink:href="#m8f83fae02f" x="230.250547" y="137.00101" style="fill: #0000ff"/>
     <use xlink:href="#m8f83fae02f" x="233.981438" y="137.379763" style="fill: #0000ff"/>
     <use xlink:href="#m8f83fae02f" x="237.712328" y="138.172882" style="fill: #0000ff"/>
     <use xlink:href="#m8f83fae02f" x="241.443219" y="138.511439" style="fill: #0000ff"/>
     <use xlink:href="#m8f83fae02f" x="245.174109" y="138.629722" style="fill: #0000ff"/>
     <use xlink:href="#m8f83fae02f" x="248.905" y="139.350255" style="fill: #0000ff"/>
     <use xlink:href="#m8f83fae02f" x="252.635891" y="139.348271" style="fill: #0000ff"/>
     <use xlink:href="#m8f83fae02f" x="256.366781" y="139.054545" style="fill: #0000ff"/>
     <use xlink:href="#m8f83fae02f" x="260.097672" y="139.058216" style="fill: #0000ff"/>
     <use xlink:href="#m8f83fae02f" x="263.828562" y="139.249091" style="fill: #0000ff"/>
     <use xlink:href="#m8f83fae02f" x="267.559453" y="139.065157" style="fill: #0000ff"/>
     <use xlink:href="#m8f83fae02f" x="271.290343" y="138.707143" style="fill: #0000ff"/>
     <use xlink:href="#m8f83fae02f" x="275.021234" y="138.539171" style="fill: #0000ff"/>
     <use xlink:href="#m8f83fae02f" x="278.752124" y="138.900251" style="fill: #0000ff"/>
     <use xlink:href="#m8f83fae02f" x="282.483015" y="139.249091" style="fill: #0000ff"/>
     <use xlink:href="#m8f83fae02f" x="286.213905" y="139.502" style="fill: #0000ff"/>
     <use xlink:href="#m8f83fae02f" x="289.944796" y="139.249091" style="fill: #0000ff"/>
     <use xlink:href="#m8f83fae02f" x="293.675686" y="139.085924" style="fill: #0000ff"/>
     <use xlink:href="#m8f83fae02f" x="297.406577" y="138.927937" style="fill: #0000ff"/>
     <use xlink:href="#m8f83fae02f" x="301.137468" y="139.170057" style="fill: #0000ff"/>
     <use xlink:href="#m8f83fae02f" x="304.868358" y="139.093455" style="fill: #0000ff"/>
     <use xlink:href="#m8f83fae02f" x="308.599249" y="139.172452" style="fill: #0000ff"/>
     <use xlink:href="#m8f83fae02f" x="312.330139" y="139.400081" style="fill: #0000ff"/>
     <use xlink:href="#m8f83fae02f" x="316.06103" y="139.472246" style="fill: #0000ff"/>
     <use xlink:href="#m8f83fae02f" x="319.79192" y="139.469012" style="fill: #0000ff"/>
     <use xlink:href="#m8f83fae02f" x="323.522811" y="139.46587" style="fill: #0000ff"/>
     <use xlink:href="#m8f83fae02f" x="327.253701" y="139.462817" style="fill: #0000ff"/>
     <use xlink:href="#m8f83fae02f" x="330.984592" y="139.389596" style="fill: #0000ff"/>
     <use xlink:href="#m8f83fae02f" x="334.715482" y="139.249091" style="fill: #0000ff"/>
     <use xlink:href="#m8f83fae02f" x="338.446373" y="139.454152" style="fill: #0000ff"/>
     <use xlink:href="#m8f83fae02f" x="342.177263" y="139.721188" style="fill: #0000ff"/>
     <use xlink:href="#m8f83fae02f" x="345.908154" y="139.581866" style="fill: #0000ff"/>
     <use xlink:href="#m8f83fae02f" x="349.639045" y="139.446163" style="fill: #0000ff"/>
     <use xlink:href="#m8f83fae02f" x="353.369935" y="139.249091" style="fill: #0000ff"/>
     <use xlink:href="#m8f83fae02f" x="357.100826" y="139.185063" style="fill: #0000ff"/>
     <use xlink:href="#m8f83fae02f" x="360.831716" y="139.565227" style="fill: #0000ff"/>
     <use xlink:href="#m8f83fae02f" x="364.562607" y="139.748664" style="fill: #0000ff"/>
     <use xlink:href="#m8f83fae02f" x="368.293497" y="139.619202" style="fill: #0000ff"/>
     <use xlink:href="#m8f83fae02f" x="372.024388" y="139.614743" style="fill: #0000ff"/>
     <use xlink:href="#m8f83fae02f" x="375.755278" y="139.670606" style="fill: #0000ff"/>
     <use xlink:href="#m8f83fae02f" x="379.486169" y="139.487123" style="fill: #0000ff"/>
     <use xlink:href="#m8f83fae02f" x="383.217059" y="139.543171" style="fill: #0000ff"/>
     <use xlink:href="#m8f83fae02f" x="386.94795" y="139.888631" style="fill: #0000ff"/>
     <use xlink:href="#m8f83fae02f" x="390.67884" y="139.938843" style="fill: #0000ff"/>
     <use xlink:href="#m8f83fae02f" x="394.409731" y="139.760592" style="fill: #0000ff"/>
     <use xlink:href="#m8f83fae02f" x="398.140622" y="139.811111" style="fill: #0000ff"/>
     <use xlink:href="#m8f83fae02f" x="401.871512" y="140.082857" style="fill: #0000ff"/>
     <use xlink:href="#m8f83fae02f" x="405.602403" y="140.183755" style="fill: #0000ff"/>
     <use xlink:href="#m8f83fae02f" x="409.333293" y="140.391261" style="fill: #0000ff"/>
     <use xlink:href="#m8f83fae02f" x="413.064184" y="140.3253" style="fill: #0000ff"/>
     <use xlink:href="#m8f83fae02f" x="416.795074" y="140.313971" style="fill: #0000ff"/>
     <use xlink:href="#m8f83fae02f" x="420.525965" y="140.513636" style="fill: #0000ff"/>
     <use xlink:href="#m8f83fae02f" x="424.256855" y="140.552746" style="fill: #0000ff"/>
     <use xlink:href="#m8f83fae02f" x="427.987746" y="140.436215" style="fill: #0000ff"/>
     <use xlink:href="#m8f83fae02f" x="431.718636" y="140.730781" style="fill: #0000ff"/>
    </g>
   </g>
   <g id="line2d_14">
    <path d="M 66.091364 83.609091 
L 69.822254 76.021818 
L 73.553145 80.23697 
L 77.284035 88.351136 
L 81.014926 94.079527 
L 84.745816 98.516677 
L 88.476707 102.064573 
L 92.207597 104.578717 
L 95.938488 106.55758 
L 99.669378 108.41044 
L 103.400269 110.127072 
L 107.13116 111.429866 
L 110.86205 112.671905 
L 114.592941 113.847678 
L 118.323831 114.889162 
L 122.054722 115.818902 
L 125.785612 116.602068 
L 129.516503 117.298216 
L 133.247393 117.977131 
L 136.978284 118.674011 
L 140.709174 119.275273 
L 144.440065 119.838298 
L 148.170955 120.38583 
L 151.901846 120.882008 
L 155.632737 121.357712 
L 159.363627 121.828849 
L 163.094518 122.238134 
L 166.825408 122.626308 
L 170.556299 123.043131 
L 174.287189 123.437204 
L 178.01808 123.810415 
L 181.74897 124.179262 
L 185.479861 124.543028 
L 189.210751 124.879296 
L 192.941642 125.182504 
L 196.672532 125.50299 
L 200.403423 125.826474 
L 204.134314 126.113146 
L 207.865204 126.370151 
L 211.596095 126.625736 
L 215.326985 126.876451 
L 219.057876 127.107954 
L 222.788766 127.332858 
L 226.519657 127.546202 
L 230.250547 127.756309 
L 233.981438 127.965514 
L 237.712328 128.182692 
L 241.443219 128.397875 
L 245.174109 128.606688 
L 248.905 128.821559 
L 252.635891 129.027965 
L 256.366781 129.220784 
L 260.097672 129.406396 
L 263.828562 129.588668 
L 267.559453 129.760968 
L 271.290343 129.920721 
L 275.021234 130.071922 
L 278.752124 130.224135 
L 282.483015 130.3771 
L 286.213905 130.529182 
L 289.944796 130.672131 
L 293.675686 130.807837 
L 297.406577 130.936728 
L 301.137468 131.065373 
L 304.868358 131.188882 
L 308.599249 131.309846 
L 312.330139 131.430595 
L 316.06103 131.548855 
L 319.79192 131.66364 
L 323.522811 131.7751 
L 327.253701 131.883378 
L 330.984592 131.987631 
L 334.715482 132.087103 
L 338.446373 132.186658 
L 342.177263 132.287118 
L 345.908154 132.383102 
L 349.639045 132.47483 
L 353.369935 132.561679 
L 357.100826 132.64552 
L 360.831716 132.732016 
L 364.562607 132.818641 
L 368.293497 132.901575 
L 372.024388 132.982456 
L 375.755278 133.062077 
L 379.486169 133.137666 
L 383.217059 133.212149 
L 386.94795 133.28889 
L 390.67884 133.364457 
L 394.409731 133.436324 
L 398.140622 133.507155 
L 401.871512 133.579416 
L 405.602403 133.651202 
L 409.333293 133.723676 
L 413.064184 133.793906 
L 416.795074 133.862538 
L 420.525965 133.93182 
L 424.256855 134.000077 
L 427.987746 134.065752 
L 431.718636 134.133076 
" clip-path="url(#p0f25cc7a5a)" style="fill: none; stroke: #ff0000; stroke-opacity: 0.5; stroke-width: 0.5; stroke-linecap: square"/>
    <defs>
     <path id="m4a5f5fcb87" d="M -0.49999 0.49999 
L 0.50001 0.49999 
L 0.50001 -0.50001 
L -0.49999 -0.50001 
z
"/>
    </defs>
    <g clip-path="url(#p0f25cc7a5a)">
     <use xlink:href="#m4a5f5fcb87" x="66.091364" y="83.609091" style="fill: #ff0000; fill-opacity: 0.5"/>
     <use xlink:href="#m4a5f5fcb87" x="69.822254" y="76.021818" style="fill: #ff0000; fill-opacity: 0.5"/>
     <use xlink:href="#m4a5f5fcb87" x="73.553145" y="80.23697" style="fill: #ff0000; fill-opacity: 0.5"/>
     <use xlink:href="#m4a5f5fcb87" x="77.284035" y="88.351136" style="fill: #ff0000; fill-opacity: 0.5"/>
     <use xlink:href="#m4a5f5fcb87" x="81.014926" y="94.079527" style="fill: #ff0000; fill-opacity: 0.5"/>
     <use xlink:href="#m4a5f5fcb87" x="84.745816" y="98.516677" style="fill: #ff0000; fill-opacity: 0.5"/>
     <use xlink:href="#m4a5f5fcb87" x="88.476707" y="102.064573" style="fill: #ff0000; fill-opacity: 0.5"/>
     <use xlink:href="#m4a5f5fcb87" x="92.207597" y="104.578717" style="fill: #ff0000; fill-opacity: 0.5"/>
     <use xlink:href="#m4a5f5fcb87" x="95.938488" y="106.55758" style="fill: #ff0000; fill-opacity: 0.5"/>
     <use xlink:href="#m4a5f5fcb87" x="99.669378" y="108.41044" style="fill: #ff0000; fill-opacity: 0.5"/>
     <use xlink:href="#m4a5f5fcb87" x="103.400269" y="110.127072" style="fill: #ff0000; fill-opacity: 0.5"/>
     <use xlink:href="#m4a5f5fcb87" x="107.13116" y="111.429866" style="fill: #ff0000; fill-opacity: 0.5"/>
     <use xlink:href="#m4a5f5fcb87" x="110.86205" y="112.671905" style="fill: #ff0000; fill-opacity: 0.5"/>
     <use xlink:href="#m4a5f5fcb87" x="114.592941" y="113.847678" style="fill: #ff0000; fill-opacity: 0.5"/>
     <use xlink:href="#m4a5f5fcb87" x="118.323831" y="114.889162" style="fill: #ff0000; fill-opacity: 0.5"/>
     <use xlink:href="#m4a5f5fcb87" x="122.054722" y="115.818902" style="fill: #ff0000; fill-opacity: 0.5"/>
     <use xlink:href="#m4a5f5fcb87" x="125.785612" y="116.602068" style="fill: #ff0000; fill-opacity: 0.5"/>
     <use xlink:href="#m4a5f5fcb87" x="129.516503" y="117.298216" style="fill: #ff0000; fill-opacity: 0.5"/>
     <use xlink:href="#m4a5f5fcb87" x="133.247393" y="117.977131" style="fill: #ff0000; fill-opacity: 0.5"/>
     <use xlink:href="#m4a5f5fcb87" x="136.978284" y="118.674011" style="fill: #ff0000; fill-opacity: 0.5"/>
     <use xlink:href="#m4a5f5fcb87" x="140.709174" y="119.275273" style="fill: #ff0000; fill-opacity: 0.5"/>
     <use xlink:href="#m4a5f5fcb87" x="144.440065" y="119.838298" style="fill: #ff0000; fill-opacity: 0.5"/>
     <use xlink:href="#m4a5f5fcb87" x="148.170955" y="120.38583" style="fill: #ff0000; fill-opacity: 0.5"/>
     <use xlink:href="#m4a5f5fcb87" x="151.901846" y="120.882008" style="fill: #ff0000; fill-opacity: 0.5"/>
     <use xlink:href="#m4a5f5fcb87" x="155.632737" y="121.357712" style="fill: #ff0000; fill-opacity: 0.5"/>
     <use xlink:href="#m4a5f5fcb87" x="159.363627" y="121.828849" style="fill: #ff0000; fill-opacity: 0.5"/>
     <use xlink:href="#m4a5f5fcb87" x="163.094518" y="122.238134" style="fill: #ff0000; fill-opacity: 0.5"/>
     <use xlink:href="#m4a5f5fcb87" x="166.825408" y="122.626308" style="fill: #ff0000; fill-opacity: 0.5"/>
     <use xlink:href="#m4a5f5fcb87" x="170.556299" y="123.043131" style="fill: #ff0000; fill-opacity: 0.5"/>
     <use xlink:href="#m4a5f5fcb87" x="174.287189" y="123.437204" style="fill: #ff0000; fill-opacity: 0.5"/>
     <use xlink:href="#m4a5f5fcb87" x="178.01808" y="123.810415" style="fill: #ff0000; fill-opacity: 0.5"/>
     <use xlink:href="#m4a5f5fcb87" x="181.74897" y="124.179262" style="fill: #ff0000; fill-opacity: 0.5"/>
     <use xlink:href="#m4a5f5fcb87" x="185.479861" y="124.543028" style="fill: #ff0000; fill-opacity: 0.5"/>
     <use xlink:href="#m4a5f5fcb87" x="189.210751" y="124.879296" style="fill: #ff0000; fill-opacity: 0.5"/>
     <use xlink:href="#m4a5f5fcb87" x="192.941642" y="125.182504" style="fill: #ff0000; fill-opacity: 0.5"/>
     <use xlink:href="#m4a5f5fcb87" x="196.672532" y="125.50299" style="fill: #ff0000; fill-opacity: 0.5"/>
     <use xlink:href="#m4a5f5fcb87" x="200.403423" y="125.826474" style="fill: #ff0000; fill-opacity: 0.5"/>
     <use xlink:href="#m4a5f5fcb87" x="204.134314" y="126.113146" style="fill: #ff0000; fill-opacity: 0.5"/>
     <use xlink:href="#m4a5f5fcb87" x="207.865204" y="126.370151" style="fill: #ff0000; fill-opacity: 0.5"/>
     <use xlink:href="#m4a5f5fcb87" x="211.596095" y="126.625736" style="fill: #ff0000; fill-opacity: 0.5"/>
     <use xlink:href="#m4a5f5fcb87" x="215.326985" y="126.876451" style="fill: #ff0000; fill-opacity: 0.5"/>
     <use xlink:href="#m4a5f5fcb87" x="219.057876" y="127.107954" style="fill: #ff0000; fill-opacity: 0.5"/>
     <use xlink:href="#m4a5f5fcb87" x="222.788766" y="127.332858" style="fill: #ff0000; fill-opacity: 0.5"/>
     <use xlink:href="#m4a5f5fcb87" x="226.519657" y="127.546202" style="fill: #ff0000; fill-opacity: 0.5"/>
     <use xlink:href="#m4a5f5fcb87" x="230.250547" y="127.756309" style="fill: #ff0000; fill-opacity: 0.5"/>
     <use xlink:href="#m4a5f5fcb87" x="233.981438" y="127.965514" style="fill: #ff0000; fill-opacity: 0.5"/>
     <use xlink:href="#m4a5f5fcb87" x="237.712328" y="128.182692" style="fill: #ff0000; fill-opacity: 0.5"/>
     <use xlink:href="#m4a5f5fcb87" x="241.443219" y="128.397875" style="fill: #ff0000; fill-opacity: 0.5"/>
     <use xlink:href="#m4a5f5fcb87" x="245.174109" y="128.606688" style="fill: #ff0000; fill-opacity: 0.5"/>
     <use xlink:href="#m4a5f5fcb87" x="248.905" y="128.821559" style="fill: #ff0000; fill-opacity: 0.5"/>
     <use xlink:href="#m4a5f5fcb87" x="252.635891" y="129.027965" style="fill: #ff0000; fill-opacity: 0.5"/>
     <use xlink:href="#m4a5f5fcb87" x="256.366781" y="129.220784" style="fill: #ff0000; fill-opacity: 0.5"/>
     <use xlink:href="#m4a5f5fcb87" x="260.097672" y="129.406396" style="fill: #ff0000; fill-opacity: 0.5"/>
     <use xlink:href="#m4a5f5fcb87" x="263.828562" y="129.588668" style="fill: #ff0000; fill-opacity: 0.5"/>
     <use xlink:href="#m4a5f5fcb87" x="267.559453" y="129.760968" style="fill: #ff0000; fill-opacity: 0.5"/>
     <use xlink:href="#m4a5f5fcb87" x="271.290343" y="129.920721" style="fill: #ff0000; fill-opacity: 0.5"/>
     <use xlink:href="#m4a5f5fcb87" x="275.021234" y="130.071922" style="fill: #ff0000; fill-opacity: 0.5"/>
     <use xlink:href="#m4a5f5fcb87" x="278.752124" y="130.224135" style="fill: #ff0000; fill-opacity: 0.5"/>
     <use xlink:href="#m4a5f5fcb87" x="282.483015" y="130.3771" style="fill: #ff0000; fill-opacity: 0.5"/>
     <use xlink:href="#m4a5f5fcb87" x="286.213905" y="130.529182" style="fill: #ff0000; fill-opacity: 0.5"/>
     <use xlink:href="#m4a5f5fcb87" x="289.944796" y="130.672131" style="fill: #ff0000; fill-opacity: 0.5"/>
     <use xlink:href="#m4a5f5fcb87" x="293.675686" y="130.807837" style="fill: #ff0000; fill-opacity: 0.5"/>
     <use xlink:href="#m4a5f5fcb87" x="297.406577" y="130.936728" style="fill: #ff0000; fill-opacity: 0.5"/>
     <use xlink:href="#m4a5f5fcb87" x="301.137468" y="131.065373" style="fill: #ff0000; fill-opacity: 0.5"/>
     <use xlink:href="#m4a5f5fcb87" x="304.868358" y="131.188882" style="fill: #ff0000; fill-opacity: 0.5"/>
     <use xlink:href="#m4a5f5fcb87" x="308.599249" y="131.309846" style="fill: #ff0000; fill-opacity: 0.5"/>
     <use xlink:href="#m4a5f5fcb87" x="312.330139" y="131.430595" style="fill: #ff0000; fill-opacity: 0.5"/>
     <use xlink:href="#m4a5f5fcb87" x="316.06103" y="131.548855" style="fill: #ff0000; fill-opacity: 0.5"/>
     <use xlink:href="#m4a5f5fcb87" x="319.79192" y="131.66364" style="fill: #ff0000; fill-opacity: 0.5"/>
     <use xlink:href="#m4a5f5fcb87" x="323.522811" y="131.7751" style="fill: #ff0000; fill-opacity: 0.5"/>
     <use xlink:href="#m4a5f5fcb87" x="327.253701" y="131.883378" style="fill: #ff0000; fill-opacity: 0.5"/>
     <use xlink:href="#m4a5f5fcb87" x="330.984592" y="131.987631" style="fill: #ff0000; fill-opacity: 0.5"/>
     <use xlink:href="#m4a5f5fcb87" x="334.715482" y="132.087103" style="fill: #ff0000; fill-opacity: 0.5"/>
     <use xlink:href="#m4a5f5fcb87" x="338.446373" y="132.186658" style="fill: #ff0000; fill-opacity: 0.5"/>
     <use xlink:href="#m4a5f5fcb87" x="342.177263" y="132.287118" style="fill: #ff0000; fill-opacity: 0.5"/>
     <use xlink:href="#m4a5f5fcb87" x="345.908154" y="132.383102" style="fill: #ff0000; fill-opacity: 0.5"/>
     <use xlink:href="#m4a5f5fcb87" x="349.639045" y="132.47483" style="fill: #ff0000; fill-opacity: 0.5"/>
     <use xlink:href="#m4a5f5fcb87" x="353.369935" y="132.561679" style="fill: #ff0000; fill-opacity: 0.5"/>
     <use xlink:href="#m4a5f5fcb87" x="357.100826" y="132.64552" style="fill: #ff0000; fill-opacity: 0.5"/>
     <use xlink:href="#m4a5f5fcb87" x="360.831716" y="132.732016" style="fill: #ff0000; fill-opacity: 0.5"/>
     <use xlink:href="#m4a5f5fcb87" x="364.562607" y="132.818641" style="fill: #ff0000; fill-opacity: 0.5"/>
     <use xlink:href="#m4a5f5fcb87" x="368.293497" y="132.901575" style="fill: #ff0000; fill-opacity: 0.5"/>
     <use xlink:href="#m4a5f5fcb87" x="372.024388" y="132.982456" style="fill: #ff0000; fill-opacity: 0.5"/>
     <use xlink:href="#m4a5f5fcb87" x="375.755278" y="133.062077" style="fill: #ff0000; fill-opacity: 0.5"/>
     <use xlink:href="#m4a5f5fcb87" x="379.486169" y="133.137666" style="fill: #ff0000; fill-opacity: 0.5"/>
     <use xlink:href="#m4a5f5fcb87" x="383.217059" y="133.212149" style="fill: #ff0000; fill-opacity: 0.5"/>
     <use xlink:href="#m4a5f5fcb87" x="386.94795" y="133.28889" style="fill: #ff0000; fill-opacity: 0.5"/>
     <use xlink:href="#m4a5f5fcb87" x="390.67884" y="133.364457" style="fill: #ff0000; fill-opacity: 0.5"/>
     <use xlink:href="#m4a5f5fcb87" x="394.409731" y="133.436324" style="fill: #ff0000; fill-opacity: 0.5"/>
     <use xlink:href="#m4a5f5fcb87" x="398.140622" y="133.507155" style="fill: #ff0000; fill-opacity: 0.5"/>
     <use xlink:href="#m4a5f5fcb87" x="401.871512" y="133.579416" style="fill: #ff0000; fill-opacity: 0.5"/>
     <use xlink:href="#m4a5f5fcb87" x="405.602403" y="133.651202" style="fill: #ff0000; fill-opacity: 0.5"/>
     <use xlink:href="#m4a5f5fcb87" x="409.333293" y="133.723676" style="fill: #ff0000; fill-opacity: 0.5"/>
     <use xlink:href="#m4a5f5fcb87" x="413.064184" y="133.793906" style="fill: #ff0000; fill-opacity: 0.5"/>
     <use xlink:href="#m4a5f5fcb87" x="416.795074" y="133.862538" style="fill: #ff0000; fill-opacity: 0.5"/>
     <use xlink:href="#m4a5f5fcb87" x="420.525965" y="133.93182" style="fill: #ff0000; fill-opacity: 0.5"/>
     <use xlink:href="#m4a5f5fcb87" x="424.256855" y="134.000077" style="fill: #ff0000; fill-opacity: 0.5"/>
     <use xlink:href="#m4a5f5fcb87" x="427.987746" y="134.065752" style="fill: #ff0000; fill-opacity: 0.5"/>
     <use xlink:href="#m4a5f5fcb87" x="431.718636" y="134.133076" style="fill: #ff0000; fill-opacity: 0.5"/>
    </g>
   </g>
   <g id="line2d_15">
    <path d="M 47.81 290.994545 
L 450 290.994545 
" clip-path="url(#p0f25cc7a5a)" style="fill: none; stroke-dasharray: 0.555,0.24; stroke-dashoffset: 0; stroke: #ff0000; stroke-width: 0.15"/>
   </g>
   <g id="line2d_16">
    <path d="M 47.81 164.54 
L 450 164.54 
" clip-path="url(#p0f25cc7a5a)" style="fill: none; stroke-dasharray: 0.555,0.24; stroke-dashoffset: 0; stroke: #ff0000; stroke-width: 0.15"/>
   </g>
   <g id="line2d_17">
    <path d="M 47.81 38.085455 
L 450 38.085455 
" clip-path="url(#p0f25cc7a5a)" style="fill: none; stroke-dasharray: 0.555,0.24; stroke-dashoffset: 0; stroke: #ff0000; stroke-width: 0.15"/>
   </g>
   <g id="patch_3">
    <path d="M 47.81 303.64 
L 47.81 25.44 
" style="fill: none; stroke: #000000; stroke-width: 0.8; stroke-linejoin: miter; stroke-linecap: square"/>
   </g>
   <g id="patch_4">
    <path d="M 450 303.64 
L 450 25.44 
" style="fill: none; stroke: #000000; stroke-width: 0.8; stroke-linejoin: miter; stroke-linecap: square"/>
   </g>
   <g id="patch_5">
    <path d="M 47.81 303.64 
L 450 303.64 
" style="fill: none; stroke: #000000; stroke-width: 0.8; stroke-linejoin: miter; stroke-linecap: square"/>
   </g>
   <g id="patch_6">
    <path d="M 47.81 25.44 
L 450 25.44 
" style="fill: none; stroke: #000000; stroke-width: 0.8; stroke-linejoin: miter; stroke-linecap: square"/>
   </g>
   <g id="text_15">
    <!-- Similarity LLM-DEF_sw2 - 20240417174800 - 50 games -->
    <g transform="translate(82.79875 19.44) scale(0.12 -0.12)">
     <defs>
      <path id="DejaVuSans-20" transform="scale(0.015625)"/>
      <path id="DejaVuSans-4c" d="M 628 4666 
L 1259 4666 
L 1259 531 
L 3531 531 
L 3531 0 
L 628 0 
L 628 4666 
z
" transform="scale(0.015625)"/>
      <path id="DejaVuSans-4d" d="M 628 4666 
L 1569 4666 
L 2759 1491 
L 3956 4666 
L 4897 4666 
L 4897 0 
L 4281 0 
L 4281 4097 
L 3078 897 
L 2444 897 
L 1241 4097 
L 1241 0 
L 628 0 
L 628 4666 
z
" transform="scale(0.015625)"/>
      <path id="DejaVuSans-2d" d="M 313 2009 
L 1997 2009 
L 1997 1497 
L 313 1497 
L 313 2009 
z
" transform="scale(0.015625)"/>
      <path id="DejaVuSans-44" d="M 1259 4147 
L 1259 519 
L 2022 519 
Q 2988 519 3436 956 
Q 3884 1394 3884 2338 
Q 3884 3275 3436 3711 
Q 2988 4147 2022 4147 
L 1259 4147 
z
M 628 4666 
L 1925 4666 
Q 3281 4666 3915 4102 
Q 4550 3538 4550 2338 
Q 4550 1131 3912 565 
Q 3275 0 1925 0 
L 628 0 
L 628 4666 
z
" transform="scale(0.015625)"/>
      <path id="DejaVuSans-45" d="M 628 4666 
L 3578 4666 
L 3578 4134 
L 1259 4134 
L 1259 2753 
L 3481 2753 
L 3481 2222 
L 1259 2222 
L 1259 531 
L 3634 531 
L 3634 0 
L 628 0 
L 628 4666 
z
" transform="scale(0.015625)"/>
      <path id="DejaVuSans-46" d="M 628 4666 
L 3309 4666 
L 3309 4134 
L 1259 4134 
L 1259 2759 
L 3109 2759 
L 3109 2228 
L 1259 2228 
L 1259 0 
L 628 0 
L 628 4666 
z
" transform="scale(0.015625)"/>
      <path id="DejaVuSans-5f" d="M 3263 -1063 
L 3263 -1509 
L -63 -1509 
L -63 -1063 
L 3263 -1063 
z
" transform="scale(0.015625)"/>
      <path id="DejaVuSans-73" d="M 2834 3397 
L 2834 2853 
Q 2591 2978 2328 3040 
Q 2066 3103 1784 3103 
Q 1356 3103 1142 2972 
Q 928 2841 928 2578 
Q 928 2378 1081 2264 
Q 1234 2150 1697 2047 
L 1894 2003 
Q 2506 1872 2764 1633 
Q 3022 1394 3022 966 
Q 3022 478 2636 193 
Q 2250 -91 1575 -91 
Q 1294 -91 989 -36 
Q 684 19 347 128 
L 347 722 
Q 666 556 975 473 
Q 1284 391 1588 391 
Q 1994 391 2212 530 
Q 2431 669 2431 922 
Q 2431 1156 2273 1281 
Q 2116 1406 1581 1522 
L 1381 1569 
Q 847 1681 609 1914 
Q 372 2147 372 2553 
Q 372 3047 722 3315 
Q 1072 3584 1716 3584 
Q 2034 3584 2315 3537 
Q 2597 3491 2834 3397 
z
" transform="scale(0.015625)"/>
      <path id="DejaVuSans-77" d="M 269 3500 
L 844 3500 
L 1563 769 
L 2278 3500 
L 2956 3500 
L 3675 769 
L 4391 3500 
L 4966 3500 
L 4050 0 
L 3372 0 
L 2619 2869 
L 1863 0 
L 1184 0 
L 269 3500 
z
" transform="scale(0.015625)"/>
      <path id="DejaVuSans-37" d="M 525 4666 
L 3525 4666 
L 3525 4397 
L 1831 0 
L 1172 0 
L 2766 4134 
L 525 4134 
L 525 4666 
z
" transform="scale(0.015625)"/>
      <path id="DejaVuSans-35" d="M 691 4666 
L 3169 4666 
L 3169 4134 
L 1269 4134 
L 1269 2991 
Q 1406 3038 1543 3061 
Q 1681 3084 1819 3084 
Q 2600 3084 3056 2656 
Q 3513 2228 3513 1497 
Q 3513 744 3044 326 
Q 2575 -91 1722 -91 
Q 1428 -91 1123 -41 
Q 819 9 494 109 
L 494 744 
Q 775 591 1075 516 
Q 1375 441 1709 441 
Q 2250 441 2565 725 
Q 2881 1009 2881 1497 
Q 2881 1984 2565 2268 
Q 2250 2553 1709 2553 
Q 1456 2553 1204 2497 
Q 953 2441 691 2322 
L 691 4666 
z
" transform="scale(0.015625)"/>
      <path id="DejaVuSans-67" d="M 2906 1791 
Q 2906 2416 2648 2759 
Q 2391 3103 1925 3103 
Q 1463 3103 1205 2759 
Q 947 2416 947 1791 
Q 947 1169 1205 825 
Q 1463 481 1925 481 
Q 2391 481 2648 825 
Q 2906 1169 2906 1791 
z
M 3481 434 
Q 3481 -459 3084 -895 
Q 2688 -1331 1869 -1331 
Q 1566 -1331 1297 -1286 
Q 1028 -1241 775 -1147 
L 775 -588 
Q 1028 -725 1275 -790 
Q 1522 -856 1778 -856 
Q 2344 -856 2625 -561 
Q 2906 -266 2906 331 
L 2906 616 
Q 2728 306 2450 153 
Q 2172 0 1784 0 
Q 1141 0 747 490 
Q 353 981 353 1791 
Q 353 2603 747 3093 
Q 1141 3584 1784 3584 
Q 2172 3584 2450 3431 
Q 2728 3278 2906 2969 
L 2906 3500 
L 3481 3500 
L 3481 434 
z
" transform="scale(0.015625)"/>
     </defs>
     <use xlink:href="#DejaVuSans-53"/>
     <use xlink:href="#DejaVuSans-69" x="63.476562"/>
     <use xlink:href="#DejaVuSans-6d" x="91.259766"/>
     <use xlink:href="#DejaVuSans-69" x="188.671875"/>
     <use xlink:href="#DejaVuSans-6c" x="216.455078"/>
     <use xlink:href="#DejaVuSans-61" x="244.238281"/>
     <use xlink:href="#DejaVuSans-72" x="305.517578"/>
     <use xlink:href="#DejaVuSans-69" x="346.630859"/>
     <use xlink:href="#DejaVuSans-74" x="374.414062"/>
     <use xlink:href="#DejaVuSans-79" x="413.623047"/>
     <use xlink:href="#DejaVuSans-20" x="472.802734"/>
     <use xlink:href="#DejaVuSans-4c" x="504.589844"/>
     <use xlink:href="#DejaVuSans-4c" x="560.302734"/>
     <use xlink:href="#DejaVuSans-4d" x="616.015625"/>
     <use xlink:href="#DejaVuSans-2d" x="702.294922"/>
     <use xlink:href="#DejaVuSans-44" x="738.378906"/>
     <use xlink:href="#DejaVuSans-45" x="815.380859"/>
     <use xlink:href="#DejaVuSans-46" x="878.564453"/>
     <use xlink:href="#DejaVuSans-5f" x="936.083984"/>
     <use xlink:href="#DejaVuSans-73" x="986.083984"/>
     <use xlink:href="#DejaVuSans-77" x="1038.183594"/>
     <use xlink:href="#DejaVuSans-32" x="1119.970703"/>
     <use xlink:href="#DejaVuSans-20" x="1183.59375"/>
     <use xlink:href="#DejaVuSans-2d" x="1215.380859"/>
     <use xlink:href="#DejaVuSans-20" x="1251.464844"/>
     <use xlink:href="#DejaVuSans-32" x="1283.251953"/>
     <use xlink:href="#DejaVuSans-30" x="1346.875"/>
     <use xlink:href="#DejaVuSans-32" x="1410.498047"/>
     <use xlink:href="#DejaVuSans-34" x="1474.121094"/>
     <use xlink:href="#DejaVuSans-30" x="1537.744141"/>
     <use xlink:href="#DejaVuSans-34" x="1601.367188"/>
     <use xlink:href="#DejaVuSans-31" x="1664.990234"/>
     <use xlink:href="#DejaVuSans-37" x="1728.613281"/>
     <use xlink:href="#DejaVuSans-31" x="1792.236328"/>
     <use xlink:href="#DejaVuSans-37" x="1855.859375"/>
     <use xlink:href="#DejaVuSans-34" x="1919.482422"/>
     <use xlink:href="#DejaVuSans-38" x="1983.105469"/>
     <use xlink:href="#DejaVuSans-30" x="2046.728516"/>
     <use xlink:href="#DejaVuSans-30" x="2110.351562"/>
     <use xlink:href="#DejaVuSans-20" x="2173.974609"/>
     <use xlink:href="#DejaVuSans-2d" x="2205.761719"/>
     <use xlink:href="#DejaVuSans-20" x="2241.845703"/>
     <use xlink:href="#DejaVuSans-35" x="2273.632812"/>
     <use xlink:href="#DejaVuSans-30" x="2337.255859"/>
     <use xlink:href="#DejaVuSans-20" x="2400.878906"/>
     <use xlink:href="#DejaVuSans-67" x="2432.666016"/>
     <use xlink:href="#DejaVuSans-61" x="2496.142578"/>
     <use xlink:href="#DejaVuSans-6d" x="2557.421875"/>
     <use xlink:href="#DejaVuSans-65" x="2654.833984"/>
     <use xlink:href="#DejaVuSans-73" x="2716.357422"/>
    </g>
   </g>
   <g id="legend_1">
    <g id="patch_7">
     <path d="M 311.5625 63.3525 
L 443 63.3525 
Q 445 63.3525 445 61.3525 
L 445 32.44 
Q 445 30.44 443 30.44 
L 311.5625 30.44 
Q 309.5625 30.44 309.5625 32.44 
L 309.5625 61.3525 
Q 309.5625 63.3525 311.5625 63.3525 
z
" style="fill: #ffffff; opacity: 0.8; stroke: #cccccc; stroke-linejoin: miter"/>
    </g>
    <g id="line2d_18">
     <path d="M 313.5625 38.538437 
L 323.5625 38.538437 
L 333.5625 38.538437 
" style="fill: none; stroke: #0000ff; stroke-linecap: square"/>
     <g>
      <use xlink:href="#m8f83fae02f" x="323.5625" y="38.538437" style="fill: #0000ff"/>
     </g>
    </g>
    <g id="text_16">
     <!-- LLM-DEF_sw2 -->
     <g transform="translate(341.5625 42.038437) scale(0.1 -0.1)">
      <use xlink:href="#DejaVuSans-4c"/>
      <use xlink:href="#DejaVuSans-4c" x="55.712891"/>
      <use xlink:href="#DejaVuSans-4d" x="111.425781"/>
      <use xlink:href="#DejaVuSans-2d" x="197.705078"/>
      <use xlink:href="#DejaVuSans-44" x="233.789062"/>
      <use xlink:href="#DejaVuSans-45" x="310.791016"/>
      <use xlink:href="#DejaVuSans-46" x="373.974609"/>
      <use xlink:href="#DejaVuSans-5f" x="431.494141"/>
      <use xlink:href="#DejaVuSans-73" x="481.494141"/>
      <use xlink:href="#DejaVuSans-77" x="533.59375"/>
      <use xlink:href="#DejaVuSans-32" x="615.380859"/>
     </g>
    </g>
    <g id="line2d_19">
     <path d="M 313.5625 53.494687 
L 323.5625 53.494687 
L 333.5625 53.494687 
" style="fill: none; stroke: #ff0000; stroke-opacity: 0.5; stroke-width: 0.5; stroke-linecap: square"/>
     <g>
      <use xlink:href="#m4a5f5fcb87" x="323.5625" y="53.494687" style="fill: #ff0000; fill-opacity: 0.5"/>
     </g>
    </g>
    <g id="text_17">
     <!-- LLM-DEF_sw2 mean -->
     <g transform="translate(341.5625 56.994687) scale(0.1 -0.1)">
      <use xlink:href="#DejaVuSans-4c"/>
      <use xlink:href="#DejaVuSans-4c" x="55.712891"/>
      <use xlink:href="#DejaVuSans-4d" x="111.425781"/>
      <use xlink:href="#DejaVuSans-2d" x="197.705078"/>
      <use xlink:href="#DejaVuSans-44" x="233.789062"/>
      <use xlink:href="#DejaVuSans-45" x="310.791016"/>
      <use xlink:href="#DejaVuSans-46" x="373.974609"/>
      <use xlink:href="#DejaVuSans-5f" x="431.494141"/>
      <use xlink:href="#DejaVuSans-73" x="481.494141"/>
      <use xlink:href="#DejaVuSans-77" x="533.59375"/>
      <use xlink:href="#DejaVuSans-32" x="615.380859"/>
      <use xlink:href="#DejaVuSans-20" x="679.003906"/>
      <use xlink:href="#DejaVuSans-6d" x="710.791016"/>
      <use xlink:href="#DejaVuSans-65" x="808.203125"/>
      <use xlink:href="#DejaVuSans-61" x="869.726562"/>
      <use xlink:href="#DejaVuSans-6e" x="931.005859"/>
     </g>
    </g>
   </g>
  </g>
 </g>
 <defs>
  <clipPath id="p0f25cc7a5a">
   <rect x="47.81" y="25.44" width="402.19" height="278.2"/>
  </clipPath>
 </defs>
</svg>
