<?xml version="1.0" encoding="utf-8" standalone="no"?>
<!DOCTYPE svg PUBLIC "-//W3C//DTD SVG 1.1//EN"
  "http://www.w3.org/Graphics/SVG/1.1/DTD/svg11.dtd">
<svg xmlns:xlink="http://www.w3.org/1999/xlink" width="460.8pt" height="345.6pt" viewBox="0 0 460.8 345.6" xmlns="http://www.w3.org/2000/svg" version="1.1">
 <metadata>
  <rdf:RDF xmlns:dc="http://purl.org/dc/elements/1.1/" xmlns:cc="http://creativecommons.org/ns#" xmlns:rdf="http://www.w3.org/1999/02/22-rdf-syntax-ns#">
   <cc:Work>
    <dc:type rdf:resource="http://purl.org/dc/dcmitype/StillImage"/>
    <dc:date>2024-04-29T11:04:47.557862</dc:date>
    <dc:format>image/svg+xml</dc:format>
    <dc:creator>
     <cc:Agent>
      <dc:title>Matplotlib v3.8.0, https://matplotlib.org/</dc:title>
     </cc:Agent>
    </dc:creator>
   </cc:Work>
  </rdf:RDF>
 </metadata>
 <defs>
  <style type="text/css">*{stroke-linejoin: round; stroke-linecap: butt}</style>
 </defs>
 <g id="figure_1">
  <g id="patch_1">
   <path d="M 0 345.6 
L 460.8 345.6 
L 460.8 0 
L 0 0 
z
" style="fill: #ffffff"/>
  </g>
  <g id="axes_1">
   <g id="patch_2">
    <path d="M 47.81 303.64 
L 450 303.64 
L 450 25.44 
L 47.81 25.44 
z
" style="fill: #ffffff"/>
   </g>
   <g id="PolyCollection_1">
    <defs>
     <path id="mdd4720af03" d="M 66.091364 -273.644054 
L 66.091364 -273.644054 
L 69.784568 -307.514545 
L 73.477773 -258.672482 
L 77.170978 -237.459365 
L 80.864183 -235.216253 
L 84.557388 -225.693188 
L 88.250592 -219.181804 
L 91.943797 -214.136581 
L 95.637002 -208.451929 
L 99.330207 -204.259162 
L 103.023411 -202.464836 
L 106.716616 -200.894683 
L 110.409821 -197.569543 
L 114.103026 -196.511082 
L 117.79623 -195.547538 
L 121.489435 -193.889648 
L 125.18264 -192.394713 
L 128.875845 -190.5506 
L 132.56905 -189.158366 
L 136.262254 -188.708462 
L 139.955459 -189.091186 
L 143.648664 -187.689103 
L 147.341869 -186.925407 
L 151.035073 -186.589815 
L 154.728278 -185.625266 
L 158.421483 -185.160243 
L 162.114688 -185.09356 
L 165.807893 -184.033445 
L 169.501097 -183.501461 
L 173.194302 -184.648917 
L 176.887507 -184.12537 
L 180.580712 -183.627592 
L 184.273916 -183.585398 
L 187.967121 -183.537505 
L 191.660326 -182.898263 
L 195.353531 -182.169515 
L 199.046736 -183.116701 
L 202.73994 -183.394805 
L 206.433145 -182.678646 
L 210.12635 -181.999221 
L 213.819555 -181.989703 
L 217.512759 -181.848244 
L 221.205964 -181.298577 
L 224.899169 -181.066076 
L 228.592374 -180.668936 
L 232.285579 -180.559002 
L 235.978783 -180.565624 
L 239.671988 -181.147241 
L 243.365193 -181.133349 
L 247.058398 -180.918167 
L 250.751602 -181.442857 
L 254.444807 -181.151819 
L 258.138012 -180.720536 
L 261.831217 -180.449699 
L 265.524421 -180.343273 
L 269.217626 -179.97944 
L 272.910831 -179.567739 
L 276.604036 -179.224487 
L 280.297241 -179.338811 
L 283.990445 -179.446243 
L 287.68365 -179.448289 
L 291.376855 -179.098103 
L 295.07006 -178.786922 
L 298.763264 -178.483509 
L 302.456469 -178.499435 
L 306.149674 -178.247602 
L 309.842879 -178.111956 
L 313.536084 -178.129352 
L 317.229288 -177.997043 
L 320.922493 -177.810176 
L 324.615698 -177.627484 
L 328.308903 -177.448816 
L 332.002107 -177.229104 
L 335.695312 -176.979808 
L 339.388517 -177.006424 
L 343.081722 -177.113674 
L 346.774927 -176.875295 
L 350.468131 -176.641743 
L 354.161336 -176.390567 
L 357.854541 -176.198213 
L 361.547746 -176.496255 
L 365.24095 -176.523354 
L 368.934155 -176.306649 
L 372.62736 -176.16247 
L 376.320565 -176.068558 
L 380.01377 -175.843033 
L 383.706974 -175.754124 
L 387.400179 -176.032362 
L 391.093384 -175.942501 
L 394.786589 -175.728787 
L 398.479793 -175.6435 
L 402.172998 -175.822142 
L 405.866203 -175.788411 
L 409.559408 -175.882434 
L 413.252612 -175.722539 
L 416.945817 -175.598186 
L 420.639022 -175.690216 
L 424.332227 -175.608358 
L 428.025432 -175.433288 
L 431.718636 -175.676654 
L 431.718636 -136.989665 
L 431.718636 -136.989665 
L 428.025432 -136.797083 
L 424.332227 -136.828401 
L 420.639022 -136.710457 
L 416.945817 -136.516349 
L 413.252612 -136.435732 
L 409.559408 -136.405373 
L 405.866203 -136.202813 
L 402.172998 -136.039479 
L 398.479793 -135.82267 
L 394.786589 -135.687705 
L 391.093384 -135.781742 
L 387.400179 -135.644007 
L 383.706974 -135.414787 
L 380.01377 -135.270434 
L 376.320565 -135.363577 
L 372.62736 -135.216034 
L 368.934155 -135.113047 
L 365.24095 -135.133116 
L 361.547746 -134.910388 
L 357.854541 -134.653198 
L 354.161336 -134.598433 
L 350.468131 -134.692927 
L 346.774927 -134.71042 
L 343.081722 -134.729691 
L 339.388517 -134.463253 
L 335.695312 -134.213886 
L 332.002107 -134.227459 
L 328.308903 -134.167117 
L 324.615698 -134.039948 
L 320.922493 -133.910226 
L 317.229288 -133.777864 
L 313.536084 -133.584346 
L 309.842879 -133.300567 
L 306.149674 -133.096366 
L 302.456469 -133.019334 
L 298.763264 -132.716923 
L 295.07006 -132.718211 
L 291.376855 -132.72156 
L 287.68365 -132.826997 
L 283.990445 -132.502091 
L 280.297241 -132.136274 
L 276.604036 -131.761031 
L 272.910831 -131.750783 
L 269.217626 -131.968894 
L 265.524421 -131.96768 
L 261.831217 -131.646369 
L 258.138012 -131.45358 
L 254.444807 -131.563594 
L 250.751602 -131.365809 
L 247.058398 -130.870614 
L 243.365193 -130.570772 
L 239.671988 -130.136291 
L 235.978783 -129.600475 
L 232.285579 -129.134787 
L 228.592374 -128.708831 
L 224.899169 -128.525234 
L 221.205964 -128.145156 
L 217.512759 -128.200657 
L 213.819555 -127.721006 
L 210.12635 -127.156946 
L 206.433145 -127.530975 
L 202.73994 -128.133654 
L 199.046736 -127.430159 
L 195.353531 -126.676411 
L 191.660326 -126.884716 
L 187.967121 -126.768378 
L 184.273916 -126.066348 
L 180.580712 -125.329135 
L 176.887507 -124.863525 
L 173.194302 -124.374289 
L 169.501097 -123.357702 
L 165.807893 -122.786419 
L 162.114688 -123.161431 
L 158.421483 -122.185618 
L 154.728278 -121.376944 
L 151.035073 -121.037308 
L 147.341869 -119.993558 
L 143.648664 -119.182564 
L 139.955459 -119.248224 
L 136.262254 -117.655538 
L 132.56905 -116.28191 
L 128.875845 -115.63612 
L 125.18264 -115.564811 
L 121.489435 -114.568478 
L 117.79623 -113.475669 
L 114.103026 -111.448442 
L 110.409821 -109.162655 
L 106.716616 -109.724048 
L 103.023411 -106.945164 
L 99.330207 -103.700362 
L 95.637002 -102.166802 
L 91.943797 -101.800562 
L 88.250592 -97.894999 
L 84.557388 -92.903162 
L 80.864183 -87.102987 
L 77.170978 -70.500159 
L 73.477773 -54.605455 
L 69.784568 -76.232364 
L 66.091364 -273.644054 
z
" style="stroke: #0000ff; stroke-opacity: 0.2"/>
    </defs>
    <g clip-path="url(#p0fca26894d)">
     <use xlink:href="#mdd4720af03" x="0" y="345.6" style="fill: #0000ff; fill-opacity: 0.2; stroke: #0000ff; stroke-opacity: 0.2"/>
    </g>
   </g>
   <g id="matplotlib.axis_1">
    <g id="xtick_1">
     <g id="line2d_1">
      <defs>
       <path id="mbc1ce4f671" d="M 0 0 
L 0 3.5 
" style="stroke: #000000; stroke-width: 0.8"/>
      </defs>
      <g>
       <use xlink:href="#mbc1ce4f671" x="66.091364" y="303.64" style="stroke: #000000; stroke-width: 0.8"/>
      </g>
     </g>
     <g id="text_1">
      <!-- 0 -->
      <g transform="translate(62.910114 318.238437) scale(0.1 -0.1)">
       <defs>
        <path id="DejaVuSans-30" d="M 2034 4250 
Q 1547 4250 1301 3770 
Q 1056 3291 1056 2328 
Q 1056 1369 1301 889 
Q 1547 409 2034 409 
Q 2525 409 2770 889 
Q 3016 1369 3016 2328 
Q 3016 3291 2770 3770 
Q 2525 4250 2034 4250 
z
M 2034 4750 
Q 2819 4750 3233 4129 
Q 3647 3509 3647 2328 
Q 3647 1150 3233 529 
Q 2819 -91 2034 -91 
Q 1250 -91 836 529 
Q 422 1150 422 2328 
Q 422 3509 836 4129 
Q 1250 4750 2034 4750 
z
" transform="scale(0.015625)"/>
       </defs>
       <use xlink:href="#DejaVuSans-30"/>
      </g>
     </g>
    </g>
    <g id="xtick_2">
     <g id="line2d_2">
      <g>
       <use xlink:href="#mbc1ce4f671" x="139.955459" y="303.64" style="stroke: #000000; stroke-width: 0.8"/>
      </g>
     </g>
     <g id="text_2">
      <!-- 20 -->
      <g transform="translate(133.592959 318.238437) scale(0.1 -0.1)">
       <defs>
        <path id="DejaVuSans-32" d="M 1228 531 
L 3431 531 
L 3431 0 
L 469 0 
L 469 531 
Q 828 903 1448 1529 
Q 2069 2156 2228 2338 
Q 2531 2678 2651 2914 
Q 2772 3150 2772 3378 
Q 2772 3750 2511 3984 
Q 2250 4219 1831 4219 
Q 1534 4219 1204 4116 
Q 875 4013 500 3803 
L 500 4441 
Q 881 4594 1212 4672 
Q 1544 4750 1819 4750 
Q 2544 4750 2975 4387 
Q 3406 4025 3406 3419 
Q 3406 3131 3298 2873 
Q 3191 2616 2906 2266 
Q 2828 2175 2409 1742 
Q 1991 1309 1228 531 
z
" transform="scale(0.015625)"/>
       </defs>
       <use xlink:href="#DejaVuSans-32"/>
       <use xlink:href="#DejaVuSans-30" x="63.623047"/>
      </g>
     </g>
    </g>
    <g id="xtick_3">
     <g id="line2d_3">
      <g>
       <use xlink:href="#mbc1ce4f671" x="213.819555" y="303.64" style="stroke: #000000; stroke-width: 0.8"/>
      </g>
     </g>
     <g id="text_3">
      <!-- 40 -->
      <g transform="translate(207.457055 318.238437) scale(0.1 -0.1)">
       <defs>
        <path id="DejaVuSans-34" d="M 2419 4116 
L 825 1625 
L 2419 1625 
L 2419 4116 
z
M 2253 4666 
L 3047 4666 
L 3047 1625 
L 3713 1625 
L 3713 1100 
L 3047 1100 
L 3047 0 
L 2419 0 
L 2419 1100 
L 313 1100 
L 313 1709 
L 2253 4666 
z
" transform="scale(0.015625)"/>
       </defs>
       <use xlink:href="#DejaVuSans-34"/>
       <use xlink:href="#DejaVuSans-30" x="63.623047"/>
      </g>
     </g>
    </g>
    <g id="xtick_4">
     <g id="line2d_4">
      <g>
       <use xlink:href="#mbc1ce4f671" x="287.68365" y="303.64" style="stroke: #000000; stroke-width: 0.8"/>
      </g>
     </g>
     <g id="text_4">
      <!-- 60 -->
      <g transform="translate(281.32115 318.238437) scale(0.1 -0.1)">
       <defs>
        <path id="DejaVuSans-36" d="M 2113 2584 
Q 1688 2584 1439 2293 
Q 1191 2003 1191 1497 
Q 1191 994 1439 701 
Q 1688 409 2113 409 
Q 2538 409 2786 701 
Q 3034 994 3034 1497 
Q 3034 2003 2786 2293 
Q 2538 2584 2113 2584 
z
M 3366 4563 
L 3366 3988 
Q 3128 4100 2886 4159 
Q 2644 4219 2406 4219 
Q 1781 4219 1451 3797 
Q 1122 3375 1075 2522 
Q 1259 2794 1537 2939 
Q 1816 3084 2150 3084 
Q 2853 3084 3261 2657 
Q 3669 2231 3669 1497 
Q 3669 778 3244 343 
Q 2819 -91 2113 -91 
Q 1303 -91 875 529 
Q 447 1150 447 2328 
Q 447 3434 972 4092 
Q 1497 4750 2381 4750 
Q 2619 4750 2861 4703 
Q 3103 4656 3366 4563 
z
" transform="scale(0.015625)"/>
       </defs>
       <use xlink:href="#DejaVuSans-36"/>
       <use xlink:href="#DejaVuSans-30" x="63.623047"/>
      </g>
     </g>
    </g>
    <g id="xtick_5">
     <g id="line2d_5">
      <g>
       <use xlink:href="#mbc1ce4f671" x="361.547746" y="303.64" style="stroke: #000000; stroke-width: 0.8"/>
      </g>
     </g>
     <g id="text_5">
      <!-- 80 -->
      <g transform="translate(355.185246 318.238437) scale(0.1 -0.1)">
       <defs>
        <path id="DejaVuSans-38" d="M 2034 2216 
Q 1584 2216 1326 1975 
Q 1069 1734 1069 1313 
Q 1069 891 1326 650 
Q 1584 409 2034 409 
Q 2484 409 2743 651 
Q 3003 894 3003 1313 
Q 3003 1734 2745 1975 
Q 2488 2216 2034 2216 
z
M 1403 2484 
Q 997 2584 770 2862 
Q 544 3141 544 3541 
Q 544 4100 942 4425 
Q 1341 4750 2034 4750 
Q 2731 4750 3128 4425 
Q 3525 4100 3525 3541 
Q 3525 3141 3298 2862 
Q 3072 2584 2669 2484 
Q 3125 2378 3379 2068 
Q 3634 1759 3634 1313 
Q 3634 634 3220 271 
Q 2806 -91 2034 -91 
Q 1263 -91 848 271 
Q 434 634 434 1313 
Q 434 1759 690 2068 
Q 947 2378 1403 2484 
z
M 1172 3481 
Q 1172 3119 1398 2916 
Q 1625 2713 2034 2713 
Q 2441 2713 2670 2916 
Q 2900 3119 2900 3481 
Q 2900 3844 2670 4047 
Q 2441 4250 2034 4250 
Q 1625 4250 1398 4047 
Q 1172 3844 1172 3481 
z
" transform="scale(0.015625)"/>
       </defs>
       <use xlink:href="#DejaVuSans-38"/>
       <use xlink:href="#DejaVuSans-30" x="63.623047"/>
      </g>
     </g>
    </g>
    <g id="xtick_6">
     <g id="line2d_6">
      <g>
       <use xlink:href="#mbc1ce4f671" x="435.411841" y="303.64" style="stroke: #000000; stroke-width: 0.8"/>
      </g>
     </g>
     <g id="text_6">
      <!-- 100 -->
      <g transform="translate(425.868091 318.238437) scale(0.1 -0.1)">
       <defs>
        <path id="DejaVuSans-31" d="M 794 531 
L 1825 531 
L 1825 4091 
L 703 3866 
L 703 4441 
L 1819 4666 
L 2450 4666 
L 2450 531 
L 3481 531 
L 3481 0 
L 794 0 
L 794 531 
z
" transform="scale(0.015625)"/>
       </defs>
       <use xlink:href="#DejaVuSans-31"/>
       <use xlink:href="#DejaVuSans-30" x="63.623047"/>
       <use xlink:href="#DejaVuSans-30" x="127.246094"/>
      </g>
     </g>
    </g>
    <g id="text_7">
     <!-- Iteration -->
     <g transform="translate(227.696406 331.916562) scale(0.1 -0.1)">
      <defs>
       <path id="DejaVuSans-49" d="M 628 4666 
L 1259 4666 
L 1259 0 
L 628 0 
L 628 4666 
z
" transform="scale(0.015625)"/>
       <path id="DejaVuSans-74" d="M 1172 4494 
L 1172 3500 
L 2356 3500 
L 2356 3053 
L 1172 3053 
L 1172 1153 
Q 1172 725 1289 603 
Q 1406 481 1766 481 
L 2356 481 
L 2356 0 
L 1766 0 
Q 1100 0 847 248 
Q 594 497 594 1153 
L 594 3053 
L 172 3053 
L 172 3500 
L 594 3500 
L 594 4494 
L 1172 4494 
z
" transform="scale(0.015625)"/>
       <path id="DejaVuSans-65" d="M 3597 1894 
L 3597 1613 
L 953 1613 
Q 991 1019 1311 708 
Q 1631 397 2203 397 
Q 2534 397 2845 478 
Q 3156 559 3463 722 
L 3463 178 
Q 3153 47 2828 -22 
Q 2503 -91 2169 -91 
Q 1331 -91 842 396 
Q 353 884 353 1716 
Q 353 2575 817 3079 
Q 1281 3584 2069 3584 
Q 2775 3584 3186 3129 
Q 3597 2675 3597 1894 
z
M 3022 2063 
Q 3016 2534 2758 2815 
Q 2500 3097 2075 3097 
Q 1594 3097 1305 2825 
Q 1016 2553 972 2059 
L 3022 2063 
z
" transform="scale(0.015625)"/>
       <path id="DejaVuSans-72" d="M 2631 2963 
Q 2534 3019 2420 3045 
Q 2306 3072 2169 3072 
Q 1681 3072 1420 2755 
Q 1159 2438 1159 1844 
L 1159 0 
L 581 0 
L 581 3500 
L 1159 3500 
L 1159 2956 
Q 1341 3275 1631 3429 
Q 1922 3584 2338 3584 
Q 2397 3584 2469 3576 
Q 2541 3569 2628 3553 
L 2631 2963 
z
" transform="scale(0.015625)"/>
       <path id="DejaVuSans-61" d="M 2194 1759 
Q 1497 1759 1228 1600 
Q 959 1441 959 1056 
Q 959 750 1161 570 
Q 1363 391 1709 391 
Q 2188 391 2477 730 
Q 2766 1069 2766 1631 
L 2766 1759 
L 2194 1759 
z
M 3341 1997 
L 3341 0 
L 2766 0 
L 2766 531 
Q 2569 213 2275 61 
Q 1981 -91 1556 -91 
Q 1019 -91 701 211 
Q 384 513 384 1019 
Q 384 1609 779 1909 
Q 1175 2209 1959 2209 
L 2766 2209 
L 2766 2266 
Q 2766 2663 2505 2880 
Q 2244 3097 1772 3097 
Q 1472 3097 1187 3025 
Q 903 2953 641 2809 
L 641 3341 
Q 956 3463 1253 3523 
Q 1550 3584 1831 3584 
Q 2591 3584 2966 3190 
Q 3341 2797 3341 1997 
z
" transform="scale(0.015625)"/>
       <path id="DejaVuSans-69" d="M 603 3500 
L 1178 3500 
L 1178 0 
L 603 0 
L 603 3500 
z
M 603 4863 
L 1178 4863 
L 1178 4134 
L 603 4134 
L 603 4863 
z
" transform="scale(0.015625)"/>
       <path id="DejaVuSans-6f" d="M 1959 3097 
Q 1497 3097 1228 2736 
Q 959 2375 959 1747 
Q 959 1119 1226 758 
Q 1494 397 1959 397 
Q 2419 397 2687 759 
Q 2956 1122 2956 1747 
Q 2956 2369 2687 2733 
Q 2419 3097 1959 3097 
z
M 1959 3584 
Q 2709 3584 3137 3096 
Q 3566 2609 3566 1747 
Q 3566 888 3137 398 
Q 2709 -91 1959 -91 
Q 1206 -91 779 398 
Q 353 888 353 1747 
Q 353 2609 779 3096 
Q 1206 3584 1959 3584 
z
" transform="scale(0.015625)"/>
       <path id="DejaVuSans-6e" d="M 3513 2113 
L 3513 0 
L 2938 0 
L 2938 2094 
Q 2938 2591 2744 2837 
Q 2550 3084 2163 3084 
Q 1697 3084 1428 2787 
Q 1159 2491 1159 1978 
L 1159 0 
L 581 0 
L 581 3500 
L 1159 3500 
L 1159 2956 
Q 1366 3272 1645 3428 
Q 1925 3584 2291 3584 
Q 2894 3584 3203 3211 
Q 3513 2838 3513 2113 
z
" transform="scale(0.015625)"/>
      </defs>
      <use xlink:href="#DejaVuSans-49"/>
      <use xlink:href="#DejaVuSans-74" x="29.492188"/>
      <use xlink:href="#DejaVuSans-65" x="68.701172"/>
      <use xlink:href="#DejaVuSans-72" x="130.224609"/>
      <use xlink:href="#DejaVuSans-61" x="171.337891"/>
      <use xlink:href="#DejaVuSans-74" x="232.617188"/>
      <use xlink:href="#DejaVuSans-69" x="271.826172"/>
      <use xlink:href="#DejaVuSans-6f" x="299.609375"/>
      <use xlink:href="#DejaVuSans-6e" x="360.791016"/>
     </g>
    </g>
   </g>
   <g id="matplotlib.axis_2">
    <g id="ytick_1">
     <g id="line2d_7">
      <defs>
       <path id="m68a826c499" d="M 0 0 
L -3.5 0 
" style="stroke: #000000; stroke-width: 0.8"/>
      </defs>
      <g>
       <use xlink:href="#m68a826c499" x="47.81" y="271.396433" style="stroke: #000000; stroke-width: 0.8"/>
      </g>
     </g>
     <g id="text_8">
      <!-- 0.0 -->
      <g transform="translate(24.906875 275.195651) scale(0.1 -0.1)">
       <defs>
        <path id="DejaVuSans-2e" d="M 684 794 
L 1344 794 
L 1344 0 
L 684 0 
L 684 794 
z
" transform="scale(0.015625)"/>
       </defs>
       <use xlink:href="#DejaVuSans-30"/>
       <use xlink:href="#DejaVuSans-2e" x="63.623047"/>
       <use xlink:href="#DejaVuSans-30" x="95.410156"/>
      </g>
     </g>
    </g>
    <g id="ytick_2">
     <g id="line2d_8">
      <g>
       <use xlink:href="#m68a826c499" x="47.81" y="231.508335" style="stroke: #000000; stroke-width: 0.8"/>
      </g>
     </g>
     <g id="text_9">
      <!-- 0.2 -->
      <g transform="translate(24.906875 235.307554) scale(0.1 -0.1)">
       <use xlink:href="#DejaVuSans-30"/>
       <use xlink:href="#DejaVuSans-2e" x="63.623047"/>
       <use xlink:href="#DejaVuSans-32" x="95.410156"/>
      </g>
     </g>
    </g>
    <g id="ytick_3">
     <g id="line2d_9">
      <g>
       <use xlink:href="#m68a826c499" x="47.81" y="191.620238" style="stroke: #000000; stroke-width: 0.8"/>
      </g>
     </g>
     <g id="text_10">
      <!-- 0.4 -->
      <g transform="translate(24.906875 195.419457) scale(0.1 -0.1)">
       <use xlink:href="#DejaVuSans-30"/>
       <use xlink:href="#DejaVuSans-2e" x="63.623047"/>
       <use xlink:href="#DejaVuSans-34" x="95.410156"/>
      </g>
     </g>
    </g>
    <g id="ytick_4">
     <g id="line2d_10">
      <g>
       <use xlink:href="#m68a826c499" x="47.81" y="151.732141" style="stroke: #000000; stroke-width: 0.8"/>
      </g>
     </g>
     <g id="text_11">
      <!-- 0.6 -->
      <g transform="translate(24.906875 155.531359) scale(0.1 -0.1)">
       <use xlink:href="#DejaVuSans-30"/>
       <use xlink:href="#DejaVuSans-2e" x="63.623047"/>
       <use xlink:href="#DejaVuSans-36" x="95.410156"/>
      </g>
     </g>
    </g>
    <g id="ytick_5">
     <g id="line2d_11">
      <g>
       <use xlink:href="#m68a826c499" x="47.81" y="111.844043" style="stroke: #000000; stroke-width: 0.8"/>
      </g>
     </g>
     <g id="text_12">
      <!-- 0.8 -->
      <g transform="translate(24.906875 115.643262) scale(0.1 -0.1)">
       <use xlink:href="#DejaVuSans-30"/>
       <use xlink:href="#DejaVuSans-2e" x="63.623047"/>
       <use xlink:href="#DejaVuSans-38" x="95.410156"/>
      </g>
     </g>
    </g>
    <g id="ytick_6">
     <g id="line2d_12">
      <g>
       <use xlink:href="#m68a826c499" x="47.81" y="71.955946" style="stroke: #000000; stroke-width: 0.8"/>
      </g>
     </g>
     <g id="text_13">
      <!-- 1.0 -->
      <g transform="translate(24.906875 75.755165) scale(0.1 -0.1)">
       <use xlink:href="#DejaVuSans-31"/>
       <use xlink:href="#DejaVuSans-2e" x="63.623047"/>
       <use xlink:href="#DejaVuSans-30" x="95.410156"/>
      </g>
     </g>
    </g>
    <g id="ytick_7">
     <g id="line2d_13">
      <g>
       <use xlink:href="#m68a826c499" x="47.81" y="32.067849" style="stroke: #000000; stroke-width: 0.8"/>
      </g>
     </g>
     <g id="text_14">
      <!-- 1.2 -->
      <g transform="translate(24.906875 35.867067) scale(0.1 -0.1)">
       <use xlink:href="#DejaVuSans-31"/>
       <use xlink:href="#DejaVuSans-2e" x="63.623047"/>
       <use xlink:href="#DejaVuSans-32" x="95.410156"/>
      </g>
     </g>
    </g>
    <g id="text_15">
     <!-- Avg action -->
     <g transform="translate(18.827187 190.779844) rotate(-90) scale(0.1 -0.1)">
      <defs>
       <path id="DejaVuSans-41" d="M 2188 4044 
L 1331 1722 
L 3047 1722 
L 2188 4044 
z
M 1831 4666 
L 2547 4666 
L 4325 0 
L 3669 0 
L 3244 1197 
L 1141 1197 
L 716 0 
L 50 0 
L 1831 4666 
z
" transform="scale(0.015625)"/>
       <path id="DejaVuSans-76" d="M 191 3500 
L 800 3500 
L 1894 563 
L 2988 3500 
L 3597 3500 
L 2284 0 
L 1503 0 
L 191 3500 
z
" transform="scale(0.015625)"/>
       <path id="DejaVuSans-67" d="M 2906 1791 
Q 2906 2416 2648 2759 
Q 2391 3103 1925 3103 
Q 1463 3103 1205 2759 
Q 947 2416 947 1791 
Q 947 1169 1205 825 
Q 1463 481 1925 481 
Q 2391 481 2648 825 
Q 2906 1169 2906 1791 
z
M 3481 434 
Q 3481 -459 3084 -895 
Q 2688 -1331 1869 -1331 
Q 1566 -1331 1297 -1286 
Q 1028 -1241 775 -1147 
L 775 -588 
Q 1028 -725 1275 -790 
Q 1522 -856 1778 -856 
Q 2344 -856 2625 -561 
Q 2906 -266 2906 331 
L 2906 616 
Q 2728 306 2450 153 
Q 2172 0 1784 0 
Q 1141 0 747 490 
Q 353 981 353 1791 
Q 353 2603 747 3093 
Q 1141 3584 1784 3584 
Q 2172 3584 2450 3431 
Q 2728 3278 2906 2969 
L 2906 3500 
L 3481 3500 
L 3481 434 
z
" transform="scale(0.015625)"/>
       <path id="DejaVuSans-20" transform="scale(0.015625)"/>
       <path id="DejaVuSans-63" d="M 3122 3366 
L 3122 2828 
Q 2878 2963 2633 3030 
Q 2388 3097 2138 3097 
Q 1578 3097 1268 2742 
Q 959 2388 959 1747 
Q 959 1106 1268 751 
Q 1578 397 2138 397 
Q 2388 397 2633 464 
Q 2878 531 3122 666 
L 3122 134 
Q 2881 22 2623 -34 
Q 2366 -91 2075 -91 
Q 1284 -91 818 406 
Q 353 903 353 1747 
Q 353 2603 823 3093 
Q 1294 3584 2113 3584 
Q 2378 3584 2631 3529 
Q 2884 3475 3122 3366 
z
" transform="scale(0.015625)"/>
      </defs>
      <use xlink:href="#DejaVuSans-41"/>
      <use xlink:href="#DejaVuSans-76" x="62.533203"/>
      <use xlink:href="#DejaVuSans-67" x="121.712891"/>
      <use xlink:href="#DejaVuSans-20" x="185.189453"/>
      <use xlink:href="#DejaVuSans-61" x="216.976562"/>
      <use xlink:href="#DejaVuSans-63" x="278.255859"/>
      <use xlink:href="#DejaVuSans-74" x="333.236328"/>
      <use xlink:href="#DejaVuSans-69" x="372.445312"/>
      <use xlink:href="#DejaVuSans-6f" x="400.228516"/>
      <use xlink:href="#DejaVuSans-6e" x="461.410156"/>
     </g>
    </g>
   </g>
   <g id="line2d_14">
    <path d="M 66.091364 71.955946 
L 69.784568 235.497145 
L 73.477773 259.430004 
L 77.170978 199.597857 
L 80.864183 155.72095 
L 84.557388 195.609048 
L 88.250592 191.620238 
L 91.943797 191.620238 
L 95.637002 211.564287 
L 99.330207 203.586667 
L 103.023411 183.642619 
L 106.716616 183.642619 
L 110.409821 215.553096 
L 114.103026 183.642619 
L 117.79623 183.642619 
L 121.489435 195.609048 
L 125.18264 195.609048 
L 128.875845 207.575477 
L 132.56905 199.597857 
L 136.262254 183.642619 
L 139.955459 171.676189 
L 143.648664 207.575477 
L 147.341869 191.620238 
L 151.035073 183.642619 
L 154.728278 199.597857 
L 158.421483 187.631428 
L 162.114688 179.653809 
L 165.807893 211.564287 
L 169.501097 191.620238 
L 173.194302 159.70976 
L 176.887507 191.620238 
L 180.580712 191.620238 
L 184.273916 179.653809 
L 187.967121 179.653809 
L 191.660326 199.597857 
L 195.353531 207.575477 
L 199.046736 159.70976 
L 202.73994 171.676189 
L 206.433145 215.553096 
L 210.12635 211.564287 
L 213.819555 179.653809 
L 217.512759 183.642619 
L 221.205964 203.586667 
L 224.899169 187.631428 
L 228.592374 195.609048 
L 232.285579 183.642619 
L 235.978783 179.653809 
L 239.671988 163.69857 
L 243.365193 179.653809 
L 247.058398 187.631428 
L 250.751602 163.69857 
L 254.444807 191.620238 
L 258.138012 203.586667 
L 261.831217 191.620238 
L 265.524421 183.642619 
L 269.217626 199.597857 
L 272.910831 207.575477 
L 276.604036 199.597857 
L 280.297241 175.664999 
L 283.990445 175.664999 
L 287.68365 179.653809 
L 291.376855 203.586667 
L 295.07006 199.597857 
L 298.763264 199.597857 
L 302.456469 179.653809 
L 306.149674 195.609048 
L 309.842879 187.631428 
L 313.536084 179.653809 
L 317.229288 187.631428 
L 320.922493 191.620238 
L 324.615698 191.620238 
L 328.308903 191.620238 
L 332.002107 195.609048 
L 335.695312 199.597857 
L 339.388517 179.653809 
L 343.081722 175.664999 
L 346.774927 199.597857 
L 350.468131 199.597857 
L 354.161336 203.586667 
L 357.854541 195.609048 
L 361.547746 167.68738 
L 365.24095 179.653809 
L 368.934155 199.597857 
L 372.62736 191.620238 
L 376.320565 187.631428 
L 380.01377 203.586667 
L 383.706974 187.631428 
L 387.400179 167.68738 
L 391.093384 187.631428 
L 394.786589 203.586667 
L 398.479793 187.631428 
L 402.172998 171.676189 
L 405.866203 183.642619 
L 409.559408 175.664999 
L 413.252612 195.609048 
L 416.945817 191.620238 
L 420.639022 175.664999 
L 424.332227 187.631428 
L 428.025432 199.597857 
L 431.718636 167.68738 
" clip-path="url(#p0fca26894d)" style="fill: none; stroke: #0000ff; stroke-linecap: square"/>
    <defs>
     <path id="mc639d571e7" d="M -0.49999 0.49999 
L 0.50001 0.49999 
L 0.50001 -0.50001 
L -0.49999 -0.50001 
z
"/>
    </defs>
    <g clip-path="url(#p0fca26894d)">
     <use xlink:href="#mc639d571e7" x="66.091364" y="71.955946" style="fill: #0000ff"/>
     <use xlink:href="#mc639d571e7" x="69.784568" y="235.497145" style="fill: #0000ff"/>
     <use xlink:href="#mc639d571e7" x="73.477773" y="259.430004" style="fill: #0000ff"/>
     <use xlink:href="#mc639d571e7" x="77.170978" y="199.597857" style="fill: #0000ff"/>
     <use xlink:href="#mc639d571e7" x="80.864183" y="155.72095" style="fill: #0000ff"/>
     <use xlink:href="#mc639d571e7" x="84.557388" y="195.609048" style="fill: #0000ff"/>
     <use xlink:href="#mc639d571e7" x="88.250592" y="191.620238" style="fill: #0000ff"/>
     <use xlink:href="#mc639d571e7" x="91.943797" y="191.620238" style="fill: #0000ff"/>
     <use xlink:href="#mc639d571e7" x="95.637002" y="211.564287" style="fill: #0000ff"/>
     <use xlink:href="#mc639d571e7" x="99.330207" y="203.586667" style="fill: #0000ff"/>
     <use xlink:href="#mc639d571e7" x="103.023411" y="183.642619" style="fill: #0000ff"/>
     <use xlink:href="#mc639d571e7" x="106.716616" y="183.642619" style="fill: #0000ff"/>
     <use xlink:href="#mc639d571e7" x="110.409821" y="215.553096" style="fill: #0000ff"/>
     <use xlink:href="#mc639d571e7" x="114.103026" y="183.642619" style="fill: #0000ff"/>
     <use xlink:href="#mc639d571e7" x="117.79623" y="183.642619" style="fill: #0000ff"/>
     <use xlink:href="#mc639d571e7" x="121.489435" y="195.609048" style="fill: #0000ff"/>
     <use xlink:href="#mc639d571e7" x="125.18264" y="195.609048" style="fill: #0000ff"/>
     <use xlink:href="#mc639d571e7" x="128.875845" y="207.575477" style="fill: #0000ff"/>
     <use xlink:href="#mc639d571e7" x="132.56905" y="199.597857" style="fill: #0000ff"/>
     <use xlink:href="#mc639d571e7" x="136.262254" y="183.642619" style="fill: #0000ff"/>
     <use xlink:href="#mc639d571e7" x="139.955459" y="171.676189" style="fill: #0000ff"/>
     <use xlink:href="#mc639d571e7" x="143.648664" y="207.575477" style="fill: #0000ff"/>
     <use xlink:href="#mc639d571e7" x="147.341869" y="191.620238" style="fill: #0000ff"/>
     <use xlink:href="#mc639d571e7" x="151.035073" y="183.642619" style="fill: #0000ff"/>
     <use xlink:href="#mc639d571e7" x="154.728278" y="199.597857" style="fill: #0000ff"/>
     <use xlink:href="#mc639d571e7" x="158.421483" y="187.631428" style="fill: #0000ff"/>
     <use xlink:href="#mc639d571e7" x="162.114688" y="179.653809" style="fill: #0000ff"/>
     <use xlink:href="#mc639d571e7" x="165.807893" y="211.564287" style="fill: #0000ff"/>
     <use xlink:href="#mc639d571e7" x="169.501097" y="191.620238" style="fill: #0000ff"/>
     <use xlink:href="#mc639d571e7" x="173.194302" y="159.70976" style="fill: #0000ff"/>
     <use xlink:href="#mc639d571e7" x="176.887507" y="191.620238" style="fill: #0000ff"/>
     <use xlink:href="#mc639d571e7" x="180.580712" y="191.620238" style="fill: #0000ff"/>
     <use xlink:href="#mc639d571e7" x="184.273916" y="179.653809" style="fill: #0000ff"/>
     <use xlink:href="#mc639d571e7" x="187.967121" y="179.653809" style="fill: #0000ff"/>
     <use xlink:href="#mc639d571e7" x="191.660326" y="199.597857" style="fill: #0000ff"/>
     <use xlink:href="#mc639d571e7" x="195.353531" y="207.575477" style="fill: #0000ff"/>
     <use xlink:href="#mc639d571e7" x="199.046736" y="159.70976" style="fill: #0000ff"/>
     <use xlink:href="#mc639d571e7" x="202.73994" y="171.676189" style="fill: #0000ff"/>
     <use xlink:href="#mc639d571e7" x="206.433145" y="215.553096" style="fill: #0000ff"/>
     <use xlink:href="#mc639d571e7" x="210.12635" y="211.564287" style="fill: #0000ff"/>
     <use xlink:href="#mc639d571e7" x="213.819555" y="179.653809" style="fill: #0000ff"/>
     <use xlink:href="#mc639d571e7" x="217.512759" y="183.642619" style="fill: #0000ff"/>
     <use xlink:href="#mc639d571e7" x="221.205964" y="203.586667" style="fill: #0000ff"/>
     <use xlink:href="#mc639d571e7" x="224.899169" y="187.631428" style="fill: #0000ff"/>
     <use xlink:href="#mc639d571e7" x="228.592374" y="195.609048" style="fill: #0000ff"/>
     <use xlink:href="#mc639d571e7" x="232.285579" y="183.642619" style="fill: #0000ff"/>
     <use xlink:href="#mc639d571e7" x="235.978783" y="179.653809" style="fill: #0000ff"/>
     <use xlink:href="#mc639d571e7" x="239.671988" y="163.69857" style="fill: #0000ff"/>
     <use xlink:href="#mc639d571e7" x="243.365193" y="179.653809" style="fill: #0000ff"/>
     <use xlink:href="#mc639d571e7" x="247.058398" y="187.631428" style="fill: #0000ff"/>
     <use xlink:href="#mc639d571e7" x="250.751602" y="163.69857" style="fill: #0000ff"/>
     <use xlink:href="#mc639d571e7" x="254.444807" y="191.620238" style="fill: #0000ff"/>
     <use xlink:href="#mc639d571e7" x="258.138012" y="203.586667" style="fill: #0000ff"/>
     <use xlink:href="#mc639d571e7" x="261.831217" y="191.620238" style="fill: #0000ff"/>
     <use xlink:href="#mc639d571e7" x="265.524421" y="183.642619" style="fill: #0000ff"/>
     <use xlink:href="#mc639d571e7" x="269.217626" y="199.597857" style="fill: #0000ff"/>
     <use xlink:href="#mc639d571e7" x="272.910831" y="207.575477" style="fill: #0000ff"/>
     <use xlink:href="#mc639d571e7" x="276.604036" y="199.597857" style="fill: #0000ff"/>
     <use xlink:href="#mc639d571e7" x="280.297241" y="175.664999" style="fill: #0000ff"/>
     <use xlink:href="#mc639d571e7" x="283.990445" y="175.664999" style="fill: #0000ff"/>
     <use xlink:href="#mc639d571e7" x="287.68365" y="179.653809" style="fill: #0000ff"/>
     <use xlink:href="#mc639d571e7" x="291.376855" y="203.586667" style="fill: #0000ff"/>
     <use xlink:href="#mc639d571e7" x="295.07006" y="199.597857" style="fill: #0000ff"/>
     <use xlink:href="#mc639d571e7" x="298.763264" y="199.597857" style="fill: #0000ff"/>
     <use xlink:href="#mc639d571e7" x="302.456469" y="179.653809" style="fill: #0000ff"/>
     <use xlink:href="#mc639d571e7" x="306.149674" y="195.609048" style="fill: #0000ff"/>
     <use xlink:href="#mc639d571e7" x="309.842879" y="187.631428" style="fill: #0000ff"/>
     <use xlink:href="#mc639d571e7" x="313.536084" y="179.653809" style="fill: #0000ff"/>
     <use xlink:href="#mc639d571e7" x="317.229288" y="187.631428" style="fill: #0000ff"/>
     <use xlink:href="#mc639d571e7" x="320.922493" y="191.620238" style="fill: #0000ff"/>
     <use xlink:href="#mc639d571e7" x="324.615698" y="191.620238" style="fill: #0000ff"/>
     <use xlink:href="#mc639d571e7" x="328.308903" y="191.620238" style="fill: #0000ff"/>
     <use xlink:href="#mc639d571e7" x="332.002107" y="195.609048" style="fill: #0000ff"/>
     <use xlink:href="#mc639d571e7" x="335.695312" y="199.597857" style="fill: #0000ff"/>
     <use xlink:href="#mc639d571e7" x="339.388517" y="179.653809" style="fill: #0000ff"/>
     <use xlink:href="#mc639d571e7" x="343.081722" y="175.664999" style="fill: #0000ff"/>
     <use xlink:href="#mc639d571e7" x="346.774927" y="199.597857" style="fill: #0000ff"/>
     <use xlink:href="#mc639d571e7" x="350.468131" y="199.597857" style="fill: #0000ff"/>
     <use xlink:href="#mc639d571e7" x="354.161336" y="203.586667" style="fill: #0000ff"/>
     <use xlink:href="#mc639d571e7" x="357.854541" y="195.609048" style="fill: #0000ff"/>
     <use xlink:href="#mc639d571e7" x="361.547746" y="167.68738" style="fill: #0000ff"/>
     <use xlink:href="#mc639d571e7" x="365.24095" y="179.653809" style="fill: #0000ff"/>
     <use xlink:href="#mc639d571e7" x="368.934155" y="199.597857" style="fill: #0000ff"/>
     <use xlink:href="#mc639d571e7" x="372.62736" y="191.620238" style="fill: #0000ff"/>
     <use xlink:href="#mc639d571e7" x="376.320565" y="187.631428" style="fill: #0000ff"/>
     <use xlink:href="#mc639d571e7" x="380.01377" y="203.586667" style="fill: #0000ff"/>
     <use xlink:href="#mc639d571e7" x="383.706974" y="187.631428" style="fill: #0000ff"/>
     <use xlink:href="#mc639d571e7" x="387.400179" y="167.68738" style="fill: #0000ff"/>
     <use xlink:href="#mc639d571e7" x="391.093384" y="187.631428" style="fill: #0000ff"/>
     <use xlink:href="#mc639d571e7" x="394.786589" y="203.586667" style="fill: #0000ff"/>
     <use xlink:href="#mc639d571e7" x="398.479793" y="187.631428" style="fill: #0000ff"/>
     <use xlink:href="#mc639d571e7" x="402.172998" y="171.676189" style="fill: #0000ff"/>
     <use xlink:href="#mc639d571e7" x="405.866203" y="183.642619" style="fill: #0000ff"/>
     <use xlink:href="#mc639d571e7" x="409.559408" y="175.664999" style="fill: #0000ff"/>
     <use xlink:href="#mc639d571e7" x="413.252612" y="195.609048" style="fill: #0000ff"/>
     <use xlink:href="#mc639d571e7" x="416.945817" y="191.620238" style="fill: #0000ff"/>
     <use xlink:href="#mc639d571e7" x="420.639022" y="175.664999" style="fill: #0000ff"/>
     <use xlink:href="#mc639d571e7" x="424.332227" y="187.631428" style="fill: #0000ff"/>
     <use xlink:href="#mc639d571e7" x="428.025432" y="199.597857" style="fill: #0000ff"/>
     <use xlink:href="#mc639d571e7" x="431.718636" y="167.68738" style="fill: #0000ff"/>
    </g>
   </g>
   <g id="line2d_15">
    <path d="M 66.091364 71.955946 
L 69.784568 153.726545 
L 73.477773 188.961031 
L 77.170978 191.620238 
L 80.864183 184.44038 
L 84.557388 186.301825 
L 88.250592 187.061598 
L 91.943797 187.631428 
L 95.637002 190.290635 
L 99.330207 191.620238 
L 103.023411 190.895 
L 106.716616 190.290635 
L 110.409821 192.233901 
L 114.103026 191.620238 
L 117.79623 191.088397 
L 121.489435 191.370937 
L 125.18264 191.620238 
L 128.875845 192.50664 
L 132.56905 192.879862 
L 136.262254 192.418 
L 139.955459 191.430295 
L 143.648664 192.164167 
L 147.341869 192.140518 
L 151.035073 191.786438 
L 154.728278 192.098895 
L 158.421483 191.92707 
L 162.114688 191.472504 
L 165.807893 192.190068 
L 169.501097 192.170419 
L 173.194302 191.088397 
L 176.887507 191.105553 
L 180.580712 191.121637 
L 184.273916 190.774127 
L 187.967121 190.447059 
L 191.660326 190.70851 
L 195.353531 191.177037 
L 199.046736 190.32657 
L 202.73994 189.83577 
L 206.433145 190.495189 
L 210.12635 191.021917 
L 213.819555 190.744646 
L 217.512759 190.57555 
L 221.205964 190.878134 
L 224.899169 190.804345 
L 228.592374 190.911116 
L 232.285579 190.753105 
L 235.978783 190.51695 
L 239.671988 189.958234 
L 243.365193 189.74794 
L 247.058398 189.705609 
L 250.751602 189.195667 
L 254.444807 189.242294 
L 258.138012 189.512942 
L 261.831217 189.551966 
L 265.524421 189.444524 
L 269.217626 189.625833 
L 272.910831 189.940739 
L 276.604036 190.107241 
L 280.297241 189.862457 
L 283.990445 189.625833 
L 287.68365 189.462357 
L 291.376855 189.690169 
L 295.07006 189.847434 
L 298.763264 189.999784 
L 302.456469 189.840615 
L 306.149674 189.928016 
L 309.842879 189.893738 
L 313.536084 189.743151 
L 317.229288 189.712546 
L 320.922493 189.739799 
L 324.615698 189.766284 
L 328.308903 189.792034 
L 332.002107 189.871719 
L 335.695312 190.003153 
L 339.388517 189.865162 
L 343.081722 189.678317 
L 346.774927 189.807143 
L 350.468131 189.932665 
L 354.161336 190.1055 
L 357.854541 190.174294 
L 361.547746 189.896678 
L 365.24095 189.771765 
L 368.934155 189.890152 
L 372.62736 189.910748 
L 376.320565 189.883933 
L 380.01377 190.043267 
L 383.706974 190.015544 
L 387.400179 189.761815 
L 391.093384 189.737878 
L 394.786589 189.891754 
L 398.479793 189.866915 
L 402.172998 189.66919 
L 405.866203 189.604388 
L 409.559408 189.456097 
L 413.252612 189.520864 
L 416.945817 189.542733 
L 420.639022 189.399663 
L 424.332227 189.38162 
L 428.025432 189.484815 
L 431.718636 189.26684 
" clip-path="url(#p0fca26894d)" style="fill: none; stroke: #0000ff; stroke-opacity: 0.5; stroke-width: 0.5; stroke-linecap: square"/>
    <defs>
     <path id="mc26a01ac13" d="M -0.49999 0.49999 
L 0.50001 0.49999 
L 0.50001 -0.50001 
L -0.49999 -0.50001 
z
"/>
    </defs>
    <g clip-path="url(#p0fca26894d)">
     <use xlink:href="#mc26a01ac13" x="66.091364" y="71.955946" style="fill: #0000ff; fill-opacity: 0.5"/>
     <use xlink:href="#mc26a01ac13" x="69.784568" y="153.726545" style="fill: #0000ff; fill-opacity: 0.5"/>
     <use xlink:href="#mc26a01ac13" x="73.477773" y="188.961031" style="fill: #0000ff; fill-opacity: 0.5"/>
     <use xlink:href="#mc26a01ac13" x="77.170978" y="191.620238" style="fill: #0000ff; fill-opacity: 0.5"/>
     <use xlink:href="#mc26a01ac13" x="80.864183" y="184.44038" style="fill: #0000ff; fill-opacity: 0.5"/>
     <use xlink:href="#mc26a01ac13" x="84.557388" y="186.301825" style="fill: #0000ff; fill-opacity: 0.5"/>
     <use xlink:href="#mc26a01ac13" x="88.250592" y="187.061598" style="fill: #0000ff; fill-opacity: 0.5"/>
     <use xlink:href="#mc26a01ac13" x="91.943797" y="187.631428" style="fill: #0000ff; fill-opacity: 0.5"/>
     <use xlink:href="#mc26a01ac13" x="95.637002" y="190.290635" style="fill: #0000ff; fill-opacity: 0.5"/>
     <use xlink:href="#mc26a01ac13" x="99.330207" y="191.620238" style="fill: #0000ff; fill-opacity: 0.5"/>
     <use xlink:href="#mc26a01ac13" x="103.023411" y="190.895" style="fill: #0000ff; fill-opacity: 0.5"/>
     <use xlink:href="#mc26a01ac13" x="106.716616" y="190.290635" style="fill: #0000ff; fill-opacity: 0.5"/>
     <use xlink:href="#mc26a01ac13" x="110.409821" y="192.233901" style="fill: #0000ff; fill-opacity: 0.5"/>
     <use xlink:href="#mc26a01ac13" x="114.103026" y="191.620238" style="fill: #0000ff; fill-opacity: 0.5"/>
     <use xlink:href="#mc26a01ac13" x="117.79623" y="191.088397" style="fill: #0000ff; fill-opacity: 0.5"/>
     <use xlink:href="#mc26a01ac13" x="121.489435" y="191.370937" style="fill: #0000ff; fill-opacity: 0.5"/>
     <use xlink:href="#mc26a01ac13" x="125.18264" y="191.620238" style="fill: #0000ff; fill-opacity: 0.5"/>
     <use xlink:href="#mc26a01ac13" x="128.875845" y="192.50664" style="fill: #0000ff; fill-opacity: 0.5"/>
     <use xlink:href="#mc26a01ac13" x="132.56905" y="192.879862" style="fill: #0000ff; fill-opacity: 0.5"/>
     <use xlink:href="#mc26a01ac13" x="136.262254" y="192.418" style="fill: #0000ff; fill-opacity: 0.5"/>
     <use xlink:href="#mc26a01ac13" x="139.955459" y="191.430295" style="fill: #0000ff; fill-opacity: 0.5"/>
     <use xlink:href="#mc26a01ac13" x="143.648664" y="192.164167" style="fill: #0000ff; fill-opacity: 0.5"/>
     <use xlink:href="#mc26a01ac13" x="147.341869" y="192.140518" style="fill: #0000ff; fill-opacity: 0.5"/>
     <use xlink:href="#mc26a01ac13" x="151.035073" y="191.786438" style="fill: #0000ff; fill-opacity: 0.5"/>
     <use xlink:href="#mc26a01ac13" x="154.728278" y="192.098895" style="fill: #0000ff; fill-opacity: 0.5"/>
     <use xlink:href="#mc26a01ac13" x="158.421483" y="191.92707" style="fill: #0000ff; fill-opacity: 0.5"/>
     <use xlink:href="#mc26a01ac13" x="162.114688" y="191.472504" style="fill: #0000ff; fill-opacity: 0.5"/>
     <use xlink:href="#mc26a01ac13" x="165.807893" y="192.190068" style="fill: #0000ff; fill-opacity: 0.5"/>
     <use xlink:href="#mc26a01ac13" x="169.501097" y="192.170419" style="fill: #0000ff; fill-opacity: 0.5"/>
     <use xlink:href="#mc26a01ac13" x="173.194302" y="191.088397" style="fill: #0000ff; fill-opacity: 0.5"/>
     <use xlink:href="#mc26a01ac13" x="176.887507" y="191.105553" style="fill: #0000ff; fill-opacity: 0.5"/>
     <use xlink:href="#mc26a01ac13" x="180.580712" y="191.121637" style="fill: #0000ff; fill-opacity: 0.5"/>
     <use xlink:href="#mc26a01ac13" x="184.273916" y="190.774127" style="fill: #0000ff; fill-opacity: 0.5"/>
     <use xlink:href="#mc26a01ac13" x="187.967121" y="190.447059" style="fill: #0000ff; fill-opacity: 0.5"/>
     <use xlink:href="#mc26a01ac13" x="191.660326" y="190.70851" style="fill: #0000ff; fill-opacity: 0.5"/>
     <use xlink:href="#mc26a01ac13" x="195.353531" y="191.177037" style="fill: #0000ff; fill-opacity: 0.5"/>
     <use xlink:href="#mc26a01ac13" x="199.046736" y="190.32657" style="fill: #0000ff; fill-opacity: 0.5"/>
     <use xlink:href="#mc26a01ac13" x="202.73994" y="189.83577" style="fill: #0000ff; fill-opacity: 0.5"/>
     <use xlink:href="#mc26a01ac13" x="206.433145" y="190.495189" style="fill: #0000ff; fill-opacity: 0.5"/>
     <use xlink:href="#mc26a01ac13" x="210.12635" y="191.021917" style="fill: #0000ff; fill-opacity: 0.5"/>
     <use xlink:href="#mc26a01ac13" x="213.819555" y="190.744646" style="fill: #0000ff; fill-opacity: 0.5"/>
     <use xlink:href="#mc26a01ac13" x="217.512759" y="190.57555" style="fill: #0000ff; fill-opacity: 0.5"/>
     <use xlink:href="#mc26a01ac13" x="221.205964" y="190.878134" style="fill: #0000ff; fill-opacity: 0.5"/>
     <use xlink:href="#mc26a01ac13" x="224.899169" y="190.804345" style="fill: #0000ff; fill-opacity: 0.5"/>
     <use xlink:href="#mc26a01ac13" x="228.592374" y="190.911116" style="fill: #0000ff; fill-opacity: 0.5"/>
     <use xlink:href="#mc26a01ac13" x="232.285579" y="190.753105" style="fill: #0000ff; fill-opacity: 0.5"/>
     <use xlink:href="#mc26a01ac13" x="235.978783" y="190.51695" style="fill: #0000ff; fill-opacity: 0.5"/>
     <use xlink:href="#mc26a01ac13" x="239.671988" y="189.958234" style="fill: #0000ff; fill-opacity: 0.5"/>
     <use xlink:href="#mc26a01ac13" x="243.365193" y="189.74794" style="fill: #0000ff; fill-opacity: 0.5"/>
     <use xlink:href="#mc26a01ac13" x="247.058398" y="189.705609" style="fill: #0000ff; fill-opacity: 0.5"/>
     <use xlink:href="#mc26a01ac13" x="250.751602" y="189.195667" style="fill: #0000ff; fill-opacity: 0.5"/>
     <use xlink:href="#mc26a01ac13" x="254.444807" y="189.242294" style="fill: #0000ff; fill-opacity: 0.5"/>
     <use xlink:href="#mc26a01ac13" x="258.138012" y="189.512942" style="fill: #0000ff; fill-opacity: 0.5"/>
     <use xlink:href="#mc26a01ac13" x="261.831217" y="189.551966" style="fill: #0000ff; fill-opacity: 0.5"/>
     <use xlink:href="#mc26a01ac13" x="265.524421" y="189.444524" style="fill: #0000ff; fill-opacity: 0.5"/>
     <use xlink:href="#mc26a01ac13" x="269.217626" y="189.625833" style="fill: #0000ff; fill-opacity: 0.5"/>
     <use xlink:href="#mc26a01ac13" x="272.910831" y="189.940739" style="fill: #0000ff; fill-opacity: 0.5"/>
     <use xlink:href="#mc26a01ac13" x="276.604036" y="190.107241" style="fill: #0000ff; fill-opacity: 0.5"/>
     <use xlink:href="#mc26a01ac13" x="280.297241" y="189.862457" style="fill: #0000ff; fill-opacity: 0.5"/>
     <use xlink:href="#mc26a01ac13" x="283.990445" y="189.625833" style="fill: #0000ff; fill-opacity: 0.5"/>
     <use xlink:href="#mc26a01ac13" x="287.68365" y="189.462357" style="fill: #0000ff; fill-opacity: 0.5"/>
     <use xlink:href="#mc26a01ac13" x="291.376855" y="189.690169" style="fill: #0000ff; fill-opacity: 0.5"/>
     <use xlink:href="#mc26a01ac13" x="295.07006" y="189.847434" style="fill: #0000ff; fill-opacity: 0.5"/>
     <use xlink:href="#mc26a01ac13" x="298.763264" y="189.999784" style="fill: #0000ff; fill-opacity: 0.5"/>
     <use xlink:href="#mc26a01ac13" x="302.456469" y="189.840615" style="fill: #0000ff; fill-opacity: 0.5"/>
     <use xlink:href="#mc26a01ac13" x="306.149674" y="189.928016" style="fill: #0000ff; fill-opacity: 0.5"/>
     <use xlink:href="#mc26a01ac13" x="309.842879" y="189.893738" style="fill: #0000ff; fill-opacity: 0.5"/>
     <use xlink:href="#mc26a01ac13" x="313.536084" y="189.743151" style="fill: #0000ff; fill-opacity: 0.5"/>
     <use xlink:href="#mc26a01ac13" x="317.229288" y="189.712546" style="fill: #0000ff; fill-opacity: 0.5"/>
     <use xlink:href="#mc26a01ac13" x="320.922493" y="189.739799" style="fill: #0000ff; fill-opacity: 0.5"/>
     <use xlink:href="#mc26a01ac13" x="324.615698" y="189.766284" style="fill: #0000ff; fill-opacity: 0.5"/>
     <use xlink:href="#mc26a01ac13" x="328.308903" y="189.792034" style="fill: #0000ff; fill-opacity: 0.5"/>
     <use xlink:href="#mc26a01ac13" x="332.002107" y="189.871719" style="fill: #0000ff; fill-opacity: 0.5"/>
     <use xlink:href="#mc26a01ac13" x="335.695312" y="190.003153" style="fill: #0000ff; fill-opacity: 0.5"/>
     <use xlink:href="#mc26a01ac13" x="339.388517" y="189.865162" style="fill: #0000ff; fill-opacity: 0.5"/>
     <use xlink:href="#mc26a01ac13" x="343.081722" y="189.678317" style="fill: #0000ff; fill-opacity: 0.5"/>
     <use xlink:href="#mc26a01ac13" x="346.774927" y="189.807143" style="fill: #0000ff; fill-opacity: 0.5"/>
     <use xlink:href="#mc26a01ac13" x="350.468131" y="189.932665" style="fill: #0000ff; fill-opacity: 0.5"/>
     <use xlink:href="#mc26a01ac13" x="354.161336" y="190.1055" style="fill: #0000ff; fill-opacity: 0.5"/>
     <use xlink:href="#mc26a01ac13" x="357.854541" y="190.174294" style="fill: #0000ff; fill-opacity: 0.5"/>
     <use xlink:href="#mc26a01ac13" x="361.547746" y="189.896678" style="fill: #0000ff; fill-opacity: 0.5"/>
     <use xlink:href="#mc26a01ac13" x="365.24095" y="189.771765" style="fill: #0000ff; fill-opacity: 0.5"/>
     <use xlink:href="#mc26a01ac13" x="368.934155" y="189.890152" style="fill: #0000ff; fill-opacity: 0.5"/>
     <use xlink:href="#mc26a01ac13" x="372.62736" y="189.910748" style="fill: #0000ff; fill-opacity: 0.5"/>
     <use xlink:href="#mc26a01ac13" x="376.320565" y="189.883933" style="fill: #0000ff; fill-opacity: 0.5"/>
     <use xlink:href="#mc26a01ac13" x="380.01377" y="190.043267" style="fill: #0000ff; fill-opacity: 0.5"/>
     <use xlink:href="#mc26a01ac13" x="383.706974" y="190.015544" style="fill: #0000ff; fill-opacity: 0.5"/>
     <use xlink:href="#mc26a01ac13" x="387.400179" y="189.761815" style="fill: #0000ff; fill-opacity: 0.5"/>
     <use xlink:href="#mc26a01ac13" x="391.093384" y="189.737878" style="fill: #0000ff; fill-opacity: 0.5"/>
     <use xlink:href="#mc26a01ac13" x="394.786589" y="189.891754" style="fill: #0000ff; fill-opacity: 0.5"/>
     <use xlink:href="#mc26a01ac13" x="398.479793" y="189.866915" style="fill: #0000ff; fill-opacity: 0.5"/>
     <use xlink:href="#mc26a01ac13" x="402.172998" y="189.66919" style="fill: #0000ff; fill-opacity: 0.5"/>
     <use xlink:href="#mc26a01ac13" x="405.866203" y="189.604388" style="fill: #0000ff; fill-opacity: 0.5"/>
     <use xlink:href="#mc26a01ac13" x="409.559408" y="189.456097" style="fill: #0000ff; fill-opacity: 0.5"/>
     <use xlink:href="#mc26a01ac13" x="413.252612" y="189.520864" style="fill: #0000ff; fill-opacity: 0.5"/>
     <use xlink:href="#mc26a01ac13" x="416.945817" y="189.542733" style="fill: #0000ff; fill-opacity: 0.5"/>
     <use xlink:href="#mc26a01ac13" x="420.639022" y="189.399663" style="fill: #0000ff; fill-opacity: 0.5"/>
     <use xlink:href="#mc26a01ac13" x="424.332227" y="189.38162" style="fill: #0000ff; fill-opacity: 0.5"/>
     <use xlink:href="#mc26a01ac13" x="428.025432" y="189.484815" style="fill: #0000ff; fill-opacity: 0.5"/>
     <use xlink:href="#mc26a01ac13" x="431.718636" y="189.26684" style="fill: #0000ff; fill-opacity: 0.5"/>
    </g>
   </g>
   <g id="line2d_16">
    <path d="M 47.81 271.396433 
L 450 271.396433 
" clip-path="url(#p0fca26894d)" style="fill: none; stroke-dasharray: 0.555,0.24; stroke-dashoffset: 0; stroke: #ff0000; stroke-width: 0.15"/>
   </g>
   <g id="line2d_17">
    <path d="M 47.81 171.676189 
L 450 171.676189 
" clip-path="url(#p0fca26894d)" style="fill: none; stroke-dasharray: 0.555,0.24; stroke-dashoffset: 0; stroke: #ff0000; stroke-width: 0.15"/>
   </g>
   <g id="line2d_18">
    <path d="M 47.81 71.955946 
L 450 71.955946 
" clip-path="url(#p0fca26894d)" style="fill: none; stroke-dasharray: 0.555,0.24; stroke-dashoffset: 0; stroke: #ff0000; stroke-width: 0.15"/>
   </g>
   <g id="patch_3">
    <path d="M 47.81 303.64 
L 47.81 25.44 
" style="fill: none; stroke: #000000; stroke-width: 0.8; stroke-linejoin: miter; stroke-linecap: square"/>
   </g>
   <g id="patch_4">
    <path d="M 450 303.64 
L 450 25.44 
" style="fill: none; stroke: #000000; stroke-width: 0.8; stroke-linejoin: miter; stroke-linecap: square"/>
   </g>
   <g id="patch_5">
    <path d="M 47.81 303.64 
L 450 303.64 
" style="fill: none; stroke: #000000; stroke-width: 0.8; stroke-linejoin: miter; stroke-linecap: square"/>
   </g>
   <g id="patch_6">
    <path d="M 47.81 25.44 
L 450 25.44 
" style="fill: none; stroke: #000000; stroke-width: 0.8; stroke-linejoin: miter; stroke-linecap: square"/>
   </g>
   <g id="text_16">
    <!-- Average action - 20240417174800 - 50 games -->
    <g transform="translate(108.798438 19.44) scale(0.12 -0.12)">
     <defs>
      <path id="DejaVuSans-2d" d="M 313 2009 
L 1997 2009 
L 1997 1497 
L 313 1497 
L 313 2009 
z
" transform="scale(0.015625)"/>
      <path id="DejaVuSans-37" d="M 525 4666 
L 3525 4666 
L 3525 4397 
L 1831 0 
L 1172 0 
L 2766 4134 
L 525 4134 
L 525 4666 
z
" transform="scale(0.015625)"/>
      <path id="DejaVuSans-35" d="M 691 4666 
L 3169 4666 
L 3169 4134 
L 1269 4134 
L 1269 2991 
Q 1406 3038 1543 3061 
Q 1681 3084 1819 3084 
Q 2600 3084 3056 2656 
Q 3513 2228 3513 1497 
Q 3513 744 3044 326 
Q 2575 -91 1722 -91 
Q 1428 -91 1123 -41 
Q 819 9 494 109 
L 494 744 
Q 775 591 1075 516 
Q 1375 441 1709 441 
Q 2250 441 2565 725 
Q 2881 1009 2881 1497 
Q 2881 1984 2565 2268 
Q 2250 2553 1709 2553 
Q 1456 2553 1204 2497 
Q 953 2441 691 2322 
L 691 4666 
z
" transform="scale(0.015625)"/>
      <path id="DejaVuSans-6d" d="M 3328 2828 
Q 3544 3216 3844 3400 
Q 4144 3584 4550 3584 
Q 5097 3584 5394 3201 
Q 5691 2819 5691 2113 
L 5691 0 
L 5113 0 
L 5113 2094 
Q 5113 2597 4934 2840 
Q 4756 3084 4391 3084 
Q 3944 3084 3684 2787 
Q 3425 2491 3425 1978 
L 3425 0 
L 2847 0 
L 2847 2094 
Q 2847 2600 2669 2842 
Q 2491 3084 2119 3084 
Q 1678 3084 1418 2786 
Q 1159 2488 1159 1978 
L 1159 0 
L 581 0 
L 581 3500 
L 1159 3500 
L 1159 2956 
Q 1356 3278 1631 3431 
Q 1906 3584 2284 3584 
Q 2666 3584 2933 3390 
Q 3200 3197 3328 2828 
z
" transform="scale(0.015625)"/>
      <path id="DejaVuSans-73" d="M 2834 3397 
L 2834 2853 
Q 2591 2978 2328 3040 
Q 2066 3103 1784 3103 
Q 1356 3103 1142 2972 
Q 928 2841 928 2578 
Q 928 2378 1081 2264 
Q 1234 2150 1697 2047 
L 1894 2003 
Q 2506 1872 2764 1633 
Q 3022 1394 3022 966 
Q 3022 478 2636 193 
Q 2250 -91 1575 -91 
Q 1294 -91 989 -36 
Q 684 19 347 128 
L 347 722 
Q 666 556 975 473 
Q 1284 391 1588 391 
Q 1994 391 2212 530 
Q 2431 669 2431 922 
Q 2431 1156 2273 1281 
Q 2116 1406 1581 1522 
L 1381 1569 
Q 847 1681 609 1914 
Q 372 2147 372 2553 
Q 372 3047 722 3315 
Q 1072 3584 1716 3584 
Q 2034 3584 2315 3537 
Q 2597 3491 2834 3397 
z
" transform="scale(0.015625)"/>
     </defs>
     <use xlink:href="#DejaVuSans-41"/>
     <use xlink:href="#DejaVuSans-76" x="62.533203"/>
     <use xlink:href="#DejaVuSans-65" x="121.712891"/>
     <use xlink:href="#DejaVuSans-72" x="183.236328"/>
     <use xlink:href="#DejaVuSans-61" x="224.349609"/>
     <use xlink:href="#DejaVuSans-67" x="285.628906"/>
     <use xlink:href="#DejaVuSans-65" x="349.105469"/>
     <use xlink:href="#DejaVuSans-20" x="410.628906"/>
     <use xlink:href="#DejaVuSans-61" x="442.416016"/>
     <use xlink:href="#DejaVuSans-63" x="503.695312"/>
     <use xlink:href="#DejaVuSans-74" x="558.675781"/>
     <use xlink:href="#DejaVuSans-69" x="597.884766"/>
     <use xlink:href="#DejaVuSans-6f" x="625.667969"/>
     <use xlink:href="#DejaVuSans-6e" x="686.849609"/>
     <use xlink:href="#DejaVuSans-20" x="750.228516"/>
     <use xlink:href="#DejaVuSans-2d" x="782.015625"/>
     <use xlink:href="#DejaVuSans-20" x="818.099609"/>
     <use xlink:href="#DejaVuSans-32" x="849.886719"/>
     <use xlink:href="#DejaVuSans-30" x="913.509766"/>
     <use xlink:href="#DejaVuSans-32" x="977.132812"/>
     <use xlink:href="#DejaVuSans-34" x="1040.755859"/>
     <use xlink:href="#DejaVuSans-30" x="1104.378906"/>
     <use xlink:href="#DejaVuSans-34" x="1168.001953"/>
     <use xlink:href="#DejaVuSans-31" x="1231.625"/>
     <use xlink:href="#DejaVuSans-37" x="1295.248047"/>
     <use xlink:href="#DejaVuSans-31" x="1358.871094"/>
     <use xlink:href="#DejaVuSans-37" x="1422.494141"/>
     <use xlink:href="#DejaVuSans-34" x="1486.117188"/>
     <use xlink:href="#DejaVuSans-38" x="1549.740234"/>
     <use xlink:href="#DejaVuSans-30" x="1613.363281"/>
     <use xlink:href="#DejaVuSans-30" x="1676.986328"/>
     <use xlink:href="#DejaVuSans-20" x="1740.609375"/>
     <use xlink:href="#DejaVuSans-2d" x="1772.396484"/>
     <use xlink:href="#DejaVuSans-20" x="1808.480469"/>
     <use xlink:href="#DejaVuSans-35" x="1840.267578"/>
     <use xlink:href="#DejaVuSans-30" x="1903.890625"/>
     <use xlink:href="#DejaVuSans-20" x="1967.513672"/>
     <use xlink:href="#DejaVuSans-67" x="1999.300781"/>
     <use xlink:href="#DejaVuSans-61" x="2062.777344"/>
     <use xlink:href="#DejaVuSans-6d" x="2124.056641"/>
     <use xlink:href="#DejaVuSans-65" x="2221.46875"/>
     <use xlink:href="#DejaVuSans-73" x="2282.992188"/>
    </g>
   </g>
   <g id="legend_1">
    <g id="patch_7">
     <path d="M 359.690625 298.64 
L 443 298.64 
Q 445 298.64 445 296.64 
L 445 268.28375 
Q 445 266.28375 443 266.28375 
L 359.690625 266.28375 
Q 357.690625 266.28375 357.690625 268.28375 
L 357.690625 296.64 
Q 357.690625 298.64 359.690625 298.64 
z
" style="fill: #ffffff; opacity: 0.8; stroke: #cccccc; stroke-linejoin: miter"/>
    </g>
    <g id="line2d_19">
     <path d="M 361.690625 274.382187 
L 371.690625 274.382187 
L 381.690625 274.382187 
" style="fill: none; stroke: #0000ff; stroke-linecap: square"/>
     <g>
      <use xlink:href="#mc639d571e7" x="371.690625" y="274.382187" style="fill: #0000ff"/>
     </g>
    </g>
    <g id="text_17">
     <!-- LLM -->
     <g transform="translate(389.690625 277.882187) scale(0.1 -0.1)">
      <defs>
       <path id="DejaVuSans-4c" d="M 628 4666 
L 1259 4666 
L 1259 531 
L 3531 531 
L 3531 0 
L 628 0 
L 628 4666 
z
" transform="scale(0.015625)"/>
       <path id="DejaVuSans-4d" d="M 628 4666 
L 1569 4666 
L 2759 1491 
L 3956 4666 
L 4897 4666 
L 4897 0 
L 4281 0 
L 4281 4097 
L 3078 897 
L 2444 897 
L 1241 4097 
L 1241 0 
L 628 0 
L 628 4666 
z
" transform="scale(0.015625)"/>
      </defs>
      <use xlink:href="#DejaVuSans-4c"/>
      <use xlink:href="#DejaVuSans-4c" x="55.712891"/>
      <use xlink:href="#DejaVuSans-4d" x="111.425781"/>
     </g>
    </g>
    <g id="line2d_20">
     <path d="M 361.690625 289.060312 
L 371.690625 289.060312 
L 381.690625 289.060312 
" style="fill: none; stroke: #0000ff; stroke-opacity: 0.5; stroke-width: 0.5; stroke-linecap: square"/>
     <g>
      <use xlink:href="#mc26a01ac13" x="371.690625" y="289.060312" style="fill: #0000ff; fill-opacity: 0.5"/>
     </g>
    </g>
    <g id="text_18">
     <!-- LLM mean -->
     <g transform="translate(389.690625 292.560312) scale(0.1 -0.1)">
      <use xlink:href="#DejaVuSans-4c"/>
      <use xlink:href="#DejaVuSans-4c" x="55.712891"/>
      <use xlink:href="#DejaVuSans-4d" x="111.425781"/>
      <use xlink:href="#DejaVuSans-20" x="197.705078"/>
      <use xlink:href="#DejaVuSans-6d" x="229.492188"/>
      <use xlink:href="#DejaVuSans-65" x="326.904297"/>
      <use xlink:href="#DejaVuSans-61" x="388.427734"/>
      <use xlink:href="#DejaVuSans-6e" x="449.707031"/>
     </g>
    </g>
   </g>
  </g>
 </g>
 <defs>
  <clipPath id="p0fca26894d">
   <rect x="47.81" y="25.44" width="402.19" height="278.2"/>
  </clipPath>
 </defs>
</svg>
