<?xml version="1.0" encoding="utf-8" standalone="no"?>
<!DOCTYPE svg PUBLIC "-//W3C//DTD SVG 1.1//EN"
  "http://www.w3.org/Graphics/SVG/1.1/DTD/svg11.dtd">
<svg xmlns:xlink="http://www.w3.org/1999/xlink" width="460.8pt" height="345.6pt" viewBox="0 0 460.8 345.6" xmlns="http://www.w3.org/2000/svg" version="1.1">
 <metadata>
  <rdf:RDF xmlns:dc="http://purl.org/dc/elements/1.1/" xmlns:cc="http://creativecommons.org/ns#" xmlns:rdf="http://www.w3.org/1999/02/22-rdf-syntax-ns#">
   <cc:Work>
    <dc:type rdf:resource="http://purl.org/dc/dcmitype/StillImage"/>
    <dc:date>2024-04-10T11:25:36.843126</dc:date>
    <dc:format>image/svg+xml</dc:format>
    <dc:creator>
     <cc:Agent>
      <dc:title>Matplotlib v3.8.0, https://matplotlib.org/</dc:title>
     </cc:Agent>
    </dc:creator>
   </cc:Work>
  </rdf:RDF>
 </metadata>
 <defs>
  <style type="text/css">*{stroke-linejoin: round; stroke-linecap: butt}</style>
 </defs>
 <g id="figure_1">
  <g id="patch_1">
   <path d="M 0 345.6 
L 460.8 345.6 
L 460.8 0 
L 0 0 
z
" style="fill: #ffffff"/>
  </g>
  <g id="axes_1">
   <g id="patch_2">
    <path d="M 47.81 303.64 
L 450 303.64 
L 450 25.44 
L 47.81 25.44 
z
" style="fill: #ffffff"/>
   </g>
   <g id="PolyCollection_1">
    <defs>
     <path id="m11bcc2cc30" d="M 66.091364 -285.414266 
L 66.091364 -285.414266 
L 69.822254 -286.453442 
L 73.553145 -284.966114 
L 77.284035 -284.31326 
L 81.014926 -283.570926 
L 84.745816 -282.853417 
L 88.476707 -282.263752 
L 92.207597 -281.814079 
L 95.938488 -281.518603 
L 99.669378 -281.404624 
L 103.400269 -281.254306 
L 107.13116 -281.287633 
L 110.86205 -281.516064 
L 114.592941 -282.116996 
L 118.323831 -282.762186 
L 122.054722 -283.193333 
L 125.785612 -283.615833 
L 129.516503 -284.175139 
L 133.247393 -284.850618 
L 136.978284 -285.477024 
L 140.709174 -286.342607 
L 144.440065 -287.19546 
L 148.170955 -287.792063 
L 151.901846 -288.416159 
L 155.632737 -289.235208 
L 159.363627 -290.350657 
L 163.094518 -291.535557 
L 166.825408 -292.661284 
L 170.556299 -293.68788 
L 174.287189 -294.635581 
L 178.01808 -295.473051 
L 181.74897 -296.219911 
L 185.479861 -297.012679 
L 189.210751 -297.725895 
L 192.941642 -298.334968 
L 196.672532 -298.889667 
L 200.403423 -299.364769 
L 204.134314 -299.801146 
L 207.865204 -300.20316 
L 211.596095 -300.602608 
L 215.326985 -300.972299 
L 219.057876 -301.341678 
L 222.788766 -301.710856 
L 226.519657 -302.079933 
L 230.250547 -302.448989 
L 233.981438 -302.793503 
L 237.712328 -303.139438 
L 241.443219 -303.463395 
L 245.174109 -303.745162 
L 248.905 -304.009971 
L 252.635891 -304.25919 
L 256.366781 -304.455055 
L 260.097672 -304.639859 
L 263.828562 -304.814413 
L 267.559453 -304.979447 
L 271.290343 -305.13563 
L 275.021234 -305.283568 
L 278.752124 -305.423815 
L 282.483015 -305.572956 
L 286.213905 -305.714622 
L 289.944796 -305.84929 
L 293.675686 -306.008479 
L 297.406577 -306.12975 
L 301.137468 -306.245271 
L 304.868358 -306.341392 
L 308.599249 -306.433002 
L 312.330139 -306.520359 
L 316.06103 -306.603706 
L 319.79192 -306.683265 
L 323.522811 -306.746915 
L 327.253701 -306.784447 
L 330.984592 -306.809136 
L 334.715482 -306.843057 
L 338.446373 -306.875224 
L 342.177263 -306.905729 
L 345.908154 -306.934659 
L 349.639045 -306.952078 
L 353.369935 -306.968393 
L 357.100826 -306.983662 
L 360.831716 -307.007507 
L 364.562607 -307.039857 
L 368.293497 -307.080638 
L 372.024388 -307.129773 
L 375.755278 -307.167093 
L 379.486169 -307.212619 
L 383.217059 -307.256388 
L 386.94795 -307.289022 
L 390.67884 -307.320322 
L 394.409731 -307.350349 
L 398.140622 -307.379156 
L 401.871512 -307.415737 
L 405.602403 -307.433613 
L 409.333293 -307.442519 
L 413.064184 -307.458859 
L 416.795074 -307.474428 
L 420.525965 -307.489258 
L 424.256855 -307.503379 
L 427.987746 -307.509195 
L 431.718636 -307.514545 
L 431.718636 -289.008806 
L 431.718636 -289.008806 
L 427.987746 -288.92819 
L 424.256855 -288.846266 
L 420.525965 -288.760367 
L 416.795074 -288.673071 
L 413.064184 -288.58434 
L 409.333293 -288.494139 
L 405.602403 -288.405094 
L 401.871512 -288.31184 
L 398.140622 -288.212519 
L 394.409731 -288.113648 
L 390.67884 -288.013093 
L 386.94795 -287.910811 
L 383.217059 -287.806754 
L 379.486169 -287.698811 
L 375.755278 -287.589014 
L 372.024388 -287.479357 
L 368.293497 -287.365694 
L 364.562607 -287.252045 
L 360.831716 -287.138648 
L 357.100826 -287.02576 
L 353.369935 -286.913656 
L 349.639045 -286.799289 
L 345.908154 -286.682586 
L 342.177263 -286.560438 
L 338.446373 -286.435782 
L 334.715482 -286.308537 
L 330.984592 -286.178617 
L 327.253701 -286.048985 
L 323.522811 -285.91345 
L 319.79192 -285.76993 
L 316.06103 -285.621468 
L 312.330139 -285.469986 
L 308.599249 -285.3154 
L 304.868358 -285.157621 
L 301.137468 -284.996561 
L 297.406577 -284.830806 
L 293.675686 -284.661729 
L 289.944796 -284.488148 
L 286.213905 -284.312404 
L 282.483015 -284.133135 
L 278.752124 -283.950275 
L 275.021234 -283.764477 
L 271.290343 -283.574726 
L 267.559453 -283.380939 
L 263.828562 -283.183043 
L 260.097672 -282.980971 
L 256.366781 -282.774664 
L 252.635891 -282.564078 
L 248.905 -282.350449 
L 245.174109 -282.133518 
L 241.443219 -281.913473 
L 237.712328 -281.692913 
L 233.981438 -281.470655 
L 230.250547 -281.244024 
L 226.519657 -281.015974 
L 222.788766 -280.78351 
L 219.057876 -280.546396 
L 215.326985 -280.304383 
L 211.596095 -280.057201 
L 207.865204 -279.808141 
L 204.134314 -279.553923 
L 200.403423 -279.298597 
L 196.672532 -279.043568 
L 192.941642 -278.797742 
L 189.210751 -278.5592 
L 185.479861 -278.343021 
L 181.74897 -278.148307 
L 178.01808 -277.941091 
L 174.287189 -277.760879 
L 170.556299 -277.620714 
L 166.825408 -277.517579 
L 163.094518 -277.467059 
L 159.363627 -277.462424 
L 155.632737 -277.453739 
L 151.901846 -277.347668 
L 148.170955 -277.184354 
L 144.440065 -277.013194 
L 140.709174 -276.92959 
L 136.978284 -276.865422 
L 133.247393 -276.728292 
L 129.516503 -276.611148 
L 125.785612 -276.461673 
L 122.054722 -276.274953 
L 118.323831 -276.082553 
L 114.592941 -275.943438 
L 110.86205 -275.79379 
L 107.13116 -275.564675 
L 103.400269 -275.330952 
L 99.669378 -275.16123 
L 95.938488 -274.912033 
L 92.207597 -274.768102 
L 88.476707 -274.792027 
L 84.745816 -275.013026 
L 81.014926 -275.717166 
L 77.284035 -277.107305 
L 73.553145 -279.172308 
L 69.822254 -279.357508 
L 66.091364 -285.414266 
z
" style="stroke: #ff0000; stroke-opacity: 0.2"/>
    </defs>
    <g clip-path="url(#p9e1a6aa607)">
     <use xlink:href="#m11bcc2cc30" x="0" y="345.6" style="fill: #ff0000; fill-opacity: 0.2; stroke: #ff0000; stroke-opacity: 0.2"/>
    </g>
   </g>
   <g id="matplotlib.axis_1">
    <g id="xtick_1">
     <g id="line2d_1">
      <defs>
       <path id="m0a49065204" d="M 0 0 
L 0 3.5 
" style="stroke: #000000; stroke-width: 0.8"/>
      </defs>
      <g>
       <use xlink:href="#m0a49065204" x="66.091364" y="303.64" style="stroke: #000000; stroke-width: 0.8"/>
      </g>
     </g>
     <g id="text_1">
      <!-- 0 -->
      <g transform="translate(62.910114 318.238437) scale(0.1 -0.1)">
       <defs>
        <path id="DejaVuSans-30" d="M 2034 4250 
Q 1547 4250 1301 3770 
Q 1056 3291 1056 2328 
Q 1056 1369 1301 889 
Q 1547 409 2034 409 
Q 2525 409 2770 889 
Q 3016 1369 3016 2328 
Q 3016 3291 2770 3770 
Q 2525 4250 2034 4250 
z
M 2034 4750 
Q 2819 4750 3233 4129 
Q 3647 3509 3647 2328 
Q 3647 1150 3233 529 
Q 2819 -91 2034 -91 
Q 1250 -91 836 529 
Q 422 1150 422 2328 
Q 422 3509 836 4129 
Q 1250 4750 2034 4750 
z
" transform="scale(0.015625)"/>
       </defs>
       <use xlink:href="#DejaVuSans-30"/>
      </g>
     </g>
    </g>
    <g id="xtick_2">
     <g id="line2d_2">
      <g>
       <use xlink:href="#m0a49065204" x="140.709174" y="303.64" style="stroke: #000000; stroke-width: 0.8"/>
      </g>
     </g>
     <g id="text_2">
      <!-- 20 -->
      <g transform="translate(134.346674 318.238437) scale(0.1 -0.1)">
       <defs>
        <path id="DejaVuSans-32" d="M 1228 531 
L 3431 531 
L 3431 0 
L 469 0 
L 469 531 
Q 828 903 1448 1529 
Q 2069 2156 2228 2338 
Q 2531 2678 2651 2914 
Q 2772 3150 2772 3378 
Q 2772 3750 2511 3984 
Q 2250 4219 1831 4219 
Q 1534 4219 1204 4116 
Q 875 4013 500 3803 
L 500 4441 
Q 881 4594 1212 4672 
Q 1544 4750 1819 4750 
Q 2544 4750 2975 4387 
Q 3406 4025 3406 3419 
Q 3406 3131 3298 2873 
Q 3191 2616 2906 2266 
Q 2828 2175 2409 1742 
Q 1991 1309 1228 531 
z
" transform="scale(0.015625)"/>
       </defs>
       <use xlink:href="#DejaVuSans-32"/>
       <use xlink:href="#DejaVuSans-30" x="63.623047"/>
      </g>
     </g>
    </g>
    <g id="xtick_3">
     <g id="line2d_3">
      <g>
       <use xlink:href="#m0a49065204" x="215.326985" y="303.64" style="stroke: #000000; stroke-width: 0.8"/>
      </g>
     </g>
     <g id="text_3">
      <!-- 40 -->
      <g transform="translate(208.964485 318.238437) scale(0.1 -0.1)">
       <defs>
        <path id="DejaVuSans-34" d="M 2419 4116 
L 825 1625 
L 2419 1625 
L 2419 4116 
z
M 2253 4666 
L 3047 4666 
L 3047 1625 
L 3713 1625 
L 3713 1100 
L 3047 1100 
L 3047 0 
L 2419 0 
L 2419 1100 
L 313 1100 
L 313 1709 
L 2253 4666 
z
" transform="scale(0.015625)"/>
       </defs>
       <use xlink:href="#DejaVuSans-34"/>
       <use xlink:href="#DejaVuSans-30" x="63.623047"/>
      </g>
     </g>
    </g>
    <g id="xtick_4">
     <g id="line2d_4">
      <g>
       <use xlink:href="#m0a49065204" x="289.944796" y="303.64" style="stroke: #000000; stroke-width: 0.8"/>
      </g>
     </g>
     <g id="text_4">
      <!-- 60 -->
      <g transform="translate(283.582296 318.238437) scale(0.1 -0.1)">
       <defs>
        <path id="DejaVuSans-36" d="M 2113 2584 
Q 1688 2584 1439 2293 
Q 1191 2003 1191 1497 
Q 1191 994 1439 701 
Q 1688 409 2113 409 
Q 2538 409 2786 701 
Q 3034 994 3034 1497 
Q 3034 2003 2786 2293 
Q 2538 2584 2113 2584 
z
M 3366 4563 
L 3366 3988 
Q 3128 4100 2886 4159 
Q 2644 4219 2406 4219 
Q 1781 4219 1451 3797 
Q 1122 3375 1075 2522 
Q 1259 2794 1537 2939 
Q 1816 3084 2150 3084 
Q 2853 3084 3261 2657 
Q 3669 2231 3669 1497 
Q 3669 778 3244 343 
Q 2819 -91 2113 -91 
Q 1303 -91 875 529 
Q 447 1150 447 2328 
Q 447 3434 972 4092 
Q 1497 4750 2381 4750 
Q 2619 4750 2861 4703 
Q 3103 4656 3366 4563 
z
" transform="scale(0.015625)"/>
       </defs>
       <use xlink:href="#DejaVuSans-36"/>
       <use xlink:href="#DejaVuSans-30" x="63.623047"/>
      </g>
     </g>
    </g>
    <g id="xtick_5">
     <g id="line2d_5">
      <g>
       <use xlink:href="#m0a49065204" x="364.562607" y="303.64" style="stroke: #000000; stroke-width: 0.8"/>
      </g>
     </g>
     <g id="text_5">
      <!-- 80 -->
      <g transform="translate(358.200107 318.238437) scale(0.1 -0.1)">
       <defs>
        <path id="DejaVuSans-38" d="M 2034 2216 
Q 1584 2216 1326 1975 
Q 1069 1734 1069 1313 
Q 1069 891 1326 650 
Q 1584 409 2034 409 
Q 2484 409 2743 651 
Q 3003 894 3003 1313 
Q 3003 1734 2745 1975 
Q 2488 2216 2034 2216 
z
M 1403 2484 
Q 997 2584 770 2862 
Q 544 3141 544 3541 
Q 544 4100 942 4425 
Q 1341 4750 2034 4750 
Q 2731 4750 3128 4425 
Q 3525 4100 3525 3541 
Q 3525 3141 3298 2862 
Q 3072 2584 2669 2484 
Q 3125 2378 3379 2068 
Q 3634 1759 3634 1313 
Q 3634 634 3220 271 
Q 2806 -91 2034 -91 
Q 1263 -91 848 271 
Q 434 634 434 1313 
Q 434 1759 690 2068 
Q 947 2378 1403 2484 
z
M 1172 3481 
Q 1172 3119 1398 2916 
Q 1625 2713 2034 2713 
Q 2441 2713 2670 2916 
Q 2900 3119 2900 3481 
Q 2900 3844 2670 4047 
Q 2441 4250 2034 4250 
Q 1625 4250 1398 4047 
Q 1172 3844 1172 3481 
z
" transform="scale(0.015625)"/>
       </defs>
       <use xlink:href="#DejaVuSans-38"/>
       <use xlink:href="#DejaVuSans-30" x="63.623047"/>
      </g>
     </g>
    </g>
    <g id="xtick_6">
     <g id="line2d_6">
      <g>
       <use xlink:href="#m0a49065204" x="439.180417" y="303.64" style="stroke: #000000; stroke-width: 0.8"/>
      </g>
     </g>
     <g id="text_6">
      <!-- 100 -->
      <g transform="translate(429.636667 318.238437) scale(0.1 -0.1)">
       <defs>
        <path id="DejaVuSans-31" d="M 794 531 
L 1825 531 
L 1825 4091 
L 703 3866 
L 703 4441 
L 1819 4666 
L 2450 4666 
L 2450 531 
L 3481 531 
L 3481 0 
L 794 0 
L 794 531 
z
" transform="scale(0.015625)"/>
       </defs>
       <use xlink:href="#DejaVuSans-31"/>
       <use xlink:href="#DejaVuSans-30" x="63.623047"/>
       <use xlink:href="#DejaVuSans-30" x="127.246094"/>
      </g>
     </g>
    </g>
    <g id="text_7">
     <!-- Iteration -->
     <g transform="translate(227.696406 331.916562) scale(0.1 -0.1)">
      <defs>
       <path id="DejaVuSans-49" d="M 628 4666 
L 1259 4666 
L 1259 0 
L 628 0 
L 628 4666 
z
" transform="scale(0.015625)"/>
       <path id="DejaVuSans-74" d="M 1172 4494 
L 1172 3500 
L 2356 3500 
L 2356 3053 
L 1172 3053 
L 1172 1153 
Q 1172 725 1289 603 
Q 1406 481 1766 481 
L 2356 481 
L 2356 0 
L 1766 0 
Q 1100 0 847 248 
Q 594 497 594 1153 
L 594 3053 
L 172 3053 
L 172 3500 
L 594 3500 
L 594 4494 
L 1172 4494 
z
" transform="scale(0.015625)"/>
       <path id="DejaVuSans-65" d="M 3597 1894 
L 3597 1613 
L 953 1613 
Q 991 1019 1311 708 
Q 1631 397 2203 397 
Q 2534 397 2845 478 
Q 3156 559 3463 722 
L 3463 178 
Q 3153 47 2828 -22 
Q 2503 -91 2169 -91 
Q 1331 -91 842 396 
Q 353 884 353 1716 
Q 353 2575 817 3079 
Q 1281 3584 2069 3584 
Q 2775 3584 3186 3129 
Q 3597 2675 3597 1894 
z
M 3022 2063 
Q 3016 2534 2758 2815 
Q 2500 3097 2075 3097 
Q 1594 3097 1305 2825 
Q 1016 2553 972 2059 
L 3022 2063 
z
" transform="scale(0.015625)"/>
       <path id="DejaVuSans-72" d="M 2631 2963 
Q 2534 3019 2420 3045 
Q 2306 3072 2169 3072 
Q 1681 3072 1420 2755 
Q 1159 2438 1159 1844 
L 1159 0 
L 581 0 
L 581 3500 
L 1159 3500 
L 1159 2956 
Q 1341 3275 1631 3429 
Q 1922 3584 2338 3584 
Q 2397 3584 2469 3576 
Q 2541 3569 2628 3553 
L 2631 2963 
z
" transform="scale(0.015625)"/>
       <path id="DejaVuSans-61" d="M 2194 1759 
Q 1497 1759 1228 1600 
Q 959 1441 959 1056 
Q 959 750 1161 570 
Q 1363 391 1709 391 
Q 2188 391 2477 730 
Q 2766 1069 2766 1631 
L 2766 1759 
L 2194 1759 
z
M 3341 1997 
L 3341 0 
L 2766 0 
L 2766 531 
Q 2569 213 2275 61 
Q 1981 -91 1556 -91 
Q 1019 -91 701 211 
Q 384 513 384 1019 
Q 384 1609 779 1909 
Q 1175 2209 1959 2209 
L 2766 2209 
L 2766 2266 
Q 2766 2663 2505 2880 
Q 2244 3097 1772 3097 
Q 1472 3097 1187 3025 
Q 903 2953 641 2809 
L 641 3341 
Q 956 3463 1253 3523 
Q 1550 3584 1831 3584 
Q 2591 3584 2966 3190 
Q 3341 2797 3341 1997 
z
" transform="scale(0.015625)"/>
       <path id="DejaVuSans-69" d="M 603 3500 
L 1178 3500 
L 1178 0 
L 603 0 
L 603 3500 
z
M 603 4863 
L 1178 4863 
L 1178 4134 
L 603 4134 
L 603 4863 
z
" transform="scale(0.015625)"/>
       <path id="DejaVuSans-6f" d="M 1959 3097 
Q 1497 3097 1228 2736 
Q 959 2375 959 1747 
Q 959 1119 1226 758 
Q 1494 397 1959 397 
Q 2419 397 2687 759 
Q 2956 1122 2956 1747 
Q 2956 2369 2687 2733 
Q 2419 3097 1959 3097 
z
M 1959 3584 
Q 2709 3584 3137 3096 
Q 3566 2609 3566 1747 
Q 3566 888 3137 398 
Q 2709 -91 1959 -91 
Q 1206 -91 779 398 
Q 353 888 353 1747 
Q 353 2609 779 3096 
Q 1206 3584 1959 3584 
z
" transform="scale(0.015625)"/>
       <path id="DejaVuSans-6e" d="M 3513 2113 
L 3513 0 
L 2938 0 
L 2938 2094 
Q 2938 2591 2744 2837 
Q 2550 3084 2163 3084 
Q 1697 3084 1428 2787 
Q 1159 2491 1159 1978 
L 1159 0 
L 581 0 
L 581 3500 
L 1159 3500 
L 1159 2956 
Q 1366 3272 1645 3428 
Q 1925 3584 2291 3584 
Q 2894 3584 3203 3211 
Q 3513 2838 3513 2113 
z
" transform="scale(0.015625)"/>
      </defs>
      <use xlink:href="#DejaVuSans-49"/>
      <use xlink:href="#DejaVuSans-74" x="29.492188"/>
      <use xlink:href="#DejaVuSans-65" x="68.701172"/>
      <use xlink:href="#DejaVuSans-72" x="130.224609"/>
      <use xlink:href="#DejaVuSans-61" x="171.337891"/>
      <use xlink:href="#DejaVuSans-74" x="232.617188"/>
      <use xlink:href="#DejaVuSans-69" x="271.826172"/>
      <use xlink:href="#DejaVuSans-6f" x="299.609375"/>
      <use xlink:href="#DejaVuSans-6e" x="360.791016"/>
     </g>
    </g>
   </g>
   <g id="matplotlib.axis_2">
    <g id="ytick_1">
     <g id="line2d_7">
      <defs>
       <path id="mab29078af5" d="M 0 0 
L -3.5 0 
" style="stroke: #000000; stroke-width: 0.8"/>
      </defs>
      <g>
       <use xlink:href="#mab29078af5" x="47.81" y="290.994545" style="stroke: #000000; stroke-width: 0.8"/>
      </g>
     </g>
     <g id="text_8">
      <!-- 0.0 -->
      <g transform="translate(24.906875 294.793764) scale(0.1 -0.1)">
       <defs>
        <path id="DejaVuSans-2e" d="M 684 794 
L 1344 794 
L 1344 0 
L 684 0 
L 684 794 
z
" transform="scale(0.015625)"/>
       </defs>
       <use xlink:href="#DejaVuSans-30"/>
       <use xlink:href="#DejaVuSans-2e" x="63.623047"/>
       <use xlink:href="#DejaVuSans-30" x="95.410156"/>
      </g>
     </g>
    </g>
    <g id="ytick_2">
     <g id="line2d_8">
      <g>
       <use xlink:href="#mab29078af5" x="47.81" y="240.818717" style="stroke: #000000; stroke-width: 0.8"/>
      </g>
     </g>
     <g id="text_9">
      <!-- 0.2 -->
      <g transform="translate(24.906875 244.617936) scale(0.1 -0.1)">
       <use xlink:href="#DejaVuSans-30"/>
       <use xlink:href="#DejaVuSans-2e" x="63.623047"/>
       <use xlink:href="#DejaVuSans-32" x="95.410156"/>
      </g>
     </g>
    </g>
    <g id="ytick_3">
     <g id="line2d_9">
      <g>
       <use xlink:href="#mab29078af5" x="47.81" y="190.642888" style="stroke: #000000; stroke-width: 0.8"/>
      </g>
     </g>
     <g id="text_10">
      <!-- 0.4 -->
      <g transform="translate(24.906875 194.442107) scale(0.1 -0.1)">
       <use xlink:href="#DejaVuSans-30"/>
       <use xlink:href="#DejaVuSans-2e" x="63.623047"/>
       <use xlink:href="#DejaVuSans-34" x="95.410156"/>
      </g>
     </g>
    </g>
    <g id="ytick_4">
     <g id="line2d_10">
      <g>
       <use xlink:href="#mab29078af5" x="47.81" y="140.46706" style="stroke: #000000; stroke-width: 0.8"/>
      </g>
     </g>
     <g id="text_11">
      <!-- 0.6 -->
      <g transform="translate(24.906875 144.266278) scale(0.1 -0.1)">
       <use xlink:href="#DejaVuSans-30"/>
       <use xlink:href="#DejaVuSans-2e" x="63.623047"/>
       <use xlink:href="#DejaVuSans-36" x="95.410156"/>
      </g>
     </g>
    </g>
    <g id="ytick_5">
     <g id="line2d_11">
      <g>
       <use xlink:href="#mab29078af5" x="47.81" y="90.291231" style="stroke: #000000; stroke-width: 0.8"/>
      </g>
     </g>
     <g id="text_12">
      <!-- 0.8 -->
      <g transform="translate(24.906875 94.09045) scale(0.1 -0.1)">
       <use xlink:href="#DejaVuSans-30"/>
       <use xlink:href="#DejaVuSans-2e" x="63.623047"/>
       <use xlink:href="#DejaVuSans-38" x="95.410156"/>
      </g>
     </g>
    </g>
    <g id="ytick_6">
     <g id="line2d_12">
      <g>
       <use xlink:href="#mab29078af5" x="47.81" y="40.115402" style="stroke: #000000; stroke-width: 0.8"/>
      </g>
     </g>
     <g id="text_13">
      <!-- 1.0 -->
      <g transform="translate(24.906875 43.914621) scale(0.1 -0.1)">
       <use xlink:href="#DejaVuSans-31"/>
       <use xlink:href="#DejaVuSans-2e" x="63.623047"/>
       <use xlink:href="#DejaVuSans-30" x="95.410156"/>
      </g>
     </g>
    </g>
    <g id="text_14">
     <!-- Similarity -->
     <g transform="translate(18.827187 188.179844) rotate(-90) scale(0.1 -0.1)">
      <defs>
       <path id="DejaVuSans-53" d="M 3425 4513 
L 3425 3897 
Q 3066 4069 2747 4153 
Q 2428 4238 2131 4238 
Q 1616 4238 1336 4038 
Q 1056 3838 1056 3469 
Q 1056 3159 1242 3001 
Q 1428 2844 1947 2747 
L 2328 2669 
Q 3034 2534 3370 2195 
Q 3706 1856 3706 1288 
Q 3706 609 3251 259 
Q 2797 -91 1919 -91 
Q 1588 -91 1214 -16 
Q 841 59 441 206 
L 441 856 
Q 825 641 1194 531 
Q 1563 422 1919 422 
Q 2459 422 2753 634 
Q 3047 847 3047 1241 
Q 3047 1584 2836 1778 
Q 2625 1972 2144 2069 
L 1759 2144 
Q 1053 2284 737 2584 
Q 422 2884 422 3419 
Q 422 4038 858 4394 
Q 1294 4750 2059 4750 
Q 2388 4750 2728 4690 
Q 3069 4631 3425 4513 
z
" transform="scale(0.015625)"/>
       <path id="DejaVuSans-6d" d="M 3328 2828 
Q 3544 3216 3844 3400 
Q 4144 3584 4550 3584 
Q 5097 3584 5394 3201 
Q 5691 2819 5691 2113 
L 5691 0 
L 5113 0 
L 5113 2094 
Q 5113 2597 4934 2840 
Q 4756 3084 4391 3084 
Q 3944 3084 3684 2787 
Q 3425 2491 3425 1978 
L 3425 0 
L 2847 0 
L 2847 2094 
Q 2847 2600 2669 2842 
Q 2491 3084 2119 3084 
Q 1678 3084 1418 2786 
Q 1159 2488 1159 1978 
L 1159 0 
L 581 0 
L 581 3500 
L 1159 3500 
L 1159 2956 
Q 1356 3278 1631 3431 
Q 1906 3584 2284 3584 
Q 2666 3584 2933 3390 
Q 3200 3197 3328 2828 
z
" transform="scale(0.015625)"/>
       <path id="DejaVuSans-6c" d="M 603 4863 
L 1178 4863 
L 1178 0 
L 603 0 
L 603 4863 
z
" transform="scale(0.015625)"/>
       <path id="DejaVuSans-79" d="M 2059 -325 
Q 1816 -950 1584 -1140 
Q 1353 -1331 966 -1331 
L 506 -1331 
L 506 -850 
L 844 -850 
Q 1081 -850 1212 -737 
Q 1344 -625 1503 -206 
L 1606 56 
L 191 3500 
L 800 3500 
L 1894 763 
L 2988 3500 
L 3597 3500 
L 2059 -325 
z
" transform="scale(0.015625)"/>
      </defs>
      <use xlink:href="#DejaVuSans-53"/>
      <use xlink:href="#DejaVuSans-69" x="63.476562"/>
      <use xlink:href="#DejaVuSans-6d" x="91.259766"/>
      <use xlink:href="#DejaVuSans-69" x="188.671875"/>
      <use xlink:href="#DejaVuSans-6c" x="216.455078"/>
      <use xlink:href="#DejaVuSans-61" x="244.238281"/>
      <use xlink:href="#DejaVuSans-72" x="305.517578"/>
      <use xlink:href="#DejaVuSans-69" x="346.630859"/>
      <use xlink:href="#DejaVuSans-74" x="374.414062"/>
      <use xlink:href="#DejaVuSans-79" x="413.623047"/>
     </g>
    </g>
   </g>
   <g id="line2d_13">
    <path d="M 66.091364 60.185734 
L 69.822254 65.203317 
L 73.553145 65.203317 
L 77.284035 68.966504 
L 81.014926 70.2209 
L 84.745816 70.2209 
L 88.476707 69.504102 
L 92.207597 68.966504 
L 95.938488 67.990863 
L 99.669378 66.708592 
L 103.400269 67.21035 
L 107.13116 65.705075 
L 110.86205 64.1998 
L 114.592941 61.691009 
L 118.323831 60.687492 
L 122.054722 61.18925 
L 125.785612 60.687492 
L 129.516503 59.182217 
L 133.247393 57.676942 
L 136.978284 57.175184 
L 140.709174 54.666393 
L 144.440065 53.662876 
L 148.170955 54.666393 
L 151.901846 53.662876 
L 155.632737 51.154085 
L 159.363627 47.641777 
L 163.094518 45.634744 
L 166.825408 44.631227 
L 170.556299 44.129469 
L 174.287189 43.62771 
L 178.01808 43.62771 
L 181.74897 43.62771 
L 185.479861 42.122436 
L 189.210751 42.122436 
L 192.941642 42.624194 
L 196.672532 42.624194 
L 200.403423 43.125952 
L 204.134314 43.125952 
L 207.865204 43.125952 
L 211.596095 42.624194 
L 215.326985 42.624194 
L 219.057876 42.122436 
L 222.788766 41.620677 
L 226.519657 41.118919 
L 230.250547 40.617161 
L 233.981438 40.617161 
L 237.712328 40.115402 
L 241.443219 40.115402 
L 245.174109 40.617161 
L 248.905 40.617161 
L 252.635891 40.617161 
L 256.366781 41.620677 
L 260.097672 41.620677 
L 263.828562 41.620677 
L 267.559453 41.620677 
L 271.290343 41.620677 
L 275.021234 41.620677 
L 278.752124 41.620677 
L 282.483015 41.118919 
L 286.213905 41.118919 
L 289.944796 41.118919 
L 293.675686 40.115402 
L 297.406577 41.118919 
L 301.137468 41.118919 
L 304.868358 41.620677 
L 308.599249 41.620677 
L 312.330139 41.620677 
L 316.06103 41.620677 
L 319.79192 41.620677 
L 323.522811 42.122436 
L 327.253701 43.125952 
L 330.984592 43.62771 
L 334.715482 43.125952 
L 338.446373 43.125952 
L 342.177263 43.125952 
L 345.908154 43.125952 
L 349.639045 43.62771 
L 353.369935 43.62771 
L 357.100826 43.62771 
L 360.831716 43.125952 
L 364.562607 42.624194 
L 368.293497 42.122436 
L 372.024388 41.620677 
L 375.755278 42.122436 
L 379.486169 41.620677 
L 383.217059 41.620677 
L 386.94795 42.122436 
L 390.67884 42.122436 
L 394.409731 42.122436 
L 398.140622 42.122436 
L 401.871512 41.620677 
L 405.602403 42.624194 
L 409.333293 43.125952 
L 413.064184 42.624194 
L 416.795074 42.624194 
L 420.525965 42.624194 
L 424.256855 42.624194 
L 427.987746 43.125952 
L 431.718636 43.125952 
" clip-path="url(#p9e1a6aa607)" style="fill: none; stroke: #0000ff; stroke-linecap: square"/>
    <defs>
     <path id="m64f724e121" d="M -0.49999 0.49999 
L 0.50001 0.49999 
L 0.50001 -0.50001 
L -0.49999 -0.50001 
z
"/>
    </defs>
    <g clip-path="url(#p9e1a6aa607)">
     <use xlink:href="#m64f724e121" x="66.091364" y="60.185734" style="fill: #0000ff"/>
     <use xlink:href="#m64f724e121" x="69.822254" y="65.203317" style="fill: #0000ff"/>
     <use xlink:href="#m64f724e121" x="73.553145" y="65.203317" style="fill: #0000ff"/>
     <use xlink:href="#m64f724e121" x="77.284035" y="68.966504" style="fill: #0000ff"/>
     <use xlink:href="#m64f724e121" x="81.014926" y="70.2209" style="fill: #0000ff"/>
     <use xlink:href="#m64f724e121" x="84.745816" y="70.2209" style="fill: #0000ff"/>
     <use xlink:href="#m64f724e121" x="88.476707" y="69.504102" style="fill: #0000ff"/>
     <use xlink:href="#m64f724e121" x="92.207597" y="68.966504" style="fill: #0000ff"/>
     <use xlink:href="#m64f724e121" x="95.938488" y="67.990863" style="fill: #0000ff"/>
     <use xlink:href="#m64f724e121" x="99.669378" y="66.708592" style="fill: #0000ff"/>
     <use xlink:href="#m64f724e121" x="103.400269" y="67.21035" style="fill: #0000ff"/>
     <use xlink:href="#m64f724e121" x="107.13116" y="65.705075" style="fill: #0000ff"/>
     <use xlink:href="#m64f724e121" x="110.86205" y="64.1998" style="fill: #0000ff"/>
     <use xlink:href="#m64f724e121" x="114.592941" y="61.691009" style="fill: #0000ff"/>
     <use xlink:href="#m64f724e121" x="118.323831" y="60.687492" style="fill: #0000ff"/>
     <use xlink:href="#m64f724e121" x="122.054722" y="61.18925" style="fill: #0000ff"/>
     <use xlink:href="#m64f724e121" x="125.785612" y="60.687492" style="fill: #0000ff"/>
     <use xlink:href="#m64f724e121" x="129.516503" y="59.182217" style="fill: #0000ff"/>
     <use xlink:href="#m64f724e121" x="133.247393" y="57.676942" style="fill: #0000ff"/>
     <use xlink:href="#m64f724e121" x="136.978284" y="57.175184" style="fill: #0000ff"/>
     <use xlink:href="#m64f724e121" x="140.709174" y="54.666393" style="fill: #0000ff"/>
     <use xlink:href="#m64f724e121" x="144.440065" y="53.662876" style="fill: #0000ff"/>
     <use xlink:href="#m64f724e121" x="148.170955" y="54.666393" style="fill: #0000ff"/>
     <use xlink:href="#m64f724e121" x="151.901846" y="53.662876" style="fill: #0000ff"/>
     <use xlink:href="#m64f724e121" x="155.632737" y="51.154085" style="fill: #0000ff"/>
     <use xlink:href="#m64f724e121" x="159.363627" y="47.641777" style="fill: #0000ff"/>
     <use xlink:href="#m64f724e121" x="163.094518" y="45.634744" style="fill: #0000ff"/>
     <use xlink:href="#m64f724e121" x="166.825408" y="44.631227" style="fill: #0000ff"/>
     <use xlink:href="#m64f724e121" x="170.556299" y="44.129469" style="fill: #0000ff"/>
     <use xlink:href="#m64f724e121" x="174.287189" y="43.62771" style="fill: #0000ff"/>
     <use xlink:href="#m64f724e121" x="178.01808" y="43.62771" style="fill: #0000ff"/>
     <use xlink:href="#m64f724e121" x="181.74897" y="43.62771" style="fill: #0000ff"/>
     <use xlink:href="#m64f724e121" x="185.479861" y="42.122436" style="fill: #0000ff"/>
     <use xlink:href="#m64f724e121" x="189.210751" y="42.122436" style="fill: #0000ff"/>
     <use xlink:href="#m64f724e121" x="192.941642" y="42.624194" style="fill: #0000ff"/>
     <use xlink:href="#m64f724e121" x="196.672532" y="42.624194" style="fill: #0000ff"/>
     <use xlink:href="#m64f724e121" x="200.403423" y="43.125952" style="fill: #0000ff"/>
     <use xlink:href="#m64f724e121" x="204.134314" y="43.125952" style="fill: #0000ff"/>
     <use xlink:href="#m64f724e121" x="207.865204" y="43.125952" style="fill: #0000ff"/>
     <use xlink:href="#m64f724e121" x="211.596095" y="42.624194" style="fill: #0000ff"/>
     <use xlink:href="#m64f724e121" x="215.326985" y="42.624194" style="fill: #0000ff"/>
     <use xlink:href="#m64f724e121" x="219.057876" y="42.122436" style="fill: #0000ff"/>
     <use xlink:href="#m64f724e121" x="222.788766" y="41.620677" style="fill: #0000ff"/>
     <use xlink:href="#m64f724e121" x="226.519657" y="41.118919" style="fill: #0000ff"/>
     <use xlink:href="#m64f724e121" x="230.250547" y="40.617161" style="fill: #0000ff"/>
     <use xlink:href="#m64f724e121" x="233.981438" y="40.617161" style="fill: #0000ff"/>
     <use xlink:href="#m64f724e121" x="237.712328" y="40.115402" style="fill: #0000ff"/>
     <use xlink:href="#m64f724e121" x="241.443219" y="40.115402" style="fill: #0000ff"/>
     <use xlink:href="#m64f724e121" x="245.174109" y="40.617161" style="fill: #0000ff"/>
     <use xlink:href="#m64f724e121" x="248.905" y="40.617161" style="fill: #0000ff"/>
     <use xlink:href="#m64f724e121" x="252.635891" y="40.617161" style="fill: #0000ff"/>
     <use xlink:href="#m64f724e121" x="256.366781" y="41.620677" style="fill: #0000ff"/>
     <use xlink:href="#m64f724e121" x="260.097672" y="41.620677" style="fill: #0000ff"/>
     <use xlink:href="#m64f724e121" x="263.828562" y="41.620677" style="fill: #0000ff"/>
     <use xlink:href="#m64f724e121" x="267.559453" y="41.620677" style="fill: #0000ff"/>
     <use xlink:href="#m64f724e121" x="271.290343" y="41.620677" style="fill: #0000ff"/>
     <use xlink:href="#m64f724e121" x="275.021234" y="41.620677" style="fill: #0000ff"/>
     <use xlink:href="#m64f724e121" x="278.752124" y="41.620677" style="fill: #0000ff"/>
     <use xlink:href="#m64f724e121" x="282.483015" y="41.118919" style="fill: #0000ff"/>
     <use xlink:href="#m64f724e121" x="286.213905" y="41.118919" style="fill: #0000ff"/>
     <use xlink:href="#m64f724e121" x="289.944796" y="41.118919" style="fill: #0000ff"/>
     <use xlink:href="#m64f724e121" x="293.675686" y="40.115402" style="fill: #0000ff"/>
     <use xlink:href="#m64f724e121" x="297.406577" y="41.118919" style="fill: #0000ff"/>
     <use xlink:href="#m64f724e121" x="301.137468" y="41.118919" style="fill: #0000ff"/>
     <use xlink:href="#m64f724e121" x="304.868358" y="41.620677" style="fill: #0000ff"/>
     <use xlink:href="#m64f724e121" x="308.599249" y="41.620677" style="fill: #0000ff"/>
     <use xlink:href="#m64f724e121" x="312.330139" y="41.620677" style="fill: #0000ff"/>
     <use xlink:href="#m64f724e121" x="316.06103" y="41.620677" style="fill: #0000ff"/>
     <use xlink:href="#m64f724e121" x="319.79192" y="41.620677" style="fill: #0000ff"/>
     <use xlink:href="#m64f724e121" x="323.522811" y="42.122436" style="fill: #0000ff"/>
     <use xlink:href="#m64f724e121" x="327.253701" y="43.125952" style="fill: #0000ff"/>
     <use xlink:href="#m64f724e121" x="330.984592" y="43.62771" style="fill: #0000ff"/>
     <use xlink:href="#m64f724e121" x="334.715482" y="43.125952" style="fill: #0000ff"/>
     <use xlink:href="#m64f724e121" x="338.446373" y="43.125952" style="fill: #0000ff"/>
     <use xlink:href="#m64f724e121" x="342.177263" y="43.125952" style="fill: #0000ff"/>
     <use xlink:href="#m64f724e121" x="345.908154" y="43.125952" style="fill: #0000ff"/>
     <use xlink:href="#m64f724e121" x="349.639045" y="43.62771" style="fill: #0000ff"/>
     <use xlink:href="#m64f724e121" x="353.369935" y="43.62771" style="fill: #0000ff"/>
     <use xlink:href="#m64f724e121" x="357.100826" y="43.62771" style="fill: #0000ff"/>
     <use xlink:href="#m64f724e121" x="360.831716" y="43.125952" style="fill: #0000ff"/>
     <use xlink:href="#m64f724e121" x="364.562607" y="42.624194" style="fill: #0000ff"/>
     <use xlink:href="#m64f724e121" x="368.293497" y="42.122436" style="fill: #0000ff"/>
     <use xlink:href="#m64f724e121" x="372.024388" y="41.620677" style="fill: #0000ff"/>
     <use xlink:href="#m64f724e121" x="375.755278" y="42.122436" style="fill: #0000ff"/>
     <use xlink:href="#m64f724e121" x="379.486169" y="41.620677" style="fill: #0000ff"/>
     <use xlink:href="#m64f724e121" x="383.217059" y="41.620677" style="fill: #0000ff"/>
     <use xlink:href="#m64f724e121" x="386.94795" y="42.122436" style="fill: #0000ff"/>
     <use xlink:href="#m64f724e121" x="390.67884" y="42.122436" style="fill: #0000ff"/>
     <use xlink:href="#m64f724e121" x="394.409731" y="42.122436" style="fill: #0000ff"/>
     <use xlink:href="#m64f724e121" x="398.140622" y="42.122436" style="fill: #0000ff"/>
     <use xlink:href="#m64f724e121" x="401.871512" y="41.620677" style="fill: #0000ff"/>
     <use xlink:href="#m64f724e121" x="405.602403" y="42.624194" style="fill: #0000ff"/>
     <use xlink:href="#m64f724e121" x="409.333293" y="43.125952" style="fill: #0000ff"/>
     <use xlink:href="#m64f724e121" x="413.064184" y="42.624194" style="fill: #0000ff"/>
     <use xlink:href="#m64f724e121" x="416.795074" y="42.624194" style="fill: #0000ff"/>
     <use xlink:href="#m64f724e121" x="420.525965" y="42.624194" style="fill: #0000ff"/>
     <use xlink:href="#m64f724e121" x="424.256855" y="42.624194" style="fill: #0000ff"/>
     <use xlink:href="#m64f724e121" x="427.987746" y="43.125952" style="fill: #0000ff"/>
     <use xlink:href="#m64f724e121" x="431.718636" y="43.125952" style="fill: #0000ff"/>
    </g>
   </g>
   <g id="line2d_14">
    <path d="M 66.091364 60.185734 
L 69.822254 62.694525 
L 73.553145 63.530789 
L 77.284035 64.889718 
L 81.014926 65.955954 
L 84.745816 66.666778 
L 88.476707 67.07211 
L 92.207597 67.308909 
L 95.938488 67.384682 
L 99.669378 67.317073 
L 103.400269 67.307371 
L 107.13116 67.173846 
L 110.86205 66.945073 
L 114.592941 66.569783 
L 118.323831 66.17763 
L 122.054722 65.865857 
L 125.785612 65.561247 
L 129.516503 65.206856 
L 133.247393 64.810545 
L 136.978284 64.428777 
L 140.709174 63.963902 
L 144.440065 63.495673 
L 148.170955 63.111791 
L 151.901846 62.718087 
L 155.632737 62.255527 
L 159.363627 61.693459 
L 163.094518 61.098692 
L 166.825408 60.510568 
L 170.556299 59.945703 
L 174.287189 59.40177 
L 178.01808 58.892929 
L 181.74897 58.415891 
L 185.479861 57.92215 
L 189.210751 57.457452 
L 192.941642 57.033645 
L 196.672532 56.633383 
L 200.403423 56.268317 
L 204.134314 55.922465 
L 207.865204 55.594349 
L 211.596095 55.270096 
L 215.326985 54.961659 
L 219.057876 54.655963 
L 222.788766 54.352817 
L 226.519657 54.052046 
L 230.250547 53.753493 
L 233.981438 53.467921 
L 237.712328 53.183825 
L 241.443219 52.911566 
L 245.174109 52.66066 
L 248.905 52.41979 
L 252.635891 52.188366 
L 256.366781 51.985141 
L 260.097672 51.789585 
L 263.828562 51.601272 
L 267.559453 51.419807 
L 271.290343 51.244822 
L 275.021234 51.075977 
L 278.752124 50.912955 
L 282.483015 50.746954 
L 286.213905 50.586487 
L 289.944796 50.431281 
L 293.675686 50.264896 
L 297.406577 50.119722 
L 301.137468 49.979084 
L 304.868358 49.850493 
L 308.599249 49.725799 
L 312.330139 49.604827 
L 316.06103 49.487413 
L 319.79192 49.373403 
L 323.522811 49.269817 
L 327.253701 49.183284 
L 330.984592 49.106123 
L 334.715482 49.024203 
L 338.446373 48.944497 
L 342.177263 48.866916 
L 345.908154 48.791377 
L 349.639045 48.724317 
L 353.369935 48.658976 
L 357.100826 48.595289 
L 360.831716 48.526922 
L 364.562607 48.454049 
L 368.293497 48.376834 
L 372.024388 48.295435 
L 375.755278 48.221947 
L 379.486169 48.144285 
L 383.217059 48.068429 
L 386.94795 48.000084 
L 390.67884 47.933292 
L 394.409731 47.868002 
L 398.140622 47.804162 
L 401.871512 47.736212 
L 405.602403 47.680646 
L 409.333293 47.631671 
L 413.064184 47.5784 
L 416.795074 47.526251 
L 420.525965 47.475188 
L 424.256855 47.425177 
L 427.987746 47.381308 
L 431.718636 47.338324 
" clip-path="url(#p9e1a6aa607)" style="fill: none; stroke: #ff0000; stroke-opacity: 0.5; stroke-width: 0.5; stroke-linecap: square"/>
    <defs>
     <path id="mf897ee7c99" d="M -0.49999 0.49999 
L 0.50001 0.49999 
L 0.50001 -0.50001 
L -0.49999 -0.50001 
z
"/>
    </defs>
    <g clip-path="url(#p9e1a6aa607)">
     <use xlink:href="#mf897ee7c99" x="66.091364" y="60.185734" style="fill: #ff0000; fill-opacity: 0.5"/>
     <use xlink:href="#mf897ee7c99" x="69.822254" y="62.694525" style="fill: #ff0000; fill-opacity: 0.5"/>
     <use xlink:href="#mf897ee7c99" x="73.553145" y="63.530789" style="fill: #ff0000; fill-opacity: 0.5"/>
     <use xlink:href="#mf897ee7c99" x="77.284035" y="64.889718" style="fill: #ff0000; fill-opacity: 0.5"/>
     <use xlink:href="#mf897ee7c99" x="81.014926" y="65.955954" style="fill: #ff0000; fill-opacity: 0.5"/>
     <use xlink:href="#mf897ee7c99" x="84.745816" y="66.666778" style="fill: #ff0000; fill-opacity: 0.5"/>
     <use xlink:href="#mf897ee7c99" x="88.476707" y="67.07211" style="fill: #ff0000; fill-opacity: 0.5"/>
     <use xlink:href="#mf897ee7c99" x="92.207597" y="67.308909" style="fill: #ff0000; fill-opacity: 0.5"/>
     <use xlink:href="#mf897ee7c99" x="95.938488" y="67.384682" style="fill: #ff0000; fill-opacity: 0.5"/>
     <use xlink:href="#mf897ee7c99" x="99.669378" y="67.317073" style="fill: #ff0000; fill-opacity: 0.5"/>
     <use xlink:href="#mf897ee7c99" x="103.400269" y="67.307371" style="fill: #ff0000; fill-opacity: 0.5"/>
     <use xlink:href="#mf897ee7c99" x="107.13116" y="67.173846" style="fill: #ff0000; fill-opacity: 0.5"/>
     <use xlink:href="#mf897ee7c99" x="110.86205" y="66.945073" style="fill: #ff0000; fill-opacity: 0.5"/>
     <use xlink:href="#mf897ee7c99" x="114.592941" y="66.569783" style="fill: #ff0000; fill-opacity: 0.5"/>
     <use xlink:href="#mf897ee7c99" x="118.323831" y="66.17763" style="fill: #ff0000; fill-opacity: 0.5"/>
     <use xlink:href="#mf897ee7c99" x="122.054722" y="65.865857" style="fill: #ff0000; fill-opacity: 0.5"/>
     <use xlink:href="#mf897ee7c99" x="125.785612" y="65.561247" style="fill: #ff0000; fill-opacity: 0.5"/>
     <use xlink:href="#mf897ee7c99" x="129.516503" y="65.206856" style="fill: #ff0000; fill-opacity: 0.5"/>
     <use xlink:href="#mf897ee7c99" x="133.247393" y="64.810545" style="fill: #ff0000; fill-opacity: 0.5"/>
     <use xlink:href="#mf897ee7c99" x="136.978284" y="64.428777" style="fill: #ff0000; fill-opacity: 0.5"/>
     <use xlink:href="#mf897ee7c99" x="140.709174" y="63.963902" style="fill: #ff0000; fill-opacity: 0.5"/>
     <use xlink:href="#mf897ee7c99" x="144.440065" y="63.495673" style="fill: #ff0000; fill-opacity: 0.5"/>
     <use xlink:href="#mf897ee7c99" x="148.170955" y="63.111791" style="fill: #ff0000; fill-opacity: 0.5"/>
     <use xlink:href="#mf897ee7c99" x="151.901846" y="62.718087" style="fill: #ff0000; fill-opacity: 0.5"/>
     <use xlink:href="#mf897ee7c99" x="155.632737" y="62.255527" style="fill: #ff0000; fill-opacity: 0.5"/>
     <use xlink:href="#mf897ee7c99" x="159.363627" y="61.693459" style="fill: #ff0000; fill-opacity: 0.5"/>
     <use xlink:href="#mf897ee7c99" x="163.094518" y="61.098692" style="fill: #ff0000; fill-opacity: 0.5"/>
     <use xlink:href="#mf897ee7c99" x="166.825408" y="60.510568" style="fill: #ff0000; fill-opacity: 0.5"/>
     <use xlink:href="#mf897ee7c99" x="170.556299" y="59.945703" style="fill: #ff0000; fill-opacity: 0.5"/>
     <use xlink:href="#mf897ee7c99" x="174.287189" y="59.40177" style="fill: #ff0000; fill-opacity: 0.5"/>
     <use xlink:href="#mf897ee7c99" x="178.01808" y="58.892929" style="fill: #ff0000; fill-opacity: 0.5"/>
     <use xlink:href="#mf897ee7c99" x="181.74897" y="58.415891" style="fill: #ff0000; fill-opacity: 0.5"/>
     <use xlink:href="#mf897ee7c99" x="185.479861" y="57.92215" style="fill: #ff0000; fill-opacity: 0.5"/>
     <use xlink:href="#mf897ee7c99" x="189.210751" y="57.457452" style="fill: #ff0000; fill-opacity: 0.5"/>
     <use xlink:href="#mf897ee7c99" x="192.941642" y="57.033645" style="fill: #ff0000; fill-opacity: 0.5"/>
     <use xlink:href="#mf897ee7c99" x="196.672532" y="56.633383" style="fill: #ff0000; fill-opacity: 0.5"/>
     <use xlink:href="#mf897ee7c99" x="200.403423" y="56.268317" style="fill: #ff0000; fill-opacity: 0.5"/>
     <use xlink:href="#mf897ee7c99" x="204.134314" y="55.922465" style="fill: #ff0000; fill-opacity: 0.5"/>
     <use xlink:href="#mf897ee7c99" x="207.865204" y="55.594349" style="fill: #ff0000; fill-opacity: 0.5"/>
     <use xlink:href="#mf897ee7c99" x="211.596095" y="55.270096" style="fill: #ff0000; fill-opacity: 0.5"/>
     <use xlink:href="#mf897ee7c99" x="215.326985" y="54.961659" style="fill: #ff0000; fill-opacity: 0.5"/>
     <use xlink:href="#mf897ee7c99" x="219.057876" y="54.655963" style="fill: #ff0000; fill-opacity: 0.5"/>
     <use xlink:href="#mf897ee7c99" x="222.788766" y="54.352817" style="fill: #ff0000; fill-opacity: 0.5"/>
     <use xlink:href="#mf897ee7c99" x="226.519657" y="54.052046" style="fill: #ff0000; fill-opacity: 0.5"/>
     <use xlink:href="#mf897ee7c99" x="230.250547" y="53.753493" style="fill: #ff0000; fill-opacity: 0.5"/>
     <use xlink:href="#mf897ee7c99" x="233.981438" y="53.467921" style="fill: #ff0000; fill-opacity: 0.5"/>
     <use xlink:href="#mf897ee7c99" x="237.712328" y="53.183825" style="fill: #ff0000; fill-opacity: 0.5"/>
     <use xlink:href="#mf897ee7c99" x="241.443219" y="52.911566" style="fill: #ff0000; fill-opacity: 0.5"/>
     <use xlink:href="#mf897ee7c99" x="245.174109" y="52.66066" style="fill: #ff0000; fill-opacity: 0.5"/>
     <use xlink:href="#mf897ee7c99" x="248.905" y="52.41979" style="fill: #ff0000; fill-opacity: 0.5"/>
     <use xlink:href="#mf897ee7c99" x="252.635891" y="52.188366" style="fill: #ff0000; fill-opacity: 0.5"/>
     <use xlink:href="#mf897ee7c99" x="256.366781" y="51.985141" style="fill: #ff0000; fill-opacity: 0.5"/>
     <use xlink:href="#mf897ee7c99" x="260.097672" y="51.789585" style="fill: #ff0000; fill-opacity: 0.5"/>
     <use xlink:href="#mf897ee7c99" x="263.828562" y="51.601272" style="fill: #ff0000; fill-opacity: 0.5"/>
     <use xlink:href="#mf897ee7c99" x="267.559453" y="51.419807" style="fill: #ff0000; fill-opacity: 0.5"/>
     <use xlink:href="#mf897ee7c99" x="271.290343" y="51.244822" style="fill: #ff0000; fill-opacity: 0.5"/>
     <use xlink:href="#mf897ee7c99" x="275.021234" y="51.075977" style="fill: #ff0000; fill-opacity: 0.5"/>
     <use xlink:href="#mf897ee7c99" x="278.752124" y="50.912955" style="fill: #ff0000; fill-opacity: 0.5"/>
     <use xlink:href="#mf897ee7c99" x="282.483015" y="50.746954" style="fill: #ff0000; fill-opacity: 0.5"/>
     <use xlink:href="#mf897ee7c99" x="286.213905" y="50.586487" style="fill: #ff0000; fill-opacity: 0.5"/>
     <use xlink:href="#mf897ee7c99" x="289.944796" y="50.431281" style="fill: #ff0000; fill-opacity: 0.5"/>
     <use xlink:href="#mf897ee7c99" x="293.675686" y="50.264896" style="fill: #ff0000; fill-opacity: 0.5"/>
     <use xlink:href="#mf897ee7c99" x="297.406577" y="50.119722" style="fill: #ff0000; fill-opacity: 0.5"/>
     <use xlink:href="#mf897ee7c99" x="301.137468" y="49.979084" style="fill: #ff0000; fill-opacity: 0.5"/>
     <use xlink:href="#mf897ee7c99" x="304.868358" y="49.850493" style="fill: #ff0000; fill-opacity: 0.5"/>
     <use xlink:href="#mf897ee7c99" x="308.599249" y="49.725799" style="fill: #ff0000; fill-opacity: 0.5"/>
     <use xlink:href="#mf897ee7c99" x="312.330139" y="49.604827" style="fill: #ff0000; fill-opacity: 0.5"/>
     <use xlink:href="#mf897ee7c99" x="316.06103" y="49.487413" style="fill: #ff0000; fill-opacity: 0.5"/>
     <use xlink:href="#mf897ee7c99" x="319.79192" y="49.373403" style="fill: #ff0000; fill-opacity: 0.5"/>
     <use xlink:href="#mf897ee7c99" x="323.522811" y="49.269817" style="fill: #ff0000; fill-opacity: 0.5"/>
     <use xlink:href="#mf897ee7c99" x="327.253701" y="49.183284" style="fill: #ff0000; fill-opacity: 0.5"/>
     <use xlink:href="#mf897ee7c99" x="330.984592" y="49.106123" style="fill: #ff0000; fill-opacity: 0.5"/>
     <use xlink:href="#mf897ee7c99" x="334.715482" y="49.024203" style="fill: #ff0000; fill-opacity: 0.5"/>
     <use xlink:href="#mf897ee7c99" x="338.446373" y="48.944497" style="fill: #ff0000; fill-opacity: 0.5"/>
     <use xlink:href="#mf897ee7c99" x="342.177263" y="48.866916" style="fill: #ff0000; fill-opacity: 0.5"/>
     <use xlink:href="#mf897ee7c99" x="345.908154" y="48.791377" style="fill: #ff0000; fill-opacity: 0.5"/>
     <use xlink:href="#mf897ee7c99" x="349.639045" y="48.724317" style="fill: #ff0000; fill-opacity: 0.5"/>
     <use xlink:href="#mf897ee7c99" x="353.369935" y="48.658976" style="fill: #ff0000; fill-opacity: 0.5"/>
     <use xlink:href="#mf897ee7c99" x="357.100826" y="48.595289" style="fill: #ff0000; fill-opacity: 0.5"/>
     <use xlink:href="#mf897ee7c99" x="360.831716" y="48.526922" style="fill: #ff0000; fill-opacity: 0.5"/>
     <use xlink:href="#mf897ee7c99" x="364.562607" y="48.454049" style="fill: #ff0000; fill-opacity: 0.5"/>
     <use xlink:href="#mf897ee7c99" x="368.293497" y="48.376834" style="fill: #ff0000; fill-opacity: 0.5"/>
     <use xlink:href="#mf897ee7c99" x="372.024388" y="48.295435" style="fill: #ff0000; fill-opacity: 0.5"/>
     <use xlink:href="#mf897ee7c99" x="375.755278" y="48.221947" style="fill: #ff0000; fill-opacity: 0.5"/>
     <use xlink:href="#mf897ee7c99" x="379.486169" y="48.144285" style="fill: #ff0000; fill-opacity: 0.5"/>
     <use xlink:href="#mf897ee7c99" x="383.217059" y="48.068429" style="fill: #ff0000; fill-opacity: 0.5"/>
     <use xlink:href="#mf897ee7c99" x="386.94795" y="48.000084" style="fill: #ff0000; fill-opacity: 0.5"/>
     <use xlink:href="#mf897ee7c99" x="390.67884" y="47.933292" style="fill: #ff0000; fill-opacity: 0.5"/>
     <use xlink:href="#mf897ee7c99" x="394.409731" y="47.868002" style="fill: #ff0000; fill-opacity: 0.5"/>
     <use xlink:href="#mf897ee7c99" x="398.140622" y="47.804162" style="fill: #ff0000; fill-opacity: 0.5"/>
     <use xlink:href="#mf897ee7c99" x="401.871512" y="47.736212" style="fill: #ff0000; fill-opacity: 0.5"/>
     <use xlink:href="#mf897ee7c99" x="405.602403" y="47.680646" style="fill: #ff0000; fill-opacity: 0.5"/>
     <use xlink:href="#mf897ee7c99" x="409.333293" y="47.631671" style="fill: #ff0000; fill-opacity: 0.5"/>
     <use xlink:href="#mf897ee7c99" x="413.064184" y="47.5784" style="fill: #ff0000; fill-opacity: 0.5"/>
     <use xlink:href="#mf897ee7c99" x="416.795074" y="47.526251" style="fill: #ff0000; fill-opacity: 0.5"/>
     <use xlink:href="#mf897ee7c99" x="420.525965" y="47.475188" style="fill: #ff0000; fill-opacity: 0.5"/>
     <use xlink:href="#mf897ee7c99" x="424.256855" y="47.425177" style="fill: #ff0000; fill-opacity: 0.5"/>
     <use xlink:href="#mf897ee7c99" x="427.987746" y="47.381308" style="fill: #ff0000; fill-opacity: 0.5"/>
     <use xlink:href="#mf897ee7c99" x="431.718636" y="47.338324" style="fill: #ff0000; fill-opacity: 0.5"/>
    </g>
   </g>
   <g id="line2d_15">
    <path d="M 47.81 290.994545 
L 450 290.994545 
" clip-path="url(#p9e1a6aa607)" style="fill: none; stroke-dasharray: 0.555,0.24; stroke-dashoffset: 0; stroke: #ff0000; stroke-width: 0.15"/>
   </g>
   <g id="line2d_16">
    <path d="M 47.81 165.554974 
L 450 165.554974 
" clip-path="url(#p9e1a6aa607)" style="fill: none; stroke-dasharray: 0.555,0.24; stroke-dashoffset: 0; stroke: #ff0000; stroke-width: 0.15"/>
   </g>
   <g id="line2d_17">
    <path d="M 47.81 40.115402 
L 450 40.115402 
" clip-path="url(#p9e1a6aa607)" style="fill: none; stroke-dasharray: 0.555,0.24; stroke-dashoffset: 0; stroke: #ff0000; stroke-width: 0.15"/>
   </g>
   <g id="patch_3">
    <path d="M 47.81 303.64 
L 47.81 25.44 
" style="fill: none; stroke: #000000; stroke-width: 0.8; stroke-linejoin: miter; stroke-linecap: square"/>
   </g>
   <g id="patch_4">
    <path d="M 450 303.64 
L 450 25.44 
" style="fill: none; stroke: #000000; stroke-width: 0.8; stroke-linejoin: miter; stroke-linecap: square"/>
   </g>
   <g id="patch_5">
    <path d="M 47.81 303.64 
L 450 303.64 
" style="fill: none; stroke: #000000; stroke-width: 0.8; stroke-linejoin: miter; stroke-linecap: square"/>
   </g>
   <g id="patch_6">
    <path d="M 47.81 25.44 
L 450 25.44 
" style="fill: none; stroke: #000000; stroke-width: 0.8; stroke-linejoin: miter; stroke-linecap: square"/>
   </g>
   <g id="text_15">
    <!-- Similarity LLM-COOP with sw10-1 - 20240409113845 - 50 games -->
    <g transform="translate(54.065313 19.44) scale(0.12 -0.12)">
     <defs>
      <path id="DejaVuSans-20" transform="scale(0.015625)"/>
      <path id="DejaVuSans-4c" d="M 628 4666 
L 1259 4666 
L 1259 531 
L 3531 531 
L 3531 0 
L 628 0 
L 628 4666 
z
" transform="scale(0.015625)"/>
      <path id="DejaVuSans-4d" d="M 628 4666 
L 1569 4666 
L 2759 1491 
L 3956 4666 
L 4897 4666 
L 4897 0 
L 4281 0 
L 4281 4097 
L 3078 897 
L 2444 897 
L 1241 4097 
L 1241 0 
L 628 0 
L 628 4666 
z
" transform="scale(0.015625)"/>
      <path id="DejaVuSans-2d" d="M 313 2009 
L 1997 2009 
L 1997 1497 
L 313 1497 
L 313 2009 
z
" transform="scale(0.015625)"/>
      <path id="DejaVuSans-43" d="M 4122 4306 
L 4122 3641 
Q 3803 3938 3442 4084 
Q 3081 4231 2675 4231 
Q 1875 4231 1450 3742 
Q 1025 3253 1025 2328 
Q 1025 1406 1450 917 
Q 1875 428 2675 428 
Q 3081 428 3442 575 
Q 3803 722 4122 1019 
L 4122 359 
Q 3791 134 3420 21 
Q 3050 -91 2638 -91 
Q 1578 -91 968 557 
Q 359 1206 359 2328 
Q 359 3453 968 4101 
Q 1578 4750 2638 4750 
Q 3056 4750 3426 4639 
Q 3797 4528 4122 4306 
z
" transform="scale(0.015625)"/>
      <path id="DejaVuSans-4f" d="M 2522 4238 
Q 1834 4238 1429 3725 
Q 1025 3213 1025 2328 
Q 1025 1447 1429 934 
Q 1834 422 2522 422 
Q 3209 422 3611 934 
Q 4013 1447 4013 2328 
Q 4013 3213 3611 3725 
Q 3209 4238 2522 4238 
z
M 2522 4750 
Q 3503 4750 4090 4092 
Q 4678 3434 4678 2328 
Q 4678 1225 4090 567 
Q 3503 -91 2522 -91 
Q 1538 -91 948 565 
Q 359 1222 359 2328 
Q 359 3434 948 4092 
Q 1538 4750 2522 4750 
z
" transform="scale(0.015625)"/>
      <path id="DejaVuSans-50" d="M 1259 4147 
L 1259 2394 
L 2053 2394 
Q 2494 2394 2734 2622 
Q 2975 2850 2975 3272 
Q 2975 3691 2734 3919 
Q 2494 4147 2053 4147 
L 1259 4147 
z
M 628 4666 
L 2053 4666 
Q 2838 4666 3239 4311 
Q 3641 3956 3641 3272 
Q 3641 2581 3239 2228 
Q 2838 1875 2053 1875 
L 1259 1875 
L 1259 0 
L 628 0 
L 628 4666 
z
" transform="scale(0.015625)"/>
      <path id="DejaVuSans-77" d="M 269 3500 
L 844 3500 
L 1563 769 
L 2278 3500 
L 2956 3500 
L 3675 769 
L 4391 3500 
L 4966 3500 
L 4050 0 
L 3372 0 
L 2619 2869 
L 1863 0 
L 1184 0 
L 269 3500 
z
" transform="scale(0.015625)"/>
      <path id="DejaVuSans-68" d="M 3513 2113 
L 3513 0 
L 2938 0 
L 2938 2094 
Q 2938 2591 2744 2837 
Q 2550 3084 2163 3084 
Q 1697 3084 1428 2787 
Q 1159 2491 1159 1978 
L 1159 0 
L 581 0 
L 581 4863 
L 1159 4863 
L 1159 2956 
Q 1366 3272 1645 3428 
Q 1925 3584 2291 3584 
Q 2894 3584 3203 3211 
Q 3513 2838 3513 2113 
z
" transform="scale(0.015625)"/>
      <path id="DejaVuSans-73" d="M 2834 3397 
L 2834 2853 
Q 2591 2978 2328 3040 
Q 2066 3103 1784 3103 
Q 1356 3103 1142 2972 
Q 928 2841 928 2578 
Q 928 2378 1081 2264 
Q 1234 2150 1697 2047 
L 1894 2003 
Q 2506 1872 2764 1633 
Q 3022 1394 3022 966 
Q 3022 478 2636 193 
Q 2250 -91 1575 -91 
Q 1294 -91 989 -36 
Q 684 19 347 128 
L 347 722 
Q 666 556 975 473 
Q 1284 391 1588 391 
Q 1994 391 2212 530 
Q 2431 669 2431 922 
Q 2431 1156 2273 1281 
Q 2116 1406 1581 1522 
L 1381 1569 
Q 847 1681 609 1914 
Q 372 2147 372 2553 
Q 372 3047 722 3315 
Q 1072 3584 1716 3584 
Q 2034 3584 2315 3537 
Q 2597 3491 2834 3397 
z
" transform="scale(0.015625)"/>
      <path id="DejaVuSans-39" d="M 703 97 
L 703 672 
Q 941 559 1184 500 
Q 1428 441 1663 441 
Q 2288 441 2617 861 
Q 2947 1281 2994 2138 
Q 2813 1869 2534 1725 
Q 2256 1581 1919 1581 
Q 1219 1581 811 2004 
Q 403 2428 403 3163 
Q 403 3881 828 4315 
Q 1253 4750 1959 4750 
Q 2769 4750 3195 4129 
Q 3622 3509 3622 2328 
Q 3622 1225 3098 567 
Q 2575 -91 1691 -91 
Q 1453 -91 1209 -44 
Q 966 3 703 97 
z
M 1959 2075 
Q 2384 2075 2632 2365 
Q 2881 2656 2881 3163 
Q 2881 3666 2632 3958 
Q 2384 4250 1959 4250 
Q 1534 4250 1286 3958 
Q 1038 3666 1038 3163 
Q 1038 2656 1286 2365 
Q 1534 2075 1959 2075 
z
" transform="scale(0.015625)"/>
      <path id="DejaVuSans-33" d="M 2597 2516 
Q 3050 2419 3304 2112 
Q 3559 1806 3559 1356 
Q 3559 666 3084 287 
Q 2609 -91 1734 -91 
Q 1441 -91 1130 -33 
Q 819 25 488 141 
L 488 750 
Q 750 597 1062 519 
Q 1375 441 1716 441 
Q 2309 441 2620 675 
Q 2931 909 2931 1356 
Q 2931 1769 2642 2001 
Q 2353 2234 1838 2234 
L 1294 2234 
L 1294 2753 
L 1863 2753 
Q 2328 2753 2575 2939 
Q 2822 3125 2822 3475 
Q 2822 3834 2567 4026 
Q 2313 4219 1838 4219 
Q 1578 4219 1281 4162 
Q 984 4106 628 3988 
L 628 4550 
Q 988 4650 1302 4700 
Q 1616 4750 1894 4750 
Q 2613 4750 3031 4423 
Q 3450 4097 3450 3541 
Q 3450 3153 3228 2886 
Q 3006 2619 2597 2516 
z
" transform="scale(0.015625)"/>
      <path id="DejaVuSans-35" d="M 691 4666 
L 3169 4666 
L 3169 4134 
L 1269 4134 
L 1269 2991 
Q 1406 3038 1543 3061 
Q 1681 3084 1819 3084 
Q 2600 3084 3056 2656 
Q 3513 2228 3513 1497 
Q 3513 744 3044 326 
Q 2575 -91 1722 -91 
Q 1428 -91 1123 -41 
Q 819 9 494 109 
L 494 744 
Q 775 591 1075 516 
Q 1375 441 1709 441 
Q 2250 441 2565 725 
Q 2881 1009 2881 1497 
Q 2881 1984 2565 2268 
Q 2250 2553 1709 2553 
Q 1456 2553 1204 2497 
Q 953 2441 691 2322 
L 691 4666 
z
" transform="scale(0.015625)"/>
      <path id="DejaVuSans-67" d="M 2906 1791 
Q 2906 2416 2648 2759 
Q 2391 3103 1925 3103 
Q 1463 3103 1205 2759 
Q 947 2416 947 1791 
Q 947 1169 1205 825 
Q 1463 481 1925 481 
Q 2391 481 2648 825 
Q 2906 1169 2906 1791 
z
M 3481 434 
Q 3481 -459 3084 -895 
Q 2688 -1331 1869 -1331 
Q 1566 -1331 1297 -1286 
Q 1028 -1241 775 -1147 
L 775 -588 
Q 1028 -725 1275 -790 
Q 1522 -856 1778 -856 
Q 2344 -856 2625 -561 
Q 2906 -266 2906 331 
L 2906 616 
Q 2728 306 2450 153 
Q 2172 0 1784 0 
Q 1141 0 747 490 
Q 353 981 353 1791 
Q 353 2603 747 3093 
Q 1141 3584 1784 3584 
Q 2172 3584 2450 3431 
Q 2728 3278 2906 2969 
L 2906 3500 
L 3481 3500 
L 3481 434 
z
" transform="scale(0.015625)"/>
     </defs>
     <use xlink:href="#DejaVuSans-53"/>
     <use xlink:href="#DejaVuSans-69" x="63.476562"/>
     <use xlink:href="#DejaVuSans-6d" x="91.259766"/>
     <use xlink:href="#DejaVuSans-69" x="188.671875"/>
     <use xlink:href="#DejaVuSans-6c" x="216.455078"/>
     <use xlink:href="#DejaVuSans-61" x="244.238281"/>
     <use xlink:href="#DejaVuSans-72" x="305.517578"/>
     <use xlink:href="#DejaVuSans-69" x="346.630859"/>
     <use xlink:href="#DejaVuSans-74" x="374.414062"/>
     <use xlink:href="#DejaVuSans-79" x="413.623047"/>
     <use xlink:href="#DejaVuSans-20" x="472.802734"/>
     <use xlink:href="#DejaVuSans-4c" x="504.589844"/>
     <use xlink:href="#DejaVuSans-4c" x="560.302734"/>
     <use xlink:href="#DejaVuSans-4d" x="616.015625"/>
     <use xlink:href="#DejaVuSans-2d" x="702.294922"/>
     <use xlink:href="#DejaVuSans-43" x="738.378906"/>
     <use xlink:href="#DejaVuSans-4f" x="808.203125"/>
     <use xlink:href="#DejaVuSans-4f" x="886.914062"/>
     <use xlink:href="#DejaVuSans-50" x="965.625"/>
     <use xlink:href="#DejaVuSans-20" x="1025.927734"/>
     <use xlink:href="#DejaVuSans-77" x="1057.714844"/>
     <use xlink:href="#DejaVuSans-69" x="1139.501953"/>
     <use xlink:href="#DejaVuSans-74" x="1167.285156"/>
     <use xlink:href="#DejaVuSans-68" x="1206.494141"/>
     <use xlink:href="#DejaVuSans-20" x="1269.873047"/>
     <use xlink:href="#DejaVuSans-73" x="1301.660156"/>
     <use xlink:href="#DejaVuSans-77" x="1353.759766"/>
     <use xlink:href="#DejaVuSans-31" x="1435.546875"/>
     <use xlink:href="#DejaVuSans-30" x="1499.169922"/>
     <use xlink:href="#DejaVuSans-2d" x="1562.792969"/>
     <use xlink:href="#DejaVuSans-31" x="1598.876953"/>
     <use xlink:href="#DejaVuSans-20" x="1662.5"/>
     <use xlink:href="#DejaVuSans-2d" x="1694.287109"/>
     <use xlink:href="#DejaVuSans-20" x="1730.371094"/>
     <use xlink:href="#DejaVuSans-32" x="1762.158203"/>
     <use xlink:href="#DejaVuSans-30" x="1825.78125"/>
     <use xlink:href="#DejaVuSans-32" x="1889.404297"/>
     <use xlink:href="#DejaVuSans-34" x="1953.027344"/>
     <use xlink:href="#DejaVuSans-30" x="2016.650391"/>
     <use xlink:href="#DejaVuSans-34" x="2080.273438"/>
     <use xlink:href="#DejaVuSans-30" x="2143.896484"/>
     <use xlink:href="#DejaVuSans-39" x="2207.519531"/>
     <use xlink:href="#DejaVuSans-31" x="2271.142578"/>
     <use xlink:href="#DejaVuSans-31" x="2334.765625"/>
     <use xlink:href="#DejaVuSans-33" x="2398.388672"/>
     <use xlink:href="#DejaVuSans-38" x="2462.011719"/>
     <use xlink:href="#DejaVuSans-34" x="2525.634766"/>
     <use xlink:href="#DejaVuSans-35" x="2589.257812"/>
     <use xlink:href="#DejaVuSans-20" x="2652.880859"/>
     <use xlink:href="#DejaVuSans-2d" x="2684.667969"/>
     <use xlink:href="#DejaVuSans-20" x="2720.751953"/>
     <use xlink:href="#DejaVuSans-35" x="2752.539062"/>
     <use xlink:href="#DejaVuSans-30" x="2816.162109"/>
     <use xlink:href="#DejaVuSans-20" x="2879.785156"/>
     <use xlink:href="#DejaVuSans-67" x="2911.572266"/>
     <use xlink:href="#DejaVuSans-61" x="2975.048828"/>
     <use xlink:href="#DejaVuSans-6d" x="3036.328125"/>
     <use xlink:href="#DejaVuSans-65" x="3133.740234"/>
     <use xlink:href="#DejaVuSans-73" x="3195.263672"/>
    </g>
   </g>
   <g id="legend_1">
    <g id="patch_7">
     <path d="M 54.81 298.64 
L 170.483438 298.64 
Q 172.483438 298.64 172.483438 296.64 
L 172.483438 268.28375 
Q 172.483438 266.28375 170.483438 266.28375 
L 54.81 266.28375 
Q 52.81 266.28375 52.81 268.28375 
L 52.81 296.64 
Q 52.81 298.64 54.81 298.64 
z
" style="fill: #ffffff; opacity: 0.8; stroke: #cccccc; stroke-linejoin: miter"/>
    </g>
    <g id="line2d_18">
     <path d="M 56.81 274.382187 
L 66.81 274.382187 
L 76.81 274.382187 
" style="fill: none; stroke: #0000ff; stroke-linecap: square"/>
     <g>
      <use xlink:href="#m64f724e121" x="66.81" y="274.382187" style="fill: #0000ff"/>
     </g>
    </g>
    <g id="text_16">
     <!-- LLM-COOP -->
     <g transform="translate(84.81 277.882187) scale(0.1 -0.1)">
      <use xlink:href="#DejaVuSans-4c"/>
      <use xlink:href="#DejaVuSans-4c" x="55.712891"/>
      <use xlink:href="#DejaVuSans-4d" x="111.425781"/>
      <use xlink:href="#DejaVuSans-2d" x="197.705078"/>
      <use xlink:href="#DejaVuSans-43" x="233.789062"/>
      <use xlink:href="#DejaVuSans-4f" x="303.613281"/>
      <use xlink:href="#DejaVuSans-4f" x="382.324219"/>
      <use xlink:href="#DejaVuSans-50" x="461.035156"/>
     </g>
    </g>
    <g id="line2d_19">
     <path d="M 56.81 289.060312 
L 66.81 289.060312 
L 76.81 289.060312 
" style="fill: none; stroke: #ff0000; stroke-opacity: 0.5; stroke-width: 0.5; stroke-linecap: square"/>
     <g>
      <use xlink:href="#mf897ee7c99" x="66.81" y="289.060312" style="fill: #ff0000; fill-opacity: 0.5"/>
     </g>
    </g>
    <g id="text_17">
     <!-- LLM-COOP mean -->
     <g transform="translate(84.81 292.560312) scale(0.1 -0.1)">
      <use xlink:href="#DejaVuSans-4c"/>
      <use xlink:href="#DejaVuSans-4c" x="55.712891"/>
      <use xlink:href="#DejaVuSans-4d" x="111.425781"/>
      <use xlink:href="#DejaVuSans-2d" x="197.705078"/>
      <use xlink:href="#DejaVuSans-43" x="233.789062"/>
      <use xlink:href="#DejaVuSans-4f" x="303.613281"/>
      <use xlink:href="#DejaVuSans-4f" x="382.324219"/>
      <use xlink:href="#DejaVuSans-50" x="461.035156"/>
      <use xlink:href="#DejaVuSans-20" x="521.337891"/>
      <use xlink:href="#DejaVuSans-6d" x="553.125"/>
      <use xlink:href="#DejaVuSans-65" x="650.537109"/>
      <use xlink:href="#DejaVuSans-61" x="712.060547"/>
      <use xlink:href="#DejaVuSans-6e" x="773.339844"/>
     </g>
    </g>
   </g>
  </g>
 </g>
 <defs>
  <clipPath id="p9e1a6aa607">
   <rect x="47.81" y="25.44" width="402.19" height="278.2"/>
  </clipPath>
 </defs>
</svg>
