<?xml version="1.0" encoding="utf-8" standalone="no"?>
<!DOCTYPE svg PUBLIC "-//W3C//DTD SVG 1.1//EN"
  "http://www.w3.org/Graphics/SVG/1.1/DTD/svg11.dtd">
<svg xmlns:xlink="http://www.w3.org/1999/xlink" width="460.8pt" height="345.6pt" viewBox="0 0 460.8 345.6" xmlns="http://www.w3.org/2000/svg" version="1.1">
 <metadata>
  <rdf:RDF xmlns:dc="http://purl.org/dc/elements/1.1/" xmlns:cc="http://creativecommons.org/ns#" xmlns:rdf="http://www.w3.org/1999/02/22-rdf-syntax-ns#">
   <cc:Work>
    <dc:type rdf:resource="http://purl.org/dc/dcmitype/StillImage"/>
    <dc:date>2024-04-10T11:15:14.620356</dc:date>
    <dc:format>image/svg+xml</dc:format>
    <dc:creator>
     <cc:Agent>
      <dc:title>Matplotlib v3.8.0, https://matplotlib.org/</dc:title>
     </cc:Agent>
    </dc:creator>
   </cc:Work>
  </rdf:RDF>
 </metadata>
 <defs>
  <style type="text/css">*{stroke-linejoin: round; stroke-linecap: butt}</style>
 </defs>
 <g id="figure_1">
  <g id="patch_1">
   <path d="M 0 345.6 
L 460.8 345.6 
L 460.8 0 
L 0 0 
z
" style="fill: #ffffff"/>
  </g>
  <g id="axes_1">
   <g id="patch_2">
    <path d="M 40.12 317.72 
L 450 317.72 
L 450 10.8 
L 40.12 10.8 
z
" style="fill: #ffffff"/>
   </g>
   <g id="PolyCollection_1">
    <defs>
     <path id="m086f68bef0" d="M 58.750909 -181.34 
L 58.750909 -181.34 
L 62.514729 -181.34 
L 66.278549 -181.34 
L 70.042369 -181.34 
L 73.806189 -181.34 
L 77.570009 -181.34 
L 81.333829 -181.34 
L 85.097649 -181.34 
L 88.861469 -181.34 
L 92.625289 -181.34 
L 96.389109 -181.34 
L 100.152929 -181.34 
L 103.916749 -181.34 
L 107.680569 -181.34 
L 111.444389 -181.34 
L 115.208209 -181.34 
L 118.972029 -181.34 
L 122.735849 -181.34 
L 126.499669 -181.34 
L 130.263489 -181.34 
L 134.027309 -181.34 
L 137.791129 -181.34 
L 141.554949 -181.34 
L 145.31877 -181.34 
L 149.08259 -181.34 
L 152.84641 -181.34 
L 156.61023 -181.34 
L 160.37405 -181.34 
L 164.13787 -181.34 
L 167.90169 -181.34 
L 171.66551 -181.34 
L 175.42933 -181.34 
L 179.19315 -181.34 
L 182.95697 -181.34 
L 186.72079 -181.34 
L 190.48461 -181.34 
L 194.24843 -181.34 
L 198.01225 -181.34 
L 201.77607 -181.34 
L 205.53989 -181.34 
L 209.30371 -181.34 
L 213.06753 -181.34 
L 216.83135 -181.34 
L 220.59517 -181.34 
L 224.35899 -181.34 
L 228.12281 -181.34 
L 231.88663 -181.34 
L 235.65045 -181.34 
L 239.41427 -181.34 
L 243.17809 -181.34 
L 246.94191 -181.34 
L 250.70573 -181.34 
L 254.46955 -181.34 
L 258.23337 -181.34 
L 261.99719 -181.34 
L 265.76101 -181.34 
L 269.52483 -181.34 
L 273.28865 -181.34 
L 277.05247 -181.34 
L 280.81629 -181.34 
L 284.58011 -181.34 
L 288.34393 -181.34 
L 292.10775 -181.34 
L 295.87157 -181.34 
L 299.63539 -181.34 
L 303.39921 -181.34 
L 307.16303 -181.34 
L 310.92685 -181.34 
L 314.69067 -181.34 
L 318.45449 -181.34 
L 322.21831 -181.34 
L 325.98213 -181.34 
L 329.74595 -181.34 
L 333.50977 -181.34 
L 337.27359 -181.34 
L 341.03741 -181.34 
L 344.80123 -181.34 
L 348.565051 -181.34 
L 352.328871 -181.34 
L 356.092691 -181.34 
L 359.856511 -181.34 
L 363.620331 -181.34 
L 367.384151 -181.34 
L 371.147971 -181.34 
L 374.911791 -181.34 
L 378.675611 -181.34 
L 382.439431 -181.34 
L 386.203251 -181.34 
L 389.967071 -181.34 
L 393.730891 -181.34 
L 397.494711 -181.34 
L 401.258531 -181.34 
L 405.022351 -181.34 
L 408.786171 -181.34 
L 412.549991 -181.34 
L 416.313811 -181.34 
L 420.077631 -181.34 
L 423.841451 -181.34 
L 427.605271 -181.34 
L 431.369091 -181.34 
L 431.369091 -181.34 
L 431.369091 -181.34 
L 427.605271 -181.34 
L 423.841451 -181.34 
L 420.077631 -181.34 
L 416.313811 -181.34 
L 412.549991 -181.34 
L 408.786171 -181.34 
L 405.022351 -181.34 
L 401.258531 -181.34 
L 397.494711 -181.34 
L 393.730891 -181.34 
L 389.967071 -181.34 
L 386.203251 -181.34 
L 382.439431 -181.34 
L 378.675611 -181.34 
L 374.911791 -181.34 
L 371.147971 -181.34 
L 367.384151 -181.34 
L 363.620331 -181.34 
L 359.856511 -181.34 
L 356.092691 -181.34 
L 352.328871 -181.34 
L 348.565051 -181.34 
L 344.80123 -181.34 
L 341.03741 -181.34 
L 337.27359 -181.34 
L 333.50977 -181.34 
L 329.74595 -181.34 
L 325.98213 -181.34 
L 322.21831 -181.34 
L 318.45449 -181.34 
L 314.69067 -181.34 
L 310.92685 -181.34 
L 307.16303 -181.34 
L 303.39921 -181.34 
L 299.63539 -181.34 
L 295.87157 -181.34 
L 292.10775 -181.34 
L 288.34393 -181.34 
L 284.58011 -181.34 
L 280.81629 -181.34 
L 277.05247 -181.34 
L 273.28865 -181.34 
L 269.52483 -181.34 
L 265.76101 -181.34 
L 261.99719 -181.34 
L 258.23337 -181.34 
L 254.46955 -181.34 
L 250.70573 -181.34 
L 246.94191 -181.34 
L 243.17809 -181.34 
L 239.41427 -181.34 
L 235.65045 -181.34 
L 231.88663 -181.34 
L 228.12281 -181.34 
L 224.35899 -181.34 
L 220.59517 -181.34 
L 216.83135 -181.34 
L 213.06753 -181.34 
L 209.30371 -181.34 
L 205.53989 -181.34 
L 201.77607 -181.34 
L 198.01225 -181.34 
L 194.24843 -181.34 
L 190.48461 -181.34 
L 186.72079 -181.34 
L 182.95697 -181.34 
L 179.19315 -181.34 
L 175.42933 -181.34 
L 171.66551 -181.34 
L 167.90169 -181.34 
L 164.13787 -181.34 
L 160.37405 -181.34 
L 156.61023 -181.34 
L 152.84641 -181.34 
L 149.08259 -181.34 
L 145.31877 -181.34 
L 141.554949 -181.34 
L 137.791129 -181.34 
L 134.027309 -181.34 
L 130.263489 -181.34 
L 126.499669 -181.34 
L 122.735849 -181.34 
L 118.972029 -181.34 
L 115.208209 -181.34 
L 111.444389 -181.34 
L 107.680569 -181.34 
L 103.916749 -181.34 
L 100.152929 -181.34 
L 96.389109 -181.34 
L 92.625289 -181.34 
L 88.861469 -181.34 
L 85.097649 -181.34 
L 81.333829 -181.34 
L 77.570009 -181.34 
L 73.806189 -181.34 
L 70.042369 -181.34 
L 66.278549 -181.34 
L 62.514729 -181.34 
L 58.750909 -181.34 
z
" style="stroke: #ff0000; stroke-opacity: 0.1"/>
    </defs>
    <g clip-path="url(#pa992105990)">
     <use xlink:href="#m086f68bef0" x="0" y="345.6" style="fill: #ff0000; fill-opacity: 0.1; stroke: #ff0000; stroke-opacity: 0.1"/>
    </g>
   </g>
   <g id="matplotlib.axis_1">
    <g id="xtick_1">
     <g id="line2d_1">
      <defs>
       <path id="mcafbac640a" d="M 0 0 
L 0 3.5 
" style="stroke: #000000; stroke-width: 0.8"/>
      </defs>
      <g>
       <use xlink:href="#mcafbac640a" x="58.750909" y="317.72" style="stroke: #000000; stroke-width: 0.8"/>
      </g>
     </g>
     <g id="text_1">
      <!-- 0 -->
      <g transform="translate(55.569659 332.318437) scale(0.1 -0.1)">
       <defs>
        <path id="DejaVuSans-30" d="M 2034 4250 
Q 1547 4250 1301 3770 
Q 1056 3291 1056 2328 
Q 1056 1369 1301 889 
Q 1547 409 2034 409 
Q 2525 409 2770 889 
Q 3016 1369 3016 2328 
Q 3016 3291 2770 3770 
Q 2525 4250 2034 4250 
z
M 2034 4750 
Q 2819 4750 3233 4129 
Q 3647 3509 3647 2328 
Q 3647 1150 3233 529 
Q 2819 -91 2034 -91 
Q 1250 -91 836 529 
Q 422 1150 422 2328 
Q 422 3509 836 4129 
Q 1250 4750 2034 4750 
z
" transform="scale(0.015625)"/>
       </defs>
       <use xlink:href="#DejaVuSans-30"/>
      </g>
     </g>
    </g>
    <g id="xtick_2">
     <g id="line2d_2">
      <g>
       <use xlink:href="#mcafbac640a" x="134.027309" y="317.72" style="stroke: #000000; stroke-width: 0.8"/>
      </g>
     </g>
     <g id="text_2">
      <!-- 20 -->
      <g transform="translate(127.664809 332.318437) scale(0.1 -0.1)">
       <defs>
        <path id="DejaVuSans-32" d="M 1228 531 
L 3431 531 
L 3431 0 
L 469 0 
L 469 531 
Q 828 903 1448 1529 
Q 2069 2156 2228 2338 
Q 2531 2678 2651 2914 
Q 2772 3150 2772 3378 
Q 2772 3750 2511 3984 
Q 2250 4219 1831 4219 
Q 1534 4219 1204 4116 
Q 875 4013 500 3803 
L 500 4441 
Q 881 4594 1212 4672 
Q 1544 4750 1819 4750 
Q 2544 4750 2975 4387 
Q 3406 4025 3406 3419 
Q 3406 3131 3298 2873 
Q 3191 2616 2906 2266 
Q 2828 2175 2409 1742 
Q 1991 1309 1228 531 
z
" transform="scale(0.015625)"/>
       </defs>
       <use xlink:href="#DejaVuSans-32"/>
       <use xlink:href="#DejaVuSans-30" x="63.623047"/>
      </g>
     </g>
    </g>
    <g id="xtick_3">
     <g id="line2d_3">
      <g>
       <use xlink:href="#mcafbac640a" x="209.30371" y="317.72" style="stroke: #000000; stroke-width: 0.8"/>
      </g>
     </g>
     <g id="text_3">
      <!-- 40 -->
      <g transform="translate(202.94121 332.318437) scale(0.1 -0.1)">
       <defs>
        <path id="DejaVuSans-34" d="M 2419 4116 
L 825 1625 
L 2419 1625 
L 2419 4116 
z
M 2253 4666 
L 3047 4666 
L 3047 1625 
L 3713 1625 
L 3713 1100 
L 3047 1100 
L 3047 0 
L 2419 0 
L 2419 1100 
L 313 1100 
L 313 1709 
L 2253 4666 
z
" transform="scale(0.015625)"/>
       </defs>
       <use xlink:href="#DejaVuSans-34"/>
       <use xlink:href="#DejaVuSans-30" x="63.623047"/>
      </g>
     </g>
    </g>
    <g id="xtick_4">
     <g id="line2d_4">
      <g>
       <use xlink:href="#mcafbac640a" x="284.58011" y="317.72" style="stroke: #000000; stroke-width: 0.8"/>
      </g>
     </g>
     <g id="text_4">
      <!-- 60 -->
      <g transform="translate(278.21761 332.318437) scale(0.1 -0.1)">
       <defs>
        <path id="DejaVuSans-36" d="M 2113 2584 
Q 1688 2584 1439 2293 
Q 1191 2003 1191 1497 
Q 1191 994 1439 701 
Q 1688 409 2113 409 
Q 2538 409 2786 701 
Q 3034 994 3034 1497 
Q 3034 2003 2786 2293 
Q 2538 2584 2113 2584 
z
M 3366 4563 
L 3366 3988 
Q 3128 4100 2886 4159 
Q 2644 4219 2406 4219 
Q 1781 4219 1451 3797 
Q 1122 3375 1075 2522 
Q 1259 2794 1537 2939 
Q 1816 3084 2150 3084 
Q 2853 3084 3261 2657 
Q 3669 2231 3669 1497 
Q 3669 778 3244 343 
Q 2819 -91 2113 -91 
Q 1303 -91 875 529 
Q 447 1150 447 2328 
Q 447 3434 972 4092 
Q 1497 4750 2381 4750 
Q 2619 4750 2861 4703 
Q 3103 4656 3366 4563 
z
" transform="scale(0.015625)"/>
       </defs>
       <use xlink:href="#DejaVuSans-36"/>
       <use xlink:href="#DejaVuSans-30" x="63.623047"/>
      </g>
     </g>
    </g>
    <g id="xtick_5">
     <g id="line2d_5">
      <g>
       <use xlink:href="#mcafbac640a" x="359.856511" y="317.72" style="stroke: #000000; stroke-width: 0.8"/>
      </g>
     </g>
     <g id="text_5">
      <!-- 80 -->
      <g transform="translate(353.494011 332.318437) scale(0.1 -0.1)">
       <defs>
        <path id="DejaVuSans-38" d="M 2034 2216 
Q 1584 2216 1326 1975 
Q 1069 1734 1069 1313 
Q 1069 891 1326 650 
Q 1584 409 2034 409 
Q 2484 409 2743 651 
Q 3003 894 3003 1313 
Q 3003 1734 2745 1975 
Q 2488 2216 2034 2216 
z
M 1403 2484 
Q 997 2584 770 2862 
Q 544 3141 544 3541 
Q 544 4100 942 4425 
Q 1341 4750 2034 4750 
Q 2731 4750 3128 4425 
Q 3525 4100 3525 3541 
Q 3525 3141 3298 2862 
Q 3072 2584 2669 2484 
Q 3125 2378 3379 2068 
Q 3634 1759 3634 1313 
Q 3634 634 3220 271 
Q 2806 -91 2034 -91 
Q 1263 -91 848 271 
Q 434 634 434 1313 
Q 434 1759 690 2068 
Q 947 2378 1403 2484 
z
M 1172 3481 
Q 1172 3119 1398 2916 
Q 1625 2713 2034 2713 
Q 2441 2713 2670 2916 
Q 2900 3119 2900 3481 
Q 2900 3844 2670 4047 
Q 2441 4250 2034 4250 
Q 1625 4250 1398 4047 
Q 1172 3844 1172 3481 
z
" transform="scale(0.015625)"/>
       </defs>
       <use xlink:href="#DejaVuSans-38"/>
       <use xlink:href="#DejaVuSans-30" x="63.623047"/>
      </g>
     </g>
    </g>
    <g id="xtick_6">
     <g id="line2d_6">
      <g>
       <use xlink:href="#mcafbac640a" x="435.132911" y="317.72" style="stroke: #000000; stroke-width: 0.8"/>
      </g>
     </g>
     <g id="text_6">
      <!-- 100 -->
      <g transform="translate(425.589161 332.318437) scale(0.1 -0.1)">
       <defs>
        <path id="DejaVuSans-31" d="M 794 531 
L 1825 531 
L 1825 4091 
L 703 3866 
L 703 4441 
L 1819 4666 
L 2450 4666 
L 2450 531 
L 3481 531 
L 3481 0 
L 794 0 
L 794 531 
z
" transform="scale(0.015625)"/>
       </defs>
       <use xlink:href="#DejaVuSans-31"/>
       <use xlink:href="#DejaVuSans-30" x="63.623047"/>
       <use xlink:href="#DejaVuSans-30" x="127.246094"/>
      </g>
     </g>
    </g>
   </g>
   <g id="matplotlib.axis_2">
    <g id="ytick_1">
     <g id="line2d_7">
      <defs>
       <path id="mf5de3936b6" d="M 0 0 
L -3.5 0 
" style="stroke: #000000; stroke-width: 0.8"/>
      </defs>
      <g>
       <use xlink:href="#mf5de3936b6" x="40.12" y="275.867273" style="stroke: #000000; stroke-width: 0.8"/>
      </g>
     </g>
     <g id="text_7">
      <!-- 0.96 -->
      <g transform="translate(10.854375 279.666491) scale(0.1 -0.1)">
       <defs>
        <path id="DejaVuSans-2e" d="M 684 794 
L 1344 794 
L 1344 0 
L 684 0 
L 684 794 
z
" transform="scale(0.015625)"/>
        <path id="DejaVuSans-39" d="M 703 97 
L 703 672 
Q 941 559 1184 500 
Q 1428 441 1663 441 
Q 2288 441 2617 861 
Q 2947 1281 2994 2138 
Q 2813 1869 2534 1725 
Q 2256 1581 1919 1581 
Q 1219 1581 811 2004 
Q 403 2428 403 3163 
Q 403 3881 828 4315 
Q 1253 4750 1959 4750 
Q 2769 4750 3195 4129 
Q 3622 3509 3622 2328 
Q 3622 1225 3098 567 
Q 2575 -91 1691 -91 
Q 1453 -91 1209 -44 
Q 966 3 703 97 
z
M 1959 2075 
Q 2384 2075 2632 2365 
Q 2881 2656 2881 3163 
Q 2881 3666 2632 3958 
Q 2384 4250 1959 4250 
Q 1534 4250 1286 3958 
Q 1038 3666 1038 3163 
Q 1038 2656 1286 2365 
Q 1534 2075 1959 2075 
z
" transform="scale(0.015625)"/>
       </defs>
       <use xlink:href="#DejaVuSans-30"/>
       <use xlink:href="#DejaVuSans-2e" x="63.623047"/>
       <use xlink:href="#DejaVuSans-39" x="95.410156"/>
       <use xlink:href="#DejaVuSans-36" x="159.033203"/>
      </g>
     </g>
    </g>
    <g id="ytick_2">
     <g id="line2d_8">
      <g>
       <use xlink:href="#mf5de3936b6" x="40.12" y="220.063636" style="stroke: #000000; stroke-width: 0.8"/>
      </g>
     </g>
     <g id="text_8">
      <!-- 0.98 -->
      <g transform="translate(10.854375 223.862855) scale(0.1 -0.1)">
       <use xlink:href="#DejaVuSans-30"/>
       <use xlink:href="#DejaVuSans-2e" x="63.623047"/>
       <use xlink:href="#DejaVuSans-39" x="95.410156"/>
       <use xlink:href="#DejaVuSans-38" x="159.033203"/>
      </g>
     </g>
    </g>
    <g id="ytick_3">
     <g id="line2d_9">
      <g>
       <use xlink:href="#mf5de3936b6" x="40.12" y="164.26" style="stroke: #000000; stroke-width: 0.8"/>
      </g>
     </g>
     <g id="text_9">
      <!-- 1.00 -->
      <g transform="translate(10.854375 168.059219) scale(0.1 -0.1)">
       <use xlink:href="#DejaVuSans-31"/>
       <use xlink:href="#DejaVuSans-2e" x="63.623047"/>
       <use xlink:href="#DejaVuSans-30" x="95.410156"/>
       <use xlink:href="#DejaVuSans-30" x="159.033203"/>
      </g>
     </g>
    </g>
    <g id="ytick_4">
     <g id="line2d_10">
      <g>
       <use xlink:href="#mf5de3936b6" x="40.12" y="108.456364" style="stroke: #000000; stroke-width: 0.8"/>
      </g>
     </g>
     <g id="text_10">
      <!-- 1.02 -->
      <g transform="translate(10.854375 112.255582) scale(0.1 -0.1)">
       <use xlink:href="#DejaVuSans-31"/>
       <use xlink:href="#DejaVuSans-2e" x="63.623047"/>
       <use xlink:href="#DejaVuSans-30" x="95.410156"/>
       <use xlink:href="#DejaVuSans-32" x="159.033203"/>
      </g>
     </g>
    </g>
    <g id="ytick_5">
     <g id="line2d_11">
      <g>
       <use xlink:href="#mf5de3936b6" x="40.12" y="52.652727" style="stroke: #000000; stroke-width: 0.8"/>
      </g>
     </g>
     <g id="text_11">
      <!-- 1.04 -->
      <g transform="translate(10.854375 56.451946) scale(0.1 -0.1)">
       <use xlink:href="#DejaVuSans-31"/>
       <use xlink:href="#DejaVuSans-2e" x="63.623047"/>
       <use xlink:href="#DejaVuSans-30" x="95.410156"/>
       <use xlink:href="#DejaVuSans-34" x="159.033203"/>
      </g>
     </g>
    </g>
   </g>
   <g id="line2d_12">
    <path d="M 58.750909 164.26 
L 62.514729 164.26 
L 66.278549 164.26 
L 70.042369 164.26 
L 73.806189 164.26 
L 77.570009 164.26 
L 81.333829 164.26 
L 85.097649 164.26 
L 88.861469 164.26 
L 92.625289 164.26 
L 96.389109 164.26 
L 100.152929 164.26 
L 103.916749 164.26 
L 107.680569 164.26 
L 111.444389 164.26 
L 115.208209 164.26 
L 118.972029 164.26 
L 122.735849 164.26 
L 126.499669 164.26 
L 130.263489 164.26 
L 134.027309 164.26 
L 137.791129 164.26 
L 141.554949 164.26 
L 145.31877 164.26 
L 149.08259 164.26 
L 152.84641 164.26 
L 156.61023 164.26 
L 160.37405 164.26 
L 164.13787 164.26 
L 167.90169 164.26 
L 171.66551 164.26 
L 175.42933 164.26 
L 179.19315 164.26 
L 182.95697 164.26 
L 186.72079 164.26 
L 190.48461 164.26 
L 194.24843 164.26 
L 198.01225 164.26 
L 201.77607 164.26 
L 205.53989 164.26 
L 209.30371 164.26 
L 213.06753 164.26 
L 216.83135 164.26 
L 220.59517 164.26 
L 224.35899 164.26 
L 228.12281 164.26 
L 231.88663 164.26 
L 235.65045 164.26 
L 239.41427 164.26 
L 243.17809 164.26 
L 246.94191 164.26 
L 250.70573 164.26 
L 254.46955 164.26 
L 258.23337 164.26 
L 261.99719 164.26 
L 265.76101 164.26 
L 269.52483 164.26 
L 273.28865 164.26 
L 277.05247 164.26 
L 280.81629 164.26 
L 284.58011 164.26 
L 288.34393 164.26 
L 292.10775 164.26 
L 295.87157 164.26 
L 299.63539 164.26 
L 303.39921 164.26 
L 307.16303 164.26 
L 310.92685 164.26 
L 314.69067 164.26 
L 318.45449 164.26 
L 322.21831 164.26 
L 325.98213 164.26 
L 329.74595 164.26 
L 333.50977 164.26 
L 337.27359 164.26 
L 341.03741 164.26 
L 344.80123 164.26 
L 348.565051 164.26 
L 352.328871 164.26 
L 356.092691 164.26 
L 359.856511 164.26 
L 363.620331 164.26 
L 367.384151 164.26 
L 371.147971 164.26 
L 374.911791 164.26 
L 378.675611 164.26 
L 382.439431 164.26 
L 386.203251 164.26 
L 389.967071 164.26 
L 393.730891 164.26 
L 397.494711 164.26 
L 401.258531 164.26 
L 405.022351 164.26 
L 408.786171 164.26 
L 412.549991 164.26 
L 416.313811 164.26 
L 420.077631 164.26 
L 423.841451 164.26 
L 427.605271 164.26 
L 431.369091 164.26 
" clip-path="url(#pa992105990)" style="fill: none; stroke: #ff0000; stroke-width: 0.5; stroke-linecap: square"/>
    <defs>
     <path id="mf39471b0f9" d="M -0.49999 0.49999 
L 0.50001 0.49999 
L 0.50001 -0.50001 
L -0.49999 -0.50001 
z
"/>
    </defs>
    <g clip-path="url(#pa992105990)">
     <use xlink:href="#mf39471b0f9" x="58.750909" y="164.26" style="fill: #ff0000"/>
     <use xlink:href="#mf39471b0f9" x="62.514729" y="164.26" style="fill: #ff0000"/>
     <use xlink:href="#mf39471b0f9" x="66.278549" y="164.26" style="fill: #ff0000"/>
     <use xlink:href="#mf39471b0f9" x="70.042369" y="164.26" style="fill: #ff0000"/>
     <use xlink:href="#mf39471b0f9" x="73.806189" y="164.26" style="fill: #ff0000"/>
     <use xlink:href="#mf39471b0f9" x="77.570009" y="164.26" style="fill: #ff0000"/>
     <use xlink:href="#mf39471b0f9" x="81.333829" y="164.26" style="fill: #ff0000"/>
     <use xlink:href="#mf39471b0f9" x="85.097649" y="164.26" style="fill: #ff0000"/>
     <use xlink:href="#mf39471b0f9" x="88.861469" y="164.26" style="fill: #ff0000"/>
     <use xlink:href="#mf39471b0f9" x="92.625289" y="164.26" style="fill: #ff0000"/>
     <use xlink:href="#mf39471b0f9" x="96.389109" y="164.26" style="fill: #ff0000"/>
     <use xlink:href="#mf39471b0f9" x="100.152929" y="164.26" style="fill: #ff0000"/>
     <use xlink:href="#mf39471b0f9" x="103.916749" y="164.26" style="fill: #ff0000"/>
     <use xlink:href="#mf39471b0f9" x="107.680569" y="164.26" style="fill: #ff0000"/>
     <use xlink:href="#mf39471b0f9" x="111.444389" y="164.26" style="fill: #ff0000"/>
     <use xlink:href="#mf39471b0f9" x="115.208209" y="164.26" style="fill: #ff0000"/>
     <use xlink:href="#mf39471b0f9" x="118.972029" y="164.26" style="fill: #ff0000"/>
     <use xlink:href="#mf39471b0f9" x="122.735849" y="164.26" style="fill: #ff0000"/>
     <use xlink:href="#mf39471b0f9" x="126.499669" y="164.26" style="fill: #ff0000"/>
     <use xlink:href="#mf39471b0f9" x="130.263489" y="164.26" style="fill: #ff0000"/>
     <use xlink:href="#mf39471b0f9" x="134.027309" y="164.26" style="fill: #ff0000"/>
     <use xlink:href="#mf39471b0f9" x="137.791129" y="164.26" style="fill: #ff0000"/>
     <use xlink:href="#mf39471b0f9" x="141.554949" y="164.26" style="fill: #ff0000"/>
     <use xlink:href="#mf39471b0f9" x="145.31877" y="164.26" style="fill: #ff0000"/>
     <use xlink:href="#mf39471b0f9" x="149.08259" y="164.26" style="fill: #ff0000"/>
     <use xlink:href="#mf39471b0f9" x="152.84641" y="164.26" style="fill: #ff0000"/>
     <use xlink:href="#mf39471b0f9" x="156.61023" y="164.26" style="fill: #ff0000"/>
     <use xlink:href="#mf39471b0f9" x="160.37405" y="164.26" style="fill: #ff0000"/>
     <use xlink:href="#mf39471b0f9" x="164.13787" y="164.26" style="fill: #ff0000"/>
     <use xlink:href="#mf39471b0f9" x="167.90169" y="164.26" style="fill: #ff0000"/>
     <use xlink:href="#mf39471b0f9" x="171.66551" y="164.26" style="fill: #ff0000"/>
     <use xlink:href="#mf39471b0f9" x="175.42933" y="164.26" style="fill: #ff0000"/>
     <use xlink:href="#mf39471b0f9" x="179.19315" y="164.26" style="fill: #ff0000"/>
     <use xlink:href="#mf39471b0f9" x="182.95697" y="164.26" style="fill: #ff0000"/>
     <use xlink:href="#mf39471b0f9" x="186.72079" y="164.26" style="fill: #ff0000"/>
     <use xlink:href="#mf39471b0f9" x="190.48461" y="164.26" style="fill: #ff0000"/>
     <use xlink:href="#mf39471b0f9" x="194.24843" y="164.26" style="fill: #ff0000"/>
     <use xlink:href="#mf39471b0f9" x="198.01225" y="164.26" style="fill: #ff0000"/>
     <use xlink:href="#mf39471b0f9" x="201.77607" y="164.26" style="fill: #ff0000"/>
     <use xlink:href="#mf39471b0f9" x="205.53989" y="164.26" style="fill: #ff0000"/>
     <use xlink:href="#mf39471b0f9" x="209.30371" y="164.26" style="fill: #ff0000"/>
     <use xlink:href="#mf39471b0f9" x="213.06753" y="164.26" style="fill: #ff0000"/>
     <use xlink:href="#mf39471b0f9" x="216.83135" y="164.26" style="fill: #ff0000"/>
     <use xlink:href="#mf39471b0f9" x="220.59517" y="164.26" style="fill: #ff0000"/>
     <use xlink:href="#mf39471b0f9" x="224.35899" y="164.26" style="fill: #ff0000"/>
     <use xlink:href="#mf39471b0f9" x="228.12281" y="164.26" style="fill: #ff0000"/>
     <use xlink:href="#mf39471b0f9" x="231.88663" y="164.26" style="fill: #ff0000"/>
     <use xlink:href="#mf39471b0f9" x="235.65045" y="164.26" style="fill: #ff0000"/>
     <use xlink:href="#mf39471b0f9" x="239.41427" y="164.26" style="fill: #ff0000"/>
     <use xlink:href="#mf39471b0f9" x="243.17809" y="164.26" style="fill: #ff0000"/>
     <use xlink:href="#mf39471b0f9" x="246.94191" y="164.26" style="fill: #ff0000"/>
     <use xlink:href="#mf39471b0f9" x="250.70573" y="164.26" style="fill: #ff0000"/>
     <use xlink:href="#mf39471b0f9" x="254.46955" y="164.26" style="fill: #ff0000"/>
     <use xlink:href="#mf39471b0f9" x="258.23337" y="164.26" style="fill: #ff0000"/>
     <use xlink:href="#mf39471b0f9" x="261.99719" y="164.26" style="fill: #ff0000"/>
     <use xlink:href="#mf39471b0f9" x="265.76101" y="164.26" style="fill: #ff0000"/>
     <use xlink:href="#mf39471b0f9" x="269.52483" y="164.26" style="fill: #ff0000"/>
     <use xlink:href="#mf39471b0f9" x="273.28865" y="164.26" style="fill: #ff0000"/>
     <use xlink:href="#mf39471b0f9" x="277.05247" y="164.26" style="fill: #ff0000"/>
     <use xlink:href="#mf39471b0f9" x="280.81629" y="164.26" style="fill: #ff0000"/>
     <use xlink:href="#mf39471b0f9" x="284.58011" y="164.26" style="fill: #ff0000"/>
     <use xlink:href="#mf39471b0f9" x="288.34393" y="164.26" style="fill: #ff0000"/>
     <use xlink:href="#mf39471b0f9" x="292.10775" y="164.26" style="fill: #ff0000"/>
     <use xlink:href="#mf39471b0f9" x="295.87157" y="164.26" style="fill: #ff0000"/>
     <use xlink:href="#mf39471b0f9" x="299.63539" y="164.26" style="fill: #ff0000"/>
     <use xlink:href="#mf39471b0f9" x="303.39921" y="164.26" style="fill: #ff0000"/>
     <use xlink:href="#mf39471b0f9" x="307.16303" y="164.26" style="fill: #ff0000"/>
     <use xlink:href="#mf39471b0f9" x="310.92685" y="164.26" style="fill: #ff0000"/>
     <use xlink:href="#mf39471b0f9" x="314.69067" y="164.26" style="fill: #ff0000"/>
     <use xlink:href="#mf39471b0f9" x="318.45449" y="164.26" style="fill: #ff0000"/>
     <use xlink:href="#mf39471b0f9" x="322.21831" y="164.26" style="fill: #ff0000"/>
     <use xlink:href="#mf39471b0f9" x="325.98213" y="164.26" style="fill: #ff0000"/>
     <use xlink:href="#mf39471b0f9" x="329.74595" y="164.26" style="fill: #ff0000"/>
     <use xlink:href="#mf39471b0f9" x="333.50977" y="164.26" style="fill: #ff0000"/>
     <use xlink:href="#mf39471b0f9" x="337.27359" y="164.26" style="fill: #ff0000"/>
     <use xlink:href="#mf39471b0f9" x="341.03741" y="164.26" style="fill: #ff0000"/>
     <use xlink:href="#mf39471b0f9" x="344.80123" y="164.26" style="fill: #ff0000"/>
     <use xlink:href="#mf39471b0f9" x="348.565051" y="164.26" style="fill: #ff0000"/>
     <use xlink:href="#mf39471b0f9" x="352.328871" y="164.26" style="fill: #ff0000"/>
     <use xlink:href="#mf39471b0f9" x="356.092691" y="164.26" style="fill: #ff0000"/>
     <use xlink:href="#mf39471b0f9" x="359.856511" y="164.26" style="fill: #ff0000"/>
     <use xlink:href="#mf39471b0f9" x="363.620331" y="164.26" style="fill: #ff0000"/>
     <use xlink:href="#mf39471b0f9" x="367.384151" y="164.26" style="fill: #ff0000"/>
     <use xlink:href="#mf39471b0f9" x="371.147971" y="164.26" style="fill: #ff0000"/>
     <use xlink:href="#mf39471b0f9" x="374.911791" y="164.26" style="fill: #ff0000"/>
     <use xlink:href="#mf39471b0f9" x="378.675611" y="164.26" style="fill: #ff0000"/>
     <use xlink:href="#mf39471b0f9" x="382.439431" y="164.26" style="fill: #ff0000"/>
     <use xlink:href="#mf39471b0f9" x="386.203251" y="164.26" style="fill: #ff0000"/>
     <use xlink:href="#mf39471b0f9" x="389.967071" y="164.26" style="fill: #ff0000"/>
     <use xlink:href="#mf39471b0f9" x="393.730891" y="164.26" style="fill: #ff0000"/>
     <use xlink:href="#mf39471b0f9" x="397.494711" y="164.26" style="fill: #ff0000"/>
     <use xlink:href="#mf39471b0f9" x="401.258531" y="164.26" style="fill: #ff0000"/>
     <use xlink:href="#mf39471b0f9" x="405.022351" y="164.26" style="fill: #ff0000"/>
     <use xlink:href="#mf39471b0f9" x="408.786171" y="164.26" style="fill: #ff0000"/>
     <use xlink:href="#mf39471b0f9" x="412.549991" y="164.26" style="fill: #ff0000"/>
     <use xlink:href="#mf39471b0f9" x="416.313811" y="164.26" style="fill: #ff0000"/>
     <use xlink:href="#mf39471b0f9" x="420.077631" y="164.26" style="fill: #ff0000"/>
     <use xlink:href="#mf39471b0f9" x="423.841451" y="164.26" style="fill: #ff0000"/>
     <use xlink:href="#mf39471b0f9" x="427.605271" y="164.26" style="fill: #ff0000"/>
     <use xlink:href="#mf39471b0f9" x="431.369091" y="164.26" style="fill: #ff0000"/>
    </g>
   </g>
   <g id="line2d_13">
    <path d="M 58.750909 164.26 
L 62.514729 164.26 
L 66.278549 164.26 
L 70.042369 164.26 
L 73.806189 164.26 
L 77.570009 164.26 
L 81.333829 164.26 
L 85.097649 164.26 
L 88.861469 164.26 
L 92.625289 164.26 
L 96.389109 164.26 
L 100.152929 164.26 
L 103.916749 164.26 
L 107.680569 164.26 
L 111.444389 164.26 
L 115.208209 164.26 
L 118.972029 164.26 
L 122.735849 164.26 
L 126.499669 164.26 
L 130.263489 164.26 
L 134.027309 164.26 
L 137.791129 164.26 
L 141.554949 164.26 
L 145.31877 164.26 
L 149.08259 164.26 
L 152.84641 164.26 
L 156.61023 164.26 
L 160.37405 164.26 
L 164.13787 164.26 
L 167.90169 164.26 
L 171.66551 164.26 
L 175.42933 164.26 
L 179.19315 164.26 
L 182.95697 164.26 
L 186.72079 164.26 
L 190.48461 164.26 
L 194.24843 164.26 
L 198.01225 164.26 
L 201.77607 164.26 
L 205.53989 164.26 
L 209.30371 164.26 
L 213.06753 164.26 
L 216.83135 164.26 
L 220.59517 164.26 
L 224.35899 164.26 
L 228.12281 164.26 
L 231.88663 164.26 
L 235.65045 164.26 
L 239.41427 164.26 
L 243.17809 164.26 
L 246.94191 164.26 
L 250.70573 164.26 
L 254.46955 164.26 
L 258.23337 164.26 
L 261.99719 164.26 
L 265.76101 164.26 
L 269.52483 164.26 
L 273.28865 164.26 
L 277.05247 164.26 
L 280.81629 164.26 
L 284.58011 164.26 
L 288.34393 164.26 
L 292.10775 164.26 
L 295.87157 164.26 
L 299.63539 164.26 
L 303.39921 164.26 
L 307.16303 164.26 
L 310.92685 164.26 
L 314.69067 164.26 
L 318.45449 164.26 
L 322.21831 164.26 
L 325.98213 164.26 
L 329.74595 164.26 
L 333.50977 164.26 
L 337.27359 164.26 
L 341.03741 164.26 
L 344.80123 164.26 
L 348.565051 164.26 
L 352.328871 164.26 
L 356.092691 164.26 
L 359.856511 164.26 
L 363.620331 164.26 
L 367.384151 164.26 
L 371.147971 164.26 
L 374.911791 164.26 
L 378.675611 164.26 
L 382.439431 164.26 
L 386.203251 164.26 
L 389.967071 164.26 
L 393.730891 164.26 
L 397.494711 164.26 
L 401.258531 164.26 
L 405.022351 164.26 
L 408.786171 164.26 
L 412.549991 164.26 
L 416.313811 164.26 
L 420.077631 164.26 
L 423.841451 164.26 
L 427.605271 164.26 
L 431.369091 164.26 
" clip-path="url(#pa992105990)" style="fill: none; stroke: #ff0000; stroke-opacity: 0.5; stroke-width: 0.25; stroke-linecap: square"/>
    <defs>
     <path id="mfbd91a3708" d="M -0.49999 0.49999 
L 0.50001 0.49999 
L 0.50001 -0.50001 
L -0.49999 -0.50001 
z
"/>
    </defs>
    <g clip-path="url(#pa992105990)">
     <use xlink:href="#mfbd91a3708" x="58.750909" y="164.26" style="fill: #ff0000; fill-opacity: 0.5"/>
     <use xlink:href="#mfbd91a3708" x="62.514729" y="164.26" style="fill: #ff0000; fill-opacity: 0.5"/>
     <use xlink:href="#mfbd91a3708" x="66.278549" y="164.26" style="fill: #ff0000; fill-opacity: 0.5"/>
     <use xlink:href="#mfbd91a3708" x="70.042369" y="164.26" style="fill: #ff0000; fill-opacity: 0.5"/>
     <use xlink:href="#mfbd91a3708" x="73.806189" y="164.26" style="fill: #ff0000; fill-opacity: 0.5"/>
     <use xlink:href="#mfbd91a3708" x="77.570009" y="164.26" style="fill: #ff0000; fill-opacity: 0.5"/>
     <use xlink:href="#mfbd91a3708" x="81.333829" y="164.26" style="fill: #ff0000; fill-opacity: 0.5"/>
     <use xlink:href="#mfbd91a3708" x="85.097649" y="164.26" style="fill: #ff0000; fill-opacity: 0.5"/>
     <use xlink:href="#mfbd91a3708" x="88.861469" y="164.26" style="fill: #ff0000; fill-opacity: 0.5"/>
     <use xlink:href="#mfbd91a3708" x="92.625289" y="164.26" style="fill: #ff0000; fill-opacity: 0.5"/>
     <use xlink:href="#mfbd91a3708" x="96.389109" y="164.26" style="fill: #ff0000; fill-opacity: 0.5"/>
     <use xlink:href="#mfbd91a3708" x="100.152929" y="164.26" style="fill: #ff0000; fill-opacity: 0.5"/>
     <use xlink:href="#mfbd91a3708" x="103.916749" y="164.26" style="fill: #ff0000; fill-opacity: 0.5"/>
     <use xlink:href="#mfbd91a3708" x="107.680569" y="164.26" style="fill: #ff0000; fill-opacity: 0.5"/>
     <use xlink:href="#mfbd91a3708" x="111.444389" y="164.26" style="fill: #ff0000; fill-opacity: 0.5"/>
     <use xlink:href="#mfbd91a3708" x="115.208209" y="164.26" style="fill: #ff0000; fill-opacity: 0.5"/>
     <use xlink:href="#mfbd91a3708" x="118.972029" y="164.26" style="fill: #ff0000; fill-opacity: 0.5"/>
     <use xlink:href="#mfbd91a3708" x="122.735849" y="164.26" style="fill: #ff0000; fill-opacity: 0.5"/>
     <use xlink:href="#mfbd91a3708" x="126.499669" y="164.26" style="fill: #ff0000; fill-opacity: 0.5"/>
     <use xlink:href="#mfbd91a3708" x="130.263489" y="164.26" style="fill: #ff0000; fill-opacity: 0.5"/>
     <use xlink:href="#mfbd91a3708" x="134.027309" y="164.26" style="fill: #ff0000; fill-opacity: 0.5"/>
     <use xlink:href="#mfbd91a3708" x="137.791129" y="164.26" style="fill: #ff0000; fill-opacity: 0.5"/>
     <use xlink:href="#mfbd91a3708" x="141.554949" y="164.26" style="fill: #ff0000; fill-opacity: 0.5"/>
     <use xlink:href="#mfbd91a3708" x="145.31877" y="164.26" style="fill: #ff0000; fill-opacity: 0.5"/>
     <use xlink:href="#mfbd91a3708" x="149.08259" y="164.26" style="fill: #ff0000; fill-opacity: 0.5"/>
     <use xlink:href="#mfbd91a3708" x="152.84641" y="164.26" style="fill: #ff0000; fill-opacity: 0.5"/>
     <use xlink:href="#mfbd91a3708" x="156.61023" y="164.26" style="fill: #ff0000; fill-opacity: 0.5"/>
     <use xlink:href="#mfbd91a3708" x="160.37405" y="164.26" style="fill: #ff0000; fill-opacity: 0.5"/>
     <use xlink:href="#mfbd91a3708" x="164.13787" y="164.26" style="fill: #ff0000; fill-opacity: 0.5"/>
     <use xlink:href="#mfbd91a3708" x="167.90169" y="164.26" style="fill: #ff0000; fill-opacity: 0.5"/>
     <use xlink:href="#mfbd91a3708" x="171.66551" y="164.26" style="fill: #ff0000; fill-opacity: 0.5"/>
     <use xlink:href="#mfbd91a3708" x="175.42933" y="164.26" style="fill: #ff0000; fill-opacity: 0.5"/>
     <use xlink:href="#mfbd91a3708" x="179.19315" y="164.26" style="fill: #ff0000; fill-opacity: 0.5"/>
     <use xlink:href="#mfbd91a3708" x="182.95697" y="164.26" style="fill: #ff0000; fill-opacity: 0.5"/>
     <use xlink:href="#mfbd91a3708" x="186.72079" y="164.26" style="fill: #ff0000; fill-opacity: 0.5"/>
     <use xlink:href="#mfbd91a3708" x="190.48461" y="164.26" style="fill: #ff0000; fill-opacity: 0.5"/>
     <use xlink:href="#mfbd91a3708" x="194.24843" y="164.26" style="fill: #ff0000; fill-opacity: 0.5"/>
     <use xlink:href="#mfbd91a3708" x="198.01225" y="164.26" style="fill: #ff0000; fill-opacity: 0.5"/>
     <use xlink:href="#mfbd91a3708" x="201.77607" y="164.26" style="fill: #ff0000; fill-opacity: 0.5"/>
     <use xlink:href="#mfbd91a3708" x="205.53989" y="164.26" style="fill: #ff0000; fill-opacity: 0.5"/>
     <use xlink:href="#mfbd91a3708" x="209.30371" y="164.26" style="fill: #ff0000; fill-opacity: 0.5"/>
     <use xlink:href="#mfbd91a3708" x="213.06753" y="164.26" style="fill: #ff0000; fill-opacity: 0.5"/>
     <use xlink:href="#mfbd91a3708" x="216.83135" y="164.26" style="fill: #ff0000; fill-opacity: 0.5"/>
     <use xlink:href="#mfbd91a3708" x="220.59517" y="164.26" style="fill: #ff0000; fill-opacity: 0.5"/>
     <use xlink:href="#mfbd91a3708" x="224.35899" y="164.26" style="fill: #ff0000; fill-opacity: 0.5"/>
     <use xlink:href="#mfbd91a3708" x="228.12281" y="164.26" style="fill: #ff0000; fill-opacity: 0.5"/>
     <use xlink:href="#mfbd91a3708" x="231.88663" y="164.26" style="fill: #ff0000; fill-opacity: 0.5"/>
     <use xlink:href="#mfbd91a3708" x="235.65045" y="164.26" style="fill: #ff0000; fill-opacity: 0.5"/>
     <use xlink:href="#mfbd91a3708" x="239.41427" y="164.26" style="fill: #ff0000; fill-opacity: 0.5"/>
     <use xlink:href="#mfbd91a3708" x="243.17809" y="164.26" style="fill: #ff0000; fill-opacity: 0.5"/>
     <use xlink:href="#mfbd91a3708" x="246.94191" y="164.26" style="fill: #ff0000; fill-opacity: 0.5"/>
     <use xlink:href="#mfbd91a3708" x="250.70573" y="164.26" style="fill: #ff0000; fill-opacity: 0.5"/>
     <use xlink:href="#mfbd91a3708" x="254.46955" y="164.26" style="fill: #ff0000; fill-opacity: 0.5"/>
     <use xlink:href="#mfbd91a3708" x="258.23337" y="164.26" style="fill: #ff0000; fill-opacity: 0.5"/>
     <use xlink:href="#mfbd91a3708" x="261.99719" y="164.26" style="fill: #ff0000; fill-opacity: 0.5"/>
     <use xlink:href="#mfbd91a3708" x="265.76101" y="164.26" style="fill: #ff0000; fill-opacity: 0.5"/>
     <use xlink:href="#mfbd91a3708" x="269.52483" y="164.26" style="fill: #ff0000; fill-opacity: 0.5"/>
     <use xlink:href="#mfbd91a3708" x="273.28865" y="164.26" style="fill: #ff0000; fill-opacity: 0.5"/>
     <use xlink:href="#mfbd91a3708" x="277.05247" y="164.26" style="fill: #ff0000; fill-opacity: 0.5"/>
     <use xlink:href="#mfbd91a3708" x="280.81629" y="164.26" style="fill: #ff0000; fill-opacity: 0.5"/>
     <use xlink:href="#mfbd91a3708" x="284.58011" y="164.26" style="fill: #ff0000; fill-opacity: 0.5"/>
     <use xlink:href="#mfbd91a3708" x="288.34393" y="164.26" style="fill: #ff0000; fill-opacity: 0.5"/>
     <use xlink:href="#mfbd91a3708" x="292.10775" y="164.26" style="fill: #ff0000; fill-opacity: 0.5"/>
     <use xlink:href="#mfbd91a3708" x="295.87157" y="164.26" style="fill: #ff0000; fill-opacity: 0.5"/>
     <use xlink:href="#mfbd91a3708" x="299.63539" y="164.26" style="fill: #ff0000; fill-opacity: 0.5"/>
     <use xlink:href="#mfbd91a3708" x="303.39921" y="164.26" style="fill: #ff0000; fill-opacity: 0.5"/>
     <use xlink:href="#mfbd91a3708" x="307.16303" y="164.26" style="fill: #ff0000; fill-opacity: 0.5"/>
     <use xlink:href="#mfbd91a3708" x="310.92685" y="164.26" style="fill: #ff0000; fill-opacity: 0.5"/>
     <use xlink:href="#mfbd91a3708" x="314.69067" y="164.26" style="fill: #ff0000; fill-opacity: 0.5"/>
     <use xlink:href="#mfbd91a3708" x="318.45449" y="164.26" style="fill: #ff0000; fill-opacity: 0.5"/>
     <use xlink:href="#mfbd91a3708" x="322.21831" y="164.26" style="fill: #ff0000; fill-opacity: 0.5"/>
     <use xlink:href="#mfbd91a3708" x="325.98213" y="164.26" style="fill: #ff0000; fill-opacity: 0.5"/>
     <use xlink:href="#mfbd91a3708" x="329.74595" y="164.26" style="fill: #ff0000; fill-opacity: 0.5"/>
     <use xlink:href="#mfbd91a3708" x="333.50977" y="164.26" style="fill: #ff0000; fill-opacity: 0.5"/>
     <use xlink:href="#mfbd91a3708" x="337.27359" y="164.26" style="fill: #ff0000; fill-opacity: 0.5"/>
     <use xlink:href="#mfbd91a3708" x="341.03741" y="164.26" style="fill: #ff0000; fill-opacity: 0.5"/>
     <use xlink:href="#mfbd91a3708" x="344.80123" y="164.26" style="fill: #ff0000; fill-opacity: 0.5"/>
     <use xlink:href="#mfbd91a3708" x="348.565051" y="164.26" style="fill: #ff0000; fill-opacity: 0.5"/>
     <use xlink:href="#mfbd91a3708" x="352.328871" y="164.26" style="fill: #ff0000; fill-opacity: 0.5"/>
     <use xlink:href="#mfbd91a3708" x="356.092691" y="164.26" style="fill: #ff0000; fill-opacity: 0.5"/>
     <use xlink:href="#mfbd91a3708" x="359.856511" y="164.26" style="fill: #ff0000; fill-opacity: 0.5"/>
     <use xlink:href="#mfbd91a3708" x="363.620331" y="164.26" style="fill: #ff0000; fill-opacity: 0.5"/>
     <use xlink:href="#mfbd91a3708" x="367.384151" y="164.26" style="fill: #ff0000; fill-opacity: 0.5"/>
     <use xlink:href="#mfbd91a3708" x="371.147971" y="164.26" style="fill: #ff0000; fill-opacity: 0.5"/>
     <use xlink:href="#mfbd91a3708" x="374.911791" y="164.26" style="fill: #ff0000; fill-opacity: 0.5"/>
     <use xlink:href="#mfbd91a3708" x="378.675611" y="164.26" style="fill: #ff0000; fill-opacity: 0.5"/>
     <use xlink:href="#mfbd91a3708" x="382.439431" y="164.26" style="fill: #ff0000; fill-opacity: 0.5"/>
     <use xlink:href="#mfbd91a3708" x="386.203251" y="164.26" style="fill: #ff0000; fill-opacity: 0.5"/>
     <use xlink:href="#mfbd91a3708" x="389.967071" y="164.26" style="fill: #ff0000; fill-opacity: 0.5"/>
     <use xlink:href="#mfbd91a3708" x="393.730891" y="164.26" style="fill: #ff0000; fill-opacity: 0.5"/>
     <use xlink:href="#mfbd91a3708" x="397.494711" y="164.26" style="fill: #ff0000; fill-opacity: 0.5"/>
     <use xlink:href="#mfbd91a3708" x="401.258531" y="164.26" style="fill: #ff0000; fill-opacity: 0.5"/>
     <use xlink:href="#mfbd91a3708" x="405.022351" y="164.26" style="fill: #ff0000; fill-opacity: 0.5"/>
     <use xlink:href="#mfbd91a3708" x="408.786171" y="164.26" style="fill: #ff0000; fill-opacity: 0.5"/>
     <use xlink:href="#mfbd91a3708" x="412.549991" y="164.26" style="fill: #ff0000; fill-opacity: 0.5"/>
     <use xlink:href="#mfbd91a3708" x="416.313811" y="164.26" style="fill: #ff0000; fill-opacity: 0.5"/>
     <use xlink:href="#mfbd91a3708" x="420.077631" y="164.26" style="fill: #ff0000; fill-opacity: 0.5"/>
     <use xlink:href="#mfbd91a3708" x="423.841451" y="164.26" style="fill: #ff0000; fill-opacity: 0.5"/>
     <use xlink:href="#mfbd91a3708" x="427.605271" y="164.26" style="fill: #ff0000; fill-opacity: 0.5"/>
     <use xlink:href="#mfbd91a3708" x="431.369091" y="164.26" style="fill: #ff0000; fill-opacity: 0.5"/>
    </g>
   </g>
   <g id="patch_3">
    <path d="M 40.12 317.72 
L 40.12 10.8 
" style="fill: none; stroke: #000000; stroke-width: 0.8; stroke-linejoin: miter; stroke-linecap: square"/>
   </g>
   <g id="patch_4">
    <path d="M 450 317.72 
L 450 10.8 
" style="fill: none; stroke: #000000; stroke-width: 0.8; stroke-linejoin: miter; stroke-linecap: square"/>
   </g>
   <g id="patch_5">
    <path d="M 40.12 317.72 
L 450 317.72 
" style="fill: none; stroke: #000000; stroke-width: 0.8; stroke-linejoin: miter; stroke-linecap: square"/>
   </g>
   <g id="patch_6">
    <path d="M 40.12 10.8 
L 450 10.8 
" style="fill: none; stroke: #000000; stroke-width: 0.8; stroke-linejoin: miter; stroke-linecap: square"/>
   </g>
   <g id="legend_1">
    <g id="patch_7">
     <path d="M 350.70625 48.15625 
L 443 48.15625 
Q 445 48.15625 445 46.15625 
L 445 17.8 
Q 445 15.8 443 15.8 
L 350.70625 15.8 
Q 348.70625 15.8 348.70625 17.8 
L 348.70625 46.15625 
Q 348.70625 48.15625 350.70625 48.15625 
z
" style="fill: #ffffff; opacity: 0.8; stroke: #cccccc; stroke-linejoin: miter"/>
    </g>
    <g id="line2d_14">
     <path d="M 352.70625 23.898438 
L 362.70625 23.898438 
L 372.70625 23.898438 
" style="fill: none; stroke: #ff0000; stroke-width: 0.5; stroke-linecap: square"/>
     <g>
      <use xlink:href="#mf39471b0f9" x="362.70625" y="23.898438" style="fill: #ff0000"/>
     </g>
    </g>
    <g id="text_12">
     <!-- COOP -->
     <g transform="translate(380.70625 27.398438) scale(0.1 -0.1)">
      <defs>
       <path id="DejaVuSans-43" d="M 4122 4306 
L 4122 3641 
Q 3803 3938 3442 4084 
Q 3081 4231 2675 4231 
Q 1875 4231 1450 3742 
Q 1025 3253 1025 2328 
Q 1025 1406 1450 917 
Q 1875 428 2675 428 
Q 3081 428 3442 575 
Q 3803 722 4122 1019 
L 4122 359 
Q 3791 134 3420 21 
Q 3050 -91 2638 -91 
Q 1578 -91 968 557 
Q 359 1206 359 2328 
Q 359 3453 968 4101 
Q 1578 4750 2638 4750 
Q 3056 4750 3426 4639 
Q 3797 4528 4122 4306 
z
" transform="scale(0.015625)"/>
       <path id="DejaVuSans-4f" d="M 2522 4238 
Q 1834 4238 1429 3725 
Q 1025 3213 1025 2328 
Q 1025 1447 1429 934 
Q 1834 422 2522 422 
Q 3209 422 3611 934 
Q 4013 1447 4013 2328 
Q 4013 3213 3611 3725 
Q 3209 4238 2522 4238 
z
M 2522 4750 
Q 3503 4750 4090 4092 
Q 4678 3434 4678 2328 
Q 4678 1225 4090 567 
Q 3503 -91 2522 -91 
Q 1538 -91 948 565 
Q 359 1222 359 2328 
Q 359 3434 948 4092 
Q 1538 4750 2522 4750 
z
" transform="scale(0.015625)"/>
       <path id="DejaVuSans-50" d="M 1259 4147 
L 1259 2394 
L 2053 2394 
Q 2494 2394 2734 2622 
Q 2975 2850 2975 3272 
Q 2975 3691 2734 3919 
Q 2494 4147 2053 4147 
L 1259 4147 
z
M 628 4666 
L 2053 4666 
Q 2838 4666 3239 4311 
Q 3641 3956 3641 3272 
Q 3641 2581 3239 2228 
Q 2838 1875 2053 1875 
L 1259 1875 
L 1259 0 
L 628 0 
L 628 4666 
z
" transform="scale(0.015625)"/>
      </defs>
      <use xlink:href="#DejaVuSans-43"/>
      <use xlink:href="#DejaVuSans-4f" x="69.824219"/>
      <use xlink:href="#DejaVuSans-4f" x="148.535156"/>
      <use xlink:href="#DejaVuSans-50" x="227.246094"/>
     </g>
    </g>
    <g id="line2d_15">
     <path d="M 352.70625 38.576563 
L 362.70625 38.576563 
L 372.70625 38.576563 
" style="fill: none; stroke: #ff0000; stroke-opacity: 0.5; stroke-width: 0.25; stroke-linecap: square"/>
     <g>
      <use xlink:href="#mfbd91a3708" x="362.70625" y="38.576563" style="fill: #ff0000; fill-opacity: 0.5"/>
     </g>
    </g>
    <g id="text_13">
     <!-- COOP mean -->
     <g transform="translate(380.70625 42.076563) scale(0.1 -0.1)">
      <defs>
       <path id="DejaVuSans-20" transform="scale(0.015625)"/>
       <path id="DejaVuSans-6d" d="M 3328 2828 
Q 3544 3216 3844 3400 
Q 4144 3584 4550 3584 
Q 5097 3584 5394 3201 
Q 5691 2819 5691 2113 
L 5691 0 
L 5113 0 
L 5113 2094 
Q 5113 2597 4934 2840 
Q 4756 3084 4391 3084 
Q 3944 3084 3684 2787 
Q 3425 2491 3425 1978 
L 3425 0 
L 2847 0 
L 2847 2094 
Q 2847 2600 2669 2842 
Q 2491 3084 2119 3084 
Q 1678 3084 1418 2786 
Q 1159 2488 1159 1978 
L 1159 0 
L 581 0 
L 581 3500 
L 1159 3500 
L 1159 2956 
Q 1356 3278 1631 3431 
Q 1906 3584 2284 3584 
Q 2666 3584 2933 3390 
Q 3200 3197 3328 2828 
z
" transform="scale(0.015625)"/>
       <path id="DejaVuSans-65" d="M 3597 1894 
L 3597 1613 
L 953 1613 
Q 991 1019 1311 708 
Q 1631 397 2203 397 
Q 2534 397 2845 478 
Q 3156 559 3463 722 
L 3463 178 
Q 3153 47 2828 -22 
Q 2503 -91 2169 -91 
Q 1331 -91 842 396 
Q 353 884 353 1716 
Q 353 2575 817 3079 
Q 1281 3584 2069 3584 
Q 2775 3584 3186 3129 
Q 3597 2675 3597 1894 
z
M 3022 2063 
Q 3016 2534 2758 2815 
Q 2500 3097 2075 3097 
Q 1594 3097 1305 2825 
Q 1016 2553 972 2059 
L 3022 2063 
z
" transform="scale(0.015625)"/>
       <path id="DejaVuSans-61" d="M 2194 1759 
Q 1497 1759 1228 1600 
Q 959 1441 959 1056 
Q 959 750 1161 570 
Q 1363 391 1709 391 
Q 2188 391 2477 730 
Q 2766 1069 2766 1631 
L 2766 1759 
L 2194 1759 
z
M 3341 1997 
L 3341 0 
L 2766 0 
L 2766 531 
Q 2569 213 2275 61 
Q 1981 -91 1556 -91 
Q 1019 -91 701 211 
Q 384 513 384 1019 
Q 384 1609 779 1909 
Q 1175 2209 1959 2209 
L 2766 2209 
L 2766 2266 
Q 2766 2663 2505 2880 
Q 2244 3097 1772 3097 
Q 1472 3097 1187 3025 
Q 903 2953 641 2809 
L 641 3341 
Q 956 3463 1253 3523 
Q 1550 3584 1831 3584 
Q 2591 3584 2966 3190 
Q 3341 2797 3341 1997 
z
" transform="scale(0.015625)"/>
       <path id="DejaVuSans-6e" d="M 3513 2113 
L 3513 0 
L 2938 0 
L 2938 2094 
Q 2938 2591 2744 2837 
Q 2550 3084 2163 3084 
Q 1697 3084 1428 2787 
Q 1159 2491 1159 1978 
L 1159 0 
L 581 0 
L 581 3500 
L 1159 3500 
L 1159 2956 
Q 1366 3272 1645 3428 
Q 1925 3584 2291 3584 
Q 2894 3584 3203 3211 
Q 3513 2838 3513 2113 
z
" transform="scale(0.015625)"/>
      </defs>
      <use xlink:href="#DejaVuSans-43"/>
      <use xlink:href="#DejaVuSans-4f" x="69.824219"/>
      <use xlink:href="#DejaVuSans-4f" x="148.535156"/>
      <use xlink:href="#DejaVuSans-50" x="227.246094"/>
      <use xlink:href="#DejaVuSans-20" x="287.548828"/>
      <use xlink:href="#DejaVuSans-6d" x="319.335938"/>
      <use xlink:href="#DejaVuSans-65" x="416.748047"/>
      <use xlink:href="#DejaVuSans-61" x="478.271484"/>
      <use xlink:href="#DejaVuSans-6e" x="539.550781"/>
     </g>
    </g>
   </g>
  </g>
 </g>
 <defs>
  <clipPath id="pa992105990">
   <rect x="40.12" y="10.8" width="409.88" height="306.92"/>
  </clipPath>
 </defs>
</svg>
