<?xml version="1.0" encoding="utf-8" standalone="no"?>
<!DOCTYPE svg PUBLIC "-//W3C//DTD SVG 1.1//EN"
  "http://www.w3.org/Graphics/SVG/1.1/DTD/svg11.dtd">
<svg xmlns:xlink="http://www.w3.org/1999/xlink" width="460.8pt" height="345.6pt" viewBox="0 0 460.8 345.6" xmlns="http://www.w3.org/2000/svg" version="1.1">
 <metadata>
  <rdf:RDF xmlns:dc="http://purl.org/dc/elements/1.1/" xmlns:cc="http://creativecommons.org/ns#" xmlns:rdf="http://www.w3.org/1999/02/22-rdf-syntax-ns#">
   <cc:Work>
    <dc:type rdf:resource="http://purl.org/dc/dcmitype/StillImage"/>
    <dc:date>2024-04-15T10:04:53.306177</dc:date>
    <dc:format>image/svg+xml</dc:format>
    <dc:creator>
     <cc:Agent>
      <dc:title>Matplotlib v3.8.0, https://matplotlib.org/</dc:title>
     </cc:Agent>
    </dc:creator>
   </cc:Work>
  </rdf:RDF>
 </metadata>
 <defs>
  <style type="text/css">*{stroke-linejoin: round; stroke-linecap: butt}</style>
 </defs>
 <g id="figure_1">
  <g id="patch_1">
   <path d="M 0 345.6 
L 460.8 345.6 
L 460.8 0 
L 0 0 
z
" style="fill: #ffffff"/>
  </g>
  <g id="axes_1">
   <g id="patch_2">
    <path d="M 56.18 303.64 
L 450 303.64 
L 450 25.44 
L 56.18 25.44 
z
" style="fill: #ffffff"/>
   </g>
   <g id="PolyCollection_1">
    <defs>
     <path id="m307caa92a2" d="M 74.080909 -280.456785 
L 74.080909 -280.456785 
L 77.697254 -307.514545 
L 81.3136 -269.776877 
L 84.929945 -242.774136 
L 88.54629 -223.364756 
L 92.162635 -208.793079 
L 95.778981 -198.155513 
L 99.395326 -189.54973 
L 103.011671 -182.551321 
L 106.628017 -176.956574 
L 110.244362 -173.324567 
L 113.860707 -169.018234 
L 117.477052 -165.447946 
L 121.093398 -161.979305 
L 124.709743 -158.888626 
L 128.326088 -156.114404 
L 131.942433 -153.748719 
L 135.558779 -151.928771 
L 139.175124 -149.830507 
L 142.791469 -147.904113 
L 146.407815 -146.249008 
L 150.02416 -144.852361 
L 153.640505 -143.428204 
L 157.25685 -142.226779 
L 160.873196 -141.24075 
L 164.489541 -140.070592 
L 168.105886 -139.083946 
L 171.722231 -138.047064 
L 175.338577 -137.17459 
L 178.954922 -136.349895 
L 182.571267 -135.469665 
L 186.187612 -134.731484 
L 189.803958 -134.259472 
L 193.420303 -133.495188 
L 197.036648 -133.07296 
L 200.652994 -132.667887 
L 204.269339 -132.074257 
L 207.885684 -131.357575 
L 211.502029 -130.81686 
L 215.118375 -130.220528 
L 218.73472 -129.724152 
L 222.351065 -129.110277 
L 225.96741 -128.654224 
L 229.583756 -128.501934 
L 233.200101 -128.247437 
L 236.816446 -127.909633 
L 240.432792 -127.505517 
L 244.049137 -127.115035 
L 247.665482 -126.812126 
L 251.281827 -126.698383 
L 254.898173 -126.279063 
L 258.514518 -126.083565 
L 262.130863 -125.687011 
L 265.747208 -125.427152 
L 269.363554 -124.97248 
L 272.979899 -124.609685 
L 276.596244 -124.21289 
L 280.21259 -123.827024 
L 283.828935 -123.548861 
L 287.44528 -123.278142 
L 291.061625 -122.920545 
L 294.677971 -122.572164 
L 298.294316 -122.324942 
L 301.910661 -122.083894 
L 305.527006 -121.759389 
L 309.143352 -121.442744 
L 312.759697 -121.103988 
L 316.376042 -120.77284 
L 319.992388 -120.449037 
L 323.608733 -120.200381 
L 327.225078 -119.957413 
L 330.841423 -119.719922 
L 334.457769 -119.422251 
L 338.074114 -119.195957 
L 341.690459 -118.937916 
L 345.306804 -118.820894 
L 348.92315 -118.608176 
L 352.539495 -118.364605 
L 356.15584 -118.125984 
L 359.772185 -117.892154 
L 363.388531 -117.697413 
L 367.004876 -117.659696 
L 370.621221 -117.437693 
L 374.237567 -117.344512 
L 377.853912 -117.129961 
L 381.470257 -116.992398 
L 385.086602 -116.785214 
L 388.702948 -116.822011 
L 392.319293 -116.62063 
L 395.935638 -116.594442 
L 399.551983 -116.568022 
L 403.168329 -116.541393 
L 406.784674 -116.379634 
L 410.401019 -116.302012 
L 414.017365 -116.277344 
L 417.63371 -116.201199 
L 421.250055 -116.126048 
L 424.8664 -116.05187 
L 428.482746 -115.856543 
L 432.099091 -115.957123 
L 432.099091 -74.7124 
L 432.099091 -74.7124 
L 428.482746 -74.512257 
L 424.8664 -74.575639 
L 421.250055 -74.43899 
L 417.63371 -74.300067 
L 414.017365 -74.158806 
L 410.401019 -73.983405 
L 406.784674 -73.836947 
L 403.168329 -73.776985 
L 399.551983 -73.593358 
L 395.935638 -73.406452 
L 392.319293 -73.216172 
L 388.702948 -73.206876 
L 385.086602 -72.985119 
L 381.470257 -72.973715 
L 377.853912 -72.850233 
L 374.237567 -72.838621 
L 370.621221 -72.667078 
L 367.004876 -72.654484 
L 363.388531 -72.440335 
L 359.772185 -72.361676 
L 356.15584 -72.347093 
L 352.539495 -72.333341 
L 348.92315 -72.32048 
L 345.306804 -72.240359 
L 341.690459 -72.048325 
L 338.074114 -72.034244 
L 334.457769 -71.950127 
L 330.841423 -72.018526 
L 327.225078 -71.934376 
L 323.608733 -71.849129 
L 319.992388 -71.762768 
L 316.376042 -71.838913 
L 312.759697 -71.919652 
L 309.143352 -72.005265 
L 305.527006 -72.004231 
L 301.910661 -72.005199 
L 298.294316 -71.848595 
L 294.677971 -71.688539 
L 291.061625 -71.689788 
L 287.44528 -71.693475 
L 283.828935 -71.527881 
L 280.21259 -71.358469 
L 276.596244 -71.362992 
L 272.979899 -71.37053 
L 269.363554 -71.282807 
L 265.747208 -71.406653 
L 262.130863 -71.149561 
L 258.514518 -71.060416 
L 254.898173 -70.718622 
L 251.281827 -70.62223 
L 247.665482 -70.198233 
L 244.049137 -69.902056 
L 240.432792 -69.687061 
L 236.816446 -69.466061 
L 233.200101 -69.143558 
L 229.583756 -68.725103 
L 225.96741 -68.217091 
L 222.351065 -67.953945 
L 218.73472 -67.928629 
L 215.118375 -67.654343 
L 211.502029 -67.494514 
L 207.885684 -67.204908 
L 204.269339 -67.180908 
L 200.652994 -66.878554 
L 197.036648 -66.328947 
L 193.420303 -65.753682 
L 189.803958 -65.546902 
L 186.187612 -64.924929 
L 182.571267 -64.537948 
L 178.954922 -64.296263 
L 175.338577 -63.881118 
L 171.722231 -63.447448 
L 168.105886 -63.175132 
L 164.489541 -62.707326 
L 160.873196 -62.414236 
L 157.25685 -61.718532 
L 153.640505 -61.176937 
L 150.02416 -60.832503 
L 146.407815 -60.241363 
L 142.791469 -59.868214 
L 139.175124 -59.775454 
L 135.558779 -59.714562 
L 131.942433 -58.774387 
L 128.326088 -58.388194 
L 124.709743 -58.38526 
L 121.093398 -58.461767 
L 117.477052 -58.64757 
L 113.860707 -58.021142 
L 110.244362 -57.913729 
L 106.628017 -55.361445 
L 103.011671 -54.605455 
L 99.395326 -54.645237 
L 95.778981 -55.088556 
L 92.162635 -55.196801 
L 88.54629 -60.420036 
L 84.929945 -66.744042 
L 81.3136 -85.269601 
L 77.697254 -122.752601 
L 74.080909 -280.456785 
z
" style="stroke: #0000ff; stroke-opacity: 0.2"/>
    </defs>
    <g clip-path="url(#pced6d9520c)">
     <use xlink:href="#m307caa92a2" x="0" y="345.6" style="fill: #0000ff; fill-opacity: 0.2; stroke: #0000ff; stroke-opacity: 0.2"/>
    </g>
   </g>
   <g id="PolyCollection_2">
    <defs>
     <path id="mc5d405b6ca" d="M 74.080909 -82.507658 
L 74.080909 -82.507658 
L 77.697254 -82.507658 
L 81.3136 -82.507658 
L 84.929945 -82.507658 
L 88.54629 -82.507658 
L 92.162635 -82.507658 
L 95.778981 -82.507658 
L 99.395326 -82.507658 
L 103.011671 -82.507658 
L 106.628017 -82.507658 
L 110.244362 -82.507658 
L 113.860707 -82.507658 
L 117.477052 -82.507658 
L 121.093398 -82.507658 
L 124.709743 -82.507658 
L 128.326088 -82.507658 
L 131.942433 -82.507658 
L 135.558779 -82.507658 
L 139.175124 -82.507658 
L 142.791469 -82.507658 
L 146.407815 -82.507658 
L 150.02416 -82.507658 
L 153.640505 -82.507658 
L 157.25685 -82.507658 
L 160.873196 -82.507658 
L 164.489541 -82.507658 
L 168.105886 -82.507658 
L 171.722231 -82.507658 
L 175.338577 -82.507658 
L 178.954922 -82.507658 
L 182.571267 -82.507658 
L 186.187612 -82.507658 
L 189.803958 -82.507658 
L 193.420303 -82.507658 
L 197.036648 -82.507658 
L 200.652994 -82.507658 
L 204.269339 -82.507658 
L 207.885684 -82.507658 
L 211.502029 -82.507658 
L 215.118375 -82.507658 
L 218.73472 -82.507658 
L 222.351065 -82.507658 
L 225.96741 -82.507658 
L 229.583756 -82.507658 
L 233.200101 -82.507658 
L 236.816446 -82.507658 
L 240.432792 -82.507658 
L 244.049137 -82.507658 
L 247.665482 -82.507658 
L 251.281827 -82.507658 
L 254.898173 -82.507658 
L 258.514518 -82.507658 
L 262.130863 -82.507658 
L 265.747208 -82.507658 
L 269.363554 -82.507658 
L 272.979899 -82.507658 
L 276.596244 -82.507658 
L 280.21259 -82.507658 
L 283.828935 -82.507658 
L 287.44528 -82.507658 
L 291.061625 -82.507658 
L 294.677971 -82.507658 
L 298.294316 -82.507658 
L 301.910661 -82.507658 
L 305.527006 -82.507658 
L 309.143352 -82.507658 
L 312.759697 -82.507658 
L 316.376042 -82.507658 
L 319.992388 -82.507658 
L 323.608733 -82.507658 
L 327.225078 -82.507658 
L 330.841423 -82.507658 
L 334.457769 -82.507658 
L 338.074114 -82.507658 
L 341.690459 -82.507658 
L 345.306804 -82.507658 
L 348.92315 -82.507658 
L 352.539495 -82.507658 
L 356.15584 -82.507658 
L 359.772185 -82.507658 
L 363.388531 -82.507658 
L 367.004876 -82.507658 
L 370.621221 -82.507658 
L 374.237567 -82.507658 
L 377.853912 -82.507658 
L 381.470257 -82.507658 
L 385.086602 -82.507658 
L 388.702948 -82.507658 
L 392.319293 -82.507658 
L 395.935638 -82.507658 
L 399.551983 -82.507658 
L 403.168329 -82.507658 
L 406.784674 -82.507658 
L 410.401019 -82.507658 
L 414.017365 -82.507658 
L 417.63371 -82.507658 
L 421.250055 -82.507658 
L 424.8664 -82.507658 
L 428.482746 -82.507658 
L 432.099091 -82.507658 
L 432.099091 -82.507658 
L 432.099091 -82.507658 
L 428.482746 -82.507658 
L 424.8664 -82.507658 
L 421.250055 -82.507658 
L 417.63371 -82.507658 
L 414.017365 -82.507658 
L 410.401019 -82.507658 
L 406.784674 -82.507658 
L 403.168329 -82.507658 
L 399.551983 -82.507658 
L 395.935638 -82.507658 
L 392.319293 -82.507658 
L 388.702948 -82.507658 
L 385.086602 -82.507658 
L 381.470257 -82.507658 
L 377.853912 -82.507658 
L 374.237567 -82.507658 
L 370.621221 -82.507658 
L 367.004876 -82.507658 
L 363.388531 -82.507658 
L 359.772185 -82.507658 
L 356.15584 -82.507658 
L 352.539495 -82.507658 
L 348.92315 -82.507658 
L 345.306804 -82.507658 
L 341.690459 -82.507658 
L 338.074114 -82.507658 
L 334.457769 -82.507658 
L 330.841423 -82.507658 
L 327.225078 -82.507658 
L 323.608733 -82.507658 
L 319.992388 -82.507658 
L 316.376042 -82.507658 
L 312.759697 -82.507658 
L 309.143352 -82.507658 
L 305.527006 -82.507658 
L 301.910661 -82.507658 
L 298.294316 -82.507658 
L 294.677971 -82.507658 
L 291.061625 -82.507658 
L 287.44528 -82.507658 
L 283.828935 -82.507658 
L 280.21259 -82.507658 
L 276.596244 -82.507658 
L 272.979899 -82.507658 
L 269.363554 -82.507658 
L 265.747208 -82.507658 
L 262.130863 -82.507658 
L 258.514518 -82.507658 
L 254.898173 -82.507658 
L 251.281827 -82.507658 
L 247.665482 -82.507658 
L 244.049137 -82.507658 
L 240.432792 -82.507658 
L 236.816446 -82.507658 
L 233.200101 -82.507658 
L 229.583756 -82.507658 
L 225.96741 -82.507658 
L 222.351065 -82.507658 
L 218.73472 -82.507658 
L 215.118375 -82.507658 
L 211.502029 -82.507658 
L 207.885684 -82.507658 
L 204.269339 -82.507658 
L 200.652994 -82.507658 
L 197.036648 -82.507658 
L 193.420303 -82.507658 
L 189.803958 -82.507658 
L 186.187612 -82.507658 
L 182.571267 -82.507658 
L 178.954922 -82.507658 
L 175.338577 -82.507658 
L 171.722231 -82.507658 
L 168.105886 -82.507658 
L 164.489541 -82.507658 
L 160.873196 -82.507658 
L 157.25685 -82.507658 
L 153.640505 -82.507658 
L 150.02416 -82.507658 
L 146.407815 -82.507658 
L 142.791469 -82.507658 
L 139.175124 -82.507658 
L 135.558779 -82.507658 
L 131.942433 -82.507658 
L 128.326088 -82.507658 
L 124.709743 -82.507658 
L 121.093398 -82.507658 
L 117.477052 -82.507658 
L 113.860707 -82.507658 
L 110.244362 -82.507658 
L 106.628017 -82.507658 
L 103.011671 -82.507658 
L 99.395326 -82.507658 
L 95.778981 -82.507658 
L 92.162635 -82.507658 
L 88.54629 -82.507658 
L 84.929945 -82.507658 
L 81.3136 -82.507658 
L 77.697254 -82.507658 
L 74.080909 -82.507658 
z
" style="stroke: #ff0000; stroke-opacity: 0.1"/>
    </defs>
    <g clip-path="url(#pced6d9520c)">
     <use xlink:href="#mc5d405b6ca" x="0" y="345.6" style="fill: #ff0000; fill-opacity: 0.1; stroke: #ff0000; stroke-opacity: 0.1"/>
    </g>
   </g>
   <g id="matplotlib.axis_1">
    <g id="xtick_1">
     <g id="line2d_1">
      <defs>
       <path id="m6f35dd68cd" d="M 0 0 
L 0 3.5 
" style="stroke: #000000; stroke-width: 0.8"/>
      </defs>
      <g>
       <use xlink:href="#m6f35dd68cd" x="74.080909" y="303.64" style="stroke: #000000; stroke-width: 0.8"/>
      </g>
     </g>
     <g id="text_1">
      <!-- 0 -->
      <g transform="translate(70.899659 318.238437) scale(0.1 -0.1)">
       <defs>
        <path id="DejaVuSans-30" d="M 2034 4250 
Q 1547 4250 1301 3770 
Q 1056 3291 1056 2328 
Q 1056 1369 1301 889 
Q 1547 409 2034 409 
Q 2525 409 2770 889 
Q 3016 1369 3016 2328 
Q 3016 3291 2770 3770 
Q 2525 4250 2034 4250 
z
M 2034 4750 
Q 2819 4750 3233 4129 
Q 3647 3509 3647 2328 
Q 3647 1150 3233 529 
Q 2819 -91 2034 -91 
Q 1250 -91 836 529 
Q 422 1150 422 2328 
Q 422 3509 836 4129 
Q 1250 4750 2034 4750 
z
" transform="scale(0.015625)"/>
       </defs>
       <use xlink:href="#DejaVuSans-30"/>
      </g>
     </g>
    </g>
    <g id="xtick_2">
     <g id="line2d_2">
      <g>
       <use xlink:href="#m6f35dd68cd" x="146.407815" y="303.64" style="stroke: #000000; stroke-width: 0.8"/>
      </g>
     </g>
     <g id="text_2">
      <!-- 20 -->
      <g transform="translate(140.045315 318.238437) scale(0.1 -0.1)">
       <defs>
        <path id="DejaVuSans-32" d="M 1228 531 
L 3431 531 
L 3431 0 
L 469 0 
L 469 531 
Q 828 903 1448 1529 
Q 2069 2156 2228 2338 
Q 2531 2678 2651 2914 
Q 2772 3150 2772 3378 
Q 2772 3750 2511 3984 
Q 2250 4219 1831 4219 
Q 1534 4219 1204 4116 
Q 875 4013 500 3803 
L 500 4441 
Q 881 4594 1212 4672 
Q 1544 4750 1819 4750 
Q 2544 4750 2975 4387 
Q 3406 4025 3406 3419 
Q 3406 3131 3298 2873 
Q 3191 2616 2906 2266 
Q 2828 2175 2409 1742 
Q 1991 1309 1228 531 
z
" transform="scale(0.015625)"/>
       </defs>
       <use xlink:href="#DejaVuSans-32"/>
       <use xlink:href="#DejaVuSans-30" x="63.623047"/>
      </g>
     </g>
    </g>
    <g id="xtick_3">
     <g id="line2d_3">
      <g>
       <use xlink:href="#m6f35dd68cd" x="218.73472" y="303.64" style="stroke: #000000; stroke-width: 0.8"/>
      </g>
     </g>
     <g id="text_3">
      <!-- 40 -->
      <g transform="translate(212.37222 318.238437) scale(0.1 -0.1)">
       <defs>
        <path id="DejaVuSans-34" d="M 2419 4116 
L 825 1625 
L 2419 1625 
L 2419 4116 
z
M 2253 4666 
L 3047 4666 
L 3047 1625 
L 3713 1625 
L 3713 1100 
L 3047 1100 
L 3047 0 
L 2419 0 
L 2419 1100 
L 313 1100 
L 313 1709 
L 2253 4666 
z
" transform="scale(0.015625)"/>
       </defs>
       <use xlink:href="#DejaVuSans-34"/>
       <use xlink:href="#DejaVuSans-30" x="63.623047"/>
      </g>
     </g>
    </g>
    <g id="xtick_4">
     <g id="line2d_4">
      <g>
       <use xlink:href="#m6f35dd68cd" x="291.061625" y="303.64" style="stroke: #000000; stroke-width: 0.8"/>
      </g>
     </g>
     <g id="text_4">
      <!-- 60 -->
      <g transform="translate(284.699125 318.238437) scale(0.1 -0.1)">
       <defs>
        <path id="DejaVuSans-36" d="M 2113 2584 
Q 1688 2584 1439 2293 
Q 1191 2003 1191 1497 
Q 1191 994 1439 701 
Q 1688 409 2113 409 
Q 2538 409 2786 701 
Q 3034 994 3034 1497 
Q 3034 2003 2786 2293 
Q 2538 2584 2113 2584 
z
M 3366 4563 
L 3366 3988 
Q 3128 4100 2886 4159 
Q 2644 4219 2406 4219 
Q 1781 4219 1451 3797 
Q 1122 3375 1075 2522 
Q 1259 2794 1537 2939 
Q 1816 3084 2150 3084 
Q 2853 3084 3261 2657 
Q 3669 2231 3669 1497 
Q 3669 778 3244 343 
Q 2819 -91 2113 -91 
Q 1303 -91 875 529 
Q 447 1150 447 2328 
Q 447 3434 972 4092 
Q 1497 4750 2381 4750 
Q 2619 4750 2861 4703 
Q 3103 4656 3366 4563 
z
" transform="scale(0.015625)"/>
       </defs>
       <use xlink:href="#DejaVuSans-36"/>
       <use xlink:href="#DejaVuSans-30" x="63.623047"/>
      </g>
     </g>
    </g>
    <g id="xtick_5">
     <g id="line2d_5">
      <g>
       <use xlink:href="#m6f35dd68cd" x="363.388531" y="303.64" style="stroke: #000000; stroke-width: 0.8"/>
      </g>
     </g>
     <g id="text_5">
      <!-- 80 -->
      <g transform="translate(357.026031 318.238437) scale(0.1 -0.1)">
       <defs>
        <path id="DejaVuSans-38" d="M 2034 2216 
Q 1584 2216 1326 1975 
Q 1069 1734 1069 1313 
Q 1069 891 1326 650 
Q 1584 409 2034 409 
Q 2484 409 2743 651 
Q 3003 894 3003 1313 
Q 3003 1734 2745 1975 
Q 2488 2216 2034 2216 
z
M 1403 2484 
Q 997 2584 770 2862 
Q 544 3141 544 3541 
Q 544 4100 942 4425 
Q 1341 4750 2034 4750 
Q 2731 4750 3128 4425 
Q 3525 4100 3525 3541 
Q 3525 3141 3298 2862 
Q 3072 2584 2669 2484 
Q 3125 2378 3379 2068 
Q 3634 1759 3634 1313 
Q 3634 634 3220 271 
Q 2806 -91 2034 -91 
Q 1263 -91 848 271 
Q 434 634 434 1313 
Q 434 1759 690 2068 
Q 947 2378 1403 2484 
z
M 1172 3481 
Q 1172 3119 1398 2916 
Q 1625 2713 2034 2713 
Q 2441 2713 2670 2916 
Q 2900 3119 2900 3481 
Q 2900 3844 2670 4047 
Q 2441 4250 2034 4250 
Q 1625 4250 1398 4047 
Q 1172 3844 1172 3481 
z
" transform="scale(0.015625)"/>
       </defs>
       <use xlink:href="#DejaVuSans-38"/>
       <use xlink:href="#DejaVuSans-30" x="63.623047"/>
      </g>
     </g>
    </g>
    <g id="xtick_6">
     <g id="line2d_6">
      <g>
       <use xlink:href="#m6f35dd68cd" x="435.715436" y="303.64" style="stroke: #000000; stroke-width: 0.8"/>
      </g>
     </g>
     <g id="text_6">
      <!-- 100 -->
      <g transform="translate(426.171686 318.238437) scale(0.1 -0.1)">
       <defs>
        <path id="DejaVuSans-31" d="M 794 531 
L 1825 531 
L 1825 4091 
L 703 3866 
L 703 4441 
L 1819 4666 
L 2450 4666 
L 2450 531 
L 3481 531 
L 3481 0 
L 794 0 
L 794 531 
z
" transform="scale(0.015625)"/>
       </defs>
       <use xlink:href="#DejaVuSans-31"/>
       <use xlink:href="#DejaVuSans-30" x="63.623047"/>
       <use xlink:href="#DejaVuSans-30" x="127.246094"/>
      </g>
     </g>
    </g>
    <g id="text_7">
     <!-- Iteration -->
     <g transform="translate(231.881406 331.916562) scale(0.1 -0.1)">
      <defs>
       <path id="DejaVuSans-49" d="M 628 4666 
L 1259 4666 
L 1259 0 
L 628 0 
L 628 4666 
z
" transform="scale(0.015625)"/>
       <path id="DejaVuSans-74" d="M 1172 4494 
L 1172 3500 
L 2356 3500 
L 2356 3053 
L 1172 3053 
L 1172 1153 
Q 1172 725 1289 603 
Q 1406 481 1766 481 
L 2356 481 
L 2356 0 
L 1766 0 
Q 1100 0 847 248 
Q 594 497 594 1153 
L 594 3053 
L 172 3053 
L 172 3500 
L 594 3500 
L 594 4494 
L 1172 4494 
z
" transform="scale(0.015625)"/>
       <path id="DejaVuSans-65" d="M 3597 1894 
L 3597 1613 
L 953 1613 
Q 991 1019 1311 708 
Q 1631 397 2203 397 
Q 2534 397 2845 478 
Q 3156 559 3463 722 
L 3463 178 
Q 3153 47 2828 -22 
Q 2503 -91 2169 -91 
Q 1331 -91 842 396 
Q 353 884 353 1716 
Q 353 2575 817 3079 
Q 1281 3584 2069 3584 
Q 2775 3584 3186 3129 
Q 3597 2675 3597 1894 
z
M 3022 2063 
Q 3016 2534 2758 2815 
Q 2500 3097 2075 3097 
Q 1594 3097 1305 2825 
Q 1016 2553 972 2059 
L 3022 2063 
z
" transform="scale(0.015625)"/>
       <path id="DejaVuSans-72" d="M 2631 2963 
Q 2534 3019 2420 3045 
Q 2306 3072 2169 3072 
Q 1681 3072 1420 2755 
Q 1159 2438 1159 1844 
L 1159 0 
L 581 0 
L 581 3500 
L 1159 3500 
L 1159 2956 
Q 1341 3275 1631 3429 
Q 1922 3584 2338 3584 
Q 2397 3584 2469 3576 
Q 2541 3569 2628 3553 
L 2631 2963 
z
" transform="scale(0.015625)"/>
       <path id="DejaVuSans-61" d="M 2194 1759 
Q 1497 1759 1228 1600 
Q 959 1441 959 1056 
Q 959 750 1161 570 
Q 1363 391 1709 391 
Q 2188 391 2477 730 
Q 2766 1069 2766 1631 
L 2766 1759 
L 2194 1759 
z
M 3341 1997 
L 3341 0 
L 2766 0 
L 2766 531 
Q 2569 213 2275 61 
Q 1981 -91 1556 -91 
Q 1019 -91 701 211 
Q 384 513 384 1019 
Q 384 1609 779 1909 
Q 1175 2209 1959 2209 
L 2766 2209 
L 2766 2266 
Q 2766 2663 2505 2880 
Q 2244 3097 1772 3097 
Q 1472 3097 1187 3025 
Q 903 2953 641 2809 
L 641 3341 
Q 956 3463 1253 3523 
Q 1550 3584 1831 3584 
Q 2591 3584 2966 3190 
Q 3341 2797 3341 1997 
z
" transform="scale(0.015625)"/>
       <path id="DejaVuSans-69" d="M 603 3500 
L 1178 3500 
L 1178 0 
L 603 0 
L 603 3500 
z
M 603 4863 
L 1178 4863 
L 1178 4134 
L 603 4134 
L 603 4863 
z
" transform="scale(0.015625)"/>
       <path id="DejaVuSans-6f" d="M 1959 3097 
Q 1497 3097 1228 2736 
Q 959 2375 959 1747 
Q 959 1119 1226 758 
Q 1494 397 1959 397 
Q 2419 397 2687 759 
Q 2956 1122 2956 1747 
Q 2956 2369 2687 2733 
Q 2419 3097 1959 3097 
z
M 1959 3584 
Q 2709 3584 3137 3096 
Q 3566 2609 3566 1747 
Q 3566 888 3137 398 
Q 2709 -91 1959 -91 
Q 1206 -91 779 398 
Q 353 888 353 1747 
Q 353 2609 779 3096 
Q 1206 3584 1959 3584 
z
" transform="scale(0.015625)"/>
       <path id="DejaVuSans-6e" d="M 3513 2113 
L 3513 0 
L 2938 0 
L 2938 2094 
Q 2938 2591 2744 2837 
Q 2550 3084 2163 3084 
Q 1697 3084 1428 2787 
Q 1159 2491 1159 1978 
L 1159 0 
L 581 0 
L 581 3500 
L 1159 3500 
L 1159 2956 
Q 1366 3272 1645 3428 
Q 1925 3584 2291 3584 
Q 2894 3584 3203 3211 
Q 3513 2838 3513 2113 
z
" transform="scale(0.015625)"/>
      </defs>
      <use xlink:href="#DejaVuSans-49"/>
      <use xlink:href="#DejaVuSans-74" x="29.492188"/>
      <use xlink:href="#DejaVuSans-65" x="68.701172"/>
      <use xlink:href="#DejaVuSans-72" x="130.224609"/>
      <use xlink:href="#DejaVuSans-61" x="171.337891"/>
      <use xlink:href="#DejaVuSans-74" x="232.617188"/>
      <use xlink:href="#DejaVuSans-69" x="271.826172"/>
      <use xlink:href="#DejaVuSans-6f" x="299.609375"/>
      <use xlink:href="#DejaVuSans-6e" x="360.791016"/>
     </g>
    </g>
   </g>
   <g id="matplotlib.axis_2">
    <g id="ytick_1">
     <g id="line2d_7">
      <defs>
       <path id="m7d1bc22631" d="M 0 0 
L -3.5 0 
" style="stroke: #000000; stroke-width: 0.8"/>
      </defs>
      <g>
       <use xlink:href="#m7d1bc22631" x="56.18" y="302.682168" style="stroke: #000000; stroke-width: 0.8"/>
      </g>
     </g>
     <g id="text_8">
      <!-- −0.2 -->
      <g transform="translate(24.897188 306.481386) scale(0.1 -0.1)">
       <defs>
        <path id="DejaVuSans-2212" d="M 678 2272 
L 4684 2272 
L 4684 1741 
L 678 1741 
L 678 2272 
z
" transform="scale(0.015625)"/>
        <path id="DejaVuSans-2e" d="M 684 794 
L 1344 794 
L 1344 0 
L 684 0 
L 684 794 
z
" transform="scale(0.015625)"/>
       </defs>
       <use xlink:href="#DejaVuSans-2212"/>
       <use xlink:href="#DejaVuSans-30" x="83.789062"/>
       <use xlink:href="#DejaVuSans-2e" x="147.412109"/>
       <use xlink:href="#DejaVuSans-32" x="179.199219"/>
      </g>
     </g>
    </g>
    <g id="ytick_2">
     <g id="line2d_8">
      <g>
       <use xlink:href="#m7d1bc22631" x="56.18" y="263.092342" style="stroke: #000000; stroke-width: 0.8"/>
      </g>
     </g>
     <g id="text_9">
      <!-- 0.0 -->
      <g transform="translate(33.276875 266.891561) scale(0.1 -0.1)">
       <use xlink:href="#DejaVuSans-30"/>
       <use xlink:href="#DejaVuSans-2e" x="63.623047"/>
       <use xlink:href="#DejaVuSans-30" x="95.410156"/>
      </g>
     </g>
    </g>
    <g id="ytick_3">
     <g id="line2d_9">
      <g>
       <use xlink:href="#m7d1bc22631" x="56.18" y="223.502517" style="stroke: #000000; stroke-width: 0.8"/>
      </g>
     </g>
     <g id="text_10">
      <!-- 0.2 -->
      <g transform="translate(33.276875 227.301735) scale(0.1 -0.1)">
       <use xlink:href="#DejaVuSans-30"/>
       <use xlink:href="#DejaVuSans-2e" x="63.623047"/>
       <use xlink:href="#DejaVuSans-32" x="95.410156"/>
      </g>
     </g>
    </g>
    <g id="ytick_4">
     <g id="line2d_10">
      <g>
       <use xlink:href="#m7d1bc22631" x="56.18" y="183.912691" style="stroke: #000000; stroke-width: 0.8"/>
      </g>
     </g>
     <g id="text_11">
      <!-- 0.4 -->
      <g transform="translate(33.276875 187.71191) scale(0.1 -0.1)">
       <use xlink:href="#DejaVuSans-30"/>
       <use xlink:href="#DejaVuSans-2e" x="63.623047"/>
       <use xlink:href="#DejaVuSans-34" x="95.410156"/>
      </g>
     </g>
    </g>
    <g id="ytick_5">
     <g id="line2d_11">
      <g>
       <use xlink:href="#m7d1bc22631" x="56.18" y="144.322866" style="stroke: #000000; stroke-width: 0.8"/>
      </g>
     </g>
     <g id="text_12">
      <!-- 0.6 -->
      <g transform="translate(33.276875 148.122085) scale(0.1 -0.1)">
       <use xlink:href="#DejaVuSans-30"/>
       <use xlink:href="#DejaVuSans-2e" x="63.623047"/>
       <use xlink:href="#DejaVuSans-36" x="95.410156"/>
      </g>
     </g>
    </g>
    <g id="ytick_6">
     <g id="line2d_12">
      <g>
       <use xlink:href="#m7d1bc22631" x="56.18" y="104.73304" style="stroke: #000000; stroke-width: 0.8"/>
      </g>
     </g>
     <g id="text_13">
      <!-- 0.8 -->
      <g transform="translate(33.276875 108.532259) scale(0.1 -0.1)">
       <use xlink:href="#DejaVuSans-30"/>
       <use xlink:href="#DejaVuSans-2e" x="63.623047"/>
       <use xlink:href="#DejaVuSans-38" x="95.410156"/>
      </g>
     </g>
    </g>
    <g id="ytick_7">
     <g id="line2d_13">
      <g>
       <use xlink:href="#m7d1bc22631" x="56.18" y="65.143215" style="stroke: #000000; stroke-width: 0.8"/>
      </g>
     </g>
     <g id="text_14">
      <!-- 1.0 -->
      <g transform="translate(33.276875 68.942434) scale(0.1 -0.1)">
       <use xlink:href="#DejaVuSans-31"/>
       <use xlink:href="#DejaVuSans-2e" x="63.623047"/>
       <use xlink:href="#DejaVuSans-30" x="95.410156"/>
      </g>
     </g>
    </g>
    <g id="ytick_8">
     <g id="line2d_14">
      <g>
       <use xlink:href="#m7d1bc22631" x="56.18" y="25.553389" style="stroke: #000000; stroke-width: 0.8"/>
      </g>
     </g>
     <g id="text_15">
      <!-- 1.2 -->
      <g transform="translate(33.276875 29.352608) scale(0.1 -0.1)">
       <use xlink:href="#DejaVuSans-31"/>
       <use xlink:href="#DejaVuSans-2e" x="63.623047"/>
       <use xlink:href="#DejaVuSans-32" x="95.410156"/>
      </g>
     </g>
    </g>
    <g id="text_16">
     <!-- Avg action -->
     <g transform="translate(18.8175 190.779844) rotate(-90) scale(0.1 -0.1)">
      <defs>
       <path id="DejaVuSans-41" d="M 2188 4044 
L 1331 1722 
L 3047 1722 
L 2188 4044 
z
M 1831 4666 
L 2547 4666 
L 4325 0 
L 3669 0 
L 3244 1197 
L 1141 1197 
L 716 0 
L 50 0 
L 1831 4666 
z
" transform="scale(0.015625)"/>
       <path id="DejaVuSans-76" d="M 191 3500 
L 800 3500 
L 1894 563 
L 2988 3500 
L 3597 3500 
L 2284 0 
L 1503 0 
L 191 3500 
z
" transform="scale(0.015625)"/>
       <path id="DejaVuSans-67" d="M 2906 1791 
Q 2906 2416 2648 2759 
Q 2391 3103 1925 3103 
Q 1463 3103 1205 2759 
Q 947 2416 947 1791 
Q 947 1169 1205 825 
Q 1463 481 1925 481 
Q 2391 481 2648 825 
Q 2906 1169 2906 1791 
z
M 3481 434 
Q 3481 -459 3084 -895 
Q 2688 -1331 1869 -1331 
Q 1566 -1331 1297 -1286 
Q 1028 -1241 775 -1147 
L 775 -588 
Q 1028 -725 1275 -790 
Q 1522 -856 1778 -856 
Q 2344 -856 2625 -561 
Q 2906 -266 2906 331 
L 2906 616 
Q 2728 306 2450 153 
Q 2172 0 1784 0 
Q 1141 0 747 490 
Q 353 981 353 1791 
Q 353 2603 747 3093 
Q 1141 3584 1784 3584 
Q 2172 3584 2450 3431 
Q 2728 3278 2906 2969 
L 2906 3500 
L 3481 3500 
L 3481 434 
z
" transform="scale(0.015625)"/>
       <path id="DejaVuSans-20" transform="scale(0.015625)"/>
       <path id="DejaVuSans-63" d="M 3122 3366 
L 3122 2828 
Q 2878 2963 2633 3030 
Q 2388 3097 2138 3097 
Q 1578 3097 1268 2742 
Q 959 2388 959 1747 
Q 959 1106 1268 751 
Q 1578 397 2138 397 
Q 2388 397 2633 464 
Q 2878 531 3122 666 
L 3122 134 
Q 2881 22 2623 -34 
Q 2366 -91 2075 -91 
Q 1284 -91 818 406 
Q 353 903 353 1747 
Q 353 2603 823 3093 
Q 1294 3584 2113 3584 
Q 2378 3584 2631 3529 
Q 2884 3475 3122 3366 
z
" transform="scale(0.015625)"/>
      </defs>
      <use xlink:href="#DejaVuSans-41"/>
      <use xlink:href="#DejaVuSans-76" x="62.533203"/>
      <use xlink:href="#DejaVuSans-67" x="121.712891"/>
      <use xlink:href="#DejaVuSans-20" x="185.189453"/>
      <use xlink:href="#DejaVuSans-61" x="216.976562"/>
      <use xlink:href="#DejaVuSans-63" x="278.255859"/>
      <use xlink:href="#DejaVuSans-74" x="333.236328"/>
      <use xlink:href="#DejaVuSans-69" x="372.445312"/>
      <use xlink:href="#DejaVuSans-6f" x="400.228516"/>
      <use xlink:href="#DejaVuSans-6e" x="461.410156"/>
     </g>
    </g>
   </g>
   <g id="line2d_15">
    <path d="M 74.080909 65.143215 
L 77.697254 195.789639 
L 81.3136 243.297429 
L 84.929945 259.13336 
L 88.54629 255.174377 
L 92.162635 263.092342 
L 95.778981 251.215395 
L 99.395326 255.174377 
L 103.011671 255.174377 
L 106.628017 251.215395 
L 110.244362 235.379464 
L 113.860707 255.174377 
L 117.477052 251.215395 
L 121.093398 259.13336 
L 124.709743 259.13336 
L 128.326088 259.13336 
L 131.942433 255.174377 
L 135.558779 247.256412 
L 139.175124 259.13336 
L 142.791469 259.13336 
L 146.407815 255.174377 
L 150.02416 251.215395 
L 153.640505 255.174377 
L 157.25685 251.215395 
L 160.873196 247.256412 
L 164.489541 255.174377 
L 168.105886 251.215395 
L 171.722231 255.174377 
L 175.338577 251.215395 
L 178.954922 251.215395 
L 182.571267 255.174377 
L 186.187612 251.215395 
L 189.803958 243.297429 
L 193.420303 255.174377 
L 197.036648 243.297429 
L 200.652994 243.297429 
L 204.269339 251.215395 
L 207.885684 259.13336 
L 211.502029 251.215395 
L 215.118375 255.174377 
L 218.73472 251.215395 
L 222.351065 259.13336 
L 225.96741 251.215395 
L 229.583756 239.338447 
L 233.200101 243.297429 
L 236.816446 247.256412 
L 240.432792 251.215395 
L 244.049137 251.215395 
L 247.665482 247.256412 
L 251.281827 239.338447 
L 254.898173 255.174377 
L 258.514518 243.297429 
L 262.130863 255.174377 
L 265.747208 247.256412 
L 269.363554 263.092342 
L 272.979899 255.174377 
L 276.596244 259.13336 
L 280.21259 259.13336 
L 283.828935 251.215395 
L 287.44528 251.215395 
L 291.061625 259.13336 
L 294.677971 259.13336 
L 298.294316 251.215395 
L 301.910661 251.215395 
L 305.527006 259.13336 
L 309.143352 259.13336 
L 312.759697 263.092342 
L 316.376042 263.092342 
L 319.992388 263.092342 
L 323.608733 255.174377 
L 327.225078 255.174377 
L 330.841423 255.174377 
L 334.457769 263.092342 
L 338.074114 255.174377 
L 341.690459 259.13336 
L 345.306804 247.256412 
L 348.92315 255.174377 
L 352.539495 259.13336 
L 356.15584 259.13336 
L 359.772185 259.13336 
L 363.388531 255.174377 
L 367.004876 243.297429 
L 370.621221 259.13336 
L 374.237567 247.256412 
L 377.853912 259.13336 
L 381.470257 251.215395 
L 385.086602 259.13336 
L 388.702948 239.338447 
L 392.319293 259.13336 
L 395.935638 243.297429 
L 399.551983 243.297429 
L 403.168329 243.297429 
L 406.784674 255.174377 
L 410.401019 247.256412 
L 414.017365 243.297429 
L 417.63371 247.256412 
L 421.250055 247.256412 
L 424.8664 247.256412 
L 428.482746 263.092342 
L 432.099091 235.379464 
" clip-path="url(#pced6d9520c)" style="fill: none; stroke: #0000ff; stroke-linecap: square"/>
    <defs>
     <path id="mea74c90842" d="M -0.49999 0.49999 
L 0.50001 0.49999 
L 0.50001 -0.50001 
L -0.49999 -0.50001 
z
"/>
    </defs>
    <g clip-path="url(#pced6d9520c)">
     <use xlink:href="#mea74c90842" x="74.080909" y="65.143215" style="fill: #0000ff"/>
     <use xlink:href="#mea74c90842" x="77.697254" y="195.789639" style="fill: #0000ff"/>
     <use xlink:href="#mea74c90842" x="81.3136" y="243.297429" style="fill: #0000ff"/>
     <use xlink:href="#mea74c90842" x="84.929945" y="259.13336" style="fill: #0000ff"/>
     <use xlink:href="#mea74c90842" x="88.54629" y="255.174377" style="fill: #0000ff"/>
     <use xlink:href="#mea74c90842" x="92.162635" y="263.092342" style="fill: #0000ff"/>
     <use xlink:href="#mea74c90842" x="95.778981" y="251.215395" style="fill: #0000ff"/>
     <use xlink:href="#mea74c90842" x="99.395326" y="255.174377" style="fill: #0000ff"/>
     <use xlink:href="#mea74c90842" x="103.011671" y="255.174377" style="fill: #0000ff"/>
     <use xlink:href="#mea74c90842" x="106.628017" y="251.215395" style="fill: #0000ff"/>
     <use xlink:href="#mea74c90842" x="110.244362" y="235.379464" style="fill: #0000ff"/>
     <use xlink:href="#mea74c90842" x="113.860707" y="255.174377" style="fill: #0000ff"/>
     <use xlink:href="#mea74c90842" x="117.477052" y="251.215395" style="fill: #0000ff"/>
     <use xlink:href="#mea74c90842" x="121.093398" y="259.13336" style="fill: #0000ff"/>
     <use xlink:href="#mea74c90842" x="124.709743" y="259.13336" style="fill: #0000ff"/>
     <use xlink:href="#mea74c90842" x="128.326088" y="259.13336" style="fill: #0000ff"/>
     <use xlink:href="#mea74c90842" x="131.942433" y="255.174377" style="fill: #0000ff"/>
     <use xlink:href="#mea74c90842" x="135.558779" y="247.256412" style="fill: #0000ff"/>
     <use xlink:href="#mea74c90842" x="139.175124" y="259.13336" style="fill: #0000ff"/>
     <use xlink:href="#mea74c90842" x="142.791469" y="259.13336" style="fill: #0000ff"/>
     <use xlink:href="#mea74c90842" x="146.407815" y="255.174377" style="fill: #0000ff"/>
     <use xlink:href="#mea74c90842" x="150.02416" y="251.215395" style="fill: #0000ff"/>
     <use xlink:href="#mea74c90842" x="153.640505" y="255.174377" style="fill: #0000ff"/>
     <use xlink:href="#mea74c90842" x="157.25685" y="251.215395" style="fill: #0000ff"/>
     <use xlink:href="#mea74c90842" x="160.873196" y="247.256412" style="fill: #0000ff"/>
     <use xlink:href="#mea74c90842" x="164.489541" y="255.174377" style="fill: #0000ff"/>
     <use xlink:href="#mea74c90842" x="168.105886" y="251.215395" style="fill: #0000ff"/>
     <use xlink:href="#mea74c90842" x="171.722231" y="255.174377" style="fill: #0000ff"/>
     <use xlink:href="#mea74c90842" x="175.338577" y="251.215395" style="fill: #0000ff"/>
     <use xlink:href="#mea74c90842" x="178.954922" y="251.215395" style="fill: #0000ff"/>
     <use xlink:href="#mea74c90842" x="182.571267" y="255.174377" style="fill: #0000ff"/>
     <use xlink:href="#mea74c90842" x="186.187612" y="251.215395" style="fill: #0000ff"/>
     <use xlink:href="#mea74c90842" x="189.803958" y="243.297429" style="fill: #0000ff"/>
     <use xlink:href="#mea74c90842" x="193.420303" y="255.174377" style="fill: #0000ff"/>
     <use xlink:href="#mea74c90842" x="197.036648" y="243.297429" style="fill: #0000ff"/>
     <use xlink:href="#mea74c90842" x="200.652994" y="243.297429" style="fill: #0000ff"/>
     <use xlink:href="#mea74c90842" x="204.269339" y="251.215395" style="fill: #0000ff"/>
     <use xlink:href="#mea74c90842" x="207.885684" y="259.13336" style="fill: #0000ff"/>
     <use xlink:href="#mea74c90842" x="211.502029" y="251.215395" style="fill: #0000ff"/>
     <use xlink:href="#mea74c90842" x="215.118375" y="255.174377" style="fill: #0000ff"/>
     <use xlink:href="#mea74c90842" x="218.73472" y="251.215395" style="fill: #0000ff"/>
     <use xlink:href="#mea74c90842" x="222.351065" y="259.13336" style="fill: #0000ff"/>
     <use xlink:href="#mea74c90842" x="225.96741" y="251.215395" style="fill: #0000ff"/>
     <use xlink:href="#mea74c90842" x="229.583756" y="239.338447" style="fill: #0000ff"/>
     <use xlink:href="#mea74c90842" x="233.200101" y="243.297429" style="fill: #0000ff"/>
     <use xlink:href="#mea74c90842" x="236.816446" y="247.256412" style="fill: #0000ff"/>
     <use xlink:href="#mea74c90842" x="240.432792" y="251.215395" style="fill: #0000ff"/>
     <use xlink:href="#mea74c90842" x="244.049137" y="251.215395" style="fill: #0000ff"/>
     <use xlink:href="#mea74c90842" x="247.665482" y="247.256412" style="fill: #0000ff"/>
     <use xlink:href="#mea74c90842" x="251.281827" y="239.338447" style="fill: #0000ff"/>
     <use xlink:href="#mea74c90842" x="254.898173" y="255.174377" style="fill: #0000ff"/>
     <use xlink:href="#mea74c90842" x="258.514518" y="243.297429" style="fill: #0000ff"/>
     <use xlink:href="#mea74c90842" x="262.130863" y="255.174377" style="fill: #0000ff"/>
     <use xlink:href="#mea74c90842" x="265.747208" y="247.256412" style="fill: #0000ff"/>
     <use xlink:href="#mea74c90842" x="269.363554" y="263.092342" style="fill: #0000ff"/>
     <use xlink:href="#mea74c90842" x="272.979899" y="255.174377" style="fill: #0000ff"/>
     <use xlink:href="#mea74c90842" x="276.596244" y="259.13336" style="fill: #0000ff"/>
     <use xlink:href="#mea74c90842" x="280.21259" y="259.13336" style="fill: #0000ff"/>
     <use xlink:href="#mea74c90842" x="283.828935" y="251.215395" style="fill: #0000ff"/>
     <use xlink:href="#mea74c90842" x="287.44528" y="251.215395" style="fill: #0000ff"/>
     <use xlink:href="#mea74c90842" x="291.061625" y="259.13336" style="fill: #0000ff"/>
     <use xlink:href="#mea74c90842" x="294.677971" y="259.13336" style="fill: #0000ff"/>
     <use xlink:href="#mea74c90842" x="298.294316" y="251.215395" style="fill: #0000ff"/>
     <use xlink:href="#mea74c90842" x="301.910661" y="251.215395" style="fill: #0000ff"/>
     <use xlink:href="#mea74c90842" x="305.527006" y="259.13336" style="fill: #0000ff"/>
     <use xlink:href="#mea74c90842" x="309.143352" y="259.13336" style="fill: #0000ff"/>
     <use xlink:href="#mea74c90842" x="312.759697" y="263.092342" style="fill: #0000ff"/>
     <use xlink:href="#mea74c90842" x="316.376042" y="263.092342" style="fill: #0000ff"/>
     <use xlink:href="#mea74c90842" x="319.992388" y="263.092342" style="fill: #0000ff"/>
     <use xlink:href="#mea74c90842" x="323.608733" y="255.174377" style="fill: #0000ff"/>
     <use xlink:href="#mea74c90842" x="327.225078" y="255.174377" style="fill: #0000ff"/>
     <use xlink:href="#mea74c90842" x="330.841423" y="255.174377" style="fill: #0000ff"/>
     <use xlink:href="#mea74c90842" x="334.457769" y="263.092342" style="fill: #0000ff"/>
     <use xlink:href="#mea74c90842" x="338.074114" y="255.174377" style="fill: #0000ff"/>
     <use xlink:href="#mea74c90842" x="341.690459" y="259.13336" style="fill: #0000ff"/>
     <use xlink:href="#mea74c90842" x="345.306804" y="247.256412" style="fill: #0000ff"/>
     <use xlink:href="#mea74c90842" x="348.92315" y="255.174377" style="fill: #0000ff"/>
     <use xlink:href="#mea74c90842" x="352.539495" y="259.13336" style="fill: #0000ff"/>
     <use xlink:href="#mea74c90842" x="356.15584" y="259.13336" style="fill: #0000ff"/>
     <use xlink:href="#mea74c90842" x="359.772185" y="259.13336" style="fill: #0000ff"/>
     <use xlink:href="#mea74c90842" x="363.388531" y="255.174377" style="fill: #0000ff"/>
     <use xlink:href="#mea74c90842" x="367.004876" y="243.297429" style="fill: #0000ff"/>
     <use xlink:href="#mea74c90842" x="370.621221" y="259.13336" style="fill: #0000ff"/>
     <use xlink:href="#mea74c90842" x="374.237567" y="247.256412" style="fill: #0000ff"/>
     <use xlink:href="#mea74c90842" x="377.853912" y="259.13336" style="fill: #0000ff"/>
     <use xlink:href="#mea74c90842" x="381.470257" y="251.215395" style="fill: #0000ff"/>
     <use xlink:href="#mea74c90842" x="385.086602" y="259.13336" style="fill: #0000ff"/>
     <use xlink:href="#mea74c90842" x="388.702948" y="239.338447" style="fill: #0000ff"/>
     <use xlink:href="#mea74c90842" x="392.319293" y="259.13336" style="fill: #0000ff"/>
     <use xlink:href="#mea74c90842" x="395.935638" y="243.297429" style="fill: #0000ff"/>
     <use xlink:href="#mea74c90842" x="399.551983" y="243.297429" style="fill: #0000ff"/>
     <use xlink:href="#mea74c90842" x="403.168329" y="243.297429" style="fill: #0000ff"/>
     <use xlink:href="#mea74c90842" x="406.784674" y="255.174377" style="fill: #0000ff"/>
     <use xlink:href="#mea74c90842" x="410.401019" y="247.256412" style="fill: #0000ff"/>
     <use xlink:href="#mea74c90842" x="414.017365" y="243.297429" style="fill: #0000ff"/>
     <use xlink:href="#mea74c90842" x="417.63371" y="247.256412" style="fill: #0000ff"/>
     <use xlink:href="#mea74c90842" x="421.250055" y="247.256412" style="fill: #0000ff"/>
     <use xlink:href="#mea74c90842" x="424.8664" y="247.256412" style="fill: #0000ff"/>
     <use xlink:href="#mea74c90842" x="428.482746" y="263.092342" style="fill: #0000ff"/>
     <use xlink:href="#mea74c90842" x="432.099091" y="235.379464" style="fill: #0000ff"/>
    </g>
   </g>
   <g id="line2d_16">
    <path d="M 74.080909 65.143215 
L 77.697254 130.466427 
L 81.3136 168.076761 
L 84.929945 190.840911 
L 88.54629 203.707604 
L 92.162635 213.60506 
L 95.778981 218.977965 
L 99.395326 223.502517 
L 103.011671 227.021612 
L 106.628017 229.440991 
L 110.244362 229.980852 
L 113.860707 232.080312 
L 117.477052 233.552242 
L 121.093398 235.379464 
L 124.709743 236.963057 
L 128.326088 238.348701 
L 131.942433 239.338447 
L 135.558779 239.778334 
L 139.175124 240.797019 
L 142.791469 241.713836 
L 146.407815 242.354815 
L 150.02416 242.757568 
L 153.640505 243.297429 
L 157.25685 243.627345 
L 160.873196 243.772507 
L 164.489541 244.211041 
L 168.105886 244.470461 
L 171.722231 244.852744 
L 175.338577 245.072146 
L 178.954922 245.276921 
L 182.571267 245.596194 
L 186.187612 245.771794 
L 189.803958 245.696813 
L 193.420303 245.975565 
L 197.036648 245.899047 
L 200.652994 245.826779 
L 204.269339 245.972418 
L 207.885684 246.318758 
L 211.502029 246.444313 
L 215.118375 246.662565 
L 218.73472 246.773609 
L 222.351065 247.067889 
L 225.96741 247.164343 
L 229.583756 246.986481 
L 233.200101 246.904502 
L 236.816446 246.912153 
L 240.432792 247.003711 
L 244.049137 247.091454 
L 247.665482 247.094821 
L 251.281827 246.939693 
L 254.898173 247.101158 
L 258.514518 247.028009 
L 262.130863 247.181714 
L 265.747208 247.183098 
L 269.363554 247.472356 
L 272.979899 247.609893 
L 276.596244 247.812059 
L 280.21259 248.007254 
L 283.828935 248.061629 
L 287.44528 248.114192 
L 291.061625 248.294834 
L 294.677971 248.469649 
L 298.294316 248.513232 
L 301.910661 248.555453 
L 305.527006 248.71819 
L 309.143352 248.875996 
L 312.759697 249.08818 
L 316.376042 249.294124 
L 319.992388 249.494098 
L 323.608733 249.575245 
L 327.225078 249.654106 
L 330.841423 249.730776 
L 334.457769 249.913811 
L 338.074114 249.9849 
L 341.690459 250.106879 
L 345.306804 250.069373 
L 348.92315 250.135672 
L 352.539495 250.251027 
L 356.15584 250.363462 
L 359.772185 250.473085 
L 363.388531 250.531126 
L 367.004876 250.44291 
L 370.621221 250.547614 
L 374.237567 250.508433 
L 377.853912 250.609903 
L 381.470257 250.616944 
L 385.086602 250.714834 
L 388.702948 250.585556 
L 392.319293 250.681599 
L 395.935638 250.599553 
L 399.551983 250.51931 
L 403.168329 250.440811 
L 406.784674 250.49171 
L 410.401019 250.457291 
L 414.017365 250.381925 
L 417.63371 250.349367 
L 421.250055 250.317481 
L 424.8664 250.286246 
L 428.482746 250.4156 
L 432.099091 250.265239 
" clip-path="url(#pced6d9520c)" style="fill: none; stroke: #0000ff; stroke-opacity: 0.5; stroke-width: 0.5; stroke-linecap: square"/>
    <defs>
     <path id="m32fa84b270" d="M -0.49999 0.49999 
L 0.50001 0.49999 
L 0.50001 -0.50001 
L -0.49999 -0.50001 
z
"/>
    </defs>
    <g clip-path="url(#pced6d9520c)">
     <use xlink:href="#m32fa84b270" x="74.080909" y="65.143215" style="fill: #0000ff; fill-opacity: 0.5"/>
     <use xlink:href="#m32fa84b270" x="77.697254" y="130.466427" style="fill: #0000ff; fill-opacity: 0.5"/>
     <use xlink:href="#m32fa84b270" x="81.3136" y="168.076761" style="fill: #0000ff; fill-opacity: 0.5"/>
     <use xlink:href="#m32fa84b270" x="84.929945" y="190.840911" style="fill: #0000ff; fill-opacity: 0.5"/>
     <use xlink:href="#m32fa84b270" x="88.54629" y="203.707604" style="fill: #0000ff; fill-opacity: 0.5"/>
     <use xlink:href="#m32fa84b270" x="92.162635" y="213.60506" style="fill: #0000ff; fill-opacity: 0.5"/>
     <use xlink:href="#m32fa84b270" x="95.778981" y="218.977965" style="fill: #0000ff; fill-opacity: 0.5"/>
     <use xlink:href="#m32fa84b270" x="99.395326" y="223.502517" style="fill: #0000ff; fill-opacity: 0.5"/>
     <use xlink:href="#m32fa84b270" x="103.011671" y="227.021612" style="fill: #0000ff; fill-opacity: 0.5"/>
     <use xlink:href="#m32fa84b270" x="106.628017" y="229.440991" style="fill: #0000ff; fill-opacity: 0.5"/>
     <use xlink:href="#m32fa84b270" x="110.244362" y="229.980852" style="fill: #0000ff; fill-opacity: 0.5"/>
     <use xlink:href="#m32fa84b270" x="113.860707" y="232.080312" style="fill: #0000ff; fill-opacity: 0.5"/>
     <use xlink:href="#m32fa84b270" x="117.477052" y="233.552242" style="fill: #0000ff; fill-opacity: 0.5"/>
     <use xlink:href="#m32fa84b270" x="121.093398" y="235.379464" style="fill: #0000ff; fill-opacity: 0.5"/>
     <use xlink:href="#m32fa84b270" x="124.709743" y="236.963057" style="fill: #0000ff; fill-opacity: 0.5"/>
     <use xlink:href="#m32fa84b270" x="128.326088" y="238.348701" style="fill: #0000ff; fill-opacity: 0.5"/>
     <use xlink:href="#m32fa84b270" x="131.942433" y="239.338447" style="fill: #0000ff; fill-opacity: 0.5"/>
     <use xlink:href="#m32fa84b270" x="135.558779" y="239.778334" style="fill: #0000ff; fill-opacity: 0.5"/>
     <use xlink:href="#m32fa84b270" x="139.175124" y="240.797019" style="fill: #0000ff; fill-opacity: 0.5"/>
     <use xlink:href="#m32fa84b270" x="142.791469" y="241.713836" style="fill: #0000ff; fill-opacity: 0.5"/>
     <use xlink:href="#m32fa84b270" x="146.407815" y="242.354815" style="fill: #0000ff; fill-opacity: 0.5"/>
     <use xlink:href="#m32fa84b270" x="150.02416" y="242.757568" style="fill: #0000ff; fill-opacity: 0.5"/>
     <use xlink:href="#m32fa84b270" x="153.640505" y="243.297429" style="fill: #0000ff; fill-opacity: 0.5"/>
     <use xlink:href="#m32fa84b270" x="157.25685" y="243.627345" style="fill: #0000ff; fill-opacity: 0.5"/>
     <use xlink:href="#m32fa84b270" x="160.873196" y="243.772507" style="fill: #0000ff; fill-opacity: 0.5"/>
     <use xlink:href="#m32fa84b270" x="164.489541" y="244.211041" style="fill: #0000ff; fill-opacity: 0.5"/>
     <use xlink:href="#m32fa84b270" x="168.105886" y="244.470461" style="fill: #0000ff; fill-opacity: 0.5"/>
     <use xlink:href="#m32fa84b270" x="171.722231" y="244.852744" style="fill: #0000ff; fill-opacity: 0.5"/>
     <use xlink:href="#m32fa84b270" x="175.338577" y="245.072146" style="fill: #0000ff; fill-opacity: 0.5"/>
     <use xlink:href="#m32fa84b270" x="178.954922" y="245.276921" style="fill: #0000ff; fill-opacity: 0.5"/>
     <use xlink:href="#m32fa84b270" x="182.571267" y="245.596194" style="fill: #0000ff; fill-opacity: 0.5"/>
     <use xlink:href="#m32fa84b270" x="186.187612" y="245.771794" style="fill: #0000ff; fill-opacity: 0.5"/>
     <use xlink:href="#m32fa84b270" x="189.803958" y="245.696813" style="fill: #0000ff; fill-opacity: 0.5"/>
     <use xlink:href="#m32fa84b270" x="193.420303" y="245.975565" style="fill: #0000ff; fill-opacity: 0.5"/>
     <use xlink:href="#m32fa84b270" x="197.036648" y="245.899047" style="fill: #0000ff; fill-opacity: 0.5"/>
     <use xlink:href="#m32fa84b270" x="200.652994" y="245.826779" style="fill: #0000ff; fill-opacity: 0.5"/>
     <use xlink:href="#m32fa84b270" x="204.269339" y="245.972418" style="fill: #0000ff; fill-opacity: 0.5"/>
     <use xlink:href="#m32fa84b270" x="207.885684" y="246.318758" style="fill: #0000ff; fill-opacity: 0.5"/>
     <use xlink:href="#m32fa84b270" x="211.502029" y="246.444313" style="fill: #0000ff; fill-opacity: 0.5"/>
     <use xlink:href="#m32fa84b270" x="215.118375" y="246.662565" style="fill: #0000ff; fill-opacity: 0.5"/>
     <use xlink:href="#m32fa84b270" x="218.73472" y="246.773609" style="fill: #0000ff; fill-opacity: 0.5"/>
     <use xlink:href="#m32fa84b270" x="222.351065" y="247.067889" style="fill: #0000ff; fill-opacity: 0.5"/>
     <use xlink:href="#m32fa84b270" x="225.96741" y="247.164343" style="fill: #0000ff; fill-opacity: 0.5"/>
     <use xlink:href="#m32fa84b270" x="229.583756" y="246.986481" style="fill: #0000ff; fill-opacity: 0.5"/>
     <use xlink:href="#m32fa84b270" x="233.200101" y="246.904502" style="fill: #0000ff; fill-opacity: 0.5"/>
     <use xlink:href="#m32fa84b270" x="236.816446" y="246.912153" style="fill: #0000ff; fill-opacity: 0.5"/>
     <use xlink:href="#m32fa84b270" x="240.432792" y="247.003711" style="fill: #0000ff; fill-opacity: 0.5"/>
     <use xlink:href="#m32fa84b270" x="244.049137" y="247.091454" style="fill: #0000ff; fill-opacity: 0.5"/>
     <use xlink:href="#m32fa84b270" x="247.665482" y="247.094821" style="fill: #0000ff; fill-opacity: 0.5"/>
     <use xlink:href="#m32fa84b270" x="251.281827" y="246.939693" style="fill: #0000ff; fill-opacity: 0.5"/>
     <use xlink:href="#m32fa84b270" x="254.898173" y="247.101158" style="fill: #0000ff; fill-opacity: 0.5"/>
     <use xlink:href="#m32fa84b270" x="258.514518" y="247.028009" style="fill: #0000ff; fill-opacity: 0.5"/>
     <use xlink:href="#m32fa84b270" x="262.130863" y="247.181714" style="fill: #0000ff; fill-opacity: 0.5"/>
     <use xlink:href="#m32fa84b270" x="265.747208" y="247.183098" style="fill: #0000ff; fill-opacity: 0.5"/>
     <use xlink:href="#m32fa84b270" x="269.363554" y="247.472356" style="fill: #0000ff; fill-opacity: 0.5"/>
     <use xlink:href="#m32fa84b270" x="272.979899" y="247.609893" style="fill: #0000ff; fill-opacity: 0.5"/>
     <use xlink:href="#m32fa84b270" x="276.596244" y="247.812059" style="fill: #0000ff; fill-opacity: 0.5"/>
     <use xlink:href="#m32fa84b270" x="280.21259" y="248.007254" style="fill: #0000ff; fill-opacity: 0.5"/>
     <use xlink:href="#m32fa84b270" x="283.828935" y="248.061629" style="fill: #0000ff; fill-opacity: 0.5"/>
     <use xlink:href="#m32fa84b270" x="287.44528" y="248.114192" style="fill: #0000ff; fill-opacity: 0.5"/>
     <use xlink:href="#m32fa84b270" x="291.061625" y="248.294834" style="fill: #0000ff; fill-opacity: 0.5"/>
     <use xlink:href="#m32fa84b270" x="294.677971" y="248.469649" style="fill: #0000ff; fill-opacity: 0.5"/>
     <use xlink:href="#m32fa84b270" x="298.294316" y="248.513232" style="fill: #0000ff; fill-opacity: 0.5"/>
     <use xlink:href="#m32fa84b270" x="301.910661" y="248.555453" style="fill: #0000ff; fill-opacity: 0.5"/>
     <use xlink:href="#m32fa84b270" x="305.527006" y="248.71819" style="fill: #0000ff; fill-opacity: 0.5"/>
     <use xlink:href="#m32fa84b270" x="309.143352" y="248.875996" style="fill: #0000ff; fill-opacity: 0.5"/>
     <use xlink:href="#m32fa84b270" x="312.759697" y="249.08818" style="fill: #0000ff; fill-opacity: 0.5"/>
     <use xlink:href="#m32fa84b270" x="316.376042" y="249.294124" style="fill: #0000ff; fill-opacity: 0.5"/>
     <use xlink:href="#m32fa84b270" x="319.992388" y="249.494098" style="fill: #0000ff; fill-opacity: 0.5"/>
     <use xlink:href="#m32fa84b270" x="323.608733" y="249.575245" style="fill: #0000ff; fill-opacity: 0.5"/>
     <use xlink:href="#m32fa84b270" x="327.225078" y="249.654106" style="fill: #0000ff; fill-opacity: 0.5"/>
     <use xlink:href="#m32fa84b270" x="330.841423" y="249.730776" style="fill: #0000ff; fill-opacity: 0.5"/>
     <use xlink:href="#m32fa84b270" x="334.457769" y="249.913811" style="fill: #0000ff; fill-opacity: 0.5"/>
     <use xlink:href="#m32fa84b270" x="338.074114" y="249.9849" style="fill: #0000ff; fill-opacity: 0.5"/>
     <use xlink:href="#m32fa84b270" x="341.690459" y="250.106879" style="fill: #0000ff; fill-opacity: 0.5"/>
     <use xlink:href="#m32fa84b270" x="345.306804" y="250.069373" style="fill: #0000ff; fill-opacity: 0.5"/>
     <use xlink:href="#m32fa84b270" x="348.92315" y="250.135672" style="fill: #0000ff; fill-opacity: 0.5"/>
     <use xlink:href="#m32fa84b270" x="352.539495" y="250.251027" style="fill: #0000ff; fill-opacity: 0.5"/>
     <use xlink:href="#m32fa84b270" x="356.15584" y="250.363462" style="fill: #0000ff; fill-opacity: 0.5"/>
     <use xlink:href="#m32fa84b270" x="359.772185" y="250.473085" style="fill: #0000ff; fill-opacity: 0.5"/>
     <use xlink:href="#m32fa84b270" x="363.388531" y="250.531126" style="fill: #0000ff; fill-opacity: 0.5"/>
     <use xlink:href="#m32fa84b270" x="367.004876" y="250.44291" style="fill: #0000ff; fill-opacity: 0.5"/>
     <use xlink:href="#m32fa84b270" x="370.621221" y="250.547614" style="fill: #0000ff; fill-opacity: 0.5"/>
     <use xlink:href="#m32fa84b270" x="374.237567" y="250.508433" style="fill: #0000ff; fill-opacity: 0.5"/>
     <use xlink:href="#m32fa84b270" x="377.853912" y="250.609903" style="fill: #0000ff; fill-opacity: 0.5"/>
     <use xlink:href="#m32fa84b270" x="381.470257" y="250.616944" style="fill: #0000ff; fill-opacity: 0.5"/>
     <use xlink:href="#m32fa84b270" x="385.086602" y="250.714834" style="fill: #0000ff; fill-opacity: 0.5"/>
     <use xlink:href="#m32fa84b270" x="388.702948" y="250.585556" style="fill: #0000ff; fill-opacity: 0.5"/>
     <use xlink:href="#m32fa84b270" x="392.319293" y="250.681599" style="fill: #0000ff; fill-opacity: 0.5"/>
     <use xlink:href="#m32fa84b270" x="395.935638" y="250.599553" style="fill: #0000ff; fill-opacity: 0.5"/>
     <use xlink:href="#m32fa84b270" x="399.551983" y="250.51931" style="fill: #0000ff; fill-opacity: 0.5"/>
     <use xlink:href="#m32fa84b270" x="403.168329" y="250.440811" style="fill: #0000ff; fill-opacity: 0.5"/>
     <use xlink:href="#m32fa84b270" x="406.784674" y="250.49171" style="fill: #0000ff; fill-opacity: 0.5"/>
     <use xlink:href="#m32fa84b270" x="410.401019" y="250.457291" style="fill: #0000ff; fill-opacity: 0.5"/>
     <use xlink:href="#m32fa84b270" x="414.017365" y="250.381925" style="fill: #0000ff; fill-opacity: 0.5"/>
     <use xlink:href="#m32fa84b270" x="417.63371" y="250.349367" style="fill: #0000ff; fill-opacity: 0.5"/>
     <use xlink:href="#m32fa84b270" x="421.250055" y="250.317481" style="fill: #0000ff; fill-opacity: 0.5"/>
     <use xlink:href="#m32fa84b270" x="424.8664" y="250.286246" style="fill: #0000ff; fill-opacity: 0.5"/>
     <use xlink:href="#m32fa84b270" x="428.482746" y="250.4156" style="fill: #0000ff; fill-opacity: 0.5"/>
     <use xlink:href="#m32fa84b270" x="432.099091" y="250.265239" style="fill: #0000ff; fill-opacity: 0.5"/>
    </g>
   </g>
   <g id="line2d_17">
    <path d="M 56.18 263.092342 
L 450 263.092342 
" clip-path="url(#pced6d9520c)" style="fill: none; stroke-dasharray: 0.555,0.24; stroke-dashoffset: 0; stroke: #ff0000; stroke-width: 0.15"/>
   </g>
   <g id="line2d_18">
    <path d="M 56.18 164.117779 
L 450 164.117779 
" clip-path="url(#pced6d9520c)" style="fill: none; stroke-dasharray: 0.555,0.24; stroke-dashoffset: 0; stroke: #ff0000; stroke-width: 0.15"/>
   </g>
   <g id="line2d_19">
    <path d="M 56.18 65.143215 
L 450 65.143215 
" clip-path="url(#pced6d9520c)" style="fill: none; stroke-dasharray: 0.555,0.24; stroke-dashoffset: 0; stroke: #ff0000; stroke-width: 0.15"/>
   </g>
   <g id="line2d_20">
    <path d="M 74.080909 263.092342 
L 77.697254 263.092342 
L 81.3136 263.092342 
L 84.929945 263.092342 
L 88.54629 263.092342 
L 92.162635 263.092342 
L 95.778981 263.092342 
L 99.395326 263.092342 
L 103.011671 263.092342 
L 106.628017 263.092342 
L 110.244362 263.092342 
L 113.860707 263.092342 
L 117.477052 263.092342 
L 121.093398 263.092342 
L 124.709743 263.092342 
L 128.326088 263.092342 
L 131.942433 263.092342 
L 135.558779 263.092342 
L 139.175124 263.092342 
L 142.791469 263.092342 
L 146.407815 263.092342 
L 150.02416 263.092342 
L 153.640505 263.092342 
L 157.25685 263.092342 
L 160.873196 263.092342 
L 164.489541 263.092342 
L 168.105886 263.092342 
L 171.722231 263.092342 
L 175.338577 263.092342 
L 178.954922 263.092342 
L 182.571267 263.092342 
L 186.187612 263.092342 
L 189.803958 263.092342 
L 193.420303 263.092342 
L 197.036648 263.092342 
L 200.652994 263.092342 
L 204.269339 263.092342 
L 207.885684 263.092342 
L 211.502029 263.092342 
L 215.118375 263.092342 
L 218.73472 263.092342 
L 222.351065 263.092342 
L 225.96741 263.092342 
L 229.583756 263.092342 
L 233.200101 263.092342 
L 236.816446 263.092342 
L 240.432792 263.092342 
L 244.049137 263.092342 
L 247.665482 263.092342 
L 251.281827 263.092342 
L 254.898173 263.092342 
L 258.514518 263.092342 
L 262.130863 263.092342 
L 265.747208 263.092342 
L 269.363554 263.092342 
L 272.979899 263.092342 
L 276.596244 263.092342 
L 280.21259 263.092342 
L 283.828935 263.092342 
L 287.44528 263.092342 
L 291.061625 263.092342 
L 294.677971 263.092342 
L 298.294316 263.092342 
L 301.910661 263.092342 
L 305.527006 263.092342 
L 309.143352 263.092342 
L 312.759697 263.092342 
L 316.376042 263.092342 
L 319.992388 263.092342 
L 323.608733 263.092342 
L 327.225078 263.092342 
L 330.841423 263.092342 
L 334.457769 263.092342 
L 338.074114 263.092342 
L 341.690459 263.092342 
L 345.306804 263.092342 
L 348.92315 263.092342 
L 352.539495 263.092342 
L 356.15584 263.092342 
L 359.772185 263.092342 
L 363.388531 263.092342 
L 367.004876 263.092342 
L 370.621221 263.092342 
L 374.237567 263.092342 
L 377.853912 263.092342 
L 381.470257 263.092342 
L 385.086602 263.092342 
L 388.702948 263.092342 
L 392.319293 263.092342 
L 395.935638 263.092342 
L 399.551983 263.092342 
L 403.168329 263.092342 
L 406.784674 263.092342 
L 410.401019 263.092342 
L 414.017365 263.092342 
L 417.63371 263.092342 
L 421.250055 263.092342 
L 424.8664 263.092342 
L 428.482746 263.092342 
L 432.099091 263.092342 
" clip-path="url(#pced6d9520c)" style="fill: none; stroke: #ff0000; stroke-width: 0.5; stroke-linecap: square"/>
    <defs>
     <path id="m7948b29224" d="M -0.49999 0.49999 
L 0.50001 0.49999 
L 0.50001 -0.50001 
L -0.49999 -0.50001 
z
"/>
    </defs>
    <g clip-path="url(#pced6d9520c)">
     <use xlink:href="#m7948b29224" x="74.080909" y="263.092342" style="fill: #ff0000"/>
     <use xlink:href="#m7948b29224" x="77.697254" y="263.092342" style="fill: #ff0000"/>
     <use xlink:href="#m7948b29224" x="81.3136" y="263.092342" style="fill: #ff0000"/>
     <use xlink:href="#m7948b29224" x="84.929945" y="263.092342" style="fill: #ff0000"/>
     <use xlink:href="#m7948b29224" x="88.54629" y="263.092342" style="fill: #ff0000"/>
     <use xlink:href="#m7948b29224" x="92.162635" y="263.092342" style="fill: #ff0000"/>
     <use xlink:href="#m7948b29224" x="95.778981" y="263.092342" style="fill: #ff0000"/>
     <use xlink:href="#m7948b29224" x="99.395326" y="263.092342" style="fill: #ff0000"/>
     <use xlink:href="#m7948b29224" x="103.011671" y="263.092342" style="fill: #ff0000"/>
     <use xlink:href="#m7948b29224" x="106.628017" y="263.092342" style="fill: #ff0000"/>
     <use xlink:href="#m7948b29224" x="110.244362" y="263.092342" style="fill: #ff0000"/>
     <use xlink:href="#m7948b29224" x="113.860707" y="263.092342" style="fill: #ff0000"/>
     <use xlink:href="#m7948b29224" x="117.477052" y="263.092342" style="fill: #ff0000"/>
     <use xlink:href="#m7948b29224" x="121.093398" y="263.092342" style="fill: #ff0000"/>
     <use xlink:href="#m7948b29224" x="124.709743" y="263.092342" style="fill: #ff0000"/>
     <use xlink:href="#m7948b29224" x="128.326088" y="263.092342" style="fill: #ff0000"/>
     <use xlink:href="#m7948b29224" x="131.942433" y="263.092342" style="fill: #ff0000"/>
     <use xlink:href="#m7948b29224" x="135.558779" y="263.092342" style="fill: #ff0000"/>
     <use xlink:href="#m7948b29224" x="139.175124" y="263.092342" style="fill: #ff0000"/>
     <use xlink:href="#m7948b29224" x="142.791469" y="263.092342" style="fill: #ff0000"/>
     <use xlink:href="#m7948b29224" x="146.407815" y="263.092342" style="fill: #ff0000"/>
     <use xlink:href="#m7948b29224" x="150.02416" y="263.092342" style="fill: #ff0000"/>
     <use xlink:href="#m7948b29224" x="153.640505" y="263.092342" style="fill: #ff0000"/>
     <use xlink:href="#m7948b29224" x="157.25685" y="263.092342" style="fill: #ff0000"/>
     <use xlink:href="#m7948b29224" x="160.873196" y="263.092342" style="fill: #ff0000"/>
     <use xlink:href="#m7948b29224" x="164.489541" y="263.092342" style="fill: #ff0000"/>
     <use xlink:href="#m7948b29224" x="168.105886" y="263.092342" style="fill: #ff0000"/>
     <use xlink:href="#m7948b29224" x="171.722231" y="263.092342" style="fill: #ff0000"/>
     <use xlink:href="#m7948b29224" x="175.338577" y="263.092342" style="fill: #ff0000"/>
     <use xlink:href="#m7948b29224" x="178.954922" y="263.092342" style="fill: #ff0000"/>
     <use xlink:href="#m7948b29224" x="182.571267" y="263.092342" style="fill: #ff0000"/>
     <use xlink:href="#m7948b29224" x="186.187612" y="263.092342" style="fill: #ff0000"/>
     <use xlink:href="#m7948b29224" x="189.803958" y="263.092342" style="fill: #ff0000"/>
     <use xlink:href="#m7948b29224" x="193.420303" y="263.092342" style="fill: #ff0000"/>
     <use xlink:href="#m7948b29224" x="197.036648" y="263.092342" style="fill: #ff0000"/>
     <use xlink:href="#m7948b29224" x="200.652994" y="263.092342" style="fill: #ff0000"/>
     <use xlink:href="#m7948b29224" x="204.269339" y="263.092342" style="fill: #ff0000"/>
     <use xlink:href="#m7948b29224" x="207.885684" y="263.092342" style="fill: #ff0000"/>
     <use xlink:href="#m7948b29224" x="211.502029" y="263.092342" style="fill: #ff0000"/>
     <use xlink:href="#m7948b29224" x="215.118375" y="263.092342" style="fill: #ff0000"/>
     <use xlink:href="#m7948b29224" x="218.73472" y="263.092342" style="fill: #ff0000"/>
     <use xlink:href="#m7948b29224" x="222.351065" y="263.092342" style="fill: #ff0000"/>
     <use xlink:href="#m7948b29224" x="225.96741" y="263.092342" style="fill: #ff0000"/>
     <use xlink:href="#m7948b29224" x="229.583756" y="263.092342" style="fill: #ff0000"/>
     <use xlink:href="#m7948b29224" x="233.200101" y="263.092342" style="fill: #ff0000"/>
     <use xlink:href="#m7948b29224" x="236.816446" y="263.092342" style="fill: #ff0000"/>
     <use xlink:href="#m7948b29224" x="240.432792" y="263.092342" style="fill: #ff0000"/>
     <use xlink:href="#m7948b29224" x="244.049137" y="263.092342" style="fill: #ff0000"/>
     <use xlink:href="#m7948b29224" x="247.665482" y="263.092342" style="fill: #ff0000"/>
     <use xlink:href="#m7948b29224" x="251.281827" y="263.092342" style="fill: #ff0000"/>
     <use xlink:href="#m7948b29224" x="254.898173" y="263.092342" style="fill: #ff0000"/>
     <use xlink:href="#m7948b29224" x="258.514518" y="263.092342" style="fill: #ff0000"/>
     <use xlink:href="#m7948b29224" x="262.130863" y="263.092342" style="fill: #ff0000"/>
     <use xlink:href="#m7948b29224" x="265.747208" y="263.092342" style="fill: #ff0000"/>
     <use xlink:href="#m7948b29224" x="269.363554" y="263.092342" style="fill: #ff0000"/>
     <use xlink:href="#m7948b29224" x="272.979899" y="263.092342" style="fill: #ff0000"/>
     <use xlink:href="#m7948b29224" x="276.596244" y="263.092342" style="fill: #ff0000"/>
     <use xlink:href="#m7948b29224" x="280.21259" y="263.092342" style="fill: #ff0000"/>
     <use xlink:href="#m7948b29224" x="283.828935" y="263.092342" style="fill: #ff0000"/>
     <use xlink:href="#m7948b29224" x="287.44528" y="263.092342" style="fill: #ff0000"/>
     <use xlink:href="#m7948b29224" x="291.061625" y="263.092342" style="fill: #ff0000"/>
     <use xlink:href="#m7948b29224" x="294.677971" y="263.092342" style="fill: #ff0000"/>
     <use xlink:href="#m7948b29224" x="298.294316" y="263.092342" style="fill: #ff0000"/>
     <use xlink:href="#m7948b29224" x="301.910661" y="263.092342" style="fill: #ff0000"/>
     <use xlink:href="#m7948b29224" x="305.527006" y="263.092342" style="fill: #ff0000"/>
     <use xlink:href="#m7948b29224" x="309.143352" y="263.092342" style="fill: #ff0000"/>
     <use xlink:href="#m7948b29224" x="312.759697" y="263.092342" style="fill: #ff0000"/>
     <use xlink:href="#m7948b29224" x="316.376042" y="263.092342" style="fill: #ff0000"/>
     <use xlink:href="#m7948b29224" x="319.992388" y="263.092342" style="fill: #ff0000"/>
     <use xlink:href="#m7948b29224" x="323.608733" y="263.092342" style="fill: #ff0000"/>
     <use xlink:href="#m7948b29224" x="327.225078" y="263.092342" style="fill: #ff0000"/>
     <use xlink:href="#m7948b29224" x="330.841423" y="263.092342" style="fill: #ff0000"/>
     <use xlink:href="#m7948b29224" x="334.457769" y="263.092342" style="fill: #ff0000"/>
     <use xlink:href="#m7948b29224" x="338.074114" y="263.092342" style="fill: #ff0000"/>
     <use xlink:href="#m7948b29224" x="341.690459" y="263.092342" style="fill: #ff0000"/>
     <use xlink:href="#m7948b29224" x="345.306804" y="263.092342" style="fill: #ff0000"/>
     <use xlink:href="#m7948b29224" x="348.92315" y="263.092342" style="fill: #ff0000"/>
     <use xlink:href="#m7948b29224" x="352.539495" y="263.092342" style="fill: #ff0000"/>
     <use xlink:href="#m7948b29224" x="356.15584" y="263.092342" style="fill: #ff0000"/>
     <use xlink:href="#m7948b29224" x="359.772185" y="263.092342" style="fill: #ff0000"/>
     <use xlink:href="#m7948b29224" x="363.388531" y="263.092342" style="fill: #ff0000"/>
     <use xlink:href="#m7948b29224" x="367.004876" y="263.092342" style="fill: #ff0000"/>
     <use xlink:href="#m7948b29224" x="370.621221" y="263.092342" style="fill: #ff0000"/>
     <use xlink:href="#m7948b29224" x="374.237567" y="263.092342" style="fill: #ff0000"/>
     <use xlink:href="#m7948b29224" x="377.853912" y="263.092342" style="fill: #ff0000"/>
     <use xlink:href="#m7948b29224" x="381.470257" y="263.092342" style="fill: #ff0000"/>
     <use xlink:href="#m7948b29224" x="385.086602" y="263.092342" style="fill: #ff0000"/>
     <use xlink:href="#m7948b29224" x="388.702948" y="263.092342" style="fill: #ff0000"/>
     <use xlink:href="#m7948b29224" x="392.319293" y="263.092342" style="fill: #ff0000"/>
     <use xlink:href="#m7948b29224" x="395.935638" y="263.092342" style="fill: #ff0000"/>
     <use xlink:href="#m7948b29224" x="399.551983" y="263.092342" style="fill: #ff0000"/>
     <use xlink:href="#m7948b29224" x="403.168329" y="263.092342" style="fill: #ff0000"/>
     <use xlink:href="#m7948b29224" x="406.784674" y="263.092342" style="fill: #ff0000"/>
     <use xlink:href="#m7948b29224" x="410.401019" y="263.092342" style="fill: #ff0000"/>
     <use xlink:href="#m7948b29224" x="414.017365" y="263.092342" style="fill: #ff0000"/>
     <use xlink:href="#m7948b29224" x="417.63371" y="263.092342" style="fill: #ff0000"/>
     <use xlink:href="#m7948b29224" x="421.250055" y="263.092342" style="fill: #ff0000"/>
     <use xlink:href="#m7948b29224" x="424.8664" y="263.092342" style="fill: #ff0000"/>
     <use xlink:href="#m7948b29224" x="428.482746" y="263.092342" style="fill: #ff0000"/>
     <use xlink:href="#m7948b29224" x="432.099091" y="263.092342" style="fill: #ff0000"/>
    </g>
   </g>
   <g id="line2d_21">
    <path d="M 74.080909 263.092342 
L 77.697254 263.092342 
L 81.3136 263.092342 
L 84.929945 263.092342 
L 88.54629 263.092342 
L 92.162635 263.092342 
L 95.778981 263.092342 
L 99.395326 263.092342 
L 103.011671 263.092342 
L 106.628017 263.092342 
L 110.244362 263.092342 
L 113.860707 263.092342 
L 117.477052 263.092342 
L 121.093398 263.092342 
L 124.709743 263.092342 
L 128.326088 263.092342 
L 131.942433 263.092342 
L 135.558779 263.092342 
L 139.175124 263.092342 
L 142.791469 263.092342 
L 146.407815 263.092342 
L 150.02416 263.092342 
L 153.640505 263.092342 
L 157.25685 263.092342 
L 160.873196 263.092342 
L 164.489541 263.092342 
L 168.105886 263.092342 
L 171.722231 263.092342 
L 175.338577 263.092342 
L 178.954922 263.092342 
L 182.571267 263.092342 
L 186.187612 263.092342 
L 189.803958 263.092342 
L 193.420303 263.092342 
L 197.036648 263.092342 
L 200.652994 263.092342 
L 204.269339 263.092342 
L 207.885684 263.092342 
L 211.502029 263.092342 
L 215.118375 263.092342 
L 218.73472 263.092342 
L 222.351065 263.092342 
L 225.96741 263.092342 
L 229.583756 263.092342 
L 233.200101 263.092342 
L 236.816446 263.092342 
L 240.432792 263.092342 
L 244.049137 263.092342 
L 247.665482 263.092342 
L 251.281827 263.092342 
L 254.898173 263.092342 
L 258.514518 263.092342 
L 262.130863 263.092342 
L 265.747208 263.092342 
L 269.363554 263.092342 
L 272.979899 263.092342 
L 276.596244 263.092342 
L 280.21259 263.092342 
L 283.828935 263.092342 
L 287.44528 263.092342 
L 291.061625 263.092342 
L 294.677971 263.092342 
L 298.294316 263.092342 
L 301.910661 263.092342 
L 305.527006 263.092342 
L 309.143352 263.092342 
L 312.759697 263.092342 
L 316.376042 263.092342 
L 319.992388 263.092342 
L 323.608733 263.092342 
L 327.225078 263.092342 
L 330.841423 263.092342 
L 334.457769 263.092342 
L 338.074114 263.092342 
L 341.690459 263.092342 
L 345.306804 263.092342 
L 348.92315 263.092342 
L 352.539495 263.092342 
L 356.15584 263.092342 
L 359.772185 263.092342 
L 363.388531 263.092342 
L 367.004876 263.092342 
L 370.621221 263.092342 
L 374.237567 263.092342 
L 377.853912 263.092342 
L 381.470257 263.092342 
L 385.086602 263.092342 
L 388.702948 263.092342 
L 392.319293 263.092342 
L 395.935638 263.092342 
L 399.551983 263.092342 
L 403.168329 263.092342 
L 406.784674 263.092342 
L 410.401019 263.092342 
L 414.017365 263.092342 
L 417.63371 263.092342 
L 421.250055 263.092342 
L 424.8664 263.092342 
L 428.482746 263.092342 
L 432.099091 263.092342 
" clip-path="url(#pced6d9520c)" style="fill: none; stroke: #ff0000; stroke-opacity: 0.5; stroke-width: 0.25; stroke-linecap: square"/>
    <defs>
     <path id="m8d912851df" d="M -0.49999 0.49999 
L 0.50001 0.49999 
L 0.50001 -0.50001 
L -0.49999 -0.50001 
z
"/>
    </defs>
    <g clip-path="url(#pced6d9520c)">
     <use xlink:href="#m8d912851df" x="74.080909" y="263.092342" style="fill: #ff0000; fill-opacity: 0.5"/>
     <use xlink:href="#m8d912851df" x="77.697254" y="263.092342" style="fill: #ff0000; fill-opacity: 0.5"/>
     <use xlink:href="#m8d912851df" x="81.3136" y="263.092342" style="fill: #ff0000; fill-opacity: 0.5"/>
     <use xlink:href="#m8d912851df" x="84.929945" y="263.092342" style="fill: #ff0000; fill-opacity: 0.5"/>
     <use xlink:href="#m8d912851df" x="88.54629" y="263.092342" style="fill: #ff0000; fill-opacity: 0.5"/>
     <use xlink:href="#m8d912851df" x="92.162635" y="263.092342" style="fill: #ff0000; fill-opacity: 0.5"/>
     <use xlink:href="#m8d912851df" x="95.778981" y="263.092342" style="fill: #ff0000; fill-opacity: 0.5"/>
     <use xlink:href="#m8d912851df" x="99.395326" y="263.092342" style="fill: #ff0000; fill-opacity: 0.5"/>
     <use xlink:href="#m8d912851df" x="103.011671" y="263.092342" style="fill: #ff0000; fill-opacity: 0.5"/>
     <use xlink:href="#m8d912851df" x="106.628017" y="263.092342" style="fill: #ff0000; fill-opacity: 0.5"/>
     <use xlink:href="#m8d912851df" x="110.244362" y="263.092342" style="fill: #ff0000; fill-opacity: 0.5"/>
     <use xlink:href="#m8d912851df" x="113.860707" y="263.092342" style="fill: #ff0000; fill-opacity: 0.5"/>
     <use xlink:href="#m8d912851df" x="117.477052" y="263.092342" style="fill: #ff0000; fill-opacity: 0.5"/>
     <use xlink:href="#m8d912851df" x="121.093398" y="263.092342" style="fill: #ff0000; fill-opacity: 0.5"/>
     <use xlink:href="#m8d912851df" x="124.709743" y="263.092342" style="fill: #ff0000; fill-opacity: 0.5"/>
     <use xlink:href="#m8d912851df" x="128.326088" y="263.092342" style="fill: #ff0000; fill-opacity: 0.5"/>
     <use xlink:href="#m8d912851df" x="131.942433" y="263.092342" style="fill: #ff0000; fill-opacity: 0.5"/>
     <use xlink:href="#m8d912851df" x="135.558779" y="263.092342" style="fill: #ff0000; fill-opacity: 0.5"/>
     <use xlink:href="#m8d912851df" x="139.175124" y="263.092342" style="fill: #ff0000; fill-opacity: 0.5"/>
     <use xlink:href="#m8d912851df" x="142.791469" y="263.092342" style="fill: #ff0000; fill-opacity: 0.5"/>
     <use xlink:href="#m8d912851df" x="146.407815" y="263.092342" style="fill: #ff0000; fill-opacity: 0.5"/>
     <use xlink:href="#m8d912851df" x="150.02416" y="263.092342" style="fill: #ff0000; fill-opacity: 0.5"/>
     <use xlink:href="#m8d912851df" x="153.640505" y="263.092342" style="fill: #ff0000; fill-opacity: 0.5"/>
     <use xlink:href="#m8d912851df" x="157.25685" y="263.092342" style="fill: #ff0000; fill-opacity: 0.5"/>
     <use xlink:href="#m8d912851df" x="160.873196" y="263.092342" style="fill: #ff0000; fill-opacity: 0.5"/>
     <use xlink:href="#m8d912851df" x="164.489541" y="263.092342" style="fill: #ff0000; fill-opacity: 0.5"/>
     <use xlink:href="#m8d912851df" x="168.105886" y="263.092342" style="fill: #ff0000; fill-opacity: 0.5"/>
     <use xlink:href="#m8d912851df" x="171.722231" y="263.092342" style="fill: #ff0000; fill-opacity: 0.5"/>
     <use xlink:href="#m8d912851df" x="175.338577" y="263.092342" style="fill: #ff0000; fill-opacity: 0.5"/>
     <use xlink:href="#m8d912851df" x="178.954922" y="263.092342" style="fill: #ff0000; fill-opacity: 0.5"/>
     <use xlink:href="#m8d912851df" x="182.571267" y="263.092342" style="fill: #ff0000; fill-opacity: 0.5"/>
     <use xlink:href="#m8d912851df" x="186.187612" y="263.092342" style="fill: #ff0000; fill-opacity: 0.5"/>
     <use xlink:href="#m8d912851df" x="189.803958" y="263.092342" style="fill: #ff0000; fill-opacity: 0.5"/>
     <use xlink:href="#m8d912851df" x="193.420303" y="263.092342" style="fill: #ff0000; fill-opacity: 0.5"/>
     <use xlink:href="#m8d912851df" x="197.036648" y="263.092342" style="fill: #ff0000; fill-opacity: 0.5"/>
     <use xlink:href="#m8d912851df" x="200.652994" y="263.092342" style="fill: #ff0000; fill-opacity: 0.5"/>
     <use xlink:href="#m8d912851df" x="204.269339" y="263.092342" style="fill: #ff0000; fill-opacity: 0.5"/>
     <use xlink:href="#m8d912851df" x="207.885684" y="263.092342" style="fill: #ff0000; fill-opacity: 0.5"/>
     <use xlink:href="#m8d912851df" x="211.502029" y="263.092342" style="fill: #ff0000; fill-opacity: 0.5"/>
     <use xlink:href="#m8d912851df" x="215.118375" y="263.092342" style="fill: #ff0000; fill-opacity: 0.5"/>
     <use xlink:href="#m8d912851df" x="218.73472" y="263.092342" style="fill: #ff0000; fill-opacity: 0.5"/>
     <use xlink:href="#m8d912851df" x="222.351065" y="263.092342" style="fill: #ff0000; fill-opacity: 0.5"/>
     <use xlink:href="#m8d912851df" x="225.96741" y="263.092342" style="fill: #ff0000; fill-opacity: 0.5"/>
     <use xlink:href="#m8d912851df" x="229.583756" y="263.092342" style="fill: #ff0000; fill-opacity: 0.5"/>
     <use xlink:href="#m8d912851df" x="233.200101" y="263.092342" style="fill: #ff0000; fill-opacity: 0.5"/>
     <use xlink:href="#m8d912851df" x="236.816446" y="263.092342" style="fill: #ff0000; fill-opacity: 0.5"/>
     <use xlink:href="#m8d912851df" x="240.432792" y="263.092342" style="fill: #ff0000; fill-opacity: 0.5"/>
     <use xlink:href="#m8d912851df" x="244.049137" y="263.092342" style="fill: #ff0000; fill-opacity: 0.5"/>
     <use xlink:href="#m8d912851df" x="247.665482" y="263.092342" style="fill: #ff0000; fill-opacity: 0.5"/>
     <use xlink:href="#m8d912851df" x="251.281827" y="263.092342" style="fill: #ff0000; fill-opacity: 0.5"/>
     <use xlink:href="#m8d912851df" x="254.898173" y="263.092342" style="fill: #ff0000; fill-opacity: 0.5"/>
     <use xlink:href="#m8d912851df" x="258.514518" y="263.092342" style="fill: #ff0000; fill-opacity: 0.5"/>
     <use xlink:href="#m8d912851df" x="262.130863" y="263.092342" style="fill: #ff0000; fill-opacity: 0.5"/>
     <use xlink:href="#m8d912851df" x="265.747208" y="263.092342" style="fill: #ff0000; fill-opacity: 0.5"/>
     <use xlink:href="#m8d912851df" x="269.363554" y="263.092342" style="fill: #ff0000; fill-opacity: 0.5"/>
     <use xlink:href="#m8d912851df" x="272.979899" y="263.092342" style="fill: #ff0000; fill-opacity: 0.5"/>
     <use xlink:href="#m8d912851df" x="276.596244" y="263.092342" style="fill: #ff0000; fill-opacity: 0.5"/>
     <use xlink:href="#m8d912851df" x="280.21259" y="263.092342" style="fill: #ff0000; fill-opacity: 0.5"/>
     <use xlink:href="#m8d912851df" x="283.828935" y="263.092342" style="fill: #ff0000; fill-opacity: 0.5"/>
     <use xlink:href="#m8d912851df" x="287.44528" y="263.092342" style="fill: #ff0000; fill-opacity: 0.5"/>
     <use xlink:href="#m8d912851df" x="291.061625" y="263.092342" style="fill: #ff0000; fill-opacity: 0.5"/>
     <use xlink:href="#m8d912851df" x="294.677971" y="263.092342" style="fill: #ff0000; fill-opacity: 0.5"/>
     <use xlink:href="#m8d912851df" x="298.294316" y="263.092342" style="fill: #ff0000; fill-opacity: 0.5"/>
     <use xlink:href="#m8d912851df" x="301.910661" y="263.092342" style="fill: #ff0000; fill-opacity: 0.5"/>
     <use xlink:href="#m8d912851df" x="305.527006" y="263.092342" style="fill: #ff0000; fill-opacity: 0.5"/>
     <use xlink:href="#m8d912851df" x="309.143352" y="263.092342" style="fill: #ff0000; fill-opacity: 0.5"/>
     <use xlink:href="#m8d912851df" x="312.759697" y="263.092342" style="fill: #ff0000; fill-opacity: 0.5"/>
     <use xlink:href="#m8d912851df" x="316.376042" y="263.092342" style="fill: #ff0000; fill-opacity: 0.5"/>
     <use xlink:href="#m8d912851df" x="319.992388" y="263.092342" style="fill: #ff0000; fill-opacity: 0.5"/>
     <use xlink:href="#m8d912851df" x="323.608733" y="263.092342" style="fill: #ff0000; fill-opacity: 0.5"/>
     <use xlink:href="#m8d912851df" x="327.225078" y="263.092342" style="fill: #ff0000; fill-opacity: 0.5"/>
     <use xlink:href="#m8d912851df" x="330.841423" y="263.092342" style="fill: #ff0000; fill-opacity: 0.5"/>
     <use xlink:href="#m8d912851df" x="334.457769" y="263.092342" style="fill: #ff0000; fill-opacity: 0.5"/>
     <use xlink:href="#m8d912851df" x="338.074114" y="263.092342" style="fill: #ff0000; fill-opacity: 0.5"/>
     <use xlink:href="#m8d912851df" x="341.690459" y="263.092342" style="fill: #ff0000; fill-opacity: 0.5"/>
     <use xlink:href="#m8d912851df" x="345.306804" y="263.092342" style="fill: #ff0000; fill-opacity: 0.5"/>
     <use xlink:href="#m8d912851df" x="348.92315" y="263.092342" style="fill: #ff0000; fill-opacity: 0.5"/>
     <use xlink:href="#m8d912851df" x="352.539495" y="263.092342" style="fill: #ff0000; fill-opacity: 0.5"/>
     <use xlink:href="#m8d912851df" x="356.15584" y="263.092342" style="fill: #ff0000; fill-opacity: 0.5"/>
     <use xlink:href="#m8d912851df" x="359.772185" y="263.092342" style="fill: #ff0000; fill-opacity: 0.5"/>
     <use xlink:href="#m8d912851df" x="363.388531" y="263.092342" style="fill: #ff0000; fill-opacity: 0.5"/>
     <use xlink:href="#m8d912851df" x="367.004876" y="263.092342" style="fill: #ff0000; fill-opacity: 0.5"/>
     <use xlink:href="#m8d912851df" x="370.621221" y="263.092342" style="fill: #ff0000; fill-opacity: 0.5"/>
     <use xlink:href="#m8d912851df" x="374.237567" y="263.092342" style="fill: #ff0000; fill-opacity: 0.5"/>
     <use xlink:href="#m8d912851df" x="377.853912" y="263.092342" style="fill: #ff0000; fill-opacity: 0.5"/>
     <use xlink:href="#m8d912851df" x="381.470257" y="263.092342" style="fill: #ff0000; fill-opacity: 0.5"/>
     <use xlink:href="#m8d912851df" x="385.086602" y="263.092342" style="fill: #ff0000; fill-opacity: 0.5"/>
     <use xlink:href="#m8d912851df" x="388.702948" y="263.092342" style="fill: #ff0000; fill-opacity: 0.5"/>
     <use xlink:href="#m8d912851df" x="392.319293" y="263.092342" style="fill: #ff0000; fill-opacity: 0.5"/>
     <use xlink:href="#m8d912851df" x="395.935638" y="263.092342" style="fill: #ff0000; fill-opacity: 0.5"/>
     <use xlink:href="#m8d912851df" x="399.551983" y="263.092342" style="fill: #ff0000; fill-opacity: 0.5"/>
     <use xlink:href="#m8d912851df" x="403.168329" y="263.092342" style="fill: #ff0000; fill-opacity: 0.5"/>
     <use xlink:href="#m8d912851df" x="406.784674" y="263.092342" style="fill: #ff0000; fill-opacity: 0.5"/>
     <use xlink:href="#m8d912851df" x="410.401019" y="263.092342" style="fill: #ff0000; fill-opacity: 0.5"/>
     <use xlink:href="#m8d912851df" x="414.017365" y="263.092342" style="fill: #ff0000; fill-opacity: 0.5"/>
     <use xlink:href="#m8d912851df" x="417.63371" y="263.092342" style="fill: #ff0000; fill-opacity: 0.5"/>
     <use xlink:href="#m8d912851df" x="421.250055" y="263.092342" style="fill: #ff0000; fill-opacity: 0.5"/>
     <use xlink:href="#m8d912851df" x="424.8664" y="263.092342" style="fill: #ff0000; fill-opacity: 0.5"/>
     <use xlink:href="#m8d912851df" x="428.482746" y="263.092342" style="fill: #ff0000; fill-opacity: 0.5"/>
     <use xlink:href="#m8d912851df" x="432.099091" y="263.092342" style="fill: #ff0000; fill-opacity: 0.5"/>
    </g>
   </g>
   <g id="patch_3">
    <path d="M 56.18 303.64 
L 56.18 25.44 
" style="fill: none; stroke: #000000; stroke-width: 0.8; stroke-linejoin: miter; stroke-linecap: square"/>
   </g>
   <g id="patch_4">
    <path d="M 450 303.64 
L 450 25.44 
" style="fill: none; stroke: #000000; stroke-width: 0.8; stroke-linejoin: miter; stroke-linecap: square"/>
   </g>
   <g id="patch_5">
    <path d="M 56.18 303.64 
L 450 303.64 
" style="fill: none; stroke: #000000; stroke-width: 0.8; stroke-linejoin: miter; stroke-linecap: square"/>
   </g>
   <g id="patch_6">
    <path d="M 56.18 25.44 
L 450 25.44 
" style="fill: none; stroke: #000000; stroke-width: 0.8; stroke-linejoin: miter; stroke-linecap: square"/>
   </g>
   <g id="text_17">
    <!-- Average action - 20240412104455 - 50 games -->
    <g transform="translate(112.983438 19.44) scale(0.12 -0.12)">
     <defs>
      <path id="DejaVuSans-2d" d="M 313 2009 
L 1997 2009 
L 1997 1497 
L 313 1497 
L 313 2009 
z
" transform="scale(0.015625)"/>
      <path id="DejaVuSans-35" d="M 691 4666 
L 3169 4666 
L 3169 4134 
L 1269 4134 
L 1269 2991 
Q 1406 3038 1543 3061 
Q 1681 3084 1819 3084 
Q 2600 3084 3056 2656 
Q 3513 2228 3513 1497 
Q 3513 744 3044 326 
Q 2575 -91 1722 -91 
Q 1428 -91 1123 -41 
Q 819 9 494 109 
L 494 744 
Q 775 591 1075 516 
Q 1375 441 1709 441 
Q 2250 441 2565 725 
Q 2881 1009 2881 1497 
Q 2881 1984 2565 2268 
Q 2250 2553 1709 2553 
Q 1456 2553 1204 2497 
Q 953 2441 691 2322 
L 691 4666 
z
" transform="scale(0.015625)"/>
      <path id="DejaVuSans-6d" d="M 3328 2828 
Q 3544 3216 3844 3400 
Q 4144 3584 4550 3584 
Q 5097 3584 5394 3201 
Q 5691 2819 5691 2113 
L 5691 0 
L 5113 0 
L 5113 2094 
Q 5113 2597 4934 2840 
Q 4756 3084 4391 3084 
Q 3944 3084 3684 2787 
Q 3425 2491 3425 1978 
L 3425 0 
L 2847 0 
L 2847 2094 
Q 2847 2600 2669 2842 
Q 2491 3084 2119 3084 
Q 1678 3084 1418 2786 
Q 1159 2488 1159 1978 
L 1159 0 
L 581 0 
L 581 3500 
L 1159 3500 
L 1159 2956 
Q 1356 3278 1631 3431 
Q 1906 3584 2284 3584 
Q 2666 3584 2933 3390 
Q 3200 3197 3328 2828 
z
" transform="scale(0.015625)"/>
      <path id="DejaVuSans-73" d="M 2834 3397 
L 2834 2853 
Q 2591 2978 2328 3040 
Q 2066 3103 1784 3103 
Q 1356 3103 1142 2972 
Q 928 2841 928 2578 
Q 928 2378 1081 2264 
Q 1234 2150 1697 2047 
L 1894 2003 
Q 2506 1872 2764 1633 
Q 3022 1394 3022 966 
Q 3022 478 2636 193 
Q 2250 -91 1575 -91 
Q 1294 -91 989 -36 
Q 684 19 347 128 
L 347 722 
Q 666 556 975 473 
Q 1284 391 1588 391 
Q 1994 391 2212 530 
Q 2431 669 2431 922 
Q 2431 1156 2273 1281 
Q 2116 1406 1581 1522 
L 1381 1569 
Q 847 1681 609 1914 
Q 372 2147 372 2553 
Q 372 3047 722 3315 
Q 1072 3584 1716 3584 
Q 2034 3584 2315 3537 
Q 2597 3491 2834 3397 
z
" transform="scale(0.015625)"/>
     </defs>
     <use xlink:href="#DejaVuSans-41"/>
     <use xlink:href="#DejaVuSans-76" x="62.533203"/>
     <use xlink:href="#DejaVuSans-65" x="121.712891"/>
     <use xlink:href="#DejaVuSans-72" x="183.236328"/>
     <use xlink:href="#DejaVuSans-61" x="224.349609"/>
     <use xlink:href="#DejaVuSans-67" x="285.628906"/>
     <use xlink:href="#DejaVuSans-65" x="349.105469"/>
     <use xlink:href="#DejaVuSans-20" x="410.628906"/>
     <use xlink:href="#DejaVuSans-61" x="442.416016"/>
     <use xlink:href="#DejaVuSans-63" x="503.695312"/>
     <use xlink:href="#DejaVuSans-74" x="558.675781"/>
     <use xlink:href="#DejaVuSans-69" x="597.884766"/>
     <use xlink:href="#DejaVuSans-6f" x="625.667969"/>
     <use xlink:href="#DejaVuSans-6e" x="686.849609"/>
     <use xlink:href="#DejaVuSans-20" x="750.228516"/>
     <use xlink:href="#DejaVuSans-2d" x="782.015625"/>
     <use xlink:href="#DejaVuSans-20" x="818.099609"/>
     <use xlink:href="#DejaVuSans-32" x="849.886719"/>
     <use xlink:href="#DejaVuSans-30" x="913.509766"/>
     <use xlink:href="#DejaVuSans-32" x="977.132812"/>
     <use xlink:href="#DejaVuSans-34" x="1040.755859"/>
     <use xlink:href="#DejaVuSans-30" x="1104.378906"/>
     <use xlink:href="#DejaVuSans-34" x="1168.001953"/>
     <use xlink:href="#DejaVuSans-31" x="1231.625"/>
     <use xlink:href="#DejaVuSans-32" x="1295.248047"/>
     <use xlink:href="#DejaVuSans-31" x="1358.871094"/>
     <use xlink:href="#DejaVuSans-30" x="1422.494141"/>
     <use xlink:href="#DejaVuSans-34" x="1486.117188"/>
     <use xlink:href="#DejaVuSans-34" x="1549.740234"/>
     <use xlink:href="#DejaVuSans-35" x="1613.363281"/>
     <use xlink:href="#DejaVuSans-35" x="1676.986328"/>
     <use xlink:href="#DejaVuSans-20" x="1740.609375"/>
     <use xlink:href="#DejaVuSans-2d" x="1772.396484"/>
     <use xlink:href="#DejaVuSans-20" x="1808.480469"/>
     <use xlink:href="#DejaVuSans-35" x="1840.267578"/>
     <use xlink:href="#DejaVuSans-30" x="1903.890625"/>
     <use xlink:href="#DejaVuSans-20" x="1967.513672"/>
     <use xlink:href="#DejaVuSans-67" x="1999.300781"/>
     <use xlink:href="#DejaVuSans-61" x="2062.777344"/>
     <use xlink:href="#DejaVuSans-6d" x="2124.056641"/>
     <use xlink:href="#DejaVuSans-65" x="2221.46875"/>
     <use xlink:href="#DejaVuSans-73" x="2282.992188"/>
    </g>
   </g>
   <g id="legend_1">
    <g id="patch_7">
     <path d="M 334.942187 92.70875 
L 443 92.70875 
Q 445 92.70875 445 90.70875 
L 445 32.44 
Q 445 30.44 443 30.44 
L 334.942187 30.44 
Q 332.942187 30.44 332.942187 32.44 
L 332.942187 90.70875 
Q 332.942187 92.70875 334.942187 92.70875 
z
" style="fill: #ffffff; opacity: 0.8; stroke: #cccccc; stroke-linejoin: miter"/>
    </g>
    <g id="line2d_22">
     <path d="M 336.942187 38.538438 
L 346.942187 38.538438 
L 356.942187 38.538438 
" style="fill: none; stroke: #0000ff; stroke-linecap: square"/>
     <g>
      <use xlink:href="#mea74c90842" x="346.942187" y="38.538438" style="fill: #0000ff"/>
     </g>
    </g>
    <g id="text_18">
     <!-- LLM -->
     <g transform="translate(364.942187 42.038438) scale(0.1 -0.1)">
      <defs>
       <path id="DejaVuSans-4c" d="M 628 4666 
L 1259 4666 
L 1259 531 
L 3531 531 
L 3531 0 
L 628 0 
L 628 4666 
z
" transform="scale(0.015625)"/>
       <path id="DejaVuSans-4d" d="M 628 4666 
L 1569 4666 
L 2759 1491 
L 3956 4666 
L 4897 4666 
L 4897 0 
L 4281 0 
L 4281 4097 
L 3078 897 
L 2444 897 
L 1241 4097 
L 1241 0 
L 628 0 
L 628 4666 
z
" transform="scale(0.015625)"/>
      </defs>
      <use xlink:href="#DejaVuSans-4c"/>
      <use xlink:href="#DejaVuSans-4c" x="55.712891"/>
      <use xlink:href="#DejaVuSans-4d" x="111.425781"/>
     </g>
    </g>
    <g id="line2d_23">
     <path d="M 336.942187 53.216563 
L 346.942187 53.216563 
L 356.942187 53.216563 
" style="fill: none; stroke: #0000ff; stroke-opacity: 0.5; stroke-width: 0.5; stroke-linecap: square"/>
     <g>
      <use xlink:href="#m32fa84b270" x="346.942187" y="53.216563" style="fill: #0000ff; fill-opacity: 0.5"/>
     </g>
    </g>
    <g id="text_19">
     <!-- LLM mean -->
     <g transform="translate(364.942187 56.716563) scale(0.1 -0.1)">
      <use xlink:href="#DejaVuSans-4c"/>
      <use xlink:href="#DejaVuSans-4c" x="55.712891"/>
      <use xlink:href="#DejaVuSans-4d" x="111.425781"/>
      <use xlink:href="#DejaVuSans-20" x="197.705078"/>
      <use xlink:href="#DejaVuSans-6d" x="229.492188"/>
      <use xlink:href="#DejaVuSans-65" x="326.904297"/>
      <use xlink:href="#DejaVuSans-61" x="388.427734"/>
      <use xlink:href="#DejaVuSans-6e" x="449.707031"/>
     </g>
    </g>
    <g id="line2d_24">
     <path d="M 336.942187 67.894688 
L 346.942187 67.894688 
L 356.942187 67.894688 
" style="fill: none; stroke: #ff0000; stroke-width: 0.5; stroke-linecap: square"/>
     <g>
      <use xlink:href="#m7948b29224" x="346.942187" y="67.894688" style="fill: #ff0000"/>
     </g>
    </g>
    <g id="text_20">
     <!-- DEF_sw5 -->
     <g transform="translate(364.942187 71.394688) scale(0.1 -0.1)">
      <defs>
       <path id="DejaVuSans-44" d="M 1259 4147 
L 1259 519 
L 2022 519 
Q 2988 519 3436 956 
Q 3884 1394 3884 2338 
Q 3884 3275 3436 3711 
Q 2988 4147 2022 4147 
L 1259 4147 
z
M 628 4666 
L 1925 4666 
Q 3281 4666 3915 4102 
Q 4550 3538 4550 2338 
Q 4550 1131 3912 565 
Q 3275 0 1925 0 
L 628 0 
L 628 4666 
z
" transform="scale(0.015625)"/>
       <path id="DejaVuSans-45" d="M 628 4666 
L 3578 4666 
L 3578 4134 
L 1259 4134 
L 1259 2753 
L 3481 2753 
L 3481 2222 
L 1259 2222 
L 1259 531 
L 3634 531 
L 3634 0 
L 628 0 
L 628 4666 
z
" transform="scale(0.015625)"/>
       <path id="DejaVuSans-46" d="M 628 4666 
L 3309 4666 
L 3309 4134 
L 1259 4134 
L 1259 2759 
L 3109 2759 
L 3109 2228 
L 1259 2228 
L 1259 0 
L 628 0 
L 628 4666 
z
" transform="scale(0.015625)"/>
       <path id="DejaVuSans-5f" d="M 3263 -1063 
L 3263 -1509 
L -63 -1509 
L -63 -1063 
L 3263 -1063 
z
" transform="scale(0.015625)"/>
       <path id="DejaVuSans-77" d="M 269 3500 
L 844 3500 
L 1563 769 
L 2278 3500 
L 2956 3500 
L 3675 769 
L 4391 3500 
L 4966 3500 
L 4050 0 
L 3372 0 
L 2619 2869 
L 1863 0 
L 1184 0 
L 269 3500 
z
" transform="scale(0.015625)"/>
      </defs>
      <use xlink:href="#DejaVuSans-44"/>
      <use xlink:href="#DejaVuSans-45" x="77.001953"/>
      <use xlink:href="#DejaVuSans-46" x="140.185547"/>
      <use xlink:href="#DejaVuSans-5f" x="197.705078"/>
      <use xlink:href="#DejaVuSans-73" x="247.705078"/>
      <use xlink:href="#DejaVuSans-77" x="299.804688"/>
      <use xlink:href="#DejaVuSans-35" x="381.591797"/>
     </g>
    </g>
    <g id="line2d_25">
     <path d="M 336.942187 82.850938 
L 346.942187 82.850938 
L 356.942187 82.850938 
" style="fill: none; stroke: #ff0000; stroke-opacity: 0.5; stroke-width: 0.25; stroke-linecap: square"/>
     <g>
      <use xlink:href="#m8d912851df" x="346.942187" y="82.850938" style="fill: #ff0000; fill-opacity: 0.5"/>
     </g>
    </g>
    <g id="text_21">
     <!-- DEF_sw5 mean -->
     <g transform="translate(364.942187 86.350938) scale(0.1 -0.1)">
      <use xlink:href="#DejaVuSans-44"/>
      <use xlink:href="#DejaVuSans-45" x="77.001953"/>
      <use xlink:href="#DejaVuSans-46" x="140.185547"/>
      <use xlink:href="#DejaVuSans-5f" x="197.705078"/>
      <use xlink:href="#DejaVuSans-73" x="247.705078"/>
      <use xlink:href="#DejaVuSans-77" x="299.804688"/>
      <use xlink:href="#DejaVuSans-35" x="381.591797"/>
      <use xlink:href="#DejaVuSans-20" x="445.214844"/>
      <use xlink:href="#DejaVuSans-6d" x="477.001953"/>
      <use xlink:href="#DejaVuSans-65" x="574.414062"/>
      <use xlink:href="#DejaVuSans-61" x="635.9375"/>
      <use xlink:href="#DejaVuSans-6e" x="697.216797"/>
     </g>
    </g>
   </g>
  </g>
 </g>
 <defs>
  <clipPath id="pced6d9520c">
   <rect x="56.18" y="25.44" width="393.82" height="278.2"/>
  </clipPath>
 </defs>
</svg>
