<?xml version="1.0" encoding="utf-8" standalone="no"?>
<!DOCTYPE svg PUBLIC "-//W3C//DTD SVG 1.1//EN"
  "http://www.w3.org/Graphics/SVG/1.1/DTD/svg11.dtd">
<svg xmlns:xlink="http://www.w3.org/1999/xlink" width="460.8pt" height="345.6pt" viewBox="0 0 460.8 345.6" xmlns="http://www.w3.org/2000/svg" version="1.1">
 <metadata>
  <rdf:RDF xmlns:dc="http://purl.org/dc/elements/1.1/" xmlns:cc="http://creativecommons.org/ns#" xmlns:rdf="http://www.w3.org/1999/02/22-rdf-syntax-ns#">
   <cc:Work>
    <dc:type rdf:resource="http://purl.org/dc/dcmitype/StillImage"/>
    <dc:date>2024-04-29T11:04:50.141544</dc:date>
    <dc:format>image/svg+xml</dc:format>
    <dc:creator>
     <cc:Agent>
      <dc:title>Matplotlib v3.8.0, https://matplotlib.org/</dc:title>
     </cc:Agent>
    </dc:creator>
   </cc:Work>
  </rdf:RDF>
 </metadata>
 <defs>
  <style type="text/css">*{stroke-linejoin: round; stroke-linecap: butt}</style>
 </defs>
 <g id="figure_1">
  <g id="patch_1">
   <path d="M 0 345.6 
L 460.8 345.6 
L 460.8 0 
L 0 0 
z
" style="fill: #ffffff"/>
  </g>
  <g id="axes_1">
   <g id="patch_2">
    <path d="M 47.81 303.64 
L 450 303.64 
L 450 25.44 
L 47.81 25.44 
z
" style="fill: #ffffff"/>
   </g>
   <g id="PolyCollection_1">
    <defs>
     <path id="mc966666487" d="M 66.091364 -186.118182 
L 66.091364 -186.118182 
L 69.822254 -234.964306 
L 73.553145 -244.441825 
L 77.284035 -247.562684 
L 81.014926 -250.062211 
L 84.745816 -250.537011 
L 88.476707 -249.574442 
L 92.207597 -248.271451 
L 95.938488 -246.972385 
L 99.669378 -245.877995 
L 103.400269 -244.86462 
L 107.13116 -243.877479 
L 110.86205 -243.024188 
L 114.592941 -242.387049 
L 118.323831 -241.796606 
L 122.054722 -241.32042 
L 125.785612 -240.868553 
L 129.516503 -240.548066 
L 133.247393 -240.188971 
L 136.978284 -239.8433 
L 140.709174 -239.501073 
L 144.440065 -239.147985 
L 148.170955 -238.784782 
L 151.901846 -238.461154 
L 155.632737 -238.160013 
L 159.363627 -237.87897 
L 163.094518 -237.590648 
L 166.825408 -237.334763 
L 170.556299 -237.072961 
L 174.287189 -236.843046 
L 178.01808 -236.614676 
L 181.74897 -236.399183 
L 185.479861 -236.192132 
L 189.210751 -235.996132 
L 192.941642 -235.798764 
L 196.672532 -235.606328 
L 200.403423 -235.42351 
L 204.134314 -235.25199 
L 207.865204 -235.090978 
L 211.596095 -234.920722 
L 215.326985 -234.758229 
L 219.057876 -234.591487 
L 222.788766 -234.436544 
L 226.519657 -234.278248 
L 230.250547 -234.131891 
L 233.981438 -233.979259 
L 237.712328 -233.829524 
L 241.443219 -233.680977 
L 245.174109 -233.538643 
L 248.905 -233.394141 
L 252.635891 -233.253792 
L 256.366781 -233.114754 
L 260.097672 -232.979488 
L 263.828562 -232.846499 
L 267.559453 -232.717874 
L 271.290343 -232.589791 
L 275.021234 -232.465586 
L 278.752124 -232.343727 
L 282.483015 -232.227347 
L 286.213905 -232.114386 
L 289.944796 -232.007457 
L 293.675686 -231.904408 
L 297.406577 -231.811323 
L 301.137468 -231.722758 
L 304.868358 -231.642734 
L 308.599249 -231.561232 
L 312.330139 -231.489768 
L 316.06103 -231.416387 
L 319.79192 -231.347742 
L 323.522811 -231.278833 
L 327.253701 -231.212036 
L 330.984592 -231.14504 
L 334.715482 -231.079338 
L 338.446373 -231.01628 
L 342.177263 -230.955072 
L 345.908154 -230.894963 
L 349.639045 -230.836582 
L 353.369935 -230.779862 
L 357.100826 -230.724743 
L 360.831716 -230.667493 
L 364.562607 -230.609011 
L 368.293497 -230.55105 
L 372.024388 -230.495678 
L 375.755278 -230.441256 
L 379.486169 -230.388781 
L 383.217059 -230.337681 
L 386.94795 -230.289987 
L 390.67884 -230.24406 
L 394.409731 -230.198795 
L 398.140622 -230.155202 
L 401.871512 -230.108346 
L 405.602403 -230.063574 
L 409.333293 -230.018553 
L 413.064184 -229.975521 
L 416.795074 -229.934439 
L 420.525965 -229.895263 
L 424.256855 -229.855693 
L 427.987746 -229.817505 
L 431.718636 -229.780224 
L 431.718636 -218.521533 
L 431.718636 -218.521533 
L 427.987746 -218.502381 
L 424.256855 -218.483393 
L 420.525965 -218.46523 
L 416.795074 -218.44534 
L 413.064184 -218.426961 
L 409.333293 -218.410229 
L 405.602403 -218.395286 
L 401.871512 -218.378525 
L 398.140622 -218.363659 
L 394.409731 -218.342351 
L 390.67884 -218.322016 
L 386.94795 -218.301163 
L 383.217059 -218.281384 
L 379.486169 -218.265345 
L 375.755278 -218.249822 
L 372.024388 -218.235785 
L 368.293497 -218.221446 
L 364.562607 -218.209752 
L 360.831716 -218.196829 
L 357.100826 -218.179552 
L 353.369935 -218.156791 
L 349.639045 -218.1344 
L 345.908154 -218.112426 
L 342.177263 -218.090916 
L 338.446373 -218.068799 
L 334.715482 -218.047201 
L 330.984592 -218.027388 
L 327.253701 -218.007032 
L 323.522811 -217.983571 
L 319.79192 -217.9607 
L 316.06103 -217.934487 
L 312.330139 -217.912947 
L 308.599249 -217.885104 
L 304.868358 -217.871338 
L 301.137468 -217.85096 
L 297.406577 -217.843351 
L 293.675686 -217.841238 
L 289.944796 -217.861313 
L 286.213905 -217.887363 
L 282.483015 -217.929363 
L 278.752124 -217.976886 
L 275.021234 -218.043765 
L 271.290343 -218.109794 
L 267.559453 -218.186468 
L 263.828562 -218.247558 
L 260.097672 -218.319347 
L 256.366781 -218.386743 
L 252.635891 -218.459178 
L 248.905 -218.51984 
L 245.174109 -218.585122 
L 241.443219 -218.623203 
L 237.712328 -218.671535 
L 233.981438 -218.708521 
L 230.250547 -218.740719 
L 226.519657 -218.740943 
L 222.788766 -218.760998 
L 219.057876 -218.758017 
L 215.326985 -218.771963 
L 211.596095 -218.760419 
L 207.865204 -218.752491 
L 204.134314 -218.711665 
L 200.403423 -218.676791 
L 196.672532 -218.649004 
L 192.941642 -218.624145 
L 189.210751 -218.591226 
L 185.479861 -218.537438 
L 181.74897 -218.484588 
L 178.01808 -218.426445 
L 174.287189 -218.369316 
L 170.556299 -218.291317 
L 166.825408 -218.245023 
L 163.094518 -218.158779 
L 159.363627 -218.099467 
L 155.632737 -217.993126 
L 151.901846 -217.883839 
L 148.170955 -217.771679 
L 144.440065 -217.682487 
L 140.709174 -217.525734 
L 136.978284 -217.304224 
L 133.247393 -217.03493 
L 129.516503 -216.723723 
L 125.785612 -216.314078 
L 122.054722 -215.964401 
L 118.323831 -215.55196 
L 114.592941 -215.163835 
L 110.86205 -214.697144 
L 107.13116 -214.353054 
L 103.400269 -213.979488 
L 99.669378 -213.349863 
L 95.938488 -212.479255 
L 92.207597 -211.403714 
L 88.476707 -209.765877 
L 84.745816 -207.182625 
L 81.014926 -203.172504 
L 77.284035 -197.595801 
L 73.553145 -189.616761 
L 69.822254 -177.737512 
L 66.091364 -186.118182 
z
" style="stroke: #ff0000; stroke-opacity: 0.2"/>
    </defs>
    <g clip-path="url(#p0b440697bb)">
     <use xlink:href="#mc966666487" x="0" y="345.6" style="fill: #ff0000; fill-opacity: 0.2; stroke: #ff0000; stroke-opacity: 0.2"/>
    </g>
   </g>
   <g id="matplotlib.axis_1">
    <g id="xtick_1">
     <g id="line2d_1">
      <defs>
       <path id="mcf6e9366e7" d="M 0 0 
L 0 3.5 
" style="stroke: #000000; stroke-width: 0.8"/>
      </defs>
      <g>
       <use xlink:href="#mcf6e9366e7" x="66.091364" y="303.64" style="stroke: #000000; stroke-width: 0.8"/>
      </g>
     </g>
     <g id="text_1">
      <!-- 0 -->
      <g transform="translate(62.910114 318.238437) scale(0.1 -0.1)">
       <defs>
        <path id="DejaVuSans-30" d="M 2034 4250 
Q 1547 4250 1301 3770 
Q 1056 3291 1056 2328 
Q 1056 1369 1301 889 
Q 1547 409 2034 409 
Q 2525 409 2770 889 
Q 3016 1369 3016 2328 
Q 3016 3291 2770 3770 
Q 2525 4250 2034 4250 
z
M 2034 4750 
Q 2819 4750 3233 4129 
Q 3647 3509 3647 2328 
Q 3647 1150 3233 529 
Q 2819 -91 2034 -91 
Q 1250 -91 836 529 
Q 422 1150 422 2328 
Q 422 3509 836 4129 
Q 1250 4750 2034 4750 
z
" transform="scale(0.015625)"/>
       </defs>
       <use xlink:href="#DejaVuSans-30"/>
      </g>
     </g>
    </g>
    <g id="xtick_2">
     <g id="line2d_2">
      <g>
       <use xlink:href="#mcf6e9366e7" x="140.709174" y="303.64" style="stroke: #000000; stroke-width: 0.8"/>
      </g>
     </g>
     <g id="text_2">
      <!-- 20 -->
      <g transform="translate(134.346674 318.238437) scale(0.1 -0.1)">
       <defs>
        <path id="DejaVuSans-32" d="M 1228 531 
L 3431 531 
L 3431 0 
L 469 0 
L 469 531 
Q 828 903 1448 1529 
Q 2069 2156 2228 2338 
Q 2531 2678 2651 2914 
Q 2772 3150 2772 3378 
Q 2772 3750 2511 3984 
Q 2250 4219 1831 4219 
Q 1534 4219 1204 4116 
Q 875 4013 500 3803 
L 500 4441 
Q 881 4594 1212 4672 
Q 1544 4750 1819 4750 
Q 2544 4750 2975 4387 
Q 3406 4025 3406 3419 
Q 3406 3131 3298 2873 
Q 3191 2616 2906 2266 
Q 2828 2175 2409 1742 
Q 1991 1309 1228 531 
z
" transform="scale(0.015625)"/>
       </defs>
       <use xlink:href="#DejaVuSans-32"/>
       <use xlink:href="#DejaVuSans-30" x="63.623047"/>
      </g>
     </g>
    </g>
    <g id="xtick_3">
     <g id="line2d_3">
      <g>
       <use xlink:href="#mcf6e9366e7" x="215.326985" y="303.64" style="stroke: #000000; stroke-width: 0.8"/>
      </g>
     </g>
     <g id="text_3">
      <!-- 40 -->
      <g transform="translate(208.964485 318.238437) scale(0.1 -0.1)">
       <defs>
        <path id="DejaVuSans-34" d="M 2419 4116 
L 825 1625 
L 2419 1625 
L 2419 4116 
z
M 2253 4666 
L 3047 4666 
L 3047 1625 
L 3713 1625 
L 3713 1100 
L 3047 1100 
L 3047 0 
L 2419 0 
L 2419 1100 
L 313 1100 
L 313 1709 
L 2253 4666 
z
" transform="scale(0.015625)"/>
       </defs>
       <use xlink:href="#DejaVuSans-34"/>
       <use xlink:href="#DejaVuSans-30" x="63.623047"/>
      </g>
     </g>
    </g>
    <g id="xtick_4">
     <g id="line2d_4">
      <g>
       <use xlink:href="#mcf6e9366e7" x="289.944796" y="303.64" style="stroke: #000000; stroke-width: 0.8"/>
      </g>
     </g>
     <g id="text_4">
      <!-- 60 -->
      <g transform="translate(283.582296 318.238437) scale(0.1 -0.1)">
       <defs>
        <path id="DejaVuSans-36" d="M 2113 2584 
Q 1688 2584 1439 2293 
Q 1191 2003 1191 1497 
Q 1191 994 1439 701 
Q 1688 409 2113 409 
Q 2538 409 2786 701 
Q 3034 994 3034 1497 
Q 3034 2003 2786 2293 
Q 2538 2584 2113 2584 
z
M 3366 4563 
L 3366 3988 
Q 3128 4100 2886 4159 
Q 2644 4219 2406 4219 
Q 1781 4219 1451 3797 
Q 1122 3375 1075 2522 
Q 1259 2794 1537 2939 
Q 1816 3084 2150 3084 
Q 2853 3084 3261 2657 
Q 3669 2231 3669 1497 
Q 3669 778 3244 343 
Q 2819 -91 2113 -91 
Q 1303 -91 875 529 
Q 447 1150 447 2328 
Q 447 3434 972 4092 
Q 1497 4750 2381 4750 
Q 2619 4750 2861 4703 
Q 3103 4656 3366 4563 
z
" transform="scale(0.015625)"/>
       </defs>
       <use xlink:href="#DejaVuSans-36"/>
       <use xlink:href="#DejaVuSans-30" x="63.623047"/>
      </g>
     </g>
    </g>
    <g id="xtick_5">
     <g id="line2d_5">
      <g>
       <use xlink:href="#mcf6e9366e7" x="364.562607" y="303.64" style="stroke: #000000; stroke-width: 0.8"/>
      </g>
     </g>
     <g id="text_5">
      <!-- 80 -->
      <g transform="translate(358.200107 318.238437) scale(0.1 -0.1)">
       <defs>
        <path id="DejaVuSans-38" d="M 2034 2216 
Q 1584 2216 1326 1975 
Q 1069 1734 1069 1313 
Q 1069 891 1326 650 
Q 1584 409 2034 409 
Q 2484 409 2743 651 
Q 3003 894 3003 1313 
Q 3003 1734 2745 1975 
Q 2488 2216 2034 2216 
z
M 1403 2484 
Q 997 2584 770 2862 
Q 544 3141 544 3541 
Q 544 4100 942 4425 
Q 1341 4750 2034 4750 
Q 2731 4750 3128 4425 
Q 3525 4100 3525 3541 
Q 3525 3141 3298 2862 
Q 3072 2584 2669 2484 
Q 3125 2378 3379 2068 
Q 3634 1759 3634 1313 
Q 3634 634 3220 271 
Q 2806 -91 2034 -91 
Q 1263 -91 848 271 
Q 434 634 434 1313 
Q 434 1759 690 2068 
Q 947 2378 1403 2484 
z
M 1172 3481 
Q 1172 3119 1398 2916 
Q 1625 2713 2034 2713 
Q 2441 2713 2670 2916 
Q 2900 3119 2900 3481 
Q 2900 3844 2670 4047 
Q 2441 4250 2034 4250 
Q 1625 4250 1398 4047 
Q 1172 3844 1172 3481 
z
" transform="scale(0.015625)"/>
       </defs>
       <use xlink:href="#DejaVuSans-38"/>
       <use xlink:href="#DejaVuSans-30" x="63.623047"/>
      </g>
     </g>
    </g>
    <g id="xtick_6">
     <g id="line2d_6">
      <g>
       <use xlink:href="#mcf6e9366e7" x="439.180417" y="303.64" style="stroke: #000000; stroke-width: 0.8"/>
      </g>
     </g>
     <g id="text_6">
      <!-- 100 -->
      <g transform="translate(429.636667 318.238437) scale(0.1 -0.1)">
       <defs>
        <path id="DejaVuSans-31" d="M 794 531 
L 1825 531 
L 1825 4091 
L 703 3866 
L 703 4441 
L 1819 4666 
L 2450 4666 
L 2450 531 
L 3481 531 
L 3481 0 
L 794 0 
L 794 531 
z
" transform="scale(0.015625)"/>
       </defs>
       <use xlink:href="#DejaVuSans-31"/>
       <use xlink:href="#DejaVuSans-30" x="63.623047"/>
       <use xlink:href="#DejaVuSans-30" x="127.246094"/>
      </g>
     </g>
    </g>
    <g id="text_7">
     <!-- Iteration -->
     <g transform="translate(227.696406 331.916562) scale(0.1 -0.1)">
      <defs>
       <path id="DejaVuSans-49" d="M 628 4666 
L 1259 4666 
L 1259 0 
L 628 0 
L 628 4666 
z
" transform="scale(0.015625)"/>
       <path id="DejaVuSans-74" d="M 1172 4494 
L 1172 3500 
L 2356 3500 
L 2356 3053 
L 1172 3053 
L 1172 1153 
Q 1172 725 1289 603 
Q 1406 481 1766 481 
L 2356 481 
L 2356 0 
L 1766 0 
Q 1100 0 847 248 
Q 594 497 594 1153 
L 594 3053 
L 172 3053 
L 172 3500 
L 594 3500 
L 594 4494 
L 1172 4494 
z
" transform="scale(0.015625)"/>
       <path id="DejaVuSans-65" d="M 3597 1894 
L 3597 1613 
L 953 1613 
Q 991 1019 1311 708 
Q 1631 397 2203 397 
Q 2534 397 2845 478 
Q 3156 559 3463 722 
L 3463 178 
Q 3153 47 2828 -22 
Q 2503 -91 2169 -91 
Q 1331 -91 842 396 
Q 353 884 353 1716 
Q 353 2575 817 3079 
Q 1281 3584 2069 3584 
Q 2775 3584 3186 3129 
Q 3597 2675 3597 1894 
z
M 3022 2063 
Q 3016 2534 2758 2815 
Q 2500 3097 2075 3097 
Q 1594 3097 1305 2825 
Q 1016 2553 972 2059 
L 3022 2063 
z
" transform="scale(0.015625)"/>
       <path id="DejaVuSans-72" d="M 2631 2963 
Q 2534 3019 2420 3045 
Q 2306 3072 2169 3072 
Q 1681 3072 1420 2755 
Q 1159 2438 1159 1844 
L 1159 0 
L 581 0 
L 581 3500 
L 1159 3500 
L 1159 2956 
Q 1341 3275 1631 3429 
Q 1922 3584 2338 3584 
Q 2397 3584 2469 3576 
Q 2541 3569 2628 3553 
L 2631 2963 
z
" transform="scale(0.015625)"/>
       <path id="DejaVuSans-61" d="M 2194 1759 
Q 1497 1759 1228 1600 
Q 959 1441 959 1056 
Q 959 750 1161 570 
Q 1363 391 1709 391 
Q 2188 391 2477 730 
Q 2766 1069 2766 1631 
L 2766 1759 
L 2194 1759 
z
M 3341 1997 
L 3341 0 
L 2766 0 
L 2766 531 
Q 2569 213 2275 61 
Q 1981 -91 1556 -91 
Q 1019 -91 701 211 
Q 384 513 384 1019 
Q 384 1609 779 1909 
Q 1175 2209 1959 2209 
L 2766 2209 
L 2766 2266 
Q 2766 2663 2505 2880 
Q 2244 3097 1772 3097 
Q 1472 3097 1187 3025 
Q 903 2953 641 2809 
L 641 3341 
Q 956 3463 1253 3523 
Q 1550 3584 1831 3584 
Q 2591 3584 2966 3190 
Q 3341 2797 3341 1997 
z
" transform="scale(0.015625)"/>
       <path id="DejaVuSans-69" d="M 603 3500 
L 1178 3500 
L 1178 0 
L 603 0 
L 603 3500 
z
M 603 4863 
L 1178 4863 
L 1178 4134 
L 603 4134 
L 603 4863 
z
" transform="scale(0.015625)"/>
       <path id="DejaVuSans-6f" d="M 1959 3097 
Q 1497 3097 1228 2736 
Q 959 2375 959 1747 
Q 959 1119 1226 758 
Q 1494 397 1959 397 
Q 2419 397 2687 759 
Q 2956 1122 2956 1747 
Q 2956 2369 2687 2733 
Q 2419 3097 1959 3097 
z
M 1959 3584 
Q 2709 3584 3137 3096 
Q 3566 2609 3566 1747 
Q 3566 888 3137 398 
Q 2709 -91 1959 -91 
Q 1206 -91 779 398 
Q 353 888 353 1747 
Q 353 2609 779 3096 
Q 1206 3584 1959 3584 
z
" transform="scale(0.015625)"/>
       <path id="DejaVuSans-6e" d="M 3513 2113 
L 3513 0 
L 2938 0 
L 2938 2094 
Q 2938 2591 2744 2837 
Q 2550 3084 2163 3084 
Q 1697 3084 1428 2787 
Q 1159 2491 1159 1978 
L 1159 0 
L 581 0 
L 581 3500 
L 1159 3500 
L 1159 2956 
Q 1366 3272 1645 3428 
Q 1925 3584 2291 3584 
Q 2894 3584 3203 3211 
Q 3513 2838 3513 2113 
z
" transform="scale(0.015625)"/>
      </defs>
      <use xlink:href="#DejaVuSans-49"/>
      <use xlink:href="#DejaVuSans-74" x="29.492188"/>
      <use xlink:href="#DejaVuSans-65" x="68.701172"/>
      <use xlink:href="#DejaVuSans-72" x="130.224609"/>
      <use xlink:href="#DejaVuSans-61" x="171.337891"/>
      <use xlink:href="#DejaVuSans-74" x="232.617188"/>
      <use xlink:href="#DejaVuSans-69" x="271.826172"/>
      <use xlink:href="#DejaVuSans-6f" x="299.609375"/>
      <use xlink:href="#DejaVuSans-6e" x="360.791016"/>
     </g>
    </g>
   </g>
   <g id="matplotlib.axis_2">
    <g id="ytick_1">
     <g id="line2d_7">
      <defs>
       <path id="m634e5f9de5" d="M 0 0 
L -3.5 0 
" style="stroke: #000000; stroke-width: 0.8"/>
      </defs>
      <g>
       <use xlink:href="#m634e5f9de5" x="47.81" y="290.994545" style="stroke: #000000; stroke-width: 0.8"/>
      </g>
     </g>
     <g id="text_8">
      <!-- 0.0 -->
      <g transform="translate(24.906875 294.793764) scale(0.1 -0.1)">
       <defs>
        <path id="DejaVuSans-2e" d="M 684 794 
L 1344 794 
L 1344 0 
L 684 0 
L 684 794 
z
" transform="scale(0.015625)"/>
       </defs>
       <use xlink:href="#DejaVuSans-30"/>
       <use xlink:href="#DejaVuSans-2e" x="63.623047"/>
       <use xlink:href="#DejaVuSans-30" x="95.410156"/>
      </g>
     </g>
    </g>
    <g id="ytick_2">
     <g id="line2d_8">
      <g>
       <use xlink:href="#m634e5f9de5" x="47.81" y="240.412727" style="stroke: #000000; stroke-width: 0.8"/>
      </g>
     </g>
     <g id="text_9">
      <!-- 0.2 -->
      <g transform="translate(24.906875 244.211946) scale(0.1 -0.1)">
       <use xlink:href="#DejaVuSans-30"/>
       <use xlink:href="#DejaVuSans-2e" x="63.623047"/>
       <use xlink:href="#DejaVuSans-32" x="95.410156"/>
      </g>
     </g>
    </g>
    <g id="ytick_3">
     <g id="line2d_9">
      <g>
       <use xlink:href="#m634e5f9de5" x="47.81" y="189.830909" style="stroke: #000000; stroke-width: 0.8"/>
      </g>
     </g>
     <g id="text_10">
      <!-- 0.4 -->
      <g transform="translate(24.906875 193.630128) scale(0.1 -0.1)">
       <use xlink:href="#DejaVuSans-30"/>
       <use xlink:href="#DejaVuSans-2e" x="63.623047"/>
       <use xlink:href="#DejaVuSans-34" x="95.410156"/>
      </g>
     </g>
    </g>
    <g id="ytick_4">
     <g id="line2d_10">
      <g>
       <use xlink:href="#m634e5f9de5" x="47.81" y="139.249091" style="stroke: #000000; stroke-width: 0.8"/>
      </g>
     </g>
     <g id="text_11">
      <!-- 0.6 -->
      <g transform="translate(24.906875 143.04831) scale(0.1 -0.1)">
       <use xlink:href="#DejaVuSans-30"/>
       <use xlink:href="#DejaVuSans-2e" x="63.623047"/>
       <use xlink:href="#DejaVuSans-36" x="95.410156"/>
      </g>
     </g>
    </g>
    <g id="ytick_5">
     <g id="line2d_11">
      <g>
       <use xlink:href="#m634e5f9de5" x="47.81" y="88.667273" style="stroke: #000000; stroke-width: 0.8"/>
      </g>
     </g>
     <g id="text_12">
      <!-- 0.8 -->
      <g transform="translate(24.906875 92.466491) scale(0.1 -0.1)">
       <use xlink:href="#DejaVuSans-30"/>
       <use xlink:href="#DejaVuSans-2e" x="63.623047"/>
       <use xlink:href="#DejaVuSans-38" x="95.410156"/>
      </g>
     </g>
    </g>
    <g id="ytick_6">
     <g id="line2d_12">
      <g>
       <use xlink:href="#m634e5f9de5" x="47.81" y="38.085455" style="stroke: #000000; stroke-width: 0.8"/>
      </g>
     </g>
     <g id="text_13">
      <!-- 1.0 -->
      <g transform="translate(24.906875 41.884673) scale(0.1 -0.1)">
       <use xlink:href="#DejaVuSans-31"/>
       <use xlink:href="#DejaVuSans-2e" x="63.623047"/>
       <use xlink:href="#DejaVuSans-30" x="95.410156"/>
      </g>
     </g>
    </g>
    <g id="text_14">
     <!-- Similarity -->
     <g transform="translate(18.827187 188.179844) rotate(-90) scale(0.1 -0.1)">
      <defs>
       <path id="DejaVuSans-53" d="M 3425 4513 
L 3425 3897 
Q 3066 4069 2747 4153 
Q 2428 4238 2131 4238 
Q 1616 4238 1336 4038 
Q 1056 3838 1056 3469 
Q 1056 3159 1242 3001 
Q 1428 2844 1947 2747 
L 2328 2669 
Q 3034 2534 3370 2195 
Q 3706 1856 3706 1288 
Q 3706 609 3251 259 
Q 2797 -91 1919 -91 
Q 1588 -91 1214 -16 
Q 841 59 441 206 
L 441 856 
Q 825 641 1194 531 
Q 1563 422 1919 422 
Q 2459 422 2753 634 
Q 3047 847 3047 1241 
Q 3047 1584 2836 1778 
Q 2625 1972 2144 2069 
L 1759 2144 
Q 1053 2284 737 2584 
Q 422 2884 422 3419 
Q 422 4038 858 4394 
Q 1294 4750 2059 4750 
Q 2388 4750 2728 4690 
Q 3069 4631 3425 4513 
z
" transform="scale(0.015625)"/>
       <path id="DejaVuSans-6d" d="M 3328 2828 
Q 3544 3216 3844 3400 
Q 4144 3584 4550 3584 
Q 5097 3584 5394 3201 
Q 5691 2819 5691 2113 
L 5691 0 
L 5113 0 
L 5113 2094 
Q 5113 2597 4934 2840 
Q 4756 3084 4391 3084 
Q 3944 3084 3684 2787 
Q 3425 2491 3425 1978 
L 3425 0 
L 2847 0 
L 2847 2094 
Q 2847 2600 2669 2842 
Q 2491 3084 2119 3084 
Q 1678 3084 1418 2786 
Q 1159 2488 1159 1978 
L 1159 0 
L 581 0 
L 581 3500 
L 1159 3500 
L 1159 2956 
Q 1356 3278 1631 3431 
Q 1906 3584 2284 3584 
Q 2666 3584 2933 3390 
Q 3200 3197 3328 2828 
z
" transform="scale(0.015625)"/>
       <path id="DejaVuSans-6c" d="M 603 4863 
L 1178 4863 
L 1178 0 
L 603 0 
L 603 4863 
z
" transform="scale(0.015625)"/>
       <path id="DejaVuSans-79" d="M 2059 -325 
Q 1816 -950 1584 -1140 
Q 1353 -1331 966 -1331 
L 506 -1331 
L 506 -850 
L 844 -850 
Q 1081 -850 1212 -737 
Q 1344 -625 1503 -206 
L 1606 56 
L 191 3500 
L 800 3500 
L 1894 763 
L 2988 3500 
L 3597 3500 
L 2059 -325 
z
" transform="scale(0.015625)"/>
      </defs>
      <use xlink:href="#DejaVuSans-53"/>
      <use xlink:href="#DejaVuSans-69" x="63.476562"/>
      <use xlink:href="#DejaVuSans-6d" x="91.259766"/>
      <use xlink:href="#DejaVuSans-69" x="188.671875"/>
      <use xlink:href="#DejaVuSans-6c" x="216.455078"/>
      <use xlink:href="#DejaVuSans-61" x="244.238281"/>
      <use xlink:href="#DejaVuSans-72" x="305.517578"/>
      <use xlink:href="#DejaVuSans-69" x="346.630859"/>
      <use xlink:href="#DejaVuSans-74" x="374.414062"/>
      <use xlink:href="#DejaVuSans-79" x="413.623047"/>
     </g>
    </g>
   </g>
   <g id="line2d_13">
    <path d="M 66.091364 159.481818 
L 69.822254 119.016364 
L 73.553145 107.213939 
L 77.284035 106.370909 
L 81.014926 102.830182 
L 84.745816 105.527879 
L 88.476707 111.067792 
L 92.207597 114.590455 
L 95.938488 116.768283 
L 99.669378 116.993091 
L 103.400269 118.096694 
L 107.13116 119.859394 
L 110.86205 119.794545 
L 114.592941 117.932468 
L 118.323831 118.341939 
L 122.054722 117.435682 
L 125.785612 117.826203 
L 129.516503 116.206263 
L 133.247393 117.419043 
L 136.978284 117.751818 
L 140.709174 118.293766 
L 144.440065 119.246281 
L 148.170955 120.335889 
L 151.901846 119.859394 
L 155.632737 119.825673 
L 159.363627 119.794545 
L 163.094518 120.702424 
L 166.825408 120.10026 
L 170.556299 120.934984 
L 174.287189 120.196606 
L 178.01808 120.648035 
L 181.74897 120.597045 
L 185.479861 120.702424 
L 189.210751 120.652834 
L 192.941642 121.184156 
L 196.672532 121.404949 
L 200.403423 121.340393 
L 204.134314 121.146124 
L 207.865204 120.961818 
L 211.596095 121.924818 
L 215.326985 121.85388 
L 219.057876 122.629351 
L 222.788766 122.192431 
L 226.519657 122.924959 
L 230.250547 122.388485 
L 233.981438 123.414783 
L 237.712328 123.644062 
L 241.443219 124.074545 
L 245.174109 123.868089 
L 248.905 124.782691 
L 252.635891 124.768806 
L 256.366781 125.241818 
L 260.097672 125.219794 
L 263.828562 125.479596 
L 267.559453 125.270116 
L 271.290343 125.881039 
L 275.021234 125.671866 
L 278.752124 125.818746 
L 282.483015 125.274792 
L 286.213905 125.170485 
L 289.944796 124.654993 
L 293.675686 124.482463 
L 297.406577 123.592814 
L 301.137468 123.363239 
L 304.868358 122.751636 
L 308.599249 123.078237 
L 312.330139 122.338155 
L 316.06103 122.66123 
L 319.79192 122.388485 
L 323.522811 122.557091 
L 327.253701 122.507222 
L 330.984592 122.669495 
L 334.715482 122.688742 
L 338.446373 122.570762 
L 342.177263 122.52337 
L 345.908154 122.54378 
L 349.639045 122.497969 
L 353.369935 122.453333 
L 357.100826 122.409827 
L 360.831716 122.746773 
L 364.562607 123.012952 
L 368.293497 123.087583 
L 372.024388 122.916648 
L 375.755278 122.930433 
L 379.486169 122.824877 
L 383.217059 122.780592 
L 386.94795 122.504765 
L 390.67884 122.407645 
L 394.409731 122.426374 
L 398.140622 122.332283 
L 401.871512 122.796104 
L 405.602403 122.645059 
L 409.333293 122.769208 
L 413.064184 122.621663 
L 416.795074 122.477225 
L 420.525965 122.335795 
L 424.256855 122.458013 
L 427.987746 122.37128 
L 431.718636 122.337392 
" clip-path="url(#p0b440697bb)" style="fill: none; stroke: #0000ff; stroke-linecap: square"/>
    <defs>
     <path id="m776075e50f" d="M -0.49999 0.49999 
L 0.50001 0.49999 
L 0.50001 -0.50001 
L -0.49999 -0.50001 
z
"/>
    </defs>
    <g clip-path="url(#p0b440697bb)">
     <use xlink:href="#m776075e50f" x="66.091364" y="159.481818" style="fill: #0000ff"/>
     <use xlink:href="#m776075e50f" x="69.822254" y="119.016364" style="fill: #0000ff"/>
     <use xlink:href="#m776075e50f" x="73.553145" y="107.213939" style="fill: #0000ff"/>
     <use xlink:href="#m776075e50f" x="77.284035" y="106.370909" style="fill: #0000ff"/>
     <use xlink:href="#m776075e50f" x="81.014926" y="102.830182" style="fill: #0000ff"/>
     <use xlink:href="#m776075e50f" x="84.745816" y="105.527879" style="fill: #0000ff"/>
     <use xlink:href="#m776075e50f" x="88.476707" y="111.067792" style="fill: #0000ff"/>
     <use xlink:href="#m776075e50f" x="92.207597" y="114.590455" style="fill: #0000ff"/>
     <use xlink:href="#m776075e50f" x="95.938488" y="116.768283" style="fill: #0000ff"/>
     <use xlink:href="#m776075e50f" x="99.669378" y="116.993091" style="fill: #0000ff"/>
     <use xlink:href="#m776075e50f" x="103.400269" y="118.096694" style="fill: #0000ff"/>
     <use xlink:href="#m776075e50f" x="107.13116" y="119.859394" style="fill: #0000ff"/>
     <use xlink:href="#m776075e50f" x="110.86205" y="119.794545" style="fill: #0000ff"/>
     <use xlink:href="#m776075e50f" x="114.592941" y="117.932468" style="fill: #0000ff"/>
     <use xlink:href="#m776075e50f" x="118.323831" y="118.341939" style="fill: #0000ff"/>
     <use xlink:href="#m776075e50f" x="122.054722" y="117.435682" style="fill: #0000ff"/>
     <use xlink:href="#m776075e50f" x="125.785612" y="117.826203" style="fill: #0000ff"/>
     <use xlink:href="#m776075e50f" x="129.516503" y="116.206263" style="fill: #0000ff"/>
     <use xlink:href="#m776075e50f" x="133.247393" y="117.419043" style="fill: #0000ff"/>
     <use xlink:href="#m776075e50f" x="136.978284" y="117.751818" style="fill: #0000ff"/>
     <use xlink:href="#m776075e50f" x="140.709174" y="118.293766" style="fill: #0000ff"/>
     <use xlink:href="#m776075e50f" x="144.440065" y="119.246281" style="fill: #0000ff"/>
     <use xlink:href="#m776075e50f" x="148.170955" y="120.335889" style="fill: #0000ff"/>
     <use xlink:href="#m776075e50f" x="151.901846" y="119.859394" style="fill: #0000ff"/>
     <use xlink:href="#m776075e50f" x="155.632737" y="119.825673" style="fill: #0000ff"/>
     <use xlink:href="#m776075e50f" x="159.363627" y="119.794545" style="fill: #0000ff"/>
     <use xlink:href="#m776075e50f" x="163.094518" y="120.702424" style="fill: #0000ff"/>
     <use xlink:href="#m776075e50f" x="166.825408" y="120.10026" style="fill: #0000ff"/>
     <use xlink:href="#m776075e50f" x="170.556299" y="120.934984" style="fill: #0000ff"/>
     <use xlink:href="#m776075e50f" x="174.287189" y="120.196606" style="fill: #0000ff"/>
     <use xlink:href="#m776075e50f" x="178.01808" y="120.648035" style="fill: #0000ff"/>
     <use xlink:href="#m776075e50f" x="181.74897" y="120.597045" style="fill: #0000ff"/>
     <use xlink:href="#m776075e50f" x="185.479861" y="120.702424" style="fill: #0000ff"/>
     <use xlink:href="#m776075e50f" x="189.210751" y="120.652834" style="fill: #0000ff"/>
     <use xlink:href="#m776075e50f" x="192.941642" y="121.184156" style="fill: #0000ff"/>
     <use xlink:href="#m776075e50f" x="196.672532" y="121.404949" style="fill: #0000ff"/>
     <use xlink:href="#m776075e50f" x="200.403423" y="121.340393" style="fill: #0000ff"/>
     <use xlink:href="#m776075e50f" x="204.134314" y="121.146124" style="fill: #0000ff"/>
     <use xlink:href="#m776075e50f" x="207.865204" y="120.961818" style="fill: #0000ff"/>
     <use xlink:href="#m776075e50f" x="211.596095" y="121.924818" style="fill: #0000ff"/>
     <use xlink:href="#m776075e50f" x="215.326985" y="121.85388" style="fill: #0000ff"/>
     <use xlink:href="#m776075e50f" x="219.057876" y="122.629351" style="fill: #0000ff"/>
     <use xlink:href="#m776075e50f" x="222.788766" y="122.192431" style="fill: #0000ff"/>
     <use xlink:href="#m776075e50f" x="226.519657" y="122.924959" style="fill: #0000ff"/>
     <use xlink:href="#m776075e50f" x="230.250547" y="122.388485" style="fill: #0000ff"/>
     <use xlink:href="#m776075e50f" x="233.981438" y="123.414783" style="fill: #0000ff"/>
     <use xlink:href="#m776075e50f" x="237.712328" y="123.644062" style="fill: #0000ff"/>
     <use xlink:href="#m776075e50f" x="241.443219" y="124.074545" style="fill: #0000ff"/>
     <use xlink:href="#m776075e50f" x="245.174109" y="123.868089" style="fill: #0000ff"/>
     <use xlink:href="#m776075e50f" x="248.905" y="124.782691" style="fill: #0000ff"/>
     <use xlink:href="#m776075e50f" x="252.635891" y="124.768806" style="fill: #0000ff"/>
     <use xlink:href="#m776075e50f" x="256.366781" y="125.241818" style="fill: #0000ff"/>
     <use xlink:href="#m776075e50f" x="260.097672" y="125.219794" style="fill: #0000ff"/>
     <use xlink:href="#m776075e50f" x="263.828562" y="125.479596" style="fill: #0000ff"/>
     <use xlink:href="#m776075e50f" x="267.559453" y="125.270116" style="fill: #0000ff"/>
     <use xlink:href="#m776075e50f" x="271.290343" y="125.881039" style="fill: #0000ff"/>
     <use xlink:href="#m776075e50f" x="275.021234" y="125.671866" style="fill: #0000ff"/>
     <use xlink:href="#m776075e50f" x="278.752124" y="125.818746" style="fill: #0000ff"/>
     <use xlink:href="#m776075e50f" x="282.483015" y="125.274792" style="fill: #0000ff"/>
     <use xlink:href="#m776075e50f" x="286.213905" y="125.170485" style="fill: #0000ff"/>
     <use xlink:href="#m776075e50f" x="289.944796" y="124.654993" style="fill: #0000ff"/>
     <use xlink:href="#m776075e50f" x="293.675686" y="124.482463" style="fill: #0000ff"/>
     <use xlink:href="#m776075e50f" x="297.406577" y="123.592814" style="fill: #0000ff"/>
     <use xlink:href="#m776075e50f" x="301.137468" y="123.363239" style="fill: #0000ff"/>
     <use xlink:href="#m776075e50f" x="304.868358" y="122.751636" style="fill: #0000ff"/>
     <use xlink:href="#m776075e50f" x="308.599249" y="123.078237" style="fill: #0000ff"/>
     <use xlink:href="#m776075e50f" x="312.330139" y="122.338155" style="fill: #0000ff"/>
     <use xlink:href="#m776075e50f" x="316.06103" y="122.66123" style="fill: #0000ff"/>
     <use xlink:href="#m776075e50f" x="319.79192" y="122.388485" style="fill: #0000ff"/>
     <use xlink:href="#m776075e50f" x="323.522811" y="122.557091" style="fill: #0000ff"/>
     <use xlink:href="#m776075e50f" x="327.253701" y="122.507222" style="fill: #0000ff"/>
     <use xlink:href="#m776075e50f" x="330.984592" y="122.669495" style="fill: #0000ff"/>
     <use xlink:href="#m776075e50f" x="334.715482" y="122.688742" style="fill: #0000ff"/>
     <use xlink:href="#m776075e50f" x="338.446373" y="122.570762" style="fill: #0000ff"/>
     <use xlink:href="#m776075e50f" x="342.177263" y="122.52337" style="fill: #0000ff"/>
     <use xlink:href="#m776075e50f" x="345.908154" y="122.54378" style="fill: #0000ff"/>
     <use xlink:href="#m776075e50f" x="349.639045" y="122.497969" style="fill: #0000ff"/>
     <use xlink:href="#m776075e50f" x="353.369935" y="122.453333" style="fill: #0000ff"/>
     <use xlink:href="#m776075e50f" x="357.100826" y="122.409827" style="fill: #0000ff"/>
     <use xlink:href="#m776075e50f" x="360.831716" y="122.746773" style="fill: #0000ff"/>
     <use xlink:href="#m776075e50f" x="364.562607" y="123.012952" style="fill: #0000ff"/>
     <use xlink:href="#m776075e50f" x="368.293497" y="123.087583" style="fill: #0000ff"/>
     <use xlink:href="#m776075e50f" x="372.024388" y="122.916648" style="fill: #0000ff"/>
     <use xlink:href="#m776075e50f" x="375.755278" y="122.930433" style="fill: #0000ff"/>
     <use xlink:href="#m776075e50f" x="379.486169" y="122.824877" style="fill: #0000ff"/>
     <use xlink:href="#m776075e50f" x="383.217059" y="122.780592" style="fill: #0000ff"/>
     <use xlink:href="#m776075e50f" x="386.94795" y="122.504765" style="fill: #0000ff"/>
     <use xlink:href="#m776075e50f" x="390.67884" y="122.407645" style="fill: #0000ff"/>
     <use xlink:href="#m776075e50f" x="394.409731" y="122.426374" style="fill: #0000ff"/>
     <use xlink:href="#m776075e50f" x="398.140622" y="122.332283" style="fill: #0000ff"/>
     <use xlink:href="#m776075e50f" x="401.871512" y="122.796104" style="fill: #0000ff"/>
     <use xlink:href="#m776075e50f" x="405.602403" y="122.645059" style="fill: #0000ff"/>
     <use xlink:href="#m776075e50f" x="409.333293" y="122.769208" style="fill: #0000ff"/>
     <use xlink:href="#m776075e50f" x="413.064184" y="122.621663" style="fill: #0000ff"/>
     <use xlink:href="#m776075e50f" x="416.795074" y="122.477225" style="fill: #0000ff"/>
     <use xlink:href="#m776075e50f" x="420.525965" y="122.335795" style="fill: #0000ff"/>
     <use xlink:href="#m776075e50f" x="424.256855" y="122.458013" style="fill: #0000ff"/>
     <use xlink:href="#m776075e50f" x="427.987746" y="122.37128" style="fill: #0000ff"/>
     <use xlink:href="#m776075e50f" x="431.718636" y="122.337392" style="fill: #0000ff"/>
    </g>
   </g>
   <g id="line2d_14">
    <path d="M 66.091364 159.481818 
L 69.822254 139.249091 
L 73.553145 128.570707 
L 77.284035 123.020758 
L 81.014926 118.982642 
L 84.745816 116.740182 
L 88.476707 115.92984 
L 92.207597 115.762417 
L 95.938488 115.87418 
L 99.669378 115.986071 
L 103.400269 116.177946 
L 107.13116 116.484733 
L 110.86205 116.739334 
L 114.592941 116.824558 
L 118.323831 116.925717 
L 122.054722 116.95759 
L 125.785612 117.008685 
L 129.516503 116.964106 
L 133.247393 116.98805 
L 136.978284 117.026238 
L 140.709174 117.086597 
L 144.440065 117.184764 
L 148.170955 117.321769 
L 151.901846 117.427504 
L 155.632737 117.523431 
L 159.363627 117.610781 
L 163.094518 117.725286 
L 166.825408 117.810107 
L 170.556299 117.917861 
L 174.287189 117.993819 
L 178.01808 118.079439 
L 181.74897 118.158115 
L 185.479861 118.235215 
L 189.210751 118.306321 
L 192.941642 118.388545 
L 196.672532 118.472334 
L 200.403423 118.549849 
L 204.134314 118.618172 
L 207.865204 118.678266 
L 211.596095 118.75943 
L 215.326985 118.834904 
L 219.057876 118.925248 
L 222.788766 119.001229 
L 226.519657 119.090405 
L 230.250547 119.163695 
L 233.981438 119.25611 
L 237.712328 119.349471 
L 241.443219 119.44791 
L 245.174109 119.538118 
L 248.905 119.643009 
L 252.635891 119.743515 
L 256.366781 119.849252 
L 260.097672 119.950583 
L 263.828562 120.052972 
L 267.559453 120.147829 
L 271.290343 120.250208 
L 275.021234 120.345324 
L 278.752124 120.439694 
L 282.483015 120.521645 
L 286.213905 120.599125 
L 289.944796 120.665615 
L 293.675686 120.727177 
L 297.406577 120.772663 
L 301.137468 120.813141 
L 304.868358 120.842964 
L 308.599249 120.876832 
L 312.330139 120.898643 
L 316.06103 120.924563 
L 319.79192 120.945779 
L 323.522811 120.968798 
L 327.253701 120.990466 
L 330.984592 121.013786 
L 334.715482 121.03673 
L 338.446373 121.057461 
L 342.177263 121.077006 
L 345.908154 121.096306 
L 349.639045 121.114509 
L 353.369935 121.131673 
L 357.100826 121.147853 
L 360.831716 121.167839 
L 364.562607 121.190618 
L 368.293497 121.213752 
L 372.024388 121.234269 
L 375.755278 121.254461 
L 379.486169 121.272937 
L 383.217059 121.290468 
L 386.94795 121.304425 
L 390.67884 121.316962 
L 394.409731 121.329427 
L 398.140622 121.34057 
L 401.871512 121.356565 
L 405.602403 121.37057 
L 409.333293 121.385609 
L 413.064184 121.398759 
L 416.795074 121.410111 
L 420.525965 121.419754 
L 424.256855 121.430457 
L 427.987746 121.440057 
L 431.718636 121.449121 
" clip-path="url(#p0b440697bb)" style="fill: none; stroke: #ff0000; stroke-opacity: 0.5; stroke-width: 0.5; stroke-linecap: square"/>
    <defs>
     <path id="md4aecff684" d="M -0.49999 0.49999 
L 0.50001 0.49999 
L 0.50001 -0.50001 
L -0.49999 -0.50001 
z
"/>
    </defs>
    <g clip-path="url(#p0b440697bb)">
     <use xlink:href="#md4aecff684" x="66.091364" y="159.481818" style="fill: #ff0000; fill-opacity: 0.5"/>
     <use xlink:href="#md4aecff684" x="69.822254" y="139.249091" style="fill: #ff0000; fill-opacity: 0.5"/>
     <use xlink:href="#md4aecff684" x="73.553145" y="128.570707" style="fill: #ff0000; fill-opacity: 0.5"/>
     <use xlink:href="#md4aecff684" x="77.284035" y="123.020758" style="fill: #ff0000; fill-opacity: 0.5"/>
     <use xlink:href="#md4aecff684" x="81.014926" y="118.982642" style="fill: #ff0000; fill-opacity: 0.5"/>
     <use xlink:href="#md4aecff684" x="84.745816" y="116.740182" style="fill: #ff0000; fill-opacity: 0.5"/>
     <use xlink:href="#md4aecff684" x="88.476707" y="115.92984" style="fill: #ff0000; fill-opacity: 0.5"/>
     <use xlink:href="#md4aecff684" x="92.207597" y="115.762417" style="fill: #ff0000; fill-opacity: 0.5"/>
     <use xlink:href="#md4aecff684" x="95.938488" y="115.87418" style="fill: #ff0000; fill-opacity: 0.5"/>
     <use xlink:href="#md4aecff684" x="99.669378" y="115.986071" style="fill: #ff0000; fill-opacity: 0.5"/>
     <use xlink:href="#md4aecff684" x="103.400269" y="116.177946" style="fill: #ff0000; fill-opacity: 0.5"/>
     <use xlink:href="#md4aecff684" x="107.13116" y="116.484733" style="fill: #ff0000; fill-opacity: 0.5"/>
     <use xlink:href="#md4aecff684" x="110.86205" y="116.739334" style="fill: #ff0000; fill-opacity: 0.5"/>
     <use xlink:href="#md4aecff684" x="114.592941" y="116.824558" style="fill: #ff0000; fill-opacity: 0.5"/>
     <use xlink:href="#md4aecff684" x="118.323831" y="116.925717" style="fill: #ff0000; fill-opacity: 0.5"/>
     <use xlink:href="#md4aecff684" x="122.054722" y="116.95759" style="fill: #ff0000; fill-opacity: 0.5"/>
     <use xlink:href="#md4aecff684" x="125.785612" y="117.008685" style="fill: #ff0000; fill-opacity: 0.5"/>
     <use xlink:href="#md4aecff684" x="129.516503" y="116.964106" style="fill: #ff0000; fill-opacity: 0.5"/>
     <use xlink:href="#md4aecff684" x="133.247393" y="116.98805" style="fill: #ff0000; fill-opacity: 0.5"/>
     <use xlink:href="#md4aecff684" x="136.978284" y="117.026238" style="fill: #ff0000; fill-opacity: 0.5"/>
     <use xlink:href="#md4aecff684" x="140.709174" y="117.086597" style="fill: #ff0000; fill-opacity: 0.5"/>
     <use xlink:href="#md4aecff684" x="144.440065" y="117.184764" style="fill: #ff0000; fill-opacity: 0.5"/>
     <use xlink:href="#md4aecff684" x="148.170955" y="117.321769" style="fill: #ff0000; fill-opacity: 0.5"/>
     <use xlink:href="#md4aecff684" x="151.901846" y="117.427504" style="fill: #ff0000; fill-opacity: 0.5"/>
     <use xlink:href="#md4aecff684" x="155.632737" y="117.523431" style="fill: #ff0000; fill-opacity: 0.5"/>
     <use xlink:href="#md4aecff684" x="159.363627" y="117.610781" style="fill: #ff0000; fill-opacity: 0.5"/>
     <use xlink:href="#md4aecff684" x="163.094518" y="117.725286" style="fill: #ff0000; fill-opacity: 0.5"/>
     <use xlink:href="#md4aecff684" x="166.825408" y="117.810107" style="fill: #ff0000; fill-opacity: 0.5"/>
     <use xlink:href="#md4aecff684" x="170.556299" y="117.917861" style="fill: #ff0000; fill-opacity: 0.5"/>
     <use xlink:href="#md4aecff684" x="174.287189" y="117.993819" style="fill: #ff0000; fill-opacity: 0.5"/>
     <use xlink:href="#md4aecff684" x="178.01808" y="118.079439" style="fill: #ff0000; fill-opacity: 0.5"/>
     <use xlink:href="#md4aecff684" x="181.74897" y="118.158115" style="fill: #ff0000; fill-opacity: 0.5"/>
     <use xlink:href="#md4aecff684" x="185.479861" y="118.235215" style="fill: #ff0000; fill-opacity: 0.5"/>
     <use xlink:href="#md4aecff684" x="189.210751" y="118.306321" style="fill: #ff0000; fill-opacity: 0.5"/>
     <use xlink:href="#md4aecff684" x="192.941642" y="118.388545" style="fill: #ff0000; fill-opacity: 0.5"/>
     <use xlink:href="#md4aecff684" x="196.672532" y="118.472334" style="fill: #ff0000; fill-opacity: 0.5"/>
     <use xlink:href="#md4aecff684" x="200.403423" y="118.549849" style="fill: #ff0000; fill-opacity: 0.5"/>
     <use xlink:href="#md4aecff684" x="204.134314" y="118.618172" style="fill: #ff0000; fill-opacity: 0.5"/>
     <use xlink:href="#md4aecff684" x="207.865204" y="118.678266" style="fill: #ff0000; fill-opacity: 0.5"/>
     <use xlink:href="#md4aecff684" x="211.596095" y="118.75943" style="fill: #ff0000; fill-opacity: 0.5"/>
     <use xlink:href="#md4aecff684" x="215.326985" y="118.834904" style="fill: #ff0000; fill-opacity: 0.5"/>
     <use xlink:href="#md4aecff684" x="219.057876" y="118.925248" style="fill: #ff0000; fill-opacity: 0.5"/>
     <use xlink:href="#md4aecff684" x="222.788766" y="119.001229" style="fill: #ff0000; fill-opacity: 0.5"/>
     <use xlink:href="#md4aecff684" x="226.519657" y="119.090405" style="fill: #ff0000; fill-opacity: 0.5"/>
     <use xlink:href="#md4aecff684" x="230.250547" y="119.163695" style="fill: #ff0000; fill-opacity: 0.5"/>
     <use xlink:href="#md4aecff684" x="233.981438" y="119.25611" style="fill: #ff0000; fill-opacity: 0.5"/>
     <use xlink:href="#md4aecff684" x="237.712328" y="119.349471" style="fill: #ff0000; fill-opacity: 0.5"/>
     <use xlink:href="#md4aecff684" x="241.443219" y="119.44791" style="fill: #ff0000; fill-opacity: 0.5"/>
     <use xlink:href="#md4aecff684" x="245.174109" y="119.538118" style="fill: #ff0000; fill-opacity: 0.5"/>
     <use xlink:href="#md4aecff684" x="248.905" y="119.643009" style="fill: #ff0000; fill-opacity: 0.5"/>
     <use xlink:href="#md4aecff684" x="252.635891" y="119.743515" style="fill: #ff0000; fill-opacity: 0.5"/>
     <use xlink:href="#md4aecff684" x="256.366781" y="119.849252" style="fill: #ff0000; fill-opacity: 0.5"/>
     <use xlink:href="#md4aecff684" x="260.097672" y="119.950583" style="fill: #ff0000; fill-opacity: 0.5"/>
     <use xlink:href="#md4aecff684" x="263.828562" y="120.052972" style="fill: #ff0000; fill-opacity: 0.5"/>
     <use xlink:href="#md4aecff684" x="267.559453" y="120.147829" style="fill: #ff0000; fill-opacity: 0.5"/>
     <use xlink:href="#md4aecff684" x="271.290343" y="120.250208" style="fill: #ff0000; fill-opacity: 0.5"/>
     <use xlink:href="#md4aecff684" x="275.021234" y="120.345324" style="fill: #ff0000; fill-opacity: 0.5"/>
     <use xlink:href="#md4aecff684" x="278.752124" y="120.439694" style="fill: #ff0000; fill-opacity: 0.5"/>
     <use xlink:href="#md4aecff684" x="282.483015" y="120.521645" style="fill: #ff0000; fill-opacity: 0.5"/>
     <use xlink:href="#md4aecff684" x="286.213905" y="120.599125" style="fill: #ff0000; fill-opacity: 0.5"/>
     <use xlink:href="#md4aecff684" x="289.944796" y="120.665615" style="fill: #ff0000; fill-opacity: 0.5"/>
     <use xlink:href="#md4aecff684" x="293.675686" y="120.727177" style="fill: #ff0000; fill-opacity: 0.5"/>
     <use xlink:href="#md4aecff684" x="297.406577" y="120.772663" style="fill: #ff0000; fill-opacity: 0.5"/>
     <use xlink:href="#md4aecff684" x="301.137468" y="120.813141" style="fill: #ff0000; fill-opacity: 0.5"/>
     <use xlink:href="#md4aecff684" x="304.868358" y="120.842964" style="fill: #ff0000; fill-opacity: 0.5"/>
     <use xlink:href="#md4aecff684" x="308.599249" y="120.876832" style="fill: #ff0000; fill-opacity: 0.5"/>
     <use xlink:href="#md4aecff684" x="312.330139" y="120.898643" style="fill: #ff0000; fill-opacity: 0.5"/>
     <use xlink:href="#md4aecff684" x="316.06103" y="120.924563" style="fill: #ff0000; fill-opacity: 0.5"/>
     <use xlink:href="#md4aecff684" x="319.79192" y="120.945779" style="fill: #ff0000; fill-opacity: 0.5"/>
     <use xlink:href="#md4aecff684" x="323.522811" y="120.968798" style="fill: #ff0000; fill-opacity: 0.5"/>
     <use xlink:href="#md4aecff684" x="327.253701" y="120.990466" style="fill: #ff0000; fill-opacity: 0.5"/>
     <use xlink:href="#md4aecff684" x="330.984592" y="121.013786" style="fill: #ff0000; fill-opacity: 0.5"/>
     <use xlink:href="#md4aecff684" x="334.715482" y="121.03673" style="fill: #ff0000; fill-opacity: 0.5"/>
     <use xlink:href="#md4aecff684" x="338.446373" y="121.057461" style="fill: #ff0000; fill-opacity: 0.5"/>
     <use xlink:href="#md4aecff684" x="342.177263" y="121.077006" style="fill: #ff0000; fill-opacity: 0.5"/>
     <use xlink:href="#md4aecff684" x="345.908154" y="121.096306" style="fill: #ff0000; fill-opacity: 0.5"/>
     <use xlink:href="#md4aecff684" x="349.639045" y="121.114509" style="fill: #ff0000; fill-opacity: 0.5"/>
     <use xlink:href="#md4aecff684" x="353.369935" y="121.131673" style="fill: #ff0000; fill-opacity: 0.5"/>
     <use xlink:href="#md4aecff684" x="357.100826" y="121.147853" style="fill: #ff0000; fill-opacity: 0.5"/>
     <use xlink:href="#md4aecff684" x="360.831716" y="121.167839" style="fill: #ff0000; fill-opacity: 0.5"/>
     <use xlink:href="#md4aecff684" x="364.562607" y="121.190618" style="fill: #ff0000; fill-opacity: 0.5"/>
     <use xlink:href="#md4aecff684" x="368.293497" y="121.213752" style="fill: #ff0000; fill-opacity: 0.5"/>
     <use xlink:href="#md4aecff684" x="372.024388" y="121.234269" style="fill: #ff0000; fill-opacity: 0.5"/>
     <use xlink:href="#md4aecff684" x="375.755278" y="121.254461" style="fill: #ff0000; fill-opacity: 0.5"/>
     <use xlink:href="#md4aecff684" x="379.486169" y="121.272937" style="fill: #ff0000; fill-opacity: 0.5"/>
     <use xlink:href="#md4aecff684" x="383.217059" y="121.290468" style="fill: #ff0000; fill-opacity: 0.5"/>
     <use xlink:href="#md4aecff684" x="386.94795" y="121.304425" style="fill: #ff0000; fill-opacity: 0.5"/>
     <use xlink:href="#md4aecff684" x="390.67884" y="121.316962" style="fill: #ff0000; fill-opacity: 0.5"/>
     <use xlink:href="#md4aecff684" x="394.409731" y="121.329427" style="fill: #ff0000; fill-opacity: 0.5"/>
     <use xlink:href="#md4aecff684" x="398.140622" y="121.34057" style="fill: #ff0000; fill-opacity: 0.5"/>
     <use xlink:href="#md4aecff684" x="401.871512" y="121.356565" style="fill: #ff0000; fill-opacity: 0.5"/>
     <use xlink:href="#md4aecff684" x="405.602403" y="121.37057" style="fill: #ff0000; fill-opacity: 0.5"/>
     <use xlink:href="#md4aecff684" x="409.333293" y="121.385609" style="fill: #ff0000; fill-opacity: 0.5"/>
     <use xlink:href="#md4aecff684" x="413.064184" y="121.398759" style="fill: #ff0000; fill-opacity: 0.5"/>
     <use xlink:href="#md4aecff684" x="416.795074" y="121.410111" style="fill: #ff0000; fill-opacity: 0.5"/>
     <use xlink:href="#md4aecff684" x="420.525965" y="121.419754" style="fill: #ff0000; fill-opacity: 0.5"/>
     <use xlink:href="#md4aecff684" x="424.256855" y="121.430457" style="fill: #ff0000; fill-opacity: 0.5"/>
     <use xlink:href="#md4aecff684" x="427.987746" y="121.440057" style="fill: #ff0000; fill-opacity: 0.5"/>
     <use xlink:href="#md4aecff684" x="431.718636" y="121.449121" style="fill: #ff0000; fill-opacity: 0.5"/>
    </g>
   </g>
   <g id="line2d_15">
    <path d="M 47.81 290.994545 
L 450 290.994545 
" clip-path="url(#p0b440697bb)" style="fill: none; stroke-dasharray: 0.555,0.24; stroke-dashoffset: 0; stroke: #ff0000; stroke-width: 0.15"/>
   </g>
   <g id="line2d_16">
    <path d="M 47.81 164.54 
L 450 164.54 
" clip-path="url(#p0b440697bb)" style="fill: none; stroke-dasharray: 0.555,0.24; stroke-dashoffset: 0; stroke: #ff0000; stroke-width: 0.15"/>
   </g>
   <g id="line2d_17">
    <path d="M 47.81 38.085455 
L 450 38.085455 
" clip-path="url(#p0b440697bb)" style="fill: none; stroke-dasharray: 0.555,0.24; stroke-dashoffset: 0; stroke: #ff0000; stroke-width: 0.15"/>
   </g>
   <g id="patch_3">
    <path d="M 47.81 303.64 
L 47.81 25.44 
" style="fill: none; stroke: #000000; stroke-width: 0.8; stroke-linejoin: miter; stroke-linecap: square"/>
   </g>
   <g id="patch_4">
    <path d="M 450 303.64 
L 450 25.44 
" style="fill: none; stroke: #000000; stroke-width: 0.8; stroke-linejoin: miter; stroke-linecap: square"/>
   </g>
   <g id="patch_5">
    <path d="M 47.81 303.64 
L 450 303.64 
" style="fill: none; stroke: #000000; stroke-width: 0.8; stroke-linejoin: miter; stroke-linecap: square"/>
   </g>
   <g id="patch_6">
    <path d="M 47.81 25.44 
L 450 25.44 
" style="fill: none; stroke: #000000; stroke-width: 0.8; stroke-linejoin: miter; stroke-linecap: square"/>
   </g>
   <g id="text_15">
    <!-- Similarity LLM-DEF_sw3 - 20240417175008 - 50 games -->
    <g transform="translate(82.79875 19.44) scale(0.12 -0.12)">
     <defs>
      <path id="DejaVuSans-20" transform="scale(0.015625)"/>
      <path id="DejaVuSans-4c" d="M 628 4666 
L 1259 4666 
L 1259 531 
L 3531 531 
L 3531 0 
L 628 0 
L 628 4666 
z
" transform="scale(0.015625)"/>
      <path id="DejaVuSans-4d" d="M 628 4666 
L 1569 4666 
L 2759 1491 
L 3956 4666 
L 4897 4666 
L 4897 0 
L 4281 0 
L 4281 4097 
L 3078 897 
L 2444 897 
L 1241 4097 
L 1241 0 
L 628 0 
L 628 4666 
z
" transform="scale(0.015625)"/>
      <path id="DejaVuSans-2d" d="M 313 2009 
L 1997 2009 
L 1997 1497 
L 313 1497 
L 313 2009 
z
" transform="scale(0.015625)"/>
      <path id="DejaVuSans-44" d="M 1259 4147 
L 1259 519 
L 2022 519 
Q 2988 519 3436 956 
Q 3884 1394 3884 2338 
Q 3884 3275 3436 3711 
Q 2988 4147 2022 4147 
L 1259 4147 
z
M 628 4666 
L 1925 4666 
Q 3281 4666 3915 4102 
Q 4550 3538 4550 2338 
Q 4550 1131 3912 565 
Q 3275 0 1925 0 
L 628 0 
L 628 4666 
z
" transform="scale(0.015625)"/>
      <path id="DejaVuSans-45" d="M 628 4666 
L 3578 4666 
L 3578 4134 
L 1259 4134 
L 1259 2753 
L 3481 2753 
L 3481 2222 
L 1259 2222 
L 1259 531 
L 3634 531 
L 3634 0 
L 628 0 
L 628 4666 
z
" transform="scale(0.015625)"/>
      <path id="DejaVuSans-46" d="M 628 4666 
L 3309 4666 
L 3309 4134 
L 1259 4134 
L 1259 2759 
L 3109 2759 
L 3109 2228 
L 1259 2228 
L 1259 0 
L 628 0 
L 628 4666 
z
" transform="scale(0.015625)"/>
      <path id="DejaVuSans-5f" d="M 3263 -1063 
L 3263 -1509 
L -63 -1509 
L -63 -1063 
L 3263 -1063 
z
" transform="scale(0.015625)"/>
      <path id="DejaVuSans-73" d="M 2834 3397 
L 2834 2853 
Q 2591 2978 2328 3040 
Q 2066 3103 1784 3103 
Q 1356 3103 1142 2972 
Q 928 2841 928 2578 
Q 928 2378 1081 2264 
Q 1234 2150 1697 2047 
L 1894 2003 
Q 2506 1872 2764 1633 
Q 3022 1394 3022 966 
Q 3022 478 2636 193 
Q 2250 -91 1575 -91 
Q 1294 -91 989 -36 
Q 684 19 347 128 
L 347 722 
Q 666 556 975 473 
Q 1284 391 1588 391 
Q 1994 391 2212 530 
Q 2431 669 2431 922 
Q 2431 1156 2273 1281 
Q 2116 1406 1581 1522 
L 1381 1569 
Q 847 1681 609 1914 
Q 372 2147 372 2553 
Q 372 3047 722 3315 
Q 1072 3584 1716 3584 
Q 2034 3584 2315 3537 
Q 2597 3491 2834 3397 
z
" transform="scale(0.015625)"/>
      <path id="DejaVuSans-77" d="M 269 3500 
L 844 3500 
L 1563 769 
L 2278 3500 
L 2956 3500 
L 3675 769 
L 4391 3500 
L 4966 3500 
L 4050 0 
L 3372 0 
L 2619 2869 
L 1863 0 
L 1184 0 
L 269 3500 
z
" transform="scale(0.015625)"/>
      <path id="DejaVuSans-33" d="M 2597 2516 
Q 3050 2419 3304 2112 
Q 3559 1806 3559 1356 
Q 3559 666 3084 287 
Q 2609 -91 1734 -91 
Q 1441 -91 1130 -33 
Q 819 25 488 141 
L 488 750 
Q 750 597 1062 519 
Q 1375 441 1716 441 
Q 2309 441 2620 675 
Q 2931 909 2931 1356 
Q 2931 1769 2642 2001 
Q 2353 2234 1838 2234 
L 1294 2234 
L 1294 2753 
L 1863 2753 
Q 2328 2753 2575 2939 
Q 2822 3125 2822 3475 
Q 2822 3834 2567 4026 
Q 2313 4219 1838 4219 
Q 1578 4219 1281 4162 
Q 984 4106 628 3988 
L 628 4550 
Q 988 4650 1302 4700 
Q 1616 4750 1894 4750 
Q 2613 4750 3031 4423 
Q 3450 4097 3450 3541 
Q 3450 3153 3228 2886 
Q 3006 2619 2597 2516 
z
" transform="scale(0.015625)"/>
      <path id="DejaVuSans-37" d="M 525 4666 
L 3525 4666 
L 3525 4397 
L 1831 0 
L 1172 0 
L 2766 4134 
L 525 4134 
L 525 4666 
z
" transform="scale(0.015625)"/>
      <path id="DejaVuSans-35" d="M 691 4666 
L 3169 4666 
L 3169 4134 
L 1269 4134 
L 1269 2991 
Q 1406 3038 1543 3061 
Q 1681 3084 1819 3084 
Q 2600 3084 3056 2656 
Q 3513 2228 3513 1497 
Q 3513 744 3044 326 
Q 2575 -91 1722 -91 
Q 1428 -91 1123 -41 
Q 819 9 494 109 
L 494 744 
Q 775 591 1075 516 
Q 1375 441 1709 441 
Q 2250 441 2565 725 
Q 2881 1009 2881 1497 
Q 2881 1984 2565 2268 
Q 2250 2553 1709 2553 
Q 1456 2553 1204 2497 
Q 953 2441 691 2322 
L 691 4666 
z
" transform="scale(0.015625)"/>
      <path id="DejaVuSans-67" d="M 2906 1791 
Q 2906 2416 2648 2759 
Q 2391 3103 1925 3103 
Q 1463 3103 1205 2759 
Q 947 2416 947 1791 
Q 947 1169 1205 825 
Q 1463 481 1925 481 
Q 2391 481 2648 825 
Q 2906 1169 2906 1791 
z
M 3481 434 
Q 3481 -459 3084 -895 
Q 2688 -1331 1869 -1331 
Q 1566 -1331 1297 -1286 
Q 1028 -1241 775 -1147 
L 775 -588 
Q 1028 -725 1275 -790 
Q 1522 -856 1778 -856 
Q 2344 -856 2625 -561 
Q 2906 -266 2906 331 
L 2906 616 
Q 2728 306 2450 153 
Q 2172 0 1784 0 
Q 1141 0 747 490 
Q 353 981 353 1791 
Q 353 2603 747 3093 
Q 1141 3584 1784 3584 
Q 2172 3584 2450 3431 
Q 2728 3278 2906 2969 
L 2906 3500 
L 3481 3500 
L 3481 434 
z
" transform="scale(0.015625)"/>
     </defs>
     <use xlink:href="#DejaVuSans-53"/>
     <use xlink:href="#DejaVuSans-69" x="63.476562"/>
     <use xlink:href="#DejaVuSans-6d" x="91.259766"/>
     <use xlink:href="#DejaVuSans-69" x="188.671875"/>
     <use xlink:href="#DejaVuSans-6c" x="216.455078"/>
     <use xlink:href="#DejaVuSans-61" x="244.238281"/>
     <use xlink:href="#DejaVuSans-72" x="305.517578"/>
     <use xlink:href="#DejaVuSans-69" x="346.630859"/>
     <use xlink:href="#DejaVuSans-74" x="374.414062"/>
     <use xlink:href="#DejaVuSans-79" x="413.623047"/>
     <use xlink:href="#DejaVuSans-20" x="472.802734"/>
     <use xlink:href="#DejaVuSans-4c" x="504.589844"/>
     <use xlink:href="#DejaVuSans-4c" x="560.302734"/>
     <use xlink:href="#DejaVuSans-4d" x="616.015625"/>
     <use xlink:href="#DejaVuSans-2d" x="702.294922"/>
     <use xlink:href="#DejaVuSans-44" x="738.378906"/>
     <use xlink:href="#DejaVuSans-45" x="815.380859"/>
     <use xlink:href="#DejaVuSans-46" x="878.564453"/>
     <use xlink:href="#DejaVuSans-5f" x="936.083984"/>
     <use xlink:href="#DejaVuSans-73" x="986.083984"/>
     <use xlink:href="#DejaVuSans-77" x="1038.183594"/>
     <use xlink:href="#DejaVuSans-33" x="1119.970703"/>
     <use xlink:href="#DejaVuSans-20" x="1183.59375"/>
     <use xlink:href="#DejaVuSans-2d" x="1215.380859"/>
     <use xlink:href="#DejaVuSans-20" x="1251.464844"/>
     <use xlink:href="#DejaVuSans-32" x="1283.251953"/>
     <use xlink:href="#DejaVuSans-30" x="1346.875"/>
     <use xlink:href="#DejaVuSans-32" x="1410.498047"/>
     <use xlink:href="#DejaVuSans-34" x="1474.121094"/>
     <use xlink:href="#DejaVuSans-30" x="1537.744141"/>
     <use xlink:href="#DejaVuSans-34" x="1601.367188"/>
     <use xlink:href="#DejaVuSans-31" x="1664.990234"/>
     <use xlink:href="#DejaVuSans-37" x="1728.613281"/>
     <use xlink:href="#DejaVuSans-31" x="1792.236328"/>
     <use xlink:href="#DejaVuSans-37" x="1855.859375"/>
     <use xlink:href="#DejaVuSans-35" x="1919.482422"/>
     <use xlink:href="#DejaVuSans-30" x="1983.105469"/>
     <use xlink:href="#DejaVuSans-30" x="2046.728516"/>
     <use xlink:href="#DejaVuSans-38" x="2110.351562"/>
     <use xlink:href="#DejaVuSans-20" x="2173.974609"/>
     <use xlink:href="#DejaVuSans-2d" x="2205.761719"/>
     <use xlink:href="#DejaVuSans-20" x="2241.845703"/>
     <use xlink:href="#DejaVuSans-35" x="2273.632812"/>
     <use xlink:href="#DejaVuSans-30" x="2337.255859"/>
     <use xlink:href="#DejaVuSans-20" x="2400.878906"/>
     <use xlink:href="#DejaVuSans-67" x="2432.666016"/>
     <use xlink:href="#DejaVuSans-61" x="2496.142578"/>
     <use xlink:href="#DejaVuSans-6d" x="2557.421875"/>
     <use xlink:href="#DejaVuSans-65" x="2654.833984"/>
     <use xlink:href="#DejaVuSans-73" x="2716.357422"/>
    </g>
   </g>
   <g id="legend_1">
    <g id="patch_7">
     <path d="M 311.5625 63.3525 
L 443 63.3525 
Q 445 63.3525 445 61.3525 
L 445 32.44 
Q 445 30.44 443 30.44 
L 311.5625 30.44 
Q 309.5625 30.44 309.5625 32.44 
L 309.5625 61.3525 
Q 309.5625 63.3525 311.5625 63.3525 
z
" style="fill: #ffffff; opacity: 0.8; stroke: #cccccc; stroke-linejoin: miter"/>
    </g>
    <g id="line2d_18">
     <path d="M 313.5625 38.538437 
L 323.5625 38.538437 
L 333.5625 38.538437 
" style="fill: none; stroke: #0000ff; stroke-linecap: square"/>
     <g>
      <use xlink:href="#m776075e50f" x="323.5625" y="38.538437" style="fill: #0000ff"/>
     </g>
    </g>
    <g id="text_16">
     <!-- LLM-DEF_sw3 -->
     <g transform="translate(341.5625 42.038437) scale(0.1 -0.1)">
      <use xlink:href="#DejaVuSans-4c"/>
      <use xlink:href="#DejaVuSans-4c" x="55.712891"/>
      <use xlink:href="#DejaVuSans-4d" x="111.425781"/>
      <use xlink:href="#DejaVuSans-2d" x="197.705078"/>
      <use xlink:href="#DejaVuSans-44" x="233.789062"/>
      <use xlink:href="#DejaVuSans-45" x="310.791016"/>
      <use xlink:href="#DejaVuSans-46" x="373.974609"/>
      <use xlink:href="#DejaVuSans-5f" x="431.494141"/>
      <use xlink:href="#DejaVuSans-73" x="481.494141"/>
      <use xlink:href="#DejaVuSans-77" x="533.59375"/>
      <use xlink:href="#DejaVuSans-33" x="615.380859"/>
     </g>
    </g>
    <g id="line2d_19">
     <path d="M 313.5625 53.494687 
L 323.5625 53.494687 
L 333.5625 53.494687 
" style="fill: none; stroke: #ff0000; stroke-opacity: 0.5; stroke-width: 0.5; stroke-linecap: square"/>
     <g>
      <use xlink:href="#md4aecff684" x="323.5625" y="53.494687" style="fill: #ff0000; fill-opacity: 0.5"/>
     </g>
    </g>
    <g id="text_17">
     <!-- LLM-DEF_sw3 mean -->
     <g transform="translate(341.5625 56.994687) scale(0.1 -0.1)">
      <use xlink:href="#DejaVuSans-4c"/>
      <use xlink:href="#DejaVuSans-4c" x="55.712891"/>
      <use xlink:href="#DejaVuSans-4d" x="111.425781"/>
      <use xlink:href="#DejaVuSans-2d" x="197.705078"/>
      <use xlink:href="#DejaVuSans-44" x="233.789062"/>
      <use xlink:href="#DejaVuSans-45" x="310.791016"/>
      <use xlink:href="#DejaVuSans-46" x="373.974609"/>
      <use xlink:href="#DejaVuSans-5f" x="431.494141"/>
      <use xlink:href="#DejaVuSans-73" x="481.494141"/>
      <use xlink:href="#DejaVuSans-77" x="533.59375"/>
      <use xlink:href="#DejaVuSans-33" x="615.380859"/>
      <use xlink:href="#DejaVuSans-20" x="679.003906"/>
      <use xlink:href="#DejaVuSans-6d" x="710.791016"/>
      <use xlink:href="#DejaVuSans-65" x="808.203125"/>
      <use xlink:href="#DejaVuSans-61" x="869.726562"/>
      <use xlink:href="#DejaVuSans-6e" x="931.005859"/>
     </g>
    </g>
   </g>
  </g>
 </g>
 <defs>
  <clipPath id="p0b440697bb">
   <rect x="47.81" y="25.44" width="402.19" height="278.2"/>
  </clipPath>
 </defs>
</svg>
