<?xml version="1.0" encoding="utf-8" standalone="no"?>
<!DOCTYPE svg PUBLIC "-//W3C//DTD SVG 1.1//EN"
  "http://www.w3.org/Graphics/SVG/1.1/DTD/svg11.dtd">
<svg xmlns:xlink="http://www.w3.org/1999/xlink" width="460.8pt" height="345.6pt" viewBox="0 0 460.8 345.6" xmlns="http://www.w3.org/2000/svg" version="1.1">
 <metadata>
  <rdf:RDF xmlns:dc="http://purl.org/dc/elements/1.1/" xmlns:cc="http://creativecommons.org/ns#" xmlns:rdf="http://www.w3.org/1999/02/22-rdf-syntax-ns#">
   <cc:Work>
    <dc:type rdf:resource="http://purl.org/dc/dcmitype/StillImage"/>
    <dc:date>2024-04-16T11:57:43.241714</dc:date>
    <dc:format>image/svg+xml</dc:format>
    <dc:creator>
     <cc:Agent>
      <dc:title>Matplotlib v3.8.0, https://matplotlib.org/</dc:title>
     </cc:Agent>
    </dc:creator>
   </cc:Work>
  </rdf:RDF>
 </metadata>
 <defs>
  <style type="text/css">*{stroke-linejoin: round; stroke-linecap: butt}</style>
 </defs>
 <g id="figure_1">
  <g id="patch_1">
   <path d="M 0 345.6 
L 460.8 345.6 
L 460.8 0 
L 0 0 
z
" style="fill: #ffffff"/>
  </g>
  <g id="axes_1">
   <g id="patch_2">
    <path d="M 56.18 303.64 
L 450 303.64 
L 450 25.44 
L 56.18 25.44 
z
" style="fill: #ffffff"/>
   </g>
   <g id="PolyCollection_1">
    <defs>
     <path id="ma4b3fdf9bc" d="M 74.080909 -282.274977 
L 74.080909 -282.274977 
L 77.697254 -307.514545 
L 81.3136 -274.430513 
L 84.929945 -246.586218 
L 88.54629 -227.149202 
L 92.162635 -212.694186 
L 95.778981 -201.37468 
L 99.395326 -192.737167 
L 103.011671 -185.318031 
L 106.628017 -179.294494 
L 110.244362 -174.005 
L 113.860707 -169.615171 
L 117.477052 -165.622683 
L 121.093398 -162.100112 
L 124.709743 -158.965106 
L 128.326088 -156.305748 
L 131.942433 -154.254556 
L 135.558779 -151.928768 
L 139.175124 -149.804618 
L 142.791469 -147.855481 
L 146.407815 -146.184366 
L 150.02416 -144.519081 
L 153.640505 -142.973047 
L 157.25685 -141.646892 
L 160.873196 -140.408672 
L 164.489541 -139.249304 
L 168.105886 -138.278564 
L 171.722231 -137.634888 
L 175.338577 -137.175679 
L 178.954922 -136.736394 
L 182.571267 -136.315614 
L 186.187612 -135.654259 
L 189.803958 -135.420673 
L 193.420303 -135.345364 
L 197.036648 -135.117194 
L 200.652994 -135.037818 
L 204.269339 -134.954817 
L 207.885684 -134.734189 
L 211.502029 -134.649813 
L 215.118375 -134.702136 
L 218.73472 -134.744741 
L 222.351065 -135.074683 
L 225.96741 -135.539801 
L 229.583756 -136.315292 
L 233.200101 -137.039262 
L 236.816446 -137.716189 
L 240.432792 -138.040347 
L 244.049137 -137.966488 
L 247.665482 -138.717771 
L 251.281827 -139.424022 
L 254.898173 -140.250863 
L 258.514518 -140.586463 
L 262.130863 -140.90229 
L 265.747208 -141.199753 
L 269.363554 -141.480135 
L 272.979899 -141.519842 
L 276.596244 -142.030036 
L 280.21259 -142.513899 
L 283.828935 -142.730963 
L 287.44528 -142.936151 
L 291.061625 -142.843849 
L 294.677971 -142.931703 
L 298.294316 -143.013591 
L 301.910661 -142.843608 
L 305.527006 -142.830736 
L 309.143352 -142.665166 
L 312.759697 -142.386006 
L 316.376042 -142.375686 
L 319.992388 -142.219394 
L 323.608733 -142.066077 
L 327.225078 -141.763047 
L 330.841423 -141.55992 
L 334.457769 -141.36106 
L 338.074114 -141.166319 
L 341.690459 -141.031311 
L 345.306804 -140.843689 
L 348.92315 -140.541315 
L 352.539495 -140.245105 
L 356.15584 -139.986543 
L 359.772185 -139.701858 
L 363.388531 -139.492235 
L 367.004876 -139.218098 
L 370.621221 -138.949221 
L 374.237567 -138.753144 
L 377.853912 -138.560757 
L 381.470257 -138.283187 
L 385.086602 -138.010475 
L 388.702948 -137.742488 
L 392.319293 -137.46334 
L 395.935638 -137.256272 
L 399.551983 -137.052891 
L 403.168329 -136.979199 
L 406.784674 -136.9063 
L 410.401019 -136.888277 
L 414.017365 -136.769444 
L 417.63371 -136.751715 
L 421.250055 -136.681252 
L 424.8664 -136.527459 
L 428.482746 -136.414605 
L 432.099091 -136.39863 
L 432.099091 -87.866053 
L 432.099091 -87.866053 
L 428.482746 -87.669004 
L 424.8664 -87.531839 
L 421.250055 -87.434288 
L 417.63371 -87.257441 
L 414.017365 -87.048324 
L 410.401019 -86.901316 
L 406.784674 -86.685429 
L 403.168329 -86.495825 
L 399.551983 -86.302863 
L 395.935638 -86.239643 
L 392.319293 -86.175884 
L 388.702948 -86.31134 
L 385.086602 -86.377116 
L 381.470257 -86.445927 
L 377.853912 -86.517917 
L 374.237567 -86.402613 
L 370.621221 -86.285476 
L 367.004876 -86.289231 
L 363.388531 -86.294456 
L 359.772185 -86.17462 
L 356.15584 -86.181044 
L 352.539495 -86.120255 
L 348.92315 -86.129063 
L 345.306804 -86.139735 
L 341.690459 -85.959009 
L 338.074114 -85.724835 
L 334.457769 -85.535916 
L 330.841423 -85.34304 
L 327.225078 -85.146065 
L 323.608733 -85.074004 
L 319.992388 -84.816506 
L 316.376042 -84.552969 
L 312.759697 -84.197503 
L 309.143352 -84.039248 
L 305.527006 -83.756384 
L 301.910661 -83.376851 
L 298.294316 -83.078168 
L 294.677971 -82.646765 
L 291.061625 -82.204498 
L 287.44528 -81.826485 
L 283.828935 -81.336493 
L 280.21259 -80.834406 
L 276.596244 -80.298011 
L 272.979899 -79.751508 
L 269.363554 -79.267905 
L 265.747208 -78.714395 
L 262.130863 -78.146498 
L 258.514518 -77.563682 
L 254.898173 -76.965398 
L 251.281827 -76.349255 
L 247.665482 -75.714082 
L 244.049137 -75.068048 
L 240.432792 -74.541124 
L 236.816446 -73.879753 
L 233.200101 -73.177909 
L 229.583756 -72.460436 
L 225.96741 -71.727441 
L 222.351065 -70.98664 
L 218.73472 -70.243605 
L 215.118375 -69.552704 
L 211.502029 -68.833906 
L 207.885684 -68.144729 
L 204.269339 -67.499105 
L 200.652994 -66.749098 
L 197.036648 -65.964601 
L 193.420303 -65.221079 
L 189.803958 -64.36093 
L 186.187612 -63.539153 
L 182.571267 -63.012537 
L 178.954922 -62.211316 
L 175.338577 -61.365355 
L 171.722231 -60.470422 
L 168.105886 -59.649945 
L 164.489541 -59.093606 
L 160.873196 -58.696287 
L 157.25685 -58.28362 
L 153.640505 -57.854807 
L 150.02416 -57.645072 
L 146.407815 -57.443353 
L 142.791469 -56.98904 
L 139.175124 -56.798601 
L 135.558779 -56.62856 
L 131.942433 -56.486776 
L 128.326088 -55.418386 
L 124.709743 -54.921191 
L 121.093398 -54.818831 
L 117.477052 -54.795466 
L 113.860707 -54.885385 
L 110.244362 -54.605455 
L 106.628017 -55.034079 
L 103.011671 -55.125753 
L 99.395326 -56.333432 
L 95.778981 -56.541135 
L 92.162635 -59.636055 
L 88.54629 -63.788751 
L 84.929945 -72.263304 
L 81.3136 -83.075878 
L 77.697254 -135.167995 
L 74.080909 -282.274977 
z
" style="stroke: #0000ff; stroke-opacity: 0.2"/>
    </defs>
    <g clip-path="url(#p4f012c9df7)">
     <use xlink:href="#ma4b3fdf9bc" x="0" y="345.6" style="fill: #0000ff; fill-opacity: 0.2; stroke: #0000ff; stroke-opacity: 0.2"/>
    </g>
   </g>
   <g id="PolyCollection_2">
    <defs>
     <path id="m0a58a61747" d="M 74.080909 -85.714631 
L 74.080909 -85.714631 
L 77.697254 -85.714631 
L 81.3136 -85.714631 
L 84.929945 -85.714631 
L 88.54629 -85.714631 
L 92.162635 -85.714631 
L 95.778981 -85.714631 
L 99.395326 -85.714631 
L 103.011671 -85.714631 
L 106.628017 -85.714631 
L 110.244362 -85.714631 
L 113.860707 -85.714631 
L 117.477052 -85.714631 
L 121.093398 -85.714631 
L 124.709743 -85.714631 
L 128.326088 -85.714631 
L 131.942433 -85.714631 
L 135.558779 -85.714631 
L 139.175124 -85.714631 
L 142.791469 -85.714631 
L 146.407815 -85.714631 
L 150.02416 -85.714631 
L 153.640505 -85.714631 
L 157.25685 -85.714631 
L 160.873196 -85.714631 
L 164.489541 -85.714631 
L 168.105886 -85.714631 
L 171.722231 -85.714631 
L 175.338577 -85.714631 
L 178.954922 -85.714631 
L 182.571267 -85.714631 
L 186.187612 -85.714631 
L 189.803958 -85.714631 
L 193.420303 -85.714631 
L 197.036648 -85.714631 
L 200.652994 -85.714631 
L 204.269339 -85.714631 
L 207.885684 -85.714631 
L 211.502029 -85.714631 
L 215.118375 -85.714631 
L 218.73472 -85.714631 
L 222.351065 -85.714631 
L 225.96741 -85.714631 
L 229.583756 -85.714631 
L 233.200101 -85.714631 
L 236.816446 -85.714631 
L 240.432792 -85.714631 
L 244.049137 -85.714631 
L 247.665482 -85.714631 
L 251.281827 -85.714631 
L 254.898173 -85.714631 
L 258.514518 -85.714631 
L 262.130863 -85.714631 
L 265.747208 -85.714631 
L 269.363554 -85.714631 
L 272.979899 -85.714631 
L 276.596244 -85.714631 
L 280.21259 -85.714631 
L 283.828935 -85.714631 
L 287.44528 -85.714631 
L 291.061625 -85.714631 
L 294.677971 -85.714631 
L 298.294316 -85.714631 
L 301.910661 -85.714631 
L 305.527006 -85.714631 
L 309.143352 -85.714631 
L 312.759697 -85.714631 
L 316.376042 -85.714631 
L 319.992388 -85.714631 
L 323.608733 -85.714631 
L 327.225078 -85.714631 
L 330.841423 -85.714631 
L 334.457769 -85.714631 
L 338.074114 -85.714631 
L 341.690459 -85.714631 
L 345.306804 -85.714631 
L 348.92315 -85.714631 
L 352.539495 -85.714631 
L 356.15584 -85.714631 
L 359.772185 -85.714631 
L 363.388531 -85.714631 
L 367.004876 -85.714631 
L 370.621221 -85.714631 
L 374.237567 -85.714631 
L 377.853912 -85.714631 
L 381.470257 -85.714631 
L 385.086602 -85.714631 
L 388.702948 -85.714631 
L 392.319293 -85.714631 
L 395.935638 -85.714631 
L 399.551983 -85.714631 
L 403.168329 -85.714631 
L 406.784674 -85.714631 
L 410.401019 -85.714631 
L 414.017365 -85.714631 
L 417.63371 -85.714631 
L 421.250055 -85.714631 
L 424.8664 -85.714631 
L 428.482746 -85.714631 
L 432.099091 -85.714631 
L 432.099091 -85.714631 
L 432.099091 -85.714631 
L 428.482746 -85.714631 
L 424.8664 -85.714631 
L 421.250055 -85.714631 
L 417.63371 -85.714631 
L 414.017365 -85.714631 
L 410.401019 -85.714631 
L 406.784674 -85.714631 
L 403.168329 -85.714631 
L 399.551983 -85.714631 
L 395.935638 -85.714631 
L 392.319293 -85.714631 
L 388.702948 -85.714631 
L 385.086602 -85.714631 
L 381.470257 -85.714631 
L 377.853912 -85.714631 
L 374.237567 -85.714631 
L 370.621221 -85.714631 
L 367.004876 -85.714631 
L 363.388531 -85.714631 
L 359.772185 -85.714631 
L 356.15584 -85.714631 
L 352.539495 -85.714631 
L 348.92315 -85.714631 
L 345.306804 -85.714631 
L 341.690459 -85.714631 
L 338.074114 -85.714631 
L 334.457769 -85.714631 
L 330.841423 -85.714631 
L 327.225078 -85.714631 
L 323.608733 -85.714631 
L 319.992388 -85.714631 
L 316.376042 -85.714631 
L 312.759697 -85.714631 
L 309.143352 -85.714631 
L 305.527006 -85.714631 
L 301.910661 -85.714631 
L 298.294316 -85.714631 
L 294.677971 -85.714631 
L 291.061625 -85.714631 
L 287.44528 -85.714631 
L 283.828935 -85.714631 
L 280.21259 -85.714631 
L 276.596244 -85.714631 
L 272.979899 -85.714631 
L 269.363554 -85.714631 
L 265.747208 -85.714631 
L 262.130863 -85.714631 
L 258.514518 -85.714631 
L 254.898173 -85.714631 
L 251.281827 -85.714631 
L 247.665482 -85.714631 
L 244.049137 -85.714631 
L 240.432792 -85.714631 
L 236.816446 -85.714631 
L 233.200101 -85.714631 
L 229.583756 -85.714631 
L 225.96741 -85.714631 
L 222.351065 -85.714631 
L 218.73472 -85.714631 
L 215.118375 -85.714631 
L 211.502029 -85.714631 
L 207.885684 -85.714631 
L 204.269339 -85.714631 
L 200.652994 -85.714631 
L 197.036648 -85.714631 
L 193.420303 -85.714631 
L 189.803958 -85.714631 
L 186.187612 -85.714631 
L 182.571267 -85.714631 
L 178.954922 -85.714631 
L 175.338577 -85.714631 
L 171.722231 -85.714631 
L 168.105886 -85.714631 
L 164.489541 -85.714631 
L 160.873196 -85.714631 
L 157.25685 -85.714631 
L 153.640505 -85.714631 
L 150.02416 -85.714631 
L 146.407815 -85.714631 
L 142.791469 -85.714631 
L 139.175124 -85.714631 
L 135.558779 -85.714631 
L 131.942433 -85.714631 
L 128.326088 -85.714631 
L 124.709743 -85.714631 
L 121.093398 -85.714631 
L 117.477052 -85.714631 
L 113.860707 -85.714631 
L 110.244362 -85.714631 
L 106.628017 -85.714631 
L 103.011671 -85.714631 
L 99.395326 -85.714631 
L 95.778981 -85.714631 
L 92.162635 -85.714631 
L 88.54629 -85.714631 
L 84.929945 -85.714631 
L 81.3136 -85.714631 
L 77.697254 -85.714631 
L 74.080909 -85.714631 
z
" style="stroke: #ff0000; stroke-opacity: 0.1"/>
    </defs>
    <g clip-path="url(#p4f012c9df7)">
     <use xlink:href="#m0a58a61747" x="0" y="345.6" style="fill: #ff0000; fill-opacity: 0.1; stroke: #ff0000; stroke-opacity: 0.1"/>
    </g>
   </g>
   <g id="matplotlib.axis_1">
    <g id="xtick_1">
     <g id="line2d_1">
      <defs>
       <path id="mfef3074634" d="M 0 0 
L 0 3.5 
" style="stroke: #000000; stroke-width: 0.8"/>
      </defs>
      <g>
       <use xlink:href="#mfef3074634" x="74.080909" y="303.64" style="stroke: #000000; stroke-width: 0.8"/>
      </g>
     </g>
     <g id="text_1">
      <!-- 0 -->
      <g transform="translate(70.899659 318.238437) scale(0.1 -0.1)">
       <defs>
        <path id="DejaVuSans-30" d="M 2034 4250 
Q 1547 4250 1301 3770 
Q 1056 3291 1056 2328 
Q 1056 1369 1301 889 
Q 1547 409 2034 409 
Q 2525 409 2770 889 
Q 3016 1369 3016 2328 
Q 3016 3291 2770 3770 
Q 2525 4250 2034 4250 
z
M 2034 4750 
Q 2819 4750 3233 4129 
Q 3647 3509 3647 2328 
Q 3647 1150 3233 529 
Q 2819 -91 2034 -91 
Q 1250 -91 836 529 
Q 422 1150 422 2328 
Q 422 3509 836 4129 
Q 1250 4750 2034 4750 
z
" transform="scale(0.015625)"/>
       </defs>
       <use xlink:href="#DejaVuSans-30"/>
      </g>
     </g>
    </g>
    <g id="xtick_2">
     <g id="line2d_2">
      <g>
       <use xlink:href="#mfef3074634" x="146.407815" y="303.64" style="stroke: #000000; stroke-width: 0.8"/>
      </g>
     </g>
     <g id="text_2">
      <!-- 20 -->
      <g transform="translate(140.045315 318.238437) scale(0.1 -0.1)">
       <defs>
        <path id="DejaVuSans-32" d="M 1228 531 
L 3431 531 
L 3431 0 
L 469 0 
L 469 531 
Q 828 903 1448 1529 
Q 2069 2156 2228 2338 
Q 2531 2678 2651 2914 
Q 2772 3150 2772 3378 
Q 2772 3750 2511 3984 
Q 2250 4219 1831 4219 
Q 1534 4219 1204 4116 
Q 875 4013 500 3803 
L 500 4441 
Q 881 4594 1212 4672 
Q 1544 4750 1819 4750 
Q 2544 4750 2975 4387 
Q 3406 4025 3406 3419 
Q 3406 3131 3298 2873 
Q 3191 2616 2906 2266 
Q 2828 2175 2409 1742 
Q 1991 1309 1228 531 
z
" transform="scale(0.015625)"/>
       </defs>
       <use xlink:href="#DejaVuSans-32"/>
       <use xlink:href="#DejaVuSans-30" x="63.623047"/>
      </g>
     </g>
    </g>
    <g id="xtick_3">
     <g id="line2d_3">
      <g>
       <use xlink:href="#mfef3074634" x="218.73472" y="303.64" style="stroke: #000000; stroke-width: 0.8"/>
      </g>
     </g>
     <g id="text_3">
      <!-- 40 -->
      <g transform="translate(212.37222 318.238437) scale(0.1 -0.1)">
       <defs>
        <path id="DejaVuSans-34" d="M 2419 4116 
L 825 1625 
L 2419 1625 
L 2419 4116 
z
M 2253 4666 
L 3047 4666 
L 3047 1625 
L 3713 1625 
L 3713 1100 
L 3047 1100 
L 3047 0 
L 2419 0 
L 2419 1100 
L 313 1100 
L 313 1709 
L 2253 4666 
z
" transform="scale(0.015625)"/>
       </defs>
       <use xlink:href="#DejaVuSans-34"/>
       <use xlink:href="#DejaVuSans-30" x="63.623047"/>
      </g>
     </g>
    </g>
    <g id="xtick_4">
     <g id="line2d_4">
      <g>
       <use xlink:href="#mfef3074634" x="291.061625" y="303.64" style="stroke: #000000; stroke-width: 0.8"/>
      </g>
     </g>
     <g id="text_4">
      <!-- 60 -->
      <g transform="translate(284.699125 318.238437) scale(0.1 -0.1)">
       <defs>
        <path id="DejaVuSans-36" d="M 2113 2584 
Q 1688 2584 1439 2293 
Q 1191 2003 1191 1497 
Q 1191 994 1439 701 
Q 1688 409 2113 409 
Q 2538 409 2786 701 
Q 3034 994 3034 1497 
Q 3034 2003 2786 2293 
Q 2538 2584 2113 2584 
z
M 3366 4563 
L 3366 3988 
Q 3128 4100 2886 4159 
Q 2644 4219 2406 4219 
Q 1781 4219 1451 3797 
Q 1122 3375 1075 2522 
Q 1259 2794 1537 2939 
Q 1816 3084 2150 3084 
Q 2853 3084 3261 2657 
Q 3669 2231 3669 1497 
Q 3669 778 3244 343 
Q 2819 -91 2113 -91 
Q 1303 -91 875 529 
Q 447 1150 447 2328 
Q 447 3434 972 4092 
Q 1497 4750 2381 4750 
Q 2619 4750 2861 4703 
Q 3103 4656 3366 4563 
z
" transform="scale(0.015625)"/>
       </defs>
       <use xlink:href="#DejaVuSans-36"/>
       <use xlink:href="#DejaVuSans-30" x="63.623047"/>
      </g>
     </g>
    </g>
    <g id="xtick_5">
     <g id="line2d_5">
      <g>
       <use xlink:href="#mfef3074634" x="363.388531" y="303.64" style="stroke: #000000; stroke-width: 0.8"/>
      </g>
     </g>
     <g id="text_5">
      <!-- 80 -->
      <g transform="translate(357.026031 318.238437) scale(0.1 -0.1)">
       <defs>
        <path id="DejaVuSans-38" d="M 2034 2216 
Q 1584 2216 1326 1975 
Q 1069 1734 1069 1313 
Q 1069 891 1326 650 
Q 1584 409 2034 409 
Q 2484 409 2743 651 
Q 3003 894 3003 1313 
Q 3003 1734 2745 1975 
Q 2488 2216 2034 2216 
z
M 1403 2484 
Q 997 2584 770 2862 
Q 544 3141 544 3541 
Q 544 4100 942 4425 
Q 1341 4750 2034 4750 
Q 2731 4750 3128 4425 
Q 3525 4100 3525 3541 
Q 3525 3141 3298 2862 
Q 3072 2584 2669 2484 
Q 3125 2378 3379 2068 
Q 3634 1759 3634 1313 
Q 3634 634 3220 271 
Q 2806 -91 2034 -91 
Q 1263 -91 848 271 
Q 434 634 434 1313 
Q 434 1759 690 2068 
Q 947 2378 1403 2484 
z
M 1172 3481 
Q 1172 3119 1398 2916 
Q 1625 2713 2034 2713 
Q 2441 2713 2670 2916 
Q 2900 3119 2900 3481 
Q 2900 3844 2670 4047 
Q 2441 4250 2034 4250 
Q 1625 4250 1398 4047 
Q 1172 3844 1172 3481 
z
" transform="scale(0.015625)"/>
       </defs>
       <use xlink:href="#DejaVuSans-38"/>
       <use xlink:href="#DejaVuSans-30" x="63.623047"/>
      </g>
     </g>
    </g>
    <g id="xtick_6">
     <g id="line2d_6">
      <g>
       <use xlink:href="#mfef3074634" x="435.715436" y="303.64" style="stroke: #000000; stroke-width: 0.8"/>
      </g>
     </g>
     <g id="text_6">
      <!-- 100 -->
      <g transform="translate(426.171686 318.238437) scale(0.1 -0.1)">
       <defs>
        <path id="DejaVuSans-31" d="M 794 531 
L 1825 531 
L 1825 4091 
L 703 3866 
L 703 4441 
L 1819 4666 
L 2450 4666 
L 2450 531 
L 3481 531 
L 3481 0 
L 794 0 
L 794 531 
z
" transform="scale(0.015625)"/>
       </defs>
       <use xlink:href="#DejaVuSans-31"/>
       <use xlink:href="#DejaVuSans-30" x="63.623047"/>
       <use xlink:href="#DejaVuSans-30" x="127.246094"/>
      </g>
     </g>
    </g>
    <g id="text_7">
     <!-- Iteration -->
     <g transform="translate(231.881406 331.916562) scale(0.1 -0.1)">
      <defs>
       <path id="DejaVuSans-49" d="M 628 4666 
L 1259 4666 
L 1259 0 
L 628 0 
L 628 4666 
z
" transform="scale(0.015625)"/>
       <path id="DejaVuSans-74" d="M 1172 4494 
L 1172 3500 
L 2356 3500 
L 2356 3053 
L 1172 3053 
L 1172 1153 
Q 1172 725 1289 603 
Q 1406 481 1766 481 
L 2356 481 
L 2356 0 
L 1766 0 
Q 1100 0 847 248 
Q 594 497 594 1153 
L 594 3053 
L 172 3053 
L 172 3500 
L 594 3500 
L 594 4494 
L 1172 4494 
z
" transform="scale(0.015625)"/>
       <path id="DejaVuSans-65" d="M 3597 1894 
L 3597 1613 
L 953 1613 
Q 991 1019 1311 708 
Q 1631 397 2203 397 
Q 2534 397 2845 478 
Q 3156 559 3463 722 
L 3463 178 
Q 3153 47 2828 -22 
Q 2503 -91 2169 -91 
Q 1331 -91 842 396 
Q 353 884 353 1716 
Q 353 2575 817 3079 
Q 1281 3584 2069 3584 
Q 2775 3584 3186 3129 
Q 3597 2675 3597 1894 
z
M 3022 2063 
Q 3016 2534 2758 2815 
Q 2500 3097 2075 3097 
Q 1594 3097 1305 2825 
Q 1016 2553 972 2059 
L 3022 2063 
z
" transform="scale(0.015625)"/>
       <path id="DejaVuSans-72" d="M 2631 2963 
Q 2534 3019 2420 3045 
Q 2306 3072 2169 3072 
Q 1681 3072 1420 2755 
Q 1159 2438 1159 1844 
L 1159 0 
L 581 0 
L 581 3500 
L 1159 3500 
L 1159 2956 
Q 1341 3275 1631 3429 
Q 1922 3584 2338 3584 
Q 2397 3584 2469 3576 
Q 2541 3569 2628 3553 
L 2631 2963 
z
" transform="scale(0.015625)"/>
       <path id="DejaVuSans-61" d="M 2194 1759 
Q 1497 1759 1228 1600 
Q 959 1441 959 1056 
Q 959 750 1161 570 
Q 1363 391 1709 391 
Q 2188 391 2477 730 
Q 2766 1069 2766 1631 
L 2766 1759 
L 2194 1759 
z
M 3341 1997 
L 3341 0 
L 2766 0 
L 2766 531 
Q 2569 213 2275 61 
Q 1981 -91 1556 -91 
Q 1019 -91 701 211 
Q 384 513 384 1019 
Q 384 1609 779 1909 
Q 1175 2209 1959 2209 
L 2766 2209 
L 2766 2266 
Q 2766 2663 2505 2880 
Q 2244 3097 1772 3097 
Q 1472 3097 1187 3025 
Q 903 2953 641 2809 
L 641 3341 
Q 956 3463 1253 3523 
Q 1550 3584 1831 3584 
Q 2591 3584 2966 3190 
Q 3341 2797 3341 1997 
z
" transform="scale(0.015625)"/>
       <path id="DejaVuSans-69" d="M 603 3500 
L 1178 3500 
L 1178 0 
L 603 0 
L 603 3500 
z
M 603 4863 
L 1178 4863 
L 1178 4134 
L 603 4134 
L 603 4863 
z
" transform="scale(0.015625)"/>
       <path id="DejaVuSans-6f" d="M 1959 3097 
Q 1497 3097 1228 2736 
Q 959 2375 959 1747 
Q 959 1119 1226 758 
Q 1494 397 1959 397 
Q 2419 397 2687 759 
Q 2956 1122 2956 1747 
Q 2956 2369 2687 2733 
Q 2419 3097 1959 3097 
z
M 1959 3584 
Q 2709 3584 3137 3096 
Q 3566 2609 3566 1747 
Q 3566 888 3137 398 
Q 2709 -91 1959 -91 
Q 1206 -91 779 398 
Q 353 888 353 1747 
Q 353 2609 779 3096 
Q 1206 3584 1959 3584 
z
" transform="scale(0.015625)"/>
       <path id="DejaVuSans-6e" d="M 3513 2113 
L 3513 0 
L 2938 0 
L 2938 2094 
Q 2938 2591 2744 2837 
Q 2550 3084 2163 3084 
Q 1697 3084 1428 2787 
Q 1159 2491 1159 1978 
L 1159 0 
L 581 0 
L 581 3500 
L 1159 3500 
L 1159 2956 
Q 1366 3272 1645 3428 
Q 1925 3584 2291 3584 
Q 2894 3584 3203 3211 
Q 3513 2838 3513 2113 
z
" transform="scale(0.015625)"/>
      </defs>
      <use xlink:href="#DejaVuSans-49"/>
      <use xlink:href="#DejaVuSans-74" x="29.492188"/>
      <use xlink:href="#DejaVuSans-65" x="68.701172"/>
      <use xlink:href="#DejaVuSans-72" x="130.224609"/>
      <use xlink:href="#DejaVuSans-61" x="171.337891"/>
      <use xlink:href="#DejaVuSans-74" x="232.617188"/>
      <use xlink:href="#DejaVuSans-69" x="271.826172"/>
      <use xlink:href="#DejaVuSans-6f" x="299.609375"/>
      <use xlink:href="#DejaVuSans-6e" x="360.791016"/>
     </g>
    </g>
   </g>
   <g id="matplotlib.axis_2">
    <g id="ytick_1">
     <g id="line2d_7">
      <defs>
       <path id="maafd55ed81" d="M 0 0 
L -3.5 0 
" style="stroke: #000000; stroke-width: 0.8"/>
      </defs>
      <g>
       <use xlink:href="#maafd55ed81" x="56.18" y="299.197438" style="stroke: #000000; stroke-width: 0.8"/>
      </g>
     </g>
     <g id="text_8">
      <!-- −0.2 -->
      <g transform="translate(24.897188 302.996657) scale(0.1 -0.1)">
       <defs>
        <path id="DejaVuSans-2212" d="M 678 2272 
L 4684 2272 
L 4684 1741 
L 678 1741 
L 678 2272 
z
" transform="scale(0.015625)"/>
        <path id="DejaVuSans-2e" d="M 684 794 
L 1344 794 
L 1344 0 
L 684 0 
L 684 794 
z
" transform="scale(0.015625)"/>
       </defs>
       <use xlink:href="#DejaVuSans-2212"/>
       <use xlink:href="#DejaVuSans-30" x="83.789062"/>
       <use xlink:href="#DejaVuSans-2e" x="147.412109"/>
       <use xlink:href="#DejaVuSans-32" x="179.199219"/>
      </g>
     </g>
    </g>
    <g id="ytick_2">
     <g id="line2d_8">
      <g>
       <use xlink:href="#maafd55ed81" x="56.18" y="259.885369" style="stroke: #000000; stroke-width: 0.8"/>
      </g>
     </g>
     <g id="text_9">
      <!-- 0.0 -->
      <g transform="translate(33.276875 263.684588) scale(0.1 -0.1)">
       <use xlink:href="#DejaVuSans-30"/>
       <use xlink:href="#DejaVuSans-2e" x="63.623047"/>
       <use xlink:href="#DejaVuSans-30" x="95.410156"/>
      </g>
     </g>
    </g>
    <g id="ytick_3">
     <g id="line2d_9">
      <g>
       <use xlink:href="#maafd55ed81" x="56.18" y="220.5733" style="stroke: #000000; stroke-width: 0.8"/>
      </g>
     </g>
     <g id="text_10">
      <!-- 0.2 -->
      <g transform="translate(33.276875 224.372518) scale(0.1 -0.1)">
       <use xlink:href="#DejaVuSans-30"/>
       <use xlink:href="#DejaVuSans-2e" x="63.623047"/>
       <use xlink:href="#DejaVuSans-32" x="95.410156"/>
      </g>
     </g>
    </g>
    <g id="ytick_4">
     <g id="line2d_10">
      <g>
       <use xlink:href="#maafd55ed81" x="56.18" y="181.26123" style="stroke: #000000; stroke-width: 0.8"/>
      </g>
     </g>
     <g id="text_11">
      <!-- 0.4 -->
      <g transform="translate(33.276875 185.060449) scale(0.1 -0.1)">
       <use xlink:href="#DejaVuSans-30"/>
       <use xlink:href="#DejaVuSans-2e" x="63.623047"/>
       <use xlink:href="#DejaVuSans-34" x="95.410156"/>
      </g>
     </g>
    </g>
    <g id="ytick_5">
     <g id="line2d_11">
      <g>
       <use xlink:href="#maafd55ed81" x="56.18" y="141.949161" style="stroke: #000000; stroke-width: 0.8"/>
      </g>
     </g>
     <g id="text_12">
      <!-- 0.6 -->
      <g transform="translate(33.276875 145.74838) scale(0.1 -0.1)">
       <use xlink:href="#DejaVuSans-30"/>
       <use xlink:href="#DejaVuSans-2e" x="63.623047"/>
       <use xlink:href="#DejaVuSans-36" x="95.410156"/>
      </g>
     </g>
    </g>
    <g id="ytick_6">
     <g id="line2d_12">
      <g>
       <use xlink:href="#maafd55ed81" x="56.18" y="102.637092" style="stroke: #000000; stroke-width: 0.8"/>
      </g>
     </g>
     <g id="text_13">
      <!-- 0.8 -->
      <g transform="translate(33.276875 106.436311) scale(0.1 -0.1)">
       <use xlink:href="#DejaVuSans-30"/>
       <use xlink:href="#DejaVuSans-2e" x="63.623047"/>
       <use xlink:href="#DejaVuSans-38" x="95.410156"/>
      </g>
     </g>
    </g>
    <g id="ytick_7">
     <g id="line2d_13">
      <g>
       <use xlink:href="#maafd55ed81" x="56.18" y="63.325023" style="stroke: #000000; stroke-width: 0.8"/>
      </g>
     </g>
     <g id="text_14">
      <!-- 1.0 -->
      <g transform="translate(33.276875 67.124241) scale(0.1 -0.1)">
       <use xlink:href="#DejaVuSans-31"/>
       <use xlink:href="#DejaVuSans-2e" x="63.623047"/>
       <use xlink:href="#DejaVuSans-30" x="95.410156"/>
      </g>
     </g>
    </g>
    <g id="text_15">
     <!-- Avg action -->
     <g transform="translate(18.8175 190.779844) rotate(-90) scale(0.1 -0.1)">
      <defs>
       <path id="DejaVuSans-41" d="M 2188 4044 
L 1331 1722 
L 3047 1722 
L 2188 4044 
z
M 1831 4666 
L 2547 4666 
L 4325 0 
L 3669 0 
L 3244 1197 
L 1141 1197 
L 716 0 
L 50 0 
L 1831 4666 
z
" transform="scale(0.015625)"/>
       <path id="DejaVuSans-76" d="M 191 3500 
L 800 3500 
L 1894 563 
L 2988 3500 
L 3597 3500 
L 2284 0 
L 1503 0 
L 191 3500 
z
" transform="scale(0.015625)"/>
       <path id="DejaVuSans-67" d="M 2906 1791 
Q 2906 2416 2648 2759 
Q 2391 3103 1925 3103 
Q 1463 3103 1205 2759 
Q 947 2416 947 1791 
Q 947 1169 1205 825 
Q 1463 481 1925 481 
Q 2391 481 2648 825 
Q 2906 1169 2906 1791 
z
M 3481 434 
Q 3481 -459 3084 -895 
Q 2688 -1331 1869 -1331 
Q 1566 -1331 1297 -1286 
Q 1028 -1241 775 -1147 
L 775 -588 
Q 1028 -725 1275 -790 
Q 1522 -856 1778 -856 
Q 2344 -856 2625 -561 
Q 2906 -266 2906 331 
L 2906 616 
Q 2728 306 2450 153 
Q 2172 0 1784 0 
Q 1141 0 747 490 
Q 353 981 353 1791 
Q 353 2603 747 3093 
Q 1141 3584 1784 3584 
Q 2172 3584 2450 3431 
Q 2728 3278 2906 2969 
L 2906 3500 
L 3481 3500 
L 3481 434 
z
" transform="scale(0.015625)"/>
       <path id="DejaVuSans-20" transform="scale(0.015625)"/>
       <path id="DejaVuSans-63" d="M 3122 3366 
L 3122 2828 
Q 2878 2963 2633 3030 
Q 2388 3097 2138 3097 
Q 1578 3097 1268 2742 
Q 959 2388 959 1747 
Q 959 1106 1268 751 
Q 1578 397 2138 397 
Q 2388 397 2633 464 
Q 2878 531 3122 666 
L 3122 134 
Q 2881 22 2623 -34 
Q 2366 -91 2075 -91 
Q 1284 -91 818 406 
Q 353 903 353 1747 
Q 353 2603 823 3093 
Q 1294 3584 2113 3584 
Q 2378 3584 2631 3529 
Q 2884 3475 3122 3366 
z
" transform="scale(0.015625)"/>
      </defs>
      <use xlink:href="#DejaVuSans-41"/>
      <use xlink:href="#DejaVuSans-76" x="62.533203"/>
      <use xlink:href="#DejaVuSans-67" x="121.712891"/>
      <use xlink:href="#DejaVuSans-20" x="185.189453"/>
      <use xlink:href="#DejaVuSans-61" x="216.976562"/>
      <use xlink:href="#DejaVuSans-63" x="278.255859"/>
      <use xlink:href="#DejaVuSans-74" x="333.236328"/>
      <use xlink:href="#DejaVuSans-69" x="372.445312"/>
      <use xlink:href="#DejaVuSans-6f" x="400.228516"/>
      <use xlink:href="#DejaVuSans-6e" x="461.410156"/>
     </g>
    </g>
   </g>
   <g id="line2d_14">
    <path d="M 74.080909 63.325023 
L 77.697254 185.192437 
L 81.3136 252.022955 
L 84.929945 244.160541 
L 88.54629 255.954162 
L 92.162635 255.954162 
L 95.778981 259.885369 
L 99.395326 252.022955 
L 103.011671 259.885369 
L 106.628017 255.954162 
L 110.244362 259.885369 
L 113.860707 255.954162 
L 117.477052 259.885369 
L 121.093398 259.885369 
L 124.709743 259.885369 
L 128.326088 255.954162 
L 131.942433 248.091748 
L 135.558779 259.885369 
L 139.175124 259.885369 
L 142.791469 259.885369 
L 146.407815 255.954162 
L 150.02416 259.885369 
L 153.640505 259.885369 
L 157.25685 255.954162 
L 160.873196 255.954162 
L 164.489541 255.954162 
L 168.105886 252.022955 
L 171.722231 244.160541 
L 175.338577 240.229334 
L 178.954922 240.229334 
L 182.571267 240.229334 
L 186.187612 248.091748 
L 189.803958 236.298127 
L 193.420303 232.36692 
L 197.036648 236.298127 
L 200.652994 232.36692 
L 204.269339 232.36692 
L 207.885684 236.298127 
L 211.502029 232.36692 
L 215.118375 228.435713 
L 218.73472 228.435713 
L 222.351065 220.5733 
L 225.96741 216.642093 
L 229.583756 208.779679 
L 233.200101 208.779679 
L 236.816446 208.779679 
L 240.432792 216.642093 
L 244.049137 228.435713 
L 247.665482 204.848472 
L 251.281827 204.848472 
L 254.898173 200.917265 
L 258.514518 212.710886 
L 262.130863 212.710886 
L 265.747208 212.710886 
L 269.363554 212.710886 
L 272.979899 220.5733 
L 276.596244 204.848472 
L 280.21259 204.848472 
L 283.828935 212.710886 
L 287.44528 212.710886 
L 291.061625 224.504506 
L 294.677971 216.642093 
L 298.294316 216.642093 
L 301.910661 228.435713 
L 305.527006 220.5733 
L 309.143352 228.435713 
L 312.759697 236.298127 
L 316.376042 220.5733 
L 319.992388 228.435713 
L 323.608733 228.435713 
L 327.225078 240.229334 
L 330.841423 232.36692 
L 334.457769 232.36692 
L 338.074114 232.36692 
L 341.690459 228.435713 
L 345.306804 232.36692 
L 348.92315 244.160541 
L 352.539495 244.160541 
L 356.15584 240.229334 
L 359.772185 244.160541 
L 363.388531 236.298127 
L 367.004876 244.160541 
L 370.621221 244.160541 
L 374.237567 236.298127 
L 377.853912 236.298127 
L 381.470257 248.091748 
L 385.086602 248.091748 
L 388.702948 248.091748 
L 392.319293 252.022955 
L 395.935638 240.229334 
L 399.551983 240.229334 
L 403.168329 228.435713 
L 406.784674 228.435713 
L 410.401019 224.504506 
L 414.017365 232.36692 
L 417.63371 224.504506 
L 421.250055 228.435713 
L 424.8664 236.298127 
L 428.482746 232.36692 
L 432.099091 224.504506 
" clip-path="url(#p4f012c9df7)" style="fill: none; stroke: #0000ff; stroke-linecap: square"/>
    <defs>
     <path id="mc69c1a2306" d="M -0.49999 0.49999 
L 0.50001 0.49999 
L 0.50001 -0.50001 
L -0.49999 -0.50001 
z
"/>
    </defs>
    <g clip-path="url(#p4f012c9df7)">
     <use xlink:href="#mc69c1a2306" x="74.080909" y="63.325023" style="fill: #0000ff"/>
     <use xlink:href="#mc69c1a2306" x="77.697254" y="185.192437" style="fill: #0000ff"/>
     <use xlink:href="#mc69c1a2306" x="81.3136" y="252.022955" style="fill: #0000ff"/>
     <use xlink:href="#mc69c1a2306" x="84.929945" y="244.160541" style="fill: #0000ff"/>
     <use xlink:href="#mc69c1a2306" x="88.54629" y="255.954162" style="fill: #0000ff"/>
     <use xlink:href="#mc69c1a2306" x="92.162635" y="255.954162" style="fill: #0000ff"/>
     <use xlink:href="#mc69c1a2306" x="95.778981" y="259.885369" style="fill: #0000ff"/>
     <use xlink:href="#mc69c1a2306" x="99.395326" y="252.022955" style="fill: #0000ff"/>
     <use xlink:href="#mc69c1a2306" x="103.011671" y="259.885369" style="fill: #0000ff"/>
     <use xlink:href="#mc69c1a2306" x="106.628017" y="255.954162" style="fill: #0000ff"/>
     <use xlink:href="#mc69c1a2306" x="110.244362" y="259.885369" style="fill: #0000ff"/>
     <use xlink:href="#mc69c1a2306" x="113.860707" y="255.954162" style="fill: #0000ff"/>
     <use xlink:href="#mc69c1a2306" x="117.477052" y="259.885369" style="fill: #0000ff"/>
     <use xlink:href="#mc69c1a2306" x="121.093398" y="259.885369" style="fill: #0000ff"/>
     <use xlink:href="#mc69c1a2306" x="124.709743" y="259.885369" style="fill: #0000ff"/>
     <use xlink:href="#mc69c1a2306" x="128.326088" y="255.954162" style="fill: #0000ff"/>
     <use xlink:href="#mc69c1a2306" x="131.942433" y="248.091748" style="fill: #0000ff"/>
     <use xlink:href="#mc69c1a2306" x="135.558779" y="259.885369" style="fill: #0000ff"/>
     <use xlink:href="#mc69c1a2306" x="139.175124" y="259.885369" style="fill: #0000ff"/>
     <use xlink:href="#mc69c1a2306" x="142.791469" y="259.885369" style="fill: #0000ff"/>
     <use xlink:href="#mc69c1a2306" x="146.407815" y="255.954162" style="fill: #0000ff"/>
     <use xlink:href="#mc69c1a2306" x="150.02416" y="259.885369" style="fill: #0000ff"/>
     <use xlink:href="#mc69c1a2306" x="153.640505" y="259.885369" style="fill: #0000ff"/>
     <use xlink:href="#mc69c1a2306" x="157.25685" y="255.954162" style="fill: #0000ff"/>
     <use xlink:href="#mc69c1a2306" x="160.873196" y="255.954162" style="fill: #0000ff"/>
     <use xlink:href="#mc69c1a2306" x="164.489541" y="255.954162" style="fill: #0000ff"/>
     <use xlink:href="#mc69c1a2306" x="168.105886" y="252.022955" style="fill: #0000ff"/>
     <use xlink:href="#mc69c1a2306" x="171.722231" y="244.160541" style="fill: #0000ff"/>
     <use xlink:href="#mc69c1a2306" x="175.338577" y="240.229334" style="fill: #0000ff"/>
     <use xlink:href="#mc69c1a2306" x="178.954922" y="240.229334" style="fill: #0000ff"/>
     <use xlink:href="#mc69c1a2306" x="182.571267" y="240.229334" style="fill: #0000ff"/>
     <use xlink:href="#mc69c1a2306" x="186.187612" y="248.091748" style="fill: #0000ff"/>
     <use xlink:href="#mc69c1a2306" x="189.803958" y="236.298127" style="fill: #0000ff"/>
     <use xlink:href="#mc69c1a2306" x="193.420303" y="232.36692" style="fill: #0000ff"/>
     <use xlink:href="#mc69c1a2306" x="197.036648" y="236.298127" style="fill: #0000ff"/>
     <use xlink:href="#mc69c1a2306" x="200.652994" y="232.36692" style="fill: #0000ff"/>
     <use xlink:href="#mc69c1a2306" x="204.269339" y="232.36692" style="fill: #0000ff"/>
     <use xlink:href="#mc69c1a2306" x="207.885684" y="236.298127" style="fill: #0000ff"/>
     <use xlink:href="#mc69c1a2306" x="211.502029" y="232.36692" style="fill: #0000ff"/>
     <use xlink:href="#mc69c1a2306" x="215.118375" y="228.435713" style="fill: #0000ff"/>
     <use xlink:href="#mc69c1a2306" x="218.73472" y="228.435713" style="fill: #0000ff"/>
     <use xlink:href="#mc69c1a2306" x="222.351065" y="220.5733" style="fill: #0000ff"/>
     <use xlink:href="#mc69c1a2306" x="225.96741" y="216.642093" style="fill: #0000ff"/>
     <use xlink:href="#mc69c1a2306" x="229.583756" y="208.779679" style="fill: #0000ff"/>
     <use xlink:href="#mc69c1a2306" x="233.200101" y="208.779679" style="fill: #0000ff"/>
     <use xlink:href="#mc69c1a2306" x="236.816446" y="208.779679" style="fill: #0000ff"/>
     <use xlink:href="#mc69c1a2306" x="240.432792" y="216.642093" style="fill: #0000ff"/>
     <use xlink:href="#mc69c1a2306" x="244.049137" y="228.435713" style="fill: #0000ff"/>
     <use xlink:href="#mc69c1a2306" x="247.665482" y="204.848472" style="fill: #0000ff"/>
     <use xlink:href="#mc69c1a2306" x="251.281827" y="204.848472" style="fill: #0000ff"/>
     <use xlink:href="#mc69c1a2306" x="254.898173" y="200.917265" style="fill: #0000ff"/>
     <use xlink:href="#mc69c1a2306" x="258.514518" y="212.710886" style="fill: #0000ff"/>
     <use xlink:href="#mc69c1a2306" x="262.130863" y="212.710886" style="fill: #0000ff"/>
     <use xlink:href="#mc69c1a2306" x="265.747208" y="212.710886" style="fill: #0000ff"/>
     <use xlink:href="#mc69c1a2306" x="269.363554" y="212.710886" style="fill: #0000ff"/>
     <use xlink:href="#mc69c1a2306" x="272.979899" y="220.5733" style="fill: #0000ff"/>
     <use xlink:href="#mc69c1a2306" x="276.596244" y="204.848472" style="fill: #0000ff"/>
     <use xlink:href="#mc69c1a2306" x="280.21259" y="204.848472" style="fill: #0000ff"/>
     <use xlink:href="#mc69c1a2306" x="283.828935" y="212.710886" style="fill: #0000ff"/>
     <use xlink:href="#mc69c1a2306" x="287.44528" y="212.710886" style="fill: #0000ff"/>
     <use xlink:href="#mc69c1a2306" x="291.061625" y="224.504506" style="fill: #0000ff"/>
     <use xlink:href="#mc69c1a2306" x="294.677971" y="216.642093" style="fill: #0000ff"/>
     <use xlink:href="#mc69c1a2306" x="298.294316" y="216.642093" style="fill: #0000ff"/>
     <use xlink:href="#mc69c1a2306" x="301.910661" y="228.435713" style="fill: #0000ff"/>
     <use xlink:href="#mc69c1a2306" x="305.527006" y="220.5733" style="fill: #0000ff"/>
     <use xlink:href="#mc69c1a2306" x="309.143352" y="228.435713" style="fill: #0000ff"/>
     <use xlink:href="#mc69c1a2306" x="312.759697" y="236.298127" style="fill: #0000ff"/>
     <use xlink:href="#mc69c1a2306" x="316.376042" y="220.5733" style="fill: #0000ff"/>
     <use xlink:href="#mc69c1a2306" x="319.992388" y="228.435713" style="fill: #0000ff"/>
     <use xlink:href="#mc69c1a2306" x="323.608733" y="228.435713" style="fill: #0000ff"/>
     <use xlink:href="#mc69c1a2306" x="327.225078" y="240.229334" style="fill: #0000ff"/>
     <use xlink:href="#mc69c1a2306" x="330.841423" y="232.36692" style="fill: #0000ff"/>
     <use xlink:href="#mc69c1a2306" x="334.457769" y="232.36692" style="fill: #0000ff"/>
     <use xlink:href="#mc69c1a2306" x="338.074114" y="232.36692" style="fill: #0000ff"/>
     <use xlink:href="#mc69c1a2306" x="341.690459" y="228.435713" style="fill: #0000ff"/>
     <use xlink:href="#mc69c1a2306" x="345.306804" y="232.36692" style="fill: #0000ff"/>
     <use xlink:href="#mc69c1a2306" x="348.92315" y="244.160541" style="fill: #0000ff"/>
     <use xlink:href="#mc69c1a2306" x="352.539495" y="244.160541" style="fill: #0000ff"/>
     <use xlink:href="#mc69c1a2306" x="356.15584" y="240.229334" style="fill: #0000ff"/>
     <use xlink:href="#mc69c1a2306" x="359.772185" y="244.160541" style="fill: #0000ff"/>
     <use xlink:href="#mc69c1a2306" x="363.388531" y="236.298127" style="fill: #0000ff"/>
     <use xlink:href="#mc69c1a2306" x="367.004876" y="244.160541" style="fill: #0000ff"/>
     <use xlink:href="#mc69c1a2306" x="370.621221" y="244.160541" style="fill: #0000ff"/>
     <use xlink:href="#mc69c1a2306" x="374.237567" y="236.298127" style="fill: #0000ff"/>
     <use xlink:href="#mc69c1a2306" x="377.853912" y="236.298127" style="fill: #0000ff"/>
     <use xlink:href="#mc69c1a2306" x="381.470257" y="248.091748" style="fill: #0000ff"/>
     <use xlink:href="#mc69c1a2306" x="385.086602" y="248.091748" style="fill: #0000ff"/>
     <use xlink:href="#mc69c1a2306" x="388.702948" y="248.091748" style="fill: #0000ff"/>
     <use xlink:href="#mc69c1a2306" x="392.319293" y="252.022955" style="fill: #0000ff"/>
     <use xlink:href="#mc69c1a2306" x="395.935638" y="240.229334" style="fill: #0000ff"/>
     <use xlink:href="#mc69c1a2306" x="399.551983" y="240.229334" style="fill: #0000ff"/>
     <use xlink:href="#mc69c1a2306" x="403.168329" y="228.435713" style="fill: #0000ff"/>
     <use xlink:href="#mc69c1a2306" x="406.784674" y="228.435713" style="fill: #0000ff"/>
     <use xlink:href="#mc69c1a2306" x="410.401019" y="224.504506" style="fill: #0000ff"/>
     <use xlink:href="#mc69c1a2306" x="414.017365" y="232.36692" style="fill: #0000ff"/>
     <use xlink:href="#mc69c1a2306" x="417.63371" y="224.504506" style="fill: #0000ff"/>
     <use xlink:href="#mc69c1a2306" x="421.250055" y="228.435713" style="fill: #0000ff"/>
     <use xlink:href="#mc69c1a2306" x="424.8664" y="236.298127" style="fill: #0000ff"/>
     <use xlink:href="#mc69c1a2306" x="428.482746" y="232.36692" style="fill: #0000ff"/>
     <use xlink:href="#mc69c1a2306" x="432.099091" y="224.504506" style="fill: #0000ff"/>
    </g>
   </g>
   <g id="line2d_15">
    <path d="M 74.080909 63.325023 
L 77.697254 124.25873 
L 81.3136 166.846805 
L 84.929945 186.175239 
L 88.54629 200.131024 
L 92.162635 209.43488 
L 95.778981 216.642093 
L 99.395326 221.0647 
L 103.011671 225.378108 
L 106.628017 228.435713 
L 110.244362 231.294773 
L 113.860707 233.349722 
L 117.477052 235.390926 
L 121.093398 237.140529 
L 124.709743 238.656851 
L 128.326088 239.737933 
L 131.942433 240.229334 
L 135.558779 241.321336 
L 139.175124 242.29839 
L 142.791469 243.177739 
L 146.407815 243.78614 
L 150.02416 244.517924 
L 153.640505 245.186073 
L 157.25685 245.634744 
L 160.873196 246.04752 
L 164.489541 246.428545 
L 168.105886 246.635745 
L 171.722231 246.547345 
L 175.338577 246.329483 
L 178.954922 246.126145 
L 182.571267 245.935925 
L 186.187612 246.003294 
L 189.803958 245.709198 
L 193.420303 245.316778 
L 197.036648 245.059103 
L 200.652994 244.706542 
L 204.269339 244.373039 
L 207.885684 244.160541 
L 211.502029 243.858141 
L 215.118375 243.47258 
L 218.73472 243.105827 
L 222.351065 242.569338 
L 225.96741 241.966379 
L 229.583756 241.212136 
L 233.200101 240.491415 
L 236.816446 239.802029 
L 240.432792 239.309264 
L 244.049137 239.082732 
L 247.665482 238.384074 
L 251.281827 237.713362 
L 254.898173 236.99187 
L 258.514518 236.524928 
L 262.130863 236.075606 
L 265.747208 235.642926 
L 269.363554 235.22598 
L 272.979899 234.964325 
L 276.596244 234.435977 
L 280.21259 233.925847 
L 283.828935 233.566272 
L 287.44528 233.218682 
L 291.061625 233.075826 
L 294.677971 232.810766 
L 298.294316 232.554121 
L 301.910661 232.489771 
L 305.527006 232.30644 
L 309.143352 232.247793 
L 312.759697 232.308246 
L 316.376042 232.135673 
L 319.992388 232.08205 
L 323.608733 232.02996 
L 327.225078 232.145444 
L 330.841423 232.14852 
L 334.457769 232.151512 
L 338.074114 232.154423 
L 341.690459 232.10484 
L 345.306804 232.108288 
L 348.92315 232.264811 
L 352.539495 232.41732 
L 356.15584 232.516207 
L 359.772185 232.661761 
L 363.388531 232.706654 
L 367.004876 232.846336 
L 370.621221 232.982652 
L 374.237567 233.022121 
L 377.853912 233.060663 
L 381.470257 233.235443 
L 385.086602 233.406205 
L 388.702948 233.573086 
L 392.319293 233.780388 
L 395.935638 233.852043 
L 399.551983 233.922123 
L 403.168329 233.862488 
L 406.784674 233.804136 
L 410.401019 233.705204 
L 414.017365 233.691116 
L 417.63371 233.595422 
L 421.250055 233.54223 
L 424.8664 233.570351 
L 428.482746 233.558195 
L 432.099091 233.467658 
" clip-path="url(#p4f012c9df7)" style="fill: none; stroke: #0000ff; stroke-opacity: 0.5; stroke-width: 0.5; stroke-linecap: square"/>
    <defs>
     <path id="m0a61d50e99" d="M -0.49999 0.49999 
L 0.50001 0.49999 
L 0.50001 -0.50001 
L -0.49999 -0.50001 
z
"/>
    </defs>
    <g clip-path="url(#p4f012c9df7)">
     <use xlink:href="#m0a61d50e99" x="74.080909" y="63.325023" style="fill: #0000ff; fill-opacity: 0.5"/>
     <use xlink:href="#m0a61d50e99" x="77.697254" y="124.25873" style="fill: #0000ff; fill-opacity: 0.5"/>
     <use xlink:href="#m0a61d50e99" x="81.3136" y="166.846805" style="fill: #0000ff; fill-opacity: 0.5"/>
     <use xlink:href="#m0a61d50e99" x="84.929945" y="186.175239" style="fill: #0000ff; fill-opacity: 0.5"/>
     <use xlink:href="#m0a61d50e99" x="88.54629" y="200.131024" style="fill: #0000ff; fill-opacity: 0.5"/>
     <use xlink:href="#m0a61d50e99" x="92.162635" y="209.43488" style="fill: #0000ff; fill-opacity: 0.5"/>
     <use xlink:href="#m0a61d50e99" x="95.778981" y="216.642093" style="fill: #0000ff; fill-opacity: 0.5"/>
     <use xlink:href="#m0a61d50e99" x="99.395326" y="221.0647" style="fill: #0000ff; fill-opacity: 0.5"/>
     <use xlink:href="#m0a61d50e99" x="103.011671" y="225.378108" style="fill: #0000ff; fill-opacity: 0.5"/>
     <use xlink:href="#m0a61d50e99" x="106.628017" y="228.435713" style="fill: #0000ff; fill-opacity: 0.5"/>
     <use xlink:href="#m0a61d50e99" x="110.244362" y="231.294773" style="fill: #0000ff; fill-opacity: 0.5"/>
     <use xlink:href="#m0a61d50e99" x="113.860707" y="233.349722" style="fill: #0000ff; fill-opacity: 0.5"/>
     <use xlink:href="#m0a61d50e99" x="117.477052" y="235.390926" style="fill: #0000ff; fill-opacity: 0.5"/>
     <use xlink:href="#m0a61d50e99" x="121.093398" y="237.140529" style="fill: #0000ff; fill-opacity: 0.5"/>
     <use xlink:href="#m0a61d50e99" x="124.709743" y="238.656851" style="fill: #0000ff; fill-opacity: 0.5"/>
     <use xlink:href="#m0a61d50e99" x="128.326088" y="239.737933" style="fill: #0000ff; fill-opacity: 0.5"/>
     <use xlink:href="#m0a61d50e99" x="131.942433" y="240.229334" style="fill: #0000ff; fill-opacity: 0.5"/>
     <use xlink:href="#m0a61d50e99" x="135.558779" y="241.321336" style="fill: #0000ff; fill-opacity: 0.5"/>
     <use xlink:href="#m0a61d50e99" x="139.175124" y="242.29839" style="fill: #0000ff; fill-opacity: 0.5"/>
     <use xlink:href="#m0a61d50e99" x="142.791469" y="243.177739" style="fill: #0000ff; fill-opacity: 0.5"/>
     <use xlink:href="#m0a61d50e99" x="146.407815" y="243.78614" style="fill: #0000ff; fill-opacity: 0.5"/>
     <use xlink:href="#m0a61d50e99" x="150.02416" y="244.517924" style="fill: #0000ff; fill-opacity: 0.5"/>
     <use xlink:href="#m0a61d50e99" x="153.640505" y="245.186073" style="fill: #0000ff; fill-opacity: 0.5"/>
     <use xlink:href="#m0a61d50e99" x="157.25685" y="245.634744" style="fill: #0000ff; fill-opacity: 0.5"/>
     <use xlink:href="#m0a61d50e99" x="160.873196" y="246.04752" style="fill: #0000ff; fill-opacity: 0.5"/>
     <use xlink:href="#m0a61d50e99" x="164.489541" y="246.428545" style="fill: #0000ff; fill-opacity: 0.5"/>
     <use xlink:href="#m0a61d50e99" x="168.105886" y="246.635745" style="fill: #0000ff; fill-opacity: 0.5"/>
     <use xlink:href="#m0a61d50e99" x="171.722231" y="246.547345" style="fill: #0000ff; fill-opacity: 0.5"/>
     <use xlink:href="#m0a61d50e99" x="175.338577" y="246.329483" style="fill: #0000ff; fill-opacity: 0.5"/>
     <use xlink:href="#m0a61d50e99" x="178.954922" y="246.126145" style="fill: #0000ff; fill-opacity: 0.5"/>
     <use xlink:href="#m0a61d50e99" x="182.571267" y="245.935925" style="fill: #0000ff; fill-opacity: 0.5"/>
     <use xlink:href="#m0a61d50e99" x="186.187612" y="246.003294" style="fill: #0000ff; fill-opacity: 0.5"/>
     <use xlink:href="#m0a61d50e99" x="189.803958" y="245.709198" style="fill: #0000ff; fill-opacity: 0.5"/>
     <use xlink:href="#m0a61d50e99" x="193.420303" y="245.316778" style="fill: #0000ff; fill-opacity: 0.5"/>
     <use xlink:href="#m0a61d50e99" x="197.036648" y="245.059103" style="fill: #0000ff; fill-opacity: 0.5"/>
     <use xlink:href="#m0a61d50e99" x="200.652994" y="244.706542" style="fill: #0000ff; fill-opacity: 0.5"/>
     <use xlink:href="#m0a61d50e99" x="204.269339" y="244.373039" style="fill: #0000ff; fill-opacity: 0.5"/>
     <use xlink:href="#m0a61d50e99" x="207.885684" y="244.160541" style="fill: #0000ff; fill-opacity: 0.5"/>
     <use xlink:href="#m0a61d50e99" x="211.502029" y="243.858141" style="fill: #0000ff; fill-opacity: 0.5"/>
     <use xlink:href="#m0a61d50e99" x="215.118375" y="243.47258" style="fill: #0000ff; fill-opacity: 0.5"/>
     <use xlink:href="#m0a61d50e99" x="218.73472" y="243.105827" style="fill: #0000ff; fill-opacity: 0.5"/>
     <use xlink:href="#m0a61d50e99" x="222.351065" y="242.569338" style="fill: #0000ff; fill-opacity: 0.5"/>
     <use xlink:href="#m0a61d50e99" x="225.96741" y="241.966379" style="fill: #0000ff; fill-opacity: 0.5"/>
     <use xlink:href="#m0a61d50e99" x="229.583756" y="241.212136" style="fill: #0000ff; fill-opacity: 0.5"/>
     <use xlink:href="#m0a61d50e99" x="233.200101" y="240.491415" style="fill: #0000ff; fill-opacity: 0.5"/>
     <use xlink:href="#m0a61d50e99" x="236.816446" y="239.802029" style="fill: #0000ff; fill-opacity: 0.5"/>
     <use xlink:href="#m0a61d50e99" x="240.432792" y="239.309264" style="fill: #0000ff; fill-opacity: 0.5"/>
     <use xlink:href="#m0a61d50e99" x="244.049137" y="239.082732" style="fill: #0000ff; fill-opacity: 0.5"/>
     <use xlink:href="#m0a61d50e99" x="247.665482" y="238.384074" style="fill: #0000ff; fill-opacity: 0.5"/>
     <use xlink:href="#m0a61d50e99" x="251.281827" y="237.713362" style="fill: #0000ff; fill-opacity: 0.5"/>
     <use xlink:href="#m0a61d50e99" x="254.898173" y="236.99187" style="fill: #0000ff; fill-opacity: 0.5"/>
     <use xlink:href="#m0a61d50e99" x="258.514518" y="236.524928" style="fill: #0000ff; fill-opacity: 0.5"/>
     <use xlink:href="#m0a61d50e99" x="262.130863" y="236.075606" style="fill: #0000ff; fill-opacity: 0.5"/>
     <use xlink:href="#m0a61d50e99" x="265.747208" y="235.642926" style="fill: #0000ff; fill-opacity: 0.5"/>
     <use xlink:href="#m0a61d50e99" x="269.363554" y="235.22598" style="fill: #0000ff; fill-opacity: 0.5"/>
     <use xlink:href="#m0a61d50e99" x="272.979899" y="234.964325" style="fill: #0000ff; fill-opacity: 0.5"/>
     <use xlink:href="#m0a61d50e99" x="276.596244" y="234.435977" style="fill: #0000ff; fill-opacity: 0.5"/>
     <use xlink:href="#m0a61d50e99" x="280.21259" y="233.925847" style="fill: #0000ff; fill-opacity: 0.5"/>
     <use xlink:href="#m0a61d50e99" x="283.828935" y="233.566272" style="fill: #0000ff; fill-opacity: 0.5"/>
     <use xlink:href="#m0a61d50e99" x="287.44528" y="233.218682" style="fill: #0000ff; fill-opacity: 0.5"/>
     <use xlink:href="#m0a61d50e99" x="291.061625" y="233.075826" style="fill: #0000ff; fill-opacity: 0.5"/>
     <use xlink:href="#m0a61d50e99" x="294.677971" y="232.810766" style="fill: #0000ff; fill-opacity: 0.5"/>
     <use xlink:href="#m0a61d50e99" x="298.294316" y="232.554121" style="fill: #0000ff; fill-opacity: 0.5"/>
     <use xlink:href="#m0a61d50e99" x="301.910661" y="232.489771" style="fill: #0000ff; fill-opacity: 0.5"/>
     <use xlink:href="#m0a61d50e99" x="305.527006" y="232.30644" style="fill: #0000ff; fill-opacity: 0.5"/>
     <use xlink:href="#m0a61d50e99" x="309.143352" y="232.247793" style="fill: #0000ff; fill-opacity: 0.5"/>
     <use xlink:href="#m0a61d50e99" x="312.759697" y="232.308246" style="fill: #0000ff; fill-opacity: 0.5"/>
     <use xlink:href="#m0a61d50e99" x="316.376042" y="232.135673" style="fill: #0000ff; fill-opacity: 0.5"/>
     <use xlink:href="#m0a61d50e99" x="319.992388" y="232.08205" style="fill: #0000ff; fill-opacity: 0.5"/>
     <use xlink:href="#m0a61d50e99" x="323.608733" y="232.02996" style="fill: #0000ff; fill-opacity: 0.5"/>
     <use xlink:href="#m0a61d50e99" x="327.225078" y="232.145444" style="fill: #0000ff; fill-opacity: 0.5"/>
     <use xlink:href="#m0a61d50e99" x="330.841423" y="232.14852" style="fill: #0000ff; fill-opacity: 0.5"/>
     <use xlink:href="#m0a61d50e99" x="334.457769" y="232.151512" style="fill: #0000ff; fill-opacity: 0.5"/>
     <use xlink:href="#m0a61d50e99" x="338.074114" y="232.154423" style="fill: #0000ff; fill-opacity: 0.5"/>
     <use xlink:href="#m0a61d50e99" x="341.690459" y="232.10484" style="fill: #0000ff; fill-opacity: 0.5"/>
     <use xlink:href="#m0a61d50e99" x="345.306804" y="232.108288" style="fill: #0000ff; fill-opacity: 0.5"/>
     <use xlink:href="#m0a61d50e99" x="348.92315" y="232.264811" style="fill: #0000ff; fill-opacity: 0.5"/>
     <use xlink:href="#m0a61d50e99" x="352.539495" y="232.41732" style="fill: #0000ff; fill-opacity: 0.5"/>
     <use xlink:href="#m0a61d50e99" x="356.15584" y="232.516207" style="fill: #0000ff; fill-opacity: 0.5"/>
     <use xlink:href="#m0a61d50e99" x="359.772185" y="232.661761" style="fill: #0000ff; fill-opacity: 0.5"/>
     <use xlink:href="#m0a61d50e99" x="363.388531" y="232.706654" style="fill: #0000ff; fill-opacity: 0.5"/>
     <use xlink:href="#m0a61d50e99" x="367.004876" y="232.846336" style="fill: #0000ff; fill-opacity: 0.5"/>
     <use xlink:href="#m0a61d50e99" x="370.621221" y="232.982652" style="fill: #0000ff; fill-opacity: 0.5"/>
     <use xlink:href="#m0a61d50e99" x="374.237567" y="233.022121" style="fill: #0000ff; fill-opacity: 0.5"/>
     <use xlink:href="#m0a61d50e99" x="377.853912" y="233.060663" style="fill: #0000ff; fill-opacity: 0.5"/>
     <use xlink:href="#m0a61d50e99" x="381.470257" y="233.235443" style="fill: #0000ff; fill-opacity: 0.5"/>
     <use xlink:href="#m0a61d50e99" x="385.086602" y="233.406205" style="fill: #0000ff; fill-opacity: 0.5"/>
     <use xlink:href="#m0a61d50e99" x="388.702948" y="233.573086" style="fill: #0000ff; fill-opacity: 0.5"/>
     <use xlink:href="#m0a61d50e99" x="392.319293" y="233.780388" style="fill: #0000ff; fill-opacity: 0.5"/>
     <use xlink:href="#m0a61d50e99" x="395.935638" y="233.852043" style="fill: #0000ff; fill-opacity: 0.5"/>
     <use xlink:href="#m0a61d50e99" x="399.551983" y="233.922123" style="fill: #0000ff; fill-opacity: 0.5"/>
     <use xlink:href="#m0a61d50e99" x="403.168329" y="233.862488" style="fill: #0000ff; fill-opacity: 0.5"/>
     <use xlink:href="#m0a61d50e99" x="406.784674" y="233.804136" style="fill: #0000ff; fill-opacity: 0.5"/>
     <use xlink:href="#m0a61d50e99" x="410.401019" y="233.705204" style="fill: #0000ff; fill-opacity: 0.5"/>
     <use xlink:href="#m0a61d50e99" x="414.017365" y="233.691116" style="fill: #0000ff; fill-opacity: 0.5"/>
     <use xlink:href="#m0a61d50e99" x="417.63371" y="233.595422" style="fill: #0000ff; fill-opacity: 0.5"/>
     <use xlink:href="#m0a61d50e99" x="421.250055" y="233.54223" style="fill: #0000ff; fill-opacity: 0.5"/>
     <use xlink:href="#m0a61d50e99" x="424.8664" y="233.570351" style="fill: #0000ff; fill-opacity: 0.5"/>
     <use xlink:href="#m0a61d50e99" x="428.482746" y="233.558195" style="fill: #0000ff; fill-opacity: 0.5"/>
     <use xlink:href="#m0a61d50e99" x="432.099091" y="233.467658" style="fill: #0000ff; fill-opacity: 0.5"/>
    </g>
   </g>
   <g id="line2d_16">
    <path d="M 56.18 259.885369 
L 450 259.885369 
" clip-path="url(#p4f012c9df7)" style="fill: none; stroke-dasharray: 0.555,0.24; stroke-dashoffset: 0; stroke: #ff0000; stroke-width: 0.15"/>
   </g>
   <g id="line2d_17">
    <path d="M 56.18 161.605196 
L 450 161.605196 
" clip-path="url(#p4f012c9df7)" style="fill: none; stroke-dasharray: 0.555,0.24; stroke-dashoffset: 0; stroke: #ff0000; stroke-width: 0.15"/>
   </g>
   <g id="line2d_18">
    <path d="M 56.18 63.325023 
L 450 63.325023 
" clip-path="url(#p4f012c9df7)" style="fill: none; stroke-dasharray: 0.555,0.24; stroke-dashoffset: 0; stroke: #ff0000; stroke-width: 0.15"/>
   </g>
   <g id="line2d_19">
    <path d="M 74.080909 259.885369 
L 77.697254 259.885369 
L 81.3136 259.885369 
L 84.929945 259.885369 
L 88.54629 259.885369 
L 92.162635 259.885369 
L 95.778981 259.885369 
L 99.395326 259.885369 
L 103.011671 259.885369 
L 106.628017 259.885369 
L 110.244362 259.885369 
L 113.860707 259.885369 
L 117.477052 259.885369 
L 121.093398 259.885369 
L 124.709743 259.885369 
L 128.326088 259.885369 
L 131.942433 259.885369 
L 135.558779 259.885369 
L 139.175124 259.885369 
L 142.791469 259.885369 
L 146.407815 259.885369 
L 150.02416 259.885369 
L 153.640505 259.885369 
L 157.25685 259.885369 
L 160.873196 259.885369 
L 164.489541 259.885369 
L 168.105886 259.885369 
L 171.722231 259.885369 
L 175.338577 259.885369 
L 178.954922 259.885369 
L 182.571267 259.885369 
L 186.187612 259.885369 
L 189.803958 259.885369 
L 193.420303 259.885369 
L 197.036648 259.885369 
L 200.652994 259.885369 
L 204.269339 259.885369 
L 207.885684 259.885369 
L 211.502029 259.885369 
L 215.118375 259.885369 
L 218.73472 259.885369 
L 222.351065 259.885369 
L 225.96741 259.885369 
L 229.583756 259.885369 
L 233.200101 259.885369 
L 236.816446 259.885369 
L 240.432792 259.885369 
L 244.049137 259.885369 
L 247.665482 259.885369 
L 251.281827 259.885369 
L 254.898173 259.885369 
L 258.514518 259.885369 
L 262.130863 259.885369 
L 265.747208 259.885369 
L 269.363554 259.885369 
L 272.979899 259.885369 
L 276.596244 259.885369 
L 280.21259 259.885369 
L 283.828935 259.885369 
L 287.44528 259.885369 
L 291.061625 259.885369 
L 294.677971 259.885369 
L 298.294316 259.885369 
L 301.910661 259.885369 
L 305.527006 259.885369 
L 309.143352 259.885369 
L 312.759697 259.885369 
L 316.376042 259.885369 
L 319.992388 259.885369 
L 323.608733 259.885369 
L 327.225078 259.885369 
L 330.841423 259.885369 
L 334.457769 259.885369 
L 338.074114 259.885369 
L 341.690459 259.885369 
L 345.306804 259.885369 
L 348.92315 259.885369 
L 352.539495 259.885369 
L 356.15584 259.885369 
L 359.772185 259.885369 
L 363.388531 259.885369 
L 367.004876 259.885369 
L 370.621221 259.885369 
L 374.237567 259.885369 
L 377.853912 259.885369 
L 381.470257 259.885369 
L 385.086602 259.885369 
L 388.702948 259.885369 
L 392.319293 259.885369 
L 395.935638 259.885369 
L 399.551983 259.885369 
L 403.168329 259.885369 
L 406.784674 259.885369 
L 410.401019 259.885369 
L 414.017365 259.885369 
L 417.63371 259.885369 
L 421.250055 259.885369 
L 424.8664 259.885369 
L 428.482746 259.885369 
L 432.099091 259.885369 
" clip-path="url(#p4f012c9df7)" style="fill: none; stroke: #ff0000; stroke-width: 0.5; stroke-linecap: square"/>
    <defs>
     <path id="m07ed3cbb35" d="M -0.49999 0.49999 
L 0.50001 0.49999 
L 0.50001 -0.50001 
L -0.49999 -0.50001 
z
"/>
    </defs>
    <g clip-path="url(#p4f012c9df7)">
     <use xlink:href="#m07ed3cbb35" x="74.080909" y="259.885369" style="fill: #ff0000"/>
     <use xlink:href="#m07ed3cbb35" x="77.697254" y="259.885369" style="fill: #ff0000"/>
     <use xlink:href="#m07ed3cbb35" x="81.3136" y="259.885369" style="fill: #ff0000"/>
     <use xlink:href="#m07ed3cbb35" x="84.929945" y="259.885369" style="fill: #ff0000"/>
     <use xlink:href="#m07ed3cbb35" x="88.54629" y="259.885369" style="fill: #ff0000"/>
     <use xlink:href="#m07ed3cbb35" x="92.162635" y="259.885369" style="fill: #ff0000"/>
     <use xlink:href="#m07ed3cbb35" x="95.778981" y="259.885369" style="fill: #ff0000"/>
     <use xlink:href="#m07ed3cbb35" x="99.395326" y="259.885369" style="fill: #ff0000"/>
     <use xlink:href="#m07ed3cbb35" x="103.011671" y="259.885369" style="fill: #ff0000"/>
     <use xlink:href="#m07ed3cbb35" x="106.628017" y="259.885369" style="fill: #ff0000"/>
     <use xlink:href="#m07ed3cbb35" x="110.244362" y="259.885369" style="fill: #ff0000"/>
     <use xlink:href="#m07ed3cbb35" x="113.860707" y="259.885369" style="fill: #ff0000"/>
     <use xlink:href="#m07ed3cbb35" x="117.477052" y="259.885369" style="fill: #ff0000"/>
     <use xlink:href="#m07ed3cbb35" x="121.093398" y="259.885369" style="fill: #ff0000"/>
     <use xlink:href="#m07ed3cbb35" x="124.709743" y="259.885369" style="fill: #ff0000"/>
     <use xlink:href="#m07ed3cbb35" x="128.326088" y="259.885369" style="fill: #ff0000"/>
     <use xlink:href="#m07ed3cbb35" x="131.942433" y="259.885369" style="fill: #ff0000"/>
     <use xlink:href="#m07ed3cbb35" x="135.558779" y="259.885369" style="fill: #ff0000"/>
     <use xlink:href="#m07ed3cbb35" x="139.175124" y="259.885369" style="fill: #ff0000"/>
     <use xlink:href="#m07ed3cbb35" x="142.791469" y="259.885369" style="fill: #ff0000"/>
     <use xlink:href="#m07ed3cbb35" x="146.407815" y="259.885369" style="fill: #ff0000"/>
     <use xlink:href="#m07ed3cbb35" x="150.02416" y="259.885369" style="fill: #ff0000"/>
     <use xlink:href="#m07ed3cbb35" x="153.640505" y="259.885369" style="fill: #ff0000"/>
     <use xlink:href="#m07ed3cbb35" x="157.25685" y="259.885369" style="fill: #ff0000"/>
     <use xlink:href="#m07ed3cbb35" x="160.873196" y="259.885369" style="fill: #ff0000"/>
     <use xlink:href="#m07ed3cbb35" x="164.489541" y="259.885369" style="fill: #ff0000"/>
     <use xlink:href="#m07ed3cbb35" x="168.105886" y="259.885369" style="fill: #ff0000"/>
     <use xlink:href="#m07ed3cbb35" x="171.722231" y="259.885369" style="fill: #ff0000"/>
     <use xlink:href="#m07ed3cbb35" x="175.338577" y="259.885369" style="fill: #ff0000"/>
     <use xlink:href="#m07ed3cbb35" x="178.954922" y="259.885369" style="fill: #ff0000"/>
     <use xlink:href="#m07ed3cbb35" x="182.571267" y="259.885369" style="fill: #ff0000"/>
     <use xlink:href="#m07ed3cbb35" x="186.187612" y="259.885369" style="fill: #ff0000"/>
     <use xlink:href="#m07ed3cbb35" x="189.803958" y="259.885369" style="fill: #ff0000"/>
     <use xlink:href="#m07ed3cbb35" x="193.420303" y="259.885369" style="fill: #ff0000"/>
     <use xlink:href="#m07ed3cbb35" x="197.036648" y="259.885369" style="fill: #ff0000"/>
     <use xlink:href="#m07ed3cbb35" x="200.652994" y="259.885369" style="fill: #ff0000"/>
     <use xlink:href="#m07ed3cbb35" x="204.269339" y="259.885369" style="fill: #ff0000"/>
     <use xlink:href="#m07ed3cbb35" x="207.885684" y="259.885369" style="fill: #ff0000"/>
     <use xlink:href="#m07ed3cbb35" x="211.502029" y="259.885369" style="fill: #ff0000"/>
     <use xlink:href="#m07ed3cbb35" x="215.118375" y="259.885369" style="fill: #ff0000"/>
     <use xlink:href="#m07ed3cbb35" x="218.73472" y="259.885369" style="fill: #ff0000"/>
     <use xlink:href="#m07ed3cbb35" x="222.351065" y="259.885369" style="fill: #ff0000"/>
     <use xlink:href="#m07ed3cbb35" x="225.96741" y="259.885369" style="fill: #ff0000"/>
     <use xlink:href="#m07ed3cbb35" x="229.583756" y="259.885369" style="fill: #ff0000"/>
     <use xlink:href="#m07ed3cbb35" x="233.200101" y="259.885369" style="fill: #ff0000"/>
     <use xlink:href="#m07ed3cbb35" x="236.816446" y="259.885369" style="fill: #ff0000"/>
     <use xlink:href="#m07ed3cbb35" x="240.432792" y="259.885369" style="fill: #ff0000"/>
     <use xlink:href="#m07ed3cbb35" x="244.049137" y="259.885369" style="fill: #ff0000"/>
     <use xlink:href="#m07ed3cbb35" x="247.665482" y="259.885369" style="fill: #ff0000"/>
     <use xlink:href="#m07ed3cbb35" x="251.281827" y="259.885369" style="fill: #ff0000"/>
     <use xlink:href="#m07ed3cbb35" x="254.898173" y="259.885369" style="fill: #ff0000"/>
     <use xlink:href="#m07ed3cbb35" x="258.514518" y="259.885369" style="fill: #ff0000"/>
     <use xlink:href="#m07ed3cbb35" x="262.130863" y="259.885369" style="fill: #ff0000"/>
     <use xlink:href="#m07ed3cbb35" x="265.747208" y="259.885369" style="fill: #ff0000"/>
     <use xlink:href="#m07ed3cbb35" x="269.363554" y="259.885369" style="fill: #ff0000"/>
     <use xlink:href="#m07ed3cbb35" x="272.979899" y="259.885369" style="fill: #ff0000"/>
     <use xlink:href="#m07ed3cbb35" x="276.596244" y="259.885369" style="fill: #ff0000"/>
     <use xlink:href="#m07ed3cbb35" x="280.21259" y="259.885369" style="fill: #ff0000"/>
     <use xlink:href="#m07ed3cbb35" x="283.828935" y="259.885369" style="fill: #ff0000"/>
     <use xlink:href="#m07ed3cbb35" x="287.44528" y="259.885369" style="fill: #ff0000"/>
     <use xlink:href="#m07ed3cbb35" x="291.061625" y="259.885369" style="fill: #ff0000"/>
     <use xlink:href="#m07ed3cbb35" x="294.677971" y="259.885369" style="fill: #ff0000"/>
     <use xlink:href="#m07ed3cbb35" x="298.294316" y="259.885369" style="fill: #ff0000"/>
     <use xlink:href="#m07ed3cbb35" x="301.910661" y="259.885369" style="fill: #ff0000"/>
     <use xlink:href="#m07ed3cbb35" x="305.527006" y="259.885369" style="fill: #ff0000"/>
     <use xlink:href="#m07ed3cbb35" x="309.143352" y="259.885369" style="fill: #ff0000"/>
     <use xlink:href="#m07ed3cbb35" x="312.759697" y="259.885369" style="fill: #ff0000"/>
     <use xlink:href="#m07ed3cbb35" x="316.376042" y="259.885369" style="fill: #ff0000"/>
     <use xlink:href="#m07ed3cbb35" x="319.992388" y="259.885369" style="fill: #ff0000"/>
     <use xlink:href="#m07ed3cbb35" x="323.608733" y="259.885369" style="fill: #ff0000"/>
     <use xlink:href="#m07ed3cbb35" x="327.225078" y="259.885369" style="fill: #ff0000"/>
     <use xlink:href="#m07ed3cbb35" x="330.841423" y="259.885369" style="fill: #ff0000"/>
     <use xlink:href="#m07ed3cbb35" x="334.457769" y="259.885369" style="fill: #ff0000"/>
     <use xlink:href="#m07ed3cbb35" x="338.074114" y="259.885369" style="fill: #ff0000"/>
     <use xlink:href="#m07ed3cbb35" x="341.690459" y="259.885369" style="fill: #ff0000"/>
     <use xlink:href="#m07ed3cbb35" x="345.306804" y="259.885369" style="fill: #ff0000"/>
     <use xlink:href="#m07ed3cbb35" x="348.92315" y="259.885369" style="fill: #ff0000"/>
     <use xlink:href="#m07ed3cbb35" x="352.539495" y="259.885369" style="fill: #ff0000"/>
     <use xlink:href="#m07ed3cbb35" x="356.15584" y="259.885369" style="fill: #ff0000"/>
     <use xlink:href="#m07ed3cbb35" x="359.772185" y="259.885369" style="fill: #ff0000"/>
     <use xlink:href="#m07ed3cbb35" x="363.388531" y="259.885369" style="fill: #ff0000"/>
     <use xlink:href="#m07ed3cbb35" x="367.004876" y="259.885369" style="fill: #ff0000"/>
     <use xlink:href="#m07ed3cbb35" x="370.621221" y="259.885369" style="fill: #ff0000"/>
     <use xlink:href="#m07ed3cbb35" x="374.237567" y="259.885369" style="fill: #ff0000"/>
     <use xlink:href="#m07ed3cbb35" x="377.853912" y="259.885369" style="fill: #ff0000"/>
     <use xlink:href="#m07ed3cbb35" x="381.470257" y="259.885369" style="fill: #ff0000"/>
     <use xlink:href="#m07ed3cbb35" x="385.086602" y="259.885369" style="fill: #ff0000"/>
     <use xlink:href="#m07ed3cbb35" x="388.702948" y="259.885369" style="fill: #ff0000"/>
     <use xlink:href="#m07ed3cbb35" x="392.319293" y="259.885369" style="fill: #ff0000"/>
     <use xlink:href="#m07ed3cbb35" x="395.935638" y="259.885369" style="fill: #ff0000"/>
     <use xlink:href="#m07ed3cbb35" x="399.551983" y="259.885369" style="fill: #ff0000"/>
     <use xlink:href="#m07ed3cbb35" x="403.168329" y="259.885369" style="fill: #ff0000"/>
     <use xlink:href="#m07ed3cbb35" x="406.784674" y="259.885369" style="fill: #ff0000"/>
     <use xlink:href="#m07ed3cbb35" x="410.401019" y="259.885369" style="fill: #ff0000"/>
     <use xlink:href="#m07ed3cbb35" x="414.017365" y="259.885369" style="fill: #ff0000"/>
     <use xlink:href="#m07ed3cbb35" x="417.63371" y="259.885369" style="fill: #ff0000"/>
     <use xlink:href="#m07ed3cbb35" x="421.250055" y="259.885369" style="fill: #ff0000"/>
     <use xlink:href="#m07ed3cbb35" x="424.8664" y="259.885369" style="fill: #ff0000"/>
     <use xlink:href="#m07ed3cbb35" x="428.482746" y="259.885369" style="fill: #ff0000"/>
     <use xlink:href="#m07ed3cbb35" x="432.099091" y="259.885369" style="fill: #ff0000"/>
    </g>
   </g>
   <g id="line2d_20">
    <path d="M 74.080909 259.885369 
L 77.697254 259.885369 
L 81.3136 259.885369 
L 84.929945 259.885369 
L 88.54629 259.885369 
L 92.162635 259.885369 
L 95.778981 259.885369 
L 99.395326 259.885369 
L 103.011671 259.885369 
L 106.628017 259.885369 
L 110.244362 259.885369 
L 113.860707 259.885369 
L 117.477052 259.885369 
L 121.093398 259.885369 
L 124.709743 259.885369 
L 128.326088 259.885369 
L 131.942433 259.885369 
L 135.558779 259.885369 
L 139.175124 259.885369 
L 142.791469 259.885369 
L 146.407815 259.885369 
L 150.02416 259.885369 
L 153.640505 259.885369 
L 157.25685 259.885369 
L 160.873196 259.885369 
L 164.489541 259.885369 
L 168.105886 259.885369 
L 171.722231 259.885369 
L 175.338577 259.885369 
L 178.954922 259.885369 
L 182.571267 259.885369 
L 186.187612 259.885369 
L 189.803958 259.885369 
L 193.420303 259.885369 
L 197.036648 259.885369 
L 200.652994 259.885369 
L 204.269339 259.885369 
L 207.885684 259.885369 
L 211.502029 259.885369 
L 215.118375 259.885369 
L 218.73472 259.885369 
L 222.351065 259.885369 
L 225.96741 259.885369 
L 229.583756 259.885369 
L 233.200101 259.885369 
L 236.816446 259.885369 
L 240.432792 259.885369 
L 244.049137 259.885369 
L 247.665482 259.885369 
L 251.281827 259.885369 
L 254.898173 259.885369 
L 258.514518 259.885369 
L 262.130863 259.885369 
L 265.747208 259.885369 
L 269.363554 259.885369 
L 272.979899 259.885369 
L 276.596244 259.885369 
L 280.21259 259.885369 
L 283.828935 259.885369 
L 287.44528 259.885369 
L 291.061625 259.885369 
L 294.677971 259.885369 
L 298.294316 259.885369 
L 301.910661 259.885369 
L 305.527006 259.885369 
L 309.143352 259.885369 
L 312.759697 259.885369 
L 316.376042 259.885369 
L 319.992388 259.885369 
L 323.608733 259.885369 
L 327.225078 259.885369 
L 330.841423 259.885369 
L 334.457769 259.885369 
L 338.074114 259.885369 
L 341.690459 259.885369 
L 345.306804 259.885369 
L 348.92315 259.885369 
L 352.539495 259.885369 
L 356.15584 259.885369 
L 359.772185 259.885369 
L 363.388531 259.885369 
L 367.004876 259.885369 
L 370.621221 259.885369 
L 374.237567 259.885369 
L 377.853912 259.885369 
L 381.470257 259.885369 
L 385.086602 259.885369 
L 388.702948 259.885369 
L 392.319293 259.885369 
L 395.935638 259.885369 
L 399.551983 259.885369 
L 403.168329 259.885369 
L 406.784674 259.885369 
L 410.401019 259.885369 
L 414.017365 259.885369 
L 417.63371 259.885369 
L 421.250055 259.885369 
L 424.8664 259.885369 
L 428.482746 259.885369 
L 432.099091 259.885369 
" clip-path="url(#p4f012c9df7)" style="fill: none; stroke: #ff0000; stroke-opacity: 0.5; stroke-width: 0.25; stroke-linecap: square"/>
    <defs>
     <path id="m82837a4627" d="M -0.49999 0.49999 
L 0.50001 0.49999 
L 0.50001 -0.50001 
L -0.49999 -0.50001 
z
"/>
    </defs>
    <g clip-path="url(#p4f012c9df7)">
     <use xlink:href="#m82837a4627" x="74.080909" y="259.885369" style="fill: #ff0000; fill-opacity: 0.5"/>
     <use xlink:href="#m82837a4627" x="77.697254" y="259.885369" style="fill: #ff0000; fill-opacity: 0.5"/>
     <use xlink:href="#m82837a4627" x="81.3136" y="259.885369" style="fill: #ff0000; fill-opacity: 0.5"/>
     <use xlink:href="#m82837a4627" x="84.929945" y="259.885369" style="fill: #ff0000; fill-opacity: 0.5"/>
     <use xlink:href="#m82837a4627" x="88.54629" y="259.885369" style="fill: #ff0000; fill-opacity: 0.5"/>
     <use xlink:href="#m82837a4627" x="92.162635" y="259.885369" style="fill: #ff0000; fill-opacity: 0.5"/>
     <use xlink:href="#m82837a4627" x="95.778981" y="259.885369" style="fill: #ff0000; fill-opacity: 0.5"/>
     <use xlink:href="#m82837a4627" x="99.395326" y="259.885369" style="fill: #ff0000; fill-opacity: 0.5"/>
     <use xlink:href="#m82837a4627" x="103.011671" y="259.885369" style="fill: #ff0000; fill-opacity: 0.5"/>
     <use xlink:href="#m82837a4627" x="106.628017" y="259.885369" style="fill: #ff0000; fill-opacity: 0.5"/>
     <use xlink:href="#m82837a4627" x="110.244362" y="259.885369" style="fill: #ff0000; fill-opacity: 0.5"/>
     <use xlink:href="#m82837a4627" x="113.860707" y="259.885369" style="fill: #ff0000; fill-opacity: 0.5"/>
     <use xlink:href="#m82837a4627" x="117.477052" y="259.885369" style="fill: #ff0000; fill-opacity: 0.5"/>
     <use xlink:href="#m82837a4627" x="121.093398" y="259.885369" style="fill: #ff0000; fill-opacity: 0.5"/>
     <use xlink:href="#m82837a4627" x="124.709743" y="259.885369" style="fill: #ff0000; fill-opacity: 0.5"/>
     <use xlink:href="#m82837a4627" x="128.326088" y="259.885369" style="fill: #ff0000; fill-opacity: 0.5"/>
     <use xlink:href="#m82837a4627" x="131.942433" y="259.885369" style="fill: #ff0000; fill-opacity: 0.5"/>
     <use xlink:href="#m82837a4627" x="135.558779" y="259.885369" style="fill: #ff0000; fill-opacity: 0.5"/>
     <use xlink:href="#m82837a4627" x="139.175124" y="259.885369" style="fill: #ff0000; fill-opacity: 0.5"/>
     <use xlink:href="#m82837a4627" x="142.791469" y="259.885369" style="fill: #ff0000; fill-opacity: 0.5"/>
     <use xlink:href="#m82837a4627" x="146.407815" y="259.885369" style="fill: #ff0000; fill-opacity: 0.5"/>
     <use xlink:href="#m82837a4627" x="150.02416" y="259.885369" style="fill: #ff0000; fill-opacity: 0.5"/>
     <use xlink:href="#m82837a4627" x="153.640505" y="259.885369" style="fill: #ff0000; fill-opacity: 0.5"/>
     <use xlink:href="#m82837a4627" x="157.25685" y="259.885369" style="fill: #ff0000; fill-opacity: 0.5"/>
     <use xlink:href="#m82837a4627" x="160.873196" y="259.885369" style="fill: #ff0000; fill-opacity: 0.5"/>
     <use xlink:href="#m82837a4627" x="164.489541" y="259.885369" style="fill: #ff0000; fill-opacity: 0.5"/>
     <use xlink:href="#m82837a4627" x="168.105886" y="259.885369" style="fill: #ff0000; fill-opacity: 0.5"/>
     <use xlink:href="#m82837a4627" x="171.722231" y="259.885369" style="fill: #ff0000; fill-opacity: 0.5"/>
     <use xlink:href="#m82837a4627" x="175.338577" y="259.885369" style="fill: #ff0000; fill-opacity: 0.5"/>
     <use xlink:href="#m82837a4627" x="178.954922" y="259.885369" style="fill: #ff0000; fill-opacity: 0.5"/>
     <use xlink:href="#m82837a4627" x="182.571267" y="259.885369" style="fill: #ff0000; fill-opacity: 0.5"/>
     <use xlink:href="#m82837a4627" x="186.187612" y="259.885369" style="fill: #ff0000; fill-opacity: 0.5"/>
     <use xlink:href="#m82837a4627" x="189.803958" y="259.885369" style="fill: #ff0000; fill-opacity: 0.5"/>
     <use xlink:href="#m82837a4627" x="193.420303" y="259.885369" style="fill: #ff0000; fill-opacity: 0.5"/>
     <use xlink:href="#m82837a4627" x="197.036648" y="259.885369" style="fill: #ff0000; fill-opacity: 0.5"/>
     <use xlink:href="#m82837a4627" x="200.652994" y="259.885369" style="fill: #ff0000; fill-opacity: 0.5"/>
     <use xlink:href="#m82837a4627" x="204.269339" y="259.885369" style="fill: #ff0000; fill-opacity: 0.5"/>
     <use xlink:href="#m82837a4627" x="207.885684" y="259.885369" style="fill: #ff0000; fill-opacity: 0.5"/>
     <use xlink:href="#m82837a4627" x="211.502029" y="259.885369" style="fill: #ff0000; fill-opacity: 0.5"/>
     <use xlink:href="#m82837a4627" x="215.118375" y="259.885369" style="fill: #ff0000; fill-opacity: 0.5"/>
     <use xlink:href="#m82837a4627" x="218.73472" y="259.885369" style="fill: #ff0000; fill-opacity: 0.5"/>
     <use xlink:href="#m82837a4627" x="222.351065" y="259.885369" style="fill: #ff0000; fill-opacity: 0.5"/>
     <use xlink:href="#m82837a4627" x="225.96741" y="259.885369" style="fill: #ff0000; fill-opacity: 0.5"/>
     <use xlink:href="#m82837a4627" x="229.583756" y="259.885369" style="fill: #ff0000; fill-opacity: 0.5"/>
     <use xlink:href="#m82837a4627" x="233.200101" y="259.885369" style="fill: #ff0000; fill-opacity: 0.5"/>
     <use xlink:href="#m82837a4627" x="236.816446" y="259.885369" style="fill: #ff0000; fill-opacity: 0.5"/>
     <use xlink:href="#m82837a4627" x="240.432792" y="259.885369" style="fill: #ff0000; fill-opacity: 0.5"/>
     <use xlink:href="#m82837a4627" x="244.049137" y="259.885369" style="fill: #ff0000; fill-opacity: 0.5"/>
     <use xlink:href="#m82837a4627" x="247.665482" y="259.885369" style="fill: #ff0000; fill-opacity: 0.5"/>
     <use xlink:href="#m82837a4627" x="251.281827" y="259.885369" style="fill: #ff0000; fill-opacity: 0.5"/>
     <use xlink:href="#m82837a4627" x="254.898173" y="259.885369" style="fill: #ff0000; fill-opacity: 0.5"/>
     <use xlink:href="#m82837a4627" x="258.514518" y="259.885369" style="fill: #ff0000; fill-opacity: 0.5"/>
     <use xlink:href="#m82837a4627" x="262.130863" y="259.885369" style="fill: #ff0000; fill-opacity: 0.5"/>
     <use xlink:href="#m82837a4627" x="265.747208" y="259.885369" style="fill: #ff0000; fill-opacity: 0.5"/>
     <use xlink:href="#m82837a4627" x="269.363554" y="259.885369" style="fill: #ff0000; fill-opacity: 0.5"/>
     <use xlink:href="#m82837a4627" x="272.979899" y="259.885369" style="fill: #ff0000; fill-opacity: 0.5"/>
     <use xlink:href="#m82837a4627" x="276.596244" y="259.885369" style="fill: #ff0000; fill-opacity: 0.5"/>
     <use xlink:href="#m82837a4627" x="280.21259" y="259.885369" style="fill: #ff0000; fill-opacity: 0.5"/>
     <use xlink:href="#m82837a4627" x="283.828935" y="259.885369" style="fill: #ff0000; fill-opacity: 0.5"/>
     <use xlink:href="#m82837a4627" x="287.44528" y="259.885369" style="fill: #ff0000; fill-opacity: 0.5"/>
     <use xlink:href="#m82837a4627" x="291.061625" y="259.885369" style="fill: #ff0000; fill-opacity: 0.5"/>
     <use xlink:href="#m82837a4627" x="294.677971" y="259.885369" style="fill: #ff0000; fill-opacity: 0.5"/>
     <use xlink:href="#m82837a4627" x="298.294316" y="259.885369" style="fill: #ff0000; fill-opacity: 0.5"/>
     <use xlink:href="#m82837a4627" x="301.910661" y="259.885369" style="fill: #ff0000; fill-opacity: 0.5"/>
     <use xlink:href="#m82837a4627" x="305.527006" y="259.885369" style="fill: #ff0000; fill-opacity: 0.5"/>
     <use xlink:href="#m82837a4627" x="309.143352" y="259.885369" style="fill: #ff0000; fill-opacity: 0.5"/>
     <use xlink:href="#m82837a4627" x="312.759697" y="259.885369" style="fill: #ff0000; fill-opacity: 0.5"/>
     <use xlink:href="#m82837a4627" x="316.376042" y="259.885369" style="fill: #ff0000; fill-opacity: 0.5"/>
     <use xlink:href="#m82837a4627" x="319.992388" y="259.885369" style="fill: #ff0000; fill-opacity: 0.5"/>
     <use xlink:href="#m82837a4627" x="323.608733" y="259.885369" style="fill: #ff0000; fill-opacity: 0.5"/>
     <use xlink:href="#m82837a4627" x="327.225078" y="259.885369" style="fill: #ff0000; fill-opacity: 0.5"/>
     <use xlink:href="#m82837a4627" x="330.841423" y="259.885369" style="fill: #ff0000; fill-opacity: 0.5"/>
     <use xlink:href="#m82837a4627" x="334.457769" y="259.885369" style="fill: #ff0000; fill-opacity: 0.5"/>
     <use xlink:href="#m82837a4627" x="338.074114" y="259.885369" style="fill: #ff0000; fill-opacity: 0.5"/>
     <use xlink:href="#m82837a4627" x="341.690459" y="259.885369" style="fill: #ff0000; fill-opacity: 0.5"/>
     <use xlink:href="#m82837a4627" x="345.306804" y="259.885369" style="fill: #ff0000; fill-opacity: 0.5"/>
     <use xlink:href="#m82837a4627" x="348.92315" y="259.885369" style="fill: #ff0000; fill-opacity: 0.5"/>
     <use xlink:href="#m82837a4627" x="352.539495" y="259.885369" style="fill: #ff0000; fill-opacity: 0.5"/>
     <use xlink:href="#m82837a4627" x="356.15584" y="259.885369" style="fill: #ff0000; fill-opacity: 0.5"/>
     <use xlink:href="#m82837a4627" x="359.772185" y="259.885369" style="fill: #ff0000; fill-opacity: 0.5"/>
     <use xlink:href="#m82837a4627" x="363.388531" y="259.885369" style="fill: #ff0000; fill-opacity: 0.5"/>
     <use xlink:href="#m82837a4627" x="367.004876" y="259.885369" style="fill: #ff0000; fill-opacity: 0.5"/>
     <use xlink:href="#m82837a4627" x="370.621221" y="259.885369" style="fill: #ff0000; fill-opacity: 0.5"/>
     <use xlink:href="#m82837a4627" x="374.237567" y="259.885369" style="fill: #ff0000; fill-opacity: 0.5"/>
     <use xlink:href="#m82837a4627" x="377.853912" y="259.885369" style="fill: #ff0000; fill-opacity: 0.5"/>
     <use xlink:href="#m82837a4627" x="381.470257" y="259.885369" style="fill: #ff0000; fill-opacity: 0.5"/>
     <use xlink:href="#m82837a4627" x="385.086602" y="259.885369" style="fill: #ff0000; fill-opacity: 0.5"/>
     <use xlink:href="#m82837a4627" x="388.702948" y="259.885369" style="fill: #ff0000; fill-opacity: 0.5"/>
     <use xlink:href="#m82837a4627" x="392.319293" y="259.885369" style="fill: #ff0000; fill-opacity: 0.5"/>
     <use xlink:href="#m82837a4627" x="395.935638" y="259.885369" style="fill: #ff0000; fill-opacity: 0.5"/>
     <use xlink:href="#m82837a4627" x="399.551983" y="259.885369" style="fill: #ff0000; fill-opacity: 0.5"/>
     <use xlink:href="#m82837a4627" x="403.168329" y="259.885369" style="fill: #ff0000; fill-opacity: 0.5"/>
     <use xlink:href="#m82837a4627" x="406.784674" y="259.885369" style="fill: #ff0000; fill-opacity: 0.5"/>
     <use xlink:href="#m82837a4627" x="410.401019" y="259.885369" style="fill: #ff0000; fill-opacity: 0.5"/>
     <use xlink:href="#m82837a4627" x="414.017365" y="259.885369" style="fill: #ff0000; fill-opacity: 0.5"/>
     <use xlink:href="#m82837a4627" x="417.63371" y="259.885369" style="fill: #ff0000; fill-opacity: 0.5"/>
     <use xlink:href="#m82837a4627" x="421.250055" y="259.885369" style="fill: #ff0000; fill-opacity: 0.5"/>
     <use xlink:href="#m82837a4627" x="424.8664" y="259.885369" style="fill: #ff0000; fill-opacity: 0.5"/>
     <use xlink:href="#m82837a4627" x="428.482746" y="259.885369" style="fill: #ff0000; fill-opacity: 0.5"/>
     <use xlink:href="#m82837a4627" x="432.099091" y="259.885369" style="fill: #ff0000; fill-opacity: 0.5"/>
    </g>
   </g>
   <g id="patch_3">
    <path d="M 56.18 303.64 
L 56.18 25.44 
" style="fill: none; stroke: #000000; stroke-width: 0.8; stroke-linejoin: miter; stroke-linecap: square"/>
   </g>
   <g id="patch_4">
    <path d="M 450 303.64 
L 450 25.44 
" style="fill: none; stroke: #000000; stroke-width: 0.8; stroke-linejoin: miter; stroke-linecap: square"/>
   </g>
   <g id="patch_5">
    <path d="M 56.18 303.64 
L 450 303.64 
" style="fill: none; stroke: #000000; stroke-width: 0.8; stroke-linejoin: miter; stroke-linecap: square"/>
   </g>
   <g id="patch_6">
    <path d="M 56.18 25.44 
L 450 25.44 
" style="fill: none; stroke: #000000; stroke-width: 0.8; stroke-linejoin: miter; stroke-linecap: square"/>
   </g>
   <g id="text_16">
    <!-- Average action - 20240415144013 - 50 games -->
    <g transform="translate(112.983438 19.44) scale(0.12 -0.12)">
     <defs>
      <path id="DejaVuSans-2d" d="M 313 2009 
L 1997 2009 
L 1997 1497 
L 313 1497 
L 313 2009 
z
" transform="scale(0.015625)"/>
      <path id="DejaVuSans-35" d="M 691 4666 
L 3169 4666 
L 3169 4134 
L 1269 4134 
L 1269 2991 
Q 1406 3038 1543 3061 
Q 1681 3084 1819 3084 
Q 2600 3084 3056 2656 
Q 3513 2228 3513 1497 
Q 3513 744 3044 326 
Q 2575 -91 1722 -91 
Q 1428 -91 1123 -41 
Q 819 9 494 109 
L 494 744 
Q 775 591 1075 516 
Q 1375 441 1709 441 
Q 2250 441 2565 725 
Q 2881 1009 2881 1497 
Q 2881 1984 2565 2268 
Q 2250 2553 1709 2553 
Q 1456 2553 1204 2497 
Q 953 2441 691 2322 
L 691 4666 
z
" transform="scale(0.015625)"/>
      <path id="DejaVuSans-33" d="M 2597 2516 
Q 3050 2419 3304 2112 
Q 3559 1806 3559 1356 
Q 3559 666 3084 287 
Q 2609 -91 1734 -91 
Q 1441 -91 1130 -33 
Q 819 25 488 141 
L 488 750 
Q 750 597 1062 519 
Q 1375 441 1716 441 
Q 2309 441 2620 675 
Q 2931 909 2931 1356 
Q 2931 1769 2642 2001 
Q 2353 2234 1838 2234 
L 1294 2234 
L 1294 2753 
L 1863 2753 
Q 2328 2753 2575 2939 
Q 2822 3125 2822 3475 
Q 2822 3834 2567 4026 
Q 2313 4219 1838 4219 
Q 1578 4219 1281 4162 
Q 984 4106 628 3988 
L 628 4550 
Q 988 4650 1302 4700 
Q 1616 4750 1894 4750 
Q 2613 4750 3031 4423 
Q 3450 4097 3450 3541 
Q 3450 3153 3228 2886 
Q 3006 2619 2597 2516 
z
" transform="scale(0.015625)"/>
      <path id="DejaVuSans-6d" d="M 3328 2828 
Q 3544 3216 3844 3400 
Q 4144 3584 4550 3584 
Q 5097 3584 5394 3201 
Q 5691 2819 5691 2113 
L 5691 0 
L 5113 0 
L 5113 2094 
Q 5113 2597 4934 2840 
Q 4756 3084 4391 3084 
Q 3944 3084 3684 2787 
Q 3425 2491 3425 1978 
L 3425 0 
L 2847 0 
L 2847 2094 
Q 2847 2600 2669 2842 
Q 2491 3084 2119 3084 
Q 1678 3084 1418 2786 
Q 1159 2488 1159 1978 
L 1159 0 
L 581 0 
L 581 3500 
L 1159 3500 
L 1159 2956 
Q 1356 3278 1631 3431 
Q 1906 3584 2284 3584 
Q 2666 3584 2933 3390 
Q 3200 3197 3328 2828 
z
" transform="scale(0.015625)"/>
      <path id="DejaVuSans-73" d="M 2834 3397 
L 2834 2853 
Q 2591 2978 2328 3040 
Q 2066 3103 1784 3103 
Q 1356 3103 1142 2972 
Q 928 2841 928 2578 
Q 928 2378 1081 2264 
Q 1234 2150 1697 2047 
L 1894 2003 
Q 2506 1872 2764 1633 
Q 3022 1394 3022 966 
Q 3022 478 2636 193 
Q 2250 -91 1575 -91 
Q 1294 -91 989 -36 
Q 684 19 347 128 
L 347 722 
Q 666 556 975 473 
Q 1284 391 1588 391 
Q 1994 391 2212 530 
Q 2431 669 2431 922 
Q 2431 1156 2273 1281 
Q 2116 1406 1581 1522 
L 1381 1569 
Q 847 1681 609 1914 
Q 372 2147 372 2553 
Q 372 3047 722 3315 
Q 1072 3584 1716 3584 
Q 2034 3584 2315 3537 
Q 2597 3491 2834 3397 
z
" transform="scale(0.015625)"/>
     </defs>
     <use xlink:href="#DejaVuSans-41"/>
     <use xlink:href="#DejaVuSans-76" x="62.533203"/>
     <use xlink:href="#DejaVuSans-65" x="121.712891"/>
     <use xlink:href="#DejaVuSans-72" x="183.236328"/>
     <use xlink:href="#DejaVuSans-61" x="224.349609"/>
     <use xlink:href="#DejaVuSans-67" x="285.628906"/>
     <use xlink:href="#DejaVuSans-65" x="349.105469"/>
     <use xlink:href="#DejaVuSans-20" x="410.628906"/>
     <use xlink:href="#DejaVuSans-61" x="442.416016"/>
     <use xlink:href="#DejaVuSans-63" x="503.695312"/>
     <use xlink:href="#DejaVuSans-74" x="558.675781"/>
     <use xlink:href="#DejaVuSans-69" x="597.884766"/>
     <use xlink:href="#DejaVuSans-6f" x="625.667969"/>
     <use xlink:href="#DejaVuSans-6e" x="686.849609"/>
     <use xlink:href="#DejaVuSans-20" x="750.228516"/>
     <use xlink:href="#DejaVuSans-2d" x="782.015625"/>
     <use xlink:href="#DejaVuSans-20" x="818.099609"/>
     <use xlink:href="#DejaVuSans-32" x="849.886719"/>
     <use xlink:href="#DejaVuSans-30" x="913.509766"/>
     <use xlink:href="#DejaVuSans-32" x="977.132812"/>
     <use xlink:href="#DejaVuSans-34" x="1040.755859"/>
     <use xlink:href="#DejaVuSans-30" x="1104.378906"/>
     <use xlink:href="#DejaVuSans-34" x="1168.001953"/>
     <use xlink:href="#DejaVuSans-31" x="1231.625"/>
     <use xlink:href="#DejaVuSans-35" x="1295.248047"/>
     <use xlink:href="#DejaVuSans-31" x="1358.871094"/>
     <use xlink:href="#DejaVuSans-34" x="1422.494141"/>
     <use xlink:href="#DejaVuSans-34" x="1486.117188"/>
     <use xlink:href="#DejaVuSans-30" x="1549.740234"/>
     <use xlink:href="#DejaVuSans-31" x="1613.363281"/>
     <use xlink:href="#DejaVuSans-33" x="1676.986328"/>
     <use xlink:href="#DejaVuSans-20" x="1740.609375"/>
     <use xlink:href="#DejaVuSans-2d" x="1772.396484"/>
     <use xlink:href="#DejaVuSans-20" x="1808.480469"/>
     <use xlink:href="#DejaVuSans-35" x="1840.267578"/>
     <use xlink:href="#DejaVuSans-30" x="1903.890625"/>
     <use xlink:href="#DejaVuSans-20" x="1967.513672"/>
     <use xlink:href="#DejaVuSans-67" x="1999.300781"/>
     <use xlink:href="#DejaVuSans-61" x="2062.777344"/>
     <use xlink:href="#DejaVuSans-6d" x="2124.056641"/>
     <use xlink:href="#DejaVuSans-65" x="2221.46875"/>
     <use xlink:href="#DejaVuSans-73" x="2282.992188"/>
    </g>
   </g>
   <g id="legend_1">
    <g id="patch_7">
     <path d="M 328.579687 92.70875 
L 443 92.70875 
Q 445 92.70875 445 90.70875 
L 445 32.44 
Q 445 30.44 443 30.44 
L 328.579687 30.44 
Q 326.579687 30.44 326.579687 32.44 
L 326.579687 90.70875 
Q 326.579687 92.70875 328.579687 92.70875 
z
" style="fill: #ffffff; opacity: 0.8; stroke: #cccccc; stroke-linejoin: miter"/>
    </g>
    <g id="line2d_21">
     <path d="M 330.579687 38.538438 
L 340.579687 38.538438 
L 350.579687 38.538438 
" style="fill: none; stroke: #0000ff; stroke-linecap: square"/>
     <g>
      <use xlink:href="#mc69c1a2306" x="340.579687" y="38.538438" style="fill: #0000ff"/>
     </g>
    </g>
    <g id="text_17">
     <!-- LLM -->
     <g transform="translate(358.579687 42.038438) scale(0.1 -0.1)">
      <defs>
       <path id="DejaVuSans-4c" d="M 628 4666 
L 1259 4666 
L 1259 531 
L 3531 531 
L 3531 0 
L 628 0 
L 628 4666 
z
" transform="scale(0.015625)"/>
       <path id="DejaVuSans-4d" d="M 628 4666 
L 1569 4666 
L 2759 1491 
L 3956 4666 
L 4897 4666 
L 4897 0 
L 4281 0 
L 4281 4097 
L 3078 897 
L 2444 897 
L 1241 4097 
L 1241 0 
L 628 0 
L 628 4666 
z
" transform="scale(0.015625)"/>
      </defs>
      <use xlink:href="#DejaVuSans-4c"/>
      <use xlink:href="#DejaVuSans-4c" x="55.712891"/>
      <use xlink:href="#DejaVuSans-4d" x="111.425781"/>
     </g>
    </g>
    <g id="line2d_22">
     <path d="M 330.579687 53.216563 
L 340.579687 53.216563 
L 350.579687 53.216563 
" style="fill: none; stroke: #0000ff; stroke-opacity: 0.5; stroke-width: 0.5; stroke-linecap: square"/>
     <g>
      <use xlink:href="#m0a61d50e99" x="340.579687" y="53.216563" style="fill: #0000ff; fill-opacity: 0.5"/>
     </g>
    </g>
    <g id="text_18">
     <!-- LLM mean -->
     <g transform="translate(358.579687 56.716563) scale(0.1 -0.1)">
      <use xlink:href="#DejaVuSans-4c"/>
      <use xlink:href="#DejaVuSans-4c" x="55.712891"/>
      <use xlink:href="#DejaVuSans-4d" x="111.425781"/>
      <use xlink:href="#DejaVuSans-20" x="197.705078"/>
      <use xlink:href="#DejaVuSans-6d" x="229.492188"/>
      <use xlink:href="#DejaVuSans-65" x="326.904297"/>
      <use xlink:href="#DejaVuSans-61" x="388.427734"/>
      <use xlink:href="#DejaVuSans-6e" x="449.707031"/>
     </g>
    </g>
    <g id="line2d_23">
     <path d="M 330.579687 67.894688 
L 340.579687 67.894688 
L 350.579687 67.894688 
" style="fill: none; stroke: #ff0000; stroke-width: 0.5; stroke-linecap: square"/>
     <g>
      <use xlink:href="#m07ed3cbb35" x="340.579687" y="67.894688" style="fill: #ff0000"/>
     </g>
    </g>
    <g id="text_19">
     <!-- DEF_sw25 -->
     <g transform="translate(358.579687 71.394688) scale(0.1 -0.1)">
      <defs>
       <path id="DejaVuSans-44" d="M 1259 4147 
L 1259 519 
L 2022 519 
Q 2988 519 3436 956 
Q 3884 1394 3884 2338 
Q 3884 3275 3436 3711 
Q 2988 4147 2022 4147 
L 1259 4147 
z
M 628 4666 
L 1925 4666 
Q 3281 4666 3915 4102 
Q 4550 3538 4550 2338 
Q 4550 1131 3912 565 
Q 3275 0 1925 0 
L 628 0 
L 628 4666 
z
" transform="scale(0.015625)"/>
       <path id="DejaVuSans-45" d="M 628 4666 
L 3578 4666 
L 3578 4134 
L 1259 4134 
L 1259 2753 
L 3481 2753 
L 3481 2222 
L 1259 2222 
L 1259 531 
L 3634 531 
L 3634 0 
L 628 0 
L 628 4666 
z
" transform="scale(0.015625)"/>
       <path id="DejaVuSans-46" d="M 628 4666 
L 3309 4666 
L 3309 4134 
L 1259 4134 
L 1259 2759 
L 3109 2759 
L 3109 2228 
L 1259 2228 
L 1259 0 
L 628 0 
L 628 4666 
z
" transform="scale(0.015625)"/>
       <path id="DejaVuSans-5f" d="M 3263 -1063 
L 3263 -1509 
L -63 -1509 
L -63 -1063 
L 3263 -1063 
z
" transform="scale(0.015625)"/>
       <path id="DejaVuSans-77" d="M 269 3500 
L 844 3500 
L 1563 769 
L 2278 3500 
L 2956 3500 
L 3675 769 
L 4391 3500 
L 4966 3500 
L 4050 0 
L 3372 0 
L 2619 2869 
L 1863 0 
L 1184 0 
L 269 3500 
z
" transform="scale(0.015625)"/>
      </defs>
      <use xlink:href="#DejaVuSans-44"/>
      <use xlink:href="#DejaVuSans-45" x="77.001953"/>
      <use xlink:href="#DejaVuSans-46" x="140.185547"/>
      <use xlink:href="#DejaVuSans-5f" x="197.705078"/>
      <use xlink:href="#DejaVuSans-73" x="247.705078"/>
      <use xlink:href="#DejaVuSans-77" x="299.804688"/>
      <use xlink:href="#DejaVuSans-32" x="381.591797"/>
      <use xlink:href="#DejaVuSans-35" x="445.214844"/>
     </g>
    </g>
    <g id="line2d_24">
     <path d="M 330.579687 82.850938 
L 340.579687 82.850938 
L 350.579687 82.850938 
" style="fill: none; stroke: #ff0000; stroke-opacity: 0.5; stroke-width: 0.25; stroke-linecap: square"/>
     <g>
      <use xlink:href="#m82837a4627" x="340.579687" y="82.850938" style="fill: #ff0000; fill-opacity: 0.5"/>
     </g>
    </g>
    <g id="text_20">
     <!-- DEF_sw25 mean -->
     <g transform="translate(358.579687 86.350938) scale(0.1 -0.1)">
      <use xlink:href="#DejaVuSans-44"/>
      <use xlink:href="#DejaVuSans-45" x="77.001953"/>
      <use xlink:href="#DejaVuSans-46" x="140.185547"/>
      <use xlink:href="#DejaVuSans-5f" x="197.705078"/>
      <use xlink:href="#DejaVuSans-73" x="247.705078"/>
      <use xlink:href="#DejaVuSans-77" x="299.804688"/>
      <use xlink:href="#DejaVuSans-32" x="381.591797"/>
      <use xlink:href="#DejaVuSans-35" x="445.214844"/>
      <use xlink:href="#DejaVuSans-20" x="508.837891"/>
      <use xlink:href="#DejaVuSans-6d" x="540.625"/>
      <use xlink:href="#DejaVuSans-65" x="638.037109"/>
      <use xlink:href="#DejaVuSans-61" x="699.560547"/>
      <use xlink:href="#DejaVuSans-6e" x="760.839844"/>
     </g>
    </g>
   </g>
  </g>
 </g>
 <defs>
  <clipPath id="p4f012c9df7">
   <rect x="56.18" y="25.44" width="393.82" height="278.2"/>
  </clipPath>
 </defs>
</svg>
