<?xml version="1.0" encoding="utf-8" standalone="no"?>
<!DOCTYPE svg PUBLIC "-//W3C//DTD SVG 1.1//EN"
  "http://www.w3.org/Graphics/SVG/1.1/DTD/svg11.dtd">
<svg xmlns:xlink="http://www.w3.org/1999/xlink" width="460.8pt" height="345.6pt" viewBox="0 0 460.8 345.6" xmlns="http://www.w3.org/2000/svg" version="1.1">
 <metadata>
  <rdf:RDF xmlns:dc="http://purl.org/dc/elements/1.1/" xmlns:cc="http://creativecommons.org/ns#" xmlns:rdf="http://www.w3.org/1999/02/22-rdf-syntax-ns#">
   <cc:Work>
    <dc:type rdf:resource="http://purl.org/dc/dcmitype/StillImage"/>
    <dc:date>2024-04-29T11:04:51.784263</dc:date>
    <dc:format>image/svg+xml</dc:format>
    <dc:creator>
     <cc:Agent>
      <dc:title>Matplotlib v3.8.0, https://matplotlib.org/</dc:title>
     </cc:Agent>
    </dc:creator>
   </cc:Work>
  </rdf:RDF>
 </metadata>
 <defs>
  <style type="text/css">*{stroke-linejoin: round; stroke-linecap: butt}</style>
 </defs>
 <g id="figure_1">
  <g id="patch_1">
   <path d="M 0 345.6 
L 460.8 345.6 
L 460.8 0 
L 0 0 
z
" style="fill: #ffffff"/>
  </g>
  <g id="axes_1">
   <g id="patch_2">
    <path d="M 47.81 303.64 
L 450 303.64 
L 450 25.44 
L 47.81 25.44 
z
" style="fill: #ffffff"/>
   </g>
   <g id="PolyCollection_1">
    <defs>
     <path id="m611e8cd21b" d="M 66.091364 -273.605362 
L 66.091364 -273.605362 
L 69.784568 -307.514545 
L 73.477773 -259.192853 
L 77.170978 -232.489373 
L 80.864183 -213.847819 
L 84.557388 -203.644354 
L 88.250592 -195.640555 
L 91.943797 -187.781413 
L 95.637002 -183.85917 
L 99.330207 -178.09625 
L 103.023411 -173.151399 
L 106.716616 -169.929694 
L 110.409821 -165.937784 
L 114.103026 -162.901723 
L 117.79623 -160.395282 
L 121.489435 -157.682991 
L 125.18264 -155.687388 
L 128.875845 -153.878056 
L 132.56905 -151.71665 
L 136.262254 -150.834028 
L 139.955459 -149.441586 
L 143.648664 -148.705068 
L 147.341869 -148.717308 
L 151.035073 -147.692996 
L 154.728278 -147.714759 
L 158.421483 -146.379564 
L 162.114688 -145.83532 
L 165.807893 -145.318742 
L 169.501097 -144.540512 
L 173.194302 -144.248638 
L 176.887507 -143.339906 
L 180.580712 -142.477391 
L 184.273916 -142.818448 
L 187.967121 -142.099124 
L 191.660326 -142.052883 
L 195.353531 -142.170921 
L 199.046736 -141.960529 
L 202.73994 -142.059569 
L 206.433145 -141.52126 
L 210.12635 -140.926535 
L 213.819555 -140.432508 
L 217.512759 -139.957653 
L 221.205964 -139.806826 
L 224.899169 -139.658673 
L 228.592374 -139.306461 
L 232.285579 -138.966292 
L 235.978783 -139.754277 
L 239.671988 -139.417814 
L 243.365193 -139.517649 
L 247.058398 -139.744424 
L 250.751602 -139.70516 
L 254.444807 -139.664185 
L 258.138012 -139.288585 
L 261.831217 -139.252962 
L 265.524421 -139.031088 
L 269.217626 -138.681856 
L 272.910831 -138.402345 
L 276.604036 -138.130547 
L 280.297241 -137.808366 
L 283.990445 -137.792993 
L 287.68365 -137.407959 
L 291.376855 -137.06472 
L 295.07006 -137.160644 
L 298.763264 -136.771305 
L 302.456469 -136.449814 
L 306.149674 -136.105033 
L 309.842879 -135.738235 
L 313.536084 -135.672266 
L 317.229288 -135.348482 
L 320.922493 -135.103012 
L 324.615698 -135.221289 
L 328.308903 -134.983226 
L 332.002107 -134.656717 
L 335.695312 -134.607934 
L 339.388517 -134.318663 
L 343.081722 -134.352288 
L 346.774927 -134.383519 
L 350.468131 -134.134154 
L 354.161336 -134.250515 
L 357.854541 -134.362054 
L 361.547746 -134.156181 
L 365.24095 -134.112014 
L 368.934155 -134.138518 
L 372.62736 -133.872792 
L 376.320565 -133.64781 
L 380.01377 -133.426986 
L 383.706974 -133.2829 
L 387.400179 -133.069574 
L 391.093384 -132.931419 
L 394.786589 -132.968733 
L 398.479793 -132.743385 
L 402.172998 -132.659497 
L 405.866203 -132.428912 
L 409.559408 -132.302588 
L 413.252612 -132.280192 
L 416.945817 -132.119672 
L 420.639022 -132.044458 
L 424.332227 -132.023826 
L 428.025432 -131.905481 
L 431.718636 -132.015875 
L 431.718636 -90.173738 
L 431.718636 -90.173738 
L 428.025432 -89.969483 
L 424.332227 -89.872773 
L 420.639022 -89.701102 
L 416.945817 -89.559166 
L 413.252612 -89.507282 
L 409.559408 -89.327867 
L 405.866203 -89.221712 
L 402.172998 -89.376792 
L 398.479793 -89.22571 
L 394.786589 -89.304843 
L 391.093384 -89.087438 
L 387.400179 -88.975012 
L 383.706974 -88.981025 
L 380.01377 -88.866116 
L 376.320565 -88.872716 
L 372.62736 -88.880573 
L 368.934155 -89.055617 
L 365.24095 -88.816883 
L 361.547746 -88.604588 
L 357.854541 -88.541245 
L 354.161336 -88.267511 
L 350.468131 -87.988719 
L 346.774927 -87.988195 
L 343.081722 -87.722428 
L 339.388517 -87.451134 
L 335.695312 -87.529485 
L 332.002107 -87.283307 
L 328.308903 -87.570226 
L 324.615698 -87.489841 
L 320.922493 -87.170564 
L 317.229288 -87.083285 
L 313.536084 -87.169296 
L 309.842879 -86.898764 
L 306.149674 -87.211721 
L 302.456469 -87.309263 
L 298.763264 -87.312725 
L 295.07006 -87.658479 
L 291.376855 -87.29439 
L 287.68365 -87.301923 
L 283.990445 -87.419291 
L 280.297241 -87.069489 
L 276.604036 -86.980402 
L 272.910831 -86.802574 
L 269.217626 -86.620389 
L 265.524421 -86.524681 
L 261.831217 -86.254747 
L 258.138012 -85.85241 
L 254.444807 -85.74186 
L 250.751602 -85.317795 
L 247.058398 -84.880119 
L 243.365193 -84.349512 
L 239.671988 -83.835331 
L 235.978783 -83.573304 
L 232.285579 -82.978733 
L 228.592374 -82.687238 
L 224.899169 -82.385912 
L 221.205964 -81.900487 
L 217.512759 -81.396327 
L 213.819555 -81.165267 
L 210.12635 -80.927226 
L 206.433145 -80.816903 
L 202.73994 -80.567536 
L 199.046736 -79.8365 
L 195.353531 -79.216378 
L 191.660326 -78.421484 
L 187.967121 -77.655559 
L 184.273916 -77.445103 
L 180.580712 -76.490138 
L 176.887507 -76.414777 
L 173.194302 -76.345676 
L 169.501097 -75.503699 
L 165.807893 -75.035678 
L 162.114688 -74.230338 
L 158.421483 -73.37512 
L 154.728278 -73.719186 
L 151.035073 -72.411534 
L 147.341869 -71.767489 
L 143.648664 -70.286314 
L 139.955459 -69.113625 
L 136.262254 -68.50084 
L 132.56905 -67.154212 
L 128.875845 -67.742474 
L 125.18264 -67.030698 
L 121.489435 -66.269847 
L 117.79623 -66.636202 
L 114.103026 -65.849005 
L 110.409821 -65.442558 
L 106.716616 -67.317299 
L 103.023411 -65.685804 
L 99.330207 -66.847359 
L 95.637002 -68.547825 
L 91.943797 -64.508967 
L 88.250592 -64.896199 
L 84.557388 -60.890643 
L 80.864183 -54.605455 
L 77.170978 -67.030243 
L 73.477773 -72.512614 
L 69.784568 -75.968158 
L 66.091364 -273.605362 
z
" style="stroke: #0000ff; stroke-opacity: 0.2"/>
    </defs>
    <g clip-path="url(#pabd7e8766d)">
     <use xlink:href="#m611e8cd21b" x="0" y="345.6" style="fill: #0000ff; fill-opacity: 0.2; stroke: #0000ff; stroke-opacity: 0.2"/>
    </g>
   </g>
   <g id="PolyCollection_2">
    <defs>
     <path id="m30720fab4d" d="M 66.091364 -63.697644 
L 66.091364 -63.697644 
L 69.784568 -63.697644 
L 73.477773 -63.697644 
L 77.170978 -63.697644 
L 80.864183 -63.697644 
L 84.557388 -63.697644 
L 88.250592 -63.697644 
L 91.943797 -63.697644 
L 95.637002 -63.697644 
L 99.330207 -63.697644 
L 103.023411 -63.697644 
L 106.716616 -63.697644 
L 110.409821 -63.697644 
L 114.103026 -63.697644 
L 117.79623 -63.697644 
L 121.489435 -63.697644 
L 125.18264 -63.697644 
L 128.875845 -63.697644 
L 132.56905 -63.697644 
L 136.262254 -63.697644 
L 139.955459 -63.697644 
L 143.648664 -63.697644 
L 147.341869 -63.697644 
L 151.035073 -63.697644 
L 154.728278 -63.697644 
L 158.421483 -63.697644 
L 162.114688 -63.697644 
L 165.807893 -63.697644 
L 169.501097 -63.697644 
L 173.194302 -63.697644 
L 176.887507 -63.697644 
L 180.580712 -63.697644 
L 184.273916 -63.697644 
L 187.967121 -63.697644 
L 191.660326 -63.697644 
L 195.353531 -63.697644 
L 199.046736 -63.697644 
L 202.73994 -63.697644 
L 206.433145 -63.697644 
L 210.12635 -63.697644 
L 213.819555 -63.697644 
L 217.512759 -63.697644 
L 221.205964 -63.697644 
L 224.899169 -63.697644 
L 228.592374 -63.697644 
L 232.285579 -63.697644 
L 235.978783 -63.697644 
L 239.671988 -63.697644 
L 243.365193 -63.697644 
L 247.058398 -63.697644 
L 250.751602 -63.697644 
L 254.444807 -63.697644 
L 258.138012 -63.697644 
L 261.831217 -63.697644 
L 265.524421 -63.697644 
L 269.217626 -63.697644 
L 272.910831 -63.697644 
L 276.604036 -63.697644 
L 280.297241 -63.697644 
L 283.990445 -63.697644 
L 287.68365 -63.697644 
L 291.376855 -63.697644 
L 295.07006 -63.697644 
L 298.763264 -63.697644 
L 302.456469 -63.697644 
L 306.149674 -63.697644 
L 309.842879 -63.697644 
L 313.536084 -63.697644 
L 317.229288 -63.697644 
L 320.922493 -63.697644 
L 324.615698 -63.697644 
L 328.308903 -63.697644 
L 332.002107 -63.697644 
L 335.695312 -63.697644 
L 339.388517 -63.697644 
L 343.081722 -63.697644 
L 346.774927 -63.697644 
L 350.468131 -63.697644 
L 354.161336 -63.697644 
L 357.854541 -63.697644 
L 361.547746 -63.697644 
L 365.24095 -63.697644 
L 368.934155 -63.697644 
L 372.62736 -63.697644 
L 376.320565 -63.697644 
L 380.01377 -63.697644 
L 383.706974 -63.697644 
L 387.400179 -63.697644 
L 391.093384 -63.697644 
L 394.786589 -63.697644 
L 398.479793 -63.697644 
L 402.172998 -63.697644 
L 405.866203 -63.697644 
L 409.559408 -63.697644 
L 413.252612 -63.697644 
L 416.945817 -63.697644 
L 420.639022 -63.697644 
L 424.332227 -63.697644 
L 428.025432 -63.697644 
L 431.718636 -63.697644 
L 431.718636 -63.697644 
L 431.718636 -63.697644 
L 428.025432 -63.697644 
L 424.332227 -63.697644 
L 420.639022 -63.697644 
L 416.945817 -63.697644 
L 413.252612 -63.697644 
L 409.559408 -63.697644 
L 405.866203 -63.697644 
L 402.172998 -63.697644 
L 398.479793 -63.697644 
L 394.786589 -63.697644 
L 391.093384 -63.697644 
L 387.400179 -63.697644 
L 383.706974 -63.697644 
L 380.01377 -63.697644 
L 376.320565 -63.697644 
L 372.62736 -63.697644 
L 368.934155 -63.697644 
L 365.24095 -63.697644 
L 361.547746 -63.697644 
L 357.854541 -63.697644 
L 354.161336 -63.697644 
L 350.468131 -63.697644 
L 346.774927 -63.697644 
L 343.081722 -63.697644 
L 339.388517 -63.697644 
L 335.695312 -63.697644 
L 332.002107 -63.697644 
L 328.308903 -63.697644 
L 324.615698 -63.697644 
L 320.922493 -63.697644 
L 317.229288 -63.697644 
L 313.536084 -63.697644 
L 309.842879 -63.697644 
L 306.149674 -63.697644 
L 302.456469 -63.697644 
L 298.763264 -63.697644 
L 295.07006 -63.697644 
L 291.376855 -63.697644 
L 287.68365 -63.697644 
L 283.990445 -63.697644 
L 280.297241 -63.697644 
L 276.604036 -63.697644 
L 272.910831 -63.697644 
L 269.217626 -63.697644 
L 265.524421 -63.697644 
L 261.831217 -63.697644 
L 258.138012 -63.697644 
L 254.444807 -63.697644 
L 250.751602 -63.697644 
L 247.058398 -63.697644 
L 243.365193 -63.697644 
L 239.671988 -63.697644 
L 235.978783 -63.697644 
L 232.285579 -63.697644 
L 228.592374 -63.697644 
L 224.899169 -63.697644 
L 221.205964 -63.697644 
L 217.512759 -63.697644 
L 213.819555 -63.697644 
L 210.12635 -63.697644 
L 206.433145 -63.697644 
L 202.73994 -63.697644 
L 199.046736 -63.697644 
L 195.353531 -63.697644 
L 191.660326 -63.697644 
L 187.967121 -63.697644 
L 184.273916 -63.697644 
L 180.580712 -63.697644 
L 176.887507 -63.697644 
L 173.194302 -63.697644 
L 169.501097 -63.697644 
L 165.807893 -63.697644 
L 162.114688 -63.697644 
L 158.421483 -63.697644 
L 154.728278 -63.697644 
L 151.035073 -63.697644 
L 147.341869 -63.697644 
L 143.648664 -63.697644 
L 139.955459 -63.697644 
L 136.262254 -63.697644 
L 132.56905 -63.697644 
L 128.875845 -63.697644 
L 125.18264 -63.697644 
L 121.489435 -63.697644 
L 117.79623 -63.697644 
L 114.103026 -63.697644 
L 110.409821 -63.697644 
L 106.716616 -63.697644 
L 103.023411 -63.697644 
L 99.330207 -63.697644 
L 95.637002 -63.697644 
L 91.943797 -63.697644 
L 88.250592 -63.697644 
L 84.557388 -63.697644 
L 80.864183 -63.697644 
L 77.170978 -63.697644 
L 73.477773 -63.697644 
L 69.784568 -63.697644 
L 66.091364 -63.697644 
z
" style="stroke: #ff0000; stroke-opacity: 0.1"/>
    </defs>
    <g clip-path="url(#pabd7e8766d)">
     <use xlink:href="#m30720fab4d" x="0" y="345.6" style="fill: #ff0000; fill-opacity: 0.1; stroke: #ff0000; stroke-opacity: 0.1"/>
    </g>
   </g>
   <g id="matplotlib.axis_1">
    <g id="xtick_1">
     <g id="line2d_1">
      <defs>
       <path id="m0bf81fa854" d="M 0 0 
L 0 3.5 
" style="stroke: #000000; stroke-width: 0.8"/>
      </defs>
      <g>
       <use xlink:href="#m0bf81fa854" x="66.091364" y="303.64" style="stroke: #000000; stroke-width: 0.8"/>
      </g>
     </g>
     <g id="text_1">
      <!-- 0 -->
      <g transform="translate(62.910114 318.238437) scale(0.1 -0.1)">
       <defs>
        <path id="DejaVuSans-30" d="M 2034 4250 
Q 1547 4250 1301 3770 
Q 1056 3291 1056 2328 
Q 1056 1369 1301 889 
Q 1547 409 2034 409 
Q 2525 409 2770 889 
Q 3016 1369 3016 2328 
Q 3016 3291 2770 3770 
Q 2525 4250 2034 4250 
z
M 2034 4750 
Q 2819 4750 3233 4129 
Q 3647 3509 3647 2328 
Q 3647 1150 3233 529 
Q 2819 -91 2034 -91 
Q 1250 -91 836 529 
Q 422 1150 422 2328 
Q 422 3509 836 4129 
Q 1250 4750 2034 4750 
z
" transform="scale(0.015625)"/>
       </defs>
       <use xlink:href="#DejaVuSans-30"/>
      </g>
     </g>
    </g>
    <g id="xtick_2">
     <g id="line2d_2">
      <g>
       <use xlink:href="#m0bf81fa854" x="139.955459" y="303.64" style="stroke: #000000; stroke-width: 0.8"/>
      </g>
     </g>
     <g id="text_2">
      <!-- 20 -->
      <g transform="translate(133.592959 318.238437) scale(0.1 -0.1)">
       <defs>
        <path id="DejaVuSans-32" d="M 1228 531 
L 3431 531 
L 3431 0 
L 469 0 
L 469 531 
Q 828 903 1448 1529 
Q 2069 2156 2228 2338 
Q 2531 2678 2651 2914 
Q 2772 3150 2772 3378 
Q 2772 3750 2511 3984 
Q 2250 4219 1831 4219 
Q 1534 4219 1204 4116 
Q 875 4013 500 3803 
L 500 4441 
Q 881 4594 1212 4672 
Q 1544 4750 1819 4750 
Q 2544 4750 2975 4387 
Q 3406 4025 3406 3419 
Q 3406 3131 3298 2873 
Q 3191 2616 2906 2266 
Q 2828 2175 2409 1742 
Q 1991 1309 1228 531 
z
" transform="scale(0.015625)"/>
       </defs>
       <use xlink:href="#DejaVuSans-32"/>
       <use xlink:href="#DejaVuSans-30" x="63.623047"/>
      </g>
     </g>
    </g>
    <g id="xtick_3">
     <g id="line2d_3">
      <g>
       <use xlink:href="#m0bf81fa854" x="213.819555" y="303.64" style="stroke: #000000; stroke-width: 0.8"/>
      </g>
     </g>
     <g id="text_3">
      <!-- 40 -->
      <g transform="translate(207.457055 318.238437) scale(0.1 -0.1)">
       <defs>
        <path id="DejaVuSans-34" d="M 2419 4116 
L 825 1625 
L 2419 1625 
L 2419 4116 
z
M 2253 4666 
L 3047 4666 
L 3047 1625 
L 3713 1625 
L 3713 1100 
L 3047 1100 
L 3047 0 
L 2419 0 
L 2419 1100 
L 313 1100 
L 313 1709 
L 2253 4666 
z
" transform="scale(0.015625)"/>
       </defs>
       <use xlink:href="#DejaVuSans-34"/>
       <use xlink:href="#DejaVuSans-30" x="63.623047"/>
      </g>
     </g>
    </g>
    <g id="xtick_4">
     <g id="line2d_4">
      <g>
       <use xlink:href="#m0bf81fa854" x="287.68365" y="303.64" style="stroke: #000000; stroke-width: 0.8"/>
      </g>
     </g>
     <g id="text_4">
      <!-- 60 -->
      <g transform="translate(281.32115 318.238437) scale(0.1 -0.1)">
       <defs>
        <path id="DejaVuSans-36" d="M 2113 2584 
Q 1688 2584 1439 2293 
Q 1191 2003 1191 1497 
Q 1191 994 1439 701 
Q 1688 409 2113 409 
Q 2538 409 2786 701 
Q 3034 994 3034 1497 
Q 3034 2003 2786 2293 
Q 2538 2584 2113 2584 
z
M 3366 4563 
L 3366 3988 
Q 3128 4100 2886 4159 
Q 2644 4219 2406 4219 
Q 1781 4219 1451 3797 
Q 1122 3375 1075 2522 
Q 1259 2794 1537 2939 
Q 1816 3084 2150 3084 
Q 2853 3084 3261 2657 
Q 3669 2231 3669 1497 
Q 3669 778 3244 343 
Q 2819 -91 2113 -91 
Q 1303 -91 875 529 
Q 447 1150 447 2328 
Q 447 3434 972 4092 
Q 1497 4750 2381 4750 
Q 2619 4750 2861 4703 
Q 3103 4656 3366 4563 
z
" transform="scale(0.015625)"/>
       </defs>
       <use xlink:href="#DejaVuSans-36"/>
       <use xlink:href="#DejaVuSans-30" x="63.623047"/>
      </g>
     </g>
    </g>
    <g id="xtick_5">
     <g id="line2d_5">
      <g>
       <use xlink:href="#m0bf81fa854" x="361.547746" y="303.64" style="stroke: #000000; stroke-width: 0.8"/>
      </g>
     </g>
     <g id="text_5">
      <!-- 80 -->
      <g transform="translate(355.185246 318.238437) scale(0.1 -0.1)">
       <defs>
        <path id="DejaVuSans-38" d="M 2034 2216 
Q 1584 2216 1326 1975 
Q 1069 1734 1069 1313 
Q 1069 891 1326 650 
Q 1584 409 2034 409 
Q 2484 409 2743 651 
Q 3003 894 3003 1313 
Q 3003 1734 2745 1975 
Q 2488 2216 2034 2216 
z
M 1403 2484 
Q 997 2584 770 2862 
Q 544 3141 544 3541 
Q 544 4100 942 4425 
Q 1341 4750 2034 4750 
Q 2731 4750 3128 4425 
Q 3525 4100 3525 3541 
Q 3525 3141 3298 2862 
Q 3072 2584 2669 2484 
Q 3125 2378 3379 2068 
Q 3634 1759 3634 1313 
Q 3634 634 3220 271 
Q 2806 -91 2034 -91 
Q 1263 -91 848 271 
Q 434 634 434 1313 
Q 434 1759 690 2068 
Q 947 2378 1403 2484 
z
M 1172 3481 
Q 1172 3119 1398 2916 
Q 1625 2713 2034 2713 
Q 2441 2713 2670 2916 
Q 2900 3119 2900 3481 
Q 2900 3844 2670 4047 
Q 2441 4250 2034 4250 
Q 1625 4250 1398 4047 
Q 1172 3844 1172 3481 
z
" transform="scale(0.015625)"/>
       </defs>
       <use xlink:href="#DejaVuSans-38"/>
       <use xlink:href="#DejaVuSans-30" x="63.623047"/>
      </g>
     </g>
    </g>
    <g id="xtick_6">
     <g id="line2d_6">
      <g>
       <use xlink:href="#m0bf81fa854" x="435.411841" y="303.64" style="stroke: #000000; stroke-width: 0.8"/>
      </g>
     </g>
     <g id="text_6">
      <!-- 100 -->
      <g transform="translate(425.868091 318.238437) scale(0.1 -0.1)">
       <defs>
        <path id="DejaVuSans-31" d="M 794 531 
L 1825 531 
L 1825 4091 
L 703 3866 
L 703 4441 
L 1819 4666 
L 2450 4666 
L 2450 531 
L 3481 531 
L 3481 0 
L 794 0 
L 794 531 
z
" transform="scale(0.015625)"/>
       </defs>
       <use xlink:href="#DejaVuSans-31"/>
       <use xlink:href="#DejaVuSans-30" x="63.623047"/>
       <use xlink:href="#DejaVuSans-30" x="127.246094"/>
      </g>
     </g>
    </g>
    <g id="text_7">
     <!-- Iteration -->
     <g transform="translate(227.696406 331.916562) scale(0.1 -0.1)">
      <defs>
       <path id="DejaVuSans-49" d="M 628 4666 
L 1259 4666 
L 1259 0 
L 628 0 
L 628 4666 
z
" transform="scale(0.015625)"/>
       <path id="DejaVuSans-74" d="M 1172 4494 
L 1172 3500 
L 2356 3500 
L 2356 3053 
L 1172 3053 
L 1172 1153 
Q 1172 725 1289 603 
Q 1406 481 1766 481 
L 2356 481 
L 2356 0 
L 1766 0 
Q 1100 0 847 248 
Q 594 497 594 1153 
L 594 3053 
L 172 3053 
L 172 3500 
L 594 3500 
L 594 4494 
L 1172 4494 
z
" transform="scale(0.015625)"/>
       <path id="DejaVuSans-65" d="M 3597 1894 
L 3597 1613 
L 953 1613 
Q 991 1019 1311 708 
Q 1631 397 2203 397 
Q 2534 397 2845 478 
Q 3156 559 3463 722 
L 3463 178 
Q 3153 47 2828 -22 
Q 2503 -91 2169 -91 
Q 1331 -91 842 396 
Q 353 884 353 1716 
Q 353 2575 817 3079 
Q 1281 3584 2069 3584 
Q 2775 3584 3186 3129 
Q 3597 2675 3597 1894 
z
M 3022 2063 
Q 3016 2534 2758 2815 
Q 2500 3097 2075 3097 
Q 1594 3097 1305 2825 
Q 1016 2553 972 2059 
L 3022 2063 
z
" transform="scale(0.015625)"/>
       <path id="DejaVuSans-72" d="M 2631 2963 
Q 2534 3019 2420 3045 
Q 2306 3072 2169 3072 
Q 1681 3072 1420 2755 
Q 1159 2438 1159 1844 
L 1159 0 
L 581 0 
L 581 3500 
L 1159 3500 
L 1159 2956 
Q 1341 3275 1631 3429 
Q 1922 3584 2338 3584 
Q 2397 3584 2469 3576 
Q 2541 3569 2628 3553 
L 2631 2963 
z
" transform="scale(0.015625)"/>
       <path id="DejaVuSans-61" d="M 2194 1759 
Q 1497 1759 1228 1600 
Q 959 1441 959 1056 
Q 959 750 1161 570 
Q 1363 391 1709 391 
Q 2188 391 2477 730 
Q 2766 1069 2766 1631 
L 2766 1759 
L 2194 1759 
z
M 3341 1997 
L 3341 0 
L 2766 0 
L 2766 531 
Q 2569 213 2275 61 
Q 1981 -91 1556 -91 
Q 1019 -91 701 211 
Q 384 513 384 1019 
Q 384 1609 779 1909 
Q 1175 2209 1959 2209 
L 2766 2209 
L 2766 2266 
Q 2766 2663 2505 2880 
Q 2244 3097 1772 3097 
Q 1472 3097 1187 3025 
Q 903 2953 641 2809 
L 641 3341 
Q 956 3463 1253 3523 
Q 1550 3584 1831 3584 
Q 2591 3584 2966 3190 
Q 3341 2797 3341 1997 
z
" transform="scale(0.015625)"/>
       <path id="DejaVuSans-69" d="M 603 3500 
L 1178 3500 
L 1178 0 
L 603 0 
L 603 3500 
z
M 603 4863 
L 1178 4863 
L 1178 4134 
L 603 4134 
L 603 4863 
z
" transform="scale(0.015625)"/>
       <path id="DejaVuSans-6f" d="M 1959 3097 
Q 1497 3097 1228 2736 
Q 959 2375 959 1747 
Q 959 1119 1226 758 
Q 1494 397 1959 397 
Q 2419 397 2687 759 
Q 2956 1122 2956 1747 
Q 2956 2369 2687 2733 
Q 2419 3097 1959 3097 
z
M 1959 3584 
Q 2709 3584 3137 3096 
Q 3566 2609 3566 1747 
Q 3566 888 3137 398 
Q 2709 -91 1959 -91 
Q 1206 -91 779 398 
Q 353 888 353 1747 
Q 353 2609 779 3096 
Q 1206 3584 1959 3584 
z
" transform="scale(0.015625)"/>
       <path id="DejaVuSans-6e" d="M 3513 2113 
L 3513 0 
L 2938 0 
L 2938 2094 
Q 2938 2591 2744 2837 
Q 2550 3084 2163 3084 
Q 1697 3084 1428 2787 
Q 1159 2491 1159 1978 
L 1159 0 
L 581 0 
L 581 3500 
L 1159 3500 
L 1159 2956 
Q 1366 3272 1645 3428 
Q 1925 3584 2291 3584 
Q 2894 3584 3203 3211 
Q 3513 2838 3513 2113 
z
" transform="scale(0.015625)"/>
      </defs>
      <use xlink:href="#DejaVuSans-49"/>
      <use xlink:href="#DejaVuSans-74" x="29.492188"/>
      <use xlink:href="#DejaVuSans-65" x="68.701172"/>
      <use xlink:href="#DejaVuSans-72" x="130.224609"/>
      <use xlink:href="#DejaVuSans-61" x="171.337891"/>
      <use xlink:href="#DejaVuSans-74" x="232.617188"/>
      <use xlink:href="#DejaVuSans-69" x="271.826172"/>
      <use xlink:href="#DejaVuSans-6f" x="299.609375"/>
      <use xlink:href="#DejaVuSans-6e" x="360.791016"/>
     </g>
    </g>
   </g>
   <g id="matplotlib.axis_2">
    <g id="ytick_1">
     <g id="line2d_7">
      <defs>
       <path id="m721d349b60" d="M 0 0 
L -3.5 0 
" style="stroke: #000000; stroke-width: 0.8"/>
      </defs>
      <g>
       <use xlink:href="#m721d349b60" x="47.81" y="281.902356" style="stroke: #000000; stroke-width: 0.8"/>
      </g>
     </g>
     <g id="text_8">
      <!-- 0.0 -->
      <g transform="translate(24.906875 285.701575) scale(0.1 -0.1)">
       <defs>
        <path id="DejaVuSans-2e" d="M 684 794 
L 1344 794 
L 1344 0 
L 684 0 
L 684 794 
z
" transform="scale(0.015625)"/>
       </defs>
       <use xlink:href="#DejaVuSans-30"/>
       <use xlink:href="#DejaVuSans-2e" x="63.623047"/>
       <use xlink:href="#DejaVuSans-30" x="95.410156"/>
      </g>
     </g>
    </g>
    <g id="ytick_2">
     <g id="line2d_8">
      <g>
       <use xlink:href="#m721d349b60" x="47.81" y="239.920813" style="stroke: #000000; stroke-width: 0.8"/>
      </g>
     </g>
     <g id="text_9">
      <!-- 0.2 -->
      <g transform="translate(24.906875 243.720031) scale(0.1 -0.1)">
       <use xlink:href="#DejaVuSans-30"/>
       <use xlink:href="#DejaVuSans-2e" x="63.623047"/>
       <use xlink:href="#DejaVuSans-32" x="95.410156"/>
      </g>
     </g>
    </g>
    <g id="ytick_3">
     <g id="line2d_9">
      <g>
       <use xlink:href="#m721d349b60" x="47.81" y="197.939269" style="stroke: #000000; stroke-width: 0.8"/>
      </g>
     </g>
     <g id="text_10">
      <!-- 0.4 -->
      <g transform="translate(24.906875 201.738488) scale(0.1 -0.1)">
       <use xlink:href="#DejaVuSans-30"/>
       <use xlink:href="#DejaVuSans-2e" x="63.623047"/>
       <use xlink:href="#DejaVuSans-34" x="95.410156"/>
      </g>
     </g>
    </g>
    <g id="ytick_4">
     <g id="line2d_10">
      <g>
       <use xlink:href="#m721d349b60" x="47.81" y="155.957725" style="stroke: #000000; stroke-width: 0.8"/>
      </g>
     </g>
     <g id="text_11">
      <!-- 0.6 -->
      <g transform="translate(24.906875 159.756944) scale(0.1 -0.1)">
       <use xlink:href="#DejaVuSans-30"/>
       <use xlink:href="#DejaVuSans-2e" x="63.623047"/>
       <use xlink:href="#DejaVuSans-36" x="95.410156"/>
      </g>
     </g>
    </g>
    <g id="ytick_5">
     <g id="line2d_11">
      <g>
       <use xlink:href="#m721d349b60" x="47.81" y="113.976182" style="stroke: #000000; stroke-width: 0.8"/>
      </g>
     </g>
     <g id="text_12">
      <!-- 0.8 -->
      <g transform="translate(24.906875 117.7754) scale(0.1 -0.1)">
       <use xlink:href="#DejaVuSans-30"/>
       <use xlink:href="#DejaVuSans-2e" x="63.623047"/>
       <use xlink:href="#DejaVuSans-38" x="95.410156"/>
      </g>
     </g>
    </g>
    <g id="ytick_6">
     <g id="line2d_12">
      <g>
       <use xlink:href="#m721d349b60" x="47.81" y="71.994638" style="stroke: #000000; stroke-width: 0.8"/>
      </g>
     </g>
     <g id="text_13">
      <!-- 1.0 -->
      <g transform="translate(24.906875 75.793857) scale(0.1 -0.1)">
       <use xlink:href="#DejaVuSans-31"/>
       <use xlink:href="#DejaVuSans-2e" x="63.623047"/>
       <use xlink:href="#DejaVuSans-30" x="95.410156"/>
      </g>
     </g>
    </g>
    <g id="ytick_7">
     <g id="line2d_13">
      <g>
       <use xlink:href="#m721d349b60" x="47.81" y="30.013094" style="stroke: #000000; stroke-width: 0.8"/>
      </g>
     </g>
     <g id="text_14">
      <!-- 1.2 -->
      <g transform="translate(24.906875 33.812313) scale(0.1 -0.1)">
       <use xlink:href="#DejaVuSans-31"/>
       <use xlink:href="#DejaVuSans-2e" x="63.623047"/>
       <use xlink:href="#DejaVuSans-32" x="95.410156"/>
      </g>
     </g>
    </g>
    <g id="text_15">
     <!-- Avg action -->
     <g transform="translate(18.827187 190.779844) rotate(-90) scale(0.1 -0.1)">
      <defs>
       <path id="DejaVuSans-41" d="M 2188 4044 
L 1331 1722 
L 3047 1722 
L 2188 4044 
z
M 1831 4666 
L 2547 4666 
L 4325 0 
L 3669 0 
L 3244 1197 
L 1141 1197 
L 716 0 
L 50 0 
L 1831 4666 
z
" transform="scale(0.015625)"/>
       <path id="DejaVuSans-76" d="M 191 3500 
L 800 3500 
L 1894 563 
L 2988 3500 
L 3597 3500 
L 2284 0 
L 1503 0 
L 191 3500 
z
" transform="scale(0.015625)"/>
       <path id="DejaVuSans-67" d="M 2906 1791 
Q 2906 2416 2648 2759 
Q 2391 3103 1925 3103 
Q 1463 3103 1205 2759 
Q 947 2416 947 1791 
Q 947 1169 1205 825 
Q 1463 481 1925 481 
Q 2391 481 2648 825 
Q 2906 1169 2906 1791 
z
M 3481 434 
Q 3481 -459 3084 -895 
Q 2688 -1331 1869 -1331 
Q 1566 -1331 1297 -1286 
Q 1028 -1241 775 -1147 
L 775 -588 
Q 1028 -725 1275 -790 
Q 1522 -856 1778 -856 
Q 2344 -856 2625 -561 
Q 2906 -266 2906 331 
L 2906 616 
Q 2728 306 2450 153 
Q 2172 0 1784 0 
Q 1141 0 747 490 
Q 353 981 353 1791 
Q 353 2603 747 3093 
Q 1141 3584 1784 3584 
Q 2172 3584 2450 3431 
Q 2728 3278 2906 2969 
L 2906 3500 
L 3481 3500 
L 3481 434 
z
" transform="scale(0.015625)"/>
       <path id="DejaVuSans-20" transform="scale(0.015625)"/>
       <path id="DejaVuSans-63" d="M 3122 3366 
L 3122 2828 
Q 2878 2963 2633 3030 
Q 2388 3097 2138 3097 
Q 1578 3097 1268 2742 
Q 959 2388 959 1747 
Q 959 1106 1268 751 
Q 1578 397 2138 397 
Q 2388 397 2633 464 
Q 2878 531 3122 666 
L 3122 134 
Q 2881 22 2623 -34 
Q 2366 -91 2075 -91 
Q 1284 -91 818 406 
Q 353 903 353 1747 
Q 353 2603 823 3093 
Q 1294 3584 2113 3584 
Q 2378 3584 2631 3529 
Q 2884 3475 3122 3366 
z
" transform="scale(0.015625)"/>
      </defs>
      <use xlink:href="#DejaVuSans-41"/>
      <use xlink:href="#DejaVuSans-76" x="62.533203"/>
      <use xlink:href="#DejaVuSans-67" x="121.712891"/>
      <use xlink:href="#DejaVuSans-20" x="185.189453"/>
      <use xlink:href="#DejaVuSans-61" x="216.976562"/>
      <use xlink:href="#DejaVuSans-63" x="278.255859"/>
      <use xlink:href="#DejaVuSans-74" x="333.236328"/>
      <use xlink:href="#DejaVuSans-69" x="372.445312"/>
      <use xlink:href="#DejaVuSans-6f" x="400.228516"/>
      <use xlink:href="#DejaVuSans-6e" x="461.410156"/>
     </g>
    </g>
   </g>
   <g id="line2d_14">
    <path d="M 66.091364 71.994638 
L 69.784568 235.722658 
L 73.477773 231.524504 
L 77.170978 244.118967 
L 80.864183 273.506048 
L 84.557388 223.128195 
L 88.250592 227.32635 
L 91.943797 248.317121 
L 95.637002 218.930041 
L 99.330207 256.71343 
L 103.023411 256.71343 
L 106.716616 235.722658 
L 110.409821 265.109739 
L 114.103026 248.317121 
L 117.79623 244.118967 
L 121.489435 256.71343 
L 125.18264 244.118967 
L 128.875845 244.118967 
L 132.56905 260.911585 
L 136.262254 231.524504 
L 139.955459 244.118967 
L 143.648664 231.524504 
L 147.341869 218.930041 
L 151.035073 239.920813 
L 154.728278 218.930041 
L 158.421483 256.71343 
L 162.114688 231.524504 
L 165.807893 231.524504 
L 169.501097 239.920813 
L 173.194302 227.32635 
L 176.887507 248.317121 
L 180.580712 248.317121 
L 184.273916 214.731886 
L 187.967121 244.118967 
L 191.660326 223.128195 
L 195.353531 218.930041 
L 199.046736 227.32635 
L 202.73994 218.930041 
L 206.433145 239.920813 
L 210.12635 244.118967 
L 213.819555 239.920813 
L 217.512759 239.920813 
L 221.205964 227.32635 
L 224.899169 227.32635 
L 228.592374 235.722658 
L 232.285579 235.722658 
L 235.978783 202.137423 
L 239.671988 235.722658 
L 243.365193 218.930041 
L 247.058398 214.731886 
L 250.751602 223.128195 
L 254.444807 223.128195 
L 258.138012 239.920813 
L 261.831217 223.128195 
L 265.524421 231.524504 
L 269.217626 239.920813 
L 272.910831 235.722658 
L 276.604036 235.722658 
L 280.297241 239.920813 
L 283.990445 223.128195 
L 287.68365 248.317121 
L 291.376855 244.118967 
L 295.07006 218.930041 
L 298.763264 256.71343 
L 302.456469 244.118967 
L 306.149674 248.317121 
L 309.842879 256.71343 
L 313.536084 227.32635 
L 317.229288 248.317121 
L 320.922493 239.920813 
L 324.615698 218.930041 
L 328.308903 239.920813 
L 332.002107 256.71343 
L 335.695312 227.32635 
L 339.388517 248.317121 
L 343.081722 223.128195 
L 346.774927 223.128195 
L 350.468131 244.118967 
L 354.161336 218.930041 
L 357.854541 218.930041 
L 361.547746 239.920813 
L 365.24095 227.32635 
L 368.934155 223.128195 
L 372.62736 252.515276 
L 376.320565 244.118967 
L 380.01377 244.118967 
L 383.706974 235.722658 
L 387.400179 244.118967 
L 391.093384 235.722658 
L 394.786589 223.128195 
L 398.479793 248.317121 
L 402.172998 231.524504 
L 405.866203 252.515276 
L 409.559408 235.722658 
L 413.252612 227.32635 
L 416.945817 239.920813 
L 420.639022 231.524504 
L 424.332227 227.32635 
L 428.025432 235.722658 
L 431.718636 218.930041 
" clip-path="url(#pabd7e8766d)" style="fill: none; stroke: #0000ff; stroke-linecap: square"/>
    <defs>
     <path id="m1884f91db8" d="M -0.49999 0.49999 
L 0.50001 0.49999 
L 0.50001 -0.50001 
L -0.49999 -0.50001 
z
"/>
    </defs>
    <g clip-path="url(#pabd7e8766d)">
     <use xlink:href="#m1884f91db8" x="66.091364" y="71.994638" style="fill: #0000ff"/>
     <use xlink:href="#m1884f91db8" x="69.784568" y="235.722658" style="fill: #0000ff"/>
     <use xlink:href="#m1884f91db8" x="73.477773" y="231.524504" style="fill: #0000ff"/>
     <use xlink:href="#m1884f91db8" x="77.170978" y="244.118967" style="fill: #0000ff"/>
     <use xlink:href="#m1884f91db8" x="80.864183" y="273.506048" style="fill: #0000ff"/>
     <use xlink:href="#m1884f91db8" x="84.557388" y="223.128195" style="fill: #0000ff"/>
     <use xlink:href="#m1884f91db8" x="88.250592" y="227.32635" style="fill: #0000ff"/>
     <use xlink:href="#m1884f91db8" x="91.943797" y="248.317121" style="fill: #0000ff"/>
     <use xlink:href="#m1884f91db8" x="95.637002" y="218.930041" style="fill: #0000ff"/>
     <use xlink:href="#m1884f91db8" x="99.330207" y="256.71343" style="fill: #0000ff"/>
     <use xlink:href="#m1884f91db8" x="103.023411" y="256.71343" style="fill: #0000ff"/>
     <use xlink:href="#m1884f91db8" x="106.716616" y="235.722658" style="fill: #0000ff"/>
     <use xlink:href="#m1884f91db8" x="110.409821" y="265.109739" style="fill: #0000ff"/>
     <use xlink:href="#m1884f91db8" x="114.103026" y="248.317121" style="fill: #0000ff"/>
     <use xlink:href="#m1884f91db8" x="117.79623" y="244.118967" style="fill: #0000ff"/>
     <use xlink:href="#m1884f91db8" x="121.489435" y="256.71343" style="fill: #0000ff"/>
     <use xlink:href="#m1884f91db8" x="125.18264" y="244.118967" style="fill: #0000ff"/>
     <use xlink:href="#m1884f91db8" x="128.875845" y="244.118967" style="fill: #0000ff"/>
     <use xlink:href="#m1884f91db8" x="132.56905" y="260.911585" style="fill: #0000ff"/>
     <use xlink:href="#m1884f91db8" x="136.262254" y="231.524504" style="fill: #0000ff"/>
     <use xlink:href="#m1884f91db8" x="139.955459" y="244.118967" style="fill: #0000ff"/>
     <use xlink:href="#m1884f91db8" x="143.648664" y="231.524504" style="fill: #0000ff"/>
     <use xlink:href="#m1884f91db8" x="147.341869" y="218.930041" style="fill: #0000ff"/>
     <use xlink:href="#m1884f91db8" x="151.035073" y="239.920813" style="fill: #0000ff"/>
     <use xlink:href="#m1884f91db8" x="154.728278" y="218.930041" style="fill: #0000ff"/>
     <use xlink:href="#m1884f91db8" x="158.421483" y="256.71343" style="fill: #0000ff"/>
     <use xlink:href="#m1884f91db8" x="162.114688" y="231.524504" style="fill: #0000ff"/>
     <use xlink:href="#m1884f91db8" x="165.807893" y="231.524504" style="fill: #0000ff"/>
     <use xlink:href="#m1884f91db8" x="169.501097" y="239.920813" style="fill: #0000ff"/>
     <use xlink:href="#m1884f91db8" x="173.194302" y="227.32635" style="fill: #0000ff"/>
     <use xlink:href="#m1884f91db8" x="176.887507" y="248.317121" style="fill: #0000ff"/>
     <use xlink:href="#m1884f91db8" x="180.580712" y="248.317121" style="fill: #0000ff"/>
     <use xlink:href="#m1884f91db8" x="184.273916" y="214.731886" style="fill: #0000ff"/>
     <use xlink:href="#m1884f91db8" x="187.967121" y="244.118967" style="fill: #0000ff"/>
     <use xlink:href="#m1884f91db8" x="191.660326" y="223.128195" style="fill: #0000ff"/>
     <use xlink:href="#m1884f91db8" x="195.353531" y="218.930041" style="fill: #0000ff"/>
     <use xlink:href="#m1884f91db8" x="199.046736" y="227.32635" style="fill: #0000ff"/>
     <use xlink:href="#m1884f91db8" x="202.73994" y="218.930041" style="fill: #0000ff"/>
     <use xlink:href="#m1884f91db8" x="206.433145" y="239.920813" style="fill: #0000ff"/>
     <use xlink:href="#m1884f91db8" x="210.12635" y="244.118967" style="fill: #0000ff"/>
     <use xlink:href="#m1884f91db8" x="213.819555" y="239.920813" style="fill: #0000ff"/>
     <use xlink:href="#m1884f91db8" x="217.512759" y="239.920813" style="fill: #0000ff"/>
     <use xlink:href="#m1884f91db8" x="221.205964" y="227.32635" style="fill: #0000ff"/>
     <use xlink:href="#m1884f91db8" x="224.899169" y="227.32635" style="fill: #0000ff"/>
     <use xlink:href="#m1884f91db8" x="228.592374" y="235.722658" style="fill: #0000ff"/>
     <use xlink:href="#m1884f91db8" x="232.285579" y="235.722658" style="fill: #0000ff"/>
     <use xlink:href="#m1884f91db8" x="235.978783" y="202.137423" style="fill: #0000ff"/>
     <use xlink:href="#m1884f91db8" x="239.671988" y="235.722658" style="fill: #0000ff"/>
     <use xlink:href="#m1884f91db8" x="243.365193" y="218.930041" style="fill: #0000ff"/>
     <use xlink:href="#m1884f91db8" x="247.058398" y="214.731886" style="fill: #0000ff"/>
     <use xlink:href="#m1884f91db8" x="250.751602" y="223.128195" style="fill: #0000ff"/>
     <use xlink:href="#m1884f91db8" x="254.444807" y="223.128195" style="fill: #0000ff"/>
     <use xlink:href="#m1884f91db8" x="258.138012" y="239.920813" style="fill: #0000ff"/>
     <use xlink:href="#m1884f91db8" x="261.831217" y="223.128195" style="fill: #0000ff"/>
     <use xlink:href="#m1884f91db8" x="265.524421" y="231.524504" style="fill: #0000ff"/>
     <use xlink:href="#m1884f91db8" x="269.217626" y="239.920813" style="fill: #0000ff"/>
     <use xlink:href="#m1884f91db8" x="272.910831" y="235.722658" style="fill: #0000ff"/>
     <use xlink:href="#m1884f91db8" x="276.604036" y="235.722658" style="fill: #0000ff"/>
     <use xlink:href="#m1884f91db8" x="280.297241" y="239.920813" style="fill: #0000ff"/>
     <use xlink:href="#m1884f91db8" x="283.990445" y="223.128195" style="fill: #0000ff"/>
     <use xlink:href="#m1884f91db8" x="287.68365" y="248.317121" style="fill: #0000ff"/>
     <use xlink:href="#m1884f91db8" x="291.376855" y="244.118967" style="fill: #0000ff"/>
     <use xlink:href="#m1884f91db8" x="295.07006" y="218.930041" style="fill: #0000ff"/>
     <use xlink:href="#m1884f91db8" x="298.763264" y="256.71343" style="fill: #0000ff"/>
     <use xlink:href="#m1884f91db8" x="302.456469" y="244.118967" style="fill: #0000ff"/>
     <use xlink:href="#m1884f91db8" x="306.149674" y="248.317121" style="fill: #0000ff"/>
     <use xlink:href="#m1884f91db8" x="309.842879" y="256.71343" style="fill: #0000ff"/>
     <use xlink:href="#m1884f91db8" x="313.536084" y="227.32635" style="fill: #0000ff"/>
     <use xlink:href="#m1884f91db8" x="317.229288" y="248.317121" style="fill: #0000ff"/>
     <use xlink:href="#m1884f91db8" x="320.922493" y="239.920813" style="fill: #0000ff"/>
     <use xlink:href="#m1884f91db8" x="324.615698" y="218.930041" style="fill: #0000ff"/>
     <use xlink:href="#m1884f91db8" x="328.308903" y="239.920813" style="fill: #0000ff"/>
     <use xlink:href="#m1884f91db8" x="332.002107" y="256.71343" style="fill: #0000ff"/>
     <use xlink:href="#m1884f91db8" x="335.695312" y="227.32635" style="fill: #0000ff"/>
     <use xlink:href="#m1884f91db8" x="339.388517" y="248.317121" style="fill: #0000ff"/>
     <use xlink:href="#m1884f91db8" x="343.081722" y="223.128195" style="fill: #0000ff"/>
     <use xlink:href="#m1884f91db8" x="346.774927" y="223.128195" style="fill: #0000ff"/>
     <use xlink:href="#m1884f91db8" x="350.468131" y="244.118967" style="fill: #0000ff"/>
     <use xlink:href="#m1884f91db8" x="354.161336" y="218.930041" style="fill: #0000ff"/>
     <use xlink:href="#m1884f91db8" x="357.854541" y="218.930041" style="fill: #0000ff"/>
     <use xlink:href="#m1884f91db8" x="361.547746" y="239.920813" style="fill: #0000ff"/>
     <use xlink:href="#m1884f91db8" x="365.24095" y="227.32635" style="fill: #0000ff"/>
     <use xlink:href="#m1884f91db8" x="368.934155" y="223.128195" style="fill: #0000ff"/>
     <use xlink:href="#m1884f91db8" x="372.62736" y="252.515276" style="fill: #0000ff"/>
     <use xlink:href="#m1884f91db8" x="376.320565" y="244.118967" style="fill: #0000ff"/>
     <use xlink:href="#m1884f91db8" x="380.01377" y="244.118967" style="fill: #0000ff"/>
     <use xlink:href="#m1884f91db8" x="383.706974" y="235.722658" style="fill: #0000ff"/>
     <use xlink:href="#m1884f91db8" x="387.400179" y="244.118967" style="fill: #0000ff"/>
     <use xlink:href="#m1884f91db8" x="391.093384" y="235.722658" style="fill: #0000ff"/>
     <use xlink:href="#m1884f91db8" x="394.786589" y="223.128195" style="fill: #0000ff"/>
     <use xlink:href="#m1884f91db8" x="398.479793" y="248.317121" style="fill: #0000ff"/>
     <use xlink:href="#m1884f91db8" x="402.172998" y="231.524504" style="fill: #0000ff"/>
     <use xlink:href="#m1884f91db8" x="405.866203" y="252.515276" style="fill: #0000ff"/>
     <use xlink:href="#m1884f91db8" x="409.559408" y="235.722658" style="fill: #0000ff"/>
     <use xlink:href="#m1884f91db8" x="413.252612" y="227.32635" style="fill: #0000ff"/>
     <use xlink:href="#m1884f91db8" x="416.945817" y="239.920813" style="fill: #0000ff"/>
     <use xlink:href="#m1884f91db8" x="420.639022" y="231.524504" style="fill: #0000ff"/>
     <use xlink:href="#m1884f91db8" x="424.332227" y="227.32635" style="fill: #0000ff"/>
     <use xlink:href="#m1884f91db8" x="428.025432" y="235.722658" style="fill: #0000ff"/>
     <use xlink:href="#m1884f91db8" x="431.718636" y="218.930041" style="fill: #0000ff"/>
    </g>
   </g>
   <g id="line2d_15">
    <path d="M 66.091364 71.994638 
L 69.784568 153.858648 
L 73.477773 179.747267 
L 77.170978 195.840192 
L 80.864183 211.373363 
L 84.557388 213.332502 
L 88.250592 215.331623 
L 91.943797 219.45481 
L 95.637002 219.396502 
L 99.330207 223.128195 
L 103.023411 226.181398 
L 106.716616 226.976503 
L 110.409821 229.909829 
L 114.103026 231.224636 
L 117.79623 232.084258 
L 121.489435 233.623581 
L 125.18264 234.240957 
L 128.875845 234.789735 
L 132.56905 236.164569 
L 136.262254 235.932566 
L 139.955459 236.322395 
L 143.648664 236.104309 
L 147.341869 235.357601 
L 151.035073 235.547735 
L 154.728278 234.883027 
L 158.421483 235.722658 
L 162.114688 235.567171 
L 165.807893 235.42279 
L 169.501097 235.577894 
L 173.194302 235.302843 
L 176.887507 235.722658 
L 180.580712 236.116235 
L 184.273916 235.468225 
L 187.967121 235.722658 
L 191.660326 235.362817 
L 195.353531 234.906351 
L 199.046736 234.701486 
L 202.73994 234.286448 
L 206.433145 234.430919 
L 210.12635 234.67312 
L 213.819555 234.801112 
L 217.512759 234.92301 
L 221.205964 234.746343 
L 224.899169 234.577707 
L 228.592374 234.603151 
L 232.285579 234.627488 
L 235.978783 233.93621 
L 239.671988 233.973427 
L 243.365193 233.666419 
L 247.058398 233.287729 
L 250.751602 233.088522 
L 254.444807 232.896978 
L 258.138012 233.029503 
L 261.831217 232.846145 
L 265.524421 232.822115 
L 269.217626 232.948878 
L 272.910831 232.997541 
L 276.604036 233.044525 
L 280.297241 233.161073 
L 283.990445 232.993858 
L 287.68365 233.245059 
L 291.376855 233.420445 
L 295.07006 233.190438 
L 298.763264 233.557985 
L 302.456469 233.720462 
L 306.149674 233.941623 
L 309.842879 234.281501 
L 313.536084 234.179219 
L 317.229288 234.384116 
L 320.922493 234.463212 
L 324.615698 234.244435 
L 328.308903 234.323274 
L 332.002107 234.629988 
L 335.695312 234.53129 
L 339.388517 234.715101 
L 343.081722 234.562642 
L 346.774927 234.414143 
L 350.468131 234.538564 
L 354.161336 234.340987 
L 357.854541 234.14835 
L 361.547746 234.219615 
L 365.24095 234.135551 
L 368.934155 234.002932 
L 372.62736 234.223318 
L 376.320565 234.339737 
L 380.01377 234.453449 
L 383.706974 234.468038 
L 387.400179 234.577707 
L 391.093384 234.590572 
L 394.786589 234.463212 
L 398.479793 234.615453 
L 402.172998 234.581856 
L 405.866203 234.774688 
L 409.559408 234.784773 
L 413.252612 234.706263 
L 416.945817 234.760581 
L 420.639022 234.72722 
L 424.332227 234.651701 
L 428.025432 234.662518 
L 431.718636 234.505194 
" clip-path="url(#pabd7e8766d)" style="fill: none; stroke: #0000ff; stroke-opacity: 0.5; stroke-width: 0.5; stroke-linecap: square"/>
    <defs>
     <path id="m1f481fcacc" d="M -0.49999 0.49999 
L 0.50001 0.49999 
L 0.50001 -0.50001 
L -0.49999 -0.50001 
z
"/>
    </defs>
    <g clip-path="url(#pabd7e8766d)">
     <use xlink:href="#m1f481fcacc" x="66.091364" y="71.994638" style="fill: #0000ff; fill-opacity: 0.5"/>
     <use xlink:href="#m1f481fcacc" x="69.784568" y="153.858648" style="fill: #0000ff; fill-opacity: 0.5"/>
     <use xlink:href="#m1f481fcacc" x="73.477773" y="179.747267" style="fill: #0000ff; fill-opacity: 0.5"/>
     <use xlink:href="#m1f481fcacc" x="77.170978" y="195.840192" style="fill: #0000ff; fill-opacity: 0.5"/>
     <use xlink:href="#m1f481fcacc" x="80.864183" y="211.373363" style="fill: #0000ff; fill-opacity: 0.5"/>
     <use xlink:href="#m1f481fcacc" x="84.557388" y="213.332502" style="fill: #0000ff; fill-opacity: 0.5"/>
     <use xlink:href="#m1f481fcacc" x="88.250592" y="215.331623" style="fill: #0000ff; fill-opacity: 0.5"/>
     <use xlink:href="#m1f481fcacc" x="91.943797" y="219.45481" style="fill: #0000ff; fill-opacity: 0.5"/>
     <use xlink:href="#m1f481fcacc" x="95.637002" y="219.396502" style="fill: #0000ff; fill-opacity: 0.5"/>
     <use xlink:href="#m1f481fcacc" x="99.330207" y="223.128195" style="fill: #0000ff; fill-opacity: 0.5"/>
     <use xlink:href="#m1f481fcacc" x="103.023411" y="226.181398" style="fill: #0000ff; fill-opacity: 0.5"/>
     <use xlink:href="#m1f481fcacc" x="106.716616" y="226.976503" style="fill: #0000ff; fill-opacity: 0.5"/>
     <use xlink:href="#m1f481fcacc" x="110.409821" y="229.909829" style="fill: #0000ff; fill-opacity: 0.5"/>
     <use xlink:href="#m1f481fcacc" x="114.103026" y="231.224636" style="fill: #0000ff; fill-opacity: 0.5"/>
     <use xlink:href="#m1f481fcacc" x="117.79623" y="232.084258" style="fill: #0000ff; fill-opacity: 0.5"/>
     <use xlink:href="#m1f481fcacc" x="121.489435" y="233.623581" style="fill: #0000ff; fill-opacity: 0.5"/>
     <use xlink:href="#m1f481fcacc" x="125.18264" y="234.240957" style="fill: #0000ff; fill-opacity: 0.5"/>
     <use xlink:href="#m1f481fcacc" x="128.875845" y="234.789735" style="fill: #0000ff; fill-opacity: 0.5"/>
     <use xlink:href="#m1f481fcacc" x="132.56905" y="236.164569" style="fill: #0000ff; fill-opacity: 0.5"/>
     <use xlink:href="#m1f481fcacc" x="136.262254" y="235.932566" style="fill: #0000ff; fill-opacity: 0.5"/>
     <use xlink:href="#m1f481fcacc" x="139.955459" y="236.322395" style="fill: #0000ff; fill-opacity: 0.5"/>
     <use xlink:href="#m1f481fcacc" x="143.648664" y="236.104309" style="fill: #0000ff; fill-opacity: 0.5"/>
     <use xlink:href="#m1f481fcacc" x="147.341869" y="235.357601" style="fill: #0000ff; fill-opacity: 0.5"/>
     <use xlink:href="#m1f481fcacc" x="151.035073" y="235.547735" style="fill: #0000ff; fill-opacity: 0.5"/>
     <use xlink:href="#m1f481fcacc" x="154.728278" y="234.883027" style="fill: #0000ff; fill-opacity: 0.5"/>
     <use xlink:href="#m1f481fcacc" x="158.421483" y="235.722658" style="fill: #0000ff; fill-opacity: 0.5"/>
     <use xlink:href="#m1f481fcacc" x="162.114688" y="235.567171" style="fill: #0000ff; fill-opacity: 0.5"/>
     <use xlink:href="#m1f481fcacc" x="165.807893" y="235.42279" style="fill: #0000ff; fill-opacity: 0.5"/>
     <use xlink:href="#m1f481fcacc" x="169.501097" y="235.577894" style="fill: #0000ff; fill-opacity: 0.5"/>
     <use xlink:href="#m1f481fcacc" x="173.194302" y="235.302843" style="fill: #0000ff; fill-opacity: 0.5"/>
     <use xlink:href="#m1f481fcacc" x="176.887507" y="235.722658" style="fill: #0000ff; fill-opacity: 0.5"/>
     <use xlink:href="#m1f481fcacc" x="180.580712" y="236.116235" style="fill: #0000ff; fill-opacity: 0.5"/>
     <use xlink:href="#m1f481fcacc" x="184.273916" y="235.468225" style="fill: #0000ff; fill-opacity: 0.5"/>
     <use xlink:href="#m1f481fcacc" x="187.967121" y="235.722658" style="fill: #0000ff; fill-opacity: 0.5"/>
     <use xlink:href="#m1f481fcacc" x="191.660326" y="235.362817" style="fill: #0000ff; fill-opacity: 0.5"/>
     <use xlink:href="#m1f481fcacc" x="195.353531" y="234.906351" style="fill: #0000ff; fill-opacity: 0.5"/>
     <use xlink:href="#m1f481fcacc" x="199.046736" y="234.701486" style="fill: #0000ff; fill-opacity: 0.5"/>
     <use xlink:href="#m1f481fcacc" x="202.73994" y="234.286448" style="fill: #0000ff; fill-opacity: 0.5"/>
     <use xlink:href="#m1f481fcacc" x="206.433145" y="234.430919" style="fill: #0000ff; fill-opacity: 0.5"/>
     <use xlink:href="#m1f481fcacc" x="210.12635" y="234.67312" style="fill: #0000ff; fill-opacity: 0.5"/>
     <use xlink:href="#m1f481fcacc" x="213.819555" y="234.801112" style="fill: #0000ff; fill-opacity: 0.5"/>
     <use xlink:href="#m1f481fcacc" x="217.512759" y="234.92301" style="fill: #0000ff; fill-opacity: 0.5"/>
     <use xlink:href="#m1f481fcacc" x="221.205964" y="234.746343" style="fill: #0000ff; fill-opacity: 0.5"/>
     <use xlink:href="#m1f481fcacc" x="224.899169" y="234.577707" style="fill: #0000ff; fill-opacity: 0.5"/>
     <use xlink:href="#m1f481fcacc" x="228.592374" y="234.603151" style="fill: #0000ff; fill-opacity: 0.5"/>
     <use xlink:href="#m1f481fcacc" x="232.285579" y="234.627488" style="fill: #0000ff; fill-opacity: 0.5"/>
     <use xlink:href="#m1f481fcacc" x="235.978783" y="233.93621" style="fill: #0000ff; fill-opacity: 0.5"/>
     <use xlink:href="#m1f481fcacc" x="239.671988" y="233.973427" style="fill: #0000ff; fill-opacity: 0.5"/>
     <use xlink:href="#m1f481fcacc" x="243.365193" y="233.666419" style="fill: #0000ff; fill-opacity: 0.5"/>
     <use xlink:href="#m1f481fcacc" x="247.058398" y="233.287729" style="fill: #0000ff; fill-opacity: 0.5"/>
     <use xlink:href="#m1f481fcacc" x="250.751602" y="233.088522" style="fill: #0000ff; fill-opacity: 0.5"/>
     <use xlink:href="#m1f481fcacc" x="254.444807" y="232.896978" style="fill: #0000ff; fill-opacity: 0.5"/>
     <use xlink:href="#m1f481fcacc" x="258.138012" y="233.029503" style="fill: #0000ff; fill-opacity: 0.5"/>
     <use xlink:href="#m1f481fcacc" x="261.831217" y="232.846145" style="fill: #0000ff; fill-opacity: 0.5"/>
     <use xlink:href="#m1f481fcacc" x="265.524421" y="232.822115" style="fill: #0000ff; fill-opacity: 0.5"/>
     <use xlink:href="#m1f481fcacc" x="269.217626" y="232.948878" style="fill: #0000ff; fill-opacity: 0.5"/>
     <use xlink:href="#m1f481fcacc" x="272.910831" y="232.997541" style="fill: #0000ff; fill-opacity: 0.5"/>
     <use xlink:href="#m1f481fcacc" x="276.604036" y="233.044525" style="fill: #0000ff; fill-opacity: 0.5"/>
     <use xlink:href="#m1f481fcacc" x="280.297241" y="233.161073" style="fill: #0000ff; fill-opacity: 0.5"/>
     <use xlink:href="#m1f481fcacc" x="283.990445" y="232.993858" style="fill: #0000ff; fill-opacity: 0.5"/>
     <use xlink:href="#m1f481fcacc" x="287.68365" y="233.245059" style="fill: #0000ff; fill-opacity: 0.5"/>
     <use xlink:href="#m1f481fcacc" x="291.376855" y="233.420445" style="fill: #0000ff; fill-opacity: 0.5"/>
     <use xlink:href="#m1f481fcacc" x="295.07006" y="233.190438" style="fill: #0000ff; fill-opacity: 0.5"/>
     <use xlink:href="#m1f481fcacc" x="298.763264" y="233.557985" style="fill: #0000ff; fill-opacity: 0.5"/>
     <use xlink:href="#m1f481fcacc" x="302.456469" y="233.720462" style="fill: #0000ff; fill-opacity: 0.5"/>
     <use xlink:href="#m1f481fcacc" x="306.149674" y="233.941623" style="fill: #0000ff; fill-opacity: 0.5"/>
     <use xlink:href="#m1f481fcacc" x="309.842879" y="234.281501" style="fill: #0000ff; fill-opacity: 0.5"/>
     <use xlink:href="#m1f481fcacc" x="313.536084" y="234.179219" style="fill: #0000ff; fill-opacity: 0.5"/>
     <use xlink:href="#m1f481fcacc" x="317.229288" y="234.384116" style="fill: #0000ff; fill-opacity: 0.5"/>
     <use xlink:href="#m1f481fcacc" x="320.922493" y="234.463212" style="fill: #0000ff; fill-opacity: 0.5"/>
     <use xlink:href="#m1f481fcacc" x="324.615698" y="234.244435" style="fill: #0000ff; fill-opacity: 0.5"/>
     <use xlink:href="#m1f481fcacc" x="328.308903" y="234.323274" style="fill: #0000ff; fill-opacity: 0.5"/>
     <use xlink:href="#m1f481fcacc" x="332.002107" y="234.629988" style="fill: #0000ff; fill-opacity: 0.5"/>
     <use xlink:href="#m1f481fcacc" x="335.695312" y="234.53129" style="fill: #0000ff; fill-opacity: 0.5"/>
     <use xlink:href="#m1f481fcacc" x="339.388517" y="234.715101" style="fill: #0000ff; fill-opacity: 0.5"/>
     <use xlink:href="#m1f481fcacc" x="343.081722" y="234.562642" style="fill: #0000ff; fill-opacity: 0.5"/>
     <use xlink:href="#m1f481fcacc" x="346.774927" y="234.414143" style="fill: #0000ff; fill-opacity: 0.5"/>
     <use xlink:href="#m1f481fcacc" x="350.468131" y="234.538564" style="fill: #0000ff; fill-opacity: 0.5"/>
     <use xlink:href="#m1f481fcacc" x="354.161336" y="234.340987" style="fill: #0000ff; fill-opacity: 0.5"/>
     <use xlink:href="#m1f481fcacc" x="357.854541" y="234.14835" style="fill: #0000ff; fill-opacity: 0.5"/>
     <use xlink:href="#m1f481fcacc" x="361.547746" y="234.219615" style="fill: #0000ff; fill-opacity: 0.5"/>
     <use xlink:href="#m1f481fcacc" x="365.24095" y="234.135551" style="fill: #0000ff; fill-opacity: 0.5"/>
     <use xlink:href="#m1f481fcacc" x="368.934155" y="234.002932" style="fill: #0000ff; fill-opacity: 0.5"/>
     <use xlink:href="#m1f481fcacc" x="372.62736" y="234.223318" style="fill: #0000ff; fill-opacity: 0.5"/>
     <use xlink:href="#m1f481fcacc" x="376.320565" y="234.339737" style="fill: #0000ff; fill-opacity: 0.5"/>
     <use xlink:href="#m1f481fcacc" x="380.01377" y="234.453449" style="fill: #0000ff; fill-opacity: 0.5"/>
     <use xlink:href="#m1f481fcacc" x="383.706974" y="234.468038" style="fill: #0000ff; fill-opacity: 0.5"/>
     <use xlink:href="#m1f481fcacc" x="387.400179" y="234.577707" style="fill: #0000ff; fill-opacity: 0.5"/>
     <use xlink:href="#m1f481fcacc" x="391.093384" y="234.590572" style="fill: #0000ff; fill-opacity: 0.5"/>
     <use xlink:href="#m1f481fcacc" x="394.786589" y="234.463212" style="fill: #0000ff; fill-opacity: 0.5"/>
     <use xlink:href="#m1f481fcacc" x="398.479793" y="234.615453" style="fill: #0000ff; fill-opacity: 0.5"/>
     <use xlink:href="#m1f481fcacc" x="402.172998" y="234.581856" style="fill: #0000ff; fill-opacity: 0.5"/>
     <use xlink:href="#m1f481fcacc" x="405.866203" y="234.774688" style="fill: #0000ff; fill-opacity: 0.5"/>
     <use xlink:href="#m1f481fcacc" x="409.559408" y="234.784773" style="fill: #0000ff; fill-opacity: 0.5"/>
     <use xlink:href="#m1f481fcacc" x="413.252612" y="234.706263" style="fill: #0000ff; fill-opacity: 0.5"/>
     <use xlink:href="#m1f481fcacc" x="416.945817" y="234.760581" style="fill: #0000ff; fill-opacity: 0.5"/>
     <use xlink:href="#m1f481fcacc" x="420.639022" y="234.72722" style="fill: #0000ff; fill-opacity: 0.5"/>
     <use xlink:href="#m1f481fcacc" x="424.332227" y="234.651701" style="fill: #0000ff; fill-opacity: 0.5"/>
     <use xlink:href="#m1f481fcacc" x="428.025432" y="234.662518" style="fill: #0000ff; fill-opacity: 0.5"/>
     <use xlink:href="#m1f481fcacc" x="431.718636" y="234.505194" style="fill: #0000ff; fill-opacity: 0.5"/>
    </g>
   </g>
   <g id="line2d_16">
    <path d="M 47.81 281.902356 
L 450 281.902356 
" clip-path="url(#pabd7e8766d)" style="fill: none; stroke-dasharray: 0.555,0.24; stroke-dashoffset: 0; stroke: #ff0000; stroke-width: 0.15"/>
   </g>
   <g id="line2d_17">
    <path d="M 47.81 176.948497 
L 450 176.948497 
" clip-path="url(#pabd7e8766d)" style="fill: none; stroke-dasharray: 0.555,0.24; stroke-dashoffset: 0; stroke: #ff0000; stroke-width: 0.15"/>
   </g>
   <g id="line2d_18">
    <path d="M 47.81 71.994638 
L 450 71.994638 
" clip-path="url(#pabd7e8766d)" style="fill: none; stroke-dasharray: 0.555,0.24; stroke-dashoffset: 0; stroke: #ff0000; stroke-width: 0.15"/>
   </g>
   <g id="line2d_19">
    <path d="M 66.091364 281.902356 
L 69.784568 281.902356 
L 73.477773 281.902356 
L 77.170978 281.902356 
L 80.864183 281.902356 
L 84.557388 281.902356 
L 88.250592 281.902356 
L 91.943797 281.902356 
L 95.637002 281.902356 
L 99.330207 281.902356 
L 103.023411 281.902356 
L 106.716616 281.902356 
L 110.409821 281.902356 
L 114.103026 281.902356 
L 117.79623 281.902356 
L 121.489435 281.902356 
L 125.18264 281.902356 
L 128.875845 281.902356 
L 132.56905 281.902356 
L 136.262254 281.902356 
L 139.955459 281.902356 
L 143.648664 281.902356 
L 147.341869 281.902356 
L 151.035073 281.902356 
L 154.728278 281.902356 
L 158.421483 281.902356 
L 162.114688 281.902356 
L 165.807893 281.902356 
L 169.501097 281.902356 
L 173.194302 281.902356 
L 176.887507 281.902356 
L 180.580712 281.902356 
L 184.273916 281.902356 
L 187.967121 281.902356 
L 191.660326 281.902356 
L 195.353531 281.902356 
L 199.046736 281.902356 
L 202.73994 281.902356 
L 206.433145 281.902356 
L 210.12635 281.902356 
L 213.819555 281.902356 
L 217.512759 281.902356 
L 221.205964 281.902356 
L 224.899169 281.902356 
L 228.592374 281.902356 
L 232.285579 281.902356 
L 235.978783 281.902356 
L 239.671988 281.902356 
L 243.365193 281.902356 
L 247.058398 281.902356 
L 250.751602 281.902356 
L 254.444807 281.902356 
L 258.138012 281.902356 
L 261.831217 281.902356 
L 265.524421 281.902356 
L 269.217626 281.902356 
L 272.910831 281.902356 
L 276.604036 281.902356 
L 280.297241 281.902356 
L 283.990445 281.902356 
L 287.68365 281.902356 
L 291.376855 281.902356 
L 295.07006 281.902356 
L 298.763264 281.902356 
L 302.456469 281.902356 
L 306.149674 281.902356 
L 309.842879 281.902356 
L 313.536084 281.902356 
L 317.229288 281.902356 
L 320.922493 281.902356 
L 324.615698 281.902356 
L 328.308903 281.902356 
L 332.002107 281.902356 
L 335.695312 281.902356 
L 339.388517 281.902356 
L 343.081722 281.902356 
L 346.774927 281.902356 
L 350.468131 281.902356 
L 354.161336 281.902356 
L 357.854541 281.902356 
L 361.547746 281.902356 
L 365.24095 281.902356 
L 368.934155 281.902356 
L 372.62736 281.902356 
L 376.320565 281.902356 
L 380.01377 281.902356 
L 383.706974 281.902356 
L 387.400179 281.902356 
L 391.093384 281.902356 
L 394.786589 281.902356 
L 398.479793 281.902356 
L 402.172998 281.902356 
L 405.866203 281.902356 
L 409.559408 281.902356 
L 413.252612 281.902356 
L 416.945817 281.902356 
L 420.639022 281.902356 
L 424.332227 281.902356 
L 428.025432 281.902356 
L 431.718636 281.902356 
" clip-path="url(#pabd7e8766d)" style="fill: none; stroke: #ff0000; stroke-width: 0.5; stroke-linecap: square"/>
    <defs>
     <path id="mf2cc260351" d="M -0.49999 0.49999 
L 0.50001 0.49999 
L 0.50001 -0.50001 
L -0.49999 -0.50001 
z
"/>
    </defs>
    <g clip-path="url(#pabd7e8766d)">
     <use xlink:href="#mf2cc260351" x="66.091364" y="281.902356" style="fill: #ff0000"/>
     <use xlink:href="#mf2cc260351" x="69.784568" y="281.902356" style="fill: #ff0000"/>
     <use xlink:href="#mf2cc260351" x="73.477773" y="281.902356" style="fill: #ff0000"/>
     <use xlink:href="#mf2cc260351" x="77.170978" y="281.902356" style="fill: #ff0000"/>
     <use xlink:href="#mf2cc260351" x="80.864183" y="281.902356" style="fill: #ff0000"/>
     <use xlink:href="#mf2cc260351" x="84.557388" y="281.902356" style="fill: #ff0000"/>
     <use xlink:href="#mf2cc260351" x="88.250592" y="281.902356" style="fill: #ff0000"/>
     <use xlink:href="#mf2cc260351" x="91.943797" y="281.902356" style="fill: #ff0000"/>
     <use xlink:href="#mf2cc260351" x="95.637002" y="281.902356" style="fill: #ff0000"/>
     <use xlink:href="#mf2cc260351" x="99.330207" y="281.902356" style="fill: #ff0000"/>
     <use xlink:href="#mf2cc260351" x="103.023411" y="281.902356" style="fill: #ff0000"/>
     <use xlink:href="#mf2cc260351" x="106.716616" y="281.902356" style="fill: #ff0000"/>
     <use xlink:href="#mf2cc260351" x="110.409821" y="281.902356" style="fill: #ff0000"/>
     <use xlink:href="#mf2cc260351" x="114.103026" y="281.902356" style="fill: #ff0000"/>
     <use xlink:href="#mf2cc260351" x="117.79623" y="281.902356" style="fill: #ff0000"/>
     <use xlink:href="#mf2cc260351" x="121.489435" y="281.902356" style="fill: #ff0000"/>
     <use xlink:href="#mf2cc260351" x="125.18264" y="281.902356" style="fill: #ff0000"/>
     <use xlink:href="#mf2cc260351" x="128.875845" y="281.902356" style="fill: #ff0000"/>
     <use xlink:href="#mf2cc260351" x="132.56905" y="281.902356" style="fill: #ff0000"/>
     <use xlink:href="#mf2cc260351" x="136.262254" y="281.902356" style="fill: #ff0000"/>
     <use xlink:href="#mf2cc260351" x="139.955459" y="281.902356" style="fill: #ff0000"/>
     <use xlink:href="#mf2cc260351" x="143.648664" y="281.902356" style="fill: #ff0000"/>
     <use xlink:href="#mf2cc260351" x="147.341869" y="281.902356" style="fill: #ff0000"/>
     <use xlink:href="#mf2cc260351" x="151.035073" y="281.902356" style="fill: #ff0000"/>
     <use xlink:href="#mf2cc260351" x="154.728278" y="281.902356" style="fill: #ff0000"/>
     <use xlink:href="#mf2cc260351" x="158.421483" y="281.902356" style="fill: #ff0000"/>
     <use xlink:href="#mf2cc260351" x="162.114688" y="281.902356" style="fill: #ff0000"/>
     <use xlink:href="#mf2cc260351" x="165.807893" y="281.902356" style="fill: #ff0000"/>
     <use xlink:href="#mf2cc260351" x="169.501097" y="281.902356" style="fill: #ff0000"/>
     <use xlink:href="#mf2cc260351" x="173.194302" y="281.902356" style="fill: #ff0000"/>
     <use xlink:href="#mf2cc260351" x="176.887507" y="281.902356" style="fill: #ff0000"/>
     <use xlink:href="#mf2cc260351" x="180.580712" y="281.902356" style="fill: #ff0000"/>
     <use xlink:href="#mf2cc260351" x="184.273916" y="281.902356" style="fill: #ff0000"/>
     <use xlink:href="#mf2cc260351" x="187.967121" y="281.902356" style="fill: #ff0000"/>
     <use xlink:href="#mf2cc260351" x="191.660326" y="281.902356" style="fill: #ff0000"/>
     <use xlink:href="#mf2cc260351" x="195.353531" y="281.902356" style="fill: #ff0000"/>
     <use xlink:href="#mf2cc260351" x="199.046736" y="281.902356" style="fill: #ff0000"/>
     <use xlink:href="#mf2cc260351" x="202.73994" y="281.902356" style="fill: #ff0000"/>
     <use xlink:href="#mf2cc260351" x="206.433145" y="281.902356" style="fill: #ff0000"/>
     <use xlink:href="#mf2cc260351" x="210.12635" y="281.902356" style="fill: #ff0000"/>
     <use xlink:href="#mf2cc260351" x="213.819555" y="281.902356" style="fill: #ff0000"/>
     <use xlink:href="#mf2cc260351" x="217.512759" y="281.902356" style="fill: #ff0000"/>
     <use xlink:href="#mf2cc260351" x="221.205964" y="281.902356" style="fill: #ff0000"/>
     <use xlink:href="#mf2cc260351" x="224.899169" y="281.902356" style="fill: #ff0000"/>
     <use xlink:href="#mf2cc260351" x="228.592374" y="281.902356" style="fill: #ff0000"/>
     <use xlink:href="#mf2cc260351" x="232.285579" y="281.902356" style="fill: #ff0000"/>
     <use xlink:href="#mf2cc260351" x="235.978783" y="281.902356" style="fill: #ff0000"/>
     <use xlink:href="#mf2cc260351" x="239.671988" y="281.902356" style="fill: #ff0000"/>
     <use xlink:href="#mf2cc260351" x="243.365193" y="281.902356" style="fill: #ff0000"/>
     <use xlink:href="#mf2cc260351" x="247.058398" y="281.902356" style="fill: #ff0000"/>
     <use xlink:href="#mf2cc260351" x="250.751602" y="281.902356" style="fill: #ff0000"/>
     <use xlink:href="#mf2cc260351" x="254.444807" y="281.902356" style="fill: #ff0000"/>
     <use xlink:href="#mf2cc260351" x="258.138012" y="281.902356" style="fill: #ff0000"/>
     <use xlink:href="#mf2cc260351" x="261.831217" y="281.902356" style="fill: #ff0000"/>
     <use xlink:href="#mf2cc260351" x="265.524421" y="281.902356" style="fill: #ff0000"/>
     <use xlink:href="#mf2cc260351" x="269.217626" y="281.902356" style="fill: #ff0000"/>
     <use xlink:href="#mf2cc260351" x="272.910831" y="281.902356" style="fill: #ff0000"/>
     <use xlink:href="#mf2cc260351" x="276.604036" y="281.902356" style="fill: #ff0000"/>
     <use xlink:href="#mf2cc260351" x="280.297241" y="281.902356" style="fill: #ff0000"/>
     <use xlink:href="#mf2cc260351" x="283.990445" y="281.902356" style="fill: #ff0000"/>
     <use xlink:href="#mf2cc260351" x="287.68365" y="281.902356" style="fill: #ff0000"/>
     <use xlink:href="#mf2cc260351" x="291.376855" y="281.902356" style="fill: #ff0000"/>
     <use xlink:href="#mf2cc260351" x="295.07006" y="281.902356" style="fill: #ff0000"/>
     <use xlink:href="#mf2cc260351" x="298.763264" y="281.902356" style="fill: #ff0000"/>
     <use xlink:href="#mf2cc260351" x="302.456469" y="281.902356" style="fill: #ff0000"/>
     <use xlink:href="#mf2cc260351" x="306.149674" y="281.902356" style="fill: #ff0000"/>
     <use xlink:href="#mf2cc260351" x="309.842879" y="281.902356" style="fill: #ff0000"/>
     <use xlink:href="#mf2cc260351" x="313.536084" y="281.902356" style="fill: #ff0000"/>
     <use xlink:href="#mf2cc260351" x="317.229288" y="281.902356" style="fill: #ff0000"/>
     <use xlink:href="#mf2cc260351" x="320.922493" y="281.902356" style="fill: #ff0000"/>
     <use xlink:href="#mf2cc260351" x="324.615698" y="281.902356" style="fill: #ff0000"/>
     <use xlink:href="#mf2cc260351" x="328.308903" y="281.902356" style="fill: #ff0000"/>
     <use xlink:href="#mf2cc260351" x="332.002107" y="281.902356" style="fill: #ff0000"/>
     <use xlink:href="#mf2cc260351" x="335.695312" y="281.902356" style="fill: #ff0000"/>
     <use xlink:href="#mf2cc260351" x="339.388517" y="281.902356" style="fill: #ff0000"/>
     <use xlink:href="#mf2cc260351" x="343.081722" y="281.902356" style="fill: #ff0000"/>
     <use xlink:href="#mf2cc260351" x="346.774927" y="281.902356" style="fill: #ff0000"/>
     <use xlink:href="#mf2cc260351" x="350.468131" y="281.902356" style="fill: #ff0000"/>
     <use xlink:href="#mf2cc260351" x="354.161336" y="281.902356" style="fill: #ff0000"/>
     <use xlink:href="#mf2cc260351" x="357.854541" y="281.902356" style="fill: #ff0000"/>
     <use xlink:href="#mf2cc260351" x="361.547746" y="281.902356" style="fill: #ff0000"/>
     <use xlink:href="#mf2cc260351" x="365.24095" y="281.902356" style="fill: #ff0000"/>
     <use xlink:href="#mf2cc260351" x="368.934155" y="281.902356" style="fill: #ff0000"/>
     <use xlink:href="#mf2cc260351" x="372.62736" y="281.902356" style="fill: #ff0000"/>
     <use xlink:href="#mf2cc260351" x="376.320565" y="281.902356" style="fill: #ff0000"/>
     <use xlink:href="#mf2cc260351" x="380.01377" y="281.902356" style="fill: #ff0000"/>
     <use xlink:href="#mf2cc260351" x="383.706974" y="281.902356" style="fill: #ff0000"/>
     <use xlink:href="#mf2cc260351" x="387.400179" y="281.902356" style="fill: #ff0000"/>
     <use xlink:href="#mf2cc260351" x="391.093384" y="281.902356" style="fill: #ff0000"/>
     <use xlink:href="#mf2cc260351" x="394.786589" y="281.902356" style="fill: #ff0000"/>
     <use xlink:href="#mf2cc260351" x="398.479793" y="281.902356" style="fill: #ff0000"/>
     <use xlink:href="#mf2cc260351" x="402.172998" y="281.902356" style="fill: #ff0000"/>
     <use xlink:href="#mf2cc260351" x="405.866203" y="281.902356" style="fill: #ff0000"/>
     <use xlink:href="#mf2cc260351" x="409.559408" y="281.902356" style="fill: #ff0000"/>
     <use xlink:href="#mf2cc260351" x="413.252612" y="281.902356" style="fill: #ff0000"/>
     <use xlink:href="#mf2cc260351" x="416.945817" y="281.902356" style="fill: #ff0000"/>
     <use xlink:href="#mf2cc260351" x="420.639022" y="281.902356" style="fill: #ff0000"/>
     <use xlink:href="#mf2cc260351" x="424.332227" y="281.902356" style="fill: #ff0000"/>
     <use xlink:href="#mf2cc260351" x="428.025432" y="281.902356" style="fill: #ff0000"/>
     <use xlink:href="#mf2cc260351" x="431.718636" y="281.902356" style="fill: #ff0000"/>
    </g>
   </g>
   <g id="line2d_20">
    <path d="M 66.091364 281.902356 
L 69.784568 281.902356 
L 73.477773 281.902356 
L 77.170978 281.902356 
L 80.864183 281.902356 
L 84.557388 281.902356 
L 88.250592 281.902356 
L 91.943797 281.902356 
L 95.637002 281.902356 
L 99.330207 281.902356 
L 103.023411 281.902356 
L 106.716616 281.902356 
L 110.409821 281.902356 
L 114.103026 281.902356 
L 117.79623 281.902356 
L 121.489435 281.902356 
L 125.18264 281.902356 
L 128.875845 281.902356 
L 132.56905 281.902356 
L 136.262254 281.902356 
L 139.955459 281.902356 
L 143.648664 281.902356 
L 147.341869 281.902356 
L 151.035073 281.902356 
L 154.728278 281.902356 
L 158.421483 281.902356 
L 162.114688 281.902356 
L 165.807893 281.902356 
L 169.501097 281.902356 
L 173.194302 281.902356 
L 176.887507 281.902356 
L 180.580712 281.902356 
L 184.273916 281.902356 
L 187.967121 281.902356 
L 191.660326 281.902356 
L 195.353531 281.902356 
L 199.046736 281.902356 
L 202.73994 281.902356 
L 206.433145 281.902356 
L 210.12635 281.902356 
L 213.819555 281.902356 
L 217.512759 281.902356 
L 221.205964 281.902356 
L 224.899169 281.902356 
L 228.592374 281.902356 
L 232.285579 281.902356 
L 235.978783 281.902356 
L 239.671988 281.902356 
L 243.365193 281.902356 
L 247.058398 281.902356 
L 250.751602 281.902356 
L 254.444807 281.902356 
L 258.138012 281.902356 
L 261.831217 281.902356 
L 265.524421 281.902356 
L 269.217626 281.902356 
L 272.910831 281.902356 
L 276.604036 281.902356 
L 280.297241 281.902356 
L 283.990445 281.902356 
L 287.68365 281.902356 
L 291.376855 281.902356 
L 295.07006 281.902356 
L 298.763264 281.902356 
L 302.456469 281.902356 
L 306.149674 281.902356 
L 309.842879 281.902356 
L 313.536084 281.902356 
L 317.229288 281.902356 
L 320.922493 281.902356 
L 324.615698 281.902356 
L 328.308903 281.902356 
L 332.002107 281.902356 
L 335.695312 281.902356 
L 339.388517 281.902356 
L 343.081722 281.902356 
L 346.774927 281.902356 
L 350.468131 281.902356 
L 354.161336 281.902356 
L 357.854541 281.902356 
L 361.547746 281.902356 
L 365.24095 281.902356 
L 368.934155 281.902356 
L 372.62736 281.902356 
L 376.320565 281.902356 
L 380.01377 281.902356 
L 383.706974 281.902356 
L 387.400179 281.902356 
L 391.093384 281.902356 
L 394.786589 281.902356 
L 398.479793 281.902356 
L 402.172998 281.902356 
L 405.866203 281.902356 
L 409.559408 281.902356 
L 413.252612 281.902356 
L 416.945817 281.902356 
L 420.639022 281.902356 
L 424.332227 281.902356 
L 428.025432 281.902356 
L 431.718636 281.902356 
" clip-path="url(#pabd7e8766d)" style="fill: none; stroke: #ff0000; stroke-opacity: 0.5; stroke-width: 0.25; stroke-linecap: square"/>
    <defs>
     <path id="m477f6f3107" d="M -0.49999 0.49999 
L 0.50001 0.49999 
L 0.50001 -0.50001 
L -0.49999 -0.50001 
z
"/>
    </defs>
    <g clip-path="url(#pabd7e8766d)">
     <use xlink:href="#m477f6f3107" x="66.091364" y="281.902356" style="fill: #ff0000; fill-opacity: 0.5"/>
     <use xlink:href="#m477f6f3107" x="69.784568" y="281.902356" style="fill: #ff0000; fill-opacity: 0.5"/>
     <use xlink:href="#m477f6f3107" x="73.477773" y="281.902356" style="fill: #ff0000; fill-opacity: 0.5"/>
     <use xlink:href="#m477f6f3107" x="77.170978" y="281.902356" style="fill: #ff0000; fill-opacity: 0.5"/>
     <use xlink:href="#m477f6f3107" x="80.864183" y="281.902356" style="fill: #ff0000; fill-opacity: 0.5"/>
     <use xlink:href="#m477f6f3107" x="84.557388" y="281.902356" style="fill: #ff0000; fill-opacity: 0.5"/>
     <use xlink:href="#m477f6f3107" x="88.250592" y="281.902356" style="fill: #ff0000; fill-opacity: 0.5"/>
     <use xlink:href="#m477f6f3107" x="91.943797" y="281.902356" style="fill: #ff0000; fill-opacity: 0.5"/>
     <use xlink:href="#m477f6f3107" x="95.637002" y="281.902356" style="fill: #ff0000; fill-opacity: 0.5"/>
     <use xlink:href="#m477f6f3107" x="99.330207" y="281.902356" style="fill: #ff0000; fill-opacity: 0.5"/>
     <use xlink:href="#m477f6f3107" x="103.023411" y="281.902356" style="fill: #ff0000; fill-opacity: 0.5"/>
     <use xlink:href="#m477f6f3107" x="106.716616" y="281.902356" style="fill: #ff0000; fill-opacity: 0.5"/>
     <use xlink:href="#m477f6f3107" x="110.409821" y="281.902356" style="fill: #ff0000; fill-opacity: 0.5"/>
     <use xlink:href="#m477f6f3107" x="114.103026" y="281.902356" style="fill: #ff0000; fill-opacity: 0.5"/>
     <use xlink:href="#m477f6f3107" x="117.79623" y="281.902356" style="fill: #ff0000; fill-opacity: 0.5"/>
     <use xlink:href="#m477f6f3107" x="121.489435" y="281.902356" style="fill: #ff0000; fill-opacity: 0.5"/>
     <use xlink:href="#m477f6f3107" x="125.18264" y="281.902356" style="fill: #ff0000; fill-opacity: 0.5"/>
     <use xlink:href="#m477f6f3107" x="128.875845" y="281.902356" style="fill: #ff0000; fill-opacity: 0.5"/>
     <use xlink:href="#m477f6f3107" x="132.56905" y="281.902356" style="fill: #ff0000; fill-opacity: 0.5"/>
     <use xlink:href="#m477f6f3107" x="136.262254" y="281.902356" style="fill: #ff0000; fill-opacity: 0.5"/>
     <use xlink:href="#m477f6f3107" x="139.955459" y="281.902356" style="fill: #ff0000; fill-opacity: 0.5"/>
     <use xlink:href="#m477f6f3107" x="143.648664" y="281.902356" style="fill: #ff0000; fill-opacity: 0.5"/>
     <use xlink:href="#m477f6f3107" x="147.341869" y="281.902356" style="fill: #ff0000; fill-opacity: 0.5"/>
     <use xlink:href="#m477f6f3107" x="151.035073" y="281.902356" style="fill: #ff0000; fill-opacity: 0.5"/>
     <use xlink:href="#m477f6f3107" x="154.728278" y="281.902356" style="fill: #ff0000; fill-opacity: 0.5"/>
     <use xlink:href="#m477f6f3107" x="158.421483" y="281.902356" style="fill: #ff0000; fill-opacity: 0.5"/>
     <use xlink:href="#m477f6f3107" x="162.114688" y="281.902356" style="fill: #ff0000; fill-opacity: 0.5"/>
     <use xlink:href="#m477f6f3107" x="165.807893" y="281.902356" style="fill: #ff0000; fill-opacity: 0.5"/>
     <use xlink:href="#m477f6f3107" x="169.501097" y="281.902356" style="fill: #ff0000; fill-opacity: 0.5"/>
     <use xlink:href="#m477f6f3107" x="173.194302" y="281.902356" style="fill: #ff0000; fill-opacity: 0.5"/>
     <use xlink:href="#m477f6f3107" x="176.887507" y="281.902356" style="fill: #ff0000; fill-opacity: 0.5"/>
     <use xlink:href="#m477f6f3107" x="180.580712" y="281.902356" style="fill: #ff0000; fill-opacity: 0.5"/>
     <use xlink:href="#m477f6f3107" x="184.273916" y="281.902356" style="fill: #ff0000; fill-opacity: 0.5"/>
     <use xlink:href="#m477f6f3107" x="187.967121" y="281.902356" style="fill: #ff0000; fill-opacity: 0.5"/>
     <use xlink:href="#m477f6f3107" x="191.660326" y="281.902356" style="fill: #ff0000; fill-opacity: 0.5"/>
     <use xlink:href="#m477f6f3107" x="195.353531" y="281.902356" style="fill: #ff0000; fill-opacity: 0.5"/>
     <use xlink:href="#m477f6f3107" x="199.046736" y="281.902356" style="fill: #ff0000; fill-opacity: 0.5"/>
     <use xlink:href="#m477f6f3107" x="202.73994" y="281.902356" style="fill: #ff0000; fill-opacity: 0.5"/>
     <use xlink:href="#m477f6f3107" x="206.433145" y="281.902356" style="fill: #ff0000; fill-opacity: 0.5"/>
     <use xlink:href="#m477f6f3107" x="210.12635" y="281.902356" style="fill: #ff0000; fill-opacity: 0.5"/>
     <use xlink:href="#m477f6f3107" x="213.819555" y="281.902356" style="fill: #ff0000; fill-opacity: 0.5"/>
     <use xlink:href="#m477f6f3107" x="217.512759" y="281.902356" style="fill: #ff0000; fill-opacity: 0.5"/>
     <use xlink:href="#m477f6f3107" x="221.205964" y="281.902356" style="fill: #ff0000; fill-opacity: 0.5"/>
     <use xlink:href="#m477f6f3107" x="224.899169" y="281.902356" style="fill: #ff0000; fill-opacity: 0.5"/>
     <use xlink:href="#m477f6f3107" x="228.592374" y="281.902356" style="fill: #ff0000; fill-opacity: 0.5"/>
     <use xlink:href="#m477f6f3107" x="232.285579" y="281.902356" style="fill: #ff0000; fill-opacity: 0.5"/>
     <use xlink:href="#m477f6f3107" x="235.978783" y="281.902356" style="fill: #ff0000; fill-opacity: 0.5"/>
     <use xlink:href="#m477f6f3107" x="239.671988" y="281.902356" style="fill: #ff0000; fill-opacity: 0.5"/>
     <use xlink:href="#m477f6f3107" x="243.365193" y="281.902356" style="fill: #ff0000; fill-opacity: 0.5"/>
     <use xlink:href="#m477f6f3107" x="247.058398" y="281.902356" style="fill: #ff0000; fill-opacity: 0.5"/>
     <use xlink:href="#m477f6f3107" x="250.751602" y="281.902356" style="fill: #ff0000; fill-opacity: 0.5"/>
     <use xlink:href="#m477f6f3107" x="254.444807" y="281.902356" style="fill: #ff0000; fill-opacity: 0.5"/>
     <use xlink:href="#m477f6f3107" x="258.138012" y="281.902356" style="fill: #ff0000; fill-opacity: 0.5"/>
     <use xlink:href="#m477f6f3107" x="261.831217" y="281.902356" style="fill: #ff0000; fill-opacity: 0.5"/>
     <use xlink:href="#m477f6f3107" x="265.524421" y="281.902356" style="fill: #ff0000; fill-opacity: 0.5"/>
     <use xlink:href="#m477f6f3107" x="269.217626" y="281.902356" style="fill: #ff0000; fill-opacity: 0.5"/>
     <use xlink:href="#m477f6f3107" x="272.910831" y="281.902356" style="fill: #ff0000; fill-opacity: 0.5"/>
     <use xlink:href="#m477f6f3107" x="276.604036" y="281.902356" style="fill: #ff0000; fill-opacity: 0.5"/>
     <use xlink:href="#m477f6f3107" x="280.297241" y="281.902356" style="fill: #ff0000; fill-opacity: 0.5"/>
     <use xlink:href="#m477f6f3107" x="283.990445" y="281.902356" style="fill: #ff0000; fill-opacity: 0.5"/>
     <use xlink:href="#m477f6f3107" x="287.68365" y="281.902356" style="fill: #ff0000; fill-opacity: 0.5"/>
     <use xlink:href="#m477f6f3107" x="291.376855" y="281.902356" style="fill: #ff0000; fill-opacity: 0.5"/>
     <use xlink:href="#m477f6f3107" x="295.07006" y="281.902356" style="fill: #ff0000; fill-opacity: 0.5"/>
     <use xlink:href="#m477f6f3107" x="298.763264" y="281.902356" style="fill: #ff0000; fill-opacity: 0.5"/>
     <use xlink:href="#m477f6f3107" x="302.456469" y="281.902356" style="fill: #ff0000; fill-opacity: 0.5"/>
     <use xlink:href="#m477f6f3107" x="306.149674" y="281.902356" style="fill: #ff0000; fill-opacity: 0.5"/>
     <use xlink:href="#m477f6f3107" x="309.842879" y="281.902356" style="fill: #ff0000; fill-opacity: 0.5"/>
     <use xlink:href="#m477f6f3107" x="313.536084" y="281.902356" style="fill: #ff0000; fill-opacity: 0.5"/>
     <use xlink:href="#m477f6f3107" x="317.229288" y="281.902356" style="fill: #ff0000; fill-opacity: 0.5"/>
     <use xlink:href="#m477f6f3107" x="320.922493" y="281.902356" style="fill: #ff0000; fill-opacity: 0.5"/>
     <use xlink:href="#m477f6f3107" x="324.615698" y="281.902356" style="fill: #ff0000; fill-opacity: 0.5"/>
     <use xlink:href="#m477f6f3107" x="328.308903" y="281.902356" style="fill: #ff0000; fill-opacity: 0.5"/>
     <use xlink:href="#m477f6f3107" x="332.002107" y="281.902356" style="fill: #ff0000; fill-opacity: 0.5"/>
     <use xlink:href="#m477f6f3107" x="335.695312" y="281.902356" style="fill: #ff0000; fill-opacity: 0.5"/>
     <use xlink:href="#m477f6f3107" x="339.388517" y="281.902356" style="fill: #ff0000; fill-opacity: 0.5"/>
     <use xlink:href="#m477f6f3107" x="343.081722" y="281.902356" style="fill: #ff0000; fill-opacity: 0.5"/>
     <use xlink:href="#m477f6f3107" x="346.774927" y="281.902356" style="fill: #ff0000; fill-opacity: 0.5"/>
     <use xlink:href="#m477f6f3107" x="350.468131" y="281.902356" style="fill: #ff0000; fill-opacity: 0.5"/>
     <use xlink:href="#m477f6f3107" x="354.161336" y="281.902356" style="fill: #ff0000; fill-opacity: 0.5"/>
     <use xlink:href="#m477f6f3107" x="357.854541" y="281.902356" style="fill: #ff0000; fill-opacity: 0.5"/>
     <use xlink:href="#m477f6f3107" x="361.547746" y="281.902356" style="fill: #ff0000; fill-opacity: 0.5"/>
     <use xlink:href="#m477f6f3107" x="365.24095" y="281.902356" style="fill: #ff0000; fill-opacity: 0.5"/>
     <use xlink:href="#m477f6f3107" x="368.934155" y="281.902356" style="fill: #ff0000; fill-opacity: 0.5"/>
     <use xlink:href="#m477f6f3107" x="372.62736" y="281.902356" style="fill: #ff0000; fill-opacity: 0.5"/>
     <use xlink:href="#m477f6f3107" x="376.320565" y="281.902356" style="fill: #ff0000; fill-opacity: 0.5"/>
     <use xlink:href="#m477f6f3107" x="380.01377" y="281.902356" style="fill: #ff0000; fill-opacity: 0.5"/>
     <use xlink:href="#m477f6f3107" x="383.706974" y="281.902356" style="fill: #ff0000; fill-opacity: 0.5"/>
     <use xlink:href="#m477f6f3107" x="387.400179" y="281.902356" style="fill: #ff0000; fill-opacity: 0.5"/>
     <use xlink:href="#m477f6f3107" x="391.093384" y="281.902356" style="fill: #ff0000; fill-opacity: 0.5"/>
     <use xlink:href="#m477f6f3107" x="394.786589" y="281.902356" style="fill: #ff0000; fill-opacity: 0.5"/>
     <use xlink:href="#m477f6f3107" x="398.479793" y="281.902356" style="fill: #ff0000; fill-opacity: 0.5"/>
     <use xlink:href="#m477f6f3107" x="402.172998" y="281.902356" style="fill: #ff0000; fill-opacity: 0.5"/>
     <use xlink:href="#m477f6f3107" x="405.866203" y="281.902356" style="fill: #ff0000; fill-opacity: 0.5"/>
     <use xlink:href="#m477f6f3107" x="409.559408" y="281.902356" style="fill: #ff0000; fill-opacity: 0.5"/>
     <use xlink:href="#m477f6f3107" x="413.252612" y="281.902356" style="fill: #ff0000; fill-opacity: 0.5"/>
     <use xlink:href="#m477f6f3107" x="416.945817" y="281.902356" style="fill: #ff0000; fill-opacity: 0.5"/>
     <use xlink:href="#m477f6f3107" x="420.639022" y="281.902356" style="fill: #ff0000; fill-opacity: 0.5"/>
     <use xlink:href="#m477f6f3107" x="424.332227" y="281.902356" style="fill: #ff0000; fill-opacity: 0.5"/>
     <use xlink:href="#m477f6f3107" x="428.025432" y="281.902356" style="fill: #ff0000; fill-opacity: 0.5"/>
     <use xlink:href="#m477f6f3107" x="431.718636" y="281.902356" style="fill: #ff0000; fill-opacity: 0.5"/>
    </g>
   </g>
   <g id="patch_3">
    <path d="M 47.81 303.64 
L 47.81 25.44 
" style="fill: none; stroke: #000000; stroke-width: 0.8; stroke-linejoin: miter; stroke-linecap: square"/>
   </g>
   <g id="patch_4">
    <path d="M 450 303.64 
L 450 25.44 
" style="fill: none; stroke: #000000; stroke-width: 0.8; stroke-linejoin: miter; stroke-linecap: square"/>
   </g>
   <g id="patch_5">
    <path d="M 47.81 303.64 
L 450 303.64 
" style="fill: none; stroke: #000000; stroke-width: 0.8; stroke-linejoin: miter; stroke-linecap: square"/>
   </g>
   <g id="patch_6">
    <path d="M 47.81 25.44 
L 450 25.44 
" style="fill: none; stroke: #000000; stroke-width: 0.8; stroke-linejoin: miter; stroke-linecap: square"/>
   </g>
   <g id="text_16">
    <!-- Average action - 20240417175215 - 50 games -->
    <g transform="translate(108.798438 19.44) scale(0.12 -0.12)">
     <defs>
      <path id="DejaVuSans-2d" d="M 313 2009 
L 1997 2009 
L 1997 1497 
L 313 1497 
L 313 2009 
z
" transform="scale(0.015625)"/>
      <path id="DejaVuSans-37" d="M 525 4666 
L 3525 4666 
L 3525 4397 
L 1831 0 
L 1172 0 
L 2766 4134 
L 525 4134 
L 525 4666 
z
" transform="scale(0.015625)"/>
      <path id="DejaVuSans-35" d="M 691 4666 
L 3169 4666 
L 3169 4134 
L 1269 4134 
L 1269 2991 
Q 1406 3038 1543 3061 
Q 1681 3084 1819 3084 
Q 2600 3084 3056 2656 
Q 3513 2228 3513 1497 
Q 3513 744 3044 326 
Q 2575 -91 1722 -91 
Q 1428 -91 1123 -41 
Q 819 9 494 109 
L 494 744 
Q 775 591 1075 516 
Q 1375 441 1709 441 
Q 2250 441 2565 725 
Q 2881 1009 2881 1497 
Q 2881 1984 2565 2268 
Q 2250 2553 1709 2553 
Q 1456 2553 1204 2497 
Q 953 2441 691 2322 
L 691 4666 
z
" transform="scale(0.015625)"/>
      <path id="DejaVuSans-6d" d="M 3328 2828 
Q 3544 3216 3844 3400 
Q 4144 3584 4550 3584 
Q 5097 3584 5394 3201 
Q 5691 2819 5691 2113 
L 5691 0 
L 5113 0 
L 5113 2094 
Q 5113 2597 4934 2840 
Q 4756 3084 4391 3084 
Q 3944 3084 3684 2787 
Q 3425 2491 3425 1978 
L 3425 0 
L 2847 0 
L 2847 2094 
Q 2847 2600 2669 2842 
Q 2491 3084 2119 3084 
Q 1678 3084 1418 2786 
Q 1159 2488 1159 1978 
L 1159 0 
L 581 0 
L 581 3500 
L 1159 3500 
L 1159 2956 
Q 1356 3278 1631 3431 
Q 1906 3584 2284 3584 
Q 2666 3584 2933 3390 
Q 3200 3197 3328 2828 
z
" transform="scale(0.015625)"/>
      <path id="DejaVuSans-73" d="M 2834 3397 
L 2834 2853 
Q 2591 2978 2328 3040 
Q 2066 3103 1784 3103 
Q 1356 3103 1142 2972 
Q 928 2841 928 2578 
Q 928 2378 1081 2264 
Q 1234 2150 1697 2047 
L 1894 2003 
Q 2506 1872 2764 1633 
Q 3022 1394 3022 966 
Q 3022 478 2636 193 
Q 2250 -91 1575 -91 
Q 1294 -91 989 -36 
Q 684 19 347 128 
L 347 722 
Q 666 556 975 473 
Q 1284 391 1588 391 
Q 1994 391 2212 530 
Q 2431 669 2431 922 
Q 2431 1156 2273 1281 
Q 2116 1406 1581 1522 
L 1381 1569 
Q 847 1681 609 1914 
Q 372 2147 372 2553 
Q 372 3047 722 3315 
Q 1072 3584 1716 3584 
Q 2034 3584 2315 3537 
Q 2597 3491 2834 3397 
z
" transform="scale(0.015625)"/>
     </defs>
     <use xlink:href="#DejaVuSans-41"/>
     <use xlink:href="#DejaVuSans-76" x="62.533203"/>
     <use xlink:href="#DejaVuSans-65" x="121.712891"/>
     <use xlink:href="#DejaVuSans-72" x="183.236328"/>
     <use xlink:href="#DejaVuSans-61" x="224.349609"/>
     <use xlink:href="#DejaVuSans-67" x="285.628906"/>
     <use xlink:href="#DejaVuSans-65" x="349.105469"/>
     <use xlink:href="#DejaVuSans-20" x="410.628906"/>
     <use xlink:href="#DejaVuSans-61" x="442.416016"/>
     <use xlink:href="#DejaVuSans-63" x="503.695312"/>
     <use xlink:href="#DejaVuSans-74" x="558.675781"/>
     <use xlink:href="#DejaVuSans-69" x="597.884766"/>
     <use xlink:href="#DejaVuSans-6f" x="625.667969"/>
     <use xlink:href="#DejaVuSans-6e" x="686.849609"/>
     <use xlink:href="#DejaVuSans-20" x="750.228516"/>
     <use xlink:href="#DejaVuSans-2d" x="782.015625"/>
     <use xlink:href="#DejaVuSans-20" x="818.099609"/>
     <use xlink:href="#DejaVuSans-32" x="849.886719"/>
     <use xlink:href="#DejaVuSans-30" x="913.509766"/>
     <use xlink:href="#DejaVuSans-32" x="977.132812"/>
     <use xlink:href="#DejaVuSans-34" x="1040.755859"/>
     <use xlink:href="#DejaVuSans-30" x="1104.378906"/>
     <use xlink:href="#DejaVuSans-34" x="1168.001953"/>
     <use xlink:href="#DejaVuSans-31" x="1231.625"/>
     <use xlink:href="#DejaVuSans-37" x="1295.248047"/>
     <use xlink:href="#DejaVuSans-31" x="1358.871094"/>
     <use xlink:href="#DejaVuSans-37" x="1422.494141"/>
     <use xlink:href="#DejaVuSans-35" x="1486.117188"/>
     <use xlink:href="#DejaVuSans-32" x="1549.740234"/>
     <use xlink:href="#DejaVuSans-31" x="1613.363281"/>
     <use xlink:href="#DejaVuSans-35" x="1676.986328"/>
     <use xlink:href="#DejaVuSans-20" x="1740.609375"/>
     <use xlink:href="#DejaVuSans-2d" x="1772.396484"/>
     <use xlink:href="#DejaVuSans-20" x="1808.480469"/>
     <use xlink:href="#DejaVuSans-35" x="1840.267578"/>
     <use xlink:href="#DejaVuSans-30" x="1903.890625"/>
     <use xlink:href="#DejaVuSans-20" x="1967.513672"/>
     <use xlink:href="#DejaVuSans-67" x="1999.300781"/>
     <use xlink:href="#DejaVuSans-61" x="2062.777344"/>
     <use xlink:href="#DejaVuSans-6d" x="2124.056641"/>
     <use xlink:href="#DejaVuSans-65" x="2221.46875"/>
     <use xlink:href="#DejaVuSans-73" x="2282.992188"/>
    </g>
   </g>
   <g id="legend_1">
    <g id="patch_7">
     <path d="M 334.942187 92.70875 
L 443 92.70875 
Q 445 92.70875 445 90.70875 
L 445 32.44 
Q 445 30.44 443 30.44 
L 334.942187 30.44 
Q 332.942187 30.44 332.942187 32.44 
L 332.942187 90.70875 
Q 332.942187 92.70875 334.942187 92.70875 
z
" style="fill: #ffffff; opacity: 0.8; stroke: #cccccc; stroke-linejoin: miter"/>
    </g>
    <g id="line2d_21">
     <path d="M 336.942187 38.538438 
L 346.942187 38.538438 
L 356.942187 38.538438 
" style="fill: none; stroke: #0000ff; stroke-linecap: square"/>
     <g>
      <use xlink:href="#m1884f91db8" x="346.942187" y="38.538438" style="fill: #0000ff"/>
     </g>
    </g>
    <g id="text_17">
     <!-- LLM -->
     <g transform="translate(364.942187 42.038438) scale(0.1 -0.1)">
      <defs>
       <path id="DejaVuSans-4c" d="M 628 4666 
L 1259 4666 
L 1259 531 
L 3531 531 
L 3531 0 
L 628 0 
L 628 4666 
z
" transform="scale(0.015625)"/>
       <path id="DejaVuSans-4d" d="M 628 4666 
L 1569 4666 
L 2759 1491 
L 3956 4666 
L 4897 4666 
L 4897 0 
L 4281 0 
L 4281 4097 
L 3078 897 
L 2444 897 
L 1241 4097 
L 1241 0 
L 628 0 
L 628 4666 
z
" transform="scale(0.015625)"/>
      </defs>
      <use xlink:href="#DejaVuSans-4c"/>
      <use xlink:href="#DejaVuSans-4c" x="55.712891"/>
      <use xlink:href="#DejaVuSans-4d" x="111.425781"/>
     </g>
    </g>
    <g id="line2d_22">
     <path d="M 336.942187 53.216563 
L 346.942187 53.216563 
L 356.942187 53.216563 
" style="fill: none; stroke: #0000ff; stroke-opacity: 0.5; stroke-width: 0.5; stroke-linecap: square"/>
     <g>
      <use xlink:href="#m1f481fcacc" x="346.942187" y="53.216563" style="fill: #0000ff; fill-opacity: 0.5"/>
     </g>
    </g>
    <g id="text_18">
     <!-- LLM mean -->
     <g transform="translate(364.942187 56.716563) scale(0.1 -0.1)">
      <use xlink:href="#DejaVuSans-4c"/>
      <use xlink:href="#DejaVuSans-4c" x="55.712891"/>
      <use xlink:href="#DejaVuSans-4d" x="111.425781"/>
      <use xlink:href="#DejaVuSans-20" x="197.705078"/>
      <use xlink:href="#DejaVuSans-6d" x="229.492188"/>
      <use xlink:href="#DejaVuSans-65" x="326.904297"/>
      <use xlink:href="#DejaVuSans-61" x="388.427734"/>
      <use xlink:href="#DejaVuSans-6e" x="449.707031"/>
     </g>
    </g>
    <g id="line2d_23">
     <path d="M 336.942187 67.894688 
L 346.942187 67.894688 
L 356.942187 67.894688 
" style="fill: none; stroke: #ff0000; stroke-width: 0.5; stroke-linecap: square"/>
     <g>
      <use xlink:href="#mf2cc260351" x="346.942187" y="67.894688" style="fill: #ff0000"/>
     </g>
    </g>
    <g id="text_19">
     <!-- DEF_sw4 -->
     <g transform="translate(364.942187 71.394688) scale(0.1 -0.1)">
      <defs>
       <path id="DejaVuSans-44" d="M 1259 4147 
L 1259 519 
L 2022 519 
Q 2988 519 3436 956 
Q 3884 1394 3884 2338 
Q 3884 3275 3436 3711 
Q 2988 4147 2022 4147 
L 1259 4147 
z
M 628 4666 
L 1925 4666 
Q 3281 4666 3915 4102 
Q 4550 3538 4550 2338 
Q 4550 1131 3912 565 
Q 3275 0 1925 0 
L 628 0 
L 628 4666 
z
" transform="scale(0.015625)"/>
       <path id="DejaVuSans-45" d="M 628 4666 
L 3578 4666 
L 3578 4134 
L 1259 4134 
L 1259 2753 
L 3481 2753 
L 3481 2222 
L 1259 2222 
L 1259 531 
L 3634 531 
L 3634 0 
L 628 0 
L 628 4666 
z
" transform="scale(0.015625)"/>
       <path id="DejaVuSans-46" d="M 628 4666 
L 3309 4666 
L 3309 4134 
L 1259 4134 
L 1259 2759 
L 3109 2759 
L 3109 2228 
L 1259 2228 
L 1259 0 
L 628 0 
L 628 4666 
z
" transform="scale(0.015625)"/>
       <path id="DejaVuSans-5f" d="M 3263 -1063 
L 3263 -1509 
L -63 -1509 
L -63 -1063 
L 3263 -1063 
z
" transform="scale(0.015625)"/>
       <path id="DejaVuSans-77" d="M 269 3500 
L 844 3500 
L 1563 769 
L 2278 3500 
L 2956 3500 
L 3675 769 
L 4391 3500 
L 4966 3500 
L 4050 0 
L 3372 0 
L 2619 2869 
L 1863 0 
L 1184 0 
L 269 3500 
z
" transform="scale(0.015625)"/>
      </defs>
      <use xlink:href="#DejaVuSans-44"/>
      <use xlink:href="#DejaVuSans-45" x="77.001953"/>
      <use xlink:href="#DejaVuSans-46" x="140.185547"/>
      <use xlink:href="#DejaVuSans-5f" x="197.705078"/>
      <use xlink:href="#DejaVuSans-73" x="247.705078"/>
      <use xlink:href="#DejaVuSans-77" x="299.804688"/>
      <use xlink:href="#DejaVuSans-34" x="381.591797"/>
     </g>
    </g>
    <g id="line2d_24">
     <path d="M 336.942187 82.850938 
L 346.942187 82.850938 
L 356.942187 82.850938 
" style="fill: none; stroke: #ff0000; stroke-opacity: 0.5; stroke-width: 0.25; stroke-linecap: square"/>
     <g>
      <use xlink:href="#m477f6f3107" x="346.942187" y="82.850938" style="fill: #ff0000; fill-opacity: 0.5"/>
     </g>
    </g>
    <g id="text_20">
     <!-- DEF_sw4 mean -->
     <g transform="translate(364.942187 86.350938) scale(0.1 -0.1)">
      <use xlink:href="#DejaVuSans-44"/>
      <use xlink:href="#DejaVuSans-45" x="77.001953"/>
      <use xlink:href="#DejaVuSans-46" x="140.185547"/>
      <use xlink:href="#DejaVuSans-5f" x="197.705078"/>
      <use xlink:href="#DejaVuSans-73" x="247.705078"/>
      <use xlink:href="#DejaVuSans-77" x="299.804688"/>
      <use xlink:href="#DejaVuSans-34" x="381.591797"/>
      <use xlink:href="#DejaVuSans-20" x="445.214844"/>
      <use xlink:href="#DejaVuSans-6d" x="477.001953"/>
      <use xlink:href="#DejaVuSans-65" x="574.414062"/>
      <use xlink:href="#DejaVuSans-61" x="635.9375"/>
      <use xlink:href="#DejaVuSans-6e" x="697.216797"/>
     </g>
    </g>
   </g>
  </g>
 </g>
 <defs>
  <clipPath id="pabd7e8766d">
   <rect x="47.81" y="25.44" width="402.19" height="278.2"/>
  </clipPath>
 </defs>
</svg>
