<?xml version="1.0" encoding="utf-8" standalone="no"?>
<!DOCTYPE svg PUBLIC "-//W3C//DTD SVG 1.1//EN"
  "http://www.w3.org/Graphics/SVG/1.1/DTD/svg11.dtd">
<svg xmlns:xlink="http://www.w3.org/1999/xlink" width="460.8pt" height="345.6pt" viewBox="0 0 460.8 345.6" xmlns="http://www.w3.org/2000/svg" version="1.1">
 <metadata>
  <rdf:RDF xmlns:dc="http://purl.org/dc/elements/1.1/" xmlns:cc="http://creativecommons.org/ns#" xmlns:rdf="http://www.w3.org/1999/02/22-rdf-syntax-ns#">
   <cc:Work>
    <dc:type rdf:resource="http://purl.org/dc/dcmitype/StillImage"/>
    <dc:date>2024-04-29T10:00:41.416589</dc:date>
    <dc:format>image/svg+xml</dc:format>
    <dc:creator>
     <cc:Agent>
      <dc:title>Matplotlib v3.8.0, https://matplotlib.org/</dc:title>
     </cc:Agent>
    </dc:creator>
   </cc:Work>
  </rdf:RDF>
 </metadata>
 <defs>
  <style type="text/css">*{stroke-linejoin: round; stroke-linecap: butt}</style>
 </defs>
 <g id="figure_1">
  <g id="patch_1">
   <path d="M 0 345.6 
L 460.8 345.6 
L 460.8 0 
L 0 0 
z
" style="fill: #ffffff"/>
  </g>
  <g id="axes_1">
   <g id="patch_2">
    <path d="M 47.81 303.64 
L 450 303.64 
L 450 25.44 
L 47.81 25.44 
z
" style="fill: #ffffff"/>
   </g>
   <g id="PolyCollection_1">
    <defs>
     <path id="md0542028b1" d="M 66.091364 -292.34 
L 66.091364 -292.34 
L 69.822254 -298.363607 
L 73.553145 -289.799787 
L 77.284035 -284.09083 
L 81.014926 -279.906487 
L 84.745816 -276.468038 
L 88.476707 -273.630562 
L 92.207597 -271.143998 
L 95.938488 -268.916782 
L 99.669378 -266.946351 
L 103.400269 -265.123864 
L 107.13116 -263.444896 
L 110.86205 -261.891706 
L 114.592941 -260.392636 
L 118.323831 -258.949555 
L 122.054722 -257.539927 
L 125.785612 -256.186086 
L 129.516503 -254.88975 
L 133.247393 -253.647877 
L 136.978284 -252.461736 
L 140.709174 -251.325808 
L 144.440065 -250.241855 
L 148.170955 -249.198785 
L 151.901846 -248.195444 
L 155.632737 -247.229381 
L 159.363627 -246.291567 
L 163.094518 -245.386165 
L 166.825408 -244.513225 
L 170.556299 -243.667739 
L 174.287189 -242.847588 
L 178.01808 -242.0538 
L 181.74897 -241.284872 
L 185.479861 -240.538513 
L 189.210751 -239.814393 
L 192.941642 -239.111777 
L 196.672532 -238.429227 
L 200.403423 -237.765449 
L 204.134314 -237.119198 
L 207.865204 -236.490343 
L 211.596095 -235.878425 
L 215.326985 -235.282391 
L 219.057876 -234.701818 
L 222.788766 -234.13645 
L 226.519657 -233.585809 
L 230.250547 -233.048537 
L 233.981438 -232.524006 
L 237.712328 -232.011816 
L 241.443219 -231.511447 
L 245.174109 -231.021996 
L 248.905 -230.542624 
L 252.635891 -230.073759 
L 256.366781 -229.614619 
L 260.097672 -229.164598 
L 263.828562 -228.723651 
L 267.559453 -228.291477 
L 271.290343 -227.867627 
L 275.021234 -227.451898 
L 278.752124 -227.044423 
L 282.483015 -226.644553 
L 286.213905 -226.252343 
L 289.944796 -225.867675 
L 293.675686 -225.489747 
L 297.406577 -225.11839 
L 301.137468 -224.753445 
L 304.868358 -224.395003 
L 308.599249 -224.042655 
L 312.330139 -223.696461 
L 316.06103 -223.356405 
L 319.79192 -223.021823 
L 323.522811 -222.69249 
L 327.253701 -222.368422 
L 330.984592 -222.049589 
L 334.715482 -221.735736 
L 338.446373 -221.426904 
L 342.177263 -221.123157 
L 345.908154 -220.824597 
L 349.639045 -220.529981 
L 353.369935 -220.239504 
L 357.100826 -219.953329 
L 360.831716 -219.67124 
L 364.562607 -219.393519 
L 368.293497 -219.119578 
L 372.024388 -218.849534 
L 375.755278 -218.583406 
L 379.486169 -218.321108 
L 383.217059 -218.062286 
L 386.94795 -217.806601 
L 390.67884 -217.554174 
L 394.409731 -217.305263 
L 398.140622 -217.059509 
L 401.871512 -216.817076 
L 405.602403 -216.578098 
L 409.333293 -216.342475 
L 413.064184 -216.109998 
L 416.795074 -215.880347 
L 420.525965 -215.653761 
L 424.256855 -215.429634 
L 427.987746 -215.208247 
L 431.718636 -214.989733 
L 431.718636 -171.257982 
L 431.718636 -171.257982 
L 427.987746 -171.398804 
L 424.256855 -171.543731 
L 420.525965 -171.690933 
L 416.795074 -171.836913 
L 413.064184 -171.987194 
L 409.333293 -172.138769 
L 405.602403 -172.294322 
L 401.871512 -172.455662 
L 398.140622 -172.623625 
L 394.409731 -172.796184 
L 390.67884 -172.970514 
L 386.94795 -173.150288 
L 383.217059 -173.331322 
L 379.486169 -173.511001 
L 375.755278 -173.69239 
L 372.024388 -173.87882 
L 368.293497 -174.07049 
L 364.562607 -174.266185 
L 360.831716 -174.46311 
L 357.100826 -174.667901 
L 353.369935 -174.87557 
L 349.639045 -175.087713 
L 345.908154 -175.300411 
L 342.177263 -175.509383 
L 338.446373 -175.729438 
L 334.715482 -175.95861 
L 330.984592 -176.194663 
L 327.253701 -176.435084 
L 323.522811 -176.681883 
L 319.79192 -176.933311 
L 316.06103 -177.186391 
L 312.330139 -177.442014 
L 308.599249 -177.708742 
L 304.868358 -177.984973 
L 301.137468 -178.266537 
L 297.406577 -178.558325 
L 293.675686 -178.854648 
L 289.944796 -179.154211 
L 286.213905 -179.455552 
L 282.483015 -179.770685 
L 278.752124 -180.099051 
L 275.021234 -180.434031 
L 271.290343 -180.788011 
L 267.559453 -181.151142 
L 263.828562 -181.520377 
L 260.097672 -181.90083 
L 256.366781 -182.292959 
L 252.635891 -182.684164 
L 248.905 -183.081271 
L 245.174109 -183.500221 
L 241.443219 -183.90893 
L 237.712328 -184.318402 
L 233.981438 -184.739038 
L 230.250547 -185.171116 
L 226.519657 -185.609943 
L 222.788766 -186.055137 
L 219.057876 -186.527931 
L 215.326985 -187.033635 
L 211.596095 -187.566222 
L 207.865204 -188.108458 
L 204.134314 -188.680082 
L 200.403423 -189.305197 
L 196.672532 -189.974722 
L 192.941642 -190.656094 
L 189.210751 -191.343791 
L 185.479861 -192.031002 
L 181.74897 -192.777278 
L 178.01808 -193.584615 
L 174.287189 -194.409288 
L 170.556299 -195.261451 
L 166.825408 -196.20607 
L 163.094518 -197.207153 
L 159.363627 -198.20799 
L 155.632737 -199.265794 
L 151.901846 -200.466515 
L 148.170955 -201.695585 
L 144.440065 -202.968332 
L 140.709174 -204.316977 
L 136.978284 -205.653266 
L 133.247393 -207.08358 
L 129.516503 -208.59876 
L 125.785612 -210.273346 
L 122.054722 -212.11199 
L 118.323831 -214.161823 
L 114.592941 -216.576065 
L 110.86205 -219.186836 
L 107.13116 -222.034737 
L 103.400269 -224.787719 
L 99.669378 -227.513348 
L 95.938488 -230.411976 
L 92.207597 -233.041662 
L 88.476707 -236.036946 
L 84.745816 -239.364487 
L 81.014926 -242.389271 
L 77.284035 -246.63523 
L 73.553145 -250.761627 
L 69.822254 -257.231848 
L 66.091364 -292.34 
z
" style="stroke: #ff0000; stroke-opacity: 0.2"/>
    </defs>
    <g clip-path="url(#pfddafe081c)">
     <use xlink:href="#md0542028b1" x="0" y="345.6" style="fill: #ff0000; fill-opacity: 0.2; stroke: #ff0000; stroke-opacity: 0.2"/>
    </g>
   </g>
   <g id="matplotlib.axis_1">
    <g id="xtick_1">
     <g id="line2d_1">
      <defs>
       <path id="m73f7b30d48" d="M 0 0 
L 0 3.5 
" style="stroke: #000000; stroke-width: 0.8"/>
      </defs>
      <g>
       <use xlink:href="#m73f7b30d48" x="66.091364" y="303.64" style="stroke: #000000; stroke-width: 0.8"/>
      </g>
     </g>
     <g id="text_1">
      <!-- 0 -->
      <g transform="translate(62.910114 318.238437) scale(0.1 -0.1)">
       <defs>
        <path id="DejaVuSans-30" d="M 2034 4250 
Q 1547 4250 1301 3770 
Q 1056 3291 1056 2328 
Q 1056 1369 1301 889 
Q 1547 409 2034 409 
Q 2525 409 2770 889 
Q 3016 1369 3016 2328 
Q 3016 3291 2770 3770 
Q 2525 4250 2034 4250 
z
M 2034 4750 
Q 2819 4750 3233 4129 
Q 3647 3509 3647 2328 
Q 3647 1150 3233 529 
Q 2819 -91 2034 -91 
Q 1250 -91 836 529 
Q 422 1150 422 2328 
Q 422 3509 836 4129 
Q 1250 4750 2034 4750 
z
" transform="scale(0.015625)"/>
       </defs>
       <use xlink:href="#DejaVuSans-30"/>
      </g>
     </g>
    </g>
    <g id="xtick_2">
     <g id="line2d_2">
      <g>
       <use xlink:href="#m73f7b30d48" x="140.709174" y="303.64" style="stroke: #000000; stroke-width: 0.8"/>
      </g>
     </g>
     <g id="text_2">
      <!-- 20 -->
      <g transform="translate(134.346674 318.238437) scale(0.1 -0.1)">
       <defs>
        <path id="DejaVuSans-32" d="M 1228 531 
L 3431 531 
L 3431 0 
L 469 0 
L 469 531 
Q 828 903 1448 1529 
Q 2069 2156 2228 2338 
Q 2531 2678 2651 2914 
Q 2772 3150 2772 3378 
Q 2772 3750 2511 3984 
Q 2250 4219 1831 4219 
Q 1534 4219 1204 4116 
Q 875 4013 500 3803 
L 500 4441 
Q 881 4594 1212 4672 
Q 1544 4750 1819 4750 
Q 2544 4750 2975 4387 
Q 3406 4025 3406 3419 
Q 3406 3131 3298 2873 
Q 3191 2616 2906 2266 
Q 2828 2175 2409 1742 
Q 1991 1309 1228 531 
z
" transform="scale(0.015625)"/>
       </defs>
       <use xlink:href="#DejaVuSans-32"/>
       <use xlink:href="#DejaVuSans-30" x="63.623047"/>
      </g>
     </g>
    </g>
    <g id="xtick_3">
     <g id="line2d_3">
      <g>
       <use xlink:href="#m73f7b30d48" x="215.326985" y="303.64" style="stroke: #000000; stroke-width: 0.8"/>
      </g>
     </g>
     <g id="text_3">
      <!-- 40 -->
      <g transform="translate(208.964485 318.238437) scale(0.1 -0.1)">
       <defs>
        <path id="DejaVuSans-34" d="M 2419 4116 
L 825 1625 
L 2419 1625 
L 2419 4116 
z
M 2253 4666 
L 3047 4666 
L 3047 1625 
L 3713 1625 
L 3713 1100 
L 3047 1100 
L 3047 0 
L 2419 0 
L 2419 1100 
L 313 1100 
L 313 1709 
L 2253 4666 
z
" transform="scale(0.015625)"/>
       </defs>
       <use xlink:href="#DejaVuSans-34"/>
       <use xlink:href="#DejaVuSans-30" x="63.623047"/>
      </g>
     </g>
    </g>
    <g id="xtick_4">
     <g id="line2d_4">
      <g>
       <use xlink:href="#m73f7b30d48" x="289.944796" y="303.64" style="stroke: #000000; stroke-width: 0.8"/>
      </g>
     </g>
     <g id="text_4">
      <!-- 60 -->
      <g transform="translate(283.582296 318.238437) scale(0.1 -0.1)">
       <defs>
        <path id="DejaVuSans-36" d="M 2113 2584 
Q 1688 2584 1439 2293 
Q 1191 2003 1191 1497 
Q 1191 994 1439 701 
Q 1688 409 2113 409 
Q 2538 409 2786 701 
Q 3034 994 3034 1497 
Q 3034 2003 2786 2293 
Q 2538 2584 2113 2584 
z
M 3366 4563 
L 3366 3988 
Q 3128 4100 2886 4159 
Q 2644 4219 2406 4219 
Q 1781 4219 1451 3797 
Q 1122 3375 1075 2522 
Q 1259 2794 1537 2939 
Q 1816 3084 2150 3084 
Q 2853 3084 3261 2657 
Q 3669 2231 3669 1497 
Q 3669 778 3244 343 
Q 2819 -91 2113 -91 
Q 1303 -91 875 529 
Q 447 1150 447 2328 
Q 447 3434 972 4092 
Q 1497 4750 2381 4750 
Q 2619 4750 2861 4703 
Q 3103 4656 3366 4563 
z
" transform="scale(0.015625)"/>
       </defs>
       <use xlink:href="#DejaVuSans-36"/>
       <use xlink:href="#DejaVuSans-30" x="63.623047"/>
      </g>
     </g>
    </g>
    <g id="xtick_5">
     <g id="line2d_5">
      <g>
       <use xlink:href="#m73f7b30d48" x="364.562607" y="303.64" style="stroke: #000000; stroke-width: 0.8"/>
      </g>
     </g>
     <g id="text_5">
      <!-- 80 -->
      <g transform="translate(358.200107 318.238437) scale(0.1 -0.1)">
       <defs>
        <path id="DejaVuSans-38" d="M 2034 2216 
Q 1584 2216 1326 1975 
Q 1069 1734 1069 1313 
Q 1069 891 1326 650 
Q 1584 409 2034 409 
Q 2484 409 2743 651 
Q 3003 894 3003 1313 
Q 3003 1734 2745 1975 
Q 2488 2216 2034 2216 
z
M 1403 2484 
Q 997 2584 770 2862 
Q 544 3141 544 3541 
Q 544 4100 942 4425 
Q 1341 4750 2034 4750 
Q 2731 4750 3128 4425 
Q 3525 4100 3525 3541 
Q 3525 3141 3298 2862 
Q 3072 2584 2669 2484 
Q 3125 2378 3379 2068 
Q 3634 1759 3634 1313 
Q 3634 634 3220 271 
Q 2806 -91 2034 -91 
Q 1263 -91 848 271 
Q 434 634 434 1313 
Q 434 1759 690 2068 
Q 947 2378 1403 2484 
z
M 1172 3481 
Q 1172 3119 1398 2916 
Q 1625 2713 2034 2713 
Q 2441 2713 2670 2916 
Q 2900 3119 2900 3481 
Q 2900 3844 2670 4047 
Q 2441 4250 2034 4250 
Q 1625 4250 1398 4047 
Q 1172 3844 1172 3481 
z
" transform="scale(0.015625)"/>
       </defs>
       <use xlink:href="#DejaVuSans-38"/>
       <use xlink:href="#DejaVuSans-30" x="63.623047"/>
      </g>
     </g>
    </g>
    <g id="xtick_6">
     <g id="line2d_6">
      <g>
       <use xlink:href="#m73f7b30d48" x="439.180417" y="303.64" style="stroke: #000000; stroke-width: 0.8"/>
      </g>
     </g>
     <g id="text_6">
      <!-- 100 -->
      <g transform="translate(429.636667 318.238437) scale(0.1 -0.1)">
       <defs>
        <path id="DejaVuSans-31" d="M 794 531 
L 1825 531 
L 1825 4091 
L 703 3866 
L 703 4441 
L 1819 4666 
L 2450 4666 
L 2450 531 
L 3481 531 
L 3481 0 
L 794 0 
L 794 531 
z
" transform="scale(0.015625)"/>
       </defs>
       <use xlink:href="#DejaVuSans-31"/>
       <use xlink:href="#DejaVuSans-30" x="63.623047"/>
       <use xlink:href="#DejaVuSans-30" x="127.246094"/>
      </g>
     </g>
    </g>
    <g id="text_7">
     <!-- Iteration -->
     <g transform="translate(227.696406 331.916562) scale(0.1 -0.1)">
      <defs>
       <path id="DejaVuSans-49" d="M 628 4666 
L 1259 4666 
L 1259 0 
L 628 0 
L 628 4666 
z
" transform="scale(0.015625)"/>
       <path id="DejaVuSans-74" d="M 1172 4494 
L 1172 3500 
L 2356 3500 
L 2356 3053 
L 1172 3053 
L 1172 1153 
Q 1172 725 1289 603 
Q 1406 481 1766 481 
L 2356 481 
L 2356 0 
L 1766 0 
Q 1100 0 847 248 
Q 594 497 594 1153 
L 594 3053 
L 172 3053 
L 172 3500 
L 594 3500 
L 594 4494 
L 1172 4494 
z
" transform="scale(0.015625)"/>
       <path id="DejaVuSans-65" d="M 3597 1894 
L 3597 1613 
L 953 1613 
Q 991 1019 1311 708 
Q 1631 397 2203 397 
Q 2534 397 2845 478 
Q 3156 559 3463 722 
L 3463 178 
Q 3153 47 2828 -22 
Q 2503 -91 2169 -91 
Q 1331 -91 842 396 
Q 353 884 353 1716 
Q 353 2575 817 3079 
Q 1281 3584 2069 3584 
Q 2775 3584 3186 3129 
Q 3597 2675 3597 1894 
z
M 3022 2063 
Q 3016 2534 2758 2815 
Q 2500 3097 2075 3097 
Q 1594 3097 1305 2825 
Q 1016 2553 972 2059 
L 3022 2063 
z
" transform="scale(0.015625)"/>
       <path id="DejaVuSans-72" d="M 2631 2963 
Q 2534 3019 2420 3045 
Q 2306 3072 2169 3072 
Q 1681 3072 1420 2755 
Q 1159 2438 1159 1844 
L 1159 0 
L 581 0 
L 581 3500 
L 1159 3500 
L 1159 2956 
Q 1341 3275 1631 3429 
Q 1922 3584 2338 3584 
Q 2397 3584 2469 3576 
Q 2541 3569 2628 3553 
L 2631 2963 
z
" transform="scale(0.015625)"/>
       <path id="DejaVuSans-61" d="M 2194 1759 
Q 1497 1759 1228 1600 
Q 959 1441 959 1056 
Q 959 750 1161 570 
Q 1363 391 1709 391 
Q 2188 391 2477 730 
Q 2766 1069 2766 1631 
L 2766 1759 
L 2194 1759 
z
M 3341 1997 
L 3341 0 
L 2766 0 
L 2766 531 
Q 2569 213 2275 61 
Q 1981 -91 1556 -91 
Q 1019 -91 701 211 
Q 384 513 384 1019 
Q 384 1609 779 1909 
Q 1175 2209 1959 2209 
L 2766 2209 
L 2766 2266 
Q 2766 2663 2505 2880 
Q 2244 3097 1772 3097 
Q 1472 3097 1187 3025 
Q 903 2953 641 2809 
L 641 3341 
Q 956 3463 1253 3523 
Q 1550 3584 1831 3584 
Q 2591 3584 2966 3190 
Q 3341 2797 3341 1997 
z
" transform="scale(0.015625)"/>
       <path id="DejaVuSans-69" d="M 603 3500 
L 1178 3500 
L 1178 0 
L 603 0 
L 603 3500 
z
M 603 4863 
L 1178 4863 
L 1178 4134 
L 603 4134 
L 603 4863 
z
" transform="scale(0.015625)"/>
       <path id="DejaVuSans-6f" d="M 1959 3097 
Q 1497 3097 1228 2736 
Q 959 2375 959 1747 
Q 959 1119 1226 758 
Q 1494 397 1959 397 
Q 2419 397 2687 759 
Q 2956 1122 2956 1747 
Q 2956 2369 2687 2733 
Q 2419 3097 1959 3097 
z
M 1959 3584 
Q 2709 3584 3137 3096 
Q 3566 2609 3566 1747 
Q 3566 888 3137 398 
Q 2709 -91 1959 -91 
Q 1206 -91 779 398 
Q 353 888 353 1747 
Q 353 2609 779 3096 
Q 1206 3584 1959 3584 
z
" transform="scale(0.015625)"/>
       <path id="DejaVuSans-6e" d="M 3513 2113 
L 3513 0 
L 2938 0 
L 2938 2094 
Q 2938 2591 2744 2837 
Q 2550 3084 2163 3084 
Q 1697 3084 1428 2787 
Q 1159 2491 1159 1978 
L 1159 0 
L 581 0 
L 581 3500 
L 1159 3500 
L 1159 2956 
Q 1366 3272 1645 3428 
Q 1925 3584 2291 3584 
Q 2894 3584 3203 3211 
Q 3513 2838 3513 2113 
z
" transform="scale(0.015625)"/>
      </defs>
      <use xlink:href="#DejaVuSans-49"/>
      <use xlink:href="#DejaVuSans-74" x="29.492188"/>
      <use xlink:href="#DejaVuSans-65" x="68.701172"/>
      <use xlink:href="#DejaVuSans-72" x="130.224609"/>
      <use xlink:href="#DejaVuSans-61" x="171.337891"/>
      <use xlink:href="#DejaVuSans-74" x="232.617188"/>
      <use xlink:href="#DejaVuSans-69" x="271.826172"/>
      <use xlink:href="#DejaVuSans-6f" x="299.609375"/>
      <use xlink:href="#DejaVuSans-6e" x="360.791016"/>
     </g>
    </g>
   </g>
   <g id="matplotlib.axis_2">
    <g id="ytick_1">
     <g id="line2d_7">
      <defs>
       <path id="m419efda177" d="M 0 0 
L -3.5 0 
" style="stroke: #000000; stroke-width: 0.8"/>
      </defs>
      <g>
       <use xlink:href="#m419efda177" x="47.81" y="290.994545" style="stroke: #000000; stroke-width: 0.8"/>
      </g>
     </g>
     <g id="text_8">
      <!-- 0.0 -->
      <g transform="translate(24.906875 294.793764) scale(0.1 -0.1)">
       <defs>
        <path id="DejaVuSans-2e" d="M 684 794 
L 1344 794 
L 1344 0 
L 684 0 
L 684 794 
z
" transform="scale(0.015625)"/>
       </defs>
       <use xlink:href="#DejaVuSans-30"/>
       <use xlink:href="#DejaVuSans-2e" x="63.623047"/>
       <use xlink:href="#DejaVuSans-30" x="95.410156"/>
      </g>
     </g>
    </g>
    <g id="ytick_2">
     <g id="line2d_8">
      <g>
       <use xlink:href="#m419efda177" x="47.81" y="240.412727" style="stroke: #000000; stroke-width: 0.8"/>
      </g>
     </g>
     <g id="text_9">
      <!-- 0.2 -->
      <g transform="translate(24.906875 244.211946) scale(0.1 -0.1)">
       <use xlink:href="#DejaVuSans-30"/>
       <use xlink:href="#DejaVuSans-2e" x="63.623047"/>
       <use xlink:href="#DejaVuSans-32" x="95.410156"/>
      </g>
     </g>
    </g>
    <g id="ytick_3">
     <g id="line2d_9">
      <g>
       <use xlink:href="#m419efda177" x="47.81" y="189.830909" style="stroke: #000000; stroke-width: 0.8"/>
      </g>
     </g>
     <g id="text_10">
      <!-- 0.4 -->
      <g transform="translate(24.906875 193.630128) scale(0.1 -0.1)">
       <use xlink:href="#DejaVuSans-30"/>
       <use xlink:href="#DejaVuSans-2e" x="63.623047"/>
       <use xlink:href="#DejaVuSans-34" x="95.410156"/>
      </g>
     </g>
    </g>
    <g id="ytick_4">
     <g id="line2d_10">
      <g>
       <use xlink:href="#m419efda177" x="47.81" y="139.249091" style="stroke: #000000; stroke-width: 0.8"/>
      </g>
     </g>
     <g id="text_11">
      <!-- 0.6 -->
      <g transform="translate(24.906875 143.04831) scale(0.1 -0.1)">
       <use xlink:href="#DejaVuSans-30"/>
       <use xlink:href="#DejaVuSans-2e" x="63.623047"/>
       <use xlink:href="#DejaVuSans-36" x="95.410156"/>
      </g>
     </g>
    </g>
    <g id="ytick_5">
     <g id="line2d_11">
      <g>
       <use xlink:href="#m419efda177" x="47.81" y="88.667273" style="stroke: #000000; stroke-width: 0.8"/>
      </g>
     </g>
     <g id="text_12">
      <!-- 0.8 -->
      <g transform="translate(24.906875 92.466491) scale(0.1 -0.1)">
       <use xlink:href="#DejaVuSans-30"/>
       <use xlink:href="#DejaVuSans-2e" x="63.623047"/>
       <use xlink:href="#DejaVuSans-38" x="95.410156"/>
      </g>
     </g>
    </g>
    <g id="ytick_6">
     <g id="line2d_12">
      <g>
       <use xlink:href="#m419efda177" x="47.81" y="38.085455" style="stroke: #000000; stroke-width: 0.8"/>
      </g>
     </g>
     <g id="text_13">
      <!-- 1.0 -->
      <g transform="translate(24.906875 41.884673) scale(0.1 -0.1)">
       <use xlink:href="#DejaVuSans-31"/>
       <use xlink:href="#DejaVuSans-2e" x="63.623047"/>
       <use xlink:href="#DejaVuSans-30" x="95.410156"/>
      </g>
     </g>
    </g>
    <g id="text_14">
     <!-- Similarity -->
     <g transform="translate(18.827187 188.179844) rotate(-90) scale(0.1 -0.1)">
      <defs>
       <path id="DejaVuSans-53" d="M 3425 4513 
L 3425 3897 
Q 3066 4069 2747 4153 
Q 2428 4238 2131 4238 
Q 1616 4238 1336 4038 
Q 1056 3838 1056 3469 
Q 1056 3159 1242 3001 
Q 1428 2844 1947 2747 
L 2328 2669 
Q 3034 2534 3370 2195 
Q 3706 1856 3706 1288 
Q 3706 609 3251 259 
Q 2797 -91 1919 -91 
Q 1588 -91 1214 -16 
Q 841 59 441 206 
L 441 856 
Q 825 641 1194 531 
Q 1563 422 1919 422 
Q 2459 422 2753 634 
Q 3047 847 3047 1241 
Q 3047 1584 2836 1778 
Q 2625 1972 2144 2069 
L 1759 2144 
Q 1053 2284 737 2584 
Q 422 2884 422 3419 
Q 422 4038 858 4394 
Q 1294 4750 2059 4750 
Q 2388 4750 2728 4690 
Q 3069 4631 3425 4513 
z
" transform="scale(0.015625)"/>
       <path id="DejaVuSans-6d" d="M 3328 2828 
Q 3544 3216 3844 3400 
Q 4144 3584 4550 3584 
Q 5097 3584 5394 3201 
Q 5691 2819 5691 2113 
L 5691 0 
L 5113 0 
L 5113 2094 
Q 5113 2597 4934 2840 
Q 4756 3084 4391 3084 
Q 3944 3084 3684 2787 
Q 3425 2491 3425 1978 
L 3425 0 
L 2847 0 
L 2847 2094 
Q 2847 2600 2669 2842 
Q 2491 3084 2119 3084 
Q 1678 3084 1418 2786 
Q 1159 2488 1159 1978 
L 1159 0 
L 581 0 
L 581 3500 
L 1159 3500 
L 1159 2956 
Q 1356 3278 1631 3431 
Q 1906 3584 2284 3584 
Q 2666 3584 2933 3390 
Q 3200 3197 3328 2828 
z
" transform="scale(0.015625)"/>
       <path id="DejaVuSans-6c" d="M 603 4863 
L 1178 4863 
L 1178 0 
L 603 0 
L 603 4863 
z
" transform="scale(0.015625)"/>
       <path id="DejaVuSans-79" d="M 2059 -325 
Q 1816 -950 1584 -1140 
Q 1353 -1331 966 -1331 
L 506 -1331 
L 506 -850 
L 844 -850 
Q 1081 -850 1212 -737 
Q 1344 -625 1503 -206 
L 1606 56 
L 191 3500 
L 800 3500 
L 1894 763 
L 2988 3500 
L 3597 3500 
L 2059 -325 
z
" transform="scale(0.015625)"/>
      </defs>
      <use xlink:href="#DejaVuSans-53"/>
      <use xlink:href="#DejaVuSans-69" x="63.476562"/>
      <use xlink:href="#DejaVuSans-6d" x="91.259766"/>
      <use xlink:href="#DejaVuSans-69" x="188.671875"/>
      <use xlink:href="#DejaVuSans-6c" x="216.455078"/>
      <use xlink:href="#DejaVuSans-61" x="244.238281"/>
      <use xlink:href="#DejaVuSans-72" x="305.517578"/>
      <use xlink:href="#DejaVuSans-69" x="346.630859"/>
      <use xlink:href="#DejaVuSans-74" x="374.414062"/>
      <use xlink:href="#DejaVuSans-79" x="413.623047"/>
     </g>
    </g>
   </g>
   <g id="line2d_13">
    <path d="M 66.091364 53.26 
L 69.822254 82.344545 
L 73.553145 90.353333 
L 77.284035 94.99 
L 81.014926 101.312727 
L 84.745816 103.841818 
L 88.476707 109.261299 
L 92.207597 112.693636 
L 95.938488 115.363232 
L 99.669378 120.280909 
L 103.400269 123.384793 
L 107.13116 127.235909 
L 110.86205 131.467273 
L 114.592941 133.82961 
L 118.323831 136.045576 
L 122.054722 136.72 
L 125.785612 137.91016 
L 129.516503 139.108586 
L 133.247393 140.047751 
L 136.978284 141.398818 
L 140.709174 142.500779 
L 144.440065 144.53719 
L 148.170955 145.626798 
L 151.901846 146.941742 
L 155.632737 148.353818 
L 159.363627 148.295455 
L 163.094518 149.084444 
L 166.825408 150.539675 
L 170.556299 151.196865 
L 174.287189 151.220121 
L 178.01808 152.057713 
L 181.74897 153.001023 
L 185.479861 153.19741 
L 189.210751 153.307861 
L 192.941642 154.351377 
L 196.672532 155.266667 
L 200.403423 156.064128 
L 204.134314 156.220622 
L 207.865204 156.109697 
L 211.596095 156.383682 
L 215.326985 157.014412 
L 219.057876 157.25381 
L 222.788766 157.305624 
L 226.519657 157.412562 
L 230.250547 157.964364 
L 233.981438 158.492174 
L 237.712328 158.889903 
L 241.443219 159.271061 
L 245.174109 159.894731 
L 248.905 160.796945 
L 252.635891 160.870339 
L 256.366781 161.33 
L 260.097672 161.96319 
L 263.828562 162.245084 
L 267.559453 162.516727 
L 271.290343 162.914156 
L 275.021234 163.2089 
L 278.752124 163.188245 
L 282.483015 163.511217 
L 286.213905 163.612667 
L 289.944796 163.669329 
L 293.675686 164.09129 
L 297.406577 164.459711 
L 301.137468 164.777102 
L 304.868358 164.890182 
L 308.599249 165.153113 
L 312.330139 165.257205 
L 316.06103 165.28385 
L 319.79192 165.602951 
L 323.522811 165.949065 
L 327.253701 166.178566 
L 330.984592 166.331439 
L 334.715482 166.549415 
L 338.446373 166.658968 
L 342.177263 166.664436 
L 345.908154 166.569928 
L 349.639045 167.069091 
L 353.369935 167.393333 
L 357.100826 167.549298 
L 360.831716 167.764591 
L 364.562607 167.756004 
L 368.293497 168.025211 
L 372.024388 168.166046 
L 375.755278 168.243312 
L 379.486169 168.318759 
L 383.217059 168.539493 
L 386.94795 168.900502 
L 390.67884 169.138347 
L 394.409731 169.171931 
L 398.140622 169.373374 
L 401.871512 169.431429 
L 405.602403 169.378261 
L 409.333293 169.353431 
L 413.064184 169.409845 
L 416.795074 169.598182 
L 420.525965 169.624527 
L 424.256855 169.937132 
L 427.987746 170.062709 
L 431.718636 170.083563 
" clip-path="url(#pfddafe081c)" style="fill: none; stroke: #0000ff; stroke-linecap: square"/>
    <defs>
     <path id="mdb1bc5eb93" d="M -0.49999 0.49999 
L 0.50001 0.49999 
L 0.50001 -0.50001 
L -0.49999 -0.50001 
z
"/>
    </defs>
    <g clip-path="url(#pfddafe081c)">
     <use xlink:href="#mdb1bc5eb93" x="66.091364" y="53.26" style="fill: #0000ff"/>
     <use xlink:href="#mdb1bc5eb93" x="69.822254" y="82.344545" style="fill: #0000ff"/>
     <use xlink:href="#mdb1bc5eb93" x="73.553145" y="90.353333" style="fill: #0000ff"/>
     <use xlink:href="#mdb1bc5eb93" x="77.284035" y="94.99" style="fill: #0000ff"/>
     <use xlink:href="#mdb1bc5eb93" x="81.014926" y="101.312727" style="fill: #0000ff"/>
     <use xlink:href="#mdb1bc5eb93" x="84.745816" y="103.841818" style="fill: #0000ff"/>
     <use xlink:href="#mdb1bc5eb93" x="88.476707" y="109.261299" style="fill: #0000ff"/>
     <use xlink:href="#mdb1bc5eb93" x="92.207597" y="112.693636" style="fill: #0000ff"/>
     <use xlink:href="#mdb1bc5eb93" x="95.938488" y="115.363232" style="fill: #0000ff"/>
     <use xlink:href="#mdb1bc5eb93" x="99.669378" y="120.280909" style="fill: #0000ff"/>
     <use xlink:href="#mdb1bc5eb93" x="103.400269" y="123.384793" style="fill: #0000ff"/>
     <use xlink:href="#mdb1bc5eb93" x="107.13116" y="127.235909" style="fill: #0000ff"/>
     <use xlink:href="#mdb1bc5eb93" x="110.86205" y="131.467273" style="fill: #0000ff"/>
     <use xlink:href="#mdb1bc5eb93" x="114.592941" y="133.82961" style="fill: #0000ff"/>
     <use xlink:href="#mdb1bc5eb93" x="118.323831" y="136.045576" style="fill: #0000ff"/>
     <use xlink:href="#mdb1bc5eb93" x="122.054722" y="136.72" style="fill: #0000ff"/>
     <use xlink:href="#mdb1bc5eb93" x="125.785612" y="137.91016" style="fill: #0000ff"/>
     <use xlink:href="#mdb1bc5eb93" x="129.516503" y="139.108586" style="fill: #0000ff"/>
     <use xlink:href="#mdb1bc5eb93" x="133.247393" y="140.047751" style="fill: #0000ff"/>
     <use xlink:href="#mdb1bc5eb93" x="136.978284" y="141.398818" style="fill: #0000ff"/>
     <use xlink:href="#mdb1bc5eb93" x="140.709174" y="142.500779" style="fill: #0000ff"/>
     <use xlink:href="#mdb1bc5eb93" x="144.440065" y="144.53719" style="fill: #0000ff"/>
     <use xlink:href="#mdb1bc5eb93" x="148.170955" y="145.626798" style="fill: #0000ff"/>
     <use xlink:href="#mdb1bc5eb93" x="151.901846" y="146.941742" style="fill: #0000ff"/>
     <use xlink:href="#mdb1bc5eb93" x="155.632737" y="148.353818" style="fill: #0000ff"/>
     <use xlink:href="#mdb1bc5eb93" x="159.363627" y="148.295455" style="fill: #0000ff"/>
     <use xlink:href="#mdb1bc5eb93" x="163.094518" y="149.084444" style="fill: #0000ff"/>
     <use xlink:href="#mdb1bc5eb93" x="166.825408" y="150.539675" style="fill: #0000ff"/>
     <use xlink:href="#mdb1bc5eb93" x="170.556299" y="151.196865" style="fill: #0000ff"/>
     <use xlink:href="#mdb1bc5eb93" x="174.287189" y="151.220121" style="fill: #0000ff"/>
     <use xlink:href="#mdb1bc5eb93" x="178.01808" y="152.057713" style="fill: #0000ff"/>
     <use xlink:href="#mdb1bc5eb93" x="181.74897" y="153.001023" style="fill: #0000ff"/>
     <use xlink:href="#mdb1bc5eb93" x="185.479861" y="153.19741" style="fill: #0000ff"/>
     <use xlink:href="#mdb1bc5eb93" x="189.210751" y="153.307861" style="fill: #0000ff"/>
     <use xlink:href="#mdb1bc5eb93" x="192.941642" y="154.351377" style="fill: #0000ff"/>
     <use xlink:href="#mdb1bc5eb93" x="196.672532" y="155.266667" style="fill: #0000ff"/>
     <use xlink:href="#mdb1bc5eb93" x="200.403423" y="156.064128" style="fill: #0000ff"/>
     <use xlink:href="#mdb1bc5eb93" x="204.134314" y="156.220622" style="fill: #0000ff"/>
     <use xlink:href="#mdb1bc5eb93" x="207.865204" y="156.109697" style="fill: #0000ff"/>
     <use xlink:href="#mdb1bc5eb93" x="211.596095" y="156.383682" style="fill: #0000ff"/>
     <use xlink:href="#mdb1bc5eb93" x="215.326985" y="157.014412" style="fill: #0000ff"/>
     <use xlink:href="#mdb1bc5eb93" x="219.057876" y="157.25381" style="fill: #0000ff"/>
     <use xlink:href="#mdb1bc5eb93" x="222.788766" y="157.305624" style="fill: #0000ff"/>
     <use xlink:href="#mdb1bc5eb93" x="226.519657" y="157.412562" style="fill: #0000ff"/>
     <use xlink:href="#mdb1bc5eb93" x="230.250547" y="157.964364" style="fill: #0000ff"/>
     <use xlink:href="#mdb1bc5eb93" x="233.981438" y="158.492174" style="fill: #0000ff"/>
     <use xlink:href="#mdb1bc5eb93" x="237.712328" y="158.889903" style="fill: #0000ff"/>
     <use xlink:href="#mdb1bc5eb93" x="241.443219" y="159.271061" style="fill: #0000ff"/>
     <use xlink:href="#mdb1bc5eb93" x="245.174109" y="159.894731" style="fill: #0000ff"/>
     <use xlink:href="#mdb1bc5eb93" x="248.905" y="160.796945" style="fill: #0000ff"/>
     <use xlink:href="#mdb1bc5eb93" x="252.635891" y="160.870339" style="fill: #0000ff"/>
     <use xlink:href="#mdb1bc5eb93" x="256.366781" y="161.33" style="fill: #0000ff"/>
     <use xlink:href="#mdb1bc5eb93" x="260.097672" y="161.96319" style="fill: #0000ff"/>
     <use xlink:href="#mdb1bc5eb93" x="263.828562" y="162.245084" style="fill: #0000ff"/>
     <use xlink:href="#mdb1bc5eb93" x="267.559453" y="162.516727" style="fill: #0000ff"/>
     <use xlink:href="#mdb1bc5eb93" x="271.290343" y="162.914156" style="fill: #0000ff"/>
     <use xlink:href="#mdb1bc5eb93" x="275.021234" y="163.2089" style="fill: #0000ff"/>
     <use xlink:href="#mdb1bc5eb93" x="278.752124" y="163.188245" style="fill: #0000ff"/>
     <use xlink:href="#mdb1bc5eb93" x="282.483015" y="163.511217" style="fill: #0000ff"/>
     <use xlink:href="#mdb1bc5eb93" x="286.213905" y="163.612667" style="fill: #0000ff"/>
     <use xlink:href="#mdb1bc5eb93" x="289.944796" y="163.669329" style="fill: #0000ff"/>
     <use xlink:href="#mdb1bc5eb93" x="293.675686" y="164.09129" style="fill: #0000ff"/>
     <use xlink:href="#mdb1bc5eb93" x="297.406577" y="164.459711" style="fill: #0000ff"/>
     <use xlink:href="#mdb1bc5eb93" x="301.137468" y="164.777102" style="fill: #0000ff"/>
     <use xlink:href="#mdb1bc5eb93" x="304.868358" y="164.890182" style="fill: #0000ff"/>
     <use xlink:href="#mdb1bc5eb93" x="308.599249" y="165.153113" style="fill: #0000ff"/>
     <use xlink:href="#mdb1bc5eb93" x="312.330139" y="165.257205" style="fill: #0000ff"/>
     <use xlink:href="#mdb1bc5eb93" x="316.06103" y="165.28385" style="fill: #0000ff"/>
     <use xlink:href="#mdb1bc5eb93" x="319.79192" y="165.602951" style="fill: #0000ff"/>
     <use xlink:href="#mdb1bc5eb93" x="323.522811" y="165.949065" style="fill: #0000ff"/>
     <use xlink:href="#mdb1bc5eb93" x="327.253701" y="166.178566" style="fill: #0000ff"/>
     <use xlink:href="#mdb1bc5eb93" x="330.984592" y="166.331439" style="fill: #0000ff"/>
     <use xlink:href="#mdb1bc5eb93" x="334.715482" y="166.549415" style="fill: #0000ff"/>
     <use xlink:href="#mdb1bc5eb93" x="338.446373" y="166.658968" style="fill: #0000ff"/>
     <use xlink:href="#mdb1bc5eb93" x="342.177263" y="166.664436" style="fill: #0000ff"/>
     <use xlink:href="#mdb1bc5eb93" x="345.908154" y="166.569928" style="fill: #0000ff"/>
     <use xlink:href="#mdb1bc5eb93" x="349.639045" y="167.069091" style="fill: #0000ff"/>
     <use xlink:href="#mdb1bc5eb93" x="353.369935" y="167.393333" style="fill: #0000ff"/>
     <use xlink:href="#mdb1bc5eb93" x="357.100826" y="167.549298" style="fill: #0000ff"/>
     <use xlink:href="#mdb1bc5eb93" x="360.831716" y="167.764591" style="fill: #0000ff"/>
     <use xlink:href="#mdb1bc5eb93" x="364.562607" y="167.756004" style="fill: #0000ff"/>
     <use xlink:href="#mdb1bc5eb93" x="368.293497" y="168.025211" style="fill: #0000ff"/>
     <use xlink:href="#mdb1bc5eb93" x="372.024388" y="168.166046" style="fill: #0000ff"/>
     <use xlink:href="#mdb1bc5eb93" x="375.755278" y="168.243312" style="fill: #0000ff"/>
     <use xlink:href="#mdb1bc5eb93" x="379.486169" y="168.318759" style="fill: #0000ff"/>
     <use xlink:href="#mdb1bc5eb93" x="383.217059" y="168.539493" style="fill: #0000ff"/>
     <use xlink:href="#mdb1bc5eb93" x="386.94795" y="168.900502" style="fill: #0000ff"/>
     <use xlink:href="#mdb1bc5eb93" x="390.67884" y="169.138347" style="fill: #0000ff"/>
     <use xlink:href="#mdb1bc5eb93" x="394.409731" y="169.171931" style="fill: #0000ff"/>
     <use xlink:href="#mdb1bc5eb93" x="398.140622" y="169.373374" style="fill: #0000ff"/>
     <use xlink:href="#mdb1bc5eb93" x="401.871512" y="169.431429" style="fill: #0000ff"/>
     <use xlink:href="#mdb1bc5eb93" x="405.602403" y="169.378261" style="fill: #0000ff"/>
     <use xlink:href="#mdb1bc5eb93" x="409.333293" y="169.353431" style="fill: #0000ff"/>
     <use xlink:href="#mdb1bc5eb93" x="413.064184" y="169.409845" style="fill: #0000ff"/>
     <use xlink:href="#mdb1bc5eb93" x="416.795074" y="169.598182" style="fill: #0000ff"/>
     <use xlink:href="#mdb1bc5eb93" x="420.525965" y="169.624527" style="fill: #0000ff"/>
     <use xlink:href="#mdb1bc5eb93" x="424.256855" y="169.937132" style="fill: #0000ff"/>
     <use xlink:href="#mdb1bc5eb93" x="427.987746" y="170.062709" style="fill: #0000ff"/>
     <use xlink:href="#mdb1bc5eb93" x="431.718636" y="170.083563" style="fill: #0000ff"/>
    </g>
   </g>
   <g id="line2d_14">
    <path d="M 66.091364 53.26 
L 69.822254 67.802273 
L 73.553145 75.319293 
L 77.284035 80.23697 
L 81.014926 84.452121 
L 84.745816 87.683737 
L 88.476707 90.766246 
L 92.207597 93.50717 
L 95.938488 95.935621 
L 99.669378 98.37015 
L 103.400269 100.644209 
L 107.13116 102.860184 
L 110.86205 105.060729 
L 114.592941 107.115649 
L 118.323831 109.044311 
L 122.054722 110.774041 
L 125.785612 112.370284 
L 129.516503 113.855745 
L 133.247393 115.234272 
L 136.978284 116.542499 
L 140.709174 117.778607 
L 144.440065 118.994907 
L 148.170955 120.152815 
L 151.901846 121.26902 
L 155.632737 122.352412 
L 159.363627 123.350222 
L 163.094518 124.303341 
L 166.825408 125.240353 
L 170.556299 126.135405 
L 174.287189 126.971562 
L 178.01808 127.780793 
L 181.74897 128.568925 
L 185.479861 129.315243 
L 189.210751 130.020908 
L 192.941642 130.716064 
L 196.672532 131.398025 
L 200.403423 132.064677 
L 204.134314 132.70036 
L 207.865204 133.300599 
L 211.596095 133.877676 
L 215.326985 134.441987 
L 219.057876 134.985125 
L 222.788766 135.504207 
L 226.519657 136.002124 
L 230.250547 136.490174 
L 233.981438 136.968478 
L 237.712328 137.434891 
L 241.443219 137.889812 
L 245.174109 138.338892 
L 248.905 138.788053 
L 252.635891 139.221039 
L 256.366781 139.646211 
L 260.097672 140.067286 
L 263.828562 140.477986 
L 267.559453 140.87869 
L 271.290343 141.272181 
L 275.021234 141.657036 
L 278.752124 142.028263 
L 282.483015 142.392381 
L 286.213905 142.746053 
L 289.944796 143.089057 
L 293.675686 143.427803 
L 297.406577 143.761643 
L 301.137468 144.090009 
L 304.868358 144.410012 
L 308.599249 144.724301 
L 312.330139 145.030763 
L 316.06103 145.328602 
L 319.79192 145.622433 
L 323.522811 145.912814 
L 327.253701 146.198247 
L 330.984592 146.477874 
L 334.715482 146.752827 
L 338.446373 147.021829 
L 342.177263 147.28373 
L 345.908154 147.537496 
L 349.639045 147.791153 
L 353.369935 148.042463 
L 357.100826 148.289385 
L 360.831716 148.532825 
L 364.562607 148.770148 
L 368.293497 149.004966 
L 372.024388 149.235823 
L 375.755278 149.462102 
L 379.486169 149.683945 
L 383.217059 149.903196 
L 386.94795 150.121556 
L 390.67884 150.337656 
L 394.409731 150.549277 
L 398.140622 150.758433 
L 401.871512 150.963631 
L 405.602403 151.16379 
L 409.333293 151.359378 
L 413.064184 151.551404 
L 416.795074 151.74137 
L 420.525965 151.927653 
L 424.256855 152.113318 
L 427.987746 152.296475 
L 431.718636 152.476142 
" clip-path="url(#pfddafe081c)" style="fill: none; stroke: #ff0000; stroke-opacity: 0.5; stroke-width: 0.5; stroke-linecap: square"/>
    <defs>
     <path id="m150cf4d4ea" d="M -0.49999 0.49999 
L 0.50001 0.49999 
L 0.50001 -0.50001 
L -0.49999 -0.50001 
z
"/>
    </defs>
    <g clip-path="url(#pfddafe081c)">
     <use xlink:href="#m150cf4d4ea" x="66.091364" y="53.26" style="fill: #ff0000; fill-opacity: 0.5"/>
     <use xlink:href="#m150cf4d4ea" x="69.822254" y="67.802273" style="fill: #ff0000; fill-opacity: 0.5"/>
     <use xlink:href="#m150cf4d4ea" x="73.553145" y="75.319293" style="fill: #ff0000; fill-opacity: 0.5"/>
     <use xlink:href="#m150cf4d4ea" x="77.284035" y="80.23697" style="fill: #ff0000; fill-opacity: 0.5"/>
     <use xlink:href="#m150cf4d4ea" x="81.014926" y="84.452121" style="fill: #ff0000; fill-opacity: 0.5"/>
     <use xlink:href="#m150cf4d4ea" x="84.745816" y="87.683737" style="fill: #ff0000; fill-opacity: 0.5"/>
     <use xlink:href="#m150cf4d4ea" x="88.476707" y="90.766246" style="fill: #ff0000; fill-opacity: 0.5"/>
     <use xlink:href="#m150cf4d4ea" x="92.207597" y="93.50717" style="fill: #ff0000; fill-opacity: 0.5"/>
     <use xlink:href="#m150cf4d4ea" x="95.938488" y="95.935621" style="fill: #ff0000; fill-opacity: 0.5"/>
     <use xlink:href="#m150cf4d4ea" x="99.669378" y="98.37015" style="fill: #ff0000; fill-opacity: 0.5"/>
     <use xlink:href="#m150cf4d4ea" x="103.400269" y="100.644209" style="fill: #ff0000; fill-opacity: 0.5"/>
     <use xlink:href="#m150cf4d4ea" x="107.13116" y="102.860184" style="fill: #ff0000; fill-opacity: 0.5"/>
     <use xlink:href="#m150cf4d4ea" x="110.86205" y="105.060729" style="fill: #ff0000; fill-opacity: 0.5"/>
     <use xlink:href="#m150cf4d4ea" x="114.592941" y="107.115649" style="fill: #ff0000; fill-opacity: 0.5"/>
     <use xlink:href="#m150cf4d4ea" x="118.323831" y="109.044311" style="fill: #ff0000; fill-opacity: 0.5"/>
     <use xlink:href="#m150cf4d4ea" x="122.054722" y="110.774041" style="fill: #ff0000; fill-opacity: 0.5"/>
     <use xlink:href="#m150cf4d4ea" x="125.785612" y="112.370284" style="fill: #ff0000; fill-opacity: 0.5"/>
     <use xlink:href="#m150cf4d4ea" x="129.516503" y="113.855745" style="fill: #ff0000; fill-opacity: 0.5"/>
     <use xlink:href="#m150cf4d4ea" x="133.247393" y="115.234272" style="fill: #ff0000; fill-opacity: 0.5"/>
     <use xlink:href="#m150cf4d4ea" x="136.978284" y="116.542499" style="fill: #ff0000; fill-opacity: 0.5"/>
     <use xlink:href="#m150cf4d4ea" x="140.709174" y="117.778607" style="fill: #ff0000; fill-opacity: 0.5"/>
     <use xlink:href="#m150cf4d4ea" x="144.440065" y="118.994907" style="fill: #ff0000; fill-opacity: 0.5"/>
     <use xlink:href="#m150cf4d4ea" x="148.170955" y="120.152815" style="fill: #ff0000; fill-opacity: 0.5"/>
     <use xlink:href="#m150cf4d4ea" x="151.901846" y="121.26902" style="fill: #ff0000; fill-opacity: 0.5"/>
     <use xlink:href="#m150cf4d4ea" x="155.632737" y="122.352412" style="fill: #ff0000; fill-opacity: 0.5"/>
     <use xlink:href="#m150cf4d4ea" x="159.363627" y="123.350222" style="fill: #ff0000; fill-opacity: 0.5"/>
     <use xlink:href="#m150cf4d4ea" x="163.094518" y="124.303341" style="fill: #ff0000; fill-opacity: 0.5"/>
     <use xlink:href="#m150cf4d4ea" x="166.825408" y="125.240353" style="fill: #ff0000; fill-opacity: 0.5"/>
     <use xlink:href="#m150cf4d4ea" x="170.556299" y="126.135405" style="fill: #ff0000; fill-opacity: 0.5"/>
     <use xlink:href="#m150cf4d4ea" x="174.287189" y="126.971562" style="fill: #ff0000; fill-opacity: 0.5"/>
     <use xlink:href="#m150cf4d4ea" x="178.01808" y="127.780793" style="fill: #ff0000; fill-opacity: 0.5"/>
     <use xlink:href="#m150cf4d4ea" x="181.74897" y="128.568925" style="fill: #ff0000; fill-opacity: 0.5"/>
     <use xlink:href="#m150cf4d4ea" x="185.479861" y="129.315243" style="fill: #ff0000; fill-opacity: 0.5"/>
     <use xlink:href="#m150cf4d4ea" x="189.210751" y="130.020908" style="fill: #ff0000; fill-opacity: 0.5"/>
     <use xlink:href="#m150cf4d4ea" x="192.941642" y="130.716064" style="fill: #ff0000; fill-opacity: 0.5"/>
     <use xlink:href="#m150cf4d4ea" x="196.672532" y="131.398025" style="fill: #ff0000; fill-opacity: 0.5"/>
     <use xlink:href="#m150cf4d4ea" x="200.403423" y="132.064677" style="fill: #ff0000; fill-opacity: 0.5"/>
     <use xlink:href="#m150cf4d4ea" x="204.134314" y="132.70036" style="fill: #ff0000; fill-opacity: 0.5"/>
     <use xlink:href="#m150cf4d4ea" x="207.865204" y="133.300599" style="fill: #ff0000; fill-opacity: 0.5"/>
     <use xlink:href="#m150cf4d4ea" x="211.596095" y="133.877676" style="fill: #ff0000; fill-opacity: 0.5"/>
     <use xlink:href="#m150cf4d4ea" x="215.326985" y="134.441987" style="fill: #ff0000; fill-opacity: 0.5"/>
     <use xlink:href="#m150cf4d4ea" x="219.057876" y="134.985125" style="fill: #ff0000; fill-opacity: 0.5"/>
     <use xlink:href="#m150cf4d4ea" x="222.788766" y="135.504207" style="fill: #ff0000; fill-opacity: 0.5"/>
     <use xlink:href="#m150cf4d4ea" x="226.519657" y="136.002124" style="fill: #ff0000; fill-opacity: 0.5"/>
     <use xlink:href="#m150cf4d4ea" x="230.250547" y="136.490174" style="fill: #ff0000; fill-opacity: 0.5"/>
     <use xlink:href="#m150cf4d4ea" x="233.981438" y="136.968478" style="fill: #ff0000; fill-opacity: 0.5"/>
     <use xlink:href="#m150cf4d4ea" x="237.712328" y="137.434891" style="fill: #ff0000; fill-opacity: 0.5"/>
     <use xlink:href="#m150cf4d4ea" x="241.443219" y="137.889812" style="fill: #ff0000; fill-opacity: 0.5"/>
     <use xlink:href="#m150cf4d4ea" x="245.174109" y="138.338892" style="fill: #ff0000; fill-opacity: 0.5"/>
     <use xlink:href="#m150cf4d4ea" x="248.905" y="138.788053" style="fill: #ff0000; fill-opacity: 0.5"/>
     <use xlink:href="#m150cf4d4ea" x="252.635891" y="139.221039" style="fill: #ff0000; fill-opacity: 0.5"/>
     <use xlink:href="#m150cf4d4ea" x="256.366781" y="139.646211" style="fill: #ff0000; fill-opacity: 0.5"/>
     <use xlink:href="#m150cf4d4ea" x="260.097672" y="140.067286" style="fill: #ff0000; fill-opacity: 0.5"/>
     <use xlink:href="#m150cf4d4ea" x="263.828562" y="140.477986" style="fill: #ff0000; fill-opacity: 0.5"/>
     <use xlink:href="#m150cf4d4ea" x="267.559453" y="140.87869" style="fill: #ff0000; fill-opacity: 0.5"/>
     <use xlink:href="#m150cf4d4ea" x="271.290343" y="141.272181" style="fill: #ff0000; fill-opacity: 0.5"/>
     <use xlink:href="#m150cf4d4ea" x="275.021234" y="141.657036" style="fill: #ff0000; fill-opacity: 0.5"/>
     <use xlink:href="#m150cf4d4ea" x="278.752124" y="142.028263" style="fill: #ff0000; fill-opacity: 0.5"/>
     <use xlink:href="#m150cf4d4ea" x="282.483015" y="142.392381" style="fill: #ff0000; fill-opacity: 0.5"/>
     <use xlink:href="#m150cf4d4ea" x="286.213905" y="142.746053" style="fill: #ff0000; fill-opacity: 0.5"/>
     <use xlink:href="#m150cf4d4ea" x="289.944796" y="143.089057" style="fill: #ff0000; fill-opacity: 0.5"/>
     <use xlink:href="#m150cf4d4ea" x="293.675686" y="143.427803" style="fill: #ff0000; fill-opacity: 0.5"/>
     <use xlink:href="#m150cf4d4ea" x="297.406577" y="143.761643" style="fill: #ff0000; fill-opacity: 0.5"/>
     <use xlink:href="#m150cf4d4ea" x="301.137468" y="144.090009" style="fill: #ff0000; fill-opacity: 0.5"/>
     <use xlink:href="#m150cf4d4ea" x="304.868358" y="144.410012" style="fill: #ff0000; fill-opacity: 0.5"/>
     <use xlink:href="#m150cf4d4ea" x="308.599249" y="144.724301" style="fill: #ff0000; fill-opacity: 0.5"/>
     <use xlink:href="#m150cf4d4ea" x="312.330139" y="145.030763" style="fill: #ff0000; fill-opacity: 0.5"/>
     <use xlink:href="#m150cf4d4ea" x="316.06103" y="145.328602" style="fill: #ff0000; fill-opacity: 0.5"/>
     <use xlink:href="#m150cf4d4ea" x="319.79192" y="145.622433" style="fill: #ff0000; fill-opacity: 0.5"/>
     <use xlink:href="#m150cf4d4ea" x="323.522811" y="145.912814" style="fill: #ff0000; fill-opacity: 0.5"/>
     <use xlink:href="#m150cf4d4ea" x="327.253701" y="146.198247" style="fill: #ff0000; fill-opacity: 0.5"/>
     <use xlink:href="#m150cf4d4ea" x="330.984592" y="146.477874" style="fill: #ff0000; fill-opacity: 0.5"/>
     <use xlink:href="#m150cf4d4ea" x="334.715482" y="146.752827" style="fill: #ff0000; fill-opacity: 0.5"/>
     <use xlink:href="#m150cf4d4ea" x="338.446373" y="147.021829" style="fill: #ff0000; fill-opacity: 0.5"/>
     <use xlink:href="#m150cf4d4ea" x="342.177263" y="147.28373" style="fill: #ff0000; fill-opacity: 0.5"/>
     <use xlink:href="#m150cf4d4ea" x="345.908154" y="147.537496" style="fill: #ff0000; fill-opacity: 0.5"/>
     <use xlink:href="#m150cf4d4ea" x="349.639045" y="147.791153" style="fill: #ff0000; fill-opacity: 0.5"/>
     <use xlink:href="#m150cf4d4ea" x="353.369935" y="148.042463" style="fill: #ff0000; fill-opacity: 0.5"/>
     <use xlink:href="#m150cf4d4ea" x="357.100826" y="148.289385" style="fill: #ff0000; fill-opacity: 0.5"/>
     <use xlink:href="#m150cf4d4ea" x="360.831716" y="148.532825" style="fill: #ff0000; fill-opacity: 0.5"/>
     <use xlink:href="#m150cf4d4ea" x="364.562607" y="148.770148" style="fill: #ff0000; fill-opacity: 0.5"/>
     <use xlink:href="#m150cf4d4ea" x="368.293497" y="149.004966" style="fill: #ff0000; fill-opacity: 0.5"/>
     <use xlink:href="#m150cf4d4ea" x="372.024388" y="149.235823" style="fill: #ff0000; fill-opacity: 0.5"/>
     <use xlink:href="#m150cf4d4ea" x="375.755278" y="149.462102" style="fill: #ff0000; fill-opacity: 0.5"/>
     <use xlink:href="#m150cf4d4ea" x="379.486169" y="149.683945" style="fill: #ff0000; fill-opacity: 0.5"/>
     <use xlink:href="#m150cf4d4ea" x="383.217059" y="149.903196" style="fill: #ff0000; fill-opacity: 0.5"/>
     <use xlink:href="#m150cf4d4ea" x="386.94795" y="150.121556" style="fill: #ff0000; fill-opacity: 0.5"/>
     <use xlink:href="#m150cf4d4ea" x="390.67884" y="150.337656" style="fill: #ff0000; fill-opacity: 0.5"/>
     <use xlink:href="#m150cf4d4ea" x="394.409731" y="150.549277" style="fill: #ff0000; fill-opacity: 0.5"/>
     <use xlink:href="#m150cf4d4ea" x="398.140622" y="150.758433" style="fill: #ff0000; fill-opacity: 0.5"/>
     <use xlink:href="#m150cf4d4ea" x="401.871512" y="150.963631" style="fill: #ff0000; fill-opacity: 0.5"/>
     <use xlink:href="#m150cf4d4ea" x="405.602403" y="151.16379" style="fill: #ff0000; fill-opacity: 0.5"/>
     <use xlink:href="#m150cf4d4ea" x="409.333293" y="151.359378" style="fill: #ff0000; fill-opacity: 0.5"/>
     <use xlink:href="#m150cf4d4ea" x="413.064184" y="151.551404" style="fill: #ff0000; fill-opacity: 0.5"/>
     <use xlink:href="#m150cf4d4ea" x="416.795074" y="151.74137" style="fill: #ff0000; fill-opacity: 0.5"/>
     <use xlink:href="#m150cf4d4ea" x="420.525965" y="151.927653" style="fill: #ff0000; fill-opacity: 0.5"/>
     <use xlink:href="#m150cf4d4ea" x="424.256855" y="152.113318" style="fill: #ff0000; fill-opacity: 0.5"/>
     <use xlink:href="#m150cf4d4ea" x="427.987746" y="152.296475" style="fill: #ff0000; fill-opacity: 0.5"/>
     <use xlink:href="#m150cf4d4ea" x="431.718636" y="152.476142" style="fill: #ff0000; fill-opacity: 0.5"/>
    </g>
   </g>
   <g id="line2d_15">
    <path d="M 47.81 290.994545 
L 450 290.994545 
" clip-path="url(#pfddafe081c)" style="fill: none; stroke-dasharray: 0.555,0.24; stroke-dashoffset: 0; stroke: #ff0000; stroke-width: 0.15"/>
   </g>
   <g id="line2d_16">
    <path d="M 47.81 164.54 
L 450 164.54 
" clip-path="url(#pfddafe081c)" style="fill: none; stroke-dasharray: 0.555,0.24; stroke-dashoffset: 0; stroke: #ff0000; stroke-width: 0.15"/>
   </g>
   <g id="line2d_17">
    <path d="M 47.81 38.085455 
L 450 38.085455 
" clip-path="url(#pfddafe081c)" style="fill: none; stroke-dasharray: 0.555,0.24; stroke-dashoffset: 0; stroke: #ff0000; stroke-width: 0.15"/>
   </g>
   <g id="patch_3">
    <path d="M 47.81 303.64 
L 47.81 25.44 
" style="fill: none; stroke: #000000; stroke-width: 0.8; stroke-linejoin: miter; stroke-linecap: square"/>
   </g>
   <g id="patch_4">
    <path d="M 450 303.64 
L 450 25.44 
" style="fill: none; stroke: #000000; stroke-width: 0.8; stroke-linejoin: miter; stroke-linecap: square"/>
   </g>
   <g id="patch_5">
    <path d="M 47.81 303.64 
L 450 303.64 
" style="fill: none; stroke: #000000; stroke-width: 0.8; stroke-linejoin: miter; stroke-linecap: square"/>
   </g>
   <g id="patch_6">
    <path d="M 47.81 25.44 
L 450 25.44 
" style="fill: none; stroke: #000000; stroke-width: 0.8; stroke-linejoin: miter; stroke-linecap: square"/>
   </g>
   <g id="text_15">
    <!-- Similarity LLM-URND06 - 20240424102314 - 100 games -->
    <g transform="translate(80.389375 19.44) scale(0.12 -0.12)">
     <defs>
      <path id="DejaVuSans-20" transform="scale(0.015625)"/>
      <path id="DejaVuSans-4c" d="M 628 4666 
L 1259 4666 
L 1259 531 
L 3531 531 
L 3531 0 
L 628 0 
L 628 4666 
z
" transform="scale(0.015625)"/>
      <path id="DejaVuSans-4d" d="M 628 4666 
L 1569 4666 
L 2759 1491 
L 3956 4666 
L 4897 4666 
L 4897 0 
L 4281 0 
L 4281 4097 
L 3078 897 
L 2444 897 
L 1241 4097 
L 1241 0 
L 628 0 
L 628 4666 
z
" transform="scale(0.015625)"/>
      <path id="DejaVuSans-2d" d="M 313 2009 
L 1997 2009 
L 1997 1497 
L 313 1497 
L 313 2009 
z
" transform="scale(0.015625)"/>
      <path id="DejaVuSans-55" d="M 556 4666 
L 1191 4666 
L 1191 1831 
Q 1191 1081 1462 751 
Q 1734 422 2344 422 
Q 2950 422 3222 751 
Q 3494 1081 3494 1831 
L 3494 4666 
L 4128 4666 
L 4128 1753 
Q 4128 841 3676 375 
Q 3225 -91 2344 -91 
Q 1459 -91 1007 375 
Q 556 841 556 1753 
L 556 4666 
z
" transform="scale(0.015625)"/>
      <path id="DejaVuSans-52" d="M 2841 2188 
Q 3044 2119 3236 1894 
Q 3428 1669 3622 1275 
L 4263 0 
L 3584 0 
L 2988 1197 
Q 2756 1666 2539 1819 
Q 2322 1972 1947 1972 
L 1259 1972 
L 1259 0 
L 628 0 
L 628 4666 
L 2053 4666 
Q 2853 4666 3247 4331 
Q 3641 3997 3641 3322 
Q 3641 2881 3436 2590 
Q 3231 2300 2841 2188 
z
M 1259 4147 
L 1259 2491 
L 2053 2491 
Q 2509 2491 2742 2702 
Q 2975 2913 2975 3322 
Q 2975 3731 2742 3939 
Q 2509 4147 2053 4147 
L 1259 4147 
z
" transform="scale(0.015625)"/>
      <path id="DejaVuSans-4e" d="M 628 4666 
L 1478 4666 
L 3547 763 
L 3547 4666 
L 4159 4666 
L 4159 0 
L 3309 0 
L 1241 3903 
L 1241 0 
L 628 0 
L 628 4666 
z
" transform="scale(0.015625)"/>
      <path id="DejaVuSans-44" d="M 1259 4147 
L 1259 519 
L 2022 519 
Q 2988 519 3436 956 
Q 3884 1394 3884 2338 
Q 3884 3275 3436 3711 
Q 2988 4147 2022 4147 
L 1259 4147 
z
M 628 4666 
L 1925 4666 
Q 3281 4666 3915 4102 
Q 4550 3538 4550 2338 
Q 4550 1131 3912 565 
Q 3275 0 1925 0 
L 628 0 
L 628 4666 
z
" transform="scale(0.015625)"/>
      <path id="DejaVuSans-33" d="M 2597 2516 
Q 3050 2419 3304 2112 
Q 3559 1806 3559 1356 
Q 3559 666 3084 287 
Q 2609 -91 1734 -91 
Q 1441 -91 1130 -33 
Q 819 25 488 141 
L 488 750 
Q 750 597 1062 519 
Q 1375 441 1716 441 
Q 2309 441 2620 675 
Q 2931 909 2931 1356 
Q 2931 1769 2642 2001 
Q 2353 2234 1838 2234 
L 1294 2234 
L 1294 2753 
L 1863 2753 
Q 2328 2753 2575 2939 
Q 2822 3125 2822 3475 
Q 2822 3834 2567 4026 
Q 2313 4219 1838 4219 
Q 1578 4219 1281 4162 
Q 984 4106 628 3988 
L 628 4550 
Q 988 4650 1302 4700 
Q 1616 4750 1894 4750 
Q 2613 4750 3031 4423 
Q 3450 4097 3450 3541 
Q 3450 3153 3228 2886 
Q 3006 2619 2597 2516 
z
" transform="scale(0.015625)"/>
      <path id="DejaVuSans-67" d="M 2906 1791 
Q 2906 2416 2648 2759 
Q 2391 3103 1925 3103 
Q 1463 3103 1205 2759 
Q 947 2416 947 1791 
Q 947 1169 1205 825 
Q 1463 481 1925 481 
Q 2391 481 2648 825 
Q 2906 1169 2906 1791 
z
M 3481 434 
Q 3481 -459 3084 -895 
Q 2688 -1331 1869 -1331 
Q 1566 -1331 1297 -1286 
Q 1028 -1241 775 -1147 
L 775 -588 
Q 1028 -725 1275 -790 
Q 1522 -856 1778 -856 
Q 2344 -856 2625 -561 
Q 2906 -266 2906 331 
L 2906 616 
Q 2728 306 2450 153 
Q 2172 0 1784 0 
Q 1141 0 747 490 
Q 353 981 353 1791 
Q 353 2603 747 3093 
Q 1141 3584 1784 3584 
Q 2172 3584 2450 3431 
Q 2728 3278 2906 2969 
L 2906 3500 
L 3481 3500 
L 3481 434 
z
" transform="scale(0.015625)"/>
      <path id="DejaVuSans-73" d="M 2834 3397 
L 2834 2853 
Q 2591 2978 2328 3040 
Q 2066 3103 1784 3103 
Q 1356 3103 1142 2972 
Q 928 2841 928 2578 
Q 928 2378 1081 2264 
Q 1234 2150 1697 2047 
L 1894 2003 
Q 2506 1872 2764 1633 
Q 3022 1394 3022 966 
Q 3022 478 2636 193 
Q 2250 -91 1575 -91 
Q 1294 -91 989 -36 
Q 684 19 347 128 
L 347 722 
Q 666 556 975 473 
Q 1284 391 1588 391 
Q 1994 391 2212 530 
Q 2431 669 2431 922 
Q 2431 1156 2273 1281 
Q 2116 1406 1581 1522 
L 1381 1569 
Q 847 1681 609 1914 
Q 372 2147 372 2553 
Q 372 3047 722 3315 
Q 1072 3584 1716 3584 
Q 2034 3584 2315 3537 
Q 2597 3491 2834 3397 
z
" transform="scale(0.015625)"/>
     </defs>
     <use xlink:href="#DejaVuSans-53"/>
     <use xlink:href="#DejaVuSans-69" x="63.476562"/>
     <use xlink:href="#DejaVuSans-6d" x="91.259766"/>
     <use xlink:href="#DejaVuSans-69" x="188.671875"/>
     <use xlink:href="#DejaVuSans-6c" x="216.455078"/>
     <use xlink:href="#DejaVuSans-61" x="244.238281"/>
     <use xlink:href="#DejaVuSans-72" x="305.517578"/>
     <use xlink:href="#DejaVuSans-69" x="346.630859"/>
     <use xlink:href="#DejaVuSans-74" x="374.414062"/>
     <use xlink:href="#DejaVuSans-79" x="413.623047"/>
     <use xlink:href="#DejaVuSans-20" x="472.802734"/>
     <use xlink:href="#DejaVuSans-4c" x="504.589844"/>
     <use xlink:href="#DejaVuSans-4c" x="560.302734"/>
     <use xlink:href="#DejaVuSans-4d" x="616.015625"/>
     <use xlink:href="#DejaVuSans-2d" x="702.294922"/>
     <use xlink:href="#DejaVuSans-55" x="738.378906"/>
     <use xlink:href="#DejaVuSans-52" x="811.572266"/>
     <use xlink:href="#DejaVuSans-4e" x="881.054688"/>
     <use xlink:href="#DejaVuSans-44" x="955.859375"/>
     <use xlink:href="#DejaVuSans-30" x="1032.861328"/>
     <use xlink:href="#DejaVuSans-36" x="1096.484375"/>
     <use xlink:href="#DejaVuSans-20" x="1160.107422"/>
     <use xlink:href="#DejaVuSans-2d" x="1191.894531"/>
     <use xlink:href="#DejaVuSans-20" x="1227.978516"/>
     <use xlink:href="#DejaVuSans-32" x="1259.765625"/>
     <use xlink:href="#DejaVuSans-30" x="1323.388672"/>
     <use xlink:href="#DejaVuSans-32" x="1387.011719"/>
     <use xlink:href="#DejaVuSans-34" x="1450.634766"/>
     <use xlink:href="#DejaVuSans-30" x="1514.257812"/>
     <use xlink:href="#DejaVuSans-34" x="1577.880859"/>
     <use xlink:href="#DejaVuSans-32" x="1641.503906"/>
     <use xlink:href="#DejaVuSans-34" x="1705.126953"/>
     <use xlink:href="#DejaVuSans-31" x="1768.75"/>
     <use xlink:href="#DejaVuSans-30" x="1832.373047"/>
     <use xlink:href="#DejaVuSans-32" x="1895.996094"/>
     <use xlink:href="#DejaVuSans-33" x="1959.619141"/>
     <use xlink:href="#DejaVuSans-31" x="2023.242188"/>
     <use xlink:href="#DejaVuSans-34" x="2086.865234"/>
     <use xlink:href="#DejaVuSans-20" x="2150.488281"/>
     <use xlink:href="#DejaVuSans-2d" x="2182.275391"/>
     <use xlink:href="#DejaVuSans-20" x="2218.359375"/>
     <use xlink:href="#DejaVuSans-31" x="2250.146484"/>
     <use xlink:href="#DejaVuSans-30" x="2313.769531"/>
     <use xlink:href="#DejaVuSans-30" x="2377.392578"/>
     <use xlink:href="#DejaVuSans-20" x="2441.015625"/>
     <use xlink:href="#DejaVuSans-67" x="2472.802734"/>
     <use xlink:href="#DejaVuSans-61" x="2536.279297"/>
     <use xlink:href="#DejaVuSans-6d" x="2597.558594"/>
     <use xlink:href="#DejaVuSans-65" x="2694.970703"/>
     <use xlink:href="#DejaVuSans-73" x="2756.494141"/>
    </g>
   </g>
   <g id="legend_1">
    <g id="patch_7">
     <path d="M 313.909375 62.79625 
L 443 62.79625 
Q 445 62.79625 445 60.79625 
L 445 32.44 
Q 445 30.44 443 30.44 
L 313.909375 30.44 
Q 311.909375 30.44 311.909375 32.44 
L 311.909375 60.79625 
Q 311.909375 62.79625 313.909375 62.79625 
z
" style="fill: #ffffff; opacity: 0.8; stroke: #cccccc; stroke-linejoin: miter"/>
    </g>
    <g id="line2d_18">
     <path d="M 315.909375 38.538437 
L 325.909375 38.538437 
L 335.909375 38.538437 
" style="fill: none; stroke: #0000ff; stroke-linecap: square"/>
     <g>
      <use xlink:href="#mdb1bc5eb93" x="325.909375" y="38.538437" style="fill: #0000ff"/>
     </g>
    </g>
    <g id="text_16">
     <!-- LLM-URND06 -->
     <g transform="translate(343.909375 42.038437) scale(0.1 -0.1)">
      <use xlink:href="#DejaVuSans-4c"/>
      <use xlink:href="#DejaVuSans-4c" x="55.712891"/>
      <use xlink:href="#DejaVuSans-4d" x="111.425781"/>
      <use xlink:href="#DejaVuSans-2d" x="197.705078"/>
      <use xlink:href="#DejaVuSans-55" x="233.789062"/>
      <use xlink:href="#DejaVuSans-52" x="306.982422"/>
      <use xlink:href="#DejaVuSans-4e" x="376.464844"/>
      <use xlink:href="#DejaVuSans-44" x="451.269531"/>
      <use xlink:href="#DejaVuSans-30" x="528.271484"/>
      <use xlink:href="#DejaVuSans-36" x="591.894531"/>
     </g>
    </g>
    <g id="line2d_19">
     <path d="M 315.909375 53.216562 
L 325.909375 53.216562 
L 335.909375 53.216562 
" style="fill: none; stroke: #ff0000; stroke-opacity: 0.5; stroke-width: 0.5; stroke-linecap: square"/>
     <g>
      <use xlink:href="#m150cf4d4ea" x="325.909375" y="53.216562" style="fill: #ff0000; fill-opacity: 0.5"/>
     </g>
    </g>
    <g id="text_17">
     <!-- LLM-URND06 mean -->
     <g transform="translate(343.909375 56.716562) scale(0.1 -0.1)">
      <use xlink:href="#DejaVuSans-4c"/>
      <use xlink:href="#DejaVuSans-4c" x="55.712891"/>
      <use xlink:href="#DejaVuSans-4d" x="111.425781"/>
      <use xlink:href="#DejaVuSans-2d" x="197.705078"/>
      <use xlink:href="#DejaVuSans-55" x="233.789062"/>
      <use xlink:href="#DejaVuSans-52" x="306.982422"/>
      <use xlink:href="#DejaVuSans-4e" x="376.464844"/>
      <use xlink:href="#DejaVuSans-44" x="451.269531"/>
      <use xlink:href="#DejaVuSans-30" x="528.271484"/>
      <use xlink:href="#DejaVuSans-36" x="591.894531"/>
      <use xlink:href="#DejaVuSans-20" x="655.517578"/>
      <use xlink:href="#DejaVuSans-6d" x="687.304688"/>
      <use xlink:href="#DejaVuSans-65" x="784.716797"/>
      <use xlink:href="#DejaVuSans-61" x="846.240234"/>
      <use xlink:href="#DejaVuSans-6e" x="907.519531"/>
     </g>
    </g>
   </g>
  </g>
 </g>
 <defs>
  <clipPath id="pfddafe081c">
   <rect x="47.81" y="25.44" width="402.19" height="278.2"/>
  </clipPath>
 </defs>
</svg>
