<?xml version="1.0" encoding="utf-8" standalone="no"?>
<!DOCTYPE svg PUBLIC "-//W3C//DTD SVG 1.1//EN"
  "http://www.w3.org/Graphics/SVG/1.1/DTD/svg11.dtd">
<svg xmlns:xlink="http://www.w3.org/1999/xlink" width="460.8pt" height="345.6pt" viewBox="0 0 460.8 345.6" xmlns="http://www.w3.org/2000/svg" version="1.1">
 <metadata>
  <rdf:RDF xmlns:dc="http://purl.org/dc/elements/1.1/" xmlns:cc="http://creativecommons.org/ns#" xmlns:rdf="http://www.w3.org/1999/02/22-rdf-syntax-ns#">
   <cc:Work>
    <dc:type rdf:resource="http://purl.org/dc/dcmitype/StillImage"/>
    <dc:date>2024-04-15T10:04:51.906364</dc:date>
    <dc:format>image/svg+xml</dc:format>
    <dc:creator>
     <cc:Agent>
      <dc:title>Matplotlib v3.8.0, https://matplotlib.org/</dc:title>
     </cc:Agent>
    </dc:creator>
   </cc:Work>
  </rdf:RDF>
 </metadata>
 <defs>
  <style type="text/css">*{stroke-linejoin: round; stroke-linecap: butt}</style>
 </defs>
 <g id="figure_1">
  <g id="patch_1">
   <path d="M 0 345.6 
L 460.8 345.6 
L 460.8 0 
L 0 0 
z
" style="fill: #ffffff"/>
  </g>
  <g id="axes_1">
   <g id="patch_2">
    <path d="M 47.81 303.64 
L 450 303.64 
L 450 25.44 
L 47.81 25.44 
z
" style="fill: #ffffff"/>
   </g>
   <g id="PolyCollection_1">
    <defs>
     <path id="m3a72cdeaab" d="M 66.091364 -221.525455 
L 66.091364 -221.525455 
L 69.822254 -258.160048 
L 73.553145 -271.302231 
L 77.284035 -278.694767 
L 81.014926 -284.389831 
L 84.745816 -287.876331 
L 88.476707 -290.422181 
L 92.207597 -292.358278 
L 95.938488 -293.760849 
L 99.669378 -294.46207 
L 103.400269 -295.098016 
L 107.13116 -295.611666 
L 110.86205 -296.131366 
L 114.592941 -296.64092 
L 118.323831 -297.131511 
L 122.054722 -297.565113 
L 125.785612 -297.891994 
L 129.516503 -298.213832 
L 133.247393 -298.527157 
L 136.978284 -298.808848 
L 140.709174 -299.04419 
L 144.440065 -299.258265 
L 148.170955 -299.438077 
L 151.901846 -299.575368 
L 155.632737 -299.703142 
L 159.363627 -299.810462 
L 163.094518 -299.911117 
L 166.825408 -299.995578 
L 170.556299 -300.066134 
L 174.287189 -300.133245 
L 178.01808 -300.189042 
L 181.74897 -300.22028 
L 185.479861 -300.251326 
L 189.210751 -300.262753 
L 192.941642 -300.257597 
L 196.672532 -300.249379 
L 200.403423 -300.248992 
L 204.134314 -300.245374 
L 207.865204 -300.243646 
L 211.596095 -300.239034 
L 215.326985 -300.240438 
L 219.057876 -300.238914 
L 222.788766 -300.223261 
L 226.519657 -300.19897 
L 230.250547 -300.170542 
L 233.981438 -300.141725 
L 237.712328 -300.112598 
L 241.443219 -300.08029 
L 245.174109 -300.039662 
L 248.905 -300.002269 
L 252.635891 -299.96023 
L 256.366781 -299.921344 
L 260.097672 -299.880694 
L 263.828562 -299.847501 
L 267.559453 -299.816787 
L 271.290343 -299.790506 
L 275.021234 -299.768323 
L 278.752124 -299.745877 
L 282.483015 -299.723209 
L 286.213905 -299.704128 
L 289.944796 -299.688375 
L 293.675686 -299.672119 
L 297.406577 -299.655414 
L 301.137468 -299.641657 
L 304.868358 -299.630646 
L 308.599249 -299.623805 
L 312.330139 -299.620864 
L 316.06103 -299.62157 
L 319.79192 -299.622638 
L 323.522811 -299.624032 
L 327.253701 -299.625725 
L 330.984592 -299.630495 
L 334.715482 -299.635389 
L 338.446373 -299.641731 
L 342.177263 -299.645501 
L 345.908154 -299.649401 
L 349.639045 -299.65465 
L 353.369935 -299.661158 
L 357.100826 -299.66884 
L 360.831716 -299.676458 
L 364.562607 -299.680641 
L 368.293497 -299.685969 
L 372.024388 -299.689178 
L 375.755278 -299.693499 
L 379.486169 -299.696838 
L 383.217059 -299.701224 
L 386.94795 -299.701784 
L 390.67884 -299.703422 
L 394.409731 -299.702434 
L 398.140622 -299.698998 
L 401.871512 -299.693279 
L 405.602403 -299.687891 
L 409.333293 -299.681208 
L 413.064184 -299.672531 
L 416.795074 -299.662745 
L 420.525965 -299.651922 
L 424.256855 -299.640126 
L 427.987746 -299.63022 
L 431.718636 -299.617304 
L 431.718636 -281.884957 
L 431.718636 -281.884957 
L 427.987746 -281.815633 
L 424.256855 -281.743652 
L 420.525965 -281.671447 
L 416.795074 -281.597559 
L 413.064184 -281.52194 
L 409.333293 -281.444539 
L 405.602403 -281.364934 
L 401.871512 -281.283437 
L 398.140622 -281.200749 
L 394.409731 -281.115686 
L 390.67884 -281.028188 
L 386.94795 -280.938194 
L 383.217059 -280.847158 
L 379.486169 -280.753116 
L 375.755278 -280.657924 
L 372.024388 -280.56076 
L 368.293497 -280.462379 
L 364.562607 -280.361499 
L 360.831716 -280.259312 
L 357.100826 -280.154054 
L 353.369935 -280.046931 
L 349.639045 -279.938337 
L 345.908154 -279.828247 
L 342.177263 -279.716638 
L 338.446373 -279.602976 
L 334.715482 -279.486171 
L 330.984592 -279.367672 
L 327.253701 -279.2469 
L 323.522811 -279.12492 
L 319.79192 -279.000563 
L 316.06103 -278.87375 
L 312.330139 -278.7444 
L 308.599249 -278.613753 
L 304.868358 -278.481858 
L 301.137468 -278.348775 
L 297.406577 -278.213781 
L 293.675686 -278.076864 
L 289.944796 -277.936285 
L 286.213905 -277.791887 
L 282.483015 -277.645328 
L 278.752124 -277.496601 
L 275.021234 -277.343672 
L 271.290343 -277.186346 
L 267.559453 -277.026577 
L 263.828562 -276.864364 
L 260.097672 -276.698503 
L 256.366781 -276.531434 
L 252.635891 -276.357932 
L 248.905 -276.180393 
L 245.174109 -275.99436 
L 241.443219 -275.803716 
L 237.712328 -275.602196 
L 233.981438 -275.392211 
L 230.250547 -275.174809 
L 226.519657 -274.949558 
L 222.788766 -274.714299 
L 219.057876 -274.466682 
L 215.326985 -274.204256 
L 211.596095 -273.931272 
L 207.865204 -273.650695 
L 204.134314 -273.358309 
L 200.403423 -273.055331 
L 196.672532 -272.738952 
L 192.941642 -272.412744 
L 189.210751 -272.071365 
L 185.479861 -271.708675 
L 181.74897 -271.323061 
L 178.01808 -270.920338 
L 174.287189 -270.491148 
L 170.556299 -270.038698 
L 166.825408 -269.563795 
L 163.094518 -269.06147 
L 159.363627 -268.529173 
L 155.632737 -267.967314 
L 151.901846 -267.369497 
L 148.170955 -266.735695 
L 144.440065 -266.054323 
L 140.709174 -265.324242 
L 136.978284 -264.544006 
L 133.247393 -263.703216 
L 129.516503 -262.798919 
L 125.785612 -261.827747 
L 122.054722 -260.780573 
L 118.323831 -259.627161 
L 114.592941 -258.364237 
L 110.86205 -256.980202 
L 107.13116 -255.452835 
L 103.400269 -253.753561 
L 99.669378 -251.818301 
L 95.938488 -249.601745 
L 92.207597 -246.963681 
L 88.476707 -243.865253 
L 84.745816 -240.180133 
L 81.014926 -235.714047 
L 77.284035 -230.323263 
L 73.553145 -223.454536 
L 69.822254 -215.239952 
L 66.091364 -221.525455 
z
" style="stroke: #ff0000; stroke-opacity: 0.2"/>
    </defs>
    <g clip-path="url(#pb11071b048)">
     <use xlink:href="#m3a72cdeaab" x="0" y="345.6" style="fill: #ff0000; fill-opacity: 0.2; stroke: #ff0000; stroke-opacity: 0.2"/>
    </g>
   </g>
   <g id="matplotlib.axis_1">
    <g id="xtick_1">
     <g id="line2d_1">
      <defs>
       <path id="m435a6a2917" d="M 0 0 
L 0 3.5 
" style="stroke: #000000; stroke-width: 0.8"/>
      </defs>
      <g>
       <use xlink:href="#m435a6a2917" x="66.091364" y="303.64" style="stroke: #000000; stroke-width: 0.8"/>
      </g>
     </g>
     <g id="text_1">
      <!-- 0 -->
      <g transform="translate(62.910114 318.238437) scale(0.1 -0.1)">
       <defs>
        <path id="DejaVuSans-30" d="M 2034 4250 
Q 1547 4250 1301 3770 
Q 1056 3291 1056 2328 
Q 1056 1369 1301 889 
Q 1547 409 2034 409 
Q 2525 409 2770 889 
Q 3016 1369 3016 2328 
Q 3016 3291 2770 3770 
Q 2525 4250 2034 4250 
z
M 2034 4750 
Q 2819 4750 3233 4129 
Q 3647 3509 3647 2328 
Q 3647 1150 3233 529 
Q 2819 -91 2034 -91 
Q 1250 -91 836 529 
Q 422 1150 422 2328 
Q 422 3509 836 4129 
Q 1250 4750 2034 4750 
z
" transform="scale(0.015625)"/>
       </defs>
       <use xlink:href="#DejaVuSans-30"/>
      </g>
     </g>
    </g>
    <g id="xtick_2">
     <g id="line2d_2">
      <g>
       <use xlink:href="#m435a6a2917" x="140.709174" y="303.64" style="stroke: #000000; stroke-width: 0.8"/>
      </g>
     </g>
     <g id="text_2">
      <!-- 20 -->
      <g transform="translate(134.346674 318.238437) scale(0.1 -0.1)">
       <defs>
        <path id="DejaVuSans-32" d="M 1228 531 
L 3431 531 
L 3431 0 
L 469 0 
L 469 531 
Q 828 903 1448 1529 
Q 2069 2156 2228 2338 
Q 2531 2678 2651 2914 
Q 2772 3150 2772 3378 
Q 2772 3750 2511 3984 
Q 2250 4219 1831 4219 
Q 1534 4219 1204 4116 
Q 875 4013 500 3803 
L 500 4441 
Q 881 4594 1212 4672 
Q 1544 4750 1819 4750 
Q 2544 4750 2975 4387 
Q 3406 4025 3406 3419 
Q 3406 3131 3298 2873 
Q 3191 2616 2906 2266 
Q 2828 2175 2409 1742 
Q 1991 1309 1228 531 
z
" transform="scale(0.015625)"/>
       </defs>
       <use xlink:href="#DejaVuSans-32"/>
       <use xlink:href="#DejaVuSans-30" x="63.623047"/>
      </g>
     </g>
    </g>
    <g id="xtick_3">
     <g id="line2d_3">
      <g>
       <use xlink:href="#m435a6a2917" x="215.326985" y="303.64" style="stroke: #000000; stroke-width: 0.8"/>
      </g>
     </g>
     <g id="text_3">
      <!-- 40 -->
      <g transform="translate(208.964485 318.238437) scale(0.1 -0.1)">
       <defs>
        <path id="DejaVuSans-34" d="M 2419 4116 
L 825 1625 
L 2419 1625 
L 2419 4116 
z
M 2253 4666 
L 3047 4666 
L 3047 1625 
L 3713 1625 
L 3713 1100 
L 3047 1100 
L 3047 0 
L 2419 0 
L 2419 1100 
L 313 1100 
L 313 1709 
L 2253 4666 
z
" transform="scale(0.015625)"/>
       </defs>
       <use xlink:href="#DejaVuSans-34"/>
       <use xlink:href="#DejaVuSans-30" x="63.623047"/>
      </g>
     </g>
    </g>
    <g id="xtick_4">
     <g id="line2d_4">
      <g>
       <use xlink:href="#m435a6a2917" x="289.944796" y="303.64" style="stroke: #000000; stroke-width: 0.8"/>
      </g>
     </g>
     <g id="text_4">
      <!-- 60 -->
      <g transform="translate(283.582296 318.238437) scale(0.1 -0.1)">
       <defs>
        <path id="DejaVuSans-36" d="M 2113 2584 
Q 1688 2584 1439 2293 
Q 1191 2003 1191 1497 
Q 1191 994 1439 701 
Q 1688 409 2113 409 
Q 2538 409 2786 701 
Q 3034 994 3034 1497 
Q 3034 2003 2786 2293 
Q 2538 2584 2113 2584 
z
M 3366 4563 
L 3366 3988 
Q 3128 4100 2886 4159 
Q 2644 4219 2406 4219 
Q 1781 4219 1451 3797 
Q 1122 3375 1075 2522 
Q 1259 2794 1537 2939 
Q 1816 3084 2150 3084 
Q 2853 3084 3261 2657 
Q 3669 2231 3669 1497 
Q 3669 778 3244 343 
Q 2819 -91 2113 -91 
Q 1303 -91 875 529 
Q 447 1150 447 2328 
Q 447 3434 972 4092 
Q 1497 4750 2381 4750 
Q 2619 4750 2861 4703 
Q 3103 4656 3366 4563 
z
" transform="scale(0.015625)"/>
       </defs>
       <use xlink:href="#DejaVuSans-36"/>
       <use xlink:href="#DejaVuSans-30" x="63.623047"/>
      </g>
     </g>
    </g>
    <g id="xtick_5">
     <g id="line2d_5">
      <g>
       <use xlink:href="#m435a6a2917" x="364.562607" y="303.64" style="stroke: #000000; stroke-width: 0.8"/>
      </g>
     </g>
     <g id="text_5">
      <!-- 80 -->
      <g transform="translate(358.200107 318.238437) scale(0.1 -0.1)">
       <defs>
        <path id="DejaVuSans-38" d="M 2034 2216 
Q 1584 2216 1326 1975 
Q 1069 1734 1069 1313 
Q 1069 891 1326 650 
Q 1584 409 2034 409 
Q 2484 409 2743 651 
Q 3003 894 3003 1313 
Q 3003 1734 2745 1975 
Q 2488 2216 2034 2216 
z
M 1403 2484 
Q 997 2584 770 2862 
Q 544 3141 544 3541 
Q 544 4100 942 4425 
Q 1341 4750 2034 4750 
Q 2731 4750 3128 4425 
Q 3525 4100 3525 3541 
Q 3525 3141 3298 2862 
Q 3072 2584 2669 2484 
Q 3125 2378 3379 2068 
Q 3634 1759 3634 1313 
Q 3634 634 3220 271 
Q 2806 -91 2034 -91 
Q 1263 -91 848 271 
Q 434 634 434 1313 
Q 434 1759 690 2068 
Q 947 2378 1403 2484 
z
M 1172 3481 
Q 1172 3119 1398 2916 
Q 1625 2713 2034 2713 
Q 2441 2713 2670 2916 
Q 2900 3119 2900 3481 
Q 2900 3844 2670 4047 
Q 2441 4250 2034 4250 
Q 1625 4250 1398 4047 
Q 1172 3844 1172 3481 
z
" transform="scale(0.015625)"/>
       </defs>
       <use xlink:href="#DejaVuSans-38"/>
       <use xlink:href="#DejaVuSans-30" x="63.623047"/>
      </g>
     </g>
    </g>
    <g id="xtick_6">
     <g id="line2d_6">
      <g>
       <use xlink:href="#m435a6a2917" x="439.180417" y="303.64" style="stroke: #000000; stroke-width: 0.8"/>
      </g>
     </g>
     <g id="text_6">
      <!-- 100 -->
      <g transform="translate(429.636667 318.238437) scale(0.1 -0.1)">
       <defs>
        <path id="DejaVuSans-31" d="M 794 531 
L 1825 531 
L 1825 4091 
L 703 3866 
L 703 4441 
L 1819 4666 
L 2450 4666 
L 2450 531 
L 3481 531 
L 3481 0 
L 794 0 
L 794 531 
z
" transform="scale(0.015625)"/>
       </defs>
       <use xlink:href="#DejaVuSans-31"/>
       <use xlink:href="#DejaVuSans-30" x="63.623047"/>
       <use xlink:href="#DejaVuSans-30" x="127.246094"/>
      </g>
     </g>
    </g>
    <g id="text_7">
     <!-- Iteration -->
     <g transform="translate(227.696406 331.916562) scale(0.1 -0.1)">
      <defs>
       <path id="DejaVuSans-49" d="M 628 4666 
L 1259 4666 
L 1259 0 
L 628 0 
L 628 4666 
z
" transform="scale(0.015625)"/>
       <path id="DejaVuSans-74" d="M 1172 4494 
L 1172 3500 
L 2356 3500 
L 2356 3053 
L 1172 3053 
L 1172 1153 
Q 1172 725 1289 603 
Q 1406 481 1766 481 
L 2356 481 
L 2356 0 
L 1766 0 
Q 1100 0 847 248 
Q 594 497 594 1153 
L 594 3053 
L 172 3053 
L 172 3500 
L 594 3500 
L 594 4494 
L 1172 4494 
z
" transform="scale(0.015625)"/>
       <path id="DejaVuSans-65" d="M 3597 1894 
L 3597 1613 
L 953 1613 
Q 991 1019 1311 708 
Q 1631 397 2203 397 
Q 2534 397 2845 478 
Q 3156 559 3463 722 
L 3463 178 
Q 3153 47 2828 -22 
Q 2503 -91 2169 -91 
Q 1331 -91 842 396 
Q 353 884 353 1716 
Q 353 2575 817 3079 
Q 1281 3584 2069 3584 
Q 2775 3584 3186 3129 
Q 3597 2675 3597 1894 
z
M 3022 2063 
Q 3016 2534 2758 2815 
Q 2500 3097 2075 3097 
Q 1594 3097 1305 2825 
Q 1016 2553 972 2059 
L 3022 2063 
z
" transform="scale(0.015625)"/>
       <path id="DejaVuSans-72" d="M 2631 2963 
Q 2534 3019 2420 3045 
Q 2306 3072 2169 3072 
Q 1681 3072 1420 2755 
Q 1159 2438 1159 1844 
L 1159 0 
L 581 0 
L 581 3500 
L 1159 3500 
L 1159 2956 
Q 1341 3275 1631 3429 
Q 1922 3584 2338 3584 
Q 2397 3584 2469 3576 
Q 2541 3569 2628 3553 
L 2631 2963 
z
" transform="scale(0.015625)"/>
       <path id="DejaVuSans-61" d="M 2194 1759 
Q 1497 1759 1228 1600 
Q 959 1441 959 1056 
Q 959 750 1161 570 
Q 1363 391 1709 391 
Q 2188 391 2477 730 
Q 2766 1069 2766 1631 
L 2766 1759 
L 2194 1759 
z
M 3341 1997 
L 3341 0 
L 2766 0 
L 2766 531 
Q 2569 213 2275 61 
Q 1981 -91 1556 -91 
Q 1019 -91 701 211 
Q 384 513 384 1019 
Q 384 1609 779 1909 
Q 1175 2209 1959 2209 
L 2766 2209 
L 2766 2266 
Q 2766 2663 2505 2880 
Q 2244 3097 1772 3097 
Q 1472 3097 1187 3025 
Q 903 2953 641 2809 
L 641 3341 
Q 956 3463 1253 3523 
Q 1550 3584 1831 3584 
Q 2591 3584 2966 3190 
Q 3341 2797 3341 1997 
z
" transform="scale(0.015625)"/>
       <path id="DejaVuSans-69" d="M 603 3500 
L 1178 3500 
L 1178 0 
L 603 0 
L 603 3500 
z
M 603 4863 
L 1178 4863 
L 1178 4134 
L 603 4134 
L 603 4863 
z
" transform="scale(0.015625)"/>
       <path id="DejaVuSans-6f" d="M 1959 3097 
Q 1497 3097 1228 2736 
Q 959 2375 959 1747 
Q 959 1119 1226 758 
Q 1494 397 1959 397 
Q 2419 397 2687 759 
Q 2956 1122 2956 1747 
Q 2956 2369 2687 2733 
Q 2419 3097 1959 3097 
z
M 1959 3584 
Q 2709 3584 3137 3096 
Q 3566 2609 3566 1747 
Q 3566 888 3137 398 
Q 2709 -91 1959 -91 
Q 1206 -91 779 398 
Q 353 888 353 1747 
Q 353 2609 779 3096 
Q 1206 3584 1959 3584 
z
" transform="scale(0.015625)"/>
       <path id="DejaVuSans-6e" d="M 3513 2113 
L 3513 0 
L 2938 0 
L 2938 2094 
Q 2938 2591 2744 2837 
Q 2550 3084 2163 3084 
Q 1697 3084 1428 2787 
Q 1159 2491 1159 1978 
L 1159 0 
L 581 0 
L 581 3500 
L 1159 3500 
L 1159 2956 
Q 1366 3272 1645 3428 
Q 1925 3584 2291 3584 
Q 2894 3584 3203 3211 
Q 3513 2838 3513 2113 
z
" transform="scale(0.015625)"/>
      </defs>
      <use xlink:href="#DejaVuSans-49"/>
      <use xlink:href="#DejaVuSans-74" x="29.492188"/>
      <use xlink:href="#DejaVuSans-65" x="68.701172"/>
      <use xlink:href="#DejaVuSans-72" x="130.224609"/>
      <use xlink:href="#DejaVuSans-61" x="171.337891"/>
      <use xlink:href="#DejaVuSans-74" x="232.617188"/>
      <use xlink:href="#DejaVuSans-69" x="271.826172"/>
      <use xlink:href="#DejaVuSans-6f" x="299.609375"/>
      <use xlink:href="#DejaVuSans-6e" x="360.791016"/>
     </g>
    </g>
   </g>
   <g id="matplotlib.axis_2">
    <g id="ytick_1">
     <g id="line2d_7">
      <defs>
       <path id="m91fe590103" d="M 0 0 
L -3.5 0 
" style="stroke: #000000; stroke-width: 0.8"/>
      </defs>
      <g>
       <use xlink:href="#m91fe590103" x="47.81" y="290.994545" style="stroke: #000000; stroke-width: 0.8"/>
      </g>
     </g>
     <g id="text_8">
      <!-- 0.0 -->
      <g transform="translate(24.906875 294.793764) scale(0.1 -0.1)">
       <defs>
        <path id="DejaVuSans-2e" d="M 684 794 
L 1344 794 
L 1344 0 
L 684 0 
L 684 794 
z
" transform="scale(0.015625)"/>
       </defs>
       <use xlink:href="#DejaVuSans-30"/>
       <use xlink:href="#DejaVuSans-2e" x="63.623047"/>
       <use xlink:href="#DejaVuSans-30" x="95.410156"/>
      </g>
     </g>
    </g>
    <g id="ytick_2">
     <g id="line2d_8">
      <g>
       <use xlink:href="#m91fe590103" x="47.81" y="240.412727" style="stroke: #000000; stroke-width: 0.8"/>
      </g>
     </g>
     <g id="text_9">
      <!-- 0.2 -->
      <g transform="translate(24.906875 244.211946) scale(0.1 -0.1)">
       <use xlink:href="#DejaVuSans-30"/>
       <use xlink:href="#DejaVuSans-2e" x="63.623047"/>
       <use xlink:href="#DejaVuSans-32" x="95.410156"/>
      </g>
     </g>
    </g>
    <g id="ytick_3">
     <g id="line2d_9">
      <g>
       <use xlink:href="#m91fe590103" x="47.81" y="189.830909" style="stroke: #000000; stroke-width: 0.8"/>
      </g>
     </g>
     <g id="text_10">
      <!-- 0.4 -->
      <g transform="translate(24.906875 193.630128) scale(0.1 -0.1)">
       <use xlink:href="#DejaVuSans-30"/>
       <use xlink:href="#DejaVuSans-2e" x="63.623047"/>
       <use xlink:href="#DejaVuSans-34" x="95.410156"/>
      </g>
     </g>
    </g>
    <g id="ytick_4">
     <g id="line2d_10">
      <g>
       <use xlink:href="#m91fe590103" x="47.81" y="139.249091" style="stroke: #000000; stroke-width: 0.8"/>
      </g>
     </g>
     <g id="text_11">
      <!-- 0.6 -->
      <g transform="translate(24.906875 143.04831) scale(0.1 -0.1)">
       <use xlink:href="#DejaVuSans-30"/>
       <use xlink:href="#DejaVuSans-2e" x="63.623047"/>
       <use xlink:href="#DejaVuSans-36" x="95.410156"/>
      </g>
     </g>
    </g>
    <g id="ytick_5">
     <g id="line2d_11">
      <g>
       <use xlink:href="#m91fe590103" x="47.81" y="88.667273" style="stroke: #000000; stroke-width: 0.8"/>
      </g>
     </g>
     <g id="text_12">
      <!-- 0.8 -->
      <g transform="translate(24.906875 92.466491) scale(0.1 -0.1)">
       <use xlink:href="#DejaVuSans-30"/>
       <use xlink:href="#DejaVuSans-2e" x="63.623047"/>
       <use xlink:href="#DejaVuSans-38" x="95.410156"/>
      </g>
     </g>
    </g>
    <g id="ytick_6">
     <g id="line2d_12">
      <g>
       <use xlink:href="#m91fe590103" x="47.81" y="38.085455" style="stroke: #000000; stroke-width: 0.8"/>
      </g>
     </g>
     <g id="text_13">
      <!-- 1.0 -->
      <g transform="translate(24.906875 41.884673) scale(0.1 -0.1)">
       <use xlink:href="#DejaVuSans-31"/>
       <use xlink:href="#DejaVuSans-2e" x="63.623047"/>
       <use xlink:href="#DejaVuSans-30" x="95.410156"/>
      </g>
     </g>
    </g>
    <g id="text_14">
     <!-- Similarity -->
     <g transform="translate(18.827187 188.179844) rotate(-90) scale(0.1 -0.1)">
      <defs>
       <path id="DejaVuSans-53" d="M 3425 4513 
L 3425 3897 
Q 3066 4069 2747 4153 
Q 2428 4238 2131 4238 
Q 1616 4238 1336 4038 
Q 1056 3838 1056 3469 
Q 1056 3159 1242 3001 
Q 1428 2844 1947 2747 
L 2328 2669 
Q 3034 2534 3370 2195 
Q 3706 1856 3706 1288 
Q 3706 609 3251 259 
Q 2797 -91 1919 -91 
Q 1588 -91 1214 -16 
Q 841 59 441 206 
L 441 856 
Q 825 641 1194 531 
Q 1563 422 1919 422 
Q 2459 422 2753 634 
Q 3047 847 3047 1241 
Q 3047 1584 2836 1778 
Q 2625 1972 2144 2069 
L 1759 2144 
Q 1053 2284 737 2584 
Q 422 2884 422 3419 
Q 422 4038 858 4394 
Q 1294 4750 2059 4750 
Q 2388 4750 2728 4690 
Q 3069 4631 3425 4513 
z
" transform="scale(0.015625)"/>
       <path id="DejaVuSans-6d" d="M 3328 2828 
Q 3544 3216 3844 3400 
Q 4144 3584 4550 3584 
Q 5097 3584 5394 3201 
Q 5691 2819 5691 2113 
L 5691 0 
L 5113 0 
L 5113 2094 
Q 5113 2597 4934 2840 
Q 4756 3084 4391 3084 
Q 3944 3084 3684 2787 
Q 3425 2491 3425 1978 
L 3425 0 
L 2847 0 
L 2847 2094 
Q 2847 2600 2669 2842 
Q 2491 3084 2119 3084 
Q 1678 3084 1418 2786 
Q 1159 2488 1159 1978 
L 1159 0 
L 581 0 
L 581 3500 
L 1159 3500 
L 1159 2956 
Q 1356 3278 1631 3431 
Q 1906 3584 2284 3584 
Q 2666 3584 2933 3390 
Q 3200 3197 3328 2828 
z
" transform="scale(0.015625)"/>
       <path id="DejaVuSans-6c" d="M 603 4863 
L 1178 4863 
L 1178 0 
L 603 0 
L 603 4863 
z
" transform="scale(0.015625)"/>
       <path id="DejaVuSans-79" d="M 2059 -325 
Q 1816 -950 1584 -1140 
Q 1353 -1331 966 -1331 
L 506 -1331 
L 506 -850 
L 844 -850 
Q 1081 -850 1212 -737 
Q 1344 -625 1503 -206 
L 1606 56 
L 191 3500 
L 800 3500 
L 1894 763 
L 2988 3500 
L 3597 3500 
L 2059 -325 
z
" transform="scale(0.015625)"/>
      </defs>
      <use xlink:href="#DejaVuSans-53"/>
      <use xlink:href="#DejaVuSans-69" x="63.476562"/>
      <use xlink:href="#DejaVuSans-6d" x="91.259766"/>
      <use xlink:href="#DejaVuSans-69" x="188.671875"/>
      <use xlink:href="#DejaVuSans-6c" x="216.455078"/>
      <use xlink:href="#DejaVuSans-61" x="244.238281"/>
      <use xlink:href="#DejaVuSans-72" x="305.517578"/>
      <use xlink:href="#DejaVuSans-69" x="346.630859"/>
      <use xlink:href="#DejaVuSans-74" x="374.414062"/>
      <use xlink:href="#DejaVuSans-79" x="413.623047"/>
     </g>
    </g>
   </g>
   <g id="line2d_13">
    <path d="M 66.091364 124.074545 
L 69.822254 93.725455 
L 73.553145 76.864848 
L 77.284035 69.699091 
L 81.014926 63.376364 
L 84.745816 61.690303 
L 88.476707 59.763377 
L 92.207597 58.318182 
L 95.938488 57.756162 
L 99.669378 59.329818 
L 103.400269 58.318182 
L 107.13116 57.896667 
L 110.86205 56.761818 
L 114.592941 55.789091 
L 118.323831 54.946061 
L 122.054722 54.524545 
L 125.785612 54.747701 
L 129.516503 54.10303 
L 133.247393 53.52622 
L 136.978284 53.26 
L 140.709174 53.26 
L 144.440065 53.030083 
L 148.170955 53.040079 
L 151.901846 53.26 
L 155.632737 53.057673 
L 159.363627 53.065455 
L 163.094518 52.88532 
L 166.825408 52.898701 
L 170.556299 52.91116 
L 174.287189 52.754182 
L 178.01808 52.770499 
L 181.74897 53.101932 
L 185.479861 52.953444 
L 189.210751 53.26 
L 192.941642 53.549039 
L 196.672532 53.54101 
L 200.403423 53.26 
L 204.134314 53.26 
L 207.865204 53.130303 
L 211.596095 53.133545 
L 215.326985 52.889889 
L 219.057876 52.898701 
L 222.788766 53.26 
L 226.519657 53.489917 
L 230.250547 53.597212 
L 233.981438 53.589881 
L 237.712328 53.582863 
L 241.443219 53.681515 
L 245.174109 53.982597 
L 248.905 53.866982 
L 252.635891 54.05344 
L 256.366781 53.940909 
L 260.097672 54.023499 
L 263.828562 53.72835 
L 267.559453 53.627868 
L 271.290343 53.440649 
L 275.021234 53.26 
L 278.752124 53.26 
L 282.483015 53.26 
L 286.213905 53.091394 
L 289.944796 52.928316 
L 293.675686 52.933666 
L 297.406577 52.938846 
L 301.137468 52.785795 
L 304.868358 52.637455 
L 308.599249 52.41697 
L 312.330139 52.203066 
L 316.06103 51.995455 
L 319.79192 51.940474 
L 323.522811 51.887065 
L 327.253701 51.83516 
L 330.984592 51.644192 
L 334.715482 51.597036 
L 338.446373 51.482801 
L 342.177263 51.573939 
L 345.908154 51.529569 
L 349.639045 51.420661 
L 353.369935 51.314545 
L 357.100826 51.211116 
L 360.831716 51.1735 
L 364.562607 51.324153 
L 368.293497 51.22439 
L 372.024388 51.309858 
L 375.755278 51.212641 
L 379.486169 51.236727 
L 383.217059 51.142622 
L 386.94795 51.341379 
L 390.67884 51.248223 
L 394.409731 51.384494 
L 398.140622 51.517737 
L 401.871512 51.648052 
L 405.602403 51.610593 
L 409.333293 51.682717 
L 413.064184 51.807118 
L 416.795074 51.875656 
L 420.525965 51.942765 
L 424.256855 52.008491 
L 427.987746 51.866419 
L 431.718636 52.084867 
" clip-path="url(#pb11071b048)" style="fill: none; stroke: #0000ff; stroke-linecap: square"/>
    <defs>
     <path id="m92895de820" d="M -0.49999 0.49999 
L 0.50001 0.49999 
L 0.50001 -0.50001 
L -0.49999 -0.50001 
z
"/>
    </defs>
    <g clip-path="url(#pb11071b048)">
     <use xlink:href="#m92895de820" x="66.091364" y="124.074545" style="fill: #0000ff"/>
     <use xlink:href="#m92895de820" x="69.822254" y="93.725455" style="fill: #0000ff"/>
     <use xlink:href="#m92895de820" x="73.553145" y="76.864848" style="fill: #0000ff"/>
     <use xlink:href="#m92895de820" x="77.284035" y="69.699091" style="fill: #0000ff"/>
     <use xlink:href="#m92895de820" x="81.014926" y="63.376364" style="fill: #0000ff"/>
     <use xlink:href="#m92895de820" x="84.745816" y="61.690303" style="fill: #0000ff"/>
     <use xlink:href="#m92895de820" x="88.476707" y="59.763377" style="fill: #0000ff"/>
     <use xlink:href="#m92895de820" x="92.207597" y="58.318182" style="fill: #0000ff"/>
     <use xlink:href="#m92895de820" x="95.938488" y="57.756162" style="fill: #0000ff"/>
     <use xlink:href="#m92895de820" x="99.669378" y="59.329818" style="fill: #0000ff"/>
     <use xlink:href="#m92895de820" x="103.400269" y="58.318182" style="fill: #0000ff"/>
     <use xlink:href="#m92895de820" x="107.13116" y="57.896667" style="fill: #0000ff"/>
     <use xlink:href="#m92895de820" x="110.86205" y="56.761818" style="fill: #0000ff"/>
     <use xlink:href="#m92895de820" x="114.592941" y="55.789091" style="fill: #0000ff"/>
     <use xlink:href="#m92895de820" x="118.323831" y="54.946061" style="fill: #0000ff"/>
     <use xlink:href="#m92895de820" x="122.054722" y="54.524545" style="fill: #0000ff"/>
     <use xlink:href="#m92895de820" x="125.785612" y="54.747701" style="fill: #0000ff"/>
     <use xlink:href="#m92895de820" x="129.516503" y="54.10303" style="fill: #0000ff"/>
     <use xlink:href="#m92895de820" x="133.247393" y="53.52622" style="fill: #0000ff"/>
     <use xlink:href="#m92895de820" x="136.978284" y="53.26" style="fill: #0000ff"/>
     <use xlink:href="#m92895de820" x="140.709174" y="53.26" style="fill: #0000ff"/>
     <use xlink:href="#m92895de820" x="144.440065" y="53.030083" style="fill: #0000ff"/>
     <use xlink:href="#m92895de820" x="148.170955" y="53.040079" style="fill: #0000ff"/>
     <use xlink:href="#m92895de820" x="151.901846" y="53.26" style="fill: #0000ff"/>
     <use xlink:href="#m92895de820" x="155.632737" y="53.057673" style="fill: #0000ff"/>
     <use xlink:href="#m92895de820" x="159.363627" y="53.065455" style="fill: #0000ff"/>
     <use xlink:href="#m92895de820" x="163.094518" y="52.88532" style="fill: #0000ff"/>
     <use xlink:href="#m92895de820" x="166.825408" y="52.898701" style="fill: #0000ff"/>
     <use xlink:href="#m92895de820" x="170.556299" y="52.91116" style="fill: #0000ff"/>
     <use xlink:href="#m92895de820" x="174.287189" y="52.754182" style="fill: #0000ff"/>
     <use xlink:href="#m92895de820" x="178.01808" y="52.770499" style="fill: #0000ff"/>
     <use xlink:href="#m92895de820" x="181.74897" y="53.101932" style="fill: #0000ff"/>
     <use xlink:href="#m92895de820" x="185.479861" y="52.953444" style="fill: #0000ff"/>
     <use xlink:href="#m92895de820" x="189.210751" y="53.26" style="fill: #0000ff"/>
     <use xlink:href="#m92895de820" x="192.941642" y="53.549039" style="fill: #0000ff"/>
     <use xlink:href="#m92895de820" x="196.672532" y="53.54101" style="fill: #0000ff"/>
     <use xlink:href="#m92895de820" x="200.403423" y="53.26" style="fill: #0000ff"/>
     <use xlink:href="#m92895de820" x="204.134314" y="53.26" style="fill: #0000ff"/>
     <use xlink:href="#m92895de820" x="207.865204" y="53.130303" style="fill: #0000ff"/>
     <use xlink:href="#m92895de820" x="211.596095" y="53.133545" style="fill: #0000ff"/>
     <use xlink:href="#m92895de820" x="215.326985" y="52.889889" style="fill: #0000ff"/>
     <use xlink:href="#m92895de820" x="219.057876" y="52.898701" style="fill: #0000ff"/>
     <use xlink:href="#m92895de820" x="222.788766" y="53.26" style="fill: #0000ff"/>
     <use xlink:href="#m92895de820" x="226.519657" y="53.489917" style="fill: #0000ff"/>
     <use xlink:href="#m92895de820" x="230.250547" y="53.597212" style="fill: #0000ff"/>
     <use xlink:href="#m92895de820" x="233.981438" y="53.589881" style="fill: #0000ff"/>
     <use xlink:href="#m92895de820" x="237.712328" y="53.582863" style="fill: #0000ff"/>
     <use xlink:href="#m92895de820" x="241.443219" y="53.681515" style="fill: #0000ff"/>
     <use xlink:href="#m92895de820" x="245.174109" y="53.982597" style="fill: #0000ff"/>
     <use xlink:href="#m92895de820" x="248.905" y="53.866982" style="fill: #0000ff"/>
     <use xlink:href="#m92895de820" x="252.635891" y="54.05344" style="fill: #0000ff"/>
     <use xlink:href="#m92895de820" x="256.366781" y="53.940909" style="fill: #0000ff"/>
     <use xlink:href="#m92895de820" x="260.097672" y="54.023499" style="fill: #0000ff"/>
     <use xlink:href="#m92895de820" x="263.828562" y="53.72835" style="fill: #0000ff"/>
     <use xlink:href="#m92895de820" x="267.559453" y="53.627868" style="fill: #0000ff"/>
     <use xlink:href="#m92895de820" x="271.290343" y="53.440649" style="fill: #0000ff"/>
     <use xlink:href="#m92895de820" x="275.021234" y="53.26" style="fill: #0000ff"/>
     <use xlink:href="#m92895de820" x="278.752124" y="53.26" style="fill: #0000ff"/>
     <use xlink:href="#m92895de820" x="282.483015" y="53.26" style="fill: #0000ff"/>
     <use xlink:href="#m92895de820" x="286.213905" y="53.091394" style="fill: #0000ff"/>
     <use xlink:href="#m92895de820" x="289.944796" y="52.928316" style="fill: #0000ff"/>
     <use xlink:href="#m92895de820" x="293.675686" y="52.933666" style="fill: #0000ff"/>
     <use xlink:href="#m92895de820" x="297.406577" y="52.938846" style="fill: #0000ff"/>
     <use xlink:href="#m92895de820" x="301.137468" y="52.785795" style="fill: #0000ff"/>
     <use xlink:href="#m92895de820" x="304.868358" y="52.637455" style="fill: #0000ff"/>
     <use xlink:href="#m92895de820" x="308.599249" y="52.41697" style="fill: #0000ff"/>
     <use xlink:href="#m92895de820" x="312.330139" y="52.203066" style="fill: #0000ff"/>
     <use xlink:href="#m92895de820" x="316.06103" y="51.995455" style="fill: #0000ff"/>
     <use xlink:href="#m92895de820" x="319.79192" y="51.940474" style="fill: #0000ff"/>
     <use xlink:href="#m92895de820" x="323.522811" y="51.887065" style="fill: #0000ff"/>
     <use xlink:href="#m92895de820" x="327.253701" y="51.83516" style="fill: #0000ff"/>
     <use xlink:href="#m92895de820" x="330.984592" y="51.644192" style="fill: #0000ff"/>
     <use xlink:href="#m92895de820" x="334.715482" y="51.597036" style="fill: #0000ff"/>
     <use xlink:href="#m92895de820" x="338.446373" y="51.482801" style="fill: #0000ff"/>
     <use xlink:href="#m92895de820" x="342.177263" y="51.573939" style="fill: #0000ff"/>
     <use xlink:href="#m92895de820" x="345.908154" y="51.529569" style="fill: #0000ff"/>
     <use xlink:href="#m92895de820" x="349.639045" y="51.420661" style="fill: #0000ff"/>
     <use xlink:href="#m92895de820" x="353.369935" y="51.314545" style="fill: #0000ff"/>
     <use xlink:href="#m92895de820" x="357.100826" y="51.211116" style="fill: #0000ff"/>
     <use xlink:href="#m92895de820" x="360.831716" y="51.1735" style="fill: #0000ff"/>
     <use xlink:href="#m92895de820" x="364.562607" y="51.324153" style="fill: #0000ff"/>
     <use xlink:href="#m92895de820" x="368.293497" y="51.22439" style="fill: #0000ff"/>
     <use xlink:href="#m92895de820" x="372.024388" y="51.309858" style="fill: #0000ff"/>
     <use xlink:href="#m92895de820" x="375.755278" y="51.212641" style="fill: #0000ff"/>
     <use xlink:href="#m92895de820" x="379.486169" y="51.236727" style="fill: #0000ff"/>
     <use xlink:href="#m92895de820" x="383.217059" y="51.142622" style="fill: #0000ff"/>
     <use xlink:href="#m92895de820" x="386.94795" y="51.341379" style="fill: #0000ff"/>
     <use xlink:href="#m92895de820" x="390.67884" y="51.248223" style="fill: #0000ff"/>
     <use xlink:href="#m92895de820" x="394.409731" y="51.384494" style="fill: #0000ff"/>
     <use xlink:href="#m92895de820" x="398.140622" y="51.517737" style="fill: #0000ff"/>
     <use xlink:href="#m92895de820" x="401.871512" y="51.648052" style="fill: #0000ff"/>
     <use xlink:href="#m92895de820" x="405.602403" y="51.610593" style="fill: #0000ff"/>
     <use xlink:href="#m92895de820" x="409.333293" y="51.682717" style="fill: #0000ff"/>
     <use xlink:href="#m92895de820" x="413.064184" y="51.807118" style="fill: #0000ff"/>
     <use xlink:href="#m92895de820" x="416.795074" y="51.875656" style="fill: #0000ff"/>
     <use xlink:href="#m92895de820" x="420.525965" y="51.942765" style="fill: #0000ff"/>
     <use xlink:href="#m92895de820" x="424.256855" y="52.008491" style="fill: #0000ff"/>
     <use xlink:href="#m92895de820" x="427.987746" y="51.866419" style="fill: #0000ff"/>
     <use xlink:href="#m92895de820" x="431.718636" y="52.084867" style="fill: #0000ff"/>
    </g>
   </g>
   <g id="line2d_14">
    <path d="M 66.091364 124.074545 
L 69.822254 108.9 
L 73.553145 98.221616 
L 77.284035 91.090985 
L 81.014926 85.548061 
L 84.745816 81.571768 
L 88.476707 78.456283 
L 92.207597 75.939021 
L 95.938488 73.918703 
L 99.669378 72.459814 
L 103.400269 71.174211 
L 107.13116 70.067749 
L 110.86205 69.044216 
L 114.592941 68.097422 
L 118.323831 67.220664 
L 122.054722 66.427157 
L 125.785612 65.74013 
L 129.516503 65.093624 
L 133.247393 64.484814 
L 136.978284 63.923573 
L 140.709174 63.415784 
L 144.440065 62.943706 
L 148.170955 62.513114 
L 151.901846 62.127568 
L 155.632737 61.764772 
L 159.363627 61.430183 
L 163.094518 61.113706 
L 166.825408 60.820313 
L 170.556299 60.547584 
L 174.287189 60.287804 
L 178.01808 60.04531 
L 181.74897 59.828329 
L 185.479861 59.62 
L 189.210751 59.432941 
L 192.941642 59.264829 
L 196.672532 59.105834 
L 200.403423 58.947839 
L 204.134314 58.798159 
L 207.865204 58.652829 
L 211.596095 58.514847 
L 215.326985 58.377653 
L 219.057876 58.247202 
L 222.788766 58.13122 
L 226.519657 58.025736 
L 230.250547 57.927324 
L 233.981438 57.833032 
L 237.712328 57.742603 
L 241.443219 57.657997 
L 245.174109 57.582989 
L 248.905 57.508669 
L 252.635891 57.440919 
L 256.366781 57.373611 
L 260.097672 57.310402 
L 263.828562 57.244067 
L 267.559453 57.178318 
L 271.290343 57.111574 
L 275.021234 57.044003 
L 278.752124 56.978761 
L 282.483015 56.915731 
L 286.213905 56.851993 
L 289.944796 56.78767 
L 293.675686 56.725509 
L 297.406577 56.665403 
L 301.137468 56.604784 
L 304.868358 56.543748 
L 308.599249 56.481221 
L 312.330139 56.417368 
L 316.06103 56.35234 
L 319.79192 56.2884 
L 323.522811 56.225524 
L 327.253701 56.163688 
L 330.984592 56.100917 
L 334.715482 56.03922 
L 338.446373 55.977647 
L 342.177263 55.91893 
L 345.908154 55.861176 
L 349.639045 55.803507 
L 353.369935 55.745956 
L 357.100826 55.688553 
L 360.831716 55.632115 
L 364.562607 55.57893 
L 368.293497 55.525826 
L 372.024388 55.475031 
L 375.755278 55.424288 
L 379.486169 55.375023 
L 383.217059 55.325809 
L 386.94795 55.280011 
L 390.67884 55.234195 
L 394.409731 55.19094 
L 398.140622 55.150127 
L 401.871512 55.111642 
L 405.602403 55.073587 
L 409.333293 55.037127 
L 413.064184 55.002765 
L 416.795074 54.969848 
L 420.525965 54.938316 
L 424.256855 54.908111 
L 427.987746 54.877074 
L 431.718636 54.84887 
" clip-path="url(#pb11071b048)" style="fill: none; stroke: #ff0000; stroke-opacity: 0.5; stroke-width: 0.5; stroke-linecap: square"/>
    <defs>
     <path id="m29be3c3fe1" d="M -0.49999 0.49999 
L 0.50001 0.49999 
L 0.50001 -0.50001 
L -0.49999 -0.50001 
z
"/>
    </defs>
    <g clip-path="url(#pb11071b048)">
     <use xlink:href="#m29be3c3fe1" x="66.091364" y="124.074545" style="fill: #ff0000; fill-opacity: 0.5"/>
     <use xlink:href="#m29be3c3fe1" x="69.822254" y="108.9" style="fill: #ff0000; fill-opacity: 0.5"/>
     <use xlink:href="#m29be3c3fe1" x="73.553145" y="98.221616" style="fill: #ff0000; fill-opacity: 0.5"/>
     <use xlink:href="#m29be3c3fe1" x="77.284035" y="91.090985" style="fill: #ff0000; fill-opacity: 0.5"/>
     <use xlink:href="#m29be3c3fe1" x="81.014926" y="85.548061" style="fill: #ff0000; fill-opacity: 0.5"/>
     <use xlink:href="#m29be3c3fe1" x="84.745816" y="81.571768" style="fill: #ff0000; fill-opacity: 0.5"/>
     <use xlink:href="#m29be3c3fe1" x="88.476707" y="78.456283" style="fill: #ff0000; fill-opacity: 0.5"/>
     <use xlink:href="#m29be3c3fe1" x="92.207597" y="75.939021" style="fill: #ff0000; fill-opacity: 0.5"/>
     <use xlink:href="#m29be3c3fe1" x="95.938488" y="73.918703" style="fill: #ff0000; fill-opacity: 0.5"/>
     <use xlink:href="#m29be3c3fe1" x="99.669378" y="72.459814" style="fill: #ff0000; fill-opacity: 0.5"/>
     <use xlink:href="#m29be3c3fe1" x="103.400269" y="71.174211" style="fill: #ff0000; fill-opacity: 0.5"/>
     <use xlink:href="#m29be3c3fe1" x="107.13116" y="70.067749" style="fill: #ff0000; fill-opacity: 0.5"/>
     <use xlink:href="#m29be3c3fe1" x="110.86205" y="69.044216" style="fill: #ff0000; fill-opacity: 0.5"/>
     <use xlink:href="#m29be3c3fe1" x="114.592941" y="68.097422" style="fill: #ff0000; fill-opacity: 0.5"/>
     <use xlink:href="#m29be3c3fe1" x="118.323831" y="67.220664" style="fill: #ff0000; fill-opacity: 0.5"/>
     <use xlink:href="#m29be3c3fe1" x="122.054722" y="66.427157" style="fill: #ff0000; fill-opacity: 0.5"/>
     <use xlink:href="#m29be3c3fe1" x="125.785612" y="65.74013" style="fill: #ff0000; fill-opacity: 0.5"/>
     <use xlink:href="#m29be3c3fe1" x="129.516503" y="65.093624" style="fill: #ff0000; fill-opacity: 0.5"/>
     <use xlink:href="#m29be3c3fe1" x="133.247393" y="64.484814" style="fill: #ff0000; fill-opacity: 0.5"/>
     <use xlink:href="#m29be3c3fe1" x="136.978284" y="63.923573" style="fill: #ff0000; fill-opacity: 0.5"/>
     <use xlink:href="#m29be3c3fe1" x="140.709174" y="63.415784" style="fill: #ff0000; fill-opacity: 0.5"/>
     <use xlink:href="#m29be3c3fe1" x="144.440065" y="62.943706" style="fill: #ff0000; fill-opacity: 0.5"/>
     <use xlink:href="#m29be3c3fe1" x="148.170955" y="62.513114" style="fill: #ff0000; fill-opacity: 0.5"/>
     <use xlink:href="#m29be3c3fe1" x="151.901846" y="62.127568" style="fill: #ff0000; fill-opacity: 0.5"/>
     <use xlink:href="#m29be3c3fe1" x="155.632737" y="61.764772" style="fill: #ff0000; fill-opacity: 0.5"/>
     <use xlink:href="#m29be3c3fe1" x="159.363627" y="61.430183" style="fill: #ff0000; fill-opacity: 0.5"/>
     <use xlink:href="#m29be3c3fe1" x="163.094518" y="61.113706" style="fill: #ff0000; fill-opacity: 0.5"/>
     <use xlink:href="#m29be3c3fe1" x="166.825408" y="60.820313" style="fill: #ff0000; fill-opacity: 0.5"/>
     <use xlink:href="#m29be3c3fe1" x="170.556299" y="60.547584" style="fill: #ff0000; fill-opacity: 0.5"/>
     <use xlink:href="#m29be3c3fe1" x="174.287189" y="60.287804" style="fill: #ff0000; fill-opacity: 0.5"/>
     <use xlink:href="#m29be3c3fe1" x="178.01808" y="60.04531" style="fill: #ff0000; fill-opacity: 0.5"/>
     <use xlink:href="#m29be3c3fe1" x="181.74897" y="59.828329" style="fill: #ff0000; fill-opacity: 0.5"/>
     <use xlink:href="#m29be3c3fe1" x="185.479861" y="59.62" style="fill: #ff0000; fill-opacity: 0.5"/>
     <use xlink:href="#m29be3c3fe1" x="189.210751" y="59.432941" style="fill: #ff0000; fill-opacity: 0.5"/>
     <use xlink:href="#m29be3c3fe1" x="192.941642" y="59.264829" style="fill: #ff0000; fill-opacity: 0.5"/>
     <use xlink:href="#m29be3c3fe1" x="196.672532" y="59.105834" style="fill: #ff0000; fill-opacity: 0.5"/>
     <use xlink:href="#m29be3c3fe1" x="200.403423" y="58.947839" style="fill: #ff0000; fill-opacity: 0.5"/>
     <use xlink:href="#m29be3c3fe1" x="204.134314" y="58.798159" style="fill: #ff0000; fill-opacity: 0.5"/>
     <use xlink:href="#m29be3c3fe1" x="207.865204" y="58.652829" style="fill: #ff0000; fill-opacity: 0.5"/>
     <use xlink:href="#m29be3c3fe1" x="211.596095" y="58.514847" style="fill: #ff0000; fill-opacity: 0.5"/>
     <use xlink:href="#m29be3c3fe1" x="215.326985" y="58.377653" style="fill: #ff0000; fill-opacity: 0.5"/>
     <use xlink:href="#m29be3c3fe1" x="219.057876" y="58.247202" style="fill: #ff0000; fill-opacity: 0.5"/>
     <use xlink:href="#m29be3c3fe1" x="222.788766" y="58.13122" style="fill: #ff0000; fill-opacity: 0.5"/>
     <use xlink:href="#m29be3c3fe1" x="226.519657" y="58.025736" style="fill: #ff0000; fill-opacity: 0.5"/>
     <use xlink:href="#m29be3c3fe1" x="230.250547" y="57.927324" style="fill: #ff0000; fill-opacity: 0.5"/>
     <use xlink:href="#m29be3c3fe1" x="233.981438" y="57.833032" style="fill: #ff0000; fill-opacity: 0.5"/>
     <use xlink:href="#m29be3c3fe1" x="237.712328" y="57.742603" style="fill: #ff0000; fill-opacity: 0.5"/>
     <use xlink:href="#m29be3c3fe1" x="241.443219" y="57.657997" style="fill: #ff0000; fill-opacity: 0.5"/>
     <use xlink:href="#m29be3c3fe1" x="245.174109" y="57.582989" style="fill: #ff0000; fill-opacity: 0.5"/>
     <use xlink:href="#m29be3c3fe1" x="248.905" y="57.508669" style="fill: #ff0000; fill-opacity: 0.5"/>
     <use xlink:href="#m29be3c3fe1" x="252.635891" y="57.440919" style="fill: #ff0000; fill-opacity: 0.5"/>
     <use xlink:href="#m29be3c3fe1" x="256.366781" y="57.373611" style="fill: #ff0000; fill-opacity: 0.5"/>
     <use xlink:href="#m29be3c3fe1" x="260.097672" y="57.310402" style="fill: #ff0000; fill-opacity: 0.5"/>
     <use xlink:href="#m29be3c3fe1" x="263.828562" y="57.244067" style="fill: #ff0000; fill-opacity: 0.5"/>
     <use xlink:href="#m29be3c3fe1" x="267.559453" y="57.178318" style="fill: #ff0000; fill-opacity: 0.5"/>
     <use xlink:href="#m29be3c3fe1" x="271.290343" y="57.111574" style="fill: #ff0000; fill-opacity: 0.5"/>
     <use xlink:href="#m29be3c3fe1" x="275.021234" y="57.044003" style="fill: #ff0000; fill-opacity: 0.5"/>
     <use xlink:href="#m29be3c3fe1" x="278.752124" y="56.978761" style="fill: #ff0000; fill-opacity: 0.5"/>
     <use xlink:href="#m29be3c3fe1" x="282.483015" y="56.915731" style="fill: #ff0000; fill-opacity: 0.5"/>
     <use xlink:href="#m29be3c3fe1" x="286.213905" y="56.851993" style="fill: #ff0000; fill-opacity: 0.5"/>
     <use xlink:href="#m29be3c3fe1" x="289.944796" y="56.78767" style="fill: #ff0000; fill-opacity: 0.5"/>
     <use xlink:href="#m29be3c3fe1" x="293.675686" y="56.725509" style="fill: #ff0000; fill-opacity: 0.5"/>
     <use xlink:href="#m29be3c3fe1" x="297.406577" y="56.665403" style="fill: #ff0000; fill-opacity: 0.5"/>
     <use xlink:href="#m29be3c3fe1" x="301.137468" y="56.604784" style="fill: #ff0000; fill-opacity: 0.5"/>
     <use xlink:href="#m29be3c3fe1" x="304.868358" y="56.543748" style="fill: #ff0000; fill-opacity: 0.5"/>
     <use xlink:href="#m29be3c3fe1" x="308.599249" y="56.481221" style="fill: #ff0000; fill-opacity: 0.5"/>
     <use xlink:href="#m29be3c3fe1" x="312.330139" y="56.417368" style="fill: #ff0000; fill-opacity: 0.5"/>
     <use xlink:href="#m29be3c3fe1" x="316.06103" y="56.35234" style="fill: #ff0000; fill-opacity: 0.5"/>
     <use xlink:href="#m29be3c3fe1" x="319.79192" y="56.2884" style="fill: #ff0000; fill-opacity: 0.5"/>
     <use xlink:href="#m29be3c3fe1" x="323.522811" y="56.225524" style="fill: #ff0000; fill-opacity: 0.5"/>
     <use xlink:href="#m29be3c3fe1" x="327.253701" y="56.163688" style="fill: #ff0000; fill-opacity: 0.5"/>
     <use xlink:href="#m29be3c3fe1" x="330.984592" y="56.100917" style="fill: #ff0000; fill-opacity: 0.5"/>
     <use xlink:href="#m29be3c3fe1" x="334.715482" y="56.03922" style="fill: #ff0000; fill-opacity: 0.5"/>
     <use xlink:href="#m29be3c3fe1" x="338.446373" y="55.977647" style="fill: #ff0000; fill-opacity: 0.5"/>
     <use xlink:href="#m29be3c3fe1" x="342.177263" y="55.91893" style="fill: #ff0000; fill-opacity: 0.5"/>
     <use xlink:href="#m29be3c3fe1" x="345.908154" y="55.861176" style="fill: #ff0000; fill-opacity: 0.5"/>
     <use xlink:href="#m29be3c3fe1" x="349.639045" y="55.803507" style="fill: #ff0000; fill-opacity: 0.5"/>
     <use xlink:href="#m29be3c3fe1" x="353.369935" y="55.745956" style="fill: #ff0000; fill-opacity: 0.5"/>
     <use xlink:href="#m29be3c3fe1" x="357.100826" y="55.688553" style="fill: #ff0000; fill-opacity: 0.5"/>
     <use xlink:href="#m29be3c3fe1" x="360.831716" y="55.632115" style="fill: #ff0000; fill-opacity: 0.5"/>
     <use xlink:href="#m29be3c3fe1" x="364.562607" y="55.57893" style="fill: #ff0000; fill-opacity: 0.5"/>
     <use xlink:href="#m29be3c3fe1" x="368.293497" y="55.525826" style="fill: #ff0000; fill-opacity: 0.5"/>
     <use xlink:href="#m29be3c3fe1" x="372.024388" y="55.475031" style="fill: #ff0000; fill-opacity: 0.5"/>
     <use xlink:href="#m29be3c3fe1" x="375.755278" y="55.424288" style="fill: #ff0000; fill-opacity: 0.5"/>
     <use xlink:href="#m29be3c3fe1" x="379.486169" y="55.375023" style="fill: #ff0000; fill-opacity: 0.5"/>
     <use xlink:href="#m29be3c3fe1" x="383.217059" y="55.325809" style="fill: #ff0000; fill-opacity: 0.5"/>
     <use xlink:href="#m29be3c3fe1" x="386.94795" y="55.280011" style="fill: #ff0000; fill-opacity: 0.5"/>
     <use xlink:href="#m29be3c3fe1" x="390.67884" y="55.234195" style="fill: #ff0000; fill-opacity: 0.5"/>
     <use xlink:href="#m29be3c3fe1" x="394.409731" y="55.19094" style="fill: #ff0000; fill-opacity: 0.5"/>
     <use xlink:href="#m29be3c3fe1" x="398.140622" y="55.150127" style="fill: #ff0000; fill-opacity: 0.5"/>
     <use xlink:href="#m29be3c3fe1" x="401.871512" y="55.111642" style="fill: #ff0000; fill-opacity: 0.5"/>
     <use xlink:href="#m29be3c3fe1" x="405.602403" y="55.073587" style="fill: #ff0000; fill-opacity: 0.5"/>
     <use xlink:href="#m29be3c3fe1" x="409.333293" y="55.037127" style="fill: #ff0000; fill-opacity: 0.5"/>
     <use xlink:href="#m29be3c3fe1" x="413.064184" y="55.002765" style="fill: #ff0000; fill-opacity: 0.5"/>
     <use xlink:href="#m29be3c3fe1" x="416.795074" y="54.969848" style="fill: #ff0000; fill-opacity: 0.5"/>
     <use xlink:href="#m29be3c3fe1" x="420.525965" y="54.938316" style="fill: #ff0000; fill-opacity: 0.5"/>
     <use xlink:href="#m29be3c3fe1" x="424.256855" y="54.908111" style="fill: #ff0000; fill-opacity: 0.5"/>
     <use xlink:href="#m29be3c3fe1" x="427.987746" y="54.877074" style="fill: #ff0000; fill-opacity: 0.5"/>
     <use xlink:href="#m29be3c3fe1" x="431.718636" y="54.84887" style="fill: #ff0000; fill-opacity: 0.5"/>
    </g>
   </g>
   <g id="line2d_15">
    <path d="M 47.81 290.994545 
L 450 290.994545 
" clip-path="url(#pb11071b048)" style="fill: none; stroke-dasharray: 0.555,0.24; stroke-dashoffset: 0; stroke: #ff0000; stroke-width: 0.15"/>
   </g>
   <g id="line2d_16">
    <path d="M 47.81 164.54 
L 450 164.54 
" clip-path="url(#pb11071b048)" style="fill: none; stroke-dasharray: 0.555,0.24; stroke-dashoffset: 0; stroke: #ff0000; stroke-width: 0.15"/>
   </g>
   <g id="line2d_17">
    <path d="M 47.81 38.085455 
L 450 38.085455 
" clip-path="url(#pb11071b048)" style="fill: none; stroke-dasharray: 0.555,0.24; stroke-dashoffset: 0; stroke: #ff0000; stroke-width: 0.15"/>
   </g>
   <g id="patch_3">
    <path d="M 47.81 303.64 
L 47.81 25.44 
" style="fill: none; stroke: #000000; stroke-width: 0.8; stroke-linejoin: miter; stroke-linecap: square"/>
   </g>
   <g id="patch_4">
    <path d="M 450 303.64 
L 450 25.44 
" style="fill: none; stroke: #000000; stroke-width: 0.8; stroke-linejoin: miter; stroke-linecap: square"/>
   </g>
   <g id="patch_5">
    <path d="M 47.81 303.64 
L 450 303.64 
" style="fill: none; stroke: #000000; stroke-width: 0.8; stroke-linejoin: miter; stroke-linecap: square"/>
   </g>
   <g id="patch_6">
    <path d="M 47.81 25.44 
L 450 25.44 
" style="fill: none; stroke: #000000; stroke-width: 0.8; stroke-linejoin: miter; stroke-linecap: square"/>
   </g>
   <g id="text_15">
    <!-- Similarity LLM-DEF_sw5 - 20240412104455 - 50 games -->
    <g transform="translate(82.79875 19.44) scale(0.12 -0.12)">
     <defs>
      <path id="DejaVuSans-20" transform="scale(0.015625)"/>
      <path id="DejaVuSans-4c" d="M 628 4666 
L 1259 4666 
L 1259 531 
L 3531 531 
L 3531 0 
L 628 0 
L 628 4666 
z
" transform="scale(0.015625)"/>
      <path id="DejaVuSans-4d" d="M 628 4666 
L 1569 4666 
L 2759 1491 
L 3956 4666 
L 4897 4666 
L 4897 0 
L 4281 0 
L 4281 4097 
L 3078 897 
L 2444 897 
L 1241 4097 
L 1241 0 
L 628 0 
L 628 4666 
z
" transform="scale(0.015625)"/>
      <path id="DejaVuSans-2d" d="M 313 2009 
L 1997 2009 
L 1997 1497 
L 313 1497 
L 313 2009 
z
" transform="scale(0.015625)"/>
      <path id="DejaVuSans-44" d="M 1259 4147 
L 1259 519 
L 2022 519 
Q 2988 519 3436 956 
Q 3884 1394 3884 2338 
Q 3884 3275 3436 3711 
Q 2988 4147 2022 4147 
L 1259 4147 
z
M 628 4666 
L 1925 4666 
Q 3281 4666 3915 4102 
Q 4550 3538 4550 2338 
Q 4550 1131 3912 565 
Q 3275 0 1925 0 
L 628 0 
L 628 4666 
z
" transform="scale(0.015625)"/>
      <path id="DejaVuSans-45" d="M 628 4666 
L 3578 4666 
L 3578 4134 
L 1259 4134 
L 1259 2753 
L 3481 2753 
L 3481 2222 
L 1259 2222 
L 1259 531 
L 3634 531 
L 3634 0 
L 628 0 
L 628 4666 
z
" transform="scale(0.015625)"/>
      <path id="DejaVuSans-46" d="M 628 4666 
L 3309 4666 
L 3309 4134 
L 1259 4134 
L 1259 2759 
L 3109 2759 
L 3109 2228 
L 1259 2228 
L 1259 0 
L 628 0 
L 628 4666 
z
" transform="scale(0.015625)"/>
      <path id="DejaVuSans-5f" d="M 3263 -1063 
L 3263 -1509 
L -63 -1509 
L -63 -1063 
L 3263 -1063 
z
" transform="scale(0.015625)"/>
      <path id="DejaVuSans-73" d="M 2834 3397 
L 2834 2853 
Q 2591 2978 2328 3040 
Q 2066 3103 1784 3103 
Q 1356 3103 1142 2972 
Q 928 2841 928 2578 
Q 928 2378 1081 2264 
Q 1234 2150 1697 2047 
L 1894 2003 
Q 2506 1872 2764 1633 
Q 3022 1394 3022 966 
Q 3022 478 2636 193 
Q 2250 -91 1575 -91 
Q 1294 -91 989 -36 
Q 684 19 347 128 
L 347 722 
Q 666 556 975 473 
Q 1284 391 1588 391 
Q 1994 391 2212 530 
Q 2431 669 2431 922 
Q 2431 1156 2273 1281 
Q 2116 1406 1581 1522 
L 1381 1569 
Q 847 1681 609 1914 
Q 372 2147 372 2553 
Q 372 3047 722 3315 
Q 1072 3584 1716 3584 
Q 2034 3584 2315 3537 
Q 2597 3491 2834 3397 
z
" transform="scale(0.015625)"/>
      <path id="DejaVuSans-77" d="M 269 3500 
L 844 3500 
L 1563 769 
L 2278 3500 
L 2956 3500 
L 3675 769 
L 4391 3500 
L 4966 3500 
L 4050 0 
L 3372 0 
L 2619 2869 
L 1863 0 
L 1184 0 
L 269 3500 
z
" transform="scale(0.015625)"/>
      <path id="DejaVuSans-35" d="M 691 4666 
L 3169 4666 
L 3169 4134 
L 1269 4134 
L 1269 2991 
Q 1406 3038 1543 3061 
Q 1681 3084 1819 3084 
Q 2600 3084 3056 2656 
Q 3513 2228 3513 1497 
Q 3513 744 3044 326 
Q 2575 -91 1722 -91 
Q 1428 -91 1123 -41 
Q 819 9 494 109 
L 494 744 
Q 775 591 1075 516 
Q 1375 441 1709 441 
Q 2250 441 2565 725 
Q 2881 1009 2881 1497 
Q 2881 1984 2565 2268 
Q 2250 2553 1709 2553 
Q 1456 2553 1204 2497 
Q 953 2441 691 2322 
L 691 4666 
z
" transform="scale(0.015625)"/>
      <path id="DejaVuSans-67" d="M 2906 1791 
Q 2906 2416 2648 2759 
Q 2391 3103 1925 3103 
Q 1463 3103 1205 2759 
Q 947 2416 947 1791 
Q 947 1169 1205 825 
Q 1463 481 1925 481 
Q 2391 481 2648 825 
Q 2906 1169 2906 1791 
z
M 3481 434 
Q 3481 -459 3084 -895 
Q 2688 -1331 1869 -1331 
Q 1566 -1331 1297 -1286 
Q 1028 -1241 775 -1147 
L 775 -588 
Q 1028 -725 1275 -790 
Q 1522 -856 1778 -856 
Q 2344 -856 2625 -561 
Q 2906 -266 2906 331 
L 2906 616 
Q 2728 306 2450 153 
Q 2172 0 1784 0 
Q 1141 0 747 490 
Q 353 981 353 1791 
Q 353 2603 747 3093 
Q 1141 3584 1784 3584 
Q 2172 3584 2450 3431 
Q 2728 3278 2906 2969 
L 2906 3500 
L 3481 3500 
L 3481 434 
z
" transform="scale(0.015625)"/>
     </defs>
     <use xlink:href="#DejaVuSans-53"/>
     <use xlink:href="#DejaVuSans-69" x="63.476562"/>
     <use xlink:href="#DejaVuSans-6d" x="91.259766"/>
     <use xlink:href="#DejaVuSans-69" x="188.671875"/>
     <use xlink:href="#DejaVuSans-6c" x="216.455078"/>
     <use xlink:href="#DejaVuSans-61" x="244.238281"/>
     <use xlink:href="#DejaVuSans-72" x="305.517578"/>
     <use xlink:href="#DejaVuSans-69" x="346.630859"/>
     <use xlink:href="#DejaVuSans-74" x="374.414062"/>
     <use xlink:href="#DejaVuSans-79" x="413.623047"/>
     <use xlink:href="#DejaVuSans-20" x="472.802734"/>
     <use xlink:href="#DejaVuSans-4c" x="504.589844"/>
     <use xlink:href="#DejaVuSans-4c" x="560.302734"/>
     <use xlink:href="#DejaVuSans-4d" x="616.015625"/>
     <use xlink:href="#DejaVuSans-2d" x="702.294922"/>
     <use xlink:href="#DejaVuSans-44" x="738.378906"/>
     <use xlink:href="#DejaVuSans-45" x="815.380859"/>
     <use xlink:href="#DejaVuSans-46" x="878.564453"/>
     <use xlink:href="#DejaVuSans-5f" x="936.083984"/>
     <use xlink:href="#DejaVuSans-73" x="986.083984"/>
     <use xlink:href="#DejaVuSans-77" x="1038.183594"/>
     <use xlink:href="#DejaVuSans-35" x="1119.970703"/>
     <use xlink:href="#DejaVuSans-20" x="1183.59375"/>
     <use xlink:href="#DejaVuSans-2d" x="1215.380859"/>
     <use xlink:href="#DejaVuSans-20" x="1251.464844"/>
     <use xlink:href="#DejaVuSans-32" x="1283.251953"/>
     <use xlink:href="#DejaVuSans-30" x="1346.875"/>
     <use xlink:href="#DejaVuSans-32" x="1410.498047"/>
     <use xlink:href="#DejaVuSans-34" x="1474.121094"/>
     <use xlink:href="#DejaVuSans-30" x="1537.744141"/>
     <use xlink:href="#DejaVuSans-34" x="1601.367188"/>
     <use xlink:href="#DejaVuSans-31" x="1664.990234"/>
     <use xlink:href="#DejaVuSans-32" x="1728.613281"/>
     <use xlink:href="#DejaVuSans-31" x="1792.236328"/>
     <use xlink:href="#DejaVuSans-30" x="1855.859375"/>
     <use xlink:href="#DejaVuSans-34" x="1919.482422"/>
     <use xlink:href="#DejaVuSans-34" x="1983.105469"/>
     <use xlink:href="#DejaVuSans-35" x="2046.728516"/>
     <use xlink:href="#DejaVuSans-35" x="2110.351562"/>
     <use xlink:href="#DejaVuSans-20" x="2173.974609"/>
     <use xlink:href="#DejaVuSans-2d" x="2205.761719"/>
     <use xlink:href="#DejaVuSans-20" x="2241.845703"/>
     <use xlink:href="#DejaVuSans-35" x="2273.632812"/>
     <use xlink:href="#DejaVuSans-30" x="2337.255859"/>
     <use xlink:href="#DejaVuSans-20" x="2400.878906"/>
     <use xlink:href="#DejaVuSans-67" x="2432.666016"/>
     <use xlink:href="#DejaVuSans-61" x="2496.142578"/>
     <use xlink:href="#DejaVuSans-6d" x="2557.421875"/>
     <use xlink:href="#DejaVuSans-65" x="2654.833984"/>
     <use xlink:href="#DejaVuSans-73" x="2716.357422"/>
    </g>
   </g>
   <g id="legend_1">
    <g id="patch_7">
     <path d="M 54.81 298.64 
L 186.2475 298.64 
Q 188.2475 298.64 188.2475 296.64 
L 188.2475 267.7275 
Q 188.2475 265.7275 186.2475 265.7275 
L 54.81 265.7275 
Q 52.81 265.7275 52.81 267.7275 
L 52.81 296.64 
Q 52.81 298.64 54.81 298.64 
z
" style="fill: #ffffff; opacity: 0.8; stroke: #cccccc; stroke-linejoin: miter"/>
    </g>
    <g id="line2d_18">
     <path d="M 56.81 273.825937 
L 66.81 273.825937 
L 76.81 273.825937 
" style="fill: none; stroke: #0000ff; stroke-linecap: square"/>
     <g>
      <use xlink:href="#m92895de820" x="66.81" y="273.825937" style="fill: #0000ff"/>
     </g>
    </g>
    <g id="text_16">
     <!-- LLM-DEF_sw5 -->
     <g transform="translate(84.81 277.325937) scale(0.1 -0.1)">
      <use xlink:href="#DejaVuSans-4c"/>
      <use xlink:href="#DejaVuSans-4c" x="55.712891"/>
      <use xlink:href="#DejaVuSans-4d" x="111.425781"/>
      <use xlink:href="#DejaVuSans-2d" x="197.705078"/>
      <use xlink:href="#DejaVuSans-44" x="233.789062"/>
      <use xlink:href="#DejaVuSans-45" x="310.791016"/>
      <use xlink:href="#DejaVuSans-46" x="373.974609"/>
      <use xlink:href="#DejaVuSans-5f" x="431.494141"/>
      <use xlink:href="#DejaVuSans-73" x="481.494141"/>
      <use xlink:href="#DejaVuSans-77" x="533.59375"/>
      <use xlink:href="#DejaVuSans-35" x="615.380859"/>
     </g>
    </g>
    <g id="line2d_19">
     <path d="M 56.81 288.782187 
L 66.81 288.782187 
L 76.81 288.782187 
" style="fill: none; stroke: #ff0000; stroke-opacity: 0.5; stroke-width: 0.5; stroke-linecap: square"/>
     <g>
      <use xlink:href="#m29be3c3fe1" x="66.81" y="288.782187" style="fill: #ff0000; fill-opacity: 0.5"/>
     </g>
    </g>
    <g id="text_17">
     <!-- LLM-DEF_sw5 mean -->
     <g transform="translate(84.81 292.282187) scale(0.1 -0.1)">
      <use xlink:href="#DejaVuSans-4c"/>
      <use xlink:href="#DejaVuSans-4c" x="55.712891"/>
      <use xlink:href="#DejaVuSans-4d" x="111.425781"/>
      <use xlink:href="#DejaVuSans-2d" x="197.705078"/>
      <use xlink:href="#DejaVuSans-44" x="233.789062"/>
      <use xlink:href="#DejaVuSans-45" x="310.791016"/>
      <use xlink:href="#DejaVuSans-46" x="373.974609"/>
      <use xlink:href="#DejaVuSans-5f" x="431.494141"/>
      <use xlink:href="#DejaVuSans-73" x="481.494141"/>
      <use xlink:href="#DejaVuSans-77" x="533.59375"/>
      <use xlink:href="#DejaVuSans-35" x="615.380859"/>
      <use xlink:href="#DejaVuSans-20" x="679.003906"/>
      <use xlink:href="#DejaVuSans-6d" x="710.791016"/>
      <use xlink:href="#DejaVuSans-65" x="808.203125"/>
      <use xlink:href="#DejaVuSans-61" x="869.726562"/>
      <use xlink:href="#DejaVuSans-6e" x="931.005859"/>
     </g>
    </g>
   </g>
  </g>
 </g>
 <defs>
  <clipPath id="pb11071b048">
   <rect x="47.81" y="25.44" width="402.19" height="278.2"/>
  </clipPath>
 </defs>
</svg>
