<?xml version="1.0" encoding="utf-8" standalone="no"?>
<!DOCTYPE svg PUBLIC "-//W3C//DTD SVG 1.1//EN"
  "http://www.w3.org/Graphics/SVG/1.1/DTD/svg11.dtd">
<svg xmlns:xlink="http://www.w3.org/1999/xlink" width="460.8pt" height="345.6pt" viewBox="0 0 460.8 345.6" xmlns="http://www.w3.org/2000/svg" version="1.1">
 <metadata>
  <rdf:RDF xmlns:dc="http://purl.org/dc/elements/1.1/" xmlns:cc="http://creativecommons.org/ns#" xmlns:rdf="http://www.w3.org/1999/02/22-rdf-syntax-ns#">
   <cc:Work>
    <dc:type rdf:resource="http://purl.org/dc/dcmitype/StillImage"/>
    <dc:date>2024-04-15T10:04:49.876672</dc:date>
    <dc:format>image/svg+xml</dc:format>
    <dc:creator>
     <cc:Agent>
      <dc:title>Matplotlib v3.8.0, https://matplotlib.org/</dc:title>
     </cc:Agent>
    </dc:creator>
   </cc:Work>
  </rdf:RDF>
 </metadata>
 <defs>
  <style type="text/css">*{stroke-linejoin: round; stroke-linecap: butt}</style>
 </defs>
 <g id="figure_1">
  <g id="patch_1">
   <path d="M 0 345.6 
L 460.8 345.6 
L 460.8 0 
L 0 0 
z
" style="fill: #ffffff"/>
  </g>
  <g id="axes_1">
   <g id="patch_2">
    <path d="M 47.81 303.64 
L 450 303.64 
L 450 25.44 
L 47.81 25.44 
z
" style="fill: #ffffff"/>
   </g>
   <g id="PolyCollection_1">
    <defs>
     <path id="m31d50b4501" d="M 66.091364 -241.758182 
L 66.091364 -241.758182 
L 69.822254 -266.181244 
L 73.553145 -274.071789 
L 77.284035 -278.914047 
L 81.014926 -283.491254 
L 84.745816 -287.258811 
L 88.476707 -290.087621 
L 92.207597 -292.288605 
L 95.938488 -294.047647 
L 99.669378 -295.583676 
L 103.400269 -296.92574 
L 107.13116 -298.034023 
L 110.86205 -299.020427 
L 114.592941 -299.803591 
L 118.323831 -300.353836 
L 122.054722 -300.805728 
L 125.785612 -301.241006 
L 129.516503 -301.629823 
L 133.247393 -302.003035 
L 136.978284 -302.315786 
L 140.709174 -302.540879 
L 144.440065 -302.714468 
L 148.170955 -302.846622 
L 151.901846 -302.958913 
L 155.632737 -303.054375 
L 159.363627 -303.112611 
L 163.094518 -303.171904 
L 166.825408 -303.231597 
L 170.556299 -303.264008 
L 174.287189 -303.290403 
L 178.01808 -303.303856 
L 181.74897 -303.306393 
L 185.479861 -303.313018 
L 189.210751 -303.316729 
L 192.941642 -303.283264 
L 196.672532 -303.234951 
L 200.403423 -303.155639 
L 204.134314 -303.059686 
L 207.865204 -302.942793 
L 211.596095 -302.815889 
L 215.326985 -302.672059 
L 219.057876 -302.515114 
L 222.788766 -302.355128 
L 226.519657 -302.197449 
L 230.250547 -302.038077 
L 233.981438 -301.883406 
L 237.712328 -301.726056 
L 241.443219 -301.566939 
L 245.174109 -301.404007 
L 248.905 -301.239761 
L 252.635891 -301.073875 
L 256.366781 -300.907244 
L 260.097672 -300.743933 
L 263.828562 -300.583862 
L 267.559453 -300.426184 
L 271.290343 -300.272345 
L 275.021234 -300.122898 
L 278.752124 -299.976962 
L 282.483015 -299.832456 
L 286.213905 -299.693145 
L 289.944796 -299.556337 
L 293.675686 -299.423157 
L 297.406577 -299.294067 
L 301.137468 -299.167727 
L 304.868358 -299.045796 
L 308.599249 -298.926361 
L 312.330139 -298.809906 
L 316.06103 -298.696321 
L 319.79192 -298.584949 
L 323.522811 -298.475196 
L 327.253701 -298.366058 
L 330.984592 -298.259469 
L 334.715482 -298.154876 
L 338.446373 -298.052217 
L 342.177263 -297.952322 
L 345.908154 -297.854217 
L 349.639045 -297.758716 
L 353.369935 -297.665743 
L 357.100826 -297.574353 
L 360.831716 -297.484922 
L 364.562607 -297.398235 
L 368.293497 -297.313794 
L 372.024388 -297.230689 
L 375.755278 -297.150126 
L 379.486169 -297.071202 
L 383.217059 -296.993867 
L 386.94795 -296.918888 
L 390.67884 -296.845794 
L 394.409731 -296.774941 
L 398.140622 -296.705858 
L 401.871512 -296.638086 
L 405.602403 -296.5728 
L 409.333293 -296.508719 
L 413.064184 -296.44581 
L 416.795074 -296.38443 
L 420.525965 -296.32493 
L 424.256855 -296.267657 
L 427.987746 -296.212565 
L 431.718636 -296.157617 
L 431.718636 -281.143536 
L 431.718636 -281.143536 
L 427.987746 -281.125906 
L 424.256855 -281.10687 
L 420.525965 -281.089741 
L 416.795074 -281.074672 
L 413.064184 -281.061088 
L 409.333293 -281.048342 
L 405.602403 -281.035716 
L 401.871512 -281.023224 
L 398.140622 -281.013339 
L 394.409731 -281.003708 
L 390.67884 -280.995223 
L 386.94795 -280.98887 
L 383.217059 -280.983875 
L 379.486169 -280.981303 
L 375.755278 -280.979335 
L 372.024388 -280.978009 
L 368.293497 -280.979488 
L 364.562607 -280.980693 
L 360.831716 -280.983848 
L 357.100826 -280.990269 
L 353.369935 -280.997784 
L 349.639045 -281.005219 
L 345.908154 -281.015118 
L 342.177263 -281.027666 
L 338.446373 -281.040311 
L 334.715482 -281.055874 
L 330.984592 -281.071641 
L 327.253701 -281.08761 
L 323.522811 -281.105323 
L 319.79192 -281.118546 
L 316.06103 -281.130194 
L 312.330139 -281.141789 
L 308.599249 -281.155013 
L 304.868358 -281.169987 
L 301.137468 -281.185008 
L 297.406577 -281.205756 
L 293.675686 -281.2268 
L 289.944796 -281.252243 
L 286.213905 -281.280327 
L 282.483015 -281.306811 
L 278.752124 -281.340717 
L 275.021234 -281.368352 
L 271.290343 -281.396491 
L 267.559453 -281.427674 
L 263.828562 -281.459499 
L 260.097672 -281.486506 
L 256.366781 -281.511012 
L 252.635891 -281.532724 
L 248.905 -281.539599 
L 245.174109 -281.530634 
L 241.443219 -281.507688 
L 237.712328 -281.466877 
L 233.981438 -281.412896 
L 230.250547 -281.344767 
L 226.519657 -281.273427 
L 222.788766 -281.18922 
L 219.057876 -281.097421 
L 215.326985 -280.990812 
L 211.596095 -280.858565 
L 207.865204 -280.699394 
L 204.134314 -280.521059 
L 200.403423 -280.316249 
L 196.672532 -280.089456 
L 192.941642 -279.833806 
L 189.210751 -279.558846 
L 185.479861 -279.255419 
L 181.74897 -278.9374 
L 178.01808 -278.606402 
L 174.287189 -278.255584 
L 170.556299 -277.88321 
L 166.825408 -277.490444 
L 163.094518 -277.069011 
L 159.363627 -276.626122 
L 155.632737 -276.15987 
L 151.901846 -275.65666 
L 148.170955 -275.120418 
L 144.440065 -274.547581 
L 140.709174 -273.929997 
L 136.978284 -273.262901 
L 133.247393 -272.537574 
L 129.516503 -271.755887 
L 125.785612 -270.918314 
L 122.054722 -270.013161 
L 118.323831 -269.035161 
L 114.592941 -267.963287 
L 110.86205 -266.778428 
L 107.13116 -265.47807 
L 103.400269 -264.048885 
L 99.669378 -262.46861 
L 95.938488 -260.708792 
L 92.207597 -258.727388 
L 88.476707 -256.480527 
L 84.745816 -253.920826 
L 81.014926 -251.011582 
L 77.284035 -247.596862 
L 73.553145 -243.165787 
L 69.822254 -237.567847 
L 66.091364 -241.758182 
z
" style="stroke: #ff0000; stroke-opacity: 0.2"/>
    </defs>
    <g clip-path="url(#p86823d85bb)">
     <use xlink:href="#m31d50b4501" x="0" y="345.6" style="fill: #ff0000; fill-opacity: 0.2; stroke: #ff0000; stroke-opacity: 0.2"/>
    </g>
   </g>
   <g id="matplotlib.axis_1">
    <g id="xtick_1">
     <g id="line2d_1">
      <defs>
       <path id="mbee75dab2c" d="M 0 0 
L 0 3.5 
" style="stroke: #000000; stroke-width: 0.8"/>
      </defs>
      <g>
       <use xlink:href="#mbee75dab2c" x="66.091364" y="303.64" style="stroke: #000000; stroke-width: 0.8"/>
      </g>
     </g>
     <g id="text_1">
      <!-- 0 -->
      <g transform="translate(62.910114 318.238437) scale(0.1 -0.1)">
       <defs>
        <path id="DejaVuSans-30" d="M 2034 4250 
Q 1547 4250 1301 3770 
Q 1056 3291 1056 2328 
Q 1056 1369 1301 889 
Q 1547 409 2034 409 
Q 2525 409 2770 889 
Q 3016 1369 3016 2328 
Q 3016 3291 2770 3770 
Q 2525 4250 2034 4250 
z
M 2034 4750 
Q 2819 4750 3233 4129 
Q 3647 3509 3647 2328 
Q 3647 1150 3233 529 
Q 2819 -91 2034 -91 
Q 1250 -91 836 529 
Q 422 1150 422 2328 
Q 422 3509 836 4129 
Q 1250 4750 2034 4750 
z
" transform="scale(0.015625)"/>
       </defs>
       <use xlink:href="#DejaVuSans-30"/>
      </g>
     </g>
    </g>
    <g id="xtick_2">
     <g id="line2d_2">
      <g>
       <use xlink:href="#mbee75dab2c" x="140.709174" y="303.64" style="stroke: #000000; stroke-width: 0.8"/>
      </g>
     </g>
     <g id="text_2">
      <!-- 20 -->
      <g transform="translate(134.346674 318.238437) scale(0.1 -0.1)">
       <defs>
        <path id="DejaVuSans-32" d="M 1228 531 
L 3431 531 
L 3431 0 
L 469 0 
L 469 531 
Q 828 903 1448 1529 
Q 2069 2156 2228 2338 
Q 2531 2678 2651 2914 
Q 2772 3150 2772 3378 
Q 2772 3750 2511 3984 
Q 2250 4219 1831 4219 
Q 1534 4219 1204 4116 
Q 875 4013 500 3803 
L 500 4441 
Q 881 4594 1212 4672 
Q 1544 4750 1819 4750 
Q 2544 4750 2975 4387 
Q 3406 4025 3406 3419 
Q 3406 3131 3298 2873 
Q 3191 2616 2906 2266 
Q 2828 2175 2409 1742 
Q 1991 1309 1228 531 
z
" transform="scale(0.015625)"/>
       </defs>
       <use xlink:href="#DejaVuSans-32"/>
       <use xlink:href="#DejaVuSans-30" x="63.623047"/>
      </g>
     </g>
    </g>
    <g id="xtick_3">
     <g id="line2d_3">
      <g>
       <use xlink:href="#mbee75dab2c" x="215.326985" y="303.64" style="stroke: #000000; stroke-width: 0.8"/>
      </g>
     </g>
     <g id="text_3">
      <!-- 40 -->
      <g transform="translate(208.964485 318.238437) scale(0.1 -0.1)">
       <defs>
        <path id="DejaVuSans-34" d="M 2419 4116 
L 825 1625 
L 2419 1625 
L 2419 4116 
z
M 2253 4666 
L 3047 4666 
L 3047 1625 
L 3713 1625 
L 3713 1100 
L 3047 1100 
L 3047 0 
L 2419 0 
L 2419 1100 
L 313 1100 
L 313 1709 
L 2253 4666 
z
" transform="scale(0.015625)"/>
       </defs>
       <use xlink:href="#DejaVuSans-34"/>
       <use xlink:href="#DejaVuSans-30" x="63.623047"/>
      </g>
     </g>
    </g>
    <g id="xtick_4">
     <g id="line2d_4">
      <g>
       <use xlink:href="#mbee75dab2c" x="289.944796" y="303.64" style="stroke: #000000; stroke-width: 0.8"/>
      </g>
     </g>
     <g id="text_4">
      <!-- 60 -->
      <g transform="translate(283.582296 318.238437) scale(0.1 -0.1)">
       <defs>
        <path id="DejaVuSans-36" d="M 2113 2584 
Q 1688 2584 1439 2293 
Q 1191 2003 1191 1497 
Q 1191 994 1439 701 
Q 1688 409 2113 409 
Q 2538 409 2786 701 
Q 3034 994 3034 1497 
Q 3034 2003 2786 2293 
Q 2538 2584 2113 2584 
z
M 3366 4563 
L 3366 3988 
Q 3128 4100 2886 4159 
Q 2644 4219 2406 4219 
Q 1781 4219 1451 3797 
Q 1122 3375 1075 2522 
Q 1259 2794 1537 2939 
Q 1816 3084 2150 3084 
Q 2853 3084 3261 2657 
Q 3669 2231 3669 1497 
Q 3669 778 3244 343 
Q 2819 -91 2113 -91 
Q 1303 -91 875 529 
Q 447 1150 447 2328 
Q 447 3434 972 4092 
Q 1497 4750 2381 4750 
Q 2619 4750 2861 4703 
Q 3103 4656 3366 4563 
z
" transform="scale(0.015625)"/>
       </defs>
       <use xlink:href="#DejaVuSans-36"/>
       <use xlink:href="#DejaVuSans-30" x="63.623047"/>
      </g>
     </g>
    </g>
    <g id="xtick_5">
     <g id="line2d_5">
      <g>
       <use xlink:href="#mbee75dab2c" x="364.562607" y="303.64" style="stroke: #000000; stroke-width: 0.8"/>
      </g>
     </g>
     <g id="text_5">
      <!-- 80 -->
      <g transform="translate(358.200107 318.238437) scale(0.1 -0.1)">
       <defs>
        <path id="DejaVuSans-38" d="M 2034 2216 
Q 1584 2216 1326 1975 
Q 1069 1734 1069 1313 
Q 1069 891 1326 650 
Q 1584 409 2034 409 
Q 2484 409 2743 651 
Q 3003 894 3003 1313 
Q 3003 1734 2745 1975 
Q 2488 2216 2034 2216 
z
M 1403 2484 
Q 997 2584 770 2862 
Q 544 3141 544 3541 
Q 544 4100 942 4425 
Q 1341 4750 2034 4750 
Q 2731 4750 3128 4425 
Q 3525 4100 3525 3541 
Q 3525 3141 3298 2862 
Q 3072 2584 2669 2484 
Q 3125 2378 3379 2068 
Q 3634 1759 3634 1313 
Q 3634 634 3220 271 
Q 2806 -91 2034 -91 
Q 1263 -91 848 271 
Q 434 634 434 1313 
Q 434 1759 690 2068 
Q 947 2378 1403 2484 
z
M 1172 3481 
Q 1172 3119 1398 2916 
Q 1625 2713 2034 2713 
Q 2441 2713 2670 2916 
Q 2900 3119 2900 3481 
Q 2900 3844 2670 4047 
Q 2441 4250 2034 4250 
Q 1625 4250 1398 4047 
Q 1172 3844 1172 3481 
z
" transform="scale(0.015625)"/>
       </defs>
       <use xlink:href="#DejaVuSans-38"/>
       <use xlink:href="#DejaVuSans-30" x="63.623047"/>
      </g>
     </g>
    </g>
    <g id="xtick_6">
     <g id="line2d_6">
      <g>
       <use xlink:href="#mbee75dab2c" x="439.180417" y="303.64" style="stroke: #000000; stroke-width: 0.8"/>
      </g>
     </g>
     <g id="text_6">
      <!-- 100 -->
      <g transform="translate(429.636667 318.238437) scale(0.1 -0.1)">
       <defs>
        <path id="DejaVuSans-31" d="M 794 531 
L 1825 531 
L 1825 4091 
L 703 3866 
L 703 4441 
L 1819 4666 
L 2450 4666 
L 2450 531 
L 3481 531 
L 3481 0 
L 794 0 
L 794 531 
z
" transform="scale(0.015625)"/>
       </defs>
       <use xlink:href="#DejaVuSans-31"/>
       <use xlink:href="#DejaVuSans-30" x="63.623047"/>
       <use xlink:href="#DejaVuSans-30" x="127.246094"/>
      </g>
     </g>
    </g>
    <g id="text_7">
     <!-- Iteration -->
     <g transform="translate(227.696406 331.916562) scale(0.1 -0.1)">
      <defs>
       <path id="DejaVuSans-49" d="M 628 4666 
L 1259 4666 
L 1259 0 
L 628 0 
L 628 4666 
z
" transform="scale(0.015625)"/>
       <path id="DejaVuSans-74" d="M 1172 4494 
L 1172 3500 
L 2356 3500 
L 2356 3053 
L 1172 3053 
L 1172 1153 
Q 1172 725 1289 603 
Q 1406 481 1766 481 
L 2356 481 
L 2356 0 
L 1766 0 
Q 1100 0 847 248 
Q 594 497 594 1153 
L 594 3053 
L 172 3053 
L 172 3500 
L 594 3500 
L 594 4494 
L 1172 4494 
z
" transform="scale(0.015625)"/>
       <path id="DejaVuSans-65" d="M 3597 1894 
L 3597 1613 
L 953 1613 
Q 991 1019 1311 708 
Q 1631 397 2203 397 
Q 2534 397 2845 478 
Q 3156 559 3463 722 
L 3463 178 
Q 3153 47 2828 -22 
Q 2503 -91 2169 -91 
Q 1331 -91 842 396 
Q 353 884 353 1716 
Q 353 2575 817 3079 
Q 1281 3584 2069 3584 
Q 2775 3584 3186 3129 
Q 3597 2675 3597 1894 
z
M 3022 2063 
Q 3016 2534 2758 2815 
Q 2500 3097 2075 3097 
Q 1594 3097 1305 2825 
Q 1016 2553 972 2059 
L 3022 2063 
z
" transform="scale(0.015625)"/>
       <path id="DejaVuSans-72" d="M 2631 2963 
Q 2534 3019 2420 3045 
Q 2306 3072 2169 3072 
Q 1681 3072 1420 2755 
Q 1159 2438 1159 1844 
L 1159 0 
L 581 0 
L 581 3500 
L 1159 3500 
L 1159 2956 
Q 1341 3275 1631 3429 
Q 1922 3584 2338 3584 
Q 2397 3584 2469 3576 
Q 2541 3569 2628 3553 
L 2631 2963 
z
" transform="scale(0.015625)"/>
       <path id="DejaVuSans-61" d="M 2194 1759 
Q 1497 1759 1228 1600 
Q 959 1441 959 1056 
Q 959 750 1161 570 
Q 1363 391 1709 391 
Q 2188 391 2477 730 
Q 2766 1069 2766 1631 
L 2766 1759 
L 2194 1759 
z
M 3341 1997 
L 3341 0 
L 2766 0 
L 2766 531 
Q 2569 213 2275 61 
Q 1981 -91 1556 -91 
Q 1019 -91 701 211 
Q 384 513 384 1019 
Q 384 1609 779 1909 
Q 1175 2209 1959 2209 
L 2766 2209 
L 2766 2266 
Q 2766 2663 2505 2880 
Q 2244 3097 1772 3097 
Q 1472 3097 1187 3025 
Q 903 2953 641 2809 
L 641 3341 
Q 956 3463 1253 3523 
Q 1550 3584 1831 3584 
Q 2591 3584 2966 3190 
Q 3341 2797 3341 1997 
z
" transform="scale(0.015625)"/>
       <path id="DejaVuSans-69" d="M 603 3500 
L 1178 3500 
L 1178 0 
L 603 0 
L 603 3500 
z
M 603 4863 
L 1178 4863 
L 1178 4134 
L 603 4134 
L 603 4863 
z
" transform="scale(0.015625)"/>
       <path id="DejaVuSans-6f" d="M 1959 3097 
Q 1497 3097 1228 2736 
Q 959 2375 959 1747 
Q 959 1119 1226 758 
Q 1494 397 1959 397 
Q 2419 397 2687 759 
Q 2956 1122 2956 1747 
Q 2956 2369 2687 2733 
Q 2419 3097 1959 3097 
z
M 1959 3584 
Q 2709 3584 3137 3096 
Q 3566 2609 3566 1747 
Q 3566 888 3137 398 
Q 2709 -91 1959 -91 
Q 1206 -91 779 398 
Q 353 888 353 1747 
Q 353 2609 779 3096 
Q 1206 3584 1959 3584 
z
" transform="scale(0.015625)"/>
       <path id="DejaVuSans-6e" d="M 3513 2113 
L 3513 0 
L 2938 0 
L 2938 2094 
Q 2938 2591 2744 2837 
Q 2550 3084 2163 3084 
Q 1697 3084 1428 2787 
Q 1159 2491 1159 1978 
L 1159 0 
L 581 0 
L 581 3500 
L 1159 3500 
L 1159 2956 
Q 1366 3272 1645 3428 
Q 1925 3584 2291 3584 
Q 2894 3584 3203 3211 
Q 3513 2838 3513 2113 
z
" transform="scale(0.015625)"/>
      </defs>
      <use xlink:href="#DejaVuSans-49"/>
      <use xlink:href="#DejaVuSans-74" x="29.492188"/>
      <use xlink:href="#DejaVuSans-65" x="68.701172"/>
      <use xlink:href="#DejaVuSans-72" x="130.224609"/>
      <use xlink:href="#DejaVuSans-61" x="171.337891"/>
      <use xlink:href="#DejaVuSans-74" x="232.617188"/>
      <use xlink:href="#DejaVuSans-69" x="271.826172"/>
      <use xlink:href="#DejaVuSans-6f" x="299.609375"/>
      <use xlink:href="#DejaVuSans-6e" x="360.791016"/>
     </g>
    </g>
   </g>
   <g id="matplotlib.axis_2">
    <g id="ytick_1">
     <g id="line2d_7">
      <defs>
       <path id="mae9b0cf5d7" d="M 0 0 
L -3.5 0 
" style="stroke: #000000; stroke-width: 0.8"/>
      </defs>
      <g>
       <use xlink:href="#mae9b0cf5d7" x="47.81" y="290.994545" style="stroke: #000000; stroke-width: 0.8"/>
      </g>
     </g>
     <g id="text_8">
      <!-- 0.0 -->
      <g transform="translate(24.906875 294.793764) scale(0.1 -0.1)">
       <defs>
        <path id="DejaVuSans-2e" d="M 684 794 
L 1344 794 
L 1344 0 
L 684 0 
L 684 794 
z
" transform="scale(0.015625)"/>
       </defs>
       <use xlink:href="#DejaVuSans-30"/>
       <use xlink:href="#DejaVuSans-2e" x="63.623047"/>
       <use xlink:href="#DejaVuSans-30" x="95.410156"/>
      </g>
     </g>
    </g>
    <g id="ytick_2">
     <g id="line2d_8">
      <g>
       <use xlink:href="#mae9b0cf5d7" x="47.81" y="240.412727" style="stroke: #000000; stroke-width: 0.8"/>
      </g>
     </g>
     <g id="text_9">
      <!-- 0.2 -->
      <g transform="translate(24.906875 244.211946) scale(0.1 -0.1)">
       <use xlink:href="#DejaVuSans-30"/>
       <use xlink:href="#DejaVuSans-2e" x="63.623047"/>
       <use xlink:href="#DejaVuSans-32" x="95.410156"/>
      </g>
     </g>
    </g>
    <g id="ytick_3">
     <g id="line2d_9">
      <g>
       <use xlink:href="#mae9b0cf5d7" x="47.81" y="189.830909" style="stroke: #000000; stroke-width: 0.8"/>
      </g>
     </g>
     <g id="text_10">
      <!-- 0.4 -->
      <g transform="translate(24.906875 193.630128) scale(0.1 -0.1)">
       <use xlink:href="#DejaVuSans-30"/>
       <use xlink:href="#DejaVuSans-2e" x="63.623047"/>
       <use xlink:href="#DejaVuSans-34" x="95.410156"/>
      </g>
     </g>
    </g>
    <g id="ytick_4">
     <g id="line2d_10">
      <g>
       <use xlink:href="#mae9b0cf5d7" x="47.81" y="139.249091" style="stroke: #000000; stroke-width: 0.8"/>
      </g>
     </g>
     <g id="text_11">
      <!-- 0.6 -->
      <g transform="translate(24.906875 143.04831) scale(0.1 -0.1)">
       <use xlink:href="#DejaVuSans-30"/>
       <use xlink:href="#DejaVuSans-2e" x="63.623047"/>
       <use xlink:href="#DejaVuSans-36" x="95.410156"/>
      </g>
     </g>
    </g>
    <g id="ytick_5">
     <g id="line2d_11">
      <g>
       <use xlink:href="#mae9b0cf5d7" x="47.81" y="88.667273" style="stroke: #000000; stroke-width: 0.8"/>
      </g>
     </g>
     <g id="text_12">
      <!-- 0.8 -->
      <g transform="translate(24.906875 92.466491) scale(0.1 -0.1)">
       <use xlink:href="#DejaVuSans-30"/>
       <use xlink:href="#DejaVuSans-2e" x="63.623047"/>
       <use xlink:href="#DejaVuSans-38" x="95.410156"/>
      </g>
     </g>
    </g>
    <g id="ytick_6">
     <g id="line2d_12">
      <g>
       <use xlink:href="#mae9b0cf5d7" x="47.81" y="38.085455" style="stroke: #000000; stroke-width: 0.8"/>
      </g>
     </g>
     <g id="text_13">
      <!-- 1.0 -->
      <g transform="translate(24.906875 41.884673) scale(0.1 -0.1)">
       <use xlink:href="#DejaVuSans-31"/>
       <use xlink:href="#DejaVuSans-2e" x="63.623047"/>
       <use xlink:href="#DejaVuSans-30" x="95.410156"/>
      </g>
     </g>
    </g>
    <g id="text_14">
     <!-- Similarity -->
     <g transform="translate(18.827187 188.179844) rotate(-90) scale(0.1 -0.1)">
      <defs>
       <path id="DejaVuSans-53" d="M 3425 4513 
L 3425 3897 
Q 3066 4069 2747 4153 
Q 2428 4238 2131 4238 
Q 1616 4238 1336 4038 
Q 1056 3838 1056 3469 
Q 1056 3159 1242 3001 
Q 1428 2844 1947 2747 
L 2328 2669 
Q 3034 2534 3370 2195 
Q 3706 1856 3706 1288 
Q 3706 609 3251 259 
Q 2797 -91 1919 -91 
Q 1588 -91 1214 -16 
Q 841 59 441 206 
L 441 856 
Q 825 641 1194 531 
Q 1563 422 1919 422 
Q 2459 422 2753 634 
Q 3047 847 3047 1241 
Q 3047 1584 2836 1778 
Q 2625 1972 2144 2069 
L 1759 2144 
Q 1053 2284 737 2584 
Q 422 2884 422 3419 
Q 422 4038 858 4394 
Q 1294 4750 2059 4750 
Q 2388 4750 2728 4690 
Q 3069 4631 3425 4513 
z
" transform="scale(0.015625)"/>
       <path id="DejaVuSans-6d" d="M 3328 2828 
Q 3544 3216 3844 3400 
Q 4144 3584 4550 3584 
Q 5097 3584 5394 3201 
Q 5691 2819 5691 2113 
L 5691 0 
L 5113 0 
L 5113 2094 
Q 5113 2597 4934 2840 
Q 4756 3084 4391 3084 
Q 3944 3084 3684 2787 
Q 3425 2491 3425 1978 
L 3425 0 
L 2847 0 
L 2847 2094 
Q 2847 2600 2669 2842 
Q 2491 3084 2119 3084 
Q 1678 3084 1418 2786 
Q 1159 2488 1159 1978 
L 1159 0 
L 581 0 
L 581 3500 
L 1159 3500 
L 1159 2956 
Q 1356 3278 1631 3431 
Q 1906 3584 2284 3584 
Q 2666 3584 2933 3390 
Q 3200 3197 3328 2828 
z
" transform="scale(0.015625)"/>
       <path id="DejaVuSans-6c" d="M 603 4863 
L 1178 4863 
L 1178 0 
L 603 0 
L 603 4863 
z
" transform="scale(0.015625)"/>
       <path id="DejaVuSans-79" d="M 2059 -325 
Q 1816 -950 1584 -1140 
Q 1353 -1331 966 -1331 
L 506 -1331 
L 506 -850 
L 844 -850 
Q 1081 -850 1212 -737 
Q 1344 -625 1503 -206 
L 1606 56 
L 191 3500 
L 800 3500 
L 1894 763 
L 2988 3500 
L 3597 3500 
L 2059 -325 
z
" transform="scale(0.015625)"/>
      </defs>
      <use xlink:href="#DejaVuSans-53"/>
      <use xlink:href="#DejaVuSans-69" x="63.476562"/>
      <use xlink:href="#DejaVuSans-6d" x="91.259766"/>
      <use xlink:href="#DejaVuSans-69" x="188.671875"/>
      <use xlink:href="#DejaVuSans-6c" x="216.455078"/>
      <use xlink:href="#DejaVuSans-61" x="244.238281"/>
      <use xlink:href="#DejaVuSans-72" x="305.517578"/>
      <use xlink:href="#DejaVuSans-69" x="346.630859"/>
      <use xlink:href="#DejaVuSans-74" x="374.414062"/>
      <use xlink:href="#DejaVuSans-79" x="413.623047"/>
     </g>
    </g>
   </g>
   <g id="line2d_13">
    <path d="M 66.091364 103.841818 
L 69.822254 83.609091 
L 73.553145 73.492727 
L 77.284035 68.434545 
L 81.014926 62.364727 
L 84.745816 58.318182 
L 88.476707 56.15039 
L 92.207597 54.524545 
L 95.938488 53.26 
L 99.669378 51.742545 
L 103.400269 50.500992 
L 107.13116 49.887879 
L 110.86205 48.98 
L 114.592941 48.924416 
L 118.323831 49.550667 
L 122.054722 49.466364 
L 125.785612 48.796898 
L 129.516503 48.482828 
L 133.247393 47.935598 
L 136.978284 47.948909 
L 140.709174 48.442684 
L 144.440065 48.661653 
L 148.170955 48.861581 
L 151.901846 48.834091 
L 155.632737 48.8088 
L 159.363627 49.174545 
L 163.094518 48.951178 
L 166.825408 48.743766 
L 170.556299 49.073918 
L 174.287189 49.044848 
L 178.01808 49.180821 
L 181.74897 49.308295 
L 185.479861 49.121488 
L 189.210751 49.094439 
L 192.941642 49.936052 
L 196.672532 50.309394 
L 200.403423 51.209386 
L 204.134314 51.795789 
L 207.865204 52.611515 
L 211.596095 53.133545 
L 215.326985 54.000222 
L 219.057876 54.825628 
L 222.788766 55.259746 
L 226.519657 55.444215 
L 230.250547 55.845293 
L 233.981438 55.899051 
L 237.712328 56.381006 
L 241.443219 56.842879 
L 245.174109 57.492356 
L 248.905 58.014691 
L 252.635891 58.615722 
L 256.366781 59.193636 
L 260.097672 59.367993 
L 263.828562 59.535892 
L 267.559453 59.789653 
L 271.290343 59.853701 
L 275.021234 59.826762 
L 278.752124 59.887962 
L 282.483015 60.204284 
L 286.213905 60.004242 
L 289.944796 60.142444 
L 293.675686 60.113021 
L 297.406577 60.004242 
L 301.137468 60.056932 
L 304.868358 59.874545 
L 308.599249 59.927603 
L 312.330139 59.903582 
L 316.06103 59.880267 
L 319.79192 59.930935 
L 323.522811 60.052416 
L 327.253701 60.312958 
L 330.984592 60.285253 
L 334.715482 60.327597 
L 338.446373 60.368796 
L 342.177263 60.274012 
L 345.908154 60.314833 
L 349.639045 60.223211 
L 353.369935 60.133939 
L 357.100826 60.174983 
L 360.831716 60.151773 
L 364.562607 60.004242 
L 368.293497 59.921996 
L 372.024388 59.963614 
L 375.755278 59.823593 
L 379.486169 59.805882 
L 383.217059 59.788584 
L 386.94795 59.655402 
L 390.67884 59.582727 
L 394.409731 59.454852 
L 398.140622 59.38602 
L 401.871512 59.374286 
L 405.602403 59.197866 
L 409.333293 59.188407 
L 413.064184 59.179149 
L 416.795074 59.116842 
L 420.525965 59.003144 
L 424.256855 58.839644 
L 427.987746 58.679481 
L 431.718636 58.778017 
" clip-path="url(#p86823d85bb)" style="fill: none; stroke: #0000ff; stroke-linecap: square"/>
    <defs>
     <path id="ma8c7ad5353" d="M -0.49999 0.49999 
L 0.50001 0.49999 
L 0.50001 -0.50001 
L -0.49999 -0.50001 
z
"/>
    </defs>
    <g clip-path="url(#p86823d85bb)">
     <use xlink:href="#ma8c7ad5353" x="66.091364" y="103.841818" style="fill: #0000ff"/>
     <use xlink:href="#ma8c7ad5353" x="69.822254" y="83.609091" style="fill: #0000ff"/>
     <use xlink:href="#ma8c7ad5353" x="73.553145" y="73.492727" style="fill: #0000ff"/>
     <use xlink:href="#ma8c7ad5353" x="77.284035" y="68.434545" style="fill: #0000ff"/>
     <use xlink:href="#ma8c7ad5353" x="81.014926" y="62.364727" style="fill: #0000ff"/>
     <use xlink:href="#ma8c7ad5353" x="84.745816" y="58.318182" style="fill: #0000ff"/>
     <use xlink:href="#ma8c7ad5353" x="88.476707" y="56.15039" style="fill: #0000ff"/>
     <use xlink:href="#ma8c7ad5353" x="92.207597" y="54.524545" style="fill: #0000ff"/>
     <use xlink:href="#ma8c7ad5353" x="95.938488" y="53.26" style="fill: #0000ff"/>
     <use xlink:href="#ma8c7ad5353" x="99.669378" y="51.742545" style="fill: #0000ff"/>
     <use xlink:href="#ma8c7ad5353" x="103.400269" y="50.500992" style="fill: #0000ff"/>
     <use xlink:href="#ma8c7ad5353" x="107.13116" y="49.887879" style="fill: #0000ff"/>
     <use xlink:href="#ma8c7ad5353" x="110.86205" y="48.98" style="fill: #0000ff"/>
     <use xlink:href="#ma8c7ad5353" x="114.592941" y="48.924416" style="fill: #0000ff"/>
     <use xlink:href="#ma8c7ad5353" x="118.323831" y="49.550667" style="fill: #0000ff"/>
     <use xlink:href="#ma8c7ad5353" x="122.054722" y="49.466364" style="fill: #0000ff"/>
     <use xlink:href="#ma8c7ad5353" x="125.785612" y="48.796898" style="fill: #0000ff"/>
     <use xlink:href="#ma8c7ad5353" x="129.516503" y="48.482828" style="fill: #0000ff"/>
     <use xlink:href="#ma8c7ad5353" x="133.247393" y="47.935598" style="fill: #0000ff"/>
     <use xlink:href="#ma8c7ad5353" x="136.978284" y="47.948909" style="fill: #0000ff"/>
     <use xlink:href="#ma8c7ad5353" x="140.709174" y="48.442684" style="fill: #0000ff"/>
     <use xlink:href="#ma8c7ad5353" x="144.440065" y="48.661653" style="fill: #0000ff"/>
     <use xlink:href="#ma8c7ad5353" x="148.170955" y="48.861581" style="fill: #0000ff"/>
     <use xlink:href="#ma8c7ad5353" x="151.901846" y="48.834091" style="fill: #0000ff"/>
     <use xlink:href="#ma8c7ad5353" x="155.632737" y="48.8088" style="fill: #0000ff"/>
     <use xlink:href="#ma8c7ad5353" x="159.363627" y="49.174545" style="fill: #0000ff"/>
     <use xlink:href="#ma8c7ad5353" x="163.094518" y="48.951178" style="fill: #0000ff"/>
     <use xlink:href="#ma8c7ad5353" x="166.825408" y="48.743766" style="fill: #0000ff"/>
     <use xlink:href="#ma8c7ad5353" x="170.556299" y="49.073918" style="fill: #0000ff"/>
     <use xlink:href="#ma8c7ad5353" x="174.287189" y="49.044848" style="fill: #0000ff"/>
     <use xlink:href="#ma8c7ad5353" x="178.01808" y="49.180821" style="fill: #0000ff"/>
     <use xlink:href="#ma8c7ad5353" x="181.74897" y="49.308295" style="fill: #0000ff"/>
     <use xlink:href="#ma8c7ad5353" x="185.479861" y="49.121488" style="fill: #0000ff"/>
     <use xlink:href="#ma8c7ad5353" x="189.210751" y="49.094439" style="fill: #0000ff"/>
     <use xlink:href="#ma8c7ad5353" x="192.941642" y="49.936052" style="fill: #0000ff"/>
     <use xlink:href="#ma8c7ad5353" x="196.672532" y="50.309394" style="fill: #0000ff"/>
     <use xlink:href="#ma8c7ad5353" x="200.403423" y="51.209386" style="fill: #0000ff"/>
     <use xlink:href="#ma8c7ad5353" x="204.134314" y="51.795789" style="fill: #0000ff"/>
     <use xlink:href="#ma8c7ad5353" x="207.865204" y="52.611515" style="fill: #0000ff"/>
     <use xlink:href="#ma8c7ad5353" x="211.596095" y="53.133545" style="fill: #0000ff"/>
     <use xlink:href="#ma8c7ad5353" x="215.326985" y="54.000222" style="fill: #0000ff"/>
     <use xlink:href="#ma8c7ad5353" x="219.057876" y="54.825628" style="fill: #0000ff"/>
     <use xlink:href="#ma8c7ad5353" x="222.788766" y="55.259746" style="fill: #0000ff"/>
     <use xlink:href="#ma8c7ad5353" x="226.519657" y="55.444215" style="fill: #0000ff"/>
     <use xlink:href="#ma8c7ad5353" x="230.250547" y="55.845293" style="fill: #0000ff"/>
     <use xlink:href="#ma8c7ad5353" x="233.981438" y="55.899051" style="fill: #0000ff"/>
     <use xlink:href="#ma8c7ad5353" x="237.712328" y="56.381006" style="fill: #0000ff"/>
     <use xlink:href="#ma8c7ad5353" x="241.443219" y="56.842879" style="fill: #0000ff"/>
     <use xlink:href="#ma8c7ad5353" x="245.174109" y="57.492356" style="fill: #0000ff"/>
     <use xlink:href="#ma8c7ad5353" x="248.905" y="58.014691" style="fill: #0000ff"/>
     <use xlink:href="#ma8c7ad5353" x="252.635891" y="58.615722" style="fill: #0000ff"/>
     <use xlink:href="#ma8c7ad5353" x="256.366781" y="59.193636" style="fill: #0000ff"/>
     <use xlink:href="#ma8c7ad5353" x="260.097672" y="59.367993" style="fill: #0000ff"/>
     <use xlink:href="#ma8c7ad5353" x="263.828562" y="59.535892" style="fill: #0000ff"/>
     <use xlink:href="#ma8c7ad5353" x="267.559453" y="59.789653" style="fill: #0000ff"/>
     <use xlink:href="#ma8c7ad5353" x="271.290343" y="59.853701" style="fill: #0000ff"/>
     <use xlink:href="#ma8c7ad5353" x="275.021234" y="59.826762" style="fill: #0000ff"/>
     <use xlink:href="#ma8c7ad5353" x="278.752124" y="59.887962" style="fill: #0000ff"/>
     <use xlink:href="#ma8c7ad5353" x="282.483015" y="60.204284" style="fill: #0000ff"/>
     <use xlink:href="#ma8c7ad5353" x="286.213905" y="60.004242" style="fill: #0000ff"/>
     <use xlink:href="#ma8c7ad5353" x="289.944796" y="60.142444" style="fill: #0000ff"/>
     <use xlink:href="#ma8c7ad5353" x="293.675686" y="60.113021" style="fill: #0000ff"/>
     <use xlink:href="#ma8c7ad5353" x="297.406577" y="60.004242" style="fill: #0000ff"/>
     <use xlink:href="#ma8c7ad5353" x="301.137468" y="60.056932" style="fill: #0000ff"/>
     <use xlink:href="#ma8c7ad5353" x="304.868358" y="59.874545" style="fill: #0000ff"/>
     <use xlink:href="#ma8c7ad5353" x="308.599249" y="59.927603" style="fill: #0000ff"/>
     <use xlink:href="#ma8c7ad5353" x="312.330139" y="59.903582" style="fill: #0000ff"/>
     <use xlink:href="#ma8c7ad5353" x="316.06103" y="59.880267" style="fill: #0000ff"/>
     <use xlink:href="#ma8c7ad5353" x="319.79192" y="59.930935" style="fill: #0000ff"/>
     <use xlink:href="#ma8c7ad5353" x="323.522811" y="60.052416" style="fill: #0000ff"/>
     <use xlink:href="#ma8c7ad5353" x="327.253701" y="60.312958" style="fill: #0000ff"/>
     <use xlink:href="#ma8c7ad5353" x="330.984592" y="60.285253" style="fill: #0000ff"/>
     <use xlink:href="#ma8c7ad5353" x="334.715482" y="60.327597" style="fill: #0000ff"/>
     <use xlink:href="#ma8c7ad5353" x="338.446373" y="60.368796" style="fill: #0000ff"/>
     <use xlink:href="#ma8c7ad5353" x="342.177263" y="60.274012" style="fill: #0000ff"/>
     <use xlink:href="#ma8c7ad5353" x="345.908154" y="60.314833" style="fill: #0000ff"/>
     <use xlink:href="#ma8c7ad5353" x="349.639045" y="60.223211" style="fill: #0000ff"/>
     <use xlink:href="#ma8c7ad5353" x="353.369935" y="60.133939" style="fill: #0000ff"/>
     <use xlink:href="#ma8c7ad5353" x="357.100826" y="60.174983" style="fill: #0000ff"/>
     <use xlink:href="#ma8c7ad5353" x="360.831716" y="60.151773" style="fill: #0000ff"/>
     <use xlink:href="#ma8c7ad5353" x="364.562607" y="60.004242" style="fill: #0000ff"/>
     <use xlink:href="#ma8c7ad5353" x="368.293497" y="59.921996" style="fill: #0000ff"/>
     <use xlink:href="#ma8c7ad5353" x="372.024388" y="59.963614" style="fill: #0000ff"/>
     <use xlink:href="#ma8c7ad5353" x="375.755278" y="59.823593" style="fill: #0000ff"/>
     <use xlink:href="#ma8c7ad5353" x="379.486169" y="59.805882" style="fill: #0000ff"/>
     <use xlink:href="#ma8c7ad5353" x="383.217059" y="59.788584" style="fill: #0000ff"/>
     <use xlink:href="#ma8c7ad5353" x="386.94795" y="59.655402" style="fill: #0000ff"/>
     <use xlink:href="#ma8c7ad5353" x="390.67884" y="59.582727" style="fill: #0000ff"/>
     <use xlink:href="#ma8c7ad5353" x="394.409731" y="59.454852" style="fill: #0000ff"/>
     <use xlink:href="#ma8c7ad5353" x="398.140622" y="59.38602" style="fill: #0000ff"/>
     <use xlink:href="#ma8c7ad5353" x="401.871512" y="59.374286" style="fill: #0000ff"/>
     <use xlink:href="#ma8c7ad5353" x="405.602403" y="59.197866" style="fill: #0000ff"/>
     <use xlink:href="#ma8c7ad5353" x="409.333293" y="59.188407" style="fill: #0000ff"/>
     <use xlink:href="#ma8c7ad5353" x="413.064184" y="59.179149" style="fill: #0000ff"/>
     <use xlink:href="#ma8c7ad5353" x="416.795074" y="59.116842" style="fill: #0000ff"/>
     <use xlink:href="#ma8c7ad5353" x="420.525965" y="59.003144" style="fill: #0000ff"/>
     <use xlink:href="#ma8c7ad5353" x="424.256855" y="58.839644" style="fill: #0000ff"/>
     <use xlink:href="#ma8c7ad5353" x="427.987746" y="58.679481" style="fill: #0000ff"/>
     <use xlink:href="#ma8c7ad5353" x="431.718636" y="58.778017" style="fill: #0000ff"/>
    </g>
   </g>
   <g id="line2d_14">
    <path d="M 66.091364 103.841818 
L 69.822254 93.725455 
L 73.553145 86.981212 
L 77.284035 82.344545 
L 81.014926 78.348582 
L 84.745816 75.010182 
L 88.476707 72.315926 
L 92.207597 70.092003 
L 95.938488 68.221781 
L 99.669378 66.573857 
L 103.400269 65.112688 
L 107.13116 63.843953 
L 110.86205 62.700572 
L 114.592941 61.716561 
L 118.323831 60.905502 
L 122.054722 60.190555 
L 125.785612 59.52034 
L 129.516503 58.907145 
L 133.247393 58.329695 
L 136.978284 57.810656 
L 140.709174 57.364562 
L 144.440065 56.968975 
L 148.170955 56.61648 
L 151.901846 56.292214 
L 155.632737 55.992877 
L 159.363627 55.730634 
L 163.094518 55.479543 
L 166.825408 55.238979 
L 170.556299 55.026391 
L 174.287189 54.827006 
L 178.01808 54.644871 
L 181.74897 54.478103 
L 185.479861 54.315782 
L 189.210751 54.162213 
L 192.941642 54.041465 
L 196.672532 53.937797 
L 200.403423 53.864056 
L 204.134314 53.809628 
L 207.865204 53.778907 
L 211.596095 53.762773 
L 215.326985 53.768564 
L 219.057876 53.793732 
L 222.788766 53.827826 
L 226.519657 53.864562 
L 230.250547 53.908578 
L 233.981438 53.951849 
L 237.712328 54.003533 
L 241.443219 54.062686 
L 245.174109 54.13268 
L 248.905 54.21032 
L 252.635891 54.2967 
L 256.366781 54.390872 
L 260.097672 54.48478 
L 263.828562 54.578319 
L 267.559453 54.673071 
L 271.290343 54.765582 
L 275.021234 54.854375 
L 278.752124 54.941161 
L 282.483015 55.030366 
L 286.213905 55.113264 
L 289.944796 55.19571 
L 293.675686 55.275021 
L 297.406577 55.350088 
L 301.137468 55.423633 
L 304.868358 55.492108 
L 308.599249 55.559313 
L 312.330139 55.624152 
L 316.06103 55.686742 
L 319.79192 55.748252 
L 323.522811 55.809741 
L 327.253701 55.873166 
L 330.984592 55.934445 
L 334.715482 55.994625 
L 338.446373 56.053736 
L 342.177263 56.110006 
L 345.908154 56.165333 
L 349.639045 56.218032 
L 353.369935 56.268236 
L 357.100826 56.317689 
L 360.831716 56.365615 
L 364.562607 56.410536 
L 368.293497 56.453359 
L 372.024388 56.495651 
L 375.755278 56.535269 
L 379.486169 56.573747 
L 383.217059 56.611129 
L 386.94795 56.646121 
L 390.67884 56.679491 
L 394.409731 56.710675 
L 398.140622 56.740401 
L 401.871512 56.769345 
L 405.602403 56.795742 
L 409.333293 56.821469 
L 413.064184 56.846551 
L 416.795074 56.870449 
L 420.525965 56.892665 
L 424.256855 56.912736 
L 427.987746 56.930764 
L 431.718636 56.949424 
" clip-path="url(#p86823d85bb)" style="fill: none; stroke: #ff0000; stroke-opacity: 0.5; stroke-width: 0.5; stroke-linecap: square"/>
    <defs>
     <path id="mb29fcbefeb" d="M -0.49999 0.49999 
L 0.50001 0.49999 
L 0.50001 -0.50001 
L -0.49999 -0.50001 
z
"/>
    </defs>
    <g clip-path="url(#p86823d85bb)">
     <use xlink:href="#mb29fcbefeb" x="66.091364" y="103.841818" style="fill: #ff0000; fill-opacity: 0.5"/>
     <use xlink:href="#mb29fcbefeb" x="69.822254" y="93.725455" style="fill: #ff0000; fill-opacity: 0.5"/>
     <use xlink:href="#mb29fcbefeb" x="73.553145" y="86.981212" style="fill: #ff0000; fill-opacity: 0.5"/>
     <use xlink:href="#mb29fcbefeb" x="77.284035" y="82.344545" style="fill: #ff0000; fill-opacity: 0.5"/>
     <use xlink:href="#mb29fcbefeb" x="81.014926" y="78.348582" style="fill: #ff0000; fill-opacity: 0.5"/>
     <use xlink:href="#mb29fcbefeb" x="84.745816" y="75.010182" style="fill: #ff0000; fill-opacity: 0.5"/>
     <use xlink:href="#mb29fcbefeb" x="88.476707" y="72.315926" style="fill: #ff0000; fill-opacity: 0.5"/>
     <use xlink:href="#mb29fcbefeb" x="92.207597" y="70.092003" style="fill: #ff0000; fill-opacity: 0.5"/>
     <use xlink:href="#mb29fcbefeb" x="95.938488" y="68.221781" style="fill: #ff0000; fill-opacity: 0.5"/>
     <use xlink:href="#mb29fcbefeb" x="99.669378" y="66.573857" style="fill: #ff0000; fill-opacity: 0.5"/>
     <use xlink:href="#mb29fcbefeb" x="103.400269" y="65.112688" style="fill: #ff0000; fill-opacity: 0.5"/>
     <use xlink:href="#mb29fcbefeb" x="107.13116" y="63.843953" style="fill: #ff0000; fill-opacity: 0.5"/>
     <use xlink:href="#mb29fcbefeb" x="110.86205" y="62.700572" style="fill: #ff0000; fill-opacity: 0.5"/>
     <use xlink:href="#mb29fcbefeb" x="114.592941" y="61.716561" style="fill: #ff0000; fill-opacity: 0.5"/>
     <use xlink:href="#mb29fcbefeb" x="118.323831" y="60.905502" style="fill: #ff0000; fill-opacity: 0.5"/>
     <use xlink:href="#mb29fcbefeb" x="122.054722" y="60.190555" style="fill: #ff0000; fill-opacity: 0.5"/>
     <use xlink:href="#mb29fcbefeb" x="125.785612" y="59.52034" style="fill: #ff0000; fill-opacity: 0.5"/>
     <use xlink:href="#mb29fcbefeb" x="129.516503" y="58.907145" style="fill: #ff0000; fill-opacity: 0.5"/>
     <use xlink:href="#mb29fcbefeb" x="133.247393" y="58.329695" style="fill: #ff0000; fill-opacity: 0.5"/>
     <use xlink:href="#mb29fcbefeb" x="136.978284" y="57.810656" style="fill: #ff0000; fill-opacity: 0.5"/>
     <use xlink:href="#mb29fcbefeb" x="140.709174" y="57.364562" style="fill: #ff0000; fill-opacity: 0.5"/>
     <use xlink:href="#mb29fcbefeb" x="144.440065" y="56.968975" style="fill: #ff0000; fill-opacity: 0.5"/>
     <use xlink:href="#mb29fcbefeb" x="148.170955" y="56.61648" style="fill: #ff0000; fill-opacity: 0.5"/>
     <use xlink:href="#mb29fcbefeb" x="151.901846" y="56.292214" style="fill: #ff0000; fill-opacity: 0.5"/>
     <use xlink:href="#mb29fcbefeb" x="155.632737" y="55.992877" style="fill: #ff0000; fill-opacity: 0.5"/>
     <use xlink:href="#mb29fcbefeb" x="159.363627" y="55.730634" style="fill: #ff0000; fill-opacity: 0.5"/>
     <use xlink:href="#mb29fcbefeb" x="163.094518" y="55.479543" style="fill: #ff0000; fill-opacity: 0.5"/>
     <use xlink:href="#mb29fcbefeb" x="166.825408" y="55.238979" style="fill: #ff0000; fill-opacity: 0.5"/>
     <use xlink:href="#mb29fcbefeb" x="170.556299" y="55.026391" style="fill: #ff0000; fill-opacity: 0.5"/>
     <use xlink:href="#mb29fcbefeb" x="174.287189" y="54.827006" style="fill: #ff0000; fill-opacity: 0.5"/>
     <use xlink:href="#mb29fcbefeb" x="178.01808" y="54.644871" style="fill: #ff0000; fill-opacity: 0.5"/>
     <use xlink:href="#mb29fcbefeb" x="181.74897" y="54.478103" style="fill: #ff0000; fill-opacity: 0.5"/>
     <use xlink:href="#mb29fcbefeb" x="185.479861" y="54.315782" style="fill: #ff0000; fill-opacity: 0.5"/>
     <use xlink:href="#mb29fcbefeb" x="189.210751" y="54.162213" style="fill: #ff0000; fill-opacity: 0.5"/>
     <use xlink:href="#mb29fcbefeb" x="192.941642" y="54.041465" style="fill: #ff0000; fill-opacity: 0.5"/>
     <use xlink:href="#mb29fcbefeb" x="196.672532" y="53.937797" style="fill: #ff0000; fill-opacity: 0.5"/>
     <use xlink:href="#mb29fcbefeb" x="200.403423" y="53.864056" style="fill: #ff0000; fill-opacity: 0.5"/>
     <use xlink:href="#mb29fcbefeb" x="204.134314" y="53.809628" style="fill: #ff0000; fill-opacity: 0.5"/>
     <use xlink:href="#mb29fcbefeb" x="207.865204" y="53.778907" style="fill: #ff0000; fill-opacity: 0.5"/>
     <use xlink:href="#mb29fcbefeb" x="211.596095" y="53.762773" style="fill: #ff0000; fill-opacity: 0.5"/>
     <use xlink:href="#mb29fcbefeb" x="215.326985" y="53.768564" style="fill: #ff0000; fill-opacity: 0.5"/>
     <use xlink:href="#mb29fcbefeb" x="219.057876" y="53.793732" style="fill: #ff0000; fill-opacity: 0.5"/>
     <use xlink:href="#mb29fcbefeb" x="222.788766" y="53.827826" style="fill: #ff0000; fill-opacity: 0.5"/>
     <use xlink:href="#mb29fcbefeb" x="226.519657" y="53.864562" style="fill: #ff0000; fill-opacity: 0.5"/>
     <use xlink:href="#mb29fcbefeb" x="230.250547" y="53.908578" style="fill: #ff0000; fill-opacity: 0.5"/>
     <use xlink:href="#mb29fcbefeb" x="233.981438" y="53.951849" style="fill: #ff0000; fill-opacity: 0.5"/>
     <use xlink:href="#mb29fcbefeb" x="237.712328" y="54.003533" style="fill: #ff0000; fill-opacity: 0.5"/>
     <use xlink:href="#mb29fcbefeb" x="241.443219" y="54.062686" style="fill: #ff0000; fill-opacity: 0.5"/>
     <use xlink:href="#mb29fcbefeb" x="245.174109" y="54.13268" style="fill: #ff0000; fill-opacity: 0.5"/>
     <use xlink:href="#mb29fcbefeb" x="248.905" y="54.21032" style="fill: #ff0000; fill-opacity: 0.5"/>
     <use xlink:href="#mb29fcbefeb" x="252.635891" y="54.2967" style="fill: #ff0000; fill-opacity: 0.5"/>
     <use xlink:href="#mb29fcbefeb" x="256.366781" y="54.390872" style="fill: #ff0000; fill-opacity: 0.5"/>
     <use xlink:href="#mb29fcbefeb" x="260.097672" y="54.48478" style="fill: #ff0000; fill-opacity: 0.5"/>
     <use xlink:href="#mb29fcbefeb" x="263.828562" y="54.578319" style="fill: #ff0000; fill-opacity: 0.5"/>
     <use xlink:href="#mb29fcbefeb" x="267.559453" y="54.673071" style="fill: #ff0000; fill-opacity: 0.5"/>
     <use xlink:href="#mb29fcbefeb" x="271.290343" y="54.765582" style="fill: #ff0000; fill-opacity: 0.5"/>
     <use xlink:href="#mb29fcbefeb" x="275.021234" y="54.854375" style="fill: #ff0000; fill-opacity: 0.5"/>
     <use xlink:href="#mb29fcbefeb" x="278.752124" y="54.941161" style="fill: #ff0000; fill-opacity: 0.5"/>
     <use xlink:href="#mb29fcbefeb" x="282.483015" y="55.030366" style="fill: #ff0000; fill-opacity: 0.5"/>
     <use xlink:href="#mb29fcbefeb" x="286.213905" y="55.113264" style="fill: #ff0000; fill-opacity: 0.5"/>
     <use xlink:href="#mb29fcbefeb" x="289.944796" y="55.19571" style="fill: #ff0000; fill-opacity: 0.5"/>
     <use xlink:href="#mb29fcbefeb" x="293.675686" y="55.275021" style="fill: #ff0000; fill-opacity: 0.5"/>
     <use xlink:href="#mb29fcbefeb" x="297.406577" y="55.350088" style="fill: #ff0000; fill-opacity: 0.5"/>
     <use xlink:href="#mb29fcbefeb" x="301.137468" y="55.423633" style="fill: #ff0000; fill-opacity: 0.5"/>
     <use xlink:href="#mb29fcbefeb" x="304.868358" y="55.492108" style="fill: #ff0000; fill-opacity: 0.5"/>
     <use xlink:href="#mb29fcbefeb" x="308.599249" y="55.559313" style="fill: #ff0000; fill-opacity: 0.5"/>
     <use xlink:href="#mb29fcbefeb" x="312.330139" y="55.624152" style="fill: #ff0000; fill-opacity: 0.5"/>
     <use xlink:href="#mb29fcbefeb" x="316.06103" y="55.686742" style="fill: #ff0000; fill-opacity: 0.5"/>
     <use xlink:href="#mb29fcbefeb" x="319.79192" y="55.748252" style="fill: #ff0000; fill-opacity: 0.5"/>
     <use xlink:href="#mb29fcbefeb" x="323.522811" y="55.809741" style="fill: #ff0000; fill-opacity: 0.5"/>
     <use xlink:href="#mb29fcbefeb" x="327.253701" y="55.873166" style="fill: #ff0000; fill-opacity: 0.5"/>
     <use xlink:href="#mb29fcbefeb" x="330.984592" y="55.934445" style="fill: #ff0000; fill-opacity: 0.5"/>
     <use xlink:href="#mb29fcbefeb" x="334.715482" y="55.994625" style="fill: #ff0000; fill-opacity: 0.5"/>
     <use xlink:href="#mb29fcbefeb" x="338.446373" y="56.053736" style="fill: #ff0000; fill-opacity: 0.5"/>
     <use xlink:href="#mb29fcbefeb" x="342.177263" y="56.110006" style="fill: #ff0000; fill-opacity: 0.5"/>
     <use xlink:href="#mb29fcbefeb" x="345.908154" y="56.165333" style="fill: #ff0000; fill-opacity: 0.5"/>
     <use xlink:href="#mb29fcbefeb" x="349.639045" y="56.218032" style="fill: #ff0000; fill-opacity: 0.5"/>
     <use xlink:href="#mb29fcbefeb" x="353.369935" y="56.268236" style="fill: #ff0000; fill-opacity: 0.5"/>
     <use xlink:href="#mb29fcbefeb" x="357.100826" y="56.317689" style="fill: #ff0000; fill-opacity: 0.5"/>
     <use xlink:href="#mb29fcbefeb" x="360.831716" y="56.365615" style="fill: #ff0000; fill-opacity: 0.5"/>
     <use xlink:href="#mb29fcbefeb" x="364.562607" y="56.410536" style="fill: #ff0000; fill-opacity: 0.5"/>
     <use xlink:href="#mb29fcbefeb" x="368.293497" y="56.453359" style="fill: #ff0000; fill-opacity: 0.5"/>
     <use xlink:href="#mb29fcbefeb" x="372.024388" y="56.495651" style="fill: #ff0000; fill-opacity: 0.5"/>
     <use xlink:href="#mb29fcbefeb" x="375.755278" y="56.535269" style="fill: #ff0000; fill-opacity: 0.5"/>
     <use xlink:href="#mb29fcbefeb" x="379.486169" y="56.573747" style="fill: #ff0000; fill-opacity: 0.5"/>
     <use xlink:href="#mb29fcbefeb" x="383.217059" y="56.611129" style="fill: #ff0000; fill-opacity: 0.5"/>
     <use xlink:href="#mb29fcbefeb" x="386.94795" y="56.646121" style="fill: #ff0000; fill-opacity: 0.5"/>
     <use xlink:href="#mb29fcbefeb" x="390.67884" y="56.679491" style="fill: #ff0000; fill-opacity: 0.5"/>
     <use xlink:href="#mb29fcbefeb" x="394.409731" y="56.710675" style="fill: #ff0000; fill-opacity: 0.5"/>
     <use xlink:href="#mb29fcbefeb" x="398.140622" y="56.740401" style="fill: #ff0000; fill-opacity: 0.5"/>
     <use xlink:href="#mb29fcbefeb" x="401.871512" y="56.769345" style="fill: #ff0000; fill-opacity: 0.5"/>
     <use xlink:href="#mb29fcbefeb" x="405.602403" y="56.795742" style="fill: #ff0000; fill-opacity: 0.5"/>
     <use xlink:href="#mb29fcbefeb" x="409.333293" y="56.821469" style="fill: #ff0000; fill-opacity: 0.5"/>
     <use xlink:href="#mb29fcbefeb" x="413.064184" y="56.846551" style="fill: #ff0000; fill-opacity: 0.5"/>
     <use xlink:href="#mb29fcbefeb" x="416.795074" y="56.870449" style="fill: #ff0000; fill-opacity: 0.5"/>
     <use xlink:href="#mb29fcbefeb" x="420.525965" y="56.892665" style="fill: #ff0000; fill-opacity: 0.5"/>
     <use xlink:href="#mb29fcbefeb" x="424.256855" y="56.912736" style="fill: #ff0000; fill-opacity: 0.5"/>
     <use xlink:href="#mb29fcbefeb" x="427.987746" y="56.930764" style="fill: #ff0000; fill-opacity: 0.5"/>
     <use xlink:href="#mb29fcbefeb" x="431.718636" y="56.949424" style="fill: #ff0000; fill-opacity: 0.5"/>
    </g>
   </g>
   <g id="line2d_15">
    <path d="M 47.81 290.994545 
L 450 290.994545 
" clip-path="url(#p86823d85bb)" style="fill: none; stroke-dasharray: 0.555,0.24; stroke-dashoffset: 0; stroke: #ff0000; stroke-width: 0.15"/>
   </g>
   <g id="line2d_16">
    <path d="M 47.81 164.54 
L 450 164.54 
" clip-path="url(#p86823d85bb)" style="fill: none; stroke-dasharray: 0.555,0.24; stroke-dashoffset: 0; stroke: #ff0000; stroke-width: 0.15"/>
   </g>
   <g id="line2d_17">
    <path d="M 47.81 38.085455 
L 450 38.085455 
" clip-path="url(#p86823d85bb)" style="fill: none; stroke-dasharray: 0.555,0.24; stroke-dashoffset: 0; stroke: #ff0000; stroke-width: 0.15"/>
   </g>
   <g id="patch_3">
    <path d="M 47.81 303.64 
L 47.81 25.44 
" style="fill: none; stroke: #000000; stroke-width: 0.8; stroke-linejoin: miter; stroke-linecap: square"/>
   </g>
   <g id="patch_4">
    <path d="M 450 303.64 
L 450 25.44 
" style="fill: none; stroke: #000000; stroke-width: 0.8; stroke-linejoin: miter; stroke-linecap: square"/>
   </g>
   <g id="patch_5">
    <path d="M 47.81 303.64 
L 450 303.64 
" style="fill: none; stroke: #000000; stroke-width: 0.8; stroke-linejoin: miter; stroke-linecap: square"/>
   </g>
   <g id="patch_6">
    <path d="M 47.81 25.44 
L 450 25.44 
" style="fill: none; stroke: #000000; stroke-width: 0.8; stroke-linejoin: miter; stroke-linecap: square"/>
   </g>
   <g id="text_15">
    <!-- Similarity LLM-DEF_sw20 - 20240412104155 - 50 games -->
    <g transform="translate(78.98125 19.44) scale(0.12 -0.12)">
     <defs>
      <path id="DejaVuSans-20" transform="scale(0.015625)"/>
      <path id="DejaVuSans-4c" d="M 628 4666 
L 1259 4666 
L 1259 531 
L 3531 531 
L 3531 0 
L 628 0 
L 628 4666 
z
" transform="scale(0.015625)"/>
      <path id="DejaVuSans-4d" d="M 628 4666 
L 1569 4666 
L 2759 1491 
L 3956 4666 
L 4897 4666 
L 4897 0 
L 4281 0 
L 4281 4097 
L 3078 897 
L 2444 897 
L 1241 4097 
L 1241 0 
L 628 0 
L 628 4666 
z
" transform="scale(0.015625)"/>
      <path id="DejaVuSans-2d" d="M 313 2009 
L 1997 2009 
L 1997 1497 
L 313 1497 
L 313 2009 
z
" transform="scale(0.015625)"/>
      <path id="DejaVuSans-44" d="M 1259 4147 
L 1259 519 
L 2022 519 
Q 2988 519 3436 956 
Q 3884 1394 3884 2338 
Q 3884 3275 3436 3711 
Q 2988 4147 2022 4147 
L 1259 4147 
z
M 628 4666 
L 1925 4666 
Q 3281 4666 3915 4102 
Q 4550 3538 4550 2338 
Q 4550 1131 3912 565 
Q 3275 0 1925 0 
L 628 0 
L 628 4666 
z
" transform="scale(0.015625)"/>
      <path id="DejaVuSans-45" d="M 628 4666 
L 3578 4666 
L 3578 4134 
L 1259 4134 
L 1259 2753 
L 3481 2753 
L 3481 2222 
L 1259 2222 
L 1259 531 
L 3634 531 
L 3634 0 
L 628 0 
L 628 4666 
z
" transform="scale(0.015625)"/>
      <path id="DejaVuSans-46" d="M 628 4666 
L 3309 4666 
L 3309 4134 
L 1259 4134 
L 1259 2759 
L 3109 2759 
L 3109 2228 
L 1259 2228 
L 1259 0 
L 628 0 
L 628 4666 
z
" transform="scale(0.015625)"/>
      <path id="DejaVuSans-5f" d="M 3263 -1063 
L 3263 -1509 
L -63 -1509 
L -63 -1063 
L 3263 -1063 
z
" transform="scale(0.015625)"/>
      <path id="DejaVuSans-73" d="M 2834 3397 
L 2834 2853 
Q 2591 2978 2328 3040 
Q 2066 3103 1784 3103 
Q 1356 3103 1142 2972 
Q 928 2841 928 2578 
Q 928 2378 1081 2264 
Q 1234 2150 1697 2047 
L 1894 2003 
Q 2506 1872 2764 1633 
Q 3022 1394 3022 966 
Q 3022 478 2636 193 
Q 2250 -91 1575 -91 
Q 1294 -91 989 -36 
Q 684 19 347 128 
L 347 722 
Q 666 556 975 473 
Q 1284 391 1588 391 
Q 1994 391 2212 530 
Q 2431 669 2431 922 
Q 2431 1156 2273 1281 
Q 2116 1406 1581 1522 
L 1381 1569 
Q 847 1681 609 1914 
Q 372 2147 372 2553 
Q 372 3047 722 3315 
Q 1072 3584 1716 3584 
Q 2034 3584 2315 3537 
Q 2597 3491 2834 3397 
z
" transform="scale(0.015625)"/>
      <path id="DejaVuSans-77" d="M 269 3500 
L 844 3500 
L 1563 769 
L 2278 3500 
L 2956 3500 
L 3675 769 
L 4391 3500 
L 4966 3500 
L 4050 0 
L 3372 0 
L 2619 2869 
L 1863 0 
L 1184 0 
L 269 3500 
z
" transform="scale(0.015625)"/>
      <path id="DejaVuSans-35" d="M 691 4666 
L 3169 4666 
L 3169 4134 
L 1269 4134 
L 1269 2991 
Q 1406 3038 1543 3061 
Q 1681 3084 1819 3084 
Q 2600 3084 3056 2656 
Q 3513 2228 3513 1497 
Q 3513 744 3044 326 
Q 2575 -91 1722 -91 
Q 1428 -91 1123 -41 
Q 819 9 494 109 
L 494 744 
Q 775 591 1075 516 
Q 1375 441 1709 441 
Q 2250 441 2565 725 
Q 2881 1009 2881 1497 
Q 2881 1984 2565 2268 
Q 2250 2553 1709 2553 
Q 1456 2553 1204 2497 
Q 953 2441 691 2322 
L 691 4666 
z
" transform="scale(0.015625)"/>
      <path id="DejaVuSans-67" d="M 2906 1791 
Q 2906 2416 2648 2759 
Q 2391 3103 1925 3103 
Q 1463 3103 1205 2759 
Q 947 2416 947 1791 
Q 947 1169 1205 825 
Q 1463 481 1925 481 
Q 2391 481 2648 825 
Q 2906 1169 2906 1791 
z
M 3481 434 
Q 3481 -459 3084 -895 
Q 2688 -1331 1869 -1331 
Q 1566 -1331 1297 -1286 
Q 1028 -1241 775 -1147 
L 775 -588 
Q 1028 -725 1275 -790 
Q 1522 -856 1778 -856 
Q 2344 -856 2625 -561 
Q 2906 -266 2906 331 
L 2906 616 
Q 2728 306 2450 153 
Q 2172 0 1784 0 
Q 1141 0 747 490 
Q 353 981 353 1791 
Q 353 2603 747 3093 
Q 1141 3584 1784 3584 
Q 2172 3584 2450 3431 
Q 2728 3278 2906 2969 
L 2906 3500 
L 3481 3500 
L 3481 434 
z
" transform="scale(0.015625)"/>
     </defs>
     <use xlink:href="#DejaVuSans-53"/>
     <use xlink:href="#DejaVuSans-69" x="63.476562"/>
     <use xlink:href="#DejaVuSans-6d" x="91.259766"/>
     <use xlink:href="#DejaVuSans-69" x="188.671875"/>
     <use xlink:href="#DejaVuSans-6c" x="216.455078"/>
     <use xlink:href="#DejaVuSans-61" x="244.238281"/>
     <use xlink:href="#DejaVuSans-72" x="305.517578"/>
     <use xlink:href="#DejaVuSans-69" x="346.630859"/>
     <use xlink:href="#DejaVuSans-74" x="374.414062"/>
     <use xlink:href="#DejaVuSans-79" x="413.623047"/>
     <use xlink:href="#DejaVuSans-20" x="472.802734"/>
     <use xlink:href="#DejaVuSans-4c" x="504.589844"/>
     <use xlink:href="#DejaVuSans-4c" x="560.302734"/>
     <use xlink:href="#DejaVuSans-4d" x="616.015625"/>
     <use xlink:href="#DejaVuSans-2d" x="702.294922"/>
     <use xlink:href="#DejaVuSans-44" x="738.378906"/>
     <use xlink:href="#DejaVuSans-45" x="815.380859"/>
     <use xlink:href="#DejaVuSans-46" x="878.564453"/>
     <use xlink:href="#DejaVuSans-5f" x="936.083984"/>
     <use xlink:href="#DejaVuSans-73" x="986.083984"/>
     <use xlink:href="#DejaVuSans-77" x="1038.183594"/>
     <use xlink:href="#DejaVuSans-32" x="1119.970703"/>
     <use xlink:href="#DejaVuSans-30" x="1183.59375"/>
     <use xlink:href="#DejaVuSans-20" x="1247.216797"/>
     <use xlink:href="#DejaVuSans-2d" x="1279.003906"/>
     <use xlink:href="#DejaVuSans-20" x="1315.087891"/>
     <use xlink:href="#DejaVuSans-32" x="1346.875"/>
     <use xlink:href="#DejaVuSans-30" x="1410.498047"/>
     <use xlink:href="#DejaVuSans-32" x="1474.121094"/>
     <use xlink:href="#DejaVuSans-34" x="1537.744141"/>
     <use xlink:href="#DejaVuSans-30" x="1601.367188"/>
     <use xlink:href="#DejaVuSans-34" x="1664.990234"/>
     <use xlink:href="#DejaVuSans-31" x="1728.613281"/>
     <use xlink:href="#DejaVuSans-32" x="1792.236328"/>
     <use xlink:href="#DejaVuSans-31" x="1855.859375"/>
     <use xlink:href="#DejaVuSans-30" x="1919.482422"/>
     <use xlink:href="#DejaVuSans-34" x="1983.105469"/>
     <use xlink:href="#DejaVuSans-31" x="2046.728516"/>
     <use xlink:href="#DejaVuSans-35" x="2110.351562"/>
     <use xlink:href="#DejaVuSans-35" x="2173.974609"/>
     <use xlink:href="#DejaVuSans-20" x="2237.597656"/>
     <use xlink:href="#DejaVuSans-2d" x="2269.384766"/>
     <use xlink:href="#DejaVuSans-20" x="2305.46875"/>
     <use xlink:href="#DejaVuSans-35" x="2337.255859"/>
     <use xlink:href="#DejaVuSans-30" x="2400.878906"/>
     <use xlink:href="#DejaVuSans-20" x="2464.501953"/>
     <use xlink:href="#DejaVuSans-67" x="2496.289062"/>
     <use xlink:href="#DejaVuSans-61" x="2559.765625"/>
     <use xlink:href="#DejaVuSans-6d" x="2621.044922"/>
     <use xlink:href="#DejaVuSans-65" x="2718.457031"/>
     <use xlink:href="#DejaVuSans-73" x="2779.980469"/>
    </g>
   </g>
   <g id="legend_1">
    <g id="patch_7">
     <path d="M 54.81 298.64 
L 192.61 298.64 
Q 194.61 298.64 194.61 296.64 
L 194.61 267.7275 
Q 194.61 265.7275 192.61 265.7275 
L 54.81 265.7275 
Q 52.81 265.7275 52.81 267.7275 
L 52.81 296.64 
Q 52.81 298.64 54.81 298.64 
z
" style="fill: #ffffff; opacity: 0.8; stroke: #cccccc; stroke-linejoin: miter"/>
    </g>
    <g id="line2d_18">
     <path d="M 56.81 273.825937 
L 66.81 273.825937 
L 76.81 273.825937 
" style="fill: none; stroke: #0000ff; stroke-linecap: square"/>
     <g>
      <use xlink:href="#ma8c7ad5353" x="66.81" y="273.825937" style="fill: #0000ff"/>
     </g>
    </g>
    <g id="text_16">
     <!-- LLM-DEF_sw20 -->
     <g transform="translate(84.81 277.325937) scale(0.1 -0.1)">
      <use xlink:href="#DejaVuSans-4c"/>
      <use xlink:href="#DejaVuSans-4c" x="55.712891"/>
      <use xlink:href="#DejaVuSans-4d" x="111.425781"/>
      <use xlink:href="#DejaVuSans-2d" x="197.705078"/>
      <use xlink:href="#DejaVuSans-44" x="233.789062"/>
      <use xlink:href="#DejaVuSans-45" x="310.791016"/>
      <use xlink:href="#DejaVuSans-46" x="373.974609"/>
      <use xlink:href="#DejaVuSans-5f" x="431.494141"/>
      <use xlink:href="#DejaVuSans-73" x="481.494141"/>
      <use xlink:href="#DejaVuSans-77" x="533.59375"/>
      <use xlink:href="#DejaVuSans-32" x="615.380859"/>
      <use xlink:href="#DejaVuSans-30" x="679.003906"/>
     </g>
    </g>
    <g id="line2d_19">
     <path d="M 56.81 288.782187 
L 66.81 288.782187 
L 76.81 288.782187 
" style="fill: none; stroke: #ff0000; stroke-opacity: 0.5; stroke-width: 0.5; stroke-linecap: square"/>
     <g>
      <use xlink:href="#mb29fcbefeb" x="66.81" y="288.782187" style="fill: #ff0000; fill-opacity: 0.5"/>
     </g>
    </g>
    <g id="text_17">
     <!-- LLM-DEF_sw20 mean -->
     <g transform="translate(84.81 292.282187) scale(0.1 -0.1)">
      <use xlink:href="#DejaVuSans-4c"/>
      <use xlink:href="#DejaVuSans-4c" x="55.712891"/>
      <use xlink:href="#DejaVuSans-4d" x="111.425781"/>
      <use xlink:href="#DejaVuSans-2d" x="197.705078"/>
      <use xlink:href="#DejaVuSans-44" x="233.789062"/>
      <use xlink:href="#DejaVuSans-45" x="310.791016"/>
      <use xlink:href="#DejaVuSans-46" x="373.974609"/>
      <use xlink:href="#DejaVuSans-5f" x="431.494141"/>
      <use xlink:href="#DejaVuSans-73" x="481.494141"/>
      <use xlink:href="#DejaVuSans-77" x="533.59375"/>
      <use xlink:href="#DejaVuSans-32" x="615.380859"/>
      <use xlink:href="#DejaVuSans-30" x="679.003906"/>
      <use xlink:href="#DejaVuSans-20" x="742.626953"/>
      <use xlink:href="#DejaVuSans-6d" x="774.414062"/>
      <use xlink:href="#DejaVuSans-65" x="871.826172"/>
      <use xlink:href="#DejaVuSans-61" x="933.349609"/>
      <use xlink:href="#DejaVuSans-6e" x="994.628906"/>
     </g>
    </g>
   </g>
  </g>
 </g>
 <defs>
  <clipPath id="p86823d85bb">
   <rect x="47.81" y="25.44" width="402.19" height="278.2"/>
  </clipPath>
 </defs>
</svg>
