<?xml version="1.0" encoding="utf-8" standalone="no"?>
<!DOCTYPE svg PUBLIC "-//W3C//DTD SVG 1.1//EN"
  "http://www.w3.org/Graphics/SVG/1.1/DTD/svg11.dtd">
<svg xmlns:xlink="http://www.w3.org/1999/xlink" width="460.8pt" height="345.6pt" viewBox="0 0 460.8 345.6" xmlns="http://www.w3.org/2000/svg" version="1.1">
 <metadata>
  <rdf:RDF xmlns:dc="http://purl.org/dc/elements/1.1/" xmlns:cc="http://creativecommons.org/ns#" xmlns:rdf="http://www.w3.org/1999/02/22-rdf-syntax-ns#">
   <cc:Work>
    <dc:type rdf:resource="http://purl.org/dc/dcmitype/StillImage"/>
    <dc:date>2024-04-10T11:19:47.236197</dc:date>
    <dc:format>image/svg+xml</dc:format>
    <dc:creator>
     <cc:Agent>
      <dc:title>Matplotlib v3.8.0, https://matplotlib.org/</dc:title>
     </cc:Agent>
    </dc:creator>
   </cc:Work>
  </rdf:RDF>
 </metadata>
 <defs>
  <style type="text/css">*{stroke-linejoin: round; stroke-linecap: butt}</style>
 </defs>
 <g id="figure_1">
  <g id="patch_1">
   <path d="M 0 345.6 
L 460.8 345.6 
L 460.8 0 
L 0 0 
z
" style="fill: #ffffff"/>
  </g>
  <g id="axes_1">
   <g id="patch_2">
    <path d="M 47.81 303.64 
L 450 303.64 
L 450 25.44 
L 47.81 25.44 
z
" style="fill: #ffffff"/>
   </g>
   <g id="PolyCollection_1">
    <defs>
     <path id="m195784cb93" d="M 66.091364 -287.281818 
L 66.091364 -287.281818 
L 69.822254 -288.329402 
L 73.553145 -286.83004 
L 77.284035 -286.171903 
L 81.014926 -285.423563 
L 84.745816 -284.700249 
L 88.476707 -284.105812 
L 92.207597 -283.652501 
L 95.938488 -283.354634 
L 99.669378 -283.239733 
L 103.400269 -283.155129 
L 107.13116 -283.191587 
L 110.86205 -283.376096 
L 114.592941 -283.616081 
L 118.323831 -283.795694 
L 122.054722 -283.860954 
L 125.785612 -283.939428 
L 129.516503 -284.085778 
L 133.247393 -284.317428 
L 136.978284 -284.58563 
L 140.709174 -284.937026 
L 144.440065 -285.321648 
L 148.170955 -285.650391 
L 151.901846 -286.002052 
L 155.632737 -286.389787 
L 159.363627 -286.802177 
L 163.094518 -287.230013 
L 166.825408 -287.666126 
L 170.556299 -288.105072 
L 174.287189 -288.527073 
L 178.01808 -288.947118 
L 181.74897 -289.349163 
L 185.479861 -289.734192 
L 189.210751 -290.103137 
L 192.941642 -290.456877 
L 196.672532 -290.806387 
L 200.403423 -291.141078 
L 204.134314 -291.470827 
L 207.865204 -291.794966 
L 211.596095 -292.113007 
L 215.326985 -292.424605 
L 219.057876 -292.72953 
L 222.788766 -293.027641 
L 226.519657 -293.318871 
L 230.250547 -293.603211 
L 233.981438 -293.880695 
L 237.712328 -294.151392 
L 241.443219 -294.415399 
L 245.174109 -294.667703 
L 248.905 -294.913987 
L 252.635891 -295.164144 
L 256.366781 -295.417943 
L 260.097672 -295.679897 
L 263.828562 -295.963798 
L 267.559453 -296.263843 
L 271.290343 -296.57438 
L 275.021234 -296.890043 
L 278.752124 -297.210499 
L 282.483015 -297.530832 
L 286.213905 -297.846543 
L 289.944796 -298.166822 
L 293.675686 -298.482629 
L 297.406577 -298.781563 
L 301.137468 -299.07729 
L 304.868358 -299.374092 
L 308.599249 -299.684066 
L 312.330139 -299.994441 
L 316.06103 -300.297293 
L 319.79192 -300.589289 
L 323.522811 -300.871177 
L 327.253701 -301.132778 
L 330.984592 -301.382609 
L 334.715482 -301.631731 
L 338.446373 -301.873403 
L 342.177263 -302.101485 
L 345.908154 -302.320059 
L 349.639045 -302.526583 
L 353.369935 -302.724836 
L 357.100826 -302.915287 
L 360.831716 -303.101278 
L 364.562607 -303.277332 
L 368.293497 -303.449577 
L 372.024388 -303.6182 
L 375.755278 -303.780674 
L 379.486169 -303.939957 
L 383.217059 -304.093591 
L 386.94795 -304.239308 
L 390.67884 -304.380005 
L 394.409731 -304.51592 
L 398.140622 -304.647274 
L 401.871512 -304.774274 
L 405.602403 -304.892504 
L 409.333293 -305.004664 
L 413.064184 -305.113246 
L 416.795074 -305.218402 
L 420.525965 -305.320276 
L 424.256855 -305.414816 
L 427.987746 -305.504422 
L 431.718636 -305.593331 
L 431.718636 -287.043043 
L 431.718636 -287.043043 
L 427.987746 -286.948875 
L 424.256855 -286.853715 
L 420.525965 -286.757533 
L 416.795074 -286.66041 
L 413.064184 -286.562334 
L 409.333293 -286.463314 
L 405.602403 -286.36336 
L 401.871512 -286.262589 
L 398.140622 -286.161227 
L 394.409731 -286.059086 
L 390.67884 -285.956199 
L 386.94795 -285.852605 
L 383.217059 -285.74835 
L 379.486169 -285.643749 
L 375.755278 -285.53865 
L 372.024388 -285.432809 
L 368.293497 -285.326571 
L 364.562607 -285.219667 
L 360.831716 -285.112123 
L 357.100826 -285.004775 
L 353.369935 -284.89696 
L 349.639045 -284.789199 
L 345.908154 -284.681656 
L 342.177263 -284.57509 
L 338.446373 -284.469244 
L 334.715482 -284.365068 
L 330.984592 -284.261546 
L 327.253701 -284.157348 
L 323.522811 -284.054804 
L 319.79192 -283.95613 
L 316.06103 -283.859344 
L 312.330139 -283.764829 
L 308.599249 -283.671927 
L 304.868358 -283.578666 
L 301.137468 -283.481761 
L 297.406577 -283.38413 
L 293.675686 -283.286806 
L 289.944796 -283.193364 
L 286.213905 -283.100867 
L 282.483015 -283.006957 
L 278.752124 -282.914009 
L 275.021234 -282.820882 
L 271.290343 -282.726256 
L 267.559453 -282.629977 
L 263.828562 -282.53062 
L 260.097672 -282.42677 
L 256.366781 -282.317187 
L 252.635891 -282.204714 
L 248.905 -282.090135 
L 245.174109 -281.973311 
L 241.443219 -281.855981 
L 237.712328 -281.739292 
L 233.981438 -281.622392 
L 230.250547 -281.505346 
L 226.519657 -281.388219 
L 222.788766 -281.271074 
L 219.057876 -281.153965 
L 215.326985 -281.036941 
L 211.596095 -280.920034 
L 207.865204 -280.803253 
L 204.134314 -280.68658 
L 200.403423 -280.569954 
L 196.672532 -280.453257 
L 192.941642 -280.33904 
L 189.210751 -280.224916 
L 185.479861 -280.113872 
L 181.74897 -280.006663 
L 178.01808 -279.904182 
L 174.287189 -279.807482 
L 170.556299 -279.712359 
L 166.825408 -279.623821 
L 163.094518 -279.536291 
L 159.363627 -279.448068 
L 155.632737 -279.356723 
L 151.901846 -279.259052 
L 148.170955 -279.151276 
L 144.440065 -279.036293 
L 140.709174 -278.934929 
L 136.978284 -278.824001 
L 133.247393 -278.691504 
L 129.516503 -278.547447 
L 125.785612 -278.388728 
L 122.054722 -278.223179 
L 118.323831 -278.046594 
L 114.592941 -277.847444 
L 110.86205 -277.635571 
L 107.13116 -277.404084 
L 103.400269 -277.167035 
L 99.669378 -276.945821 
L 95.938488 -276.694608 
L 92.207597 -276.549512 
L 88.476707 -276.573631 
L 84.745816 -276.796418 
L 81.014926 -277.506256 
L 77.284035 -278.907642 
L 73.553145 -280.989354 
L 69.822254 -281.176053 
L 66.091364 -287.281818 
z
" style="stroke: #ff0000; stroke-opacity: 0.2"/>
    </defs>
    <g clip-path="url(#p6cbaf4d1f3)">
     <use xlink:href="#m195784cb93" x="0" y="345.6" style="fill: #ff0000; fill-opacity: 0.2; stroke: #ff0000; stroke-opacity: 0.2"/>
    </g>
   </g>
   <g id="matplotlib.axis_1">
    <g id="xtick_1">
     <g id="line2d_1">
      <defs>
       <path id="m3c8495dd2f" d="M 0 0 
L 0 3.5 
" style="stroke: #000000; stroke-width: 0.8"/>
      </defs>
      <g>
       <use xlink:href="#m3c8495dd2f" x="66.091364" y="303.64" style="stroke: #000000; stroke-width: 0.8"/>
      </g>
     </g>
     <g id="text_1">
      <!-- 0 -->
      <g transform="translate(62.910114 318.238437) scale(0.1 -0.1)">
       <defs>
        <path id="DejaVuSans-30" d="M 2034 4250 
Q 1547 4250 1301 3770 
Q 1056 3291 1056 2328 
Q 1056 1369 1301 889 
Q 1547 409 2034 409 
Q 2525 409 2770 889 
Q 3016 1369 3016 2328 
Q 3016 3291 2770 3770 
Q 2525 4250 2034 4250 
z
M 2034 4750 
Q 2819 4750 3233 4129 
Q 3647 3509 3647 2328 
Q 3647 1150 3233 529 
Q 2819 -91 2034 -91 
Q 1250 -91 836 529 
Q 422 1150 422 2328 
Q 422 3509 836 4129 
Q 1250 4750 2034 4750 
z
" transform="scale(0.015625)"/>
       </defs>
       <use xlink:href="#DejaVuSans-30"/>
      </g>
     </g>
    </g>
    <g id="xtick_2">
     <g id="line2d_2">
      <g>
       <use xlink:href="#m3c8495dd2f" x="140.709174" y="303.64" style="stroke: #000000; stroke-width: 0.8"/>
      </g>
     </g>
     <g id="text_2">
      <!-- 20 -->
      <g transform="translate(134.346674 318.238437) scale(0.1 -0.1)">
       <defs>
        <path id="DejaVuSans-32" d="M 1228 531 
L 3431 531 
L 3431 0 
L 469 0 
L 469 531 
Q 828 903 1448 1529 
Q 2069 2156 2228 2338 
Q 2531 2678 2651 2914 
Q 2772 3150 2772 3378 
Q 2772 3750 2511 3984 
Q 2250 4219 1831 4219 
Q 1534 4219 1204 4116 
Q 875 4013 500 3803 
L 500 4441 
Q 881 4594 1212 4672 
Q 1544 4750 1819 4750 
Q 2544 4750 2975 4387 
Q 3406 4025 3406 3419 
Q 3406 3131 3298 2873 
Q 3191 2616 2906 2266 
Q 2828 2175 2409 1742 
Q 1991 1309 1228 531 
z
" transform="scale(0.015625)"/>
       </defs>
       <use xlink:href="#DejaVuSans-32"/>
       <use xlink:href="#DejaVuSans-30" x="63.623047"/>
      </g>
     </g>
    </g>
    <g id="xtick_3">
     <g id="line2d_3">
      <g>
       <use xlink:href="#m3c8495dd2f" x="215.326985" y="303.64" style="stroke: #000000; stroke-width: 0.8"/>
      </g>
     </g>
     <g id="text_3">
      <!-- 40 -->
      <g transform="translate(208.964485 318.238437) scale(0.1 -0.1)">
       <defs>
        <path id="DejaVuSans-34" d="M 2419 4116 
L 825 1625 
L 2419 1625 
L 2419 4116 
z
M 2253 4666 
L 3047 4666 
L 3047 1625 
L 3713 1625 
L 3713 1100 
L 3047 1100 
L 3047 0 
L 2419 0 
L 2419 1100 
L 313 1100 
L 313 1709 
L 2253 4666 
z
" transform="scale(0.015625)"/>
       </defs>
       <use xlink:href="#DejaVuSans-34"/>
       <use xlink:href="#DejaVuSans-30" x="63.623047"/>
      </g>
     </g>
    </g>
    <g id="xtick_4">
     <g id="line2d_4">
      <g>
       <use xlink:href="#m3c8495dd2f" x="289.944796" y="303.64" style="stroke: #000000; stroke-width: 0.8"/>
      </g>
     </g>
     <g id="text_4">
      <!-- 60 -->
      <g transform="translate(283.582296 318.238437) scale(0.1 -0.1)">
       <defs>
        <path id="DejaVuSans-36" d="M 2113 2584 
Q 1688 2584 1439 2293 
Q 1191 2003 1191 1497 
Q 1191 994 1439 701 
Q 1688 409 2113 409 
Q 2538 409 2786 701 
Q 3034 994 3034 1497 
Q 3034 2003 2786 2293 
Q 2538 2584 2113 2584 
z
M 3366 4563 
L 3366 3988 
Q 3128 4100 2886 4159 
Q 2644 4219 2406 4219 
Q 1781 4219 1451 3797 
Q 1122 3375 1075 2522 
Q 1259 2794 1537 2939 
Q 1816 3084 2150 3084 
Q 2853 3084 3261 2657 
Q 3669 2231 3669 1497 
Q 3669 778 3244 343 
Q 2819 -91 2113 -91 
Q 1303 -91 875 529 
Q 447 1150 447 2328 
Q 447 3434 972 4092 
Q 1497 4750 2381 4750 
Q 2619 4750 2861 4703 
Q 3103 4656 3366 4563 
z
" transform="scale(0.015625)"/>
       </defs>
       <use xlink:href="#DejaVuSans-36"/>
       <use xlink:href="#DejaVuSans-30" x="63.623047"/>
      </g>
     </g>
    </g>
    <g id="xtick_5">
     <g id="line2d_5">
      <g>
       <use xlink:href="#m3c8495dd2f" x="364.562607" y="303.64" style="stroke: #000000; stroke-width: 0.8"/>
      </g>
     </g>
     <g id="text_5">
      <!-- 80 -->
      <g transform="translate(358.200107 318.238437) scale(0.1 -0.1)">
       <defs>
        <path id="DejaVuSans-38" d="M 2034 2216 
Q 1584 2216 1326 1975 
Q 1069 1734 1069 1313 
Q 1069 891 1326 650 
Q 1584 409 2034 409 
Q 2484 409 2743 651 
Q 3003 894 3003 1313 
Q 3003 1734 2745 1975 
Q 2488 2216 2034 2216 
z
M 1403 2484 
Q 997 2584 770 2862 
Q 544 3141 544 3541 
Q 544 4100 942 4425 
Q 1341 4750 2034 4750 
Q 2731 4750 3128 4425 
Q 3525 4100 3525 3541 
Q 3525 3141 3298 2862 
Q 3072 2584 2669 2484 
Q 3125 2378 3379 2068 
Q 3634 1759 3634 1313 
Q 3634 634 3220 271 
Q 2806 -91 2034 -91 
Q 1263 -91 848 271 
Q 434 634 434 1313 
Q 434 1759 690 2068 
Q 947 2378 1403 2484 
z
M 1172 3481 
Q 1172 3119 1398 2916 
Q 1625 2713 2034 2713 
Q 2441 2713 2670 2916 
Q 2900 3119 2900 3481 
Q 2900 3844 2670 4047 
Q 2441 4250 2034 4250 
Q 1625 4250 1398 4047 
Q 1172 3844 1172 3481 
z
" transform="scale(0.015625)"/>
       </defs>
       <use xlink:href="#DejaVuSans-38"/>
       <use xlink:href="#DejaVuSans-30" x="63.623047"/>
      </g>
     </g>
    </g>
    <g id="xtick_6">
     <g id="line2d_6">
      <g>
       <use xlink:href="#m3c8495dd2f" x="439.180417" y="303.64" style="stroke: #000000; stroke-width: 0.8"/>
      </g>
     </g>
     <g id="text_6">
      <!-- 100 -->
      <g transform="translate(429.636667 318.238437) scale(0.1 -0.1)">
       <defs>
        <path id="DejaVuSans-31" d="M 794 531 
L 1825 531 
L 1825 4091 
L 703 3866 
L 703 4441 
L 1819 4666 
L 2450 4666 
L 2450 531 
L 3481 531 
L 3481 0 
L 794 0 
L 794 531 
z
" transform="scale(0.015625)"/>
       </defs>
       <use xlink:href="#DejaVuSans-31"/>
       <use xlink:href="#DejaVuSans-30" x="63.623047"/>
       <use xlink:href="#DejaVuSans-30" x="127.246094"/>
      </g>
     </g>
    </g>
    <g id="text_7">
     <!-- Iteration -->
     <g transform="translate(227.696406 331.916562) scale(0.1 -0.1)">
      <defs>
       <path id="DejaVuSans-49" d="M 628 4666 
L 1259 4666 
L 1259 0 
L 628 0 
L 628 4666 
z
" transform="scale(0.015625)"/>
       <path id="DejaVuSans-74" d="M 1172 4494 
L 1172 3500 
L 2356 3500 
L 2356 3053 
L 1172 3053 
L 1172 1153 
Q 1172 725 1289 603 
Q 1406 481 1766 481 
L 2356 481 
L 2356 0 
L 1766 0 
Q 1100 0 847 248 
Q 594 497 594 1153 
L 594 3053 
L 172 3053 
L 172 3500 
L 594 3500 
L 594 4494 
L 1172 4494 
z
" transform="scale(0.015625)"/>
       <path id="DejaVuSans-65" d="M 3597 1894 
L 3597 1613 
L 953 1613 
Q 991 1019 1311 708 
Q 1631 397 2203 397 
Q 2534 397 2845 478 
Q 3156 559 3463 722 
L 3463 178 
Q 3153 47 2828 -22 
Q 2503 -91 2169 -91 
Q 1331 -91 842 396 
Q 353 884 353 1716 
Q 353 2575 817 3079 
Q 1281 3584 2069 3584 
Q 2775 3584 3186 3129 
Q 3597 2675 3597 1894 
z
M 3022 2063 
Q 3016 2534 2758 2815 
Q 2500 3097 2075 3097 
Q 1594 3097 1305 2825 
Q 1016 2553 972 2059 
L 3022 2063 
z
" transform="scale(0.015625)"/>
       <path id="DejaVuSans-72" d="M 2631 2963 
Q 2534 3019 2420 3045 
Q 2306 3072 2169 3072 
Q 1681 3072 1420 2755 
Q 1159 2438 1159 1844 
L 1159 0 
L 581 0 
L 581 3500 
L 1159 3500 
L 1159 2956 
Q 1341 3275 1631 3429 
Q 1922 3584 2338 3584 
Q 2397 3584 2469 3576 
Q 2541 3569 2628 3553 
L 2631 2963 
z
" transform="scale(0.015625)"/>
       <path id="DejaVuSans-61" d="M 2194 1759 
Q 1497 1759 1228 1600 
Q 959 1441 959 1056 
Q 959 750 1161 570 
Q 1363 391 1709 391 
Q 2188 391 2477 730 
Q 2766 1069 2766 1631 
L 2766 1759 
L 2194 1759 
z
M 3341 1997 
L 3341 0 
L 2766 0 
L 2766 531 
Q 2569 213 2275 61 
Q 1981 -91 1556 -91 
Q 1019 -91 701 211 
Q 384 513 384 1019 
Q 384 1609 779 1909 
Q 1175 2209 1959 2209 
L 2766 2209 
L 2766 2266 
Q 2766 2663 2505 2880 
Q 2244 3097 1772 3097 
Q 1472 3097 1187 3025 
Q 903 2953 641 2809 
L 641 3341 
Q 956 3463 1253 3523 
Q 1550 3584 1831 3584 
Q 2591 3584 2966 3190 
Q 3341 2797 3341 1997 
z
" transform="scale(0.015625)"/>
       <path id="DejaVuSans-69" d="M 603 3500 
L 1178 3500 
L 1178 0 
L 603 0 
L 603 3500 
z
M 603 4863 
L 1178 4863 
L 1178 4134 
L 603 4134 
L 603 4863 
z
" transform="scale(0.015625)"/>
       <path id="DejaVuSans-6f" d="M 1959 3097 
Q 1497 3097 1228 2736 
Q 959 2375 959 1747 
Q 959 1119 1226 758 
Q 1494 397 1959 397 
Q 2419 397 2687 759 
Q 2956 1122 2956 1747 
Q 2956 2369 2687 2733 
Q 2419 3097 1959 3097 
z
M 1959 3584 
Q 2709 3584 3137 3096 
Q 3566 2609 3566 1747 
Q 3566 888 3137 398 
Q 2709 -91 1959 -91 
Q 1206 -91 779 398 
Q 353 888 353 1747 
Q 353 2609 779 3096 
Q 1206 3584 1959 3584 
z
" transform="scale(0.015625)"/>
       <path id="DejaVuSans-6e" d="M 3513 2113 
L 3513 0 
L 2938 0 
L 2938 2094 
Q 2938 2591 2744 2837 
Q 2550 3084 2163 3084 
Q 1697 3084 1428 2787 
Q 1159 2491 1159 1978 
L 1159 0 
L 581 0 
L 581 3500 
L 1159 3500 
L 1159 2956 
Q 1366 3272 1645 3428 
Q 1925 3584 2291 3584 
Q 2894 3584 3203 3211 
Q 3513 2838 3513 2113 
z
" transform="scale(0.015625)"/>
      </defs>
      <use xlink:href="#DejaVuSans-49"/>
      <use xlink:href="#DejaVuSans-74" x="29.492188"/>
      <use xlink:href="#DejaVuSans-65" x="68.701172"/>
      <use xlink:href="#DejaVuSans-72" x="130.224609"/>
      <use xlink:href="#DejaVuSans-61" x="171.337891"/>
      <use xlink:href="#DejaVuSans-74" x="232.617188"/>
      <use xlink:href="#DejaVuSans-69" x="271.826172"/>
      <use xlink:href="#DejaVuSans-6f" x="299.609375"/>
      <use xlink:href="#DejaVuSans-6e" x="360.791016"/>
     </g>
    </g>
   </g>
   <g id="matplotlib.axis_2">
    <g id="ytick_1">
     <g id="line2d_7">
      <defs>
       <path id="md8253d6099" d="M 0 0 
L -3.5 0 
" style="stroke: #000000; stroke-width: 0.8"/>
      </defs>
      <g>
       <use xlink:href="#md8253d6099" x="47.81" y="290.994545" style="stroke: #000000; stroke-width: 0.8"/>
      </g>
     </g>
     <g id="text_8">
      <!-- 0.0 -->
      <g transform="translate(24.906875 294.793764) scale(0.1 -0.1)">
       <defs>
        <path id="DejaVuSans-2e" d="M 684 794 
L 1344 794 
L 1344 0 
L 684 0 
L 684 794 
z
" transform="scale(0.015625)"/>
       </defs>
       <use xlink:href="#DejaVuSans-30"/>
       <use xlink:href="#DejaVuSans-2e" x="63.623047"/>
       <use xlink:href="#DejaVuSans-30" x="95.410156"/>
      </g>
     </g>
    </g>
    <g id="ytick_2">
     <g id="line2d_8">
      <g>
       <use xlink:href="#md8253d6099" x="47.81" y="240.412727" style="stroke: #000000; stroke-width: 0.8"/>
      </g>
     </g>
     <g id="text_9">
      <!-- 0.2 -->
      <g transform="translate(24.906875 244.211946) scale(0.1 -0.1)">
       <use xlink:href="#DejaVuSans-30"/>
       <use xlink:href="#DejaVuSans-2e" x="63.623047"/>
       <use xlink:href="#DejaVuSans-32" x="95.410156"/>
      </g>
     </g>
    </g>
    <g id="ytick_3">
     <g id="line2d_9">
      <g>
       <use xlink:href="#md8253d6099" x="47.81" y="189.830909" style="stroke: #000000; stroke-width: 0.8"/>
      </g>
     </g>
     <g id="text_10">
      <!-- 0.4 -->
      <g transform="translate(24.906875 193.630128) scale(0.1 -0.1)">
       <use xlink:href="#DejaVuSans-30"/>
       <use xlink:href="#DejaVuSans-2e" x="63.623047"/>
       <use xlink:href="#DejaVuSans-34" x="95.410156"/>
      </g>
     </g>
    </g>
    <g id="ytick_4">
     <g id="line2d_10">
      <g>
       <use xlink:href="#md8253d6099" x="47.81" y="139.249091" style="stroke: #000000; stroke-width: 0.8"/>
      </g>
     </g>
     <g id="text_11">
      <!-- 0.6 -->
      <g transform="translate(24.906875 143.04831) scale(0.1 -0.1)">
       <use xlink:href="#DejaVuSans-30"/>
       <use xlink:href="#DejaVuSans-2e" x="63.623047"/>
       <use xlink:href="#DejaVuSans-36" x="95.410156"/>
      </g>
     </g>
    </g>
    <g id="ytick_5">
     <g id="line2d_11">
      <g>
       <use xlink:href="#md8253d6099" x="47.81" y="88.667273" style="stroke: #000000; stroke-width: 0.8"/>
      </g>
     </g>
     <g id="text_12">
      <!-- 0.8 -->
      <g transform="translate(24.906875 92.466491) scale(0.1 -0.1)">
       <use xlink:href="#DejaVuSans-30"/>
       <use xlink:href="#DejaVuSans-2e" x="63.623047"/>
       <use xlink:href="#DejaVuSans-38" x="95.410156"/>
      </g>
     </g>
    </g>
    <g id="ytick_6">
     <g id="line2d_12">
      <g>
       <use xlink:href="#md8253d6099" x="47.81" y="38.085455" style="stroke: #000000; stroke-width: 0.8"/>
      </g>
     </g>
     <g id="text_13">
      <!-- 1.0 -->
      <g transform="translate(24.906875 41.884673) scale(0.1 -0.1)">
       <use xlink:href="#DejaVuSans-31"/>
       <use xlink:href="#DejaVuSans-2e" x="63.623047"/>
       <use xlink:href="#DejaVuSans-30" x="95.410156"/>
      </g>
     </g>
    </g>
    <g id="text_14">
     <!-- Similarity -->
     <g transform="translate(18.827187 188.179844) rotate(-90) scale(0.1 -0.1)">
      <defs>
       <path id="DejaVuSans-53" d="M 3425 4513 
L 3425 3897 
Q 3066 4069 2747 4153 
Q 2428 4238 2131 4238 
Q 1616 4238 1336 4038 
Q 1056 3838 1056 3469 
Q 1056 3159 1242 3001 
Q 1428 2844 1947 2747 
L 2328 2669 
Q 3034 2534 3370 2195 
Q 3706 1856 3706 1288 
Q 3706 609 3251 259 
Q 2797 -91 1919 -91 
Q 1588 -91 1214 -16 
Q 841 59 441 206 
L 441 856 
Q 825 641 1194 531 
Q 1563 422 1919 422 
Q 2459 422 2753 634 
Q 3047 847 3047 1241 
Q 3047 1584 2836 1778 
Q 2625 1972 2144 2069 
L 1759 2144 
Q 1053 2284 737 2584 
Q 422 2884 422 3419 
Q 422 4038 858 4394 
Q 1294 4750 2059 4750 
Q 2388 4750 2728 4690 
Q 3069 4631 3425 4513 
z
" transform="scale(0.015625)"/>
       <path id="DejaVuSans-6d" d="M 3328 2828 
Q 3544 3216 3844 3400 
Q 4144 3584 4550 3584 
Q 5097 3584 5394 3201 
Q 5691 2819 5691 2113 
L 5691 0 
L 5113 0 
L 5113 2094 
Q 5113 2597 4934 2840 
Q 4756 3084 4391 3084 
Q 3944 3084 3684 2787 
Q 3425 2491 3425 1978 
L 3425 0 
L 2847 0 
L 2847 2094 
Q 2847 2600 2669 2842 
Q 2491 3084 2119 3084 
Q 1678 3084 1418 2786 
Q 1159 2488 1159 1978 
L 1159 0 
L 581 0 
L 581 3500 
L 1159 3500 
L 1159 2956 
Q 1356 3278 1631 3431 
Q 1906 3584 2284 3584 
Q 2666 3584 2933 3390 
Q 3200 3197 3328 2828 
z
" transform="scale(0.015625)"/>
       <path id="DejaVuSans-6c" d="M 603 4863 
L 1178 4863 
L 1178 0 
L 603 0 
L 603 4863 
z
" transform="scale(0.015625)"/>
       <path id="DejaVuSans-79" d="M 2059 -325 
Q 1816 -950 1584 -1140 
Q 1353 -1331 966 -1331 
L 506 -1331 
L 506 -850 
L 844 -850 
Q 1081 -850 1212 -737 
Q 1344 -625 1503 -206 
L 1606 56 
L 191 3500 
L 800 3500 
L 1894 763 
L 2988 3500 
L 3597 3500 
L 2059 -325 
z
" transform="scale(0.015625)"/>
      </defs>
      <use xlink:href="#DejaVuSans-53"/>
      <use xlink:href="#DejaVuSans-69" x="63.476562"/>
      <use xlink:href="#DejaVuSans-6d" x="91.259766"/>
      <use xlink:href="#DejaVuSans-69" x="188.671875"/>
      <use xlink:href="#DejaVuSans-6c" x="216.455078"/>
      <use xlink:href="#DejaVuSans-61" x="244.238281"/>
      <use xlink:href="#DejaVuSans-72" x="305.517578"/>
      <use xlink:href="#DejaVuSans-69" x="346.630859"/>
      <use xlink:href="#DejaVuSans-74" x="374.414062"/>
      <use xlink:href="#DejaVuSans-79" x="413.623047"/>
     </g>
    </g>
   </g>
   <g id="line2d_13">
    <path d="M 66.091364 58.318182 
L 69.822254 63.376364 
L 73.553145 63.376364 
L 77.284035 67.17 
L 81.014926 68.434545 
L 84.745816 68.434545 
L 88.476707 67.711948 
L 92.207597 67.17 
L 95.938488 66.186465 
L 99.669378 64.893818 
L 103.400269 64.755868 
L 107.13116 63.797879 
L 110.86205 62.598182 
L 114.592941 61.931169 
L 118.323831 62.027515 
L 122.054722 62.744091 
L 125.785612 62.483743 
L 129.516503 61.690303 
L 133.247393 60.714163 
L 136.978284 60.088545 
L 140.709174 59.040779 
L 144.440065 58.318182 
L 148.170955 58.318182 
L 151.901846 57.685909 
L 155.632737 56.901891 
L 159.363627 56.178182 
L 163.094518 55.508081 
L 166.825408 54.885844 
L 170.556299 54.30652 
L 174.287189 53.934424 
L 178.01808 53.423167 
L 181.74897 53.101932 
L 185.479861 52.800165 
L 189.210751 52.51615 
L 192.941642 52.248364 
L 196.672532 51.854949 
L 200.403423 51.619509 
L 204.134314 51.263349 
L 207.865204 50.925455 
L 211.596095 50.604455 
L 215.326985 50.299113 
L 219.057876 50.008312 
L 222.788766 49.731036 
L 226.519657 49.466364 
L 230.250547 49.213455 
L 233.981438 48.971542 
L 237.712328 48.739923 
L 241.443219 48.517955 
L 245.174109 48.408275 
L 248.905 48.201818 
L 252.635891 47.797164 
L 256.366781 47.392509 
L 260.097672 46.886691 
L 263.828562 46.077382 
L 267.559453 45.369236 
L 271.290343 44.762255 
L 275.021234 44.256436 
L 278.752124 43.750618 
L 282.483015 43.345964 
L 286.213905 43.042473 
L 289.944796 42.536655 
L 293.675686 42.233164 
L 297.406577 42.233164 
L 301.137468 41.929673 
L 304.868358 41.525018 
L 308.599249 40.816873 
L 312.330139 40.412218 
L 316.06103 40.209891 
L 319.79192 40.108727 
L 323.522811 40.007564 
L 327.253701 40.209891 
L 330.984592 40.209891 
L 334.715482 39.9064 
L 338.446373 39.805236 
L 342.177263 39.9064 
L 345.908154 39.9064 
L 349.639045 40.007564 
L 353.369935 40.007564 
L 357.100826 40.007564 
L 360.831716 39.9064 
L 364.562607 40.007564 
L 368.293497 39.9064 
L 372.024388 39.805236 
L 375.755278 39.805236 
L 379.486169 39.704073 
L 383.217059 39.704073 
L 386.94795 39.805236 
L 390.67884 39.805236 
L 394.409731 39.805236 
L 398.140622 39.805236 
L 401.871512 39.805236 
L 405.602403 40.007564 
L 409.333293 40.108727 
L 413.064184 40.108727 
L 416.795074 40.108727 
L 420.525965 40.108727 
L 424.256855 40.311055 
L 427.987746 40.412218 
L 431.718636 40.311055 
" clip-path="url(#p6cbaf4d1f3)" style="fill: none; stroke: #0000ff; stroke-linecap: square"/>
    <defs>
     <path id="mef588370b1" d="M -0.49999 0.49999 
L 0.50001 0.49999 
L 0.50001 -0.50001 
L -0.49999 -0.50001 
z
"/>
    </defs>
    <g clip-path="url(#p6cbaf4d1f3)">
     <use xlink:href="#mef588370b1" x="66.091364" y="58.318182" style="fill: #0000ff"/>
     <use xlink:href="#mef588370b1" x="69.822254" y="63.376364" style="fill: #0000ff"/>
     <use xlink:href="#mef588370b1" x="73.553145" y="63.376364" style="fill: #0000ff"/>
     <use xlink:href="#mef588370b1" x="77.284035" y="67.17" style="fill: #0000ff"/>
     <use xlink:href="#mef588370b1" x="81.014926" y="68.434545" style="fill: #0000ff"/>
     <use xlink:href="#mef588370b1" x="84.745816" y="68.434545" style="fill: #0000ff"/>
     <use xlink:href="#mef588370b1" x="88.476707" y="67.711948" style="fill: #0000ff"/>
     <use xlink:href="#mef588370b1" x="92.207597" y="67.17" style="fill: #0000ff"/>
     <use xlink:href="#mef588370b1" x="95.938488" y="66.186465" style="fill: #0000ff"/>
     <use xlink:href="#mef588370b1" x="99.669378" y="64.893818" style="fill: #0000ff"/>
     <use xlink:href="#mef588370b1" x="103.400269" y="64.755868" style="fill: #0000ff"/>
     <use xlink:href="#mef588370b1" x="107.13116" y="63.797879" style="fill: #0000ff"/>
     <use xlink:href="#mef588370b1" x="110.86205" y="62.598182" style="fill: #0000ff"/>
     <use xlink:href="#mef588370b1" x="114.592941" y="61.931169" style="fill: #0000ff"/>
     <use xlink:href="#mef588370b1" x="118.323831" y="62.027515" style="fill: #0000ff"/>
     <use xlink:href="#mef588370b1" x="122.054722" y="62.744091" style="fill: #0000ff"/>
     <use xlink:href="#mef588370b1" x="125.785612" y="62.483743" style="fill: #0000ff"/>
     <use xlink:href="#mef588370b1" x="129.516503" y="61.690303" style="fill: #0000ff"/>
     <use xlink:href="#mef588370b1" x="133.247393" y="60.714163" style="fill: #0000ff"/>
     <use xlink:href="#mef588370b1" x="136.978284" y="60.088545" style="fill: #0000ff"/>
     <use xlink:href="#mef588370b1" x="140.709174" y="59.040779" style="fill: #0000ff"/>
     <use xlink:href="#mef588370b1" x="144.440065" y="58.318182" style="fill: #0000ff"/>
     <use xlink:href="#mef588370b1" x="148.170955" y="58.318182" style="fill: #0000ff"/>
     <use xlink:href="#mef588370b1" x="151.901846" y="57.685909" style="fill: #0000ff"/>
     <use xlink:href="#mef588370b1" x="155.632737" y="56.901891" style="fill: #0000ff"/>
     <use xlink:href="#mef588370b1" x="159.363627" y="56.178182" style="fill: #0000ff"/>
     <use xlink:href="#mef588370b1" x="163.094518" y="55.508081" style="fill: #0000ff"/>
     <use xlink:href="#mef588370b1" x="166.825408" y="54.885844" style="fill: #0000ff"/>
     <use xlink:href="#mef588370b1" x="170.556299" y="54.30652" style="fill: #0000ff"/>
     <use xlink:href="#mef588370b1" x="174.287189" y="53.934424" style="fill: #0000ff"/>
     <use xlink:href="#mef588370b1" x="178.01808" y="53.423167" style="fill: #0000ff"/>
     <use xlink:href="#mef588370b1" x="181.74897" y="53.101932" style="fill: #0000ff"/>
     <use xlink:href="#mef588370b1" x="185.479861" y="52.800165" style="fill: #0000ff"/>
     <use xlink:href="#mef588370b1" x="189.210751" y="52.51615" style="fill: #0000ff"/>
     <use xlink:href="#mef588370b1" x="192.941642" y="52.248364" style="fill: #0000ff"/>
     <use xlink:href="#mef588370b1" x="196.672532" y="51.854949" style="fill: #0000ff"/>
     <use xlink:href="#mef588370b1" x="200.403423" y="51.619509" style="fill: #0000ff"/>
     <use xlink:href="#mef588370b1" x="204.134314" y="51.263349" style="fill: #0000ff"/>
     <use xlink:href="#mef588370b1" x="207.865204" y="50.925455" style="fill: #0000ff"/>
     <use xlink:href="#mef588370b1" x="211.596095" y="50.604455" style="fill: #0000ff"/>
     <use xlink:href="#mef588370b1" x="215.326985" y="50.299113" style="fill: #0000ff"/>
     <use xlink:href="#mef588370b1" x="219.057876" y="50.008312" style="fill: #0000ff"/>
     <use xlink:href="#mef588370b1" x="222.788766" y="49.731036" style="fill: #0000ff"/>
     <use xlink:href="#mef588370b1" x="226.519657" y="49.466364" style="fill: #0000ff"/>
     <use xlink:href="#mef588370b1" x="230.250547" y="49.213455" style="fill: #0000ff"/>
     <use xlink:href="#mef588370b1" x="233.981438" y="48.971542" style="fill: #0000ff"/>
     <use xlink:href="#mef588370b1" x="237.712328" y="48.739923" style="fill: #0000ff"/>
     <use xlink:href="#mef588370b1" x="241.443219" y="48.517955" style="fill: #0000ff"/>
     <use xlink:href="#mef588370b1" x="245.174109" y="48.408275" style="fill: #0000ff"/>
     <use xlink:href="#mef588370b1" x="248.905" y="48.201818" style="fill: #0000ff"/>
     <use xlink:href="#mef588370b1" x="252.635891" y="47.797164" style="fill: #0000ff"/>
     <use xlink:href="#mef588370b1" x="256.366781" y="47.392509" style="fill: #0000ff"/>
     <use xlink:href="#mef588370b1" x="260.097672" y="46.886691" style="fill: #0000ff"/>
     <use xlink:href="#mef588370b1" x="263.828562" y="46.077382" style="fill: #0000ff"/>
     <use xlink:href="#mef588370b1" x="267.559453" y="45.369236" style="fill: #0000ff"/>
     <use xlink:href="#mef588370b1" x="271.290343" y="44.762255" style="fill: #0000ff"/>
     <use xlink:href="#mef588370b1" x="275.021234" y="44.256436" style="fill: #0000ff"/>
     <use xlink:href="#mef588370b1" x="278.752124" y="43.750618" style="fill: #0000ff"/>
     <use xlink:href="#mef588370b1" x="282.483015" y="43.345964" style="fill: #0000ff"/>
     <use xlink:href="#mef588370b1" x="286.213905" y="43.042473" style="fill: #0000ff"/>
     <use xlink:href="#mef588370b1" x="289.944796" y="42.536655" style="fill: #0000ff"/>
     <use xlink:href="#mef588370b1" x="293.675686" y="42.233164" style="fill: #0000ff"/>
     <use xlink:href="#mef588370b1" x="297.406577" y="42.233164" style="fill: #0000ff"/>
     <use xlink:href="#mef588370b1" x="301.137468" y="41.929673" style="fill: #0000ff"/>
     <use xlink:href="#mef588370b1" x="304.868358" y="41.525018" style="fill: #0000ff"/>
     <use xlink:href="#mef588370b1" x="308.599249" y="40.816873" style="fill: #0000ff"/>
     <use xlink:href="#mef588370b1" x="312.330139" y="40.412218" style="fill: #0000ff"/>
     <use xlink:href="#mef588370b1" x="316.06103" y="40.209891" style="fill: #0000ff"/>
     <use xlink:href="#mef588370b1" x="319.79192" y="40.108727" style="fill: #0000ff"/>
     <use xlink:href="#mef588370b1" x="323.522811" y="40.007564" style="fill: #0000ff"/>
     <use xlink:href="#mef588370b1" x="327.253701" y="40.209891" style="fill: #0000ff"/>
     <use xlink:href="#mef588370b1" x="330.984592" y="40.209891" style="fill: #0000ff"/>
     <use xlink:href="#mef588370b1" x="334.715482" y="39.9064" style="fill: #0000ff"/>
     <use xlink:href="#mef588370b1" x="338.446373" y="39.805236" style="fill: #0000ff"/>
     <use xlink:href="#mef588370b1" x="342.177263" y="39.9064" style="fill: #0000ff"/>
     <use xlink:href="#mef588370b1" x="345.908154" y="39.9064" style="fill: #0000ff"/>
     <use xlink:href="#mef588370b1" x="349.639045" y="40.007564" style="fill: #0000ff"/>
     <use xlink:href="#mef588370b1" x="353.369935" y="40.007564" style="fill: #0000ff"/>
     <use xlink:href="#mef588370b1" x="357.100826" y="40.007564" style="fill: #0000ff"/>
     <use xlink:href="#mef588370b1" x="360.831716" y="39.9064" style="fill: #0000ff"/>
     <use xlink:href="#mef588370b1" x="364.562607" y="40.007564" style="fill: #0000ff"/>
     <use xlink:href="#mef588370b1" x="368.293497" y="39.9064" style="fill: #0000ff"/>
     <use xlink:href="#mef588370b1" x="372.024388" y="39.805236" style="fill: #0000ff"/>
     <use xlink:href="#mef588370b1" x="375.755278" y="39.805236" style="fill: #0000ff"/>
     <use xlink:href="#mef588370b1" x="379.486169" y="39.704073" style="fill: #0000ff"/>
     <use xlink:href="#mef588370b1" x="383.217059" y="39.704073" style="fill: #0000ff"/>
     <use xlink:href="#mef588370b1" x="386.94795" y="39.805236" style="fill: #0000ff"/>
     <use xlink:href="#mef588370b1" x="390.67884" y="39.805236" style="fill: #0000ff"/>
     <use xlink:href="#mef588370b1" x="394.409731" y="39.805236" style="fill: #0000ff"/>
     <use xlink:href="#mef588370b1" x="398.140622" y="39.805236" style="fill: #0000ff"/>
     <use xlink:href="#mef588370b1" x="401.871512" y="39.805236" style="fill: #0000ff"/>
     <use xlink:href="#mef588370b1" x="405.602403" y="40.007564" style="fill: #0000ff"/>
     <use xlink:href="#mef588370b1" x="409.333293" y="40.108727" style="fill: #0000ff"/>
     <use xlink:href="#mef588370b1" x="413.064184" y="40.108727" style="fill: #0000ff"/>
     <use xlink:href="#mef588370b1" x="416.795074" y="40.108727" style="fill: #0000ff"/>
     <use xlink:href="#mef588370b1" x="420.525965" y="40.108727" style="fill: #0000ff"/>
     <use xlink:href="#mef588370b1" x="424.256855" y="40.311055" style="fill: #0000ff"/>
     <use xlink:href="#mef588370b1" x="427.987746" y="40.412218" style="fill: #0000ff"/>
     <use xlink:href="#mef588370b1" x="431.718636" y="40.311055" style="fill: #0000ff"/>
    </g>
   </g>
   <g id="line2d_14">
    <path d="M 66.091364 58.318182 
L 69.822254 60.847273 
L 73.553145 61.690303 
L 77.284035 63.060227 
L 81.014926 64.135091 
L 84.745816 64.851667 
L 88.476707 65.260278 
L 92.207597 65.498994 
L 95.938488 65.575379 
L 99.669378 65.507223 
L 103.400269 65.438918 
L 107.13116 65.302165 
L 110.86205 65.094166 
L 114.592941 64.868238 
L 118.323831 64.678856 
L 122.054722 64.557933 
L 125.785612 64.435922 
L 129.516503 64.283388 
L 133.247393 64.095534 
L 136.978284 63.895184 
L 140.709174 63.664022 
L 144.440065 63.42103 
L 148.170955 63.199167 
L 151.901846 62.969448 
L 155.632737 62.726745 
L 159.363627 62.474877 
L 163.094518 62.216848 
L 166.825408 61.955026 
L 170.556299 61.691285 
L 174.287189 61.432723 
L 178.01808 61.17435 
L 181.74897 60.922087 
L 185.479861 60.675968 
L 189.210751 60.435973 
L 192.941642 60.202042 
L 196.672532 59.970178 
L 200.403423 59.744484 
L 204.134314 59.521297 
L 207.865204 59.30089 
L 211.596095 59.083479 
L 215.326985 58.869227 
L 219.057876 58.658252 
L 222.788766 58.450643 
L 226.519657 58.246455 
L 230.250547 58.045721 
L 233.981438 57.848456 
L 237.712328 57.654658 
L 241.443219 57.46431 
L 245.174109 57.279493 
L 248.905 57.097939 
L 252.635891 56.915571 
L 256.366781 56.732435 
L 260.097672 56.546667 
L 263.828562 56.352791 
L 267.559453 56.15309 
L 271.290343 55.949682 
L 275.021234 55.744538 
L 278.752124 55.537746 
L 282.483015 55.331105 
L 286.213905 55.126295 
L 289.944796 54.919907 
L 293.675686 54.715282 
L 297.406577 54.517154 
L 301.137468 54.320474 
L 304.868358 54.123621 
L 308.599249 53.922004 
L 312.330139 53.720365 
L 316.06103 53.521682 
L 319.79192 53.327291 
L 323.522811 53.137009 
L 327.253701 52.954937 
L 330.984592 52.777923 
L 334.715482 52.6016 
L 338.446373 52.428676 
L 342.177263 52.261713 
L 345.908154 52.099143 
L 349.639045 51.942109 
L 353.369935 51.789102 
L 357.100826 51.639969 
L 360.831716 51.493299 
L 364.562607 51.3515 
L 368.293497 51.211926 
L 372.024388 51.074496 
L 375.755278 50.940338 
L 379.486169 50.808147 
L 383.217059 50.679029 
L 386.94795 50.554043 
L 390.67884 50.431898 
L 394.409731 50.312497 
L 398.140622 50.19575 
L 401.871512 50.081568 
L 405.602403 49.972068 
L 409.333293 49.866011 
L 413.064184 49.76221 
L 416.795074 49.660594 
L 420.525965 49.561096 
L 424.256855 49.465734 
L 427.987746 49.373352 
L 431.718636 49.281813 
" clip-path="url(#p6cbaf4d1f3)" style="fill: none; stroke: #ff0000; stroke-opacity: 0.5; stroke-width: 0.5; stroke-linecap: square"/>
    <defs>
     <path id="m3b8cce89f2" d="M -0.49999 0.49999 
L 0.50001 0.49999 
L 0.50001 -0.50001 
L -0.49999 -0.50001 
z
"/>
    </defs>
    <g clip-path="url(#p6cbaf4d1f3)">
     <use xlink:href="#m3b8cce89f2" x="66.091364" y="58.318182" style="fill: #ff0000; fill-opacity: 0.5"/>
     <use xlink:href="#m3b8cce89f2" x="69.822254" y="60.847273" style="fill: #ff0000; fill-opacity: 0.5"/>
     <use xlink:href="#m3b8cce89f2" x="73.553145" y="61.690303" style="fill: #ff0000; fill-opacity: 0.5"/>
     <use xlink:href="#m3b8cce89f2" x="77.284035" y="63.060227" style="fill: #ff0000; fill-opacity: 0.5"/>
     <use xlink:href="#m3b8cce89f2" x="81.014926" y="64.135091" style="fill: #ff0000; fill-opacity: 0.5"/>
     <use xlink:href="#m3b8cce89f2" x="84.745816" y="64.851667" style="fill: #ff0000; fill-opacity: 0.5"/>
     <use xlink:href="#m3b8cce89f2" x="88.476707" y="65.260278" style="fill: #ff0000; fill-opacity: 0.5"/>
     <use xlink:href="#m3b8cce89f2" x="92.207597" y="65.498994" style="fill: #ff0000; fill-opacity: 0.5"/>
     <use xlink:href="#m3b8cce89f2" x="95.938488" y="65.575379" style="fill: #ff0000; fill-opacity: 0.5"/>
     <use xlink:href="#m3b8cce89f2" x="99.669378" y="65.507223" style="fill: #ff0000; fill-opacity: 0.5"/>
     <use xlink:href="#m3b8cce89f2" x="103.400269" y="65.438918" style="fill: #ff0000; fill-opacity: 0.5"/>
     <use xlink:href="#m3b8cce89f2" x="107.13116" y="65.302165" style="fill: #ff0000; fill-opacity: 0.5"/>
     <use xlink:href="#m3b8cce89f2" x="110.86205" y="65.094166" style="fill: #ff0000; fill-opacity: 0.5"/>
     <use xlink:href="#m3b8cce89f2" x="114.592941" y="64.868238" style="fill: #ff0000; fill-opacity: 0.5"/>
     <use xlink:href="#m3b8cce89f2" x="118.323831" y="64.678856" style="fill: #ff0000; fill-opacity: 0.5"/>
     <use xlink:href="#m3b8cce89f2" x="122.054722" y="64.557933" style="fill: #ff0000; fill-opacity: 0.5"/>
     <use xlink:href="#m3b8cce89f2" x="125.785612" y="64.435922" style="fill: #ff0000; fill-opacity: 0.5"/>
     <use xlink:href="#m3b8cce89f2" x="129.516503" y="64.283388" style="fill: #ff0000; fill-opacity: 0.5"/>
     <use xlink:href="#m3b8cce89f2" x="133.247393" y="64.095534" style="fill: #ff0000; fill-opacity: 0.5"/>
     <use xlink:href="#m3b8cce89f2" x="136.978284" y="63.895184" style="fill: #ff0000; fill-opacity: 0.5"/>
     <use xlink:href="#m3b8cce89f2" x="140.709174" y="63.664022" style="fill: #ff0000; fill-opacity: 0.5"/>
     <use xlink:href="#m3b8cce89f2" x="144.440065" y="63.42103" style="fill: #ff0000; fill-opacity: 0.5"/>
     <use xlink:href="#m3b8cce89f2" x="148.170955" y="63.199167" style="fill: #ff0000; fill-opacity: 0.5"/>
     <use xlink:href="#m3b8cce89f2" x="151.901846" y="62.969448" style="fill: #ff0000; fill-opacity: 0.5"/>
     <use xlink:href="#m3b8cce89f2" x="155.632737" y="62.726745" style="fill: #ff0000; fill-opacity: 0.5"/>
     <use xlink:href="#m3b8cce89f2" x="159.363627" y="62.474877" style="fill: #ff0000; fill-opacity: 0.5"/>
     <use xlink:href="#m3b8cce89f2" x="163.094518" y="62.216848" style="fill: #ff0000; fill-opacity: 0.5"/>
     <use xlink:href="#m3b8cce89f2" x="166.825408" y="61.955026" style="fill: #ff0000; fill-opacity: 0.5"/>
     <use xlink:href="#m3b8cce89f2" x="170.556299" y="61.691285" style="fill: #ff0000; fill-opacity: 0.5"/>
     <use xlink:href="#m3b8cce89f2" x="174.287189" y="61.432723" style="fill: #ff0000; fill-opacity: 0.5"/>
     <use xlink:href="#m3b8cce89f2" x="178.01808" y="61.17435" style="fill: #ff0000; fill-opacity: 0.5"/>
     <use xlink:href="#m3b8cce89f2" x="181.74897" y="60.922087" style="fill: #ff0000; fill-opacity: 0.5"/>
     <use xlink:href="#m3b8cce89f2" x="185.479861" y="60.675968" style="fill: #ff0000; fill-opacity: 0.5"/>
     <use xlink:href="#m3b8cce89f2" x="189.210751" y="60.435973" style="fill: #ff0000; fill-opacity: 0.5"/>
     <use xlink:href="#m3b8cce89f2" x="192.941642" y="60.202042" style="fill: #ff0000; fill-opacity: 0.5"/>
     <use xlink:href="#m3b8cce89f2" x="196.672532" y="59.970178" style="fill: #ff0000; fill-opacity: 0.5"/>
     <use xlink:href="#m3b8cce89f2" x="200.403423" y="59.744484" style="fill: #ff0000; fill-opacity: 0.5"/>
     <use xlink:href="#m3b8cce89f2" x="204.134314" y="59.521297" style="fill: #ff0000; fill-opacity: 0.5"/>
     <use xlink:href="#m3b8cce89f2" x="207.865204" y="59.30089" style="fill: #ff0000; fill-opacity: 0.5"/>
     <use xlink:href="#m3b8cce89f2" x="211.596095" y="59.083479" style="fill: #ff0000; fill-opacity: 0.5"/>
     <use xlink:href="#m3b8cce89f2" x="215.326985" y="58.869227" style="fill: #ff0000; fill-opacity: 0.5"/>
     <use xlink:href="#m3b8cce89f2" x="219.057876" y="58.658252" style="fill: #ff0000; fill-opacity: 0.5"/>
     <use xlink:href="#m3b8cce89f2" x="222.788766" y="58.450643" style="fill: #ff0000; fill-opacity: 0.5"/>
     <use xlink:href="#m3b8cce89f2" x="226.519657" y="58.246455" style="fill: #ff0000; fill-opacity: 0.5"/>
     <use xlink:href="#m3b8cce89f2" x="230.250547" y="58.045721" style="fill: #ff0000; fill-opacity: 0.5"/>
     <use xlink:href="#m3b8cce89f2" x="233.981438" y="57.848456" style="fill: #ff0000; fill-opacity: 0.5"/>
     <use xlink:href="#m3b8cce89f2" x="237.712328" y="57.654658" style="fill: #ff0000; fill-opacity: 0.5"/>
     <use xlink:href="#m3b8cce89f2" x="241.443219" y="57.46431" style="fill: #ff0000; fill-opacity: 0.5"/>
     <use xlink:href="#m3b8cce89f2" x="245.174109" y="57.279493" style="fill: #ff0000; fill-opacity: 0.5"/>
     <use xlink:href="#m3b8cce89f2" x="248.905" y="57.097939" style="fill: #ff0000; fill-opacity: 0.5"/>
     <use xlink:href="#m3b8cce89f2" x="252.635891" y="56.915571" style="fill: #ff0000; fill-opacity: 0.5"/>
     <use xlink:href="#m3b8cce89f2" x="256.366781" y="56.732435" style="fill: #ff0000; fill-opacity: 0.5"/>
     <use xlink:href="#m3b8cce89f2" x="260.097672" y="56.546667" style="fill: #ff0000; fill-opacity: 0.5"/>
     <use xlink:href="#m3b8cce89f2" x="263.828562" y="56.352791" style="fill: #ff0000; fill-opacity: 0.5"/>
     <use xlink:href="#m3b8cce89f2" x="267.559453" y="56.15309" style="fill: #ff0000; fill-opacity: 0.5"/>
     <use xlink:href="#m3b8cce89f2" x="271.290343" y="55.949682" style="fill: #ff0000; fill-opacity: 0.5"/>
     <use xlink:href="#m3b8cce89f2" x="275.021234" y="55.744538" style="fill: #ff0000; fill-opacity: 0.5"/>
     <use xlink:href="#m3b8cce89f2" x="278.752124" y="55.537746" style="fill: #ff0000; fill-opacity: 0.5"/>
     <use xlink:href="#m3b8cce89f2" x="282.483015" y="55.331105" style="fill: #ff0000; fill-opacity: 0.5"/>
     <use xlink:href="#m3b8cce89f2" x="286.213905" y="55.126295" style="fill: #ff0000; fill-opacity: 0.5"/>
     <use xlink:href="#m3b8cce89f2" x="289.944796" y="54.919907" style="fill: #ff0000; fill-opacity: 0.5"/>
     <use xlink:href="#m3b8cce89f2" x="293.675686" y="54.715282" style="fill: #ff0000; fill-opacity: 0.5"/>
     <use xlink:href="#m3b8cce89f2" x="297.406577" y="54.517154" style="fill: #ff0000; fill-opacity: 0.5"/>
     <use xlink:href="#m3b8cce89f2" x="301.137468" y="54.320474" style="fill: #ff0000; fill-opacity: 0.5"/>
     <use xlink:href="#m3b8cce89f2" x="304.868358" y="54.123621" style="fill: #ff0000; fill-opacity: 0.5"/>
     <use xlink:href="#m3b8cce89f2" x="308.599249" y="53.922004" style="fill: #ff0000; fill-opacity: 0.5"/>
     <use xlink:href="#m3b8cce89f2" x="312.330139" y="53.720365" style="fill: #ff0000; fill-opacity: 0.5"/>
     <use xlink:href="#m3b8cce89f2" x="316.06103" y="53.521682" style="fill: #ff0000; fill-opacity: 0.5"/>
     <use xlink:href="#m3b8cce89f2" x="319.79192" y="53.327291" style="fill: #ff0000; fill-opacity: 0.5"/>
     <use xlink:href="#m3b8cce89f2" x="323.522811" y="53.137009" style="fill: #ff0000; fill-opacity: 0.5"/>
     <use xlink:href="#m3b8cce89f2" x="327.253701" y="52.954937" style="fill: #ff0000; fill-opacity: 0.5"/>
     <use xlink:href="#m3b8cce89f2" x="330.984592" y="52.777923" style="fill: #ff0000; fill-opacity: 0.5"/>
     <use xlink:href="#m3b8cce89f2" x="334.715482" y="52.6016" style="fill: #ff0000; fill-opacity: 0.5"/>
     <use xlink:href="#m3b8cce89f2" x="338.446373" y="52.428676" style="fill: #ff0000; fill-opacity: 0.5"/>
     <use xlink:href="#m3b8cce89f2" x="342.177263" y="52.261713" style="fill: #ff0000; fill-opacity: 0.5"/>
     <use xlink:href="#m3b8cce89f2" x="345.908154" y="52.099143" style="fill: #ff0000; fill-opacity: 0.5"/>
     <use xlink:href="#m3b8cce89f2" x="349.639045" y="51.942109" style="fill: #ff0000; fill-opacity: 0.5"/>
     <use xlink:href="#m3b8cce89f2" x="353.369935" y="51.789102" style="fill: #ff0000; fill-opacity: 0.5"/>
     <use xlink:href="#m3b8cce89f2" x="357.100826" y="51.639969" style="fill: #ff0000; fill-opacity: 0.5"/>
     <use xlink:href="#m3b8cce89f2" x="360.831716" y="51.493299" style="fill: #ff0000; fill-opacity: 0.5"/>
     <use xlink:href="#m3b8cce89f2" x="364.562607" y="51.3515" style="fill: #ff0000; fill-opacity: 0.5"/>
     <use xlink:href="#m3b8cce89f2" x="368.293497" y="51.211926" style="fill: #ff0000; fill-opacity: 0.5"/>
     <use xlink:href="#m3b8cce89f2" x="372.024388" y="51.074496" style="fill: #ff0000; fill-opacity: 0.5"/>
     <use xlink:href="#m3b8cce89f2" x="375.755278" y="50.940338" style="fill: #ff0000; fill-opacity: 0.5"/>
     <use xlink:href="#m3b8cce89f2" x="379.486169" y="50.808147" style="fill: #ff0000; fill-opacity: 0.5"/>
     <use xlink:href="#m3b8cce89f2" x="383.217059" y="50.679029" style="fill: #ff0000; fill-opacity: 0.5"/>
     <use xlink:href="#m3b8cce89f2" x="386.94795" y="50.554043" style="fill: #ff0000; fill-opacity: 0.5"/>
     <use xlink:href="#m3b8cce89f2" x="390.67884" y="50.431898" style="fill: #ff0000; fill-opacity: 0.5"/>
     <use xlink:href="#m3b8cce89f2" x="394.409731" y="50.312497" style="fill: #ff0000; fill-opacity: 0.5"/>
     <use xlink:href="#m3b8cce89f2" x="398.140622" y="50.19575" style="fill: #ff0000; fill-opacity: 0.5"/>
     <use xlink:href="#m3b8cce89f2" x="401.871512" y="50.081568" style="fill: #ff0000; fill-opacity: 0.5"/>
     <use xlink:href="#m3b8cce89f2" x="405.602403" y="49.972068" style="fill: #ff0000; fill-opacity: 0.5"/>
     <use xlink:href="#m3b8cce89f2" x="409.333293" y="49.866011" style="fill: #ff0000; fill-opacity: 0.5"/>
     <use xlink:href="#m3b8cce89f2" x="413.064184" y="49.76221" style="fill: #ff0000; fill-opacity: 0.5"/>
     <use xlink:href="#m3b8cce89f2" x="416.795074" y="49.660594" style="fill: #ff0000; fill-opacity: 0.5"/>
     <use xlink:href="#m3b8cce89f2" x="420.525965" y="49.561096" style="fill: #ff0000; fill-opacity: 0.5"/>
     <use xlink:href="#m3b8cce89f2" x="424.256855" y="49.465734" style="fill: #ff0000; fill-opacity: 0.5"/>
     <use xlink:href="#m3b8cce89f2" x="427.987746" y="49.373352" style="fill: #ff0000; fill-opacity: 0.5"/>
     <use xlink:href="#m3b8cce89f2" x="431.718636" y="49.281813" style="fill: #ff0000; fill-opacity: 0.5"/>
    </g>
   </g>
   <g id="line2d_15">
    <path d="M 47.81 290.994545 
L 450 290.994545 
" clip-path="url(#p6cbaf4d1f3)" style="fill: none; stroke-dasharray: 0.555,0.24; stroke-dashoffset: 0; stroke: #ff0000; stroke-width: 0.15"/>
   </g>
   <g id="line2d_16">
    <path d="M 47.81 164.54 
L 450 164.54 
" clip-path="url(#p6cbaf4d1f3)" style="fill: none; stroke-dasharray: 0.555,0.24; stroke-dashoffset: 0; stroke: #ff0000; stroke-width: 0.15"/>
   </g>
   <g id="line2d_17">
    <path d="M 47.81 38.085455 
L 450 38.085455 
" clip-path="url(#p6cbaf4d1f3)" style="fill: none; stroke-dasharray: 0.555,0.24; stroke-dashoffset: 0; stroke: #ff0000; stroke-width: 0.15"/>
   </g>
   <g id="patch_3">
    <path d="M 47.81 303.64 
L 47.81 25.44 
" style="fill: none; stroke: #000000; stroke-width: 0.8; stroke-linejoin: miter; stroke-linecap: square"/>
   </g>
   <g id="patch_4">
    <path d="M 450 303.64 
L 450 25.44 
" style="fill: none; stroke: #000000; stroke-width: 0.8; stroke-linejoin: miter; stroke-linecap: square"/>
   </g>
   <g id="patch_5">
    <path d="M 47.81 303.64 
L 450 303.64 
" style="fill: none; stroke: #000000; stroke-width: 0.8; stroke-linejoin: miter; stroke-linecap: square"/>
   </g>
   <g id="patch_6">
    <path d="M 47.81 25.44 
L 450 25.44 
" style="fill: none; stroke: #000000; stroke-width: 0.8; stroke-linejoin: miter; stroke-linecap: square"/>
   </g>
   <g id="text_15">
    <!-- Similarity LLM-COOP with sw50-50 - 20240409113845 - 50 games -->
    <g transform="translate(50.247813 19.44) scale(0.12 -0.12)">
     <defs>
      <path id="DejaVuSans-20" transform="scale(0.015625)"/>
      <path id="DejaVuSans-4c" d="M 628 4666 
L 1259 4666 
L 1259 531 
L 3531 531 
L 3531 0 
L 628 0 
L 628 4666 
z
" transform="scale(0.015625)"/>
      <path id="DejaVuSans-4d" d="M 628 4666 
L 1569 4666 
L 2759 1491 
L 3956 4666 
L 4897 4666 
L 4897 0 
L 4281 0 
L 4281 4097 
L 3078 897 
L 2444 897 
L 1241 4097 
L 1241 0 
L 628 0 
L 628 4666 
z
" transform="scale(0.015625)"/>
      <path id="DejaVuSans-2d" d="M 313 2009 
L 1997 2009 
L 1997 1497 
L 313 1497 
L 313 2009 
z
" transform="scale(0.015625)"/>
      <path id="DejaVuSans-43" d="M 4122 4306 
L 4122 3641 
Q 3803 3938 3442 4084 
Q 3081 4231 2675 4231 
Q 1875 4231 1450 3742 
Q 1025 3253 1025 2328 
Q 1025 1406 1450 917 
Q 1875 428 2675 428 
Q 3081 428 3442 575 
Q 3803 722 4122 1019 
L 4122 359 
Q 3791 134 3420 21 
Q 3050 -91 2638 -91 
Q 1578 -91 968 557 
Q 359 1206 359 2328 
Q 359 3453 968 4101 
Q 1578 4750 2638 4750 
Q 3056 4750 3426 4639 
Q 3797 4528 4122 4306 
z
" transform="scale(0.015625)"/>
      <path id="DejaVuSans-4f" d="M 2522 4238 
Q 1834 4238 1429 3725 
Q 1025 3213 1025 2328 
Q 1025 1447 1429 934 
Q 1834 422 2522 422 
Q 3209 422 3611 934 
Q 4013 1447 4013 2328 
Q 4013 3213 3611 3725 
Q 3209 4238 2522 4238 
z
M 2522 4750 
Q 3503 4750 4090 4092 
Q 4678 3434 4678 2328 
Q 4678 1225 4090 567 
Q 3503 -91 2522 -91 
Q 1538 -91 948 565 
Q 359 1222 359 2328 
Q 359 3434 948 4092 
Q 1538 4750 2522 4750 
z
" transform="scale(0.015625)"/>
      <path id="DejaVuSans-50" d="M 1259 4147 
L 1259 2394 
L 2053 2394 
Q 2494 2394 2734 2622 
Q 2975 2850 2975 3272 
Q 2975 3691 2734 3919 
Q 2494 4147 2053 4147 
L 1259 4147 
z
M 628 4666 
L 2053 4666 
Q 2838 4666 3239 4311 
Q 3641 3956 3641 3272 
Q 3641 2581 3239 2228 
Q 2838 1875 2053 1875 
L 1259 1875 
L 1259 0 
L 628 0 
L 628 4666 
z
" transform="scale(0.015625)"/>
      <path id="DejaVuSans-77" d="M 269 3500 
L 844 3500 
L 1563 769 
L 2278 3500 
L 2956 3500 
L 3675 769 
L 4391 3500 
L 4966 3500 
L 4050 0 
L 3372 0 
L 2619 2869 
L 1863 0 
L 1184 0 
L 269 3500 
z
" transform="scale(0.015625)"/>
      <path id="DejaVuSans-68" d="M 3513 2113 
L 3513 0 
L 2938 0 
L 2938 2094 
Q 2938 2591 2744 2837 
Q 2550 3084 2163 3084 
Q 1697 3084 1428 2787 
Q 1159 2491 1159 1978 
L 1159 0 
L 581 0 
L 581 4863 
L 1159 4863 
L 1159 2956 
Q 1366 3272 1645 3428 
Q 1925 3584 2291 3584 
Q 2894 3584 3203 3211 
Q 3513 2838 3513 2113 
z
" transform="scale(0.015625)"/>
      <path id="DejaVuSans-73" d="M 2834 3397 
L 2834 2853 
Q 2591 2978 2328 3040 
Q 2066 3103 1784 3103 
Q 1356 3103 1142 2972 
Q 928 2841 928 2578 
Q 928 2378 1081 2264 
Q 1234 2150 1697 2047 
L 1894 2003 
Q 2506 1872 2764 1633 
Q 3022 1394 3022 966 
Q 3022 478 2636 193 
Q 2250 -91 1575 -91 
Q 1294 -91 989 -36 
Q 684 19 347 128 
L 347 722 
Q 666 556 975 473 
Q 1284 391 1588 391 
Q 1994 391 2212 530 
Q 2431 669 2431 922 
Q 2431 1156 2273 1281 
Q 2116 1406 1581 1522 
L 1381 1569 
Q 847 1681 609 1914 
Q 372 2147 372 2553 
Q 372 3047 722 3315 
Q 1072 3584 1716 3584 
Q 2034 3584 2315 3537 
Q 2597 3491 2834 3397 
z
" transform="scale(0.015625)"/>
      <path id="DejaVuSans-35" d="M 691 4666 
L 3169 4666 
L 3169 4134 
L 1269 4134 
L 1269 2991 
Q 1406 3038 1543 3061 
Q 1681 3084 1819 3084 
Q 2600 3084 3056 2656 
Q 3513 2228 3513 1497 
Q 3513 744 3044 326 
Q 2575 -91 1722 -91 
Q 1428 -91 1123 -41 
Q 819 9 494 109 
L 494 744 
Q 775 591 1075 516 
Q 1375 441 1709 441 
Q 2250 441 2565 725 
Q 2881 1009 2881 1497 
Q 2881 1984 2565 2268 
Q 2250 2553 1709 2553 
Q 1456 2553 1204 2497 
Q 953 2441 691 2322 
L 691 4666 
z
" transform="scale(0.015625)"/>
      <path id="DejaVuSans-39" d="M 703 97 
L 703 672 
Q 941 559 1184 500 
Q 1428 441 1663 441 
Q 2288 441 2617 861 
Q 2947 1281 2994 2138 
Q 2813 1869 2534 1725 
Q 2256 1581 1919 1581 
Q 1219 1581 811 2004 
Q 403 2428 403 3163 
Q 403 3881 828 4315 
Q 1253 4750 1959 4750 
Q 2769 4750 3195 4129 
Q 3622 3509 3622 2328 
Q 3622 1225 3098 567 
Q 2575 -91 1691 -91 
Q 1453 -91 1209 -44 
Q 966 3 703 97 
z
M 1959 2075 
Q 2384 2075 2632 2365 
Q 2881 2656 2881 3163 
Q 2881 3666 2632 3958 
Q 2384 4250 1959 4250 
Q 1534 4250 1286 3958 
Q 1038 3666 1038 3163 
Q 1038 2656 1286 2365 
Q 1534 2075 1959 2075 
z
" transform="scale(0.015625)"/>
      <path id="DejaVuSans-33" d="M 2597 2516 
Q 3050 2419 3304 2112 
Q 3559 1806 3559 1356 
Q 3559 666 3084 287 
Q 2609 -91 1734 -91 
Q 1441 -91 1130 -33 
Q 819 25 488 141 
L 488 750 
Q 750 597 1062 519 
Q 1375 441 1716 441 
Q 2309 441 2620 675 
Q 2931 909 2931 1356 
Q 2931 1769 2642 2001 
Q 2353 2234 1838 2234 
L 1294 2234 
L 1294 2753 
L 1863 2753 
Q 2328 2753 2575 2939 
Q 2822 3125 2822 3475 
Q 2822 3834 2567 4026 
Q 2313 4219 1838 4219 
Q 1578 4219 1281 4162 
Q 984 4106 628 3988 
L 628 4550 
Q 988 4650 1302 4700 
Q 1616 4750 1894 4750 
Q 2613 4750 3031 4423 
Q 3450 4097 3450 3541 
Q 3450 3153 3228 2886 
Q 3006 2619 2597 2516 
z
" transform="scale(0.015625)"/>
      <path id="DejaVuSans-67" d="M 2906 1791 
Q 2906 2416 2648 2759 
Q 2391 3103 1925 3103 
Q 1463 3103 1205 2759 
Q 947 2416 947 1791 
Q 947 1169 1205 825 
Q 1463 481 1925 481 
Q 2391 481 2648 825 
Q 2906 1169 2906 1791 
z
M 3481 434 
Q 3481 -459 3084 -895 
Q 2688 -1331 1869 -1331 
Q 1566 -1331 1297 -1286 
Q 1028 -1241 775 -1147 
L 775 -588 
Q 1028 -725 1275 -790 
Q 1522 -856 1778 -856 
Q 2344 -856 2625 -561 
Q 2906 -266 2906 331 
L 2906 616 
Q 2728 306 2450 153 
Q 2172 0 1784 0 
Q 1141 0 747 490 
Q 353 981 353 1791 
Q 353 2603 747 3093 
Q 1141 3584 1784 3584 
Q 2172 3584 2450 3431 
Q 2728 3278 2906 2969 
L 2906 3500 
L 3481 3500 
L 3481 434 
z
" transform="scale(0.015625)"/>
     </defs>
     <use xlink:href="#DejaVuSans-53"/>
     <use xlink:href="#DejaVuSans-69" x="63.476562"/>
     <use xlink:href="#DejaVuSans-6d" x="91.259766"/>
     <use xlink:href="#DejaVuSans-69" x="188.671875"/>
     <use xlink:href="#DejaVuSans-6c" x="216.455078"/>
     <use xlink:href="#DejaVuSans-61" x="244.238281"/>
     <use xlink:href="#DejaVuSans-72" x="305.517578"/>
     <use xlink:href="#DejaVuSans-69" x="346.630859"/>
     <use xlink:href="#DejaVuSans-74" x="374.414062"/>
     <use xlink:href="#DejaVuSans-79" x="413.623047"/>
     <use xlink:href="#DejaVuSans-20" x="472.802734"/>
     <use xlink:href="#DejaVuSans-4c" x="504.589844"/>
     <use xlink:href="#DejaVuSans-4c" x="560.302734"/>
     <use xlink:href="#DejaVuSans-4d" x="616.015625"/>
     <use xlink:href="#DejaVuSans-2d" x="702.294922"/>
     <use xlink:href="#DejaVuSans-43" x="738.378906"/>
     <use xlink:href="#DejaVuSans-4f" x="808.203125"/>
     <use xlink:href="#DejaVuSans-4f" x="886.914062"/>
     <use xlink:href="#DejaVuSans-50" x="965.625"/>
     <use xlink:href="#DejaVuSans-20" x="1025.927734"/>
     <use xlink:href="#DejaVuSans-77" x="1057.714844"/>
     <use xlink:href="#DejaVuSans-69" x="1139.501953"/>
     <use xlink:href="#DejaVuSans-74" x="1167.285156"/>
     <use xlink:href="#DejaVuSans-68" x="1206.494141"/>
     <use xlink:href="#DejaVuSans-20" x="1269.873047"/>
     <use xlink:href="#DejaVuSans-73" x="1301.660156"/>
     <use xlink:href="#DejaVuSans-77" x="1353.759766"/>
     <use xlink:href="#DejaVuSans-35" x="1435.546875"/>
     <use xlink:href="#DejaVuSans-30" x="1499.169922"/>
     <use xlink:href="#DejaVuSans-2d" x="1562.792969"/>
     <use xlink:href="#DejaVuSans-35" x="1598.876953"/>
     <use xlink:href="#DejaVuSans-30" x="1662.5"/>
     <use xlink:href="#DejaVuSans-20" x="1726.123047"/>
     <use xlink:href="#DejaVuSans-2d" x="1757.910156"/>
     <use xlink:href="#DejaVuSans-20" x="1793.994141"/>
     <use xlink:href="#DejaVuSans-32" x="1825.78125"/>
     <use xlink:href="#DejaVuSans-30" x="1889.404297"/>
     <use xlink:href="#DejaVuSans-32" x="1953.027344"/>
     <use xlink:href="#DejaVuSans-34" x="2016.650391"/>
     <use xlink:href="#DejaVuSans-30" x="2080.273438"/>
     <use xlink:href="#DejaVuSans-34" x="2143.896484"/>
     <use xlink:href="#DejaVuSans-30" x="2207.519531"/>
     <use xlink:href="#DejaVuSans-39" x="2271.142578"/>
     <use xlink:href="#DejaVuSans-31" x="2334.765625"/>
     <use xlink:href="#DejaVuSans-31" x="2398.388672"/>
     <use xlink:href="#DejaVuSans-33" x="2462.011719"/>
     <use xlink:href="#DejaVuSans-38" x="2525.634766"/>
     <use xlink:href="#DejaVuSans-34" x="2589.257812"/>
     <use xlink:href="#DejaVuSans-35" x="2652.880859"/>
     <use xlink:href="#DejaVuSans-20" x="2716.503906"/>
     <use xlink:href="#DejaVuSans-2d" x="2748.291016"/>
     <use xlink:href="#DejaVuSans-20" x="2784.375"/>
     <use xlink:href="#DejaVuSans-35" x="2816.162109"/>
     <use xlink:href="#DejaVuSans-30" x="2879.785156"/>
     <use xlink:href="#DejaVuSans-20" x="2943.408203"/>
     <use xlink:href="#DejaVuSans-67" x="2975.195312"/>
     <use xlink:href="#DejaVuSans-61" x="3038.671875"/>
     <use xlink:href="#DejaVuSans-6d" x="3099.951172"/>
     <use xlink:href="#DejaVuSans-65" x="3197.363281"/>
     <use xlink:href="#DejaVuSans-73" x="3258.886719"/>
    </g>
   </g>
   <g id="legend_1">
    <g id="patch_7">
     <path d="M 54.81 298.64 
L 170.483438 298.64 
Q 172.483438 298.64 172.483438 296.64 
L 172.483438 268.28375 
Q 172.483438 266.28375 170.483438 266.28375 
L 54.81 266.28375 
Q 52.81 266.28375 52.81 268.28375 
L 52.81 296.64 
Q 52.81 298.64 54.81 298.64 
z
" style="fill: #ffffff; opacity: 0.8; stroke: #cccccc; stroke-linejoin: miter"/>
    </g>
    <g id="line2d_18">
     <path d="M 56.81 274.382187 
L 66.81 274.382187 
L 76.81 274.382187 
" style="fill: none; stroke: #0000ff; stroke-linecap: square"/>
     <g>
      <use xlink:href="#mef588370b1" x="66.81" y="274.382187" style="fill: #0000ff"/>
     </g>
    </g>
    <g id="text_16">
     <!-- LLM-COOP -->
     <g transform="translate(84.81 277.882187) scale(0.1 -0.1)">
      <use xlink:href="#DejaVuSans-4c"/>
      <use xlink:href="#DejaVuSans-4c" x="55.712891"/>
      <use xlink:href="#DejaVuSans-4d" x="111.425781"/>
      <use xlink:href="#DejaVuSans-2d" x="197.705078"/>
      <use xlink:href="#DejaVuSans-43" x="233.789062"/>
      <use xlink:href="#DejaVuSans-4f" x="303.613281"/>
      <use xlink:href="#DejaVuSans-4f" x="382.324219"/>
      <use xlink:href="#DejaVuSans-50" x="461.035156"/>
     </g>
    </g>
    <g id="line2d_19">
     <path d="M 56.81 289.060312 
L 66.81 289.060312 
L 76.81 289.060312 
" style="fill: none; stroke: #ff0000; stroke-opacity: 0.5; stroke-width: 0.5; stroke-linecap: square"/>
     <g>
      <use xlink:href="#m3b8cce89f2" x="66.81" y="289.060312" style="fill: #ff0000; fill-opacity: 0.5"/>
     </g>
    </g>
    <g id="text_17">
     <!-- LLM-COOP mean -->
     <g transform="translate(84.81 292.560312) scale(0.1 -0.1)">
      <use xlink:href="#DejaVuSans-4c"/>
      <use xlink:href="#DejaVuSans-4c" x="55.712891"/>
      <use xlink:href="#DejaVuSans-4d" x="111.425781"/>
      <use xlink:href="#DejaVuSans-2d" x="197.705078"/>
      <use xlink:href="#DejaVuSans-43" x="233.789062"/>
      <use xlink:href="#DejaVuSans-4f" x="303.613281"/>
      <use xlink:href="#DejaVuSans-4f" x="382.324219"/>
      <use xlink:href="#DejaVuSans-50" x="461.035156"/>
      <use xlink:href="#DejaVuSans-20" x="521.337891"/>
      <use xlink:href="#DejaVuSans-6d" x="553.125"/>
      <use xlink:href="#DejaVuSans-65" x="650.537109"/>
      <use xlink:href="#DejaVuSans-61" x="712.060547"/>
      <use xlink:href="#DejaVuSans-6e" x="773.339844"/>
     </g>
    </g>
   </g>
  </g>
 </g>
 <defs>
  <clipPath id="p6cbaf4d1f3">
   <rect x="47.81" y="25.44" width="402.19" height="278.2"/>
  </clipPath>
 </defs>
</svg>
