<?xml version="1.0" encoding="utf-8" standalone="no"?>
<!DOCTYPE svg PUBLIC "-//W3C//DTD SVG 1.1//EN"
  "http://www.w3.org/Graphics/SVG/1.1/DTD/svg11.dtd">
<svg xmlns:xlink="http://www.w3.org/1999/xlink" width="460.8pt" height="345.6pt" viewBox="0 0 460.8 345.6" xmlns="http://www.w3.org/2000/svg" version="1.1">
 <metadata>
  <rdf:RDF xmlns:dc="http://purl.org/dc/elements/1.1/" xmlns:cc="http://creativecommons.org/ns#" xmlns:rdf="http://www.w3.org/1999/02/22-rdf-syntax-ns#">
   <cc:Work>
    <dc:type rdf:resource="http://purl.org/dc/dcmitype/StillImage"/>
    <dc:date>2024-04-10T11:52:51.264489</dc:date>
    <dc:format>image/svg+xml</dc:format>
    <dc:creator>
     <cc:Agent>
      <dc:title>Matplotlib v3.8.0, https://matplotlib.org/</dc:title>
     </cc:Agent>
    </dc:creator>
   </cc:Work>
  </rdf:RDF>
 </metadata>
 <defs>
  <style type="text/css">*{stroke-linejoin: round; stroke-linecap: butt}</style>
 </defs>
 <g id="figure_1">
  <g id="patch_1">
   <path d="M 0 345.6 
L 460.8 345.6 
L 460.8 0 
L 0 0 
z
" style="fill: #ffffff"/>
  </g>
  <g id="axes_1">
   <g id="patch_2">
    <path d="M 47.81 303.64 
L 450 303.64 
L 450 25.44 
L 47.81 25.44 
z
" style="fill: #ffffff"/>
   </g>
   <g id="PolyCollection_1">
    <defs>
     <path id="mba7b1a6143" d="M 66.091364 -284.566643 
L 66.091364 -284.566643 
L 69.822254 -285.602003 
L 73.553145 -284.218849 
L 77.284035 -283.520985 
L 81.014926 -282.821566 
L 84.745816 -281.658795 
L 88.476707 -281.386279 
L 92.207597 -281.629233 
L 95.938488 -282.30123 
L 99.669378 -283.94614 
L 103.400269 -284.591002 
L 107.13116 -285.076869 
L 110.86205 -286.861473 
L 114.592941 -288.202998 
L 118.323831 -288.249833 
L 122.054722 -287.787773 
L 125.785612 -287.40492 
L 129.516503 -288.037559 
L 133.247393 -289.615316 
L 136.978284 -290.900662 
L 140.709174 -292.305813 
L 144.440065 -293.807626 
L 148.170955 -294.069823 
L 151.901846 -294.298583 
L 155.632737 -295.407324 
L 159.363627 -296.633878 
L 163.094518 -297.701947 
L 166.825408 -298.64193 
L 170.556299 -299.476134 
L 174.287189 -300.027995 
L 178.01808 -300.525954 
L 181.74897 -300.977056 
L 185.479861 -301.236688 
L 189.210751 -301.473262 
L 192.941642 -301.689328 
L 196.672532 -302.02074 
L 200.403423 -302.3254 
L 204.134314 -302.606113 
L 207.865204 -302.997393 
L 211.596095 -303.359185 
L 215.326985 -303.694462 
L 219.057876 -304.005809 
L 222.788766 -304.295486 
L 226.519657 -304.565479 
L 230.250547 -304.817539 
L 233.981438 -305.053218 
L 237.712328 -305.273898 
L 241.443219 -305.480811 
L 245.174109 -305.582556 
L 248.905 -305.677691 
L 252.635891 -305.85464 
L 256.366781 -305.861023 
L 260.097672 -305.865747 
L 263.828562 -306.022732 
L 267.559453 -306.171099 
L 271.290343 -306.311445 
L 275.021234 -306.444316 
L 278.752124 -306.570211 
L 282.483015 -306.689587 
L 286.213905 -306.802864 
L 289.944796 -306.910428 
L 293.675686 -307.012634 
L 297.406577 -306.987119 
L 301.137468 -306.961618 
L 304.868358 -306.991025 
L 308.599249 -307.018522 
L 312.330139 -307.105855 
L 316.06103 -307.189177 
L 319.79192 -307.268713 
L 323.522811 -307.28666 
L 327.253701 -307.214639 
L 330.984592 -307.144128 
L 334.715482 -307.114101 
L 338.446373 -307.1311 
L 342.177263 -307.146938 
L 345.908154 -307.161679 
L 349.639045 -307.175381 
L 353.369935 -307.1881 
L 357.100826 -307.250902 
L 360.831716 -307.311212 
L 364.562607 -307.319855 
L 368.293497 -307.327746 
L 372.024388 -307.382856 
L 375.755278 -307.388703 
L 379.486169 -307.393925 
L 383.217059 -307.444463 
L 386.94795 -307.410216 
L 390.67884 -307.376421 
L 394.409731 -307.424156 
L 398.140622 -307.470173 
L 401.871512 -307.514545 
L 405.602403 -307.479966 
L 409.333293 -307.418344 
L 413.064184 -307.419414 
L 416.795074 -307.461152 
L 420.525965 -307.501468 
L 424.256855 -307.467593 
L 427.987746 -307.408549 
L 431.718636 -307.408171 
L 431.718636 -289.195227 
L 431.718636 -289.195227 
L 427.987746 -289.118074 
L 424.256855 -289.083747 
L 420.525965 -289.023029 
L 416.795074 -288.930692 
L 413.064184 -288.836954 
L 409.333293 -288.75339 
L 405.602403 -288.713972 
L 401.871512 -288.647147 
L 398.140622 -288.547465 
L 394.409731 -288.446191 
L 390.67884 -288.343288 
L 386.94795 -288.270314 
L 383.217059 -288.195978 
L 379.486169 -288.087856 
L 375.755278 -287.990154 
L 372.024388 -287.890597 
L 368.293497 -287.776768 
L 364.562607 -287.673265 
L 360.831716 -287.567729 
L 357.100826 -287.44769 
L 353.369935 -287.325518 
L 349.639045 -287.213384 
L 345.908154 -287.098946 
L 342.177263 -286.98213 
L 338.446373 -286.862856 
L 334.715482 -286.741041 
L 330.984592 -286.637777 
L 327.253701 -286.562376 
L 323.522811 -286.485325 
L 319.79192 -286.353195 
L 316.06103 -286.204721 
L 312.330139 -286.053228 
L 308.599249 -285.898629 
L 304.868358 -285.753661 
L 301.137468 -285.605213 
L 297.406577 -285.475564 
L 293.675686 -285.342541 
L 289.944796 -285.169806 
L 286.213905 -284.993264 
L 282.483015 -284.812806 
L 278.752124 -284.628318 
L 275.021234 -284.439686 
L 271.290343 -284.246798 
L 267.559453 -284.049538 
L 263.828562 -283.847796 
L 260.097672 -283.64146 
L 256.366781 -283.461164 
L 252.635891 -283.275272 
L 248.905 -283.052289 
L 245.174109 -282.833191 
L 241.443219 -282.60761 
L 237.712328 -282.366904 
L 233.981438 -282.120503 
L 230.250547 -281.868341 
L 226.519657 -281.610386 
L 222.788766 -281.346642 
L 219.057876 -281.077167 
L 215.326985 -280.802086 
L 211.596095 -280.521613 
L 207.865204 -280.236078 
L 204.134314 -279.945962 
L 200.403423 -279.643558 
L 196.672532 -279.332707 
L 192.941642 -279.013434 
L 189.210751 -278.687576 
L 185.479861 -278.34938 
L 181.74897 -277.998319 
L 178.01808 -277.638066 
L 174.287189 -277.270581 
L 170.556299 -276.89731 
L 166.825408 -276.561761 
L 163.094518 -276.245342 
L 159.363627 -275.960364 
L 155.632737 -275.725626 
L 151.901846 -275.459598 
L 148.170955 -275.063464 
L 144.440065 -274.643958 
L 140.709174 -274.446923 
L 136.978284 -274.2333 
L 133.247393 -273.992587 
L 129.516503 -273.874724 
L 125.785612 -273.494462 
L 122.054722 -273.534332 
L 118.323831 -273.884635 
L 114.592941 -273.431554 
L 110.86205 -273.042602 
L 107.13116 -272.808317 
L 103.400269 -272.271629 
L 99.669378 -271.689425 
L 95.938488 -271.279126 
L 92.207597 -270.631901 
L 88.476707 -269.892878 
L 84.745816 -269.144252 
L 81.014926 -269.31459 
L 77.284035 -273.114411 
L 73.553145 -276.582511 
L 69.822254 -278.532128 
L 66.091364 -284.566643 
z
" style="stroke: #ff0000; stroke-opacity: 0.2"/>
    </defs>
    <g clip-path="url(#p38157b1b40)">
     <use xlink:href="#mba7b1a6143" x="0" y="345.6" style="fill: #ff0000; fill-opacity: 0.2; stroke: #ff0000; stroke-opacity: 0.2"/>
    </g>
   </g>
   <g id="matplotlib.axis_1">
    <g id="xtick_1">
     <g id="line2d_1">
      <defs>
       <path id="m6e8ebe3a0c" d="M 0 0 
L 0 3.5 
" style="stroke: #000000; stroke-width: 0.8"/>
      </defs>
      <g>
       <use xlink:href="#m6e8ebe3a0c" x="66.091364" y="303.64" style="stroke: #000000; stroke-width: 0.8"/>
      </g>
     </g>
     <g id="text_1">
      <!-- 0 -->
      <g transform="translate(62.910114 318.238437) scale(0.1 -0.1)">
       <defs>
        <path id="DejaVuSans-30" d="M 2034 4250 
Q 1547 4250 1301 3770 
Q 1056 3291 1056 2328 
Q 1056 1369 1301 889 
Q 1547 409 2034 409 
Q 2525 409 2770 889 
Q 3016 1369 3016 2328 
Q 3016 3291 2770 3770 
Q 2525 4250 2034 4250 
z
M 2034 4750 
Q 2819 4750 3233 4129 
Q 3647 3509 3647 2328 
Q 3647 1150 3233 529 
Q 2819 -91 2034 -91 
Q 1250 -91 836 529 
Q 422 1150 422 2328 
Q 422 3509 836 4129 
Q 1250 4750 2034 4750 
z
" transform="scale(0.015625)"/>
       </defs>
       <use xlink:href="#DejaVuSans-30"/>
      </g>
     </g>
    </g>
    <g id="xtick_2">
     <g id="line2d_2">
      <g>
       <use xlink:href="#m6e8ebe3a0c" x="140.709174" y="303.64" style="stroke: #000000; stroke-width: 0.8"/>
      </g>
     </g>
     <g id="text_2">
      <!-- 20 -->
      <g transform="translate(134.346674 318.238437) scale(0.1 -0.1)">
       <defs>
        <path id="DejaVuSans-32" d="M 1228 531 
L 3431 531 
L 3431 0 
L 469 0 
L 469 531 
Q 828 903 1448 1529 
Q 2069 2156 2228 2338 
Q 2531 2678 2651 2914 
Q 2772 3150 2772 3378 
Q 2772 3750 2511 3984 
Q 2250 4219 1831 4219 
Q 1534 4219 1204 4116 
Q 875 4013 500 3803 
L 500 4441 
Q 881 4594 1212 4672 
Q 1544 4750 1819 4750 
Q 2544 4750 2975 4387 
Q 3406 4025 3406 3419 
Q 3406 3131 3298 2873 
Q 3191 2616 2906 2266 
Q 2828 2175 2409 1742 
Q 1991 1309 1228 531 
z
" transform="scale(0.015625)"/>
       </defs>
       <use xlink:href="#DejaVuSans-32"/>
       <use xlink:href="#DejaVuSans-30" x="63.623047"/>
      </g>
     </g>
    </g>
    <g id="xtick_3">
     <g id="line2d_3">
      <g>
       <use xlink:href="#m6e8ebe3a0c" x="215.326985" y="303.64" style="stroke: #000000; stroke-width: 0.8"/>
      </g>
     </g>
     <g id="text_3">
      <!-- 40 -->
      <g transform="translate(208.964485 318.238437) scale(0.1 -0.1)">
       <defs>
        <path id="DejaVuSans-34" d="M 2419 4116 
L 825 1625 
L 2419 1625 
L 2419 4116 
z
M 2253 4666 
L 3047 4666 
L 3047 1625 
L 3713 1625 
L 3713 1100 
L 3047 1100 
L 3047 0 
L 2419 0 
L 2419 1100 
L 313 1100 
L 313 1709 
L 2253 4666 
z
" transform="scale(0.015625)"/>
       </defs>
       <use xlink:href="#DejaVuSans-34"/>
       <use xlink:href="#DejaVuSans-30" x="63.623047"/>
      </g>
     </g>
    </g>
    <g id="xtick_4">
     <g id="line2d_4">
      <g>
       <use xlink:href="#m6e8ebe3a0c" x="289.944796" y="303.64" style="stroke: #000000; stroke-width: 0.8"/>
      </g>
     </g>
     <g id="text_4">
      <!-- 60 -->
      <g transform="translate(283.582296 318.238437) scale(0.1 -0.1)">
       <defs>
        <path id="DejaVuSans-36" d="M 2113 2584 
Q 1688 2584 1439 2293 
Q 1191 2003 1191 1497 
Q 1191 994 1439 701 
Q 1688 409 2113 409 
Q 2538 409 2786 701 
Q 3034 994 3034 1497 
Q 3034 2003 2786 2293 
Q 2538 2584 2113 2584 
z
M 3366 4563 
L 3366 3988 
Q 3128 4100 2886 4159 
Q 2644 4219 2406 4219 
Q 1781 4219 1451 3797 
Q 1122 3375 1075 2522 
Q 1259 2794 1537 2939 
Q 1816 3084 2150 3084 
Q 2853 3084 3261 2657 
Q 3669 2231 3669 1497 
Q 3669 778 3244 343 
Q 2819 -91 2113 -91 
Q 1303 -91 875 529 
Q 447 1150 447 2328 
Q 447 3434 972 4092 
Q 1497 4750 2381 4750 
Q 2619 4750 2861 4703 
Q 3103 4656 3366 4563 
z
" transform="scale(0.015625)"/>
       </defs>
       <use xlink:href="#DejaVuSans-36"/>
       <use xlink:href="#DejaVuSans-30" x="63.623047"/>
      </g>
     </g>
    </g>
    <g id="xtick_5">
     <g id="line2d_5">
      <g>
       <use xlink:href="#m6e8ebe3a0c" x="364.562607" y="303.64" style="stroke: #000000; stroke-width: 0.8"/>
      </g>
     </g>
     <g id="text_5">
      <!-- 80 -->
      <g transform="translate(358.200107 318.238437) scale(0.1 -0.1)">
       <defs>
        <path id="DejaVuSans-38" d="M 2034 2216 
Q 1584 2216 1326 1975 
Q 1069 1734 1069 1313 
Q 1069 891 1326 650 
Q 1584 409 2034 409 
Q 2484 409 2743 651 
Q 3003 894 3003 1313 
Q 3003 1734 2745 1975 
Q 2488 2216 2034 2216 
z
M 1403 2484 
Q 997 2584 770 2862 
Q 544 3141 544 3541 
Q 544 4100 942 4425 
Q 1341 4750 2034 4750 
Q 2731 4750 3128 4425 
Q 3525 4100 3525 3541 
Q 3525 3141 3298 2862 
Q 3072 2584 2669 2484 
Q 3125 2378 3379 2068 
Q 3634 1759 3634 1313 
Q 3634 634 3220 271 
Q 2806 -91 2034 -91 
Q 1263 -91 848 271 
Q 434 634 434 1313 
Q 434 1759 690 2068 
Q 947 2378 1403 2484 
z
M 1172 3481 
Q 1172 3119 1398 2916 
Q 1625 2713 2034 2713 
Q 2441 2713 2670 2916 
Q 2900 3119 2900 3481 
Q 2900 3844 2670 4047 
Q 2441 4250 2034 4250 
Q 1625 4250 1398 4047 
Q 1172 3844 1172 3481 
z
" transform="scale(0.015625)"/>
       </defs>
       <use xlink:href="#DejaVuSans-38"/>
       <use xlink:href="#DejaVuSans-30" x="63.623047"/>
      </g>
     </g>
    </g>
    <g id="xtick_6">
     <g id="line2d_6">
      <g>
       <use xlink:href="#m6e8ebe3a0c" x="439.180417" y="303.64" style="stroke: #000000; stroke-width: 0.8"/>
      </g>
     </g>
     <g id="text_6">
      <!-- 100 -->
      <g transform="translate(429.636667 318.238437) scale(0.1 -0.1)">
       <defs>
        <path id="DejaVuSans-31" d="M 794 531 
L 1825 531 
L 1825 4091 
L 703 3866 
L 703 4441 
L 1819 4666 
L 2450 4666 
L 2450 531 
L 3481 531 
L 3481 0 
L 794 0 
L 794 531 
z
" transform="scale(0.015625)"/>
       </defs>
       <use xlink:href="#DejaVuSans-31"/>
       <use xlink:href="#DejaVuSans-30" x="63.623047"/>
       <use xlink:href="#DejaVuSans-30" x="127.246094"/>
      </g>
     </g>
    </g>
    <g id="text_7">
     <!-- Iteration -->
     <g transform="translate(227.696406 331.916562) scale(0.1 -0.1)">
      <defs>
       <path id="DejaVuSans-49" d="M 628 4666 
L 1259 4666 
L 1259 0 
L 628 0 
L 628 4666 
z
" transform="scale(0.015625)"/>
       <path id="DejaVuSans-74" d="M 1172 4494 
L 1172 3500 
L 2356 3500 
L 2356 3053 
L 1172 3053 
L 1172 1153 
Q 1172 725 1289 603 
Q 1406 481 1766 481 
L 2356 481 
L 2356 0 
L 1766 0 
Q 1100 0 847 248 
Q 594 497 594 1153 
L 594 3053 
L 172 3053 
L 172 3500 
L 594 3500 
L 594 4494 
L 1172 4494 
z
" transform="scale(0.015625)"/>
       <path id="DejaVuSans-65" d="M 3597 1894 
L 3597 1613 
L 953 1613 
Q 991 1019 1311 708 
Q 1631 397 2203 397 
Q 2534 397 2845 478 
Q 3156 559 3463 722 
L 3463 178 
Q 3153 47 2828 -22 
Q 2503 -91 2169 -91 
Q 1331 -91 842 396 
Q 353 884 353 1716 
Q 353 2575 817 3079 
Q 1281 3584 2069 3584 
Q 2775 3584 3186 3129 
Q 3597 2675 3597 1894 
z
M 3022 2063 
Q 3016 2534 2758 2815 
Q 2500 3097 2075 3097 
Q 1594 3097 1305 2825 
Q 1016 2553 972 2059 
L 3022 2063 
z
" transform="scale(0.015625)"/>
       <path id="DejaVuSans-72" d="M 2631 2963 
Q 2534 3019 2420 3045 
Q 2306 3072 2169 3072 
Q 1681 3072 1420 2755 
Q 1159 2438 1159 1844 
L 1159 0 
L 581 0 
L 581 3500 
L 1159 3500 
L 1159 2956 
Q 1341 3275 1631 3429 
Q 1922 3584 2338 3584 
Q 2397 3584 2469 3576 
Q 2541 3569 2628 3553 
L 2631 2963 
z
" transform="scale(0.015625)"/>
       <path id="DejaVuSans-61" d="M 2194 1759 
Q 1497 1759 1228 1600 
Q 959 1441 959 1056 
Q 959 750 1161 570 
Q 1363 391 1709 391 
Q 2188 391 2477 730 
Q 2766 1069 2766 1631 
L 2766 1759 
L 2194 1759 
z
M 3341 1997 
L 3341 0 
L 2766 0 
L 2766 531 
Q 2569 213 2275 61 
Q 1981 -91 1556 -91 
Q 1019 -91 701 211 
Q 384 513 384 1019 
Q 384 1609 779 1909 
Q 1175 2209 1959 2209 
L 2766 2209 
L 2766 2266 
Q 2766 2663 2505 2880 
Q 2244 3097 1772 3097 
Q 1472 3097 1187 3025 
Q 903 2953 641 2809 
L 641 3341 
Q 956 3463 1253 3523 
Q 1550 3584 1831 3584 
Q 2591 3584 2966 3190 
Q 3341 2797 3341 1997 
z
" transform="scale(0.015625)"/>
       <path id="DejaVuSans-69" d="M 603 3500 
L 1178 3500 
L 1178 0 
L 603 0 
L 603 3500 
z
M 603 4863 
L 1178 4863 
L 1178 4134 
L 603 4134 
L 603 4863 
z
" transform="scale(0.015625)"/>
       <path id="DejaVuSans-6f" d="M 1959 3097 
Q 1497 3097 1228 2736 
Q 959 2375 959 1747 
Q 959 1119 1226 758 
Q 1494 397 1959 397 
Q 2419 397 2687 759 
Q 2956 1122 2956 1747 
Q 2956 2369 2687 2733 
Q 2419 3097 1959 3097 
z
M 1959 3584 
Q 2709 3584 3137 3096 
Q 3566 2609 3566 1747 
Q 3566 888 3137 398 
Q 2709 -91 1959 -91 
Q 1206 -91 779 398 
Q 353 888 353 1747 
Q 353 2609 779 3096 
Q 1206 3584 1959 3584 
z
" transform="scale(0.015625)"/>
       <path id="DejaVuSans-6e" d="M 3513 2113 
L 3513 0 
L 2938 0 
L 2938 2094 
Q 2938 2591 2744 2837 
Q 2550 3084 2163 3084 
Q 1697 3084 1428 2787 
Q 1159 2491 1159 1978 
L 1159 0 
L 581 0 
L 581 3500 
L 1159 3500 
L 1159 2956 
Q 1366 3272 1645 3428 
Q 1925 3584 2291 3584 
Q 2894 3584 3203 3211 
Q 3513 2838 3513 2113 
z
" transform="scale(0.015625)"/>
      </defs>
      <use xlink:href="#DejaVuSans-49"/>
      <use xlink:href="#DejaVuSans-74" x="29.492188"/>
      <use xlink:href="#DejaVuSans-65" x="68.701172"/>
      <use xlink:href="#DejaVuSans-72" x="130.224609"/>
      <use xlink:href="#DejaVuSans-61" x="171.337891"/>
      <use xlink:href="#DejaVuSans-74" x="232.617188"/>
      <use xlink:href="#DejaVuSans-69" x="271.826172"/>
      <use xlink:href="#DejaVuSans-6f" x="299.609375"/>
      <use xlink:href="#DejaVuSans-6e" x="360.791016"/>
     </g>
    </g>
   </g>
   <g id="matplotlib.axis_2">
    <g id="ytick_1">
     <g id="line2d_7">
      <defs>
       <path id="m6ec1e479f7" d="M 0 0 
L -3.5 0 
" style="stroke: #000000; stroke-width: 0.8"/>
      </defs>
      <g>
       <use xlink:href="#m6ec1e479f7" x="47.81" y="290.994545" style="stroke: #000000; stroke-width: 0.8"/>
      </g>
     </g>
     <g id="text_8">
      <!-- 0.0 -->
      <g transform="translate(24.906875 294.793764) scale(0.1 -0.1)">
       <defs>
        <path id="DejaVuSans-2e" d="M 684 794 
L 1344 794 
L 1344 0 
L 684 0 
L 684 794 
z
" transform="scale(0.015625)"/>
       </defs>
       <use xlink:href="#DejaVuSans-30"/>
       <use xlink:href="#DejaVuSans-2e" x="63.623047"/>
       <use xlink:href="#DejaVuSans-30" x="95.410156"/>
      </g>
     </g>
    </g>
    <g id="ytick_2">
     <g id="line2d_8">
      <g>
       <use xlink:href="#m6ec1e479f7" x="47.81" y="241.002983" style="stroke: #000000; stroke-width: 0.8"/>
      </g>
     </g>
     <g id="text_9">
      <!-- 0.2 -->
      <g transform="translate(24.906875 244.802201) scale(0.1 -0.1)">
       <use xlink:href="#DejaVuSans-30"/>
       <use xlink:href="#DejaVuSans-2e" x="63.623047"/>
       <use xlink:href="#DejaVuSans-32" x="95.410156"/>
      </g>
     </g>
    </g>
    <g id="ytick_3">
     <g id="line2d_9">
      <g>
       <use xlink:href="#m6ec1e479f7" x="47.81" y="191.01142" style="stroke: #000000; stroke-width: 0.8"/>
      </g>
     </g>
     <g id="text_10">
      <!-- 0.4 -->
      <g transform="translate(24.906875 194.810639) scale(0.1 -0.1)">
       <use xlink:href="#DejaVuSans-30"/>
       <use xlink:href="#DejaVuSans-2e" x="63.623047"/>
       <use xlink:href="#DejaVuSans-34" x="95.410156"/>
      </g>
     </g>
    </g>
    <g id="ytick_4">
     <g id="line2d_10">
      <g>
       <use xlink:href="#m6ec1e479f7" x="47.81" y="141.019857" style="stroke: #000000; stroke-width: 0.8"/>
      </g>
     </g>
     <g id="text_11">
      <!-- 0.6 -->
      <g transform="translate(24.906875 144.819076) scale(0.1 -0.1)">
       <use xlink:href="#DejaVuSans-30"/>
       <use xlink:href="#DejaVuSans-2e" x="63.623047"/>
       <use xlink:href="#DejaVuSans-36" x="95.410156"/>
      </g>
     </g>
    </g>
    <g id="ytick_5">
     <g id="line2d_11">
      <g>
       <use xlink:href="#m6ec1e479f7" x="47.81" y="91.028294" style="stroke: #000000; stroke-width: 0.8"/>
      </g>
     </g>
     <g id="text_12">
      <!-- 0.8 -->
      <g transform="translate(24.906875 94.827513) scale(0.1 -0.1)">
       <use xlink:href="#DejaVuSans-30"/>
       <use xlink:href="#DejaVuSans-2e" x="63.623047"/>
       <use xlink:href="#DejaVuSans-38" x="95.410156"/>
      </g>
     </g>
    </g>
    <g id="ytick_6">
     <g id="line2d_12">
      <g>
       <use xlink:href="#m6ec1e479f7" x="47.81" y="41.036731" style="stroke: #000000; stroke-width: 0.8"/>
      </g>
     </g>
     <g id="text_13">
      <!-- 1.0 -->
      <g transform="translate(24.906875 44.83595) scale(0.1 -0.1)">
       <use xlink:href="#DejaVuSans-31"/>
       <use xlink:href="#DejaVuSans-2e" x="63.623047"/>
       <use xlink:href="#DejaVuSans-30" x="95.410156"/>
      </g>
     </g>
    </g>
    <g id="text_14">
     <!-- Similarity -->
     <g transform="translate(18.827187 188.179844) rotate(-90) scale(0.1 -0.1)">
      <defs>
       <path id="DejaVuSans-53" d="M 3425 4513 
L 3425 3897 
Q 3066 4069 2747 4153 
Q 2428 4238 2131 4238 
Q 1616 4238 1336 4038 
Q 1056 3838 1056 3469 
Q 1056 3159 1242 3001 
Q 1428 2844 1947 2747 
L 2328 2669 
Q 3034 2534 3370 2195 
Q 3706 1856 3706 1288 
Q 3706 609 3251 259 
Q 2797 -91 1919 -91 
Q 1588 -91 1214 -16 
Q 841 59 441 206 
L 441 856 
Q 825 641 1194 531 
Q 1563 422 1919 422 
Q 2459 422 2753 634 
Q 3047 847 3047 1241 
Q 3047 1584 2836 1778 
Q 2625 1972 2144 2069 
L 1759 2144 
Q 1053 2284 737 2584 
Q 422 2884 422 3419 
Q 422 4038 858 4394 
Q 1294 4750 2059 4750 
Q 2388 4750 2728 4690 
Q 3069 4631 3425 4513 
z
" transform="scale(0.015625)"/>
       <path id="DejaVuSans-6d" d="M 3328 2828 
Q 3544 3216 3844 3400 
Q 4144 3584 4550 3584 
Q 5097 3584 5394 3201 
Q 5691 2819 5691 2113 
L 5691 0 
L 5113 0 
L 5113 2094 
Q 5113 2597 4934 2840 
Q 4756 3084 4391 3084 
Q 3944 3084 3684 2787 
Q 3425 2491 3425 1978 
L 3425 0 
L 2847 0 
L 2847 2094 
Q 2847 2600 2669 2842 
Q 2491 3084 2119 3084 
Q 1678 3084 1418 2786 
Q 1159 2488 1159 1978 
L 1159 0 
L 581 0 
L 581 3500 
L 1159 3500 
L 1159 2956 
Q 1356 3278 1631 3431 
Q 1906 3584 2284 3584 
Q 2666 3584 2933 3390 
Q 3200 3197 3328 2828 
z
" transform="scale(0.015625)"/>
       <path id="DejaVuSans-6c" d="M 603 4863 
L 1178 4863 
L 1178 0 
L 603 0 
L 603 4863 
z
" transform="scale(0.015625)"/>
       <path id="DejaVuSans-79" d="M 2059 -325 
Q 1816 -950 1584 -1140 
Q 1353 -1331 966 -1331 
L 506 -1331 
L 506 -850 
L 844 -850 
Q 1081 -850 1212 -737 
Q 1344 -625 1503 -206 
L 1606 56 
L 191 3500 
L 800 3500 
L 1894 763 
L 2988 3500 
L 3597 3500 
L 2059 -325 
z
" transform="scale(0.015625)"/>
      </defs>
      <use xlink:href="#DejaVuSans-53"/>
      <use xlink:href="#DejaVuSans-69" x="63.476562"/>
      <use xlink:href="#DejaVuSans-6d" x="91.259766"/>
      <use xlink:href="#DejaVuSans-69" x="188.671875"/>
      <use xlink:href="#DejaVuSans-6c" x="216.455078"/>
      <use xlink:href="#DejaVuSans-61" x="244.238281"/>
      <use xlink:href="#DejaVuSans-72" x="305.517578"/>
      <use xlink:href="#DejaVuSans-69" x="346.630859"/>
      <use xlink:href="#DejaVuSans-74" x="374.414062"/>
      <use xlink:href="#DejaVuSans-79" x="413.623047"/>
     </g>
    </g>
   </g>
   <g id="line2d_13">
    <path d="M 66.091364 61.033357 
L 69.822254 66.032513 
L 73.553145 68.532091 
L 77.284035 73.531247 
L 81.014926 78.530404 
L 84.745816 73.531247 
L 88.476707 68.532091 
L 92.207597 66.032513 
L 95.938488 63.532935 
L 99.669378 58.533778 
L 103.400269 61.033357 
L 107.13116 61.033357 
L 110.86205 53.534622 
L 114.592941 53.534622 
L 118.323831 61.033357 
L 122.054722 71.031669 
L 125.785612 68.532091 
L 129.516503 56.0342 
L 133.247393 48.535466 
L 136.978284 48.535466 
L 140.709174 46.035888 
L 144.440065 43.53631 
L 148.170955 53.534622 
L 151.901846 53.534622 
L 155.632737 43.53631 
L 159.363627 41.036731 
L 163.094518 41.036731 
L 166.825408 41.036731 
L 170.556299 41.036731 
L 174.287189 43.53631 
L 178.01808 43.53631 
L 181.74897 43.53631 
L 185.479861 46.035888 
L 189.210751 46.035888 
L 192.941642 46.035888 
L 196.672532 43.53631 
L 200.403423 43.53631 
L 204.134314 43.53631 
L 207.865204 41.036731 
L 211.596095 41.036731 
L 215.326985 41.036731 
L 219.057876 41.036731 
L 222.788766 41.036731 
L 226.519657 41.036731 
L 230.250547 41.036731 
L 233.981438 41.036731 
L 237.712328 41.036731 
L 241.443219 41.036731 
L 245.174109 43.53631 
L 248.905 43.53631 
L 252.635891 41.036731 
L 256.366781 46.035888 
L 260.097672 46.035888 
L 263.828562 41.036731 
L 267.559453 41.036731 
L 271.290343 41.036731 
L 275.021234 41.036731 
L 278.752124 41.036731 
L 282.483015 41.036731 
L 286.213905 41.036731 
L 289.944796 41.036731 
L 293.675686 41.036731 
L 297.406577 46.035888 
L 301.137468 46.035888 
L 304.868358 43.53631 
L 308.599249 43.53631 
L 312.330139 41.036731 
L 316.06103 41.036731 
L 319.79192 41.036731 
L 323.522811 43.53631 
L 327.253701 48.535466 
L 330.984592 48.535466 
L 334.715482 46.035888 
L 338.446373 43.53631 
L 342.177263 43.53631 
L 345.908154 43.53631 
L 349.639045 43.53631 
L 353.369935 43.53631 
L 357.100826 41.036731 
L 360.831716 41.036731 
L 364.562607 43.53631 
L 368.293497 43.53631 
L 372.024388 41.036731 
L 375.755278 43.53631 
L 379.486169 43.53631 
L 383.217059 41.036731 
L 386.94795 46.035888 
L 390.67884 46.035888 
L 394.409731 41.036731 
L 398.140622 41.036731 
L 401.871512 41.036731 
L 405.602403 46.035888 
L 409.333293 48.535466 
L 413.064184 43.53631 
L 416.795074 41.036731 
L 420.525965 41.036731 
L 424.256855 46.035888 
L 427.987746 48.535466 
L 431.718636 43.53631 
" clip-path="url(#p38157b1b40)" style="fill: none; stroke: #0000ff; stroke-linecap: square"/>
    <defs>
     <path id="m9d6f582a8e" d="M -0.49999 0.49999 
L 0.50001 0.49999 
L 0.50001 -0.50001 
L -0.49999 -0.50001 
z
"/>
    </defs>
    <g clip-path="url(#p38157b1b40)">
     <use xlink:href="#m9d6f582a8e" x="66.091364" y="61.033357" style="fill: #0000ff"/>
     <use xlink:href="#m9d6f582a8e" x="69.822254" y="66.032513" style="fill: #0000ff"/>
     <use xlink:href="#m9d6f582a8e" x="73.553145" y="68.532091" style="fill: #0000ff"/>
     <use xlink:href="#m9d6f582a8e" x="77.284035" y="73.531247" style="fill: #0000ff"/>
     <use xlink:href="#m9d6f582a8e" x="81.014926" y="78.530404" style="fill: #0000ff"/>
     <use xlink:href="#m9d6f582a8e" x="84.745816" y="73.531247" style="fill: #0000ff"/>
     <use xlink:href="#m9d6f582a8e" x="88.476707" y="68.532091" style="fill: #0000ff"/>
     <use xlink:href="#m9d6f582a8e" x="92.207597" y="66.032513" style="fill: #0000ff"/>
     <use xlink:href="#m9d6f582a8e" x="95.938488" y="63.532935" style="fill: #0000ff"/>
     <use xlink:href="#m9d6f582a8e" x="99.669378" y="58.533778" style="fill: #0000ff"/>
     <use xlink:href="#m9d6f582a8e" x="103.400269" y="61.033357" style="fill: #0000ff"/>
     <use xlink:href="#m9d6f582a8e" x="107.13116" y="61.033357" style="fill: #0000ff"/>
     <use xlink:href="#m9d6f582a8e" x="110.86205" y="53.534622" style="fill: #0000ff"/>
     <use xlink:href="#m9d6f582a8e" x="114.592941" y="53.534622" style="fill: #0000ff"/>
     <use xlink:href="#m9d6f582a8e" x="118.323831" y="61.033357" style="fill: #0000ff"/>
     <use xlink:href="#m9d6f582a8e" x="122.054722" y="71.031669" style="fill: #0000ff"/>
     <use xlink:href="#m9d6f582a8e" x="125.785612" y="68.532091" style="fill: #0000ff"/>
     <use xlink:href="#m9d6f582a8e" x="129.516503" y="56.0342" style="fill: #0000ff"/>
     <use xlink:href="#m9d6f582a8e" x="133.247393" y="48.535466" style="fill: #0000ff"/>
     <use xlink:href="#m9d6f582a8e" x="136.978284" y="48.535466" style="fill: #0000ff"/>
     <use xlink:href="#m9d6f582a8e" x="140.709174" y="46.035888" style="fill: #0000ff"/>
     <use xlink:href="#m9d6f582a8e" x="144.440065" y="43.53631" style="fill: #0000ff"/>
     <use xlink:href="#m9d6f582a8e" x="148.170955" y="53.534622" style="fill: #0000ff"/>
     <use xlink:href="#m9d6f582a8e" x="151.901846" y="53.534622" style="fill: #0000ff"/>
     <use xlink:href="#m9d6f582a8e" x="155.632737" y="43.53631" style="fill: #0000ff"/>
     <use xlink:href="#m9d6f582a8e" x="159.363627" y="41.036731" style="fill: #0000ff"/>
     <use xlink:href="#m9d6f582a8e" x="163.094518" y="41.036731" style="fill: #0000ff"/>
     <use xlink:href="#m9d6f582a8e" x="166.825408" y="41.036731" style="fill: #0000ff"/>
     <use xlink:href="#m9d6f582a8e" x="170.556299" y="41.036731" style="fill: #0000ff"/>
     <use xlink:href="#m9d6f582a8e" x="174.287189" y="43.53631" style="fill: #0000ff"/>
     <use xlink:href="#m9d6f582a8e" x="178.01808" y="43.53631" style="fill: #0000ff"/>
     <use xlink:href="#m9d6f582a8e" x="181.74897" y="43.53631" style="fill: #0000ff"/>
     <use xlink:href="#m9d6f582a8e" x="185.479861" y="46.035888" style="fill: #0000ff"/>
     <use xlink:href="#m9d6f582a8e" x="189.210751" y="46.035888" style="fill: #0000ff"/>
     <use xlink:href="#m9d6f582a8e" x="192.941642" y="46.035888" style="fill: #0000ff"/>
     <use xlink:href="#m9d6f582a8e" x="196.672532" y="43.53631" style="fill: #0000ff"/>
     <use xlink:href="#m9d6f582a8e" x="200.403423" y="43.53631" style="fill: #0000ff"/>
     <use xlink:href="#m9d6f582a8e" x="204.134314" y="43.53631" style="fill: #0000ff"/>
     <use xlink:href="#m9d6f582a8e" x="207.865204" y="41.036731" style="fill: #0000ff"/>
     <use xlink:href="#m9d6f582a8e" x="211.596095" y="41.036731" style="fill: #0000ff"/>
     <use xlink:href="#m9d6f582a8e" x="215.326985" y="41.036731" style="fill: #0000ff"/>
     <use xlink:href="#m9d6f582a8e" x="219.057876" y="41.036731" style="fill: #0000ff"/>
     <use xlink:href="#m9d6f582a8e" x="222.788766" y="41.036731" style="fill: #0000ff"/>
     <use xlink:href="#m9d6f582a8e" x="226.519657" y="41.036731" style="fill: #0000ff"/>
     <use xlink:href="#m9d6f582a8e" x="230.250547" y="41.036731" style="fill: #0000ff"/>
     <use xlink:href="#m9d6f582a8e" x="233.981438" y="41.036731" style="fill: #0000ff"/>
     <use xlink:href="#m9d6f582a8e" x="237.712328" y="41.036731" style="fill: #0000ff"/>
     <use xlink:href="#m9d6f582a8e" x="241.443219" y="41.036731" style="fill: #0000ff"/>
     <use xlink:href="#m9d6f582a8e" x="245.174109" y="43.53631" style="fill: #0000ff"/>
     <use xlink:href="#m9d6f582a8e" x="248.905" y="43.53631" style="fill: #0000ff"/>
     <use xlink:href="#m9d6f582a8e" x="252.635891" y="41.036731" style="fill: #0000ff"/>
     <use xlink:href="#m9d6f582a8e" x="256.366781" y="46.035888" style="fill: #0000ff"/>
     <use xlink:href="#m9d6f582a8e" x="260.097672" y="46.035888" style="fill: #0000ff"/>
     <use xlink:href="#m9d6f582a8e" x="263.828562" y="41.036731" style="fill: #0000ff"/>
     <use xlink:href="#m9d6f582a8e" x="267.559453" y="41.036731" style="fill: #0000ff"/>
     <use xlink:href="#m9d6f582a8e" x="271.290343" y="41.036731" style="fill: #0000ff"/>
     <use xlink:href="#m9d6f582a8e" x="275.021234" y="41.036731" style="fill: #0000ff"/>
     <use xlink:href="#m9d6f582a8e" x="278.752124" y="41.036731" style="fill: #0000ff"/>
     <use xlink:href="#m9d6f582a8e" x="282.483015" y="41.036731" style="fill: #0000ff"/>
     <use xlink:href="#m9d6f582a8e" x="286.213905" y="41.036731" style="fill: #0000ff"/>
     <use xlink:href="#m9d6f582a8e" x="289.944796" y="41.036731" style="fill: #0000ff"/>
     <use xlink:href="#m9d6f582a8e" x="293.675686" y="41.036731" style="fill: #0000ff"/>
     <use xlink:href="#m9d6f582a8e" x="297.406577" y="46.035888" style="fill: #0000ff"/>
     <use xlink:href="#m9d6f582a8e" x="301.137468" y="46.035888" style="fill: #0000ff"/>
     <use xlink:href="#m9d6f582a8e" x="304.868358" y="43.53631" style="fill: #0000ff"/>
     <use xlink:href="#m9d6f582a8e" x="308.599249" y="43.53631" style="fill: #0000ff"/>
     <use xlink:href="#m9d6f582a8e" x="312.330139" y="41.036731" style="fill: #0000ff"/>
     <use xlink:href="#m9d6f582a8e" x="316.06103" y="41.036731" style="fill: #0000ff"/>
     <use xlink:href="#m9d6f582a8e" x="319.79192" y="41.036731" style="fill: #0000ff"/>
     <use xlink:href="#m9d6f582a8e" x="323.522811" y="43.53631" style="fill: #0000ff"/>
     <use xlink:href="#m9d6f582a8e" x="327.253701" y="48.535466" style="fill: #0000ff"/>
     <use xlink:href="#m9d6f582a8e" x="330.984592" y="48.535466" style="fill: #0000ff"/>
     <use xlink:href="#m9d6f582a8e" x="334.715482" y="46.035888" style="fill: #0000ff"/>
     <use xlink:href="#m9d6f582a8e" x="338.446373" y="43.53631" style="fill: #0000ff"/>
     <use xlink:href="#m9d6f582a8e" x="342.177263" y="43.53631" style="fill: #0000ff"/>
     <use xlink:href="#m9d6f582a8e" x="345.908154" y="43.53631" style="fill: #0000ff"/>
     <use xlink:href="#m9d6f582a8e" x="349.639045" y="43.53631" style="fill: #0000ff"/>
     <use xlink:href="#m9d6f582a8e" x="353.369935" y="43.53631" style="fill: #0000ff"/>
     <use xlink:href="#m9d6f582a8e" x="357.100826" y="41.036731" style="fill: #0000ff"/>
     <use xlink:href="#m9d6f582a8e" x="360.831716" y="41.036731" style="fill: #0000ff"/>
     <use xlink:href="#m9d6f582a8e" x="364.562607" y="43.53631" style="fill: #0000ff"/>
     <use xlink:href="#m9d6f582a8e" x="368.293497" y="43.53631" style="fill: #0000ff"/>
     <use xlink:href="#m9d6f582a8e" x="372.024388" y="41.036731" style="fill: #0000ff"/>
     <use xlink:href="#m9d6f582a8e" x="375.755278" y="43.53631" style="fill: #0000ff"/>
     <use xlink:href="#m9d6f582a8e" x="379.486169" y="43.53631" style="fill: #0000ff"/>
     <use xlink:href="#m9d6f582a8e" x="383.217059" y="41.036731" style="fill: #0000ff"/>
     <use xlink:href="#m9d6f582a8e" x="386.94795" y="46.035888" style="fill: #0000ff"/>
     <use xlink:href="#m9d6f582a8e" x="390.67884" y="46.035888" style="fill: #0000ff"/>
     <use xlink:href="#m9d6f582a8e" x="394.409731" y="41.036731" style="fill: #0000ff"/>
     <use xlink:href="#m9d6f582a8e" x="398.140622" y="41.036731" style="fill: #0000ff"/>
     <use xlink:href="#m9d6f582a8e" x="401.871512" y="41.036731" style="fill: #0000ff"/>
     <use xlink:href="#m9d6f582a8e" x="405.602403" y="46.035888" style="fill: #0000ff"/>
     <use xlink:href="#m9d6f582a8e" x="409.333293" y="48.535466" style="fill: #0000ff"/>
     <use xlink:href="#m9d6f582a8e" x="413.064184" y="43.53631" style="fill: #0000ff"/>
     <use xlink:href="#m9d6f582a8e" x="416.795074" y="41.036731" style="fill: #0000ff"/>
     <use xlink:href="#m9d6f582a8e" x="420.525965" y="41.036731" style="fill: #0000ff"/>
     <use xlink:href="#m9d6f582a8e" x="424.256855" y="46.035888" style="fill: #0000ff"/>
     <use xlink:href="#m9d6f582a8e" x="427.987746" y="48.535466" style="fill: #0000ff"/>
     <use xlink:href="#m9d6f582a8e" x="431.718636" y="43.53631" style="fill: #0000ff"/>
    </g>
   </g>
   <g id="line2d_14">
    <path d="M 66.091364 61.033357 
L 69.822254 63.532935 
L 73.553145 65.19932 
L 77.284035 67.282302 
L 81.014926 69.531922 
L 84.745816 70.198476 
L 88.476707 69.960421 
L 92.207597 69.469433 
L 95.938488 68.809822 
L 99.669378 67.782218 
L 103.400269 67.168685 
L 107.13116 66.657407 
L 110.86205 65.647962 
L 114.592941 64.782724 
L 118.323831 64.532766 
L 122.054722 64.938947 
L 125.785612 65.150309 
L 129.516503 64.643858 
L 133.247393 63.796048 
L 136.978284 63.033019 
L 140.709174 62.223632 
L 144.440065 61.374208 
L 148.170955 61.033357 
L 151.901846 60.720909 
L 155.632737 60.033525 
L 159.363627 59.302879 
L 163.094518 58.626355 
L 166.825408 57.998155 
L 170.556299 57.413278 
L 174.287189 56.950712 
L 178.01808 56.51799 
L 181.74897 56.112312 
L 185.479861 55.806966 
L 189.210751 55.519581 
L 192.941642 55.248619 
L 196.672532 54.923277 
L 200.403423 54.615521 
L 204.134314 54.323963 
L 207.865204 53.983264 
L 211.596095 53.659601 
L 215.326985 53.351726 
L 219.057876 53.058512 
L 222.788766 52.778936 
L 226.519657 52.512067 
L 230.250547 52.25706 
L 233.981438 52.01314 
L 237.712328 51.779599 
L 241.443219 51.555789 
L 245.174109 51.392127 
L 248.905 51.23501 
L 252.635891 51.035044 
L 256.366781 50.938906 
L 260.097672 50.846397 
L 263.828562 50.664736 
L 267.559453 50.489682 
L 271.290343 50.320879 
L 275.021234 50.157999 
L 278.752124 50.000736 
L 282.483015 49.848804 
L 286.213905 49.701936 
L 289.944796 49.559883 
L 293.675686 49.422413 
L 297.406577 49.368659 
L 301.137468 49.316584 
L 304.868358 49.227657 
L 308.599249 49.141424 
L 312.330139 49.020459 
L 316.06103 48.903051 
L 319.79192 48.789046 
L 323.522811 48.714007 
L 327.253701 48.711492 
L 330.984592 48.709048 
L 334.715482 48.672429 
L 338.446373 48.603022 
L 342.177263 48.535466 
L 345.908154 48.469687 
L 349.639045 48.405618 
L 353.369935 48.343191 
L 357.100826 48.250704 
L 360.831716 48.160529 
L 364.562607 48.10344 
L 368.293497 48.047743 
L 372.024388 47.963273 
L 375.755278 47.910571 
L 379.486169 47.859109 
L 383.217059 47.779779 
L 386.94795 47.759735 
L 390.67884 47.740146 
L 394.409731 47.664826 
L 398.140622 47.591181 
L 401.871512 47.519154 
L 405.602403 47.503031 
L 409.333293 47.514133 
L 413.064184 47.471816 
L 416.795074 47.404078 
L 420.525965 47.337751 
L 424.256855 47.32433 
L 427.987746 47.336689 
L 431.718636 47.298301 
" clip-path="url(#p38157b1b40)" style="fill: none; stroke: #ff0000; stroke-opacity: 0.5; stroke-width: 0.5; stroke-linecap: square"/>
    <defs>
     <path id="m1d4976d4dc" d="M -0.49999 0.49999 
L 0.50001 0.49999 
L 0.50001 -0.50001 
L -0.49999 -0.50001 
z
"/>
    </defs>
    <g clip-path="url(#p38157b1b40)">
     <use xlink:href="#m1d4976d4dc" x="66.091364" y="61.033357" style="fill: #ff0000; fill-opacity: 0.5"/>
     <use xlink:href="#m1d4976d4dc" x="69.822254" y="63.532935" style="fill: #ff0000; fill-opacity: 0.5"/>
     <use xlink:href="#m1d4976d4dc" x="73.553145" y="65.19932" style="fill: #ff0000; fill-opacity: 0.5"/>
     <use xlink:href="#m1d4976d4dc" x="77.284035" y="67.282302" style="fill: #ff0000; fill-opacity: 0.5"/>
     <use xlink:href="#m1d4976d4dc" x="81.014926" y="69.531922" style="fill: #ff0000; fill-opacity: 0.5"/>
     <use xlink:href="#m1d4976d4dc" x="84.745816" y="70.198476" style="fill: #ff0000; fill-opacity: 0.5"/>
     <use xlink:href="#m1d4976d4dc" x="88.476707" y="69.960421" style="fill: #ff0000; fill-opacity: 0.5"/>
     <use xlink:href="#m1d4976d4dc" x="92.207597" y="69.469433" style="fill: #ff0000; fill-opacity: 0.5"/>
     <use xlink:href="#m1d4976d4dc" x="95.938488" y="68.809822" style="fill: #ff0000; fill-opacity: 0.5"/>
     <use xlink:href="#m1d4976d4dc" x="99.669378" y="67.782218" style="fill: #ff0000; fill-opacity: 0.5"/>
     <use xlink:href="#m1d4976d4dc" x="103.400269" y="67.168685" style="fill: #ff0000; fill-opacity: 0.5"/>
     <use xlink:href="#m1d4976d4dc" x="107.13116" y="66.657407" style="fill: #ff0000; fill-opacity: 0.5"/>
     <use xlink:href="#m1d4976d4dc" x="110.86205" y="65.647962" style="fill: #ff0000; fill-opacity: 0.5"/>
     <use xlink:href="#m1d4976d4dc" x="114.592941" y="64.782724" style="fill: #ff0000; fill-opacity: 0.5"/>
     <use xlink:href="#m1d4976d4dc" x="118.323831" y="64.532766" style="fill: #ff0000; fill-opacity: 0.5"/>
     <use xlink:href="#m1d4976d4dc" x="122.054722" y="64.938947" style="fill: #ff0000; fill-opacity: 0.5"/>
     <use xlink:href="#m1d4976d4dc" x="125.785612" y="65.150309" style="fill: #ff0000; fill-opacity: 0.5"/>
     <use xlink:href="#m1d4976d4dc" x="129.516503" y="64.643858" style="fill: #ff0000; fill-opacity: 0.5"/>
     <use xlink:href="#m1d4976d4dc" x="133.247393" y="63.796048" style="fill: #ff0000; fill-opacity: 0.5"/>
     <use xlink:href="#m1d4976d4dc" x="136.978284" y="63.033019" style="fill: #ff0000; fill-opacity: 0.5"/>
     <use xlink:href="#m1d4976d4dc" x="140.709174" y="62.223632" style="fill: #ff0000; fill-opacity: 0.5"/>
     <use xlink:href="#m1d4976d4dc" x="144.440065" y="61.374208" style="fill: #ff0000; fill-opacity: 0.5"/>
     <use xlink:href="#m1d4976d4dc" x="148.170955" y="61.033357" style="fill: #ff0000; fill-opacity: 0.5"/>
     <use xlink:href="#m1d4976d4dc" x="151.901846" y="60.720909" style="fill: #ff0000; fill-opacity: 0.5"/>
     <use xlink:href="#m1d4976d4dc" x="155.632737" y="60.033525" style="fill: #ff0000; fill-opacity: 0.5"/>
     <use xlink:href="#m1d4976d4dc" x="159.363627" y="59.302879" style="fill: #ff0000; fill-opacity: 0.5"/>
     <use xlink:href="#m1d4976d4dc" x="163.094518" y="58.626355" style="fill: #ff0000; fill-opacity: 0.5"/>
     <use xlink:href="#m1d4976d4dc" x="166.825408" y="57.998155" style="fill: #ff0000; fill-opacity: 0.5"/>
     <use xlink:href="#m1d4976d4dc" x="170.556299" y="57.413278" style="fill: #ff0000; fill-opacity: 0.5"/>
     <use xlink:href="#m1d4976d4dc" x="174.287189" y="56.950712" style="fill: #ff0000; fill-opacity: 0.5"/>
     <use xlink:href="#m1d4976d4dc" x="178.01808" y="56.51799" style="fill: #ff0000; fill-opacity: 0.5"/>
     <use xlink:href="#m1d4976d4dc" x="181.74897" y="56.112312" style="fill: #ff0000; fill-opacity: 0.5"/>
     <use xlink:href="#m1d4976d4dc" x="185.479861" y="55.806966" style="fill: #ff0000; fill-opacity: 0.5"/>
     <use xlink:href="#m1d4976d4dc" x="189.210751" y="55.519581" style="fill: #ff0000; fill-opacity: 0.5"/>
     <use xlink:href="#m1d4976d4dc" x="192.941642" y="55.248619" style="fill: #ff0000; fill-opacity: 0.5"/>
     <use xlink:href="#m1d4976d4dc" x="196.672532" y="54.923277" style="fill: #ff0000; fill-opacity: 0.5"/>
     <use xlink:href="#m1d4976d4dc" x="200.403423" y="54.615521" style="fill: #ff0000; fill-opacity: 0.5"/>
     <use xlink:href="#m1d4976d4dc" x="204.134314" y="54.323963" style="fill: #ff0000; fill-opacity: 0.5"/>
     <use xlink:href="#m1d4976d4dc" x="207.865204" y="53.983264" style="fill: #ff0000; fill-opacity: 0.5"/>
     <use xlink:href="#m1d4976d4dc" x="211.596095" y="53.659601" style="fill: #ff0000; fill-opacity: 0.5"/>
     <use xlink:href="#m1d4976d4dc" x="215.326985" y="53.351726" style="fill: #ff0000; fill-opacity: 0.5"/>
     <use xlink:href="#m1d4976d4dc" x="219.057876" y="53.058512" style="fill: #ff0000; fill-opacity: 0.5"/>
     <use xlink:href="#m1d4976d4dc" x="222.788766" y="52.778936" style="fill: #ff0000; fill-opacity: 0.5"/>
     <use xlink:href="#m1d4976d4dc" x="226.519657" y="52.512067" style="fill: #ff0000; fill-opacity: 0.5"/>
     <use xlink:href="#m1d4976d4dc" x="230.250547" y="52.25706" style="fill: #ff0000; fill-opacity: 0.5"/>
     <use xlink:href="#m1d4976d4dc" x="233.981438" y="52.01314" style="fill: #ff0000; fill-opacity: 0.5"/>
     <use xlink:href="#m1d4976d4dc" x="237.712328" y="51.779599" style="fill: #ff0000; fill-opacity: 0.5"/>
     <use xlink:href="#m1d4976d4dc" x="241.443219" y="51.555789" style="fill: #ff0000; fill-opacity: 0.5"/>
     <use xlink:href="#m1d4976d4dc" x="245.174109" y="51.392127" style="fill: #ff0000; fill-opacity: 0.5"/>
     <use xlink:href="#m1d4976d4dc" x="248.905" y="51.23501" style="fill: #ff0000; fill-opacity: 0.5"/>
     <use xlink:href="#m1d4976d4dc" x="252.635891" y="51.035044" style="fill: #ff0000; fill-opacity: 0.5"/>
     <use xlink:href="#m1d4976d4dc" x="256.366781" y="50.938906" style="fill: #ff0000; fill-opacity: 0.5"/>
     <use xlink:href="#m1d4976d4dc" x="260.097672" y="50.846397" style="fill: #ff0000; fill-opacity: 0.5"/>
     <use xlink:href="#m1d4976d4dc" x="263.828562" y="50.664736" style="fill: #ff0000; fill-opacity: 0.5"/>
     <use xlink:href="#m1d4976d4dc" x="267.559453" y="50.489682" style="fill: #ff0000; fill-opacity: 0.5"/>
     <use xlink:href="#m1d4976d4dc" x="271.290343" y="50.320879" style="fill: #ff0000; fill-opacity: 0.5"/>
     <use xlink:href="#m1d4976d4dc" x="275.021234" y="50.157999" style="fill: #ff0000; fill-opacity: 0.5"/>
     <use xlink:href="#m1d4976d4dc" x="278.752124" y="50.000736" style="fill: #ff0000; fill-opacity: 0.5"/>
     <use xlink:href="#m1d4976d4dc" x="282.483015" y="49.848804" style="fill: #ff0000; fill-opacity: 0.5"/>
     <use xlink:href="#m1d4976d4dc" x="286.213905" y="49.701936" style="fill: #ff0000; fill-opacity: 0.5"/>
     <use xlink:href="#m1d4976d4dc" x="289.944796" y="49.559883" style="fill: #ff0000; fill-opacity: 0.5"/>
     <use xlink:href="#m1d4976d4dc" x="293.675686" y="49.422413" style="fill: #ff0000; fill-opacity: 0.5"/>
     <use xlink:href="#m1d4976d4dc" x="297.406577" y="49.368659" style="fill: #ff0000; fill-opacity: 0.5"/>
     <use xlink:href="#m1d4976d4dc" x="301.137468" y="49.316584" style="fill: #ff0000; fill-opacity: 0.5"/>
     <use xlink:href="#m1d4976d4dc" x="304.868358" y="49.227657" style="fill: #ff0000; fill-opacity: 0.5"/>
     <use xlink:href="#m1d4976d4dc" x="308.599249" y="49.141424" style="fill: #ff0000; fill-opacity: 0.5"/>
     <use xlink:href="#m1d4976d4dc" x="312.330139" y="49.020459" style="fill: #ff0000; fill-opacity: 0.5"/>
     <use xlink:href="#m1d4976d4dc" x="316.06103" y="48.903051" style="fill: #ff0000; fill-opacity: 0.5"/>
     <use xlink:href="#m1d4976d4dc" x="319.79192" y="48.789046" style="fill: #ff0000; fill-opacity: 0.5"/>
     <use xlink:href="#m1d4976d4dc" x="323.522811" y="48.714007" style="fill: #ff0000; fill-opacity: 0.5"/>
     <use xlink:href="#m1d4976d4dc" x="327.253701" y="48.711492" style="fill: #ff0000; fill-opacity: 0.5"/>
     <use xlink:href="#m1d4976d4dc" x="330.984592" y="48.709048" style="fill: #ff0000; fill-opacity: 0.5"/>
     <use xlink:href="#m1d4976d4dc" x="334.715482" y="48.672429" style="fill: #ff0000; fill-opacity: 0.5"/>
     <use xlink:href="#m1d4976d4dc" x="338.446373" y="48.603022" style="fill: #ff0000; fill-opacity: 0.5"/>
     <use xlink:href="#m1d4976d4dc" x="342.177263" y="48.535466" style="fill: #ff0000; fill-opacity: 0.5"/>
     <use xlink:href="#m1d4976d4dc" x="345.908154" y="48.469687" style="fill: #ff0000; fill-opacity: 0.5"/>
     <use xlink:href="#m1d4976d4dc" x="349.639045" y="48.405618" style="fill: #ff0000; fill-opacity: 0.5"/>
     <use xlink:href="#m1d4976d4dc" x="353.369935" y="48.343191" style="fill: #ff0000; fill-opacity: 0.5"/>
     <use xlink:href="#m1d4976d4dc" x="357.100826" y="48.250704" style="fill: #ff0000; fill-opacity: 0.5"/>
     <use xlink:href="#m1d4976d4dc" x="360.831716" y="48.160529" style="fill: #ff0000; fill-opacity: 0.5"/>
     <use xlink:href="#m1d4976d4dc" x="364.562607" y="48.10344" style="fill: #ff0000; fill-opacity: 0.5"/>
     <use xlink:href="#m1d4976d4dc" x="368.293497" y="48.047743" style="fill: #ff0000; fill-opacity: 0.5"/>
     <use xlink:href="#m1d4976d4dc" x="372.024388" y="47.963273" style="fill: #ff0000; fill-opacity: 0.5"/>
     <use xlink:href="#m1d4976d4dc" x="375.755278" y="47.910571" style="fill: #ff0000; fill-opacity: 0.5"/>
     <use xlink:href="#m1d4976d4dc" x="379.486169" y="47.859109" style="fill: #ff0000; fill-opacity: 0.5"/>
     <use xlink:href="#m1d4976d4dc" x="383.217059" y="47.779779" style="fill: #ff0000; fill-opacity: 0.5"/>
     <use xlink:href="#m1d4976d4dc" x="386.94795" y="47.759735" style="fill: #ff0000; fill-opacity: 0.5"/>
     <use xlink:href="#m1d4976d4dc" x="390.67884" y="47.740146" style="fill: #ff0000; fill-opacity: 0.5"/>
     <use xlink:href="#m1d4976d4dc" x="394.409731" y="47.664826" style="fill: #ff0000; fill-opacity: 0.5"/>
     <use xlink:href="#m1d4976d4dc" x="398.140622" y="47.591181" style="fill: #ff0000; fill-opacity: 0.5"/>
     <use xlink:href="#m1d4976d4dc" x="401.871512" y="47.519154" style="fill: #ff0000; fill-opacity: 0.5"/>
     <use xlink:href="#m1d4976d4dc" x="405.602403" y="47.503031" style="fill: #ff0000; fill-opacity: 0.5"/>
     <use xlink:href="#m1d4976d4dc" x="409.333293" y="47.514133" style="fill: #ff0000; fill-opacity: 0.5"/>
     <use xlink:href="#m1d4976d4dc" x="413.064184" y="47.471816" style="fill: #ff0000; fill-opacity: 0.5"/>
     <use xlink:href="#m1d4976d4dc" x="416.795074" y="47.404078" style="fill: #ff0000; fill-opacity: 0.5"/>
     <use xlink:href="#m1d4976d4dc" x="420.525965" y="47.337751" style="fill: #ff0000; fill-opacity: 0.5"/>
     <use xlink:href="#m1d4976d4dc" x="424.256855" y="47.32433" style="fill: #ff0000; fill-opacity: 0.5"/>
     <use xlink:href="#m1d4976d4dc" x="427.987746" y="47.336689" style="fill: #ff0000; fill-opacity: 0.5"/>
     <use xlink:href="#m1d4976d4dc" x="431.718636" y="47.298301" style="fill: #ff0000; fill-opacity: 0.5"/>
    </g>
   </g>
   <g id="line2d_15">
    <path d="M 47.81 290.994545 
L 450 290.994545 
" clip-path="url(#p38157b1b40)" style="fill: none; stroke-dasharray: 0.555,0.24; stroke-dashoffset: 0; stroke: #ff0000; stroke-width: 0.15"/>
   </g>
   <g id="line2d_16">
    <path d="M 47.81 166.015638 
L 450 166.015638 
" clip-path="url(#p38157b1b40)" style="fill: none; stroke-dasharray: 0.555,0.24; stroke-dashoffset: 0; stroke: #ff0000; stroke-width: 0.15"/>
   </g>
   <g id="line2d_17">
    <path d="M 47.81 41.036731 
L 450 41.036731 
" clip-path="url(#p38157b1b40)" style="fill: none; stroke-dasharray: 0.555,0.24; stroke-dashoffset: 0; stroke: #ff0000; stroke-width: 0.15"/>
   </g>
   <g id="patch_3">
    <path d="M 47.81 303.64 
L 47.81 25.44 
" style="fill: none; stroke: #000000; stroke-width: 0.8; stroke-linejoin: miter; stroke-linecap: square"/>
   </g>
   <g id="patch_4">
    <path d="M 450 303.64 
L 450 25.44 
" style="fill: none; stroke: #000000; stroke-width: 0.8; stroke-linejoin: miter; stroke-linecap: square"/>
   </g>
   <g id="patch_5">
    <path d="M 47.81 303.64 
L 450 303.64 
" style="fill: none; stroke: #000000; stroke-width: 0.8; stroke-linejoin: miter; stroke-linecap: square"/>
   </g>
   <g id="patch_6">
    <path d="M 47.81 25.44 
L 450 25.44 
" style="fill: none; stroke: #000000; stroke-width: 0.8; stroke-linejoin: miter; stroke-linecap: square"/>
   </g>
   <g id="text_15">
    <!-- Similarity LLM-COOP with sw2-1 - 20240409113845 - 50 games -->
    <g transform="translate(57.882812 19.44) scale(0.12 -0.12)">
     <defs>
      <path id="DejaVuSans-20" transform="scale(0.015625)"/>
      <path id="DejaVuSans-4c" d="M 628 4666 
L 1259 4666 
L 1259 531 
L 3531 531 
L 3531 0 
L 628 0 
L 628 4666 
z
" transform="scale(0.015625)"/>
      <path id="DejaVuSans-4d" d="M 628 4666 
L 1569 4666 
L 2759 1491 
L 3956 4666 
L 4897 4666 
L 4897 0 
L 4281 0 
L 4281 4097 
L 3078 897 
L 2444 897 
L 1241 4097 
L 1241 0 
L 628 0 
L 628 4666 
z
" transform="scale(0.015625)"/>
      <path id="DejaVuSans-2d" d="M 313 2009 
L 1997 2009 
L 1997 1497 
L 313 1497 
L 313 2009 
z
" transform="scale(0.015625)"/>
      <path id="DejaVuSans-43" d="M 4122 4306 
L 4122 3641 
Q 3803 3938 3442 4084 
Q 3081 4231 2675 4231 
Q 1875 4231 1450 3742 
Q 1025 3253 1025 2328 
Q 1025 1406 1450 917 
Q 1875 428 2675 428 
Q 3081 428 3442 575 
Q 3803 722 4122 1019 
L 4122 359 
Q 3791 134 3420 21 
Q 3050 -91 2638 -91 
Q 1578 -91 968 557 
Q 359 1206 359 2328 
Q 359 3453 968 4101 
Q 1578 4750 2638 4750 
Q 3056 4750 3426 4639 
Q 3797 4528 4122 4306 
z
" transform="scale(0.015625)"/>
      <path id="DejaVuSans-4f" d="M 2522 4238 
Q 1834 4238 1429 3725 
Q 1025 3213 1025 2328 
Q 1025 1447 1429 934 
Q 1834 422 2522 422 
Q 3209 422 3611 934 
Q 4013 1447 4013 2328 
Q 4013 3213 3611 3725 
Q 3209 4238 2522 4238 
z
M 2522 4750 
Q 3503 4750 4090 4092 
Q 4678 3434 4678 2328 
Q 4678 1225 4090 567 
Q 3503 -91 2522 -91 
Q 1538 -91 948 565 
Q 359 1222 359 2328 
Q 359 3434 948 4092 
Q 1538 4750 2522 4750 
z
" transform="scale(0.015625)"/>
      <path id="DejaVuSans-50" d="M 1259 4147 
L 1259 2394 
L 2053 2394 
Q 2494 2394 2734 2622 
Q 2975 2850 2975 3272 
Q 2975 3691 2734 3919 
Q 2494 4147 2053 4147 
L 1259 4147 
z
M 628 4666 
L 2053 4666 
Q 2838 4666 3239 4311 
Q 3641 3956 3641 3272 
Q 3641 2581 3239 2228 
Q 2838 1875 2053 1875 
L 1259 1875 
L 1259 0 
L 628 0 
L 628 4666 
z
" transform="scale(0.015625)"/>
      <path id="DejaVuSans-77" d="M 269 3500 
L 844 3500 
L 1563 769 
L 2278 3500 
L 2956 3500 
L 3675 769 
L 4391 3500 
L 4966 3500 
L 4050 0 
L 3372 0 
L 2619 2869 
L 1863 0 
L 1184 0 
L 269 3500 
z
" transform="scale(0.015625)"/>
      <path id="DejaVuSans-68" d="M 3513 2113 
L 3513 0 
L 2938 0 
L 2938 2094 
Q 2938 2591 2744 2837 
Q 2550 3084 2163 3084 
Q 1697 3084 1428 2787 
Q 1159 2491 1159 1978 
L 1159 0 
L 581 0 
L 581 4863 
L 1159 4863 
L 1159 2956 
Q 1366 3272 1645 3428 
Q 1925 3584 2291 3584 
Q 2894 3584 3203 3211 
Q 3513 2838 3513 2113 
z
" transform="scale(0.015625)"/>
      <path id="DejaVuSans-73" d="M 2834 3397 
L 2834 2853 
Q 2591 2978 2328 3040 
Q 2066 3103 1784 3103 
Q 1356 3103 1142 2972 
Q 928 2841 928 2578 
Q 928 2378 1081 2264 
Q 1234 2150 1697 2047 
L 1894 2003 
Q 2506 1872 2764 1633 
Q 3022 1394 3022 966 
Q 3022 478 2636 193 
Q 2250 -91 1575 -91 
Q 1294 -91 989 -36 
Q 684 19 347 128 
L 347 722 
Q 666 556 975 473 
Q 1284 391 1588 391 
Q 1994 391 2212 530 
Q 2431 669 2431 922 
Q 2431 1156 2273 1281 
Q 2116 1406 1581 1522 
L 1381 1569 
Q 847 1681 609 1914 
Q 372 2147 372 2553 
Q 372 3047 722 3315 
Q 1072 3584 1716 3584 
Q 2034 3584 2315 3537 
Q 2597 3491 2834 3397 
z
" transform="scale(0.015625)"/>
      <path id="DejaVuSans-39" d="M 703 97 
L 703 672 
Q 941 559 1184 500 
Q 1428 441 1663 441 
Q 2288 441 2617 861 
Q 2947 1281 2994 2138 
Q 2813 1869 2534 1725 
Q 2256 1581 1919 1581 
Q 1219 1581 811 2004 
Q 403 2428 403 3163 
Q 403 3881 828 4315 
Q 1253 4750 1959 4750 
Q 2769 4750 3195 4129 
Q 3622 3509 3622 2328 
Q 3622 1225 3098 567 
Q 2575 -91 1691 -91 
Q 1453 -91 1209 -44 
Q 966 3 703 97 
z
M 1959 2075 
Q 2384 2075 2632 2365 
Q 2881 2656 2881 3163 
Q 2881 3666 2632 3958 
Q 2384 4250 1959 4250 
Q 1534 4250 1286 3958 
Q 1038 3666 1038 3163 
Q 1038 2656 1286 2365 
Q 1534 2075 1959 2075 
z
" transform="scale(0.015625)"/>
      <path id="DejaVuSans-33" d="M 2597 2516 
Q 3050 2419 3304 2112 
Q 3559 1806 3559 1356 
Q 3559 666 3084 287 
Q 2609 -91 1734 -91 
Q 1441 -91 1130 -33 
Q 819 25 488 141 
L 488 750 
Q 750 597 1062 519 
Q 1375 441 1716 441 
Q 2309 441 2620 675 
Q 2931 909 2931 1356 
Q 2931 1769 2642 2001 
Q 2353 2234 1838 2234 
L 1294 2234 
L 1294 2753 
L 1863 2753 
Q 2328 2753 2575 2939 
Q 2822 3125 2822 3475 
Q 2822 3834 2567 4026 
Q 2313 4219 1838 4219 
Q 1578 4219 1281 4162 
Q 984 4106 628 3988 
L 628 4550 
Q 988 4650 1302 4700 
Q 1616 4750 1894 4750 
Q 2613 4750 3031 4423 
Q 3450 4097 3450 3541 
Q 3450 3153 3228 2886 
Q 3006 2619 2597 2516 
z
" transform="scale(0.015625)"/>
      <path id="DejaVuSans-35" d="M 691 4666 
L 3169 4666 
L 3169 4134 
L 1269 4134 
L 1269 2991 
Q 1406 3038 1543 3061 
Q 1681 3084 1819 3084 
Q 2600 3084 3056 2656 
Q 3513 2228 3513 1497 
Q 3513 744 3044 326 
Q 2575 -91 1722 -91 
Q 1428 -91 1123 -41 
Q 819 9 494 109 
L 494 744 
Q 775 591 1075 516 
Q 1375 441 1709 441 
Q 2250 441 2565 725 
Q 2881 1009 2881 1497 
Q 2881 1984 2565 2268 
Q 2250 2553 1709 2553 
Q 1456 2553 1204 2497 
Q 953 2441 691 2322 
L 691 4666 
z
" transform="scale(0.015625)"/>
      <path id="DejaVuSans-67" d="M 2906 1791 
Q 2906 2416 2648 2759 
Q 2391 3103 1925 3103 
Q 1463 3103 1205 2759 
Q 947 2416 947 1791 
Q 947 1169 1205 825 
Q 1463 481 1925 481 
Q 2391 481 2648 825 
Q 2906 1169 2906 1791 
z
M 3481 434 
Q 3481 -459 3084 -895 
Q 2688 -1331 1869 -1331 
Q 1566 -1331 1297 -1286 
Q 1028 -1241 775 -1147 
L 775 -588 
Q 1028 -725 1275 -790 
Q 1522 -856 1778 -856 
Q 2344 -856 2625 -561 
Q 2906 -266 2906 331 
L 2906 616 
Q 2728 306 2450 153 
Q 2172 0 1784 0 
Q 1141 0 747 490 
Q 353 981 353 1791 
Q 353 2603 747 3093 
Q 1141 3584 1784 3584 
Q 2172 3584 2450 3431 
Q 2728 3278 2906 2969 
L 2906 3500 
L 3481 3500 
L 3481 434 
z
" transform="scale(0.015625)"/>
     </defs>
     <use xlink:href="#DejaVuSans-53"/>
     <use xlink:href="#DejaVuSans-69" x="63.476562"/>
     <use xlink:href="#DejaVuSans-6d" x="91.259766"/>
     <use xlink:href="#DejaVuSans-69" x="188.671875"/>
     <use xlink:href="#DejaVuSans-6c" x="216.455078"/>
     <use xlink:href="#DejaVuSans-61" x="244.238281"/>
     <use xlink:href="#DejaVuSans-72" x="305.517578"/>
     <use xlink:href="#DejaVuSans-69" x="346.630859"/>
     <use xlink:href="#DejaVuSans-74" x="374.414062"/>
     <use xlink:href="#DejaVuSans-79" x="413.623047"/>
     <use xlink:href="#DejaVuSans-20" x="472.802734"/>
     <use xlink:href="#DejaVuSans-4c" x="504.589844"/>
     <use xlink:href="#DejaVuSans-4c" x="560.302734"/>
     <use xlink:href="#DejaVuSans-4d" x="616.015625"/>
     <use xlink:href="#DejaVuSans-2d" x="702.294922"/>
     <use xlink:href="#DejaVuSans-43" x="738.378906"/>
     <use xlink:href="#DejaVuSans-4f" x="808.203125"/>
     <use xlink:href="#DejaVuSans-4f" x="886.914062"/>
     <use xlink:href="#DejaVuSans-50" x="965.625"/>
     <use xlink:href="#DejaVuSans-20" x="1025.927734"/>
     <use xlink:href="#DejaVuSans-77" x="1057.714844"/>
     <use xlink:href="#DejaVuSans-69" x="1139.501953"/>
     <use xlink:href="#DejaVuSans-74" x="1167.285156"/>
     <use xlink:href="#DejaVuSans-68" x="1206.494141"/>
     <use xlink:href="#DejaVuSans-20" x="1269.873047"/>
     <use xlink:href="#DejaVuSans-73" x="1301.660156"/>
     <use xlink:href="#DejaVuSans-77" x="1353.759766"/>
     <use xlink:href="#DejaVuSans-32" x="1435.546875"/>
     <use xlink:href="#DejaVuSans-2d" x="1499.169922"/>
     <use xlink:href="#DejaVuSans-31" x="1535.253906"/>
     <use xlink:href="#DejaVuSans-20" x="1598.876953"/>
     <use xlink:href="#DejaVuSans-2d" x="1630.664062"/>
     <use xlink:href="#DejaVuSans-20" x="1666.748047"/>
     <use xlink:href="#DejaVuSans-32" x="1698.535156"/>
     <use xlink:href="#DejaVuSans-30" x="1762.158203"/>
     <use xlink:href="#DejaVuSans-32" x="1825.78125"/>
     <use xlink:href="#DejaVuSans-34" x="1889.404297"/>
     <use xlink:href="#DejaVuSans-30" x="1953.027344"/>
     <use xlink:href="#DejaVuSans-34" x="2016.650391"/>
     <use xlink:href="#DejaVuSans-30" x="2080.273438"/>
     <use xlink:href="#DejaVuSans-39" x="2143.896484"/>
     <use xlink:href="#DejaVuSans-31" x="2207.519531"/>
     <use xlink:href="#DejaVuSans-31" x="2271.142578"/>
     <use xlink:href="#DejaVuSans-33" x="2334.765625"/>
     <use xlink:href="#DejaVuSans-38" x="2398.388672"/>
     <use xlink:href="#DejaVuSans-34" x="2462.011719"/>
     <use xlink:href="#DejaVuSans-35" x="2525.634766"/>
     <use xlink:href="#DejaVuSans-20" x="2589.257812"/>
     <use xlink:href="#DejaVuSans-2d" x="2621.044922"/>
     <use xlink:href="#DejaVuSans-20" x="2657.128906"/>
     <use xlink:href="#DejaVuSans-35" x="2688.916016"/>
     <use xlink:href="#DejaVuSans-30" x="2752.539062"/>
     <use xlink:href="#DejaVuSans-20" x="2816.162109"/>
     <use xlink:href="#DejaVuSans-67" x="2847.949219"/>
     <use xlink:href="#DejaVuSans-61" x="2911.425781"/>
     <use xlink:href="#DejaVuSans-6d" x="2972.705078"/>
     <use xlink:href="#DejaVuSans-65" x="3070.117188"/>
     <use xlink:href="#DejaVuSans-73" x="3131.640625"/>
    </g>
   </g>
   <g id="legend_1">
    <g id="patch_7">
     <path d="M 54.81 298.64 
L 170.483438 298.64 
Q 172.483438 298.64 172.483438 296.64 
L 172.483438 268.28375 
Q 172.483438 266.28375 170.483438 266.28375 
L 54.81 266.28375 
Q 52.81 266.28375 52.81 268.28375 
L 52.81 296.64 
Q 52.81 298.64 54.81 298.64 
z
" style="fill: #ffffff; opacity: 0.8; stroke: #cccccc; stroke-linejoin: miter"/>
    </g>
    <g id="line2d_18">
     <path d="M 56.81 274.382187 
L 66.81 274.382187 
L 76.81 274.382187 
" style="fill: none; stroke: #0000ff; stroke-linecap: square"/>
     <g>
      <use xlink:href="#m9d6f582a8e" x="66.81" y="274.382187" style="fill: #0000ff"/>
     </g>
    </g>
    <g id="text_16">
     <!-- LLM-COOP -->
     <g transform="translate(84.81 277.882187) scale(0.1 -0.1)">
      <use xlink:href="#DejaVuSans-4c"/>
      <use xlink:href="#DejaVuSans-4c" x="55.712891"/>
      <use xlink:href="#DejaVuSans-4d" x="111.425781"/>
      <use xlink:href="#DejaVuSans-2d" x="197.705078"/>
      <use xlink:href="#DejaVuSans-43" x="233.789062"/>
      <use xlink:href="#DejaVuSans-4f" x="303.613281"/>
      <use xlink:href="#DejaVuSans-4f" x="382.324219"/>
      <use xlink:href="#DejaVuSans-50" x="461.035156"/>
     </g>
    </g>
    <g id="line2d_19">
     <path d="M 56.81 289.060312 
L 66.81 289.060312 
L 76.81 289.060312 
" style="fill: none; stroke: #ff0000; stroke-opacity: 0.5; stroke-width: 0.5; stroke-linecap: square"/>
     <g>
      <use xlink:href="#m1d4976d4dc" x="66.81" y="289.060312" style="fill: #ff0000; fill-opacity: 0.5"/>
     </g>
    </g>
    <g id="text_17">
     <!-- LLM-COOP mean -->
     <g transform="translate(84.81 292.560312) scale(0.1 -0.1)">
      <use xlink:href="#DejaVuSans-4c"/>
      <use xlink:href="#DejaVuSans-4c" x="55.712891"/>
      <use xlink:href="#DejaVuSans-4d" x="111.425781"/>
      <use xlink:href="#DejaVuSans-2d" x="197.705078"/>
      <use xlink:href="#DejaVuSans-43" x="233.789062"/>
      <use xlink:href="#DejaVuSans-4f" x="303.613281"/>
      <use xlink:href="#DejaVuSans-4f" x="382.324219"/>
      <use xlink:href="#DejaVuSans-50" x="461.035156"/>
      <use xlink:href="#DejaVuSans-20" x="521.337891"/>
      <use xlink:href="#DejaVuSans-6d" x="553.125"/>
      <use xlink:href="#DejaVuSans-65" x="650.537109"/>
      <use xlink:href="#DejaVuSans-61" x="712.060547"/>
      <use xlink:href="#DejaVuSans-6e" x="773.339844"/>
     </g>
    </g>
   </g>
  </g>
 </g>
 <defs>
  <clipPath id="p38157b1b40">
   <rect x="47.81" y="25.44" width="402.19" height="278.2"/>
  </clipPath>
 </defs>
</svg>
