<?xml version="1.0" encoding="utf-8" standalone="no"?>
<!DOCTYPE svg PUBLIC "-//W3C//DTD SVG 1.1//EN"
  "http://www.w3.org/Graphics/SVG/1.1/DTD/svg11.dtd">
<svg xmlns:xlink="http://www.w3.org/1999/xlink" width="460.8pt" height="345.6pt" viewBox="0 0 460.8 345.6" xmlns="http://www.w3.org/2000/svg" version="1.1">
 <metadata>
  <rdf:RDF xmlns:dc="http://purl.org/dc/elements/1.1/" xmlns:cc="http://creativecommons.org/ns#" xmlns:rdf="http://www.w3.org/1999/02/22-rdf-syntax-ns#">
   <cc:Work>
    <dc:type rdf:resource="http://purl.org/dc/dcmitype/StillImage"/>
    <dc:date>2024-04-29T11:04:49.531269</dc:date>
    <dc:format>image/svg+xml</dc:format>
    <dc:creator>
     <cc:Agent>
      <dc:title>Matplotlib v3.8.0, https://matplotlib.org/</dc:title>
     </cc:Agent>
    </dc:creator>
   </cc:Work>
  </rdf:RDF>
 </metadata>
 <defs>
  <style type="text/css">*{stroke-linejoin: round; stroke-linecap: butt}</style>
 </defs>
 <g id="figure_1">
  <g id="patch_1">
   <path d="M 0 345.6 
L 460.8 345.6 
L 460.8 0 
L 0 0 
z
" style="fill: #ffffff"/>
  </g>
  <g id="axes_1">
   <g id="patch_2">
    <path d="M 47.81 303.64 
L 450 303.64 
L 450 25.44 
L 47.81 25.44 
z
" style="fill: #ffffff"/>
   </g>
   <g id="PolyCollection_1">
    <defs>
     <path id="me3f681123c" d="M 66.091364 -283.344445 
L 66.091364 -283.344445 
L 69.784568 -307.514545 
L 73.477773 -277.107706 
L 77.170978 -248.904815 
L 80.864183 -230.579417 
L 84.557388 -216.709881 
L 88.250592 -208.540743 
L 91.943797 -205.146881 
L 95.637002 -201.757533 
L 99.330207 -198.436746 
L 103.023411 -194.510356 
L 106.716616 -191.807904 
L 110.409821 -190.2035 
L 114.103026 -187.530671 
L 117.79623 -184.404312 
L 121.489435 -182.575893 
L 125.18264 -180.178676 
L 128.875845 -178.727242 
L 132.56905 -176.484052 
L 136.262254 -176.131987 
L 139.955459 -175.029443 
L 143.648664 -174.224434 
L 147.341869 -173.960183 
L 151.035073 -173.967249 
L 154.728278 -172.666937 
L 158.421483 -171.690207 
L 162.114688 -170.773202 
L 165.807893 -170.871166 
L 169.501097 -169.747173 
L 173.194302 -169.865762 
L 176.887507 -168.791033 
L 180.580712 -168.526357 
L 184.273916 -167.835593 
L 187.967121 -167.29935 
L 191.660326 -166.669755 
L 195.353531 -166.645324 
L 199.046736 -166.298357 
L 202.73994 -165.73201 
L 206.433145 -165.103636 
L 210.12635 -164.500816 
L 213.819555 -165.320068 
L 217.512759 -164.820983 
L 221.205964 -165.364947 
L 224.899169 -164.719746 
L 228.592374 -165.238871 
L 232.285579 -164.605748 
L 235.978783 -165.744401 
L 239.671988 -165.589264 
L 243.365193 -165.702732 
L 247.058398 -165.214733 
L 250.751602 -166.227919 
L 254.444807 -165.880873 
L 258.138012 -166.112294 
L 261.831217 -165.777495 
L 265.524421 -165.736469 
L 269.217626 -165.302308 
L 272.910831 -165.829504 
L 276.604036 -165.410035 
L 280.297241 -165.271441 
L 283.990445 -164.821692 
L 287.68365 -164.478817 
L 291.376855 -164.044226 
L 295.07006 -163.673991 
L 298.763264 -163.455099 
L 302.456469 -163.064983 
L 306.149674 -162.681902 
L 309.842879 -162.818644 
L 313.536084 -162.519705 
L 317.229288 -162.660228 
L 320.922493 -162.277311 
L 324.615698 -162.221218 
L 328.308903 -161.95913 
L 332.002107 -161.906601 
L 335.695312 -161.709604 
L 339.388517 -161.417375 
L 343.081722 -161.175196 
L 346.774927 -160.992126 
L 350.468131 -160.759378 
L 354.161336 -160.531398 
L 357.854541 -160.308027 
L 361.547746 -160.554893 
L 365.24095 -160.690949 
L 368.934155 -160.582064 
L 372.62736 -160.300906 
L 376.320565 -160.139603 
L 380.01377 -159.895712 
L 383.706974 -159.693791 
L 387.400179 -159.406244 
L 391.093384 -159.175581 
L 394.786589 -159.032686 
L 398.479793 -158.80956 
L 402.172998 -159.382987 
L 405.866203 -159.136701 
L 409.559408 -159.116286 
L 413.252612 -158.876955 
L 416.945817 -158.64141 
L 420.639022 -158.409559 
L 424.332227 -158.397167 
L 428.025432 -158.195969 
L 431.718636 -158.031245 
L 431.718636 -109.70979 
L 431.718636 -109.70979 
L 428.025432 -109.637485 
L 424.332227 -109.625861 
L 420.639022 -109.421951 
L 416.945817 -109.480856 
L 413.252612 -109.542189 
L 409.559408 -109.606051 
L 405.866203 -109.3934 
L 402.172998 -109.458105 
L 398.479793 -109.220797 
L 394.786589 -109.206284 
L 391.093384 -109.066885 
L 387.400179 -109.051987 
L 383.706974 -109.307105 
L 380.01377 -109.226224 
L 376.320565 -109.216059 
L 372.62736 -109.071755 
L 368.934155 -109.145461 
L 365.24095 -108.944668 
L 361.547746 -108.640758 
L 357.854541 -108.319954 
L 354.161336 -108.223628 
L 350.468131 -108.125949 
L 346.774927 -108.026888 
L 343.081722 -107.858176 
L 339.388517 -107.755223 
L 335.695312 -107.732148 
L 332.002107 -107.555891 
L 328.308903 -107.265336 
L 324.615698 -107.153009 
L 320.922493 -106.850828 
L 317.229288 -107.026543 
L 313.536084 -106.64374 
L 309.842879 -107.756719 
L 306.149674 -107.367741 
L 302.456469 -108.166386 
L 298.763264 -108.265527 
L 295.07006 -109.736985 
L 291.376855 -109.756359 
L 287.68365 -110.336367 
L 283.990445 -110.263886 
L 280.297241 -110.884909 
L 276.604036 -110.566247 
L 272.910831 -110.615569 
L 269.217626 -110.127824 
L 265.524421 -110.169571 
L 261.831217 -109.757608 
L 258.138012 -109.566345 
L 254.444807 -109.0491 
L 250.751602 -108.839353 
L 247.058398 -108.314798 
L 243.365193 -108.322194 
L 239.671988 -107.784663 
L 235.978783 -107.348112 
L 232.285579 -106.772379 
L 228.592374 -107.253295 
L 224.899169 -106.603027 
L 221.205964 -106.905271 
L 217.512759 -106.218872 
L 213.819555 -106.023406 
L 210.12635 -105.294201 
L 206.433145 -105.218043 
L 202.73994 -105.144051 
L 199.046736 -104.909719 
L 195.353531 -104.394531 
L 191.660326 -103.658764 
L 187.967121 -103.374376 
L 184.273916 -102.921345 
L 180.580712 -102.610751 
L 176.887507 -101.847261 
L 173.194302 -102.418931 
L 169.501097 -101.399995 
L 165.807893 -101.724736 
L 162.114688 -100.612441 
L 158.421483 -100.18752 
L 154.728278 -99.74224 
L 151.035073 -99.795689 
L 147.341869 -98.432757 
L 143.648664 -97.098339 
L 139.955459 -96.010412 
L 136.262254 -95.063473 
L 132.56905 -93.409242 
L 128.875845 -94.906025 
L 125.18264 -93.79021 
L 121.489435 -94.104634 
L 117.79623 -92.859733 
L 114.103026 -94.401517 
L 110.409821 -93.524127 
L 106.716616 -90.902307 
L 103.023411 -88.694962 
L 99.330207 -87.229956 
L 95.637002 -83.805433 
L 91.943797 -79.119379 
L 88.250592 -72.724568 
L 84.557388 -68.334402 
L 80.864183 -70.95897 
L 77.170978 -70.372514 
L 73.477773 -84.182908 
L 69.784568 -142.470779 
L 66.091364 -283.344445 
z
" style="stroke: #0000ff; stroke-opacity: 0.2"/>
    </defs>
    <g clip-path="url(#pa4f2812902)">
     <use xlink:href="#me3f681123c" x="0" y="345.6" style="fill: #0000ff; fill-opacity: 0.2; stroke: #0000ff; stroke-opacity: 0.2"/>
    </g>
   </g>
   <g id="matplotlib.axis_1">
    <g id="xtick_1">
     <g id="line2d_1">
      <defs>
       <path id="m050adb946c" d="M 0 0 
L 0 3.5 
" style="stroke: #000000; stroke-width: 0.8"/>
      </defs>
      <g>
       <use xlink:href="#m050adb946c" x="66.091364" y="303.64" style="stroke: #000000; stroke-width: 0.8"/>
      </g>
     </g>
     <g id="text_1">
      <!-- 0 -->
      <g transform="translate(62.910114 318.238437) scale(0.1 -0.1)">
       <defs>
        <path id="DejaVuSans-30" d="M 2034 4250 
Q 1547 4250 1301 3770 
Q 1056 3291 1056 2328 
Q 1056 1369 1301 889 
Q 1547 409 2034 409 
Q 2525 409 2770 889 
Q 3016 1369 3016 2328 
Q 3016 3291 2770 3770 
Q 2525 4250 2034 4250 
z
M 2034 4750 
Q 2819 4750 3233 4129 
Q 3647 3509 3647 2328 
Q 3647 1150 3233 529 
Q 2819 -91 2034 -91 
Q 1250 -91 836 529 
Q 422 1150 422 2328 
Q 422 3509 836 4129 
Q 1250 4750 2034 4750 
z
" transform="scale(0.015625)"/>
       </defs>
       <use xlink:href="#DejaVuSans-30"/>
      </g>
     </g>
    </g>
    <g id="xtick_2">
     <g id="line2d_2">
      <g>
       <use xlink:href="#m050adb946c" x="139.955459" y="303.64" style="stroke: #000000; stroke-width: 0.8"/>
      </g>
     </g>
     <g id="text_2">
      <!-- 20 -->
      <g transform="translate(133.592959 318.238437) scale(0.1 -0.1)">
       <defs>
        <path id="DejaVuSans-32" d="M 1228 531 
L 3431 531 
L 3431 0 
L 469 0 
L 469 531 
Q 828 903 1448 1529 
Q 2069 2156 2228 2338 
Q 2531 2678 2651 2914 
Q 2772 3150 2772 3378 
Q 2772 3750 2511 3984 
Q 2250 4219 1831 4219 
Q 1534 4219 1204 4116 
Q 875 4013 500 3803 
L 500 4441 
Q 881 4594 1212 4672 
Q 1544 4750 1819 4750 
Q 2544 4750 2975 4387 
Q 3406 4025 3406 3419 
Q 3406 3131 3298 2873 
Q 3191 2616 2906 2266 
Q 2828 2175 2409 1742 
Q 1991 1309 1228 531 
z
" transform="scale(0.015625)"/>
       </defs>
       <use xlink:href="#DejaVuSans-32"/>
       <use xlink:href="#DejaVuSans-30" x="63.623047"/>
      </g>
     </g>
    </g>
    <g id="xtick_3">
     <g id="line2d_3">
      <g>
       <use xlink:href="#m050adb946c" x="213.819555" y="303.64" style="stroke: #000000; stroke-width: 0.8"/>
      </g>
     </g>
     <g id="text_3">
      <!-- 40 -->
      <g transform="translate(207.457055 318.238437) scale(0.1 -0.1)">
       <defs>
        <path id="DejaVuSans-34" d="M 2419 4116 
L 825 1625 
L 2419 1625 
L 2419 4116 
z
M 2253 4666 
L 3047 4666 
L 3047 1625 
L 3713 1625 
L 3713 1100 
L 3047 1100 
L 3047 0 
L 2419 0 
L 2419 1100 
L 313 1100 
L 313 1709 
L 2253 4666 
z
" transform="scale(0.015625)"/>
       </defs>
       <use xlink:href="#DejaVuSans-34"/>
       <use xlink:href="#DejaVuSans-30" x="63.623047"/>
      </g>
     </g>
    </g>
    <g id="xtick_4">
     <g id="line2d_4">
      <g>
       <use xlink:href="#m050adb946c" x="287.68365" y="303.64" style="stroke: #000000; stroke-width: 0.8"/>
      </g>
     </g>
     <g id="text_4">
      <!-- 60 -->
      <g transform="translate(281.32115 318.238437) scale(0.1 -0.1)">
       <defs>
        <path id="DejaVuSans-36" d="M 2113 2584 
Q 1688 2584 1439 2293 
Q 1191 2003 1191 1497 
Q 1191 994 1439 701 
Q 1688 409 2113 409 
Q 2538 409 2786 701 
Q 3034 994 3034 1497 
Q 3034 2003 2786 2293 
Q 2538 2584 2113 2584 
z
M 3366 4563 
L 3366 3988 
Q 3128 4100 2886 4159 
Q 2644 4219 2406 4219 
Q 1781 4219 1451 3797 
Q 1122 3375 1075 2522 
Q 1259 2794 1537 2939 
Q 1816 3084 2150 3084 
Q 2853 3084 3261 2657 
Q 3669 2231 3669 1497 
Q 3669 778 3244 343 
Q 2819 -91 2113 -91 
Q 1303 -91 875 529 
Q 447 1150 447 2328 
Q 447 3434 972 4092 
Q 1497 4750 2381 4750 
Q 2619 4750 2861 4703 
Q 3103 4656 3366 4563 
z
" transform="scale(0.015625)"/>
       </defs>
       <use xlink:href="#DejaVuSans-36"/>
       <use xlink:href="#DejaVuSans-30" x="63.623047"/>
      </g>
     </g>
    </g>
    <g id="xtick_5">
     <g id="line2d_5">
      <g>
       <use xlink:href="#m050adb946c" x="361.547746" y="303.64" style="stroke: #000000; stroke-width: 0.8"/>
      </g>
     </g>
     <g id="text_5">
      <!-- 80 -->
      <g transform="translate(355.185246 318.238437) scale(0.1 -0.1)">
       <defs>
        <path id="DejaVuSans-38" d="M 2034 2216 
Q 1584 2216 1326 1975 
Q 1069 1734 1069 1313 
Q 1069 891 1326 650 
Q 1584 409 2034 409 
Q 2484 409 2743 651 
Q 3003 894 3003 1313 
Q 3003 1734 2745 1975 
Q 2488 2216 2034 2216 
z
M 1403 2484 
Q 997 2584 770 2862 
Q 544 3141 544 3541 
Q 544 4100 942 4425 
Q 1341 4750 2034 4750 
Q 2731 4750 3128 4425 
Q 3525 4100 3525 3541 
Q 3525 3141 3298 2862 
Q 3072 2584 2669 2484 
Q 3125 2378 3379 2068 
Q 3634 1759 3634 1313 
Q 3634 634 3220 271 
Q 2806 -91 2034 -91 
Q 1263 -91 848 271 
Q 434 634 434 1313 
Q 434 1759 690 2068 
Q 947 2378 1403 2484 
z
M 1172 3481 
Q 1172 3119 1398 2916 
Q 1625 2713 2034 2713 
Q 2441 2713 2670 2916 
Q 2900 3119 2900 3481 
Q 2900 3844 2670 4047 
Q 2441 4250 2034 4250 
Q 1625 4250 1398 4047 
Q 1172 3844 1172 3481 
z
" transform="scale(0.015625)"/>
       </defs>
       <use xlink:href="#DejaVuSans-38"/>
       <use xlink:href="#DejaVuSans-30" x="63.623047"/>
      </g>
     </g>
    </g>
    <g id="xtick_6">
     <g id="line2d_6">
      <g>
       <use xlink:href="#m050adb946c" x="435.411841" y="303.64" style="stroke: #000000; stroke-width: 0.8"/>
      </g>
     </g>
     <g id="text_6">
      <!-- 100 -->
      <g transform="translate(425.868091 318.238437) scale(0.1 -0.1)">
       <defs>
        <path id="DejaVuSans-31" d="M 794 531 
L 1825 531 
L 1825 4091 
L 703 3866 
L 703 4441 
L 1819 4666 
L 2450 4666 
L 2450 531 
L 3481 531 
L 3481 0 
L 794 0 
L 794 531 
z
" transform="scale(0.015625)"/>
       </defs>
       <use xlink:href="#DejaVuSans-31"/>
       <use xlink:href="#DejaVuSans-30" x="63.623047"/>
       <use xlink:href="#DejaVuSans-30" x="127.246094"/>
      </g>
     </g>
    </g>
    <g id="text_7">
     <!-- Iteration -->
     <g transform="translate(227.696406 331.916562) scale(0.1 -0.1)">
      <defs>
       <path id="DejaVuSans-49" d="M 628 4666 
L 1259 4666 
L 1259 0 
L 628 0 
L 628 4666 
z
" transform="scale(0.015625)"/>
       <path id="DejaVuSans-74" d="M 1172 4494 
L 1172 3500 
L 2356 3500 
L 2356 3053 
L 1172 3053 
L 1172 1153 
Q 1172 725 1289 603 
Q 1406 481 1766 481 
L 2356 481 
L 2356 0 
L 1766 0 
Q 1100 0 847 248 
Q 594 497 594 1153 
L 594 3053 
L 172 3053 
L 172 3500 
L 594 3500 
L 594 4494 
L 1172 4494 
z
" transform="scale(0.015625)"/>
       <path id="DejaVuSans-65" d="M 3597 1894 
L 3597 1613 
L 953 1613 
Q 991 1019 1311 708 
Q 1631 397 2203 397 
Q 2534 397 2845 478 
Q 3156 559 3463 722 
L 3463 178 
Q 3153 47 2828 -22 
Q 2503 -91 2169 -91 
Q 1331 -91 842 396 
Q 353 884 353 1716 
Q 353 2575 817 3079 
Q 1281 3584 2069 3584 
Q 2775 3584 3186 3129 
Q 3597 2675 3597 1894 
z
M 3022 2063 
Q 3016 2534 2758 2815 
Q 2500 3097 2075 3097 
Q 1594 3097 1305 2825 
Q 1016 2553 972 2059 
L 3022 2063 
z
" transform="scale(0.015625)"/>
       <path id="DejaVuSans-72" d="M 2631 2963 
Q 2534 3019 2420 3045 
Q 2306 3072 2169 3072 
Q 1681 3072 1420 2755 
Q 1159 2438 1159 1844 
L 1159 0 
L 581 0 
L 581 3500 
L 1159 3500 
L 1159 2956 
Q 1341 3275 1631 3429 
Q 1922 3584 2338 3584 
Q 2397 3584 2469 3576 
Q 2541 3569 2628 3553 
L 2631 2963 
z
" transform="scale(0.015625)"/>
       <path id="DejaVuSans-61" d="M 2194 1759 
Q 1497 1759 1228 1600 
Q 959 1441 959 1056 
Q 959 750 1161 570 
Q 1363 391 1709 391 
Q 2188 391 2477 730 
Q 2766 1069 2766 1631 
L 2766 1759 
L 2194 1759 
z
M 3341 1997 
L 3341 0 
L 2766 0 
L 2766 531 
Q 2569 213 2275 61 
Q 1981 -91 1556 -91 
Q 1019 -91 701 211 
Q 384 513 384 1019 
Q 384 1609 779 1909 
Q 1175 2209 1959 2209 
L 2766 2209 
L 2766 2266 
Q 2766 2663 2505 2880 
Q 2244 3097 1772 3097 
Q 1472 3097 1187 3025 
Q 903 2953 641 2809 
L 641 3341 
Q 956 3463 1253 3523 
Q 1550 3584 1831 3584 
Q 2591 3584 2966 3190 
Q 3341 2797 3341 1997 
z
" transform="scale(0.015625)"/>
       <path id="DejaVuSans-69" d="M 603 3500 
L 1178 3500 
L 1178 0 
L 603 0 
L 603 3500 
z
M 603 4863 
L 1178 4863 
L 1178 4134 
L 603 4134 
L 603 4863 
z
" transform="scale(0.015625)"/>
       <path id="DejaVuSans-6f" d="M 1959 3097 
Q 1497 3097 1228 2736 
Q 959 2375 959 1747 
Q 959 1119 1226 758 
Q 1494 397 1959 397 
Q 2419 397 2687 759 
Q 2956 1122 2956 1747 
Q 2956 2369 2687 2733 
Q 2419 3097 1959 3097 
z
M 1959 3584 
Q 2709 3584 3137 3096 
Q 3566 2609 3566 1747 
Q 3566 888 3137 398 
Q 2709 -91 1959 -91 
Q 1206 -91 779 398 
Q 353 888 353 1747 
Q 353 2609 779 3096 
Q 1206 3584 1959 3584 
z
" transform="scale(0.015625)"/>
       <path id="DejaVuSans-6e" d="M 3513 2113 
L 3513 0 
L 2938 0 
L 2938 2094 
Q 2938 2591 2744 2837 
Q 2550 3084 2163 3084 
Q 1697 3084 1428 2787 
Q 1159 2491 1159 1978 
L 1159 0 
L 581 0 
L 581 3500 
L 1159 3500 
L 1159 2956 
Q 1366 3272 1645 3428 
Q 1925 3584 2291 3584 
Q 2894 3584 3203 3211 
Q 3513 2838 3513 2113 
z
" transform="scale(0.015625)"/>
      </defs>
      <use xlink:href="#DejaVuSans-49"/>
      <use xlink:href="#DejaVuSans-74" x="29.492188"/>
      <use xlink:href="#DejaVuSans-65" x="68.701172"/>
      <use xlink:href="#DejaVuSans-72" x="130.224609"/>
      <use xlink:href="#DejaVuSans-61" x="171.337891"/>
      <use xlink:href="#DejaVuSans-74" x="232.617188"/>
      <use xlink:href="#DejaVuSans-69" x="271.826172"/>
      <use xlink:href="#DejaVuSans-6f" x="299.609375"/>
      <use xlink:href="#DejaVuSans-6e" x="360.791016"/>
     </g>
    </g>
   </g>
   <g id="matplotlib.axis_2">
    <g id="ytick_1">
     <g id="line2d_7">
      <defs>
       <path id="m4d6f476d1b" d="M 0 0 
L -3.5 0 
" style="stroke: #000000; stroke-width: 0.8"/>
      </defs>
      <g>
       <use xlink:href="#m4d6f476d1b" x="47.81" y="290.994545" style="stroke: #000000; stroke-width: 0.8"/>
      </g>
     </g>
     <g id="text_8">
      <!-- 0.0 -->
      <g transform="translate(24.906875 294.793764) scale(0.1 -0.1)">
       <defs>
        <path id="DejaVuSans-2e" d="M 684 794 
L 1344 794 
L 1344 0 
L 684 0 
L 684 794 
z
" transform="scale(0.015625)"/>
       </defs>
       <use xlink:href="#DejaVuSans-30"/>
       <use xlink:href="#DejaVuSans-2e" x="63.623047"/>
       <use xlink:href="#DejaVuSans-30" x="95.410156"/>
      </g>
     </g>
    </g>
    <g id="ytick_2">
     <g id="line2d_8">
      <g>
       <use xlink:href="#m4d6f476d1b" x="47.81" y="244.313119" style="stroke: #000000; stroke-width: 0.8"/>
      </g>
     </g>
     <g id="text_9">
      <!-- 0.2 -->
      <g transform="translate(24.906875 248.112338) scale(0.1 -0.1)">
       <use xlink:href="#DejaVuSans-30"/>
       <use xlink:href="#DejaVuSans-2e" x="63.623047"/>
       <use xlink:href="#DejaVuSans-32" x="95.410156"/>
      </g>
     </g>
    </g>
    <g id="ytick_3">
     <g id="line2d_9">
      <g>
       <use xlink:href="#m4d6f476d1b" x="47.81" y="197.631692" style="stroke: #000000; stroke-width: 0.8"/>
      </g>
     </g>
     <g id="text_10">
      <!-- 0.4 -->
      <g transform="translate(24.906875 201.430911) scale(0.1 -0.1)">
       <use xlink:href="#DejaVuSans-30"/>
       <use xlink:href="#DejaVuSans-2e" x="63.623047"/>
       <use xlink:href="#DejaVuSans-34" x="95.410156"/>
      </g>
     </g>
    </g>
    <g id="ytick_4">
     <g id="line2d_10">
      <g>
       <use xlink:href="#m4d6f476d1b" x="47.81" y="150.950265" style="stroke: #000000; stroke-width: 0.8"/>
      </g>
     </g>
     <g id="text_11">
      <!-- 0.6 -->
      <g transform="translate(24.906875 154.749484) scale(0.1 -0.1)">
       <use xlink:href="#DejaVuSans-30"/>
       <use xlink:href="#DejaVuSans-2e" x="63.623047"/>
       <use xlink:href="#DejaVuSans-36" x="95.410156"/>
      </g>
     </g>
    </g>
    <g id="ytick_5">
     <g id="line2d_11">
      <g>
       <use xlink:href="#m4d6f476d1b" x="47.81" y="104.268839" style="stroke: #000000; stroke-width: 0.8"/>
      </g>
     </g>
     <g id="text_12">
      <!-- 0.8 -->
      <g transform="translate(24.906875 108.068057) scale(0.1 -0.1)">
       <use xlink:href="#DejaVuSans-30"/>
       <use xlink:href="#DejaVuSans-2e" x="63.623047"/>
       <use xlink:href="#DejaVuSans-38" x="95.410156"/>
      </g>
     </g>
    </g>
    <g id="ytick_6">
     <g id="line2d_12">
      <g>
       <use xlink:href="#m4d6f476d1b" x="47.81" y="57.587412" style="stroke: #000000; stroke-width: 0.8"/>
      </g>
     </g>
     <g id="text_13">
      <!-- 1.0 -->
      <g transform="translate(24.906875 61.386631) scale(0.1 -0.1)">
       <use xlink:href="#DejaVuSans-31"/>
       <use xlink:href="#DejaVuSans-2e" x="63.623047"/>
       <use xlink:href="#DejaVuSans-30" x="95.410156"/>
      </g>
     </g>
    </g>
    <g id="text_14">
     <!-- Avg action -->
     <g transform="translate(18.827187 190.779844) rotate(-90) scale(0.1 -0.1)">
      <defs>
       <path id="DejaVuSans-41" d="M 2188 4044 
L 1331 1722 
L 3047 1722 
L 2188 4044 
z
M 1831 4666 
L 2547 4666 
L 4325 0 
L 3669 0 
L 3244 1197 
L 1141 1197 
L 716 0 
L 50 0 
L 1831 4666 
z
" transform="scale(0.015625)"/>
       <path id="DejaVuSans-76" d="M 191 3500 
L 800 3500 
L 1894 563 
L 2988 3500 
L 3597 3500 
L 2284 0 
L 1503 0 
L 191 3500 
z
" transform="scale(0.015625)"/>
       <path id="DejaVuSans-67" d="M 2906 1791 
Q 2906 2416 2648 2759 
Q 2391 3103 1925 3103 
Q 1463 3103 1205 2759 
Q 947 2416 947 1791 
Q 947 1169 1205 825 
Q 1463 481 1925 481 
Q 2391 481 2648 825 
Q 2906 1169 2906 1791 
z
M 3481 434 
Q 3481 -459 3084 -895 
Q 2688 -1331 1869 -1331 
Q 1566 -1331 1297 -1286 
Q 1028 -1241 775 -1147 
L 775 -588 
Q 1028 -725 1275 -790 
Q 1522 -856 1778 -856 
Q 2344 -856 2625 -561 
Q 2906 -266 2906 331 
L 2906 616 
Q 2728 306 2450 153 
Q 2172 0 1784 0 
Q 1141 0 747 490 
Q 353 981 353 1791 
Q 353 2603 747 3093 
Q 1141 3584 1784 3584 
Q 2172 3584 2450 3431 
Q 2728 3278 2906 2969 
L 2906 3500 
L 3481 3500 
L 3481 434 
z
" transform="scale(0.015625)"/>
       <path id="DejaVuSans-20" transform="scale(0.015625)"/>
       <path id="DejaVuSans-63" d="M 3122 3366 
L 3122 2828 
Q 2878 2963 2633 3030 
Q 2388 3097 2138 3097 
Q 1578 3097 1268 2742 
Q 959 2388 959 1747 
Q 959 1106 1268 751 
Q 1578 397 2138 397 
Q 2388 397 2633 464 
Q 2878 531 3122 666 
L 3122 134 
Q 2881 22 2623 -34 
Q 2366 -91 2075 -91 
Q 1284 -91 818 406 
Q 353 903 353 1747 
Q 353 2603 823 3093 
Q 1294 3584 2113 3584 
Q 2378 3584 2631 3529 
Q 2884 3475 3122 3366 
z
" transform="scale(0.015625)"/>
      </defs>
      <use xlink:href="#DejaVuSans-41"/>
      <use xlink:href="#DejaVuSans-76" x="62.533203"/>
      <use xlink:href="#DejaVuSans-67" x="121.712891"/>
      <use xlink:href="#DejaVuSans-20" x="185.189453"/>
      <use xlink:href="#DejaVuSans-61" x="216.976562"/>
      <use xlink:href="#DejaVuSans-63" x="278.255859"/>
      <use xlink:href="#DejaVuSans-74" x="333.236328"/>
      <use xlink:href="#DejaVuSans-69" x="372.445312"/>
      <use xlink:href="#DejaVuSans-6f" x="400.228516"/>
      <use xlink:href="#DejaVuSans-6e" x="461.410156"/>
     </g>
    </g>
   </g>
   <g id="line2d_13">
    <path d="M 66.091364 62.255555 
L 69.784568 178.959121 
L 73.477773 253.649404 
L 77.170978 248.981261 
L 80.864183 230.308691 
L 84.557388 244.313119 
L 88.250592 216.304263 
L 91.943797 192.963549 
L 95.637002 197.631692 
L 99.330207 202.299835 
L 103.023411 216.304263 
L 106.716616 206.967977 
L 110.409821 197.631692 
L 114.103026 216.304263 
L 117.79623 239.644976 
L 121.489435 211.63612 
L 125.18264 230.308691 
L 128.875845 211.63612 
L 132.56905 244.313119 
L 136.262254 197.631692 
L 139.955459 211.63612 
L 143.648664 206.967977 
L 147.341869 197.631692 
L 151.035073 192.963549 
L 154.728278 225.640548 
L 158.421483 216.304263 
L 162.114688 216.304263 
L 165.807893 192.963549 
L 169.501097 230.308691 
L 173.194302 192.963549 
L 176.887507 234.976833 
L 180.580712 202.299835 
L 184.273916 216.304263 
L 187.967121 211.63612 
L 191.660326 216.304263 
L 195.353531 197.631692 
L 199.046736 206.967977 
L 202.73994 216.304263 
L 206.433145 220.972405 
L 210.12635 220.972405 
L 213.819555 178.959121 
L 217.512759 216.304263 
L 221.205964 183.627264 
L 224.899169 230.308691 
L 228.592374 183.627264 
L 232.285579 234.976833 
L 235.978783 169.622836 
L 239.671988 202.299835 
L 243.365193 192.963549 
L 247.058398 220.972405 
L 250.751602 169.622836 
L 254.444807 211.63612 
L 258.138012 188.295407 
L 261.831217 211.63612 
L 265.524421 197.631692 
L 269.217626 220.972405 
L 272.910831 178.959121 
L 276.604036 220.972405 
L 280.297241 202.299835 
L 283.990445 239.644976 
L 287.68365 216.304263 
L 291.376855 239.644976 
L 295.07006 220.972405 
L 298.763264 262.985689 
L 302.456469 225.640548 
L 306.149674 248.981261 
L 309.842879 192.963549 
L 313.536084 258.317547 
L 317.229288 192.963549 
L 320.922493 230.308691 
L 324.615698 202.299835 
L 328.308903 216.304263 
L 332.002107 202.299835 
L 335.695312 211.63612 
L 339.388517 220.972405 
L 343.081722 216.304263 
L 346.774927 211.63612 
L 350.468131 216.304263 
L 354.161336 216.304263 
L 357.854541 216.304263 
L 361.547746 188.295407 
L 365.24095 192.963549 
L 368.934155 206.967977 
L 372.62736 225.640548 
L 376.320565 211.63612 
L 380.01377 220.972405 
L 383.706974 216.304263 
L 387.400179 234.976833 
L 391.093384 220.972405 
L 394.786589 211.63612 
L 398.479793 220.972405 
L 402.172998 174.290979 
L 405.866203 225.640548 
L 409.559408 202.299835 
L 413.252612 225.640548 
L 416.945817 225.640548 
L 420.639022 225.640548 
L 424.332227 202.299835 
L 428.025432 220.972405 
L 431.718636 216.304263 
" clip-path="url(#pa4f2812902)" style="fill: none; stroke: #0000ff; stroke-linecap: square"/>
    <defs>
     <path id="m39b59bd229" d="M -0.49999 0.49999 
L 0.50001 0.49999 
L 0.50001 -0.50001 
L -0.49999 -0.50001 
z
"/>
    </defs>
    <g clip-path="url(#pa4f2812902)">
     <use xlink:href="#m39b59bd229" x="66.091364" y="62.255555" style="fill: #0000ff"/>
     <use xlink:href="#m39b59bd229" x="69.784568" y="178.959121" style="fill: #0000ff"/>
     <use xlink:href="#m39b59bd229" x="73.477773" y="253.649404" style="fill: #0000ff"/>
     <use xlink:href="#m39b59bd229" x="77.170978" y="248.981261" style="fill: #0000ff"/>
     <use xlink:href="#m39b59bd229" x="80.864183" y="230.308691" style="fill: #0000ff"/>
     <use xlink:href="#m39b59bd229" x="84.557388" y="244.313119" style="fill: #0000ff"/>
     <use xlink:href="#m39b59bd229" x="88.250592" y="216.304263" style="fill: #0000ff"/>
     <use xlink:href="#m39b59bd229" x="91.943797" y="192.963549" style="fill: #0000ff"/>
     <use xlink:href="#m39b59bd229" x="95.637002" y="197.631692" style="fill: #0000ff"/>
     <use xlink:href="#m39b59bd229" x="99.330207" y="202.299835" style="fill: #0000ff"/>
     <use xlink:href="#m39b59bd229" x="103.023411" y="216.304263" style="fill: #0000ff"/>
     <use xlink:href="#m39b59bd229" x="106.716616" y="206.967977" style="fill: #0000ff"/>
     <use xlink:href="#m39b59bd229" x="110.409821" y="197.631692" style="fill: #0000ff"/>
     <use xlink:href="#m39b59bd229" x="114.103026" y="216.304263" style="fill: #0000ff"/>
     <use xlink:href="#m39b59bd229" x="117.79623" y="239.644976" style="fill: #0000ff"/>
     <use xlink:href="#m39b59bd229" x="121.489435" y="211.63612" style="fill: #0000ff"/>
     <use xlink:href="#m39b59bd229" x="125.18264" y="230.308691" style="fill: #0000ff"/>
     <use xlink:href="#m39b59bd229" x="128.875845" y="211.63612" style="fill: #0000ff"/>
     <use xlink:href="#m39b59bd229" x="132.56905" y="244.313119" style="fill: #0000ff"/>
     <use xlink:href="#m39b59bd229" x="136.262254" y="197.631692" style="fill: #0000ff"/>
     <use xlink:href="#m39b59bd229" x="139.955459" y="211.63612" style="fill: #0000ff"/>
     <use xlink:href="#m39b59bd229" x="143.648664" y="206.967977" style="fill: #0000ff"/>
     <use xlink:href="#m39b59bd229" x="147.341869" y="197.631692" style="fill: #0000ff"/>
     <use xlink:href="#m39b59bd229" x="151.035073" y="192.963549" style="fill: #0000ff"/>
     <use xlink:href="#m39b59bd229" x="154.728278" y="225.640548" style="fill: #0000ff"/>
     <use xlink:href="#m39b59bd229" x="158.421483" y="216.304263" style="fill: #0000ff"/>
     <use xlink:href="#m39b59bd229" x="162.114688" y="216.304263" style="fill: #0000ff"/>
     <use xlink:href="#m39b59bd229" x="165.807893" y="192.963549" style="fill: #0000ff"/>
     <use xlink:href="#m39b59bd229" x="169.501097" y="230.308691" style="fill: #0000ff"/>
     <use xlink:href="#m39b59bd229" x="173.194302" y="192.963549" style="fill: #0000ff"/>
     <use xlink:href="#m39b59bd229" x="176.887507" y="234.976833" style="fill: #0000ff"/>
     <use xlink:href="#m39b59bd229" x="180.580712" y="202.299835" style="fill: #0000ff"/>
     <use xlink:href="#m39b59bd229" x="184.273916" y="216.304263" style="fill: #0000ff"/>
     <use xlink:href="#m39b59bd229" x="187.967121" y="211.63612" style="fill: #0000ff"/>
     <use xlink:href="#m39b59bd229" x="191.660326" y="216.304263" style="fill: #0000ff"/>
     <use xlink:href="#m39b59bd229" x="195.353531" y="197.631692" style="fill: #0000ff"/>
     <use xlink:href="#m39b59bd229" x="199.046736" y="206.967977" style="fill: #0000ff"/>
     <use xlink:href="#m39b59bd229" x="202.73994" y="216.304263" style="fill: #0000ff"/>
     <use xlink:href="#m39b59bd229" x="206.433145" y="220.972405" style="fill: #0000ff"/>
     <use xlink:href="#m39b59bd229" x="210.12635" y="220.972405" style="fill: #0000ff"/>
     <use xlink:href="#m39b59bd229" x="213.819555" y="178.959121" style="fill: #0000ff"/>
     <use xlink:href="#m39b59bd229" x="217.512759" y="216.304263" style="fill: #0000ff"/>
     <use xlink:href="#m39b59bd229" x="221.205964" y="183.627264" style="fill: #0000ff"/>
     <use xlink:href="#m39b59bd229" x="224.899169" y="230.308691" style="fill: #0000ff"/>
     <use xlink:href="#m39b59bd229" x="228.592374" y="183.627264" style="fill: #0000ff"/>
     <use xlink:href="#m39b59bd229" x="232.285579" y="234.976833" style="fill: #0000ff"/>
     <use xlink:href="#m39b59bd229" x="235.978783" y="169.622836" style="fill: #0000ff"/>
     <use xlink:href="#m39b59bd229" x="239.671988" y="202.299835" style="fill: #0000ff"/>
     <use xlink:href="#m39b59bd229" x="243.365193" y="192.963549" style="fill: #0000ff"/>
     <use xlink:href="#m39b59bd229" x="247.058398" y="220.972405" style="fill: #0000ff"/>
     <use xlink:href="#m39b59bd229" x="250.751602" y="169.622836" style="fill: #0000ff"/>
     <use xlink:href="#m39b59bd229" x="254.444807" y="211.63612" style="fill: #0000ff"/>
     <use xlink:href="#m39b59bd229" x="258.138012" y="188.295407" style="fill: #0000ff"/>
     <use xlink:href="#m39b59bd229" x="261.831217" y="211.63612" style="fill: #0000ff"/>
     <use xlink:href="#m39b59bd229" x="265.524421" y="197.631692" style="fill: #0000ff"/>
     <use xlink:href="#m39b59bd229" x="269.217626" y="220.972405" style="fill: #0000ff"/>
     <use xlink:href="#m39b59bd229" x="272.910831" y="178.959121" style="fill: #0000ff"/>
     <use xlink:href="#m39b59bd229" x="276.604036" y="220.972405" style="fill: #0000ff"/>
     <use xlink:href="#m39b59bd229" x="280.297241" y="202.299835" style="fill: #0000ff"/>
     <use xlink:href="#m39b59bd229" x="283.990445" y="239.644976" style="fill: #0000ff"/>
     <use xlink:href="#m39b59bd229" x="287.68365" y="216.304263" style="fill: #0000ff"/>
     <use xlink:href="#m39b59bd229" x="291.376855" y="239.644976" style="fill: #0000ff"/>
     <use xlink:href="#m39b59bd229" x="295.07006" y="220.972405" style="fill: #0000ff"/>
     <use xlink:href="#m39b59bd229" x="298.763264" y="262.985689" style="fill: #0000ff"/>
     <use xlink:href="#m39b59bd229" x="302.456469" y="225.640548" style="fill: #0000ff"/>
     <use xlink:href="#m39b59bd229" x="306.149674" y="248.981261" style="fill: #0000ff"/>
     <use xlink:href="#m39b59bd229" x="309.842879" y="192.963549" style="fill: #0000ff"/>
     <use xlink:href="#m39b59bd229" x="313.536084" y="258.317547" style="fill: #0000ff"/>
     <use xlink:href="#m39b59bd229" x="317.229288" y="192.963549" style="fill: #0000ff"/>
     <use xlink:href="#m39b59bd229" x="320.922493" y="230.308691" style="fill: #0000ff"/>
     <use xlink:href="#m39b59bd229" x="324.615698" y="202.299835" style="fill: #0000ff"/>
     <use xlink:href="#m39b59bd229" x="328.308903" y="216.304263" style="fill: #0000ff"/>
     <use xlink:href="#m39b59bd229" x="332.002107" y="202.299835" style="fill: #0000ff"/>
     <use xlink:href="#m39b59bd229" x="335.695312" y="211.63612" style="fill: #0000ff"/>
     <use xlink:href="#m39b59bd229" x="339.388517" y="220.972405" style="fill: #0000ff"/>
     <use xlink:href="#m39b59bd229" x="343.081722" y="216.304263" style="fill: #0000ff"/>
     <use xlink:href="#m39b59bd229" x="346.774927" y="211.63612" style="fill: #0000ff"/>
     <use xlink:href="#m39b59bd229" x="350.468131" y="216.304263" style="fill: #0000ff"/>
     <use xlink:href="#m39b59bd229" x="354.161336" y="216.304263" style="fill: #0000ff"/>
     <use xlink:href="#m39b59bd229" x="357.854541" y="216.304263" style="fill: #0000ff"/>
     <use xlink:href="#m39b59bd229" x="361.547746" y="188.295407" style="fill: #0000ff"/>
     <use xlink:href="#m39b59bd229" x="365.24095" y="192.963549" style="fill: #0000ff"/>
     <use xlink:href="#m39b59bd229" x="368.934155" y="206.967977" style="fill: #0000ff"/>
     <use xlink:href="#m39b59bd229" x="372.62736" y="225.640548" style="fill: #0000ff"/>
     <use xlink:href="#m39b59bd229" x="376.320565" y="211.63612" style="fill: #0000ff"/>
     <use xlink:href="#m39b59bd229" x="380.01377" y="220.972405" style="fill: #0000ff"/>
     <use xlink:href="#m39b59bd229" x="383.706974" y="216.304263" style="fill: #0000ff"/>
     <use xlink:href="#m39b59bd229" x="387.400179" y="234.976833" style="fill: #0000ff"/>
     <use xlink:href="#m39b59bd229" x="391.093384" y="220.972405" style="fill: #0000ff"/>
     <use xlink:href="#m39b59bd229" x="394.786589" y="211.63612" style="fill: #0000ff"/>
     <use xlink:href="#m39b59bd229" x="398.479793" y="220.972405" style="fill: #0000ff"/>
     <use xlink:href="#m39b59bd229" x="402.172998" y="174.290979" style="fill: #0000ff"/>
     <use xlink:href="#m39b59bd229" x="405.866203" y="225.640548" style="fill: #0000ff"/>
     <use xlink:href="#m39b59bd229" x="409.559408" y="202.299835" style="fill: #0000ff"/>
     <use xlink:href="#m39b59bd229" x="413.252612" y="225.640548" style="fill: #0000ff"/>
     <use xlink:href="#m39b59bd229" x="416.945817" y="225.640548" style="fill: #0000ff"/>
     <use xlink:href="#m39b59bd229" x="420.639022" y="225.640548" style="fill: #0000ff"/>
     <use xlink:href="#m39b59bd229" x="424.332227" y="202.299835" style="fill: #0000ff"/>
     <use xlink:href="#m39b59bd229" x="428.025432" y="220.972405" style="fill: #0000ff"/>
     <use xlink:href="#m39b59bd229" x="431.718636" y="216.304263" style="fill: #0000ff"/>
    </g>
   </g>
   <g id="line2d_14">
    <path d="M 66.091364 62.255555 
L 69.784568 120.607338 
L 73.477773 164.954693 
L 77.170978 185.961335 
L 80.864183 194.830806 
L 84.557388 203.077858 
L 88.250592 204.967345 
L 91.943797 203.46687 
L 95.637002 202.818517 
L 99.330207 202.766649 
L 103.023411 203.997341 
L 106.716616 204.244894 
L 110.409821 203.736186 
L 114.103026 204.633906 
L 117.79623 206.967977 
L 121.489435 207.259736 
L 125.18264 208.615557 
L 128.875845 208.783366 
L 132.56905 210.653353 
L 136.262254 210.00227 
L 139.955459 210.080073 
L 143.648664 209.938614 
L 147.341869 209.40353 
L 151.035073 208.718531 
L 154.728278 209.395412 
L 158.421483 209.661137 
L 162.114688 209.907178 
L 165.807893 209.302049 
L 169.501097 210.026416 
L 173.194302 209.457653 
L 176.887507 210.280853 
L 180.580712 210.031446 
L 184.273916 210.221531 
L 187.967121 210.263137 
L 191.660326 210.435741 
L 195.353531 210.080073 
L 199.046736 209.995962 
L 202.73994 210.16197 
L 206.433145 210.43916 
L 210.12635 210.702492 
L 213.819555 209.928263 
L 217.512759 210.080073 
L 221.205964 209.464891 
L 224.899169 209.938614 
L 228.592374 209.353917 
L 232.285579 209.910937 
L 235.978783 209.053743 
L 239.671988 208.913037 
L 243.365193 208.587537 
L 247.058398 208.835234 
L 250.751602 208.066364 
L 254.444807 208.135013 
L 258.138012 207.760681 
L 261.831217 207.832448 
L 265.524421 207.64698 
L 269.217626 207.884934 
L 272.910831 207.377464 
L 276.604036 207.611859 
L 280.297241 207.521825 
L 283.990445 208.057211 
L 287.68365 208.192408 
L 291.376855 208.699708 
L 295.07006 208.894512 
L 298.763264 209.739687 
L 302.456469 209.984316 
L 306.149674 210.575179 
L 309.842879 210.312318 
L 313.536084 211.018278 
L 317.229288 210.756615 
L 320.922493 211.03593 
L 324.615698 210.912887 
L 328.308903 210.987767 
L 332.002107 210.868754 
L 335.695312 210.879124 
L 339.388517 211.013701 
L 343.081722 211.083314 
L 346.774927 211.090493 
L 350.468131 211.157336 
L 354.161336 211.222487 
L 357.854541 211.286009 
L 361.547746 211.002175 
L 365.24095 210.782192 
L 368.934155 210.736237 
L 372.62736 210.913669 
L 376.320565 210.922169 
L 380.01377 211.039032 
L 383.706974 211.099552 
L 387.400179 211.370885 
L 391.093384 211.478767 
L 394.786589 211.480515 
L 398.479793 211.584822 
L 402.172998 211.179454 
L 405.866203 211.33495 
L 409.559408 211.238831 
L 413.252612 211.390428 
L 416.945817 211.538867 
L 420.639022 211.684245 
L 424.332227 211.588486 
L 428.025432 211.683273 
L 431.718636 211.729483 
" clip-path="url(#pa4f2812902)" style="fill: none; stroke: #0000ff; stroke-opacity: 0.5; stroke-width: 0.5; stroke-linecap: square"/>
    <defs>
     <path id="m0b6342e086" d="M -0.49999 0.49999 
L 0.50001 0.49999 
L 0.50001 -0.50001 
L -0.49999 -0.50001 
z
"/>
    </defs>
    <g clip-path="url(#pa4f2812902)">
     <use xlink:href="#m0b6342e086" x="66.091364" y="62.255555" style="fill: #0000ff; fill-opacity: 0.5"/>
     <use xlink:href="#m0b6342e086" x="69.784568" y="120.607338" style="fill: #0000ff; fill-opacity: 0.5"/>
     <use xlink:href="#m0b6342e086" x="73.477773" y="164.954693" style="fill: #0000ff; fill-opacity: 0.5"/>
     <use xlink:href="#m0b6342e086" x="77.170978" y="185.961335" style="fill: #0000ff; fill-opacity: 0.5"/>
     <use xlink:href="#m0b6342e086" x="80.864183" y="194.830806" style="fill: #0000ff; fill-opacity: 0.5"/>
     <use xlink:href="#m0b6342e086" x="84.557388" y="203.077858" style="fill: #0000ff; fill-opacity: 0.5"/>
     <use xlink:href="#m0b6342e086" x="88.250592" y="204.967345" style="fill: #0000ff; fill-opacity: 0.5"/>
     <use xlink:href="#m0b6342e086" x="91.943797" y="203.46687" style="fill: #0000ff; fill-opacity: 0.5"/>
     <use xlink:href="#m0b6342e086" x="95.637002" y="202.818517" style="fill: #0000ff; fill-opacity: 0.5"/>
     <use xlink:href="#m0b6342e086" x="99.330207" y="202.766649" style="fill: #0000ff; fill-opacity: 0.5"/>
     <use xlink:href="#m0b6342e086" x="103.023411" y="203.997341" style="fill: #0000ff; fill-opacity: 0.5"/>
     <use xlink:href="#m0b6342e086" x="106.716616" y="204.244894" style="fill: #0000ff; fill-opacity: 0.5"/>
     <use xlink:href="#m0b6342e086" x="110.409821" y="203.736186" style="fill: #0000ff; fill-opacity: 0.5"/>
     <use xlink:href="#m0b6342e086" x="114.103026" y="204.633906" style="fill: #0000ff; fill-opacity: 0.5"/>
     <use xlink:href="#m0b6342e086" x="117.79623" y="206.967977" style="fill: #0000ff; fill-opacity: 0.5"/>
     <use xlink:href="#m0b6342e086" x="121.489435" y="207.259736" style="fill: #0000ff; fill-opacity: 0.5"/>
     <use xlink:href="#m0b6342e086" x="125.18264" y="208.615557" style="fill: #0000ff; fill-opacity: 0.5"/>
     <use xlink:href="#m0b6342e086" x="128.875845" y="208.783366" style="fill: #0000ff; fill-opacity: 0.5"/>
     <use xlink:href="#m0b6342e086" x="132.56905" y="210.653353" style="fill: #0000ff; fill-opacity: 0.5"/>
     <use xlink:href="#m0b6342e086" x="136.262254" y="210.00227" style="fill: #0000ff; fill-opacity: 0.5"/>
     <use xlink:href="#m0b6342e086" x="139.955459" y="210.080073" style="fill: #0000ff; fill-opacity: 0.5"/>
     <use xlink:href="#m0b6342e086" x="143.648664" y="209.938614" style="fill: #0000ff; fill-opacity: 0.5"/>
     <use xlink:href="#m0b6342e086" x="147.341869" y="209.40353" style="fill: #0000ff; fill-opacity: 0.5"/>
     <use xlink:href="#m0b6342e086" x="151.035073" y="208.718531" style="fill: #0000ff; fill-opacity: 0.5"/>
     <use xlink:href="#m0b6342e086" x="154.728278" y="209.395412" style="fill: #0000ff; fill-opacity: 0.5"/>
     <use xlink:href="#m0b6342e086" x="158.421483" y="209.661137" style="fill: #0000ff; fill-opacity: 0.5"/>
     <use xlink:href="#m0b6342e086" x="162.114688" y="209.907178" style="fill: #0000ff; fill-opacity: 0.5"/>
     <use xlink:href="#m0b6342e086" x="165.807893" y="209.302049" style="fill: #0000ff; fill-opacity: 0.5"/>
     <use xlink:href="#m0b6342e086" x="169.501097" y="210.026416" style="fill: #0000ff; fill-opacity: 0.5"/>
     <use xlink:href="#m0b6342e086" x="173.194302" y="209.457653" style="fill: #0000ff; fill-opacity: 0.5"/>
     <use xlink:href="#m0b6342e086" x="176.887507" y="210.280853" style="fill: #0000ff; fill-opacity: 0.5"/>
     <use xlink:href="#m0b6342e086" x="180.580712" y="210.031446" style="fill: #0000ff; fill-opacity: 0.5"/>
     <use xlink:href="#m0b6342e086" x="184.273916" y="210.221531" style="fill: #0000ff; fill-opacity: 0.5"/>
     <use xlink:href="#m0b6342e086" x="187.967121" y="210.263137" style="fill: #0000ff; fill-opacity: 0.5"/>
     <use xlink:href="#m0b6342e086" x="191.660326" y="210.435741" style="fill: #0000ff; fill-opacity: 0.5"/>
     <use xlink:href="#m0b6342e086" x="195.353531" y="210.080073" style="fill: #0000ff; fill-opacity: 0.5"/>
     <use xlink:href="#m0b6342e086" x="199.046736" y="209.995962" style="fill: #0000ff; fill-opacity: 0.5"/>
     <use xlink:href="#m0b6342e086" x="202.73994" y="210.16197" style="fill: #0000ff; fill-opacity: 0.5"/>
     <use xlink:href="#m0b6342e086" x="206.433145" y="210.43916" style="fill: #0000ff; fill-opacity: 0.5"/>
     <use xlink:href="#m0b6342e086" x="210.12635" y="210.702492" style="fill: #0000ff; fill-opacity: 0.5"/>
     <use xlink:href="#m0b6342e086" x="213.819555" y="209.928263" style="fill: #0000ff; fill-opacity: 0.5"/>
     <use xlink:href="#m0b6342e086" x="217.512759" y="210.080073" style="fill: #0000ff; fill-opacity: 0.5"/>
     <use xlink:href="#m0b6342e086" x="221.205964" y="209.464891" style="fill: #0000ff; fill-opacity: 0.5"/>
     <use xlink:href="#m0b6342e086" x="224.899169" y="209.938614" style="fill: #0000ff; fill-opacity: 0.5"/>
     <use xlink:href="#m0b6342e086" x="228.592374" y="209.353917" style="fill: #0000ff; fill-opacity: 0.5"/>
     <use xlink:href="#m0b6342e086" x="232.285579" y="209.910937" style="fill: #0000ff; fill-opacity: 0.5"/>
     <use xlink:href="#m0b6342e086" x="235.978783" y="209.053743" style="fill: #0000ff; fill-opacity: 0.5"/>
     <use xlink:href="#m0b6342e086" x="239.671988" y="208.913037" style="fill: #0000ff; fill-opacity: 0.5"/>
     <use xlink:href="#m0b6342e086" x="243.365193" y="208.587537" style="fill: #0000ff; fill-opacity: 0.5"/>
     <use xlink:href="#m0b6342e086" x="247.058398" y="208.835234" style="fill: #0000ff; fill-opacity: 0.5"/>
     <use xlink:href="#m0b6342e086" x="250.751602" y="208.066364" style="fill: #0000ff; fill-opacity: 0.5"/>
     <use xlink:href="#m0b6342e086" x="254.444807" y="208.135013" style="fill: #0000ff; fill-opacity: 0.5"/>
     <use xlink:href="#m0b6342e086" x="258.138012" y="207.760681" style="fill: #0000ff; fill-opacity: 0.5"/>
     <use xlink:href="#m0b6342e086" x="261.831217" y="207.832448" style="fill: #0000ff; fill-opacity: 0.5"/>
     <use xlink:href="#m0b6342e086" x="265.524421" y="207.64698" style="fill: #0000ff; fill-opacity: 0.5"/>
     <use xlink:href="#m0b6342e086" x="269.217626" y="207.884934" style="fill: #0000ff; fill-opacity: 0.5"/>
     <use xlink:href="#m0b6342e086" x="272.910831" y="207.377464" style="fill: #0000ff; fill-opacity: 0.5"/>
     <use xlink:href="#m0b6342e086" x="276.604036" y="207.611859" style="fill: #0000ff; fill-opacity: 0.5"/>
     <use xlink:href="#m0b6342e086" x="280.297241" y="207.521825" style="fill: #0000ff; fill-opacity: 0.5"/>
     <use xlink:href="#m0b6342e086" x="283.990445" y="208.057211" style="fill: #0000ff; fill-opacity: 0.5"/>
     <use xlink:href="#m0b6342e086" x="287.68365" y="208.192408" style="fill: #0000ff; fill-opacity: 0.5"/>
     <use xlink:href="#m0b6342e086" x="291.376855" y="208.699708" style="fill: #0000ff; fill-opacity: 0.5"/>
     <use xlink:href="#m0b6342e086" x="295.07006" y="208.894512" style="fill: #0000ff; fill-opacity: 0.5"/>
     <use xlink:href="#m0b6342e086" x="298.763264" y="209.739687" style="fill: #0000ff; fill-opacity: 0.5"/>
     <use xlink:href="#m0b6342e086" x="302.456469" y="209.984316" style="fill: #0000ff; fill-opacity: 0.5"/>
     <use xlink:href="#m0b6342e086" x="306.149674" y="210.575179" style="fill: #0000ff; fill-opacity: 0.5"/>
     <use xlink:href="#m0b6342e086" x="309.842879" y="210.312318" style="fill: #0000ff; fill-opacity: 0.5"/>
     <use xlink:href="#m0b6342e086" x="313.536084" y="211.018278" style="fill: #0000ff; fill-opacity: 0.5"/>
     <use xlink:href="#m0b6342e086" x="317.229288" y="210.756615" style="fill: #0000ff; fill-opacity: 0.5"/>
     <use xlink:href="#m0b6342e086" x="320.922493" y="211.03593" style="fill: #0000ff; fill-opacity: 0.5"/>
     <use xlink:href="#m0b6342e086" x="324.615698" y="210.912887" style="fill: #0000ff; fill-opacity: 0.5"/>
     <use xlink:href="#m0b6342e086" x="328.308903" y="210.987767" style="fill: #0000ff; fill-opacity: 0.5"/>
     <use xlink:href="#m0b6342e086" x="332.002107" y="210.868754" style="fill: #0000ff; fill-opacity: 0.5"/>
     <use xlink:href="#m0b6342e086" x="335.695312" y="210.879124" style="fill: #0000ff; fill-opacity: 0.5"/>
     <use xlink:href="#m0b6342e086" x="339.388517" y="211.013701" style="fill: #0000ff; fill-opacity: 0.5"/>
     <use xlink:href="#m0b6342e086" x="343.081722" y="211.083314" style="fill: #0000ff; fill-opacity: 0.5"/>
     <use xlink:href="#m0b6342e086" x="346.774927" y="211.090493" style="fill: #0000ff; fill-opacity: 0.5"/>
     <use xlink:href="#m0b6342e086" x="350.468131" y="211.157336" style="fill: #0000ff; fill-opacity: 0.5"/>
     <use xlink:href="#m0b6342e086" x="354.161336" y="211.222487" style="fill: #0000ff; fill-opacity: 0.5"/>
     <use xlink:href="#m0b6342e086" x="357.854541" y="211.286009" style="fill: #0000ff; fill-opacity: 0.5"/>
     <use xlink:href="#m0b6342e086" x="361.547746" y="211.002175" style="fill: #0000ff; fill-opacity: 0.5"/>
     <use xlink:href="#m0b6342e086" x="365.24095" y="210.782192" style="fill: #0000ff; fill-opacity: 0.5"/>
     <use xlink:href="#m0b6342e086" x="368.934155" y="210.736237" style="fill: #0000ff; fill-opacity: 0.5"/>
     <use xlink:href="#m0b6342e086" x="372.62736" y="210.913669" style="fill: #0000ff; fill-opacity: 0.5"/>
     <use xlink:href="#m0b6342e086" x="376.320565" y="210.922169" style="fill: #0000ff; fill-opacity: 0.5"/>
     <use xlink:href="#m0b6342e086" x="380.01377" y="211.039032" style="fill: #0000ff; fill-opacity: 0.5"/>
     <use xlink:href="#m0b6342e086" x="383.706974" y="211.099552" style="fill: #0000ff; fill-opacity: 0.5"/>
     <use xlink:href="#m0b6342e086" x="387.400179" y="211.370885" style="fill: #0000ff; fill-opacity: 0.5"/>
     <use xlink:href="#m0b6342e086" x="391.093384" y="211.478767" style="fill: #0000ff; fill-opacity: 0.5"/>
     <use xlink:href="#m0b6342e086" x="394.786589" y="211.480515" style="fill: #0000ff; fill-opacity: 0.5"/>
     <use xlink:href="#m0b6342e086" x="398.479793" y="211.584822" style="fill: #0000ff; fill-opacity: 0.5"/>
     <use xlink:href="#m0b6342e086" x="402.172998" y="211.179454" style="fill: #0000ff; fill-opacity: 0.5"/>
     <use xlink:href="#m0b6342e086" x="405.866203" y="211.33495" style="fill: #0000ff; fill-opacity: 0.5"/>
     <use xlink:href="#m0b6342e086" x="409.559408" y="211.238831" style="fill: #0000ff; fill-opacity: 0.5"/>
     <use xlink:href="#m0b6342e086" x="413.252612" y="211.390428" style="fill: #0000ff; fill-opacity: 0.5"/>
     <use xlink:href="#m0b6342e086" x="416.945817" y="211.538867" style="fill: #0000ff; fill-opacity: 0.5"/>
     <use xlink:href="#m0b6342e086" x="420.639022" y="211.684245" style="fill: #0000ff; fill-opacity: 0.5"/>
     <use xlink:href="#m0b6342e086" x="424.332227" y="211.588486" style="fill: #0000ff; fill-opacity: 0.5"/>
     <use xlink:href="#m0b6342e086" x="428.025432" y="211.683273" style="fill: #0000ff; fill-opacity: 0.5"/>
     <use xlink:href="#m0b6342e086" x="431.718636" y="211.729483" style="fill: #0000ff; fill-opacity: 0.5"/>
    </g>
   </g>
   <g id="line2d_15">
    <path d="M 47.81 290.994545 
L 450 290.994545 
" clip-path="url(#pa4f2812902)" style="fill: none; stroke-dasharray: 0.555,0.24; stroke-dashoffset: 0; stroke: #ff0000; stroke-width: 0.15"/>
   </g>
   <g id="line2d_16">
    <path d="M 47.81 174.290979 
L 450 174.290979 
" clip-path="url(#pa4f2812902)" style="fill: none; stroke-dasharray: 0.555,0.24; stroke-dashoffset: 0; stroke: #ff0000; stroke-width: 0.15"/>
   </g>
   <g id="line2d_17">
    <path d="M 47.81 57.587412 
L 450 57.587412 
" clip-path="url(#pa4f2812902)" style="fill: none; stroke-dasharray: 0.555,0.24; stroke-dashoffset: 0; stroke: #ff0000; stroke-width: 0.15"/>
   </g>
   <g id="patch_3">
    <path d="M 47.81 303.64 
L 47.81 25.44 
" style="fill: none; stroke: #000000; stroke-width: 0.8; stroke-linejoin: miter; stroke-linecap: square"/>
   </g>
   <g id="patch_4">
    <path d="M 450 303.64 
L 450 25.44 
" style="fill: none; stroke: #000000; stroke-width: 0.8; stroke-linejoin: miter; stroke-linecap: square"/>
   </g>
   <g id="patch_5">
    <path d="M 47.81 303.64 
L 450 303.64 
" style="fill: none; stroke: #000000; stroke-width: 0.8; stroke-linejoin: miter; stroke-linecap: square"/>
   </g>
   <g id="patch_6">
    <path d="M 47.81 25.44 
L 450 25.44 
" style="fill: none; stroke: #000000; stroke-width: 0.8; stroke-linejoin: miter; stroke-linecap: square"/>
   </g>
   <g id="text_15">
    <!-- Average action - 20240417175008 - 50 games -->
    <g transform="translate(108.798438 19.44) scale(0.12 -0.12)">
     <defs>
      <path id="DejaVuSans-2d" d="M 313 2009 
L 1997 2009 
L 1997 1497 
L 313 1497 
L 313 2009 
z
" transform="scale(0.015625)"/>
      <path id="DejaVuSans-37" d="M 525 4666 
L 3525 4666 
L 3525 4397 
L 1831 0 
L 1172 0 
L 2766 4134 
L 525 4134 
L 525 4666 
z
" transform="scale(0.015625)"/>
      <path id="DejaVuSans-35" d="M 691 4666 
L 3169 4666 
L 3169 4134 
L 1269 4134 
L 1269 2991 
Q 1406 3038 1543 3061 
Q 1681 3084 1819 3084 
Q 2600 3084 3056 2656 
Q 3513 2228 3513 1497 
Q 3513 744 3044 326 
Q 2575 -91 1722 -91 
Q 1428 -91 1123 -41 
Q 819 9 494 109 
L 494 744 
Q 775 591 1075 516 
Q 1375 441 1709 441 
Q 2250 441 2565 725 
Q 2881 1009 2881 1497 
Q 2881 1984 2565 2268 
Q 2250 2553 1709 2553 
Q 1456 2553 1204 2497 
Q 953 2441 691 2322 
L 691 4666 
z
" transform="scale(0.015625)"/>
      <path id="DejaVuSans-6d" d="M 3328 2828 
Q 3544 3216 3844 3400 
Q 4144 3584 4550 3584 
Q 5097 3584 5394 3201 
Q 5691 2819 5691 2113 
L 5691 0 
L 5113 0 
L 5113 2094 
Q 5113 2597 4934 2840 
Q 4756 3084 4391 3084 
Q 3944 3084 3684 2787 
Q 3425 2491 3425 1978 
L 3425 0 
L 2847 0 
L 2847 2094 
Q 2847 2600 2669 2842 
Q 2491 3084 2119 3084 
Q 1678 3084 1418 2786 
Q 1159 2488 1159 1978 
L 1159 0 
L 581 0 
L 581 3500 
L 1159 3500 
L 1159 2956 
Q 1356 3278 1631 3431 
Q 1906 3584 2284 3584 
Q 2666 3584 2933 3390 
Q 3200 3197 3328 2828 
z
" transform="scale(0.015625)"/>
      <path id="DejaVuSans-73" d="M 2834 3397 
L 2834 2853 
Q 2591 2978 2328 3040 
Q 2066 3103 1784 3103 
Q 1356 3103 1142 2972 
Q 928 2841 928 2578 
Q 928 2378 1081 2264 
Q 1234 2150 1697 2047 
L 1894 2003 
Q 2506 1872 2764 1633 
Q 3022 1394 3022 966 
Q 3022 478 2636 193 
Q 2250 -91 1575 -91 
Q 1294 -91 989 -36 
Q 684 19 347 128 
L 347 722 
Q 666 556 975 473 
Q 1284 391 1588 391 
Q 1994 391 2212 530 
Q 2431 669 2431 922 
Q 2431 1156 2273 1281 
Q 2116 1406 1581 1522 
L 1381 1569 
Q 847 1681 609 1914 
Q 372 2147 372 2553 
Q 372 3047 722 3315 
Q 1072 3584 1716 3584 
Q 2034 3584 2315 3537 
Q 2597 3491 2834 3397 
z
" transform="scale(0.015625)"/>
     </defs>
     <use xlink:href="#DejaVuSans-41"/>
     <use xlink:href="#DejaVuSans-76" x="62.533203"/>
     <use xlink:href="#DejaVuSans-65" x="121.712891"/>
     <use xlink:href="#DejaVuSans-72" x="183.236328"/>
     <use xlink:href="#DejaVuSans-61" x="224.349609"/>
     <use xlink:href="#DejaVuSans-67" x="285.628906"/>
     <use xlink:href="#DejaVuSans-65" x="349.105469"/>
     <use xlink:href="#DejaVuSans-20" x="410.628906"/>
     <use xlink:href="#DejaVuSans-61" x="442.416016"/>
     <use xlink:href="#DejaVuSans-63" x="503.695312"/>
     <use xlink:href="#DejaVuSans-74" x="558.675781"/>
     <use xlink:href="#DejaVuSans-69" x="597.884766"/>
     <use xlink:href="#DejaVuSans-6f" x="625.667969"/>
     <use xlink:href="#DejaVuSans-6e" x="686.849609"/>
     <use xlink:href="#DejaVuSans-20" x="750.228516"/>
     <use xlink:href="#DejaVuSans-2d" x="782.015625"/>
     <use xlink:href="#DejaVuSans-20" x="818.099609"/>
     <use xlink:href="#DejaVuSans-32" x="849.886719"/>
     <use xlink:href="#DejaVuSans-30" x="913.509766"/>
     <use xlink:href="#DejaVuSans-32" x="977.132812"/>
     <use xlink:href="#DejaVuSans-34" x="1040.755859"/>
     <use xlink:href="#DejaVuSans-30" x="1104.378906"/>
     <use xlink:href="#DejaVuSans-34" x="1168.001953"/>
     <use xlink:href="#DejaVuSans-31" x="1231.625"/>
     <use xlink:href="#DejaVuSans-37" x="1295.248047"/>
     <use xlink:href="#DejaVuSans-31" x="1358.871094"/>
     <use xlink:href="#DejaVuSans-37" x="1422.494141"/>
     <use xlink:href="#DejaVuSans-35" x="1486.117188"/>
     <use xlink:href="#DejaVuSans-30" x="1549.740234"/>
     <use xlink:href="#DejaVuSans-30" x="1613.363281"/>
     <use xlink:href="#DejaVuSans-38" x="1676.986328"/>
     <use xlink:href="#DejaVuSans-20" x="1740.609375"/>
     <use xlink:href="#DejaVuSans-2d" x="1772.396484"/>
     <use xlink:href="#DejaVuSans-20" x="1808.480469"/>
     <use xlink:href="#DejaVuSans-35" x="1840.267578"/>
     <use xlink:href="#DejaVuSans-30" x="1903.890625"/>
     <use xlink:href="#DejaVuSans-20" x="1967.513672"/>
     <use xlink:href="#DejaVuSans-67" x="1999.300781"/>
     <use xlink:href="#DejaVuSans-61" x="2062.777344"/>
     <use xlink:href="#DejaVuSans-6d" x="2124.056641"/>
     <use xlink:href="#DejaVuSans-65" x="2221.46875"/>
     <use xlink:href="#DejaVuSans-73" x="2282.992188"/>
    </g>
   </g>
   <g id="legend_1">
    <g id="patch_7">
     <path d="M 359.690625 298.64 
L 443 298.64 
Q 445 298.64 445 296.64 
L 445 268.28375 
Q 445 266.28375 443 266.28375 
L 359.690625 266.28375 
Q 357.690625 266.28375 357.690625 268.28375 
L 357.690625 296.64 
Q 357.690625 298.64 359.690625 298.64 
z
" style="fill: #ffffff; opacity: 0.8; stroke: #cccccc; stroke-linejoin: miter"/>
    </g>
    <g id="line2d_18">
     <path d="M 361.690625 274.382187 
L 371.690625 274.382187 
L 381.690625 274.382187 
" style="fill: none; stroke: #0000ff; stroke-linecap: square"/>
     <g>
      <use xlink:href="#m39b59bd229" x="371.690625" y="274.382187" style="fill: #0000ff"/>
     </g>
    </g>
    <g id="text_16">
     <!-- LLM -->
     <g transform="translate(389.690625 277.882187) scale(0.1 -0.1)">
      <defs>
       <path id="DejaVuSans-4c" d="M 628 4666 
L 1259 4666 
L 1259 531 
L 3531 531 
L 3531 0 
L 628 0 
L 628 4666 
z
" transform="scale(0.015625)"/>
       <path id="DejaVuSans-4d" d="M 628 4666 
L 1569 4666 
L 2759 1491 
L 3956 4666 
L 4897 4666 
L 4897 0 
L 4281 0 
L 4281 4097 
L 3078 897 
L 2444 897 
L 1241 4097 
L 1241 0 
L 628 0 
L 628 4666 
z
" transform="scale(0.015625)"/>
      </defs>
      <use xlink:href="#DejaVuSans-4c"/>
      <use xlink:href="#DejaVuSans-4c" x="55.712891"/>
      <use xlink:href="#DejaVuSans-4d" x="111.425781"/>
     </g>
    </g>
    <g id="line2d_19">
     <path d="M 361.690625 289.060312 
L 371.690625 289.060312 
L 381.690625 289.060312 
" style="fill: none; stroke: #0000ff; stroke-opacity: 0.5; stroke-width: 0.5; stroke-linecap: square"/>
     <g>
      <use xlink:href="#m0b6342e086" x="371.690625" y="289.060312" style="fill: #0000ff; fill-opacity: 0.5"/>
     </g>
    </g>
    <g id="text_17">
     <!-- LLM mean -->
     <g transform="translate(389.690625 292.560312) scale(0.1 -0.1)">
      <use xlink:href="#DejaVuSans-4c"/>
      <use xlink:href="#DejaVuSans-4c" x="55.712891"/>
      <use xlink:href="#DejaVuSans-4d" x="111.425781"/>
      <use xlink:href="#DejaVuSans-20" x="197.705078"/>
      <use xlink:href="#DejaVuSans-6d" x="229.492188"/>
      <use xlink:href="#DejaVuSans-65" x="326.904297"/>
      <use xlink:href="#DejaVuSans-61" x="388.427734"/>
      <use xlink:href="#DejaVuSans-6e" x="449.707031"/>
     </g>
    </g>
   </g>
  </g>
 </g>
 <defs>
  <clipPath id="pa4f2812902">
   <rect x="47.81" y="25.44" width="402.19" height="278.2"/>
  </clipPath>
 </defs>
</svg>
