<?xml version="1.0" encoding="utf-8" standalone="no"?>
<!DOCTYPE svg PUBLIC "-//W3C//DTD SVG 1.1//EN"
  "http://www.w3.org/Graphics/SVG/1.1/DTD/svg11.dtd">
<svg xmlns:xlink="http://www.w3.org/1999/xlink" width="460.8pt" height="345.6pt" viewBox="0 0 460.8 345.6" xmlns="http://www.w3.org/2000/svg" version="1.1">
 <metadata>
  <rdf:RDF xmlns:dc="http://purl.org/dc/elements/1.1/" xmlns:cc="http://creativecommons.org/ns#" xmlns:rdf="http://www.w3.org/1999/02/22-rdf-syntax-ns#">
   <cc:Work>
    <dc:type rdf:resource="http://purl.org/dc/dcmitype/StillImage"/>
    <dc:date>2024-04-15T10:04:47.936633</dc:date>
    <dc:format>image/svg+xml</dc:format>
    <dc:creator>
     <cc:Agent>
      <dc:title>Matplotlib v3.8.0, https://matplotlib.org/</dc:title>
     </cc:Agent>
    </dc:creator>
   </cc:Work>
  </rdf:RDF>
 </metadata>
 <defs>
  <style type="text/css">*{stroke-linejoin: round; stroke-linecap: butt}</style>
 </defs>
 <g id="figure_1">
  <g id="patch_1">
   <path d="M 0 345.6 
L 460.8 345.6 
L 460.8 0 
L 0 0 
z
" style="fill: #ffffff"/>
  </g>
  <g id="axes_1">
   <g id="patch_2">
    <path d="M 47.81 303.64 
L 450 303.64 
L 450 25.44 
L 47.81 25.44 
z
" style="fill: #ffffff"/>
   </g>
   <g id="PolyCollection_1">
    <defs>
     <path id="m0b136336a6" d="M 66.091364 -196.234545 
L 66.091364 -196.234545 
L 69.822254 -245.08067 
L 73.553145 -259.570611 
L 77.284035 -269.120976 
L 81.014926 -276.565271 
L 84.745816 -281.692668 
L 88.476707 -285.860649 
L 92.207597 -289.267237 
L 95.938488 -292.082978 
L 99.669378 -294.43859 
L 103.400269 -296.431878 
L 107.13116 -298.070155 
L 110.86205 -299.382347 
L 114.592941 -300.496289 
L 118.323831 -301.451491 
L 122.054722 -302.007132 
L 125.785612 -302.229428 
L 129.516503 -302.198444 
L 133.247393 -301.90099 
L 136.978284 -301.487113 
L 140.709174 -300.983139 
L 144.440065 -300.442117 
L 148.170955 -299.826043 
L 151.901846 -299.172292 
L 155.632737 -298.510946 
L 159.363627 -297.840854 
L 163.094518 -297.171487 
L 166.825408 -296.500018 
L 170.556299 -295.839451 
L 174.287189 -295.191215 
L 178.01808 -294.56087 
L 181.74897 -293.947577 
L 185.479861 -293.353342 
L 189.210751 -292.781356 
L 192.941642 -292.224331 
L 196.672532 -291.68478 
L 200.403423 -291.164528 
L 204.134314 -290.664396 
L 207.865204 -290.179512 
L 211.596095 -289.711801 
L 215.326985 -289.26296 
L 219.057876 -288.83092 
L 222.788766 -288.413296 
L 226.519657 -288.010227 
L 230.250547 -287.619366 
L 233.981438 -287.243427 
L 237.712328 -286.880135 
L 241.443219 -286.528063 
L 245.174109 -286.185867 
L 248.905 -285.849333 
L 252.635891 -285.518527 
L 256.366781 -285.194052 
L 260.097672 -284.876871 
L 263.828562 -284.565671 
L 267.559453 -284.259853 
L 271.290343 -283.959346 
L 275.021234 -283.665597 
L 278.752124 -283.379148 
L 282.483015 -283.099359 
L 286.213905 -282.825213 
L 289.944796 -282.555789 
L 293.675686 -282.292333 
L 297.406577 -282.033289 
L 301.137468 -281.779167 
L 304.868358 -281.528631 
L 308.599249 -281.282989 
L 312.330139 -281.042364 
L 316.06103 -280.806333 
L 319.79192 -280.575589 
L 323.522811 -280.349163 
L 327.253701 -280.126647 
L 330.984592 -279.909579 
L 334.715482 -279.697016 
L 338.446373 -279.489133 
L 342.177263 -279.286435 
L 345.908154 -279.087594 
L 349.639045 -278.893109 
L 353.369935 -278.702561 
L 357.100826 -278.515536 
L 360.831716 -278.332233 
L 364.562607 -278.150789 
L 368.293497 -277.971757 
L 372.024388 -277.795352 
L 375.755278 -277.620756 
L 379.486169 -277.44868 
L 383.217059 -277.279531 
L 386.94795 -277.112539 
L 390.67884 -276.94833 
L 394.409731 -276.785741 
L 398.140622 -276.625176 
L 401.871512 -276.467197 
L 405.602403 -276.311742 
L 409.333293 -276.158955 
L 413.064184 -276.008982 
L 416.795074 -275.861358 
L 420.525965 -275.71728 
L 424.256855 -275.575646 
L 427.987746 -275.435558 
L 431.718636 -275.296793 
L 431.718636 -245.891141 
L 431.718636 -245.891141 
L 427.987746 -245.935537 
L 424.256855 -245.978183 
L 420.525965 -246.019842 
L 416.795074 -246.064003 
L 413.064184 -246.115408 
L 409.333293 -246.168805 
L 405.602403 -246.226236 
L 401.871512 -246.286919 
L 398.140622 -246.349989 
L 394.409731 -246.415551 
L 390.67884 -246.480468 
L 386.94795 -246.542463 
L 383.217059 -246.606935 
L 379.486169 -246.670545 
L 375.755278 -246.73672 
L 372.024388 -246.803162 
L 368.293497 -246.866155 
L 364.562607 -246.929201 
L 360.831716 -246.990976 
L 357.100826 -247.04875 
L 353.369935 -247.110213 
L 349.639045 -247.174204 
L 345.908154 -247.242263 
L 342.177263 -247.316102 
L 338.446373 -247.39307 
L 334.715482 -247.479607 
L 330.984592 -247.573179 
L 327.253701 -247.672577 
L 323.522811 -247.783458 
L 319.79192 -247.895754 
L 316.06103 -248.011324 
L 312.330139 -248.136128 
L 308.599249 -248.264783 
L 304.868358 -248.399537 
L 301.137468 -248.538595 
L 297.406577 -248.671071 
L 293.675686 -248.80535 
L 289.944796 -248.936735 
L 286.213905 -249.07442 
L 282.483015 -249.208816 
L 278.752124 -249.344563 
L 275.021234 -249.48688 
L 271.290343 -249.638959 
L 267.559453 -249.795768 
L 263.828562 -249.945589 
L 260.097672 -250.087558 
L 256.366781 -250.223845 
L 252.635891 -250.360113 
L 248.905 -250.489408 
L 245.174109 -250.607382 
L 241.443219 -250.71274 
L 237.712328 -250.822143 
L 233.981438 -250.93961 
L 230.250547 -251.069851 
L 226.519657 -251.22273 
L 222.788766 -251.382868 
L 219.057876 -251.560236 
L 215.326985 -251.751664 
L 211.596095 -251.969216 
L 207.865204 -252.227694 
L 204.134314 -252.514388 
L 200.403423 -252.806507 
L 196.672532 -253.145306 
L 192.941642 -253.522574 
L 189.210751 -253.903239 
L 185.479861 -254.244625 
L 181.74897 -254.608733 
L 178.01808 -254.951332 
L 174.287189 -255.248145 
L 170.556299 -255.50061 
L 166.825408 -255.680078 
L 163.094518 -255.785362 
L 159.363627 -255.783685 
L 155.632737 -255.69232 
L 151.901846 -255.497752 
L 148.170955 -255.206954 
L 144.440065 -254.782736 
L 140.709174 -254.196695 
L 136.978284 -253.494301 
L 133.247393 -252.635465 
L 129.516503 -251.609931 
L 125.785612 -250.358049 
L 122.054722 -248.909295 
L 118.323831 -247.256182 
L 114.592941 -245.401067 
L 110.86205 -243.364975 
L 107.13116 -241.117929 
L 103.400269 -238.620577 
L 99.669378 -235.835044 
L 95.938488 -232.707525 
L 92.207597 -229.16112 
L 88.476707 -225.090329 
L 84.745816 -220.342261 
L 81.014926 -214.67325 
L 77.284035 -207.861902 
L 73.553145 -199.216863 
L 69.822254 -187.853875 
L 66.091364 -196.234545 
z
" style="stroke: #ff0000; stroke-opacity: 0.2"/>
    </defs>
    <g clip-path="url(#p18e31bc8f2)">
     <use xlink:href="#m0b136336a6" x="0" y="345.6" style="fill: #ff0000; fill-opacity: 0.2; stroke: #ff0000; stroke-opacity: 0.2"/>
    </g>
   </g>
   <g id="matplotlib.axis_1">
    <g id="xtick_1">
     <g id="line2d_1">
      <defs>
       <path id="mbf9f3f3396" d="M 0 0 
L 0 3.5 
" style="stroke: #000000; stroke-width: 0.8"/>
      </defs>
      <g>
       <use xlink:href="#mbf9f3f3396" x="66.091364" y="303.64" style="stroke: #000000; stroke-width: 0.8"/>
      </g>
     </g>
     <g id="text_1">
      <!-- 0 -->
      <g transform="translate(62.910114 318.238437) scale(0.1 -0.1)">
       <defs>
        <path id="DejaVuSans-30" d="M 2034 4250 
Q 1547 4250 1301 3770 
Q 1056 3291 1056 2328 
Q 1056 1369 1301 889 
Q 1547 409 2034 409 
Q 2525 409 2770 889 
Q 3016 1369 3016 2328 
Q 3016 3291 2770 3770 
Q 2525 4250 2034 4250 
z
M 2034 4750 
Q 2819 4750 3233 4129 
Q 3647 3509 3647 2328 
Q 3647 1150 3233 529 
Q 2819 -91 2034 -91 
Q 1250 -91 836 529 
Q 422 1150 422 2328 
Q 422 3509 836 4129 
Q 1250 4750 2034 4750 
z
" transform="scale(0.015625)"/>
       </defs>
       <use xlink:href="#DejaVuSans-30"/>
      </g>
     </g>
    </g>
    <g id="xtick_2">
     <g id="line2d_2">
      <g>
       <use xlink:href="#mbf9f3f3396" x="140.709174" y="303.64" style="stroke: #000000; stroke-width: 0.8"/>
      </g>
     </g>
     <g id="text_2">
      <!-- 20 -->
      <g transform="translate(134.346674 318.238437) scale(0.1 -0.1)">
       <defs>
        <path id="DejaVuSans-32" d="M 1228 531 
L 3431 531 
L 3431 0 
L 469 0 
L 469 531 
Q 828 903 1448 1529 
Q 2069 2156 2228 2338 
Q 2531 2678 2651 2914 
Q 2772 3150 2772 3378 
Q 2772 3750 2511 3984 
Q 2250 4219 1831 4219 
Q 1534 4219 1204 4116 
Q 875 4013 500 3803 
L 500 4441 
Q 881 4594 1212 4672 
Q 1544 4750 1819 4750 
Q 2544 4750 2975 4387 
Q 3406 4025 3406 3419 
Q 3406 3131 3298 2873 
Q 3191 2616 2906 2266 
Q 2828 2175 2409 1742 
Q 1991 1309 1228 531 
z
" transform="scale(0.015625)"/>
       </defs>
       <use xlink:href="#DejaVuSans-32"/>
       <use xlink:href="#DejaVuSans-30" x="63.623047"/>
      </g>
     </g>
    </g>
    <g id="xtick_3">
     <g id="line2d_3">
      <g>
       <use xlink:href="#mbf9f3f3396" x="215.326985" y="303.64" style="stroke: #000000; stroke-width: 0.8"/>
      </g>
     </g>
     <g id="text_3">
      <!-- 40 -->
      <g transform="translate(208.964485 318.238437) scale(0.1 -0.1)">
       <defs>
        <path id="DejaVuSans-34" d="M 2419 4116 
L 825 1625 
L 2419 1625 
L 2419 4116 
z
M 2253 4666 
L 3047 4666 
L 3047 1625 
L 3713 1625 
L 3713 1100 
L 3047 1100 
L 3047 0 
L 2419 0 
L 2419 1100 
L 313 1100 
L 313 1709 
L 2253 4666 
z
" transform="scale(0.015625)"/>
       </defs>
       <use xlink:href="#DejaVuSans-34"/>
       <use xlink:href="#DejaVuSans-30" x="63.623047"/>
      </g>
     </g>
    </g>
    <g id="xtick_4">
     <g id="line2d_4">
      <g>
       <use xlink:href="#mbf9f3f3396" x="289.944796" y="303.64" style="stroke: #000000; stroke-width: 0.8"/>
      </g>
     </g>
     <g id="text_4">
      <!-- 60 -->
      <g transform="translate(283.582296 318.238437) scale(0.1 -0.1)">
       <defs>
        <path id="DejaVuSans-36" d="M 2113 2584 
Q 1688 2584 1439 2293 
Q 1191 2003 1191 1497 
Q 1191 994 1439 701 
Q 1688 409 2113 409 
Q 2538 409 2786 701 
Q 3034 994 3034 1497 
Q 3034 2003 2786 2293 
Q 2538 2584 2113 2584 
z
M 3366 4563 
L 3366 3988 
Q 3128 4100 2886 4159 
Q 2644 4219 2406 4219 
Q 1781 4219 1451 3797 
Q 1122 3375 1075 2522 
Q 1259 2794 1537 2939 
Q 1816 3084 2150 3084 
Q 2853 3084 3261 2657 
Q 3669 2231 3669 1497 
Q 3669 778 3244 343 
Q 2819 -91 2113 -91 
Q 1303 -91 875 529 
Q 447 1150 447 2328 
Q 447 3434 972 4092 
Q 1497 4750 2381 4750 
Q 2619 4750 2861 4703 
Q 3103 4656 3366 4563 
z
" transform="scale(0.015625)"/>
       </defs>
       <use xlink:href="#DejaVuSans-36"/>
       <use xlink:href="#DejaVuSans-30" x="63.623047"/>
      </g>
     </g>
    </g>
    <g id="xtick_5">
     <g id="line2d_5">
      <g>
       <use xlink:href="#mbf9f3f3396" x="364.562607" y="303.64" style="stroke: #000000; stroke-width: 0.8"/>
      </g>
     </g>
     <g id="text_5">
      <!-- 80 -->
      <g transform="translate(358.200107 318.238437) scale(0.1 -0.1)">
       <defs>
        <path id="DejaVuSans-38" d="M 2034 2216 
Q 1584 2216 1326 1975 
Q 1069 1734 1069 1313 
Q 1069 891 1326 650 
Q 1584 409 2034 409 
Q 2484 409 2743 651 
Q 3003 894 3003 1313 
Q 3003 1734 2745 1975 
Q 2488 2216 2034 2216 
z
M 1403 2484 
Q 997 2584 770 2862 
Q 544 3141 544 3541 
Q 544 4100 942 4425 
Q 1341 4750 2034 4750 
Q 2731 4750 3128 4425 
Q 3525 4100 3525 3541 
Q 3525 3141 3298 2862 
Q 3072 2584 2669 2484 
Q 3125 2378 3379 2068 
Q 3634 1759 3634 1313 
Q 3634 634 3220 271 
Q 2806 -91 2034 -91 
Q 1263 -91 848 271 
Q 434 634 434 1313 
Q 434 1759 690 2068 
Q 947 2378 1403 2484 
z
M 1172 3481 
Q 1172 3119 1398 2916 
Q 1625 2713 2034 2713 
Q 2441 2713 2670 2916 
Q 2900 3119 2900 3481 
Q 2900 3844 2670 4047 
Q 2441 4250 2034 4250 
Q 1625 4250 1398 4047 
Q 1172 3844 1172 3481 
z
" transform="scale(0.015625)"/>
       </defs>
       <use xlink:href="#DejaVuSans-38"/>
       <use xlink:href="#DejaVuSans-30" x="63.623047"/>
      </g>
     </g>
    </g>
    <g id="xtick_6">
     <g id="line2d_6">
      <g>
       <use xlink:href="#mbf9f3f3396" x="439.180417" y="303.64" style="stroke: #000000; stroke-width: 0.8"/>
      </g>
     </g>
     <g id="text_6">
      <!-- 100 -->
      <g transform="translate(429.636667 318.238437) scale(0.1 -0.1)">
       <defs>
        <path id="DejaVuSans-31" d="M 794 531 
L 1825 531 
L 1825 4091 
L 703 3866 
L 703 4441 
L 1819 4666 
L 2450 4666 
L 2450 531 
L 3481 531 
L 3481 0 
L 794 0 
L 794 531 
z
" transform="scale(0.015625)"/>
       </defs>
       <use xlink:href="#DejaVuSans-31"/>
       <use xlink:href="#DejaVuSans-30" x="63.623047"/>
       <use xlink:href="#DejaVuSans-30" x="127.246094"/>
      </g>
     </g>
    </g>
    <g id="text_7">
     <!-- Iteration -->
     <g transform="translate(227.696406 331.916562) scale(0.1 -0.1)">
      <defs>
       <path id="DejaVuSans-49" d="M 628 4666 
L 1259 4666 
L 1259 0 
L 628 0 
L 628 4666 
z
" transform="scale(0.015625)"/>
       <path id="DejaVuSans-74" d="M 1172 4494 
L 1172 3500 
L 2356 3500 
L 2356 3053 
L 1172 3053 
L 1172 1153 
Q 1172 725 1289 603 
Q 1406 481 1766 481 
L 2356 481 
L 2356 0 
L 1766 0 
Q 1100 0 847 248 
Q 594 497 594 1153 
L 594 3053 
L 172 3053 
L 172 3500 
L 594 3500 
L 594 4494 
L 1172 4494 
z
" transform="scale(0.015625)"/>
       <path id="DejaVuSans-65" d="M 3597 1894 
L 3597 1613 
L 953 1613 
Q 991 1019 1311 708 
Q 1631 397 2203 397 
Q 2534 397 2845 478 
Q 3156 559 3463 722 
L 3463 178 
Q 3153 47 2828 -22 
Q 2503 -91 2169 -91 
Q 1331 -91 842 396 
Q 353 884 353 1716 
Q 353 2575 817 3079 
Q 1281 3584 2069 3584 
Q 2775 3584 3186 3129 
Q 3597 2675 3597 1894 
z
M 3022 2063 
Q 3016 2534 2758 2815 
Q 2500 3097 2075 3097 
Q 1594 3097 1305 2825 
Q 1016 2553 972 2059 
L 3022 2063 
z
" transform="scale(0.015625)"/>
       <path id="DejaVuSans-72" d="M 2631 2963 
Q 2534 3019 2420 3045 
Q 2306 3072 2169 3072 
Q 1681 3072 1420 2755 
Q 1159 2438 1159 1844 
L 1159 0 
L 581 0 
L 581 3500 
L 1159 3500 
L 1159 2956 
Q 1341 3275 1631 3429 
Q 1922 3584 2338 3584 
Q 2397 3584 2469 3576 
Q 2541 3569 2628 3553 
L 2631 2963 
z
" transform="scale(0.015625)"/>
       <path id="DejaVuSans-61" d="M 2194 1759 
Q 1497 1759 1228 1600 
Q 959 1441 959 1056 
Q 959 750 1161 570 
Q 1363 391 1709 391 
Q 2188 391 2477 730 
Q 2766 1069 2766 1631 
L 2766 1759 
L 2194 1759 
z
M 3341 1997 
L 3341 0 
L 2766 0 
L 2766 531 
Q 2569 213 2275 61 
Q 1981 -91 1556 -91 
Q 1019 -91 701 211 
Q 384 513 384 1019 
Q 384 1609 779 1909 
Q 1175 2209 1959 2209 
L 2766 2209 
L 2766 2266 
Q 2766 2663 2505 2880 
Q 2244 3097 1772 3097 
Q 1472 3097 1187 3025 
Q 903 2953 641 2809 
L 641 3341 
Q 956 3463 1253 3523 
Q 1550 3584 1831 3584 
Q 2591 3584 2966 3190 
Q 3341 2797 3341 1997 
z
" transform="scale(0.015625)"/>
       <path id="DejaVuSans-69" d="M 603 3500 
L 1178 3500 
L 1178 0 
L 603 0 
L 603 3500 
z
M 603 4863 
L 1178 4863 
L 1178 4134 
L 603 4134 
L 603 4863 
z
" transform="scale(0.015625)"/>
       <path id="DejaVuSans-6f" d="M 1959 3097 
Q 1497 3097 1228 2736 
Q 959 2375 959 1747 
Q 959 1119 1226 758 
Q 1494 397 1959 397 
Q 2419 397 2687 759 
Q 2956 1122 2956 1747 
Q 2956 2369 2687 2733 
Q 2419 3097 1959 3097 
z
M 1959 3584 
Q 2709 3584 3137 3096 
Q 3566 2609 3566 1747 
Q 3566 888 3137 398 
Q 2709 -91 1959 -91 
Q 1206 -91 779 398 
Q 353 888 353 1747 
Q 353 2609 779 3096 
Q 1206 3584 1959 3584 
z
" transform="scale(0.015625)"/>
       <path id="DejaVuSans-6e" d="M 3513 2113 
L 3513 0 
L 2938 0 
L 2938 2094 
Q 2938 2591 2744 2837 
Q 2550 3084 2163 3084 
Q 1697 3084 1428 2787 
Q 1159 2491 1159 1978 
L 1159 0 
L 581 0 
L 581 3500 
L 1159 3500 
L 1159 2956 
Q 1366 3272 1645 3428 
Q 1925 3584 2291 3584 
Q 2894 3584 3203 3211 
Q 3513 2838 3513 2113 
z
" transform="scale(0.015625)"/>
      </defs>
      <use xlink:href="#DejaVuSans-49"/>
      <use xlink:href="#DejaVuSans-74" x="29.492188"/>
      <use xlink:href="#DejaVuSans-65" x="68.701172"/>
      <use xlink:href="#DejaVuSans-72" x="130.224609"/>
      <use xlink:href="#DejaVuSans-61" x="171.337891"/>
      <use xlink:href="#DejaVuSans-74" x="232.617188"/>
      <use xlink:href="#DejaVuSans-69" x="271.826172"/>
      <use xlink:href="#DejaVuSans-6f" x="299.609375"/>
      <use xlink:href="#DejaVuSans-6e" x="360.791016"/>
     </g>
    </g>
   </g>
   <g id="matplotlib.axis_2">
    <g id="ytick_1">
     <g id="line2d_7">
      <defs>
       <path id="md3ded0604d" d="M 0 0 
L -3.5 0 
" style="stroke: #000000; stroke-width: 0.8"/>
      </defs>
      <g>
       <use xlink:href="#md3ded0604d" x="47.81" y="290.994545" style="stroke: #000000; stroke-width: 0.8"/>
      </g>
     </g>
     <g id="text_8">
      <!-- 0.0 -->
      <g transform="translate(24.906875 294.793764) scale(0.1 -0.1)">
       <defs>
        <path id="DejaVuSans-2e" d="M 684 794 
L 1344 794 
L 1344 0 
L 684 0 
L 684 794 
z
" transform="scale(0.015625)"/>
       </defs>
       <use xlink:href="#DejaVuSans-30"/>
       <use xlink:href="#DejaVuSans-2e" x="63.623047"/>
       <use xlink:href="#DejaVuSans-30" x="95.410156"/>
      </g>
     </g>
    </g>
    <g id="ytick_2">
     <g id="line2d_8">
      <g>
       <use xlink:href="#md3ded0604d" x="47.81" y="240.412727" style="stroke: #000000; stroke-width: 0.8"/>
      </g>
     </g>
     <g id="text_9">
      <!-- 0.2 -->
      <g transform="translate(24.906875 244.211946) scale(0.1 -0.1)">
       <use xlink:href="#DejaVuSans-30"/>
       <use xlink:href="#DejaVuSans-2e" x="63.623047"/>
       <use xlink:href="#DejaVuSans-32" x="95.410156"/>
      </g>
     </g>
    </g>
    <g id="ytick_3">
     <g id="line2d_9">
      <g>
       <use xlink:href="#md3ded0604d" x="47.81" y="189.830909" style="stroke: #000000; stroke-width: 0.8"/>
      </g>
     </g>
     <g id="text_10">
      <!-- 0.4 -->
      <g transform="translate(24.906875 193.630128) scale(0.1 -0.1)">
       <use xlink:href="#DejaVuSans-30"/>
       <use xlink:href="#DejaVuSans-2e" x="63.623047"/>
       <use xlink:href="#DejaVuSans-34" x="95.410156"/>
      </g>
     </g>
    </g>
    <g id="ytick_4">
     <g id="line2d_10">
      <g>
       <use xlink:href="#md3ded0604d" x="47.81" y="139.249091" style="stroke: #000000; stroke-width: 0.8"/>
      </g>
     </g>
     <g id="text_11">
      <!-- 0.6 -->
      <g transform="translate(24.906875 143.04831) scale(0.1 -0.1)">
       <use xlink:href="#DejaVuSans-30"/>
       <use xlink:href="#DejaVuSans-2e" x="63.623047"/>
       <use xlink:href="#DejaVuSans-36" x="95.410156"/>
      </g>
     </g>
    </g>
    <g id="ytick_5">
     <g id="line2d_11">
      <g>
       <use xlink:href="#md3ded0604d" x="47.81" y="88.667273" style="stroke: #000000; stroke-width: 0.8"/>
      </g>
     </g>
     <g id="text_12">
      <!-- 0.8 -->
      <g transform="translate(24.906875 92.466491) scale(0.1 -0.1)">
       <use xlink:href="#DejaVuSans-30"/>
       <use xlink:href="#DejaVuSans-2e" x="63.623047"/>
       <use xlink:href="#DejaVuSans-38" x="95.410156"/>
      </g>
     </g>
    </g>
    <g id="ytick_6">
     <g id="line2d_12">
      <g>
       <use xlink:href="#md3ded0604d" x="47.81" y="38.085455" style="stroke: #000000; stroke-width: 0.8"/>
      </g>
     </g>
     <g id="text_13">
      <!-- 1.0 -->
      <g transform="translate(24.906875 41.884673) scale(0.1 -0.1)">
       <use xlink:href="#DejaVuSans-31"/>
       <use xlink:href="#DejaVuSans-2e" x="63.623047"/>
       <use xlink:href="#DejaVuSans-30" x="95.410156"/>
      </g>
     </g>
    </g>
    <g id="text_14">
     <!-- Similarity -->
     <g transform="translate(18.827187 188.179844) rotate(-90) scale(0.1 -0.1)">
      <defs>
       <path id="DejaVuSans-53" d="M 3425 4513 
L 3425 3897 
Q 3066 4069 2747 4153 
Q 2428 4238 2131 4238 
Q 1616 4238 1336 4038 
Q 1056 3838 1056 3469 
Q 1056 3159 1242 3001 
Q 1428 2844 1947 2747 
L 2328 2669 
Q 3034 2534 3370 2195 
Q 3706 1856 3706 1288 
Q 3706 609 3251 259 
Q 2797 -91 1919 -91 
Q 1588 -91 1214 -16 
Q 841 59 441 206 
L 441 856 
Q 825 641 1194 531 
Q 1563 422 1919 422 
Q 2459 422 2753 634 
Q 3047 847 3047 1241 
Q 3047 1584 2836 1778 
Q 2625 1972 2144 2069 
L 1759 2144 
Q 1053 2284 737 2584 
Q 422 2884 422 3419 
Q 422 4038 858 4394 
Q 1294 4750 2059 4750 
Q 2388 4750 2728 4690 
Q 3069 4631 3425 4513 
z
" transform="scale(0.015625)"/>
       <path id="DejaVuSans-6d" d="M 3328 2828 
Q 3544 3216 3844 3400 
Q 4144 3584 4550 3584 
Q 5097 3584 5394 3201 
Q 5691 2819 5691 2113 
L 5691 0 
L 5113 0 
L 5113 2094 
Q 5113 2597 4934 2840 
Q 4756 3084 4391 3084 
Q 3944 3084 3684 2787 
Q 3425 2491 3425 1978 
L 3425 0 
L 2847 0 
L 2847 2094 
Q 2847 2600 2669 2842 
Q 2491 3084 2119 3084 
Q 1678 3084 1418 2786 
Q 1159 2488 1159 1978 
L 1159 0 
L 581 0 
L 581 3500 
L 1159 3500 
L 1159 2956 
Q 1356 3278 1631 3431 
Q 1906 3584 2284 3584 
Q 2666 3584 2933 3390 
Q 3200 3197 3328 2828 
z
" transform="scale(0.015625)"/>
       <path id="DejaVuSans-6c" d="M 603 4863 
L 1178 4863 
L 1178 0 
L 603 0 
L 603 4863 
z
" transform="scale(0.015625)"/>
       <path id="DejaVuSans-79" d="M 2059 -325 
Q 1816 -950 1584 -1140 
Q 1353 -1331 966 -1331 
L 506 -1331 
L 506 -850 
L 844 -850 
Q 1081 -850 1212 -737 
Q 1344 -625 1503 -206 
L 1606 56 
L 191 3500 
L 800 3500 
L 1894 763 
L 2988 3500 
L 3597 3500 
L 2059 -325 
z
" transform="scale(0.015625)"/>
      </defs>
      <use xlink:href="#DejaVuSans-53"/>
      <use xlink:href="#DejaVuSans-69" x="63.476562"/>
      <use xlink:href="#DejaVuSans-6d" x="91.259766"/>
      <use xlink:href="#DejaVuSans-69" x="188.671875"/>
      <use xlink:href="#DejaVuSans-6c" x="216.455078"/>
      <use xlink:href="#DejaVuSans-61" x="244.238281"/>
      <use xlink:href="#DejaVuSans-72" x="305.517578"/>
      <use xlink:href="#DejaVuSans-69" x="346.630859"/>
      <use xlink:href="#DejaVuSans-74" x="374.414062"/>
      <use xlink:href="#DejaVuSans-79" x="413.623047"/>
     </g>
    </g>
   </g>
   <g id="line2d_13">
    <path d="M 66.091364 149.365455 
L 69.822254 108.9 
L 73.553145 90.353333 
L 77.284035 79.815455 
L 81.014926 71.469455 
L 84.745816 67.591515 
L 88.476707 63.376364 
L 92.207597 60.215 
L 95.938488 57.756162 
L 99.669378 55.789091 
L 103.400269 54.179669 
L 107.13116 53.26 
L 110.86205 52.870909 
L 114.592941 52.176104 
L 118.323831 51.573939 
L 122.054722 53.576136 
L 125.785612 55.937861 
L 129.516503 58.318182 
L 133.247393 61.779043 
L 136.978284 63.882182 
L 140.709174 66.025887 
L 144.440065 67.514876 
L 148.170955 70.193913 
L 151.901846 72.438939 
L 155.632737 74.099709 
L 159.363627 76.021818 
L 163.094518 77.801549 
L 166.825408 79.996104 
L 170.556299 81.69047 
L 174.287189 83.440485 
L 178.01808 84.751261 
L 181.74897 86.138182 
L 185.479861 87.13449 
L 189.210751 87.328342 
L 192.941642 88.667273 
L 196.672532 89.229293 
L 200.403423 89.077396 
L 204.134314 88.667273 
L 207.865204 89.056364 
L 211.596095 88.920182 
L 215.326985 88.420532 
L 219.057876 88.185541 
L 222.788766 88.196744 
L 226.519657 88.092479 
L 230.250547 88.217657 
L 233.981438 87.897549 
L 237.712328 87.806306 
L 241.443219 87.824242 
L 245.174109 87.944675 
L 248.905 88.566109 
L 252.635891 89.163173 
L 256.366781 89.64 
L 260.097672 89.907959 
L 263.828562 90.353333 
L 267.559453 90.874479 
L 271.290343 91.377013 
L 275.021234 91.506954 
L 278.752124 91.457994 
L 282.483015 91.496425 
L 286.213905 91.702182 
L 289.944796 92.067034 
L 293.675686 92.093783 
L 297.406577 92.440837 
L 301.137468 92.618977 
L 304.868358 93.102909 
L 308.599249 93.188981 
L 312.330139 93.196988 
L 316.06103 93.279144 
L 319.79192 93.138999 
L 323.522811 93.219636 
L 327.253701 93.369245 
L 330.984592 93.093182 
L 334.715482 93.032553 
L 338.446373 92.905209 
L 342.177263 92.646376 
L 345.908154 92.660574 
L 349.639045 92.543022 
L 353.369935 92.493333 
L 357.100826 92.50893 
L 360.831716 92.460909 
L 364.562607 92.788754 
L 368.293497 92.985233 
L 372.024388 93.116035 
L 375.755278 93.424372 
L 379.486169 93.54693 
L 383.217059 93.549006 
L 386.94795 93.725455 
L 390.67884 93.725455 
L 394.409731 94.009622 
L 398.140622 94.175071 
L 401.871512 94.17013 
L 405.602403 94.165296 
L 409.333293 94.106178 
L 413.064184 93.994507 
L 416.795074 93.991675 
L 420.525965 93.672765 
L 424.256855 93.621162 
L 427.987746 93.777069 
L 431.718636 93.980918 
" clip-path="url(#p18e31bc8f2)" style="fill: none; stroke: #0000ff; stroke-linecap: square"/>
    <defs>
     <path id="m5743e90aed" d="M -0.49999 0.49999 
L 0.50001 0.49999 
L 0.50001 -0.50001 
L -0.49999 -0.50001 
z
"/>
    </defs>
    <g clip-path="url(#p18e31bc8f2)">
     <use xlink:href="#m5743e90aed" x="66.091364" y="149.365455" style="fill: #0000ff"/>
     <use xlink:href="#m5743e90aed" x="69.822254" y="108.9" style="fill: #0000ff"/>
     <use xlink:href="#m5743e90aed" x="73.553145" y="90.353333" style="fill: #0000ff"/>
     <use xlink:href="#m5743e90aed" x="77.284035" y="79.815455" style="fill: #0000ff"/>
     <use xlink:href="#m5743e90aed" x="81.014926" y="71.469455" style="fill: #0000ff"/>
     <use xlink:href="#m5743e90aed" x="84.745816" y="67.591515" style="fill: #0000ff"/>
     <use xlink:href="#m5743e90aed" x="88.476707" y="63.376364" style="fill: #0000ff"/>
     <use xlink:href="#m5743e90aed" x="92.207597" y="60.215" style="fill: #0000ff"/>
     <use xlink:href="#m5743e90aed" x="95.938488" y="57.756162" style="fill: #0000ff"/>
     <use xlink:href="#m5743e90aed" x="99.669378" y="55.789091" style="fill: #0000ff"/>
     <use xlink:href="#m5743e90aed" x="103.400269" y="54.179669" style="fill: #0000ff"/>
     <use xlink:href="#m5743e90aed" x="107.13116" y="53.26" style="fill: #0000ff"/>
     <use xlink:href="#m5743e90aed" x="110.86205" y="52.870909" style="fill: #0000ff"/>
     <use xlink:href="#m5743e90aed" x="114.592941" y="52.176104" style="fill: #0000ff"/>
     <use xlink:href="#m5743e90aed" x="118.323831" y="51.573939" style="fill: #0000ff"/>
     <use xlink:href="#m5743e90aed" x="122.054722" y="53.576136" style="fill: #0000ff"/>
     <use xlink:href="#m5743e90aed" x="125.785612" y="55.937861" style="fill: #0000ff"/>
     <use xlink:href="#m5743e90aed" x="129.516503" y="58.318182" style="fill: #0000ff"/>
     <use xlink:href="#m5743e90aed" x="133.247393" y="61.779043" style="fill: #0000ff"/>
     <use xlink:href="#m5743e90aed" x="136.978284" y="63.882182" style="fill: #0000ff"/>
     <use xlink:href="#m5743e90aed" x="140.709174" y="66.025887" style="fill: #0000ff"/>
     <use xlink:href="#m5743e90aed" x="144.440065" y="67.514876" style="fill: #0000ff"/>
     <use xlink:href="#m5743e90aed" x="148.170955" y="70.193913" style="fill: #0000ff"/>
     <use xlink:href="#m5743e90aed" x="151.901846" y="72.438939" style="fill: #0000ff"/>
     <use xlink:href="#m5743e90aed" x="155.632737" y="74.099709" style="fill: #0000ff"/>
     <use xlink:href="#m5743e90aed" x="159.363627" y="76.021818" style="fill: #0000ff"/>
     <use xlink:href="#m5743e90aed" x="163.094518" y="77.801549" style="fill: #0000ff"/>
     <use xlink:href="#m5743e90aed" x="166.825408" y="79.996104" style="fill: #0000ff"/>
     <use xlink:href="#m5743e90aed" x="170.556299" y="81.69047" style="fill: #0000ff"/>
     <use xlink:href="#m5743e90aed" x="174.287189" y="83.440485" style="fill: #0000ff"/>
     <use xlink:href="#m5743e90aed" x="178.01808" y="84.751261" style="fill: #0000ff"/>
     <use xlink:href="#m5743e90aed" x="181.74897" y="86.138182" style="fill: #0000ff"/>
     <use xlink:href="#m5743e90aed" x="185.479861" y="87.13449" style="fill: #0000ff"/>
     <use xlink:href="#m5743e90aed" x="189.210751" y="87.328342" style="fill: #0000ff"/>
     <use xlink:href="#m5743e90aed" x="192.941642" y="88.667273" style="fill: #0000ff"/>
     <use xlink:href="#m5743e90aed" x="196.672532" y="89.229293" style="fill: #0000ff"/>
     <use xlink:href="#m5743e90aed" x="200.403423" y="89.077396" style="fill: #0000ff"/>
     <use xlink:href="#m5743e90aed" x="204.134314" y="88.667273" style="fill: #0000ff"/>
     <use xlink:href="#m5743e90aed" x="207.865204" y="89.056364" style="fill: #0000ff"/>
     <use xlink:href="#m5743e90aed" x="211.596095" y="88.920182" style="fill: #0000ff"/>
     <use xlink:href="#m5743e90aed" x="215.326985" y="88.420532" style="fill: #0000ff"/>
     <use xlink:href="#m5743e90aed" x="219.057876" y="88.185541" style="fill: #0000ff"/>
     <use xlink:href="#m5743e90aed" x="222.788766" y="88.196744" style="fill: #0000ff"/>
     <use xlink:href="#m5743e90aed" x="226.519657" y="88.092479" style="fill: #0000ff"/>
     <use xlink:href="#m5743e90aed" x="230.250547" y="88.217657" style="fill: #0000ff"/>
     <use xlink:href="#m5743e90aed" x="233.981438" y="87.897549" style="fill: #0000ff"/>
     <use xlink:href="#m5743e90aed" x="237.712328" y="87.806306" style="fill: #0000ff"/>
     <use xlink:href="#m5743e90aed" x="241.443219" y="87.824242" style="fill: #0000ff"/>
     <use xlink:href="#m5743e90aed" x="245.174109" y="87.944675" style="fill: #0000ff"/>
     <use xlink:href="#m5743e90aed" x="248.905" y="88.566109" style="fill: #0000ff"/>
     <use xlink:href="#m5743e90aed" x="252.635891" y="89.163173" style="fill: #0000ff"/>
     <use xlink:href="#m5743e90aed" x="256.366781" y="89.64" style="fill: #0000ff"/>
     <use xlink:href="#m5743e90aed" x="260.097672" y="89.907959" style="fill: #0000ff"/>
     <use xlink:href="#m5743e90aed" x="263.828562" y="90.353333" style="fill: #0000ff"/>
     <use xlink:href="#m5743e90aed" x="267.559453" y="90.874479" style="fill: #0000ff"/>
     <use xlink:href="#m5743e90aed" x="271.290343" y="91.377013" style="fill: #0000ff"/>
     <use xlink:href="#m5743e90aed" x="275.021234" y="91.506954" style="fill: #0000ff"/>
     <use xlink:href="#m5743e90aed" x="278.752124" y="91.457994" style="fill: #0000ff"/>
     <use xlink:href="#m5743e90aed" x="282.483015" y="91.496425" style="fill: #0000ff"/>
     <use xlink:href="#m5743e90aed" x="286.213905" y="91.702182" style="fill: #0000ff"/>
     <use xlink:href="#m5743e90aed" x="289.944796" y="92.067034" style="fill: #0000ff"/>
     <use xlink:href="#m5743e90aed" x="293.675686" y="92.093783" style="fill: #0000ff"/>
     <use xlink:href="#m5743e90aed" x="297.406577" y="92.440837" style="fill: #0000ff"/>
     <use xlink:href="#m5743e90aed" x="301.137468" y="92.618977" style="fill: #0000ff"/>
     <use xlink:href="#m5743e90aed" x="304.868358" y="93.102909" style="fill: #0000ff"/>
     <use xlink:href="#m5743e90aed" x="308.599249" y="93.188981" style="fill: #0000ff"/>
     <use xlink:href="#m5743e90aed" x="312.330139" y="93.196988" style="fill: #0000ff"/>
     <use xlink:href="#m5743e90aed" x="316.06103" y="93.279144" style="fill: #0000ff"/>
     <use xlink:href="#m5743e90aed" x="319.79192" y="93.138999" style="fill: #0000ff"/>
     <use xlink:href="#m5743e90aed" x="323.522811" y="93.219636" style="fill: #0000ff"/>
     <use xlink:href="#m5743e90aed" x="327.253701" y="93.369245" style="fill: #0000ff"/>
     <use xlink:href="#m5743e90aed" x="330.984592" y="93.093182" style="fill: #0000ff"/>
     <use xlink:href="#m5743e90aed" x="334.715482" y="93.032553" style="fill: #0000ff"/>
     <use xlink:href="#m5743e90aed" x="338.446373" y="92.905209" style="fill: #0000ff"/>
     <use xlink:href="#m5743e90aed" x="342.177263" y="92.646376" style="fill: #0000ff"/>
     <use xlink:href="#m5743e90aed" x="345.908154" y="92.660574" style="fill: #0000ff"/>
     <use xlink:href="#m5743e90aed" x="349.639045" y="92.543022" style="fill: #0000ff"/>
     <use xlink:href="#m5743e90aed" x="353.369935" y="92.493333" style="fill: #0000ff"/>
     <use xlink:href="#m5743e90aed" x="357.100826" y="92.50893" style="fill: #0000ff"/>
     <use xlink:href="#m5743e90aed" x="360.831716" y="92.460909" style="fill: #0000ff"/>
     <use xlink:href="#m5743e90aed" x="364.562607" y="92.788754" style="fill: #0000ff"/>
     <use xlink:href="#m5743e90aed" x="368.293497" y="92.985233" style="fill: #0000ff"/>
     <use xlink:href="#m5743e90aed" x="372.024388" y="93.116035" style="fill: #0000ff"/>
     <use xlink:href="#m5743e90aed" x="375.755278" y="93.424372" style="fill: #0000ff"/>
     <use xlink:href="#m5743e90aed" x="379.486169" y="93.54693" style="fill: #0000ff"/>
     <use xlink:href="#m5743e90aed" x="383.217059" y="93.549006" style="fill: #0000ff"/>
     <use xlink:href="#m5743e90aed" x="386.94795" y="93.725455" style="fill: #0000ff"/>
     <use xlink:href="#m5743e90aed" x="390.67884" y="93.725455" style="fill: #0000ff"/>
     <use xlink:href="#m5743e90aed" x="394.409731" y="94.009622" style="fill: #0000ff"/>
     <use xlink:href="#m5743e90aed" x="398.140622" y="94.175071" style="fill: #0000ff"/>
     <use xlink:href="#m5743e90aed" x="401.871512" y="94.17013" style="fill: #0000ff"/>
     <use xlink:href="#m5743e90aed" x="405.602403" y="94.165296" style="fill: #0000ff"/>
     <use xlink:href="#m5743e90aed" x="409.333293" y="94.106178" style="fill: #0000ff"/>
     <use xlink:href="#m5743e90aed" x="413.064184" y="93.994507" style="fill: #0000ff"/>
     <use xlink:href="#m5743e90aed" x="416.795074" y="93.991675" style="fill: #0000ff"/>
     <use xlink:href="#m5743e90aed" x="420.525965" y="93.672765" style="fill: #0000ff"/>
     <use xlink:href="#m5743e90aed" x="424.256855" y="93.621162" style="fill: #0000ff"/>
     <use xlink:href="#m5743e90aed" x="427.987746" y="93.777069" style="fill: #0000ff"/>
     <use xlink:href="#m5743e90aed" x="431.718636" y="93.980918" style="fill: #0000ff"/>
    </g>
   </g>
   <g id="line2d_14">
    <path d="M 66.091364 149.365455 
L 69.822254 129.132727 
L 73.553145 116.206263 
L 77.284035 107.108561 
L 81.014926 99.980739 
L 84.745816 94.582535 
L 88.476707 90.124511 
L 92.207597 86.385822 
L 95.938488 83.204749 
L 99.669378 80.463183 
L 103.400269 78.073773 
L 107.13116 76.005958 
L 110.86205 74.226339 
L 114.592941 72.651322 
L 118.323831 71.246163 
L 122.054722 70.141787 
L 125.785612 69.306262 
L 129.516503 68.695813 
L 133.247393 68.331772 
L 136.978284 68.109293 
L 140.709174 68.010083 
L 144.440065 67.987574 
L 148.170955 68.083501 
L 151.901846 68.264978 
L 155.632737 68.498367 
L 159.363627 68.787731 
L 163.094518 69.121576 
L 166.825408 69.509952 
L 170.556299 69.92997 
L 174.287189 70.38032 
L 178.01808 70.843899 
L 181.74897 71.321845 
L 185.479861 71.801016 
L 189.210751 72.257702 
L 192.941642 72.726547 
L 196.672532 73.184957 
L 200.403423 73.614482 
L 204.134314 74.010608 
L 207.865204 74.396397 
L 211.596095 74.759491 
L 215.326985 75.092688 
L 219.057876 75.404422 
L 222.788766 75.701918 
L 226.519657 75.983522 
L 230.250547 76.255391 
L 233.981438 76.508482 
L 237.712328 76.748861 
L 241.443219 76.979598 
L 245.174109 77.203375 
L 248.905 77.43063 
L 252.635891 77.66068 
L 256.366781 77.891051 
L 260.097672 78.117785 
L 263.828562 78.34437 
L 267.559453 78.57219 
L 271.290343 78.800847 
L 275.021234 79.023762 
L 278.752124 79.238145 
L 282.483015 79.445912 
L 286.213905 79.650183 
L 289.944796 79.853738 
L 293.675686 80.051158 
L 297.406577 80.24782 
L 301.137468 80.441119 
L 304.868358 80.635916 
L 308.599249 80.826114 
L 312.330139 81.010754 
L 316.06103 81.191171 
L 319.79192 81.364328 
L 323.522811 81.53369 
L 327.253701 81.700388 
L 330.984592 81.858621 
L 334.715482 82.011689 
L 338.446373 82.158898 
L 342.177263 82.298731 
L 345.908154 82.435071 
L 349.639045 82.566344 
L 353.369935 82.693613 
L 357.100826 82.817857 
L 360.831716 82.938395 
L 364.562607 83.060005 
L 368.293497 83.181044 
L 372.024388 83.300743 
L 375.755278 83.421262 
L 379.486169 83.540388 
L 383.217059 83.656767 
L 386.94795 83.772499 
L 390.67884 83.885601 
L 394.409731 83.999354 
L 398.140622 84.112417 
L 401.871512 84.222942 
L 405.602403 84.331011 
L 409.333293 84.43612 
L 413.064184 84.537805 
L 416.795074 84.637319 
L 420.525965 84.731439 
L 424.256855 84.823085 
L 427.987746 84.914452 
L 431.718636 85.006033 
" clip-path="url(#p18e31bc8f2)" style="fill: none; stroke: #ff0000; stroke-opacity: 0.5; stroke-width: 0.5; stroke-linecap: square"/>
    <defs>
     <path id="mf75a52e9c5" d="M -0.49999 0.49999 
L 0.50001 0.49999 
L 0.50001 -0.50001 
L -0.49999 -0.50001 
z
"/>
    </defs>
    <g clip-path="url(#p18e31bc8f2)">
     <use xlink:href="#mf75a52e9c5" x="66.091364" y="149.365455" style="fill: #ff0000; fill-opacity: 0.5"/>
     <use xlink:href="#mf75a52e9c5" x="69.822254" y="129.132727" style="fill: #ff0000; fill-opacity: 0.5"/>
     <use xlink:href="#mf75a52e9c5" x="73.553145" y="116.206263" style="fill: #ff0000; fill-opacity: 0.5"/>
     <use xlink:href="#mf75a52e9c5" x="77.284035" y="107.108561" style="fill: #ff0000; fill-opacity: 0.5"/>
     <use xlink:href="#mf75a52e9c5" x="81.014926" y="99.980739" style="fill: #ff0000; fill-opacity: 0.5"/>
     <use xlink:href="#mf75a52e9c5" x="84.745816" y="94.582535" style="fill: #ff0000; fill-opacity: 0.5"/>
     <use xlink:href="#mf75a52e9c5" x="88.476707" y="90.124511" style="fill: #ff0000; fill-opacity: 0.5"/>
     <use xlink:href="#mf75a52e9c5" x="92.207597" y="86.385822" style="fill: #ff0000; fill-opacity: 0.5"/>
     <use xlink:href="#mf75a52e9c5" x="95.938488" y="83.204749" style="fill: #ff0000; fill-opacity: 0.5"/>
     <use xlink:href="#mf75a52e9c5" x="99.669378" y="80.463183" style="fill: #ff0000; fill-opacity: 0.5"/>
     <use xlink:href="#mf75a52e9c5" x="103.400269" y="78.073773" style="fill: #ff0000; fill-opacity: 0.5"/>
     <use xlink:href="#mf75a52e9c5" x="107.13116" y="76.005958" style="fill: #ff0000; fill-opacity: 0.5"/>
     <use xlink:href="#mf75a52e9c5" x="110.86205" y="74.226339" style="fill: #ff0000; fill-opacity: 0.5"/>
     <use xlink:href="#mf75a52e9c5" x="114.592941" y="72.651322" style="fill: #ff0000; fill-opacity: 0.5"/>
     <use xlink:href="#mf75a52e9c5" x="118.323831" y="71.246163" style="fill: #ff0000; fill-opacity: 0.5"/>
     <use xlink:href="#mf75a52e9c5" x="122.054722" y="70.141787" style="fill: #ff0000; fill-opacity: 0.5"/>
     <use xlink:href="#mf75a52e9c5" x="125.785612" y="69.306262" style="fill: #ff0000; fill-opacity: 0.5"/>
     <use xlink:href="#mf75a52e9c5" x="129.516503" y="68.695813" style="fill: #ff0000; fill-opacity: 0.5"/>
     <use xlink:href="#mf75a52e9c5" x="133.247393" y="68.331772" style="fill: #ff0000; fill-opacity: 0.5"/>
     <use xlink:href="#mf75a52e9c5" x="136.978284" y="68.109293" style="fill: #ff0000; fill-opacity: 0.5"/>
     <use xlink:href="#mf75a52e9c5" x="140.709174" y="68.010083" style="fill: #ff0000; fill-opacity: 0.5"/>
     <use xlink:href="#mf75a52e9c5" x="144.440065" y="67.987574" style="fill: #ff0000; fill-opacity: 0.5"/>
     <use xlink:href="#mf75a52e9c5" x="148.170955" y="68.083501" style="fill: #ff0000; fill-opacity: 0.5"/>
     <use xlink:href="#mf75a52e9c5" x="151.901846" y="68.264978" style="fill: #ff0000; fill-opacity: 0.5"/>
     <use xlink:href="#mf75a52e9c5" x="155.632737" y="68.498367" style="fill: #ff0000; fill-opacity: 0.5"/>
     <use xlink:href="#mf75a52e9c5" x="159.363627" y="68.787731" style="fill: #ff0000; fill-opacity: 0.5"/>
     <use xlink:href="#mf75a52e9c5" x="163.094518" y="69.121576" style="fill: #ff0000; fill-opacity: 0.5"/>
     <use xlink:href="#mf75a52e9c5" x="166.825408" y="69.509952" style="fill: #ff0000; fill-opacity: 0.5"/>
     <use xlink:href="#mf75a52e9c5" x="170.556299" y="69.92997" style="fill: #ff0000; fill-opacity: 0.5"/>
     <use xlink:href="#mf75a52e9c5" x="174.287189" y="70.38032" style="fill: #ff0000; fill-opacity: 0.5"/>
     <use xlink:href="#mf75a52e9c5" x="178.01808" y="70.843899" style="fill: #ff0000; fill-opacity: 0.5"/>
     <use xlink:href="#mf75a52e9c5" x="181.74897" y="71.321845" style="fill: #ff0000; fill-opacity: 0.5"/>
     <use xlink:href="#mf75a52e9c5" x="185.479861" y="71.801016" style="fill: #ff0000; fill-opacity: 0.5"/>
     <use xlink:href="#mf75a52e9c5" x="189.210751" y="72.257702" style="fill: #ff0000; fill-opacity: 0.5"/>
     <use xlink:href="#mf75a52e9c5" x="192.941642" y="72.726547" style="fill: #ff0000; fill-opacity: 0.5"/>
     <use xlink:href="#mf75a52e9c5" x="196.672532" y="73.184957" style="fill: #ff0000; fill-opacity: 0.5"/>
     <use xlink:href="#mf75a52e9c5" x="200.403423" y="73.614482" style="fill: #ff0000; fill-opacity: 0.5"/>
     <use xlink:href="#mf75a52e9c5" x="204.134314" y="74.010608" style="fill: #ff0000; fill-opacity: 0.5"/>
     <use xlink:href="#mf75a52e9c5" x="207.865204" y="74.396397" style="fill: #ff0000; fill-opacity: 0.5"/>
     <use xlink:href="#mf75a52e9c5" x="211.596095" y="74.759491" style="fill: #ff0000; fill-opacity: 0.5"/>
     <use xlink:href="#mf75a52e9c5" x="215.326985" y="75.092688" style="fill: #ff0000; fill-opacity: 0.5"/>
     <use xlink:href="#mf75a52e9c5" x="219.057876" y="75.404422" style="fill: #ff0000; fill-opacity: 0.5"/>
     <use xlink:href="#mf75a52e9c5" x="222.788766" y="75.701918" style="fill: #ff0000; fill-opacity: 0.5"/>
     <use xlink:href="#mf75a52e9c5" x="226.519657" y="75.983522" style="fill: #ff0000; fill-opacity: 0.5"/>
     <use xlink:href="#mf75a52e9c5" x="230.250547" y="76.255391" style="fill: #ff0000; fill-opacity: 0.5"/>
     <use xlink:href="#mf75a52e9c5" x="233.981438" y="76.508482" style="fill: #ff0000; fill-opacity: 0.5"/>
     <use xlink:href="#mf75a52e9c5" x="237.712328" y="76.748861" style="fill: #ff0000; fill-opacity: 0.5"/>
     <use xlink:href="#mf75a52e9c5" x="241.443219" y="76.979598" style="fill: #ff0000; fill-opacity: 0.5"/>
     <use xlink:href="#mf75a52e9c5" x="245.174109" y="77.203375" style="fill: #ff0000; fill-opacity: 0.5"/>
     <use xlink:href="#mf75a52e9c5" x="248.905" y="77.43063" style="fill: #ff0000; fill-opacity: 0.5"/>
     <use xlink:href="#mf75a52e9c5" x="252.635891" y="77.66068" style="fill: #ff0000; fill-opacity: 0.5"/>
     <use xlink:href="#mf75a52e9c5" x="256.366781" y="77.891051" style="fill: #ff0000; fill-opacity: 0.5"/>
     <use xlink:href="#mf75a52e9c5" x="260.097672" y="78.117785" style="fill: #ff0000; fill-opacity: 0.5"/>
     <use xlink:href="#mf75a52e9c5" x="263.828562" y="78.34437" style="fill: #ff0000; fill-opacity: 0.5"/>
     <use xlink:href="#mf75a52e9c5" x="267.559453" y="78.57219" style="fill: #ff0000; fill-opacity: 0.5"/>
     <use xlink:href="#mf75a52e9c5" x="271.290343" y="78.800847" style="fill: #ff0000; fill-opacity: 0.5"/>
     <use xlink:href="#mf75a52e9c5" x="275.021234" y="79.023762" style="fill: #ff0000; fill-opacity: 0.5"/>
     <use xlink:href="#mf75a52e9c5" x="278.752124" y="79.238145" style="fill: #ff0000; fill-opacity: 0.5"/>
     <use xlink:href="#mf75a52e9c5" x="282.483015" y="79.445912" style="fill: #ff0000; fill-opacity: 0.5"/>
     <use xlink:href="#mf75a52e9c5" x="286.213905" y="79.650183" style="fill: #ff0000; fill-opacity: 0.5"/>
     <use xlink:href="#mf75a52e9c5" x="289.944796" y="79.853738" style="fill: #ff0000; fill-opacity: 0.5"/>
     <use xlink:href="#mf75a52e9c5" x="293.675686" y="80.051158" style="fill: #ff0000; fill-opacity: 0.5"/>
     <use xlink:href="#mf75a52e9c5" x="297.406577" y="80.24782" style="fill: #ff0000; fill-opacity: 0.5"/>
     <use xlink:href="#mf75a52e9c5" x="301.137468" y="80.441119" style="fill: #ff0000; fill-opacity: 0.5"/>
     <use xlink:href="#mf75a52e9c5" x="304.868358" y="80.635916" style="fill: #ff0000; fill-opacity: 0.5"/>
     <use xlink:href="#mf75a52e9c5" x="308.599249" y="80.826114" style="fill: #ff0000; fill-opacity: 0.5"/>
     <use xlink:href="#mf75a52e9c5" x="312.330139" y="81.010754" style="fill: #ff0000; fill-opacity: 0.5"/>
     <use xlink:href="#mf75a52e9c5" x="316.06103" y="81.191171" style="fill: #ff0000; fill-opacity: 0.5"/>
     <use xlink:href="#mf75a52e9c5" x="319.79192" y="81.364328" style="fill: #ff0000; fill-opacity: 0.5"/>
     <use xlink:href="#mf75a52e9c5" x="323.522811" y="81.53369" style="fill: #ff0000; fill-opacity: 0.5"/>
     <use xlink:href="#mf75a52e9c5" x="327.253701" y="81.700388" style="fill: #ff0000; fill-opacity: 0.5"/>
     <use xlink:href="#mf75a52e9c5" x="330.984592" y="81.858621" style="fill: #ff0000; fill-opacity: 0.5"/>
     <use xlink:href="#mf75a52e9c5" x="334.715482" y="82.011689" style="fill: #ff0000; fill-opacity: 0.5"/>
     <use xlink:href="#mf75a52e9c5" x="338.446373" y="82.158898" style="fill: #ff0000; fill-opacity: 0.5"/>
     <use xlink:href="#mf75a52e9c5" x="342.177263" y="82.298731" style="fill: #ff0000; fill-opacity: 0.5"/>
     <use xlink:href="#mf75a52e9c5" x="345.908154" y="82.435071" style="fill: #ff0000; fill-opacity: 0.5"/>
     <use xlink:href="#mf75a52e9c5" x="349.639045" y="82.566344" style="fill: #ff0000; fill-opacity: 0.5"/>
     <use xlink:href="#mf75a52e9c5" x="353.369935" y="82.693613" style="fill: #ff0000; fill-opacity: 0.5"/>
     <use xlink:href="#mf75a52e9c5" x="357.100826" y="82.817857" style="fill: #ff0000; fill-opacity: 0.5"/>
     <use xlink:href="#mf75a52e9c5" x="360.831716" y="82.938395" style="fill: #ff0000; fill-opacity: 0.5"/>
     <use xlink:href="#mf75a52e9c5" x="364.562607" y="83.060005" style="fill: #ff0000; fill-opacity: 0.5"/>
     <use xlink:href="#mf75a52e9c5" x="368.293497" y="83.181044" style="fill: #ff0000; fill-opacity: 0.5"/>
     <use xlink:href="#mf75a52e9c5" x="372.024388" y="83.300743" style="fill: #ff0000; fill-opacity: 0.5"/>
     <use xlink:href="#mf75a52e9c5" x="375.755278" y="83.421262" style="fill: #ff0000; fill-opacity: 0.5"/>
     <use xlink:href="#mf75a52e9c5" x="379.486169" y="83.540388" style="fill: #ff0000; fill-opacity: 0.5"/>
     <use xlink:href="#mf75a52e9c5" x="383.217059" y="83.656767" style="fill: #ff0000; fill-opacity: 0.5"/>
     <use xlink:href="#mf75a52e9c5" x="386.94795" y="83.772499" style="fill: #ff0000; fill-opacity: 0.5"/>
     <use xlink:href="#mf75a52e9c5" x="390.67884" y="83.885601" style="fill: #ff0000; fill-opacity: 0.5"/>
     <use xlink:href="#mf75a52e9c5" x="394.409731" y="83.999354" style="fill: #ff0000; fill-opacity: 0.5"/>
     <use xlink:href="#mf75a52e9c5" x="398.140622" y="84.112417" style="fill: #ff0000; fill-opacity: 0.5"/>
     <use xlink:href="#mf75a52e9c5" x="401.871512" y="84.222942" style="fill: #ff0000; fill-opacity: 0.5"/>
     <use xlink:href="#mf75a52e9c5" x="405.602403" y="84.331011" style="fill: #ff0000; fill-opacity: 0.5"/>
     <use xlink:href="#mf75a52e9c5" x="409.333293" y="84.43612" style="fill: #ff0000; fill-opacity: 0.5"/>
     <use xlink:href="#mf75a52e9c5" x="413.064184" y="84.537805" style="fill: #ff0000; fill-opacity: 0.5"/>
     <use xlink:href="#mf75a52e9c5" x="416.795074" y="84.637319" style="fill: #ff0000; fill-opacity: 0.5"/>
     <use xlink:href="#mf75a52e9c5" x="420.525965" y="84.731439" style="fill: #ff0000; fill-opacity: 0.5"/>
     <use xlink:href="#mf75a52e9c5" x="424.256855" y="84.823085" style="fill: #ff0000; fill-opacity: 0.5"/>
     <use xlink:href="#mf75a52e9c5" x="427.987746" y="84.914452" style="fill: #ff0000; fill-opacity: 0.5"/>
     <use xlink:href="#mf75a52e9c5" x="431.718636" y="85.006033" style="fill: #ff0000; fill-opacity: 0.5"/>
    </g>
   </g>
   <g id="line2d_15">
    <path d="M 47.81 290.994545 
L 450 290.994545 
" clip-path="url(#p18e31bc8f2)" style="fill: none; stroke-dasharray: 0.555,0.24; stroke-dashoffset: 0; stroke: #ff0000; stroke-width: 0.15"/>
   </g>
   <g id="line2d_16">
    <path d="M 47.81 164.54 
L 450 164.54 
" clip-path="url(#p18e31bc8f2)" style="fill: none; stroke-dasharray: 0.555,0.24; stroke-dashoffset: 0; stroke: #ff0000; stroke-width: 0.15"/>
   </g>
   <g id="line2d_17">
    <path d="M 47.81 38.085455 
L 450 38.085455 
" clip-path="url(#p18e31bc8f2)" style="fill: none; stroke-dasharray: 0.555,0.24; stroke-dashoffset: 0; stroke: #ff0000; stroke-width: 0.15"/>
   </g>
   <g id="patch_3">
    <path d="M 47.81 303.64 
L 47.81 25.44 
" style="fill: none; stroke: #000000; stroke-width: 0.8; stroke-linejoin: miter; stroke-linecap: square"/>
   </g>
   <g id="patch_4">
    <path d="M 450 303.64 
L 450 25.44 
" style="fill: none; stroke: #000000; stroke-width: 0.8; stroke-linejoin: miter; stroke-linecap: square"/>
   </g>
   <g id="patch_5">
    <path d="M 47.81 303.64 
L 450 303.64 
" style="fill: none; stroke: #000000; stroke-width: 0.8; stroke-linejoin: miter; stroke-linecap: square"/>
   </g>
   <g id="patch_6">
    <path d="M 47.81 25.44 
L 450 25.44 
" style="fill: none; stroke: #000000; stroke-width: 0.8; stroke-linejoin: miter; stroke-linecap: square"/>
   </g>
   <g id="text_15">
    <!-- Similarity LLM-DEF_sw15 - 20240412103555 - 50 games -->
    <g transform="translate(78.98125 19.44) scale(0.12 -0.12)">
     <defs>
      <path id="DejaVuSans-20" transform="scale(0.015625)"/>
      <path id="DejaVuSans-4c" d="M 628 4666 
L 1259 4666 
L 1259 531 
L 3531 531 
L 3531 0 
L 628 0 
L 628 4666 
z
" transform="scale(0.015625)"/>
      <path id="DejaVuSans-4d" d="M 628 4666 
L 1569 4666 
L 2759 1491 
L 3956 4666 
L 4897 4666 
L 4897 0 
L 4281 0 
L 4281 4097 
L 3078 897 
L 2444 897 
L 1241 4097 
L 1241 0 
L 628 0 
L 628 4666 
z
" transform="scale(0.015625)"/>
      <path id="DejaVuSans-2d" d="M 313 2009 
L 1997 2009 
L 1997 1497 
L 313 1497 
L 313 2009 
z
" transform="scale(0.015625)"/>
      <path id="DejaVuSans-44" d="M 1259 4147 
L 1259 519 
L 2022 519 
Q 2988 519 3436 956 
Q 3884 1394 3884 2338 
Q 3884 3275 3436 3711 
Q 2988 4147 2022 4147 
L 1259 4147 
z
M 628 4666 
L 1925 4666 
Q 3281 4666 3915 4102 
Q 4550 3538 4550 2338 
Q 4550 1131 3912 565 
Q 3275 0 1925 0 
L 628 0 
L 628 4666 
z
" transform="scale(0.015625)"/>
      <path id="DejaVuSans-45" d="M 628 4666 
L 3578 4666 
L 3578 4134 
L 1259 4134 
L 1259 2753 
L 3481 2753 
L 3481 2222 
L 1259 2222 
L 1259 531 
L 3634 531 
L 3634 0 
L 628 0 
L 628 4666 
z
" transform="scale(0.015625)"/>
      <path id="DejaVuSans-46" d="M 628 4666 
L 3309 4666 
L 3309 4134 
L 1259 4134 
L 1259 2759 
L 3109 2759 
L 3109 2228 
L 1259 2228 
L 1259 0 
L 628 0 
L 628 4666 
z
" transform="scale(0.015625)"/>
      <path id="DejaVuSans-5f" d="M 3263 -1063 
L 3263 -1509 
L -63 -1509 
L -63 -1063 
L 3263 -1063 
z
" transform="scale(0.015625)"/>
      <path id="DejaVuSans-73" d="M 2834 3397 
L 2834 2853 
Q 2591 2978 2328 3040 
Q 2066 3103 1784 3103 
Q 1356 3103 1142 2972 
Q 928 2841 928 2578 
Q 928 2378 1081 2264 
Q 1234 2150 1697 2047 
L 1894 2003 
Q 2506 1872 2764 1633 
Q 3022 1394 3022 966 
Q 3022 478 2636 193 
Q 2250 -91 1575 -91 
Q 1294 -91 989 -36 
Q 684 19 347 128 
L 347 722 
Q 666 556 975 473 
Q 1284 391 1588 391 
Q 1994 391 2212 530 
Q 2431 669 2431 922 
Q 2431 1156 2273 1281 
Q 2116 1406 1581 1522 
L 1381 1569 
Q 847 1681 609 1914 
Q 372 2147 372 2553 
Q 372 3047 722 3315 
Q 1072 3584 1716 3584 
Q 2034 3584 2315 3537 
Q 2597 3491 2834 3397 
z
" transform="scale(0.015625)"/>
      <path id="DejaVuSans-77" d="M 269 3500 
L 844 3500 
L 1563 769 
L 2278 3500 
L 2956 3500 
L 3675 769 
L 4391 3500 
L 4966 3500 
L 4050 0 
L 3372 0 
L 2619 2869 
L 1863 0 
L 1184 0 
L 269 3500 
z
" transform="scale(0.015625)"/>
      <path id="DejaVuSans-35" d="M 691 4666 
L 3169 4666 
L 3169 4134 
L 1269 4134 
L 1269 2991 
Q 1406 3038 1543 3061 
Q 1681 3084 1819 3084 
Q 2600 3084 3056 2656 
Q 3513 2228 3513 1497 
Q 3513 744 3044 326 
Q 2575 -91 1722 -91 
Q 1428 -91 1123 -41 
Q 819 9 494 109 
L 494 744 
Q 775 591 1075 516 
Q 1375 441 1709 441 
Q 2250 441 2565 725 
Q 2881 1009 2881 1497 
Q 2881 1984 2565 2268 
Q 2250 2553 1709 2553 
Q 1456 2553 1204 2497 
Q 953 2441 691 2322 
L 691 4666 
z
" transform="scale(0.015625)"/>
      <path id="DejaVuSans-33" d="M 2597 2516 
Q 3050 2419 3304 2112 
Q 3559 1806 3559 1356 
Q 3559 666 3084 287 
Q 2609 -91 1734 -91 
Q 1441 -91 1130 -33 
Q 819 25 488 141 
L 488 750 
Q 750 597 1062 519 
Q 1375 441 1716 441 
Q 2309 441 2620 675 
Q 2931 909 2931 1356 
Q 2931 1769 2642 2001 
Q 2353 2234 1838 2234 
L 1294 2234 
L 1294 2753 
L 1863 2753 
Q 2328 2753 2575 2939 
Q 2822 3125 2822 3475 
Q 2822 3834 2567 4026 
Q 2313 4219 1838 4219 
Q 1578 4219 1281 4162 
Q 984 4106 628 3988 
L 628 4550 
Q 988 4650 1302 4700 
Q 1616 4750 1894 4750 
Q 2613 4750 3031 4423 
Q 3450 4097 3450 3541 
Q 3450 3153 3228 2886 
Q 3006 2619 2597 2516 
z
" transform="scale(0.015625)"/>
      <path id="DejaVuSans-67" d="M 2906 1791 
Q 2906 2416 2648 2759 
Q 2391 3103 1925 3103 
Q 1463 3103 1205 2759 
Q 947 2416 947 1791 
Q 947 1169 1205 825 
Q 1463 481 1925 481 
Q 2391 481 2648 825 
Q 2906 1169 2906 1791 
z
M 3481 434 
Q 3481 -459 3084 -895 
Q 2688 -1331 1869 -1331 
Q 1566 -1331 1297 -1286 
Q 1028 -1241 775 -1147 
L 775 -588 
Q 1028 -725 1275 -790 
Q 1522 -856 1778 -856 
Q 2344 -856 2625 -561 
Q 2906 -266 2906 331 
L 2906 616 
Q 2728 306 2450 153 
Q 2172 0 1784 0 
Q 1141 0 747 490 
Q 353 981 353 1791 
Q 353 2603 747 3093 
Q 1141 3584 1784 3584 
Q 2172 3584 2450 3431 
Q 2728 3278 2906 2969 
L 2906 3500 
L 3481 3500 
L 3481 434 
z
" transform="scale(0.015625)"/>
     </defs>
     <use xlink:href="#DejaVuSans-53"/>
     <use xlink:href="#DejaVuSans-69" x="63.476562"/>
     <use xlink:href="#DejaVuSans-6d" x="91.259766"/>
     <use xlink:href="#DejaVuSans-69" x="188.671875"/>
     <use xlink:href="#DejaVuSans-6c" x="216.455078"/>
     <use xlink:href="#DejaVuSans-61" x="244.238281"/>
     <use xlink:href="#DejaVuSans-72" x="305.517578"/>
     <use xlink:href="#DejaVuSans-69" x="346.630859"/>
     <use xlink:href="#DejaVuSans-74" x="374.414062"/>
     <use xlink:href="#DejaVuSans-79" x="413.623047"/>
     <use xlink:href="#DejaVuSans-20" x="472.802734"/>
     <use xlink:href="#DejaVuSans-4c" x="504.589844"/>
     <use xlink:href="#DejaVuSans-4c" x="560.302734"/>
     <use xlink:href="#DejaVuSans-4d" x="616.015625"/>
     <use xlink:href="#DejaVuSans-2d" x="702.294922"/>
     <use xlink:href="#DejaVuSans-44" x="738.378906"/>
     <use xlink:href="#DejaVuSans-45" x="815.380859"/>
     <use xlink:href="#DejaVuSans-46" x="878.564453"/>
     <use xlink:href="#DejaVuSans-5f" x="936.083984"/>
     <use xlink:href="#DejaVuSans-73" x="986.083984"/>
     <use xlink:href="#DejaVuSans-77" x="1038.183594"/>
     <use xlink:href="#DejaVuSans-31" x="1119.970703"/>
     <use xlink:href="#DejaVuSans-35" x="1183.59375"/>
     <use xlink:href="#DejaVuSans-20" x="1247.216797"/>
     <use xlink:href="#DejaVuSans-2d" x="1279.003906"/>
     <use xlink:href="#DejaVuSans-20" x="1315.087891"/>
     <use xlink:href="#DejaVuSans-32" x="1346.875"/>
     <use xlink:href="#DejaVuSans-30" x="1410.498047"/>
     <use xlink:href="#DejaVuSans-32" x="1474.121094"/>
     <use xlink:href="#DejaVuSans-34" x="1537.744141"/>
     <use xlink:href="#DejaVuSans-30" x="1601.367188"/>
     <use xlink:href="#DejaVuSans-34" x="1664.990234"/>
     <use xlink:href="#DejaVuSans-31" x="1728.613281"/>
     <use xlink:href="#DejaVuSans-32" x="1792.236328"/>
     <use xlink:href="#DejaVuSans-31" x="1855.859375"/>
     <use xlink:href="#DejaVuSans-30" x="1919.482422"/>
     <use xlink:href="#DejaVuSans-33" x="1983.105469"/>
     <use xlink:href="#DejaVuSans-35" x="2046.728516"/>
     <use xlink:href="#DejaVuSans-35" x="2110.351562"/>
     <use xlink:href="#DejaVuSans-35" x="2173.974609"/>
     <use xlink:href="#DejaVuSans-20" x="2237.597656"/>
     <use xlink:href="#DejaVuSans-2d" x="2269.384766"/>
     <use xlink:href="#DejaVuSans-20" x="2305.46875"/>
     <use xlink:href="#DejaVuSans-35" x="2337.255859"/>
     <use xlink:href="#DejaVuSans-30" x="2400.878906"/>
     <use xlink:href="#DejaVuSans-20" x="2464.501953"/>
     <use xlink:href="#DejaVuSans-67" x="2496.289062"/>
     <use xlink:href="#DejaVuSans-61" x="2559.765625"/>
     <use xlink:href="#DejaVuSans-6d" x="2621.044922"/>
     <use xlink:href="#DejaVuSans-65" x="2718.457031"/>
     <use xlink:href="#DejaVuSans-73" x="2779.980469"/>
    </g>
   </g>
   <g id="legend_1">
    <g id="patch_7">
     <path d="M 305.2 63.3525 
L 443 63.3525 
Q 445 63.3525 445 61.3525 
L 445 32.44 
Q 445 30.44 443 30.44 
L 305.2 30.44 
Q 303.2 30.44 303.2 32.44 
L 303.2 61.3525 
Q 303.2 63.3525 305.2 63.3525 
z
" style="fill: #ffffff; opacity: 0.8; stroke: #cccccc; stroke-linejoin: miter"/>
    </g>
    <g id="line2d_18">
     <path d="M 307.2 38.538437 
L 317.2 38.538437 
L 327.2 38.538437 
" style="fill: none; stroke: #0000ff; stroke-linecap: square"/>
     <g>
      <use xlink:href="#m5743e90aed" x="317.2" y="38.538437" style="fill: #0000ff"/>
     </g>
    </g>
    <g id="text_16">
     <!-- LLM-DEF_sw15 -->
     <g transform="translate(335.2 42.038437) scale(0.1 -0.1)">
      <use xlink:href="#DejaVuSans-4c"/>
      <use xlink:href="#DejaVuSans-4c" x="55.712891"/>
      <use xlink:href="#DejaVuSans-4d" x="111.425781"/>
      <use xlink:href="#DejaVuSans-2d" x="197.705078"/>
      <use xlink:href="#DejaVuSans-44" x="233.789062"/>
      <use xlink:href="#DejaVuSans-45" x="310.791016"/>
      <use xlink:href="#DejaVuSans-46" x="373.974609"/>
      <use xlink:href="#DejaVuSans-5f" x="431.494141"/>
      <use xlink:href="#DejaVuSans-73" x="481.494141"/>
      <use xlink:href="#DejaVuSans-77" x="533.59375"/>
      <use xlink:href="#DejaVuSans-31" x="615.380859"/>
      <use xlink:href="#DejaVuSans-35" x="679.003906"/>
     </g>
    </g>
    <g id="line2d_19">
     <path d="M 307.2 53.494687 
L 317.2 53.494687 
L 327.2 53.494687 
" style="fill: none; stroke: #ff0000; stroke-opacity: 0.5; stroke-width: 0.5; stroke-linecap: square"/>
     <g>
      <use xlink:href="#mf75a52e9c5" x="317.2" y="53.494687" style="fill: #ff0000; fill-opacity: 0.5"/>
     </g>
    </g>
    <g id="text_17">
     <!-- LLM-DEF_sw15 mean -->
     <g transform="translate(335.2 56.994687) scale(0.1 -0.1)">
      <use xlink:href="#DejaVuSans-4c"/>
      <use xlink:href="#DejaVuSans-4c" x="55.712891"/>
      <use xlink:href="#DejaVuSans-4d" x="111.425781"/>
      <use xlink:href="#DejaVuSans-2d" x="197.705078"/>
      <use xlink:href="#DejaVuSans-44" x="233.789062"/>
      <use xlink:href="#DejaVuSans-45" x="310.791016"/>
      <use xlink:href="#DejaVuSans-46" x="373.974609"/>
      <use xlink:href="#DejaVuSans-5f" x="431.494141"/>
      <use xlink:href="#DejaVuSans-73" x="481.494141"/>
      <use xlink:href="#DejaVuSans-77" x="533.59375"/>
      <use xlink:href="#DejaVuSans-31" x="615.380859"/>
      <use xlink:href="#DejaVuSans-35" x="679.003906"/>
      <use xlink:href="#DejaVuSans-20" x="742.626953"/>
      <use xlink:href="#DejaVuSans-6d" x="774.414062"/>
      <use xlink:href="#DejaVuSans-65" x="871.826172"/>
      <use xlink:href="#DejaVuSans-61" x="933.349609"/>
      <use xlink:href="#DejaVuSans-6e" x="994.628906"/>
     </g>
    </g>
   </g>
  </g>
 </g>
 <defs>
  <clipPath id="p18e31bc8f2">
   <rect x="47.81" y="25.44" width="402.19" height="278.2"/>
  </clipPath>
 </defs>
</svg>
