<?xml version="1.0" encoding="utf-8" standalone="no"?>
<!DOCTYPE svg PUBLIC "-//W3C//DTD SVG 1.1//EN"
  "http://www.w3.org/Graphics/SVG/1.1/DTD/svg11.dtd">
<svg xmlns:xlink="http://www.w3.org/1999/xlink" width="460.8pt" height="345.6pt" viewBox="0 0 460.8 345.6" xmlns="http://www.w3.org/2000/svg" version="1.1">
 <metadata>
  <rdf:RDF xmlns:dc="http://purl.org/dc/elements/1.1/" xmlns:cc="http://creativecommons.org/ns#" xmlns:rdf="http://www.w3.org/1999/02/22-rdf-syntax-ns#">
   <cc:Work>
    <dc:type rdf:resource="http://purl.org/dc/dcmitype/StillImage"/>
    <dc:date>2024-04-10T14:37:42.589905</dc:date>
    <dc:format>image/svg+xml</dc:format>
    <dc:creator>
     <cc:Agent>
      <dc:title>Matplotlib v3.8.0, https://matplotlib.org/</dc:title>
     </cc:Agent>
    </dc:creator>
   </cc:Work>
  </rdf:RDF>
 </metadata>
 <defs>
  <style type="text/css">*{stroke-linejoin: round; stroke-linecap: butt}</style>
 </defs>
 <g id="figure_1">
  <g id="patch_1">
   <path d="M 0 345.6 
L 460.8 345.6 
L 460.8 0 
L 0 0 
z
" style="fill: #ffffff"/>
  </g>
  <g id="axes_1">
   <g id="patch_2">
    <path d="M 47.81 303.64 
L 450 303.64 
L 450 25.44 
L 47.81 25.44 
z
" style="fill: #ffffff"/>
   </g>
   <g id="PolyCollection_1">
    <defs>
     <path id="m2b5b2e3619" d="M 66.091364 -233.303388 
L 66.091364 -233.303388 
L 69.784568 -293.222134 
L 73.477773 -289.352504 
L 77.170978 -289.511205 
L 80.864183 -285.795515 
L 84.557388 -284.062003 
L 88.250592 -283.661095 
L 91.943797 -284.241053 
L 95.637002 -284.596313 
L 99.330207 -285.679053 
L 103.023411 -287.36375 
L 106.716616 -287.212522 
L 110.409821 -288.36712 
L 114.103026 -290.033223 
L 117.79623 -290.69349 
L 121.489435 -290.315796 
L 125.18264 -289.534615 
L 128.875845 -289.620836 
L 132.56905 -290.662999 
L 136.262254 -292.124324 
L 139.955459 -292.841493 
L 143.648664 -294.51359 
L 147.341869 -295.434356 
L 151.035073 -295.209015 
L 154.728278 -295.989669 
L 158.421483 -297.115922 
L 162.114688 -298.111026 
L 165.807893 -298.99608 
L 169.501097 -299.787707 
L 173.194302 -300.499243 
L 176.887507 -300.823138 
L 180.580712 -301.421382 
L 184.273916 -301.67495 
L 187.967121 -301.905225 
L 191.660326 -302.114763 
L 195.353531 -302.305776 
L 199.046736 -302.731036 
L 202.73994 -302.882279 
L 206.433145 -303.253572 
L 210.12635 -303.597129 
L 213.819555 -303.915623 
L 217.512759 -304.211403 
L 221.205964 -304.486537 
L 224.899169 -304.742857 
L 228.592374 -304.981992 
L 232.285579 -305.205392 
L 235.978783 -305.414353 
L 239.671988 -305.61004 
L 243.365193 -305.793497 
L 247.058398 -305.804394 
L 250.751602 -305.970611 
L 254.444807 -306.126941 
L 258.138012 -306.008244 
L 261.831217 -306.154182 
L 265.524421 -306.291852 
L 269.217626 -306.42182 
L 272.910831 -306.544607 
L 276.604036 -306.660689 
L 280.297241 -306.770502 
L 283.990445 -306.87445 
L 287.68365 -306.972901 
L 291.376855 -307.066198 
L 295.07006 -307.154656 
L 298.763264 -307.035156 
L 302.456469 -307.119345 
L 306.149674 -307.087083 
L 309.842879 -307.165395 
L 313.536084 -307.239886 
L 317.229288 -307.310771 
L 320.922493 -307.378248 
L 324.615698 -307.340431 
L 328.308903 -307.228947 
L 332.002107 -307.19305 
L 335.695312 -307.157459 
L 339.388517 -307.218983 
L 343.081722 -307.182695 
L 346.774927 -307.240554 
L 350.468131 -307.203721 
L 354.161336 -307.258234 
L 357.854541 -307.310413 
L 361.547746 -307.360369 
L 365.24095 -307.321729 
L 368.934155 -307.368956 
L 372.62736 -307.414218 
L 376.320565 -307.374893 
L 380.01377 -307.417784 
L 383.706974 -307.458928 
L 387.400179 -307.36343 
L 391.093384 -307.403524 
L 394.786589 -307.44203 
L 398.479793 -307.479016 
L 402.172998 -307.514545 
L 405.866203 -307.423195 
L 409.559408 -307.384405 
L 413.252612 -307.418868 
L 416.945817 -307.452027 
L 420.639022 -307.483935 
L 424.332227 -307.397034 
L 428.025432 -307.359016 
L 431.718636 -307.390094 
L 431.718636 -284.702341 
L 431.718636 -284.702341 
L 428.025432 -284.597039 
L 424.332227 -284.521161 
L 420.639022 -284.497965 
L 416.945817 -284.388079 
L 413.252612 -284.27646 
L 409.559408 -284.163065 
L 405.866203 -284.079985 
L 402.172998 -284.051292 
L 398.479793 -283.932665 
L 394.786589 -283.812069 
L 391.093384 -283.689452 
L 387.400179 -283.564761 
L 383.706974 -283.528912 
L 380.01377 -283.400216 
L 376.320565 -283.269271 
L 372.62736 -283.170158 
L 368.934155 -283.03458 
L 365.24095 -282.896557 
L 361.547746 -282.790656 
L 357.854541 -282.647574 
L 354.161336 -282.501828 
L 350.468131 -282.353342 
L 346.774927 -282.237167 
L 343.081722 -282.082969 
L 339.388517 -281.961337 
L 335.695312 -281.801054 
L 332.002107 -281.673575 
L 328.308903 -281.543236 
L 324.615698 -281.474477 
L 320.922493 -281.338781 
L 317.229288 -281.161664 
L 313.536084 -280.98076 
L 309.842879 -280.795947 
L 306.149674 -280.607096 
L 302.456469 -280.452185 
L 298.763264 -280.254771 
L 295.07006 -280.159894 
L 291.376855 -279.953521 
L 287.68365 -279.74232 
L 283.990445 -279.526125 
L 280.297241 -279.304759 
L 276.604036 -279.078042 
L 272.910831 -278.845785 
L 269.217626 -278.607792 
L 265.524421 -278.363861 
L 261.831217 -278.113783 
L 258.138012 -277.857343 
L 254.444807 -277.702624 
L 250.751602 -277.432199 
L 247.058398 -277.154591 
L 243.365193 -276.906153 
L 239.671988 -276.612644 
L 235.978783 -276.311067 
L 232.285579 -276.001145 
L 228.592374 -275.682599 
L 224.899169 -275.355156 
L 221.205964 -275.018545 
L 217.512759 -274.672513 
L 213.819555 -274.316825 
L 210.12635 -273.95128 
L 206.433145 -273.575717 
L 202.73994 -273.190043 
L 199.046736 -272.811717 
L 195.353531 -272.402218 
L 191.660326 -271.99442 
L 187.967121 -271.569922 
L 184.273916 -271.127735 
L 180.580712 -270.666812 
L 176.887507 -270.184222 
L 173.194302 -269.686149 
L 169.501097 -269.176697 
L 165.807893 -268.660122 
L 162.114688 -268.14007 
L 158.421483 -267.621983 
L 154.728278 -267.11399 
L 151.035073 -266.537863 
L 147.341869 -266.132673 
L 143.648664 -265.503469 
L 139.955459 -265.005232 
L 136.262254 -264.327801 
L 132.56905 -263.725217 
L 128.875845 -263.025684 
L 125.18264 -262.333266 
L 121.489435 -262.537551 
L 117.79623 -261.95303 
L 114.103026 -260.958687 
L 110.409821 -259.951957 
L 106.716616 -258.815557 
L 103.023411 -257.761814 
L 99.330207 -256.377961 
L 95.637002 -254.813324 
L 91.943797 -253.100321 
L 88.250592 -251.021083 
L 84.557388 -248.729192 
L 80.864183 -246.333835 
L 77.170978 -244.107295 
L 73.477773 -236.820249 
L 69.784568 -223.022956 
L 66.091364 -233.303388 
z
" style="stroke: #0000ff; stroke-opacity: 0.2"/>
    </defs>
    <g clip-path="url(#p215e50d5a8)">
     <use xlink:href="#m2b5b2e3619" x="0" y="345.6" style="fill: #0000ff; fill-opacity: 0.2; stroke: #0000ff; stroke-opacity: 0.2"/>
    </g>
   </g>
   <g id="matplotlib.axis_1">
    <g id="xtick_1">
     <g id="line2d_1">
      <defs>
       <path id="mfc5faebb3b" d="M 0 0 
L 0 3.5 
" style="stroke: #000000; stroke-width: 0.8"/>
      </defs>
      <g>
       <use xlink:href="#mfc5faebb3b" x="66.091364" y="303.64" style="stroke: #000000; stroke-width: 0.8"/>
      </g>
     </g>
     <g id="text_1">
      <!-- 0 -->
      <g transform="translate(62.910114 318.238437) scale(0.1 -0.1)">
       <defs>
        <path id="DejaVuSans-30" d="M 2034 4250 
Q 1547 4250 1301 3770 
Q 1056 3291 1056 2328 
Q 1056 1369 1301 889 
Q 1547 409 2034 409 
Q 2525 409 2770 889 
Q 3016 1369 3016 2328 
Q 3016 3291 2770 3770 
Q 2525 4250 2034 4250 
z
M 2034 4750 
Q 2819 4750 3233 4129 
Q 3647 3509 3647 2328 
Q 3647 1150 3233 529 
Q 2819 -91 2034 -91 
Q 1250 -91 836 529 
Q 422 1150 422 2328 
Q 422 3509 836 4129 
Q 1250 4750 2034 4750 
z
" transform="scale(0.015625)"/>
       </defs>
       <use xlink:href="#DejaVuSans-30"/>
      </g>
     </g>
    </g>
    <g id="xtick_2">
     <g id="line2d_2">
      <g>
       <use xlink:href="#mfc5faebb3b" x="139.955459" y="303.64" style="stroke: #000000; stroke-width: 0.8"/>
      </g>
     </g>
     <g id="text_2">
      <!-- 20 -->
      <g transform="translate(133.592959 318.238437) scale(0.1 -0.1)">
       <defs>
        <path id="DejaVuSans-32" d="M 1228 531 
L 3431 531 
L 3431 0 
L 469 0 
L 469 531 
Q 828 903 1448 1529 
Q 2069 2156 2228 2338 
Q 2531 2678 2651 2914 
Q 2772 3150 2772 3378 
Q 2772 3750 2511 3984 
Q 2250 4219 1831 4219 
Q 1534 4219 1204 4116 
Q 875 4013 500 3803 
L 500 4441 
Q 881 4594 1212 4672 
Q 1544 4750 1819 4750 
Q 2544 4750 2975 4387 
Q 3406 4025 3406 3419 
Q 3406 3131 3298 2873 
Q 3191 2616 2906 2266 
Q 2828 2175 2409 1742 
Q 1991 1309 1228 531 
z
" transform="scale(0.015625)"/>
       </defs>
       <use xlink:href="#DejaVuSans-32"/>
       <use xlink:href="#DejaVuSans-30" x="63.623047"/>
      </g>
     </g>
    </g>
    <g id="xtick_3">
     <g id="line2d_3">
      <g>
       <use xlink:href="#mfc5faebb3b" x="213.819555" y="303.64" style="stroke: #000000; stroke-width: 0.8"/>
      </g>
     </g>
     <g id="text_3">
      <!-- 40 -->
      <g transform="translate(207.457055 318.238437) scale(0.1 -0.1)">
       <defs>
        <path id="DejaVuSans-34" d="M 2419 4116 
L 825 1625 
L 2419 1625 
L 2419 4116 
z
M 2253 4666 
L 3047 4666 
L 3047 1625 
L 3713 1625 
L 3713 1100 
L 3047 1100 
L 3047 0 
L 2419 0 
L 2419 1100 
L 313 1100 
L 313 1709 
L 2253 4666 
z
" transform="scale(0.015625)"/>
       </defs>
       <use xlink:href="#DejaVuSans-34"/>
       <use xlink:href="#DejaVuSans-30" x="63.623047"/>
      </g>
     </g>
    </g>
    <g id="xtick_4">
     <g id="line2d_4">
      <g>
       <use xlink:href="#mfc5faebb3b" x="287.68365" y="303.64" style="stroke: #000000; stroke-width: 0.8"/>
      </g>
     </g>
     <g id="text_4">
      <!-- 60 -->
      <g transform="translate(281.32115 318.238437) scale(0.1 -0.1)">
       <defs>
        <path id="DejaVuSans-36" d="M 2113 2584 
Q 1688 2584 1439 2293 
Q 1191 2003 1191 1497 
Q 1191 994 1439 701 
Q 1688 409 2113 409 
Q 2538 409 2786 701 
Q 3034 994 3034 1497 
Q 3034 2003 2786 2293 
Q 2538 2584 2113 2584 
z
M 3366 4563 
L 3366 3988 
Q 3128 4100 2886 4159 
Q 2644 4219 2406 4219 
Q 1781 4219 1451 3797 
Q 1122 3375 1075 2522 
Q 1259 2794 1537 2939 
Q 1816 3084 2150 3084 
Q 2853 3084 3261 2657 
Q 3669 2231 3669 1497 
Q 3669 778 3244 343 
Q 2819 -91 2113 -91 
Q 1303 -91 875 529 
Q 447 1150 447 2328 
Q 447 3434 972 4092 
Q 1497 4750 2381 4750 
Q 2619 4750 2861 4703 
Q 3103 4656 3366 4563 
z
" transform="scale(0.015625)"/>
       </defs>
       <use xlink:href="#DejaVuSans-36"/>
       <use xlink:href="#DejaVuSans-30" x="63.623047"/>
      </g>
     </g>
    </g>
    <g id="xtick_5">
     <g id="line2d_5">
      <g>
       <use xlink:href="#mfc5faebb3b" x="361.547746" y="303.64" style="stroke: #000000; stroke-width: 0.8"/>
      </g>
     </g>
     <g id="text_5">
      <!-- 80 -->
      <g transform="translate(355.185246 318.238437) scale(0.1 -0.1)">
       <defs>
        <path id="DejaVuSans-38" d="M 2034 2216 
Q 1584 2216 1326 1975 
Q 1069 1734 1069 1313 
Q 1069 891 1326 650 
Q 1584 409 2034 409 
Q 2484 409 2743 651 
Q 3003 894 3003 1313 
Q 3003 1734 2745 1975 
Q 2488 2216 2034 2216 
z
M 1403 2484 
Q 997 2584 770 2862 
Q 544 3141 544 3541 
Q 544 4100 942 4425 
Q 1341 4750 2034 4750 
Q 2731 4750 3128 4425 
Q 3525 4100 3525 3541 
Q 3525 3141 3298 2862 
Q 3072 2584 2669 2484 
Q 3125 2378 3379 2068 
Q 3634 1759 3634 1313 
Q 3634 634 3220 271 
Q 2806 -91 2034 -91 
Q 1263 -91 848 271 
Q 434 634 434 1313 
Q 434 1759 690 2068 
Q 947 2378 1403 2484 
z
M 1172 3481 
Q 1172 3119 1398 2916 
Q 1625 2713 2034 2713 
Q 2441 2713 2670 2916 
Q 2900 3119 2900 3481 
Q 2900 3844 2670 4047 
Q 2441 4250 2034 4250 
Q 1625 4250 1398 4047 
Q 1172 3844 1172 3481 
z
" transform="scale(0.015625)"/>
       </defs>
       <use xlink:href="#DejaVuSans-38"/>
       <use xlink:href="#DejaVuSans-30" x="63.623047"/>
      </g>
     </g>
    </g>
    <g id="xtick_6">
     <g id="line2d_6">
      <g>
       <use xlink:href="#mfc5faebb3b" x="435.411841" y="303.64" style="stroke: #000000; stroke-width: 0.8"/>
      </g>
     </g>
     <g id="text_6">
      <!-- 100 -->
      <g transform="translate(425.868091 318.238437) scale(0.1 -0.1)">
       <defs>
        <path id="DejaVuSans-31" d="M 794 531 
L 1825 531 
L 1825 4091 
L 703 3866 
L 703 4441 
L 1819 4666 
L 2450 4666 
L 2450 531 
L 3481 531 
L 3481 0 
L 794 0 
L 794 531 
z
" transform="scale(0.015625)"/>
       </defs>
       <use xlink:href="#DejaVuSans-31"/>
       <use xlink:href="#DejaVuSans-30" x="63.623047"/>
       <use xlink:href="#DejaVuSans-30" x="127.246094"/>
      </g>
     </g>
    </g>
    <g id="text_7">
     <!-- Iteration -->
     <g transform="translate(227.696406 331.916562) scale(0.1 -0.1)">
      <defs>
       <path id="DejaVuSans-49" d="M 628 4666 
L 1259 4666 
L 1259 0 
L 628 0 
L 628 4666 
z
" transform="scale(0.015625)"/>
       <path id="DejaVuSans-74" d="M 1172 4494 
L 1172 3500 
L 2356 3500 
L 2356 3053 
L 1172 3053 
L 1172 1153 
Q 1172 725 1289 603 
Q 1406 481 1766 481 
L 2356 481 
L 2356 0 
L 1766 0 
Q 1100 0 847 248 
Q 594 497 594 1153 
L 594 3053 
L 172 3053 
L 172 3500 
L 594 3500 
L 594 4494 
L 1172 4494 
z
" transform="scale(0.015625)"/>
       <path id="DejaVuSans-65" d="M 3597 1894 
L 3597 1613 
L 953 1613 
Q 991 1019 1311 708 
Q 1631 397 2203 397 
Q 2534 397 2845 478 
Q 3156 559 3463 722 
L 3463 178 
Q 3153 47 2828 -22 
Q 2503 -91 2169 -91 
Q 1331 -91 842 396 
Q 353 884 353 1716 
Q 353 2575 817 3079 
Q 1281 3584 2069 3584 
Q 2775 3584 3186 3129 
Q 3597 2675 3597 1894 
z
M 3022 2063 
Q 3016 2534 2758 2815 
Q 2500 3097 2075 3097 
Q 1594 3097 1305 2825 
Q 1016 2553 972 2059 
L 3022 2063 
z
" transform="scale(0.015625)"/>
       <path id="DejaVuSans-72" d="M 2631 2963 
Q 2534 3019 2420 3045 
Q 2306 3072 2169 3072 
Q 1681 3072 1420 2755 
Q 1159 2438 1159 1844 
L 1159 0 
L 581 0 
L 581 3500 
L 1159 3500 
L 1159 2956 
Q 1341 3275 1631 3429 
Q 1922 3584 2338 3584 
Q 2397 3584 2469 3576 
Q 2541 3569 2628 3553 
L 2631 2963 
z
" transform="scale(0.015625)"/>
       <path id="DejaVuSans-61" d="M 2194 1759 
Q 1497 1759 1228 1600 
Q 959 1441 959 1056 
Q 959 750 1161 570 
Q 1363 391 1709 391 
Q 2188 391 2477 730 
Q 2766 1069 2766 1631 
L 2766 1759 
L 2194 1759 
z
M 3341 1997 
L 3341 0 
L 2766 0 
L 2766 531 
Q 2569 213 2275 61 
Q 1981 -91 1556 -91 
Q 1019 -91 701 211 
Q 384 513 384 1019 
Q 384 1609 779 1909 
Q 1175 2209 1959 2209 
L 2766 2209 
L 2766 2266 
Q 2766 2663 2505 2880 
Q 2244 3097 1772 3097 
Q 1472 3097 1187 3025 
Q 903 2953 641 2809 
L 641 3341 
Q 956 3463 1253 3523 
Q 1550 3584 1831 3584 
Q 2591 3584 2966 3190 
Q 3341 2797 3341 1997 
z
" transform="scale(0.015625)"/>
       <path id="DejaVuSans-69" d="M 603 3500 
L 1178 3500 
L 1178 0 
L 603 0 
L 603 3500 
z
M 603 4863 
L 1178 4863 
L 1178 4134 
L 603 4134 
L 603 4863 
z
" transform="scale(0.015625)"/>
       <path id="DejaVuSans-6f" d="M 1959 3097 
Q 1497 3097 1228 2736 
Q 959 2375 959 1747 
Q 959 1119 1226 758 
Q 1494 397 1959 397 
Q 2419 397 2687 759 
Q 2956 1122 2956 1747 
Q 2956 2369 2687 2733 
Q 2419 3097 1959 3097 
z
M 1959 3584 
Q 2709 3584 3137 3096 
Q 3566 2609 3566 1747 
Q 3566 888 3137 398 
Q 2709 -91 1959 -91 
Q 1206 -91 779 398 
Q 353 888 353 1747 
Q 353 2609 779 3096 
Q 1206 3584 1959 3584 
z
" transform="scale(0.015625)"/>
       <path id="DejaVuSans-6e" d="M 3513 2113 
L 3513 0 
L 2938 0 
L 2938 2094 
Q 2938 2591 2744 2837 
Q 2550 3084 2163 3084 
Q 1697 3084 1428 2787 
Q 1159 2491 1159 1978 
L 1159 0 
L 581 0 
L 581 3500 
L 1159 3500 
L 1159 2956 
Q 1366 3272 1645 3428 
Q 1925 3584 2291 3584 
Q 2894 3584 3203 3211 
Q 3513 2838 3513 2113 
z
" transform="scale(0.015625)"/>
      </defs>
      <use xlink:href="#DejaVuSans-49"/>
      <use xlink:href="#DejaVuSans-74" x="29.492188"/>
      <use xlink:href="#DejaVuSans-65" x="68.701172"/>
      <use xlink:href="#DejaVuSans-72" x="130.224609"/>
      <use xlink:href="#DejaVuSans-61" x="171.337891"/>
      <use xlink:href="#DejaVuSans-74" x="232.617188"/>
      <use xlink:href="#DejaVuSans-69" x="271.826172"/>
      <use xlink:href="#DejaVuSans-6f" x="299.609375"/>
      <use xlink:href="#DejaVuSans-6e" x="360.791016"/>
     </g>
    </g>
   </g>
   <g id="matplotlib.axis_2">
    <g id="ytick_1">
     <g id="line2d_7">
      <defs>
       <path id="md7d5d4d074" d="M 0 0 
L -3.5 0 
" style="stroke: #000000; stroke-width: 0.8"/>
      </defs>
      <g>
       <use xlink:href="#md7d5d4d074" x="47.81" y="290.994545" style="stroke: #000000; stroke-width: 0.8"/>
      </g>
     </g>
     <g id="text_8">
      <!-- 0.0 -->
      <g transform="translate(24.906875 294.793764) scale(0.1 -0.1)">
       <defs>
        <path id="DejaVuSans-2e" d="M 684 794 
L 1344 794 
L 1344 0 
L 684 0 
L 684 794 
z
" transform="scale(0.015625)"/>
       </defs>
       <use xlink:href="#DejaVuSans-30"/>
       <use xlink:href="#DejaVuSans-2e" x="63.623047"/>
       <use xlink:href="#DejaVuSans-30" x="95.410156"/>
      </g>
     </g>
    </g>
    <g id="ytick_2">
     <g id="line2d_8">
      <g>
       <use xlink:href="#md7d5d4d074" x="47.81" y="241.356231" style="stroke: #000000; stroke-width: 0.8"/>
      </g>
     </g>
     <g id="text_9">
      <!-- 0.2 -->
      <g transform="translate(24.906875 245.155449) scale(0.1 -0.1)">
       <use xlink:href="#DejaVuSans-30"/>
       <use xlink:href="#DejaVuSans-2e" x="63.623047"/>
       <use xlink:href="#DejaVuSans-32" x="95.410156"/>
      </g>
     </g>
    </g>
    <g id="ytick_3">
     <g id="line2d_9">
      <g>
       <use xlink:href="#md7d5d4d074" x="47.81" y="191.717916" style="stroke: #000000; stroke-width: 0.8"/>
      </g>
     </g>
     <g id="text_10">
      <!-- 0.4 -->
      <g transform="translate(24.906875 195.517135) scale(0.1 -0.1)">
       <use xlink:href="#DejaVuSans-30"/>
       <use xlink:href="#DejaVuSans-2e" x="63.623047"/>
       <use xlink:href="#DejaVuSans-34" x="95.410156"/>
      </g>
     </g>
    </g>
    <g id="ytick_4">
     <g id="line2d_10">
      <g>
       <use xlink:href="#md7d5d4d074" x="47.81" y="142.079601" style="stroke: #000000; stroke-width: 0.8"/>
      </g>
     </g>
     <g id="text_11">
      <!-- 0.6 -->
      <g transform="translate(24.906875 145.87882) scale(0.1 -0.1)">
       <use xlink:href="#DejaVuSans-30"/>
       <use xlink:href="#DejaVuSans-2e" x="63.623047"/>
       <use xlink:href="#DejaVuSans-36" x="95.410156"/>
      </g>
     </g>
    </g>
    <g id="ytick_5">
     <g id="line2d_11">
      <g>
       <use xlink:href="#md7d5d4d074" x="47.81" y="92.441287" style="stroke: #000000; stroke-width: 0.8"/>
      </g>
     </g>
     <g id="text_12">
      <!-- 0.8 -->
      <g transform="translate(24.906875 96.240505) scale(0.1 -0.1)">
       <use xlink:href="#DejaVuSans-30"/>
       <use xlink:href="#DejaVuSans-2e" x="63.623047"/>
       <use xlink:href="#DejaVuSans-38" x="95.410156"/>
      </g>
     </g>
    </g>
    <g id="ytick_6">
     <g id="line2d_12">
      <g>
       <use xlink:href="#md7d5d4d074" x="47.81" y="42.802972" style="stroke: #000000; stroke-width: 0.8"/>
      </g>
     </g>
     <g id="text_13">
      <!-- 1.0 -->
      <g transform="translate(24.906875 46.602191) scale(0.1 -0.1)">
       <use xlink:href="#DejaVuSans-31"/>
       <use xlink:href="#DejaVuSans-2e" x="63.623047"/>
       <use xlink:href="#DejaVuSans-30" x="95.410156"/>
      </g>
     </g>
    </g>
    <g id="text_14">
     <!-- Avg action -->
     <g transform="translate(18.827187 190.779844) rotate(-90) scale(0.1 -0.1)">
      <defs>
       <path id="DejaVuSans-41" d="M 2188 4044 
L 1331 1722 
L 3047 1722 
L 2188 4044 
z
M 1831 4666 
L 2547 4666 
L 4325 0 
L 3669 0 
L 3244 1197 
L 1141 1197 
L 716 0 
L 50 0 
L 1831 4666 
z
" transform="scale(0.015625)"/>
       <path id="DejaVuSans-76" d="M 191 3500 
L 800 3500 
L 1894 563 
L 2988 3500 
L 3597 3500 
L 2284 0 
L 1503 0 
L 191 3500 
z
" transform="scale(0.015625)"/>
       <path id="DejaVuSans-67" d="M 2906 1791 
Q 2906 2416 2648 2759 
Q 2391 3103 1925 3103 
Q 1463 3103 1205 2759 
Q 947 2416 947 1791 
Q 947 1169 1205 825 
Q 1463 481 1925 481 
Q 2391 481 2648 825 
Q 2906 1169 2906 1791 
z
M 3481 434 
Q 3481 -459 3084 -895 
Q 2688 -1331 1869 -1331 
Q 1566 -1331 1297 -1286 
Q 1028 -1241 775 -1147 
L 775 -588 
Q 1028 -725 1275 -790 
Q 1522 -856 1778 -856 
Q 2344 -856 2625 -561 
Q 2906 -266 2906 331 
L 2906 616 
Q 2728 306 2450 153 
Q 2172 0 1784 0 
Q 1141 0 747 490 
Q 353 981 353 1791 
Q 353 2603 747 3093 
Q 1141 3584 1784 3584 
Q 2172 3584 2450 3431 
Q 2728 3278 2906 2969 
L 2906 3500 
L 3481 3500 
L 3481 434 
z
" transform="scale(0.015625)"/>
       <path id="DejaVuSans-20" transform="scale(0.015625)"/>
       <path id="DejaVuSans-63" d="M 3122 3366 
L 3122 2828 
Q 2878 2963 2633 3030 
Q 2388 3097 2138 3097 
Q 1578 3097 1268 2742 
Q 959 2388 959 1747 
Q 959 1106 1268 751 
Q 1578 397 2138 397 
Q 2388 397 2633 464 
Q 2878 531 3122 666 
L 3122 134 
Q 2881 22 2623 -34 
Q 2366 -91 2075 -91 
Q 1284 -91 818 406 
Q 353 903 353 1747 
Q 353 2603 823 3093 
Q 1294 3584 2113 3584 
Q 2378 3584 2631 3529 
Q 2884 3475 3122 3366 
z
" transform="scale(0.015625)"/>
      </defs>
      <use xlink:href="#DejaVuSans-41"/>
      <use xlink:href="#DejaVuSans-76" x="62.533203"/>
      <use xlink:href="#DejaVuSans-67" x="121.712891"/>
      <use xlink:href="#DejaVuSans-20" x="185.189453"/>
      <use xlink:href="#DejaVuSans-61" x="216.976562"/>
      <use xlink:href="#DejaVuSans-63" x="278.255859"/>
      <use xlink:href="#DejaVuSans-74" x="333.236328"/>
      <use xlink:href="#DejaVuSans-69" x="372.445312"/>
      <use xlink:href="#DejaVuSans-6f" x="400.228516"/>
      <use xlink:href="#DejaVuSans-6e" x="461.410156"/>
     </g>
    </g>
   </g>
   <g id="line2d_13">
    <path d="M 66.091364 112.296612 
L 69.784568 62.658298 
L 73.477773 72.585961 
L 77.170978 67.622129 
L 80.864183 82.513624 
L 84.557388 77.549792 
L 88.250592 72.585961 
L 91.943797 67.622129 
L 95.637002 67.622129 
L 99.330207 62.658298 
L 103.023411 57.694466 
L 106.716616 67.622129 
L 110.409821 57.694466 
L 114.103026 52.730635 
L 117.79623 57.694466 
L 121.489435 67.622129 
L 125.18264 77.549792 
L 128.875845 62.658298 
L 132.56905 52.730635 
L 136.262254 47.766803 
L 139.955459 52.730635 
L 143.648664 42.802972 
L 147.341869 47.766803 
L 151.035073 62.658298 
L 154.728278 47.766803 
L 158.421483 42.802972 
L 162.114688 42.802972 
L 165.807893 42.802972 
L 169.501097 42.802972 
L 173.194302 42.802972 
L 176.887507 47.766803 
L 180.580712 42.802972 
L 184.273916 47.766803 
L 187.967121 47.766803 
L 191.660326 47.766803 
L 195.353531 47.766803 
L 199.046736 42.802972 
L 202.73994 47.766803 
L 206.433145 42.802972 
L 210.12635 42.802972 
L 213.819555 42.802972 
L 217.512759 42.802972 
L 221.205964 42.802972 
L 224.899169 42.802972 
L 228.592374 42.802972 
L 232.285579 42.802972 
L 235.978783 42.802972 
L 239.671988 42.802972 
L 243.365193 42.802972 
L 247.058398 47.766803 
L 250.751602 42.802972 
L 254.444807 42.802972 
L 258.138012 52.730635 
L 261.831217 42.802972 
L 265.524421 42.802972 
L 269.217626 42.802972 
L 272.910831 42.802972 
L 276.604036 42.802972 
L 280.297241 42.802972 
L 283.990445 42.802972 
L 287.68365 42.802972 
L 291.376855 42.802972 
L 295.07006 42.802972 
L 298.763264 52.730635 
L 302.456469 42.802972 
L 306.149674 47.766803 
L 309.842879 42.802972 
L 313.536084 42.802972 
L 317.229288 42.802972 
L 320.922493 42.802972 
L 324.615698 47.766803 
L 328.308903 52.730635 
L 332.002107 47.766803 
L 335.695312 47.766803 
L 339.388517 42.802972 
L 343.081722 47.766803 
L 346.774927 42.802972 
L 350.468131 47.766803 
L 354.161336 42.802972 
L 357.854541 42.802972 
L 361.547746 42.802972 
L 365.24095 47.766803 
L 368.934155 42.802972 
L 372.62736 42.802972 
L 376.320565 47.766803 
L 380.01377 42.802972 
L 383.706974 42.802972 
L 387.400179 52.730635 
L 391.093384 42.802972 
L 394.786589 42.802972 
L 398.479793 42.802972 
L 402.172998 42.802972 
L 405.866203 52.730635 
L 409.559408 47.766803 
L 413.252612 42.802972 
L 416.945817 42.802972 
L 420.639022 42.802972 
L 424.332227 52.730635 
L 428.025432 47.766803 
L 431.718636 42.802972 
" clip-path="url(#p215e50d5a8)" style="fill: none; stroke: #0000ff; stroke-linecap: square"/>
    <defs>
     <path id="m0ca02c8551" d="M -0.49999 0.49999 
L 0.50001 0.49999 
L 0.50001 -0.50001 
L -0.49999 -0.50001 
z
"/>
    </defs>
    <g clip-path="url(#p215e50d5a8)">
     <use xlink:href="#m0ca02c8551" x="66.091364" y="112.296612" style="fill: #0000ff"/>
     <use xlink:href="#m0ca02c8551" x="69.784568" y="62.658298" style="fill: #0000ff"/>
     <use xlink:href="#m0ca02c8551" x="73.477773" y="72.585961" style="fill: #0000ff"/>
     <use xlink:href="#m0ca02c8551" x="77.170978" y="67.622129" style="fill: #0000ff"/>
     <use xlink:href="#m0ca02c8551" x="80.864183" y="82.513624" style="fill: #0000ff"/>
     <use xlink:href="#m0ca02c8551" x="84.557388" y="77.549792" style="fill: #0000ff"/>
     <use xlink:href="#m0ca02c8551" x="88.250592" y="72.585961" style="fill: #0000ff"/>
     <use xlink:href="#m0ca02c8551" x="91.943797" y="67.622129" style="fill: #0000ff"/>
     <use xlink:href="#m0ca02c8551" x="95.637002" y="67.622129" style="fill: #0000ff"/>
     <use xlink:href="#m0ca02c8551" x="99.330207" y="62.658298" style="fill: #0000ff"/>
     <use xlink:href="#m0ca02c8551" x="103.023411" y="57.694466" style="fill: #0000ff"/>
     <use xlink:href="#m0ca02c8551" x="106.716616" y="67.622129" style="fill: #0000ff"/>
     <use xlink:href="#m0ca02c8551" x="110.409821" y="57.694466" style="fill: #0000ff"/>
     <use xlink:href="#m0ca02c8551" x="114.103026" y="52.730635" style="fill: #0000ff"/>
     <use xlink:href="#m0ca02c8551" x="117.79623" y="57.694466" style="fill: #0000ff"/>
     <use xlink:href="#m0ca02c8551" x="121.489435" y="67.622129" style="fill: #0000ff"/>
     <use xlink:href="#m0ca02c8551" x="125.18264" y="77.549792" style="fill: #0000ff"/>
     <use xlink:href="#m0ca02c8551" x="128.875845" y="62.658298" style="fill: #0000ff"/>
     <use xlink:href="#m0ca02c8551" x="132.56905" y="52.730635" style="fill: #0000ff"/>
     <use xlink:href="#m0ca02c8551" x="136.262254" y="47.766803" style="fill: #0000ff"/>
     <use xlink:href="#m0ca02c8551" x="139.955459" y="52.730635" style="fill: #0000ff"/>
     <use xlink:href="#m0ca02c8551" x="143.648664" y="42.802972" style="fill: #0000ff"/>
     <use xlink:href="#m0ca02c8551" x="147.341869" y="47.766803" style="fill: #0000ff"/>
     <use xlink:href="#m0ca02c8551" x="151.035073" y="62.658298" style="fill: #0000ff"/>
     <use xlink:href="#m0ca02c8551" x="154.728278" y="47.766803" style="fill: #0000ff"/>
     <use xlink:href="#m0ca02c8551" x="158.421483" y="42.802972" style="fill: #0000ff"/>
     <use xlink:href="#m0ca02c8551" x="162.114688" y="42.802972" style="fill: #0000ff"/>
     <use xlink:href="#m0ca02c8551" x="165.807893" y="42.802972" style="fill: #0000ff"/>
     <use xlink:href="#m0ca02c8551" x="169.501097" y="42.802972" style="fill: #0000ff"/>
     <use xlink:href="#m0ca02c8551" x="173.194302" y="42.802972" style="fill: #0000ff"/>
     <use xlink:href="#m0ca02c8551" x="176.887507" y="47.766803" style="fill: #0000ff"/>
     <use xlink:href="#m0ca02c8551" x="180.580712" y="42.802972" style="fill: #0000ff"/>
     <use xlink:href="#m0ca02c8551" x="184.273916" y="47.766803" style="fill: #0000ff"/>
     <use xlink:href="#m0ca02c8551" x="187.967121" y="47.766803" style="fill: #0000ff"/>
     <use xlink:href="#m0ca02c8551" x="191.660326" y="47.766803" style="fill: #0000ff"/>
     <use xlink:href="#m0ca02c8551" x="195.353531" y="47.766803" style="fill: #0000ff"/>
     <use xlink:href="#m0ca02c8551" x="199.046736" y="42.802972" style="fill: #0000ff"/>
     <use xlink:href="#m0ca02c8551" x="202.73994" y="47.766803" style="fill: #0000ff"/>
     <use xlink:href="#m0ca02c8551" x="206.433145" y="42.802972" style="fill: #0000ff"/>
     <use xlink:href="#m0ca02c8551" x="210.12635" y="42.802972" style="fill: #0000ff"/>
     <use xlink:href="#m0ca02c8551" x="213.819555" y="42.802972" style="fill: #0000ff"/>
     <use xlink:href="#m0ca02c8551" x="217.512759" y="42.802972" style="fill: #0000ff"/>
     <use xlink:href="#m0ca02c8551" x="221.205964" y="42.802972" style="fill: #0000ff"/>
     <use xlink:href="#m0ca02c8551" x="224.899169" y="42.802972" style="fill: #0000ff"/>
     <use xlink:href="#m0ca02c8551" x="228.592374" y="42.802972" style="fill: #0000ff"/>
     <use xlink:href="#m0ca02c8551" x="232.285579" y="42.802972" style="fill: #0000ff"/>
     <use xlink:href="#m0ca02c8551" x="235.978783" y="42.802972" style="fill: #0000ff"/>
     <use xlink:href="#m0ca02c8551" x="239.671988" y="42.802972" style="fill: #0000ff"/>
     <use xlink:href="#m0ca02c8551" x="243.365193" y="42.802972" style="fill: #0000ff"/>
     <use xlink:href="#m0ca02c8551" x="247.058398" y="47.766803" style="fill: #0000ff"/>
     <use xlink:href="#m0ca02c8551" x="250.751602" y="42.802972" style="fill: #0000ff"/>
     <use xlink:href="#m0ca02c8551" x="254.444807" y="42.802972" style="fill: #0000ff"/>
     <use xlink:href="#m0ca02c8551" x="258.138012" y="52.730635" style="fill: #0000ff"/>
     <use xlink:href="#m0ca02c8551" x="261.831217" y="42.802972" style="fill: #0000ff"/>
     <use xlink:href="#m0ca02c8551" x="265.524421" y="42.802972" style="fill: #0000ff"/>
     <use xlink:href="#m0ca02c8551" x="269.217626" y="42.802972" style="fill: #0000ff"/>
     <use xlink:href="#m0ca02c8551" x="272.910831" y="42.802972" style="fill: #0000ff"/>
     <use xlink:href="#m0ca02c8551" x="276.604036" y="42.802972" style="fill: #0000ff"/>
     <use xlink:href="#m0ca02c8551" x="280.297241" y="42.802972" style="fill: #0000ff"/>
     <use xlink:href="#m0ca02c8551" x="283.990445" y="42.802972" style="fill: #0000ff"/>
     <use xlink:href="#m0ca02c8551" x="287.68365" y="42.802972" style="fill: #0000ff"/>
     <use xlink:href="#m0ca02c8551" x="291.376855" y="42.802972" style="fill: #0000ff"/>
     <use xlink:href="#m0ca02c8551" x="295.07006" y="42.802972" style="fill: #0000ff"/>
     <use xlink:href="#m0ca02c8551" x="298.763264" y="52.730635" style="fill: #0000ff"/>
     <use xlink:href="#m0ca02c8551" x="302.456469" y="42.802972" style="fill: #0000ff"/>
     <use xlink:href="#m0ca02c8551" x="306.149674" y="47.766803" style="fill: #0000ff"/>
     <use xlink:href="#m0ca02c8551" x="309.842879" y="42.802972" style="fill: #0000ff"/>
     <use xlink:href="#m0ca02c8551" x="313.536084" y="42.802972" style="fill: #0000ff"/>
     <use xlink:href="#m0ca02c8551" x="317.229288" y="42.802972" style="fill: #0000ff"/>
     <use xlink:href="#m0ca02c8551" x="320.922493" y="42.802972" style="fill: #0000ff"/>
     <use xlink:href="#m0ca02c8551" x="324.615698" y="47.766803" style="fill: #0000ff"/>
     <use xlink:href="#m0ca02c8551" x="328.308903" y="52.730635" style="fill: #0000ff"/>
     <use xlink:href="#m0ca02c8551" x="332.002107" y="47.766803" style="fill: #0000ff"/>
     <use xlink:href="#m0ca02c8551" x="335.695312" y="47.766803" style="fill: #0000ff"/>
     <use xlink:href="#m0ca02c8551" x="339.388517" y="42.802972" style="fill: #0000ff"/>
     <use xlink:href="#m0ca02c8551" x="343.081722" y="47.766803" style="fill: #0000ff"/>
     <use xlink:href="#m0ca02c8551" x="346.774927" y="42.802972" style="fill: #0000ff"/>
     <use xlink:href="#m0ca02c8551" x="350.468131" y="47.766803" style="fill: #0000ff"/>
     <use xlink:href="#m0ca02c8551" x="354.161336" y="42.802972" style="fill: #0000ff"/>
     <use xlink:href="#m0ca02c8551" x="357.854541" y="42.802972" style="fill: #0000ff"/>
     <use xlink:href="#m0ca02c8551" x="361.547746" y="42.802972" style="fill: #0000ff"/>
     <use xlink:href="#m0ca02c8551" x="365.24095" y="47.766803" style="fill: #0000ff"/>
     <use xlink:href="#m0ca02c8551" x="368.934155" y="42.802972" style="fill: #0000ff"/>
     <use xlink:href="#m0ca02c8551" x="372.62736" y="42.802972" style="fill: #0000ff"/>
     <use xlink:href="#m0ca02c8551" x="376.320565" y="47.766803" style="fill: #0000ff"/>
     <use xlink:href="#m0ca02c8551" x="380.01377" y="42.802972" style="fill: #0000ff"/>
     <use xlink:href="#m0ca02c8551" x="383.706974" y="42.802972" style="fill: #0000ff"/>
     <use xlink:href="#m0ca02c8551" x="387.400179" y="52.730635" style="fill: #0000ff"/>
     <use xlink:href="#m0ca02c8551" x="391.093384" y="42.802972" style="fill: #0000ff"/>
     <use xlink:href="#m0ca02c8551" x="394.786589" y="42.802972" style="fill: #0000ff"/>
     <use xlink:href="#m0ca02c8551" x="398.479793" y="42.802972" style="fill: #0000ff"/>
     <use xlink:href="#m0ca02c8551" x="402.172998" y="42.802972" style="fill: #0000ff"/>
     <use xlink:href="#m0ca02c8551" x="405.866203" y="52.730635" style="fill: #0000ff"/>
     <use xlink:href="#m0ca02c8551" x="409.559408" y="47.766803" style="fill: #0000ff"/>
     <use xlink:href="#m0ca02c8551" x="413.252612" y="42.802972" style="fill: #0000ff"/>
     <use xlink:href="#m0ca02c8551" x="416.945817" y="42.802972" style="fill: #0000ff"/>
     <use xlink:href="#m0ca02c8551" x="420.639022" y="42.802972" style="fill: #0000ff"/>
     <use xlink:href="#m0ca02c8551" x="424.332227" y="52.730635" style="fill: #0000ff"/>
     <use xlink:href="#m0ca02c8551" x="428.025432" y="47.766803" style="fill: #0000ff"/>
     <use xlink:href="#m0ca02c8551" x="431.718636" y="42.802972" style="fill: #0000ff"/>
    </g>
   </g>
   <g id="line2d_14">
    <path d="M 66.091364 112.296612 
L 69.784568 87.477455 
L 73.477773 82.513624 
L 77.170978 78.79075 
L 80.864183 79.535325 
L 84.557388 79.204403 
L 88.250592 78.258911 
L 91.943797 76.929313 
L 95.637002 75.895182 
L 99.330207 74.571493 
L 103.023411 73.037218 
L 106.716616 72.585961 
L 110.409821 71.440461 
L 114.103026 70.104045 
L 117.79623 69.27674 
L 121.489435 69.173327 
L 125.18264 69.66606 
L 128.875845 69.27674 
L 132.56905 68.405892 
L 136.262254 67.373938 
L 139.955459 66.676637 
L 143.648664 65.591471 
L 147.341869 64.816485 
L 151.035073 64.726561 
L 154.728278 64.048171 
L 158.421483 63.231047 
L 162.114688 62.474452 
L 165.807893 61.771899 
L 169.501097 61.117798 
L 173.194302 60.507304 
L 176.887507 60.09632 
L 180.580712 59.555903 
L 184.273916 59.198658 
L 187.967121 58.862427 
L 191.660326 58.545409 
L 195.353531 58.246003 
L 199.046736 57.828624 
L 202.73994 57.563839 
L 206.433145 57.185355 
L 210.12635 56.825796 
L 213.819555 56.483776 
L 217.512759 56.158042 
L 221.205964 55.847459 
L 224.899169 55.550994 
L 228.592374 55.267704 
L 232.285579 54.996732 
L 235.978783 54.73729 
L 239.671988 54.488658 
L 243.365193 54.250175 
L 247.058398 54.120508 
L 250.751602 53.898595 
L 254.444807 53.685218 
L 258.138012 53.667207 
L 261.831217 53.466017 
L 265.524421 53.272144 
L 269.217626 53.085194 
L 272.910831 52.904804 
L 276.604036 52.730635 
L 280.297241 52.562369 
L 283.990445 52.399713 
L 287.68365 52.242389 
L 291.376855 52.09014 
L 295.07006 51.942725 
L 298.763264 51.955036 
L 302.456469 51.814235 
L 306.149674 51.75291 
L 309.842879 51.619329 
L 313.536084 51.489677 
L 317.229288 51.363783 
L 320.922493 51.241485 
L 324.615698 51.192546 
L 328.308903 51.213908 
L 332.002107 51.166688 
L 335.695312 51.120743 
L 339.388517 51.00984 
L 343.081722 50.967168 
L 346.774927 50.86114 
L 350.468131 50.821469 
L 354.161336 50.719969 
L 357.854541 50.621006 
L 361.547746 50.524487 
L 365.24095 50.490857 
L 368.934155 50.398232 
L 372.62736 50.307812 
L 376.320565 50.277918 
L 380.01377 50.191 
L 383.706974 50.10608 
L 387.400179 50.135905 
L 391.093384 50.053512 
L 394.786589 49.972951 
L 398.479793 49.89416 
L 402.172998 49.817081 
L 405.866203 49.84841 
L 409.559408 49.826265 
L 413.252612 49.752336 
L 416.945817 49.679947 
L 420.639022 49.60905 
L 424.332227 49.640903 
L 428.025432 49.621973 
L 431.718636 49.553783 
" clip-path="url(#p215e50d5a8)" style="fill: none; stroke: #0000ff; stroke-opacity: 0.5; stroke-width: 0.5; stroke-linecap: square"/>
    <defs>
     <path id="md353e3ff6c" d="M -0.49999 0.49999 
L 0.50001 0.49999 
L 0.50001 -0.50001 
L -0.49999 -0.50001 
z
"/>
    </defs>
    <g clip-path="url(#p215e50d5a8)">
     <use xlink:href="#md353e3ff6c" x="66.091364" y="112.296612" style="fill: #0000ff; fill-opacity: 0.5"/>
     <use xlink:href="#md353e3ff6c" x="69.784568" y="87.477455" style="fill: #0000ff; fill-opacity: 0.5"/>
     <use xlink:href="#md353e3ff6c" x="73.477773" y="82.513624" style="fill: #0000ff; fill-opacity: 0.5"/>
     <use xlink:href="#md353e3ff6c" x="77.170978" y="78.79075" style="fill: #0000ff; fill-opacity: 0.5"/>
     <use xlink:href="#md353e3ff6c" x="80.864183" y="79.535325" style="fill: #0000ff; fill-opacity: 0.5"/>
     <use xlink:href="#md353e3ff6c" x="84.557388" y="79.204403" style="fill: #0000ff; fill-opacity: 0.5"/>
     <use xlink:href="#md353e3ff6c" x="88.250592" y="78.258911" style="fill: #0000ff; fill-opacity: 0.5"/>
     <use xlink:href="#md353e3ff6c" x="91.943797" y="76.929313" style="fill: #0000ff; fill-opacity: 0.5"/>
     <use xlink:href="#md353e3ff6c" x="95.637002" y="75.895182" style="fill: #0000ff; fill-opacity: 0.5"/>
     <use xlink:href="#md353e3ff6c" x="99.330207" y="74.571493" style="fill: #0000ff; fill-opacity: 0.5"/>
     <use xlink:href="#md353e3ff6c" x="103.023411" y="73.037218" style="fill: #0000ff; fill-opacity: 0.5"/>
     <use xlink:href="#md353e3ff6c" x="106.716616" y="72.585961" style="fill: #0000ff; fill-opacity: 0.5"/>
     <use xlink:href="#md353e3ff6c" x="110.409821" y="71.440461" style="fill: #0000ff; fill-opacity: 0.5"/>
     <use xlink:href="#md353e3ff6c" x="114.103026" y="70.104045" style="fill: #0000ff; fill-opacity: 0.5"/>
     <use xlink:href="#md353e3ff6c" x="117.79623" y="69.27674" style="fill: #0000ff; fill-opacity: 0.5"/>
     <use xlink:href="#md353e3ff6c" x="121.489435" y="69.173327" style="fill: #0000ff; fill-opacity: 0.5"/>
     <use xlink:href="#md353e3ff6c" x="125.18264" y="69.66606" style="fill: #0000ff; fill-opacity: 0.5"/>
     <use xlink:href="#md353e3ff6c" x="128.875845" y="69.27674" style="fill: #0000ff; fill-opacity: 0.5"/>
     <use xlink:href="#md353e3ff6c" x="132.56905" y="68.405892" style="fill: #0000ff; fill-opacity: 0.5"/>
     <use xlink:href="#md353e3ff6c" x="136.262254" y="67.373938" style="fill: #0000ff; fill-opacity: 0.5"/>
     <use xlink:href="#md353e3ff6c" x="139.955459" y="66.676637" style="fill: #0000ff; fill-opacity: 0.5"/>
     <use xlink:href="#md353e3ff6c" x="143.648664" y="65.591471" style="fill: #0000ff; fill-opacity: 0.5"/>
     <use xlink:href="#md353e3ff6c" x="147.341869" y="64.816485" style="fill: #0000ff; fill-opacity: 0.5"/>
     <use xlink:href="#md353e3ff6c" x="151.035073" y="64.726561" style="fill: #0000ff; fill-opacity: 0.5"/>
     <use xlink:href="#md353e3ff6c" x="154.728278" y="64.048171" style="fill: #0000ff; fill-opacity: 0.5"/>
     <use xlink:href="#md353e3ff6c" x="158.421483" y="63.231047" style="fill: #0000ff; fill-opacity: 0.5"/>
     <use xlink:href="#md353e3ff6c" x="162.114688" y="62.474452" style="fill: #0000ff; fill-opacity: 0.5"/>
     <use xlink:href="#md353e3ff6c" x="165.807893" y="61.771899" style="fill: #0000ff; fill-opacity: 0.5"/>
     <use xlink:href="#md353e3ff6c" x="169.501097" y="61.117798" style="fill: #0000ff; fill-opacity: 0.5"/>
     <use xlink:href="#md353e3ff6c" x="173.194302" y="60.507304" style="fill: #0000ff; fill-opacity: 0.5"/>
     <use xlink:href="#md353e3ff6c" x="176.887507" y="60.09632" style="fill: #0000ff; fill-opacity: 0.5"/>
     <use xlink:href="#md353e3ff6c" x="180.580712" y="59.555903" style="fill: #0000ff; fill-opacity: 0.5"/>
     <use xlink:href="#md353e3ff6c" x="184.273916" y="59.198658" style="fill: #0000ff; fill-opacity: 0.5"/>
     <use xlink:href="#md353e3ff6c" x="187.967121" y="58.862427" style="fill: #0000ff; fill-opacity: 0.5"/>
     <use xlink:href="#md353e3ff6c" x="191.660326" y="58.545409" style="fill: #0000ff; fill-opacity: 0.5"/>
     <use xlink:href="#md353e3ff6c" x="195.353531" y="58.246003" style="fill: #0000ff; fill-opacity: 0.5"/>
     <use xlink:href="#md353e3ff6c" x="199.046736" y="57.828624" style="fill: #0000ff; fill-opacity: 0.5"/>
     <use xlink:href="#md353e3ff6c" x="202.73994" y="57.563839" style="fill: #0000ff; fill-opacity: 0.5"/>
     <use xlink:href="#md353e3ff6c" x="206.433145" y="57.185355" style="fill: #0000ff; fill-opacity: 0.5"/>
     <use xlink:href="#md353e3ff6c" x="210.12635" y="56.825796" style="fill: #0000ff; fill-opacity: 0.5"/>
     <use xlink:href="#md353e3ff6c" x="213.819555" y="56.483776" style="fill: #0000ff; fill-opacity: 0.5"/>
     <use xlink:href="#md353e3ff6c" x="217.512759" y="56.158042" style="fill: #0000ff; fill-opacity: 0.5"/>
     <use xlink:href="#md353e3ff6c" x="221.205964" y="55.847459" style="fill: #0000ff; fill-opacity: 0.5"/>
     <use xlink:href="#md353e3ff6c" x="224.899169" y="55.550994" style="fill: #0000ff; fill-opacity: 0.5"/>
     <use xlink:href="#md353e3ff6c" x="228.592374" y="55.267704" style="fill: #0000ff; fill-opacity: 0.5"/>
     <use xlink:href="#md353e3ff6c" x="232.285579" y="54.996732" style="fill: #0000ff; fill-opacity: 0.5"/>
     <use xlink:href="#md353e3ff6c" x="235.978783" y="54.73729" style="fill: #0000ff; fill-opacity: 0.5"/>
     <use xlink:href="#md353e3ff6c" x="239.671988" y="54.488658" style="fill: #0000ff; fill-opacity: 0.5"/>
     <use xlink:href="#md353e3ff6c" x="243.365193" y="54.250175" style="fill: #0000ff; fill-opacity: 0.5"/>
     <use xlink:href="#md353e3ff6c" x="247.058398" y="54.120508" style="fill: #0000ff; fill-opacity: 0.5"/>
     <use xlink:href="#md353e3ff6c" x="250.751602" y="53.898595" style="fill: #0000ff; fill-opacity: 0.5"/>
     <use xlink:href="#md353e3ff6c" x="254.444807" y="53.685218" style="fill: #0000ff; fill-opacity: 0.5"/>
     <use xlink:href="#md353e3ff6c" x="258.138012" y="53.667207" style="fill: #0000ff; fill-opacity: 0.5"/>
     <use xlink:href="#md353e3ff6c" x="261.831217" y="53.466017" style="fill: #0000ff; fill-opacity: 0.5"/>
     <use xlink:href="#md353e3ff6c" x="265.524421" y="53.272144" style="fill: #0000ff; fill-opacity: 0.5"/>
     <use xlink:href="#md353e3ff6c" x="269.217626" y="53.085194" style="fill: #0000ff; fill-opacity: 0.5"/>
     <use xlink:href="#md353e3ff6c" x="272.910831" y="52.904804" style="fill: #0000ff; fill-opacity: 0.5"/>
     <use xlink:href="#md353e3ff6c" x="276.604036" y="52.730635" style="fill: #0000ff; fill-opacity: 0.5"/>
     <use xlink:href="#md353e3ff6c" x="280.297241" y="52.562369" style="fill: #0000ff; fill-opacity: 0.5"/>
     <use xlink:href="#md353e3ff6c" x="283.990445" y="52.399713" style="fill: #0000ff; fill-opacity: 0.5"/>
     <use xlink:href="#md353e3ff6c" x="287.68365" y="52.242389" style="fill: #0000ff; fill-opacity: 0.5"/>
     <use xlink:href="#md353e3ff6c" x="291.376855" y="52.09014" style="fill: #0000ff; fill-opacity: 0.5"/>
     <use xlink:href="#md353e3ff6c" x="295.07006" y="51.942725" style="fill: #0000ff; fill-opacity: 0.5"/>
     <use xlink:href="#md353e3ff6c" x="298.763264" y="51.955036" style="fill: #0000ff; fill-opacity: 0.5"/>
     <use xlink:href="#md353e3ff6c" x="302.456469" y="51.814235" style="fill: #0000ff; fill-opacity: 0.5"/>
     <use xlink:href="#md353e3ff6c" x="306.149674" y="51.75291" style="fill: #0000ff; fill-opacity: 0.5"/>
     <use xlink:href="#md353e3ff6c" x="309.842879" y="51.619329" style="fill: #0000ff; fill-opacity: 0.5"/>
     <use xlink:href="#md353e3ff6c" x="313.536084" y="51.489677" style="fill: #0000ff; fill-opacity: 0.5"/>
     <use xlink:href="#md353e3ff6c" x="317.229288" y="51.363783" style="fill: #0000ff; fill-opacity: 0.5"/>
     <use xlink:href="#md353e3ff6c" x="320.922493" y="51.241485" style="fill: #0000ff; fill-opacity: 0.5"/>
     <use xlink:href="#md353e3ff6c" x="324.615698" y="51.192546" style="fill: #0000ff; fill-opacity: 0.5"/>
     <use xlink:href="#md353e3ff6c" x="328.308903" y="51.213908" style="fill: #0000ff; fill-opacity: 0.5"/>
     <use xlink:href="#md353e3ff6c" x="332.002107" y="51.166688" style="fill: #0000ff; fill-opacity: 0.5"/>
     <use xlink:href="#md353e3ff6c" x="335.695312" y="51.120743" style="fill: #0000ff; fill-opacity: 0.5"/>
     <use xlink:href="#md353e3ff6c" x="339.388517" y="51.00984" style="fill: #0000ff; fill-opacity: 0.5"/>
     <use xlink:href="#md353e3ff6c" x="343.081722" y="50.967168" style="fill: #0000ff; fill-opacity: 0.5"/>
     <use xlink:href="#md353e3ff6c" x="346.774927" y="50.86114" style="fill: #0000ff; fill-opacity: 0.5"/>
     <use xlink:href="#md353e3ff6c" x="350.468131" y="50.821469" style="fill: #0000ff; fill-opacity: 0.5"/>
     <use xlink:href="#md353e3ff6c" x="354.161336" y="50.719969" style="fill: #0000ff; fill-opacity: 0.5"/>
     <use xlink:href="#md353e3ff6c" x="357.854541" y="50.621006" style="fill: #0000ff; fill-opacity: 0.5"/>
     <use xlink:href="#md353e3ff6c" x="361.547746" y="50.524487" style="fill: #0000ff; fill-opacity: 0.5"/>
     <use xlink:href="#md353e3ff6c" x="365.24095" y="50.490857" style="fill: #0000ff; fill-opacity: 0.5"/>
     <use xlink:href="#md353e3ff6c" x="368.934155" y="50.398232" style="fill: #0000ff; fill-opacity: 0.5"/>
     <use xlink:href="#md353e3ff6c" x="372.62736" y="50.307812" style="fill: #0000ff; fill-opacity: 0.5"/>
     <use xlink:href="#md353e3ff6c" x="376.320565" y="50.277918" style="fill: #0000ff; fill-opacity: 0.5"/>
     <use xlink:href="#md353e3ff6c" x="380.01377" y="50.191" style="fill: #0000ff; fill-opacity: 0.5"/>
     <use xlink:href="#md353e3ff6c" x="383.706974" y="50.10608" style="fill: #0000ff; fill-opacity: 0.5"/>
     <use xlink:href="#md353e3ff6c" x="387.400179" y="50.135905" style="fill: #0000ff; fill-opacity: 0.5"/>
     <use xlink:href="#md353e3ff6c" x="391.093384" y="50.053512" style="fill: #0000ff; fill-opacity: 0.5"/>
     <use xlink:href="#md353e3ff6c" x="394.786589" y="49.972951" style="fill: #0000ff; fill-opacity: 0.5"/>
     <use xlink:href="#md353e3ff6c" x="398.479793" y="49.89416" style="fill: #0000ff; fill-opacity: 0.5"/>
     <use xlink:href="#md353e3ff6c" x="402.172998" y="49.817081" style="fill: #0000ff; fill-opacity: 0.5"/>
     <use xlink:href="#md353e3ff6c" x="405.866203" y="49.84841" style="fill: #0000ff; fill-opacity: 0.5"/>
     <use xlink:href="#md353e3ff6c" x="409.559408" y="49.826265" style="fill: #0000ff; fill-opacity: 0.5"/>
     <use xlink:href="#md353e3ff6c" x="413.252612" y="49.752336" style="fill: #0000ff; fill-opacity: 0.5"/>
     <use xlink:href="#md353e3ff6c" x="416.945817" y="49.679947" style="fill: #0000ff; fill-opacity: 0.5"/>
     <use xlink:href="#md353e3ff6c" x="420.639022" y="49.60905" style="fill: #0000ff; fill-opacity: 0.5"/>
     <use xlink:href="#md353e3ff6c" x="424.332227" y="49.640903" style="fill: #0000ff; fill-opacity: 0.5"/>
     <use xlink:href="#md353e3ff6c" x="428.025432" y="49.621973" style="fill: #0000ff; fill-opacity: 0.5"/>
     <use xlink:href="#md353e3ff6c" x="431.718636" y="49.553783" style="fill: #0000ff; fill-opacity: 0.5"/>
    </g>
   </g>
   <g id="line2d_15">
    <path d="M 47.81 290.994545 
L 450 290.994545 
" clip-path="url(#p215e50d5a8)" style="fill: none; stroke-dasharray: 0.555,0.24; stroke-dashoffset: 0; stroke: #ff0000; stroke-width: 0.15"/>
   </g>
   <g id="line2d_16">
    <path d="M 47.81 166.898759 
L 450 166.898759 
" clip-path="url(#p215e50d5a8)" style="fill: none; stroke-dasharray: 0.555,0.24; stroke-dashoffset: 0; stroke: #ff0000; stroke-width: 0.15"/>
   </g>
   <g id="line2d_17">
    <path d="M 47.81 42.802972 
L 450 42.802972 
" clip-path="url(#p215e50d5a8)" style="fill: none; stroke-dasharray: 0.555,0.24; stroke-dashoffset: 0; stroke: #ff0000; stroke-width: 0.15"/>
   </g>
   <g id="patch_3">
    <path d="M 47.81 303.64 
L 47.81 25.44 
" style="fill: none; stroke: #000000; stroke-width: 0.8; stroke-linejoin: miter; stroke-linecap: square"/>
   </g>
   <g id="patch_4">
    <path d="M 450 303.64 
L 450 25.44 
" style="fill: none; stroke: #000000; stroke-width: 0.8; stroke-linejoin: miter; stroke-linecap: square"/>
   </g>
   <g id="patch_5">
    <path d="M 47.81 303.64 
L 450 303.64 
" style="fill: none; stroke: #000000; stroke-width: 0.8; stroke-linejoin: miter; stroke-linecap: square"/>
   </g>
   <g id="patch_6">
    <path d="M 47.81 25.44 
L 450 25.44 
" style="fill: none; stroke: #000000; stroke-width: 0.8; stroke-linejoin: miter; stroke-linecap: square"/>
   </g>
   <g id="text_15">
    <!-- Average action - 20240409113845 - 50 games -->
    <g transform="translate(108.798438 19.44) scale(0.12 -0.12)">
     <defs>
      <path id="DejaVuSans-2d" d="M 313 2009 
L 1997 2009 
L 1997 1497 
L 313 1497 
L 313 2009 
z
" transform="scale(0.015625)"/>
      <path id="DejaVuSans-39" d="M 703 97 
L 703 672 
Q 941 559 1184 500 
Q 1428 441 1663 441 
Q 2288 441 2617 861 
Q 2947 1281 2994 2138 
Q 2813 1869 2534 1725 
Q 2256 1581 1919 1581 
Q 1219 1581 811 2004 
Q 403 2428 403 3163 
Q 403 3881 828 4315 
Q 1253 4750 1959 4750 
Q 2769 4750 3195 4129 
Q 3622 3509 3622 2328 
Q 3622 1225 3098 567 
Q 2575 -91 1691 -91 
Q 1453 -91 1209 -44 
Q 966 3 703 97 
z
M 1959 2075 
Q 2384 2075 2632 2365 
Q 2881 2656 2881 3163 
Q 2881 3666 2632 3958 
Q 2384 4250 1959 4250 
Q 1534 4250 1286 3958 
Q 1038 3666 1038 3163 
Q 1038 2656 1286 2365 
Q 1534 2075 1959 2075 
z
" transform="scale(0.015625)"/>
      <path id="DejaVuSans-33" d="M 2597 2516 
Q 3050 2419 3304 2112 
Q 3559 1806 3559 1356 
Q 3559 666 3084 287 
Q 2609 -91 1734 -91 
Q 1441 -91 1130 -33 
Q 819 25 488 141 
L 488 750 
Q 750 597 1062 519 
Q 1375 441 1716 441 
Q 2309 441 2620 675 
Q 2931 909 2931 1356 
Q 2931 1769 2642 2001 
Q 2353 2234 1838 2234 
L 1294 2234 
L 1294 2753 
L 1863 2753 
Q 2328 2753 2575 2939 
Q 2822 3125 2822 3475 
Q 2822 3834 2567 4026 
Q 2313 4219 1838 4219 
Q 1578 4219 1281 4162 
Q 984 4106 628 3988 
L 628 4550 
Q 988 4650 1302 4700 
Q 1616 4750 1894 4750 
Q 2613 4750 3031 4423 
Q 3450 4097 3450 3541 
Q 3450 3153 3228 2886 
Q 3006 2619 2597 2516 
z
" transform="scale(0.015625)"/>
      <path id="DejaVuSans-35" d="M 691 4666 
L 3169 4666 
L 3169 4134 
L 1269 4134 
L 1269 2991 
Q 1406 3038 1543 3061 
Q 1681 3084 1819 3084 
Q 2600 3084 3056 2656 
Q 3513 2228 3513 1497 
Q 3513 744 3044 326 
Q 2575 -91 1722 -91 
Q 1428 -91 1123 -41 
Q 819 9 494 109 
L 494 744 
Q 775 591 1075 516 
Q 1375 441 1709 441 
Q 2250 441 2565 725 
Q 2881 1009 2881 1497 
Q 2881 1984 2565 2268 
Q 2250 2553 1709 2553 
Q 1456 2553 1204 2497 
Q 953 2441 691 2322 
L 691 4666 
z
" transform="scale(0.015625)"/>
      <path id="DejaVuSans-6d" d="M 3328 2828 
Q 3544 3216 3844 3400 
Q 4144 3584 4550 3584 
Q 5097 3584 5394 3201 
Q 5691 2819 5691 2113 
L 5691 0 
L 5113 0 
L 5113 2094 
Q 5113 2597 4934 2840 
Q 4756 3084 4391 3084 
Q 3944 3084 3684 2787 
Q 3425 2491 3425 1978 
L 3425 0 
L 2847 0 
L 2847 2094 
Q 2847 2600 2669 2842 
Q 2491 3084 2119 3084 
Q 1678 3084 1418 2786 
Q 1159 2488 1159 1978 
L 1159 0 
L 581 0 
L 581 3500 
L 1159 3500 
L 1159 2956 
Q 1356 3278 1631 3431 
Q 1906 3584 2284 3584 
Q 2666 3584 2933 3390 
Q 3200 3197 3328 2828 
z
" transform="scale(0.015625)"/>
      <path id="DejaVuSans-73" d="M 2834 3397 
L 2834 2853 
Q 2591 2978 2328 3040 
Q 2066 3103 1784 3103 
Q 1356 3103 1142 2972 
Q 928 2841 928 2578 
Q 928 2378 1081 2264 
Q 1234 2150 1697 2047 
L 1894 2003 
Q 2506 1872 2764 1633 
Q 3022 1394 3022 966 
Q 3022 478 2636 193 
Q 2250 -91 1575 -91 
Q 1294 -91 989 -36 
Q 684 19 347 128 
L 347 722 
Q 666 556 975 473 
Q 1284 391 1588 391 
Q 1994 391 2212 530 
Q 2431 669 2431 922 
Q 2431 1156 2273 1281 
Q 2116 1406 1581 1522 
L 1381 1569 
Q 847 1681 609 1914 
Q 372 2147 372 2553 
Q 372 3047 722 3315 
Q 1072 3584 1716 3584 
Q 2034 3584 2315 3537 
Q 2597 3491 2834 3397 
z
" transform="scale(0.015625)"/>
     </defs>
     <use xlink:href="#DejaVuSans-41"/>
     <use xlink:href="#DejaVuSans-76" x="62.533203"/>
     <use xlink:href="#DejaVuSans-65" x="121.712891"/>
     <use xlink:href="#DejaVuSans-72" x="183.236328"/>
     <use xlink:href="#DejaVuSans-61" x="224.349609"/>
     <use xlink:href="#DejaVuSans-67" x="285.628906"/>
     <use xlink:href="#DejaVuSans-65" x="349.105469"/>
     <use xlink:href="#DejaVuSans-20" x="410.628906"/>
     <use xlink:href="#DejaVuSans-61" x="442.416016"/>
     <use xlink:href="#DejaVuSans-63" x="503.695312"/>
     <use xlink:href="#DejaVuSans-74" x="558.675781"/>
     <use xlink:href="#DejaVuSans-69" x="597.884766"/>
     <use xlink:href="#DejaVuSans-6f" x="625.667969"/>
     <use xlink:href="#DejaVuSans-6e" x="686.849609"/>
     <use xlink:href="#DejaVuSans-20" x="750.228516"/>
     <use xlink:href="#DejaVuSans-2d" x="782.015625"/>
     <use xlink:href="#DejaVuSans-20" x="818.099609"/>
     <use xlink:href="#DejaVuSans-32" x="849.886719"/>
     <use xlink:href="#DejaVuSans-30" x="913.509766"/>
     <use xlink:href="#DejaVuSans-32" x="977.132812"/>
     <use xlink:href="#DejaVuSans-34" x="1040.755859"/>
     <use xlink:href="#DejaVuSans-30" x="1104.378906"/>
     <use xlink:href="#DejaVuSans-34" x="1168.001953"/>
     <use xlink:href="#DejaVuSans-30" x="1231.625"/>
     <use xlink:href="#DejaVuSans-39" x="1295.248047"/>
     <use xlink:href="#DejaVuSans-31" x="1358.871094"/>
     <use xlink:href="#DejaVuSans-31" x="1422.494141"/>
     <use xlink:href="#DejaVuSans-33" x="1486.117188"/>
     <use xlink:href="#DejaVuSans-38" x="1549.740234"/>
     <use xlink:href="#DejaVuSans-34" x="1613.363281"/>
     <use xlink:href="#DejaVuSans-35" x="1676.986328"/>
     <use xlink:href="#DejaVuSans-20" x="1740.609375"/>
     <use xlink:href="#DejaVuSans-2d" x="1772.396484"/>
     <use xlink:href="#DejaVuSans-20" x="1808.480469"/>
     <use xlink:href="#DejaVuSans-35" x="1840.267578"/>
     <use xlink:href="#DejaVuSans-30" x="1903.890625"/>
     <use xlink:href="#DejaVuSans-20" x="1967.513672"/>
     <use xlink:href="#DejaVuSans-67" x="1999.300781"/>
     <use xlink:href="#DejaVuSans-61" x="2062.777344"/>
     <use xlink:href="#DejaVuSans-6d" x="2124.056641"/>
     <use xlink:href="#DejaVuSans-65" x="2221.46875"/>
     <use xlink:href="#DejaVuSans-73" x="2282.992188"/>
    </g>
   </g>
   <g id="legend_1">
    <g id="patch_7">
     <path d="M 359.690625 298.64 
L 443 298.64 
Q 445 298.64 445 296.64 
L 445 268.28375 
Q 445 266.28375 443 266.28375 
L 359.690625 266.28375 
Q 357.690625 266.28375 357.690625 268.28375 
L 357.690625 296.64 
Q 357.690625 298.64 359.690625 298.64 
z
" style="fill: #ffffff; opacity: 0.8; stroke: #cccccc; stroke-linejoin: miter"/>
    </g>
    <g id="line2d_18">
     <path d="M 361.690625 274.382187 
L 371.690625 274.382187 
L 381.690625 274.382187 
" style="fill: none; stroke: #0000ff; stroke-linecap: square"/>
     <g>
      <use xlink:href="#m0ca02c8551" x="371.690625" y="274.382187" style="fill: #0000ff"/>
     </g>
    </g>
    <g id="text_16">
     <!-- LLM -->
     <g transform="translate(389.690625 277.882187) scale(0.1 -0.1)">
      <defs>
       <path id="DejaVuSans-4c" d="M 628 4666 
L 1259 4666 
L 1259 531 
L 3531 531 
L 3531 0 
L 628 0 
L 628 4666 
z
" transform="scale(0.015625)"/>
       <path id="DejaVuSans-4d" d="M 628 4666 
L 1569 4666 
L 2759 1491 
L 3956 4666 
L 4897 4666 
L 4897 0 
L 4281 0 
L 4281 4097 
L 3078 897 
L 2444 897 
L 1241 4097 
L 1241 0 
L 628 0 
L 628 4666 
z
" transform="scale(0.015625)"/>
      </defs>
      <use xlink:href="#DejaVuSans-4c"/>
      <use xlink:href="#DejaVuSans-4c" x="55.712891"/>
      <use xlink:href="#DejaVuSans-4d" x="111.425781"/>
     </g>
    </g>
    <g id="line2d_19">
     <path d="M 361.690625 289.060312 
L 371.690625 289.060312 
L 381.690625 289.060312 
" style="fill: none; stroke: #0000ff; stroke-opacity: 0.5; stroke-width: 0.5; stroke-linecap: square"/>
     <g>
      <use xlink:href="#md353e3ff6c" x="371.690625" y="289.060312" style="fill: #0000ff; fill-opacity: 0.5"/>
     </g>
    </g>
    <g id="text_17">
     <!-- LLM mean -->
     <g transform="translate(389.690625 292.560312) scale(0.1 -0.1)">
      <use xlink:href="#DejaVuSans-4c"/>
      <use xlink:href="#DejaVuSans-4c" x="55.712891"/>
      <use xlink:href="#DejaVuSans-4d" x="111.425781"/>
      <use xlink:href="#DejaVuSans-20" x="197.705078"/>
      <use xlink:href="#DejaVuSans-6d" x="229.492188"/>
      <use xlink:href="#DejaVuSans-65" x="326.904297"/>
      <use xlink:href="#DejaVuSans-61" x="388.427734"/>
      <use xlink:href="#DejaVuSans-6e" x="449.707031"/>
     </g>
    </g>
   </g>
  </g>
 </g>
 <defs>
  <clipPath id="p215e50d5a8">
   <rect x="47.81" y="25.44" width="402.19" height="278.2"/>
  </clipPath>
 </defs>
</svg>
