<?xml version="1.0" encoding="utf-8" standalone="no"?>
<!DOCTYPE svg PUBLIC "-//W3C//DTD SVG 1.1//EN"
  "http://www.w3.org/Graphics/SVG/1.1/DTD/svg11.dtd">
<svg xmlns:xlink="http://www.w3.org/1999/xlink" width="460.8pt" height="345.6pt" viewBox="0 0 460.8 345.6" xmlns="http://www.w3.org/2000/svg" version="1.1">
 <metadata>
  <rdf:RDF xmlns:dc="http://purl.org/dc/elements/1.1/" xmlns:cc="http://creativecommons.org/ns#" xmlns:rdf="http://www.w3.org/1999/02/22-rdf-syntax-ns#">
   <cc:Work>
    <dc:type rdf:resource="http://purl.org/dc/dcmitype/StillImage"/>
    <dc:date>2024-04-24T09:33:08.331605</dc:date>
    <dc:format>image/svg+xml</dc:format>
    <dc:creator>
     <cc:Agent>
      <dc:title>Matplotlib v3.8.0, https://matplotlib.org/</dc:title>
     </cc:Agent>
    </dc:creator>
   </cc:Work>
  </rdf:RDF>
 </metadata>
 <defs>
  <style type="text/css">*{stroke-linejoin: round; stroke-linecap: butt}</style>
 </defs>
 <g id="figure_1">
  <g id="patch_1">
   <path d="M 0 345.6 
L 460.8 345.6 
L 460.8 0 
L 0 0 
z
" style="fill: #ffffff"/>
  </g>
  <g id="axes_1">
   <g id="patch_2">
    <path d="M 47.81 303.64 
L 450 303.64 
L 450 25.44 
L 47.81 25.44 
z
" style="fill: #ffffff"/>
   </g>
   <g id="PolyCollection_1">
    <defs>
     <path id="m4c84dd29ff" d="M 66.091364 -274.636364 
L 66.091364 -274.636364 
L 69.822254 -279.874282 
L 73.553145 -272.64117 
L 77.284035 -267.369121 
L 81.014926 -263.271801 
L 84.745816 -260.024768 
L 88.476707 -257.372235 
L 92.207597 -255.152382 
L 95.938488 -253.033592 
L 99.669378 -251.087217 
L 103.400269 -249.28742 
L 107.13116 -247.634003 
L 110.86205 -246.119388 
L 114.592941 -244.709941 
L 118.323831 -243.375662 
L 122.054722 -242.121961 
L 125.785612 -240.941184 
L 129.516503 -239.829353 
L 133.247393 -238.771377 
L 136.978284 -237.765548 
L 140.709174 -236.804805 
L 144.440065 -235.888764 
L 148.170955 -235.013471 
L 151.901846 -234.176565 
L 155.632737 -233.374776 
L 159.363627 -232.605596 
L 163.094518 -231.864236 
L 166.825408 -231.150833 
L 170.556299 -230.463852 
L 174.287189 -229.801535 
L 178.01808 -229.162175 
L 181.74897 -228.544605 
L 185.479861 -227.9494 
L 189.210751 -227.373747 
L 192.941642 -226.81986 
L 196.672532 -226.284353 
L 200.403423 -225.767104 
L 204.134314 -225.266061 
L 207.865204 -224.782125 
L 211.596095 -224.31217 
L 215.326985 -223.854945 
L 219.057876 -223.409377 
L 222.788766 -222.976378 
L 226.519657 -222.554542 
L 230.250547 -222.145171 
L 233.981438 -221.746149 
L 237.712328 -221.356619 
L 241.443219 -220.977073 
L 245.174109 -220.607491 
L 248.905 -220.245849 
L 252.635891 -219.892008 
L 256.366781 -219.546886 
L 260.097672 -219.210723 
L 263.828562 -218.883129 
L 267.559453 -218.561745 
L 271.290343 -218.246244 
L 275.021234 -217.937131 
L 278.752124 -217.63499 
L 282.483015 -217.339769 
L 286.213905 -217.049719 
L 289.944796 -216.765064 
L 293.675686 -216.487155 
L 297.406577 -216.215628 
L 301.137468 -215.950054 
L 304.868358 -215.68912 
L 308.599249 -215.434354 
L 312.330139 -215.185506 
L 316.06103 -214.940503 
L 319.79192 -214.699526 
L 323.522811 -214.462207 
L 327.253701 -214.229563 
L 330.984592 -214.00147 
L 334.715482 -213.777052 
L 338.446373 -213.557181 
L 342.177263 -213.340882 
L 345.908154 -213.128171 
L 349.639045 -212.919658 
L 353.369935 -212.713722 
L 357.100826 -212.511416 
L 360.831716 -212.312646 
L 364.562607 -212.117547 
L 368.293497 -211.925363 
L 372.024388 -211.736234 
L 375.755278 -211.550727 
L 379.486169 -211.368112 
L 383.217059 -211.188104 
L 386.94795 -211.011156 
L 390.67884 -210.836987 
L 394.409731 -210.665839 
L 398.140622 -210.497644 
L 401.871512 -210.332024 
L 405.602403 -210.16912 
L 409.333293 -210.009076 
L 413.064184 -209.851214 
L 416.795074 -209.695985 
L 420.525965 -209.544158 
L 424.256855 -209.394225 
L 427.987746 -209.246652 
L 431.718636 -209.102521 
L 431.718636 -178.218947 
L 431.718636 -178.218947 
L 427.987746 -178.258984 
L 424.256855 -178.305541 
L 420.525965 -178.354167 
L 416.795074 -178.402698 
L 413.064184 -178.457566 
L 409.333293 -178.515342 
L 405.602403 -178.573725 
L 401.871512 -178.635712 
L 398.140622 -178.700464 
L 394.409731 -178.767054 
L 390.67884 -178.837176 
L 386.94795 -178.91101 
L 383.217059 -178.987035 
L 379.486169 -179.066508 
L 375.755278 -179.146587 
L 372.024388 -179.228482 
L 368.293497 -179.316054 
L 364.562607 -179.405717 
L 360.831716 -179.496197 
L 357.100826 -179.591601 
L 353.369935 -179.690785 
L 349.639045 -179.793935 
L 345.908154 -179.893755 
L 342.177263 -179.999893 
L 338.446373 -180.107977 
L 334.715482 -180.217233 
L 330.984592 -180.333503 
L 327.253701 -180.4503 
L 323.522811 -180.572881 
L 319.79192 -180.701585 
L 316.06103 -180.828217 
L 312.330139 -180.954427 
L 308.599249 -181.078049 
L 304.868358 -181.212088 
L 301.137468 -181.358429 
L 297.406577 -181.504625 
L 293.675686 -181.659667 
L 289.944796 -181.826582 
L 286.213905 -182.008822 
L 282.483015 -182.19196 
L 278.752124 -182.371784 
L 275.021234 -182.562963 
L 271.290343 -182.764898 
L 267.559453 -182.96929 
L 263.828562 -183.168259 
L 260.097672 -183.362564 
L 256.366781 -183.571261 
L 252.635891 -183.797333 
L 248.905 -184.036847 
L 245.174109 -184.275533 
L 241.443219 -184.510819 
L 237.712328 -184.760279 
L 233.981438 -185.020718 
L 230.250547 -185.281523 
L 226.519657 -185.546755 
L 222.788766 -185.836008 
L 219.057876 -186.128228 
L 215.326985 -186.433827 
L 211.596095 -186.733603 
L 207.865204 -187.031792 
L 204.134314 -187.333389 
L 200.403423 -187.664216 
L 196.672532 -188.006464 
L 192.941642 -188.375445 
L 189.210751 -188.762012 
L 185.479861 -189.214596 
L 181.74897 -189.678504 
L 178.01808 -190.212944 
L 174.287189 -190.780469 
L 170.556299 -191.366634 
L 166.825408 -191.977446 
L 163.094518 -192.627053 
L 159.363627 -193.326272 
L 155.632737 -194.129058 
L 151.901846 -194.905074 
L 148.170955 -195.696672 
L 144.440065 -196.519623 
L 140.709174 -197.428814 
L 136.978284 -198.387691 
L 133.247393 -199.481363 
L 129.516503 -200.626753 
L 125.785612 -201.891377 
L 122.054722 -203.133063 
L 118.323831 -204.471091 
L 114.592941 -205.936204 
L 110.86205 -207.69568 
L 107.13116 -209.509897 
L 103.400269 -211.245237 
L 99.669378 -213.216887 
L 95.938488 -215.655251 
L 92.207597 -218.497516 
L 88.476707 -222.274791 
L 84.745816 -225.360313 
L 81.014926 -227.882417 
L 77.284035 -231.005651 
L 73.553145 -236.166102 
L 69.822254 -244.107536 
L 66.091364 -274.636364 
z
" style="stroke: #ff0000; stroke-opacity: 0.2"/>
    </defs>
    <g clip-path="url(#pb9f07ea346)">
     <use xlink:href="#m4c84dd29ff" x="0" y="345.6" style="fill: #ff0000; fill-opacity: 0.2; stroke: #ff0000; stroke-opacity: 0.2"/>
    </g>
   </g>
   <g id="matplotlib.axis_1">
    <g id="xtick_1">
     <g id="line2d_1">
      <defs>
       <path id="m652510b2a4" d="M 0 0 
L 0 3.5 
" style="stroke: #000000; stroke-width: 0.8"/>
      </defs>
      <g>
       <use xlink:href="#m652510b2a4" x="66.091364" y="303.64" style="stroke: #000000; stroke-width: 0.8"/>
      </g>
     </g>
     <g id="text_1">
      <!-- 0 -->
      <g transform="translate(62.910114 318.238437) scale(0.1 -0.1)">
       <defs>
        <path id="DejaVuSans-30" d="M 2034 4250 
Q 1547 4250 1301 3770 
Q 1056 3291 1056 2328 
Q 1056 1369 1301 889 
Q 1547 409 2034 409 
Q 2525 409 2770 889 
Q 3016 1369 3016 2328 
Q 3016 3291 2770 3770 
Q 2525 4250 2034 4250 
z
M 2034 4750 
Q 2819 4750 3233 4129 
Q 3647 3509 3647 2328 
Q 3647 1150 3233 529 
Q 2819 -91 2034 -91 
Q 1250 -91 836 529 
Q 422 1150 422 2328 
Q 422 3509 836 4129 
Q 1250 4750 2034 4750 
z
" transform="scale(0.015625)"/>
       </defs>
       <use xlink:href="#DejaVuSans-30"/>
      </g>
     </g>
    </g>
    <g id="xtick_2">
     <g id="line2d_2">
      <g>
       <use xlink:href="#m652510b2a4" x="140.709174" y="303.64" style="stroke: #000000; stroke-width: 0.8"/>
      </g>
     </g>
     <g id="text_2">
      <!-- 20 -->
      <g transform="translate(134.346674 318.238437) scale(0.1 -0.1)">
       <defs>
        <path id="DejaVuSans-32" d="M 1228 531 
L 3431 531 
L 3431 0 
L 469 0 
L 469 531 
Q 828 903 1448 1529 
Q 2069 2156 2228 2338 
Q 2531 2678 2651 2914 
Q 2772 3150 2772 3378 
Q 2772 3750 2511 3984 
Q 2250 4219 1831 4219 
Q 1534 4219 1204 4116 
Q 875 4013 500 3803 
L 500 4441 
Q 881 4594 1212 4672 
Q 1544 4750 1819 4750 
Q 2544 4750 2975 4387 
Q 3406 4025 3406 3419 
Q 3406 3131 3298 2873 
Q 3191 2616 2906 2266 
Q 2828 2175 2409 1742 
Q 1991 1309 1228 531 
z
" transform="scale(0.015625)"/>
       </defs>
       <use xlink:href="#DejaVuSans-32"/>
       <use xlink:href="#DejaVuSans-30" x="63.623047"/>
      </g>
     </g>
    </g>
    <g id="xtick_3">
     <g id="line2d_3">
      <g>
       <use xlink:href="#m652510b2a4" x="215.326985" y="303.64" style="stroke: #000000; stroke-width: 0.8"/>
      </g>
     </g>
     <g id="text_3">
      <!-- 40 -->
      <g transform="translate(208.964485 318.238437) scale(0.1 -0.1)">
       <defs>
        <path id="DejaVuSans-34" d="M 2419 4116 
L 825 1625 
L 2419 1625 
L 2419 4116 
z
M 2253 4666 
L 3047 4666 
L 3047 1625 
L 3713 1625 
L 3713 1100 
L 3047 1100 
L 3047 0 
L 2419 0 
L 2419 1100 
L 313 1100 
L 313 1709 
L 2253 4666 
z
" transform="scale(0.015625)"/>
       </defs>
       <use xlink:href="#DejaVuSans-34"/>
       <use xlink:href="#DejaVuSans-30" x="63.623047"/>
      </g>
     </g>
    </g>
    <g id="xtick_4">
     <g id="line2d_4">
      <g>
       <use xlink:href="#m652510b2a4" x="289.944796" y="303.64" style="stroke: #000000; stroke-width: 0.8"/>
      </g>
     </g>
     <g id="text_4">
      <!-- 60 -->
      <g transform="translate(283.582296 318.238437) scale(0.1 -0.1)">
       <defs>
        <path id="DejaVuSans-36" d="M 2113 2584 
Q 1688 2584 1439 2293 
Q 1191 2003 1191 1497 
Q 1191 994 1439 701 
Q 1688 409 2113 409 
Q 2538 409 2786 701 
Q 3034 994 3034 1497 
Q 3034 2003 2786 2293 
Q 2538 2584 2113 2584 
z
M 3366 4563 
L 3366 3988 
Q 3128 4100 2886 4159 
Q 2644 4219 2406 4219 
Q 1781 4219 1451 3797 
Q 1122 3375 1075 2522 
Q 1259 2794 1537 2939 
Q 1816 3084 2150 3084 
Q 2853 3084 3261 2657 
Q 3669 2231 3669 1497 
Q 3669 778 3244 343 
Q 2819 -91 2113 -91 
Q 1303 -91 875 529 
Q 447 1150 447 2328 
Q 447 3434 972 4092 
Q 1497 4750 2381 4750 
Q 2619 4750 2861 4703 
Q 3103 4656 3366 4563 
z
" transform="scale(0.015625)"/>
       </defs>
       <use xlink:href="#DejaVuSans-36"/>
       <use xlink:href="#DejaVuSans-30" x="63.623047"/>
      </g>
     </g>
    </g>
    <g id="xtick_5">
     <g id="line2d_5">
      <g>
       <use xlink:href="#m652510b2a4" x="364.562607" y="303.64" style="stroke: #000000; stroke-width: 0.8"/>
      </g>
     </g>
     <g id="text_5">
      <!-- 80 -->
      <g transform="translate(358.200107 318.238437) scale(0.1 -0.1)">
       <defs>
        <path id="DejaVuSans-38" d="M 2034 2216 
Q 1584 2216 1326 1975 
Q 1069 1734 1069 1313 
Q 1069 891 1326 650 
Q 1584 409 2034 409 
Q 2484 409 2743 651 
Q 3003 894 3003 1313 
Q 3003 1734 2745 1975 
Q 2488 2216 2034 2216 
z
M 1403 2484 
Q 997 2584 770 2862 
Q 544 3141 544 3541 
Q 544 4100 942 4425 
Q 1341 4750 2034 4750 
Q 2731 4750 3128 4425 
Q 3525 4100 3525 3541 
Q 3525 3141 3298 2862 
Q 3072 2584 2669 2484 
Q 3125 2378 3379 2068 
Q 3634 1759 3634 1313 
Q 3634 634 3220 271 
Q 2806 -91 2034 -91 
Q 1263 -91 848 271 
Q 434 634 434 1313 
Q 434 1759 690 2068 
Q 947 2378 1403 2484 
z
M 1172 3481 
Q 1172 3119 1398 2916 
Q 1625 2713 2034 2713 
Q 2441 2713 2670 2916 
Q 2900 3119 2900 3481 
Q 2900 3844 2670 4047 
Q 2441 4250 2034 4250 
Q 1625 4250 1398 4047 
Q 1172 3844 1172 3481 
z
" transform="scale(0.015625)"/>
       </defs>
       <use xlink:href="#DejaVuSans-38"/>
       <use xlink:href="#DejaVuSans-30" x="63.623047"/>
      </g>
     </g>
    </g>
    <g id="xtick_6">
     <g id="line2d_6">
      <g>
       <use xlink:href="#m652510b2a4" x="439.180417" y="303.64" style="stroke: #000000; stroke-width: 0.8"/>
      </g>
     </g>
     <g id="text_6">
      <!-- 100 -->
      <g transform="translate(429.636667 318.238437) scale(0.1 -0.1)">
       <defs>
        <path id="DejaVuSans-31" d="M 794 531 
L 1825 531 
L 1825 4091 
L 703 3866 
L 703 4441 
L 1819 4666 
L 2450 4666 
L 2450 531 
L 3481 531 
L 3481 0 
L 794 0 
L 794 531 
z
" transform="scale(0.015625)"/>
       </defs>
       <use xlink:href="#DejaVuSans-31"/>
       <use xlink:href="#DejaVuSans-30" x="63.623047"/>
       <use xlink:href="#DejaVuSans-30" x="127.246094"/>
      </g>
     </g>
    </g>
    <g id="text_7">
     <!-- Iteration -->
     <g transform="translate(227.696406 331.916562) scale(0.1 -0.1)">
      <defs>
       <path id="DejaVuSans-49" d="M 628 4666 
L 1259 4666 
L 1259 0 
L 628 0 
L 628 4666 
z
" transform="scale(0.015625)"/>
       <path id="DejaVuSans-74" d="M 1172 4494 
L 1172 3500 
L 2356 3500 
L 2356 3053 
L 1172 3053 
L 1172 1153 
Q 1172 725 1289 603 
Q 1406 481 1766 481 
L 2356 481 
L 2356 0 
L 1766 0 
Q 1100 0 847 248 
Q 594 497 594 1153 
L 594 3053 
L 172 3053 
L 172 3500 
L 594 3500 
L 594 4494 
L 1172 4494 
z
" transform="scale(0.015625)"/>
       <path id="DejaVuSans-65" d="M 3597 1894 
L 3597 1613 
L 953 1613 
Q 991 1019 1311 708 
Q 1631 397 2203 397 
Q 2534 397 2845 478 
Q 3156 559 3463 722 
L 3463 178 
Q 3153 47 2828 -22 
Q 2503 -91 2169 -91 
Q 1331 -91 842 396 
Q 353 884 353 1716 
Q 353 2575 817 3079 
Q 1281 3584 2069 3584 
Q 2775 3584 3186 3129 
Q 3597 2675 3597 1894 
z
M 3022 2063 
Q 3016 2534 2758 2815 
Q 2500 3097 2075 3097 
Q 1594 3097 1305 2825 
Q 1016 2553 972 2059 
L 3022 2063 
z
" transform="scale(0.015625)"/>
       <path id="DejaVuSans-72" d="M 2631 2963 
Q 2534 3019 2420 3045 
Q 2306 3072 2169 3072 
Q 1681 3072 1420 2755 
Q 1159 2438 1159 1844 
L 1159 0 
L 581 0 
L 581 3500 
L 1159 3500 
L 1159 2956 
Q 1341 3275 1631 3429 
Q 1922 3584 2338 3584 
Q 2397 3584 2469 3576 
Q 2541 3569 2628 3553 
L 2631 2963 
z
" transform="scale(0.015625)"/>
       <path id="DejaVuSans-61" d="M 2194 1759 
Q 1497 1759 1228 1600 
Q 959 1441 959 1056 
Q 959 750 1161 570 
Q 1363 391 1709 391 
Q 2188 391 2477 730 
Q 2766 1069 2766 1631 
L 2766 1759 
L 2194 1759 
z
M 3341 1997 
L 3341 0 
L 2766 0 
L 2766 531 
Q 2569 213 2275 61 
Q 1981 -91 1556 -91 
Q 1019 -91 701 211 
Q 384 513 384 1019 
Q 384 1609 779 1909 
Q 1175 2209 1959 2209 
L 2766 2209 
L 2766 2266 
Q 2766 2663 2505 2880 
Q 2244 3097 1772 3097 
Q 1472 3097 1187 3025 
Q 903 2953 641 2809 
L 641 3341 
Q 956 3463 1253 3523 
Q 1550 3584 1831 3584 
Q 2591 3584 2966 3190 
Q 3341 2797 3341 1997 
z
" transform="scale(0.015625)"/>
       <path id="DejaVuSans-69" d="M 603 3500 
L 1178 3500 
L 1178 0 
L 603 0 
L 603 3500 
z
M 603 4863 
L 1178 4863 
L 1178 4134 
L 603 4134 
L 603 4863 
z
" transform="scale(0.015625)"/>
       <path id="DejaVuSans-6f" d="M 1959 3097 
Q 1497 3097 1228 2736 
Q 959 2375 959 1747 
Q 959 1119 1226 758 
Q 1494 397 1959 397 
Q 2419 397 2687 759 
Q 2956 1122 2956 1747 
Q 2956 2369 2687 2733 
Q 2419 3097 1959 3097 
z
M 1959 3584 
Q 2709 3584 3137 3096 
Q 3566 2609 3566 1747 
Q 3566 888 3137 398 
Q 2709 -91 1959 -91 
Q 1206 -91 779 398 
Q 353 888 353 1747 
Q 353 2609 779 3096 
Q 1206 3584 1959 3584 
z
" transform="scale(0.015625)"/>
       <path id="DejaVuSans-6e" d="M 3513 2113 
L 3513 0 
L 2938 0 
L 2938 2094 
Q 2938 2591 2744 2837 
Q 2550 3084 2163 3084 
Q 1697 3084 1428 2787 
Q 1159 2491 1159 1978 
L 1159 0 
L 581 0 
L 581 3500 
L 1159 3500 
L 1159 2956 
Q 1366 3272 1645 3428 
Q 1925 3584 2291 3584 
Q 2894 3584 3203 3211 
Q 3513 2838 3513 2113 
z
" transform="scale(0.015625)"/>
      </defs>
      <use xlink:href="#DejaVuSans-49"/>
      <use xlink:href="#DejaVuSans-74" x="29.492188"/>
      <use xlink:href="#DejaVuSans-65" x="68.701172"/>
      <use xlink:href="#DejaVuSans-72" x="130.224609"/>
      <use xlink:href="#DejaVuSans-61" x="171.337891"/>
      <use xlink:href="#DejaVuSans-74" x="232.617188"/>
      <use xlink:href="#DejaVuSans-69" x="271.826172"/>
      <use xlink:href="#DejaVuSans-6f" x="299.609375"/>
      <use xlink:href="#DejaVuSans-6e" x="360.791016"/>
     </g>
    </g>
   </g>
   <g id="matplotlib.axis_2">
    <g id="ytick_1">
     <g id="line2d_7">
      <defs>
       <path id="m7f68bc9e52" d="M 0 0 
L -3.5 0 
" style="stroke: #000000; stroke-width: 0.8"/>
      </defs>
      <g>
       <use xlink:href="#m7f68bc9e52" x="47.81" y="290.994545" style="stroke: #000000; stroke-width: 0.8"/>
      </g>
     </g>
     <g id="text_8">
      <!-- 0.0 -->
      <g transform="translate(24.906875 294.793764) scale(0.1 -0.1)">
       <defs>
        <path id="DejaVuSans-2e" d="M 684 794 
L 1344 794 
L 1344 0 
L 684 0 
L 684 794 
z
" transform="scale(0.015625)"/>
       </defs>
       <use xlink:href="#DejaVuSans-30"/>
       <use xlink:href="#DejaVuSans-2e" x="63.623047"/>
       <use xlink:href="#DejaVuSans-30" x="95.410156"/>
      </g>
     </g>
    </g>
    <g id="ytick_2">
     <g id="line2d_8">
      <g>
       <use xlink:href="#m7f68bc9e52" x="47.81" y="240.412727" style="stroke: #000000; stroke-width: 0.8"/>
      </g>
     </g>
     <g id="text_9">
      <!-- 0.2 -->
      <g transform="translate(24.906875 244.211946) scale(0.1 -0.1)">
       <use xlink:href="#DejaVuSans-30"/>
       <use xlink:href="#DejaVuSans-2e" x="63.623047"/>
       <use xlink:href="#DejaVuSans-32" x="95.410156"/>
      </g>
     </g>
    </g>
    <g id="ytick_3">
     <g id="line2d_9">
      <g>
       <use xlink:href="#m7f68bc9e52" x="47.81" y="189.830909" style="stroke: #000000; stroke-width: 0.8"/>
      </g>
     </g>
     <g id="text_10">
      <!-- 0.4 -->
      <g transform="translate(24.906875 193.630128) scale(0.1 -0.1)">
       <use xlink:href="#DejaVuSans-30"/>
       <use xlink:href="#DejaVuSans-2e" x="63.623047"/>
       <use xlink:href="#DejaVuSans-34" x="95.410156"/>
      </g>
     </g>
    </g>
    <g id="ytick_4">
     <g id="line2d_10">
      <g>
       <use xlink:href="#m7f68bc9e52" x="47.81" y="139.249091" style="stroke: #000000; stroke-width: 0.8"/>
      </g>
     </g>
     <g id="text_11">
      <!-- 0.6 -->
      <g transform="translate(24.906875 143.04831) scale(0.1 -0.1)">
       <use xlink:href="#DejaVuSans-30"/>
       <use xlink:href="#DejaVuSans-2e" x="63.623047"/>
       <use xlink:href="#DejaVuSans-36" x="95.410156"/>
      </g>
     </g>
    </g>
    <g id="ytick_5">
     <g id="line2d_11">
      <g>
       <use xlink:href="#m7f68bc9e52" x="47.81" y="88.667273" style="stroke: #000000; stroke-width: 0.8"/>
      </g>
     </g>
     <g id="text_12">
      <!-- 0.8 -->
      <g transform="translate(24.906875 92.466491) scale(0.1 -0.1)">
       <use xlink:href="#DejaVuSans-30"/>
       <use xlink:href="#DejaVuSans-2e" x="63.623047"/>
       <use xlink:href="#DejaVuSans-38" x="95.410156"/>
      </g>
     </g>
    </g>
    <g id="ytick_6">
     <g id="line2d_12">
      <g>
       <use xlink:href="#m7f68bc9e52" x="47.81" y="38.085455" style="stroke: #000000; stroke-width: 0.8"/>
      </g>
     </g>
     <g id="text_13">
      <!-- 1.0 -->
      <g transform="translate(24.906875 41.884673) scale(0.1 -0.1)">
       <use xlink:href="#DejaVuSans-31"/>
       <use xlink:href="#DejaVuSans-2e" x="63.623047"/>
       <use xlink:href="#DejaVuSans-30" x="95.410156"/>
      </g>
     </g>
    </g>
    <g id="text_14">
     <!-- Similarity -->
     <g transform="translate(18.827187 188.179844) rotate(-90) scale(0.1 -0.1)">
      <defs>
       <path id="DejaVuSans-53" d="M 3425 4513 
L 3425 3897 
Q 3066 4069 2747 4153 
Q 2428 4238 2131 4238 
Q 1616 4238 1336 4038 
Q 1056 3838 1056 3469 
Q 1056 3159 1242 3001 
Q 1428 2844 1947 2747 
L 2328 2669 
Q 3034 2534 3370 2195 
Q 3706 1856 3706 1288 
Q 3706 609 3251 259 
Q 2797 -91 1919 -91 
Q 1588 -91 1214 -16 
Q 841 59 441 206 
L 441 856 
Q 825 641 1194 531 
Q 1563 422 1919 422 
Q 2459 422 2753 634 
Q 3047 847 3047 1241 
Q 3047 1584 2836 1778 
Q 2625 1972 2144 2069 
L 1759 2144 
Q 1053 2284 737 2584 
Q 422 2884 422 3419 
Q 422 4038 858 4394 
Q 1294 4750 2059 4750 
Q 2388 4750 2728 4690 
Q 3069 4631 3425 4513 
z
" transform="scale(0.015625)"/>
       <path id="DejaVuSans-6d" d="M 3328 2828 
Q 3544 3216 3844 3400 
Q 4144 3584 4550 3584 
Q 5097 3584 5394 3201 
Q 5691 2819 5691 2113 
L 5691 0 
L 5113 0 
L 5113 2094 
Q 5113 2597 4934 2840 
Q 4756 3084 4391 3084 
Q 3944 3084 3684 2787 
Q 3425 2491 3425 1978 
L 3425 0 
L 2847 0 
L 2847 2094 
Q 2847 2600 2669 2842 
Q 2491 3084 2119 3084 
Q 1678 3084 1418 2786 
Q 1159 2488 1159 1978 
L 1159 0 
L 581 0 
L 581 3500 
L 1159 3500 
L 1159 2956 
Q 1356 3278 1631 3431 
Q 1906 3584 2284 3584 
Q 2666 3584 2933 3390 
Q 3200 3197 3328 2828 
z
" transform="scale(0.015625)"/>
       <path id="DejaVuSans-6c" d="M 603 4863 
L 1178 4863 
L 1178 0 
L 603 0 
L 603 4863 
z
" transform="scale(0.015625)"/>
       <path id="DejaVuSans-79" d="M 2059 -325 
Q 1816 -950 1584 -1140 
Q 1353 -1331 966 -1331 
L 506 -1331 
L 506 -850 
L 844 -850 
Q 1081 -850 1212 -737 
Q 1344 -625 1503 -206 
L 1606 56 
L 191 3500 
L 800 3500 
L 1894 763 
L 2988 3500 
L 3597 3500 
L 2059 -325 
z
" transform="scale(0.015625)"/>
      </defs>
      <use xlink:href="#DejaVuSans-53"/>
      <use xlink:href="#DejaVuSans-69" x="63.476562"/>
      <use xlink:href="#DejaVuSans-6d" x="91.259766"/>
      <use xlink:href="#DejaVuSans-69" x="188.671875"/>
      <use xlink:href="#DejaVuSans-6c" x="216.455078"/>
      <use xlink:href="#DejaVuSans-61" x="244.238281"/>
      <use xlink:href="#DejaVuSans-72" x="305.517578"/>
      <use xlink:href="#DejaVuSans-69" x="346.630859"/>
      <use xlink:href="#DejaVuSans-74" x="374.414062"/>
      <use xlink:href="#DejaVuSans-79" x="413.623047"/>
     </g>
    </g>
   </g>
   <g id="line2d_13">
    <path d="M 66.091364 70.963636 
L 69.822254 96.254545 
L 73.553145 106.370909 
L 77.284035 112.061364 
L 81.014926 114.464 
L 84.745816 117.330303 
L 88.476707 122.990649 
L 92.207597 129.765 
L 95.938488 131.099798 
L 99.669378 133.179273 
L 103.400269 134.190909 
L 107.13116 135.666212 
L 110.86205 138.665455 
L 114.592941 140.874935 
L 118.323831 141.272364 
L 122.054722 142.410455 
L 125.785612 143.563422 
L 129.516503 145.571818 
L 133.247393 146.303923 
L 136.978284 147.468636 
L 140.709174 147.679394 
L 144.440065 148.560744 
L 148.170955 148.925613 
L 151.901846 149.78697 
L 155.632737 150.781745 
L 159.363627 152.283636 
L 163.094518 152.081886 
L 166.825408 152.436494 
L 170.556299 152.853856 
L 174.287189 153.412 
L 178.01808 154.015718 
L 181.74897 154.344602 
L 185.479861 153.963802 
L 189.210751 154.498021 
L 192.941642 153.990078 
L 196.672532 154.283131 
L 200.403423 154.355283 
L 204.134314 154.689856 
L 207.865204 154.618182 
L 211.596095 155.055909 
L 215.326985 155.595654 
L 219.057876 156.23013 
L 222.788766 156.423383 
L 226.519657 156.837769 
L 230.250547 156.727919 
L 233.981438 157.062688 
L 237.712328 157.490832 
L 241.443219 157.637689 
L 245.174109 157.675325 
L 248.905 158.166691 
L 252.635891 158.589198 
L 256.366781 158.606364 
L 260.097672 158.479726 
L 263.828562 158.404613 
L 267.559453 158.884033 
L 271.290343 159.391494 
L 275.021234 159.659298 
L 278.752124 159.656238 
L 282.483015 159.610416 
L 286.213905 160.029788 
L 289.944796 160.311028 
L 293.675686 160.093695 
L 297.406577 159.96355 
L 301.137468 159.916506 
L 304.868358 160.182182 
L 308.599249 159.979972 
L 312.330139 159.821547 
L 316.06103 160.151283 
L 319.79192 160.398155 
L 323.522811 160.710234 
L 327.253701 160.692932 
L 330.984592 160.676111 
L 334.715482 160.867621 
L 338.446373 160.780541 
L 342.177263 160.93183 
L 345.908154 161.045861 
L 349.639045 160.959858 
L 353.369935 161.297576 
L 357.100826 161.306605 
L 360.831716 161.315409 
L 364.562607 161.261549 
L 368.293497 161.394058 
L 372.024388 161.462432 
L 375.755278 161.348528 
L 379.486169 161.415829 
L 383.217059 161.540381 
L 386.94795 161.516719 
L 390.67884 161.551074 
L 394.409731 161.499408 
L 398.140622 161.448889 
L 401.871512 161.482857 
L 405.602403 161.461107 
L 409.333293 161.385435 
L 413.064184 161.472805 
L 416.795074 161.425225 
L 420.525965 161.167879 
L 424.256855 161.280862 
L 427.987746 161.262505 
L 431.718636 160.963508 
" clip-path="url(#pb9f07ea346)" style="fill: none; stroke: #0000ff; stroke-linecap: square"/>
    <defs>
     <path id="m244f471d3f" d="M -0.49999 0.49999 
L 0.50001 0.49999 
L 0.50001 -0.50001 
L -0.49999 -0.50001 
z
"/>
    </defs>
    <g clip-path="url(#pb9f07ea346)">
     <use xlink:href="#m244f471d3f" x="66.091364" y="70.963636" style="fill: #0000ff"/>
     <use xlink:href="#m244f471d3f" x="69.822254" y="96.254545" style="fill: #0000ff"/>
     <use xlink:href="#m244f471d3f" x="73.553145" y="106.370909" style="fill: #0000ff"/>
     <use xlink:href="#m244f471d3f" x="77.284035" y="112.061364" style="fill: #0000ff"/>
     <use xlink:href="#m244f471d3f" x="81.014926" y="114.464" style="fill: #0000ff"/>
     <use xlink:href="#m244f471d3f" x="84.745816" y="117.330303" style="fill: #0000ff"/>
     <use xlink:href="#m244f471d3f" x="88.476707" y="122.990649" style="fill: #0000ff"/>
     <use xlink:href="#m244f471d3f" x="92.207597" y="129.765" style="fill: #0000ff"/>
     <use xlink:href="#m244f471d3f" x="95.938488" y="131.099798" style="fill: #0000ff"/>
     <use xlink:href="#m244f471d3f" x="99.669378" y="133.179273" style="fill: #0000ff"/>
     <use xlink:href="#m244f471d3f" x="103.400269" y="134.190909" style="fill: #0000ff"/>
     <use xlink:href="#m244f471d3f" x="107.13116" y="135.666212" style="fill: #0000ff"/>
     <use xlink:href="#m244f471d3f" x="110.86205" y="138.665455" style="fill: #0000ff"/>
     <use xlink:href="#m244f471d3f" x="114.592941" y="140.874935" style="fill: #0000ff"/>
     <use xlink:href="#m244f471d3f" x="118.323831" y="141.272364" style="fill: #0000ff"/>
     <use xlink:href="#m244f471d3f" x="122.054722" y="142.410455" style="fill: #0000ff"/>
     <use xlink:href="#m244f471d3f" x="125.785612" y="143.563422" style="fill: #0000ff"/>
     <use xlink:href="#m244f471d3f" x="129.516503" y="145.571818" style="fill: #0000ff"/>
     <use xlink:href="#m244f471d3f" x="133.247393" y="146.303923" style="fill: #0000ff"/>
     <use xlink:href="#m244f471d3f" x="136.978284" y="147.468636" style="fill: #0000ff"/>
     <use xlink:href="#m244f471d3f" x="140.709174" y="147.679394" style="fill: #0000ff"/>
     <use xlink:href="#m244f471d3f" x="144.440065" y="148.560744" style="fill: #0000ff"/>
     <use xlink:href="#m244f471d3f" x="148.170955" y="148.925613" style="fill: #0000ff"/>
     <use xlink:href="#m244f471d3f" x="151.901846" y="149.78697" style="fill: #0000ff"/>
     <use xlink:href="#m244f471d3f" x="155.632737" y="150.781745" style="fill: #0000ff"/>
     <use xlink:href="#m244f471d3f" x="159.363627" y="152.283636" style="fill: #0000ff"/>
     <use xlink:href="#m244f471d3f" x="163.094518" y="152.081886" style="fill: #0000ff"/>
     <use xlink:href="#m244f471d3f" x="166.825408" y="152.436494" style="fill: #0000ff"/>
     <use xlink:href="#m244f471d3f" x="170.556299" y="152.853856" style="fill: #0000ff"/>
     <use xlink:href="#m244f471d3f" x="174.287189" y="153.412" style="fill: #0000ff"/>
     <use xlink:href="#m244f471d3f" x="178.01808" y="154.015718" style="fill: #0000ff"/>
     <use xlink:href="#m244f471d3f" x="181.74897" y="154.344602" style="fill: #0000ff"/>
     <use xlink:href="#m244f471d3f" x="185.479861" y="153.963802" style="fill: #0000ff"/>
     <use xlink:href="#m244f471d3f" x="189.210751" y="154.498021" style="fill: #0000ff"/>
     <use xlink:href="#m244f471d3f" x="192.941642" y="153.990078" style="fill: #0000ff"/>
     <use xlink:href="#m244f471d3f" x="196.672532" y="154.283131" style="fill: #0000ff"/>
     <use xlink:href="#m244f471d3f" x="200.403423" y="154.355283" style="fill: #0000ff"/>
     <use xlink:href="#m244f471d3f" x="204.134314" y="154.689856" style="fill: #0000ff"/>
     <use xlink:href="#m244f471d3f" x="207.865204" y="154.618182" style="fill: #0000ff"/>
     <use xlink:href="#m244f471d3f" x="211.596095" y="155.055909" style="fill: #0000ff"/>
     <use xlink:href="#m244f471d3f" x="215.326985" y="155.595654" style="fill: #0000ff"/>
     <use xlink:href="#m244f471d3f" x="219.057876" y="156.23013" style="fill: #0000ff"/>
     <use xlink:href="#m244f471d3f" x="222.788766" y="156.423383" style="fill: #0000ff"/>
     <use xlink:href="#m244f471d3f" x="226.519657" y="156.837769" style="fill: #0000ff"/>
     <use xlink:href="#m244f471d3f" x="230.250547" y="156.727919" style="fill: #0000ff"/>
     <use xlink:href="#m244f471d3f" x="233.981438" y="157.062688" style="fill: #0000ff"/>
     <use xlink:href="#m244f471d3f" x="237.712328" y="157.490832" style="fill: #0000ff"/>
     <use xlink:href="#m244f471d3f" x="241.443219" y="157.637689" style="fill: #0000ff"/>
     <use xlink:href="#m244f471d3f" x="245.174109" y="157.675325" style="fill: #0000ff"/>
     <use xlink:href="#m244f471d3f" x="248.905" y="158.166691" style="fill: #0000ff"/>
     <use xlink:href="#m244f471d3f" x="252.635891" y="158.589198" style="fill: #0000ff"/>
     <use xlink:href="#m244f471d3f" x="256.366781" y="158.606364" style="fill: #0000ff"/>
     <use xlink:href="#m244f471d3f" x="260.097672" y="158.479726" style="fill: #0000ff"/>
     <use xlink:href="#m244f471d3f" x="263.828562" y="158.404613" style="fill: #0000ff"/>
     <use xlink:href="#m244f471d3f" x="267.559453" y="158.884033" style="fill: #0000ff"/>
     <use xlink:href="#m244f471d3f" x="271.290343" y="159.391494" style="fill: #0000ff"/>
     <use xlink:href="#m244f471d3f" x="275.021234" y="159.659298" style="fill: #0000ff"/>
     <use xlink:href="#m244f471d3f" x="278.752124" y="159.656238" style="fill: #0000ff"/>
     <use xlink:href="#m244f471d3f" x="282.483015" y="159.610416" style="fill: #0000ff"/>
     <use xlink:href="#m244f471d3f" x="286.213905" y="160.029788" style="fill: #0000ff"/>
     <use xlink:href="#m244f471d3f" x="289.944796" y="160.311028" style="fill: #0000ff"/>
     <use xlink:href="#m244f471d3f" x="293.675686" y="160.093695" style="fill: #0000ff"/>
     <use xlink:href="#m244f471d3f" x="297.406577" y="159.96355" style="fill: #0000ff"/>
     <use xlink:href="#m244f471d3f" x="301.137468" y="159.916506" style="fill: #0000ff"/>
     <use xlink:href="#m244f471d3f" x="304.868358" y="160.182182" style="fill: #0000ff"/>
     <use xlink:href="#m244f471d3f" x="308.599249" y="159.979972" style="fill: #0000ff"/>
     <use xlink:href="#m244f471d3f" x="312.330139" y="159.821547" style="fill: #0000ff"/>
     <use xlink:href="#m244f471d3f" x="316.06103" y="160.151283" style="fill: #0000ff"/>
     <use xlink:href="#m244f471d3f" x="319.79192" y="160.398155" style="fill: #0000ff"/>
     <use xlink:href="#m244f471d3f" x="323.522811" y="160.710234" style="fill: #0000ff"/>
     <use xlink:href="#m244f471d3f" x="327.253701" y="160.692932" style="fill: #0000ff"/>
     <use xlink:href="#m244f471d3f" x="330.984592" y="160.676111" style="fill: #0000ff"/>
     <use xlink:href="#m244f471d3f" x="334.715482" y="160.867621" style="fill: #0000ff"/>
     <use xlink:href="#m244f471d3f" x="338.446373" y="160.780541" style="fill: #0000ff"/>
     <use xlink:href="#m244f471d3f" x="342.177263" y="160.93183" style="fill: #0000ff"/>
     <use xlink:href="#m244f471d3f" x="345.908154" y="161.045861" style="fill: #0000ff"/>
     <use xlink:href="#m244f471d3f" x="349.639045" y="160.959858" style="fill: #0000ff"/>
     <use xlink:href="#m244f471d3f" x="353.369935" y="161.297576" style="fill: #0000ff"/>
     <use xlink:href="#m244f471d3f" x="357.100826" y="161.306605" style="fill: #0000ff"/>
     <use xlink:href="#m244f471d3f" x="360.831716" y="161.315409" style="fill: #0000ff"/>
     <use xlink:href="#m244f471d3f" x="364.562607" y="161.261549" style="fill: #0000ff"/>
     <use xlink:href="#m244f471d3f" x="368.293497" y="161.394058" style="fill: #0000ff"/>
     <use xlink:href="#m244f471d3f" x="372.024388" y="161.462432" style="fill: #0000ff"/>
     <use xlink:href="#m244f471d3f" x="375.755278" y="161.348528" style="fill: #0000ff"/>
     <use xlink:href="#m244f471d3f" x="379.486169" y="161.415829" style="fill: #0000ff"/>
     <use xlink:href="#m244f471d3f" x="383.217059" y="161.540381" style="fill: #0000ff"/>
     <use xlink:href="#m244f471d3f" x="386.94795" y="161.516719" style="fill: #0000ff"/>
     <use xlink:href="#m244f471d3f" x="390.67884" y="161.551074" style="fill: #0000ff"/>
     <use xlink:href="#m244f471d3f" x="394.409731" y="161.499408" style="fill: #0000ff"/>
     <use xlink:href="#m244f471d3f" x="398.140622" y="161.448889" style="fill: #0000ff"/>
     <use xlink:href="#m244f471d3f" x="401.871512" y="161.482857" style="fill: #0000ff"/>
     <use xlink:href="#m244f471d3f" x="405.602403" y="161.461107" style="fill: #0000ff"/>
     <use xlink:href="#m244f471d3f" x="409.333293" y="161.385435" style="fill: #0000ff"/>
     <use xlink:href="#m244f471d3f" x="413.064184" y="161.472805" style="fill: #0000ff"/>
     <use xlink:href="#m244f471d3f" x="416.795074" y="161.425225" style="fill: #0000ff"/>
     <use xlink:href="#m244f471d3f" x="420.525965" y="161.167879" style="fill: #0000ff"/>
     <use xlink:href="#m244f471d3f" x="424.256855" y="161.280862" style="fill: #0000ff"/>
     <use xlink:href="#m244f471d3f" x="427.987746" y="161.262505" style="fill: #0000ff"/>
     <use xlink:href="#m244f471d3f" x="431.718636" y="160.963508" style="fill: #0000ff"/>
    </g>
   </g>
   <g id="line2d_14">
    <path d="M 66.091364 70.963636 
L 69.822254 83.609091 
L 73.553145 91.196364 
L 77.284035 96.412614 
L 81.014926 100.022891 
L 84.745816 102.90746 
L 88.476707 105.776487 
L 92.207597 108.775051 
L 95.938488 111.255578 
L 99.669378 113.447948 
L 103.400269 115.333672 
L 107.13116 117.02805 
L 110.86205 118.692466 
L 114.592941 120.276928 
L 118.323831 121.676623 
L 122.054722 122.972488 
L 125.785612 124.183719 
L 129.516503 125.371947 
L 133.247393 126.47363 
L 136.978284 127.52338 
L 140.709174 128.483191 
L 144.440065 129.395807 
L 148.170955 130.244929 
L 151.901846 131.05918 
L 155.632737 131.848083 
L 159.363627 132.634066 
L 163.094518 133.354355 
L 166.825408 134.03586 
L 170.556299 134.684757 
L 174.287189 135.308998 
L 178.01808 135.912441 
L 181.74897 136.488446 
L 185.479861 137.018002 
L 189.210751 137.53212 
L 192.941642 138.002348 
L 196.672532 138.454592 
L 200.403423 138.88434 
L 204.134314 139.300275 
L 207.865204 139.693041 
L 211.596095 140.077113 
L 215.326985 140.455614 
L 219.057876 140.831198 
L 222.788766 141.193807 
L 226.519657 141.549351 
L 230.250547 141.886653 
L 233.981438 142.216567 
L 237.712328 142.541551 
L 241.443219 142.856054 
L 245.174109 143.158488 
L 248.905 143.458652 
L 252.635891 143.755329 
L 256.366781 144.040926 
L 260.097672 144.313356 
L 263.828562 144.574306 
L 267.559453 144.834483 
L 271.290343 145.094429 
L 275.021234 145.349953 
L 278.752124 145.596613 
L 282.483015 145.834135 
L 286.213905 146.07073 
L 289.944796 146.304177 
L 293.675686 146.526589 
L 297.406577 146.739874 
L 301.137468 146.945759 
L 304.868358 147.149396 
L 308.599249 147.343799 
L 312.330139 147.530034 
L 316.06103 147.71564 
L 319.79192 147.899445 
L 323.522811 148.082456 
L 327.253701 148.260068 
L 330.984592 148.432513 
L 334.715482 148.602857 
L 338.446373 148.767421 
L 342.177263 148.929613 
L 345.908154 149.089037 
L 349.639045 149.243204 
L 353.369935 149.397747 
L 357.100826 149.548492 
L 360.831716 149.695578 
L 364.562607 149.838368 
L 368.293497 149.979291 
L 372.024388 150.117642 
L 375.755278 150.251343 
L 379.486169 150.38269 
L 383.217059 150.512431 
L 386.94795 150.638917 
L 390.67884 150.762919 
L 394.409731 150.883553 
L 398.140622 151.000946 
L 401.871512 151.116132 
L 405.602403 151.228577 
L 409.333293 151.337791 
L 413.064184 151.44561 
L 416.795074 151.550659 
L 420.525965 151.650838 
L 424.256855 151.750117 
L 427.987746 151.847182 
L 431.718636 151.939266 
" clip-path="url(#pb9f07ea346)" style="fill: none; stroke: #ff0000; stroke-opacity: 0.5; stroke-width: 0.5; stroke-linecap: square"/>
    <defs>
     <path id="m8da98f4690" d="M -0.49999 0.49999 
L 0.50001 0.49999 
L 0.50001 -0.50001 
L -0.49999 -0.50001 
z
"/>
    </defs>
    <g clip-path="url(#pb9f07ea346)">
     <use xlink:href="#m8da98f4690" x="66.091364" y="70.963636" style="fill: #ff0000; fill-opacity: 0.5"/>
     <use xlink:href="#m8da98f4690" x="69.822254" y="83.609091" style="fill: #ff0000; fill-opacity: 0.5"/>
     <use xlink:href="#m8da98f4690" x="73.553145" y="91.196364" style="fill: #ff0000; fill-opacity: 0.5"/>
     <use xlink:href="#m8da98f4690" x="77.284035" y="96.412614" style="fill: #ff0000; fill-opacity: 0.5"/>
     <use xlink:href="#m8da98f4690" x="81.014926" y="100.022891" style="fill: #ff0000; fill-opacity: 0.5"/>
     <use xlink:href="#m8da98f4690" x="84.745816" y="102.90746" style="fill: #ff0000; fill-opacity: 0.5"/>
     <use xlink:href="#m8da98f4690" x="88.476707" y="105.776487" style="fill: #ff0000; fill-opacity: 0.5"/>
     <use xlink:href="#m8da98f4690" x="92.207597" y="108.775051" style="fill: #ff0000; fill-opacity: 0.5"/>
     <use xlink:href="#m8da98f4690" x="95.938488" y="111.255578" style="fill: #ff0000; fill-opacity: 0.5"/>
     <use xlink:href="#m8da98f4690" x="99.669378" y="113.447948" style="fill: #ff0000; fill-opacity: 0.5"/>
     <use xlink:href="#m8da98f4690" x="103.400269" y="115.333672" style="fill: #ff0000; fill-opacity: 0.5"/>
     <use xlink:href="#m8da98f4690" x="107.13116" y="117.02805" style="fill: #ff0000; fill-opacity: 0.5"/>
     <use xlink:href="#m8da98f4690" x="110.86205" y="118.692466" style="fill: #ff0000; fill-opacity: 0.5"/>
     <use xlink:href="#m8da98f4690" x="114.592941" y="120.276928" style="fill: #ff0000; fill-opacity: 0.5"/>
     <use xlink:href="#m8da98f4690" x="118.323831" y="121.676623" style="fill: #ff0000; fill-opacity: 0.5"/>
     <use xlink:href="#m8da98f4690" x="122.054722" y="122.972488" style="fill: #ff0000; fill-opacity: 0.5"/>
     <use xlink:href="#m8da98f4690" x="125.785612" y="124.183719" style="fill: #ff0000; fill-opacity: 0.5"/>
     <use xlink:href="#m8da98f4690" x="129.516503" y="125.371947" style="fill: #ff0000; fill-opacity: 0.5"/>
     <use xlink:href="#m8da98f4690" x="133.247393" y="126.47363" style="fill: #ff0000; fill-opacity: 0.5"/>
     <use xlink:href="#m8da98f4690" x="136.978284" y="127.52338" style="fill: #ff0000; fill-opacity: 0.5"/>
     <use xlink:href="#m8da98f4690" x="140.709174" y="128.483191" style="fill: #ff0000; fill-opacity: 0.5"/>
     <use xlink:href="#m8da98f4690" x="144.440065" y="129.395807" style="fill: #ff0000; fill-opacity: 0.5"/>
     <use xlink:href="#m8da98f4690" x="148.170955" y="130.244929" style="fill: #ff0000; fill-opacity: 0.5"/>
     <use xlink:href="#m8da98f4690" x="151.901846" y="131.05918" style="fill: #ff0000; fill-opacity: 0.5"/>
     <use xlink:href="#m8da98f4690" x="155.632737" y="131.848083" style="fill: #ff0000; fill-opacity: 0.5"/>
     <use xlink:href="#m8da98f4690" x="159.363627" y="132.634066" style="fill: #ff0000; fill-opacity: 0.5"/>
     <use xlink:href="#m8da98f4690" x="163.094518" y="133.354355" style="fill: #ff0000; fill-opacity: 0.5"/>
     <use xlink:href="#m8da98f4690" x="166.825408" y="134.03586" style="fill: #ff0000; fill-opacity: 0.5"/>
     <use xlink:href="#m8da98f4690" x="170.556299" y="134.684757" style="fill: #ff0000; fill-opacity: 0.5"/>
     <use xlink:href="#m8da98f4690" x="174.287189" y="135.308998" style="fill: #ff0000; fill-opacity: 0.5"/>
     <use xlink:href="#m8da98f4690" x="178.01808" y="135.912441" style="fill: #ff0000; fill-opacity: 0.5"/>
     <use xlink:href="#m8da98f4690" x="181.74897" y="136.488446" style="fill: #ff0000; fill-opacity: 0.5"/>
     <use xlink:href="#m8da98f4690" x="185.479861" y="137.018002" style="fill: #ff0000; fill-opacity: 0.5"/>
     <use xlink:href="#m8da98f4690" x="189.210751" y="137.53212" style="fill: #ff0000; fill-opacity: 0.5"/>
     <use xlink:href="#m8da98f4690" x="192.941642" y="138.002348" style="fill: #ff0000; fill-opacity: 0.5"/>
     <use xlink:href="#m8da98f4690" x="196.672532" y="138.454592" style="fill: #ff0000; fill-opacity: 0.5"/>
     <use xlink:href="#m8da98f4690" x="200.403423" y="138.88434" style="fill: #ff0000; fill-opacity: 0.5"/>
     <use xlink:href="#m8da98f4690" x="204.134314" y="139.300275" style="fill: #ff0000; fill-opacity: 0.5"/>
     <use xlink:href="#m8da98f4690" x="207.865204" y="139.693041" style="fill: #ff0000; fill-opacity: 0.5"/>
     <use xlink:href="#m8da98f4690" x="211.596095" y="140.077113" style="fill: #ff0000; fill-opacity: 0.5"/>
     <use xlink:href="#m8da98f4690" x="215.326985" y="140.455614" style="fill: #ff0000; fill-opacity: 0.5"/>
     <use xlink:href="#m8da98f4690" x="219.057876" y="140.831198" style="fill: #ff0000; fill-opacity: 0.5"/>
     <use xlink:href="#m8da98f4690" x="222.788766" y="141.193807" style="fill: #ff0000; fill-opacity: 0.5"/>
     <use xlink:href="#m8da98f4690" x="226.519657" y="141.549351" style="fill: #ff0000; fill-opacity: 0.5"/>
     <use xlink:href="#m8da98f4690" x="230.250547" y="141.886653" style="fill: #ff0000; fill-opacity: 0.5"/>
     <use xlink:href="#m8da98f4690" x="233.981438" y="142.216567" style="fill: #ff0000; fill-opacity: 0.5"/>
     <use xlink:href="#m8da98f4690" x="237.712328" y="142.541551" style="fill: #ff0000; fill-opacity: 0.5"/>
     <use xlink:href="#m8da98f4690" x="241.443219" y="142.856054" style="fill: #ff0000; fill-opacity: 0.5"/>
     <use xlink:href="#m8da98f4690" x="245.174109" y="143.158488" style="fill: #ff0000; fill-opacity: 0.5"/>
     <use xlink:href="#m8da98f4690" x="248.905" y="143.458652" style="fill: #ff0000; fill-opacity: 0.5"/>
     <use xlink:href="#m8da98f4690" x="252.635891" y="143.755329" style="fill: #ff0000; fill-opacity: 0.5"/>
     <use xlink:href="#m8da98f4690" x="256.366781" y="144.040926" style="fill: #ff0000; fill-opacity: 0.5"/>
     <use xlink:href="#m8da98f4690" x="260.097672" y="144.313356" style="fill: #ff0000; fill-opacity: 0.5"/>
     <use xlink:href="#m8da98f4690" x="263.828562" y="144.574306" style="fill: #ff0000; fill-opacity: 0.5"/>
     <use xlink:href="#m8da98f4690" x="267.559453" y="144.834483" style="fill: #ff0000; fill-opacity: 0.5"/>
     <use xlink:href="#m8da98f4690" x="271.290343" y="145.094429" style="fill: #ff0000; fill-opacity: 0.5"/>
     <use xlink:href="#m8da98f4690" x="275.021234" y="145.349953" style="fill: #ff0000; fill-opacity: 0.5"/>
     <use xlink:href="#m8da98f4690" x="278.752124" y="145.596613" style="fill: #ff0000; fill-opacity: 0.5"/>
     <use xlink:href="#m8da98f4690" x="282.483015" y="145.834135" style="fill: #ff0000; fill-opacity: 0.5"/>
     <use xlink:href="#m8da98f4690" x="286.213905" y="146.07073" style="fill: #ff0000; fill-opacity: 0.5"/>
     <use xlink:href="#m8da98f4690" x="289.944796" y="146.304177" style="fill: #ff0000; fill-opacity: 0.5"/>
     <use xlink:href="#m8da98f4690" x="293.675686" y="146.526589" style="fill: #ff0000; fill-opacity: 0.5"/>
     <use xlink:href="#m8da98f4690" x="297.406577" y="146.739874" style="fill: #ff0000; fill-opacity: 0.5"/>
     <use xlink:href="#m8da98f4690" x="301.137468" y="146.945759" style="fill: #ff0000; fill-opacity: 0.5"/>
     <use xlink:href="#m8da98f4690" x="304.868358" y="147.149396" style="fill: #ff0000; fill-opacity: 0.5"/>
     <use xlink:href="#m8da98f4690" x="308.599249" y="147.343799" style="fill: #ff0000; fill-opacity: 0.5"/>
     <use xlink:href="#m8da98f4690" x="312.330139" y="147.530034" style="fill: #ff0000; fill-opacity: 0.5"/>
     <use xlink:href="#m8da98f4690" x="316.06103" y="147.71564" style="fill: #ff0000; fill-opacity: 0.5"/>
     <use xlink:href="#m8da98f4690" x="319.79192" y="147.899445" style="fill: #ff0000; fill-opacity: 0.5"/>
     <use xlink:href="#m8da98f4690" x="323.522811" y="148.082456" style="fill: #ff0000; fill-opacity: 0.5"/>
     <use xlink:href="#m8da98f4690" x="327.253701" y="148.260068" style="fill: #ff0000; fill-opacity: 0.5"/>
     <use xlink:href="#m8da98f4690" x="330.984592" y="148.432513" style="fill: #ff0000; fill-opacity: 0.5"/>
     <use xlink:href="#m8da98f4690" x="334.715482" y="148.602857" style="fill: #ff0000; fill-opacity: 0.5"/>
     <use xlink:href="#m8da98f4690" x="338.446373" y="148.767421" style="fill: #ff0000; fill-opacity: 0.5"/>
     <use xlink:href="#m8da98f4690" x="342.177263" y="148.929613" style="fill: #ff0000; fill-opacity: 0.5"/>
     <use xlink:href="#m8da98f4690" x="345.908154" y="149.089037" style="fill: #ff0000; fill-opacity: 0.5"/>
     <use xlink:href="#m8da98f4690" x="349.639045" y="149.243204" style="fill: #ff0000; fill-opacity: 0.5"/>
     <use xlink:href="#m8da98f4690" x="353.369935" y="149.397747" style="fill: #ff0000; fill-opacity: 0.5"/>
     <use xlink:href="#m8da98f4690" x="357.100826" y="149.548492" style="fill: #ff0000; fill-opacity: 0.5"/>
     <use xlink:href="#m8da98f4690" x="360.831716" y="149.695578" style="fill: #ff0000; fill-opacity: 0.5"/>
     <use xlink:href="#m8da98f4690" x="364.562607" y="149.838368" style="fill: #ff0000; fill-opacity: 0.5"/>
     <use xlink:href="#m8da98f4690" x="368.293497" y="149.979291" style="fill: #ff0000; fill-opacity: 0.5"/>
     <use xlink:href="#m8da98f4690" x="372.024388" y="150.117642" style="fill: #ff0000; fill-opacity: 0.5"/>
     <use xlink:href="#m8da98f4690" x="375.755278" y="150.251343" style="fill: #ff0000; fill-opacity: 0.5"/>
     <use xlink:href="#m8da98f4690" x="379.486169" y="150.38269" style="fill: #ff0000; fill-opacity: 0.5"/>
     <use xlink:href="#m8da98f4690" x="383.217059" y="150.512431" style="fill: #ff0000; fill-opacity: 0.5"/>
     <use xlink:href="#m8da98f4690" x="386.94795" y="150.638917" style="fill: #ff0000; fill-opacity: 0.5"/>
     <use xlink:href="#m8da98f4690" x="390.67884" y="150.762919" style="fill: #ff0000; fill-opacity: 0.5"/>
     <use xlink:href="#m8da98f4690" x="394.409731" y="150.883553" style="fill: #ff0000; fill-opacity: 0.5"/>
     <use xlink:href="#m8da98f4690" x="398.140622" y="151.000946" style="fill: #ff0000; fill-opacity: 0.5"/>
     <use xlink:href="#m8da98f4690" x="401.871512" y="151.116132" style="fill: #ff0000; fill-opacity: 0.5"/>
     <use xlink:href="#m8da98f4690" x="405.602403" y="151.228577" style="fill: #ff0000; fill-opacity: 0.5"/>
     <use xlink:href="#m8da98f4690" x="409.333293" y="151.337791" style="fill: #ff0000; fill-opacity: 0.5"/>
     <use xlink:href="#m8da98f4690" x="413.064184" y="151.44561" style="fill: #ff0000; fill-opacity: 0.5"/>
     <use xlink:href="#m8da98f4690" x="416.795074" y="151.550659" style="fill: #ff0000; fill-opacity: 0.5"/>
     <use xlink:href="#m8da98f4690" x="420.525965" y="151.650838" style="fill: #ff0000; fill-opacity: 0.5"/>
     <use xlink:href="#m8da98f4690" x="424.256855" y="151.750117" style="fill: #ff0000; fill-opacity: 0.5"/>
     <use xlink:href="#m8da98f4690" x="427.987746" y="151.847182" style="fill: #ff0000; fill-opacity: 0.5"/>
     <use xlink:href="#m8da98f4690" x="431.718636" y="151.939266" style="fill: #ff0000; fill-opacity: 0.5"/>
    </g>
   </g>
   <g id="line2d_15">
    <path d="M 47.81 290.994545 
L 450 290.994545 
" clip-path="url(#pb9f07ea346)" style="fill: none; stroke-dasharray: 0.555,0.24; stroke-dashoffset: 0; stroke: #ff0000; stroke-width: 0.15"/>
   </g>
   <g id="line2d_16">
    <path d="M 47.81 164.54 
L 450 164.54 
" clip-path="url(#pb9f07ea346)" style="fill: none; stroke-dasharray: 0.555,0.24; stroke-dashoffset: 0; stroke: #ff0000; stroke-width: 0.15"/>
   </g>
   <g id="line2d_17">
    <path d="M 47.81 38.085455 
L 450 38.085455 
" clip-path="url(#pb9f07ea346)" style="fill: none; stroke-dasharray: 0.555,0.24; stroke-dashoffset: 0; stroke: #ff0000; stroke-width: 0.15"/>
   </g>
   <g id="patch_3">
    <path d="M 47.81 303.64 
L 47.81 25.44 
" style="fill: none; stroke: #000000; stroke-width: 0.8; stroke-linejoin: miter; stroke-linecap: square"/>
   </g>
   <g id="patch_4">
    <path d="M 450 303.64 
L 450 25.44 
" style="fill: none; stroke: #000000; stroke-width: 0.8; stroke-linejoin: miter; stroke-linecap: square"/>
   </g>
   <g id="patch_5">
    <path d="M 47.81 303.64 
L 450 303.64 
" style="fill: none; stroke: #000000; stroke-width: 0.8; stroke-linejoin: miter; stroke-linecap: square"/>
   </g>
   <g id="patch_6">
    <path d="M 47.81 25.44 
L 450 25.44 
" style="fill: none; stroke: #000000; stroke-width: 0.8; stroke-linejoin: miter; stroke-linecap: square"/>
   </g>
   <g id="text_15">
    <!-- Similarity LLM-RND - 20240422164401 - 100 games -->
    <g transform="translate(92.415625 19.44) scale(0.12 -0.12)">
     <defs>
      <path id="DejaVuSans-20" transform="scale(0.015625)"/>
      <path id="DejaVuSans-4c" d="M 628 4666 
L 1259 4666 
L 1259 531 
L 3531 531 
L 3531 0 
L 628 0 
L 628 4666 
z
" transform="scale(0.015625)"/>
      <path id="DejaVuSans-4d" d="M 628 4666 
L 1569 4666 
L 2759 1491 
L 3956 4666 
L 4897 4666 
L 4897 0 
L 4281 0 
L 4281 4097 
L 3078 897 
L 2444 897 
L 1241 4097 
L 1241 0 
L 628 0 
L 628 4666 
z
" transform="scale(0.015625)"/>
      <path id="DejaVuSans-2d" d="M 313 2009 
L 1997 2009 
L 1997 1497 
L 313 1497 
L 313 2009 
z
" transform="scale(0.015625)"/>
      <path id="DejaVuSans-52" d="M 2841 2188 
Q 3044 2119 3236 1894 
Q 3428 1669 3622 1275 
L 4263 0 
L 3584 0 
L 2988 1197 
Q 2756 1666 2539 1819 
Q 2322 1972 1947 1972 
L 1259 1972 
L 1259 0 
L 628 0 
L 628 4666 
L 2053 4666 
Q 2853 4666 3247 4331 
Q 3641 3997 3641 3322 
Q 3641 2881 3436 2590 
Q 3231 2300 2841 2188 
z
M 1259 4147 
L 1259 2491 
L 2053 2491 
Q 2509 2491 2742 2702 
Q 2975 2913 2975 3322 
Q 2975 3731 2742 3939 
Q 2509 4147 2053 4147 
L 1259 4147 
z
" transform="scale(0.015625)"/>
      <path id="DejaVuSans-4e" d="M 628 4666 
L 1478 4666 
L 3547 763 
L 3547 4666 
L 4159 4666 
L 4159 0 
L 3309 0 
L 1241 3903 
L 1241 0 
L 628 0 
L 628 4666 
z
" transform="scale(0.015625)"/>
      <path id="DejaVuSans-44" d="M 1259 4147 
L 1259 519 
L 2022 519 
Q 2988 519 3436 956 
Q 3884 1394 3884 2338 
Q 3884 3275 3436 3711 
Q 2988 4147 2022 4147 
L 1259 4147 
z
M 628 4666 
L 1925 4666 
Q 3281 4666 3915 4102 
Q 4550 3538 4550 2338 
Q 4550 1131 3912 565 
Q 3275 0 1925 0 
L 628 0 
L 628 4666 
z
" transform="scale(0.015625)"/>
      <path id="DejaVuSans-67" d="M 2906 1791 
Q 2906 2416 2648 2759 
Q 2391 3103 1925 3103 
Q 1463 3103 1205 2759 
Q 947 2416 947 1791 
Q 947 1169 1205 825 
Q 1463 481 1925 481 
Q 2391 481 2648 825 
Q 2906 1169 2906 1791 
z
M 3481 434 
Q 3481 -459 3084 -895 
Q 2688 -1331 1869 -1331 
Q 1566 -1331 1297 -1286 
Q 1028 -1241 775 -1147 
L 775 -588 
Q 1028 -725 1275 -790 
Q 1522 -856 1778 -856 
Q 2344 -856 2625 -561 
Q 2906 -266 2906 331 
L 2906 616 
Q 2728 306 2450 153 
Q 2172 0 1784 0 
Q 1141 0 747 490 
Q 353 981 353 1791 
Q 353 2603 747 3093 
Q 1141 3584 1784 3584 
Q 2172 3584 2450 3431 
Q 2728 3278 2906 2969 
L 2906 3500 
L 3481 3500 
L 3481 434 
z
" transform="scale(0.015625)"/>
      <path id="DejaVuSans-73" d="M 2834 3397 
L 2834 2853 
Q 2591 2978 2328 3040 
Q 2066 3103 1784 3103 
Q 1356 3103 1142 2972 
Q 928 2841 928 2578 
Q 928 2378 1081 2264 
Q 1234 2150 1697 2047 
L 1894 2003 
Q 2506 1872 2764 1633 
Q 3022 1394 3022 966 
Q 3022 478 2636 193 
Q 2250 -91 1575 -91 
Q 1294 -91 989 -36 
Q 684 19 347 128 
L 347 722 
Q 666 556 975 473 
Q 1284 391 1588 391 
Q 1994 391 2212 530 
Q 2431 669 2431 922 
Q 2431 1156 2273 1281 
Q 2116 1406 1581 1522 
L 1381 1569 
Q 847 1681 609 1914 
Q 372 2147 372 2553 
Q 372 3047 722 3315 
Q 1072 3584 1716 3584 
Q 2034 3584 2315 3537 
Q 2597 3491 2834 3397 
z
" transform="scale(0.015625)"/>
     </defs>
     <use xlink:href="#DejaVuSans-53"/>
     <use xlink:href="#DejaVuSans-69" x="63.476562"/>
     <use xlink:href="#DejaVuSans-6d" x="91.259766"/>
     <use xlink:href="#DejaVuSans-69" x="188.671875"/>
     <use xlink:href="#DejaVuSans-6c" x="216.455078"/>
     <use xlink:href="#DejaVuSans-61" x="244.238281"/>
     <use xlink:href="#DejaVuSans-72" x="305.517578"/>
     <use xlink:href="#DejaVuSans-69" x="346.630859"/>
     <use xlink:href="#DejaVuSans-74" x="374.414062"/>
     <use xlink:href="#DejaVuSans-79" x="413.623047"/>
     <use xlink:href="#DejaVuSans-20" x="472.802734"/>
     <use xlink:href="#DejaVuSans-4c" x="504.589844"/>
     <use xlink:href="#DejaVuSans-4c" x="560.302734"/>
     <use xlink:href="#DejaVuSans-4d" x="616.015625"/>
     <use xlink:href="#DejaVuSans-2d" x="702.294922"/>
     <use xlink:href="#DejaVuSans-52" x="738.378906"/>
     <use xlink:href="#DejaVuSans-4e" x="807.861328"/>
     <use xlink:href="#DejaVuSans-44" x="882.666016"/>
     <use xlink:href="#DejaVuSans-20" x="959.667969"/>
     <use xlink:href="#DejaVuSans-2d" x="991.455078"/>
     <use xlink:href="#DejaVuSans-20" x="1027.539062"/>
     <use xlink:href="#DejaVuSans-32" x="1059.326172"/>
     <use xlink:href="#DejaVuSans-30" x="1122.949219"/>
     <use xlink:href="#DejaVuSans-32" x="1186.572266"/>
     <use xlink:href="#DejaVuSans-34" x="1250.195312"/>
     <use xlink:href="#DejaVuSans-30" x="1313.818359"/>
     <use xlink:href="#DejaVuSans-34" x="1377.441406"/>
     <use xlink:href="#DejaVuSans-32" x="1441.064453"/>
     <use xlink:href="#DejaVuSans-32" x="1504.6875"/>
     <use xlink:href="#DejaVuSans-31" x="1568.310547"/>
     <use xlink:href="#DejaVuSans-36" x="1631.933594"/>
     <use xlink:href="#DejaVuSans-34" x="1695.556641"/>
     <use xlink:href="#DejaVuSans-34" x="1759.179688"/>
     <use xlink:href="#DejaVuSans-30" x="1822.802734"/>
     <use xlink:href="#DejaVuSans-31" x="1886.425781"/>
     <use xlink:href="#DejaVuSans-20" x="1950.048828"/>
     <use xlink:href="#DejaVuSans-2d" x="1981.835938"/>
     <use xlink:href="#DejaVuSans-20" x="2017.919922"/>
     <use xlink:href="#DejaVuSans-31" x="2049.707031"/>
     <use xlink:href="#DejaVuSans-30" x="2113.330078"/>
     <use xlink:href="#DejaVuSans-30" x="2176.953125"/>
     <use xlink:href="#DejaVuSans-20" x="2240.576172"/>
     <use xlink:href="#DejaVuSans-67" x="2272.363281"/>
     <use xlink:href="#DejaVuSans-61" x="2335.839844"/>
     <use xlink:href="#DejaVuSans-6d" x="2397.119141"/>
     <use xlink:href="#DejaVuSans-65" x="2494.53125"/>
     <use xlink:href="#DejaVuSans-73" x="2556.054688"/>
    </g>
   </g>
   <g id="legend_1">
    <g id="patch_7">
     <path d="M 333.953125 62.79625 
L 443 62.79625 
Q 445 62.79625 445 60.79625 
L 445 32.44 
Q 445 30.44 443 30.44 
L 333.953125 30.44 
Q 331.953125 30.44 331.953125 32.44 
L 331.953125 60.79625 
Q 331.953125 62.79625 333.953125 62.79625 
z
" style="fill: #ffffff; opacity: 0.8; stroke: #cccccc; stroke-linejoin: miter"/>
    </g>
    <g id="line2d_18">
     <path d="M 335.953125 38.538437 
L 345.953125 38.538437 
L 355.953125 38.538437 
" style="fill: none; stroke: #0000ff; stroke-linecap: square"/>
     <g>
      <use xlink:href="#m244f471d3f" x="345.953125" y="38.538437" style="fill: #0000ff"/>
     </g>
    </g>
    <g id="text_16">
     <!-- LLM-RND -->
     <g transform="translate(363.953125 42.038437) scale(0.1 -0.1)">
      <use xlink:href="#DejaVuSans-4c"/>
      <use xlink:href="#DejaVuSans-4c" x="55.712891"/>
      <use xlink:href="#DejaVuSans-4d" x="111.425781"/>
      <use xlink:href="#DejaVuSans-2d" x="197.705078"/>
      <use xlink:href="#DejaVuSans-52" x="233.789062"/>
      <use xlink:href="#DejaVuSans-4e" x="303.271484"/>
      <use xlink:href="#DejaVuSans-44" x="378.076172"/>
     </g>
    </g>
    <g id="line2d_19">
     <path d="M 335.953125 53.216562 
L 345.953125 53.216562 
L 355.953125 53.216562 
" style="fill: none; stroke: #ff0000; stroke-opacity: 0.5; stroke-width: 0.5; stroke-linecap: square"/>
     <g>
      <use xlink:href="#m8da98f4690" x="345.953125" y="53.216562" style="fill: #ff0000; fill-opacity: 0.5"/>
     </g>
    </g>
    <g id="text_17">
     <!-- LLM-RND mean -->
     <g transform="translate(363.953125 56.716562) scale(0.1 -0.1)">
      <use xlink:href="#DejaVuSans-4c"/>
      <use xlink:href="#DejaVuSans-4c" x="55.712891"/>
      <use xlink:href="#DejaVuSans-4d" x="111.425781"/>
      <use xlink:href="#DejaVuSans-2d" x="197.705078"/>
      <use xlink:href="#DejaVuSans-52" x="233.789062"/>
      <use xlink:href="#DejaVuSans-4e" x="303.271484"/>
      <use xlink:href="#DejaVuSans-44" x="378.076172"/>
      <use xlink:href="#DejaVuSans-20" x="455.078125"/>
      <use xlink:href="#DejaVuSans-6d" x="486.865234"/>
      <use xlink:href="#DejaVuSans-65" x="584.277344"/>
      <use xlink:href="#DejaVuSans-61" x="645.800781"/>
      <use xlink:href="#DejaVuSans-6e" x="707.080078"/>
     </g>
    </g>
   </g>
  </g>
 </g>
 <defs>
  <clipPath id="pb9f07ea346">
   <rect x="47.81" y="25.44" width="402.19" height="278.2"/>
  </clipPath>
 </defs>
</svg>
