<?xml version="1.0" encoding="utf-8" standalone="no"?>
<!DOCTYPE svg PUBLIC "-//W3C//DTD SVG 1.1//EN"
  "http://www.w3.org/Graphics/SVG/1.1/DTD/svg11.dtd">
<svg xmlns:xlink="http://www.w3.org/1999/xlink" width="460.8pt" height="345.6pt" viewBox="0 0 460.8 345.6" xmlns="http://www.w3.org/2000/svg" version="1.1">
 <metadata>
  <rdf:RDF xmlns:dc="http://purl.org/dc/elements/1.1/" xmlns:cc="http://creativecommons.org/ns#" xmlns:rdf="http://www.w3.org/1999/02/22-rdf-syntax-ns#">
   <cc:Work>
    <dc:type rdf:resource="http://purl.org/dc/dcmitype/StillImage"/>
    <dc:date>2024-04-15T10:04:49.331048</dc:date>
    <dc:format>image/svg+xml</dc:format>
    <dc:creator>
     <cc:Agent>
      <dc:title>Matplotlib v3.8.0, https://matplotlib.org/</dc:title>
     </cc:Agent>
    </dc:creator>
   </cc:Work>
  </rdf:RDF>
 </metadata>
 <defs>
  <style type="text/css">*{stroke-linejoin: round; stroke-linecap: butt}</style>
 </defs>
 <g id="figure_1">
  <g id="patch_1">
   <path d="M 0 345.6 
L 460.8 345.6 
L 460.8 0 
L 0 0 
z
" style="fill: #ffffff"/>
  </g>
  <g id="axes_1">
   <g id="patch_2">
    <path d="M 56.18 303.64 
L 450 303.64 
L 450 25.44 
L 56.18 25.44 
z
" style="fill: #ffffff"/>
   </g>
   <g id="PolyCollection_1">
    <defs>
     <path id="m829562629a" d="M 74.080909 -284.45224 
L 74.080909 -284.45224 
L 77.697254 -307.514545 
L 81.3136 -277.576318 
L 84.929945 -251.70402 
L 88.54629 -232.521494 
L 92.162635 -217.834165 
L 95.778981 -206.593187 
L 99.395326 -197.295929 
L 103.011671 -189.625992 
L 106.628017 -183.184786 
L 110.244362 -177.691397 
L 113.860707 -172.943959 
L 117.477052 -168.959942 
L 121.093398 -165.629975 
L 124.709743 -162.503959 
L 128.326088 -159.703399 
L 131.942433 -158.956029 
L 135.558779 -158.842307 
L 139.175124 -158.998782 
L 142.791469 -160.76642 
L 146.407815 -161.00551 
L 150.02416 -161.4643 
L 153.640505 -161.332376 
L 157.25685 -162.826826 
L 160.873196 -163.849852 
L 164.489541 -164.237594 
L 168.105886 -165.060152 
L 171.722231 -165.790088 
L 175.338577 -167.200999 
L 178.954922 -167.977431 
L 182.571267 -168.906388 
L 186.187612 -169.317178 
L 189.803958 -169.885441 
L 193.420303 -170.024224 
L 197.036648 -169.428139 
L 200.652994 -170.101739 
L 204.269339 -169.893319 
L 207.885684 -169.148226 
L 211.502029 -168.295922 
L 215.118375 -168.011096 
L 218.73472 -167.349185 
L 222.351065 -166.535122 
L 225.96741 -165.858387 
L 229.583756 -165.351573 
L 233.200101 -164.787175 
L 236.816446 -164.400803 
L 240.432792 -163.755926 
L 244.049137 -163.247807 
L 247.665482 -162.826926 
L 251.281827 -162.49757 
L 254.898173 -162.696477 
L 258.514518 -162.881696 
L 262.130863 -162.938319 
L 265.747208 -162.787768 
L 269.363554 -162.836475 
L 272.979899 -162.988465 
L 276.596244 -163.130484 
L 280.21259 -162.896277 
L 283.828935 -162.536866 
L 287.44528 -162.247481 
L 291.061625 -162.108646 
L 294.677971 -162.144868 
L 298.294316 -161.870226 
L 301.910661 -161.904832 
L 305.527006 -161.771697 
L 309.143352 -161.994531 
L 312.759697 -161.793058 
L 316.376042 -161.537214 
L 319.992388 -161.345068 
L 323.608733 -161.008633 
L 327.225078 -160.826692 
L 330.841423 -160.711434 
L 334.457769 -160.336252 
L 338.074114 -160.065995 
L 341.690459 -159.762314 
L 345.306804 -159.408951 
L 348.92315 -159.203189 
L 352.539495 -158.918053 
L 356.15584 -158.676596 
L 359.772185 -158.484433 
L 363.388531 -158.252092 
L 367.004876 -158.388717 
L 370.621221 -158.373153 
L 374.237567 -158.294475 
L 377.853912 -158.421115 
L 381.470257 -158.3416 
L 385.086602 -158.163716 
L 388.702948 -158.146254 
L 392.319293 -157.973066 
L 395.935638 -158.091536 
L 399.551983 -158.072552 
L 403.168329 -157.904161 
L 406.784674 -157.738625 
L 410.401019 -157.540002 
L 414.017365 -157.315584 
L 417.63371 -157.159226 
L 421.250055 -156.889958 
L 424.8664 -156.705257 
L 428.482746 -156.699714 
L 432.099091 -156.752281 
L 432.099091 -105.449644 
L 432.099091 -105.449644 
L 428.482746 -105.216191 
L 424.8664 -104.999954 
L 421.250055 -104.928211 
L 417.63371 -105.18852 
L 414.017365 -105.070536 
L 410.401019 -105.05454 
L 406.784674 -104.983297 
L 403.168329 -104.861453 
L 399.551983 -104.737715 
L 395.935638 -104.499245 
L 392.319293 -104.214559 
L 388.702948 -104.080978 
L 385.086602 -103.829761 
L 381.470257 -103.690147 
L 377.853912 -103.462653 
L 374.237567 -103.153722 
L 370.621221 -102.916468 
L 367.004876 -102.641461 
L 363.388531 -102.315844 
L 359.772185 -102.20625 
L 356.15584 -102.039257 
L 352.539495 -101.925589 
L 348.92315 -101.874859 
L 345.306804 -101.700358 
L 341.690459 -101.803298 
L 338.074114 -101.753282 
L 334.457769 -101.634682 
L 330.841423 -101.746783 
L 327.225078 -101.460373 
L 323.608733 -101.216017 
L 319.992388 -101.16118 
L 316.376042 -100.908007 
L 312.759697 -100.708028 
L 309.143352 -100.4436 
L 305.527006 -99.989704 
L 301.910661 -99.655809 
L 298.294316 -99.230776 
L 294.677971 -98.994826 
L 291.061625 -98.549438 
L 287.44528 -98.178071 
L 283.828935 -97.917896 
L 280.21259 -97.725837 
L 276.596244 -97.385771 
L 272.979899 -96.850013 
L 269.363554 -96.29958 
L 265.747208 -95.767143 
L 262.130863 -95.313666 
L 258.514518 -94.749793 
L 254.898173 -94.134222 
L 251.281827 -93.500309 
L 247.665482 -93.115763 
L 244.049137 -92.803098 
L 240.432792 -92.577032 
L 236.816446 -92.572294 
L 233.200101 -92.147497 
L 229.583756 -91.904469 
L 225.96741 -91.548998 
L 222.351065 -91.40957 
L 218.73472 -91.547019 
L 215.118375 -91.287653 
L 211.502029 -90.61023 
L 207.885684 -90.600547 
L 204.269339 -90.31368 
L 200.652994 -89.484235 
L 197.036648 -88.36505 
L 193.420303 -87.742229 
L 189.803958 -86.647519 
L 186.187612 -85.408076 
L 182.571267 -84.151112 
L 178.954922 -82.770871 
L 175.338577 -81.353122 
L 171.722231 -79.844989 
L 168.105886 -78.323424 
L 164.489541 -76.721287 
L 160.873196 -75.126671 
L 157.25685 -73.339318 
L 153.640505 -71.433185 
L 150.02416 -69.760781 
L 146.407815 -67.774866 
L 142.791469 -65.722473 
L 139.175124 -63.282914 
L 135.558779 -60.974145 
L 131.942433 -58.573025 
L 128.326088 -56.246571 
L 124.709743 -55.898465 
L 121.093398 -55.575254 
L 117.477052 -54.867453 
L 113.860707 -54.605455 
L 110.244362 -54.979849 
L 106.628017 -55.632659 
L 103.011671 -56.703474 
L 99.395326 -58.423563 
L 95.778981 -61.199196 
L 92.162635 -63.404104 
L 88.54629 -70.722577 
L 84.929945 -80.571802 
L 81.3136 -100.434455 
L 77.697254 -150.035272 
L 74.080909 -284.45224 
z
" style="stroke: #0000ff; stroke-opacity: 0.2"/>
    </defs>
    <g clip-path="url(#p37cc2b12cb)">
     <use xlink:href="#m829562629a" x="0" y="345.6" style="fill: #0000ff; fill-opacity: 0.2; stroke: #0000ff; stroke-opacity: 0.2"/>
    </g>
   </g>
   <g id="PolyCollection_2">
    <defs>
     <path id="mb3ed9f5462" d="M 74.080909 -85.604629 
L 74.080909 -85.604629 
L 77.697254 -85.604629 
L 81.3136 -85.604629 
L 84.929945 -85.604629 
L 88.54629 -85.604629 
L 92.162635 -85.604629 
L 95.778981 -85.604629 
L 99.395326 -85.604629 
L 103.011671 -85.604629 
L 106.628017 -85.604629 
L 110.244362 -85.604629 
L 113.860707 -85.604629 
L 117.477052 -85.604629 
L 121.093398 -85.604629 
L 124.709743 -85.604629 
L 128.326088 -85.604629 
L 131.942433 -85.604629 
L 135.558779 -85.604629 
L 139.175124 -85.604629 
L 142.791469 -85.604629 
L 146.407815 -85.604629 
L 150.02416 -85.604629 
L 153.640505 -85.604629 
L 157.25685 -85.604629 
L 160.873196 -85.604629 
L 164.489541 -85.604629 
L 168.105886 -85.604629 
L 171.722231 -85.604629 
L 175.338577 -85.604629 
L 178.954922 -85.604629 
L 182.571267 -85.604629 
L 186.187612 -85.604629 
L 189.803958 -85.604629 
L 193.420303 -85.604629 
L 197.036648 -85.604629 
L 200.652994 -85.604629 
L 204.269339 -85.604629 
L 207.885684 -85.604629 
L 211.502029 -85.604629 
L 215.118375 -85.604629 
L 218.73472 -85.604629 
L 222.351065 -85.604629 
L 225.96741 -85.604629 
L 229.583756 -85.604629 
L 233.200101 -85.604629 
L 236.816446 -85.604629 
L 240.432792 -85.604629 
L 244.049137 -85.604629 
L 247.665482 -85.604629 
L 251.281827 -85.604629 
L 254.898173 -85.604629 
L 258.514518 -85.604629 
L 262.130863 -85.604629 
L 265.747208 -85.604629 
L 269.363554 -85.604629 
L 272.979899 -85.604629 
L 276.596244 -85.604629 
L 280.21259 -85.604629 
L 283.828935 -85.604629 
L 287.44528 -85.604629 
L 291.061625 -85.604629 
L 294.677971 -85.604629 
L 298.294316 -85.604629 
L 301.910661 -85.604629 
L 305.527006 -85.604629 
L 309.143352 -85.604629 
L 312.759697 -85.604629 
L 316.376042 -85.604629 
L 319.992388 -85.604629 
L 323.608733 -85.604629 
L 327.225078 -85.604629 
L 330.841423 -85.604629 
L 334.457769 -85.604629 
L 338.074114 -85.604629 
L 341.690459 -85.604629 
L 345.306804 -85.604629 
L 348.92315 -85.604629 
L 352.539495 -85.604629 
L 356.15584 -85.604629 
L 359.772185 -85.604629 
L 363.388531 -85.604629 
L 367.004876 -85.604629 
L 370.621221 -85.604629 
L 374.237567 -85.604629 
L 377.853912 -85.604629 
L 381.470257 -85.604629 
L 385.086602 -85.604629 
L 388.702948 -85.604629 
L 392.319293 -85.604629 
L 395.935638 -85.604629 
L 399.551983 -85.604629 
L 403.168329 -85.604629 
L 406.784674 -85.604629 
L 410.401019 -85.604629 
L 414.017365 -85.604629 
L 417.63371 -85.604629 
L 421.250055 -85.604629 
L 424.8664 -85.604629 
L 428.482746 -85.604629 
L 432.099091 -85.604629 
L 432.099091 -85.604629 
L 432.099091 -85.604629 
L 428.482746 -85.604629 
L 424.8664 -85.604629 
L 421.250055 -85.604629 
L 417.63371 -85.604629 
L 414.017365 -85.604629 
L 410.401019 -85.604629 
L 406.784674 -85.604629 
L 403.168329 -85.604629 
L 399.551983 -85.604629 
L 395.935638 -85.604629 
L 392.319293 -85.604629 
L 388.702948 -85.604629 
L 385.086602 -85.604629 
L 381.470257 -85.604629 
L 377.853912 -85.604629 
L 374.237567 -85.604629 
L 370.621221 -85.604629 
L 367.004876 -85.604629 
L 363.388531 -85.604629 
L 359.772185 -85.604629 
L 356.15584 -85.604629 
L 352.539495 -85.604629 
L 348.92315 -85.604629 
L 345.306804 -85.604629 
L 341.690459 -85.604629 
L 338.074114 -85.604629 
L 334.457769 -85.604629 
L 330.841423 -85.604629 
L 327.225078 -85.604629 
L 323.608733 -85.604629 
L 319.992388 -85.604629 
L 316.376042 -85.604629 
L 312.759697 -85.604629 
L 309.143352 -85.604629 
L 305.527006 -85.604629 
L 301.910661 -85.604629 
L 298.294316 -85.604629 
L 294.677971 -85.604629 
L 291.061625 -85.604629 
L 287.44528 -85.604629 
L 283.828935 -85.604629 
L 280.21259 -85.604629 
L 276.596244 -85.604629 
L 272.979899 -85.604629 
L 269.363554 -85.604629 
L 265.747208 -85.604629 
L 262.130863 -85.604629 
L 258.514518 -85.604629 
L 254.898173 -85.604629 
L 251.281827 -85.604629 
L 247.665482 -85.604629 
L 244.049137 -85.604629 
L 240.432792 -85.604629 
L 236.816446 -85.604629 
L 233.200101 -85.604629 
L 229.583756 -85.604629 
L 225.96741 -85.604629 
L 222.351065 -85.604629 
L 218.73472 -85.604629 
L 215.118375 -85.604629 
L 211.502029 -85.604629 
L 207.885684 -85.604629 
L 204.269339 -85.604629 
L 200.652994 -85.604629 
L 197.036648 -85.604629 
L 193.420303 -85.604629 
L 189.803958 -85.604629 
L 186.187612 -85.604629 
L 182.571267 -85.604629 
L 178.954922 -85.604629 
L 175.338577 -85.604629 
L 171.722231 -85.604629 
L 168.105886 -85.604629 
L 164.489541 -85.604629 
L 160.873196 -85.604629 
L 157.25685 -85.604629 
L 153.640505 -85.604629 
L 150.02416 -85.604629 
L 146.407815 -85.604629 
L 142.791469 -85.604629 
L 139.175124 -85.604629 
L 135.558779 -85.604629 
L 131.942433 -85.604629 
L 128.326088 -85.604629 
L 124.709743 -85.604629 
L 121.093398 -85.604629 
L 117.477052 -85.604629 
L 113.860707 -85.604629 
L 110.244362 -85.604629 
L 106.628017 -85.604629 
L 103.011671 -85.604629 
L 99.395326 -85.604629 
L 95.778981 -85.604629 
L 92.162635 -85.604629 
L 88.54629 -85.604629 
L 84.929945 -85.604629 
L 81.3136 -85.604629 
L 77.697254 -85.604629 
L 74.080909 -85.604629 
z
" style="stroke: #ff0000; stroke-opacity: 0.1"/>
    </defs>
    <g clip-path="url(#p37cc2b12cb)">
     <use xlink:href="#mb3ed9f5462" x="0" y="345.6" style="fill: #ff0000; fill-opacity: 0.1; stroke: #ff0000; stroke-opacity: 0.1"/>
    </g>
   </g>
   <g id="matplotlib.axis_1">
    <g id="xtick_1">
     <g id="line2d_1">
      <defs>
       <path id="mb58f6eb7d4" d="M 0 0 
L 0 3.5 
" style="stroke: #000000; stroke-width: 0.8"/>
      </defs>
      <g>
       <use xlink:href="#mb58f6eb7d4" x="74.080909" y="303.64" style="stroke: #000000; stroke-width: 0.8"/>
      </g>
     </g>
     <g id="text_1">
      <!-- 0 -->
      <g transform="translate(70.899659 318.238437) scale(0.1 -0.1)">
       <defs>
        <path id="DejaVuSans-30" d="M 2034 4250 
Q 1547 4250 1301 3770 
Q 1056 3291 1056 2328 
Q 1056 1369 1301 889 
Q 1547 409 2034 409 
Q 2525 409 2770 889 
Q 3016 1369 3016 2328 
Q 3016 3291 2770 3770 
Q 2525 4250 2034 4250 
z
M 2034 4750 
Q 2819 4750 3233 4129 
Q 3647 3509 3647 2328 
Q 3647 1150 3233 529 
Q 2819 -91 2034 -91 
Q 1250 -91 836 529 
Q 422 1150 422 2328 
Q 422 3509 836 4129 
Q 1250 4750 2034 4750 
z
" transform="scale(0.015625)"/>
       </defs>
       <use xlink:href="#DejaVuSans-30"/>
      </g>
     </g>
    </g>
    <g id="xtick_2">
     <g id="line2d_2">
      <g>
       <use xlink:href="#mb58f6eb7d4" x="146.407815" y="303.64" style="stroke: #000000; stroke-width: 0.8"/>
      </g>
     </g>
     <g id="text_2">
      <!-- 20 -->
      <g transform="translate(140.045315 318.238437) scale(0.1 -0.1)">
       <defs>
        <path id="DejaVuSans-32" d="M 1228 531 
L 3431 531 
L 3431 0 
L 469 0 
L 469 531 
Q 828 903 1448 1529 
Q 2069 2156 2228 2338 
Q 2531 2678 2651 2914 
Q 2772 3150 2772 3378 
Q 2772 3750 2511 3984 
Q 2250 4219 1831 4219 
Q 1534 4219 1204 4116 
Q 875 4013 500 3803 
L 500 4441 
Q 881 4594 1212 4672 
Q 1544 4750 1819 4750 
Q 2544 4750 2975 4387 
Q 3406 4025 3406 3419 
Q 3406 3131 3298 2873 
Q 3191 2616 2906 2266 
Q 2828 2175 2409 1742 
Q 1991 1309 1228 531 
z
" transform="scale(0.015625)"/>
       </defs>
       <use xlink:href="#DejaVuSans-32"/>
       <use xlink:href="#DejaVuSans-30" x="63.623047"/>
      </g>
     </g>
    </g>
    <g id="xtick_3">
     <g id="line2d_3">
      <g>
       <use xlink:href="#mb58f6eb7d4" x="218.73472" y="303.64" style="stroke: #000000; stroke-width: 0.8"/>
      </g>
     </g>
     <g id="text_3">
      <!-- 40 -->
      <g transform="translate(212.37222 318.238437) scale(0.1 -0.1)">
       <defs>
        <path id="DejaVuSans-34" d="M 2419 4116 
L 825 1625 
L 2419 1625 
L 2419 4116 
z
M 2253 4666 
L 3047 4666 
L 3047 1625 
L 3713 1625 
L 3713 1100 
L 3047 1100 
L 3047 0 
L 2419 0 
L 2419 1100 
L 313 1100 
L 313 1709 
L 2253 4666 
z
" transform="scale(0.015625)"/>
       </defs>
       <use xlink:href="#DejaVuSans-34"/>
       <use xlink:href="#DejaVuSans-30" x="63.623047"/>
      </g>
     </g>
    </g>
    <g id="xtick_4">
     <g id="line2d_4">
      <g>
       <use xlink:href="#mb58f6eb7d4" x="291.061625" y="303.64" style="stroke: #000000; stroke-width: 0.8"/>
      </g>
     </g>
     <g id="text_4">
      <!-- 60 -->
      <g transform="translate(284.699125 318.238437) scale(0.1 -0.1)">
       <defs>
        <path id="DejaVuSans-36" d="M 2113 2584 
Q 1688 2584 1439 2293 
Q 1191 2003 1191 1497 
Q 1191 994 1439 701 
Q 1688 409 2113 409 
Q 2538 409 2786 701 
Q 3034 994 3034 1497 
Q 3034 2003 2786 2293 
Q 2538 2584 2113 2584 
z
M 3366 4563 
L 3366 3988 
Q 3128 4100 2886 4159 
Q 2644 4219 2406 4219 
Q 1781 4219 1451 3797 
Q 1122 3375 1075 2522 
Q 1259 2794 1537 2939 
Q 1816 3084 2150 3084 
Q 2853 3084 3261 2657 
Q 3669 2231 3669 1497 
Q 3669 778 3244 343 
Q 2819 -91 2113 -91 
Q 1303 -91 875 529 
Q 447 1150 447 2328 
Q 447 3434 972 4092 
Q 1497 4750 2381 4750 
Q 2619 4750 2861 4703 
Q 3103 4656 3366 4563 
z
" transform="scale(0.015625)"/>
       </defs>
       <use xlink:href="#DejaVuSans-36"/>
       <use xlink:href="#DejaVuSans-30" x="63.623047"/>
      </g>
     </g>
    </g>
    <g id="xtick_5">
     <g id="line2d_5">
      <g>
       <use xlink:href="#mb58f6eb7d4" x="363.388531" y="303.64" style="stroke: #000000; stroke-width: 0.8"/>
      </g>
     </g>
     <g id="text_5">
      <!-- 80 -->
      <g transform="translate(357.026031 318.238437) scale(0.1 -0.1)">
       <defs>
        <path id="DejaVuSans-38" d="M 2034 2216 
Q 1584 2216 1326 1975 
Q 1069 1734 1069 1313 
Q 1069 891 1326 650 
Q 1584 409 2034 409 
Q 2484 409 2743 651 
Q 3003 894 3003 1313 
Q 3003 1734 2745 1975 
Q 2488 2216 2034 2216 
z
M 1403 2484 
Q 997 2584 770 2862 
Q 544 3141 544 3541 
Q 544 4100 942 4425 
Q 1341 4750 2034 4750 
Q 2731 4750 3128 4425 
Q 3525 4100 3525 3541 
Q 3525 3141 3298 2862 
Q 3072 2584 2669 2484 
Q 3125 2378 3379 2068 
Q 3634 1759 3634 1313 
Q 3634 634 3220 271 
Q 2806 -91 2034 -91 
Q 1263 -91 848 271 
Q 434 634 434 1313 
Q 434 1759 690 2068 
Q 947 2378 1403 2484 
z
M 1172 3481 
Q 1172 3119 1398 2916 
Q 1625 2713 2034 2713 
Q 2441 2713 2670 2916 
Q 2900 3119 2900 3481 
Q 2900 3844 2670 4047 
Q 2441 4250 2034 4250 
Q 1625 4250 1398 4047 
Q 1172 3844 1172 3481 
z
" transform="scale(0.015625)"/>
       </defs>
       <use xlink:href="#DejaVuSans-38"/>
       <use xlink:href="#DejaVuSans-30" x="63.623047"/>
      </g>
     </g>
    </g>
    <g id="xtick_6">
     <g id="line2d_6">
      <g>
       <use xlink:href="#mb58f6eb7d4" x="435.715436" y="303.64" style="stroke: #000000; stroke-width: 0.8"/>
      </g>
     </g>
     <g id="text_6">
      <!-- 100 -->
      <g transform="translate(426.171686 318.238437) scale(0.1 -0.1)">
       <defs>
        <path id="DejaVuSans-31" d="M 794 531 
L 1825 531 
L 1825 4091 
L 703 3866 
L 703 4441 
L 1819 4666 
L 2450 4666 
L 2450 531 
L 3481 531 
L 3481 0 
L 794 0 
L 794 531 
z
" transform="scale(0.015625)"/>
       </defs>
       <use xlink:href="#DejaVuSans-31"/>
       <use xlink:href="#DejaVuSans-30" x="63.623047"/>
       <use xlink:href="#DejaVuSans-30" x="127.246094"/>
      </g>
     </g>
    </g>
    <g id="text_7">
     <!-- Iteration -->
     <g transform="translate(231.881406 331.916562) scale(0.1 -0.1)">
      <defs>
       <path id="DejaVuSans-49" d="M 628 4666 
L 1259 4666 
L 1259 0 
L 628 0 
L 628 4666 
z
" transform="scale(0.015625)"/>
       <path id="DejaVuSans-74" d="M 1172 4494 
L 1172 3500 
L 2356 3500 
L 2356 3053 
L 1172 3053 
L 1172 1153 
Q 1172 725 1289 603 
Q 1406 481 1766 481 
L 2356 481 
L 2356 0 
L 1766 0 
Q 1100 0 847 248 
Q 594 497 594 1153 
L 594 3053 
L 172 3053 
L 172 3500 
L 594 3500 
L 594 4494 
L 1172 4494 
z
" transform="scale(0.015625)"/>
       <path id="DejaVuSans-65" d="M 3597 1894 
L 3597 1613 
L 953 1613 
Q 991 1019 1311 708 
Q 1631 397 2203 397 
Q 2534 397 2845 478 
Q 3156 559 3463 722 
L 3463 178 
Q 3153 47 2828 -22 
Q 2503 -91 2169 -91 
Q 1331 -91 842 396 
Q 353 884 353 1716 
Q 353 2575 817 3079 
Q 1281 3584 2069 3584 
Q 2775 3584 3186 3129 
Q 3597 2675 3597 1894 
z
M 3022 2063 
Q 3016 2534 2758 2815 
Q 2500 3097 2075 3097 
Q 1594 3097 1305 2825 
Q 1016 2553 972 2059 
L 3022 2063 
z
" transform="scale(0.015625)"/>
       <path id="DejaVuSans-72" d="M 2631 2963 
Q 2534 3019 2420 3045 
Q 2306 3072 2169 3072 
Q 1681 3072 1420 2755 
Q 1159 2438 1159 1844 
L 1159 0 
L 581 0 
L 581 3500 
L 1159 3500 
L 1159 2956 
Q 1341 3275 1631 3429 
Q 1922 3584 2338 3584 
Q 2397 3584 2469 3576 
Q 2541 3569 2628 3553 
L 2631 2963 
z
" transform="scale(0.015625)"/>
       <path id="DejaVuSans-61" d="M 2194 1759 
Q 1497 1759 1228 1600 
Q 959 1441 959 1056 
Q 959 750 1161 570 
Q 1363 391 1709 391 
Q 2188 391 2477 730 
Q 2766 1069 2766 1631 
L 2766 1759 
L 2194 1759 
z
M 3341 1997 
L 3341 0 
L 2766 0 
L 2766 531 
Q 2569 213 2275 61 
Q 1981 -91 1556 -91 
Q 1019 -91 701 211 
Q 384 513 384 1019 
Q 384 1609 779 1909 
Q 1175 2209 1959 2209 
L 2766 2209 
L 2766 2266 
Q 2766 2663 2505 2880 
Q 2244 3097 1772 3097 
Q 1472 3097 1187 3025 
Q 903 2953 641 2809 
L 641 3341 
Q 956 3463 1253 3523 
Q 1550 3584 1831 3584 
Q 2591 3584 2966 3190 
Q 3341 2797 3341 1997 
z
" transform="scale(0.015625)"/>
       <path id="DejaVuSans-69" d="M 603 3500 
L 1178 3500 
L 1178 0 
L 603 0 
L 603 3500 
z
M 603 4863 
L 1178 4863 
L 1178 4134 
L 603 4134 
L 603 4863 
z
" transform="scale(0.015625)"/>
       <path id="DejaVuSans-6f" d="M 1959 3097 
Q 1497 3097 1228 2736 
Q 959 2375 959 1747 
Q 959 1119 1226 758 
Q 1494 397 1959 397 
Q 2419 397 2687 759 
Q 2956 1122 2956 1747 
Q 2956 2369 2687 2733 
Q 2419 3097 1959 3097 
z
M 1959 3584 
Q 2709 3584 3137 3096 
Q 3566 2609 3566 1747 
Q 3566 888 3137 398 
Q 2709 -91 1959 -91 
Q 1206 -91 779 398 
Q 353 888 353 1747 
Q 353 2609 779 3096 
Q 1206 3584 1959 3584 
z
" transform="scale(0.015625)"/>
       <path id="DejaVuSans-6e" d="M 3513 2113 
L 3513 0 
L 2938 0 
L 2938 2094 
Q 2938 2591 2744 2837 
Q 2550 3084 2163 3084 
Q 1697 3084 1428 2787 
Q 1159 2491 1159 1978 
L 1159 0 
L 581 0 
L 581 3500 
L 1159 3500 
L 1159 2956 
Q 1366 3272 1645 3428 
Q 1925 3584 2291 3584 
Q 2894 3584 3203 3211 
Q 3513 2838 3513 2113 
z
" transform="scale(0.015625)"/>
      </defs>
      <use xlink:href="#DejaVuSans-49"/>
      <use xlink:href="#DejaVuSans-74" x="29.492188"/>
      <use xlink:href="#DejaVuSans-65" x="68.701172"/>
      <use xlink:href="#DejaVuSans-72" x="130.224609"/>
      <use xlink:href="#DejaVuSans-61" x="171.337891"/>
      <use xlink:href="#DejaVuSans-74" x="232.617188"/>
      <use xlink:href="#DejaVuSans-69" x="271.826172"/>
      <use xlink:href="#DejaVuSans-6f" x="299.609375"/>
      <use xlink:href="#DejaVuSans-6e" x="360.791016"/>
     </g>
    </g>
   </g>
   <g id="matplotlib.axis_2">
    <g id="ytick_1">
     <g id="line2d_7">
      <defs>
       <path id="m3c4944368c" d="M 0 0 
L -3.5 0 
" style="stroke: #000000; stroke-width: 0.8"/>
      </defs>
      <g>
       <use xlink:href="#m3c4944368c" x="56.18" y="299.764893" style="stroke: #000000; stroke-width: 0.8"/>
      </g>
     </g>
     <g id="text_8">
      <!-- −0.2 -->
      <g transform="translate(24.897188 303.564112) scale(0.1 -0.1)">
       <defs>
        <path id="DejaVuSans-2212" d="M 678 2272 
L 4684 2272 
L 4684 1741 
L 678 1741 
L 678 2272 
z
" transform="scale(0.015625)"/>
        <path id="DejaVuSans-2e" d="M 684 794 
L 1344 794 
L 1344 0 
L 684 0 
L 684 794 
z
" transform="scale(0.015625)"/>
       </defs>
       <use xlink:href="#DejaVuSans-2212"/>
       <use xlink:href="#DejaVuSans-30" x="83.789062"/>
       <use xlink:href="#DejaVuSans-2e" x="147.412109"/>
       <use xlink:href="#DejaVuSans-32" x="179.199219"/>
      </g>
     </g>
    </g>
    <g id="ytick_2">
     <g id="line2d_8">
      <g>
       <use xlink:href="#m3c4944368c" x="56.18" y="259.995371" style="stroke: #000000; stroke-width: 0.8"/>
      </g>
     </g>
     <g id="text_9">
      <!-- 0.0 -->
      <g transform="translate(33.276875 263.79459) scale(0.1 -0.1)">
       <use xlink:href="#DejaVuSans-30"/>
       <use xlink:href="#DejaVuSans-2e" x="63.623047"/>
       <use xlink:href="#DejaVuSans-30" x="95.410156"/>
      </g>
     </g>
    </g>
    <g id="ytick_3">
     <g id="line2d_9">
      <g>
       <use xlink:href="#m3c4944368c" x="56.18" y="220.225849" style="stroke: #000000; stroke-width: 0.8"/>
      </g>
     </g>
     <g id="text_10">
      <!-- 0.2 -->
      <g transform="translate(33.276875 224.025068) scale(0.1 -0.1)">
       <use xlink:href="#DejaVuSans-30"/>
       <use xlink:href="#DejaVuSans-2e" x="63.623047"/>
       <use xlink:href="#DejaVuSans-32" x="95.410156"/>
      </g>
     </g>
    </g>
    <g id="ytick_4">
     <g id="line2d_10">
      <g>
       <use xlink:href="#m3c4944368c" x="56.18" y="180.456327" style="stroke: #000000; stroke-width: 0.8"/>
      </g>
     </g>
     <g id="text_11">
      <!-- 0.4 -->
      <g transform="translate(33.276875 184.255546) scale(0.1 -0.1)">
       <use xlink:href="#DejaVuSans-30"/>
       <use xlink:href="#DejaVuSans-2e" x="63.623047"/>
       <use xlink:href="#DejaVuSans-34" x="95.410156"/>
      </g>
     </g>
    </g>
    <g id="ytick_5">
     <g id="line2d_11">
      <g>
       <use xlink:href="#m3c4944368c" x="56.18" y="140.686805" style="stroke: #000000; stroke-width: 0.8"/>
      </g>
     </g>
     <g id="text_12">
      <!-- 0.6 -->
      <g transform="translate(33.276875 144.486023) scale(0.1 -0.1)">
       <use xlink:href="#DejaVuSans-30"/>
       <use xlink:href="#DejaVuSans-2e" x="63.623047"/>
       <use xlink:href="#DejaVuSans-36" x="95.410156"/>
      </g>
     </g>
    </g>
    <g id="ytick_6">
     <g id="line2d_12">
      <g>
       <use xlink:href="#m3c4944368c" x="56.18" y="100.917282" style="stroke: #000000; stroke-width: 0.8"/>
      </g>
     </g>
     <g id="text_13">
      <!-- 0.8 -->
      <g transform="translate(33.276875 104.716501) scale(0.1 -0.1)">
       <use xlink:href="#DejaVuSans-30"/>
       <use xlink:href="#DejaVuSans-2e" x="63.623047"/>
       <use xlink:href="#DejaVuSans-38" x="95.410156"/>
      </g>
     </g>
    </g>
    <g id="ytick_7">
     <g id="line2d_13">
      <g>
       <use xlink:href="#m3c4944368c" x="56.18" y="61.14776" style="stroke: #000000; stroke-width: 0.8"/>
      </g>
     </g>
     <g id="text_14">
      <!-- 1.0 -->
      <g transform="translate(33.276875 64.946979) scale(0.1 -0.1)">
       <use xlink:href="#DejaVuSans-31"/>
       <use xlink:href="#DejaVuSans-2e" x="63.623047"/>
       <use xlink:href="#DejaVuSans-30" x="95.410156"/>
      </g>
     </g>
    </g>
    <g id="text_15">
     <!-- Avg action -->
     <g transform="translate(18.8175 190.779844) rotate(-90) scale(0.1 -0.1)">
      <defs>
       <path id="DejaVuSans-41" d="M 2188 4044 
L 1331 1722 
L 3047 1722 
L 2188 4044 
z
M 1831 4666 
L 2547 4666 
L 4325 0 
L 3669 0 
L 3244 1197 
L 1141 1197 
L 716 0 
L 50 0 
L 1831 4666 
z
" transform="scale(0.015625)"/>
       <path id="DejaVuSans-76" d="M 191 3500 
L 800 3500 
L 1894 563 
L 2988 3500 
L 3597 3500 
L 2284 0 
L 1503 0 
L 191 3500 
z
" transform="scale(0.015625)"/>
       <path id="DejaVuSans-67" d="M 2906 1791 
Q 2906 2416 2648 2759 
Q 2391 3103 1925 3103 
Q 1463 3103 1205 2759 
Q 947 2416 947 1791 
Q 947 1169 1205 825 
Q 1463 481 1925 481 
Q 2391 481 2648 825 
Q 2906 1169 2906 1791 
z
M 3481 434 
Q 3481 -459 3084 -895 
Q 2688 -1331 1869 -1331 
Q 1566 -1331 1297 -1286 
Q 1028 -1241 775 -1147 
L 775 -588 
Q 1028 -725 1275 -790 
Q 1522 -856 1778 -856 
Q 2344 -856 2625 -561 
Q 2906 -266 2906 331 
L 2906 616 
Q 2728 306 2450 153 
Q 2172 0 1784 0 
Q 1141 0 747 490 
Q 353 981 353 1791 
Q 353 2603 747 3093 
Q 1141 3584 1784 3584 
Q 2172 3584 2450 3431 
Q 2728 3278 2906 2969 
L 2906 3500 
L 3481 3500 
L 3481 434 
z
" transform="scale(0.015625)"/>
       <path id="DejaVuSans-20" transform="scale(0.015625)"/>
       <path id="DejaVuSans-63" d="M 3122 3366 
L 3122 2828 
Q 2878 2963 2633 3030 
Q 2388 3097 2138 3097 
Q 1578 3097 1268 2742 
Q 959 2388 959 1747 
Q 959 1106 1268 751 
Q 1578 397 2138 397 
Q 2388 397 2633 464 
Q 2878 531 3122 666 
L 3122 134 
Q 2881 22 2623 -34 
Q 2366 -91 2075 -91 
Q 1284 -91 818 406 
Q 353 903 353 1747 
Q 353 2603 823 3093 
Q 1294 3584 2113 3584 
Q 2378 3584 2631 3529 
Q 2884 3475 3122 3366 
z
" transform="scale(0.015625)"/>
      </defs>
      <use xlink:href="#DejaVuSans-41"/>
      <use xlink:href="#DejaVuSans-76" x="62.533203"/>
      <use xlink:href="#DejaVuSans-67" x="121.712891"/>
      <use xlink:href="#DejaVuSans-20" x="185.189453"/>
      <use xlink:href="#DejaVuSans-61" x="216.976562"/>
      <use xlink:href="#DejaVuSans-63" x="278.255859"/>
      <use xlink:href="#DejaVuSans-74" x="333.236328"/>
      <use xlink:href="#DejaVuSans-69" x="372.445312"/>
      <use xlink:href="#DejaVuSans-6f" x="400.228516"/>
      <use xlink:href="#DejaVuSans-6e" x="461.410156"/>
     </g>
    </g>
   </g>
   <g id="line2d_14">
    <path d="M 74.080909 61.14776 
L 77.697254 172.502422 
L 81.3136 236.133658 
L 84.929945 248.064515 
L 88.54629 252.041467 
L 92.162635 259.995371 
L 95.778981 252.041467 
L 99.395326 259.995371 
L 103.011671 259.995371 
L 106.628017 259.995371 
L 110.244362 259.995371 
L 113.860707 259.995371 
L 117.477052 256.018419 
L 121.093398 252.041467 
L 124.709743 256.018419 
L 128.326088 256.018419 
L 131.942433 224.202801 
L 135.558779 216.248897 
L 139.175124 212.271945 
L 142.791469 192.387184 
L 146.407815 208.294992 
L 150.02416 204.31804 
L 153.640505 212.271945 
L 157.25685 188.410231 
L 160.873196 192.387184 
L 164.489541 200.341088 
L 168.105886 192.387184 
L 171.722231 192.387184 
L 175.338577 180.456327 
L 178.954922 188.410231 
L 182.571267 184.433279 
L 186.187612 192.387184 
L 189.803958 188.410231 
L 193.420303 196.364136 
L 197.036648 216.248897 
L 200.652994 184.433279 
L 204.269339 204.31804 
L 207.885684 224.202801 
L 211.502029 232.156706 
L 215.118375 208.294992 
L 218.73472 224.202801 
L 222.351065 236.133658 
L 225.96741 228.179754 
L 229.583756 220.225849 
L 233.200101 224.202801 
L 236.816446 216.248897 
L 240.432792 232.156706 
L 244.049137 224.202801 
L 247.665482 220.225849 
L 251.281827 216.248897 
L 254.898173 196.364136 
L 258.514518 196.364136 
L 262.130863 200.341088 
L 265.747208 208.294992 
L 269.363554 200.341088 
L 272.979899 196.364136 
L 276.596244 196.364136 
L 280.21259 212.271945 
L 283.828935 220.225849 
L 287.44528 216.248897 
L 291.061625 208.294992 
L 294.677971 200.341088 
L 298.294316 216.248897 
L 301.910661 200.341088 
L 305.527006 208.294992 
L 309.143352 192.387184 
L 312.759697 212.271945 
L 316.376042 216.248897 
L 319.992388 212.271945 
L 323.608733 224.202801 
L 327.225078 212.271945 
L 330.841423 208.294992 
L 334.457769 232.156706 
L 338.074114 220.225849 
L 341.690459 224.202801 
L 345.306804 232.156706 
L 348.92315 216.248897 
L 352.539495 224.202801 
L 356.15584 220.225849 
L 359.772185 216.248897 
L 363.388531 220.225849 
L 367.004876 196.364136 
L 370.621221 204.31804 
L 374.237567 208.294992 
L 377.853912 196.364136 
L 381.470257 208.294992 
L 385.086602 216.248897 
L 388.702948 204.31804 
L 392.319293 216.248897 
L 395.935638 196.364136 
L 399.551983 204.31804 
L 403.168329 216.248897 
L 406.784674 216.248897 
L 410.401019 220.225849 
L 414.017365 224.202801 
L 417.63371 216.248897 
L 421.250055 240.11061 
L 424.8664 220.225849 
L 428.482746 204.31804 
L 432.099091 200.341088 
" clip-path="url(#p37cc2b12cb)" style="fill: none; stroke: #0000ff; stroke-linecap: square"/>
    <defs>
     <path id="m323791025b" d="M -0.49999 0.49999 
L 0.50001 0.49999 
L 0.50001 -0.50001 
L -0.49999 -0.50001 
z
"/>
    </defs>
    <g clip-path="url(#p37cc2b12cb)">
     <use xlink:href="#m323791025b" x="74.080909" y="61.14776" style="fill: #0000ff"/>
     <use xlink:href="#m323791025b" x="77.697254" y="172.502422" style="fill: #0000ff"/>
     <use xlink:href="#m323791025b" x="81.3136" y="236.133658" style="fill: #0000ff"/>
     <use xlink:href="#m323791025b" x="84.929945" y="248.064515" style="fill: #0000ff"/>
     <use xlink:href="#m323791025b" x="88.54629" y="252.041467" style="fill: #0000ff"/>
     <use xlink:href="#m323791025b" x="92.162635" y="259.995371" style="fill: #0000ff"/>
     <use xlink:href="#m323791025b" x="95.778981" y="252.041467" style="fill: #0000ff"/>
     <use xlink:href="#m323791025b" x="99.395326" y="259.995371" style="fill: #0000ff"/>
     <use xlink:href="#m323791025b" x="103.011671" y="259.995371" style="fill: #0000ff"/>
     <use xlink:href="#m323791025b" x="106.628017" y="259.995371" style="fill: #0000ff"/>
     <use xlink:href="#m323791025b" x="110.244362" y="259.995371" style="fill: #0000ff"/>
     <use xlink:href="#m323791025b" x="113.860707" y="259.995371" style="fill: #0000ff"/>
     <use xlink:href="#m323791025b" x="117.477052" y="256.018419" style="fill: #0000ff"/>
     <use xlink:href="#m323791025b" x="121.093398" y="252.041467" style="fill: #0000ff"/>
     <use xlink:href="#m323791025b" x="124.709743" y="256.018419" style="fill: #0000ff"/>
     <use xlink:href="#m323791025b" x="128.326088" y="256.018419" style="fill: #0000ff"/>
     <use xlink:href="#m323791025b" x="131.942433" y="224.202801" style="fill: #0000ff"/>
     <use xlink:href="#m323791025b" x="135.558779" y="216.248897" style="fill: #0000ff"/>
     <use xlink:href="#m323791025b" x="139.175124" y="212.271945" style="fill: #0000ff"/>
     <use xlink:href="#m323791025b" x="142.791469" y="192.387184" style="fill: #0000ff"/>
     <use xlink:href="#m323791025b" x="146.407815" y="208.294992" style="fill: #0000ff"/>
     <use xlink:href="#m323791025b" x="150.02416" y="204.31804" style="fill: #0000ff"/>
     <use xlink:href="#m323791025b" x="153.640505" y="212.271945" style="fill: #0000ff"/>
     <use xlink:href="#m323791025b" x="157.25685" y="188.410231" style="fill: #0000ff"/>
     <use xlink:href="#m323791025b" x="160.873196" y="192.387184" style="fill: #0000ff"/>
     <use xlink:href="#m323791025b" x="164.489541" y="200.341088" style="fill: #0000ff"/>
     <use xlink:href="#m323791025b" x="168.105886" y="192.387184" style="fill: #0000ff"/>
     <use xlink:href="#m323791025b" x="171.722231" y="192.387184" style="fill: #0000ff"/>
     <use xlink:href="#m323791025b" x="175.338577" y="180.456327" style="fill: #0000ff"/>
     <use xlink:href="#m323791025b" x="178.954922" y="188.410231" style="fill: #0000ff"/>
     <use xlink:href="#m323791025b" x="182.571267" y="184.433279" style="fill: #0000ff"/>
     <use xlink:href="#m323791025b" x="186.187612" y="192.387184" style="fill: #0000ff"/>
     <use xlink:href="#m323791025b" x="189.803958" y="188.410231" style="fill: #0000ff"/>
     <use xlink:href="#m323791025b" x="193.420303" y="196.364136" style="fill: #0000ff"/>
     <use xlink:href="#m323791025b" x="197.036648" y="216.248897" style="fill: #0000ff"/>
     <use xlink:href="#m323791025b" x="200.652994" y="184.433279" style="fill: #0000ff"/>
     <use xlink:href="#m323791025b" x="204.269339" y="204.31804" style="fill: #0000ff"/>
     <use xlink:href="#m323791025b" x="207.885684" y="224.202801" style="fill: #0000ff"/>
     <use xlink:href="#m323791025b" x="211.502029" y="232.156706" style="fill: #0000ff"/>
     <use xlink:href="#m323791025b" x="215.118375" y="208.294992" style="fill: #0000ff"/>
     <use xlink:href="#m323791025b" x="218.73472" y="224.202801" style="fill: #0000ff"/>
     <use xlink:href="#m323791025b" x="222.351065" y="236.133658" style="fill: #0000ff"/>
     <use xlink:href="#m323791025b" x="225.96741" y="228.179754" style="fill: #0000ff"/>
     <use xlink:href="#m323791025b" x="229.583756" y="220.225849" style="fill: #0000ff"/>
     <use xlink:href="#m323791025b" x="233.200101" y="224.202801" style="fill: #0000ff"/>
     <use xlink:href="#m323791025b" x="236.816446" y="216.248897" style="fill: #0000ff"/>
     <use xlink:href="#m323791025b" x="240.432792" y="232.156706" style="fill: #0000ff"/>
     <use xlink:href="#m323791025b" x="244.049137" y="224.202801" style="fill: #0000ff"/>
     <use xlink:href="#m323791025b" x="247.665482" y="220.225849" style="fill: #0000ff"/>
     <use xlink:href="#m323791025b" x="251.281827" y="216.248897" style="fill: #0000ff"/>
     <use xlink:href="#m323791025b" x="254.898173" y="196.364136" style="fill: #0000ff"/>
     <use xlink:href="#m323791025b" x="258.514518" y="196.364136" style="fill: #0000ff"/>
     <use xlink:href="#m323791025b" x="262.130863" y="200.341088" style="fill: #0000ff"/>
     <use xlink:href="#m323791025b" x="265.747208" y="208.294992" style="fill: #0000ff"/>
     <use xlink:href="#m323791025b" x="269.363554" y="200.341088" style="fill: #0000ff"/>
     <use xlink:href="#m323791025b" x="272.979899" y="196.364136" style="fill: #0000ff"/>
     <use xlink:href="#m323791025b" x="276.596244" y="196.364136" style="fill: #0000ff"/>
     <use xlink:href="#m323791025b" x="280.21259" y="212.271945" style="fill: #0000ff"/>
     <use xlink:href="#m323791025b" x="283.828935" y="220.225849" style="fill: #0000ff"/>
     <use xlink:href="#m323791025b" x="287.44528" y="216.248897" style="fill: #0000ff"/>
     <use xlink:href="#m323791025b" x="291.061625" y="208.294992" style="fill: #0000ff"/>
     <use xlink:href="#m323791025b" x="294.677971" y="200.341088" style="fill: #0000ff"/>
     <use xlink:href="#m323791025b" x="298.294316" y="216.248897" style="fill: #0000ff"/>
     <use xlink:href="#m323791025b" x="301.910661" y="200.341088" style="fill: #0000ff"/>
     <use xlink:href="#m323791025b" x="305.527006" y="208.294992" style="fill: #0000ff"/>
     <use xlink:href="#m323791025b" x="309.143352" y="192.387184" style="fill: #0000ff"/>
     <use xlink:href="#m323791025b" x="312.759697" y="212.271945" style="fill: #0000ff"/>
     <use xlink:href="#m323791025b" x="316.376042" y="216.248897" style="fill: #0000ff"/>
     <use xlink:href="#m323791025b" x="319.992388" y="212.271945" style="fill: #0000ff"/>
     <use xlink:href="#m323791025b" x="323.608733" y="224.202801" style="fill: #0000ff"/>
     <use xlink:href="#m323791025b" x="327.225078" y="212.271945" style="fill: #0000ff"/>
     <use xlink:href="#m323791025b" x="330.841423" y="208.294992" style="fill: #0000ff"/>
     <use xlink:href="#m323791025b" x="334.457769" y="232.156706" style="fill: #0000ff"/>
     <use xlink:href="#m323791025b" x="338.074114" y="220.225849" style="fill: #0000ff"/>
     <use xlink:href="#m323791025b" x="341.690459" y="224.202801" style="fill: #0000ff"/>
     <use xlink:href="#m323791025b" x="345.306804" y="232.156706" style="fill: #0000ff"/>
     <use xlink:href="#m323791025b" x="348.92315" y="216.248897" style="fill: #0000ff"/>
     <use xlink:href="#m323791025b" x="352.539495" y="224.202801" style="fill: #0000ff"/>
     <use xlink:href="#m323791025b" x="356.15584" y="220.225849" style="fill: #0000ff"/>
     <use xlink:href="#m323791025b" x="359.772185" y="216.248897" style="fill: #0000ff"/>
     <use xlink:href="#m323791025b" x="363.388531" y="220.225849" style="fill: #0000ff"/>
     <use xlink:href="#m323791025b" x="367.004876" y="196.364136" style="fill: #0000ff"/>
     <use xlink:href="#m323791025b" x="370.621221" y="204.31804" style="fill: #0000ff"/>
     <use xlink:href="#m323791025b" x="374.237567" y="208.294992" style="fill: #0000ff"/>
     <use xlink:href="#m323791025b" x="377.853912" y="196.364136" style="fill: #0000ff"/>
     <use xlink:href="#m323791025b" x="381.470257" y="208.294992" style="fill: #0000ff"/>
     <use xlink:href="#m323791025b" x="385.086602" y="216.248897" style="fill: #0000ff"/>
     <use xlink:href="#m323791025b" x="388.702948" y="204.31804" style="fill: #0000ff"/>
     <use xlink:href="#m323791025b" x="392.319293" y="216.248897" style="fill: #0000ff"/>
     <use xlink:href="#m323791025b" x="395.935638" y="196.364136" style="fill: #0000ff"/>
     <use xlink:href="#m323791025b" x="399.551983" y="204.31804" style="fill: #0000ff"/>
     <use xlink:href="#m323791025b" x="403.168329" y="216.248897" style="fill: #0000ff"/>
     <use xlink:href="#m323791025b" x="406.784674" y="216.248897" style="fill: #0000ff"/>
     <use xlink:href="#m323791025b" x="410.401019" y="220.225849" style="fill: #0000ff"/>
     <use xlink:href="#m323791025b" x="414.017365" y="224.202801" style="fill: #0000ff"/>
     <use xlink:href="#m323791025b" x="417.63371" y="216.248897" style="fill: #0000ff"/>
     <use xlink:href="#m323791025b" x="421.250055" y="240.11061" style="fill: #0000ff"/>
     <use xlink:href="#m323791025b" x="424.8664" y="220.225849" style="fill: #0000ff"/>
     <use xlink:href="#m323791025b" x="428.482746" y="204.31804" style="fill: #0000ff"/>
     <use xlink:href="#m323791025b" x="432.099091" y="200.341088" style="fill: #0000ff"/>
    </g>
   </g>
   <g id="line2d_15">
    <path d="M 74.080909 61.14776 
L 77.697254 116.825091 
L 81.3136 156.594614 
L 84.929945 179.462089 
L 88.54629 193.977964 
L 92.162635 204.980866 
L 95.778981 211.703809 
L 99.395326 217.740254 
L 103.011671 222.435267 
L 106.628017 226.191277 
L 110.244362 229.264377 
L 113.860707 231.825293 
L 117.477052 233.686303 
L 121.093398 234.997386 
L 124.709743 236.398788 
L 128.326088 237.625015 
L 131.942433 236.835473 
L 135.558779 235.691774 
L 139.175124 234.459152 
L 142.791469 232.355553 
L 146.407815 231.209812 
L 150.02416 229.987459 
L 153.640505 229.217219 
L 157.25685 227.516928 
L 160.873196 226.111738 
L 164.489541 225.120559 
L 168.105886 223.908212 
L 171.722231 222.782461 
L 175.338577 221.322939 
L 178.954922 220.225849 
L 182.571267 219.07125 
L 186.187612 218.237373 
L 189.803958 217.33352 
L 193.420303 216.716774 
L 197.036648 216.703406 
L 200.652994 215.807013 
L 204.269339 215.4965 
L 207.885684 215.725614 
L 211.502029 216.146924 
L 215.118375 215.950625 
L 218.73472 216.151898 
L 222.351065 216.627654 
L 225.96741 216.896308 
L 229.583756 216.971979 
L 233.200101 217.132664 
L 236.816446 217.113452 
L 240.432792 217.433521 
L 244.049137 217.574548 
L 247.665482 217.628656 
L 251.281827 217.601061 
L 254.898173 217.18465 
L 258.514518 216.784256 
L 262.130863 216.474007 
L 265.747208 216.322544 
L 269.363554 216.031972 
L 272.979899 215.680761 
L 276.596244 215.341873 
L 280.21259 215.288943 
L 283.828935 215.372619 
L 287.44528 215.387224 
L 291.061625 215.270958 
L 294.677971 215.030153 
L 298.294316 215.049499 
L 301.910661 214.81968 
L 305.527006 214.7193 
L 309.143352 214.380934 
L 312.759697 214.349457 
L 316.376042 214.37739 
L 319.992388 214.346876 
L 323.608733 214.487675 
L 327.225078 214.456468 
L 330.841423 214.370892 
L 334.457769 214.614533 
L 338.074114 214.690362 
L 341.690459 214.817194 
L 345.306804 215.045346 
L 348.92315 215.060976 
L 352.539495 215.178179 
L 356.15584 215.242073 
L 359.772185 215.254659 
L 363.388531 215.316032 
L 367.004876 215.084911 
L 370.621221 214.955189 
L 374.237567 214.875901 
L 377.853912 214.658116 
L 381.470257 214.584126 
L 385.086602 214.603261 
L 388.702948 214.486384 
L 392.319293 214.506187 
L 395.935638 214.304609 
L 399.551983 214.194867 
L 403.168329 214.217193 
L 406.784674 214.239039 
L 410.401019 214.302729 
L 414.017365 214.40694 
L 417.63371 214.426127 
L 421.250055 214.690916 
L 424.8664 214.747394 
L 428.482746 214.642047 
L 432.099091 214.499038 
" clip-path="url(#p37cc2b12cb)" style="fill: none; stroke: #0000ff; stroke-opacity: 0.5; stroke-width: 0.5; stroke-linecap: square"/>
    <defs>
     <path id="m44b1460308" d="M -0.49999 0.49999 
L 0.50001 0.49999 
L 0.50001 -0.50001 
L -0.49999 -0.50001 
z
"/>
    </defs>
    <g clip-path="url(#p37cc2b12cb)">
     <use xlink:href="#m44b1460308" x="74.080909" y="61.14776" style="fill: #0000ff; fill-opacity: 0.5"/>
     <use xlink:href="#m44b1460308" x="77.697254" y="116.825091" style="fill: #0000ff; fill-opacity: 0.5"/>
     <use xlink:href="#m44b1460308" x="81.3136" y="156.594614" style="fill: #0000ff; fill-opacity: 0.5"/>
     <use xlink:href="#m44b1460308" x="84.929945" y="179.462089" style="fill: #0000ff; fill-opacity: 0.5"/>
     <use xlink:href="#m44b1460308" x="88.54629" y="193.977964" style="fill: #0000ff; fill-opacity: 0.5"/>
     <use xlink:href="#m44b1460308" x="92.162635" y="204.980866" style="fill: #0000ff; fill-opacity: 0.5"/>
     <use xlink:href="#m44b1460308" x="95.778981" y="211.703809" style="fill: #0000ff; fill-opacity: 0.5"/>
     <use xlink:href="#m44b1460308" x="99.395326" y="217.740254" style="fill: #0000ff; fill-opacity: 0.5"/>
     <use xlink:href="#m44b1460308" x="103.011671" y="222.435267" style="fill: #0000ff; fill-opacity: 0.5"/>
     <use xlink:href="#m44b1460308" x="106.628017" y="226.191277" style="fill: #0000ff; fill-opacity: 0.5"/>
     <use xlink:href="#m44b1460308" x="110.244362" y="229.264377" style="fill: #0000ff; fill-opacity: 0.5"/>
     <use xlink:href="#m44b1460308" x="113.860707" y="231.825293" style="fill: #0000ff; fill-opacity: 0.5"/>
     <use xlink:href="#m44b1460308" x="117.477052" y="233.686303" style="fill: #0000ff; fill-opacity: 0.5"/>
     <use xlink:href="#m44b1460308" x="121.093398" y="234.997386" style="fill: #0000ff; fill-opacity: 0.5"/>
     <use xlink:href="#m44b1460308" x="124.709743" y="236.398788" style="fill: #0000ff; fill-opacity: 0.5"/>
     <use xlink:href="#m44b1460308" x="128.326088" y="237.625015" style="fill: #0000ff; fill-opacity: 0.5"/>
     <use xlink:href="#m44b1460308" x="131.942433" y="236.835473" style="fill: #0000ff; fill-opacity: 0.5"/>
     <use xlink:href="#m44b1460308" x="135.558779" y="235.691774" style="fill: #0000ff; fill-opacity: 0.5"/>
     <use xlink:href="#m44b1460308" x="139.175124" y="234.459152" style="fill: #0000ff; fill-opacity: 0.5"/>
     <use xlink:href="#m44b1460308" x="142.791469" y="232.355553" style="fill: #0000ff; fill-opacity: 0.5"/>
     <use xlink:href="#m44b1460308" x="146.407815" y="231.209812" style="fill: #0000ff; fill-opacity: 0.5"/>
     <use xlink:href="#m44b1460308" x="150.02416" y="229.987459" style="fill: #0000ff; fill-opacity: 0.5"/>
     <use xlink:href="#m44b1460308" x="153.640505" y="229.217219" style="fill: #0000ff; fill-opacity: 0.5"/>
     <use xlink:href="#m44b1460308" x="157.25685" y="227.516928" style="fill: #0000ff; fill-opacity: 0.5"/>
     <use xlink:href="#m44b1460308" x="160.873196" y="226.111738" style="fill: #0000ff; fill-opacity: 0.5"/>
     <use xlink:href="#m44b1460308" x="164.489541" y="225.120559" style="fill: #0000ff; fill-opacity: 0.5"/>
     <use xlink:href="#m44b1460308" x="168.105886" y="223.908212" style="fill: #0000ff; fill-opacity: 0.5"/>
     <use xlink:href="#m44b1460308" x="171.722231" y="222.782461" style="fill: #0000ff; fill-opacity: 0.5"/>
     <use xlink:href="#m44b1460308" x="175.338577" y="221.322939" style="fill: #0000ff; fill-opacity: 0.5"/>
     <use xlink:href="#m44b1460308" x="178.954922" y="220.225849" style="fill: #0000ff; fill-opacity: 0.5"/>
     <use xlink:href="#m44b1460308" x="182.571267" y="219.07125" style="fill: #0000ff; fill-opacity: 0.5"/>
     <use xlink:href="#m44b1460308" x="186.187612" y="218.237373" style="fill: #0000ff; fill-opacity: 0.5"/>
     <use xlink:href="#m44b1460308" x="189.803958" y="217.33352" style="fill: #0000ff; fill-opacity: 0.5"/>
     <use xlink:href="#m44b1460308" x="193.420303" y="216.716774" style="fill: #0000ff; fill-opacity: 0.5"/>
     <use xlink:href="#m44b1460308" x="197.036648" y="216.703406" style="fill: #0000ff; fill-opacity: 0.5"/>
     <use xlink:href="#m44b1460308" x="200.652994" y="215.807013" style="fill: #0000ff; fill-opacity: 0.5"/>
     <use xlink:href="#m44b1460308" x="204.269339" y="215.4965" style="fill: #0000ff; fill-opacity: 0.5"/>
     <use xlink:href="#m44b1460308" x="207.885684" y="215.725614" style="fill: #0000ff; fill-opacity: 0.5"/>
     <use xlink:href="#m44b1460308" x="211.502029" y="216.146924" style="fill: #0000ff; fill-opacity: 0.5"/>
     <use xlink:href="#m44b1460308" x="215.118375" y="215.950625" style="fill: #0000ff; fill-opacity: 0.5"/>
     <use xlink:href="#m44b1460308" x="218.73472" y="216.151898" style="fill: #0000ff; fill-opacity: 0.5"/>
     <use xlink:href="#m44b1460308" x="222.351065" y="216.627654" style="fill: #0000ff; fill-opacity: 0.5"/>
     <use xlink:href="#m44b1460308" x="225.96741" y="216.896308" style="fill: #0000ff; fill-opacity: 0.5"/>
     <use xlink:href="#m44b1460308" x="229.583756" y="216.971979" style="fill: #0000ff; fill-opacity: 0.5"/>
     <use xlink:href="#m44b1460308" x="233.200101" y="217.132664" style="fill: #0000ff; fill-opacity: 0.5"/>
     <use xlink:href="#m44b1460308" x="236.816446" y="217.113452" style="fill: #0000ff; fill-opacity: 0.5"/>
     <use xlink:href="#m44b1460308" x="240.432792" y="217.433521" style="fill: #0000ff; fill-opacity: 0.5"/>
     <use xlink:href="#m44b1460308" x="244.049137" y="217.574548" style="fill: #0000ff; fill-opacity: 0.5"/>
     <use xlink:href="#m44b1460308" x="247.665482" y="217.628656" style="fill: #0000ff; fill-opacity: 0.5"/>
     <use xlink:href="#m44b1460308" x="251.281827" y="217.601061" style="fill: #0000ff; fill-opacity: 0.5"/>
     <use xlink:href="#m44b1460308" x="254.898173" y="217.18465" style="fill: #0000ff; fill-opacity: 0.5"/>
     <use xlink:href="#m44b1460308" x="258.514518" y="216.784256" style="fill: #0000ff; fill-opacity: 0.5"/>
     <use xlink:href="#m44b1460308" x="262.130863" y="216.474007" style="fill: #0000ff; fill-opacity: 0.5"/>
     <use xlink:href="#m44b1460308" x="265.747208" y="216.322544" style="fill: #0000ff; fill-opacity: 0.5"/>
     <use xlink:href="#m44b1460308" x="269.363554" y="216.031972" style="fill: #0000ff; fill-opacity: 0.5"/>
     <use xlink:href="#m44b1460308" x="272.979899" y="215.680761" style="fill: #0000ff; fill-opacity: 0.5"/>
     <use xlink:href="#m44b1460308" x="276.596244" y="215.341873" style="fill: #0000ff; fill-opacity: 0.5"/>
     <use xlink:href="#m44b1460308" x="280.21259" y="215.288943" style="fill: #0000ff; fill-opacity: 0.5"/>
     <use xlink:href="#m44b1460308" x="283.828935" y="215.372619" style="fill: #0000ff; fill-opacity: 0.5"/>
     <use xlink:href="#m44b1460308" x="287.44528" y="215.387224" style="fill: #0000ff; fill-opacity: 0.5"/>
     <use xlink:href="#m44b1460308" x="291.061625" y="215.270958" style="fill: #0000ff; fill-opacity: 0.5"/>
     <use xlink:href="#m44b1460308" x="294.677971" y="215.030153" style="fill: #0000ff; fill-opacity: 0.5"/>
     <use xlink:href="#m44b1460308" x="298.294316" y="215.049499" style="fill: #0000ff; fill-opacity: 0.5"/>
     <use xlink:href="#m44b1460308" x="301.910661" y="214.81968" style="fill: #0000ff; fill-opacity: 0.5"/>
     <use xlink:href="#m44b1460308" x="305.527006" y="214.7193" style="fill: #0000ff; fill-opacity: 0.5"/>
     <use xlink:href="#m44b1460308" x="309.143352" y="214.380934" style="fill: #0000ff; fill-opacity: 0.5"/>
     <use xlink:href="#m44b1460308" x="312.759697" y="214.349457" style="fill: #0000ff; fill-opacity: 0.5"/>
     <use xlink:href="#m44b1460308" x="316.376042" y="214.37739" style="fill: #0000ff; fill-opacity: 0.5"/>
     <use xlink:href="#m44b1460308" x="319.992388" y="214.346876" style="fill: #0000ff; fill-opacity: 0.5"/>
     <use xlink:href="#m44b1460308" x="323.608733" y="214.487675" style="fill: #0000ff; fill-opacity: 0.5"/>
     <use xlink:href="#m44b1460308" x="327.225078" y="214.456468" style="fill: #0000ff; fill-opacity: 0.5"/>
     <use xlink:href="#m44b1460308" x="330.841423" y="214.370892" style="fill: #0000ff; fill-opacity: 0.5"/>
     <use xlink:href="#m44b1460308" x="334.457769" y="214.614533" style="fill: #0000ff; fill-opacity: 0.5"/>
     <use xlink:href="#m44b1460308" x="338.074114" y="214.690362" style="fill: #0000ff; fill-opacity: 0.5"/>
     <use xlink:href="#m44b1460308" x="341.690459" y="214.817194" style="fill: #0000ff; fill-opacity: 0.5"/>
     <use xlink:href="#m44b1460308" x="345.306804" y="215.045346" style="fill: #0000ff; fill-opacity: 0.5"/>
     <use xlink:href="#m44b1460308" x="348.92315" y="215.060976" style="fill: #0000ff; fill-opacity: 0.5"/>
     <use xlink:href="#m44b1460308" x="352.539495" y="215.178179" style="fill: #0000ff; fill-opacity: 0.5"/>
     <use xlink:href="#m44b1460308" x="356.15584" y="215.242073" style="fill: #0000ff; fill-opacity: 0.5"/>
     <use xlink:href="#m44b1460308" x="359.772185" y="215.254659" style="fill: #0000ff; fill-opacity: 0.5"/>
     <use xlink:href="#m44b1460308" x="363.388531" y="215.316032" style="fill: #0000ff; fill-opacity: 0.5"/>
     <use xlink:href="#m44b1460308" x="367.004876" y="215.084911" style="fill: #0000ff; fill-opacity: 0.5"/>
     <use xlink:href="#m44b1460308" x="370.621221" y="214.955189" style="fill: #0000ff; fill-opacity: 0.5"/>
     <use xlink:href="#m44b1460308" x="374.237567" y="214.875901" style="fill: #0000ff; fill-opacity: 0.5"/>
     <use xlink:href="#m44b1460308" x="377.853912" y="214.658116" style="fill: #0000ff; fill-opacity: 0.5"/>
     <use xlink:href="#m44b1460308" x="381.470257" y="214.584126" style="fill: #0000ff; fill-opacity: 0.5"/>
     <use xlink:href="#m44b1460308" x="385.086602" y="214.603261" style="fill: #0000ff; fill-opacity: 0.5"/>
     <use xlink:href="#m44b1460308" x="388.702948" y="214.486384" style="fill: #0000ff; fill-opacity: 0.5"/>
     <use xlink:href="#m44b1460308" x="392.319293" y="214.506187" style="fill: #0000ff; fill-opacity: 0.5"/>
     <use xlink:href="#m44b1460308" x="395.935638" y="214.304609" style="fill: #0000ff; fill-opacity: 0.5"/>
     <use xlink:href="#m44b1460308" x="399.551983" y="214.194867" style="fill: #0000ff; fill-opacity: 0.5"/>
     <use xlink:href="#m44b1460308" x="403.168329" y="214.217193" style="fill: #0000ff; fill-opacity: 0.5"/>
     <use xlink:href="#m44b1460308" x="406.784674" y="214.239039" style="fill: #0000ff; fill-opacity: 0.5"/>
     <use xlink:href="#m44b1460308" x="410.401019" y="214.302729" style="fill: #0000ff; fill-opacity: 0.5"/>
     <use xlink:href="#m44b1460308" x="414.017365" y="214.40694" style="fill: #0000ff; fill-opacity: 0.5"/>
     <use xlink:href="#m44b1460308" x="417.63371" y="214.426127" style="fill: #0000ff; fill-opacity: 0.5"/>
     <use xlink:href="#m44b1460308" x="421.250055" y="214.690916" style="fill: #0000ff; fill-opacity: 0.5"/>
     <use xlink:href="#m44b1460308" x="424.8664" y="214.747394" style="fill: #0000ff; fill-opacity: 0.5"/>
     <use xlink:href="#m44b1460308" x="428.482746" y="214.642047" style="fill: #0000ff; fill-opacity: 0.5"/>
     <use xlink:href="#m44b1460308" x="432.099091" y="214.499038" style="fill: #0000ff; fill-opacity: 0.5"/>
    </g>
   </g>
   <g id="line2d_16">
    <path d="M 56.18 259.995371 
L 450 259.995371 
" clip-path="url(#p37cc2b12cb)" style="fill: none; stroke-dasharray: 0.555,0.24; stroke-dashoffset: 0; stroke: #ff0000; stroke-width: 0.15"/>
   </g>
   <g id="line2d_17">
    <path d="M 56.18 160.571566 
L 450 160.571566 
" clip-path="url(#p37cc2b12cb)" style="fill: none; stroke-dasharray: 0.555,0.24; stroke-dashoffset: 0; stroke: #ff0000; stroke-width: 0.15"/>
   </g>
   <g id="line2d_18">
    <path d="M 56.18 61.14776 
L 450 61.14776 
" clip-path="url(#p37cc2b12cb)" style="fill: none; stroke-dasharray: 0.555,0.24; stroke-dashoffset: 0; stroke: #ff0000; stroke-width: 0.15"/>
   </g>
   <g id="line2d_19">
    <path d="M 74.080909 259.995371 
L 77.697254 259.995371 
L 81.3136 259.995371 
L 84.929945 259.995371 
L 88.54629 259.995371 
L 92.162635 259.995371 
L 95.778981 259.995371 
L 99.395326 259.995371 
L 103.011671 259.995371 
L 106.628017 259.995371 
L 110.244362 259.995371 
L 113.860707 259.995371 
L 117.477052 259.995371 
L 121.093398 259.995371 
L 124.709743 259.995371 
L 128.326088 259.995371 
L 131.942433 259.995371 
L 135.558779 259.995371 
L 139.175124 259.995371 
L 142.791469 259.995371 
L 146.407815 259.995371 
L 150.02416 259.995371 
L 153.640505 259.995371 
L 157.25685 259.995371 
L 160.873196 259.995371 
L 164.489541 259.995371 
L 168.105886 259.995371 
L 171.722231 259.995371 
L 175.338577 259.995371 
L 178.954922 259.995371 
L 182.571267 259.995371 
L 186.187612 259.995371 
L 189.803958 259.995371 
L 193.420303 259.995371 
L 197.036648 259.995371 
L 200.652994 259.995371 
L 204.269339 259.995371 
L 207.885684 259.995371 
L 211.502029 259.995371 
L 215.118375 259.995371 
L 218.73472 259.995371 
L 222.351065 259.995371 
L 225.96741 259.995371 
L 229.583756 259.995371 
L 233.200101 259.995371 
L 236.816446 259.995371 
L 240.432792 259.995371 
L 244.049137 259.995371 
L 247.665482 259.995371 
L 251.281827 259.995371 
L 254.898173 259.995371 
L 258.514518 259.995371 
L 262.130863 259.995371 
L 265.747208 259.995371 
L 269.363554 259.995371 
L 272.979899 259.995371 
L 276.596244 259.995371 
L 280.21259 259.995371 
L 283.828935 259.995371 
L 287.44528 259.995371 
L 291.061625 259.995371 
L 294.677971 259.995371 
L 298.294316 259.995371 
L 301.910661 259.995371 
L 305.527006 259.995371 
L 309.143352 259.995371 
L 312.759697 259.995371 
L 316.376042 259.995371 
L 319.992388 259.995371 
L 323.608733 259.995371 
L 327.225078 259.995371 
L 330.841423 259.995371 
L 334.457769 259.995371 
L 338.074114 259.995371 
L 341.690459 259.995371 
L 345.306804 259.995371 
L 348.92315 259.995371 
L 352.539495 259.995371 
L 356.15584 259.995371 
L 359.772185 259.995371 
L 363.388531 259.995371 
L 367.004876 259.995371 
L 370.621221 259.995371 
L 374.237567 259.995371 
L 377.853912 259.995371 
L 381.470257 259.995371 
L 385.086602 259.995371 
L 388.702948 259.995371 
L 392.319293 259.995371 
L 395.935638 259.995371 
L 399.551983 259.995371 
L 403.168329 259.995371 
L 406.784674 259.995371 
L 410.401019 259.995371 
L 414.017365 259.995371 
L 417.63371 259.995371 
L 421.250055 259.995371 
L 424.8664 259.995371 
L 428.482746 259.995371 
L 432.099091 259.995371 
" clip-path="url(#p37cc2b12cb)" style="fill: none; stroke: #ff0000; stroke-width: 0.5; stroke-linecap: square"/>
    <defs>
     <path id="m4093998e34" d="M -0.49999 0.49999 
L 0.50001 0.49999 
L 0.50001 -0.50001 
L -0.49999 -0.50001 
z
"/>
    </defs>
    <g clip-path="url(#p37cc2b12cb)">
     <use xlink:href="#m4093998e34" x="74.080909" y="259.995371" style="fill: #ff0000"/>
     <use xlink:href="#m4093998e34" x="77.697254" y="259.995371" style="fill: #ff0000"/>
     <use xlink:href="#m4093998e34" x="81.3136" y="259.995371" style="fill: #ff0000"/>
     <use xlink:href="#m4093998e34" x="84.929945" y="259.995371" style="fill: #ff0000"/>
     <use xlink:href="#m4093998e34" x="88.54629" y="259.995371" style="fill: #ff0000"/>
     <use xlink:href="#m4093998e34" x="92.162635" y="259.995371" style="fill: #ff0000"/>
     <use xlink:href="#m4093998e34" x="95.778981" y="259.995371" style="fill: #ff0000"/>
     <use xlink:href="#m4093998e34" x="99.395326" y="259.995371" style="fill: #ff0000"/>
     <use xlink:href="#m4093998e34" x="103.011671" y="259.995371" style="fill: #ff0000"/>
     <use xlink:href="#m4093998e34" x="106.628017" y="259.995371" style="fill: #ff0000"/>
     <use xlink:href="#m4093998e34" x="110.244362" y="259.995371" style="fill: #ff0000"/>
     <use xlink:href="#m4093998e34" x="113.860707" y="259.995371" style="fill: #ff0000"/>
     <use xlink:href="#m4093998e34" x="117.477052" y="259.995371" style="fill: #ff0000"/>
     <use xlink:href="#m4093998e34" x="121.093398" y="259.995371" style="fill: #ff0000"/>
     <use xlink:href="#m4093998e34" x="124.709743" y="259.995371" style="fill: #ff0000"/>
     <use xlink:href="#m4093998e34" x="128.326088" y="259.995371" style="fill: #ff0000"/>
     <use xlink:href="#m4093998e34" x="131.942433" y="259.995371" style="fill: #ff0000"/>
     <use xlink:href="#m4093998e34" x="135.558779" y="259.995371" style="fill: #ff0000"/>
     <use xlink:href="#m4093998e34" x="139.175124" y="259.995371" style="fill: #ff0000"/>
     <use xlink:href="#m4093998e34" x="142.791469" y="259.995371" style="fill: #ff0000"/>
     <use xlink:href="#m4093998e34" x="146.407815" y="259.995371" style="fill: #ff0000"/>
     <use xlink:href="#m4093998e34" x="150.02416" y="259.995371" style="fill: #ff0000"/>
     <use xlink:href="#m4093998e34" x="153.640505" y="259.995371" style="fill: #ff0000"/>
     <use xlink:href="#m4093998e34" x="157.25685" y="259.995371" style="fill: #ff0000"/>
     <use xlink:href="#m4093998e34" x="160.873196" y="259.995371" style="fill: #ff0000"/>
     <use xlink:href="#m4093998e34" x="164.489541" y="259.995371" style="fill: #ff0000"/>
     <use xlink:href="#m4093998e34" x="168.105886" y="259.995371" style="fill: #ff0000"/>
     <use xlink:href="#m4093998e34" x="171.722231" y="259.995371" style="fill: #ff0000"/>
     <use xlink:href="#m4093998e34" x="175.338577" y="259.995371" style="fill: #ff0000"/>
     <use xlink:href="#m4093998e34" x="178.954922" y="259.995371" style="fill: #ff0000"/>
     <use xlink:href="#m4093998e34" x="182.571267" y="259.995371" style="fill: #ff0000"/>
     <use xlink:href="#m4093998e34" x="186.187612" y="259.995371" style="fill: #ff0000"/>
     <use xlink:href="#m4093998e34" x="189.803958" y="259.995371" style="fill: #ff0000"/>
     <use xlink:href="#m4093998e34" x="193.420303" y="259.995371" style="fill: #ff0000"/>
     <use xlink:href="#m4093998e34" x="197.036648" y="259.995371" style="fill: #ff0000"/>
     <use xlink:href="#m4093998e34" x="200.652994" y="259.995371" style="fill: #ff0000"/>
     <use xlink:href="#m4093998e34" x="204.269339" y="259.995371" style="fill: #ff0000"/>
     <use xlink:href="#m4093998e34" x="207.885684" y="259.995371" style="fill: #ff0000"/>
     <use xlink:href="#m4093998e34" x="211.502029" y="259.995371" style="fill: #ff0000"/>
     <use xlink:href="#m4093998e34" x="215.118375" y="259.995371" style="fill: #ff0000"/>
     <use xlink:href="#m4093998e34" x="218.73472" y="259.995371" style="fill: #ff0000"/>
     <use xlink:href="#m4093998e34" x="222.351065" y="259.995371" style="fill: #ff0000"/>
     <use xlink:href="#m4093998e34" x="225.96741" y="259.995371" style="fill: #ff0000"/>
     <use xlink:href="#m4093998e34" x="229.583756" y="259.995371" style="fill: #ff0000"/>
     <use xlink:href="#m4093998e34" x="233.200101" y="259.995371" style="fill: #ff0000"/>
     <use xlink:href="#m4093998e34" x="236.816446" y="259.995371" style="fill: #ff0000"/>
     <use xlink:href="#m4093998e34" x="240.432792" y="259.995371" style="fill: #ff0000"/>
     <use xlink:href="#m4093998e34" x="244.049137" y="259.995371" style="fill: #ff0000"/>
     <use xlink:href="#m4093998e34" x="247.665482" y="259.995371" style="fill: #ff0000"/>
     <use xlink:href="#m4093998e34" x="251.281827" y="259.995371" style="fill: #ff0000"/>
     <use xlink:href="#m4093998e34" x="254.898173" y="259.995371" style="fill: #ff0000"/>
     <use xlink:href="#m4093998e34" x="258.514518" y="259.995371" style="fill: #ff0000"/>
     <use xlink:href="#m4093998e34" x="262.130863" y="259.995371" style="fill: #ff0000"/>
     <use xlink:href="#m4093998e34" x="265.747208" y="259.995371" style="fill: #ff0000"/>
     <use xlink:href="#m4093998e34" x="269.363554" y="259.995371" style="fill: #ff0000"/>
     <use xlink:href="#m4093998e34" x="272.979899" y="259.995371" style="fill: #ff0000"/>
     <use xlink:href="#m4093998e34" x="276.596244" y="259.995371" style="fill: #ff0000"/>
     <use xlink:href="#m4093998e34" x="280.21259" y="259.995371" style="fill: #ff0000"/>
     <use xlink:href="#m4093998e34" x="283.828935" y="259.995371" style="fill: #ff0000"/>
     <use xlink:href="#m4093998e34" x="287.44528" y="259.995371" style="fill: #ff0000"/>
     <use xlink:href="#m4093998e34" x="291.061625" y="259.995371" style="fill: #ff0000"/>
     <use xlink:href="#m4093998e34" x="294.677971" y="259.995371" style="fill: #ff0000"/>
     <use xlink:href="#m4093998e34" x="298.294316" y="259.995371" style="fill: #ff0000"/>
     <use xlink:href="#m4093998e34" x="301.910661" y="259.995371" style="fill: #ff0000"/>
     <use xlink:href="#m4093998e34" x="305.527006" y="259.995371" style="fill: #ff0000"/>
     <use xlink:href="#m4093998e34" x="309.143352" y="259.995371" style="fill: #ff0000"/>
     <use xlink:href="#m4093998e34" x="312.759697" y="259.995371" style="fill: #ff0000"/>
     <use xlink:href="#m4093998e34" x="316.376042" y="259.995371" style="fill: #ff0000"/>
     <use xlink:href="#m4093998e34" x="319.992388" y="259.995371" style="fill: #ff0000"/>
     <use xlink:href="#m4093998e34" x="323.608733" y="259.995371" style="fill: #ff0000"/>
     <use xlink:href="#m4093998e34" x="327.225078" y="259.995371" style="fill: #ff0000"/>
     <use xlink:href="#m4093998e34" x="330.841423" y="259.995371" style="fill: #ff0000"/>
     <use xlink:href="#m4093998e34" x="334.457769" y="259.995371" style="fill: #ff0000"/>
     <use xlink:href="#m4093998e34" x="338.074114" y="259.995371" style="fill: #ff0000"/>
     <use xlink:href="#m4093998e34" x="341.690459" y="259.995371" style="fill: #ff0000"/>
     <use xlink:href="#m4093998e34" x="345.306804" y="259.995371" style="fill: #ff0000"/>
     <use xlink:href="#m4093998e34" x="348.92315" y="259.995371" style="fill: #ff0000"/>
     <use xlink:href="#m4093998e34" x="352.539495" y="259.995371" style="fill: #ff0000"/>
     <use xlink:href="#m4093998e34" x="356.15584" y="259.995371" style="fill: #ff0000"/>
     <use xlink:href="#m4093998e34" x="359.772185" y="259.995371" style="fill: #ff0000"/>
     <use xlink:href="#m4093998e34" x="363.388531" y="259.995371" style="fill: #ff0000"/>
     <use xlink:href="#m4093998e34" x="367.004876" y="259.995371" style="fill: #ff0000"/>
     <use xlink:href="#m4093998e34" x="370.621221" y="259.995371" style="fill: #ff0000"/>
     <use xlink:href="#m4093998e34" x="374.237567" y="259.995371" style="fill: #ff0000"/>
     <use xlink:href="#m4093998e34" x="377.853912" y="259.995371" style="fill: #ff0000"/>
     <use xlink:href="#m4093998e34" x="381.470257" y="259.995371" style="fill: #ff0000"/>
     <use xlink:href="#m4093998e34" x="385.086602" y="259.995371" style="fill: #ff0000"/>
     <use xlink:href="#m4093998e34" x="388.702948" y="259.995371" style="fill: #ff0000"/>
     <use xlink:href="#m4093998e34" x="392.319293" y="259.995371" style="fill: #ff0000"/>
     <use xlink:href="#m4093998e34" x="395.935638" y="259.995371" style="fill: #ff0000"/>
     <use xlink:href="#m4093998e34" x="399.551983" y="259.995371" style="fill: #ff0000"/>
     <use xlink:href="#m4093998e34" x="403.168329" y="259.995371" style="fill: #ff0000"/>
     <use xlink:href="#m4093998e34" x="406.784674" y="259.995371" style="fill: #ff0000"/>
     <use xlink:href="#m4093998e34" x="410.401019" y="259.995371" style="fill: #ff0000"/>
     <use xlink:href="#m4093998e34" x="414.017365" y="259.995371" style="fill: #ff0000"/>
     <use xlink:href="#m4093998e34" x="417.63371" y="259.995371" style="fill: #ff0000"/>
     <use xlink:href="#m4093998e34" x="421.250055" y="259.995371" style="fill: #ff0000"/>
     <use xlink:href="#m4093998e34" x="424.8664" y="259.995371" style="fill: #ff0000"/>
     <use xlink:href="#m4093998e34" x="428.482746" y="259.995371" style="fill: #ff0000"/>
     <use xlink:href="#m4093998e34" x="432.099091" y="259.995371" style="fill: #ff0000"/>
    </g>
   </g>
   <g id="line2d_20">
    <path d="M 74.080909 259.995371 
L 77.697254 259.995371 
L 81.3136 259.995371 
L 84.929945 259.995371 
L 88.54629 259.995371 
L 92.162635 259.995371 
L 95.778981 259.995371 
L 99.395326 259.995371 
L 103.011671 259.995371 
L 106.628017 259.995371 
L 110.244362 259.995371 
L 113.860707 259.995371 
L 117.477052 259.995371 
L 121.093398 259.995371 
L 124.709743 259.995371 
L 128.326088 259.995371 
L 131.942433 259.995371 
L 135.558779 259.995371 
L 139.175124 259.995371 
L 142.791469 259.995371 
L 146.407815 259.995371 
L 150.02416 259.995371 
L 153.640505 259.995371 
L 157.25685 259.995371 
L 160.873196 259.995371 
L 164.489541 259.995371 
L 168.105886 259.995371 
L 171.722231 259.995371 
L 175.338577 259.995371 
L 178.954922 259.995371 
L 182.571267 259.995371 
L 186.187612 259.995371 
L 189.803958 259.995371 
L 193.420303 259.995371 
L 197.036648 259.995371 
L 200.652994 259.995371 
L 204.269339 259.995371 
L 207.885684 259.995371 
L 211.502029 259.995371 
L 215.118375 259.995371 
L 218.73472 259.995371 
L 222.351065 259.995371 
L 225.96741 259.995371 
L 229.583756 259.995371 
L 233.200101 259.995371 
L 236.816446 259.995371 
L 240.432792 259.995371 
L 244.049137 259.995371 
L 247.665482 259.995371 
L 251.281827 259.995371 
L 254.898173 259.995371 
L 258.514518 259.995371 
L 262.130863 259.995371 
L 265.747208 259.995371 
L 269.363554 259.995371 
L 272.979899 259.995371 
L 276.596244 259.995371 
L 280.21259 259.995371 
L 283.828935 259.995371 
L 287.44528 259.995371 
L 291.061625 259.995371 
L 294.677971 259.995371 
L 298.294316 259.995371 
L 301.910661 259.995371 
L 305.527006 259.995371 
L 309.143352 259.995371 
L 312.759697 259.995371 
L 316.376042 259.995371 
L 319.992388 259.995371 
L 323.608733 259.995371 
L 327.225078 259.995371 
L 330.841423 259.995371 
L 334.457769 259.995371 
L 338.074114 259.995371 
L 341.690459 259.995371 
L 345.306804 259.995371 
L 348.92315 259.995371 
L 352.539495 259.995371 
L 356.15584 259.995371 
L 359.772185 259.995371 
L 363.388531 259.995371 
L 367.004876 259.995371 
L 370.621221 259.995371 
L 374.237567 259.995371 
L 377.853912 259.995371 
L 381.470257 259.995371 
L 385.086602 259.995371 
L 388.702948 259.995371 
L 392.319293 259.995371 
L 395.935638 259.995371 
L 399.551983 259.995371 
L 403.168329 259.995371 
L 406.784674 259.995371 
L 410.401019 259.995371 
L 414.017365 259.995371 
L 417.63371 259.995371 
L 421.250055 259.995371 
L 424.8664 259.995371 
L 428.482746 259.995371 
L 432.099091 259.995371 
" clip-path="url(#p37cc2b12cb)" style="fill: none; stroke: #ff0000; stroke-opacity: 0.5; stroke-width: 0.25; stroke-linecap: square"/>
    <defs>
     <path id="m0d7c025c92" d="M -0.49999 0.49999 
L 0.50001 0.49999 
L 0.50001 -0.50001 
L -0.49999 -0.50001 
z
"/>
    </defs>
    <g clip-path="url(#p37cc2b12cb)">
     <use xlink:href="#m0d7c025c92" x="74.080909" y="259.995371" style="fill: #ff0000; fill-opacity: 0.5"/>
     <use xlink:href="#m0d7c025c92" x="77.697254" y="259.995371" style="fill: #ff0000; fill-opacity: 0.5"/>
     <use xlink:href="#m0d7c025c92" x="81.3136" y="259.995371" style="fill: #ff0000; fill-opacity: 0.5"/>
     <use xlink:href="#m0d7c025c92" x="84.929945" y="259.995371" style="fill: #ff0000; fill-opacity: 0.5"/>
     <use xlink:href="#m0d7c025c92" x="88.54629" y="259.995371" style="fill: #ff0000; fill-opacity: 0.5"/>
     <use xlink:href="#m0d7c025c92" x="92.162635" y="259.995371" style="fill: #ff0000; fill-opacity: 0.5"/>
     <use xlink:href="#m0d7c025c92" x="95.778981" y="259.995371" style="fill: #ff0000; fill-opacity: 0.5"/>
     <use xlink:href="#m0d7c025c92" x="99.395326" y="259.995371" style="fill: #ff0000; fill-opacity: 0.5"/>
     <use xlink:href="#m0d7c025c92" x="103.011671" y="259.995371" style="fill: #ff0000; fill-opacity: 0.5"/>
     <use xlink:href="#m0d7c025c92" x="106.628017" y="259.995371" style="fill: #ff0000; fill-opacity: 0.5"/>
     <use xlink:href="#m0d7c025c92" x="110.244362" y="259.995371" style="fill: #ff0000; fill-opacity: 0.5"/>
     <use xlink:href="#m0d7c025c92" x="113.860707" y="259.995371" style="fill: #ff0000; fill-opacity: 0.5"/>
     <use xlink:href="#m0d7c025c92" x="117.477052" y="259.995371" style="fill: #ff0000; fill-opacity: 0.5"/>
     <use xlink:href="#m0d7c025c92" x="121.093398" y="259.995371" style="fill: #ff0000; fill-opacity: 0.5"/>
     <use xlink:href="#m0d7c025c92" x="124.709743" y="259.995371" style="fill: #ff0000; fill-opacity: 0.5"/>
     <use xlink:href="#m0d7c025c92" x="128.326088" y="259.995371" style="fill: #ff0000; fill-opacity: 0.5"/>
     <use xlink:href="#m0d7c025c92" x="131.942433" y="259.995371" style="fill: #ff0000; fill-opacity: 0.5"/>
     <use xlink:href="#m0d7c025c92" x="135.558779" y="259.995371" style="fill: #ff0000; fill-opacity: 0.5"/>
     <use xlink:href="#m0d7c025c92" x="139.175124" y="259.995371" style="fill: #ff0000; fill-opacity: 0.5"/>
     <use xlink:href="#m0d7c025c92" x="142.791469" y="259.995371" style="fill: #ff0000; fill-opacity: 0.5"/>
     <use xlink:href="#m0d7c025c92" x="146.407815" y="259.995371" style="fill: #ff0000; fill-opacity: 0.5"/>
     <use xlink:href="#m0d7c025c92" x="150.02416" y="259.995371" style="fill: #ff0000; fill-opacity: 0.5"/>
     <use xlink:href="#m0d7c025c92" x="153.640505" y="259.995371" style="fill: #ff0000; fill-opacity: 0.5"/>
     <use xlink:href="#m0d7c025c92" x="157.25685" y="259.995371" style="fill: #ff0000; fill-opacity: 0.5"/>
     <use xlink:href="#m0d7c025c92" x="160.873196" y="259.995371" style="fill: #ff0000; fill-opacity: 0.5"/>
     <use xlink:href="#m0d7c025c92" x="164.489541" y="259.995371" style="fill: #ff0000; fill-opacity: 0.5"/>
     <use xlink:href="#m0d7c025c92" x="168.105886" y="259.995371" style="fill: #ff0000; fill-opacity: 0.5"/>
     <use xlink:href="#m0d7c025c92" x="171.722231" y="259.995371" style="fill: #ff0000; fill-opacity: 0.5"/>
     <use xlink:href="#m0d7c025c92" x="175.338577" y="259.995371" style="fill: #ff0000; fill-opacity: 0.5"/>
     <use xlink:href="#m0d7c025c92" x="178.954922" y="259.995371" style="fill: #ff0000; fill-opacity: 0.5"/>
     <use xlink:href="#m0d7c025c92" x="182.571267" y="259.995371" style="fill: #ff0000; fill-opacity: 0.5"/>
     <use xlink:href="#m0d7c025c92" x="186.187612" y="259.995371" style="fill: #ff0000; fill-opacity: 0.5"/>
     <use xlink:href="#m0d7c025c92" x="189.803958" y="259.995371" style="fill: #ff0000; fill-opacity: 0.5"/>
     <use xlink:href="#m0d7c025c92" x="193.420303" y="259.995371" style="fill: #ff0000; fill-opacity: 0.5"/>
     <use xlink:href="#m0d7c025c92" x="197.036648" y="259.995371" style="fill: #ff0000; fill-opacity: 0.5"/>
     <use xlink:href="#m0d7c025c92" x="200.652994" y="259.995371" style="fill: #ff0000; fill-opacity: 0.5"/>
     <use xlink:href="#m0d7c025c92" x="204.269339" y="259.995371" style="fill: #ff0000; fill-opacity: 0.5"/>
     <use xlink:href="#m0d7c025c92" x="207.885684" y="259.995371" style="fill: #ff0000; fill-opacity: 0.5"/>
     <use xlink:href="#m0d7c025c92" x="211.502029" y="259.995371" style="fill: #ff0000; fill-opacity: 0.5"/>
     <use xlink:href="#m0d7c025c92" x="215.118375" y="259.995371" style="fill: #ff0000; fill-opacity: 0.5"/>
     <use xlink:href="#m0d7c025c92" x="218.73472" y="259.995371" style="fill: #ff0000; fill-opacity: 0.5"/>
     <use xlink:href="#m0d7c025c92" x="222.351065" y="259.995371" style="fill: #ff0000; fill-opacity: 0.5"/>
     <use xlink:href="#m0d7c025c92" x="225.96741" y="259.995371" style="fill: #ff0000; fill-opacity: 0.5"/>
     <use xlink:href="#m0d7c025c92" x="229.583756" y="259.995371" style="fill: #ff0000; fill-opacity: 0.5"/>
     <use xlink:href="#m0d7c025c92" x="233.200101" y="259.995371" style="fill: #ff0000; fill-opacity: 0.5"/>
     <use xlink:href="#m0d7c025c92" x="236.816446" y="259.995371" style="fill: #ff0000; fill-opacity: 0.5"/>
     <use xlink:href="#m0d7c025c92" x="240.432792" y="259.995371" style="fill: #ff0000; fill-opacity: 0.5"/>
     <use xlink:href="#m0d7c025c92" x="244.049137" y="259.995371" style="fill: #ff0000; fill-opacity: 0.5"/>
     <use xlink:href="#m0d7c025c92" x="247.665482" y="259.995371" style="fill: #ff0000; fill-opacity: 0.5"/>
     <use xlink:href="#m0d7c025c92" x="251.281827" y="259.995371" style="fill: #ff0000; fill-opacity: 0.5"/>
     <use xlink:href="#m0d7c025c92" x="254.898173" y="259.995371" style="fill: #ff0000; fill-opacity: 0.5"/>
     <use xlink:href="#m0d7c025c92" x="258.514518" y="259.995371" style="fill: #ff0000; fill-opacity: 0.5"/>
     <use xlink:href="#m0d7c025c92" x="262.130863" y="259.995371" style="fill: #ff0000; fill-opacity: 0.5"/>
     <use xlink:href="#m0d7c025c92" x="265.747208" y="259.995371" style="fill: #ff0000; fill-opacity: 0.5"/>
     <use xlink:href="#m0d7c025c92" x="269.363554" y="259.995371" style="fill: #ff0000; fill-opacity: 0.5"/>
     <use xlink:href="#m0d7c025c92" x="272.979899" y="259.995371" style="fill: #ff0000; fill-opacity: 0.5"/>
     <use xlink:href="#m0d7c025c92" x="276.596244" y="259.995371" style="fill: #ff0000; fill-opacity: 0.5"/>
     <use xlink:href="#m0d7c025c92" x="280.21259" y="259.995371" style="fill: #ff0000; fill-opacity: 0.5"/>
     <use xlink:href="#m0d7c025c92" x="283.828935" y="259.995371" style="fill: #ff0000; fill-opacity: 0.5"/>
     <use xlink:href="#m0d7c025c92" x="287.44528" y="259.995371" style="fill: #ff0000; fill-opacity: 0.5"/>
     <use xlink:href="#m0d7c025c92" x="291.061625" y="259.995371" style="fill: #ff0000; fill-opacity: 0.5"/>
     <use xlink:href="#m0d7c025c92" x="294.677971" y="259.995371" style="fill: #ff0000; fill-opacity: 0.5"/>
     <use xlink:href="#m0d7c025c92" x="298.294316" y="259.995371" style="fill: #ff0000; fill-opacity: 0.5"/>
     <use xlink:href="#m0d7c025c92" x="301.910661" y="259.995371" style="fill: #ff0000; fill-opacity: 0.5"/>
     <use xlink:href="#m0d7c025c92" x="305.527006" y="259.995371" style="fill: #ff0000; fill-opacity: 0.5"/>
     <use xlink:href="#m0d7c025c92" x="309.143352" y="259.995371" style="fill: #ff0000; fill-opacity: 0.5"/>
     <use xlink:href="#m0d7c025c92" x="312.759697" y="259.995371" style="fill: #ff0000; fill-opacity: 0.5"/>
     <use xlink:href="#m0d7c025c92" x="316.376042" y="259.995371" style="fill: #ff0000; fill-opacity: 0.5"/>
     <use xlink:href="#m0d7c025c92" x="319.992388" y="259.995371" style="fill: #ff0000; fill-opacity: 0.5"/>
     <use xlink:href="#m0d7c025c92" x="323.608733" y="259.995371" style="fill: #ff0000; fill-opacity: 0.5"/>
     <use xlink:href="#m0d7c025c92" x="327.225078" y="259.995371" style="fill: #ff0000; fill-opacity: 0.5"/>
     <use xlink:href="#m0d7c025c92" x="330.841423" y="259.995371" style="fill: #ff0000; fill-opacity: 0.5"/>
     <use xlink:href="#m0d7c025c92" x="334.457769" y="259.995371" style="fill: #ff0000; fill-opacity: 0.5"/>
     <use xlink:href="#m0d7c025c92" x="338.074114" y="259.995371" style="fill: #ff0000; fill-opacity: 0.5"/>
     <use xlink:href="#m0d7c025c92" x="341.690459" y="259.995371" style="fill: #ff0000; fill-opacity: 0.5"/>
     <use xlink:href="#m0d7c025c92" x="345.306804" y="259.995371" style="fill: #ff0000; fill-opacity: 0.5"/>
     <use xlink:href="#m0d7c025c92" x="348.92315" y="259.995371" style="fill: #ff0000; fill-opacity: 0.5"/>
     <use xlink:href="#m0d7c025c92" x="352.539495" y="259.995371" style="fill: #ff0000; fill-opacity: 0.5"/>
     <use xlink:href="#m0d7c025c92" x="356.15584" y="259.995371" style="fill: #ff0000; fill-opacity: 0.5"/>
     <use xlink:href="#m0d7c025c92" x="359.772185" y="259.995371" style="fill: #ff0000; fill-opacity: 0.5"/>
     <use xlink:href="#m0d7c025c92" x="363.388531" y="259.995371" style="fill: #ff0000; fill-opacity: 0.5"/>
     <use xlink:href="#m0d7c025c92" x="367.004876" y="259.995371" style="fill: #ff0000; fill-opacity: 0.5"/>
     <use xlink:href="#m0d7c025c92" x="370.621221" y="259.995371" style="fill: #ff0000; fill-opacity: 0.5"/>
     <use xlink:href="#m0d7c025c92" x="374.237567" y="259.995371" style="fill: #ff0000; fill-opacity: 0.5"/>
     <use xlink:href="#m0d7c025c92" x="377.853912" y="259.995371" style="fill: #ff0000; fill-opacity: 0.5"/>
     <use xlink:href="#m0d7c025c92" x="381.470257" y="259.995371" style="fill: #ff0000; fill-opacity: 0.5"/>
     <use xlink:href="#m0d7c025c92" x="385.086602" y="259.995371" style="fill: #ff0000; fill-opacity: 0.5"/>
     <use xlink:href="#m0d7c025c92" x="388.702948" y="259.995371" style="fill: #ff0000; fill-opacity: 0.5"/>
     <use xlink:href="#m0d7c025c92" x="392.319293" y="259.995371" style="fill: #ff0000; fill-opacity: 0.5"/>
     <use xlink:href="#m0d7c025c92" x="395.935638" y="259.995371" style="fill: #ff0000; fill-opacity: 0.5"/>
     <use xlink:href="#m0d7c025c92" x="399.551983" y="259.995371" style="fill: #ff0000; fill-opacity: 0.5"/>
     <use xlink:href="#m0d7c025c92" x="403.168329" y="259.995371" style="fill: #ff0000; fill-opacity: 0.5"/>
     <use xlink:href="#m0d7c025c92" x="406.784674" y="259.995371" style="fill: #ff0000; fill-opacity: 0.5"/>
     <use xlink:href="#m0d7c025c92" x="410.401019" y="259.995371" style="fill: #ff0000; fill-opacity: 0.5"/>
     <use xlink:href="#m0d7c025c92" x="414.017365" y="259.995371" style="fill: #ff0000; fill-opacity: 0.5"/>
     <use xlink:href="#m0d7c025c92" x="417.63371" y="259.995371" style="fill: #ff0000; fill-opacity: 0.5"/>
     <use xlink:href="#m0d7c025c92" x="421.250055" y="259.995371" style="fill: #ff0000; fill-opacity: 0.5"/>
     <use xlink:href="#m0d7c025c92" x="424.8664" y="259.995371" style="fill: #ff0000; fill-opacity: 0.5"/>
     <use xlink:href="#m0d7c025c92" x="428.482746" y="259.995371" style="fill: #ff0000; fill-opacity: 0.5"/>
     <use xlink:href="#m0d7c025c92" x="432.099091" y="259.995371" style="fill: #ff0000; fill-opacity: 0.5"/>
    </g>
   </g>
   <g id="patch_3">
    <path d="M 56.18 303.64 
L 56.18 25.44 
" style="fill: none; stroke: #000000; stroke-width: 0.8; stroke-linejoin: miter; stroke-linecap: square"/>
   </g>
   <g id="patch_4">
    <path d="M 450 303.64 
L 450 25.44 
" style="fill: none; stroke: #000000; stroke-width: 0.8; stroke-linejoin: miter; stroke-linecap: square"/>
   </g>
   <g id="patch_5">
    <path d="M 56.18 303.64 
L 450 303.64 
" style="fill: none; stroke: #000000; stroke-width: 0.8; stroke-linejoin: miter; stroke-linecap: square"/>
   </g>
   <g id="patch_6">
    <path d="M 56.18 25.44 
L 450 25.44 
" style="fill: none; stroke: #000000; stroke-width: 0.8; stroke-linejoin: miter; stroke-linecap: square"/>
   </g>
   <g id="text_16">
    <!-- Average action - 20240412103555 - 50 games -->
    <g transform="translate(112.983438 19.44) scale(0.12 -0.12)">
     <defs>
      <path id="DejaVuSans-2d" d="M 313 2009 
L 1997 2009 
L 1997 1497 
L 313 1497 
L 313 2009 
z
" transform="scale(0.015625)"/>
      <path id="DejaVuSans-33" d="M 2597 2516 
Q 3050 2419 3304 2112 
Q 3559 1806 3559 1356 
Q 3559 666 3084 287 
Q 2609 -91 1734 -91 
Q 1441 -91 1130 -33 
Q 819 25 488 141 
L 488 750 
Q 750 597 1062 519 
Q 1375 441 1716 441 
Q 2309 441 2620 675 
Q 2931 909 2931 1356 
Q 2931 1769 2642 2001 
Q 2353 2234 1838 2234 
L 1294 2234 
L 1294 2753 
L 1863 2753 
Q 2328 2753 2575 2939 
Q 2822 3125 2822 3475 
Q 2822 3834 2567 4026 
Q 2313 4219 1838 4219 
Q 1578 4219 1281 4162 
Q 984 4106 628 3988 
L 628 4550 
Q 988 4650 1302 4700 
Q 1616 4750 1894 4750 
Q 2613 4750 3031 4423 
Q 3450 4097 3450 3541 
Q 3450 3153 3228 2886 
Q 3006 2619 2597 2516 
z
" transform="scale(0.015625)"/>
      <path id="DejaVuSans-35" d="M 691 4666 
L 3169 4666 
L 3169 4134 
L 1269 4134 
L 1269 2991 
Q 1406 3038 1543 3061 
Q 1681 3084 1819 3084 
Q 2600 3084 3056 2656 
Q 3513 2228 3513 1497 
Q 3513 744 3044 326 
Q 2575 -91 1722 -91 
Q 1428 -91 1123 -41 
Q 819 9 494 109 
L 494 744 
Q 775 591 1075 516 
Q 1375 441 1709 441 
Q 2250 441 2565 725 
Q 2881 1009 2881 1497 
Q 2881 1984 2565 2268 
Q 2250 2553 1709 2553 
Q 1456 2553 1204 2497 
Q 953 2441 691 2322 
L 691 4666 
z
" transform="scale(0.015625)"/>
      <path id="DejaVuSans-6d" d="M 3328 2828 
Q 3544 3216 3844 3400 
Q 4144 3584 4550 3584 
Q 5097 3584 5394 3201 
Q 5691 2819 5691 2113 
L 5691 0 
L 5113 0 
L 5113 2094 
Q 5113 2597 4934 2840 
Q 4756 3084 4391 3084 
Q 3944 3084 3684 2787 
Q 3425 2491 3425 1978 
L 3425 0 
L 2847 0 
L 2847 2094 
Q 2847 2600 2669 2842 
Q 2491 3084 2119 3084 
Q 1678 3084 1418 2786 
Q 1159 2488 1159 1978 
L 1159 0 
L 581 0 
L 581 3500 
L 1159 3500 
L 1159 2956 
Q 1356 3278 1631 3431 
Q 1906 3584 2284 3584 
Q 2666 3584 2933 3390 
Q 3200 3197 3328 2828 
z
" transform="scale(0.015625)"/>
      <path id="DejaVuSans-73" d="M 2834 3397 
L 2834 2853 
Q 2591 2978 2328 3040 
Q 2066 3103 1784 3103 
Q 1356 3103 1142 2972 
Q 928 2841 928 2578 
Q 928 2378 1081 2264 
Q 1234 2150 1697 2047 
L 1894 2003 
Q 2506 1872 2764 1633 
Q 3022 1394 3022 966 
Q 3022 478 2636 193 
Q 2250 -91 1575 -91 
Q 1294 -91 989 -36 
Q 684 19 347 128 
L 347 722 
Q 666 556 975 473 
Q 1284 391 1588 391 
Q 1994 391 2212 530 
Q 2431 669 2431 922 
Q 2431 1156 2273 1281 
Q 2116 1406 1581 1522 
L 1381 1569 
Q 847 1681 609 1914 
Q 372 2147 372 2553 
Q 372 3047 722 3315 
Q 1072 3584 1716 3584 
Q 2034 3584 2315 3537 
Q 2597 3491 2834 3397 
z
" transform="scale(0.015625)"/>
     </defs>
     <use xlink:href="#DejaVuSans-41"/>
     <use xlink:href="#DejaVuSans-76" x="62.533203"/>
     <use xlink:href="#DejaVuSans-65" x="121.712891"/>
     <use xlink:href="#DejaVuSans-72" x="183.236328"/>
     <use xlink:href="#DejaVuSans-61" x="224.349609"/>
     <use xlink:href="#DejaVuSans-67" x="285.628906"/>
     <use xlink:href="#DejaVuSans-65" x="349.105469"/>
     <use xlink:href="#DejaVuSans-20" x="410.628906"/>
     <use xlink:href="#DejaVuSans-61" x="442.416016"/>
     <use xlink:href="#DejaVuSans-63" x="503.695312"/>
     <use xlink:href="#DejaVuSans-74" x="558.675781"/>
     <use xlink:href="#DejaVuSans-69" x="597.884766"/>
     <use xlink:href="#DejaVuSans-6f" x="625.667969"/>
     <use xlink:href="#DejaVuSans-6e" x="686.849609"/>
     <use xlink:href="#DejaVuSans-20" x="750.228516"/>
     <use xlink:href="#DejaVuSans-2d" x="782.015625"/>
     <use xlink:href="#DejaVuSans-20" x="818.099609"/>
     <use xlink:href="#DejaVuSans-32" x="849.886719"/>
     <use xlink:href="#DejaVuSans-30" x="913.509766"/>
     <use xlink:href="#DejaVuSans-32" x="977.132812"/>
     <use xlink:href="#DejaVuSans-34" x="1040.755859"/>
     <use xlink:href="#DejaVuSans-30" x="1104.378906"/>
     <use xlink:href="#DejaVuSans-34" x="1168.001953"/>
     <use xlink:href="#DejaVuSans-31" x="1231.625"/>
     <use xlink:href="#DejaVuSans-32" x="1295.248047"/>
     <use xlink:href="#DejaVuSans-31" x="1358.871094"/>
     <use xlink:href="#DejaVuSans-30" x="1422.494141"/>
     <use xlink:href="#DejaVuSans-33" x="1486.117188"/>
     <use xlink:href="#DejaVuSans-35" x="1549.740234"/>
     <use xlink:href="#DejaVuSans-35" x="1613.363281"/>
     <use xlink:href="#DejaVuSans-35" x="1676.986328"/>
     <use xlink:href="#DejaVuSans-20" x="1740.609375"/>
     <use xlink:href="#DejaVuSans-2d" x="1772.396484"/>
     <use xlink:href="#DejaVuSans-20" x="1808.480469"/>
     <use xlink:href="#DejaVuSans-35" x="1840.267578"/>
     <use xlink:href="#DejaVuSans-30" x="1903.890625"/>
     <use xlink:href="#DejaVuSans-20" x="1967.513672"/>
     <use xlink:href="#DejaVuSans-67" x="1999.300781"/>
     <use xlink:href="#DejaVuSans-61" x="2062.777344"/>
     <use xlink:href="#DejaVuSans-6d" x="2124.056641"/>
     <use xlink:href="#DejaVuSans-65" x="2221.46875"/>
     <use xlink:href="#DejaVuSans-73" x="2282.992188"/>
    </g>
   </g>
   <g id="legend_1">
    <g id="patch_7">
     <path d="M 328.579687 92.70875 
L 443 92.70875 
Q 445 92.70875 445 90.70875 
L 445 32.44 
Q 445 30.44 443 30.44 
L 328.579687 30.44 
Q 326.579687 30.44 326.579687 32.44 
L 326.579687 90.70875 
Q 326.579687 92.70875 328.579687 92.70875 
z
" style="fill: #ffffff; opacity: 0.8; stroke: #cccccc; stroke-linejoin: miter"/>
    </g>
    <g id="line2d_21">
     <path d="M 330.579687 38.538438 
L 340.579687 38.538438 
L 350.579687 38.538438 
" style="fill: none; stroke: #0000ff; stroke-linecap: square"/>
     <g>
      <use xlink:href="#m323791025b" x="340.579687" y="38.538438" style="fill: #0000ff"/>
     </g>
    </g>
    <g id="text_17">
     <!-- LLM -->
     <g transform="translate(358.579687 42.038438) scale(0.1 -0.1)">
      <defs>
       <path id="DejaVuSans-4c" d="M 628 4666 
L 1259 4666 
L 1259 531 
L 3531 531 
L 3531 0 
L 628 0 
L 628 4666 
z
" transform="scale(0.015625)"/>
       <path id="DejaVuSans-4d" d="M 628 4666 
L 1569 4666 
L 2759 1491 
L 3956 4666 
L 4897 4666 
L 4897 0 
L 4281 0 
L 4281 4097 
L 3078 897 
L 2444 897 
L 1241 4097 
L 1241 0 
L 628 0 
L 628 4666 
z
" transform="scale(0.015625)"/>
      </defs>
      <use xlink:href="#DejaVuSans-4c"/>
      <use xlink:href="#DejaVuSans-4c" x="55.712891"/>
      <use xlink:href="#DejaVuSans-4d" x="111.425781"/>
     </g>
    </g>
    <g id="line2d_22">
     <path d="M 330.579687 53.216563 
L 340.579687 53.216563 
L 350.579687 53.216563 
" style="fill: none; stroke: #0000ff; stroke-opacity: 0.5; stroke-width: 0.5; stroke-linecap: square"/>
     <g>
      <use xlink:href="#m44b1460308" x="340.579687" y="53.216563" style="fill: #0000ff; fill-opacity: 0.5"/>
     </g>
    </g>
    <g id="text_18">
     <!-- LLM mean -->
     <g transform="translate(358.579687 56.716563) scale(0.1 -0.1)">
      <use xlink:href="#DejaVuSans-4c"/>
      <use xlink:href="#DejaVuSans-4c" x="55.712891"/>
      <use xlink:href="#DejaVuSans-4d" x="111.425781"/>
      <use xlink:href="#DejaVuSans-20" x="197.705078"/>
      <use xlink:href="#DejaVuSans-6d" x="229.492188"/>
      <use xlink:href="#DejaVuSans-65" x="326.904297"/>
      <use xlink:href="#DejaVuSans-61" x="388.427734"/>
      <use xlink:href="#DejaVuSans-6e" x="449.707031"/>
     </g>
    </g>
    <g id="line2d_23">
     <path d="M 330.579687 67.894688 
L 340.579687 67.894688 
L 350.579687 67.894688 
" style="fill: none; stroke: #ff0000; stroke-width: 0.5; stroke-linecap: square"/>
     <g>
      <use xlink:href="#m4093998e34" x="340.579687" y="67.894688" style="fill: #ff0000"/>
     </g>
    </g>
    <g id="text_19">
     <!-- DEF_sw15 -->
     <g transform="translate(358.579687 71.394688) scale(0.1 -0.1)">
      <defs>
       <path id="DejaVuSans-44" d="M 1259 4147 
L 1259 519 
L 2022 519 
Q 2988 519 3436 956 
Q 3884 1394 3884 2338 
Q 3884 3275 3436 3711 
Q 2988 4147 2022 4147 
L 1259 4147 
z
M 628 4666 
L 1925 4666 
Q 3281 4666 3915 4102 
Q 4550 3538 4550 2338 
Q 4550 1131 3912 565 
Q 3275 0 1925 0 
L 628 0 
L 628 4666 
z
" transform="scale(0.015625)"/>
       <path id="DejaVuSans-45" d="M 628 4666 
L 3578 4666 
L 3578 4134 
L 1259 4134 
L 1259 2753 
L 3481 2753 
L 3481 2222 
L 1259 2222 
L 1259 531 
L 3634 531 
L 3634 0 
L 628 0 
L 628 4666 
z
" transform="scale(0.015625)"/>
       <path id="DejaVuSans-46" d="M 628 4666 
L 3309 4666 
L 3309 4134 
L 1259 4134 
L 1259 2759 
L 3109 2759 
L 3109 2228 
L 1259 2228 
L 1259 0 
L 628 0 
L 628 4666 
z
" transform="scale(0.015625)"/>
       <path id="DejaVuSans-5f" d="M 3263 -1063 
L 3263 -1509 
L -63 -1509 
L -63 -1063 
L 3263 -1063 
z
" transform="scale(0.015625)"/>
       <path id="DejaVuSans-77" d="M 269 3500 
L 844 3500 
L 1563 769 
L 2278 3500 
L 2956 3500 
L 3675 769 
L 4391 3500 
L 4966 3500 
L 4050 0 
L 3372 0 
L 2619 2869 
L 1863 0 
L 1184 0 
L 269 3500 
z
" transform="scale(0.015625)"/>
      </defs>
      <use xlink:href="#DejaVuSans-44"/>
      <use xlink:href="#DejaVuSans-45" x="77.001953"/>
      <use xlink:href="#DejaVuSans-46" x="140.185547"/>
      <use xlink:href="#DejaVuSans-5f" x="197.705078"/>
      <use xlink:href="#DejaVuSans-73" x="247.705078"/>
      <use xlink:href="#DejaVuSans-77" x="299.804688"/>
      <use xlink:href="#DejaVuSans-31" x="381.591797"/>
      <use xlink:href="#DejaVuSans-35" x="445.214844"/>
     </g>
    </g>
    <g id="line2d_24">
     <path d="M 330.579687 82.850938 
L 340.579687 82.850938 
L 350.579687 82.850938 
" style="fill: none; stroke: #ff0000; stroke-opacity: 0.5; stroke-width: 0.25; stroke-linecap: square"/>
     <g>
      <use xlink:href="#m0d7c025c92" x="340.579687" y="82.850938" style="fill: #ff0000; fill-opacity: 0.5"/>
     </g>
    </g>
    <g id="text_20">
     <!-- DEF_sw15 mean -->
     <g transform="translate(358.579687 86.350938) scale(0.1 -0.1)">
      <use xlink:href="#DejaVuSans-44"/>
      <use xlink:href="#DejaVuSans-45" x="77.001953"/>
      <use xlink:href="#DejaVuSans-46" x="140.185547"/>
      <use xlink:href="#DejaVuSans-5f" x="197.705078"/>
      <use xlink:href="#DejaVuSans-73" x="247.705078"/>
      <use xlink:href="#DejaVuSans-77" x="299.804688"/>
      <use xlink:href="#DejaVuSans-31" x="381.591797"/>
      <use xlink:href="#DejaVuSans-35" x="445.214844"/>
      <use xlink:href="#DejaVuSans-20" x="508.837891"/>
      <use xlink:href="#DejaVuSans-6d" x="540.625"/>
      <use xlink:href="#DejaVuSans-65" x="638.037109"/>
      <use xlink:href="#DejaVuSans-61" x="699.560547"/>
      <use xlink:href="#DejaVuSans-6e" x="760.839844"/>
     </g>
    </g>
   </g>
  </g>
 </g>
 <defs>
  <clipPath id="p37cc2b12cb">
   <rect x="56.18" y="25.44" width="393.82" height="278.2"/>
  </clipPath>
 </defs>
</svg>
