<?xml version="1.0" encoding="utf-8" standalone="no"?>
<!DOCTYPE svg PUBLIC "-//W3C//DTD SVG 1.1//EN"
  "http://www.w3.org/Graphics/SVG/1.1/DTD/svg11.dtd">
<svg xmlns:xlink="http://www.w3.org/1999/xlink" width="460.8pt" height="345.6pt" viewBox="0 0 460.8 345.6" xmlns="http://www.w3.org/2000/svg" version="1.1">
 <metadata>
  <rdf:RDF xmlns:dc="http://purl.org/dc/elements/1.1/" xmlns:cc="http://creativecommons.org/ns#" xmlns:rdf="http://www.w3.org/1999/02/22-rdf-syntax-ns#">
   <cc:Work>
    <dc:type rdf:resource="http://purl.org/dc/dcmitype/StillImage"/>
    <dc:date>2024-04-15T10:04:45.213762</dc:date>
    <dc:format>image/svg+xml</dc:format>
    <dc:creator>
     <cc:Agent>
      <dc:title>Matplotlib v3.8.0, https://matplotlib.org/</dc:title>
     </cc:Agent>
    </dc:creator>
   </cc:Work>
  </rdf:RDF>
 </metadata>
 <defs>
  <style type="text/css">*{stroke-linejoin: round; stroke-linecap: butt}</style>
 </defs>
 <g id="figure_1">
  <g id="patch_1">
   <path d="M 0 345.6 
L 460.8 345.6 
L 460.8 0 
L 0 0 
z
" style="fill: #ffffff"/>
  </g>
  <g id="axes_1">
   <g id="patch_2">
    <path d="M 47.81 303.64 
L 450 303.64 
L 450 25.44 
L 47.81 25.44 
z
" style="fill: #ffffff"/>
   </g>
   <g id="PolyCollection_1">
    <defs>
     <path id="m17b6d2e17c" d="M 66.091364 -206.015948 
L 66.091364 -206.015948 
L 69.822254 -260.846538 
L 73.553145 -272.863671 
L 77.284035 -280.723336 
L 81.014926 -286.521117 
L 84.745816 -290.861045 
L 88.476707 -293.998206 
L 92.207597 -296.366449 
L 95.938488 -298.326769 
L 99.669378 -299.967156 
L 103.400269 -301.279004 
L 107.13116 -302.285604 
L 110.86205 -303.02068 
L 114.592941 -303.56185 
L 118.323831 -304.034424 
L 122.054722 -304.449297 
L 125.785612 -304.787005 
L 129.516503 -305.014028 
L 133.247393 -305.222093 
L 136.978284 -305.412833 
L 140.709174 -305.60569 
L 144.440065 -305.781557 
L 148.170955 -305.957121 
L 151.901846 -306.130719 
L 155.632737 -306.301174 
L 159.363627 -306.444183 
L 163.094518 -306.574619 
L 166.825408 -306.693785 
L 170.556299 -306.802817 
L 174.287189 -306.902711 
L 178.01808 -306.978289 
L 181.74897 -307.055516 
L 185.479861 -307.133718 
L 189.210751 -307.205673 
L 192.941642 -307.271929 
L 196.672532 -307.338898 
L 200.403423 -307.39498 
L 204.134314 -307.446698 
L 207.865204 -307.47954 
L 211.596095 -307.500617 
L 215.326985 -307.507049 
L 219.057876 -307.512998 
L 222.788766 -307.514545 
L 226.519657 -307.512176 
L 230.250547 -307.502796 
L 233.981438 -307.490562 
L 237.712328 -307.469442 
L 241.443219 -307.449525 
L 245.174109 -307.430698 
L 248.905 -307.410071 
L 252.635891 -307.393196 
L 256.366781 -307.377136 
L 260.097672 -307.361819 
L 263.828562 -307.349587 
L 267.559453 -307.337838 
L 271.290343 -307.326527 
L 275.021234 -307.315617 
L 278.752124 -307.300907 
L 282.483015 -307.286751 
L 286.213905 -307.271173 
L 289.944796 -307.25804 
L 293.675686 -307.247164 
L 297.406577 -307.236602 
L 301.137468 -307.228047 
L 304.868358 -307.221346 
L 308.599249 -307.211505 
L 312.330139 -307.201896 
L 316.06103 -307.194023 
L 319.79192 -307.186282 
L 323.522811 -307.180102 
L 327.253701 -307.175373 
L 330.984592 -307.171994 
L 334.715482 -307.168535 
L 338.446373 -307.163703 
L 342.177263 -307.157594 
L 345.908154 -307.151515 
L 349.639045 -307.145465 
L 353.369935 -307.140599 
L 357.100826 -307.13571 
L 360.831716 -307.131902 
L 364.562607 -307.126948 
L 368.293497 -307.120925 
L 372.024388 -307.114919 
L 375.755278 -307.108929 
L 379.486169 -307.102954 
L 383.217059 -307.096993 
L 386.94795 -307.091974 
L 390.67884 -307.087843 
L 394.409731 -307.084552 
L 398.140622 -307.080306 
L 401.871512 -307.074313 
L 405.602403 -307.067506 
L 409.333293 -307.06074 
L 413.064184 -307.054011 
L 416.795074 -307.048093 
L 420.525965 -307.041428 
L 424.256855 -307.034058 
L 427.987746 -307.026024 
L 431.718636 -307.018068 
L 431.718636 -284.450098 
L 431.718636 -284.450098 
L 427.987746 -284.357734 
L 424.256855 -284.263981 
L 420.525965 -284.168465 
L 416.795074 -284.071136 
L 413.064184 -283.971942 
L 409.333293 -283.871536 
L 405.602403 -283.769532 
L 401.871512 -283.665888 
L 398.140622 -283.560182 
L 394.409731 -283.451974 
L 390.67884 -283.341571 
L 386.94795 -283.229689 
L 383.217059 -283.116297 
L 379.486169 -283.001366 
L 375.755278 -282.884435 
L 372.024388 -282.765446 
L 368.293497 -282.644337 
L 364.562607 -282.521046 
L 360.831716 -282.395039 
L 357.100826 -282.266226 
L 353.369935 -282.13548 
L 349.639045 -282.002255 
L 345.908154 -281.866989 
L 342.177263 -281.7291 
L 338.446373 -281.588503 
L 334.715482 -281.444551 
L 330.984592 -281.297122 
L 327.253701 -281.146665 
L 323.522811 -280.993673 
L 319.79192 -280.838082 
L 316.06103 -280.679824 
L 312.330139 -280.518162 
L 308.599249 -280.353662 
L 304.868358 -280.185533 
L 301.137468 -280.012179 
L 297.406577 -279.835609 
L 293.675686 -279.65573 
L 289.944796 -279.471639 
L 286.213905 -279.284009 
L 282.483015 -279.09274 
L 278.752124 -278.895901 
L 275.021234 -278.694168 
L 271.290343 -278.485412 
L 267.559453 -278.271246 
L 263.828562 -278.051434 
L 260.097672 -277.825725 
L 256.366781 -277.59496 
L 252.635891 -277.357804 
L 248.905 -277.113957 
L 245.174109 -276.864366 
L 241.443219 -276.606175 
L 237.712328 -276.340271 
L 233.981438 -276.066262 
L 230.250547 -275.779316 
L 226.519657 -275.48163 
L 222.788766 -275.171023 
L 219.057876 -274.848259 
L 215.326985 -274.512575 
L 211.596095 -274.164836 
L 207.865204 -273.799062 
L 204.134314 -273.415836 
L 200.403423 -273.012244 
L 196.672532 -272.592309 
L 192.941642 -272.153028 
L 189.210751 -271.696921 
L 185.479861 -271.220767 
L 181.74897 -270.723069 
L 178.01808 -270.204509 
L 174.287189 -269.663575 
L 170.556299 -269.09059 
L 166.825408 -268.48821 
L 163.094518 -267.853858 
L 159.363627 -267.184625 
L 155.632737 -266.477218 
L 151.901846 -265.724449 
L 148.170955 -264.928921 
L 144.440065 -264.086323 
L 140.709174 -263.191706 
L 136.978284 -262.234342 
L 133.247393 -261.211971 
L 129.516503 -260.110504 
L 125.785612 -258.919074 
L 122.054722 -257.603294 
L 118.323831 -256.159057 
L 114.592941 -254.573027 
L 110.86205 -252.820228 
L 107.13116 -250.851277 
L 103.400269 -248.626914 
L 99.669378 -246.107489 
L 95.938488 -243.23854 
L 92.207597 -239.940717 
L 88.476707 -236.089242 
L 84.745816 -231.504239 
L 81.014926 -225.946406 
L 77.284035 -219.000471 
L 73.553145 -209.826456 
L 69.822254 -196.608506 
L 66.091364 -206.015948 
z
" style="stroke: #ff0000; stroke-opacity: 0.2"/>
    </defs>
    <g clip-path="url(#pc00b807c50)">
     <use xlink:href="#m17b6d2e17c" x="0" y="345.6" style="fill: #ff0000; fill-opacity: 0.2; stroke: #ff0000; stroke-opacity: 0.2"/>
    </g>
   </g>
   <g id="matplotlib.axis_1">
    <g id="xtick_1">
     <g id="line2d_1">
      <defs>
       <path id="m55407c2b73" d="M 0 0 
L 0 3.5 
" style="stroke: #000000; stroke-width: 0.8"/>
      </defs>
      <g>
       <use xlink:href="#m55407c2b73" x="66.091364" y="303.64" style="stroke: #000000; stroke-width: 0.8"/>
      </g>
     </g>
     <g id="text_1">
      <!-- 0 -->
      <g transform="translate(62.910114 318.238437) scale(0.1 -0.1)">
       <defs>
        <path id="DejaVuSans-30" d="M 2034 4250 
Q 1547 4250 1301 3770 
Q 1056 3291 1056 2328 
Q 1056 1369 1301 889 
Q 1547 409 2034 409 
Q 2525 409 2770 889 
Q 3016 1369 3016 2328 
Q 3016 3291 2770 3770 
Q 2525 4250 2034 4250 
z
M 2034 4750 
Q 2819 4750 3233 4129 
Q 3647 3509 3647 2328 
Q 3647 1150 3233 529 
Q 2819 -91 2034 -91 
Q 1250 -91 836 529 
Q 422 1150 422 2328 
Q 422 3509 836 4129 
Q 1250 4750 2034 4750 
z
" transform="scale(0.015625)"/>
       </defs>
       <use xlink:href="#DejaVuSans-30"/>
      </g>
     </g>
    </g>
    <g id="xtick_2">
     <g id="line2d_2">
      <g>
       <use xlink:href="#m55407c2b73" x="140.709174" y="303.64" style="stroke: #000000; stroke-width: 0.8"/>
      </g>
     </g>
     <g id="text_2">
      <!-- 20 -->
      <g transform="translate(134.346674 318.238437) scale(0.1 -0.1)">
       <defs>
        <path id="DejaVuSans-32" d="M 1228 531 
L 3431 531 
L 3431 0 
L 469 0 
L 469 531 
Q 828 903 1448 1529 
Q 2069 2156 2228 2338 
Q 2531 2678 2651 2914 
Q 2772 3150 2772 3378 
Q 2772 3750 2511 3984 
Q 2250 4219 1831 4219 
Q 1534 4219 1204 4116 
Q 875 4013 500 3803 
L 500 4441 
Q 881 4594 1212 4672 
Q 1544 4750 1819 4750 
Q 2544 4750 2975 4387 
Q 3406 4025 3406 3419 
Q 3406 3131 3298 2873 
Q 3191 2616 2906 2266 
Q 2828 2175 2409 1742 
Q 1991 1309 1228 531 
z
" transform="scale(0.015625)"/>
       </defs>
       <use xlink:href="#DejaVuSans-32"/>
       <use xlink:href="#DejaVuSans-30" x="63.623047"/>
      </g>
     </g>
    </g>
    <g id="xtick_3">
     <g id="line2d_3">
      <g>
       <use xlink:href="#m55407c2b73" x="215.326985" y="303.64" style="stroke: #000000; stroke-width: 0.8"/>
      </g>
     </g>
     <g id="text_3">
      <!-- 40 -->
      <g transform="translate(208.964485 318.238437) scale(0.1 -0.1)">
       <defs>
        <path id="DejaVuSans-34" d="M 2419 4116 
L 825 1625 
L 2419 1625 
L 2419 4116 
z
M 2253 4666 
L 3047 4666 
L 3047 1625 
L 3713 1625 
L 3713 1100 
L 3047 1100 
L 3047 0 
L 2419 0 
L 2419 1100 
L 313 1100 
L 313 1709 
L 2253 4666 
z
" transform="scale(0.015625)"/>
       </defs>
       <use xlink:href="#DejaVuSans-34"/>
       <use xlink:href="#DejaVuSans-30" x="63.623047"/>
      </g>
     </g>
    </g>
    <g id="xtick_4">
     <g id="line2d_4">
      <g>
       <use xlink:href="#m55407c2b73" x="289.944796" y="303.64" style="stroke: #000000; stroke-width: 0.8"/>
      </g>
     </g>
     <g id="text_4">
      <!-- 60 -->
      <g transform="translate(283.582296 318.238437) scale(0.1 -0.1)">
       <defs>
        <path id="DejaVuSans-36" d="M 2113 2584 
Q 1688 2584 1439 2293 
Q 1191 2003 1191 1497 
Q 1191 994 1439 701 
Q 1688 409 2113 409 
Q 2538 409 2786 701 
Q 3034 994 3034 1497 
Q 3034 2003 2786 2293 
Q 2538 2584 2113 2584 
z
M 3366 4563 
L 3366 3988 
Q 3128 4100 2886 4159 
Q 2644 4219 2406 4219 
Q 1781 4219 1451 3797 
Q 1122 3375 1075 2522 
Q 1259 2794 1537 2939 
Q 1816 3084 2150 3084 
Q 2853 3084 3261 2657 
Q 3669 2231 3669 1497 
Q 3669 778 3244 343 
Q 2819 -91 2113 -91 
Q 1303 -91 875 529 
Q 447 1150 447 2328 
Q 447 3434 972 4092 
Q 1497 4750 2381 4750 
Q 2619 4750 2861 4703 
Q 3103 4656 3366 4563 
z
" transform="scale(0.015625)"/>
       </defs>
       <use xlink:href="#DejaVuSans-36"/>
       <use xlink:href="#DejaVuSans-30" x="63.623047"/>
      </g>
     </g>
    </g>
    <g id="xtick_5">
     <g id="line2d_5">
      <g>
       <use xlink:href="#m55407c2b73" x="364.562607" y="303.64" style="stroke: #000000; stroke-width: 0.8"/>
      </g>
     </g>
     <g id="text_5">
      <!-- 80 -->
      <g transform="translate(358.200107 318.238437) scale(0.1 -0.1)">
       <defs>
        <path id="DejaVuSans-38" d="M 2034 2216 
Q 1584 2216 1326 1975 
Q 1069 1734 1069 1313 
Q 1069 891 1326 650 
Q 1584 409 2034 409 
Q 2484 409 2743 651 
Q 3003 894 3003 1313 
Q 3003 1734 2745 1975 
Q 2488 2216 2034 2216 
z
M 1403 2484 
Q 997 2584 770 2862 
Q 544 3141 544 3541 
Q 544 4100 942 4425 
Q 1341 4750 2034 4750 
Q 2731 4750 3128 4425 
Q 3525 4100 3525 3541 
Q 3525 3141 3298 2862 
Q 3072 2584 2669 2484 
Q 3125 2378 3379 2068 
Q 3634 1759 3634 1313 
Q 3634 634 3220 271 
Q 2806 -91 2034 -91 
Q 1263 -91 848 271 
Q 434 634 434 1313 
Q 434 1759 690 2068 
Q 947 2378 1403 2484 
z
M 1172 3481 
Q 1172 3119 1398 2916 
Q 1625 2713 2034 2713 
Q 2441 2713 2670 2916 
Q 2900 3119 2900 3481 
Q 2900 3844 2670 4047 
Q 2441 4250 2034 4250 
Q 1625 4250 1398 4047 
Q 1172 3844 1172 3481 
z
" transform="scale(0.015625)"/>
       </defs>
       <use xlink:href="#DejaVuSans-38"/>
       <use xlink:href="#DejaVuSans-30" x="63.623047"/>
      </g>
     </g>
    </g>
    <g id="xtick_6">
     <g id="line2d_6">
      <g>
       <use xlink:href="#m55407c2b73" x="439.180417" y="303.64" style="stroke: #000000; stroke-width: 0.8"/>
      </g>
     </g>
     <g id="text_6">
      <!-- 100 -->
      <g transform="translate(429.636667 318.238437) scale(0.1 -0.1)">
       <defs>
        <path id="DejaVuSans-31" d="M 794 531 
L 1825 531 
L 1825 4091 
L 703 3866 
L 703 4441 
L 1819 4666 
L 2450 4666 
L 2450 531 
L 3481 531 
L 3481 0 
L 794 0 
L 794 531 
z
" transform="scale(0.015625)"/>
       </defs>
       <use xlink:href="#DejaVuSans-31"/>
       <use xlink:href="#DejaVuSans-30" x="63.623047"/>
       <use xlink:href="#DejaVuSans-30" x="127.246094"/>
      </g>
     </g>
    </g>
    <g id="text_7">
     <!-- Iteration -->
     <g transform="translate(227.696406 331.916562) scale(0.1 -0.1)">
      <defs>
       <path id="DejaVuSans-49" d="M 628 4666 
L 1259 4666 
L 1259 0 
L 628 0 
L 628 4666 
z
" transform="scale(0.015625)"/>
       <path id="DejaVuSans-74" d="M 1172 4494 
L 1172 3500 
L 2356 3500 
L 2356 3053 
L 1172 3053 
L 1172 1153 
Q 1172 725 1289 603 
Q 1406 481 1766 481 
L 2356 481 
L 2356 0 
L 1766 0 
Q 1100 0 847 248 
Q 594 497 594 1153 
L 594 3053 
L 172 3053 
L 172 3500 
L 594 3500 
L 594 4494 
L 1172 4494 
z
" transform="scale(0.015625)"/>
       <path id="DejaVuSans-65" d="M 3597 1894 
L 3597 1613 
L 953 1613 
Q 991 1019 1311 708 
Q 1631 397 2203 397 
Q 2534 397 2845 478 
Q 3156 559 3463 722 
L 3463 178 
Q 3153 47 2828 -22 
Q 2503 -91 2169 -91 
Q 1331 -91 842 396 
Q 353 884 353 1716 
Q 353 2575 817 3079 
Q 1281 3584 2069 3584 
Q 2775 3584 3186 3129 
Q 3597 2675 3597 1894 
z
M 3022 2063 
Q 3016 2534 2758 2815 
Q 2500 3097 2075 3097 
Q 1594 3097 1305 2825 
Q 1016 2553 972 2059 
L 3022 2063 
z
" transform="scale(0.015625)"/>
       <path id="DejaVuSans-72" d="M 2631 2963 
Q 2534 3019 2420 3045 
Q 2306 3072 2169 3072 
Q 1681 3072 1420 2755 
Q 1159 2438 1159 1844 
L 1159 0 
L 581 0 
L 581 3500 
L 1159 3500 
L 1159 2956 
Q 1341 3275 1631 3429 
Q 1922 3584 2338 3584 
Q 2397 3584 2469 3576 
Q 2541 3569 2628 3553 
L 2631 2963 
z
" transform="scale(0.015625)"/>
       <path id="DejaVuSans-61" d="M 2194 1759 
Q 1497 1759 1228 1600 
Q 959 1441 959 1056 
Q 959 750 1161 570 
Q 1363 391 1709 391 
Q 2188 391 2477 730 
Q 2766 1069 2766 1631 
L 2766 1759 
L 2194 1759 
z
M 3341 1997 
L 3341 0 
L 2766 0 
L 2766 531 
Q 2569 213 2275 61 
Q 1981 -91 1556 -91 
Q 1019 -91 701 211 
Q 384 513 384 1019 
Q 384 1609 779 1909 
Q 1175 2209 1959 2209 
L 2766 2209 
L 2766 2266 
Q 2766 2663 2505 2880 
Q 2244 3097 1772 3097 
Q 1472 3097 1187 3025 
Q 903 2953 641 2809 
L 641 3341 
Q 956 3463 1253 3523 
Q 1550 3584 1831 3584 
Q 2591 3584 2966 3190 
Q 3341 2797 3341 1997 
z
" transform="scale(0.015625)"/>
       <path id="DejaVuSans-69" d="M 603 3500 
L 1178 3500 
L 1178 0 
L 603 0 
L 603 3500 
z
M 603 4863 
L 1178 4863 
L 1178 4134 
L 603 4134 
L 603 4863 
z
" transform="scale(0.015625)"/>
       <path id="DejaVuSans-6f" d="M 1959 3097 
Q 1497 3097 1228 2736 
Q 959 2375 959 1747 
Q 959 1119 1226 758 
Q 1494 397 1959 397 
Q 2419 397 2687 759 
Q 2956 1122 2956 1747 
Q 2956 2369 2687 2733 
Q 2419 3097 1959 3097 
z
M 1959 3584 
Q 2709 3584 3137 3096 
Q 3566 2609 3566 1747 
Q 3566 888 3137 398 
Q 2709 -91 1959 -91 
Q 1206 -91 779 398 
Q 353 888 353 1747 
Q 353 2609 779 3096 
Q 1206 3584 1959 3584 
z
" transform="scale(0.015625)"/>
       <path id="DejaVuSans-6e" d="M 3513 2113 
L 3513 0 
L 2938 0 
L 2938 2094 
Q 2938 2591 2744 2837 
Q 2550 3084 2163 3084 
Q 1697 3084 1428 2787 
Q 1159 2491 1159 1978 
L 1159 0 
L 581 0 
L 581 3500 
L 1159 3500 
L 1159 2956 
Q 1366 3272 1645 3428 
Q 1925 3584 2291 3584 
Q 2894 3584 3203 3211 
Q 3513 2838 3513 2113 
z
" transform="scale(0.015625)"/>
      </defs>
      <use xlink:href="#DejaVuSans-49"/>
      <use xlink:href="#DejaVuSans-74" x="29.492188"/>
      <use xlink:href="#DejaVuSans-65" x="68.701172"/>
      <use xlink:href="#DejaVuSans-72" x="130.224609"/>
      <use xlink:href="#DejaVuSans-61" x="171.337891"/>
      <use xlink:href="#DejaVuSans-74" x="232.617188"/>
      <use xlink:href="#DejaVuSans-69" x="271.826172"/>
      <use xlink:href="#DejaVuSans-6f" x="299.609375"/>
      <use xlink:href="#DejaVuSans-6e" x="360.791016"/>
     </g>
    </g>
   </g>
   <g id="matplotlib.axis_2">
    <g id="ytick_1">
     <g id="line2d_7">
      <defs>
       <path id="mfec4869d5b" d="M 0 0 
L -3.5 0 
" style="stroke: #000000; stroke-width: 0.8"/>
      </defs>
      <g>
       <use xlink:href="#mfec4869d5b" x="47.81" y="290.994545" style="stroke: #000000; stroke-width: 0.8"/>
      </g>
     </g>
     <g id="text_8">
      <!-- 0.0 -->
      <g transform="translate(24.906875 294.793764) scale(0.1 -0.1)">
       <defs>
        <path id="DejaVuSans-2e" d="M 684 794 
L 1344 794 
L 1344 0 
L 684 0 
L 684 794 
z
" transform="scale(0.015625)"/>
       </defs>
       <use xlink:href="#DejaVuSans-30"/>
       <use xlink:href="#DejaVuSans-2e" x="63.623047"/>
       <use xlink:href="#DejaVuSans-30" x="95.410156"/>
      </g>
     </g>
    </g>
    <g id="ytick_2">
     <g id="line2d_8">
      <g>
       <use xlink:href="#mfec4869d5b" x="47.81" y="240.524381" style="stroke: #000000; stroke-width: 0.8"/>
      </g>
     </g>
     <g id="text_9">
      <!-- 0.2 -->
      <g transform="translate(24.906875 244.3236) scale(0.1 -0.1)">
       <use xlink:href="#DejaVuSans-30"/>
       <use xlink:href="#DejaVuSans-2e" x="63.623047"/>
       <use xlink:href="#DejaVuSans-32" x="95.410156"/>
      </g>
     </g>
    </g>
    <g id="ytick_3">
     <g id="line2d_9">
      <g>
       <use xlink:href="#mfec4869d5b" x="47.81" y="190.054216" style="stroke: #000000; stroke-width: 0.8"/>
      </g>
     </g>
     <g id="text_10">
      <!-- 0.4 -->
      <g transform="translate(24.906875 193.853435) scale(0.1 -0.1)">
       <use xlink:href="#DejaVuSans-30"/>
       <use xlink:href="#DejaVuSans-2e" x="63.623047"/>
       <use xlink:href="#DejaVuSans-34" x="95.410156"/>
      </g>
     </g>
    </g>
    <g id="ytick_4">
     <g id="line2d_10">
      <g>
       <use xlink:href="#mfec4869d5b" x="47.81" y="139.584052" style="stroke: #000000; stroke-width: 0.8"/>
      </g>
     </g>
     <g id="text_11">
      <!-- 0.6 -->
      <g transform="translate(24.906875 143.383271) scale(0.1 -0.1)">
       <use xlink:href="#DejaVuSans-30"/>
       <use xlink:href="#DejaVuSans-2e" x="63.623047"/>
       <use xlink:href="#DejaVuSans-36" x="95.410156"/>
      </g>
     </g>
    </g>
    <g id="ytick_5">
     <g id="line2d_11">
      <g>
       <use xlink:href="#mfec4869d5b" x="47.81" y="89.113887" style="stroke: #000000; stroke-width: 0.8"/>
      </g>
     </g>
     <g id="text_12">
      <!-- 0.8 -->
      <g transform="translate(24.906875 92.913106) scale(0.1 -0.1)">
       <use xlink:href="#DejaVuSans-30"/>
       <use xlink:href="#DejaVuSans-2e" x="63.623047"/>
       <use xlink:href="#DejaVuSans-38" x="95.410156"/>
      </g>
     </g>
    </g>
    <g id="ytick_6">
     <g id="line2d_12">
      <g>
       <use xlink:href="#mfec4869d5b" x="47.81" y="38.643723" style="stroke: #000000; stroke-width: 0.8"/>
      </g>
     </g>
     <g id="text_13">
      <!-- 1.0 -->
      <g transform="translate(24.906875 42.442942) scale(0.1 -0.1)">
       <use xlink:href="#DejaVuSans-31"/>
       <use xlink:href="#DejaVuSans-2e" x="63.623047"/>
       <use xlink:href="#DejaVuSans-30" x="95.410156"/>
      </g>
     </g>
    </g>
    <g id="text_14">
     <!-- Similarity -->
     <g transform="translate(18.827187 188.179844) rotate(-90) scale(0.1 -0.1)">
      <defs>
       <path id="DejaVuSans-53" d="M 3425 4513 
L 3425 3897 
Q 3066 4069 2747 4153 
Q 2428 4238 2131 4238 
Q 1616 4238 1336 4038 
Q 1056 3838 1056 3469 
Q 1056 3159 1242 3001 
Q 1428 2844 1947 2747 
L 2328 2669 
Q 3034 2534 3370 2195 
Q 3706 1856 3706 1288 
Q 3706 609 3251 259 
Q 2797 -91 1919 -91 
Q 1588 -91 1214 -16 
Q 841 59 441 206 
L 441 856 
Q 825 641 1194 531 
Q 1563 422 1919 422 
Q 2459 422 2753 634 
Q 3047 847 3047 1241 
Q 3047 1584 2836 1778 
Q 2625 1972 2144 2069 
L 1759 2144 
Q 1053 2284 737 2584 
Q 422 2884 422 3419 
Q 422 4038 858 4394 
Q 1294 4750 2059 4750 
Q 2388 4750 2728 4690 
Q 3069 4631 3425 4513 
z
" transform="scale(0.015625)"/>
       <path id="DejaVuSans-6d" d="M 3328 2828 
Q 3544 3216 3844 3400 
Q 4144 3584 4550 3584 
Q 5097 3584 5394 3201 
Q 5691 2819 5691 2113 
L 5691 0 
L 5113 0 
L 5113 2094 
Q 5113 2597 4934 2840 
Q 4756 3084 4391 3084 
Q 3944 3084 3684 2787 
Q 3425 2491 3425 1978 
L 3425 0 
L 2847 0 
L 2847 2094 
Q 2847 2600 2669 2842 
Q 2491 3084 2119 3084 
Q 1678 3084 1418 2786 
Q 1159 2488 1159 1978 
L 1159 0 
L 581 0 
L 581 3500 
L 1159 3500 
L 1159 2956 
Q 1356 3278 1631 3431 
Q 1906 3584 2284 3584 
Q 2666 3584 2933 3390 
Q 3200 3197 3328 2828 
z
" transform="scale(0.015625)"/>
       <path id="DejaVuSans-6c" d="M 603 4863 
L 1178 4863 
L 1178 0 
L 603 0 
L 603 4863 
z
" transform="scale(0.015625)"/>
       <path id="DejaVuSans-79" d="M 2059 -325 
Q 1816 -950 1584 -1140 
Q 1353 -1331 966 -1331 
L 506 -1331 
L 506 -850 
L 844 -850 
Q 1081 -850 1212 -737 
Q 1344 -625 1503 -206 
L 1606 56 
L 191 3500 
L 800 3500 
L 1894 763 
L 2988 3500 
L 3597 3500 
L 2059 -325 
z
" transform="scale(0.015625)"/>
      </defs>
      <use xlink:href="#DejaVuSans-53"/>
      <use xlink:href="#DejaVuSans-69" x="63.476562"/>
      <use xlink:href="#DejaVuSans-6d" x="91.259766"/>
      <use xlink:href="#DejaVuSans-69" x="188.671875"/>
      <use xlink:href="#DejaVuSans-6c" x="216.455078"/>
      <use xlink:href="#DejaVuSans-61" x="244.238281"/>
      <use xlink:href="#DejaVuSans-72" x="305.517578"/>
      <use xlink:href="#DejaVuSans-69" x="346.630859"/>
      <use xlink:href="#DejaVuSans-74" x="374.414062"/>
      <use xlink:href="#DejaVuSans-79" x="413.623047"/>
     </g>
    </g>
   </g>
   <g id="line2d_13">
    <path d="M 66.091364 139.584052 
L 69.822254 94.160904 
L 73.553145 79.019855 
L 77.284035 70.187576 
L 81.014926 63.878805 
L 84.745816 59.672958 
L 88.476707 57.389784 
L 92.207597 55.677403 
L 95.938488 53.784772 
L 99.669378 52.270667 
L 103.400269 51.490674 
L 107.13116 51.261264 
L 110.86205 51.45538 
L 114.592941 51.621765 
L 118.323831 51.09303 
L 122.054722 50.630387 
L 125.785612 50.519056 
L 129.516503 50.980874 
L 133.247393 50.597183 
L 136.978284 50.251861 
L 140.709174 49.699092 
L 144.440065 49.425985 
L 148.170955 48.957191 
L 151.901846 48.527463 
L 155.632737 48.132114 
L 159.363627 48.155408 
L 163.094518 47.99005 
L 166.825408 47.836503 
L 170.556299 47.693546 
L 174.287189 47.560119 
L 178.01808 47.760914 
L 181.74897 47.476002 
L 185.479861 47.208357 
L 189.210751 47.104898 
L 192.941642 47.00735 
L 196.672532 46.775027 
L 200.403423 46.828074 
L 204.134314 46.745512 
L 207.865204 47.055417 
L 211.596095 47.223651 
L 215.326985 47.506776 
L 219.057876 47.415918 
L 222.788766 47.446659 
L 226.519657 47.476002 
L 230.250547 47.616197 
L 233.981438 47.640578 
L 237.712328 47.878689 
L 241.443219 47.79144 
L 245.174109 47.707752 
L 248.905 47.728353 
L 252.635891 47.550223 
L 256.366781 47.476002 
L 260.097672 47.404582 
L 263.828562 47.242344 
L 267.559453 47.177769 
L 271.290343 47.115501 
L 275.021234 47.055417 
L 278.752124 47.17144 
L 282.483015 47.112445 
L 286.213905 47.139534 
L 289.944796 47.000258 
L 293.675686 46.865476 
L 297.406577 46.815083 
L 301.137468 46.687405 
L 304.868358 46.563656 
L 308.599249 46.673067 
L 312.330139 46.628555 
L 316.06103 46.511131 
L 319.79192 46.470256 
L 323.522811 46.358448 
L 327.253701 46.24979 
L 330.984592 46.14415 
L 334.715482 46.110542 
L 338.446373 46.146045 
L 342.177263 46.180601 
L 345.908154 46.147839 
L 349.639045 46.115929 
L 353.369935 46.020132 
L 357.100826 45.990646 
L 360.831716 45.898809 
L 364.562607 45.933858 
L 368.293497 45.968052 
L 372.024388 45.940614 
L 375.755278 45.91383 
L 379.486169 45.887676 
L 383.217059 45.86213 
L 386.94795 45.77916 
L 390.67884 45.698075 
L 394.409731 45.618813 
L 398.140622 45.653468 
L 401.871512 45.742823 
L 405.602403 45.775377 
L 409.333293 45.752961 
L 413.064184 45.731023 
L 416.795074 45.656419 
L 420.525965 45.688517 
L 424.256855 45.719952 
L 427.987746 45.750746 
L 431.718636 45.729938 
" clip-path="url(#pc00b807c50)" style="fill: none; stroke: #0000ff; stroke-linecap: square"/>
    <defs>
     <path id="m3e2e6c2bfa" d="M -0.49999 0.49999 
L 0.50001 0.49999 
L 0.50001 -0.50001 
L -0.49999 -0.50001 
z
"/>
    </defs>
    <g clip-path="url(#pc00b807c50)">
     <use xlink:href="#m3e2e6c2bfa" x="66.091364" y="139.584052" style="fill: #0000ff"/>
     <use xlink:href="#m3e2e6c2bfa" x="69.822254" y="94.160904" style="fill: #0000ff"/>
     <use xlink:href="#m3e2e6c2bfa" x="73.553145" y="79.019855" style="fill: #0000ff"/>
     <use xlink:href="#m3e2e6c2bfa" x="77.284035" y="70.187576" style="fill: #0000ff"/>
     <use xlink:href="#m3e2e6c2bfa" x="81.014926" y="63.878805" style="fill: #0000ff"/>
     <use xlink:href="#m3e2e6c2bfa" x="84.745816" y="59.672958" style="fill: #0000ff"/>
     <use xlink:href="#m3e2e6c2bfa" x="88.476707" y="57.389784" style="fill: #0000ff"/>
     <use xlink:href="#m3e2e6c2bfa" x="92.207597" y="55.677403" style="fill: #0000ff"/>
     <use xlink:href="#m3e2e6c2bfa" x="95.938488" y="53.784772" style="fill: #0000ff"/>
     <use xlink:href="#m3e2e6c2bfa" x="99.669378" y="52.270667" style="fill: #0000ff"/>
     <use xlink:href="#m3e2e6c2bfa" x="103.400269" y="51.490674" style="fill: #0000ff"/>
     <use xlink:href="#m3e2e6c2bfa" x="107.13116" y="51.261264" style="fill: #0000ff"/>
     <use xlink:href="#m3e2e6c2bfa" x="110.86205" y="51.45538" style="fill: #0000ff"/>
     <use xlink:href="#m3e2e6c2bfa" x="114.592941" y="51.621765" style="fill: #0000ff"/>
     <use xlink:href="#m3e2e6c2bfa" x="118.323831" y="51.09303" style="fill: #0000ff"/>
     <use xlink:href="#m3e2e6c2bfa" x="122.054722" y="50.630387" style="fill: #0000ff"/>
     <use xlink:href="#m3e2e6c2bfa" x="125.785612" y="50.519056" style="fill: #0000ff"/>
     <use xlink:href="#m3e2e6c2bfa" x="129.516503" y="50.980874" style="fill: #0000ff"/>
     <use xlink:href="#m3e2e6c2bfa" x="133.247393" y="50.597183" style="fill: #0000ff"/>
     <use xlink:href="#m3e2e6c2bfa" x="136.978284" y="50.251861" style="fill: #0000ff"/>
     <use xlink:href="#m3e2e6c2bfa" x="140.709174" y="49.699092" style="fill: #0000ff"/>
     <use xlink:href="#m3e2e6c2bfa" x="144.440065" y="49.425985" style="fill: #0000ff"/>
     <use xlink:href="#m3e2e6c2bfa" x="148.170955" y="48.957191" style="fill: #0000ff"/>
     <use xlink:href="#m3e2e6c2bfa" x="151.901846" y="48.527463" style="fill: #0000ff"/>
     <use xlink:href="#m3e2e6c2bfa" x="155.632737" y="48.132114" style="fill: #0000ff"/>
     <use xlink:href="#m3e2e6c2bfa" x="159.363627" y="48.155408" style="fill: #0000ff"/>
     <use xlink:href="#m3e2e6c2bfa" x="163.094518" y="47.99005" style="fill: #0000ff"/>
     <use xlink:href="#m3e2e6c2bfa" x="166.825408" y="47.836503" style="fill: #0000ff"/>
     <use xlink:href="#m3e2e6c2bfa" x="170.556299" y="47.693546" style="fill: #0000ff"/>
     <use xlink:href="#m3e2e6c2bfa" x="174.287189" y="47.560119" style="fill: #0000ff"/>
     <use xlink:href="#m3e2e6c2bfa" x="178.01808" y="47.760914" style="fill: #0000ff"/>
     <use xlink:href="#m3e2e6c2bfa" x="181.74897" y="47.476002" style="fill: #0000ff"/>
     <use xlink:href="#m3e2e6c2bfa" x="185.479861" y="47.208357" style="fill: #0000ff"/>
     <use xlink:href="#m3e2e6c2bfa" x="189.210751" y="47.104898" style="fill: #0000ff"/>
     <use xlink:href="#m3e2e6c2bfa" x="192.941642" y="47.00735" style="fill: #0000ff"/>
     <use xlink:href="#m3e2e6c2bfa" x="196.672532" y="46.775027" style="fill: #0000ff"/>
     <use xlink:href="#m3e2e6c2bfa" x="200.403423" y="46.828074" style="fill: #0000ff"/>
     <use xlink:href="#m3e2e6c2bfa" x="204.134314" y="46.745512" style="fill: #0000ff"/>
     <use xlink:href="#m3e2e6c2bfa" x="207.865204" y="47.055417" style="fill: #0000ff"/>
     <use xlink:href="#m3e2e6c2bfa" x="211.596095" y="47.223651" style="fill: #0000ff"/>
     <use xlink:href="#m3e2e6c2bfa" x="215.326985" y="47.506776" style="fill: #0000ff"/>
     <use xlink:href="#m3e2e6c2bfa" x="219.057876" y="47.415918" style="fill: #0000ff"/>
     <use xlink:href="#m3e2e6c2bfa" x="222.788766" y="47.446659" style="fill: #0000ff"/>
     <use xlink:href="#m3e2e6c2bfa" x="226.519657" y="47.476002" style="fill: #0000ff"/>
     <use xlink:href="#m3e2e6c2bfa" x="230.250547" y="47.616197" style="fill: #0000ff"/>
     <use xlink:href="#m3e2e6c2bfa" x="233.981438" y="47.640578" style="fill: #0000ff"/>
     <use xlink:href="#m3e2e6c2bfa" x="237.712328" y="47.878689" style="fill: #0000ff"/>
     <use xlink:href="#m3e2e6c2bfa" x="241.443219" y="47.79144" style="fill: #0000ff"/>
     <use xlink:href="#m3e2e6c2bfa" x="245.174109" y="47.707752" style="fill: #0000ff"/>
     <use xlink:href="#m3e2e6c2bfa" x="248.905" y="47.728353" style="fill: #0000ff"/>
     <use xlink:href="#m3e2e6c2bfa" x="252.635891" y="47.550223" style="fill: #0000ff"/>
     <use xlink:href="#m3e2e6c2bfa" x="256.366781" y="47.476002" style="fill: #0000ff"/>
     <use xlink:href="#m3e2e6c2bfa" x="260.097672" y="47.404582" style="fill: #0000ff"/>
     <use xlink:href="#m3e2e6c2bfa" x="263.828562" y="47.242344" style="fill: #0000ff"/>
     <use xlink:href="#m3e2e6c2bfa" x="267.559453" y="47.177769" style="fill: #0000ff"/>
     <use xlink:href="#m3e2e6c2bfa" x="271.290343" y="47.115501" style="fill: #0000ff"/>
     <use xlink:href="#m3e2e6c2bfa" x="275.021234" y="47.055417" style="fill: #0000ff"/>
     <use xlink:href="#m3e2e6c2bfa" x="278.752124" y="47.17144" style="fill: #0000ff"/>
     <use xlink:href="#m3e2e6c2bfa" x="282.483015" y="47.112445" style="fill: #0000ff"/>
     <use xlink:href="#m3e2e6c2bfa" x="286.213905" y="47.139534" style="fill: #0000ff"/>
     <use xlink:href="#m3e2e6c2bfa" x="289.944796" y="47.000258" style="fill: #0000ff"/>
     <use xlink:href="#m3e2e6c2bfa" x="293.675686" y="46.865476" style="fill: #0000ff"/>
     <use xlink:href="#m3e2e6c2bfa" x="297.406577" y="46.815083" style="fill: #0000ff"/>
     <use xlink:href="#m3e2e6c2bfa" x="301.137468" y="46.687405" style="fill: #0000ff"/>
     <use xlink:href="#m3e2e6c2bfa" x="304.868358" y="46.563656" style="fill: #0000ff"/>
     <use xlink:href="#m3e2e6c2bfa" x="308.599249" y="46.673067" style="fill: #0000ff"/>
     <use xlink:href="#m3e2e6c2bfa" x="312.330139" y="46.628555" style="fill: #0000ff"/>
     <use xlink:href="#m3e2e6c2bfa" x="316.06103" y="46.511131" style="fill: #0000ff"/>
     <use xlink:href="#m3e2e6c2bfa" x="319.79192" y="46.470256" style="fill: #0000ff"/>
     <use xlink:href="#m3e2e6c2bfa" x="323.522811" y="46.358448" style="fill: #0000ff"/>
     <use xlink:href="#m3e2e6c2bfa" x="327.253701" y="46.24979" style="fill: #0000ff"/>
     <use xlink:href="#m3e2e6c2bfa" x="330.984592" y="46.14415" style="fill: #0000ff"/>
     <use xlink:href="#m3e2e6c2bfa" x="334.715482" y="46.110542" style="fill: #0000ff"/>
     <use xlink:href="#m3e2e6c2bfa" x="338.446373" y="46.146045" style="fill: #0000ff"/>
     <use xlink:href="#m3e2e6c2bfa" x="342.177263" y="46.180601" style="fill: #0000ff"/>
     <use xlink:href="#m3e2e6c2bfa" x="345.908154" y="46.147839" style="fill: #0000ff"/>
     <use xlink:href="#m3e2e6c2bfa" x="349.639045" y="46.115929" style="fill: #0000ff"/>
     <use xlink:href="#m3e2e6c2bfa" x="353.369935" y="46.020132" style="fill: #0000ff"/>
     <use xlink:href="#m3e2e6c2bfa" x="357.100826" y="45.990646" style="fill: #0000ff"/>
     <use xlink:href="#m3e2e6c2bfa" x="360.831716" y="45.898809" style="fill: #0000ff"/>
     <use xlink:href="#m3e2e6c2bfa" x="364.562607" y="45.933858" style="fill: #0000ff"/>
     <use xlink:href="#m3e2e6c2bfa" x="368.293497" y="45.968052" style="fill: #0000ff"/>
     <use xlink:href="#m3e2e6c2bfa" x="372.024388" y="45.940614" style="fill: #0000ff"/>
     <use xlink:href="#m3e2e6c2bfa" x="375.755278" y="45.91383" style="fill: #0000ff"/>
     <use xlink:href="#m3e2e6c2bfa" x="379.486169" y="45.887676" style="fill: #0000ff"/>
     <use xlink:href="#m3e2e6c2bfa" x="383.217059" y="45.86213" style="fill: #0000ff"/>
     <use xlink:href="#m3e2e6c2bfa" x="386.94795" y="45.77916" style="fill: #0000ff"/>
     <use xlink:href="#m3e2e6c2bfa" x="390.67884" y="45.698075" style="fill: #0000ff"/>
     <use xlink:href="#m3e2e6c2bfa" x="394.409731" y="45.618813" style="fill: #0000ff"/>
     <use xlink:href="#m3e2e6c2bfa" x="398.140622" y="45.653468" style="fill: #0000ff"/>
     <use xlink:href="#m3e2e6c2bfa" x="401.871512" y="45.742823" style="fill: #0000ff"/>
     <use xlink:href="#m3e2e6c2bfa" x="405.602403" y="45.775377" style="fill: #0000ff"/>
     <use xlink:href="#m3e2e6c2bfa" x="409.333293" y="45.752961" style="fill: #0000ff"/>
     <use xlink:href="#m3e2e6c2bfa" x="413.064184" y="45.731023" style="fill: #0000ff"/>
     <use xlink:href="#m3e2e6c2bfa" x="416.795074" y="45.656419" style="fill: #0000ff"/>
     <use xlink:href="#m3e2e6c2bfa" x="420.525965" y="45.688517" style="fill: #0000ff"/>
     <use xlink:href="#m3e2e6c2bfa" x="424.256855" y="45.719952" style="fill: #0000ff"/>
     <use xlink:href="#m3e2e6c2bfa" x="427.987746" y="45.750746" style="fill: #0000ff"/>
     <use xlink:href="#m3e2e6c2bfa" x="431.718636" y="45.729938" style="fill: #0000ff"/>
    </g>
   </g>
   <g id="line2d_14">
    <path d="M 66.091364 139.584052 
L 69.822254 116.872478 
L 73.553145 104.254937 
L 77.284035 95.738097 
L 81.014926 89.366238 
L 84.745816 84.417358 
L 88.476707 80.556276 
L 92.207597 77.446417 
L 95.938488 74.817345 
L 99.669378 72.562678 
L 103.400269 70.647041 
L 107.13116 69.03156 
L 110.86205 67.679546 
L 114.592941 66.532561 
L 118.323831 65.503259 
L 122.054722 64.573705 
L 125.785612 63.746961 
L 129.516503 63.037734 
L 133.247393 62.382968 
L 136.978284 61.776413 
L 140.709174 61.201302 
L 144.440065 60.66606 
L 148.170955 60.156979 
L 151.901846 59.672416 
L 155.632737 59.210804 
L 159.363627 58.785596 
L 163.094518 58.385761 
L 166.825408 58.009002 
L 170.556299 57.653297 
L 174.287189 57.316857 
L 178.01808 57.008601 
L 181.74897 56.710707 
L 185.479861 56.422757 
L 189.210751 56.148703 
L 192.941642 55.887521 
L 196.672532 55.634396 
L 200.403423 55.396388 
L 204.134314 55.168733 
L 207.865204 54.960699 
L 211.596095 54.767273 
L 215.326985 54.590188 
L 219.057876 54.419372 
L 222.788766 54.257216 
L 226.519657 54.103097 
L 230.250547 53.958944 
L 233.981438 53.821588 
L 237.712328 53.695143 
L 241.443219 53.57215 
L 245.174109 53.452468 
L 248.905 53.337986 
L 252.635891 53.2245 
L 256.366781 53.113952 
L 260.097672 53.006228 
L 263.828562 52.89949 
L 267.559453 52.795458 
L 271.290343 52.69403 
L 275.021234 52.595107 
L 278.752124 52.501596 
L 282.483015 52.410254 
L 286.213905 52.322409 
L 289.944796 52.235161 
L 293.675686 52.148553 
L 297.406577 52.063895 
L 301.137468 51.979887 
L 304.868358 51.89656 
L 308.599249 51.817417 
L 312.330139 51.739971 
L 316.06103 51.663076 
L 319.79192 51.587818 
L 323.522811 51.513113 
L 327.253701 51.438981 
L 330.984592 51.365442 
L 334.715482 51.293457 
L 338.446373 51.223897 
L 342.177263 51.156653 
L 345.908154 51.090748 
L 349.639045 51.02614 
L 353.369935 50.96196 
L 357.100826 50.899032 
L 360.831716 50.83653 
L 364.562607 50.776003 
L 368.293497 50.717369 
L 372.024388 50.659818 
L 375.755278 50.603318 
L 379.486169 50.54784 
L 383.217059 50.493355 
L 386.94795 50.439169 
L 390.67884 50.385293 
L 394.409731 50.331737 
L 398.140622 50.279756 
L 401.871512 50.2299 
L 405.602403 50.181481 
L 409.333293 50.133862 
L 413.064184 50.087024 
L 416.795074 50.040386 
L 420.525965 49.995054 
L 424.256855 49.950981 
L 427.987746 49.908121 
L 431.718636 49.865917 
" clip-path="url(#pc00b807c50)" style="fill: none; stroke: #ff0000; stroke-opacity: 0.5; stroke-width: 0.5; stroke-linecap: square"/>
    <defs>
     <path id="m05037ba11d" d="M -0.49999 0.49999 
L 0.50001 0.49999 
L 0.50001 -0.50001 
L -0.49999 -0.50001 
z
"/>
    </defs>
    <g clip-path="url(#pc00b807c50)">
     <use xlink:href="#m05037ba11d" x="66.091364" y="139.584052" style="fill: #ff0000; fill-opacity: 0.5"/>
     <use xlink:href="#m05037ba11d" x="69.822254" y="116.872478" style="fill: #ff0000; fill-opacity: 0.5"/>
     <use xlink:href="#m05037ba11d" x="73.553145" y="104.254937" style="fill: #ff0000; fill-opacity: 0.5"/>
     <use xlink:href="#m05037ba11d" x="77.284035" y="95.738097" style="fill: #ff0000; fill-opacity: 0.5"/>
     <use xlink:href="#m05037ba11d" x="81.014926" y="89.366238" style="fill: #ff0000; fill-opacity: 0.5"/>
     <use xlink:href="#m05037ba11d" x="84.745816" y="84.417358" style="fill: #ff0000; fill-opacity: 0.5"/>
     <use xlink:href="#m05037ba11d" x="88.476707" y="80.556276" style="fill: #ff0000; fill-opacity: 0.5"/>
     <use xlink:href="#m05037ba11d" x="92.207597" y="77.446417" style="fill: #ff0000; fill-opacity: 0.5"/>
     <use xlink:href="#m05037ba11d" x="95.938488" y="74.817345" style="fill: #ff0000; fill-opacity: 0.5"/>
     <use xlink:href="#m05037ba11d" x="99.669378" y="72.562678" style="fill: #ff0000; fill-opacity: 0.5"/>
     <use xlink:href="#m05037ba11d" x="103.400269" y="70.647041" style="fill: #ff0000; fill-opacity: 0.5"/>
     <use xlink:href="#m05037ba11d" x="107.13116" y="69.03156" style="fill: #ff0000; fill-opacity: 0.5"/>
     <use xlink:href="#m05037ba11d" x="110.86205" y="67.679546" style="fill: #ff0000; fill-opacity: 0.5"/>
     <use xlink:href="#m05037ba11d" x="114.592941" y="66.532561" style="fill: #ff0000; fill-opacity: 0.5"/>
     <use xlink:href="#m05037ba11d" x="118.323831" y="65.503259" style="fill: #ff0000; fill-opacity: 0.5"/>
     <use xlink:href="#m05037ba11d" x="122.054722" y="64.573705" style="fill: #ff0000; fill-opacity: 0.5"/>
     <use xlink:href="#m05037ba11d" x="125.785612" y="63.746961" style="fill: #ff0000; fill-opacity: 0.5"/>
     <use xlink:href="#m05037ba11d" x="129.516503" y="63.037734" style="fill: #ff0000; fill-opacity: 0.5"/>
     <use xlink:href="#m05037ba11d" x="133.247393" y="62.382968" style="fill: #ff0000; fill-opacity: 0.5"/>
     <use xlink:href="#m05037ba11d" x="136.978284" y="61.776413" style="fill: #ff0000; fill-opacity: 0.5"/>
     <use xlink:href="#m05037ba11d" x="140.709174" y="61.201302" style="fill: #ff0000; fill-opacity: 0.5"/>
     <use xlink:href="#m05037ba11d" x="144.440065" y="60.66606" style="fill: #ff0000; fill-opacity: 0.5"/>
     <use xlink:href="#m05037ba11d" x="148.170955" y="60.156979" style="fill: #ff0000; fill-opacity: 0.5"/>
     <use xlink:href="#m05037ba11d" x="151.901846" y="59.672416" style="fill: #ff0000; fill-opacity: 0.5"/>
     <use xlink:href="#m05037ba11d" x="155.632737" y="59.210804" style="fill: #ff0000; fill-opacity: 0.5"/>
     <use xlink:href="#m05037ba11d" x="159.363627" y="58.785596" style="fill: #ff0000; fill-opacity: 0.5"/>
     <use xlink:href="#m05037ba11d" x="163.094518" y="58.385761" style="fill: #ff0000; fill-opacity: 0.5"/>
     <use xlink:href="#m05037ba11d" x="166.825408" y="58.009002" style="fill: #ff0000; fill-opacity: 0.5"/>
     <use xlink:href="#m05037ba11d" x="170.556299" y="57.653297" style="fill: #ff0000; fill-opacity: 0.5"/>
     <use xlink:href="#m05037ba11d" x="174.287189" y="57.316857" style="fill: #ff0000; fill-opacity: 0.5"/>
     <use xlink:href="#m05037ba11d" x="178.01808" y="57.008601" style="fill: #ff0000; fill-opacity: 0.5"/>
     <use xlink:href="#m05037ba11d" x="181.74897" y="56.710707" style="fill: #ff0000; fill-opacity: 0.5"/>
     <use xlink:href="#m05037ba11d" x="185.479861" y="56.422757" style="fill: #ff0000; fill-opacity: 0.5"/>
     <use xlink:href="#m05037ba11d" x="189.210751" y="56.148703" style="fill: #ff0000; fill-opacity: 0.5"/>
     <use xlink:href="#m05037ba11d" x="192.941642" y="55.887521" style="fill: #ff0000; fill-opacity: 0.5"/>
     <use xlink:href="#m05037ba11d" x="196.672532" y="55.634396" style="fill: #ff0000; fill-opacity: 0.5"/>
     <use xlink:href="#m05037ba11d" x="200.403423" y="55.396388" style="fill: #ff0000; fill-opacity: 0.5"/>
     <use xlink:href="#m05037ba11d" x="204.134314" y="55.168733" style="fill: #ff0000; fill-opacity: 0.5"/>
     <use xlink:href="#m05037ba11d" x="207.865204" y="54.960699" style="fill: #ff0000; fill-opacity: 0.5"/>
     <use xlink:href="#m05037ba11d" x="211.596095" y="54.767273" style="fill: #ff0000; fill-opacity: 0.5"/>
     <use xlink:href="#m05037ba11d" x="215.326985" y="54.590188" style="fill: #ff0000; fill-opacity: 0.5"/>
     <use xlink:href="#m05037ba11d" x="219.057876" y="54.419372" style="fill: #ff0000; fill-opacity: 0.5"/>
     <use xlink:href="#m05037ba11d" x="222.788766" y="54.257216" style="fill: #ff0000; fill-opacity: 0.5"/>
     <use xlink:href="#m05037ba11d" x="226.519657" y="54.103097" style="fill: #ff0000; fill-opacity: 0.5"/>
     <use xlink:href="#m05037ba11d" x="230.250547" y="53.958944" style="fill: #ff0000; fill-opacity: 0.5"/>
     <use xlink:href="#m05037ba11d" x="233.981438" y="53.821588" style="fill: #ff0000; fill-opacity: 0.5"/>
     <use xlink:href="#m05037ba11d" x="237.712328" y="53.695143" style="fill: #ff0000; fill-opacity: 0.5"/>
     <use xlink:href="#m05037ba11d" x="241.443219" y="53.57215" style="fill: #ff0000; fill-opacity: 0.5"/>
     <use xlink:href="#m05037ba11d" x="245.174109" y="53.452468" style="fill: #ff0000; fill-opacity: 0.5"/>
     <use xlink:href="#m05037ba11d" x="248.905" y="53.337986" style="fill: #ff0000; fill-opacity: 0.5"/>
     <use xlink:href="#m05037ba11d" x="252.635891" y="53.2245" style="fill: #ff0000; fill-opacity: 0.5"/>
     <use xlink:href="#m05037ba11d" x="256.366781" y="53.113952" style="fill: #ff0000; fill-opacity: 0.5"/>
     <use xlink:href="#m05037ba11d" x="260.097672" y="53.006228" style="fill: #ff0000; fill-opacity: 0.5"/>
     <use xlink:href="#m05037ba11d" x="263.828562" y="52.89949" style="fill: #ff0000; fill-opacity: 0.5"/>
     <use xlink:href="#m05037ba11d" x="267.559453" y="52.795458" style="fill: #ff0000; fill-opacity: 0.5"/>
     <use xlink:href="#m05037ba11d" x="271.290343" y="52.69403" style="fill: #ff0000; fill-opacity: 0.5"/>
     <use xlink:href="#m05037ba11d" x="275.021234" y="52.595107" style="fill: #ff0000; fill-opacity: 0.5"/>
     <use xlink:href="#m05037ba11d" x="278.752124" y="52.501596" style="fill: #ff0000; fill-opacity: 0.5"/>
     <use xlink:href="#m05037ba11d" x="282.483015" y="52.410254" style="fill: #ff0000; fill-opacity: 0.5"/>
     <use xlink:href="#m05037ba11d" x="286.213905" y="52.322409" style="fill: #ff0000; fill-opacity: 0.5"/>
     <use xlink:href="#m05037ba11d" x="289.944796" y="52.235161" style="fill: #ff0000; fill-opacity: 0.5"/>
     <use xlink:href="#m05037ba11d" x="293.675686" y="52.148553" style="fill: #ff0000; fill-opacity: 0.5"/>
     <use xlink:href="#m05037ba11d" x="297.406577" y="52.063895" style="fill: #ff0000; fill-opacity: 0.5"/>
     <use xlink:href="#m05037ba11d" x="301.137468" y="51.979887" style="fill: #ff0000; fill-opacity: 0.5"/>
     <use xlink:href="#m05037ba11d" x="304.868358" y="51.89656" style="fill: #ff0000; fill-opacity: 0.5"/>
     <use xlink:href="#m05037ba11d" x="308.599249" y="51.817417" style="fill: #ff0000; fill-opacity: 0.5"/>
     <use xlink:href="#m05037ba11d" x="312.330139" y="51.739971" style="fill: #ff0000; fill-opacity: 0.5"/>
     <use xlink:href="#m05037ba11d" x="316.06103" y="51.663076" style="fill: #ff0000; fill-opacity: 0.5"/>
     <use xlink:href="#m05037ba11d" x="319.79192" y="51.587818" style="fill: #ff0000; fill-opacity: 0.5"/>
     <use xlink:href="#m05037ba11d" x="323.522811" y="51.513113" style="fill: #ff0000; fill-opacity: 0.5"/>
     <use xlink:href="#m05037ba11d" x="327.253701" y="51.438981" style="fill: #ff0000; fill-opacity: 0.5"/>
     <use xlink:href="#m05037ba11d" x="330.984592" y="51.365442" style="fill: #ff0000; fill-opacity: 0.5"/>
     <use xlink:href="#m05037ba11d" x="334.715482" y="51.293457" style="fill: #ff0000; fill-opacity: 0.5"/>
     <use xlink:href="#m05037ba11d" x="338.446373" y="51.223897" style="fill: #ff0000; fill-opacity: 0.5"/>
     <use xlink:href="#m05037ba11d" x="342.177263" y="51.156653" style="fill: #ff0000; fill-opacity: 0.5"/>
     <use xlink:href="#m05037ba11d" x="345.908154" y="51.090748" style="fill: #ff0000; fill-opacity: 0.5"/>
     <use xlink:href="#m05037ba11d" x="349.639045" y="51.02614" style="fill: #ff0000; fill-opacity: 0.5"/>
     <use xlink:href="#m05037ba11d" x="353.369935" y="50.96196" style="fill: #ff0000; fill-opacity: 0.5"/>
     <use xlink:href="#m05037ba11d" x="357.100826" y="50.899032" style="fill: #ff0000; fill-opacity: 0.5"/>
     <use xlink:href="#m05037ba11d" x="360.831716" y="50.83653" style="fill: #ff0000; fill-opacity: 0.5"/>
     <use xlink:href="#m05037ba11d" x="364.562607" y="50.776003" style="fill: #ff0000; fill-opacity: 0.5"/>
     <use xlink:href="#m05037ba11d" x="368.293497" y="50.717369" style="fill: #ff0000; fill-opacity: 0.5"/>
     <use xlink:href="#m05037ba11d" x="372.024388" y="50.659818" style="fill: #ff0000; fill-opacity: 0.5"/>
     <use xlink:href="#m05037ba11d" x="375.755278" y="50.603318" style="fill: #ff0000; fill-opacity: 0.5"/>
     <use xlink:href="#m05037ba11d" x="379.486169" y="50.54784" style="fill: #ff0000; fill-opacity: 0.5"/>
     <use xlink:href="#m05037ba11d" x="383.217059" y="50.493355" style="fill: #ff0000; fill-opacity: 0.5"/>
     <use xlink:href="#m05037ba11d" x="386.94795" y="50.439169" style="fill: #ff0000; fill-opacity: 0.5"/>
     <use xlink:href="#m05037ba11d" x="390.67884" y="50.385293" style="fill: #ff0000; fill-opacity: 0.5"/>
     <use xlink:href="#m05037ba11d" x="394.409731" y="50.331737" style="fill: #ff0000; fill-opacity: 0.5"/>
     <use xlink:href="#m05037ba11d" x="398.140622" y="50.279756" style="fill: #ff0000; fill-opacity: 0.5"/>
     <use xlink:href="#m05037ba11d" x="401.871512" y="50.2299" style="fill: #ff0000; fill-opacity: 0.5"/>
     <use xlink:href="#m05037ba11d" x="405.602403" y="50.181481" style="fill: #ff0000; fill-opacity: 0.5"/>
     <use xlink:href="#m05037ba11d" x="409.333293" y="50.133862" style="fill: #ff0000; fill-opacity: 0.5"/>
     <use xlink:href="#m05037ba11d" x="413.064184" y="50.087024" style="fill: #ff0000; fill-opacity: 0.5"/>
     <use xlink:href="#m05037ba11d" x="416.795074" y="50.040386" style="fill: #ff0000; fill-opacity: 0.5"/>
     <use xlink:href="#m05037ba11d" x="420.525965" y="49.995054" style="fill: #ff0000; fill-opacity: 0.5"/>
     <use xlink:href="#m05037ba11d" x="424.256855" y="49.950981" style="fill: #ff0000; fill-opacity: 0.5"/>
     <use xlink:href="#m05037ba11d" x="427.987746" y="49.908121" style="fill: #ff0000; fill-opacity: 0.5"/>
     <use xlink:href="#m05037ba11d" x="431.718636" y="49.865917" style="fill: #ff0000; fill-opacity: 0.5"/>
    </g>
   </g>
   <g id="line2d_15">
    <path d="M 47.81 290.994545 
L 450 290.994545 
" clip-path="url(#pc00b807c50)" style="fill: none; stroke-dasharray: 0.555,0.24; stroke-dashoffset: 0; stroke: #ff0000; stroke-width: 0.15"/>
   </g>
   <g id="line2d_16">
    <path d="M 47.81 164.819134 
L 450 164.819134 
" clip-path="url(#pc00b807c50)" style="fill: none; stroke-dasharray: 0.555,0.24; stroke-dashoffset: 0; stroke: #ff0000; stroke-width: 0.15"/>
   </g>
   <g id="line2d_17">
    <path d="M 47.81 38.643723 
L 450 38.643723 
" clip-path="url(#pc00b807c50)" style="fill: none; stroke-dasharray: 0.555,0.24; stroke-dashoffset: 0; stroke: #ff0000; stroke-width: 0.15"/>
   </g>
   <g id="patch_3">
    <path d="M 47.81 303.64 
L 47.81 25.44 
" style="fill: none; stroke: #000000; stroke-width: 0.8; stroke-linejoin: miter; stroke-linecap: square"/>
   </g>
   <g id="patch_4">
    <path d="M 450 303.64 
L 450 25.44 
" style="fill: none; stroke: #000000; stroke-width: 0.8; stroke-linejoin: miter; stroke-linecap: square"/>
   </g>
   <g id="patch_5">
    <path d="M 47.81 303.64 
L 450 303.64 
" style="fill: none; stroke: #000000; stroke-width: 0.8; stroke-linejoin: miter; stroke-linecap: square"/>
   </g>
   <g id="patch_6">
    <path d="M 47.81 25.44 
L 450 25.44 
" style="fill: none; stroke: #000000; stroke-width: 0.8; stroke-linejoin: miter; stroke-linecap: square"/>
   </g>
   <g id="text_15">
    <!-- Similarity LLM-DEF_sw10 - 20240412100726 - 50 games -->
    <g transform="translate(78.98125 19.44) scale(0.12 -0.12)">
     <defs>
      <path id="DejaVuSans-20" transform="scale(0.015625)"/>
      <path id="DejaVuSans-4c" d="M 628 4666 
L 1259 4666 
L 1259 531 
L 3531 531 
L 3531 0 
L 628 0 
L 628 4666 
z
" transform="scale(0.015625)"/>
      <path id="DejaVuSans-4d" d="M 628 4666 
L 1569 4666 
L 2759 1491 
L 3956 4666 
L 4897 4666 
L 4897 0 
L 4281 0 
L 4281 4097 
L 3078 897 
L 2444 897 
L 1241 4097 
L 1241 0 
L 628 0 
L 628 4666 
z
" transform="scale(0.015625)"/>
      <path id="DejaVuSans-2d" d="M 313 2009 
L 1997 2009 
L 1997 1497 
L 313 1497 
L 313 2009 
z
" transform="scale(0.015625)"/>
      <path id="DejaVuSans-44" d="M 1259 4147 
L 1259 519 
L 2022 519 
Q 2988 519 3436 956 
Q 3884 1394 3884 2338 
Q 3884 3275 3436 3711 
Q 2988 4147 2022 4147 
L 1259 4147 
z
M 628 4666 
L 1925 4666 
Q 3281 4666 3915 4102 
Q 4550 3538 4550 2338 
Q 4550 1131 3912 565 
Q 3275 0 1925 0 
L 628 0 
L 628 4666 
z
" transform="scale(0.015625)"/>
      <path id="DejaVuSans-45" d="M 628 4666 
L 3578 4666 
L 3578 4134 
L 1259 4134 
L 1259 2753 
L 3481 2753 
L 3481 2222 
L 1259 2222 
L 1259 531 
L 3634 531 
L 3634 0 
L 628 0 
L 628 4666 
z
" transform="scale(0.015625)"/>
      <path id="DejaVuSans-46" d="M 628 4666 
L 3309 4666 
L 3309 4134 
L 1259 4134 
L 1259 2759 
L 3109 2759 
L 3109 2228 
L 1259 2228 
L 1259 0 
L 628 0 
L 628 4666 
z
" transform="scale(0.015625)"/>
      <path id="DejaVuSans-5f" d="M 3263 -1063 
L 3263 -1509 
L -63 -1509 
L -63 -1063 
L 3263 -1063 
z
" transform="scale(0.015625)"/>
      <path id="DejaVuSans-73" d="M 2834 3397 
L 2834 2853 
Q 2591 2978 2328 3040 
Q 2066 3103 1784 3103 
Q 1356 3103 1142 2972 
Q 928 2841 928 2578 
Q 928 2378 1081 2264 
Q 1234 2150 1697 2047 
L 1894 2003 
Q 2506 1872 2764 1633 
Q 3022 1394 3022 966 
Q 3022 478 2636 193 
Q 2250 -91 1575 -91 
Q 1294 -91 989 -36 
Q 684 19 347 128 
L 347 722 
Q 666 556 975 473 
Q 1284 391 1588 391 
Q 1994 391 2212 530 
Q 2431 669 2431 922 
Q 2431 1156 2273 1281 
Q 2116 1406 1581 1522 
L 1381 1569 
Q 847 1681 609 1914 
Q 372 2147 372 2553 
Q 372 3047 722 3315 
Q 1072 3584 1716 3584 
Q 2034 3584 2315 3537 
Q 2597 3491 2834 3397 
z
" transform="scale(0.015625)"/>
      <path id="DejaVuSans-77" d="M 269 3500 
L 844 3500 
L 1563 769 
L 2278 3500 
L 2956 3500 
L 3675 769 
L 4391 3500 
L 4966 3500 
L 4050 0 
L 3372 0 
L 2619 2869 
L 1863 0 
L 1184 0 
L 269 3500 
z
" transform="scale(0.015625)"/>
      <path id="DejaVuSans-37" d="M 525 4666 
L 3525 4666 
L 3525 4397 
L 1831 0 
L 1172 0 
L 2766 4134 
L 525 4134 
L 525 4666 
z
" transform="scale(0.015625)"/>
      <path id="DejaVuSans-35" d="M 691 4666 
L 3169 4666 
L 3169 4134 
L 1269 4134 
L 1269 2991 
Q 1406 3038 1543 3061 
Q 1681 3084 1819 3084 
Q 2600 3084 3056 2656 
Q 3513 2228 3513 1497 
Q 3513 744 3044 326 
Q 2575 -91 1722 -91 
Q 1428 -91 1123 -41 
Q 819 9 494 109 
L 494 744 
Q 775 591 1075 516 
Q 1375 441 1709 441 
Q 2250 441 2565 725 
Q 2881 1009 2881 1497 
Q 2881 1984 2565 2268 
Q 2250 2553 1709 2553 
Q 1456 2553 1204 2497 
Q 953 2441 691 2322 
L 691 4666 
z
" transform="scale(0.015625)"/>
      <path id="DejaVuSans-67" d="M 2906 1791 
Q 2906 2416 2648 2759 
Q 2391 3103 1925 3103 
Q 1463 3103 1205 2759 
Q 947 2416 947 1791 
Q 947 1169 1205 825 
Q 1463 481 1925 481 
Q 2391 481 2648 825 
Q 2906 1169 2906 1791 
z
M 3481 434 
Q 3481 -459 3084 -895 
Q 2688 -1331 1869 -1331 
Q 1566 -1331 1297 -1286 
Q 1028 -1241 775 -1147 
L 775 -588 
Q 1028 -725 1275 -790 
Q 1522 -856 1778 -856 
Q 2344 -856 2625 -561 
Q 2906 -266 2906 331 
L 2906 616 
Q 2728 306 2450 153 
Q 2172 0 1784 0 
Q 1141 0 747 490 
Q 353 981 353 1791 
Q 353 2603 747 3093 
Q 1141 3584 1784 3584 
Q 2172 3584 2450 3431 
Q 2728 3278 2906 2969 
L 2906 3500 
L 3481 3500 
L 3481 434 
z
" transform="scale(0.015625)"/>
     </defs>
     <use xlink:href="#DejaVuSans-53"/>
     <use xlink:href="#DejaVuSans-69" x="63.476562"/>
     <use xlink:href="#DejaVuSans-6d" x="91.259766"/>
     <use xlink:href="#DejaVuSans-69" x="188.671875"/>
     <use xlink:href="#DejaVuSans-6c" x="216.455078"/>
     <use xlink:href="#DejaVuSans-61" x="244.238281"/>
     <use xlink:href="#DejaVuSans-72" x="305.517578"/>
     <use xlink:href="#DejaVuSans-69" x="346.630859"/>
     <use xlink:href="#DejaVuSans-74" x="374.414062"/>
     <use xlink:href="#DejaVuSans-79" x="413.623047"/>
     <use xlink:href="#DejaVuSans-20" x="472.802734"/>
     <use xlink:href="#DejaVuSans-4c" x="504.589844"/>
     <use xlink:href="#DejaVuSans-4c" x="560.302734"/>
     <use xlink:href="#DejaVuSans-4d" x="616.015625"/>
     <use xlink:href="#DejaVuSans-2d" x="702.294922"/>
     <use xlink:href="#DejaVuSans-44" x="738.378906"/>
     <use xlink:href="#DejaVuSans-45" x="815.380859"/>
     <use xlink:href="#DejaVuSans-46" x="878.564453"/>
     <use xlink:href="#DejaVuSans-5f" x="936.083984"/>
     <use xlink:href="#DejaVuSans-73" x="986.083984"/>
     <use xlink:href="#DejaVuSans-77" x="1038.183594"/>
     <use xlink:href="#DejaVuSans-31" x="1119.970703"/>
     <use xlink:href="#DejaVuSans-30" x="1183.59375"/>
     <use xlink:href="#DejaVuSans-20" x="1247.216797"/>
     <use xlink:href="#DejaVuSans-2d" x="1279.003906"/>
     <use xlink:href="#DejaVuSans-20" x="1315.087891"/>
     <use xlink:href="#DejaVuSans-32" x="1346.875"/>
     <use xlink:href="#DejaVuSans-30" x="1410.498047"/>
     <use xlink:href="#DejaVuSans-32" x="1474.121094"/>
     <use xlink:href="#DejaVuSans-34" x="1537.744141"/>
     <use xlink:href="#DejaVuSans-30" x="1601.367188"/>
     <use xlink:href="#DejaVuSans-34" x="1664.990234"/>
     <use xlink:href="#DejaVuSans-31" x="1728.613281"/>
     <use xlink:href="#DejaVuSans-32" x="1792.236328"/>
     <use xlink:href="#DejaVuSans-31" x="1855.859375"/>
     <use xlink:href="#DejaVuSans-30" x="1919.482422"/>
     <use xlink:href="#DejaVuSans-30" x="1983.105469"/>
     <use xlink:href="#DejaVuSans-37" x="2046.728516"/>
     <use xlink:href="#DejaVuSans-32" x="2110.351562"/>
     <use xlink:href="#DejaVuSans-36" x="2173.974609"/>
     <use xlink:href="#DejaVuSans-20" x="2237.597656"/>
     <use xlink:href="#DejaVuSans-2d" x="2269.384766"/>
     <use xlink:href="#DejaVuSans-20" x="2305.46875"/>
     <use xlink:href="#DejaVuSans-35" x="2337.255859"/>
     <use xlink:href="#DejaVuSans-30" x="2400.878906"/>
     <use xlink:href="#DejaVuSans-20" x="2464.501953"/>
     <use xlink:href="#DejaVuSans-67" x="2496.289062"/>
     <use xlink:href="#DejaVuSans-61" x="2559.765625"/>
     <use xlink:href="#DejaVuSans-6d" x="2621.044922"/>
     <use xlink:href="#DejaVuSans-65" x="2718.457031"/>
     <use xlink:href="#DejaVuSans-73" x="2779.980469"/>
    </g>
   </g>
   <g id="legend_1">
    <g id="patch_7">
     <path d="M 54.81 298.64 
L 192.61 298.64 
Q 194.61 298.64 194.61 296.64 
L 194.61 267.7275 
Q 194.61 265.7275 192.61 265.7275 
L 54.81 265.7275 
Q 52.81 265.7275 52.81 267.7275 
L 52.81 296.64 
Q 52.81 298.64 54.81 298.64 
z
" style="fill: #ffffff; opacity: 0.8; stroke: #cccccc; stroke-linejoin: miter"/>
    </g>
    <g id="line2d_18">
     <path d="M 56.81 273.825937 
L 66.81 273.825937 
L 76.81 273.825937 
" style="fill: none; stroke: #0000ff; stroke-linecap: square"/>
     <g>
      <use xlink:href="#m3e2e6c2bfa" x="66.81" y="273.825937" style="fill: #0000ff"/>
     </g>
    </g>
    <g id="text_16">
     <!-- LLM-DEF_sw10 -->
     <g transform="translate(84.81 277.325937) scale(0.1 -0.1)">
      <use xlink:href="#DejaVuSans-4c"/>
      <use xlink:href="#DejaVuSans-4c" x="55.712891"/>
      <use xlink:href="#DejaVuSans-4d" x="111.425781"/>
      <use xlink:href="#DejaVuSans-2d" x="197.705078"/>
      <use xlink:href="#DejaVuSans-44" x="233.789062"/>
      <use xlink:href="#DejaVuSans-45" x="310.791016"/>
      <use xlink:href="#DejaVuSans-46" x="373.974609"/>
      <use xlink:href="#DejaVuSans-5f" x="431.494141"/>
      <use xlink:href="#DejaVuSans-73" x="481.494141"/>
      <use xlink:href="#DejaVuSans-77" x="533.59375"/>
      <use xlink:href="#DejaVuSans-31" x="615.380859"/>
      <use xlink:href="#DejaVuSans-30" x="679.003906"/>
     </g>
    </g>
    <g id="line2d_19">
     <path d="M 56.81 288.782187 
L 66.81 288.782187 
L 76.81 288.782187 
" style="fill: none; stroke: #ff0000; stroke-opacity: 0.5; stroke-width: 0.5; stroke-linecap: square"/>
     <g>
      <use xlink:href="#m05037ba11d" x="66.81" y="288.782187" style="fill: #ff0000; fill-opacity: 0.5"/>
     </g>
    </g>
    <g id="text_17">
     <!-- LLM-DEF_sw10 mean -->
     <g transform="translate(84.81 292.282187) scale(0.1 -0.1)">
      <use xlink:href="#DejaVuSans-4c"/>
      <use xlink:href="#DejaVuSans-4c" x="55.712891"/>
      <use xlink:href="#DejaVuSans-4d" x="111.425781"/>
      <use xlink:href="#DejaVuSans-2d" x="197.705078"/>
      <use xlink:href="#DejaVuSans-44" x="233.789062"/>
      <use xlink:href="#DejaVuSans-45" x="310.791016"/>
      <use xlink:href="#DejaVuSans-46" x="373.974609"/>
      <use xlink:href="#DejaVuSans-5f" x="431.494141"/>
      <use xlink:href="#DejaVuSans-73" x="481.494141"/>
      <use xlink:href="#DejaVuSans-77" x="533.59375"/>
      <use xlink:href="#DejaVuSans-31" x="615.380859"/>
      <use xlink:href="#DejaVuSans-30" x="679.003906"/>
      <use xlink:href="#DejaVuSans-20" x="742.626953"/>
      <use xlink:href="#DejaVuSans-6d" x="774.414062"/>
      <use xlink:href="#DejaVuSans-65" x="871.826172"/>
      <use xlink:href="#DejaVuSans-61" x="933.349609"/>
      <use xlink:href="#DejaVuSans-6e" x="994.628906"/>
     </g>
    </g>
   </g>
  </g>
 </g>
 <defs>
  <clipPath id="pc00b807c50">
   <rect x="47.81" y="25.44" width="402.19" height="278.2"/>
  </clipPath>
 </defs>
</svg>
